<?xml version="1.0" encoding="UTF-8"?>
<svg id="Layer_6" data-name="Layer 6" xmlns="http://www.w3.org/2000/svg" viewBox="0 0 361.32 87.6">
  <defs>
    <style>
      .cls-1 {
        fill: #00796a;
      }

      .cls-2 {
        fill: #00ab97;
      }
    </style>
  </defs>
  <g>
    <path class="cls-1" d="M344.47,4.09h-3.18l.44-1.63h8.1l-.44,1.63h-3.17l-2.25,8.36h-1.75l2.25-8.36Z"/>
    <path class="cls-1" d="M351.51,2.47h1.78l1.74,4.72,4.28-4.72h2.01l-2.68,9.98h-1.78l1.93-7.16-4.39,4.71h-.06l-1.84-4.68-1.91,7.13h-1.75l2.68-9.98Z"/>
  </g>
  <g>
    <path class="cls-2" d="M43.61,43.73c0-5.76-5.53-10.34-14.93-10.34-8.58,0-14.22,3.64-14.22,9.87,0,6.82,6.94,7.99,14.11,9.99,9.17,2.47,19.51,5.29,19.51,16.46,0,11.87-10.23,17.75-23.51,17.75-14.46,0-24.57-6.94-24.57-17.87h8.11c.12,6.11,6.35,10.7,16.58,10.7,9.05,0,15.4-3.64,15.4-9.87,0-6.82-7.52-8.23-14.22-9.99-9.87-2.59-19.4-5.06-19.4-16.22s9.17-17.87,22.69-17.87,22.34,6.11,22.34,17.4h-7.88Z"/>
    <path class="cls-2" d="M62.42,27.86h7.88l-11.29,58.07h-7.88l11.29-58.07ZM63.59,11.17c0-3.76,3.06-6.58,6.7-6.58,3.17,0,5.41,2.23,5.41,5.41,0,3.64-3.06,6.58-6.7,6.58-3.17,0-5.41-2.23-5.41-5.41Z"/>
    <path class="cls-2" d="M163.28,47.02c0,2.12-.24,4.47-.71,6.94l-6.11,31.98h-7.99l6.35-32.56c.24-1.17.59-3.29.59-5.41,0-9.4-6.35-14.34-14.58-14.34-8.82,0-15.87,5.41-18.1,16.69l-6.94,35.62h-7.88l6.35-32.56c.35-1.76.47-3.76.47-4.82,0-9.76-6.47-14.93-14.93-14.93s-15.4,5.29-17.63,16.69l-6.82,35.62h-7.99l7.05-36.56c3.06-15.63,12.93-23.04,25.39-23.04,9.64,0,17.4,4.47,20.1,13.17,4.82-8.82,12.58-13.17,21.87-13.17,12.7,0,21.51,7.76,21.51,20.69Z"/>
    <path class="cls-1" d="M256.19,27.86h17.63l-11.29,58.07h-17.63l11.29-58.07ZM256.78,12.23c0-6.82,5.52-12.23,12.46-12.23,6.23,0,10.46,4.23,10.46,10.23,0,6.94-5.76,12.34-12.46,12.34-6.11,0-10.46-4.35-10.46-10.34Z"/>
    <path class="cls-1" d="M288.75,2.47h17.63l-16.22,83.46h-17.63L288.75,2.47Z"/>
    <path class="cls-1" d="M316.37,2.47h17.63l-16.22,83.46h-17.63L316.37,2.47Z"/>
    <g>
      <path class="cls-1" d="M244.38,24.86c2.53-13.02-3.98-22.39-20.64-22.39h-34.2c-3.47,0-6.83,2.81-7.5,6.28l-14.11,72.57c-.67,3.47,1.59,6.28,5.06,6.28h37.59c17.05,0,27.44-9.89,30.04-23.3,1.95-10.02-1.79-17.57-10.14-20.83l.05-.26c7.19-3.51,12.23-10.02,13.85-18.36ZM224.53,16.55l-11.05,56.85c-.37,1.91-2.22,3.45-4.12,3.45h-27.12c-1.91,0-3.15-1.54-2.78-3.45l11.05-56.85c.37-1.91,2.22-3.45,4.12-3.45h27.12c1.91,0,3.15,1.54,2.78,3.45Z"/>
      <path class="cls-2" d="M198.5,62.94c-3.16,0-6.21,2.56-6.83,5.72-.61,3.16,1.45,5.72,4.6,5.72s6.21-2.56,6.83-5.72c.61-3.16-1.45-5.72-4.6-5.72Z"/>
    </g>
  </g>
</svg>