<?xml version="1.0" encoding="UTF-8"?>
<svg id="Layer_1" data-name="Layer 1" xmlns="http://www.w3.org/2000/svg" xmlns:xlink="http://www.w3.org/1999/xlink" viewBox="0 0 256 256">
  <defs>
    <style>
      .cls-1 {
        fill: url(#linear-gradient);
      }

      .cls-2 {
        fill: #fff;
      }
    </style>
    <linearGradient id="linear-gradient" x1="7.1" y1="248.9" x2="248.9" y2="7.1" gradientUnits="userSpaceOnUse">
      <stop offset="0" stop-color="#1a2c56"/>
      <stop offset=".4" stop-color="#5f4ea0"/>
      <stop offset=".8" stop-color="#00adcd"/>
    </linearGradient>
  </defs>
  <path class="cls-1" d="M24.24,0h207.52c13.38,0,24.24,10.86,24.24,24.24v207.52c0,13.38-10.86,24.24-24.24,24.24H24.24c-13.38,0-24.24-10.86-24.24-24.24V24.24C0,10.86,10.86,0,24.24,0Z"/>
  <g>
    <path class="cls-2" d="M65.16,146.32c0,12.84,10.48,23.2,23.42,23.2s23.42-10.36,23.42-23.2-10.49-23.24-23.42-23.24-23.42,10.4-23.42,23.24M222.71,146.32c-.02,30.31-24.78,54.84-55.31,54.84-15.42,0-29.39-6.27-39.41-16.33-10.02,10.06-23.98,16.33-39.41,16.33-30.57,0-55.29-24.54-55.29-54.84s24.72-54.85,55.29-54.85c8.36,0,16.32,1.82,23.42,5.15v-25.93c0-8.73,7.14-15.8,15.92-15.8s15.94,7.06,15.94,15.8v75.62c0,12.84,10.6,23.2,23.53,23.2s23.42-10.36,23.43-23.2v-20.08c0-8.7,7.14-15.79,15.94-15.79s15.92,7.1,15.92,15.79l.02,20.08Z"/>
    <g>
      <path class="cls-2" d="M222.71,193.53c0,4.22-3.44,7.63-7.68,7.63s-7.68-3.4-7.68-7.63,3.46-7.6,7.68-7.6,7.68,3.39,7.68,7.6M215.03,187.45c-3.4,0-6.14,2.7-6.14,6.08s2.74,6.11,6.14,6.11,6.15-2.75,6.15-6.11-2.75-6.08-6.15-6.08"/>
      <path class="cls-2" d="M216.65,197.66l-1.69-3.26h-1.04v3.26h-1.54v-8.23h3.09c1.58,0,2.67,1.16,2.67,2.53,0,1.16-.73,1.9-1.61,2.21l1.8,3.48h-1.68M215.26,190.72h-1.35v2.47h1.35c.82,0,1.38-.56,1.38-1.23s-.56-1.24-1.38-1.24"/>
    </g>
  </g>
</svg>