<?xml version="1.0" encoding="UTF-8"?>
<svg xmlns="http://www.w3.org/2000/svg" viewBox="0 0 369.48 216.96">
  <defs>
    <style>
      .cls-1 {
        fill: #f2f2f2;
      }

      .cls-1, .cls-2, .cls-3, .cls-4, .cls-5, .cls-6, .cls-7, .cls-8, .cls-9, .cls-10, .cls-11, .cls-12, .cls-13, .cls-14 {
        mix-blend-mode: multiply;
      }

      .cls-2 {
        fill: #c9c8c8;
      }

      .cls-15 {
        fill: #d4a72a;
      }

      .cls-3 {
        fill: #dad8d8;
      }

      .cls-4 {
        fill: #edeced;
      }

      .cls-5 {
        fill: #e8e7e7;
      }

      .cls-6 {
        fill: #dfdfde;
      }

      .cls-16 {
        isolation: isolate;
      }

      .cls-7 {
        fill: #ceced0;
      }

      .cls-8 {
        fill: #f4f4f4;
      }

      .cls-9 {
        fill: #dbdada;
      }

      .cls-17 {
        fill: #fff;
      }

      .cls-10 {
        fill: #f0eff0;
      }

      .cls-18 {
        opacity: .65;
      }

      .cls-11 {
        fill: #d3d4d3;
      }

      .cls-12 {
        fill: #cdcdcd;
      }

      .cls-13 {
        fill: #edeeed;
      }

      .cls-14 {
        fill: #bcbdbd;
      }
    </style>
  </defs>
  <g class="cls-16">
    <g id="Layer_6" data-name="Layer 6">
      <g>
        <g>
          <g>
            <path class="cls-17" d="M15.32,179.89c.91,0,1.28-.34,1.28-1.38v-6.98c0-.18.08-.26.26-.26h1.67c.18,0,.26.08.26.26v7.11c0,2.29-.81,3.28-3.1,3.28H3.15c-2.19,0-3.05-.99-3.05-3.28v-5.45c0-.18.08-.26.26-.26h1.67c.18,0,.26.08.26.26v5.32c0,1.04.39,1.38,1.25,1.38h11.78ZM7.01,170.2c-.18,0-.26-.08-.26-.26v-1.9c0-.18.08-.26.26-.26h1.77c.18,0,.26.08.26.26v1.9c0,.18-.08.26-.26.26h-1.77ZM10.19,170.2c-.18,0-.26-.08-.26-.26v-1.9c0-.18.08-.26.26-.26h1.77c.18,0,.26.08.26.26v1.9c0,.18-.08.26-.26.26h-1.77Z"/>
            <path class="cls-17" d="M24.29,181.66c0,.18-.08.26-.26.26h-1.67c-.18,0-.26-.08-.26-.26v-17.2c0-.18.08-.26.26-.26h1.67c.18,0,.26.08.26.26v17.2Z"/>
            <path class="cls-17" d="M26.37,187.11c-.18,0-.26-.08-.26-.26v-1.51c0-.18.08-.26.26-.26h.6c1.41,0,2.11-.73,2.11-2.22v-11.34c0-.18.08-.26.26-.26h1.67c.18,0,.26.08.26.26v11.28c0,2.81-1.46,4.3-4.2,4.3h-.7Z"/>
            <path class="cls-17" d="M34.79,164.46c0-.18.08-.26.26-.26h1.67c.18,0,.26.08.26.26v14.05c0,1.04.39,1.38,1.25,1.38h1.15c.7,0,1.04.34,1.04,1.04,0,.86-.31.99-1.04.99h-1.54c-2.19,0-3.05-.99-3.05-3.28v-14.18Z"/>
            <path class="cls-17" d="M39.41,181.92c-.7,0-.89-.26-.89-.99,0-.86.16-1.04.89-1.04h2.87c.7,0,1.04.23,1.04.96,0,.86-.31,1.07-1.04,1.07h-2.87Z"/>
            <path class="cls-17" d="M42.3,181.92c-.7,0-.89-.26-.89-.99,0-.86.16-1.04.89-1.04h2.87c.7,0,1.04.23,1.04.96,0,.86-.31,1.07-1.04,1.07h-2.87Z"/>
            <path class="cls-17" d="M45.19,181.92c-.7,0-.89-.26-.89-.99,0-.86.16-1.04.89-1.04h2.87c.7,0,1.04.23,1.04.96,0,.86-.31,1.07-1.04,1.07h-2.87Z"/>
            <path class="cls-17" d="M48.08,181.92c-.7,0-.89-.26-.89-.99,0-.86.16-1.04.89-1.04h2.87c.7,0,1.04.23,1.04.96,0,.86-.31,1.07-1.04,1.07h-2.87Z"/>
            <path class="cls-17" d="M50.98,181.92c-.7,0-.89-.26-.89-.99,0-.86.16-1.04.89-1.04h2.87c.7,0,1.04.23,1.04.96,0,.86-.31,1.07-1.04,1.07h-2.87Z"/>
            <path class="cls-17" d="M53.87,181.92c-.7,0-.89-.26-.89-.99,0-.86.16-1.04.89-1.04h2.87c.7,0,1.04.23,1.04.96,0,.86-.31,1.07-1.04,1.07h-2.87Z"/>
            <path class="cls-17" d="M56.76,181.92c-.7,0-.89-.26-.89-.99,0-.86.16-1.04.89-1.04h2.87c.7,0,1.04.23,1.04.96,0,.86-.31,1.07-1.04,1.07h-2.87Z"/>
            <path class="cls-17" d="M59.66,181.92c-.7,0-.89-.26-.89-.99,0-.86.16-1.04.89-1.04h2.87c.7,0,1.04.23,1.04.96,0,.86-.31,1.07-1.04,1.07h-2.87Z"/>
            <path class="cls-17" d="M62.55,181.92c-.7,0-.89-.26-.89-.99,0-.86.16-1.04.89-1.04h2.87c.7,0,1.04.23,1.04.96,0,.86-.31,1.07-1.04,1.07h-2.87Z"/>
            <path class="cls-17" d="M65.44,181.92c-.7,0-.89-.26-.89-.99,0-.86.16-1.04.89-1.04h2.87c.7,0,1.04.23,1.04.96,0,.86-.31,1.07-1.04,1.07h-2.87Z"/>
            <path class="cls-17" d="M72.43,180.65c-.73,1.12-2.03,1.28-3,1.28h-1.12c-.7,0-1.04-.34-1.04-1.04,0-.86.31-.99,1.04-.99h1.3c.76,0,1.62-.57,1.62-2.37,0-.34-.03-.65-.03-1.04,0-3.99,1.85-5.68,4.98-5.68s4.98,1.69,4.98,5.68-1.93,5.63-4.98,5.63c-1.67,0-2.89-.44-3.75-1.46ZM73.39,176.48c0,2.5.81,3.6,2.79,3.6s2.79-1.09,2.79-3.6c0-2.29-.81-3.65-2.79-3.65s-2.79,1.36-2.79,3.65Z"/>
            <path class="cls-17" d="M91.22,179.89h3.05c.86,0,1.25-.34,1.25-1.38v-14.05c0-.18.08-.26.26-.26h1.67c.18,0,.26.08.26.26v14.18c0,2.29-.86,3.28-3.05,3.28h-10.76c-.18,0-.26-.08-.26-.26v-1.51c0-.18.08-.26.26-.26h5.13v-11.75c0-.18.08-.26.26-.26h1.67c.18,0,.26.08.26.26v11.75ZM88.43,187.94c-.31-.44-.47-.99-.47-1.62,0-1.12.65-2.58,2.66-2.58.96,0,1.64.31,2.06.91.05.13.05.21,0,.26l-.55.44c-.13.1-.21.13-.29.05-.31-.34-.73-.6-1.25-.6-.96,0-1.43.68-1.43,1.49,0,.76.5,1.36.89,1.64h2.68c.1,0,.16.05.16.18v.73c0,.13-.05.18-.16.18h-5.29c-.1,0-.16-.05-.16-.18v-.73c0-.13.05-.18.16-.18h.99Z"/>
            <path class="cls-17" d="M103.55,181.66c0,.18-.08.26-.26.26h-1.67c-.18,0-.26-.08-.26-.26v-17.2c0-.18.08-.26.26-.26h1.67c.18,0,.26.08.26.26v17.2Z"/>
            <path class="cls-17" d="M129.19,179.89h2.11c.7,0,1.04.18,1.04.91,0,.86-.31,1.12-1.04,1.12h-1.85c.18.29.5.99.5,1.75,0,1.67-1.22,3.44-4.87,3.44h-6.1c-4.09,0-6.23-2.14-6.23-5.71,0-2.08.78-4.07,1.69-5.34.08-.13.18-.13.36-.03l1.43.78c.13.08.16.21.08.34-.63.96-1.33,2.48-1.33,4.04,0,2.87,2.03,3.83,4.3,3.83h5.76c2.08,0,2.79-.73,2.79-1.59,0-1.56-1.9-2.01-5.47-3.34-.16-.05-.21-.16-.16-.31l.57-1.56c.08-.18.18-.23.31-.18,2.24.83,4.09,1.85,6.1,1.85ZM118.82,191.59c-.18,0-.26-.08-.26-.26v-1.9c0-.18.08-.26.26-.26h1.77c.18,0,.26.08.26.26v1.9c0,.18-.08.26-.26.26h-1.77ZM122,191.59c-.18,0-.26-.08-.26-.26v-1.9c0-.18.08-.26.26-.26h1.77c.18,0,.26.08.26.26v1.9c0,.18-.08.26-.26.26h-1.77Z"/>
            <path class="cls-17" d="M131.33,181.92c-.7,0-.89-.26-.89-.99,0-.86.16-1.04.89-1.04h2.87c.7,0,1.04.23,1.04.96,0,.86-.31,1.07-1.04,1.07h-2.87Z"/>
            <path class="cls-17" d="M134.22,181.92c-.7,0-.89-.26-.89-.99,0-.86.16-1.04.89-1.04h2.87c.7,0,1.04.23,1.04.96,0,.86-.31,1.07-1.04,1.07h-2.87Z"/>
            <path class="cls-17" d="M137.27,181.92c-.73,0-1.04-.16-1.04-1.07,0-.7.34-.96,1.04-.96h2.94c-.5-.86-.76-2.01-.76-3.41,0-3.99,2.16-5.68,4.98-5.68,3.13,0,4.98,1.69,4.98,5.68s-1.93,5.45-4.98,5.45h-7.17ZM141.65,176.32c0,2.61.81,3.57,2.79,3.57s2.79-.91,2.79-3.41c0-2.29-.81-3.65-2.79-3.65-1.88,0-2.79,1.3-2.79,3.49ZM143.53,168.68c-.18,0-.26-.08-.26-.26v-1.9c0-.18.08-.26.26-.26h1.77c.18,0,.26.08.26.26v1.9c0,.18-.08.26-.26.26h-1.77Z"/>
            <path class="cls-17" d="M170.42,185.15h-6.1c-4.09,0-6.23-2.14-6.23-5.71,0-2.08.78-4.07,1.69-5.34.08-.13.18-.13.36-.03l1.43.78c.13.08.16.21.08.34-.63.96-1.33,2.48-1.33,4.04,0,2.87,2.03,3.83,4.3,3.83h5.76c2.08,0,2.79-.73,2.79-1.59,0-.81-1.2-1.59-3.1-2.74-1.54-.91-3.02-2.29-3.02-4.3,0-2.14,1.62-4.22,4.69-4.22,2.5,0,3.52.86,4.56,2.11.1.13.08.23-.08.36l-1.15.94c-.13.1-.26.1-.36-.03-.76-.83-1.51-1.36-2.97-1.36-1.38,0-2.5.7-2.5,2.16,0,1.33,1.59,2.35,3.18,3.31,1.9,1.17,2.87,2.19,2.87,3.83,0,1.82-1.22,3.6-4.87,3.6ZM164.25,189.45c-.18,0-.26-.08-.26-.26v-1.9c0-.18.08-.26.26-.26h1.77c.18,0,.26.08.26.26v1.9c0,.18-.08.26-.26.26h-1.77ZM167.43,189.45c-.18,0-.26-.08-.26-.26v-1.9c0-.18.08-.26.26-.26h1.77c.18,0,.26.08.26.26v1.9c0,.18-.08.26-.26.26h-1.77Z"/>
            <path class="cls-17" d="M177.62,187.11c-.18,0-.26-.08-.26-.26v-1.51c0-.18.08-.26.26-.26h.6c1.41,0,2.11-.73,2.11-2.22v-11.34c0-.18.08-.26.26-.26h1.67c.18,0,.26.08.26.26v6.59c0,1.17.89,1.77,2.35,1.77h.29c.7,0,1.04.26,1.04.96,0,.91-.31,1.07-1.04,1.07h-.55c-.89,0-1.59-.29-2.08-.83v1.72c0,2.81-1.46,4.3-4.2,4.3h-.7Z"/>
            <path class="cls-17" d="M185.18,181.92c-.7,0-.89-.26-.89-.99,0-.86.16-1.04.89-1.04h2.87c.7,0,1.04.23,1.04.96,0,.86-.31,1.07-1.04,1.07h-2.87Z"/>
            <path class="cls-17" d="M188.07,181.92c-.7,0-.89-.26-.89-.99,0-.86.16-1.04.89-1.04h2.87c.7,0,1.04.23,1.04.96,0,.86-.31,1.07-1.04,1.07h-2.87Z"/>
            <path class="cls-17" d="M190.96,181.92c-.7,0-.89-.26-.89-.99,0-.86.16-1.04.89-1.04h2.87c.7,0,1.04.23,1.04.96,0,.86-.31,1.07-1.04,1.07h-2.87Z"/>
            <path class="cls-17" d="M193.86,181.92c-.7,0-.89-.26-.89-.99,0-.86.16-1.04.89-1.04h2.87c.7,0,1.04.23,1.04.96,0,.86-.31,1.07-1.04,1.07h-2.87Z"/>
            <path class="cls-17" d="M196.75,181.92c-.7,0-.89-.26-.89-.99,0-.86.16-1.04.89-1.04h2.87c.7,0,1.04.23,1.04.96,0,.86-.31,1.07-1.04,1.07h-2.87Z"/>
            <path class="cls-17" d="M199.64,181.92c-.7,0-.89-.26-.89-.99,0-.86.16-1.04.89-1.04h2.87c.7,0,1.04.23,1.04.96,0,.86-.31,1.07-1.04,1.07h-2.87Z"/>
            <path class="cls-17" d="M202.54,181.92c-.7,0-.89-.26-.89-.99,0-.86.16-1.04.89-1.04h2.87c.7,0,1.04.23,1.04.96,0,.86-.31,1.07-1.04,1.07h-2.87Z"/>
            <path class="cls-17" d="M205.43,181.92c-.7,0-.89-.26-.89-.99,0-.86.16-1.04.89-1.04h2.87c.7,0,1.04.23,1.04.96,0,.86-.31,1.07-1.04,1.07h-2.87Z"/>
            <path class="cls-17" d="M208.32,181.92c-.7,0-.89-.26-.89-.99,0-.86.16-1.04.89-1.04h2.87c.7,0,1.04.23,1.04.96,0,.86-.31,1.07-1.04,1.07h-2.87Z"/>
            <path class="cls-17" d="M219.14,181.92c-1.12,0-1.98-.44-2.42-1.36-.44.91-1.33,1.36-2.71,1.36h-2.81c-.7,0-1.04-.18-1.04-.91,0-.86.31-1.12,1.04-1.12h2.42c.86,0,1.25-.34,1.25-1.38v-4.74c0-.18.08-.26.26-.26h1.67c.18,0,.26.08.26.26v4.35c0,1.17.91,1.77,2.29,1.77h.65c.86,0,1.25-.34,1.25-1.38v-4.74c0-.18.08-.26.26-.26h1.67c.18,0,.26.08.26.26v4.46c0,1.12.96,1.67,2.35,1.67h.6c.86,0,1.25-.34,1.25-1.38v-6.98c0-.18.08-.26.26-.26h1.67c.18,0,.26.08.26.26v6.59c0,1.17.89,1.77,2.35,1.77h.29c.7,0,1.04.26,1.04.96,0,.91-.31,1.07-1.04,1.07h-.55c-1.12,0-1.98-.44-2.42-1.36-.44.91-1.33,1.36-2.71,1.36h-1.25c-1.12,0-1.98-.44-2.42-1.36-.44.91-1.33,1.36-2.71,1.36h-1.25Z"/>
            <path class="cls-17" d="M232.46,181.92c-.7,0-1.04-.18-1.04-.91,0-.86.31-1.12,1.04-1.12h1.64c.86,0,1.25-.34,1.25-1.38v-14.05c0-.18.08-.26.26-.26h1.67c.18,0,.26.08.26.26v14.18c0,2.29-.86,3.28-3.05,3.28h-2.03Z"/>
            <path class="cls-17" d="M243.38,181.66c0,.18-.08.26-.26.26h-1.67c-.18,0-.26-.08-.26-.26v-17.2c0-.18.08-.26.26-.26h1.67c.18,0,.26.08.26.26v17.2Z"/>
            <path class="cls-17" d="M269.67,183.46c0,1.82-1.3,3.65-4.95,3.65h-6.1c-4.09,0-6.23-2.14-6.23-5.71,0-2.08.78-4.07,1.69-5.34.08-.13.18-.13.36-.03l1.43.78c.13.08.16.21.08.34-.63.96-1.33,2.48-1.33,4.04,0,2.87,2.03,3.83,4.3,3.83h5.76c2.08,0,2.79-.73,2.79-1.59v-1.51h-2.79c-3.08,0-4.98-1.49-4.98-5.45s2.24-5.68,4.98-5.68c3.13,0,4.98,1.69,4.98,5.68v6.98ZM262.17,168.68c-.18,0-.26-.08-.26-.26v-1.9c0-.18.08-.26.26-.26h1.77c.18,0,.26.08.26.26v1.9c0,.18-.08.26-.26.26h-1.77ZM261.91,176.48c0,2.5.96,3.41,2.94,3.41h2.63v-3.41c0-2.29-.81-3.65-2.79-3.65-1.77,0-2.79,1.36-2.79,3.65ZM265.35,168.68c-.18,0-.26-.08-.26-.26v-1.9c0-.18.08-.26.26-.26h1.77c.18,0,.26.08.26.26v1.9c0,.18-.08.26-.26.26h-1.77Z"/>
            <path class="cls-17" d="M275.02,187.11c-.18,0-.26-.08-.26-.26v-1.51c0-.18.08-.26.26-.26h3.13c1.38,0,2.42-.52,2.42-2.48v-.68h-2.79c-3.08,0-4.98-1.33-4.98-5.29s2.32-5.84,5.03-5.84c3.13,0,4.93,1.69,4.93,5.68v3.41h1.8c.7,0,1.04.26,1.04.96,0,.91-.31,1.07-1.04,1.07h-1.8v.63c0,3.23-1.8,4.56-4.51,4.56h-3.23ZM274.99,176.63c0,2.48.99,3.26,2.94,3.26h2.63v-3.41c0-2.29-.76-3.65-2.74-3.65-1.77,0-2.84,1.51-2.84,3.8Z"/>
            <path class="cls-17" d="M284.61,181.92c-.7,0-.89-.26-.89-.99,0-.86.16-1.04.89-1.04h2.87c.7,0,1.04.23,1.04.96,0,.86-.31,1.07-1.04,1.07h-2.87Z"/>
            <path class="cls-17" d="M287.5,181.92c-.7,0-.89-.26-.89-.99,0-.86.16-1.04.89-1.04h2.87c.7,0,1.04.23,1.04.96,0,.86-.31,1.07-1.04,1.07h-2.87Z"/>
            <path class="cls-17" d="M290.39,181.92c-.7,0-.89-.26-.89-.99,0-.86.16-1.04.89-1.04h2.87c.7,0,1.04.23,1.04.96,0,.86-.31,1.07-1.04,1.07h-2.87Z"/>
            <path class="cls-17" d="M293.29,181.92c-.7,0-.89-.26-.89-.99,0-.86.16-1.04.89-1.04h2.87c.7,0,1.04.23,1.04.96,0,.86-.31,1.07-1.04,1.07h-2.87Z"/>
            <path class="cls-17" d="M296.18,181.92c-.7,0-.89-.26-.89-.99,0-.86.16-1.04.89-1.04h2.87c.7,0,1.04.23,1.04.96,0,.86-.31,1.07-1.04,1.07h-2.87Z"/>
            <path class="cls-17" d="M299.07,181.92c-.7,0-.89-.26-.89-.99,0-.86.16-1.04.89-1.04h2.87c.7,0,1.04.23,1.04.96,0,.86-.31,1.07-1.04,1.07h-2.87Z"/>
            <path class="cls-17" d="M309.89,181.92c-1.12,0-1.98-.44-2.42-1.36-.44.91-1.33,1.36-2.71,1.36h-2.81c-.7,0-1.04-.18-1.04-.91,0-.86.31-1.12,1.04-1.12h2.42c.86,0,1.25-.34,1.25-1.38v-4.74c0-.18.08-.26.26-.26h1.67c.18,0,.26.08.26.26v4.35c0,1.17.91,1.77,2.29,1.77h.65c.86,0,1.25-.34,1.25-1.38v-4.74c0-.18.08-.26.26-.26h1.67c.18,0,.26.08.26.26v4.46c0,1.12.96,1.67,2.35,1.67h.6c.86,0,1.25-.34,1.25-1.38v-6.98c0-.18.08-.26.26-.26h1.67c.18,0,.26.08.26.26v6.59c0,1.17.89,1.77,2.35,1.77h.29c.7,0,1.04.26,1.04.96,0,.91-.31,1.07-1.04,1.07h-.55c-1.12,0-1.98-.44-2.42-1.36-.44.91-1.33,1.36-2.71,1.36h-1.25c-1.12,0-1.98-.44-2.42-1.36-.44.91-1.33,1.36-2.71,1.36h-1.25Z"/>
            <path class="cls-17" d="M323.39,181.92c-.7,0-1.04-.18-1.04-.91,0-.86.31-1.12,1.04-1.12h1.77c.86,0,1.25-.34,1.25-1.38v-6.98c0-.18.08-.26.26-.26h1.67c.18,0,.26.08.26.26v6.59c0,1.17.89,1.77,2.35,1.77h.31c.7,0,1.04.26,1.04.96,0,.91-.31,1.07-1.04,1.07h-.57c-1.12,0-1.98-.44-2.42-1.36-.44.91-1.33,1.36-2.71,1.36h-2.16ZM325.01,168.68c-.18,0-.26-.08-.26-.26v-1.9c0-.18.08-.26.26-.26h1.77c.18,0,.26.08.26.26v1.9c0,.18-.08.26-.26.26h-1.77ZM328.19,168.68c-.18,0-.26-.08-.26-.26v-1.9c0-.18.08-.26.26-.26h1.77c.18,0,.26.08.26.26v1.9c0,.18-.08.26-.26.26h-1.77Z"/>
            <path class="cls-17" d="M331.29,181.92c-.7,0-.89-.26-.89-.99,0-.86.16-1.04.89-1.04h2.87c.7,0,1.04.23,1.04.96,0,.86-.31,1.07-1.04,1.07h-2.87Z"/>
            <path class="cls-17" d="M334.18,181.92c-.7,0-.89-.26-.89-.99,0-.86.16-1.04.89-1.04h2.87c.7,0,1.04.23,1.04.96,0,.86-.31,1.07-1.04,1.07h-2.87Z"/>
            <path class="cls-17" d="M341.16,180.65c-.73,1.12-2.03,1.28-3,1.28h-1.12c-.7,0-1.04-.34-1.04-1.04,0-.86.31-.99,1.04-.99h1.3c.76,0,1.62-.57,1.62-2.37,0-.34-.03-.65-.03-1.04,0-3.99,1.85-5.68,4.98-5.68s4.98,1.69,4.98,5.68c0,.39-.03.78-.05,1.12.03,1.77.86,2.29,1.62,2.29h.76c.7,0,1.04.26,1.04.96,0,.91-.31,1.07-1.04,1.07h-.57c-.96,0-2.29-.13-3-1.25-.86,1.02-2.14,1.43-3.73,1.43-1.67,0-2.89-.44-3.75-1.46ZM342.13,176.48c0,2.5.81,3.6,2.79,3.6s2.79-1.09,2.79-3.6c0-2.29-.81-3.65-2.79-3.65s-2.79,1.36-2.79,3.65Z"/>
            <path class="cls-17" d="M352.22,181.92c-.7,0-.89-.26-.89-.99,0-.86.16-1.04.89-1.04h2.87c.7,0,1.04.23,1.04.96,0,.86-.31,1.07-1.04,1.07h-2.87Z"/>
            <path class="cls-17" d="M355.08,181.92c-.7,0-1.04-.18-1.04-.91,0-.86.31-1.12,1.04-1.12h1.64c.86,0,1.25-.34,1.25-1.38v-14.05c0-.18.08-.26.26-.26h1.67c.18,0,.26.08.26.26v14.18c0,2.29-.86,3.28-3.05,3.28h-2.03Z"/>
            <path class="cls-17" d="M366,181.66c0,.18-.08.26-.26.26h-1.67c-.18,0-.26-.08-.26-.26v-17.2c0-.18.08-.26.26-.26h1.67c.18,0,.26.08.26.26v17.2Z"/>
          </g>
          <g>
            <path class="cls-17" d="M1.33,210.48v-11.32c0-.18.08-.26.26-.26h1.8c.18,0,.26.08.26.26v11.3c0,2.93,1.57,4.34,3.97,4.34s3.95-1.41,3.95-4.34v-11.3c0-.18.08-.26.26-.26h1.8c.18,0,.26.08.26.26v11.32c0,4.21-2.38,6.48-6.27,6.48s-6.3-2.27-6.3-6.48Z"/>
            <path class="cls-17" d="M28,199.16c.05-.18.16-.26.31-.26h1.7c.18,0,.29.08.34.26l6.09,17.26c.05.18,0,.26-.18.26h-1.83c-.18,0-.29-.08-.34-.26l-1.36-3.87h-7.19l-1.36,3.87c-.08.18-.18.26-.34.26h-1.83c-.18,0-.24-.08-.18-.26l6.17-17.26ZM31.97,210.4l-2.8-8.08h-.05l-2.82,8.08h5.67Z"/>
            <path class="cls-17" d="M44.49,199.16c0-.18.08-.26.26-.26h10.69c.18,0,.26.08.26.26v1.65c0,.18-.08.26-.26.26h-8.47c-.1,0-.16.05-.16.16v5.23c0,.1.05.16.16.16h7.19c.18,0,.26.08.26.26v1.65c0,.18-.08.26-.26.26h-7.19c-.1,0-.16.05-.16.16v5.41c0,.1.05.16.16.16h8.47c.18,0,.26.08.26.26v1.65c0,.18-.08.26-.26.26h-10.69c-.18,0-.26-.08-.26-.26v-17.26Z"/>
            <path class="cls-17" d="M75.95,199.16c0-.18.08-.26.26-.26h1.7c.21,0,.34.08.42.26l5.31,11.98h.08l5.2-11.98c.08-.18.21-.26.42-.26h1.7c.18,0,.26.08.26.26v17.26c0,.18-.08.26-.26.26h-1.65c-.18,0-.26-.08-.26-.26v-12.37h-.08l-4.42,9.78c-.1.21-.26.31-.47.31h-1.05c-.24,0-.39-.1-.5-.31l-4.42-9.78h-.08v12.37c0,.18-.08.26-.26.26h-1.65c-.18,0-.26-.08-.26-.26v-17.26Z"/>
            <path class="cls-17" d="M104.71,216.68c-.18,0-.26-.08-.26-.26v-7.01l-5.26-10.22c-.08-.18-.03-.29.21-.29h1.86c.16,0,.29.08.39.26l3.97,7.61h.05l3.95-7.61c.1-.18.24-.26.37-.26h1.8c.24,0,.29.1.21.29l-5.26,10.22v7.01c0,.18-.08.26-.26.26h-1.78Z"/>
            <path class="cls-17" d="M119.04,214.74c-.13-.13-.13-.26-.03-.39l1.15-1.36c.1-.13.24-.13.37-.03,1.15.92,2.88,1.83,4.97,1.83,2.51,0,3.92-1.23,3.92-3.03,0-1.54-.89-2.48-3.71-2.9l-.89-.13c-3.48-.52-5.23-2.17-5.23-4.92,0-3.16,2.25-5.2,5.8-5.2,2.09,0,4.08.68,5.41,1.65.13.1.16.24.05.37l-.89,1.44c-.1.13-.24.13-.37.05-1.46-.92-2.72-1.33-4.29-1.33-2.2,0-3.37,1.18-3.37,2.88,0,1.49.99,2.43,3.74,2.85l.86.13c3.48.52,5.23,2.01,5.23,4.97,0,3.11-2.2,5.36-6.48,5.36-2.54,0-4.92-1.05-6.25-2.22Z"/>
            <path class="cls-17" d="M144.5,216.68c-.18,0-.26-.08-.26-.26v-15.19c0-.1-.05-.16-.16-.16h-4.86c-.18,0-.26-.08-.26-.26v-1.65c0-.18.08-.26.26-.26h12.37c.18,0,.26.08.26.26v1.65c0,.18-.08.26-.26.26h-4.86c-.1,0-.16.05-.16.16v15.19c0,.18-.08.26-.26.26h-1.8Z"/>
            <path class="cls-17" d="M159.8,199.16c0-.18.08-.26.26-.26h10.69c.18,0,.26.08.26.26v1.65c0,.18-.08.26-.26.26h-8.47c-.1,0-.16.05-.16.16v5.23c0,.1.05.16.16.16h7.19c.18,0,.26.08.26.26v1.65c0,.18-.08.26-.26.26h-7.19c-.1,0-.16.05-.16.16v5.41c0,.1.05.16.16.16h8.47c.18,0,.26.08.26.26v1.65c0,.18-.08.26-.26.26h-10.69c-.18,0-.26-.08-.26-.26v-17.26Z"/>
            <path class="cls-17" d="M190.05,216.68c-.16,0-.26-.08-.34-.26l-3.56-7.27h-3.92c-.1,0-.16.05-.16.16v7.11c0,.18-.08.26-.26.26h-1.8c-.18,0-.26-.08-.26-.26v-17.26c0-.18.08-.26.26-.26h6.43c3.32,0,5.57,2.04,5.57,5.12,0,2.41-1.31,4.13-3.5,4.84l3.79,7.5c.13.21.08.31-.16.31h-2.09ZM186.39,206.98c2.09,0,3.29-1.07,3.29-2.95s-1.2-2.95-3.29-2.95h-4.16c-.1,0-.16.05-.16.16v5.6c0,.1.05.16.16.16h4.16Z"/>
            <path class="cls-17" d="M204.9,216.68c-.18,0-.26-.08-.26-.26v-7.01l-5.26-10.22c-.08-.18-.03-.29.21-.29h1.86c.16,0,.29.08.39.26l3.97,7.61h.05l3.95-7.61c.1-.18.24-.26.37-.26h1.8c.24,0,.29.1.21.29l-5.26,10.22v7.01c0,.18-.08.26-.26.26h-1.78Z"/>
            <path class="cls-17" d="M230.23,214.74c-.13-.13-.13-.26-.03-.39l1.15-1.36c.1-.13.24-.13.37-.03,1.15.92,2.88,1.83,4.97,1.83,2.51,0,3.92-1.23,3.92-3.03,0-1.54-.89-2.48-3.71-2.9l-.89-.13c-3.48-.52-5.23-2.17-5.23-4.92,0-3.16,2.25-5.2,5.8-5.2,2.09,0,4.08.68,5.41,1.65.13.1.16.24.05.37l-.89,1.44c-.1.13-.24.13-.37.05-1.46-.92-2.72-1.33-4.29-1.33-2.2,0-3.37,1.18-3.37,2.88,0,1.49.99,2.43,3.74,2.85l.86.13c3.48.52,5.23,2.01,5.23,4.97,0,3.11-2.2,5.36-6.48,5.36-2.54,0-4.92-1.05-6.25-2.22Z"/>
            <path class="cls-17" d="M251.78,199.16c0-.18.08-.26.26-.26h1.8c.18,0,.26.08.26.26v7.3c0,.1.05.16.16.16h7.71c.1,0,.16-.05.16-.16v-7.3c0-.18.08-.26.26-.26h1.8c.18,0,.26.08.26.26v17.26c0,.18-.08.26-.26.26h-1.8c-.18,0-.26-.08-.26-.26v-7.48c0-.1-.05-.16-.16-.16h-7.71c-.1,0-.16.05-.16.16v7.48c0,.18-.08.26-.26.26h-1.8c-.18,0-.26-.08-.26-.26v-17.26Z"/>
            <path class="cls-17" d="M273.92,212.81c-.34-1.05-.47-2.07-.47-5.02s.13-3.97.47-5.02c.92-2.75,3.01-4.16,6.04-4.16s5.15,1.41,6.07,4.16c.34,1.05.47,2.07.47,5.02s-.13,3.97-.47,5.02c-.92,2.75-3.01,4.16-6.07,4.16s-5.12-1.41-6.04-4.16ZM283.75,212.15c.21-.63.39-1.78.39-4.37s-.18-3.74-.39-4.37c-.55-1.7-1.8-2.64-3.79-2.64s-3.22.94-3.76,2.64c-.21.63-.39,1.78-.39,4.37s.18,3.74.39,4.37c.55,1.7,1.78,2.64,3.76,2.64s3.24-.94,3.79-2.64Z"/>
            <path class="cls-17" d="M295.75,216.68c-.18,0-.26-.08-.26-.26v-17.26c0-.18.08-.26.26-.26h6.33c3.43,0,5.65,2.09,5.65,5.31s-2.22,5.31-5.65,5.31h-4.1c-.1,0-.16.05-.16.16v6.75c0,.18-.08.26-.26.26h-1.8ZM301.95,207.34c2.2,0,3.48-1.15,3.48-3.14s-1.28-3.14-3.48-3.14h-3.97c-.1,0-.16.05-.16.16v5.96c0,.1.05.16.16.16h3.97Z"/>
            <path class="cls-17" d="M316.46,216.68c-.18,0-.26-.08-.26-.26v-17.26c0-.18.08-.26.26-.26h6.33c3.42,0,5.65,2.09,5.65,5.31s-2.22,5.31-5.65,5.31h-4.11c-.1,0-.16.05-.16.16v6.75c0,.18-.08.26-.26.26h-1.8ZM322.66,207.34c2.2,0,3.48-1.15,3.48-3.14s-1.28-3.14-3.48-3.14h-3.97c-.1,0-.16.05-.16.16v5.96c0,.1.05.16.16.16h3.97Z"/>
            <path class="cls-17" d="M336.91,199.16c0-.18.08-.26.26-.26h10.69c.18,0,.26.08.26.26v1.65c0,.18-.08.26-.26.26h-8.47c-.1,0-.16.05-.16.16v5.23c0,.1.05.16.16.16h7.19c.18,0,.26.08.26.26v1.65c0,.18-.08.26-.26.26h-7.19c-.1,0-.16.05-.16.16v5.41c0,.1.05.16.16.16h8.47c.18,0,.26.08.26.26v1.65c0,.18-.08.26-.26.26h-10.69c-.18,0-.26-.08-.26-.26v-17.26Z"/>
            <path class="cls-17" d="M367.16,216.68c-.16,0-.26-.08-.34-.26l-3.56-7.27h-3.92c-.1,0-.16.05-.16.16v7.11c0,.18-.08.26-.26.26h-1.8c-.18,0-.26-.08-.26-.26v-17.26c0-.18.08-.26.26-.26h6.43c3.32,0,5.57,2.04,5.57,5.12,0,2.41-1.31,4.13-3.5,4.84l3.79,7.5c.13.21.08.31-.16.31h-2.09ZM363.5,206.98c2.09,0,3.29-1.07,3.29-2.95s-1.2-2.95-3.29-2.95h-4.16c-.1,0-.16.05-.16.16v5.6c0,.1.05.16.16.16h4.16Z"/>
          </g>
        </g>
        <g>
          <g>
            <g>
              <polygon class="cls-15" points="163.65 34.14 125.56 30.78 184.78 78.01 163.65 34.14"/>
              <polygon class="cls-15" points="184.79 126.74 184.79 78.04 151.92 146.29 184.79 126.74"/>
              <polygon class="cls-15" points="184.8 126.74 217.67 146.29 184.8 78.04 184.8 126.74"/>
              <polygon class="cls-15" points="163.66 34.14 184.79 78.01 184.79 2.26 163.66 34.14 163.66 34.14"/>
              <polygon class="cls-15" points="137.3 67.18 184.78 78.02 125.55 30.79 137.3 67.18 137.3 67.18"/>
              <polygon class="cls-15" points="110.93 94.89 146.71 108.4 146.71 108.39 184.78 78.03 110.93 94.89"/>
              <polygon class="cls-15" points="137.3 67.19 110.92 94.88 184.78 78.03 137.3 67.19"/>
              <polygon class="cls-15" points="146.71 108.4 151.92 146.29 184.78 78.04 146.71 108.4"/>
              <polygon class="cls-15" points="232.28 67.18 244.03 30.79 184.81 78.02 232.28 67.18"/>
              <polygon class="cls-15" points="184.8 2.26 184.8 78.01 205.93 34.13 184.8 2.26"/>
              <polygon class="cls-15" points="222.88 108.4 258.66 94.89 184.81 78.03 222.88 108.4"/>
              <polygon class="cls-15" points="232.28 67.19 184.81 78.03 258.66 94.88 232.29 67.19 232.28 67.19"/>
              <polygon class="cls-15" points="184.8 78.04 217.67 146.29 222.88 108.4 222.88 108.4 184.8 78.04"/>
              <polygon class="cls-15" points="244.03 30.78 205.93 34.14 205.93 34.14 184.8 78.01 244.03 30.78"/>
            </g>
            <path class="cls-17" d="M217.56,75.31v-.02c.04-1.23-.15-2.55-.56-3.89-2.98-14.49-15.63-25.61-30.87-26.14-18.15-.63-33.13,13.54-33.84,31.38h0v.19c-.01.38-.03.75-.03,1.13s.02.75.03,1.13v2.31s-.5,13.18-7.06,27.77l.4.15.44,3.21,19.31-20.25,1.66-1.66c.38-.38.99-.38,1.37,0,.38.38.99.38,1.37,0l.84-.84c1.11-1.11,1.39-2.83.63-4.2-1.26-2.26-1.98-4.86-1.98-7.62,0-.44.02-.88.06-1.31.35-4.26,2.41-8.04,5.49-10.65,2.93-2.48,6.77-3.91,10.96-3.7,7.85.4,14.28,6.71,14.82,14.55.63,9.17-6.61,16.8-15.65,16.8-2.82,0-5.47-.75-7.76-2.05-1.38-.79-3.14-.51-4.26.62l-.78.78c-.38.38-.38,1,0,1.37h0c.38.38.38,1,0,1.38l-7.7,7.7-7.23,7.23h27.72c16.89,0,30.79-12.81,32.52-29.25.15-1.4.22-2.83.18-4.28-.01-.61-.05-1.21-.1-1.82Z"/>
          </g>
          <g>
            <g class="cls-18">
              <path class="cls-17" d="M184.79,2.25l21.14,31.89,38.11-3.36-11.75,36.41,26.38,27.7-35.79,13.51-5.21,37.9-32.88-19.56-32.88,19.56-5.21-37.9-35.79-13.51,26.38-27.7-11.75-36.41,38.11,3.36,21.14-31.89M184.79,0l-1.04,1.56-20.73,31.27-37.37-3.29-1.87-.16.58,1.79,11.52,35.7-25.87,27.16-1.29,1.36,1.76.66,35.1,13.25,5.11,37.17.26,1.86,1.61-.96,32.24-19.18,32.24,19.18,1.61.96.26-1.86,5.11-37.17,35.1-13.25,1.76-.66-1.29-1.36-25.87-27.16,11.52-35.7.58-1.79-1.87.16-37.37,3.29L185.83,1.56,184.79,0h0Z"/>
            </g>
            <g>
              <polygon class="cls-13" points="163.65 34.14 125.56 30.78 184.78 78.01 163.65 34.14"/>
              <polygon class="cls-6" points="151.92 146.29 184.79 126.74 184.79 78.04 151.92 146.29"/>
              <polygon class="cls-7" points="184.8 126.74 217.67 146.29 184.8 78.04 184.8 126.74"/>
              <polygon class="cls-3" points="184.79 78.01 184.79 2.26 163.66 34.14 163.66 34.14 184.79 78.01"/>
              <polygon class="cls-14" points="184.78 78.02 125.55 30.79 137.3 67.18 137.3 67.18 184.78 78.02"/>
              <polygon class="cls-12" points="184.78 78.03 110.92 94.89 146.71 108.4 146.71 108.39 184.78 78.03"/>
              <polygon class="cls-9" points="137.3 67.19 110.92 94.88 184.78 78.03 137.3 67.19"/>
              <polygon class="cls-2" points="146.71 108.4 151.92 146.29 184.78 78.04 146.71 108.4"/>
              <polygon class="cls-5" points="232.28 67.18 244.03 30.79 184.81 78.02 232.28 67.18"/>
              <polygon class="cls-8" points="205.93 34.13 184.8 2.26 184.8 78.01 205.93 34.13"/>
              <polygon class="cls-11" points="222.88 108.4 258.66 94.89 184.81 78.03 222.88 108.4"/>
              <polygon class="cls-1" points="184.81 78.03 258.66 94.88 232.29 67.19 232.28 67.19 184.81 78.03"/>
              <polygon class="cls-4" points="184.8 78.04 217.67 146.29 222.88 108.4 222.88 108.4 184.8 78.04"/>
              <polygon class="cls-10" points="184.8 78.01 244.03 30.78 205.93 34.14 205.93 34.14 184.8 78.01"/>
            </g>
          </g>
        </g>
      </g>
    </g>
  </g>
</svg>