<?xml version="1.0" encoding="UTF-8"?>
<svg id="Layer_1" data-name="Layer 1" xmlns="http://www.w3.org/2000/svg" viewBox="0 0 278.42 91.12">
  <defs>
    <style>
      .cls-1 {
        fill: #ad833b;
      }
    </style>
  </defs>
  <g>
    <path class="cls-1" d="M97.38,26.66c0-.61-.05-.95-.07-1.38.68-.09,1.65-.27,2.2-.27.3,0,.43.11.43.48v4.01c-.39.32-.98.72-1.5.97-.66.2-1.59.38-2.47.38-2.92,0-6.17-1.25-6.17-5.78,0-3.7,2.86-5.94,6.38-5.94,1.91,0,3.27.59,3.76,1.06.02.8-.55,1.38-1.2,1.27-.75-.32-1.65-.54-2.58-.54-2.04,0-3.65,1.27-3.65,4.01,0,2.92,1.93,4.35,3.88,4.35.45,0,.82-.07.98-.12v-2.49Z"/>
    <path class="cls-1" d="M107.43,19.13c3.72,0,5.74,2.63,5.74,5.76s-2.04,5.96-5.83,5.96c-4.13,0-5.78-2.97-5.78-5.78,0-3.38,2.16-5.94,5.85-5.94h.02ZM107.2,20.71c-1.54,0-2.9,1.25-2.9,4.11s1.45,4.45,3.24,4.45c1.88,0,2.93-1.57,2.93-4.18,0-2.43-1.13-4.38-3.25-4.38h-.02Z"/>
    <path class="cls-1" d="M116.43,19.33c.29,0,.43.23.7,1.04.7,1.97,1.82,4.92,2.56,7.37.88-2.66,1.95-5.65,2.92-8.44.72,0,1.59.14,1.86.25.27.11.29.34.11.82-1.22,3.29-2.56,6.47-3.84,9.57-.16.36-.29.55-.47.64-.25.12-1.09.21-1.93.21-1.29-3.52-2.79-7.6-4.31-11.05.88-.23,1.84-.41,2.41-.41Z"/>
    <path class="cls-1" d="M126.23,21.9c0-.86,0-1.47-.05-2.25.57-.12,1.48-.23,2.32-.25h4.26c-.13.98-.38,1.32-.59,1.57-.29.11-1,.11-1.81.11h-1.57v2.9h3.77c-.18,1.38-.57,1.68-1.22,1.68h-2.56v3.24c.41.07.82.11,1.43.11.68,0,2.07,0,3-.07l.04.04c-.18.89-.54,1.32-1.02,1.63-.25.05-1.11.09-2.56.09-1.61,0-2.74-.09-3.17-.18l-.29-.36v-8.24Z"/>
    <path class="cls-1" d="M137.47,30.15c0,.36-.13.43-.43.46-.52.05-1.7.07-2.11.07.04-.72.05-1.77.05-3.27v-6.01c0-.88,0-1.31-.04-1.79.43-.11,2.41-.32,3.24-.32,3.08,0,4.44,1.05,4.44,3.25,0,1.66-1.4,2.47-2.11,2.81.41.36.95,1.31,1.52,2.32.84,1.5,1.32,2.24,1.81,2.77v.07c-.14.11-.91.2-1.63.2-.75,0-1.22-.14-1.7-.75-.41-.5-.8-1.32-1.56-2.84-.48-.97-.84-1.04-1.23-1.04-.11,0-.16-.02-.25,0v4.06ZM137.47,24.64c.41.05,1.36,0,1.61-.12.23-.12.93-.57.93-1.73,0-1.36-.82-2-1.9-2-.21,0-.46,0-.64.04v3.83Z"/>
    <path class="cls-1" d="M144.96,19.56v-.09c.41-.05,2.22-.14,2.58-.14.2,0,.34.12.52.32.55.86,1.88,2.95,2.92,4.72.75,1.27,1.34,2.2,1.77,3.15-.12-1.18-.11-1.7-.11-2.61v-4.99c0-.41.13-.48.41-.5.57-.05,1.22-.09,1.66-.09-.04.77-.05,1.81-.05,3.29v7.87c-.18.05-1.38.3-1.98.3-.27,0-.38-.07-.54-.3-.79-1.14-1.34-2.09-2.68-4.27-1.09-1.77-1.56-2.77-2.29-4.24.11,1.65.09,2.54.09,3.47v4.7c0,.36-.11.41-.43.46-.32.05-1,.09-1.65.07.04-.72.05-1.75.05-3.25v-7.48l-.27-.39Z"/>
    <path class="cls-1" d="M166.19,19.61c.29-.18,1.72-.29,2.2-.29.2,0,.3.11.38.59l.86,6.54c.25,1.88.45,3.2.59,4.06-.32.09-1.66.16-2.06.16-.25,0-.5-.09-.54-.48-.09-.88-.2-1.91-.38-3.93l-.38-4.06c-.43,1.47-1.32,4.2-2.45,7.6-.12.39-.29.54-.73.63-.38.07-.84.14-1.27.14-.38-1.25-1.9-6.03-2.61-8.33-.18,2.02-.59,5.94-.86,8.14-.04.2-.13.3-.34.3-.57,0-1.56,0-1.84-.16.3-1.93.95-6.51,1.63-10.62l-.04-.29c.5-.11,1.22-.29,2.22-.29.29-.02.39.11.66.88l2.34,6.62c.75-2.04,1.86-5.15,2.61-6.97v-.23Z"/>
    <path class="cls-1" d="M172.27,21.9c0-.86,0-1.47-.05-2.25.57-.12,1.48-.23,2.32-.25h4.26c-.13.98-.38,1.32-.59,1.57-.29.11-1,.11-1.81.11h-1.57v2.9h3.77c-.18,1.38-.57,1.68-1.22,1.68h-2.56v3.24c.41.07.82.11,1.43.11.68,0,2.07,0,3-.07l.04.04c-.18.89-.54,1.32-1.02,1.63-.25.05-1.11.09-2.56.09-1.61,0-2.74-.09-3.17-.18l-.29-.36v-8.24Z"/>
    <path class="cls-1" d="M180.75,19.56v-.09c.41-.05,2.22-.14,2.58-.14.2,0,.34.12.52.32.55.86,1.88,2.95,2.91,4.72.75,1.27,1.34,2.2,1.77,3.15-.12-1.18-.11-1.7-.11-2.61v-4.99c0-.41.12-.48.41-.5.57-.05,1.22-.09,1.66-.09-.04.77-.05,1.81-.05,3.29v7.87c-.18.05-1.38.3-1.98.3-.27,0-.38-.07-.54-.3-.79-1.14-1.34-2.09-2.68-4.27-1.09-1.77-1.56-2.77-2.29-4.24.11,1.65.09,2.54.09,3.47v4.7c0,.36-.11.41-.43.46-.32.05-1,.09-1.65.07.04-.72.05-1.75.05-3.25v-7.48l-.27-.39Z"/>
    <path class="cls-1" d="M195.47,21.08h-3.11c-.32,0-.46-.14-.32-.61.2-.63.43-.93.63-1.16.32.07.82.09,2.54.09h6.53c-.11,1.14-.64,1.59-1.06,1.68h-2.65v7.28c0,1.23.04,1.82.05,2.18-.57.09-1.32.14-2.18.14-.29,0-.43-.05-.43-.32v-9.28Z"/>
    <path class="cls-1" d="M212.18,19.13c3.72,0,5.74,2.63,5.74,5.76s-2.04,5.96-5.83,5.96c-4.13,0-5.78-2.97-5.78-5.78,0-3.38,2.16-5.94,5.85-5.94h.02ZM211.95,20.71c-1.54,0-2.9,1.25-2.9,4.11s1.45,4.45,3.24,4.45c1.88,0,2.93-1.57,2.93-4.18,0-2.43-1.13-4.38-3.25-4.38h-.02Z"/>
    <path class="cls-1" d="M219.98,21.56c0-.7-.02-1.16-.05-1.9.34-.09,1.59-.23,2.49-.27.48-.02,3.54,0,4.47,0-.18.97-.48,1.34-.73,1.57-.25.11-.63.11-1.45.11h-2.16v3.25h3.93c-.23,1.56-.66,1.68-1.4,1.68h-2.54c0,1.7.02,3.2.05,4.52-.32.09-1.34.14-2.18.14-.3,0-.43-.05-.43-.36v-8.76Z"/>
    <path class="cls-1" d="M92.94,49.35c0,3.15,1.27,3.67,2.45,3.67,1.36,0,2.41-.64,2.41-3.79v-5.36c0-.36.14-.43.41-.47.54-.05,1.47-.07,1.82-.07-.04.72-.05,1.77-.05,3.25v2.56c0,4.92-2.61,5.7-4.88,5.7-3.18,0-4.72-1.68-4.72-5.38v-3.68c0-1.2-.02-1.93-.05-2.31.36-.05,1.79-.14,2.2-.14.36,0,.41.2.41,1.07v4.95Z"/>
    <path class="cls-1" d="M102.32,43.56v-.09c.41-.05,2.22-.14,2.58-.14.2,0,.34.12.52.32.55.86,1.88,2.95,2.92,4.72.75,1.27,1.34,2.2,1.77,3.15-.12-1.18-.11-1.7-.11-2.61v-4.99c0-.41.13-.48.41-.5.57-.05,1.22-.09,1.66-.09-.04.77-.05,1.81-.05,3.29v7.87c-.18.05-1.38.3-1.98.3-.27,0-.38-.07-.54-.3-.79-1.14-1.34-2.09-2.68-4.27-1.09-1.77-1.56-2.77-2.29-4.24.11,1.65.09,2.54.09,3.47v4.7c0,.36-.11.41-.43.46-.32.05-1,.09-1.65.07.04-.72.05-1.75.05-3.25v-7.48l-.27-.39Z"/>
    <path class="cls-1" d="M114.77,45.74c0-1.2-.02-1.93-.05-2.27.36-.05,1.79-.14,2.2-.14.36,0,.41.18.41,1v8.01c0,1.25.04,1.84.05,2.2-.32.09-1.72.14-2.18.14-.3,0-.43-.05-.43-.36v-8.58Z"/>
    <path class="cls-1" d="M122.37,45.08h-3.11c-.32,0-.46-.14-.32-.61.2-.63.43-.93.63-1.16.32.07.82.09,2.54.09h6.53c-.11,1.14-.64,1.59-1.06,1.68h-2.65v7.28c0,1.23.04,1.82.05,2.18-.57.09-1.32.14-2.18.14-.29,0-.43-.05-.43-.32v-9.28Z"/>
    <path class="cls-1" d="M130.06,45.9c0-.86,0-1.47-.05-2.25.57-.12,1.48-.23,2.32-.25h4.26c-.13.98-.38,1.32-.59,1.57-.29.11-1,.11-1.81.11h-1.57v2.9h3.77c-.18,1.38-.57,1.68-1.22,1.68h-2.56v3.24c.41.07.82.11,1.43.11.68,0,2.07,0,3-.07l.04.04c-.18.89-.54,1.32-1.02,1.63-.25.05-1.11.09-2.56.09-1.61,0-2.74-.09-3.17-.18l-.29-.36v-8.24Z"/>
    <path class="cls-1" d="M138.81,45.67c0-1.23-.02-1.57-.04-2,.47-.11,2.29-.38,3.88-.38,5.29,0,6.28,3.22,6.28,5.53,0,3.84-2.77,5.94-6.44,5.94-1.32,0-2.49-.11-3.68-.32v-8.76ZM141.36,53.07c.43.09.79.11,1.22.11,1.31,0,3.63-.61,3.63-4.35,0-2.65-1.5-3.97-3.84-3.97-.52,0-.8.04-1,.07v8.14Z"/>
    <path class="cls-1" d="M157.02,51.7c-.32.86-.82,2.18-1.04,2.72-.07.18-.21.27-.54.27-.46,0-1.38-.11-1.81-.23l-.02-.07c.89-2.18,3.59-8.76,4.31-10.5l-.11-.32c.79-.16,1.99-.23,2.18-.23.16,0,.32.09.43.34.82,2,2.09,5.36,2.66,6.88.73,1.91,1.16,3.02,1.54,3.85l-.02.07c-.39.13-1.84.21-2.29.21-.3,0-.46-.09-.64-.59-.3-.89-.54-1.56-.84-2.4h-3.83ZM160.36,50.03c-.73-2.13-1.22-3.38-1.41-3.93-.36,1.06-.84,2.45-1.4,3.93h2.81Z"/>
    <path class="cls-1" d="M168.68,54.15c0,.36-.13.43-.43.46-.52.05-1.7.07-2.11.07.04-.72.05-1.77.05-3.27v-6.01c0-.88,0-1.31-.04-1.79.43-.11,2.41-.32,3.24-.32,3.08,0,4.44,1.05,4.44,3.25,0,1.66-1.4,2.47-2.11,2.81.41.36.95,1.31,1.52,2.32.84,1.5,1.32,2.24,1.81,2.77v.07c-.14.11-.91.2-1.63.2-.75,0-1.22-.14-1.7-.75-.41-.5-.8-1.32-1.56-2.84-.48-.97-.84-1.04-1.23-1.04-.11,0-.16-.02-.25,0v4.06ZM168.68,48.64c.41.05,1.36,0,1.61-.12.23-.12.93-.57.93-1.73,0-1.36-.82-2-1.9-2-.21,0-.46,0-.64.04v3.83Z"/>
    <path class="cls-1" d="M179.3,51.7c-.32.86-.82,2.18-1.04,2.72-.07.18-.21.27-.54.27-.46,0-1.38-.11-1.81-.23l-.02-.07c.89-2.18,3.59-8.76,4.31-10.5l-.11-.32c.79-.16,1.99-.23,2.18-.23.16,0,.32.09.43.34.82,2,2.09,5.36,2.66,6.88.73,1.91,1.16,3.02,1.54,3.85l-.02.07c-.39.13-1.84.21-2.29.21-.3,0-.46-.09-.64-.59-.3-.89-.54-1.56-.84-2.4h-3.83ZM182.65,50.03c-.73-2.13-1.22-3.38-1.41-3.93-.36,1.06-.84,2.45-1.4,3.93h2.81Z"/>
    <path class="cls-1" d="M188.48,45.89c0-.97,0-1.48-.05-2.24.46-.12,2.32-.36,3.47-.36,3.49,0,4.04,1.63,4.04,2.83,0,1.11-.79,1.93-1.61,2.34,1.54.45,2.27,1.48,2.27,2.66,0,2.38-2.02,3.63-4.95,3.63-.97,0-2.43-.16-3.17-.3v-8.57ZM190.97,48.19c.5-.09.93-.11,1.79-.11.45-.23.77-.75.77-1.61,0-1.14-.75-1.68-1.7-1.68-.29,0-.68.04-.86.07v3.33ZM190.97,53.18c.21.05.57.07.82.07,1.23,0,2.06-.7,2.06-1.97,0-1.06-.79-1.7-2.13-1.7-.27,0-.48,0-.75.04v3.56Z"/>
    <path class="cls-1" d="M202.4,45.9c0-.86,0-1.47-.05-2.25.57-.12,1.48-.23,2.32-.25h4.26c-.12.98-.38,1.32-.59,1.57-.29.11-1,.11-1.81.11h-1.57v2.9h3.77c-.18,1.38-.57,1.68-1.22,1.68h-2.56v3.24c.41.07.82.11,1.43.11.68,0,2.07,0,3-.07l.04.04c-.18.89-.54,1.32-1.02,1.63-.25.05-1.11.09-2.56.09-1.61,0-2.74-.09-3.17-.18l-.29-.36v-8.24Z"/>
    <path class="cls-1" d="M220.21,43.61c.29-.18,1.72-.29,2.2-.29.2,0,.3.11.38.59l.86,6.54c.25,1.88.45,3.2.59,4.06-.32.09-1.66.16-2.06.16-.25,0-.5-.09-.54-.48-.09-.88-.2-1.91-.38-3.93l-.38-4.06c-.43,1.47-1.32,4.2-2.45,7.6-.12.39-.29.54-.73.63-.38.07-.84.14-1.27.14-.38-1.25-1.9-6.03-2.61-8.33-.18,2.02-.59,5.94-.86,8.14-.04.2-.13.3-.34.3-.57,0-1.56,0-1.84-.16.3-1.93.95-6.51,1.63-10.62l-.04-.29c.5-.11,1.22-.29,2.22-.29.29-.02.39.11.66.88l2.34,6.62c.75-2.04,1.86-5.15,2.61-6.97v-.23Z"/>
    <path class="cls-1" d="M226.29,45.74c0-1.2-.02-1.93-.05-2.27.36-.05,1.79-.14,2.2-.14.36,0,.41.18.41,1v8.01c0,1.25.04,1.84.05,2.2-.32.09-1.72.14-2.18.14-.3,0-.43-.05-.43-.36v-8.58Z"/>
    <path class="cls-1" d="M234.11,54.15c0,.36-.13.43-.43.46-.52.05-1.7.07-2.11.07.04-.72.05-1.77.05-3.27v-6.01c0-.88,0-1.31-.04-1.79.43-.11,2.41-.32,3.24-.32,3.08,0,4.44,1.05,4.44,3.25,0,1.66-1.4,2.47-2.11,2.81.41.36.95,1.31,1.52,2.32.84,1.5,1.32,2.24,1.81,2.77v.07c-.14.11-.91.2-1.63.2-.75,0-1.22-.14-1.7-.75-.41-.5-.8-1.32-1.56-2.84-.48-.97-.84-1.04-1.23-1.04-.11,0-.16-.02-.25,0v4.06ZM234.11,48.64c.41.05,1.36,0,1.61-.12.23-.12.93-.57.93-1.73,0-1.36-.82-2-1.9-2-.21,0-.46,0-.64.04v3.83Z"/>
    <path class="cls-1" d="M244.74,51.7c-.32.86-.82,2.18-1.04,2.72-.07.18-.21.27-.54.27-.46,0-1.38-.11-1.81-.23l-.02-.07c.89-2.18,3.59-8.76,4.31-10.5l-.11-.32c.79-.16,1.99-.23,2.18-.23.16,0,.32.09.43.34.82,2,2.09,5.36,2.66,6.88.73,1.91,1.16,3.02,1.54,3.85l-.02.07c-.39.13-1.84.21-2.29.21-.3,0-.46-.09-.64-.59-.3-.89-.54-1.56-.84-2.4h-3.83ZM248.08,50.03c-.73-2.13-1.22-3.38-1.41-3.93-.36,1.06-.84,2.45-1.4,3.93h2.81Z"/>
    <path class="cls-1" d="M255.2,45.08h-3.11c-.32,0-.47-.14-.32-.61.2-.63.43-.93.63-1.16.32.07.82.09,2.54.09h6.53c-.11,1.14-.64,1.59-1.06,1.68h-2.65v7.28c0,1.23.04,1.82.05,2.18-.57.09-1.32.14-2.18.14-.29,0-.43-.05-.43-.32v-9.28Z"/>
    <path class="cls-1" d="M262.89,45.9c0-.86,0-1.47-.05-2.25.57-.12,1.48-.23,2.32-.25h4.26c-.12.98-.38,1.32-.59,1.57-.29.11-1,.11-1.81.11h-1.57v2.9h3.77c-.18,1.38-.57,1.68-1.22,1.68h-2.56v3.24c.41.07.82.11,1.43.11.68,0,2.07,0,3-.07l.04.04c-.18.89-.54,1.32-1.02,1.63-.25.05-1.11.09-2.56.09-1.61,0-2.74-.09-3.17-.18l-.29-.36v-8.24Z"/>
    <path class="cls-1" d="M275.23,43.13c1.02,0,2.25.43,2.7.89,0,.5-.32,1.34-1.04,1.29-.39-.2-1.2-.43-1.73-.43-.95,0-1.48.43-1.48,1.06,0,.73.55,1.14,2.25,2.11,1.5.84,2.49,1.52,2.49,3.27,0,2.31-2.02,3.52-4.17,3.52-1.27,0-2.18-.36-2.66-.7-.36-.23-.48-.43-.48-.68,0-.39.34-1.2.5-1.29.66.41,1.73.84,2.59.84.98,0,1.68-.38,1.68-1.2,0-.64-.3-1.06-2.13-2.06-2.07-1.11-2.47-2.27-2.47-3.38,0-1.27.89-3.25,3.93-3.25h.02Z"/>
  </g>
  <path class="cls-1" d="M29.67,84.35c-.13-.01-.26-.02-.39-.04-.13-.01-.26-.02-.39-.04.02-.12.03-.24.05-.36.02-.17.17-.3.36-.32.03,0,.04,0,.06,0,.15-.01.28-.05.4-.1-.03.29-.06.58-.09.87M34.02,85.3c.02-1,.04-2.01.07-3.02-.38.31-.77.62-1.17.92.3.08.37.29.36.5-.01.3-.02.6-.03.89-.26,0-.52-.02-.78-.03.04-.78.08-1.56.12-2.33-.39.3-.79.6-1.19.89.3.09.37.3.36.51-.02.3-.04.6-.06.89-.42-.02-.83-.06-1.25-.09.15-1.82.31-3.63.46-5.46-.38.29-.77.58-1.16.86.28.1.33.31.31.51-.06.65-.13,1.31-.19,1.97-.03.3-.26.45-.44.52-.12.06-.22.07-.23.1-.53.04-.99.4-1.05.9l-.13,1.03c.31.04.62.07.93.11.08,0,.17.02.25.03.44.05.88.09,1.32.12,1.17.1,2.33.16,3.5.18M26.07,84.58c.26.04.52.08.78.12.23-1.56.45-3.11.68-4.67.03-.2.14-.4.43-.42-.31-.37-.62-.74-.92-1.11-.32,2.03-.65,4.05-.97,6.08M23.11,83.32c-.13-.03-.26-.06-.39-.08-.13-.03-.25-.06-.38-.09.02-.09.04-.18.06-.27.15-.08.3-.16.45-.24.1.14.21.28.31.42-.02.09-.04.18-.06.27M25.11,79.13c.28.12.31.34.27.54-.25,1.32-.49,2.64-.74,3.96-.26-.05-.51-.1-.77-.15.04-.18.07-.36.11-.54-.31-.41-.62-.83-.91-1.25-.45.25-.9.5-1.36.74-.04.18-.09.35-.13.53-.26-.06-.51-.13-.77-.2.2-.75.39-1.5.58-2.25-.45.21-.9.42-1.35.63.28.15.29.37.24.57-.08.29-.16.57-.24.86-.11-.03-.22-.06-.33-.09,0,0,0,0,0,0-.21-.06-.42-.12-.64-.18,0-.27.04-.55.09-.81.17-.84.41-1.8-.65-2.93-.3.14-.61.29-.92.42.75.22,1.04.92,1.16,1.47.11.67-.26,1.17-.07,1.73-.37-.11-.73-.22-1.1-.33,0,0,0,0,0,0,.03-.09.06-.17.09-.26.18-.57-.2-1.21-.84-1.43-.05-.02-.09-.03-.14-.05-1.43-.5-2.84-1.06-4.24-1.67.09-.21.19-.42.28-.63.08-.18.28-.24.48-.15-.21-.47-.42-.93-.62-1.4-.38.83-.76,1.66-1.14,2.49,1.69.77,3.41,1.47,5.15,2.07.25.09.39.33.32.54-.03.09-.06.17-.09.26-.08.24-.16.47-.24.71-.16.07-.32.13-.48.2-.09-.16-.18-.31-.27-.47.08-.23.16-.46.24-.7-.18-.07-.37-.13-.55-.2-.06-.02-.13-.05-.19-.07-1.41-.52-2.8-1.09-4.17-1.73-.1.21-.19.42-.29.62,1.39.64,2.8,1.22,4.22,1.74-.04.11-.08.21-.12.32.26.46.53.92.81,1.38.5-.19.98-.38,1.47-.58.03-.11.07-.23.11-.34.55.18,1.1.35,1.65.51.11.16.24.29.41.41-.08-.11-.14-.23-.19-.35.46.13.92.26,1.39.38.64.17,1.29.32,1.94.47.65.15,1.3.28,1.95.4.03,0,.06.01.08.02.23.04.46.08.69.13h0c.35-2.02.7-4.04,1.05-6.07-.4.26-.81.5-1.23.75M32.76,85.94c-.22,0-.4.14-.41.32,0,.19.16.35.38.36.23,0,.41-.13.41-.33,0-.19-.16-.35-.38-.36M30.3,2.78c.3,0,.55.23.55.52-.16-.16-.8-.3-1.09,0,0-.29.24-.52.54-.52M31.66,3.45c-.23,1.72-2.44,1.72-2.51.45.39,1.38,2.54.66,1.91-.88.84-.32,1.47-.34,2.15-.46-1.76-.28-3.83-.49-5.12.1-.63.29-.45.67-.36.83.1-.34.66-.36,1.06-.22-.3,2.59,3.01,2.28,2.87.18M9.7,78.64c-.12-.06-.24-.12-.36-.18-.12-.06-.24-.13-.36-.19.05-.1.11-.2.16-.31.08-.15.27-.21.47-.16.02,0,.04.01.06.01.14.04.29.05.42.05-.13.26-.26.52-.38.78M11.37,74.43c.24.19.21.41.12.6-.29.59-.58,1.18-.88,1.77-.13.27-.4.32-.6.33-.14,0-.24-.02-.26,0-.52-.16-1.08.02-1.32.47-.16.31-.33.61-.49.92.36.19.72.38,1.08.56.36.18.73.36,1.1.54.88-1.85,1.76-3.7,2.65-5.56-.46.14-.93.26-1.41.38M31.16,85.85c-.22-.01-.42.12-.43.31-.02.19.16.35.38.37.22.02.41-.12.42-.31,0-.18-.16-.35-.38-.37M30.21,85.78c-.22-.02-.42.12-.44.3-.02.19.15.36.38.38.22.02.41-.11.43-.3.01-.18-.15-.35-.37-.37M21.2,80.04c.2.05.4-.05.45-.24.04-.18-.08-.37-.27-.42-.2-.05-.4.05-.45.23-.05.19.07.37.28.43M20.34,79.8c.2.06.4-.04.45-.23.05-.18-.07-.37-.26-.43-.2-.06-.4.05-.46.22-.06.18.07.37.27.43M28.98,80.29c.2.02.38-.11.4-.3.02-.18-.12-.36-.32-.38-.19-.02-.37.11-.4.29-.02.19.12.36.31.39M47.67,80.89c.2-.04.33-.24.29-.42-.05-.19-.24-.3-.44-.25-.2.05-.33.23-.29.42.04.18.23.3.44.25M10.83,73.84c.19.1.39.04.48-.13.08-.17.02-.38-.16-.47-.17-.09-.39-.03-.48.13-.09.17-.01.38.16.47M29.07,79.47c.2.02.37-.11.39-.3.02-.18-.11-.36-.31-.38-.19-.02-.37.11-.39.29-.02.19.12.36.31.38M46.79,81.09c.2-.04.33-.23.29-.41-.04-.19-.24-.3-.44-.26-.2.04-.34.23-.3.42.04.18.24.3.44.26M10.45,74.58c.19.1.4.03.49-.14.08-.17.01-.38-.17-.47-.18-.09-.4-.03-.48.13-.09.17-.01.39.16.48M31.1,38.22c-.07-1.29-.12-2.74-.12-4.33,0-1.44.04-2.74.1-3.89,3.64-.33,8.85-.42,13.66.83.35,1.03.54,2.13.54,3.28s-.19,2.24-.53,3.27c-4.8,1.25-10,1.16-13.65.83M34.99,44.41c-1.15,0-2.27-.19-3.35-.56-.09-.55-.34-2.37-.5-5.01,3.59.31,8.62.4,13.35-.76-1.55,3.72-5.23,6.33-9.5,6.33M24.7,34.11c0-4.16,2.52-7.9,6.32-9.5-.2,1.23-.64,4.51-.64,9.27s.43,8.41.62,9.71c-3.79-1.6-6.3-5.35-6.3-9.49M31.68,24.37c1.07-.36,2.18-.55,3.32-.55,4.27,0,7.94,2.61,9.5,6.33-4.74-1.15-9.79-1.07-13.37-.75.17-2.74.46-4.49.55-5.02M34.99,23.21c-1.27,0-2.51.21-3.69.64-4.32,1.55-7.22,5.67-7.22,10.26s2.88,8.68,7.17,10.25c1.19.43,2.45.65,3.73.65,6.01,0,10.9-4.89,10.9-10.9s-4.89-10.9-10.9-10.9M60.42,80.94c-.11.05-.22.02-.26-.07-.04-.09,0-.19.11-.24.04-.02.08-.03.12-.02-.37-.12-.71.29-.42.54-.1.06-.17.06-.23,0-.07.13-.13.27-.2.4.49-.22.99-.45,1.48-.68-.16-.05-.32-.1-.48-.15.03.08-.03.17-.12.21M65.81,34.48v-1.21c0-.61,0-1.21,0-1.49,0-1.15-.18-2.67-1.27-3.41.33,1.28.11,1.51.11,3.67v2.69c0,.79.11,1.48.3,2.08-1.26-.61-2.61-1.94-2.61-4.28,0-.78-.19-4.02-1.17-5.37v5.61c0,.74.09,1.39.26,1.96-2.96-1.5-2.67-6.6-3.63-8.59,0,1.71.04,2.92.04,4.63,0,.84.13,1.57.34,2.2-2.59-1.65-2.89-4.89-3.09-7.32-.25.9-.66,3.26.04,5.49-1.74-1.33-2.71-4.16-2.59-6.19-.25,1.11-.52,2.78.02,4.46-.1,1.9-.08,16.93-.08,18.57-.99-.82-2-2.29-1.89-4.53.03-.37.07-.72.13-1.05.69-4.69.84-11.45-1.1-16.85,1.56,8.44-.39,17.13-.66,18.87-.49,3.12.57,9.59,2.77,16.76-.43-.42-1.9-1.04-2.48-1.63,0,.65.24,1.35.24,2.76-.75-1.27-1.04-1.32-1.85-2.72.25,1.65.18,1.8.18,3.22-.78-1.48-1.2-3.44-3-6.24-4-6.24-9.76-2.37-9.76-1.28,0-1.09-5.76-4.96-9.75,1.28-1.8,2.8-2.22,4.77-3,6.24,0-1.43-.07-1.57.18-3.22-.8,1.4-1.09,1.46-1.85,2.72,0-1.42.24-2.11.24-2.76-.59.59-2.06,1.2-2.48,1.63,2.2-7.17,3.26-13.64,2.77-16.76-.28-1.75-2.23-10.43-.66-18.87-1.94,5.41-1.8,12.16-1.1,16.85.05.33.09.68.13,1.05.11,2.25-.91,3.73-1.9,4.54,0-1.64.02-16.66-.07-18.58.55-1.68.28-3.35.02-4.46.12,2.02-.85,4.86-2.58,6.19.7-2.23.29-4.59.04-5.49-.2,2.42-.5,5.66-3.09,7.32.21-.63.34-1.35.34-2.2,0-1.71.04-2.92.04-4.63-.97,1.98-.67,7.09-3.63,8.59.17-.57.26-1.22.26-1.96v-5.61c-.97,1.35-1.17,4.58-1.17,5.37,0,2.34-1.35,3.67-2.61,4.28.19-.6.3-1.29.3-2.08v-2.69c0-2.16-.23-2.39.11-3.67-1.09.74-1.28,2.26-1.27,3.41,0,.29,0,.88,0,1.49h0v1.21c0,2.44-1.47,3.79-2.77,4.36.22-.29.47-1.09.47-2.27v-11.78c0-3.31,3.87-7.12,5.3-8.8,3.96-4.64,5.69-.87,9.68.48,6.63,2.25,10.17-.26,10.17-.26,3.54-2.23,3.55-4.33,3.55-5.65,0-.89-.34-2.05-.99-2.79-1.21-1.21-3.36-1.6-3.74-1.52-.81.42-1.52.42-1.67.53-.37-.74-.28-1.87,1.39-2.8.47-.26.29-.85,1.72-1.69,4.17-2.43,8.24-1.55,10.62,1.11-.84-.31-1.65-.59-3.07-.72,1.99.69,4.35,2.34,5.88,5.08.62,1.09,2.03,4.09,2.53,5,1.06,1.94,2.98,5.99,9.76,3.71,3.99-1.35,5.72-5.13,9.68-.48,1.43,1.68,5.3,5.48,5.3,8.8v11.78c0,1.18.24,1.98.47,2.27-1.3-.57-2.78-1.91-2.78-4.36M65.81,43.68v-3.37c0-.56-.02-1.04-.06-1.48.2.07.38.14.55.2.56.56,1.2.96,1.82,1.27v5.45c0,1.18.24,1.98.47,2.27-1.3-.57-2.76-1.91-2.77-4.35M65.86,55.11c0-.39-.05-3.67-.05-4.31,0-.7-.03-1.91-.09-2.81.21.08.4.15.58.22.56.55,1.2.96,1.82,1.26v6.96c0,1.18.24,1.98.47,2.27-1.16-.5-2.72-1.9-2.72-3.6M65.86,72.77v-2.61h0c0-1.64-.05-3.07-.05-3.56v-3.88c0-.33,0-2.03-.02-4.21.07.03.15.06.22.09.62.72,1.38,1.21,2.1,1.57v13.93c0,1.18.24,1.98.47,2.27-1.16-.5-2.72-1.96-2.72-3.6M62.34,41.72v-3.41c0-.6-.02-1.11-.05-1.53.13.05.26.1.38.15.61.65,1.32,1.1,2,1.44.01.71-.02,1.46-.02,2.21v3.34c0,.79.11,1.48.3,2.08-1.26-.6-2.61-1.94-2.61-4.28M62.34,52.21v-3.41c0-.61-.02-1.88-.06-2.85.14.05.27.1.39.15.61.64,1.32,1.1,2,1.43.03,1.14-.02,2.7-.02,3.53v1.98h0v1.24c0,.08,0,.16,0,.24,0,0,0,0,0,0v.07c0,.71.09,1.34.24,1.9-1.14-.52-2.55-1.99-2.55-4.29M62.34,64.13v-3.41c0-.59-.02-2.77-.05-4.43.68.9,1.57,1.43,2.38,1.79-.01,2.51-.02,4.53-.02,4.91v1.98h0v1.25c0,1.18,0,1.87.22,2.16-.97-.42-2.53-1.8-2.53-4.24M59.01,39.72v-3.09c0-.64,0-1.06,0-1.42.31.12.65.23,1.01.32.38.29.77.54,1.16.74,0,.11,0,.23,0,.33v5.35c0,.73.09,1.37.25,1.94-1.2-.65-2.42-1.96-2.42-4.18M59.01,49.09v-3.08c0-1.18-.03-1.17-.03-1.75.33.14.63.26.91.36.42.34.86.62,1.29.84,0,.7,0,1.48,0,1.65v5.35c0,.24,0,.47.02.69-1.12-.68-2.19-1.97-2.19-4.05M61.17,59.02v5.28c-1.11-.69-2.16-1.97-2.16-4.03v-3.09c0-.9-.02-2.92-.03-4.13.62.82,1.42,1.38,2.19,1.78,0,1.44,0,3.97,0,4.19M56.1,38.18v-3.1c0-.8-.02-1.38-.06-1.82.11.06.23.12.35.18.39.44.86.85,1.44,1.21,0,.26,0,.51,0,.75v4.57c0,.85.13,1.57.34,2.2-1.08-.7-2.08-1.97-2.08-3.99M56.1,46.48v-3.1c0-.35,0-.66-.01-.93.15.08.3.16.45.24.4.4.83.72,1.27.99.03.37.03.75.03,1.1v4.57c0,.33.02.63.06.93-.97-.73-1.8-1.95-1.8-3.78M57.85,55.95v3.83c-.94-.74-1.74-1.94-1.74-3.74v-3.1c0-.58,0-1.66-.03-2.5.5.66,1.11,1.15,1.73,1.52.04,1.31.04,3.6.04,3.99M53.13,37.4c0-.71-.05-4.43-.06-6.85.4.7.99,1.38,1.82,1.99.09.68.05,1.54.05,2.14v3.75c0,.7.09,1.32.24,1.87-1.14-.84-2.05-1.87-2.05-2.9M53.09,39.68c.37.67,1,1.39,1.85,2.04,0,.45,0,.9,0,1.26v3.09c-1.02-.8-1.81-1.76-1.81-2.72,0-.43-.02-1.98-.04-3.67M54.94,52.53v2.21c-1.02-.8-1.81-1.76-1.81-2.72,0-.67-.05-4.02-.06-6.43.36.68.99,1.4,1.85,2.05.06,1.41.02,4.35.02,4.88M52.17,65.41c.14.32.1.94.24,1.23.14.29.46.49.55.64.12.2.07.69.23,1.04.08.16.15.32.23.47-.11.11-.19.24-.27.37-.24-.54-.83-.6-1.28-.32-.23.15-.49.37-.7.72.09-.61-.03-.81-.26-1.04-.35-.35-.21-1.09-.5-1.53-.22-.34-.63-.45-.89-.98-.26-.53-.13-.81-.4-1.33-.3-.6-.37-.78-.39-1.59.34.44.73.8,1.26,1.33.19-1.25.2-1.55.2-2.63.53.45,1.07,1.13,1.25,1.58.1.27.2,1.07.24,1.2.13.41.32.54.46.85M54.49,69.05c.56.04.25,2.46.66,3.3.42.85.24,1.56-.55,1.49-.81-.07-.76-2.52-.77-2.95,0-.61-.31.32-.47.66-.03-.15-.07-.31-.09-.49-.06-.42-.02-.68.02-.94.22-.57.64-1.12,1.21-1.08M55.21,70.04c.22-.73.82-1.74,1.52-1.58.55.12.02,1.86.35,2.72.64,1.66-.26,2.23-1.03,2.03-.86-.22-.48-2.54-.4-2.88.02-.55-.26,0-.46.3-.04-.14-.07-.24.03-.59M57.78,70.38l5.1,3.49v7.34c-8.11,4.59-17.2,7.26-26.57,7.46h-.15s-.71.59-1.06.87h0s0,0,0,0c-.34-.29-1.06-.88-1.06-.88h-.15c-9.37-.2-18.46-2.86-26.56-7.46v-7.34s5.09-3.49,5.09-3.49c.13.07.25.14.38.21.02.73-.5,1.11-.38,1.86.09.63.48,1.07.93,1.28.12.28.35.5.65.62.31.11.27-.15.27-.55.07-.02.13-.04.2-.07.09.3.28.52.53.64.11.23.32.43.72.7.4.19.13-.25.06-.64.15-.04.3-.1.44-.2.05.12.12.23.24.3.03.03.07.06.11.08.1.41.38.64.82.89.29.09.18-.23.15-.55.4,0,.76-.22.92-.87.08-.31.07-.51.05-.68,4.84,2.06,10.07,3.46,15.19,3.62.18.14,1.41,1.06,1.41,1.06,0,0,1.23-.92,1.41-1.06,5.09-.16,10.29-1.54,15.11-3.58-.01.16-.01.35.06.64.16.66.51.88.91.87-.03.31-.14.64.15.55.44-.24.72-.48.82-.89.04-.02.08-.05.11-.08.11-.07.18-.18.23-.3.15.1.29.16.44.2-.07.39-.34.82.06.64.4-.27.61-.47.72-.7.25-.12.44-.34.53-.64.07.03.13.06.2.07,0,.4-.05.66.27.55.3-.13.53-.35.65-.62.45-.2.84-.65.93-1.28.11-.74-.38-1.11-.38-1.82.15-.08.3-.17.45-.25M13.06,71.18c.33-.85-.2-2.6.35-2.72.69-.16,1.3.85,1.52,1.58.07.2.06.52.03.59-.2-.31-.48-.85-.46-.3.08.34.46,2.66-.41,2.88-.77.2-1.67-.37-1.03-2.03M15.64,69.05c.56-.04.99.5,1.21,1.08.03.26.07.52.02.94-.02.17-.06.33-.1.49-.16-.34-.47-1.27-.47-.66,0,.43.04,2.88-.77,2.95-.79.07-.97-.63-.55-1.49.41-.84.11-3.26.66-3.3M18.45,70.9c-.66,1.2-.07,3.44-.83,3.49-2.18.14-.56-2.59-.48-3.27.1-.87,0-2.14.86-1.88.76.23,1.73,2.7,2.2,3.44,0,0,.01.02.02.02-.17-.07-.34-.14-.52-.21.05.02.09.03.11.03-.78-.3-1.22-2.18-1.36-1.63M52.14,69.25c.85-.26.76,1.01.86,1.88.08.68,1.7,3.41-.48,3.27-.76-.05-.17-2.29-.83-3.49-.12-.5-.48,1.04-1.12,1.58-.21.09-.42.17-.63.26.5-.85,1.47-3.26,2.21-3.49M40.28,69.57c.54,3.17-2.58,3.34-3.04.9-.06-.31-.14-1.25-.24-2.49-.23-4.25-.58-10.99-.6-12.26.53-.33,1.16-.59,1.79-.76.35,2.4,1.95,13.76,2.09,14.61M40.59,54.79c.34.06.62.18.82.34.31.21.64.5,1,.86.56,2.13,2.84,10.64,3.04,11.49.25,1.03.52,1.96.95,2.39-1.38.26-2.35,0-2.67-1.25-.42-1.96-2.57-11.68-3.13-13.83M42.91,68.68c.18,1.04,1.01,2.54.06,2.76-1.48.36-1.61-.46-1.85-1.73,0-.04-2.09-13.65-2.38-14.87.48-.09.94-.12,1.36-.1.31,1.5,2.67,13.09,2.82,13.94M33.97,69.97c0-1.65.25-12.17.3-13.87.42.37.71.8.79,1.28.08-.48.37-.91.8-1.28.05,1.7.3,12.22.3,13.87,0,1.79-.47,2.44-1.09,2.81-.62-.37-1.09-1.02-1.09-2.81M23.87,67.37c-.4,1.43-1.38,2.92-1.61,3.15.84.32,2.38.57,3.46.14-.16.56-.15,1.08.33,1.56.59.59,2.26,1.02,3.07-.37.65,2.32,3.15,2.21,4.13.59.42,1.34,1.3,1.51,1.81,2.02.51-.51,1.39-.68,1.81-2.02.98,1.62,3.48,1.73,4.13-.59.81,1.39,2.48.96,3.07.37.48-.48.49-1,.33-1.56,1.08.43,2.62.18,3.46-.14-.23-.23-1.21-1.72-1.61-3.15-.49-1.74-2.31-8.02-3.12-10.59,2.21,2.54,4.73,6.83,4.89,9.09.07-.32.22-.71.35-1.13.51,1.06,1.73,3.22,1.94,3.73.21.54.27.89.12,1.6-.11.51-.58,2.07-1.58,3.07,0,0,0,0,0,0-4,1.49-8.22,2.41-12.54,2.53-.35.29-1.22.94-1.22.94,0,0-.87-.65-1.22-.94-4.31-.12-8.51-1.04-12.5-2.52,0,0,0,0,0-.01-1-1-1.59-2.57-1.71-3.08-.15-.71-.09-1.06.12-1.6.2-.51,1.43-2.68,1.94-3.73.14.42.28.82.35,1.13.16-2.26,2.69-6.56,4.9-9.09-.82,2.57-2.63,8.85-3.12,10.59M26.41,68.63c-.32,1.25-1.29,1.51-2.67,1.25.43-.43.7-1.37.95-2.39.2-.85,2.48-9.36,3.04-11.49.35-.35.69-.64.99-.85.2-.17.48-.28.82-.34-.57,2.15-2.72,11.87-3.13,13.83M31.95,54.96c.64.17,1.27.43,1.8.76-.02,1.28-.37,8.01-.61,12.26-.1,1.25-.18,2.19-.24,2.5-.47,2.44-3.58,2.27-3.04-.9.15-.85,1.75-12.22,2.09-14.61M29.01,69.71c-.24,1.27-.37,2.1-1.85,1.73-.96-.23-.12-1.72.06-2.76.15-.91,2.48-12.23,2.82-13.94.42-.02.88.01,1.35.1-.29,1.22-2.37,14.84-2.38,14.87M16.93,68.31c.16-.35.11-.84.23-1.04.09-.15.41-.35.55-.64.14-.29.11-.91.25-1.23.14-.31.33-.44.46-.85.04-.13.14-.92.24-1.2.18-.46.71-1.13,1.25-1.58,0,1.08.01,1.38.2,2.63.53-.53.92-.9,1.26-1.33-.02.8-.09.99-.39,1.59-.27.52-.14.81-.4,1.33-.26.53-.67.64-.88.98-.29.44-.15,1.18-.5,1.53-.24.24-.35.43-.26,1.04-.21-.35-.47-.57-.7-.72-.44-.28-1.04-.22-1.27.32-.08-.12-.16-.25-.27-.36.08-.15.16-.31.24-.47M17,37.4c0,1.03-.91,2.06-2.04,2.9.15-.55.24-1.17.24-1.87v-3.75c0-.6-.05-1.46.04-2.14.83-.61,1.42-1.29,1.82-1.99,0,2.43-.06,6.15-.06,6.85M15.18,41.71c.85-.64,1.48-1.35,1.85-2.02-.02,1.69-.04,3.23-.04,3.66,0,.96-.78,1.92-1.8,2.72v-3.09c0-.36-.02-.81-.01-1.26M16.99,52.02c0,.95-.78,1.92-1.8,2.71v-2.21c0-.53-.04-3.48.02-4.89.85-.65,1.48-1.38,1.84-2.05,0,2.41-.06,5.76-.06,6.43M14.03,35.08v3.1c0,2.01-1,3.29-2.09,3.98.21-.63.34-1.35.34-2.2v-4.57c0-.24,0-.5,0-.75.57-.35,1.05-.76,1.44-1.21.12-.06.24-.12.35-.18-.04.44-.05,1.03-.05,1.82M12.23,50.26c.03-.29.05-.6.05-.93v-4.57c0-.34,0-.73.03-1.1.44-.27.88-.59,1.28-.99.15-.07.3-.15.45-.24,0,.27,0,.58,0,.93v3.1c0,1.83-.83,3.05-1.8,3.78M14.03,52.94v3.1c0,1.8-.8,3-1.74,3.74v-3.83c0-.39,0-2.68.04-3.99.62-.37,1.23-.86,1.73-1.52-.02.84-.03,1.92-.03,2.5M11.12,46.01v3.08c0,2.08-1.07,3.37-2.19,4.05.02-.22.02-.44.02-.69v-5.35c0-.17,0-.95,0-1.65.43-.22.87-.5,1.29-.84.27-.1.58-.22.91-.36,0,.58-.03.57-.03,1.75M11.12,57.19v3.09c0,2.06-1.05,3.34-2.16,4.03v-5.28c0-.22,0-2.75,0-4.19.77-.41,1.57-.96,2.19-1.78,0,1.21-.03,3.23-.03,4.13M8.7,43.9c.16-.57.26-1.21.26-1.94v-5.68c.39-.2.78-.45,1.16-.74.36-.09.69-.2,1.01-.32-.02.35,0,.78,0,1.42v3.09c0,2.22-1.22,3.54-2.42,4.18M7.79,48.8v3.41c0,2.3-1.41,3.77-2.55,4.28.16-.55.25-1.18.25-1.9v-.07s0,0,0,0c0-.08,0-.15,0-.24v-1.23h0v-1.99c0-.83-.05-2.39-.02-3.53.68-.33,1.39-.79,2-1.43.12-.05.25-.1.39-.15-.03.97-.06,2.24-.06,2.85M7.79,60.72v3.41c0,2.44-1.56,3.82-2.53,4.24.22-.29.23-.97.23-2.16v-1.24h0v-1.99c0-.38-.01-2.4-.02-4.91.81-.36,1.69-.89,2.37-1.79-.03,1.66-.05,3.84-.05,4.43M5.46,38.36c.68-.34,1.4-.79,2-1.44.12-.04.25-.1.38-.15-.03.43-.05.93-.05,1.53v3.41c0,2.34-1.35,3.68-2.61,4.28.19-.6.3-1.29.3-2.08v-3.34c0-.75-.04-1.5-.03-2.21M1.55,48.02c.22-.29.47-1.09.47-2.27v-5.45c.62-.31,1.26-.71,1.82-1.27.17-.06.35-.13.54-.2-.03.44-.06.93-.06,1.48v3.35c0,2.44-1.47,3.79-2.77,4.36M4.32,50.81c0,.64-.06,3.91-.06,4.31,0,1.7-1.56,3.1-2.72,3.6.22-.29.47-1.09.47-2.27v-6.96c.62-.31,1.26-.71,1.82-1.26.18-.07.37-.14.58-.22-.06.9-.09,2.11-.09,2.81M4.32,62.72v3.88c0,.49-.05,1.92-.05,3.56,0,0,0,0,0,0v2.61c0,1.64-1.56,3.09-2.72,3.6.22-.29.47-1.09.47-2.27v-13.93c.72-.36,1.48-.85,2.11-1.57.07-.03.14-.05.22-.09-.02,2.18-.02,3.88-.02,4.21M27.18,7.17h0c-.3.09-1.91.36-2.11.16.35-.18.59-.29,1.26-.72.49.04.96.34,1.73.8-.42-.17-.47-.32-.87-.24M69.28,49.98c.33.12.62.23.85.32-.92-1.38-.85-3.62-.85-4.15v-5.35c.33.13.62.23.85.32-.92-1.39-.85-3.63-.85-4.16v-12.45c0-3.44-5.26-11.78-9.72-11.9-3.16-.08-6.87,4.36-11.41,3.22-1.46-.38-2.62-1.94-3.58-3.87-1.69-3.45-3.32-8.07-7.43-10.75-4.56-2.96-9.81.35-10.41.87-.51.47-1.34,1.89-1.78,2.12-1.43.74-1.66,1.99-1.66,2.47s.11,1.62.97,2.27c-.12-.56-.15-.88-.02-1.16.57.1,1.82.35,2.62.02.4.4,1.34,1.16,1.75,1.94.58,1.09.58,1.25.58,1.68,0,1.1-.52,2.69-2.09,3.72-1.66,1.18-5.56,1.84-10.45.16-2.65-.9-3.73-2.74-6.1-2.68-4.45.11-9.72,8.45-9.72,11.9v12.45c0,.53.07,2.77-.85,4.16.23-.09.52-.2.85-.32v5.35c0,.53.07,2.77-.85,4.15.23-.09.52-.19.85-.32v6.85c0,.53.07,2.77-.85,4.16.23-.09.52-.19.85-.31v13.81c0,.39.04,1.75-.33,3-.12.41.16.91.59.74,1.78-.71,4.38-2.1,4.38-5.98v-2.18c1.28-.56,2.82-1.56,3.31-3.98,1.45-.72,3.06-1.97,3.42-4.5,1.49-.86,2.97-2.36,2.98-5.26,1.3-.98,2.06-2.13,2.22-3.02.11-.6.18-2.03.21-3.69.94-.68,1.61-1.46,2-2.17-.15,3.59-.87,8.42-2.56,15.12.3,0,.7-.07,1.1-.16-.22,1.35-1.37,4.56-2.14,6.02-.1,0-.21,0-.34,0-.25.05-.44.29-.56.59-.35-.53-.78-1.39-1.79-1.06-.52.17-.72.58-.76,1.02-.84.53-6.54,4.06-6.54,4.06v8.81c8.46,5.01,17.79,8.03,27.85,8.24.33.33,1.22,1.01,1.22,1.01,0,0,.9-.68,1.22-1.01,10.06-.21,19.38-3.23,27.85-8.24v-8.81s-6.18-3.84-6.62-4.12c-.05-.42-.25-.8-.76-.97-1.01-.33-1.44.53-1.79,1.06-.12-.31-.31-.55-.56-.59-.12-.02-.24-.02-.33,0-.77-1.46-1.92-4.67-2.14-6.02.41.1.81.16,1.11.16-1.69-6.69-2.41-11.52-2.56-15.12.38.71,1.05,1.48,1.98,2.16.03,1.66.1,3.1.21,3.7.15.89.93,2.05,2.23,3.03.02,2.89,1.49,4.39,2.98,5.26.36,2.53,1.96,3.78,3.42,4.5.5,2.42,2.03,3.42,3.31,3.98v2.18c0,3.83,2.54,5.23,4.31,5.95.46.18.83-.16.72-.5-.44-1.3-.4-2.8-.4-3.21v-13.8c.33.12.62.2.85.3-.92-1.39-.85-3.63-.85-4.16v-6.85ZM56.53,80.59c-.12.05-.24.1-.37.14-.03-.09-.07-.17-.1-.26.08-.15.16-.31.24-.46.16.06.33.11.5.17.03.08.07.17.1.25-.13.05-.25.1-.38.15M55.95,79.12c-.23.46-.47.92-.72,1.38.06.17.13.34.19.51-.25.09-.5.19-.75.27-.45-1.26-.9-2.53-1.35-3.79-.07-.2-.06-.42.19-.58-.45-.18-.9-.36-1.34-.55.59,1.73,1.18,3.45,1.76,5.18.07.21.15.43.22.65.19-.07.38-.13.57-.2l.18-.06c.63-.22,1.26-.46,1.89-.71.37-.15.75-.3,1.12-.46-.16-.38-.32-.76-.48-1.14-.49-.16-.98-.34-1.47-.51M61.59,79.07c.24-.12.48-.24.72-.37-.73-1.39-1.45-2.79-2.18-4.18-.1-.18-.12-.4.11-.6-.48-.11-.95-.23-1.42-.35.82,1.63,1.64,3.26,2.46,4.89.1.2.21.41.31.61M48.69,37.41s.02.02.01.03c0,0-.01.02-.02.02l-.73.16-.16.63s-.02.02-.03.02h0s-.02,0-.02-.02l-.36-.58-.72-.02s-.02,0-.03-.02c0-.01,0-.02,0-.03l.46-.54-.18-.68s0-.02,0-.03c.01,0,.02-.01.04,0l.66.29.57-.37s.01,0,.02,0,.01,0,.02,0h0s.01.02.01.03l-.12.64.58.46ZM41.43,45.09l-.32-1.24s-.02-.02-.03-.02c-.01,0-.02,0-.03.01,0,0-.63.92-.82,1.17-.32,0-1.43-.09-1.43-.09-.01,0-.02,0-.03.02,0,0,0,.02,0,.03l.77,1.03c-1.39.53-2.89.82-4.46.82s-3.18-.31-4.6-.88l.73-.97s0-.02,0-.03c0,0-.02-.02-.03-.02,0,0-1.12.09-1.43.09-.19-.25-.82-1.17-.82-1.17,0-.01-.02-.02-.03-.02-.01,0-.02.01-.03.02l-.3,1.14c-2.55-1.55-4.5-3.98-5.44-6.87l1.17-.03s.02,0,.03-.02c0,0,0-.02,0-.03,0,0-.73-.82-.94-1.07.08-.32.39-1.37.39-1.37,0-.01,0-.02,0-.03,0-.01-.02-.01-.03,0l-1.08.48c-.08-.59-.13-1.18-.13-1.79,0-2.55.77-4.93,2.09-6.92l.71.85s.01.01.02.01c0,0,0,0,0,0,.01,0,.02-.01.02-.02,0,0,.19-1.09.25-1.39.3-.13,1.34-.54,1.35-.54.01,0,.02-.01.02-.03,0-.01,0-.02-.02-.03l-1.02-.53c2.04-2.17,4.85-3.62,7.98-3.91l-.23,1.17s0,.02.01.03c0,0,0,0,.02,0,0,0,0,0,.02,0,0,0,.97-.56,1.25-.7.28.14,1.25.69,1.25.69,0,0,.02,0,.03,0,0,0,.02-.02.01-.03l-.23-1.18c3.18.24,6.03,1.68,8.11,3.86l-1.15.6s-.02.02-.02.03c0,.02,0,.02.02.03,0,0,1.04.4,1.34.54.06.3.25,1.39.25,1.39,0,.01.01.02.02.03,0,0,0,0,0,0,.01,0,.02,0,.02-.01l.82-.97c1.36,2.01,2.16,4.43,2.16,7.04,0,.64-.05,1.26-.14,1.87l-1.25-.56s-.03,0-.03,0c-.01,0-.02.02-.01.03,0,0,.31,1.06.39,1.37-.21.24-.94,1.07-.94,1.07,0,0-.01.02,0,.03,0,.01.02.02.03.02l1.35.04c-.96,2.94-2.97,5.41-5.6,6.96M41.76,45.86s0,.01,0,.01l-.57.31v.73s0,.02,0,.03h-.02s-.01,0-.02,0l-.58-.46-.35.15-.24.1h0s0,0,0,0c0,0-.02,0-.03,0,0,0,0-.01,0-.02,0,0,0-.01,0-.02l.1-.27.14-.37-.18-.24h0l-.25-.33s0-.01,0-.02c0,0,0-.01,0-.02,0,0,0,0,.02,0,0,0,0,0,.01,0l.69.02.43-.56s.02-.01.03,0c.01,0,.02,0,.02.02,0,0,0,0,0,0l.11.41.07.29.48.16.16.05s.02.02.02.03c0,0,0,.01,0,.02M30.25,45.47s0,.01,0,.02l-.25.33-.19.24.1.27.13.36s0,.03,0,.03c0,0,0,0,0,0,0,0-.02,0-.03,0l-.16-.07-.32-.13s.01,0,.02,0l-.14-.06-.22.17-.36.28s-.01,0-.02,0h-.02s-.02-.02-.02-.03v-.73s-.56-.31-.56-.31c-.01,0-.02-.02-.02-.03h0s0-.02.02-.03l.32-.11.32-.11.1-.38.08-.32s.02-.02.02-.02c.01,0,.03,0,.03,0h0l.21.28.21.28.69-.02s.02,0,.03.02c0,0,0,0,0,.02M22.23,38.26s-.01.02-.02.02h0s-.02-.02-.03-.02l-.16-.63-.72-.16s-.02-.01-.02-.02c0-.01,0-.02.01-.03l.58-.46h0s-.02-.14-.02-.14h0s-.1-.5-.1-.5c0,0,0-.02,0-.02,0,0,0,0,0,0,.01,0,.02,0,.04,0l.57.37.36-.16.3-.14s.02,0,.03,0c.01,0,.01.02.01.03l-.18.68.46.54s0,.02,0,.03c0,0-.02.02-.03.02l-.72.02-.36.58ZM23.86,26.63l.39-.52-.33-.66s0-.02,0-.03c0,0,.02-.01.03-.01l.73.17.42-.5s.02-.01.04,0c.01,0,.02.01.02.03l.05.68.64.34s.02.02.02.03c0,.01,0,.02-.02.03l-.63.28-.14.69s-.01.02-.02.02h0s-.02,0-.02,0l-.17-.21-.29-.35-.65.08h-.03s-.03,0-.03-.01c0-.01,0-.02,0-.04M33.97,20.8s.01-.01.02-.01l.64-.03.32-.67s.02-.02.03-.02c.01,0,.03,0,.03.02l.32.67h.06s0,0,0,0l.44.02h0c.05,0,.11,0,.16,0,0,0,.02,0,.02.02h0s0,.02,0,.03l-.49.47.14.71s0,.02-.02.03c0,0-.01,0-.02,0,0,0-.01,0-.02,0l-.63-.32-.62.32s-.02,0-.03,0c0,0-.02-.02-.01-.03l.06-.33.08-.38-.49-.47s-.01-.02,0-.03c0,0,0,0,0,0M44.48,25.91l.28-.15.05-.68s0-.02.02-.02c0,0,.01,0,.02,0,0,0,.01,0,.02,0l.42.5.06-.02.67-.15s.02,0,.03.01c0,0,0,.02,0,.03l-.33.66.38.52s.01.02,0,.03c0,.01-.02.02-.03.02l-.68-.08-.47.55s-.02.01-.02.01c0,0,0,0,0,0-.01,0-.02-.01-.02-.02l-.14-.69-.63-.28s-.02-.02-.02-.03,0-.02.02-.03l.37-.19ZM48.82,35.34s0-.02-.01-.03c-.01,0-.02,0-.04,0,0,0-.11.08-.26.19.04-.42.06-.83.06-1.26,0-2.57-.73-4.97-1.98-7.02.25.04.45.08.45.08.01,0,.02,0,.03-.01,0,0,0-.02,0-.03,0,0-.63-.94-.82-1.19.14-.29.58-1.25.58-1.25,0,0,0-.02,0-.03,0,0-.02-.01-.03-.01l-1.33.3c-.21-.25-.96-1.08-.96-1.08,0,0-.02-.01-.04,0,0,0-.02.02-.02.03l-.04.51c-2.06-1.98-4.75-3.31-7.74-3.66.23-.21.43-.38.43-.38,0,0,.01-.02,0-.03,0-.01-.02-.02-.03-.02,0,0-1.13-.08-1.45-.09-.14-.29-.61-1.22-.61-1.22h0s-.02-.02-.03-.02c0,0-.02,0-.02.02,0,0-.47.94-.61,1.22-.31.02-1.45.09-1.45.09-.02,0-.03,0-.03.02,0,.01,0,.03,0,.03,0,0,.21.19.44.4-3,.39-5.69,1.77-7.74,3.81l-.05-.67s0-.02-.02-.03c0,0-.02,0-.03,0,0,0-.75.83-.96,1.08l-1.33-.3s-.02,0-.03.01c0,.01,0,.02,0,.03,0,0,.43.96.58,1.25-.19.25-.81,1.19-.81,1.19,0,.01,0,.02,0,.04,0,0,.02.01.03.01,0,0,.31-.05.65-.11-1.26,2.05-2,4.47-2,7.05,0,.47.03.94.07,1.4-.25-.17-.46-.33-.46-.33,0-.01-.02-.01-.04,0-.01,0-.02.02-.01.03,0,0,.15,1.11.22,1.43l-1.08.86s-.01.02-.01.03c0,.01.01.02.02.02,0,0,1.03.26,1.35.32.08.31.42,1.38.42,1.38,0,.01.01.02.03.02h0s.02,0,.03-.02c0,0,.13-.24.29-.51,1,2.73,2.86,5.05,5.25,6.63-.31.09-.58.16-.58.17-.01,0-.02.02-.02.03,0,.01,0,.02.02.03,0,0,.99.57,1.26.72,0,.19.02,1.38.02,1.38,0,.01,0,.02.02.03,0,0,.01,0,.01,0,0,0,.02,0,.02,0l1.08-.84,1.35.57s.02,0,.03,0c0,0,.01-.02,0-.04,0,0-.1-.25-.22-.55,1.39.49,2.88.75,4.43.75,1.47,0,2.89-.24,4.21-.68-.11.26-.19.47-.19.47,0,.01,0,.03,0,.03,0,0,.02.01.03,0l1.35-.57,1.08.85s.01,0,.02,0h.01s.02-.02.02-.03c0,0,.02-1.19.02-1.38.28-.15,1.26-.72,1.26-.72.01,0,.02-.02.02-.03,0-.02,0-.02-.02-.03,0,0-.2-.06-.46-.13,2.36-1.54,4.21-3.8,5.23-6.47.1.18.18.32.18.32,0,.01.02.02.03.02h0s.02-.01.02-.02c0,0,.34-1.07.42-1.38.32-.07,1.35-.33,1.35-.33,0,0,.02-.01.02-.02,0-.01,0-.03-.01-.03l-1.08-.86c.06-.32.21-1.43.21-1.43M59.74,78.91c.04.08.08.16.12.25-.12.06-.25.11-.37.17-.12.06-.24.11-.36.16-.04-.08-.07-.16-.11-.25.07-.16.15-.31.22-.47.17.05.34.09.51.14M59.04,77.42c-.07.16-.14.32-.21.48-.16-.05-.33-.1-.49-.15-.49-1.08-.98-2.16-1.47-3.24-.2.49-.42.98-.63,1.47.3-.05.52.08.6.27.28.65.56,1.29.85,1.94.02.04.04.08.06.13.26.08.52.17.79.25-.12.25-.23.5-.35.75.16.38.33.76.49,1.13.37-.16.74-.32,1.1-.49.37-.17.73-.34,1.09-.52-.18-.37-.36-.74-.54-1.11-.27-.07-.54-.15-.8-.22.11-.26.22-.51.33-.76-.33-.68-.66-1.36-.99-2.04-.09-.18-.04-.43.19-.63-.51-.15-1.02-.31-1.53-.48.5,1.07,1.01,2.14,1.51,3.22M42.72,79.6c-.4-.27-.8-.54-1.18-.82.24,2.04.49,4.07.73,6.11.27-.03.53-.06.79-.1-.21-1.56-.42-3.12-.63-4.67-.03-.2.02-.42.29-.52M50.55,78.39c-.06-.2-.04-.42.21-.56-.44-.2-.87-.41-1.3-.62.49,1.75.99,3.51,1.48,5.27.06.22.12.44.19.66.25-.07.51-.14.76-.22-.45-1.51-.89-3.01-1.34-4.52M38.07,83.88c-.17-.27-.33-.53-.49-.8.08,0,.15,0,.23,0,0-.2.08-.31.2-.42.14.1.22.2.25.4.07,0,.15,0,.23-.01-.14.28-.28.56-.42.84M39.87,79.92c.29.04.38.24.4.45.12,1.34.25,2.67.37,4.01-.69.06-1.38.11-2.07.15.37-.75.73-1.51,1.07-2.27-.3.02-.6.04-.9.07-.13-.23-.5-.48-.78-.5-.27.04-.62.33-.72.57-.3,0-.6.02-.9.02.41.72.84,1.44,1.29,2.15-.67.03-1.35.04-2.02.05,0-.68,0-1.37,0-2.05-.38.34-.76.68-1.15,1.02.23,0,.38.15.38.35,0,.57-.01,1.14-.02,1.71,0,.38-.36.68-.8.68-.36,0-.64-.21-.75-.48.1.46.58.82,1.16.83.67,0,1.19-.45,1.19-1.02,0-.11,0-.22,0-.34.84,0,1.68-.03,2.51-.07.86-.04,1.71-.1,2.57-.18.04,0,.07,0,.11-.01.23-.02.45-.04.68-.07-.22-2.04-.43-4.08-.65-6.12-.32.36-.64.71-.97,1.06M48.61,81.24c.31,0,.43.17.48.37.11.42.21.85.32,1.27-1.14.29-2.28.54-3.43.75-.15.03-.31.06-.46.08-.24-.14-.47-.29-.71-.43.54-.55.87-1.52.67-2.33-.13,1.13-.64,1.94-1.91,2.39.58.38,1.16.74,1.76,1.1.26-.05.52-.09.78-.14,1.42-.27,2.84-.59,4.24-.97-.29-1.1-.59-2.2-.88-3.3-.28.41-.57.81-.86,1.21M52.54,79.84c-.26.44-.52.89-.79,1.32.22-.07.41.02.47.22.17.55.34,1.09.51,1.63.11.36-.15.77-.58.89-.34.1-.67,0-.85-.23.24.41.8.6,1.36.43.65-.2,1.02-.8.84-1.34-.32-.98-.64-1.95-.95-2.93M25.81,4.51c-.25,0-.46.17-.46.38,0,.19.17.34.38.37-.02-.03-.03-.07-.03-.1,0-.15.19-.28.43-.28.05,0,.09,0,.13.02h0c0-.21-.2-.38-.46-.38"/>
</svg>