<?xml version="1.0" encoding="UTF-8"?>
<svg id="Layer_1" data-name="Layer 1" xmlns="http://www.w3.org/2000/svg" viewBox="0 0 600.07 207.54">
  <defs>
    <style>
      .cls-1 {
        fill: #018756;
      }
    </style>
  </defs>
  <g id="layer">
    <g>
      <path class="cls-1" d="M12.1,135.2H0v33.7h11.9c11.3,0,18.8-7.7,18.8-17s-7.3-16.7-18.6-16.7M12.2,162.3h-4.6v-20.3h4.6c6.3,0,10.8,4.3,10.8,10.2s-4.4,10.1-10.8,10.1"/>
      <path class="cls-1" d="M57.5,155c0,4.7-2.9,7.4-6.8,7.4s-6.9-2.8-6.9-7.4v-19.7h-7.7v20c0,8.6,5.7,14.2,14.4,14.2s14.6-5.8,14.6-14.5v-19.7h-7.5v19.7h-.1Z"/>
      <path class="cls-1" d="M94.1,151.3c2.7-1.5,4.4-4.3,4.4-7.4,0-5.6-4.9-8.7-10.7-8.7h-15.1v33.7h16c6.1,0,11.3-3.6,11.3-9.4,0-3.7-2.4-7-5.9-8.2M86.2,148.8h-5.9v-7.6h5.9c3,0,4.6,1.8,4.6,3.8s-1.6,3.8-4.6,3.8M80.3,154.4h7c3,0,5,1.7,5,4.2s-1.7,4.3-5,4.3h-7v-8.5h0Z"/>
      <path class="cls-1" d="M122.7,135.2h-7.5l-13.7,33.7h8l2.7-7h13.1l2.7,7h8.4l-13.6-33.6h0l-.1-.1ZM123.2,155.8h-8.8l4.4-11.5,4.4,11.5Z"/>
      <rect class="cls-1" x="140.5" y="135.2" width="7.8" height="33.7"/>
      <path class="cls-1" d="M183,135.2h-14.6v33.7h7.7v-10.6h6.7c8,0,12.9-5.3,12.9-11.7,0-7.1-5.5-11.4-12.7-11.4M176,141.8h6.2c3.7,0,5.8,2.3,5.8,5.1s-2.1,5.1-5.8,5.1h-6.2v-10.2h0Z"/>
      <path class="cls-1" d="M217.4,134.8c-10,0-17.8,7.6-17.8,17.5s7.4,17.2,17.6,17.2,17.8-7.6,17.8-17.4-7.4-17.3-17.6-17.3M217.3,162.4c-5.9,0-10.1-4.4-10.1-10.3s4.1-10.3,10.1-10.3,10.1,4.4,10.1,10.3-4.3,10.3-10.1,10.3"/>
      <path class="cls-1" d="M309,158.7c-1.9,2.4-4.8,3.8-7.8,3.7-5.8,0-10.1-4.3-10.1-10.3s4.2-10.3,10.1-10.3c2.9-.1,5.7,1.2,7.6,3.4h.1c0,.1,5.6-4.9,5.6-4.9h-.1c-3.4-3.8-8.1-5.8-13.1-5.7-10,0-17.8,7.7-17.8,17.5s7.6,17.2,17.6,17.2c5.2.1,10.1-2.1,13.5-6h.1c0-.1-5.6-4.9-5.6-4.9v.3h-.1Z"/>
      <polygon class="cls-1" points="248.8 135.2 241.1 135.2 241.1 169 265 169 265 162.1 248.8 162.1 248.8 135.2"/>
      <rect class="cls-1" x="269.5" y="135.2" width="7.8" height="33.7"/>
      <polygon class="cls-1" points="327 162.3 327 154.8 341.9 154.8 341.9 148.5 327 148.5 327 141.9 344.3 141.9 344.3 135.2 319.4 135.2 319.4 169 344.8 169 344.8 162.3 327 162.3"/>
      <path class="cls-1" d="M185.5,53.4c2.8,0,5-2.2,5-5s-2.2-5-5-5-5,2.2-5,5,2.2,5,5,5"/>
      <path class="cls-1" d="M317.4,45.8c2.8,0,5-2.2,5-5s-2.2-5-5-5-5,2.2-5,5,2.3,5,5,5"/>
      <path class="cls-1" d="M310.5,57.4c2.8,0,5-2.2,5-5s-2.2-5-5-5-5,2.2-5,5,2.2,5,5,5"/>
      <path class="cls-1" d="M319.4,52.4c0,2.8,2.2,5,5,5s5-2.2,5-5-2.2-5-5-5c-2.8-.1-5,2.2-5,5"/>
      <path class="cls-1" d="M337.5,58.6l-8.4,5.1c2,3.3,7.8,14.6,5.1,30.6h-11.8v-30.6h-9.9v30.6h-7.5v-30.6h-9.9v30.6h-14v-34.6h-9.9v38.9c0,8-6.5,14.4-14.5,14.5h-2.5v9.9h2.5c11.3,0,21-7.8,23.7-18.7h61.7l.9-3.8c5.3-21.8-2.9-37.6-5.5-41.9"/>
      <path class="cls-1" d="M123.7,58.5l-4.4,8.8c12.8,6.4,13.6,19.1,12.6,27h-22v9.9h30.2l.9-3.9c6-27.7-11.7-39-17.3-41.8"/>
      <path class="cls-1" d="M259.7,104.2l2.6-8.8c2.3-8,.8-16.6-4.1-23.3-8.7-11.7-25.1-14.1-36.8-5.4-.5.3-.9.7-1.4,1.1l-8.7,7.4v-26.9h-9.8v46h-11.1v-34.6h-10.2c-13.6,0-24.7,11.1-24.7,24.7v19.9h9.9v-19.9c0-8.2,6.6-14.8,14.8-14.8h.3v34.7h79.2v-.1ZM211.4,88.2l15.1-12.9c6.9-5.9,17.3-5.1,23.2,1.9.2.3.5.6.7.9,3.1,4.2,4.1,9.6,2.6,14.6l-.5,1.7h-41v-6.2h-.1Z"/>
      <path class="cls-1" d="M93.6,110.5c-2.8,0-5,2.2-5,5s2.2,5,5,5,5-2.2,5-5c.1-2.7-2.2-5-5-5"/>
      <path class="cls-1" d="M41,110.5c-2.8,0-5,2.2-5,5s2.2,5,5,5,5-2.2,5-5-2.3-5-5-5"/>
      <path class="cls-1" d="M28.3,110.5c-2.8,0-5,2.2-5,5s2.2,5,5,5,5-2.2,5-5c.1-2.7-2.2-5-5-5"/>
      <path class="cls-1" d="M173.2,53.4c2.8,0,5-2.2,5-5s-2.2-5-5-5-5,2.2-5,5,2.2,5,5,5"/>
      <path class="cls-1" d="M94.1,88.3c0,3.3-2.7,6-6,6h-4.5v-34.6h-10.4c-13.3,0-23.8,10.8-23.8,24.7v10H9.9v-1.3c0-10.4,2.5-20.6,7.4-29.8l-8.7-4.6C3,69.3.1,81.2.1,93.2v11.2h59.3v-19.9c0-8.4,6-14.8,13.9-14.8h.5v34.7h14.3c8.8,0,15.9-7.1,15.9-15.9v-28.8h-9.9v28.6Z"/>
      <path class="cls-1" d="M598.1,116.2c-1.7-.1-3.5,0-5.1.3,1.3-1.4,2.4-2.8,3.4-4.4,3.7-5.8,4.6-12.8,2.7-19.3-1.7.3-3.4.7-4.9,1.4.9-1.6,1.7-3.3,2.3-5,2.3-6.4,1.8-13.5-1.5-19.5-1.6.6-3.1,1.4-4.5,2.4.6-1.8,1-3.6,1.2-5.4,1-6.8-1-13.6-5.4-18.8-1.4,1-2.8,2.1-3.9,3.3.2-1.8.2-3.7,0-5.6-.5-6.8-3.9-13.1-9.4-17.1-1.2,1.2-2.3,2.6-3.1,4.1-.2-1.8-.6-3.7-1.1-5.4-1.9-6.5-6.6-11.9-12.7-14.8-.9,1.5-1.7,3-2.2,4.6-.6-1.8-1.3-3.5-2.2-5.1-3.2-6-8.9-10.3-15.6-11.8-1.2,3.3-1.6,6.9-1.3,10.4-.7-.6-1.6-1.1-2.5-1.7-5.8-3.6-12.9-4.4-19.4-2.4,1.2,6.7,5.3,12.5,11.2,16,.9.5,1.8,1,2.6,1.4-3.3,1.3-6.3,3.3-8.6,5.9,3.6,4.3,8.7,7.1,14.3,8,2.7,4.9,7,8.6,12.2,10.6,1.6,5.3,5,9.9,9.7,13,.4,5.5,2.8,10.8,6.7,14.7-.8,5.5.5,11.1,3.5,15.8-1.9,5.2-1.9,11,0,16.2-3,4.7-4.1,10.3-3.3,15.8-3.9,4-6.2,9.2-6.6,14.8-4.6,3.1-8,7.7-9.6,13-5.2,2-9.5,5.8-12.1,10.7-5.5.9-10.5,3.7-14.1,7.9-6.7-.3-13.3,2.2-18,7.1-3.3,3.3-5.1,6.4-6.1,9.4-.9,3-4,4.7-7,3.8-1.8-.5-3.2-2-3.8-3.8-.9-3-2.8-6.2-6.1-9.4-4.7-4.8-11.3-7.4-18-7.1-3.6-4.2-8.6-7.1-14-8-2.6-4.9-6.9-8.7-12.1-10.7-1.5-5.3-4.9-10-9.6-13-.4-5.5-2.7-10.8-6.6-14.8.8-5.5-.4-11.1-3.3-15.8,1.9-5.2,2-11,.1-16.2,3-4.7,4.2-10.3,3.5-15.8,3.9-3.9,6.3-9.2,6.7-14.7,4.7-3,8.1-7.6,9.7-13,5.2-2,9.5-5.8,12.2-10.6,5.6-.9,10.6-3.7,14.3-8-2.4-2.6-5.3-4.6-8.6-5.9.9-.4,1.7-.9,2.6-1.4,5.9-3.5,9.9-9.3,11.2-16-6.5-2-13.6-1.1-19.4,2.4-.9.5-1.7,1.1-2.5,1.7.4-3.5,0-7.1-1.2-10.4-6.6,1.5-12.3,5.8-15.6,11.8-.9,1.6-1.6,3.3-2.2,5.1-.6-1.6-1.3-3.2-2.2-4.6-6.2,2.9-10.8,8.3-12.7,14.8-.5,1.8-.9,3.6-1.1,5.4-.9-1.5-1.9-2.8-3.1-4.1-5.5,4.1-8.9,10.4-9.4,17.2-.2,1.8-.1,3.7.1,5.6-1.2-1.3-2.5-2.4-3.9-3.3-4.5,5.2-6.5,12-5.5,18.7.2,1.8.6,3.7,1.2,5.4-1.4-1-2.9-1.8-4.5-2.4-3.3,6-3.8,13.1-1.5,19.5.6,1.8,1.4,3.4,2.3,5-1.6-.7-3.3-1.1-4.9-1.4-1.9,6.5-1,13.6,2.7,19.3,1,1.6,2.1,3.1,3.4,4.4-1.7-.3-3.4-.4-5.1-.3-.5,6.8,1.9,13.5,6.7,18.3,1.3,1.3,2.7,2.6,4.2,3.6-1.7,0-3.4.3-5.1.7.9,6.8,4.7,12.8,10.4,16.5,1.5,1,3.2,1.9,4.9,2.7-1.7.4-3.3,1-4.8,1.8,2.3,6.4,7.3,11.5,13.7,14,1.7.7,3.5,1.2,5.3,1.6-1.5.8-3,1.7-4.3,2.8,3.6,5.8,9.6,9.7,16.3,10.8,1.8.3,3.7.5,5.5.4-1.3,1.1-2.6,2.3-3.6,3.6,4.8,4.9,11.4,7.5,18.2,7.1,1.9-.1,3.7-.3,5.5-.7-1.1,1.3-2,2.8-2.8,4.3,5.7,3.8,12.7,4.9,19.3,3.1,2.9-.7,5.6-1.9,8.1-3.6,6.8-4.7,15.8-4.7,22.7,0,2.5,1.6,5.2,2.9,8.1,3.6,6.6,1.8,13.6.7,19.3-3.1-.8-1.5-1.7-3-2.8-4.3,1.8.4,3.6.7,5.5.7,6.8.4,13.4-2.2,18.2-7.1-1.1-1.3-2.3-2.6-3.6-3.6,1.9,0,3.7-.1,5.5-.4,6.7-1.1,12.7-5,16.3-10.8-1.3-1.1-2.8-2-4.3-2.8,1.8-.4,3.6-.9,5.3-1.6,6.4-2.5,11.4-7.6,13.7-14-1.5-.8-3.1-1.4-4.8-1.8,1.7-.7,3.3-1.6,4.9-2.7,5.7-3.7,9.5-9.8,10.4-16.5-1.7-.4-3.4-.7-5.1-.7,1.5-1.1,2.9-2.3,4.2-3.6,4.1-4.8,6.6-11.4,6.1-18.2M448.6,167.2c4,1.5,7.5,4.3,9.8,7.9,2.9,4.6,3.9,8.6,3.2,12.2-3.6-.8-6.8-3.4-9.7-8-2.4-3.6-3.5-7.9-3.3-12.1M435.5,156.9c3.6,2.3,6.4,5.8,7.8,9.8,1.9,5.1,2,9.2.6,12.6-3.3-1.6-5.9-4.8-7.8-9.8-1.6-4-1.8-8.4-.6-12.6M424.7,144.2c3,3.1,5,7,5.6,11.3.8,5.4,0,9.4-2.1,12.4-2.9-2.2-4.8-5.9-5.6-11.3-.6-4.3.1-8.6,2.1-12.4M416.9,129.5c2.3,3.6,3.4,7.9,3.1,12.2-.4,5.4-2,9.2-4.7,11.7-2.4-2.8-3.5-6.8-3.1-12.2.3-4.3,1.9-8.4,4.7-11.7M402.3,105.5c2-3.8,5.2-6.9,9.1-8.7.6,4.3-.2,8.6-2.2,12.4-2.6,4.8-5.6,7.6-9.1,8.7-1-3.6-.4-7.6,2.2-12.4M398.4,98.5c-.2-3.7,1.3-7.5,4.8-11.7,2.8-3.3,6.5-5.6,10.7-6.6-.3,4.3-2,8.4-4.8,11.6-3.5,4.2-7.1,6.3-10.7,6.7M405.4,123.8c1.2-4.1,3.6-7.8,7-10.4,1.5,4,1.7,8.4.5,12.6-1.5,5.2-3.9,8.6-7,10.4-1.8-3.2-2-7.4-.5-12.6M412.6,75c-4.3,3.3-8.2,4.6-11.9,4.2.5-3.6,2.8-7.1,7.1-10.4,3.4-2.6,7.5-4.1,11.8-4.2-1.1,4.2-3.6,7.8-7,10.4M454.6,29.8c-3.4,2.6-7.6,4.1-11.9,4.1-5.4.1-9.4-1.2-12-3.7,2.6-2.6,6.5-4,11.9-4.1,4.2,0,8.5,1.2,12,3.7M448.3,12.2c3.7-2.2,8-3.2,12.2-2.8-1.6,4-4.5,7.3-8.2,9.5-4.7,2.8-8.7,3.7-12.3,2.8,1-3.5,3.7-6.7,8.3-9.5M430.5,13.8c2.1-3.8,5.3-6.8,9.2-8.6.6,4.3-.3,8.6-2.4,12.3-2.6,4.8-5.7,7.5-9.2,8.6-.9-3.5-.2-7.6,2.4-12.3M428,37.8c4.2-1,8.6-.6,12.5,1.1-2.8,3.3-6.6,5.6-10.7,6.5-5.3,1.2-9.4.8-12.5-1,1.9-3.1,5.4-5.3,10.7-6.6M413.7,28.2c1.2-4.1,3.7-7.7,7.2-10.3,1.5,4,1.6,8.5.3,12.6-1.6,5.2-4,8.6-7.2,10.3-1.7-3.2-1.9-7.3-.3-12.6M416.3,52.2c3.9-1.9,8.3-2.4,12.5-1.6-2,3.8-5.2,6.8-9.1,8.6-4.9,2.3-9,2.8-12.5,1.6,1.2-3.3,4.2-6.2,9.1-8.6M400.2,45.9c.3-4.3,2-8.4,4.8-11.6,2.3,3.7,3.3,7.9,2.9,12.2-.4,5.4-2.1,9.2-4.8,11.6-2.3-2.8-3.3-6.8-2.9-12.2M393.1,53.7c3,3.1,4.9,7.1,5.4,11.3.7,5.4-.1,9.4-2.3,12.4-2.9-2.3-4.7-6-5.4-11.3-.6-4.3.2-8.6,2.3-12.4M385.5,75.2c3.6,2.4,6.3,5.9,7.7,9.9,1.8,5.1,1.9,9.2.4,12.6-3.3-1.6-5.9-4.8-7.7-9.9-1.5-4.1-1.6-8.5-.4-12.6M382.5,97.7c4,1.6,7.4,4.4,9.6,8.1,2.9,4.6,3.8,8.6,3,12.2-3.5-.9-6.8-3.5-9.6-8.1-2.2-3.6-3.3-7.9-3-12.2M390,131.7c-3-3.1-4.9-7-5.5-11.3,4.2.7,8.1,2.8,11.1,5.9,3.8,3.9,5.5,7.6,5.5,11.3-3.7-.2-7.3-2-11.1-5.9M398.9,152c-3.6-2.4-6.3-5.8-7.8-9.9,4.3-.2,8.5,1,12.1,3.4,4.5,3,7,6.3,7.8,9.9-3.6.7-7.6-.3-12.1-3.4M411.9,170.1c-4-1.6-7.4-4.4-9.7-8,4.2-1.1,8.6-.8,12.5.8,5.1,2,8.2,4.7,9.7,8-3.4,1.3-7.5,1.2-12.5-.8M428.3,185c-4.2-.7-8.2-2.7-11.2-5.8,3.8-2,8.2-2.6,12.4-1.9,5.4.9,9,2.9,11.2,5.8-2.9,2.1-7,2.8-12.4,1.9M447.6,196c-4.3.2-8.5-.9-12.1-3.3,3.3-2.7,7.5-4.3,11.8-4.5,5.4-.3,9.4.9,12.1,3.3-2.5,2.7-6.4,4.3-11.8,4.5M468.8,202.8c-4.1,1.1-8.6.9-12.6-.7,2.7-3.4,6.4-5.8,10.6-6.8,5.3-1.4,9.4-1.1,12.6.7-2,3.1-5.4,5.4-10.6,6.8M469.4,185.6c-3.1-3-5.1-7-5.7-11.2,4.3.7,8.2,2.7,11.2,5.7,3.8,3.9,5.6,7.6,5.7,11.2-3.7-.1-7.4-1.9-11.2-5.7M595.9,97.7c.3,4.3-.7,8.6-3,12.2-2.9,4.6-6.1,7.2-9.6,8.1-.7-3.6,0-7.6,3-12.2,2.2-3.7,5.6-6.5,9.6-8.1M592.9,75.1c1.2,4.1,1.1,8.5-.4,12.6-1.8,5.1-4.4,8.3-7.7,9.9-1.5-3.3-1.5-7.5.4-12.6,1.5-4,4.2-7.5,7.7-9.9M579.9,65c.5-4.3,2.5-8.2,5.4-11.3,2.1,3.8,2.9,8.1,2.3,12.3-.7,5.4-2.6,9.1-5.4,11.3-2.2-2.8-3-6.9-2.3-12.3M569.3,109.2c-2.1-3.8-2.8-8.1-2.2-12.4,3.9,1.8,7.1,4.9,9.1,8.7,2.6,4.8,3.2,8.9,2.2,12.4-3.5-1.1-6.5-3.9-9.1-8.7M572.7,136.4c-3.2-1.8-5.5-5.2-7-10.4-1.2-4.1-1-8.5.5-12.6,3.4,2.6,5.9,6.3,7,10.4,1.4,5.3,1.2,9.4-.5,12.6M569.4,91.9c-2.8-3.3-4.5-7.4-4.8-11.6,4.2,1,7.9,3.3,10.7,6.6,3.5,4.1,5,8,4.8,11.7-3.6-.4-7.2-2.5-10.7-6.7M573.4,34.4c2.8,3.2,4.5,7.3,4.8,11.6.4,5.4-.6,9.4-2.9,12.2-2.7-2.4-4.4-6.2-4.8-11.6-.4-4.3.6-8.6,2.9-12.2M557.7,17.9c3.4,2.6,6,6.2,7.2,10.3,1.6,5.2,1.4,9.3-.3,12.6-3.2-1.8-5.6-5.1-7.2-10.3-1.3-4.2-1.2-8.6.3-12.6M538.8,5.2c3.9,1.8,7.1,4.8,9.2,8.6,2.6,4.8,3.3,8.8,2.4,12.4-3.5-1.1-6.6-3.8-9.2-8.6-2.1-3.8-3-8.2-2.4-12.4M526.1,18.9c-3.7-2.2-6.6-5.5-8.2-9.5,4.3-.4,8.6.6,12.2,2.8,4.7,2.8,7.3,6,8.2,9.5-3.5.9-7.5,0-12.2-2.8M535.8,33.9c-4.3-.1-8.5-1.5-11.9-4.1,3.5-2.5,7.7-3.8,12-3.7,5.4.1,9.3,1.5,11.9,4.1-2.6,2.6-6.6,3.8-12,3.7M537.9,38.9c3.9-1.7,8.3-2.1,12.5-1.1,5.3,1.3,8.8,3.5,10.8,6.5-3.1,1.9-7.3,2.3-12.5,1-4.2-.9-8-3.2-10.8-6.4M549.7,50.6c4.2-.8,8.6-.3,12.5,1.6,4.9,2.3,7.8,5.2,9.1,8.7-3.5,1.2-7.6.7-12.5-1.6-3.9-1.8-7.1-4.9-9.1-8.7M558.8,64.6c4.3.1,8.5,1.6,11.8,4.2,4.3,3.3,6.6,6.8,7.1,10.4-3.6.4-7.6-.9-11.9-4.2-3.4-2.6-5.9-6.3-7-10.4M561.6,129.5c2.8,3.3,4.4,7.4,4.7,11.7.4,5.4-.7,9.4-3.1,12.2-2.7-2.5-4.3-6.3-4.7-11.7-.3-4.3.7-8.6,3.1-12.2M548.2,155.5c.6-4.3,2.6-8.2,5.6-11.3,2,3.8,2.8,8.1,2.1,12.4-.8,5.4-2.7,9-5.6,11.3-2.2-3-2.9-7.1-2.1-12.4M535.2,166.8c1.5-4,4.2-7.5,7.8-9.8,1.2,4.1,1,8.5-.5,12.6-1.9,5.1-4.5,8.3-7.8,9.8-1.6-3.4-1.4-7.5.5-12.6M520.1,175.1c2.3-3.6,5.7-6.4,9.7-8,.3,4.3-.8,8.6-3.2,12.2-2.9,4.6-6.2,7.1-9.7,8-.7-3.6.3-7.7,3.2-12.2M503.6,180c3-3.1,6.9-5.1,11.2-5.7-.6,4.3-2.6,8.2-5.7,11.2-3.8,3.9-7.5,5.7-11.2,5.7.1-3.6,1.9-7.3,5.7-11.2M509.7,202.8c-5.3-1.4-8.7-3.7-10.6-6.8,3.2-1.8,7.3-2.1,12.6-.7,4.2,1.1,7.9,3.5,10.6,6.8-4,1.6-8.4,1.8-12.6.7M530.9,196c-5.4-.3-9.3-1.8-11.8-4.5,2.8-2.4,6.7-3.6,12.1-3.3,4.3.2,8.4,1.7,11.8,4.5-3.5,2.4-7.8,3.6-12.1,3.3M550.1,185c-5.4.9-9.4.2-12.4-1.9,2.2-2.9,5.8-4.9,11.2-5.8,4.2-.7,8.6-.1,12.4,1.9-3,3-6.9,5.1-11.2,5.8M566.6,170.1c-5.1,2-9.2,2.2-12.6.8,1.5-3.3,4.6-6,9.7-8,4-1.6,8.4-1.9,12.5-.8-2.2,3.6-5.6,6.4-9.6,8M587.4,142.2c-1.5,4-4.2,7.5-7.8,9.9-4.5,3-8.5,4.1-12.1,3.4.8-3.6,3.3-6.9,7.8-9.9,3.5-2.4,7.8-3.6,12.1-3.4M577.4,137.6c0-3.7,1.7-7.4,5.5-11.3,3-3.1,6.9-5.2,11.1-5.9-.6,4.3-2.5,8.2-5.5,11.3-3.8,3.9-7.5,5.8-11.1,5.9"/>
      <path class="cls-1" d="M427.7,112.2v2.8c3.5,6.8,7.5,13.4,11.9,19.7h-9.9s2,4.1,8,4.1h102.9c6.1,0,8-4.1,8-4.1h-9c4.6-6.8,8.7-13.8,12.4-21.1h4.9v-7.8h-26.8c-28.2-22.9-34.2-62-17.8-91.3-46.8,9.3-82,50.1-84.6,97.7M429.8,112.3c13.9-8.6,29.8-13.6,46.1-14.5v14.5h-46.1ZM527.9,109.1l-2.3,3.1h-43.2v-14.6c15.8.1,31.4,4.1,45.5,11.5M519,100.6c-28.3-11-60-9-86.6,5.5,5-40.5,33.6-74.1,72.7-85.6-11.2,27.1-5.7,58.3,13.9,80.1"/>
      <path class="cls-1" d="M484.7,172.9h9.1c6.1,0,8-4.1,8-4.1h-25.2s2,4.1,8.1,4.1"/>
      <path class="cls-1" d="M520.2,160.3h-61.9s2,4.1,8,4.1h45.8c6.1-.1,8.1-4.1,8.1-4.1"/>
      <path class="cls-1" d="M534.2,151.7h-89.9s2,4.1,8,4.1h73.8c6.1,0,8.1-4.1,8.1-4.1"/>
      <path class="cls-1" d="M542.7,143.2h-106.9s2,4.1,8,4.1h90.9c6.1-.1,8-4.1,8-4.1"/>
    </g>
  </g>
</svg>