<?xml version="1.0" encoding="UTF-8"?>
<svg id="Layer_1" data-name="Layer 1" xmlns="http://www.w3.org/2000/svg" viewBox="0 0 880.66 324.43">
  <defs>
    <style>
      .cls-1 {
        fill: #2d2a26;
      }

      .cls-2 {
        fill: #00833e;
      }

      .cls-3 {
        fill: #ce0e2d;
      }
    </style>
  </defs>
  <g>
    <path class="cls-1" d="M244.27,196.35v-43.84h31.02v8.22h-21.69v9.27h16.05l-4.74,8.22h-11.31v9.92h21.69v8.22h-31.02Z"/>
    <path class="cls-1" d="M94.21,196.35h-9.33v-43.84h20.51c9.14,0,14.72,5.98,14.72,14.13s-4.86,11.9-9.6,13.01l9.86,16.7h-10.71l-8.61-15.58-4.57-8.22h7.53c3.75,0,6.57-2.24,6.57-5.92s-2.83-5.92-6.57-5.92h-9.79v35.62Z"/>
    <path class="cls-1" d="M141.15,196.35l-16.96-43.84h10.65l12.16,33.72,12.09-33.72h10.65l-16.89,43.84h-11.7Z"/>
    <path class="cls-1" d="M194.62,174.46c0-13.47,10.19-22.68,23.33-22.68,9.66,0,15.25,5.26,18.34,10.71l-8.02,3.94c-1.84-3.55-5.78-6.38-10.32-6.38-7.95,0-13.74,6.11-13.74,14.39s5.78,14.39,13.74,14.39c4.54,0,8.48-2.76,10.32-6.38l8.02,3.88c-3.15,5.45-8.68,10.78-18.34,10.78-13.15,0-23.33-9.2-23.33-22.68Z"/>
    <rect class="cls-1" x="177.31" y="152.51" width="9.33" height="43.84"/>
    <path class="cls-1" d="M44.17,196.35v-43.84h31.02v8.22h-21.69v9.27h16.05l-4.74,8.22h-11.31v9.92h21.69v8.22h-31.02Z"/>
    <path class="cls-1" d="M10.3,164.41c0-2.62,2.23-4.4,6.24-4.4,4.48,0,9.47,1.06,13.02,4.35l4.11-7.11c-4.24-3.55-9.73-5.39-16.26-5.39-10.32,0-16.63,6.04-16.63,13.34,0,16.49,25.24,11.17,25.24,18.92,0,2.51-2.51,4.87-7.62,4.87-6.06,0-11.2-2.1-14.28-5.32l-4.11,7.11c4.06,3.81,9.93,6.35,17.92,6.35,11.84,0,17.56-6.06,17.56-14.07,0-16.36-25.18-11.7-25.18-18.67Z"/>
    <path class="cls-1" d="M293,164.41c0-2.62,2.23-4.4,6.24-4.4,4.48,0,9.47,1.06,13.02,4.35l4.11-7.11c-4.24-3.55-9.73-5.39-16.26-5.39-10.32,0-16.63,6.04-16.63,13.34,0,16.49,25.24,11.17,25.24,18.92,0,2.51-2.51,4.87-7.62,4.87-6.06,0-11.2-2.1-14.28-5.32l-4.11,7.11c4.06,3.81,9.93,6.35,17.92,6.35,11.84,0,17.56-6.06,17.56-14.07,0-16.36-25.18-11.7-25.18-18.67Z"/>
  </g>
  <g>
    <path class="cls-1" d="M857.52,161.91c-9.69,0-15.29,5.27-18.39,10.74l8.04,3.94c1.84-3.55,5.8-6.39,10.35-6.39,7.97,0,13.79,6.14,13.79,14.44v3.58h-54.31v-8.46c0-9.22-7.48-16.7-16.7-16.7h-6.46l-4.75,8.24h8.84c5.37,0,9.72,4.35,9.72,9.72v7.21h-24.79v8.24h97.8v-11.82c0-13.51-9.97-22.73-23.14-22.73Z"/>
    <path class="cls-1" d="M653.87,188.22h-73.17c-5.2,0-8.17-3.49-8.17-8.43v-16.73h-9.36v16.73c0,9.03,6.32,16.67,16.87,16.67h83.19v-33.4h-9.36v25.17Z"/>
    <rect class="cls-1" x="615.54" y="152.51" width="9.36" height="9.36"/>
    <rect class="cls-1" x="601.51" y="152.51" width="9.36" height="9.36"/>
    <path class="cls-1" d="M751.17,163.03c-8.92,0-16.2,7.02-16.67,15.82l-.02-.05h0c0,5.2-4.28,9.42-9.22,9.42h-32.8v-35.71h-9.36v43.94h43.71c4.82,0,9.24-1.82,12.31-5.11l-.02-.05c3.04,3.18,7.32,5.16,12.06,5.16,9.26,0,16.71-7.46,16.71-16.71s-7.46-16.71-16.71-16.71ZM751.17,188.21c-4.67,0-8.47-3.78-8.47-8.47s3.8-8.47,8.47-8.47,8.47,3.8,8.47,8.47-3.78,8.47-8.47,8.47Z"/>
    <rect class="cls-1" x="855.18" y="147.83" width="9.36" height="9.36"/>
  </g>
  <g>
    <polygon class="cls-2" points="540.88 0 540.08 5.05 403.81 141.35 399.57 141.35 540.88 0"/>
    <polygon class="cls-2" points="538.41 15.54 469.2 84.79 469.2 89.04 537.62 20.58 538.41 15.54"/>
    <polygon class="cls-2" points="535.95 31.07 469.2 97.87 469.2 102.11 535.16 36.11 535.95 31.07"/>
    <polygon class="cls-2" points="533.49 46.6 469.2 110.95 469.2 115.19 532.7 51.65 533.49 46.6"/>
    <polygon class="cls-2" points="531.03 62.13 469.2 124.02 469.2 128.27 530.24 67.18 531.03 62.13"/>
    <polygon class="cls-2" points="528.57 77.67 469.2 137.1 469.2 141.35 527.78 82.71 528.57 77.67"/>
    <polygon class="cls-2" points="526.11 93.2 469.2 150.18 469.2 154.42 525.32 98.25 526.11 93.2"/>
    <polygon class="cls-2" points="523.65 108.73 469.2 163.26 469.2 167.5 522.86 113.78 523.65 108.73"/>
    <polygon class="cls-2" points="521.19 124.26 469.2 176.33 469.2 180.58 520.4 129.31 521.19 124.26"/>
    <polygon class="cls-2" points="518.73 139.8 469.2 189.41 469.2 193.66 517.94 144.84 518.73 139.8"/>
    <polygon class="cls-1" points="516.27 155.33 469.2 202.49 469.2 206.73 515.48 160.38 516.27 155.33"/>
    <polygon class="cls-1" points="513.81 170.86 469.2 215.56 469.2 219.81 513.02 175.91 513.81 170.86"/>
    <polygon class="cls-1" points="511.35 186.4 469.2 228.64 469.2 232.89 510.56 191.45 511.35 186.4"/>
    <polygon class="cls-1" points="508.89 201.93 469.2 241.72 469.2 245.96 508.09 206.98 508.89 201.93"/>
    <polygon class="cls-1" points="506.43 217.46 469.2 254.79 469.2 259.04 505.63 222.52 506.43 217.46"/>
    <polygon class="cls-1" points="503.97 233 469.2 267.87 469.2 272.12 503.17 238.05 503.97 233"/>
    <polygon class="cls-1" points="501.51 248.53 469.2 280.95 469.2 285.2 500.71 253.58 501.51 248.53"/>
    <polygon class="cls-1" points="499.05 264.07 469.2 294.02 469.2 298.27 498.25 269.12 499.05 264.07"/>
    <polygon class="cls-1" points="496.59 279.6 469.2 307.1 469.2 311.35 495.79 284.66 496.59 279.6"/>
    <polygon class="cls-1" points="494.13 295.14 469.2 320.18 469.2 324.43 493.33 300.19 494.13 295.14"/>
  </g>
  <g>
    <polygon class="cls-3" points="388.61 152.51 362.78 178.34 364.21 181.15 392.85 152.51 388.61 152.51"/>
    <polygon class="cls-3" points="394.65 152.51 370.22 192.95 371.8 196.07 398.19 152.51 394.65 152.51"/>
    <polygon class="cls-3" points="399.98 152.51 377.81 207.86 379.59 211.35 403.24 152.51 399.98 152.51"/>
    <polygon class="cls-3" points="405.03 152.51 385.55 223.05 387.53 226.94 408.16 152.51 405.03 152.51"/>
    <polygon class="cls-3" points="409.96 152.51 393.42 238.48 395.59 242.75 413.02 152.51 409.96 152.51"/>
    <polygon class="cls-3" points="414.82 152.51 401.39 254.12 403.75 258.77 417.85 152.51 414.82 152.51"/>
    <polygon class="cls-3" points="419.65 152.51 409.45 269.95 411.99 274.94 422.67 152.51 419.65 152.51"/>
    <polygon class="cls-3" points="424.47 152.51 417.59 285.94 420.3 291.25 427.48 152.51 424.47 152.51"/>
    <polygon class="cls-3" points="429.3 152.51 425.81 302.07 428.67 307.68 432.3 152.51 429.3 152.51"/>
    <polygon class="cls-3" points="434.09 152.51 434.09 318.32 437.09 324.21 437.09 152.51 434.09 152.51"/>
  </g>
</svg>