<?xml version="1.0" encoding="UTF-8"?>
<svg id="Layer_1" data-name="Layer 1" xmlns="http://www.w3.org/2000/svg" viewBox="0 0 423.37 132.27">
  <defs>
    <style>
      .cls-1 {
        fill: #f37422;
      }

      .cls-2 {
        fill: #45a2da;
      }

      .cls-3 {
        fill: #2c3190;
      }
    </style>
  </defs>
  <g>
    <path class="cls-3" d="M24.63,116.85H6.41v-4.84h4.38c-1.39-1.32-2.09-2.92-2.09-4.81,0-2.36.78-4.29,2.35-5.78,1.57-1.5,3.59-2.25,6.06-2.25s4.67.85,6.44,2.55l-2.62,3.78c-1.13-.99-2.32-1.49-3.57-1.49-1.13,0-2.08.37-2.85,1.1-.77.73-1.15,1.65-1.15,2.76s.39,2.08,1.17,2.9c.78.83,1.72,1.24,2.83,1.24h7.25v4.84Z"/>
    <path class="cls-3" d="M36.44,116.85h-.88c-2.08,0-3.76-.7-5.06-2.1-1.3-1.4-1.94-3.2-1.94-5.39v-20.09h4.84v20.09c0,.83.19,1.47.57,1.95s.91.71,1.59.71h.88v4.84Z"/>
    <path class="cls-3" d="M44.61,116.85h-.99v-4.84h.99c.71,0,1.24-.24,1.61-.71.37-.47.55-1.12.55-1.95v-10.18h4.88v10.18c0,2.19-.65,3.99-1.95,5.39-1.3,1.4-2.99,2.1-5.09,2.1ZM51.11,123.64c-.54.54-1.19.81-1.95.81s-1.4-.27-1.93-.81c-.53-.54-.8-1.19-.8-1.95s.26-1.4.8-1.95c.53-.54,1.17-.81,1.93-.81s1.4.27,1.95.81c.54.54.81,1.19.81,1.95s-.27,1.4-.81,1.95Z"/>
    <path class="cls-3" d="M56.13,125.09c-1.01,0-1.94-.14-2.79-.42l1.34-4.56c.38.14.83.21,1.34.21,2.19,0,3.29-1.27,3.29-3.82v-17.33l4.85-.04v12.87h3.18v4.84h-3.18v.74c0,2.22-.66,4.02-1.98,5.41-1.32,1.39-3.34,2.09-6.05,2.09Z"/>
    <path class="cls-3" d="M80.78,116.85h-14.15v-4.84h14.15v4.84Z"/>
    <path class="cls-3" d="M43.85,116.85h-7.81v-4.84h7.81v4.84Z"/>
    <path class="cls-3" d="M83.26,116.85h-3.18v-4.84h3.18v4.84Z"/>
    <path class="cls-3" d="M93.87,125.77c-2.36,0-4.3-.8-5.82-2.41s-2.36-3.77-2.53-6.51h-2.97v-4.84h2.94v-12.91h7.92c2.45,0,4.54.86,6.28,2.58s2.6,3.81,2.6,6.26v4.07h12.26v4.84h-12.3c-.09,2.76-.91,4.93-2.46,6.52-1.54,1.59-3.52,2.39-5.92,2.39ZM90.33,103.95v8.06h2.83c1.25,0,2.27-.38,3.06-1.13.79-.75,1.18-1.73,1.18-2.94,0-1.11-.39-2.05-1.17-2.83s-1.72-1.17-2.83-1.17h-3.08ZM93.87,121.13c1.01,0,1.86-.37,2.53-1.11.67-.74,1.01-1.74,1.01-2.99v-2.26c-1.08,1.39-2.81,2.09-5.16,2.09h-1.87c.05,1.37.38,2.42.99,3.17.61.74,1.45,1.11,2.51,1.11Z"/>
    <path class="cls-3" d="M144.03,116.85h-44.67l5.12-4.84h26.62l-.04-1.59c-.02-2-.63-3.57-1.82-4.7-1.19-1.13-2.81-1.7-4.86-1.7h-13.07v-4.84l11.03-9.9h6.44l-11.28,9.9h7.13c3.21,0,5.89,1.03,8.04,3.09,2.16,2.06,3.25,4.7,3.27,7.9v1.84h7.81l.28,4.84Z"/>
    <path class="cls-3" d="M144.03,116.85h-.99v-4.84h.99c.71,0,1.24-.24,1.61-.71.37-.47.55-1.12.55-1.95v-20.09h4.88v20.09c0,2.19-.65,3.99-1.95,5.39-1.3,1.4-2.99,2.1-5.09,2.1Z"/>
    <path class="cls-3" d="M161.01,116.85h-4.84v-27.58h4.84v27.58Z"/>
    <path class="cls-3" d="M173.77,125.09c-1.46,0-2.89-.32-4.3-.96s-2.52-1.51-3.34-2.62l3.4-3.18c.47.57,1.09,1.02,1.86,1.36.77.34,1.54.51,2.32.51,1.18,0,2.14-.33,2.88-.99.74-.66,1.14-1.45,1.18-2.37h-3.71c-2.59,0-4.76-.85-6.51-2.56-1.75-1.71-2.62-3.83-2.62-6.35s.86-4.54,2.58-6.26,3.81-2.58,6.26-2.58c2.62,0,4.75.89,6.4,2.67,1.65,1.78,2.48,4.07,2.48,6.88v7.21c0,2.66-.8,4.87-2.41,6.61-1.6,1.74-3.76,2.62-6.47,2.62ZM174.06,112.01h3.71v-3.78c0-1.25-.37-2.27-1.11-3.08-.74-.8-1.7-1.2-2.88-1.2-1.11,0-2.05.39-2.83,1.17-.78.78-1.17,1.72-1.17,2.83,0,1.2.4,2.18,1.2,2.94.8.75,1.83,1.13,3.08,1.13Z"/>
    <path class="cls-3" d="M213.59,116.85h-18.21v-4.84h4.38c-1.39-1.32-2.09-2.92-2.09-4.81,0-2.36.78-4.29,2.35-5.78,1.57-1.5,3.59-2.25,6.06-2.25s4.67.85,6.44,2.55l-2.62,3.78c-1.13-.99-2.32-1.49-3.57-1.49-1.13,0-2.08.37-2.85,1.1-.77.73-1.15,1.65-1.15,2.76s.39,2.08,1.17,2.9c.78.83,1.72,1.24,2.83,1.24h7.25v4.84Z"/>
    <path class="cls-3" d="M225.4,116.85h-.88c-2.08,0-3.76-.7-5.06-2.1-1.3-1.4-1.94-3.2-1.94-5.39v-20.09h4.84v20.09c0,.83.19,1.47.57,1.95s.91.71,1.59.71h.88v4.84Z"/>
    <path class="cls-3" d="M238.84,116.85h-14.15v-4.84h14.15v4.84Z"/>
    <path class="cls-3" d="M248.34,116.85h-10.21v-4.84h10.21v4.84Z"/>
    <path class="cls-3" d="M258.67,116.85h-11.03v-4.84h3.96c-1.18-1.01-1.77-2.33-1.77-3.96,0-2.45.87-4.54,2.6-6.28s3.81-2.6,6.24-2.6,4.51.87,6.24,2.6c1.73,1.73,2.6,3.83,2.6,6.28v1.91c0,.61.17,1.11.5,1.48.33.38.78.57,1.34.57h1.03v4.84h-1.03c-2.24,0-3.74-.93-4.49-2.79-1.63,1.86-3.69,2.79-6.19,2.79ZM258.67,112.01c1.08,0,2.02-.39,2.79-1.18s1.17-1.73,1.17-2.81-.39-2.02-1.17-2.81-1.71-1.18-2.79-1.18-2.05.39-2.83,1.17-1.17,1.72-1.17,2.83.39,2.05,1.17,2.83c.78.78,1.72,1.17,2.83,1.17Z"/>
    <path class="cls-3" d="M270.8,116.85h-1.13v-4.84h1.13c.68,0,1.21-.24,1.59-.71s.57-1.12.57-1.95v-20.09h4.84v20.09c0,.83.19,1.47.57,1.95s.91.71,1.59.71h1.1v4.84h-1.1c-1.96,0-3.49-.72-4.6-2.16-1.06,1.44-2.58,2.16-4.56,2.16Z"/>
    <path class="cls-3" d="M281.34,116.85h-.99v-4.84h.99c.71,0,1.24-.24,1.61-.71.37-.47.55-1.12.55-1.95v-20.09h4.88v20.09c0,2.19-.65,3.99-1.95,5.39-1.3,1.4-2.99,2.1-5.09,2.1Z"/>
    <path class="cls-3" d="M315.24,116.85h-15.38v-4.84h10.5v-3.61c0-1.3-.37-2.35-1.1-3.17-.73-.81-1.69-1.22-2.86-1.22-.99,0-1.95.28-2.87.85l-1.91-4.28c1.44-.94,3.03-1.41,4.77-1.41,2.52,0,4.63.88,6.31,2.63,1.68,1.76,2.53,3.96,2.53,6.6v8.45Z"/>
    <path class="cls-3" d="M326.91,116.85h-.88c-2.08,0-3.76-.7-5.06-2.1-1.3-1.4-1.94-3.2-1.94-5.39v-20.09h4.84v20.09c0,.83.19,1.47.57,1.95s.91.71,1.59.71h.88v4.84Z"/>
    <path class="cls-3" d="M340.35,116.85h-14.15v-4.84h14.15v4.84Z"/>
    <path class="cls-3" d="M348.6,116.85h-8.96v-4.84h8.96v4.84Z"/>
    <path class="cls-3" d="M372.33,116.85h-24.44v-4.84h16.9v-1.59c-.02-2-.63-3.57-1.82-4.7-1.19-1.13-2.81-1.7-4.86-1.7h-7.57v-4.84h7.82c3.21,0,5.88,1.03,8.03,3.09,2.15,2.06,3.23,4.7,3.25,7.9l.04,1.84h2.62l.04,4.84Z"/>
    <path class="cls-3" d="M374.17,116.85h-2.55v-4.84h2.55c.71,0,1.25-.24,1.63-.73.38-.48.57-1.12.57-1.93v-10.18h4.88v10.18c0,2.19-.66,3.99-1.98,5.39-1.32,1.4-3.02,2.1-5.09,2.1ZM377.38,96.84c-.52.52-1.14.78-1.88.78s-1.36-.26-1.87-.78-.78-1.14-.78-1.88.26-1.36.78-1.87,1.14-.78,1.87-.78,1.36.26,1.88.78c.52.52.78,1.14.78,1.87s-.26,1.36-.78,1.88ZM383.93,96.84c-.52.52-1.14.78-1.87.78s-1.35-.26-1.86-.78-.76-1.14-.76-1.88.25-1.36.76-1.87,1.13-.78,1.86-.78,1.36.26,1.87.78.78,1.14.78,1.87-.26,1.36-.78,1.88Z"/>
    <path class="cls-3" d="M396.06,116.85h-10.61v-4.84h10.61c.73,0,1.3-.24,1.7-.73.4-.48.6-1.12.6-1.93v-20.09h4.84v20.09c0,2.19-.67,3.99-2,5.39-1.33,1.4-3.05,2.1-5.15,2.1ZM392.24,108.01h-4.84v-16.97h4.84v16.97Z"/>
    <path class="cls-3" d="M413.14,116.85h-4.84v-27.58h4.84v27.58Z"/>
  </g>
  <g>
    <g>
      <path class="cls-3" d="M47.52,73.12H8.91V12.61h38.61v10.43h-27.36v14.88h23.7v10.43h-23.7v14.33h27.36v10.43Z"/>
      <path class="cls-3" d="M98.28,73.12h-10.98V27.76h10.98v45.36Z"/>
      <path class="cls-3" d="M117.51,73.12h-10.98V12.61h10.98v18.23c3.38-3.08,7.26-4.63,11.67-4.63,3.2,0,6.27.92,9.22,2.77,2.95,1.85,5.08,4.13,6.38,6.85s1.95,6.62,1.95,11.7v25.58h-10.98v-23.19c0-9.21-3.05-13.82-9.16-13.82s-9.07,4.64-9.07,13.91v23.1Z"/>
      <path class="cls-3" d="M192.09,27.76h9.98v45.36h-9.98v-5.53c-1.69,2-4.07,3.67-7.12,5.04s-5.97,2.04-8.75,2.04c-6.35,0-11.61-2.33-15.79-6.99-4.17-4.66-6.26-10.49-6.26-17.51s2.16-12.46,6.49-17.06c4.32-4.59,9.72-6.89,16.19-6.89,2.84,0,5.67.68,8.48,2.04,2.81,1.36,5.06,3.1,6.76,5.22v-5.71ZM178.52,64.78c3.86,0,7.04-1.37,9.54-4.11,2.5-2.74,3.75-6.21,3.75-10.41s-1.25-7.45-3.75-10.13c-2.5-2.68-5.68-4.02-9.54-4.02s-6.98,1.4-9.54,4.2c-2.56,2.8-3.84,6.27-3.84,10.41s1.3,7.29,3.89,10c2.59,2.71,5.76,4.06,9.49,4.06Z"/>
      <path class="cls-3" d="M246.61,12.61h10.98v60.51h-10.16v-5.53c-1.75,2.12-4.03,3.83-6.86,5.13-2.83,1.3-5.69,1.95-8.58,1.95-6.02,0-11.22-2.39-15.62-7.17-4.39-4.78-6.59-10.43-6.59-16.96s2.23-12.37,6.7-17.15c4.46-4.78,9.8-7.17,16.02-7.17,5.55,0,10.25,1.88,14.12,5.62V12.61ZM234.04,36.11c-3.56,0-6.66,1.42-9.31,4.25-2.65,2.83-3.98,6.1-3.98,9.81,0,4.08,1.3,7.53,3.89,10.36s5.76,4.25,9.49,4.25,6.81-1.4,9.4-4.2c2.59-2.8,3.89-6.18,3.89-10.13s-1.31-7.33-3.93-10.13c-2.62-2.8-5.77-4.2-9.45-4.2Z"/>
      <path class="cls-3" d="M75.23,63.26c-4.43,0-7.51-1.18-9.17-3.51-.17-.23-.53-.86-1.02-2.42-.47-1.5-.57-2.25-.57-2.63v-16.95h16.32v-9.99h-16.32v-15.15h-10.44v44.35c0,3.52,1.06,6.75,3.15,9.6,2.1,2.87,4.88,4.8,8.23,5.73,1.45.43,3.2.73,5.26.89.69.03,1.49.04,2.39.04s1.88-.01,2.95-.04c2.89-.05,4.49-.08,4.79-.08h1.5v-9.84h-7.06Z"/>
      <circle class="cls-3" cx="92.79" cy="19.35" r="6.28"/>
    </g>
    <g>
      <path class="cls-2" d="M282.53,73.12c-9.12,0-16.54-7.42-16.54-16.54V14.72c0-2.7,2.19-4.88,4.88-4.88s4.88,2.19,4.88,4.88v41.85c0,3.74,3.04,6.78,6.78,6.78s6.78-3.04,6.78-6.78v-30.19c0-2.7,2.19-4.88,4.88-4.88s4.88,2.19,4.88,4.88v30.19c0,9.12-7.42,16.54-16.54,16.54Z"/>
      <path class="cls-2" d="M317.52,61.46c-2.7,0-4.88-2.19-4.88-4.88v-30.19c0-3.74-3.04-6.78-6.78-6.78s-6.78,3.04-6.78,6.78v30.19c0,2.7-2.19,4.88-4.88,4.88s-4.88-2.19-4.88-4.88v-30.19c0-9.12,7.42-16.54,16.54-16.54s16.54,7.42,16.54,16.54v30.19c0,2.7-2.19,4.88-4.88,4.88Z"/>
      <path class="cls-2" d="M329.18,73.12c-9.12,0-16.54-7.42-16.54-16.54v-30.19c0-2.7,2.19-4.88,4.88-4.88s4.88,2.19,4.88,4.88v30.19c0,3.74,3.04,6.78,6.78,6.78s6.78-3.04,6.78-6.78V14.72c0-2.7,2.19-4.88,4.88-4.88s4.88,2.19,4.88,4.88v41.85c0,9.12-7.42,16.54-16.54,16.54Z"/>
    </g>
    <path class="cls-1" d="M384.82,72.15c-16.91,0-30.67-13.76-30.67-30.67s13.76-30.67,30.67-30.67,30.67,13.76,30.67,30.67v4.88h-30.67v-9.76h20.33c-2.2-9.18-10.49-16.03-20.33-16.03-11.53,0-20.91,9.38-20.91,20.91s9.38,20.91,20.91,20.91v9.76Z"/>
  </g>
</svg>