<?xml version="1.0" encoding="UTF-8"?>
<svg id="Layer_1" data-name="Layer 1" xmlns="http://www.w3.org/2000/svg" viewBox="0 0 410.27 105.39">
  <defs>
    <style>
      .cls-1 {
        fill: #1b3665;
      }
    </style>
  </defs>
  <path class="cls-1" d="M73.6,22.01c.39-.04.53.49.17.64-4.73,1.94-14.2,7.86-14.83,25.04-.02.43-.02,41.27-.02,41.33h-8.36v-42.3c0-13.82,11.72-23.48,23.04-24.71Z"/>
  <path class="cls-1" d="M35.71,22.01c-.39-.04-.53.49-.17.64,4.73,1.94,14.2,7.86,14.83,25.04.02.43.02,41.27.02,41.33h8.36v-42.3c0-13.82-11.72-23.48-23.04-24.71Z"/>
  <path class="cls-1" d="M23.04,22.01c.39-.04.53.49.17.64-4.73,1.94-14.2,7.86-14.83,25.04-.02.43-.02,36.31-.02,36.31v5.02H0v-42.3c0-13.82,11.72-23.48,23.04-24.71Z"/>
  <path class="cls-1" d="M48.04,0c.39-.04.53.49.17.64-4.73,1.94-14.2,7.87-14.83,25.04-.02.43-.02,61.29-.02,61.29v2.04h-8.36V24.72C25,10.89,36.72,1.24,48.04,0Z"/>
  <path class="cls-1" d="M61.26,0c-.39-.04-.53.49-.17.64,4.73,1.94,14.2,7.87,14.83,25.04.02.43.02,61.29.02,61.29v2.04h8.36V24.72C84.3,10.89,72.58,1.24,61.26,0Z"/>
  <path class="cls-1" d="M86.22,22.01c-.39-.04-.53.49-.17.64,4.73,1.94,14.2,7.86,14.83,25.04.02.43.02,41.27.02,41.33h8.36v-42.3c0-13.82-11.72-23.48-23.04-24.71Z"/>
  <path class="cls-1" d="M109.26,97.21H0v8.18h109.25v-8.18Z"/>
  <path class="cls-1" d="M268.11,19.53v23.54h-10.81v-6.53c0-6.82-5.07-11.77-12.07-11.77l-16.07-.03v-2.63h-5.31v20.96h-11.01v-6.3c.06-3.38-1.12-6.44-3.33-8.64-2.2-2.19-5.29-3.39-8.72-3.39h-13.4v5.2h13.4c4.97,0,6.73,3.54,6.73,6.57l.1,6.57h-12.85s-.21,0-.21,0h-18.17v-18.37h-5.31v18.37h-3.72l-.22.03h-7.45v-20.99h-5.31v2.62h-6.36c-6.99,0-12.05,4.95-12.05,11.76,0,7.15,5.19,11.76,13.23,11.76h123.34l.21-.03h.67v-28.69h-5.31ZM154.37,43.11h-5.02c-2.39-.05-7.96-.79-7.96-6.62,0-4.53,3.32-6.56,6.63-6.56h6.36v13.17h0ZM251.98,43.08h-22.83v-13.15l16.07.03c4.98,0,6.75,3.55,6.75,6.59v6.53Z"/>
  <path class="cls-1" d="M286.04,19.54h-5.31v28.68h5.31v-28.68Z"/>
  <path class="cls-1" d="M410.27,37.01v11.3h-23.78v-5.38h18.27v-6.43c0-2.96-1.72-6.41-6.58-6.41h-8.32v-5.38h8.32c3.47,0,6.6,1.23,8.81,3.47,2.24,2.26,3.4,5.4,3.27,8.84"/>
  <path class="cls-1" d="M378.15,24.71v23.59h-21.48v-18.28h-3.67c-3.08,0-6.68,1.7-6.68,6.5v11.78h-31.46c-7.14,0-12.12-4.86-12.12-11.83v-11.76h5.43v11.76c0,6.05,5.12,6.53,6.69,6.53h26.03v-6.48c0-6.83,5.1-11.8,12.11-11.8h9.1v18.28h10.62v-18.28h5.43Z"/>
  <path class="cls-1" d="M378.15,53.83c0,1.38-1.14,2.49-2.55,2.49s-2.55-1.11-2.55-2.49,1.14-2.49,2.55-2.49,2.55,1.11,2.55,2.49Z"/>
  <path class="cls-1" d="M335.38,53.83c0,1.38-1.14,2.49-2.55,2.49s-2.55-1.11-2.55-2.49,1.14-2.49,2.55-2.49,2.55,1.11,2.55,2.49Z"/>
  <path class="cls-1" d="M328.64,53.83c0,1.38-1.14,2.49-2.55,2.49s-2.55-1.11-2.55-2.49,1.14-2.49,2.55-2.49,2.55,1.11,2.55,2.49Z"/>
  <path class="cls-1" d="M179.64,53.83c0,1.38-1.14,2.49-2.55,2.49s-2.55-1.11-2.55-2.49,1.14-2.49,2.55-2.49,2.55,1.11,2.55,2.49Z"/>
  <path class="cls-1" d="M172.91,53.83c0,1.38-1.14,2.49-2.55,2.49s-2.55-1.11-2.55-2.49,1.14-2.49,2.55-2.49,2.55,1.11,2.55,2.49Z"/>
  <path class="cls-1" d="M154.9,17.52c0,1.38-1.14,2.49-2.55,2.49s-2.55-1.11-2.55-2.49,1.14-2.49,2.55-2.49,2.55,1.11,2.55,2.49Z"/>
  <path class="cls-1" d="M148.17,17.52c0,1.38-1.14,2.49-2.55,2.49s-2.55-1.11-2.55-2.49,1.14-2.49,2.55-2.49,2.55,1.11,2.55,2.49Z"/>
  <path class="cls-1" d="M157.64,66.04c-2.58-2.64-5.85-3.98-9.74-3.98h-11.24v27.53h11.24c3.89,0,7.16-1.35,9.74-4,2.57-2.65,3.88-5.93,3.88-9.76s-1.3-7.15-3.88-9.79ZM154.05,82.21c-1.58,1.66-3.65,2.5-6.16,2.5h-6v-17.77h6c2.5,0,4.58.83,6.16,2.49,1.59,1.66,2.38,3.81,2.38,6.41s-.79,4.7-2.38,6.38Z"/>
  <path class="cls-1" d="M182.32,80.09c0,1.54-.47,2.78-1.39,3.68-.92.9-2.34,1.36-4.22,1.36s-3.3-.46-4.22-1.36c-.92-.9-1.39-2.14-1.39-3.68v-18.03h-5.23v18.3c0,2.95,1.03,5.34,3.04,7.1,2.01,1.75,4.63,2.64,7.79,2.64s5.78-.89,7.79-2.64c2.02-1.76,3.05-4.15,3.05-7.1v-18.3h-5.23v18.03h0Z"/>
  <path class="cls-1" d="M213.31,77.69c-.63-.98-1.49-1.79-2.54-2.4,1.69-1.37,2.55-3.19,2.55-5.44s-.83-4.08-2.47-5.56c-1.63-1.47-3.65-2.22-6-2.22h-11.36v27.53h12.23c2.4,0,4.47-.77,6.14-2.28,1.68-1.52,2.53-3.45,2.53-5.73,0-1.47-.36-2.77-1.08-3.9M198.72,66.87h6.13c.92,0,1.68.3,2.3.92.63.62.93,1.37.93,2.28s-.3,1.67-.93,2.28c-.62.62-1.37.92-2.3.92h-6.13v-6.41h0ZM208.16,83.8c-.66.67-1.46.99-2.44.99h-7v-6.87h7c.97,0,1.77.33,2.44.99.66.67.99,1.48.99,2.44s-.33,1.76-.99,2.44"/>
  <path class="cls-1" d="M232.59,62.07h-5.94l-10.31,27.53h5.66l1.94-5.41h11.32l1.96,5.41h5.63l-10.28-27.53ZM225.7,79.38l3.93-10.82,3.91,10.82h-7.84Z"/>
  <path class="cls-1" d="M251.64,62.07h-5.23v27.53h5.23v-27.53Z"/>
  <path class="cls-1" d="M284.62,73.09h-11.65v-11.02h-5.23v27.53h5.23v-11.63h11.65v11.63h5.23v-27.53h-5.23v11.02Z"/>
  <path class="cls-1" d="M301.34,78.12h11.53v-4.84h-11.53v-6.33h12.52v-4.88h-17.75v27.53h17.94v-4.88h-12.71v-6.6Z"/>
  <path class="cls-1" d="M332.86,62.07h-5.95l-10.31,27.53h5.67l1.94-5.41h11.32l1.95,5.41h5.63l-10.27-27.53ZM325.97,79.38l3.93-10.82,3.91,10.82h-7.85Z"/>
  <path class="cls-1" d="M351.91,62.07h-5.23v27.53h16.52v-4.88h-11.29v-22.65Z"/>
  <path class="cls-1" d="M362.34,66.95h7.85v22.65h5.23v-22.65h7.81v-4.88h-20.88v4.88Z"/>
  <path class="cls-1" d="M404.19,62.07v11.02h-11.65v-11.02h-5.23v27.53h5.23v-11.63h11.65v11.63h5.23v-27.53h-5.23Z"/>
</svg>