<?xml version="1.0" encoding="UTF-8"?>
<svg id="Layer_1" data-name="Layer 1" xmlns="http://www.w3.org/2000/svg" viewBox="0 0 611.12 483.3">
  <defs>
    <style>
      .cls-1 {
        fill: #ad833b;
      }
    </style>
  </defs>
  <g>
    <path class="cls-1" d="M307.57,309.34c.21,0,.85-.56,1.9-1.69,1.06-1.06,1.55-1.69,1.62-1.9l-2.61-1.48c-1.06-.63-1.69-.99-1.83-.99-.21,0-.85.49-1.9,1.55-1.06,1.06-1.55,1.69-1.55,1.83,0,.21.63.71,1.97,1.48,1.34.78,2.19,1.2,2.4,1.2ZM29.26,287.13l-1.41-18.19c-.49.63-1.27,1.83-2.33,3.46-1.2,1.9-1.76,3.1-1.76,3.45l2.61,21.78c1.9-2.89,2.89-6.34,2.89-10.5ZM57.81,276.35c1.06.92,1.69,1.34,1.9,1.34.28,0,.85-.56,1.62-1.69.85-1.13,1.27-1.76,1.27-1.97,0-.35-.49-.85-1.55-1.62-1.06-.78-1.69-1.13-1.97-1.13-.35,0-.92.49-1.69,1.48-.78.92-1.13,1.55-1.13,1.9,0,.21.49.78,1.55,1.69ZM27.85,302.92v.63c.42.49,2.19,1.41,5.36,2.61,3.17,1.27,5.29,1.9,6.49,1.9,2.51,0,4.69-1.54,6.56-4.66.37.32.82.64,1.34.92.21.14.85.42,1.76.85,3.81,1.69,6.63,2.54,8.39,2.54,2.61,0,4.93-1.83,6.98-5.5,1.9-3.31,2.82-6.56,2.82-9.73,0-4.37-1.97-7.97-5.99-10.86l-2.04,5.71c.92.63,1.97,1.55,3.17,2.75,1.48,1.48,2.19,2.61,2.19,3.31,0,1.48-1.55,3.6-4.58,6.34-3.03,2.75-5.57,4.16-7.61,4.16-.99,0-2.26-.28-3.74-.78-1.13-.38-1.85-.63-2.12-.73.1-.18.2-.35.29-.54,1.69-3.45,2.54-6.49,2.54-9.16,0-1.97-.49-3.95-1.55-5.85-1.2-2.12-2.75-3.74-4.65-4.86l-1.97,5.71c.49.28,1.41,1.13,2.89,2.47,1.76,1.62,2.61,2.82,2.61,3.52,0,1.76-1.69,4.09-5.08,6.84-3.17,2.61-5.5,3.88-6.98,3.88-.71,0-1.9-.28-3.67-.85-1.76-.56-2.68-.85-2.82-.85-.21,0-.42.07-.56.21ZM89.28,425.9c1.01,0,3.96-.13,4.71-.35-.04-.88-.13-2.33-.13-5.41v-19.8c0-1.98-.13-2.38-.88-2.38-.92,0-3.96.22-4.75.35.09.84.13,2.64.13,5.59v21.12c0,.75.26.88.92.88ZM162.91,287.13l-1.41-18.19c-.49.63-1.27,1.83-2.33,3.46-1.2,1.9-1.76,3.1-1.76,3.45l2.61,21.78c1.9-2.89,2.89-6.34,2.89-10.5ZM185.26,309.41c2.54,0,5.15-.63,7.82-1.9,2.11-1.06,3.45-1.83,4.09-2.4,1.48-1.34,2.68-3.88,3.6-7.47h7.26l1.27-1.27c.42.56.71.99.78,1.27h7.61c.07-.49.28-1.06.63-1.69l1.27,1.69h60.34l2.4-3.24c.28.56.49,2.75,1.13,3.24h18.96c.49,0,1.83-.56,3.88-1.62l3.52-1.97c.78-.42,1.48-.63,1.97-.7.49-.07,1.62-.07,3.38-.07,2.12,0,3.45.07,4.09.28.21.99.42,2.33.63,4.09h18.82c.49-.42.99-1.27,1.48-2.47.42-1.06.99-1.69,1.76-1.97l10.72,3.88c1.9-2.96,2.89-4.58,3.1-4.94.35-.63.49-1.13.49-1.48,0-.63-.07-1.2-.21-1.69-1.13-3.81-2.04-6.7-2.68-8.6-.07-.14-.21-.28-.42-.49-1.06-.07-3.24.63-6.42,2.12-1.34.63-2.68,1.76-3.88,3.38-1.06,1.48-1.83,2.89-2.33,4.3l-.92,2.33h-12.83c-2.05,0-3.1,0-3.17-.07.56-1.9,1.06-3.38,1.55-4.44-4.02-.49-7.19-1.06-9.52-1.76-.99-.28-2.96-1.06-5.92-2.4-2.19-.99-3.95-1.48-5.36-1.48-3.31,0-5.85,2.33-7.68,7.05,2.11-1.13,3.67-1.69,4.65-1.69,1.2,0,3.95.85,8.25,2.61-2.54,1.48-4.51,2.19-5.99,2.19h-15.86c-1.2,0-1.76-.56-1.83-1.62-.63-7.54-1.2-13.11-1.55-16.85-.21-1.9-.35-3.45-.56-4.72l-4.3,5.92,2.54,17.27h-60.76c-.92,0-1.48-.21-1.69-.71.49-1.83.71-2.96.71-3.31v-4.44l-1.2,1.13c-1.62,2.19-2.47,3.46-2.47,3.81,0,.07.14.56.35,1.34s.35,1.27.35,1.34c0,.35,0,.63-.07.85h-5.15v-1.62l1.55-5.99c-2.61,2.19-4.02,3.74-4.37,4.58-.07,1.27-.07,2.26,0,3.03h-6.35c-.21,0-.42-.56-.42-.56-1.06-.78-1.9-1.9-2.68-3.38-.63-1.27-1.2-2.54-1.76-3.81-.63.92-1.55,2.18-2.61,3.95-.63,1.06-.99,1.62-.99,1.83,2.33,4.79,3.52,7.9,3.52,9.24,0,.92-1.55,1.9-4.72,2.89-2.75.85-4.93,1.27-6.42,1.27-2.04,0-3.74-.42-5.22-1.2-1.97-1.13-2.96-2.82-2.96-5,0-.92.85-3.53,2.54-7.9v-.99h-.56c-.99.63-2.11,2.61-3.31,5.92-1.2,3.31-1.83,6.13-1.83,8.32,0,4.58,3.31,6.84,9.94,6.84ZM346.97,285.86c.63-.21,1.13-.35,1.55-.35.78,0,1.41.56,1.83,1.62.07.21.35,1.13.7,2.61l-6.34-2.54c0-.21.78-.78,2.26-1.34ZM67.25,304.4c.92.99,2.47,1.9,4.65,2.68,2.47.99,4.37,1.62,5.64,1.97.49.07.92.14,1.41.14.78,0,1.41-.07,1.9-.28,1.27-.56,2.33-1.2,3.1-1.97,1.27-1.06,2.4-2.54,3.45-4.44.49-.92,1.27-2.54,2.19-4.86h55.12c.28,0,.78-.28.99-.28l1.34-7.05-1.2-9.73c0-.28.07-.49.14-.63l2.75-3.53c.63-.78,1.06-1.34,1.27-1.83-1.34-.78-2.61-1.55-3.88-2.4-1.76-1.13-2.75-1.83-2.96-2.12-.35-.49-.49-1.27-.49-2.26-1.34,1.83-2.61,4.09-3.95,6.77,1.34,1.06,2.04,1.62,2.04,1.62.92,4.16,1.55,7.26,1.9,9.38.42,2.33.63,3.88.63,4.72,0,.42-.07.99-.21,1.69h-52.87c-.35-3.45-1.27-6.63-2.89-9.45-.49-.92-1.27-1.55-2.33-2.04-.07-.07-.28-.07-.63-.07-.78,0-1.41.21-1.97.71-1.2.92-2.26,2.19-3.17,3.95-.49.92-1.06,2.26-1.69,4.02-.78,1.9-1.13,3.24-1.13,4.16,0,.28,0,.56.07.78.21,1.34,2.26,2.75,3.45,2.96,1.76.35,3.81.63,6.13.78-3.24,3.81-6.63,6.13-10.15,6.98-.92.21-1.76.35-2.4.35-.07,0-.99-.21-2.75-.71-1.69-.42-2.61-.63-2.68-.63-.49,0-.78.07-.85.14v.49ZM85.16,291.08c-.21.14-.71.21-1.48.21-.63,0-.99,0-1.06-.07-1.2-.21-1.97-.71-2.4-1.34-.35-.49-.49-.85-.49-1.2,0-.28.28-.7.78-1.27.7-.71,1.34-1.06,1.83-1.06.85,0,1.76.99,2.54,2.33.21.35.42,1.06.78,1.97l-.49.42ZM2.26,291.57l3.03.63c-.99.49-1.97,1.2-2.96,2.26-1.13,1.2-1.69,2.26-1.62,3.17,4.09-2.4,6.34-3.67,6.7-3.81,1.34-.56,2.82-.92,4.58-1.13l2.26-.28c1.34-1.55,2.26-2.96,2.82-4.23h-4.65c-1.62-.21-3.17-.35-4.79-.49-2.4-.35-3.6-.92-3.6-1.69,0-.56.42-1.06,1.34-1.55.78-.35,1.48-.56,2.19-.56.42,0,1.13.28,2.04.78l1.83,1.06c1.48-2.04,2.19-3.24,2.19-3.6,0-1.69-1.83-2.82-3.52-2.82-2.61,0-4.94,1.13-6.98,3.31-2.04,2.19-3.1,4.51-3.1,6.98,0,.92.78,1.55,2.26,1.97ZM497.62,282.27c.14,0,.49-.35,1.13-1.13.78-.92,1.34-1.48,1.62-1.69,2.47,1.76,3.95,2.68,4.37,2.82l1.55-1.97c.63-.85.99-1.48,1.06-1.83l-4.23-2.4c-2.19,1.69-3.24,2.54-3.1,2.54-.14,0-.85-.42-2.19-1.2-1.27-.78-1.97-1.2-2.04-1.2s-1.06,1.13-2.96,3.31c.78.63,1.62,1.2,2.54,1.69,1.34.7,2.04,1.06,2.26,1.06ZM570.87,287.13l-1.41-18.19c-.49.63-1.27,1.83-2.33,3.46-1.2,1.9-1.76,3.1-1.76,3.45l2.61,21.78c1.9-2.89,2.89-6.34,2.89-10.5ZM538.09,302.92v.63c.42.49,2.18,1.41,5.36,2.61,3.17,1.27,5.29,1.9,6.49,1.9,2.89,0,5.36-2.04,7.4-6.2,1.69-3.45,2.54-6.49,2.54-9.16,0-1.97-.49-3.95-1.55-5.85-1.2-2.12-2.75-3.74-4.65-4.86l-1.97,5.71c.49.28,1.41,1.13,2.89,2.47,1.76,1.62,2.61,2.82,2.61,3.52,0,1.76-1.69,4.09-5.08,6.84-3.17,2.61-5.5,3.88-6.98,3.88-.7,0-1.9-.28-3.66-.85-1.76-.56-2.68-.85-2.82-.85-.21,0-.42.07-.56.21ZM529.84,297.64c1.76,0,4.02-.78,6.7-2.33.49-.21.85-.71,1.13-1.41l.49-1.41c.78-2.89,1.2-4.44,1.2-4.72,0-1.62-.63-3.1-1.9-4.3l-5.08-4.23c-1.9,2.19-3.6,4.65-5.22,7.26-2.19,3.52-3.31,6.2-3.31,8.11,0,2.04,1.97,3.03,5.99,3.03ZM529.35,287.42c.56-.78,1.13-1.55,1.76-2.33,2.61,1.9,4.37,3.81,5.29,5.85v.49c-2.26.35-4.09.56-5.43.56-1.9,0-2.89-.71-2.89-2.04,0-.49.42-1.34,1.27-2.54ZM526.32,274.73c1.2.63,1.97.99,2.4.99.35,0,1.06-.7,2.26-2.11l4.3,2.26c.85-.35,1.9-1.48,3.24-3.45-2.61-1.55-4.02-2.33-4.37-2.33-.14,0-.63.35-1.41,1.06-.78.71-1.2,1.06-1.27,1.06-.21,0-1.55-.71-3.88-2.12-1.06.92-2.11,2.04-3.17,3.31.14.21.78.63,1.9,1.34ZM568.12,302.36c0,.21-.21.49-.21.56.42.49,1.06.99,1.83,1.41.21.14.85.42,1.76.85,3.81,1.69,6.63,2.54,8.39,2.54,2.61,0,4.94-1.83,6.98-5.5,1.9-3.31,2.82-6.56,2.82-9.73,0-4.37-1.97-7.97-5.99-10.86l-2.04,5.71c.92.63,1.97,1.55,3.17,2.75,1.48,1.48,2.18,2.61,2.18,3.31,0,1.48-1.55,3.6-4.58,6.34-3.03,2.75-5.57,4.16-7.61,4.16-.99,0-2.26-.28-3.74-.78-1.48-.49-2.26-.78-2.26-.78h-.7ZM579.96,276.35c1.06.92,1.69,1.34,1.9,1.34.28,0,.85-.56,1.62-1.69.85-1.13,1.27-1.76,1.27-1.97,0-.35-.49-.85-1.55-1.62-1.06-.78-1.69-1.13-1.97-1.13-.35,0-.92.49-1.69,1.48-.78.92-1.13,1.55-1.13,1.9,0,.21.49.78,1.55,1.69ZM588,306.8c.63.49,2.4,1.2,5.43,1.97,3.03.85,5.29,1.27,6.77,1.27,3.17,0,5.92-2.19,8.11-6.63,1.9-3.81,2.82-7.54,2.82-11.28,0-1.06-.14-2.19-.49-3.45l-.56-1.76c-.35-.92-.85-1.83-1.48-2.89-1.06-1.48-2.04-2.19-2.96-2.19-1.48,0-3.1,1.34-4.86,4.02-1.48,2.26-2.33,3.88-2.47,4.93v1.69c0,1.69.21,2.89.63,3.67.63.99,1.76,1.48,3.38,1.48,2.89,0,4.44-1.06,5.78-4.79h.14c.21.63.35,1.27.35,1.9,0,2.47-1.97,5.15-5.92,8.11-3.6,2.75-6.34,4.09-8.25,4.09-.14,0-1.06-.14-2.75-.49-1.69-.35-2.61-.49-2.68-.49-.63,0-.99.28-.99.85ZM603.86,291.86c-.49,0-1.06-.14-1.83-.35-1.06-.35-1.62-.7-1.62-1.2,0-.63.49-1.2,1.41-1.69.78-.35,1.41-.56,1.83-.56.63,0,1.27.21,1.83.7.63.63.99,1.41.99,2.4-.99.49-1.83.71-2.61.71ZM380.11,305.32c2.33,0,5.08-.63,8.11-1.83,3.66-1.48,5.78-3.24,6.27-5.29.21-.56.35-.99.49-1.2l.71-2.4c.49-1.55.7-2.82.7-3.81,0-1.62-.42-3.6-1.2-5.92-.78-2.33-1.76-4.16-2.89-5.5-1.9,3.31-2.89,5.08-2.89,5.29,0,.07.63,1.41,1.83,4.09,1.27,2.68,1.9,4.58,1.9,5.71,0,1.34-1.55,2.47-4.58,3.38-2.47.78-4.58,1.13-6.49,1.13-5.71,0-8.53-2.11-8.53-6.34,0-1.41.35-2.75.99-4.09.71-1.34,1.06-2.04,1.06-2.12v-.63c-.07,0-.21-.07-.35-.14-1.06.35-2.19,2.12-3.31,5.36-.99,2.89-1.48,5.08-1.48,6.56,0,5.15,3.24,7.75,9.66,7.75ZM383.63,276.91c1.06-.92,1.62-1.55,1.62-1.9,0-.21-.63-.71-1.83-1.62-1.2-.92-1.97-1.41-2.19-1.41-.28,0-.85.56-1.69,1.62-.85,1.06-1.34,1.76-1.41,2.19,1.97,1.62,3.17,2.4,3.67,2.4.21,0,.78-.42,1.83-1.27ZM394.42,306.8c.63.49,2.4,1.2,5.43,1.97,3.03.85,5.29,1.27,6.77,1.27,3.17,0,5.92-2.19,8.11-6.63,1.9-3.81,2.82-7.54,2.82-11.28,0-1.06-.14-2.19-.49-3.45l-.56-1.76c-.35-.92-.85-1.83-1.48-2.89-1.06-1.48-2.04-2.19-2.96-2.19-1.48,0-3.1,1.34-4.86,4.02-1.48,2.26-2.33,3.88-2.47,4.93v1.69c0,1.69.21,2.89.63,3.67.63.99,1.76,1.48,3.38,1.48,2.89,0,4.44-1.06,5.78-4.79h.14c.21.63.35,1.27.35,1.9,0,2.47-1.97,5.15-5.92,8.11-3.6,2.75-6.34,4.09-8.25,4.09-.14,0-1.06-.14-2.75-.49-1.69-.35-2.61-.49-2.68-.49-.63,0-.99.28-.99.85ZM410.28,291.86c-.49,0-1.06-.14-1.83-.35-1.06-.35-1.62-.7-1.62-1.2,0-.63.49-1.2,1.41-1.69.78-.35,1.41-.56,1.83-.56.63,0,1.27.21,1.83.7.63.63.99,1.41.99,2.4-.99.49-1.83.71-2.61.71ZM352.84,403.9v21.12c0,.75.26.88.92.88,1.01,0,3.96-.13,4.71-.35-.04-.88-.13-2.33-.13-5.41v-19.8c0-1.98-.13-2.38-.88-2.38-.92,0-3.96.22-4.75.35.09.84.13,2.64.13,5.59ZM335.24,426.08c6.91,0,11.79-2.99,11.79-8.89,0-2.9-1.8-5.5-5.59-6.56,2.02-1.1,3.87-3.12,3.87-5.85s-1.28-6.91-9.55-6.91c-2.82,0-7,.53-8.05.79.13,1.98.13,3.26.13,5.59v21.08c1.94.44,5.15.75,7.39.75ZM333.26,401.35c.44-.09,1.5-.18,2.2-.18,2.82,0,4.58,1.59,4.58,4.36,0,2.25-.97,3.74-2.11,4.27-2.07-.05-3.43,0-4.67.22v-8.67ZM333.26,413.18c.66-.13,1.36-.13,2.02-.13,3.65,0,5.81,1.63,5.81,4.53,0,3.43-2.29,5.24-5.54,5.24-.75,0-1.76-.09-2.29-.22v-9.42ZM451.66,425.33c.97.31,2.9.57,3.87.57.7,0,1.06-.22,1.23-.62.57-1.41,1.85-4.67,2.86-7.22h9.95c1.01,2.51,1.63,4.18,2.42,6.42.44,1.19.79,1.41,1.5,1.41.97,0,3.96-.22,4.93-.53v-.18c-.88-1.85-1.94-4.62-3.74-9.11-1.54-3.83-4.88-12.5-6.91-17.34-.22-.53-.62-.79-1.01-.79-.53,0-2.99.18-4.62.53l.35.92c-1.67,4-8.54,20.38-10.83,25.74v.18ZM464.69,404.25c.48,1.41,1.8,4.71,3.83,10.17h-7.66c1.5-3.78,2.73-7.26,3.83-10.17ZM427.34,279.03c-1.69,1.06-2.61,2.04-2.82,2.82l.28.07c3.52-1.9,6.13-2.89,7.83-2.96.78-.92,1.27-1.76,1.48-2.4h-5.64c-1.55-.07-2.47-.49-2.82-1.34l.28-.42c.63-.42,1.06-.71,1.27-.78.42-.21.85-.35,1.2-.35.14,0,.28,0,.35.07.85.21,1.48.56,1.83,1.06.78-1.41,1.13-2.04,1.13-1.97,0-.99-.7-1.48-2.04-1.48s-2.61.71-3.88,2.04c-1.2,1.34-1.83,2.68-1.83,3.95,0,.21.07.42.28.56,1.34.56,2.4.92,3.1,1.13ZM503.12,274.09l-3.6-2.61c-1.76,1.2-2.89,2.18-3.31,2.96,2.33,1.62,3.53,2.47,3.6,2.47s1.13-.92,3.31-2.82ZM417.19,304.4c.92.99,2.47,1.9,4.65,2.68,2.47.99,4.37,1.62,5.64,1.97.49.07.92.14,1.41.14.78,0,1.41-.07,1.9-.28,1.27-.56,2.33-1.2,3.1-1.97,1.27-1.06,2.4-2.54,3.45-4.44.49-.92,1.27-2.54,2.19-4.86h45.89c.56,0,1.41-.63,2.61-1.97.21.85,1.27,1.97,2.12,1.97h7.83c.35,0,.56-.07.71-.21l1.27-1.06c.35.56.56.99.63,1.27h7.9c.78-1.9,1.41-3.38,1.76-4.44.14-.49.21-.92.21-1.27v-8.39c-2.75,2.89-4.09,4.58-4.09,4.93,0-.14.21.85.63,2.96.07.21.07.35,0,.56-.07-.07-.85-.14-2.33-.14-1.2,0-1.97.07-2.26.14v-1.76l1.34-5.85c-2.47,2.54-3.81,3.95-3.95,4.16-.49,1.48-.7,2.61-.78,3.45h-4.79c.21,0,.42-.49.49-.49-.28,0-.92.49-1.2.49-.71,0-1.48-.42-2.26-1.2,0-.14.42-1.48,1.27-4.09.49-1.55.71-2.75.63-3.53-2.19,2.19-3.74,3.81-4.58,5.01l-.14,1.97c-.21,1.2-.56,1.83-1.06,1.83h-47.23c-.35-3.45-1.27-6.63-2.89-9.45-.49-.92-1.27-1.55-2.33-2.04-.07-.07-.28-.07-.63-.07-.78,0-1.41.21-1.97.71-1.2.92-2.26,2.19-3.17,3.95-.49.92-1.06,2.26-1.69,4.02-.78,1.9-1.13,3.24-1.13,4.16,0,.28,0,.56.07.78.21,1.34,2.26,2.75,3.45,2.96,1.76.35,3.81.63,6.13.78-3.24,3.81-6.63,6.13-10.15,6.98-.92.21-1.76.35-2.4.35-.07,0-.99-.21-2.75-.71-1.69-.42-2.61-.63-2.68-.63-.49,0-.78.07-.85.14v.49ZM435.1,291.08c-.21.14-.71.21-1.48.21-.63,0-.99,0-1.06-.07-1.2-.21-1.97-.71-2.4-1.34-.35-.49-.49-.85-.49-1.2,0-.28.28-.7.78-1.27.71-.71,1.34-1.06,1.83-1.06.85,0,1.76.99,2.54,2.33.21.35.42,1.06.78,1.97l-.49.42ZM538.52,418.07c1.01,2.51,1.63,4.18,2.42,6.42.44,1.19.79,1.41,1.5,1.41.97,0,3.96-.22,4.93-.53v-.18c-.88-1.85-1.94-4.62-3.74-9.11-1.54-3.83-4.88-12.5-6.91-17.34-.22-.53-.62-.79-1.01-.79-.53,0-2.99.18-4.62.53l.35.92c-1.67,4-8.54,20.38-10.83,25.74v.18c.97.31,2.9.57,3.87.57.7,0,1.06-.22,1.23-.62.57-1.41,1.85-4.67,2.86-7.22h9.95ZM533.64,404.25c.48,1.41,1.8,4.71,3.83,10.17h-7.66c1.5-3.78,2.73-7.26,3.83-10.17ZM437.14,401.79c.92-.22,2.11-1.32,2.29-3.65h-15.67c-4.44,0-5.63-.04-6.34-.22-.44.48-.97,1.23-1.45,2.55-.31,1.01.04,1.32.75,1.32h7.92v23.32c0,.66.31.79.92.79,1.76,0,3.48-.13,4.71-.35-.04-.88-.13-2.33-.13-5.37v-18.39h7ZM515.55,401.79c1.94,0,2.86,0,3.43-.26.57-.57,1.19-1.41,1.54-3.39-2.11,0-9.59-.04-11.18,0-1.94.09-4.53.44-5.33.66.09,1.54.13,2.73.13,4.66v21.61c0,.7.31.84.97.84,1.72,0,3.92-.13,4.66-.35-.09-3.3-.13-6.95-.13-11.35h6.73c1.72,0,2.77-.31,3.21-3.65h-9.95v-8.76h5.9ZM498.52,410.54h-9.95v-8.76h5.9c1.94,0,2.86,0,3.43-.26.57-.57,1.19-1.41,1.54-3.39-2.11,0-9.59-.04-11.18,0-1.94.09-4.53.44-5.33.66.09,1.54.13,2.73.13,4.66v21.61c0,.7.31.84.97.84,1.72,0,3.92-.13,4.66-.35-.09-3.3-.13-6.95-.13-11.35h6.73c1.72,0,2.77-.31,3.21-3.65ZM375.54,413.58c3.48,5.37,5.72,8.8,8.01,11.97.31.44.57.62,1.1.62,1.28,0,3.78-.53,4.18-.7v-19.41c0-3.65.04-6.21.13-8.1-1.01,0-2.2.04-3.56.18-.62.09-.92.26-.92,1.28v12.28c0,2.2-.04,3.92.22,7.31-1.06-2.25-2.68-4.71-4.66-7.83-3.17-4.88-6.78-10.38-8.18-12.41-.44-.48-.79-.79-1.23-.79-.79,0-4.58.22-5.41.35v.22l.79,1.1v18.26c0,3.7-.05,6.25-.13,8.01,1.32.04,2.73-.04,3.52-.18.7-.13.97-.26.97-1.19v-11.53c0-2.24.04-4.53-.22-8.98,1.8,3.39,3.08,5.85,5.41,9.55ZM413.34,422.16l-.09-.09c-2.11.18-5.32.18-7.13.18-1.67,0-3.08-.09-4.09-.31v-8.63h6.69c1.54,0,2.51-.57,2.9-3.65h-9.59v-7.88h4.58c1.98,0,3.48,0,4.14-.26.53-.57,1.06-1.41,1.32-3.39h-10.69c-1.8.04-3.74.31-4.97.62.13,1.85.13,3.43.13,5.54v20.33l.66.84c1.06.22,3.96.44,7.83.44,3.39,0,5.37-.09,5.98-.22,1.1-.62,1.94-1.63,2.33-3.52ZM557.53,420.14v-19.8c0-1.98-.13-2.38-.88-2.38-.92,0-3.96.22-4.75.35.09.84.13,2.64.13,5.59v21.12c0,.75.26.88.92.88,1.01,0,3.96-.13,4.71-.35-.04-.88-.13-2.33-.13-5.41ZM586.26,425.37c-1.1-1.19-2.51-3.17-4.62-6.87-1.5-2.6-2.86-4.8-3.87-5.68,1.76-.79,5.28-2.82,5.28-7,0-5.59-3.48-7.96-10.47-7.96-2.02,0-6.42.48-7.57.75.09,1.23.09,2.29.09,4.49v14.74c0,3.7-.04,6.29-.13,8.05.88,0,3.3-.04,4.53-.18.75-.09,1.01-.26,1.01-1.14v-10.17h.79c1.45,0,2.29.35,3.65,2.86,1.76,3.43,2.64,5.19,3.83,6.73,1.14,1.54,2.29,1.98,3.92,1.98s3.21-.18,3.56-.44v-.18ZM574.73,410.94c-.62.31-3.04.44-4.22.31v-9.99c.53-.09,1.28-.13,1.89-.13,2.73,0,5.02,1.54,5.02,5.19,0,2.95-1.76,4.27-2.68,4.62ZM600.43,409.8c-4.09-2.33-5.54-3.39-5.54-5.46,0-1.94,1.67-3.04,4-3.04,1.41,0,3.3.57,4.31,1.1,1.54.09,2.25-1.72,2.25-2.82-1.1-1.14-4-2.11-6.34-2.11h-.04c-7.26,0-9.37,4.8-9.37,7.79,0,2.64.88,5.46,5.99,8.23,4.44,2.42,5.46,3.52,5.46,5.46,0,2.25-1.85,3.39-4.49,3.39-2.11,0-4.75-.97-6.34-2.07-.4.26-1.06,1.89-1.06,2.82,0,.57.26,1.01,1.01,1.5,1.14.84,3.39,1.72,6.42,1.72,5.19,0,9.95-2.95,9.95-8.41,0-4.18-2.24-5.85-6.21-8.1ZM80.66,406.05c0-3.65.04-6.21.13-8.1-1.01,0-2.2.04-3.56.18-.62.09-.92.26-.92,1.28v12.28c0,2.2-.04,3.92.22,7.31-1.06-2.25-2.68-4.71-4.66-7.83-3.17-4.88-6.78-10.38-8.19-12.41-.44-.48-.79-.79-1.23-.79-.79,0-4.58.22-5.41.35v.22l.79,1.1v18.26c0,3.7-.04,6.25-.13,8.01,1.32.04,2.73-.04,3.52-.18.7-.13.97-.26.97-1.19v-11.53c0-2.24.04-4.53-.22-8.98,1.8,3.39,3.08,5.85,5.41,9.55,3.48,5.37,5.72,8.8,8.01,11.97.31.44.57.62,1.1.62,1.28,0,3.78-.53,4.18-.7v-19.41ZM147.05,425.9c.88,0,3.3-.04,4.53-.18.75-.09,1.01-.26,1.01-1.14v-10.17h.79c1.45,0,2.29.35,3.65,2.86,1.76,3.43,2.64,5.19,3.83,6.73,1.14,1.54,2.29,1.98,3.92,1.98s3.21-.18,3.56-.44v-.18c-1.1-1.19-2.51-3.17-4.62-6.87-1.5-2.6-2.86-4.8-3.87-5.68,1.76-.79,5.28-2.82,5.28-7,0-5.59-3.48-7.96-10.47-7.96-2.02,0-6.42.48-7.57.75.09,1.23.09,2.29.09,4.49v14.74c0,3.7-.04,6.29-.13,8.05ZM152.6,401.26c.53-.09,1.28-.13,1.89-.13,2.73,0,5.02,1.54,5.02,5.19,0,2.95-1.76,4.27-2.68,4.62-.62.31-3.04.44-4.22.31v-9.99ZM133.59,420.18v-18.39h7c.92-.22,2.11-1.32,2.29-3.65h-15.67c-4.44,0-5.63-.04-6.34-.22-.44.48-.97,1.23-1.45,2.55-.31,1.01.04,1.32.75,1.32h7.92v23.32c0,.66.31.79.92.79,1.76,0,3.48-.13,4.71-.35-.04-.88-.13-2.33-.13-5.37ZM116.74,417.89c0-4.18-2.24-5.85-6.21-8.1-4.09-2.33-5.54-3.39-5.54-5.46,0-1.94,1.67-3.04,4-3.04,1.41,0,3.3.57,4.31,1.1,1.54.09,2.24-1.72,2.24-2.82-1.1-1.14-4-2.11-6.34-2.11h-.04c-7.26,0-9.37,4.8-9.37,7.79,0,2.64.88,5.46,5.99,8.23,4.44,2.42,5.46,3.52,5.46,5.46,0,2.25-1.85,3.39-4.49,3.39-2.11,0-4.75-.97-6.34-2.07-.4.26-1.06,1.89-1.06,2.82,0,.57.26,1.01,1.01,1.5,1.14.84,3.39,1.72,6.42,1.72,5.19,0,9.95-2.95,9.95-8.41ZM24.21,423.88c2.82-8.27,5.41-15.58,6.64-19.41l1.28,11.05c.48,4.66.75,7.04,1.01,9.29.09.88.66,1.1,1.23,1.1.88,0,3.65-.18,4.4-.4-.4-2.11-.88-5.37-1.58-9.99l-2.33-16.19c-.13-1.1-.4-1.36-.84-1.36-1.06,0-4,.26-4.66.62v.66c-1.85,4.49-4.8,12.41-7,18.17l-5.94-16.41c-.79-2.24-1.14-2.86-1.8-3.04-2.11,0-3.7.4-4.8.62l.13.84c-1.72,10.03-3.48,21.43-4.27,26.1.7.4,2.73.4,3.92.4.48,0,.7-.22.79-.7.66-5.15,1.98-15.23,2.6-20.64,1.98,5.99,5.85,17.65,6.91,21.08.88,0,1.94-.18,2.73-.31.97-.22,1.28-.57,1.58-1.45ZM50.17,420.14v-19.8c0-1.98-.13-2.38-.88-2.38-.92,0-3.96.22-4.75.35.09.84.13,2.64.13,5.59v21.12c0,.75.26.88.92.88,1.01,0,3.96-.13,4.71-.35-.04-.88-.13-2.33-.13-5.41ZM178.03,425.11c0,.66.13.79.79.79,2.42,0,3.83-.13,4.84-.35-.04-.97-.13-2.29-.13-5.28v-6.03c0-.57.13-1.23.48-1.85.48-.75,7-10.39,8.1-12.19.57-.97.66-1.54-.04-1.8-.62-.22-2.07-.44-3.7-.44-.84,1.54-5.06,8.62-6.95,11.53-1.89-3.17-4.09-7-5.63-9.46-1.1-1.85-1.41-2.07-2.2-2.07-1.14,0-3.3.35-4.8.79v.13c2.6,3.78,6.51,9.73,8.89,13.82.31.53.35,1.19.35,2.02v10.39ZM291.82,424.8c.75-.7,1.32-1.98,1.45-3.48l-.13-.09c-1.14.35-3.48,1.1-6.42,1.1-7,0-10.83-4.58-10.83-10.56,0-7.04,4.36-10.52,9.68-10.52,2.42,0,4.49.62,5.81,1.19,1.41.22,2.42-1.28,2.33-2.77-.7-.79-3.92-2.2-8.1-2.2-8.71,0-15.62,5.59-15.62,14.7,0,8.41,5.41,14.13,15.45,14.13,2.95,0,5.28-.79,6.38-1.5ZM314.39,418.07c1.01,2.51,1.63,4.18,2.42,6.42.44,1.19.79,1.41,1.5,1.41.97,0,3.96-.22,4.93-.53v-.18c-.88-1.85-1.94-4.62-3.74-9.11-1.54-3.83-4.88-12.5-6.91-17.34-.22-.53-.62-.79-1.01-.79-.53,0-2.99.18-4.62.53l.35.92c-1.67,4-8.54,20.38-10.83,25.74v.18c.97.31,2.9.57,3.87.57.7,0,1.06-.22,1.23-.62.57-1.41,1.85-4.67,2.86-7.22h9.95ZM309.5,404.25c.48,1.41,1.8,4.71,3.83,10.17h-7.66c1.5-3.78,2.73-7.26,3.83-10.17ZM205.93,412.13c0,6.64,4,14.17,14.17,14.17,9.33,0,14.21-6.78,14.21-14.65s-5.15-14.17-14.04-14.17h-.04c-8.98,0-14.3,6.34-14.3,14.65ZM219.74,400.91h.04c5.46,0,8.67,4.88,8.67,11.13,0,6.86-3.04,10.83-7.96,10.83-4.62,0-8.63-3.92-8.63-11.27s3.56-10.69,7.88-10.69ZM251.64,401.79c1.94,0,2.86,0,3.43-.26.57-.57,1.19-1.41,1.54-3.39-2.11,0-9.59-.04-11.18,0-1.94.09-4.53.44-5.32.66.09,1.54.13,2.73.13,4.66v21.61c0,.7.31.84.97.84,1.72,0,3.92-.13,4.66-.35-.09-3.3-.13-6.95-.13-11.35h6.73c1.72,0,2.77-.31,3.21-3.65h-9.95v-8.76h5.9Z"/>
    <path class="cls-1" d="M121.32,338.64l-2.04,5.71c.92.63,1.97,1.55,3.17,2.75,1.48,1.48,2.19,2.61,2.19,3.31,0,1.48-1.55,3.6-4.58,6.34-3.03,2.75-5.57,4.16-7.61,4.16-.99,0-2.26-.28-3.74-.78-1.13-.38-1.85-.63-2.12-.73.1-.18.2-.35.29-.54,1.69-3.45,2.54-6.49,2.54-9.16,0-1.97-.49-3.95-1.55-5.85-1.2-2.12-2.75-3.74-4.65-4.86l-1.97,5.71c.49.28,1.41,1.13,2.89,2.47,1.76,1.62,2.61,2.82,2.61,3.52,0,1.76-1.69,4.09-5.08,6.84-3.17,2.61-5.5,3.88-6.98,3.88-.7,0-1.9-.28-3.67-.85-1.76-.56-2.68-.85-2.82-.85-.21,0-.42.07-.56.21v.63c.42.49,2.18,1.41,5.36,2.61,3.17,1.27,5.29,1.9,6.48,1.9,2.51,0,4.69-1.54,6.56-4.66.37.32.82.64,1.34.92.21.14.85.42,1.76.85,3.81,1.69,6.63,2.54,8.39,2.54,2.61,0,4.94-1.83,6.98-5.5,1.9-3.31,2.82-6.56,2.82-9.73,0-4.37-1.97-7.97-5.99-10.86ZM180.25,329.4c-1.2,1.9-1.76,3.1-1.76,3.45l2.61,21.78c1.9-2.89,2.89-6.34,2.89-10.5l-1.41-18.19c-.49.63-1.27,1.83-2.33,3.45ZM164.25,327.07c-.35-.49-.49-1.27-.49-2.26-1.34,1.83-2.61,4.09-3.95,6.77,1.34,1.06,2.04,1.62,2.04,1.62.92,4.16,1.55,7.26,1.9,9.38.42,2.33.63,3.88.63,4.72,0,.42-.07.99-.21,1.69h-14.17c-.35-3.45-1.27-6.63-2.89-9.45-.49-.92-1.27-1.55-2.33-2.04-.07-.07-.28-.07-.63-.07-.78,0-1.41.21-1.97.71-1.2.92-2.26,2.19-3.17,3.95-.49.92-1.06,2.26-1.69,4.02-.78,1.9-1.13,3.24-1.13,4.16,0,.28,0,.56.07.78.21,1.34,2.26,2.75,3.46,2.96,1.76.35,3.81.63,6.13.78-3.24,3.81-6.63,6.13-10.15,6.98-.92.21-1.76.35-2.4.35-.07,0-.99-.21-2.75-.71-1.69-.42-2.61-.63-2.68-.63-.49,0-.78.07-.85.14v.49c.92.99,2.47,1.9,4.65,2.68,2.47.99,4.37,1.62,5.64,1.97.49.07.92.14,1.41.14.78,0,1.41-.07,1.9-.28,1.27-.56,2.33-1.2,3.1-1.97,1.27-1.06,2.4-2.54,3.46-4.44.49-.92,1.27-2.54,2.19-4.86h16.43c.28,0,.78-.28.99-.28l1.34-7.05-1.2-9.73c0-.28.07-.49.14-.63l2.75-3.52c.63-.78,1.06-1.34,1.27-1.83-1.34-.78-2.61-1.55-3.88-2.4-1.76-1.13-2.75-1.83-2.96-2.12ZM144.93,348.08c-.21.14-.71.21-1.48.21-.63,0-.99,0-1.06-.07-1.2-.21-1.97-.71-2.4-1.34-.35-.49-.49-.85-.49-1.2,0-.28.28-.7.78-1.27.7-.71,1.34-1.06,1.83-1.06.85,0,1.76.99,2.54,2.33.21.35.42,1.06.78,1.97l-.49.42ZM493.61,334.33c-.14,0,.7-.78,2.47-2.26,2.47,1.48,3.88,2.26,4.37,2.26-.21,0,0-.14.56-.35,1.34-1.48,2.26-2.54,2.75-3.31l-4.58-2.47-1.69,1.41c-.63.63-1.06.92-1.2.92-.28,0-.78-.21-2.47-1.34-.85-.56-1.34-.85-1.41-.85-.14,0-.63.49-1.55,1.41-.92.92-1.48,1.62-1.76,2.11,1.34,1.06,2.54,1.76,3.53,2.11.56.21.92.35.99.35ZM87.62,325.95c-.49.63-1.27,1.83-2.33,3.45-1.2,1.9-1.76,3.1-1.76,3.45l2.61,21.78c1.9-2.89,2.89-6.34,2.89-10.5l-1.41-18.19ZM117.58,333.35c1.06.92,1.69,1.34,1.9,1.34.28,0,.85-.56,1.62-1.69.85-1.13,1.27-1.76,1.27-1.97,0-.35-.49-.85-1.55-1.62-1.06-.78-1.69-1.13-1.97-1.13-.35,0-.92.49-1.69,1.48-.78.92-1.13,1.55-1.13,1.9,0,.21.49.78,1.55,1.69ZM67.39,344.7c-2.4-.35-3.6-.92-3.6-1.69,0-.56.42-1.06,1.34-1.55.78-.35,1.48-.56,2.19-.56.42,0,1.13.28,2.04.78l1.83,1.06c1.48-2.04,2.19-3.24,2.19-3.6,0-1.69-1.83-2.82-3.53-2.82-2.61,0-4.93,1.13-6.98,3.31-2.04,2.19-3.1,4.51-3.1,6.98,0,.92.78,1.55,2.26,1.97l3.03.63c-.99.49-1.97,1.2-2.96,2.26-1.13,1.2-1.69,2.26-1.62,3.17,4.09-2.4,6.34-3.67,6.7-3.81,1.34-.56,2.82-.92,4.58-1.13l2.26-.28c1.34-1.55,2.26-2.96,2.82-4.23h-4.65c-1.62-.21-3.17-.35-4.79-.49ZM406.2,333.14l2.12.63-1.13.56c-1.34.99-2.04,1.76-1.97,2.33v.49c3.88-2.19,6.7-3.38,8.39-3.52l1.48-2.33c-.92.07-1.69.07-2.19.07-2.54,0-4.3-.28-5.29-.85-.56-.35-.85-.71-.85-1.06,0-.21.07-.28.14-.35.42-.28.78-.49.99-.71.49-.28.99-.42,1.41-.42.21,0,.56.07,1.06.28.35.14.78.49,1.2.99.49-1.34.78-2.04.78-2.11,0-.49-.21-1.06-.56-1.27-.78-.14-1.13-.21-1.13-.21-.56,0-1.13.14-1.69.35-1.69.63-2.89,1.9-3.6,3.74-.35.78-.49,1.41-.49,1.76,0,.78.42,1.34,1.34,1.62ZM430.1,338.99l-1.97,5.71c.49.28,1.41,1.13,2.89,2.47,1.76,1.62,2.61,2.82,2.61,3.52,0,1.76-1.69,4.09-5.08,6.84-3.17,2.61-5.5,3.88-6.98,3.88-.71,0-1.9-.28-3.67-.85-1.76-.56-2.68-.85-2.82-.85-.21,0-.42.07-.56.21v.63c.42.49,2.18,1.41,5.36,2.61,3.17,1.27,5.29,1.9,6.48,1.9,2.89,0,5.36-2.04,7.4-6.2,1.69-3.45,2.54-6.49,2.54-9.16,0-1.97-.49-3.95-1.55-5.85-1.2-2.12-2.75-3.74-4.65-4.86ZM464.08,362.18c-.92,1.06-1.41,1.69-1.48,1.9,1.83,1.76,2.96,2.68,3.45,2.68.35,0,.99-.42,2.04-1.2,1.06-.78,1.62-1.34,1.69-1.69-2.4-2.11-3.67-3.17-3.74-3.17-.35,0-.99.49-1.97,1.48ZM415.86,348.43c.14-1.2.21-2.11.21-2.75,0-.28,0-2.33-1.76-5.64-.85-1.48-1.69-2.61-2.47-3.45-2.04,3.52-3.1,5.22-3.1,5.15,0,.14.35.71,1.06,1.62.78,1.2,1.27,1.97,1.48,2.4.14.21.35.85.71,1.9.28.92.49,1.34.71,1.34h-14.45c-.49,0-1.69-.63-2.04-.7-.35-.07-.56-.28-.63-.49-.49-3.52-1.2-9.87-2.04-19.03l-.49-5c-1.34,1.34-2.4,2.54-3.24,3.6-.49.63-.78.99-.78,1.2l2.47,26.08h23.33c.35-1.55.71-3.6,1.06-6.2ZM551.14,345.97c-1.13-3.81-2.04-6.7-2.68-8.6-.07-.14-.21-.28-.42-.49-1.06-.07-3.24.63-6.42,2.11-1.34.63-2.68,1.76-3.88,3.38-1.06,1.48-1.83,2.89-2.33,4.3l-.92,2.33h-9.59c-3.53-2.96-7.97-7.26-13.39-12.9,5.78-1.62,10.08-2.75,12.9-3.52l1.13-5.29-8.11,1.9c-3.24.78-5.78,1.69-7.61,2.75-.92.56-1.48,1.69-1.76,3.38-.35,2.19-.56,3.52-.78,3.88l10.01,9.31c0,.35-.07.49-.21.49h-12.13c-.78,0-2.33-1.06-2.54-2.19-.07-.07-.07-.35-.07-.7l.56-6.56-1.97,1.9c-.85.78-1.41,1.55-1.62,2.26-.21.42-.28,1.27-.28,2.54.07,1.27-.07,2.19-.42,2.75h-14.73c-2.26,0-4.65-1.2-4.65-2.96,0,.07.07-.85.21-2.75.14-1.9.21-3.17.21-3.88l-3.45,4.09c-.14.92-.21,1.69-.14,2.33-.21,1.83-.42,2.89-.56,3.17h-19.32c-1.2,0-2.96-1.69-3.6-3.1-.14-.21-.21-.71-.21-1.48,0-1.06.21-2.33.63-3.67.14-.56.21-.78.21-.71v-.92h-.49c-.78.99-1.48,2.54-2.04,4.58-.56,1.9-.85,3.6-.85,5.15,0,2.4.71,4.02,2.19,4.86.99.63,1.76.92,2.33.92h19.67c.71-1.2,1.48-2.33,2.33-3.38.49,1.69,1.97,3.38,3.38,3.38h17.62l1.97-3.38c.35.99.71,1.62.99,1.9.85.99,1.69,1.48,2.54,1.48h13.46c1.34-1.97,2.4-3.31,3.03-4.09,1.76,1.76,3.03,3.1,3.95,4.09h10.51c.49-.42.99-1.27,1.48-2.47.42-1.06.99-1.69,1.76-1.97l10.71,3.88c1.9-2.96,2.89-4.58,3.1-4.93.35-.63.49-1.13.49-1.48,0-.63-.07-1.2-.21-1.69ZM539.79,344.2c0-.21.78-.78,2.26-1.34.63-.21,1.13-.35,1.55-.35.78,0,1.41.56,1.83,1.62.07.21.35,1.13.7,2.61l-6.34-2.54ZM314.76,338.99c-.35-.78-.78-1.2-1.34-1.2-.21,0-.71.14-1.48.49l-1.48.49c-1.83.35-3.67,1.55-5.5,3.45-1.76,1.9-2.96,3.81-3.53,5.71-.14.35-.28.71-.49.92h-11.07c.42-1.48.99-2.96,1.62-4.44-2.75-.07-6.42-.85-11.07-2.19-1.06-.28-2.82-1.06-5.29-2.26-1.62-.78-3.31-1.2-5.22-1.2-1.13,0-1.76,0-1.9.07-2.33.71-4.44,2.96-6.21,6.84h.71c1.2-.99,2.54-1.48,4.02-1.48,1.06,0,3.95.78,8.67,2.4.07.07.14.07.14.14-2.75,1.48-4.65,2.26-5.85,2.26h-12.48c-1.2,0-1.76-.56-1.83-1.62-.63-7.54-1.2-13.11-1.55-16.85-.21-1.9-.35-3.45-.56-4.72l-4.3,5.92,2.54,17.27h-9.17c-.92,0-1.48-.21-1.69-.7.49-1.83.71-2.96.71-3.31v-4.44l-1.2,1.13c-1.62,2.19-2.47,3.45-2.47,3.81,0,.07.14.56.35,1.34.21.78.35,1.27.35,1.34,0,.35,0,.63-.07.85h-5.15v-1.62l1.55-5.99c-2.61,2.18-4.02,3.74-4.37,4.58-.07,1.27-.07,2.26,0,3.03h-6.35c-.21,0-.42-.56-.42-.56-1.06-.78-1.9-1.9-2.68-3.38-.63-1.27-1.2-2.54-1.76-3.81-.63.92-1.55,2.18-2.61,3.95-.63,1.06-.99,1.62-.99,1.83,2.33,4.79,3.53,7.9,3.53,9.23,0,.92-1.55,1.9-4.72,2.89-2.75.85-4.94,1.27-6.42,1.27-2.04,0-3.74-.42-5.22-1.2-1.97-1.13-2.96-2.82-2.96-5,0-.92.85-3.52,2.54-7.9v-.99h-.56c-.99.63-2.12,2.61-3.31,5.92-1.2,3.31-1.83,6.13-1.83,8.32,0,4.58,3.31,6.84,9.94,6.84,2.54,0,5.15-.63,7.83-1.9,2.11-1.06,3.45-1.83,4.09-2.4,1.48-1.34,2.68-3.88,3.6-7.47h7.26l1.27-1.27c.42.56.7.99.78,1.27h7.61c.07-.49.28-1.06.63-1.69l1.27,1.69h8.74l2.4-3.24c.28.56.49,2.75,1.13,3.24h15.44c.35,0,1.76-.63,4.09-1.83l3.74-1.9,1.97-.63h2.89c-.35,0,1.13.07,4.44.14.35,1.55.63,2.96.71,4.23h13.82c.21,0,.85-1.06,2.04-3.1.35-.56.78-.92,1.34-1.13l10.5,3.67c1.69-2.4,2.75-4.09,3.17-5.01.14-.21.21-.63.21-1.27,0-.71-.07-1.27-.14-1.76-.92-3.17-1.76-5.5-2.4-7.05ZM312.29,347.16c-1.48-.63-3.59-1.48-6.27-2.4.78-.63,1.41-.99,1.97-1.2.92-.35,1.55-.49,1.83-.49.35,0,.71.14.99.35.78,1.34,1.27,2.4,1.48,3.17v.56ZM272.53,360.21c-.21,0-.85.56-1.97,1.62-1.13,1.06-1.69,1.69-1.69,1.83,0,.21.71.78,2.04,1.55,1.41.78,2.26,1.2,2.54,1.2.35,0,.99-.56,1.97-1.69.99-1.13,1.55-1.83,1.69-2.12-.49,0-1.34-.42-2.54-1.2-1.2-.78-1.9-1.2-2.04-1.2ZM339.01,329.47c2.33,1.48,3.74,2.19,4.09,2.19.14,0,.56-.42,1.34-1.27,1.13-1.2,1.76-1.83,1.83-1.97l-4.3-2.47c-1.76,1.48-2.61,2.26-2.54,2.26-.49,0-1.69-.78-3.67-2.26l-2.89,3.38c2.19,1.48,3.46,2.19,3.88,2.19.21,0,.99-.7,2.26-2.04ZM380.75,343.29c-1.06,1.34-1.62,2.04-1.62,2.18,0,.07.07.56.28,1.41l.28,2.11h-4.51v-1.76l1.34-5.85c-1.48,1.34-3.31,2.89-4.09,4.23-.35,1.48-.56,2.61-.63,3.38h-4.09c.21,0,.42-.49.49-.49-.28,0-.92.49-1.2.49-.71,0-1.48-.42-2.26-1.2,0-.14.42-1.48,1.27-4.09.49-1.55.71-2.75.63-3.52-2.19,2.19-3.74,3.81-4.58,5.01l-.14,1.97c-.21,1.2-.56,1.83-1.06,1.83h-8.6c-1.27,0-1.97-.28-2.12-.92-1.34-7.26-2.33-12.76-2.82-16.43-2.04,3.45-3.03,5.15-3.03,5,0,.28.49,1.34.56,1.69-1.34.92-2.82,1.83-4.37,2.68-2.33,1.34-3.59,2.54-3.95,3.52-1.41,4.3-2.12,6.34-2.12,6.06v.78l8.53,1.69c.78-.07,1.48-.78,2.12-2.12.63-1.34,1.27-2.19,1.83-2.4.49,1.9.78,3.38.99,4.3.14.49.49.92,1.13,1.41.21.21.49.35.71.35h9.16c.56,0,1.41-.63,2.61-1.97.21.85,1.27,1.97,2.12,1.97h7.12c.78,0,1.62-1.27,1.83-1.27.07,0,.28.42.78,1.27l7.26.14c.07,0,.28-.07.56-.14.07-.07.49-1.13,1.41-3.24.42-1.06.63-1.9.63-2.61v-8.25c-.56.49-1.41,1.41-2.47,2.75ZM346.7,346.88h-3.17c-.49,0-1.97-.35-4.3-1.06l2.89-1.34c1.27-.78,2.11-1.76,2.54-2.96.14-.49.49-.78,1.06-.99.63,2.75.99,4.51.99,5.29v1.06Z"/>
    <path class="cls-1" d="M234.08,457.33c0-1.98-.13-2.38-.88-2.38-.92,0-3.96.22-4.75.35.09.84.13,2.64.13,5.59v21.12c0,.75.26.88.92.88,1.01,0,3.96-.13,4.71-.35-.04-.88-.13-2.33-.13-5.41v-19.8ZM218.78,456.32c-.13-1.1-.4-1.36-.84-1.36-1.06,0-4,.26-4.66.62v.66c-1.85,4.49-4.8,12.41-7,18.17l-5.94-16.41c-.79-2.24-1.14-2.86-1.8-3.04-2.11,0-3.7.4-4.8.62l.13.84c-1.72,10.03-3.48,21.43-4.27,26.1.7.4,2.73.4,3.92.4.48,0,.7-.22.79-.7.66-5.15,1.98-15.23,2.6-20.64,1.98,5.98,5.85,17.65,6.91,21.08.88,0,1.94-.18,2.73-.31.97-.22,1.28-.57,1.58-1.45,2.82-8.27,5.41-15.58,6.64-19.41l1.28,11.05c.48,4.66.75,7.04,1.01,9.29.09.88.66,1.1,1.23,1.1.88,0,3.65-.18,4.4-.4-.4-2.11-.88-5.37-1.58-9.99l-2.33-16.19ZM277.78,457.33c0-1.98-.13-2.38-.88-2.38-.92,0-3.96.22-4.75.35.09.84.13,2.64.13,5.59v21.12c0,.75.26.88.92.88,1.01,0,3.96-.13,4.71-.35-.04-.88-.13-2.33-.13-5.41v-19.8ZM168.53,479.25c-1.67,0-3.08-.09-4.09-.31v-8.63h6.69c1.54,0,2.51-.57,2.9-3.65h-9.59v-7.88h4.58c1.98,0,3.48,0,4.14-.26.53-.57,1.06-1.41,1.32-3.39h-10.69c-1.8.04-3.74.31-4.97.62.13,1.85.13,3.43.13,5.54v20.33l.66.84c1.06.22,3.96.44,7.83.44,3.39,0,5.37-.09,5.98-.22,1.1-.62,1.94-1.63,2.33-3.52l-.09-.09c-2.11.18-5.33.18-7.13.18ZM260.22,456.41v12.28c0,2.2-.04,3.92.22,7.31-1.06-2.24-2.68-4.71-4.66-7.83-3.17-4.88-6.78-10.39-8.18-12.41-.44-.48-.79-.79-1.23-.79-.79,0-4.58.22-5.41.35v.22l.79,1.1v18.26c0,3.7-.04,6.25-.13,8.01,1.32.04,2.73-.04,3.52-.18.7-.13.97-.26.97-1.19v-11.53c0-2.24.04-4.53-.22-8.98,1.8,3.39,3.08,5.85,5.41,9.55,3.48,5.37,5.72,8.8,8.01,11.97.31.44.57.62,1.1.62,1.28,0,3.78-.53,4.18-.7v-19.41c0-3.65.04-6.2.13-8.1-1.01,0-2.2.04-3.56.18-.62.09-.92.26-.92,1.28ZM294.45,466.8c-4.09-2.33-5.55-3.39-5.55-5.46,0-1.94,1.67-3.04,4-3.04,1.41,0,3.3.57,4.31,1.1,1.54.09,2.24-1.72,2.24-2.82-1.1-1.14-4-2.11-6.34-2.11h-.04c-7.26,0-9.37,4.8-9.37,7.79,0,2.64.88,5.46,5.99,8.23,4.44,2.42,5.46,3.52,5.46,5.46,0,2.24-1.85,3.39-4.49,3.39-2.11,0-4.75-.97-6.34-2.07-.4.26-1.06,1.89-1.06,2.82,0,.57.26,1.01,1.01,1.5,1.14.84,3.39,1.72,6.42,1.72,5.19,0,9.95-2.95,9.95-8.41,0-4.18-2.24-5.85-6.2-8.1ZM95.66,469.83c1.76-.79,5.28-2.82,5.28-7,0-5.59-3.48-7.97-10.47-7.97-2.02,0-6.42.48-7.57.75.09,1.23.09,2.29.09,4.49v14.74c0,3.7-.04,6.29-.13,8.05.88,0,3.3-.04,4.53-.18.75-.09,1.01-.26,1.01-1.14v-10.17h.79c1.45,0,2.29.35,3.65,2.86,1.76,3.43,2.64,5.19,3.83,6.73,1.14,1.54,2.29,1.98,3.92,1.98s3.21-.18,3.56-.44v-.18c-1.1-1.19-2.51-3.17-4.62-6.86-1.5-2.6-2.86-4.8-3.87-5.68ZM92.63,467.94c-.62.31-3.04.44-4.22.31v-9.99c.53-.09,1.28-.13,1.89-.13,2.73,0,5.02,1.54,5.02,5.19,0,2.95-1.76,4.27-2.68,4.62ZM66.58,454.87c-3.04,0-6.03.35-7.22.53.18,2.02.18,3.83.18,5.94v20.77c0,.66.31.79.97.79,1.19,0,3.92-.13,4.66-.35-.04-.88-.13-2.16-.13-5.24v-18.88c.62-.09,1.23-.13,1.76-.13,2.6,0,5.41,1.32,5.41,5.5,0,4.44-2.73,5.59-4.93,5.59-.44,0-1.06-.04-1.41-.13,0,1.41.79,2.64,1.45,2.99.48.26,1.54.35,2.24.35,2.9-.04,8.36-2.46,8.36-8.8s-4.66-8.93-11.35-8.93ZM149.13,456.32c-.13-1.1-.4-1.36-.84-1.36-1.06,0-4,.26-4.66.62v.66c-1.85,4.49-4.8,12.41-7,18.17l-5.94-16.41c-.79-2.24-1.14-2.86-1.8-3.04-2.11,0-3.7.4-4.8.62l.13.84c-1.72,10.03-3.48,21.43-4.27,26.1.7.4,2.73.4,3.92.4.48,0,.7-.22.79-.7.66-5.15,1.98-15.23,2.6-20.64,1.98,5.98,5.85,17.65,6.91,21.08.88,0,1.94-.18,2.73-.31.97-.22,1.28-.57,1.58-1.45,2.82-8.27,5.41-15.58,6.65-19.41l1.28,11.05c.48,4.66.75,7.04,1.01,9.29.09.88.66,1.1,1.23,1.1.88,0,3.65-.18,4.4-.4-.4-2.11-.88-5.37-1.58-9.99l-2.33-16.19ZM114.01,457.33c0-1.98-.13-2.38-.88-2.38-.92,0-3.96.22-4.75.35.09.84.13,2.64.13,5.59v21.12c0,.75.26.88.92.88,1.01,0,3.96-.13,4.71-.35-.04-.88-.13-2.33-.13-5.41v-19.8ZM464.16,458.79c1.94,0,2.86,0,3.43-.26.57-.57,1.19-1.41,1.54-3.39-2.11,0-9.59-.04-11.18,0-1.94.09-4.53.44-5.32.66.09,1.54.13,2.73.13,4.66v21.61c0,.7.31.84.97.84,1.72,0,3.92-.13,4.66-.35-.09-3.3-.13-6.95-.13-11.35h6.73c1.72,0,2.77-.31,3.21-3.65h-9.95v-8.76h5.9ZM432.79,454.47h-.04c-8.98,0-14.3,6.34-14.3,14.65,0,6.64,4,14.17,14.17,14.17,9.33,0,14.21-6.78,14.21-14.65s-5.15-14.17-14.04-14.17ZM433.01,479.86c-4.62,0-8.63-3.92-8.63-11.27s3.56-10.69,7.88-10.69h.04c5.46,0,8.67,4.88,8.67,11.13,0,6.87-3.04,10.83-7.96,10.83ZM521.97,458.26c2.42,0,4.49.62,5.81,1.19,1.41.22,2.42-1.28,2.33-2.77-.7-.79-3.92-2.2-8.1-2.2-8.71,0-15.62,5.59-15.62,14.7,0,8.41,5.41,14.13,15.45,14.13,2.95,0,5.28-.79,6.38-1.5.75-.7,1.32-1.98,1.45-3.48l-.13-.09c-1.14.35-3.48,1.1-6.42,1.1-7,0-10.83-4.58-10.83-10.56,0-7.04,4.36-10.52,9.68-10.52ZM500.41,457.33c0-1.98-.13-2.38-.88-2.38-.92,0-3.96.22-4.75.35.09.84.13,2.64.13,5.59v21.12c0,.75.26.88.92.88,1.01,0,3.96-.13,4.71-.35-.04-.88-.13-2.33-.13-5.41v-19.8ZM485.23,458.79c1.94,0,2.86,0,3.43-.26.57-.57,1.19-1.41,1.54-3.39-2.11,0-9.59-.04-11.18,0-1.94.09-4.53.44-5.32.66.09,1.54.13,2.73.13,4.66v21.61c0,.7.31.84.97.84,1.72,0,3.92-.13,4.66-.35-.09-3.3-.13-6.95-.13-11.35h6.73c1.72,0,2.77-.31,3.21-3.65h-9.95v-8.76h5.9ZM398.07,466.8c-4.09-2.33-5.54-3.39-5.54-5.46,0-1.94,1.67-3.04,4-3.04,1.41,0,3.3.57,4.31,1.1,1.54.09,2.24-1.72,2.24-2.82-1.1-1.14-4-2.11-6.34-2.11h-.04c-7.26,0-9.37,4.8-9.37,7.79,0,2.64.88,5.46,5.99,8.23,4.44,2.42,5.46,3.52,5.46,5.46,0,2.24-1.85,3.39-4.49,3.39-2.11,0-4.75-.97-6.34-2.07-.4.26-1.06,1.89-1.06,2.82,0,.57.26,1.01,1.01,1.5,1.14.84,3.39,1.72,6.42,1.72,5.19,0,9.95-2.95,9.95-8.41,0-4.18-2.24-5.85-6.21-8.1ZM365.51,469.83c1.76-.79,5.28-2.82,5.28-7,0-5.59-3.48-7.97-10.47-7.97-2.02,0-6.42.48-7.57.75.09,1.23.09,2.29.09,4.49v14.74c0,3.7-.04,6.29-.13,8.05.88,0,3.3-.04,4.53-.18.75-.09,1.01-.26,1.01-1.14v-10.17h.79c1.45,0,2.29.35,3.65,2.86,1.76,3.43,2.64,5.19,3.83,6.73,1.14,1.54,2.29,1.98,3.92,1.98s3.21-.18,3.56-.44v-.18c-1.1-1.19-2.51-3.17-4.62-6.86-1.5-2.6-2.86-4.8-3.87-5.68ZM362.48,467.94c-.62.31-3.04.44-4.22.31v-9.99c.53-.09,1.28-.13,1.89-.13,2.73,0,5.02,1.54,5.02,5.19,0,2.95-1.76,4.27-2.68,4.62ZM551.67,479.07c-2.11.18-5.32.18-7.13.18-1.67,0-3.08-.09-4.09-.31v-8.63h6.69c1.54,0,2.51-.57,2.9-3.65h-9.59v-7.88h4.58c1.98,0,3.48,0,4.14-.26.53-.57,1.06-1.41,1.32-3.39h-10.69c-1.8.04-3.74.31-4.97.62.13,1.85.13,3.43.13,5.54v20.33l.66.84c1.06.22,3.96.44,7.83.44,3.39,0,5.37-.09,5.98-.22,1.1-.62,1.94-1.63,2.33-3.52l-.09-.09ZM381.75,452.63c-1.14,0-2.42.57-3.34.97.13.48.22,1.14.22,1.85,0,2.64-.88,5.46-2.2,7.57,1.45.04,2.64-.13,3.52-.88,1.76-1.36,3.39-4.58,3.39-7.08v-.04c0-1.32-.53-2.38-1.58-2.38ZM340.74,479.25c-1.67,0-3.08-.09-4.09-.31v-8.63h6.69c1.54,0,2.51-.57,2.9-3.65h-9.59v-7.88h4.58c1.98,0,3.48,0,4.14-.26.53-.57,1.06-1.41,1.32-3.39h-10.69c-1.8.04-3.74.31-4.97.62.13,1.85.13,3.43.13,5.54v20.33l.66.84c1.06.22,3.96.44,7.83.44,3.39,0,5.37-.09,5.98-.22,1.1-.62,1.94-1.63,2.33-3.52l-.09-.09c-2.11.18-5.32.18-7.13.18ZM304.79,454.91c-.44.48-.97,1.23-1.45,2.55-.31,1.01.04,1.32.75,1.32h7.92v23.32c0,.66.31.79.92.79,1.76,0,3.48-.13,4.71-.35-.04-.88-.13-2.33-.13-5.37v-18.39h7c.92-.22,2.11-1.32,2.29-3.65h-15.67c-4.44,0-5.63-.04-6.34-.22Z"/>
  </g>
  <path class="cls-1" d="M292.26,210.1c-.32-.03-.65-.06-.97-.1-.32-.03-.65-.06-.97-.1.04-.3.08-.59.12-.88.05-.42.42-.75.89-.79.07,0,.1,0,.15-.02.36-.03.7-.12,1-.24-.07.71-.14,1.42-.21,2.14M302.99,212.43c.05-2.48.11-4.96.17-7.43-.94.77-1.9,1.53-2.87,2.28.75.2.91.71.89,1.22-.03.74-.05,1.47-.08,2.2-.65-.02-1.29-.05-1.93-.08.1-1.92.19-3.83.29-5.75-.96.75-1.94,1.48-2.93,2.2.74.22.91.75.88,1.25-.05.73-.09,1.47-.14,2.2-1.03-.06-2.06-.14-3.08-.23.38-4.48.75-8.95,1.14-13.45-.93.72-1.89,1.42-2.85,2.12.68.24.81.75.76,1.26-.16,1.61-.32,3.23-.47,4.84-.08.75-.64,1.11-1.08,1.28-.3.14-.55.18-.58.24-1.31.09-2.43,1-2.59,2.23l-.32,2.55c.76.09,1.53.18,2.3.27.21.02.42.05.63.07,1.08.12,2.17.21,3.26.3,2.87.24,5.74.39,8.62.45M283.4,210.66c.64.1,1.27.2,1.91.29.56-3.84,1.12-7.67,1.68-11.5.07-.5.33-.98,1.06-1.04-.77-.91-1.52-1.82-2.26-2.74-.8,5-1.6,9.98-2.39,14.99M276.09,207.56c-.32-.07-.64-.14-.95-.21-.32-.07-.63-.14-.94-.21.05-.22.1-.44.15-.66.37-.2.75-.4,1.11-.6.25.34.51.68.77,1.02-.05.22-.09.44-.15.66M281.04,197.23c.68.3.76.83.67,1.33-.61,3.25-1.22,6.51-1.83,9.76-.64-.12-1.27-.24-1.9-.37.09-.44.17-.88.26-1.33-.77-1.02-1.52-2.04-2.25-3.07-1.1.62-2.22,1.23-3.35,1.82-.11.43-.22.87-.33,1.31-.63-.16-1.27-.32-1.9-.48.48-1.85.96-3.71,1.44-5.56-1.1.53-2.21,1.05-3.33,1.55.68.36.73.9.59,1.4-.19.71-.39,1.41-.58,2.13-.28-.08-.55-.15-.83-.23,0,0,0-.01,0-.02-.52-.15-1.05-.3-1.57-.45-.02-.67.09-1.34.22-2,.43-2.07,1-4.43-1.61-7.22-.75.35-1.51.7-2.28,1.05,1.84.55,2.58,2.26,2.87,3.61.26,1.64-.63,2.88-.16,4.27-.91-.27-1.81-.54-2.71-.83,0,0,0-.01,0-.01.07-.22.14-.43.21-.65.44-1.4-.49-2.98-2.08-3.53-.11-.04-.23-.08-.34-.12-3.52-1.23-7-2.61-10.44-4.13.23-.52.46-1.04.69-1.55.2-.45.68-.59,1.18-.37-.52-1.15-1.03-2.3-1.52-3.46-.94,2.04-1.88,4.08-2.82,6.13,4.16,1.91,8.4,3.62,12.7,5.1.61.21.95.81.78,1.33-.08.22-.15.43-.22.65-.2.58-.4,1.16-.6,1.75-.39.17-.78.33-1.18.49-.22-.39-.44-.77-.66-1.16.2-.57.41-1.15.6-1.72-.45-.16-.91-.32-1.36-.49-.16-.06-.32-.11-.47-.17-3.48-1.28-6.91-2.7-10.29-4.25-.24.51-.48,1.02-.71,1.54,3.43,1.58,6.9,3.01,10.41,4.3-.09.27-.19.52-.29.79.65,1.14,1.31,2.27,1.99,3.41,1.22-.46,2.42-.94,3.62-1.42.08-.28.17-.56.27-.84,1.35.44,2.71.86,4.07,1.25.26.4.59.72,1.01,1.01-.19-.28-.34-.57-.47-.86,1.14.33,2.27.64,3.41.93,1.59.41,3.18.8,4.78,1.15,1.59.36,3.19.68,4.8.99.07,0,.14.03.21.04.56.11,1.13.21,1.7.31h.02c.87-4.99,1.72-9.97,2.58-14.95-1,.63-2,1.24-3.03,1.85M299.88,214.02c-.55-.02-1,.33-1.02.79-.02.47.39.86.95.89.56.02,1-.33,1.02-.8.01-.46-.4-.85-.95-.88M293.81,9.04c.74,0,1.34.57,1.34,1.28-.4-.4-1.96-.73-2.68,0,0-.71.6-1.28,1.34-1.28M297.17,10.7c-.57,4.24-6.01,4.24-6.2,1.1.97,3.41,6.25,1.62,4.7-2.16,2.07-.79,3.63-.85,5.31-1.12-4.34-.68-9.45-1.21-12.62.24-1.55.7-1.11,1.65-.88,2.04.25-.83,1.64-.88,2.62-.55-.75,6.39,7.42,5.63,7.07.45M243.04,196.02c-.3-.15-.6-.3-.9-.45-.3-.16-.59-.31-.89-.47.13-.25.26-.5.39-.76.19-.37.67-.53,1.15-.39.06,0,.1.03.15.03.35.09.71.13,1.04.13-.32.64-.63,1.27-.94,1.91M247.16,185.65c.58.48.51,1.01.29,1.47-.72,1.46-1.44,2.91-2.16,4.36-.33.66-.99.79-1.49.81-.33.02-.6-.04-.63,0-1.29-.39-2.66.06-3.25,1.15-.4.75-.82,1.5-1.2,2.27.88.47,1.77.92,2.67,1.38.9.45,1.8.9,2.71,1.33,2.18-4.57,4.35-9.13,6.53-13.7-1.15.33-2.3.65-3.47.94M295.95,213.8c-.55-.03-1.02.31-1.06.76-.04.47.39.87.94.91.54.04,1.01-.3,1.04-.77.02-.45-.4-.87-.93-.9M293.6,213.61c-.55-.05-1.03.29-1.08.75-.04.47.37.88.93.92.53.05,1.01-.28,1.05-.75.03-.45-.38-.87-.91-.92M271.39,199.46c.48.13.98-.12,1.1-.58.11-.44-.19-.91-.67-1.04-.49-.13-.99.13-1.11.57-.13.46.18.92.68,1.05M269.26,198.88c.48.14.98-.1,1.11-.56.12-.44-.18-.92-.65-1.06-.5-.14-1,.12-1.12.55-.14.45.17.92.67,1.06M290.55,200.08c.5.06.93-.28.98-.75.05-.45-.29-.88-.78-.93-.47-.06-.92.27-.98.73-.06.47.3.9.77.95M336.64,201.57c.49-.11.81-.58.71-1.02-.11-.46-.6-.74-1.08-.63-.5.11-.81.57-.71,1.03.1.45.57.74,1.08.62M245.83,184.2c.46.24.97.09,1.18-.33.21-.41.04-.92-.41-1.16-.43-.22-.97-.07-1.18.33-.22.42-.03.93.41,1.16M290.8,198.06c.5.06.91-.26.96-.73.05-.45-.28-.88-.76-.93-.47-.06-.91.27-.97.73-.06.47.29.89.77.94M334.47,202.05c.49-.11.82-.57.72-1.01-.1-.47-.59-.75-1.08-.65-.5.1-.83.56-.74,1.03.09.45.58.74,1.09.63M244.89,186.01c.46.24.99.08,1.2-.34.21-.41.03-.92-.42-1.16-.43-.23-.98-.08-1.19.32-.23.41-.03.95.41,1.18M295.8,96.38c-.18-3.17-.3-6.76-.3-10.67,0-3.55.1-6.75.25-9.58,8.97-.8,21.82-1.04,33.68,2.05.85,2.54,1.33,5.26,1.33,8.09s-.47,5.53-1.32,8.06c-11.84,3.08-24.66,2.86-33.64,2.05M305.39,111.64c-2.83,0-5.61-.47-8.26-1.38-.21-1.36-.83-5.84-1.24-12.36,8.84.77,21.26.98,32.91-1.87-3.83,9.16-12.88,15.61-23.41,15.61M280.01,86.27c0-10.24,6.21-19.48,15.58-23.41-.49,3.03-1.58,11.11-1.58,22.85s1.07,20.72,1.52,23.94c-9.33-3.94-15.52-13.18-15.52-23.38M297.21,62.24c2.63-.9,5.37-1.35,8.18-1.35,10.53,0,19.57,6.44,23.41,15.59-11.69-2.84-24.13-2.63-32.96-1.86.43-6.74,1.14-11.07,1.37-12.38M305.39,59.4c-3.12,0-6.18.53-9.08,1.58-10.64,3.82-17.79,13.99-17.79,25.3s7.11,21.41,17.69,25.26c2.94,1.07,6.03,1.61,9.19,1.61,14.82,0,26.87-12.06,26.87-26.87s-12.05-26.87-26.87-26.87M368.05,201.7c-.26.12-.54.05-.63-.17-.1-.22.02-.47.28-.59.09-.04.2-.08.29-.06-.91-.29-1.74.7-1.04,1.32-.25.15-.43.16-.57.02-.17.33-.33.67-.49,1,1.22-.54,2.43-1.1,3.64-1.67-.39-.12-.78-.25-1.17-.38.07.19-.07.42-.31.53M381.34,87.18v-2.99c0-1.5,0-2.98,0-3.68.02-2.82-.45-6.57-3.13-8.4.81,3.16.26,3.72.26,9.04v6.64c0,1.95.27,3.65.74,5.13-3.11-1.5-6.43-4.78-6.43-10.55,0-1.93-.47-9.91-2.87-13.23v13.83c0,1.82.23,3.42.65,4.83-7.3-3.7-6.57-16.28-8.94-21.17,0,4.23.09,7.19.09,11.41,0,2.08.31,3.87.83,5.42-6.39-4.07-7.12-12.06-7.63-18.03-.62,2.21-1.63,8.03.11,13.53-4.28-3.27-6.67-10.26-6.38-15.25-.63,2.74-1.29,6.85.05,10.99-.24,4.69-.19,41.73-.19,45.77-2.43-2.01-4.93-5.65-4.66-11.18.08-.91.18-1.76.31-2.58,1.71-11.56,2.06-28.22-2.72-41.54,3.85,20.81-.95,42.21-1.63,46.52-1.2,7.69,1.41,23.63,6.84,41.31-1.05-1.05-4.67-2.56-6.12-4.01,0,1.59.58,3.32.58,6.81-1.86-3.12-2.58-3.25-4.55-6.71.62,4.07.44,4.43.44,7.94-1.93-3.64-2.97-8.47-7.39-15.38-9.85-15.38-24.06-5.84-24.06-3.16,0-2.68-14.2-12.22-24.04,3.16-4.43,6.91-5.46,11.75-7.4,15.38,0-3.51-.17-3.87.45-7.94-1.98,3.46-2.69,3.59-4.55,6.71,0-3.49.58-5.21.58-6.81-1.46,1.45-5.07,2.96-6.12,4.01,5.43-17.68,8.05-33.62,6.84-41.31-.68-4.31-5.48-25.71-1.62-46.52-4.78,13.32-4.43,29.98-2.72,41.54.12.82.22,1.68.31,2.59.27,5.55-2.24,9.18-4.69,11.2,0-4.04.06-41.05-.18-45.8,1.35-4.14.68-8.25.05-10.99.3,4.99-2.09,11.98-6.37,15.25,1.74-5.49.73-11.31.1-13.53-.5,5.97-1.23,13.96-7.62,18.03.52-1.55.83-3.34.83-5.42,0-4.22.1-7.19.1-11.41-2.39,4.89-1.66,17.47-8.95,21.17.41-1.41.64-3.01.64-4.83v-13.83c-2.4,3.32-2.87,11.29-2.87,13.23,0,5.77-3.32,9.05-6.43,10.54.47-1.48.75-3.17.75-5.13v-6.64c0-5.32-.56-5.88.26-9.04-2.68,1.83-3.15,5.57-3.13,8.4,0,.7,0,2.17,0,3.68h0v2.99c0,6.02-3.63,9.34-6.84,10.74.55-.72,1.15-2.68,1.15-5.59v-29.05c0-8.16,9.53-17.54,13.06-21.68,9.77-11.44,14.02-2.14,23.85,1.19,16.35,5.54,25.07-.65,25.07-.65,8.73-5.49,8.76-10.68,8.76-13.92,0-2.19-.84-5.04-2.44-6.87-2.99-2.98-8.29-3.94-9.23-3.76-1.99,1.02-3.76,1.03-4.12,1.31-.91-1.83-.68-4.61,3.43-6.89,1.16-.64.73-2.1,4.25-4.15,10.27-5.99,20.32-3.82,26.19,2.73-2.07-.75-4.07-1.45-7.56-1.78,4.91,1.7,10.72,5.76,14.48,12.52,1.54,2.68,5.01,10.08,6.23,12.32,2.62,4.77,7.36,14.78,24.05,9.14,9.84-3.32,14.09-12.63,23.86-1.19,3.52,4.14,13.05,13.52,13.05,21.68v29.05c0,2.91.6,4.87,1.15,5.59-3.21-1.4-6.84-4.72-6.84-10.74M381.35,109.85v-8.3c0-1.37-.05-2.58-.14-3.65.48.18.93.34,1.34.5,1.38,1.38,2.96,2.37,4.48,3.13v13.44c0,2.91.6,4.88,1.15,5.6-3.21-1.41-6.81-4.71-6.83-10.71M381.47,138.03c0-.97-.13-9.04-.13-10.61,0-1.74-.08-4.7-.23-6.93.52.2.99.38,1.43.54,1.38,1.36,2.96,2.36,4.48,3.11v17.16c0,2.91.6,4.88,1.15,5.59-2.86-1.24-6.71-4.68-6.71-8.87M381.47,181.56v-6.43h0c0-4.05-.12-7.57-.12-8.78v-9.57c0-.82-.02-4.99-.05-10.37.18.08.37.15.54.21,1.54,1.77,3.4,2.98,5.19,3.87v34.33c0,2.92.6,4.89,1.15,5.6-2.86-1.24-6.71-4.83-6.71-8.87M372.79,105.01v-8.39c0-1.48-.05-2.73-.13-3.78.33.12.65.25.95.36,1.49,1.6,3.25,2.72,4.93,3.55.03,1.76-.06,3.6-.06,5.45v8.22c0,1.96.27,3.66.74,5.14-3.11-1.49-6.43-4.78-6.43-10.54M372.79,130.88v-8.4c0-1.49-.05-4.63-.14-7.02.33.13.66.25.96.37,1.49,1.58,3.25,2.71,4.92,3.53.07,2.8-.05,6.65-.05,8.69v7.95c0,.2,0,.39.01.58,0,0-.01,0-.01,0v.18c0,1.76.22,3.31.6,4.68-2.81-1.28-6.29-4.9-6.29-10.57M372.79,160.25v-8.39c0-1.46-.05-6.83-.13-10.93,1.67,2.22,3.87,3.51,5.87,4.4-.03,6.2-.05,11.16-.05,12.1v7.96c0,2.91,0,4.6.55,5.32-2.39-1.05-6.23-4.44-6.23-10.46M364.58,100.09v-7.61c0-1.57.02-2.62-.02-3.49.77.3,1.6.56,2.49.79.93.72,1.9,1.33,2.86,1.83,0,.28,0,.56,0,.82v13.18c0,1.8.22,3.39.63,4.79-2.96-1.59-5.96-4.83-5.96-10.31M364.58,123.19v-7.6c0-2.9-.08-2.89-.08-4.31.81.34,1.56.63,2.24.88,1.02.83,2.11,1.52,3.17,2.07,0,1.72,0,3.65,0,4.06v13.18c0,.6.02,1.15.06,1.69-2.76-1.68-5.39-4.85-5.39-9.98M369.91,147.67v13.03c-2.74-1.71-5.33-4.86-5.33-9.94v-7.61c0-2.22-.05-7.21-.08-10.19,1.54,2.03,3.5,3.39,5.39,4.38.02,3.55.01,9.79.01,10.33M357.42,96.3v-7.64c0-1.97-.04-3.41-.14-4.49.28.15.58.3.87.45.96,1.09,2.13,2.1,3.55,2.97.02.64.02,1.27.02,1.85v11.25c0,2.09.31,3.88.83,5.43-2.66-1.73-5.13-4.85-5.13-9.82M357.42,116.76v-7.64c0-.86-.01-1.62-.03-2.29.36.2.74.4,1.12.58.98.99,2.05,1.78,3.14,2.43.08.91.07,1.86.07,2.71v11.25c0,.8.05,1.56.14,2.28-2.38-1.81-4.43-4.8-4.43-9.32M361.71,140.1v9.44c-2.33-1.82-4.3-4.78-4.3-9.22v-7.65c0-1.42-.02-4.08-.07-6.15,1.23,1.62,2.74,2.83,4.27,3.75.11,3.23.09,8.88.09,9.83M350.09,94.36c0-1.74-.13-10.91-.15-16.89,1,1.72,2.44,3.4,4.48,4.91.23,1.69.12,3.8.12,5.28v9.25c0,1.73.21,3.24.58,4.61-2.8-2.07-5.04-4.62-5.04-7.15M349.99,99.99c.91,1.66,2.46,3.42,4.57,5.02.01,1.1-.02,2.21-.02,3.09v7.63c-2.52-1.97-4.46-4.34-4.46-6.7,0-1.06-.05-4.87-.09-9.04M354.54,131.66v5.46c-2.52-1.97-4.46-4.34-4.46-6.7,0-1.65-.13-9.91-.15-15.86.9,1.67,2.44,3.45,4.55,5.06.15,3.48.05,10.72.05,12.04M347.73,163.4c.34.78.25,2.32.6,3.03.35.71,1.14,1.21,1.37,1.57.29.48.18,1.7.57,2.56.19.4.38.8.58,1.16-.26.28-.47.6-.66.9-.59-1.33-2.05-1.48-3.15-.79-.56.36-1.21.91-1.73,1.77.21-1.51-.07-1.99-.65-2.57-.86-.86-.52-2.68-1.22-3.77-.54-.84-1.54-1.11-2.18-2.42-.64-1.3-.33-1.99-.98-3.28-.74-1.47-.92-1.93-.96-3.91.84,1.08,1.8,1.97,3.1,3.29.46-3.08.5-3.82.5-6.48,1.31,1.11,2.64,2.77,3.07,3.9.25.67.49,2.63.59,2.95.32,1.01.78,1.33,1.13,2.1M353.45,172.39c1.37.1.62,6.06,1.62,8.14,1.03,2.1.58,3.85-1.36,3.66-1.99-.18-1.87-6.22-1.89-7.28,0-1.49-.75.8-1.16,1.64-.08-.37-.17-.77-.23-1.2-.15-1.02-.04-1.67.04-2.31.53-1.41,1.59-2.76,2.98-2.66M355.2,174.81c.55-1.79,2.03-4.28,3.74-3.89,1.34.3.06,4.59.87,6.7,1.58,4.1-.64,5.49-2.54,5.01-2.13-.53-1.19-6.27-1-7.1.05-1.35-.65-.02-1.14.73-.1-.34-.17-.58.07-1.46M361.55,175.67l12.58,8.59v18.1c-20,11.32-42.4,17.9-65.49,18.38h-.38s-1.75,1.45-2.6,2.16h0s0,0,0,0c-.85-.71-2.6-2.16-2.6-2.16h-.38c-23.09-.48-45.49-7.05-65.47-18.38l-.02-18.1,12.57-8.59c.31.17.62.35.93.52.05,1.81-1.22,2.73-.93,4.58.23,1.54,1.18,2.64,2.3,3.15.3.68.85,1.23,1.6,1.54.77.28.67-.38.66-1.35.17-.05.33-.1.5-.18.21.73.69,1.27,1.3,1.58.27.56.78,1.06,1.77,1.72.98.46.32-.61.14-1.57.36-.09.73-.25,1.09-.49.13.3.31.56.58.75.08.07.18.14.27.2.25,1,.95,1.58,2.01,2.19.72.23.44-.58.37-1.34.99.01,1.87-.54,2.26-2.16.19-.77.17-1.25.13-1.66,11.93,5.07,24.83,8.52,37.44,8.91.44.34,3.47,2.62,3.47,2.62,0,0,3.03-2.28,3.48-2.62,12.54-.39,25.36-3.8,37.23-8.83-.03.4-.03.87.15,1.58.39,1.62,1.26,2.17,2.25,2.16-.07.77-.34,1.58.37,1.34,1.08-.6,1.77-1.18,2.02-2.19.09-.06.19-.12.28-.19.26-.18.45-.45.58-.75.36.24.72.4,1.09.49-.18.96-.85,2.02.14,1.57.98-.66,1.49-1.16,1.76-1.72.61-.31,1.09-.85,1.3-1.58.16.08.33.14.5.18-.01.98-.11,1.64.66,1.35.75-.31,1.31-.86,1.61-1.54,1.12-.5,2.07-1.6,2.3-3.15.28-1.82-.93-2.74-.93-4.48.37-.2.74-.41,1.1-.62M251.33,177.63c.81-2.1-.48-6.4.85-6.7,1.71-.39,3.2,2.09,3.75,3.9.17.5.14,1.28.07,1.45-.49-.76-1.19-2.09-1.14-.74.19.83,1.14,6.56-1,7.1-1.9.48-4.11-.91-2.53-5.01M257.69,172.39c1.39-.1,2.44,1.24,2.98,2.66.08.63.18,1.28.04,2.31-.06.42-.14.82-.24,1.2-.4-.84-1.16-3.13-1.16-1.64,0,1.06.1,7.09-1.89,7.28-1.94.18-2.38-1.56-1.36-3.66,1.01-2.08.26-8.03,1.63-8.14M264.6,176.95c-1.64,2.95-.18,8.48-2.05,8.6-5.36.35-1.39-6.38-1.18-8.05.25-2.14.02-5.27,2.11-4.62,1.88.57,4.26,6.65,5.42,8.47,0,.02.03.04.06.06-.43-.17-.85-.34-1.27-.52.12.04.22.08.27.08-1.91-.75-3.02-5.38-3.35-4.02M347.65,172.88c2.09-.65,1.87,2.48,2.11,4.62.19,1.67,4.18,8.4-1.18,8.05-1.87-.12-.41-5.65-2.05-8.6-.29-1.22-1.19,2.57-2.76,3.89-.51.22-1.03.42-1.55.63,1.24-2.09,3.63-8.04,5.44-8.59M318.42,173.67c1.34,7.8-6.35,8.23-7.5,2.22-.14-.76-.35-3.07-.59-6.15-.58-10.48-1.44-27.09-1.49-30.22,1.3-.83,2.85-1.45,4.42-1.87.85,5.91,4.8,33.93,5.16,36.02M319.19,137.24c.83.16,1.52.44,2.02.85.75.52,1.58,1.24,2.46,2.11,1.38,5.24,6.99,26.22,7.49,28.32.61,2.53,1.27,4.83,2.33,5.9-3.39.64-5.79,0-6.58-3.08-1.02-4.83-6.33-28.8-7.72-34.1M324.91,171.46c.44,2.58,2.5,6.25.15,6.81-3.65.9-3.98-1.14-4.57-4.27-.02-.09-5.15-33.63-5.87-36.65,1.17-.22,2.32-.3,3.35-.25.75,3.69,6.58,32.28,6.94,34.36M302.87,174.65c0-4.07.63-30,.75-34.18,1.03.9,1.75,1.96,1.94,3.15.21-1.18.92-2.24,1.96-3.15.11,4.18.74,30.11.74,34.18,0,4.42-1.16,6.02-2.7,6.93-1.53-.91-2.69-2.51-2.69-6.93M277.97,168.25c-1,3.53-3.4,7.21-3.97,7.77,2.08.78,5.86,1.4,8.54.34-.39,1.39-.36,2.66.83,3.85,1.46,1.46,5.57,2.51,7.56-.92,1.61,5.71,7.76,5.44,10.19,1.45,1.05,3.31,3.21,3.73,4.46,4.98,1.25-1.25,3.42-1.66,4.47-4.98,2.41,3.99,8.58,4.26,10.18-1.45,2,3.43,6.11,2.38,7.56.92,1.18-1.19,1.2-2.46.83-3.85,2.67,1.06,6.45.44,8.53-.34-.56-.57-2.98-4.24-3.98-7.77-1.22-4.29-5.68-19.76-7.69-26.11,5.44,6.25,11.66,16.85,12.06,22.42.17-.79.53-1.75.87-2.8,1.25,2.61,4.27,7.95,4.78,9.2.52,1.32.67,2.18.29,3.93-.27,1.27-1.43,5.11-3.89,7.57,0,0,0,.01.01.02-9.87,3.67-20.26,5.95-30.91,6.24-.87.71-3.02,2.33-3.02,2.33,0,0-2.14-1.61-3.01-2.33-10.63-.29-20.98-2.56-30.81-6.21,0,0,.01-.02.02-.03-2.47-2.47-3.93-6.33-4.21-7.6-.38-1.75-.23-2.61.3-3.93.5-1.25,3.52-6.6,4.77-9.2.33,1.04.7,2.01.86,2.8.41-5.57,6.64-16.16,12.07-22.42-2.01,6.34-6.48,21.83-7.7,26.11M284.22,171.34c-.79,3.08-3.19,3.72-6.58,3.08,1.06-1.07,1.72-3.37,2.33-5.9.5-2.1,6.11-23.08,7.5-28.32.87-.87,1.7-1.58,2.45-2.1.5-.41,1.19-.69,2.02-.85-1.41,5.3-6.7,29.27-7.72,34.1M297.88,137.65c1.58.42,3.13,1.05,4.43,1.87-.06,3.15-.91,19.73-1.5,30.21-.24,3.08-.44,5.39-.59,6.16-1.15,6.01-8.83,5.58-7.5-2.22.36-2.09,4.31-30.11,5.16-36.02M290.65,174c-.59,3.14-.91,5.17-4.56,4.27-2.36-.56-.3-4.23.14-6.81.38-2.23,6.11-30.14,6.95-34.36,1.03-.06,2.17.03,3.34.25-.73,3.02-5.85,36.57-5.87,36.65M260.87,170.56c.38-.85.28-2.08.57-2.56.22-.36,1.01-.86,1.37-1.57.35-.71.26-2.25.61-3.03.34-.77.81-1.09,1.13-2.1.1-.33.33-2.28.59-2.95.43-1.13,1.75-2.79,3.07-3.9,0,2.66.03,3.4.5,6.48,1.3-1.32,2.26-2.21,3.1-3.29-.04,1.98-.22,2.44-.96,3.91-.66,1.29-.33,1.99-.98,3.28-.64,1.31-1.64,1.58-2.18,2.42-.71,1.09-.36,2.91-1.22,3.77-.58.58-.86,1.07-.65,2.57-.51-.86-1.17-1.41-1.73-1.77-1.09-.69-2.55-.54-3.14.78-.19-.3-.41-.62-.66-.9.2-.36.4-.76.58-1.16M261.04,94.36c0,2.54-2.24,5.08-5.03,7.15.37-1.36.58-2.88.58-4.61v-9.25c0-1.48-.12-3.59.11-5.28,2.05-1.51,3.49-3.19,4.49-4.91-.02,5.98-.15,15.15-.15,16.89M256.56,105c2.1-1.58,3.64-3.34,4.56-4.99-.04,4.15-.09,7.95-.09,9.01,0,2.36-1.92,4.72-4.44,6.7v-7.62c0-.88-.04-1.99-.03-3.1M261.02,130.42c0,2.35-1.92,4.72-4.44,6.69v-5.44c0-1.32-.09-8.57.05-12.05,2.1-1.61,3.64-3.4,4.53-5.05-.02,5.95-.14,14.21-.14,15.86M253.71,88.66v7.64c0,4.97-2.48,8.1-5.14,9.82.52-1.55.84-3.34.84-5.43v-11.25c0-.58,0-1.22.02-1.85,1.41-.87,2.58-1.88,3.54-2.97.3-.15.58-.3.87-.45-.09,1.08-.13,2.53-.13,4.49M249.28,126.08c.08-.72.13-1.48.13-2.28v-11.25c0-.85,0-1.79.07-2.71,1.09-.66,2.17-1.45,3.15-2.43.38-.18.75-.38,1.1-.58,0,.67-.01,1.43-.01,2.29v7.64c0,4.52-2.06,7.52-4.43,9.32M253.71,132.67v7.65c0,4.44-1.97,7.4-4.3,9.22v-9.44c0-.95-.02-6.6.09-9.83,1.53-.92,3.04-2.13,4.27-3.75-.05,2.07-.07,4.73-.07,6.15M246.54,115.59v7.6c0,5.13-2.63,8.3-5.39,9.98.04-.54.06-1.09.06-1.69v-13.18c0-.41,0-2.34,0-4.06,1.07-.55,2.15-1.24,3.17-2.08.67-.25,1.43-.53,2.23-.88,0,1.42-.08,1.41-.08,4.31M246.54,143.14v7.61c0,5.08-2.58,8.23-5.33,9.94v-13.03c0-.54,0-6.79,0-10.32,1.9-1,3.86-2.36,5.4-4.39-.02,2.98-.07,7.97-.07,10.19M240.58,110.39c.41-1.4.63-2.99.63-4.79v-14c.96-.5,1.93-1.1,2.86-1.83.89-.23,1.71-.5,2.49-.79-.04.87-.02,1.92-.02,3.49v7.61c0,5.48-3,8.72-5.96,10.31M238.34,122.48v8.4c0,5.67-3.49,9.29-6.29,10.56.39-1.37.61-2.91.61-4.67v-.18s0,0,0,0c0-.19,0-.38,0-.58v-7.95c0-2.04-.12-5.89-.06-8.69,1.68-.83,3.43-1.95,4.92-3.53.3-.12.62-.25.95-.37-.08,2.39-.14,5.52-.14,7.02M238.34,151.85v8.39c0,6.02-3.84,9.41-6.24,10.46.55-.72.56-2.4.56-5.32v-7.96c0-.94-.03-5.9-.04-12.1,1.99-.89,4.17-2.18,5.85-4.4-.08,4.1-.13,9.47-.13,10.93M232.59,96.74c1.68-.83,3.44-1.95,4.93-3.55.3-.11.62-.24.94-.36-.08,1.05-.13,2.3-.13,3.78v8.39c0,5.77-3.32,9.06-6.43,10.54.47-1.48.75-3.18.75-5.14v-8.22c0-1.85-.09-3.69-.07-5.45M222.94,120.56c.55-.72,1.15-2.69,1.15-5.6v-13.44c1.52-.76,3.1-1.75,4.48-3.13.41-.15.86-.32,1.34-.5-.08,1.08-.14,2.28-.14,3.65v8.27c0,6.02-3.63,9.34-6.84,10.74M229.78,127.41c0,1.57-.14,9.64-.14,10.61,0,4.19-3.84,7.63-6.7,8.87.55-.71,1.15-2.68,1.15-5.59v-17.16c1.52-.75,3.1-1.75,4.48-3.11.43-.16.91-.34,1.42-.54-.14,2.23-.22,5.19-.22,6.93M229.78,156.79v9.57c0,1.2-.11,4.73-.13,8.77,0,0,0,0,0,0v6.43c0,4.03-3.84,7.63-6.7,8.87.55-.72,1.15-2.68,1.15-5.6v-34.33c1.78-.89,3.65-2.1,5.19-3.87.17-.07.35-.13.55-.21-.04,5.38-.05,9.55-.05,10.37M286.12,19.87h0c-.75.21-4.7.89-5.2.39.87-.45,1.46-.71,3.11-1.76,1.21.09,2.38.83,4.25,1.96-1.05-.42-1.16-.78-2.16-.58M389.9,125.38c.82.31,1.53.56,2.09.78-2.26-3.41-2.09-8.93-2.09-10.24v-13.18c.82.31,1.53.56,2.09.79-2.26-3.42-2.09-8.94-2.09-10.25v-30.68c0-8.48-12.97-29.05-23.95-29.32-7.79-.19-16.93,10.76-28.11,7.93-3.59-.93-6.45-4.79-8.82-9.55-4.16-8.51-8.18-19.9-18.32-26.49-11.23-7.29-24.17.85-25.65,2.15-1.27,1.17-3.3,4.66-4.38,5.22-3.51,1.83-4.09,4.91-4.09,6.08s.26,4,2.4,5.61c-.3-1.39-.37-2.16-.05-2.86,1.4.24,4.48.86,6.47.05.98.98,3.31,2.85,4.32,4.78,1.42,2.68,1.43,3.09,1.43,4.14,0,2.72-1.27,6.62-5.15,9.16-4.08,2.91-13.7,4.54-25.76.41-6.53-2.23-9.21-6.76-15.04-6.61-10.97.28-23.95,20.84-23.95,29.32v30.68c0,1.31.17,6.83-2.09,10.25.57-.23,1.28-.48,2.09-.79v13.18c0,1.31.17,6.83-2.09,10.24.57-.23,1.28-.48,2.09-.78v16.89c0,1.31.17,6.82-2.09,10.25.57-.23,1.28-.46,2.09-.76v34.05c0,.97.09,4.32-.81,7.39-.3,1.02.39,2.24,1.46,1.82,4.4-1.75,10.79-5.18,10.79-14.73v-5.38c3.16-1.38,6.94-3.84,8.15-9.81,3.58-1.78,7.55-4.87,8.42-11.1,3.67-2.13,7.31-5.82,7.35-12.96,3.19-2.41,5.08-5.25,5.46-7.45.26-1.48.44-5.01.52-9.1,2.31-1.68,3.97-3.6,4.92-5.35-.37,8.86-2.14,20.76-6.31,37.26.74,0,1.72-.16,2.72-.4-.55,3.32-3.38,11.24-5.28,14.84-.25-.02-.52-.02-.83.02-.62.11-1.08.71-1.38,1.46-.85-1.3-1.92-3.41-4.41-2.6-1.29.42-1.77,1.44-1.87,2.52-2.07,1.3-16.12,10.02-16.12,10.02v21.72c20.86,12.35,43.84,19.8,68.65,20.31.81.81,3.01,2.49,3.01,2.49,0,0,2.21-1.68,3.02-2.49,24.79-.51,47.78-7.96,68.64-20.31v-21.72s-15.24-9.46-16.33-10.15c-.13-1.02-.62-1.98-1.86-2.39-2.49-.81-3.56,1.3-4.41,2.6-.3-.75-.75-1.35-1.39-1.46-.3-.04-.58-.04-.82-.02-1.9-3.59-4.73-11.51-5.29-14.84,1.01.24,1.99.4,2.73.4-4.17-16.49-5.94-28.4-6.31-37.26.94,1.74,2.6,3.65,4.89,5.33.08,4.09.25,7.64.51,9.12.38,2.19,2.29,5.04,5.48,7.46.04,7.13,3.68,10.83,7.35,12.95.88,6.23,4.83,9.32,8.42,11.1,1.22,5.97,4.99,8.43,8.16,9.81v5.38c0,9.44,6.25,12.9,10.63,14.67,1.12.45,2.05-.41,1.76-1.23-1.08-3.2-.98-6.89-.98-7.92v-34.02c.82.31,1.53.5,2.09.73-2.26-3.42-2.09-8.94-2.09-10.25v-16.89ZM358.47,200.81c-.3.11-.6.24-.9.35-.08-.21-.16-.42-.25-.63.2-.38.4-.75.59-1.13.41.14.81.28,1.22.41.08.21.17.42.25.63-.31.12-.62.25-.92.37M357.05,197.2c-.58,1.14-1.17,2.27-1.78,3.39.16.42.32.84.47,1.27-.62.23-1.24.46-1.86.67-1.11-3.12-2.22-6.23-3.33-9.35-.17-.48-.16-1.03.46-1.43-1.11-.43-2.22-.88-3.31-1.34,1.45,4.25,2.9,8.51,4.35,12.76.18.53.37,1.07.54,1.6.47-.16.94-.32,1.41-.49l.44-.16c1.55-.55,3.1-1.14,4.65-1.74.92-.36,1.84-.74,2.75-1.12-.39-.93-.79-1.87-1.18-2.8-1.22-.41-2.42-.83-3.62-1.26M370.94,197.08c.59-.3,1.18-.6,1.77-.91-1.79-3.44-3.58-6.88-5.37-10.31-.24-.45-.3-1,.27-1.48-1.18-.27-2.34-.56-3.5-.86,2.02,4.02,4.04,8.03,6.06,12.04.25.5.51,1.01.76,1.51M339.16,94.4s.04.05.03.08c0,.02-.03.05-.06.06l-1.79.4-.39,1.55s-.04.05-.07.06h0s-.06-.01-.06-.04l-.89-1.43-1.78-.05s-.06-.02-.07-.05c-.01-.03,0-.06,0-.08l1.13-1.32-.45-1.67s0-.06.02-.08c.03-.02.06-.03.09,0l1.62.72,1.41-.91s.03-.01.05-.01.03,0,.05.01h0s.03.05.03.08l-.31,1.57,1.43,1.14ZM321.25,113.31l-.79-3.06s-.04-.05-.07-.06c-.03,0-.06,0-.07.03,0,0-1.56,2.26-2.03,2.88-.78-.02-3.53-.23-3.54-.23-.03,0-.06.02-.08.05,0,.01,0,.05,0,.08l1.91,2.54c-3.42,1.31-7.13,2.03-11,2.03s-7.83-.77-11.35-2.16l1.8-2.4s.02-.06.01-.08c-.02-.02-.05-.05-.08-.04,0,0-2.76.21-3.54.23-.47-.62-2.03-2.88-2.03-2.88-.01-.03-.05-.04-.08-.04-.03,0-.06.03-.07.06l-.74,2.81c-6.28-3.82-11.1-9.81-13.41-16.93l2.87-.08s.06-.02.07-.05c.02-.02,0-.06,0-.08,0,0-1.8-2.03-2.32-2.63.2-.78.96-3.38.96-3.39,0-.03,0-.06-.02-.07-.02-.03-.05-.03-.08-.02l-2.66,1.18c-.21-1.44-.33-2.92-.33-4.42,0-6.29,1.9-12.15,5.14-17.05l1.75,2.08s.03.03.06.03c0,0,0,0,.02,0,.03,0,.05-.03.06-.06,0,0,.46-2.68.61-3.43.75-.33,3.31-1.32,3.32-1.33.03-.01.05-.03.06-.07,0-.03-.02-.06-.05-.08l-2.52-1.31c5.04-5.36,11.95-8.92,19.68-9.63l-.56,2.88s0,.06.03.08c0,0,.02.01.04.01,0,0,.02,0,.04,0,0,0,2.39-1.37,3.07-1.72.69.34,3.09,1.71,3.09,1.71.02,0,.06,0,.08,0,.02-.02.04-.05.03-.08l-.57-2.91c7.84.6,14.87,4.14,20,9.51l-2.82,1.47s-.05.05-.04.07c0,.04.02.06.05.07,0,0,2.57,1,3.31,1.33.16.75.61,3.43.61,3.43,0,.03.03.06.06.07,0,0,.01,0,.01,0,.03,0,.05-.01.06-.03l2.01-2.39c3.36,4.96,5.33,10.93,5.33,17.35,0,1.57-.13,3.11-.35,4.61l-3.09-1.37s-.07,0-.08,0c-.03.02-.04.06-.03.08,0,0,.76,2.61.97,3.39-.52.6-2.31,2.63-2.32,2.63-.02.02-.03.06-.01.08.01.03.05.05.08.05l3.32.09c-2.37,7.26-7.33,13.35-13.8,17.16M322.07,115.22s0,.03-.02.03l-1.41.76.02,1.81s-.02.06-.04.08h-.04s-.03,0-.05-.01l-1.42-1.13-.87.37-.59.25h0s0,0,0,0c-.02,0-.05,0-.07-.01,0-.01,0-.03,0-.04,0-.01-.02-.03,0-.04l.24-.66.33-.9-.45-.6h0l-.61-.82s0-.03,0-.04c0-.01-.01-.03,0-.05,0-.01.02-.02.04-.02.01,0,.02-.02.03-.02l1.7.05,1.05-1.38s.05-.03.08-.02c.03,0,.05.02.06.05,0,0,0,0,0,0l.26,1,.18.72,1.19.39.4.13s.05.04.06.07c0,.02-.02.03-.02.04M293.7,114.26s0,.03,0,.05l-.61.82-.46.6.25.66.33.9s0,.07-.02.08c0,0,0,0-.02,0-.01,0-.04.01-.07,0l-.39-.17-.78-.33s.03,0,.04.01l-.33-.14-.54.43-.89.69s-.03.02-.05.02h-.04s-.04-.05-.04-.08v-1.81s-1.39-.76-1.39-.76c-.03-.01-.05-.05-.05-.08h0s.02-.05.05-.07l.79-.26.8-.26.24-.93.2-.79s.04-.05.06-.05c.03,0,.07,0,.08.02h0l.52.69.53.69,1.69-.04s.06,0,.08.04c0,0,0,.02,0,.04M273.93,96.5s-.03.04-.06.04h-.01s-.06-.04-.07-.06l-.4-1.55-1.78-.4s-.05-.03-.06-.06c0-.03,0-.06.03-.08l1.44-1.14h0s-.06-.34-.06-.34h0s-.25-1.23-.25-1.23c0-.02,0-.04.01-.06,0,0,.01-.02.02-.02.03-.01.06-.01.09,0l1.41.91.88-.38.75-.33s.06,0,.08,0c.03.02.03.05.03.08l-.45,1.67,1.13,1.32s.02.05,0,.08c0,.02-.04.04-.07.05l-1.78.05-.89,1.43ZM277.93,67.82l.96-1.28-.81-1.63s0-.06,0-.08c.02-.02.05-.03.08-.03l1.81.41,1.04-1.23s.06-.03.09-.02c.03,0,.05.03.05.07l.13,1.67,1.59.83s.05.04.05.07c0,.03-.01.06-.05.08l-1.56.7-.34,1.7s-.03.06-.06.06h-.02s-.05,0-.06-.02l-.43-.51-.72-.86-1.59.2h-.07s-.07,0-.08-.03c-.01-.03-.01-.06,0-.09M302.86,53.46s.03-.03.06-.03l1.59-.08.79-1.66s.04-.05.07-.05c.03,0,.07.02.07.05l.79,1.66h.14s0,0,0,0l1.08.05h0c.13,0,.26,0,.39.02.02,0,.04.02.04.05h0s0,.06-.01.08l-1.2,1.16.35,1.75s-.01.06-.04.08c-.01,0-.03.02-.04.02-.01,0-.03,0-.04,0l-1.54-.78-1.53.78s-.06,0-.08,0c-.02-.02-.04-.05-.03-.08l.16-.82.19-.94-1.2-1.16s-.03-.06-.01-.08c0,0,0-.01.01-.02M328.77,66.05l.69-.36.13-1.67s.02-.06.05-.06c.01,0,.03,0,.04,0,.02,0,.03.01.04.02l1.04,1.23.14-.04,1.66-.38s.06,0,.08.03c.02.02.02.05,0,.08l-.81,1.63.95,1.28s.03.06,0,.08c-.02.03-.05.04-.07.04l-1.67-.21-1.15,1.36s-.04.03-.06.03c-.01,0-.02,0-.02,0-.03,0-.05-.03-.05-.06l-.35-1.7-1.56-.7s-.05-.04-.05-.07.01-.06.05-.07l.9-.47ZM339.47,89.3s0-.06-.03-.08c-.03-.02-.06-.02-.09,0,0,0-.27.19-.65.46.09-1.03.15-2.06.15-3.11,0-6.33-1.79-12.25-4.88-17.29.62.11,1.1.19,1.1.19.03,0,.06,0,.08-.03.02-.02.02-.06,0-.08,0,0-1.55-2.31-2.01-2.93.35-.72,1.42-3.09,1.42-3.09.02-.02,0-.06,0-.08-.02-.02-.05-.03-.08-.03l-3.29.75c-.52-.62-2.37-2.67-2.37-2.67-.02-.02-.05-.03-.09-.02-.02.01-.05.04-.05.07l-.1,1.25c-5.08-4.88-11.72-8.15-19.08-9.02.57-.51,1.06-.95,1.06-.95.02-.02.03-.05.02-.08-.01-.03-.04-.05-.08-.05,0,0-2.8-.19-3.57-.23-.33-.7-1.51-3.01-1.51-3.01l-.02-.03s-.04-.02-.07-.01c-.02,0-.04.02-.05.04,0,0-1.17,2.31-1.5,3.02-.77.04-3.57.23-3.57.23-.04,0-.07.02-.08.05,0,.03,0,.07.02.08,0,0,.51.46,1.09.99-7.4.97-14.03,4.37-19.09,9.38l-.13-1.66s-.02-.05-.06-.07c-.02,0-.06,0-.08.02,0,0-1.84,2.05-2.37,2.67l-3.28-.75s-.06,0-.08.03c-.01.03-.02.06,0,.08,0,0,1.07,2.38,1.42,3.09-.46.63-2,2.93-2,2.93-.02.03-.02.06,0,.09.01.02.05.03.08.03,0,0,.76-.13,1.59-.27-3.11,5.06-4.92,11.01-4.92,17.38,0,1.16.07,2.32.18,3.45-.62-.43-1.14-.8-1.14-.8-.02-.03-.06-.03-.09,0-.03.02-.04.04-.03.08,0,0,.38,2.73.53,3.51l-2.66,2.11s-.03.05-.03.08c0,.03.03.05.06.06,0,0,2.55.63,3.32.8.2.76,1.03,3.39,1.03,3.4,0,.03.03.05.07.06h0s.06-.01.07-.04c0,0,.33-.59.7-1.26,2.47,6.73,7.06,12.44,12.95,16.34-.76.21-1.43.41-1.43.41-.03,0-.06.04-.06.07,0,.03.01.06.04.08,0,0,2.43,1.4,3.1,1.77,0,.46.05,3.4.05,3.4,0,.03.02.05.04.07.02,0,.03,0,.03,0,.02,0,.04,0,.05-.02l2.66-2.08,3.33,1.4s.06,0,.08,0c.02-.02.03-.06.01-.09,0,0-.25-.63-.55-1.35,3.42,1.2,7.09,1.85,10.91,1.85,3.63,0,7.11-.58,10.38-1.66-.26.65-.47,1.16-.47,1.16,0,.03,0,.07.02.08.02.02.05.03.08.01l3.33-1.4,2.66,2.09s.03,0,.05,0h.03s.05-.04.05-.07c0,0,.04-2.93.04-3.39.68-.37,3.11-1.77,3.11-1.77.03-.01.05-.04.04-.08,0-.04-.02-.06-.06-.07,0,0-.5-.14-1.12-.32,5.81-3.8,10.38-9.38,12.9-15.94.25.45.43.78.43.78.01.03.05.04.07.04h.01s.06-.03.06-.06c0,0,.83-2.63,1.03-3.4.78-.17,3.32-.8,3.32-.8.02,0,.06-.03.06-.06,0-.03,0-.07-.03-.08l-2.65-2.12c.14-.78.53-3.51.53-3.51M366.38,196.69c.09.2.19.41.29.61-.3.15-.61.28-.91.42-.29.14-.59.27-.89.41-.09-.2-.18-.41-.28-.61.18-.39.36-.77.53-1.16.42.12.83.23,1.25.34M364.66,193.01c-.17.4-.35.79-.52,1.18-.41-.13-.81-.25-1.21-.38-1.21-2.66-2.41-5.32-3.61-7.99-.5,1.22-1.02,2.42-1.56,3.63.74-.11,1.28.2,1.48.66.69,1.59,1.39,3.19,2.09,4.79.04.1.09.21.14.32.64.21,1.29.41,1.95.61-.29.62-.58,1.24-.87,1.86.41.93.81,1.86,1.22,2.79.91-.4,1.82-.8,2.72-1.21.91-.42,1.81-.85,2.7-1.28-.44-.91-.88-1.83-1.33-2.74-.66-.18-1.33-.36-1.98-.55.27-.63.54-1.25.81-1.88-.82-1.67-1.63-3.34-2.44-5.02-.22-.44-.1-1.07.47-1.55-1.26-.37-2.52-.76-3.76-1.17,1.24,2.65,2.49,5.29,3.73,7.93M324.44,198.38c-.99-.66-1.96-1.33-2.92-2.01.6,5.03,1.2,10.04,1.8,15.07.66-.08,1.3-.16,1.94-.25-.51-3.84-1.02-7.68-1.54-11.52-.07-.5.04-1.03.72-1.29M343.74,195.4c-.15-.49-.1-1.03.53-1.39-1.08-.5-2.16-1-3.22-1.53,1.22,4.32,2.43,8.65,3.65,12.98.16.54.31,1.08.46,1.63.63-.18,1.25-.35,1.87-.54-1.1-3.71-2.2-7.43-3.3-11.15M312.97,208.93c-.41-.66-.82-1.31-1.21-1.97.19,0,.38-.01.57-.02.02-.49.19-.75.5-1.04.33.25.55.5.62.99.18,0,.37-.02.56-.03-.33.69-.68,1.39-1.03,2.08M317.4,199.17c.72.11.94.6.99,1.1.31,3.29.61,6.59.92,9.89-1.7.15-3.4.28-5.09.38.91-1.85,1.8-3.71,2.64-5.58-.74.06-1.47.11-2.21.16-.32-.57-1.22-1.19-1.92-1.23-.66.11-1.53.81-1.76,1.41-.74.02-1.48.05-2.22.06,1.01,1.78,2.08,3.55,3.17,5.31-1.66.07-3.32.1-4.98.11,0-1.69-.01-3.38-.02-5.07-.92.85-1.87,1.69-2.82,2.52.58,0,.94.36.94.87-.01,1.4-.03,2.8-.04,4.21,0,.93-.89,1.69-1.98,1.66-.88-.02-1.59-.51-1.84-1.18.25,1.14,1.43,2.02,2.85,2.04,1.64.02,2.94-1.12,2.93-2.52,0-.28,0-.55,0-.83,2.07-.01,4.13-.07,6.19-.17,2.11-.1,4.22-.25,6.33-.45.09,0,.18-.01.27-.03.56-.05,1.12-.1,1.67-.17-.54-5.04-1.07-10.05-1.6-15.09-.78.88-1.58,1.75-2.4,2.61M338.95,202.43c.76-.02,1.07.42,1.18.91.26,1.04.53,2.08.79,3.13-2.8.71-5.62,1.33-8.45,1.86-.38.07-.76.14-1.15.21-.58-.35-1.17-.71-1.74-1.07,1.33-1.35,2.15-3.74,1.65-5.75-.32,2.8-1.59,4.77-4.71,5.9,1.42.93,2.86,1.83,4.33,2.72.65-.11,1.29-.23,1.93-.35,3.51-.66,6.99-1.46,10.46-2.38-.72-2.71-1.45-5.43-2.16-8.14-.69,1-1.4,1.99-2.12,2.97M348.64,198.98c-.63,1.09-1.28,2.18-1.95,3.26.53-.17,1,.05,1.16.54.41,1.34.83,2.68,1.24,4.02.28.88-.37,1.89-1.42,2.2-.83.25-1.66,0-2.1-.57.59,1,1.97,1.49,3.34,1.07,1.6-.48,2.51-1.98,2.08-3.31-.78-2.41-1.57-4.82-2.35-7.22M282.76,13.29c-.63,0-1.13.42-1.13.92,0,.46.41.84.95.91-.05-.07-.07-.16-.07-.24,0-.38.47-.69,1.05-.69.12,0,.23.01.33.04h0c0-.52-.5-.94-1.13-.94"/>
</svg>