<?xml version="1.0" encoding="UTF-8"?>
<svg id="Layer_1" data-name="Layer 1" xmlns="http://www.w3.org/2000/svg" viewBox="0 0 641.25 163.5">
  <defs>
    <style>
      .cls-1 {
        opacity: .5;
      }

      .cls-1, .cls-2, .cls-3, .cls-4, .cls-5 {
        fill: #fff;
      }

      .cls-2 {
        opacity: .6;
      }

      .cls-3 {
        opacity: .8;
      }

      .cls-4 {
        opacity: .7;
      }
    </style>
  </defs>
  <g>
    <g>
      <path class="cls-5" d="M16.05,109.66c0-3.96.19-5.37.67-6.93,1.3-4,4.52-6.08,9-6.08,4.74,0,7.67,2.52,8.78,5.34.11.23.04.41-.15.52l-3.11,1.37c-.19.07-.37,0-.48-.19-1.15-2.07-2.56-3.11-5.08-3.11s-4.04,1.23-4.74,3.3c-.29.93-.44,2.22-.44,5.78s.15,4.86.44,5.78c.71,2.08,2.19,3.3,4.74,3.3,2.22,0,4.08-1.07,4.78-3.15.26-.78.41-1.82.41-3.26,0-.15-.07-.22-.22-.22h-4.15c-.26,0-.37-.11-.37-.37v-2.96c0-.26.11-.37.37-.37h8.34c.26,0,.37.11.37.37v2.19c0,2.07-.19,4.22-.59,5.52-1.22,4-4.56,6.19-8.89,6.19s-7.71-2.07-9-6.08c-.48-1.56-.67-2.96-.67-6.93Z"/>
      <path class="cls-5" d="M40,117.7c-.41-1.15-.63-2.48-.63-4.37s.19-3.26.59-4.41c1.04-3.11,3.74-4.93,7.3-4.93s6.34,1.82,7.34,4.93c.41,1.3.59,2.48.59,5.37,0,.26-.15.37-.41.37h-11.01c-.15,0-.22.07-.22.22,0,.55.11.96.26,1.37.63,1.82,1.96,2.7,4,2.7s3.3-.7,4.19-1.7c.19-.19.37-.22.56-.08l2.19,1.93c.19.15.19.33.04.52-1.52,1.78-4.04,3.04-7.34,3.04-3.86,0-6.41-1.85-7.45-4.97ZM50.78,109.81c-.48-1.44-1.82-2.3-3.48-2.3s-3.04.85-3.52,2.3c-.15.44-.22.96-.22,1.52,0,.15.07.22.22.22h7.01c.15,0,.22-.08.22-.22,0-.56-.08-1.08-.22-1.52Z"/>
      <path class="cls-5" d="M71.32,122.26c-.26,0-.37-.11-.37-.37v-10.3c0-2.37-1.15-3.89-3.37-3.89s-3.41,1.52-3.41,3.89v10.3c0,.26-.11.37-.37.37h-3.41c-.26,0-.37-.11-.37-.37v-17.12c0-.26.11-.37.37-.37h3.41c.26,0,.37.11.37.37v1.3h.04c.78-1.15,2.34-2.07,4.71-2.07,3.82,0,6.19,2.82,6.19,6.63v11.26c0,.26-.11.37-.37.37h-3.41Z"/>
      <path class="cls-5" d="M80.36,117.7c-.41-1.15-.63-2.48-.63-4.37s.19-3.26.59-4.41c1.04-3.11,3.74-4.93,7.3-4.93s6.34,1.82,7.34,4.93c.41,1.3.59,2.48.59,5.37,0,.26-.15.37-.41.37h-11.01c-.15,0-.22.07-.22.22,0,.55.11.96.26,1.37.63,1.82,1.96,2.7,4,2.7s3.3-.7,4.19-1.7c.19-.19.37-.22.56-.08l2.19,1.93c.19.15.19.33.04.52-1.52,1.78-4.04,3.04-7.34,3.04-3.86,0-6.41-1.85-7.45-4.97ZM91.15,109.81c-.48-1.44-1.82-2.3-3.48-2.3s-3.04.85-3.52,2.3c-.15.44-.22.96-.22,1.52,0,.15.07.22.22.22h7.01c.15,0,.22-.08.22-.22,0-.56-.08-1.08-.22-1.52Z"/>
      <path class="cls-5" d="M100.75,122.26c-.26,0-.37-.11-.37-.37v-17.12c0-.26.11-.37.37-.37h3.41c.26,0,.37.11.37.37v1.52h.04c.85-1.37,2.37-2.3,4.63-2.3,1.45,0,2.82.55,3.74,1.48.15.19.19.33.08.52l-1.96,2.48c-.15.19-.33.22-.52.08-.85-.56-1.63-.85-2.63-.85-2.37,0-3.37,1.67-3.37,4.52v9.67c0,.26-.11.37-.37.37h-3.41Z"/>
      <path class="cls-5" d="M127.06,122.26c-.26,0-.37-.11-.37-.37v-1.3h-.04c-.85,1.22-2.52,2.07-5.04,2.07-3.26,0-6-1.74-6-5.45,0-3.89,2.67-5.67,7.15-5.67h3.63c.15,0,.22-.08.22-.22v-.85c0-2.07-.96-2.96-3.96-2.96-2.07,0-3.22.52-4.07,1.23-.23.19-.41.19-.52-.08l-1.37-2.44c-.11-.22-.11-.37.07-.48,1.45-1.04,3.37-1.74,6.34-1.74,5.49,0,7.45,1.92,7.45,6.22v11.67c0,.26-.11.37-.37.37h-3.11ZM126.61,116.26v-1.37c0-.15-.07-.22-.22-.22h-2.96c-2.67,0-3.85.74-3.85,2.41,0,1.48,1.04,2.22,3.07,2.22,2.56,0,3.96-.96,3.96-3.04Z"/>
      <path class="cls-5" d="M141,122.48c-3.56,0-4.89-1.67-4.89-5.11v-19.94c0-.26.11-.37.37-.37h3.41c.26,0,.37.11.37.37v19.71c0,1.22.48,1.63,1.56,1.63h.81c.26,0,.37.11.37.37v2.96c0,.26-.11.37-.37.37h-1.63Z"/>
      <path class="cls-5" d="M163.05,97.43c.07-.26.22-.37.48-.37h3.41c.26,0,.41.11.48.37l8.52,24.46c.08.26,0,.37-.26.37h-3.63c-.26,0-.41-.11-.48-.37l-1.67-4.89h-9.49l-1.67,4.89c-.07.26-.22.37-.48.37h-3.59c-.26,0-.33-.11-.26-.37l8.64-24.46ZM168.57,113.11l-3.34-9.78h-.11l-3.38,9.78h6.82Z"/>
      <path class="cls-5" d="M190.66,122.26c-.26,0-.37-.11-.37-.37v-1.3h-.04c-1,1.22-2.37,2.07-4.63,2.07-3.82,0-6.15-2.82-6.15-6.63v-11.27c0-.26.11-.37.37-.37h3.41c.26,0,.37.11.37.37v10.3c0,2.37,1.07,3.89,3.33,3.89,2.11,0,3.34-1.59,3.34-3.85v-10.34c0-.26.11-.37.37-.37h3.41c.26,0,.37.11.37.37v17.12c0,.26-.11.37-.37.37h-3.41Z"/>
      <path class="cls-5" d="M205.45,122.48c-3.59,0-4.97-1.67-4.97-5.22v-9.41c0-.15-.07-.22-.22-.22h-1.19c-.26,0-.37-.11-.37-.37v-2.48c0-.26.11-.37.37-.37h1.19c.15,0,.22-.08.22-.22v-4.89c0-.26.11-.37.37-.37h3.41c.26,0,.37.11.37.37v4.89c0,.15.07.22.22.22h2.37c.26,0,.37.11.37.37v2.48c0,.26-.11.37-.37.37h-2.37c-.15,0-.22.07-.22.22v9.26c0,1.3.52,1.67,1.67,1.67h.93c.26,0,.37.11.37.37v2.96c0,.26-.11.37-.37.37h-1.78Z"/>
      <path class="cls-5" d="M223.8,122.26c-.26,0-.37-.11-.37-.37v-10.3c0-2.37-1.15-3.89-3.37-3.89s-3.41,1.52-3.41,3.89v10.3c0,.26-.11.37-.37.37h-3.41c-.26,0-.37-.11-.37-.37v-24.46c0-.26.11-.37.37-.37h3.41c.26,0,.37.11.37.37v8.64h.04c.78-1.15,2.34-2.07,4.71-2.07,3.82,0,6.19,2.82,6.19,6.63v11.26c0,.26-.11.37-.37.37h-3.41Z"/>
      <path class="cls-5" d="M232.81,117.74c-.41-1.3-.59-2.44-.59-4.41s.19-3.11.59-4.41c1-3.11,3.67-4.93,7.37-4.93s6.34,1.82,7.34,4.93c.41,1.3.59,2.44.59,4.41s-.19,3.11-.59,4.41c-1,3.11-3.74,4.93-7.34,4.93s-6.37-1.82-7.37-4.93ZM243.51,116.62c.33-.92.37-1.78.37-3.3s0-2.3-.37-3.3c-.52-1.48-1.67-2.34-3.34-2.34s-2.85.85-3.37,2.34c-.37,1-.37,1.78-.37,3.3s.04,2.37.37,3.3c.56,1.48,1.71,2.34,3.37,2.34s2.78-.85,3.34-2.34Z"/>
      <path class="cls-5" d="M253.3,122.26c-.26,0-.37-.11-.37-.37v-17.12c0-.26.11-.37.37-.37h3.41c.26,0,.37.11.37.37v1.52h.04c.85-1.37,2.37-2.3,4.63-2.3,1.45,0,2.82.55,3.74,1.48.15.19.19.33.08.52l-1.96,2.48c-.15.19-.33.22-.52.08-.85-.56-1.63-.85-2.63-.85-2.37,0-3.37,1.67-3.37,4.52v9.67c0,.26-.11.37-.37.37h-3.41Z"/>
      <path class="cls-5" d="M269.35,101.03c-.26,0-.37-.11-.37-.37v-3.23c0-.26.11-.37.37-.37h3.41c.26,0,.37.11.37.37v3.23c0,.26-.11.37-.37.37h-3.41ZM269.35,122.26c-.26,0-.37-.11-.37-.37v-17.12c0-.26.11-.37.37-.37h3.41c.26,0,.37.11.37.37v17.12c0,.26-.11.37-.37.37h-3.41Z"/>
      <path class="cls-5" d="M284.14,122.48c-3.59,0-4.97-1.67-4.97-5.22v-9.41c0-.15-.07-.22-.22-.22h-1.19c-.26,0-.37-.11-.37-.37v-2.48c0-.26.11-.37.37-.37h1.19c.15,0,.22-.08.22-.22v-4.89c0-.26.11-.37.37-.37h3.41c.26,0,.37.11.37.37v4.89c0,.15.07.22.22.22h2.37c.26,0,.37.11.37.37v2.48c0,.26-.11.37-.37.37h-2.37c-.15,0-.22.07-.22.22v9.26c0,1.3.52,1.67,1.67,1.67h.93c.26,0,.37.11.37.37v2.96c0,.26-.11.37-.37.37h-1.78Z"/>
      <path class="cls-5" d="M291.81,128.93c-.26,0-.37-.11-.37-.37v-2.96c0-.26.11-.37.37-.37h.67c1.45,0,2.15-.63,2.67-2.11l.52-1.52-6.52-16.83c-.07-.26.04-.37.3-.37h3.67c.23,0,.37.11.45.37l4.04,11.68h.08l3.85-11.68c.07-.26.22-.37.44-.37h3.52c.3,0,.41.11.3.37l-6.82,18.6c-1.56,4.22-3.04,5.56-6,5.56h-1.15Z"/>
      <path class="cls-5" d="M318.27,117.74c-.41-1.3-.59-2.44-.59-4.41s.19-3.11.59-4.41c1-3.11,3.67-4.93,7.37-4.93s6.34,1.82,7.34,4.93c.41,1.3.59,2.44.59,4.41s-.19,3.11-.59,4.41c-1,3.11-3.74,4.93-7.34,4.93s-6.37-1.82-7.37-4.93ZM328.98,116.62c.33-.92.37-1.78.37-3.3s0-2.3-.37-3.3c-.52-1.48-1.67-2.34-3.34-2.34s-2.85.85-3.37,2.34c-.37,1-.37,1.78-.37,3.3s.04,2.37.37,3.3c.56,1.48,1.71,2.34,3.37,2.34s2.78-.85,3.34-2.34Z"/>
      <path class="cls-5" d="M339.32,122.26c-.26,0-.37-.11-.37-.37v-14.04c0-.15-.08-.22-.23-.22h-1.19c-.26,0-.37-.11-.37-.37v-2.48c0-.26.11-.37.37-.37h1.19c.15,0,.23-.08.23-.22v-1.15c0-4.19,2.04-5.97,5.93-5.97h1.63c.26,0,.37.11.37.37v2.96c0,.26-.11.37-.37.37h-1.15c-1.89,0-2.26.44-2.26,2.19v1.23c0,.15.08.22.23.22h3.19c.26,0,.37.11.37.37v2.48c0,.26-.11.37-.37.37h-3.19c-.15,0-.23.07-.23.22v14.04c0,.26-.11.37-.37.37h-3.41Z"/>
      <path class="cls-5" d="M358.78,119.33c-.19-.19-.22-.37-.07-.56l2.3-2.67c.19-.19.33-.19.52-.04,1.59,1.3,4.04,2.67,6.86,2.67,3,0,4.74-1.52,4.74-3.63,0-1.82-1.15-3-4.59-3.48l-1.33-.19c-4.93-.67-7.6-3-7.6-7.19,0-4.59,3.3-7.6,8.53-7.6,3.15,0,6.07,1,8.15,2.52.19.15.19.33.07.52l-1.78,2.74c-.15.19-.33.22-.52.11-2.08-1.33-3.93-1.96-6.04-1.96-2.56,0-3.96,1.41-3.96,3.37,0,1.74,1.22,2.93,4.63,3.41l1.33.19c4.93.67,7.52,2.96,7.52,7.3s-3.22,7.82-9.49,7.82c-3.71,0-7.3-1.44-9.26-3.34Z"/>
      <path class="cls-5" d="M382.55,128.93c-.26,0-.37-.11-.37-.37v-23.79c0-.26.11-.37.37-.37h3.41c.26,0,.37.11.37.37v1.33h.04c.85-1.22,2.34-2.11,4.74-2.11,3.11,0,5.26,1.44,6.19,4.3.44,1.37.63,2.63.63,5.04s-.19,3.67-.63,5.04c-.93,2.86-3.07,4.3-6.19,4.3-2.41,0-3.89-.89-4.74-2.11h-.04v8.01c0,.26-.11.37-.37.37h-3.41ZM393.33,116.66c.26-.85.37-1.71.37-3.34s-.11-2.48-.37-3.34c-.48-1.52-1.59-2.3-3.3-2.3s-2.85.78-3.33,2.3c-.26.85-.37,1.71-.37,3.34s.11,2.48.37,3.34c.48,1.52,1.59,2.3,3.33,2.3s2.82-.78,3.3-2.3Z"/>
      <path class="cls-5" d="M402.37,117.74c-.41-1.3-.59-2.44-.59-4.41s.19-3.11.59-4.41c1-3.11,3.67-4.93,7.37-4.93s6.34,1.82,7.34,4.93c.41,1.3.59,2.44.59,4.41s-.19,3.11-.59,4.41c-1,3.11-3.74,4.93-7.34,4.93s-6.37-1.82-7.37-4.93ZM413.08,116.62c.33-.92.37-1.78.37-3.3s0-2.3-.37-3.3c-.52-1.48-1.67-2.34-3.34-2.34s-2.85.85-3.37,2.34c-.37,1-.37,1.78-.37,3.3s.04,2.37.37,3.3c.56,1.48,1.71,2.34,3.37,2.34s2.78-.85,3.34-2.34Z"/>
      <path class="cls-5" d="M422.87,122.26c-.26,0-.37-.11-.37-.37v-17.12c0-.26.11-.37.37-.37h3.41c.26,0,.37.11.37.37v1.52h.04c.85-1.37,2.37-2.3,4.63-2.3,1.45,0,2.82.55,3.74,1.48.15.19.19.33.08.52l-1.96,2.48c-.15.19-.33.22-.52.08-.85-.56-1.63-.85-2.63-.85-2.37,0-3.37,1.67-3.37,4.52v9.67c0,.26-.11.37-.37.37h-3.41Z"/>
      <path class="cls-5" d="M443.77,122.48c-3.59,0-4.97-1.67-4.97-5.22v-9.41c0-.15-.07-.22-.22-.22h-1.19c-.26,0-.37-.11-.37-.37v-2.48c0-.26.11-.37.37-.37h1.19c.15,0,.22-.08.22-.22v-4.89c0-.26.11-.37.37-.37h3.41c.26,0,.37.11.37.37v4.89c0,.15.07.22.22.22h2.37c.26,0,.37.11.37.37v2.48c0,.26-.11.37-.37.37h-2.37c-.15,0-.22.07-.22.22v9.26c0,1.3.52,1.67,1.67,1.67h.93c.26,0,.37.11.37.37v2.96c0,.26-.11.37-.37.37h-1.78Z"/>
      <path class="cls-5" d="M449.74,119.85c-.19-.19-.19-.33,0-.52l2.11-2.22c.19-.19.33-.19.52,0,1.3,1.19,3.33,2.04,5.22,2.04,2.22,0,3.3-.89,3.3-2.11,0-1.08-.63-1.74-2.96-1.96l-1.93-.19c-3.67-.37-5.49-2.11-5.49-5.26,0-3.44,2.45-5.63,6.93-5.63,2.82,0,5.11.89,6.71,2.19.19.15.22.33.08.52l-1.82,2.19c-.15.19-.33.19-.52.08-1.15-.78-2.89-1.48-4.67-1.48s-2.71.78-2.71,1.85.59,1.67,2.93,1.89l1.93.19c3.74.37,5.52,2.26,5.52,5.22,0,3.56-2.56,6.04-7.49,6.04-3.67,0-6.19-1.44-7.67-2.82Z"/>
    </g>
    <g>
      <path class="cls-5" d="M27.78,53v-1.63c0-.26.11-.38.38-.38h3.49c.27,0,.38.12.38.38v12.31c0,1.52.57,2.01,1.82,2.01h1.44c1.03,0,1.52.65,1.52,1.9,0,1.52-.46,1.86-1.52,1.86h-3.08c-2.47,0-3.84-.76-4.29-2.92-1.06.91-2.58,1.37-4.22,1.37-3.95,0-7.18-2.17-7.18-7.18,0-5.89,3.65-7.71,7.45-7.71h3.8ZM20.53,48.37c-.26,0-.38-.12-.38-.38v-3.27c0-.26.12-.38.38-.38h3.19c.27,0,.38.12.38.38v3.27c0,.26-.11.38-.38.38h-3.19ZM27.78,60.03v-3.23h-3.38c-2.17,0-3.61.91-3.61,3.91,0,2.32,1.29,3.42,3.42,3.42,2.39,0,3.57-1.37,3.57-4.1ZM25.46,48.37c-.26,0-.38-.12-.38-.38v-3.27c0-.26.12-.38.38-.38h3.19c.27,0,.38.12.38.38v3.27c0,.26-.11.38-.38.38h-3.19Z"/>
      <path class="cls-5" d="M35.76,69.45c-1.03,0-1.33-.42-1.33-1.79,0-1.52.26-1.97,1.33-1.97h4.56c1.03,0,1.52.49,1.52,1.86,0,1.56-.46,1.9-1.52,1.9h-4.56Z"/>
      <path class="cls-5" d="M40.32,69.45c-1.03,0-1.33-.42-1.33-1.79,0-1.52.26-1.97,1.33-1.97h4.56c1.03,0,1.52.49,1.52,1.86,0,1.56-.46,1.9-1.52,1.9h-4.56Z"/>
      <path class="cls-5" d="M44.88,69.45c-1.03,0-1.33-.42-1.33-1.79,0-1.52.26-1.97,1.33-1.97h4.56c1.03,0,1.52.49,1.52,1.86,0,1.56-.46,1.9-1.52,1.9h-4.56Z"/>
      <path class="cls-5" d="M49.44,69.45c-1.03,0-1.33-.42-1.33-1.79,0-1.52.26-1.97,1.33-1.97h4.56c1.03,0,1.52.49,1.52,1.86,0,1.56-.46,1.9-1.52,1.9h-4.56Z"/>
      <path class="cls-5" d="M54,69.45c-1.03,0-1.33-.42-1.33-1.79,0-1.52.26-1.97,1.33-1.97h4.56c1.03,0,1.52.49,1.52,1.86,0,1.56-.46,1.9-1.52,1.9h-4.56Z"/>
      <path class="cls-5" d="M58.56,69.45c-1.03,0-1.33-.42-1.33-1.79,0-1.52.26-1.97,1.33-1.97h4.56c1.03,0,1.52.49,1.52,1.86,0,1.56-.46,1.9-1.52,1.9h-4.56Z"/>
      <path class="cls-5" d="M63.12,69.45c-1.03,0-1.33-.42-1.33-1.79,0-1.52.26-1.97,1.33-1.97h4.56c1.03,0,1.52.49,1.52,1.86,0,1.56-.46,1.9-1.52,1.9h-4.56Z"/>
      <path class="cls-5" d="M67.68,69.45c-1.03,0-1.33-.42-1.33-1.79,0-1.52.26-1.97,1.33-1.97h4.56c1.03,0,1.52.49,1.52,1.86,0,1.56-.46,1.9-1.52,1.9h-4.56Z"/>
      <path class="cls-5" d="M72.24,69.45c-1.03,0-1.33-.42-1.33-1.79,0-1.52.26-1.97,1.33-1.97h4.56c1.03,0,1.52.49,1.52,1.86,0,1.56-.46,1.9-1.52,1.9h-4.56Z"/>
      <path class="cls-5" d="M84.73,55.13c2.43-1.18,5.36-2.13,8.43-2.13,6.61,0,9.27,3.57,9.27,9.08,0,6.12-2.05,7.37-7.41,7.37h-7.1c-1.59,0-4.22-.08-4.9-.65-.87.61-1.9.65-3.38.65h-2.85c-1.03,0-1.52-.38-1.52-1.79,0-1.63.46-1.97,1.52-1.97h1.97c1.67,0,1.67-.87,1.67-3.12v-8.66c0-.26.11-.38.38-.38h3.53c.27,0,.38.11.38.38v1.22ZM84.73,58.85v5.17c0,.61-.04,1.18-.15,1.67h8.24c4.37,0,5.13,0,5.13-3.8,0-3.23-1.18-5.09-5.39-5.09-2.89,0-5.7,1.03-7.83,2.05ZM91,49.89c-.26,0-.38-.12-.38-.38v-3.27c0-.27.11-.38.38-.38h3.65c.27,0,.38.11.38.38v3.27c0,.26-.11.38-.38.38h-3.65Z"/>
      <path class="cls-5" d="M106.85,44c0-.26.12-.38.38-.38h3.53c.26,0,.38.12.38.38v19.68c0,1.52.57,2.01,1.83,2.01h1.33c1.03,0,1.52.53,1.52,1.93,0,1.56-.46,1.83-1.52,1.83h-3c-3.19,0-4.45-1.44-4.45-4.79v-20.67Z"/>
      <path class="cls-5" d="M114.3,69.45c-1.03,0-1.33-.42-1.33-1.79,0-1.52.26-1.97,1.33-1.97h4.56c1.03,0,1.52.49,1.52,1.86,0,1.56-.46,1.9-1.52,1.9h-4.56Z"/>
      <path class="cls-5" d="M118.85,69.45c-1.03,0-1.33-.42-1.33-1.79,0-1.52.26-1.97,1.33-1.97h4.56c1.03,0,1.52.49,1.52,1.86,0,1.56-.46,1.9-1.52,1.9h-4.56Z"/>
      <path class="cls-5" d="M123.41,69.45c-1.03,0-1.33-.42-1.33-1.79,0-1.52.26-1.97,1.33-1.97h4.56c1.03,0,1.52.49,1.52,1.86,0,1.56-.46,1.9-1.52,1.9h-4.56Z"/>
      <path class="cls-5" d="M127.97,69.45c-1.03,0-1.52-.38-1.52-1.75,0-1.48.46-2.01,1.52-2.01h2.47c1.26,0,1.83-.5,1.83-2.01v-9.61c0-.26.11-.38.38-.38h3.53c.27,0,.38.12.38.38v10.6c0,3.34-1.26,4.79-4.45,4.79h-4.14ZM129.45,76.75c-.26,0-.38-.11-.38-.38v-3.27c0-.26.11-.38.38-.38h3.19c.26,0,.38.12.38.38v3.27c0,.27-.11.38-.38.38h-3.19ZM134.39,76.75c-.26,0-.38-.11-.38-.38v-3.27c0-.26.11-.38.38-.38h3.19c.26,0,.38.12.38.38v3.27c0,.27-.11.38-.38.38h-3.19Z"/>
      <path class="cls-5" d="M143.51,54.07c0-.26.11-.38.38-.38h3.53c.26,0,.38.12.38.38v9.27c0,1.52,1.22,2.36,3.15,2.36h.65c1.03,0,1.52.49,1.52,1.82,0,1.48-.46,1.94-1.52,1.94-1.71,0-2.92-.19-3.8-1.25v.72c0,5.47-1.67,8.21-6.72,8.21h-1.41c-.26,0-.38-.12-.38-.38v-3.04c0-.27.12-.38.38-.38h.83c2.93,0,3-2.09,3-5.7v-13.56Z"/>
      <path class="cls-5" d="M153.47,65.69c1.25,0,1.82-.5,1.82-2.01v-19.68c0-.26.12-.38.38-.38h3.53c.26,0,.38.12.38.38v19.34c0,1.52,1.22,2.36,3.15,2.36h.65c1.03,0,1.52.49,1.52,1.82,0,1.48-.46,1.94-1.52,1.94-1.97,0-3.45-.3-4.33-1.94-.72,1.4-1.98,1.94-4.26,1.94h-3.19c-1.03,0-1.52-.3-1.52-1.94,0-1.37.46-1.82,1.52-1.82h1.86Z"/>
      <path class="cls-5" d="M163.38,69.45c-1.03,0-1.52-.34-1.52-1.83,0-1.4.46-1.93,1.52-1.93h1.86c1.25,0,1.82-.5,1.82-2.01v-19.68c0-.26.12-.38.38-.38h3.53c.26,0,.38.12.38.38v20.67c0,3.34-1.25,4.79-4.44,4.79h-3.53Z"/>
      <path class="cls-5" d="M195.56,53v-1.63c0-.26.11-.38.38-.38h3.49c.27,0,.38.12.38.38v12.31c0,1.52.57,2.01,1.82,2.01h1.44c1.03,0,1.52.65,1.52,1.9,0,1.52-.46,1.86-1.52,1.86h-3.08c-2.47,0-3.84-.76-4.29-2.92-1.06.91-2.58,1.37-4.22,1.37-3.95,0-7.18-2.17-7.18-7.18,0-5.89,3.65-7.71,7.45-7.71h3.8ZM188.31,48.37c-.26,0-.38-.12-.38-.38v-3.27c0-.26.12-.38.38-.38h3.19c.27,0,.38.12.38.38v3.27c0,.26-.11.38-.38.38h-3.19ZM195.56,60.03v-3.23h-3.38c-2.17,0-3.61.91-3.61,3.91,0,2.32,1.29,3.42,3.42,3.42,2.39,0,3.57-1.37,3.57-4.1ZM193.24,48.37c-.26,0-.38-.12-.38-.38v-3.27c0-.26.12-.38.38-.38h3.19c.27,0,.38.12.38.38v3.27c0,.26-.11.38-.38.38h-3.19Z"/>
      <path class="cls-5" d="M203.54,69.45c-1.03,0-1.33-.42-1.33-1.79,0-1.52.26-1.97,1.33-1.97h4.56c1.03,0,1.52.49,1.52,1.86,0,1.56-.46,1.9-1.52,1.9h-4.56Z"/>
      <path class="cls-5" d="M208.1,69.45c-1.03,0-1.33-.42-1.33-1.79,0-1.52.26-1.97,1.33-1.97h4.56c1.03,0,1.52.49,1.52,1.86,0,1.56-.46,1.9-1.52,1.9h-4.56Z"/>
      <path class="cls-5" d="M212.66,69.45c-1.03,0-1.33-.42-1.33-1.79,0-1.52.26-1.97,1.33-1.97h4.56c1.03,0,1.52.49,1.52,1.86,0,1.56-.46,1.9-1.52,1.9h-4.56Z"/>
      <path class="cls-5" d="M217.22,69.45c-1.03,0-1.33-.42-1.33-1.79,0-1.52.26-1.97,1.33-1.97h4.56c1.03,0,1.52.49,1.52,1.86,0,1.56-.46,1.9-1.52,1.9h-4.56Z"/>
      <path class="cls-5" d="M221.78,69.45c-1.03,0-1.33-.42-1.33-1.79,0-1.52.26-1.97,1.33-1.97h4.56c1.03,0,1.52.49,1.52,1.86,0,1.56-.46,1.9-1.52,1.9h-4.56Z"/>
      <path class="cls-5" d="M226.34,69.45c-1.03,0-1.33-.42-1.33-1.79,0-1.52.26-1.97,1.33-1.97h4.56c1.03,0,1.52.49,1.52,1.86,0,1.56-.46,1.9-1.52,1.9h-4.56Z"/>
      <path class="cls-5" d="M236.56,67.52c-1.03,1.63-2.89,1.94-4.33,1.94h-1.33c-1.03,0-1.52-.53-1.52-1.9,0-1.48.46-1.86,1.52-1.86h1.48c1.06,0,2.39-.84,2.39-3.46-.04-.42-.04-.72-.04-1.14.12-5.89,3.38-8.09,7.79-8.09s7.83,2.24,7.83,8.47-3.15,8.24-7.83,8.24c-2.58,0-4.59-.65-5.96-2.2ZM238.95,61.4c0,3.23,1.14,4.56,3.57,4.56s3.61-1.37,3.61-4.56-1.22-4.6-3.61-4.6-3.57,1.52-3.57,4.6Z"/>
      <path class="cls-5" d="M254.79,44c0-.26.12-.38.38-.38h3.53c.26,0,.38.12.38.38v19.68c0,1.52.57,2.01,1.83,2.01h1.33c1.03,0,1.52.53,1.52,1.93,0,1.56-.46,1.83-1.52,1.83h-3c-3.19,0-4.45-1.44-4.45-4.79v-20.67Z"/>
      <path class="cls-5" d="M262.24,69.45c-1.03,0-1.33-.42-1.33-1.79,0-1.52.26-1.97,1.33-1.97h4.56c1.03,0,1.52.49,1.52,1.86,0,1.56-.46,1.9-1.52,1.9h-4.56Z"/>
      <path class="cls-5" d="M266.8,69.45c-1.03,0-1.33-.42-1.33-1.79,0-1.52.26-1.97,1.33-1.97h4.56c1.03,0,1.52.49,1.52,1.86,0,1.56-.46,1.9-1.52,1.9h-4.56Z"/>
      <path class="cls-5" d="M271.36,69.45c-1.03,0-1.33-.42-1.33-1.79,0-1.52.26-1.97,1.33-1.97h4.56c1.03,0,1.52.49,1.52,1.86,0,1.56-.46,1.9-1.52,1.9h-4.56Z"/>
      <path class="cls-5" d="M275.92,69.45c-1.03,0-1.33-.42-1.33-1.79,0-1.52.26-1.97,1.33-1.97h4.56c1.03,0,1.52.49,1.52,1.86,0,1.56-.46,1.9-1.52,1.9h-4.56Z"/>
      <path class="cls-5" d="M280.48,69.45c-1.03,0-1.33-.42-1.33-1.79,0-1.52.26-1.97,1.33-1.97h4.56c1.03,0,1.52.49,1.52,1.86,0,1.56-.46,1.9-1.52,1.9h-4.56Z"/>
      <path class="cls-5" d="M285.04,69.45c-1.03,0-1.33-.42-1.33-1.79,0-1.52.26-1.97,1.33-1.97h4.56c1.03,0,1.52.49,1.52,1.86,0,1.56-.46,1.9-1.52,1.9h-4.56Z"/>
      <path class="cls-5" d="M289.6,69.45c-1.03,0-1.33-.42-1.33-1.79,0-1.52.26-1.97,1.33-1.97h4.56c1.03,0,1.52.49,1.52,1.86,0,1.56-.46,1.9-1.52,1.9h-4.56Z"/>
      <path class="cls-5" d="M294.15,69.45c-1.03,0-1.33-.42-1.33-1.79,0-1.52.26-1.97,1.33-1.97h4.56c1.03,0,1.52.49,1.52,1.86,0,1.56-.46,1.9-1.52,1.9h-4.56Z"/>
      <path class="cls-5" d="M317.75,58.93c0,3.04-2.13,5.43-3.99,6.69.42.11.87.08,1.44.08h4.75c1.18,0,1.48.57,1.48,1.97s-.45,1.79-1.48,1.79h-5.66c-1.82,0-3.45-.26-4.94-1.18-1.67.91-3.68,1.18-5.17,1.18h-5.47c-.95,0-1.48-.42-1.48-1.79s.15-1.97,1.48-1.97h4.45c.8,0,1.79-.04,3.15-.34-.8-3.34-2.85-4.71-4.86-6.11-.57-.42-.53-.69-.53-1.1v-2.39c0-1.14,4.18-2.74,8.43-2.74,5.81,0,8.4,2.39,8.4,5.93ZM313.34,59.58c0-2.09-1.67-2.77-3.99-2.77-2.01,0-3.61.53-4.18.83,2.32,1.48,4.02,3.92,4.75,6.84,1.67-1.03,3.42-2.85,3.42-4.9Z"/>
      <path class="cls-5" d="M319.95,69.45c-1.03,0-1.52-.34-1.52-1.83,0-1.4.46-1.93,1.52-1.93h1.86c1.25,0,1.82-.5,1.82-2.01v-19.68c0-.26.12-.38.38-.38h3.53c.26,0,.38.12.38.38v20.67c0,3.34-1.25,4.79-4.44,4.79h-3.53Z"/>
      <path class="cls-5" d="M337.16,69.07c0,.27-.11.38-.38.38h-3.53c-.26,0-.38-.11-.38-.38v-25.07c0-.26.12-.38.38-.38h3.53c.26,0,.38.12.38.38v25.07Z"/>
      <path class="cls-5" d="M361.37,53v-1.63c0-.26.11-.38.38-.38h3.49c.27,0,.38.12.38.38v12.31c0,1.52.57,2.01,1.82,2.01h1.44c1.03,0,1.52.65,1.52,1.9,0,1.52-.46,1.86-1.52,1.86h-3.08c-2.47,0-3.84-.76-4.29-2.92-1.06.91-2.58,1.37-4.22,1.37-3.95,0-7.18-2.17-7.18-7.18,0-5.89,3.65-7.71,7.45-7.71h3.8ZM354.11,48.37c-.26,0-.38-.12-.38-.38v-3.27c0-.26.12-.38.38-.38h3.19c.27,0,.38.12.38.38v3.27c0,.26-.11.38-.38.38h-3.19ZM361.37,60.03v-3.23h-3.38c-2.17,0-3.61.91-3.61,3.91,0,2.32,1.29,3.42,3.42,3.42,2.39,0,3.57-1.37,3.57-4.1ZM359.05,48.37c-.26,0-.38-.12-.38-.38v-3.27c0-.26.12-.38.38-.38h3.19c.27,0,.38.12.38.38v3.27c0,.26-.11.38-.38.38h-3.19Z"/>
      <path class="cls-5" d="M369.34,69.45c-1.03,0-1.33-.42-1.33-1.79,0-1.52.26-1.97,1.33-1.97h4.56c1.03,0,1.52.49,1.52,1.86,0,1.56-.46,1.9-1.52,1.9h-4.56Z"/>
      <path class="cls-5" d="M373.9,69.45c-1.03,0-1.33-.42-1.33-1.79,0-1.52.26-1.97,1.33-1.97h4.56c1.03,0,1.52.49,1.52,1.86,0,1.56-.46,1.9-1.52,1.9h-4.56Z"/>
      <path class="cls-5" d="M378.46,69.45c-1.03,0-1.33-.42-1.33-1.79,0-1.52.26-1.97,1.33-1.97h4.56c1.03,0,1.52.49,1.52,1.86,0,1.56-.46,1.9-1.52,1.9h-4.56Z"/>
      <path class="cls-5" d="M383.02,69.45c-1.03,0-1.33-.42-1.33-1.79,0-1.52.26-1.97,1.33-1.97h-.14c1.03,0,1.52.49,1.52,1.86,0,1.56-.46,1.9-1.52,1.9h.14Z"/>
      <path class="cls-5" d="M382.88,69.45c-1.03,0-1.33-.42-1.33-1.79,0-1.52.26-1.97,1.33-1.97h4.56c1.03,0,1.52.49,1.52,1.86,0,1.56-.46,1.9-1.52,1.9h-4.56Z"/>
      <path class="cls-5" d="M387.44,69.45c-1.03,0-1.33-.42-1.33-1.79,0-1.52.26-1.97,1.33-1.97h4.56c1.03,0,1.52.49,1.52,1.86,0,1.56-.46,1.9-1.52,1.9h-4.56Z"/>
      <path class="cls-5" d="M400.17,63.34c0,1.52,1.22,2.36,3.15,2.36h.65c1.02,0,1.52.49,1.52,1.82,0,1.48-.45,1.94-1.52,1.94-1.98,0-3.46-.3-4.33-1.94-.72,1.48-2.01,1.94-4.45,1.94h-3c-1.02,0-1.52-.23-1.52-1.33,0-1.26.45-2.43,1.56-2.43h1.82c1.75,0,1.83-.95,1.83-3.57v-8.06c0-.26.11-.38.38-.38h3.53c.26,0,.38.12.38.38v9.27ZM395.08,48.07c-.34-.49-.61-1.14-.61-2.01,0-1.63,1.14-3.68,4.22-3.68,1.52,0,2.88.65,3.49,1.52.08.19.08.3-.04.38l-1.14,1.06c-.08.08-.19.04-.3-.08-.49-.49-1.14-.83-2.01-.83-1.22,0-1.86.8-1.86,1.75,0,1.02.61,1.59,1.18,1.9h4.14c.15,0,.23.08.23.26v1.48c0,.19-.08.26-.23.26h-8.36c-.15,0-.23-.08-.23-.26v-1.48c0-.19.08-.26.23-.26h1.29Z"/>
      <path class="cls-5" d="M403.78,69.45c-1.03,0-1.33-.42-1.33-1.79,0-1.52.26-1.97,1.33-1.97h4.56c1.03,0,1.52.49,1.52,1.86,0,1.56-.46,1.9-1.52,1.9h-4.56Z"/>
      <path class="cls-5" d="M408.34,69.45c-1.03,0-1.33-.42-1.33-1.79,0-1.52.26-1.97,1.33-1.97h4.56c1.03,0,1.52.49,1.52,1.86,0,1.56-.46,1.9-1.52,1.9h-4.56Z"/>
      <path class="cls-5" d="M416.62,69.45h-3.53c-1.02,0-1.52-.38-1.52-1.79,0-1.48.45-1.97,1.52-1.97h2.47c1.79,0,1.82-1.03,1.82-3.72v-7.9c0-.3.34-.38.65-.38h3.27c.26,0,.38.12.38.38v9.27c0,1.52,1.22,2.36,3.15,2.36h.65c1.03,0,1.52.49,1.52,1.82,0,1.48-.46,1.94-1.52,1.94-1.97,0-3.46-.3-4.33-1.94-.72,1.48-2.09,1.94-4.52,1.94ZM415.25,76.75c-.26,0-.38-.11-.38-.38v-3.27c0-.26.12-.38.38-.38h3.19c.27,0,.38.12.38.38v3.27c0,.27-.11.38-.38.38h-3.19ZM420.19,76.75c-.26,0-.38-.11-.38-.38v-3.27c0-.26.12-.38.38-.38h3.19c.27,0,.38.12.38.38v3.27c0,.27-.11.38-.38.38h-3.19Z"/>
      <path class="cls-5" d="M425.47,65.69h3.72v-4.33c0-6.19,3.68-8.36,7.63-8.36,4.56,0,7.86,2.2,7.86,7.67,0,1.94-.68,3.99-1.33,5.01h3.88c1.06,0,1.52.38,1.52,1.86,0,1.36-.49,1.9-1.52,1.9h-3.69c.53.72.8,1.63.8,2.66,0,3.49-2.81,5.43-7.41,5.43s-7.75-1.63-7.75-5.89v-2.2h-3.72c-1.03,0-1.52-.65-1.52-1.9,0-1.48.46-1.86,1.52-1.86ZM433.41,60.98v4.75h3.76c2.32,0,3.31-2.28,3.31-4.56,0-2.89-1.29-4.37-3.61-4.37-2.13,0-3.46,1.44-3.46,4.18ZM440.14,71.66c0-1.52-.61-2.36-3.57-2.36h-3.15v2.01c0,1.71,1.14,2.54,3.46,2.54s3.27-.79,3.27-2.2Z"/>
      <path class="cls-5" d="M447.2,69.45c-1.03,0-1.52-.34-1.52-1.83,0-1.4.46-1.93,1.52-1.93h1.86c1.25,0,1.82-.5,1.82-2.01v-19.68c0-.26.12-.38.38-.38h3.53c.26,0,.38.12.38.38v20.67c0,3.34-1.25,4.79-4.44,4.79h-3.53Z"/>
      <path class="cls-5" d="M464.41,69.07c0,.27-.11.38-.38.38h-3.53c-.26,0-.38-.11-.38-.38v-25.07c0-.26.12-.38.38-.38h3.53c.26,0,.38.12.38.38v25.07Z"/>
    </g>
  </g>
  <g>
    <polygon class="cls-4" points="583.12 21.88 504.18 100.65 521.19 38.4 583.12 21.88"/>
    <polygon class="cls-3" points="557.33 47.62 583.12 21.88 628.7 67.3 557.33 47.62"/>
    <polygon class="cls-2" points="549.6 146.07 611.85 129.39 628.7 67.3 549.6 146.07"/>
    <path class="cls-5" d="M593.01,57.46c1,.26,9.15,36.26,9.15,36.26l26.53-26.42-35.68-9.84Z"/>
    <polygon class="cls-1" points="575.63 120.14 549.6 146.07 504.18 100.65 575.63 120.14"/>
    <path class="cls-5" d="M530.03,74.86c.06.02.17.27.33.72,1.8,5.05,9.55,34.81,9.55,34.81l-35.72-9.74"/>
  </g>
</svg>