<?xml version="1.0" encoding="UTF-8"?>
<svg id="Layer_1" xmlns="http://www.w3.org/2000/svg" version="1.1" viewBox="0 0 874.23 133.25">
  <!-- Generator: Adobe Illustrator 29.8.1, SVG Export Plug-In . SVG Version: 2.1.1 Build 2)  -->
  <defs>
    <style>
      .st0 {
        fill: #fff;
      }

      .st1 {
        fill: #ef5152;
      }
    </style>
  </defs>
  <rect class="st1" y="0" width="311.64" height="133.25"/>
  <path class="st0" d="M873.23,1v131.25H312.64V1h560.59M874.23,0H311.64v133.25h562.59V0h0Z"/>
  <g>
    <path class="st0" d="M124.39,73.01h12.37l-6.02-19.11h-.16l-6.19,19.11h0ZM143.5,93.34l-3.38-9.79h-19.03l-3.43,9.79h-14.6l16.14-43.2h-17.87v20.66c0,15.82-7.26,23.69-23.77,23.69s-23.77-7.86-23.77-23.69v-32.02h14.22v32.86c0,7.03,2.6,10.63,9.55,10.63s9.56-3.59,9.56-10.63v-32.86h50.81l15.12,43.15h6.81v-43.15h43.49v11.39h-29.26v9.54h26.75v11h-26.75v10.4h30.03v12.23h-60.62ZM257.86,70.79c0,15.82-7.27,23.69-23.77,23.69s-23.77-7.86-23.77-23.69v-32.02h14.23v32.86c0,7.03,2.58,10.63,9.54,10.63s9.55-3.59,9.55-10.63v-32.86h14.22v32.02h0Z"/>
    <g>
      <path class="st0" d="M355.82,51.54c0-1.08.16-2.05.5-2.91.33-.86.8-1.59,1.4-2.18s1.34-1.04,2.2-1.35c.86-.31,1.83-.47,2.9-.47s1.93.18,2.67.52c.74.35,1.36.84,1.86,1.46.49.61.86,1.35,1.1,2.21.24.86.35,1.79.35,2.8v6.58h-5.74c-4.83,0-7.24-2.23-7.24-6.67M359.77,42.99c-.59,0-1.08-.22-1.46-.62-.4-.4-.59-.9-.59-1.48s.19-1.03.59-1.43c.39-.42.87-.62,1.46-.62s1.07.2,1.45.62c.38.4.57.89.57,1.43,0,.57-.19,1.07-.57,1.48-.38.4-.86.62-1.45.62M365.05,55.23v-4.11c0-1.15-.23-2.03-.69-2.63-.46-.63-1.1-.93-1.92-.93s-1.43.31-1.96.94c-.53.62-.79,1.47-.79,2.57,0,1.5.29,2.57.87,3.21.57.64,1.57.96,3,.96h1.49ZM365.05,42.99c-.59,0-1.08-.22-1.46-.62-.4-.4-.59-.9-.59-1.48s.19-1.03.59-1.43c.39-.42.87-.62,1.46-.62s1.07.2,1.45.62c.38.4.57.89.57,1.43,0,.57-.19,1.07-.57,1.48-.38.4-.87.62-1.45.62"/>
      <path class="st0" d="M405.56,42.99c-.58,0-1.07-.22-1.46-.62-.39-.4-.58-.9-.58-1.48s.2-1.03.58-1.43c.39-.42.88-.62,1.46-.62s1.08.2,1.46.62c.38.4.57.89.57,1.43,0,.57-.19,1.07-.57,1.48-.38.4-.87.62-1.46.62M410.83,42.99c-.58,0-1.07-.22-1.46-.62-.39-.4-.58-.9-.58-1.48s.19-1.03.58-1.43c.39-.42.88-.62,1.46-.62s1.08.2,1.46.62c.38.4.57.89.57,1.43,0,.57-.19,1.07-.57,1.48-.38.4-.86.62-1.46.62"/>
      <path class="st0" d="M427.45,55.23v-4.11c0-1.22-.24-2.12-.73-2.69-.49-.59-1.12-.87-1.88-.87s-1.44.32-1.96.98c-.53.65-.79,1.49-.79,2.52,0,1.5.29,2.57.85,3.21.57.65,1.57.96,3.02.96h1.49ZM423.06,57.97c-.68-.17-1.26-.36-1.74-.59-.48-.24-.86-.49-1.14-.79-.29-.29-.48-.59-.6-.85-.27.81-.74,1.4-1.4,1.81-.66.43-1.61.65-2.81.65h-43.56v-2.98h8.58c0-.67-.08-1.39-.25-2.16-.16-.78-.49-1.55-1.01-2.31-.51-.75-1.23-1.45-2.15-2.1-.93-.65-2.15-1.15-3.68-1.54l.29-3.11c1.97.24,3.63.75,4.97,1.49,1.34.75,2.42,1.64,3.24,2.67.82,1.03,1.42,2.16,1.77,3.37.36,1.21.54,2.42.54,3.6v.09h11.94v-2.57c0-.86-.09-1.58-.28-2.16-.19-.6-.5-1.07-.93-1.45-.42-.36-.98-.63-1.65-.81-.67-.17-1.5-.26-2.47-.26-.56,0-1.05,0-1.51.03-.46.02-.85.05-1.19.09l.3-2.91c.32-.04.71-.06,1.14-.08.43-.02.95-.03,1.58-.03,1.64,0,3.03.18,4.16.55,1.14.36,2.05.85,2.75,1.47.71.64,1.21,1.38,1.51,2.22.3.84.45,1.75.45,2.73v3.19h6.8v-10.16h3.72v10.16h5.54c.37,0,.7-.09.97-.28.29-.19.52-.45.71-.76.19-.32.33-.67.42-1.06.09-.4.15-.78.15-1.16,0-1.26.17-2.34.5-3.26s.8-1.69,1.42-2.29c.62-.59,1.35-1.05,2.21-1.33.86-.29,1.81-.44,2.87-.44.98,0,1.83.17,2.58.5.74.33,1.36.82,1.86,1.44.5.61.88,1.35,1.14,2.2.27.86.4,1.81.4,2.85v3.6h6.88v-16.64h3.75v19.63h-16.37c-.91,0-1.72-.08-2.4-.24"/>
      <rect class="st0" x="446.6" y="38.61" width="3.75" height="19.6"/>
      <path class="st0" d="M465.94,42.99c-.58,0-1.07-.22-1.46-.62-.39-.4-.59-.9-.59-1.48s.2-1.03.59-1.43c.39-.42.88-.62,1.46-.62s1.07.2,1.45.62c.39.4.58.89.58,1.43,0,.57-.19,1.07-.58,1.48-.38.4-.86.62-1.45.62M470.78,55.23v-7.48c-.31-.07-.62-.13-.91-.15-.3-.03-.55-.04-.76-.04-1.02,0-1.82.33-2.41,1-.58.66-.88,1.56-.88,2.72,0,.52.06,1.03.19,1.5.13.48.33.9.61,1.27.28.35.65.64,1.1.87.45.22,1,.33,1.67.33h1.38v-.02ZM471.21,42.99c-.58,0-1.07-.22-1.46-.62-.4-.4-.59-.9-.59-1.48s.19-1.03.59-1.43c.39-.42.87-.62,1.46-.62s1.08.2,1.45.62c.38.4.57.89.57,1.43,0,.57-.19,1.07-.57,1.48-.38.4-.86.62-1.45.62M485.97,64.45c-.58,0-1.07-.2-1.47-.6-.39-.41-.58-.89-.58-1.52,0-.55.2-1.01.58-1.42.4-.4.88-.6,1.47-.6s1.07.2,1.45.6c.38.4.57.87.57,1.42,0,.63-.19,1.11-.57,1.52-.38.4-.87.6-1.45.6M491.24,64.45c-.58,0-1.07-.2-1.46-.6-.39-.41-.58-.89-.58-1.52,0-.55.19-1.01.58-1.42.39-.4.88-.6,1.46-.6s1.08.2,1.45.6c.38.4.57.87.57,1.42,0,.63-.19,1.11-.57,1.52-.38.4-.86.6-1.45.6M463.67,56.51c-1.14-1.14-1.71-2.7-1.71-4.68,0-.93.15-1.83.45-2.7.3-.86.76-1.61,1.38-2.29.62-.67,1.39-1.19,2.33-1.6.93-.39,2.05-.6,3.34-.6.88,0,1.74.04,2.58.12.84.07,1.66.17,2.46.31v10.16h14.06v-10.16h3.72v10.16h9.42v-10.16h3.72v13.14h-36.36c-2.44,0-4.23-.59-5.38-1.7M501.72,64.45c-.59,0-1.09-.2-1.51-.6-.42-.41-.63-.89-.63-1.52,0-.55.21-1.01.63-1.42.42-.4.92-.6,1.51-.6s1.08.2,1.49.6c.41.4.62.87.62,1.42,0,.63-.21,1.11-.62,1.52-.41.4-.91.6-1.49.6"/>
      <path class="st0" d="M531.04,52.43c.53-.44.92-.9,1.19-1.37.26-.48.39-.93.39-1.37,0-.71-.25-1.26-.76-1.69-.5-.41-1.19-.63-2.04-.63-.77,0-1.44.13-2.04.36-.59.23-1.16.52-1.68.87.5.19.96.41,1.36.68.4.26.79.53,1.17.85s.76.66,1.14,1.05c.39.38.81.79,1.28,1.25M509.01,65.31c-.53,0-1.04-.03-1.52-.09l.29-2.98c.43.05.86.08,1.29.08,1.23,0,2.14-.28,2.72-.83.58-.55.87-1.56.87-3.05v-13.4h3.76v10.16h6.06c2.01,0,3.85-.36,5.51-1.08-.43-.4-.84-.79-1.23-1.17-.39-.38-.81-.74-1.25-1.09-.44-.34-.93-.66-1.48-.97-.55-.3-1.2-.58-1.96-.86l.41-3.1c1.17-.81,2.39-1.44,3.66-1.91,1.26-.49,2.56-.72,3.9-.72,1.07,0,2.01.13,2.81.41.8.26,1.47.61,2.01,1.08.54.45.94.99,1.2,1.61.26.61.4,1.29.4,2.02,0,.84-.25,1.65-.74,2.45s-1.17,1.57-2.05,2.32c.55.3,1.06.55,1.55.75.49.19,1.08.28,1.79.28h6.65v-16.64h3.75v19.62h-10.55c-1.35,0-2.53-.18-3.56-.56-1.02-.34-1.95-.8-2.77-1.39-1.17.6-2.41,1.07-3.74,1.4-1.32.36-2.63.54-3.94.54h-6.45v.11c0,.9-.11,1.79-.32,2.63-.22.82-.6,1.59-1.16,2.27-.55.63-1.31,1.14-2.27,1.52-.95.38-2.17.57-3.66.57"/>
      <rect class="st0" x="552.2" y="38.61" width="3.76" height="19.6"/>
      <path class="st0" d="M572.1,57.5c-1.44-.45-2.58-1.06-3.43-1.85-.85-.78-1.45-1.68-1.79-2.71-.34-1.04-.51-2.11-.51-3.23,0-.62.05-1.27.16-2.01.11-.74.24-1.41.39-2.01l3.96-.72c-.28.69-.47,1.36-.59,2.06-.12.7-.17,1.45-.17,2.25,0,.93.12,1.76.38,2.49.25.73.69,1.36,1.3,1.87.61.52,1.44.9,2.47,1.18,1.02.26,2.3.4,3.82.4h14.48v-10.16h3.75v13.14h-18.75c-2.21,0-4.03-.24-5.47-.71M580.78,43.79c-.59,0-1.08-.22-1.47-.62-.39-.42-.58-.9-.58-1.47,0-.54.2-1.03.58-1.44.4-.42.88-.62,1.47-.62s1.06.2,1.45.62c.39.4.57.9.57,1.44,0,.57-.19,1.06-.57,1.47-.38.4-.86.62-1.45.62M586.04,43.79c-.58,0-1.07-.22-1.47-.62-.39-.42-.58-.9-.58-1.47,0-.54.19-1.03.58-1.44.39-.42.88-.62,1.47-.62s1.07.2,1.45.62c.38.4.57.9.57,1.44,0,.57-.19,1.06-.57,1.47-.38.4-.87.62-1.45.62"/>
      <rect class="st0" x="601.01" y="38.61" width="3.75" height="19.6"/>
      <path class="st0" d="M606.46,65.31c-.53,0-1.04-.03-1.53-.09l.3-2.98c.43.05.85.08,1.29.08,1.22,0,2.14-.28,2.72-.83.58-.55.88-1.56.88-3.05v-13.4h3.75v13.26c0,.9-.1,1.79-.32,2.63-.21.82-.59,1.59-1.16,2.27-.56.63-1.32,1.14-2.27,1.52-.96.38-2.18.57-3.66.57"/>
      <path class="st0" d="M618.07,58.21v-19.6h3.75v16.62h6.47c.37,0,.7-.09.98-.28.28-.19.52-.45.7-.76.18-.32.33-.67.42-1.05.1-.4.15-.78.15-1.17,0-1.26.16-2.34.5-3.26.33-.92.81-1.69,1.42-2.29.61-.59,1.35-1.04,2.21-1.33.85-.29,1.81-.44,2.87-.44.97,0,1.84.17,2.58.5s1.36.82,1.86,1.44c.5.61.88,1.35,1.14,2.2.27.86.41,1.81.41,2.85v6.58h-5.75c-.92,0-1.72-.08-2.4-.24-.69-.17-1.27-.36-1.75-.59-.48-.24-.85-.5-1.14-.79-.29-.29-.49-.58-.6-.85-.27.81-.74,1.4-1.4,1.81-.67.43-1.6.65-2.82.65h-9.6ZM639.77,55.23v-4.11c0-1.22-.24-2.12-.73-2.69-.49-.59-1.12-.87-1.87-.87s-1.44.32-1.96.98c-.53.65-.79,1.49-.79,2.52,0,1.5.28,2.57.85,3.21.56.64,1.57.95,3.02.95h1.49-.01Z"/>
      <path class="st0" d="M652.46,38.61v12.94c-.63.2-1.23.38-1.85.52-.6.13-1.24.26-1.91.37v-13.82h3.76,0ZM647.24,64.19c.12,0,.26,0,.44.01.17.01.37.03.57.05.21.02.41.04.6.07s.37.06.5.09c-.18-.15-.3-.34-.37-.56-.07-.24-.1-.5-.1-.77,0-.36.07-.73.22-1.03.15-.3.36-.57.63-.81.29-.25.64-.44,1.06-.58.43-.14.91-.2,1.49-.2.29,0,.62.03.98.11.36.07.69.18.99.31l-.65,1.69c-.17-.11-.38-.2-.63-.28-.26-.07-.52-.1-.77-.1-.29,0-.55.08-.75.26-.2.18-.3.42-.3.69,0,.71.59,1.06,1.82,1.06h1.51v2.11h-7.23v-2.11h0ZM652.28,58.49c-.82,0-1.62-.05-2.38-.15-.76-.1-1.45-.24-2.08-.4l.36-3.57c.64.27,1.34.48,2.11.62.76.14,1.49.21,2.19.21,1.42,0,2.45-.23,3.09-.73.66-.47.98-1.26.98-2.34v-13.52h3.75v13.22c0,.97-.15,1.86-.44,2.67s-.77,1.51-1.4,2.11c-.64.58-1.47,1.03-2.49,1.38-1.01.34-2.25.5-3.69.5"/>
      <rect class="st0" x="664.79" y="38.61" width="3.75" height="19.6"/>
      <path class="st0" d="M683.33,42.99c-.59,0-1.07-.22-1.48-.62-.38-.4-.57-.9-.57-1.48s.19-1.03.57-1.43c.4-.42.88-.62,1.48-.62s1.06.2,1.44.62c.39.4.58.89.58,1.43,0,.57-.19,1.07-.58,1.48-.38.4-.86.62-1.44.62"/>
      <path class="st0" d="M688.59,42.99c-.57,0-1.07-.22-1.46-.62-.39-.4-.59-.9-.59-1.48s.2-1.03.59-1.43c.38-.42.89-.62,1.46-.62s1.08.2,1.46.62c.37.4.57.89.57,1.43,0,.57-.19,1.07-.57,1.48-.38.4-.87.62-1.46.62"/>
      <path class="st0" d="M688.16,55.23v-7.48c-.31-.07-.62-.12-.91-.15-.29-.02-.55-.04-.76-.04-1.01,0-1.82.33-2.39.99-.59.66-.87,1.57-.87,2.72,0,.52.06,1.03.18,1.5.12.48.32.9.62,1.27.28.36.64.65,1.1.87.44.22,1,.33,1.67.33h1.38-.02ZM705.85,52.43c.54-.44.93-.89,1.19-1.37s.39-.93.39-1.37c0-.71-.25-1.26-.75-1.68-.52-.41-1.21-.63-2.04-.63s-1.46.12-2.05.36c-.59.23-1.16.52-1.69.87.51.19.96.41,1.36.67.4.26.79.54,1.17.85.38.32.76.66,1.16,1.05.37.38.79.79,1.26,1.25M681.05,56.51c-1.14-1.14-1.7-2.7-1.7-4.68,0-.93.15-1.83.44-2.7.3-.86.77-1.61,1.38-2.29.61-.67,1.39-1.19,2.33-1.6.93-.39,2.04-.6,3.34-.6.88,0,1.73.05,2.57.12s1.67.18,2.47.31v10.16h5.42c2.01,0,3.84-.36,5.51-1.08-.43-.4-.84-.79-1.23-1.17-.39-.39-.81-.74-1.24-1.09-.45-.34-.93-.66-1.49-.97-.54-.3-1.2-.58-1.96-.86l.42-3.11c1.17-.8,2.39-1.44,3.66-1.91,1.27-.49,2.56-.72,3.9-.72,1.06,0,2.01.13,2.8.41.82.26,1.47.62,2.01,1.08.55.44.95.99,1.21,1.61.26.61.39,1.29.39,2.02,0,.84-.24,1.65-.72,2.45-.49.8-1.18,1.57-2.04,2.32.54.3,1.04.55,1.55.75.49.19,1.08.28,1.78.28h3.33c.38,0,.71-.09.99-.28.28-.19.51-.45.69-.76.18-.32.32-.67.42-1.05.1-.4.16-.78.16-1.17,0-1.26.17-2.34.5-3.26.32-.92.79-1.69,1.41-2.29.62-.59,1.34-1.04,2.22-1.33.85-.29,1.81-.44,2.86-.44.99,0,1.83.17,2.59.5.74.33,1.35.82,1.86,1.44.49.61.87,1.35,1.13,2.2.26.86.4,1.81.4,2.85v6.58h-5.75c-.9,0-1.71-.08-2.39-.24-.68-.17-1.28-.36-1.75-.59-.47-.24-.85-.5-1.14-.79-.29-.29-.49-.58-.61-.85-.27.81-.73,1.4-1.4,1.81-.67.43-1.6.65-2.81.65h-2.88c-1.33,0-2.53-.18-3.54-.56-1.04-.34-1.96-.8-2.78-1.39-1.17.6-2.41,1.07-3.73,1.4-1.32.36-2.64.54-3.94.54h-11.26c-2.44,0-4.22-.59-5.38-1.7M726.66,55.23v-4.11c0-1.22-.25-2.12-.73-2.69-.48-.59-1.12-.87-1.88-.87s-1.45.32-1.96.98c-.52.65-.79,1.49-.79,2.52,0,1.5.29,2.57.85,3.21s1.58.95,3.02.95h1.49Z"/>
      <path class="st0" d="M734.81,58.21v-19.6h3.75v16.62h14.29v-2.57c0-.86-.09-1.58-.28-2.16-.18-.6-.49-1.07-.92-1.45-.43-.36-.99-.63-1.65-.81-.68-.17-1.5-.26-2.48-.26-.55,0-1.05,0-1.52.03-.46,0-.85.04-1.18.08l.29-2.91c.33-.03.71-.06,1.14-.08.42,0,.95-.03,1.58-.03,1.64,0,3.02.18,4.16.55,1.13.36,2.05.85,2.75,1.47.71.64,1.2,1.38,1.51,2.22.3.85.46,1.76.46,2.73v6.18h-21.91.01ZM748.65,64.45c-.58,0-1.09-.2-1.5-.6-.43-.41-.63-.89-.63-1.52,0-.55.2-1.01.63-1.42.41-.4.92-.6,1.5-.6s1.09.2,1.5.6c.4.4.61.87.61,1.42,0,.63-.21,1.11-.61,1.52-.41.4-.92.6-1.5.6"/>
      <path class="st0" d="M363.8,91.75c-6.05,0-7.41-3.19-7.41-6.74v-12.24h3.68v12.01c0,2.33.8,4.03,3.98,4.03,2.84,0,4.03-1.21,4.03-4.38v-11.65h3.67v11.42c0,5.14-2.9,7.57-7.95,7.57"/>
      <path class="st0" d="M384.76,91.43v-8.76c0-1.39-.4-2.3-1.73-2.3-1.84,0-3.29,2.05-3.29,4.46v6.6h-3.61v-11.03c-.68-.11-1.65-.22-2.47-.27v-2.16c1.79-.21,3.98-.3,5.88-.25,0,.65-.06,1.71-.21,2.44h.03c.85-1.57,2.5-2.71,4.8-2.71,3.18,0,4.2,1.95,4.2,4.38v9.6h-3.61,0Z"/>
      <path class="st0" d="M393.25,91.43v-11.03c-.68-.11-1.65-.22-2.47-.28v-2.16c1.78-.21,3.97-.3,6.07-.25v13.72h-3.61,0ZM395.05,75.66c-1.22,0-2.25-.92-2.25-2.13s1.02-2.14,2.25-2.14,2.27.92,2.27,2.14-1.02,2.13-2.27,2.13"/>
      <path class="st0" d="M405.52,91.72c-3.12,0-4.09-1.1-4.09-4.32v-6.98h-2.44v-2.68h2.44v-4.28l3.61-.94v5.22h3.44v2.68h-3.44v6.06c0,1.77.42,2.29,1.67,2.29.6,0,1.14-.05,1.62-.21l.25,2.76c-.91.23-2.06.4-3.06.4"/>
      <path class="st0" d="M422.87,85.2h-8.74c-.03,2.49,1.28,3.79,3.89,3.79,1.33,0,2.76-.28,4.08-.87l.4,2.68c-1.53.59-3.37.91-5.11.91-4.46,0-6.96-2.16-6.96-7.01,0-4.23,2.39-7.29,6.61-7.29s5.94,2.71,5.94,6.12c0,.46-.03,1.04-.11,1.67M416.93,79.99c-1.5,0-2.55,1.1-2.76,2.81h5.2c.06-1.77-.91-2.81-2.44-2.81"/>
      <path class="st0" d="M434.53,91.46c0-.68.06-1.55.17-2.28h-.06c-.74,1.49-2.3,2.57-4.46,2.57-3.44,0-5.14-2.49-5.14-6.41,0-4.69,2.78-7.86,7.47-7.86.6,0,1.16.03,1.79.12v-3.59c-.68-.12-1.65-.24-2.47-.3v-2.21c1.79-.21,4.01-.3,6.08-.24v17.52c.68.11,1.64.23,2.47.28v2.17c-1.79.22-3.97.31-5.85.25M434.31,80.44c-.65-.13-1.28-.22-1.9-.22-2.07,0-3.55,1.33-3.55,4.72,0,2.53.77,3.91,2.41,3.91,1.9,0,3.04-2.19,3.04-4.55v-3.86h0Z"/>
      <path class="st0" d="M460.54,91.43l-1.33-3.81h-7.24l-1.33,3.81h-3.72l6.7-18.66h4.17l6.84,18.66h-4.09ZM456.37,79.47c-.34-.89-.6-1.73-.79-2.6h-.03c-.22.87-.45,1.7-.76,2.6l-1.9,5.32h5.39l-1.9-5.32h-.01Z"/>
      <path class="st0" d="M474.67,80.92c-2.69-.58-4.01,1.12-4.01,4.94v5.57h-3.6v-11.03c-.68-.11-1.65-.22-2.47-.28v-2.16c1.79-.21,3.97-.3,5.87-.25,0,.71-.08,1.79-.26,2.74h.06c.68-1.71,2.04-3.23,4.57-3l-.17,3.48h.01Z"/>
      <path class="st0" d="M483.74,91.46c0-.79.03-1.61.14-2.31l-.03-.02c-.69,1.51-2.42,2.59-4.52,2.59-2.55,0-4.03-1.51-4.03-3.74,0-3.27,3.35-4.99,8.15-4.99v-.65c0-1.45-.71-2.22-2.76-2.22-1.28,0-2.98.41-4.11,1.03l-.43-2.9c1.45-.46,3.32-.84,5.06-.84,4.59,0,5.88,1.76,5.88,4.79v6.57c.68.11,1.64.23,2.47.27v2.17c-1.79.22-3.98.31-5.82.25M483.45,85.31c-3.69,0-4.69.95-4.69,2.12,0,.93.63,1.61,1.68,1.61,1.79,0,3-1.7,3-3.32v-.41h.01Z"/>
      <path class="st0" d="M497.17,91.72c-2.05,0-3.64-.23-5.26-.67v-17.04c-.68-.12-1.65-.24-2.47-.3v-2.22c1.82-.21,4.01-.3,6.1-.24v5.93c0,.86-.08,1.97-.22,2.68h.03c.71-1.47,2.27-2.41,4.25-2.41,3.38,0,5.19,2.35,5.19,6.41,0,4.68-2.78,7.86-7.64,7.86M498.56,80.34c-1.88,0-3.01,2.16-3.01,4.46v3.89c.52.17,1.11.26,1.88.26,2.07,0,3.55-1.32,3.55-4.73,0-2.53-.77-3.87-2.41-3.87"/>
      <polygon class="st0" points="513.97 91.43 513.97 72.76 524.39 72.76 524.39 75.79 517.66 75.79 517.66 80.36 524.05 80.36 524.05 83.32 517.66 83.32 517.66 88.39 524.39 88.39 524.39 91.43 513.97 91.43"/>
      <path class="st0" d="M545.89,91.43v-8.65c0-1.44-.34-2.41-1.68-2.41-1.59,0-3.24,1.84-3.24,4.52v6.54h-3.57v-8.68c0-1.33-.29-2.38-1.67-2.38-1.68,0-3.24,1.94-3.24,4.52v6.54h-3.6v-11.03c-.69-.11-1.65-.22-2.47-.27v-2.16c1.79-.21,4-.3,5.88-.25,0,.65-.06,1.65-.17,2.44l.03.03c.85-1.65,2.55-2.74,4.65-2.74,2.5,0,3.54,1.4,3.89,2.71.65-1.3,2.22-2.71,4.6-2.71,2.73,0,4.23,1.46,4.23,4.57v9.42h-3.64Z"/>
      <path class="st0" d="M554.37,91.43v-11.03c-.68-.11-1.65-.22-2.47-.28v-2.16c1.79-.21,3.97-.3,6.08-.25v13.72h-3.61ZM556.16,75.66c-1.22,0-2.25-.92-2.25-2.13s1.03-2.14,2.25-2.14,2.27.92,2.27,2.14-1.02,2.13-2.27,2.13"/>
      <path class="st0" d="M570.44,80.92c-2.7-.58-4,1.12-4,4.94v5.57h-3.6v-11.03c-.69-.11-1.65-.22-2.47-.28v-2.16c1.78-.21,3.97-.3,5.88-.25,0,.71-.09,1.79-.26,2.74h.05c.68-1.71,2.05-3.23,4.57-3l-.17,3.48h0Z"/>
      <path class="st0" d="M579.51,91.46c0-.79.03-1.61.14-2.31l-.02-.02c-.69,1.51-2.41,2.59-4.52,2.59-2.55,0-4.03-1.51-4.03-3.74,0-3.27,3.35-4.99,8.15-4.99v-.65c0-1.45-.71-2.22-2.75-2.22-1.28,0-2.98.41-4.12,1.03l-.42-2.9c1.45-.46,3.32-.84,5.05-.84,4.6,0,5.88,1.76,5.88,4.79v6.57c.68.11,1.64.23,2.47.27v2.17c-1.79.22-3.98.31-5.82.25M579.23,85.31c-3.68,0-4.69.95-4.69,2.12,0,.93.63,1.61,1.68,1.61,1.79,0,3.01-1.7,3.01-3.32v-.41Z"/>
      <path class="st0" d="M592.29,91.72c-3.13,0-4.09-1.1-4.09-4.32v-6.98h-2.44v-2.68h2.44v-4.28l3.61-.94v5.22h3.43v2.68h-3.43v6.06c0,1.77.42,2.29,1.67,2.29.59,0,1.14-.05,1.62-.21l.25,2.76c-.91.23-2.07.4-3.06.4"/>
      <path class="st0" d="M609.63,85.2h-8.74c-.03,2.49,1.28,3.79,3.89,3.79,1.34,0,2.76-.28,4.09-.87l.4,2.68c-1.53.59-3.38.91-5.11.91-4.45,0-6.96-2.16-6.96-7.01,0-4.23,2.39-7.29,6.61-7.29s5.94,2.71,5.94,6.12c0,.46-.03,1.04-.12,1.67M603.7,79.99c-1.51,0-2.56,1.1-2.76,2.81h5.2c.05-1.77-.91-2.81-2.44-2.81"/>
      <path class="st0" d="M615.34,91.72c-1.11,0-2.24-.12-3.15-.38l.25-2.92c.85.38,1.96.58,3.01.58,1.37,0,2.28-.6,2.28-1.51,0-2.42-5.74-1-5.74-5.66,0-2.46,1.9-4.41,5.96-4.41.82,0,1.79.12,2.59.3l-.17,2.71c-.77-.22-1.67-.35-2.56-.35-1.42,0-2.07.55-2.07,1.45,0,2.28,5.82,1.14,5.82,5.63,0,2.76-2.47,4.56-6.22,4.56"/>
      <path class="st0" d="M637.76,91.75c-6.05,0-7.41-3.19-7.41-6.74v-12.24h3.69v12.01c0,2.33.79,4.03,3.98,4.03,2.84,0,4.03-1.21,4.03-4.38v-11.65h3.67v11.42c0,5.14-2.9,7.57-7.95,7.57"/>
      <path class="st0" d="M659.22,91.43v-8.76c0-1.39-.39-2.3-1.73-2.3-1.84,0-3.29,2.05-3.29,4.46v6.6h-3.61v-11.03c-.68-.11-1.65-.22-2.47-.27v-2.16c1.79-.21,3.98-.3,5.88-.25,0,.65-.06,1.71-.2,2.44h.03c.85-1.57,2.49-2.71,4.8-2.71,3.17,0,4.2,1.95,4.2,4.38v9.6h-3.61Z"/>
      <path class="st0" d="M667.71,91.43v-11.03c-.67-.11-1.64-.22-2.46-.28v-2.16c1.79-.21,3.97-.3,6.06-.25v13.72h-3.61.01ZM669.5,75.66c-1.22,0-2.24-.92-2.24-2.13s1.02-2.14,2.24-2.14,2.28.92,2.28,2.14-1.04,2.13-2.28,2.13"/>
      <path class="st0" d="M682.28,91.43h-3.69l-5.23-13.69h3.97l2.26,6.14c.33,1.01.68,2.1.93,3.06h.06c.22-.92.5-1.97.85-2.94l2.26-6.25h3.86l-5.27,13.69h0Z"/>
      <path class="st0" d="M700.75,85.2h-8.74c-.02,2.49,1.28,3.79,3.89,3.79,1.34,0,2.76-.28,4.09-.87l.4,2.68c-1.54.59-3.38.91-5.11.91-4.45,0-6.96-2.16-6.96-7.01,0-4.23,2.39-7.29,6.62-7.29s5.94,2.71,5.94,6.12c0,.46-.03,1.04-.12,1.67M694.82,79.99c-1.5,0-2.56,1.1-2.76,2.81h5.2c.05-1.77-.91-2.81-2.45-2.81"/>
      <path class="st0" d="M711.96,80.92c-2.71-.58-4,1.12-4,4.94v5.57h-3.61v-11.03c-.69-.11-1.65-.22-2.47-.28v-2.16c1.78-.21,3.97-.3,5.87-.25,0,.71-.09,1.79-.26,2.74h.06c.7-1.71,2.04-3.23,4.59-3l-.18,3.48h0Z"/>
      <path class="st0" d="M717.03,91.72c-1.09,0-2.24-.12-3.13-.38l.26-2.92c.83.38,1.96.58,2.99.58,1.36,0,2.28-.6,2.28-1.51,0-2.42-5.73-1-5.73-5.66,0-2.46,1.9-4.41,5.97-4.41.81,0,1.78.12,2.57.3l-.17,2.71c-.77-.22-1.68-.35-2.55-.35-1.42,0-2.08.55-2.08,1.45,0,2.28,5.82,1.14,5.82,5.63,0,2.76-2.47,4.56-6.23,4.56"/>
      <path class="st0" d="M726.76,91.43v-11.03c-.68-.11-1.64-.22-2.47-.28v-2.16c1.79-.21,3.96-.3,6.07-.25v13.72h-3.6ZM728.55,75.66c-1.22,0-2.25-.92-2.25-2.13s1.04-2.14,2.25-2.14,2.28.92,2.28,2.14-1.02,2.13-2.28,2.13"/>
      <path class="st0" d="M739.03,91.72c-3.13,0-4.08-1.1-4.08-4.32v-6.98h-2.45v-2.68h2.45v-4.28l3.61-.94v5.22h3.43v2.68h-3.43v6.06c0,1.77.42,2.29,1.66,2.29.6,0,1.14-.05,1.63-.21l.25,2.76c-.91.23-2.07.4-3.06.4"/>
      <path class="st0" d="M751.55,92.24c-1.85,4.76-3.83,6.08-7.1,6.08-.6,0-1.45-.07-1.98-.18l.42-3.05c.54.18,1.19.29,1.79.29,1.2,0,2.44-.56,3.24-2.68l.43-1.27-5.2-13.69h4.03l1.9,5.22c.42,1.16.79,2.57,1.11,3.78h.03c.31-1.22.91-3.11,1.36-4.36l1.67-4.65h3.89l-5.59,14.5h0Z"/>
    </g>
  </g>
  <g>
    <path class="st0" d="M847.73,58.77c0-12.54-6.73-23.56-16.86-29.8l-6.39,5.95c8.77,4.53,14.74,13.51,14.74,23.85,0,9.67-5.22,18.15-13.07,22.91l1.95,8.12c-1.63.83-3.33,1.53-5.1,2.12-.07-.44-.26-.81-.34-.94-.26-.44-.78-.81-1.32-.96-.34-.09-.64-.07-.85.05-.02.01-.04.02-.05.03-.1-.38-.2-.74-.26-.95h.05c.19,0,.28-.09.32-.16.26-.42-.34-1.53-1.32-3.31-.64-1.16-1.31-2.37-1.31-2.83,0-.89.23-1.23.31-1.32,1.07-.05,2.98-.46,4.67-1,1.28-.41,3.56-1.26,4.43-2.35.28-.34.4-.69.36-1.04,1.95-1.05,3.35-2.14,3.78-2.98.18-.34.21-.66.07-.92,1.09-.89,1.95-1.83,2.56-2.79.33-.52.8-1.34,1.13-2.09.41-.93.52-1.52.33-1.81-.04-.07-.11-.14-.24-.17,1.03-1.65,1.55-3.29,1.55-4.88,0-.97-.13-1.5-.42-1.67-.05-.03-.1-.05-.18-.05.28-1.06.43-2.11.43-3.16v-.23c0-1.36,0-1.88-.29-3.09-.04-.17-.26-1-.7-1.11-.05,0-.11,0-.18,0v-.03c.05-.9-.19-2.43-.61-3.91-.22-.77-.79-2.57-1.43-2.8-.08-.03-.22-.05-.36.03-.07-.21-.14-.42-.22-.62-.58-1.41-1.46-2.51-2.7-3.36-.6-.41-1-.36-1.18-.19-.15.15-.19.46.14.87,1.19,1.45,1.57,3.32,1.68,4.64.15,1.67-.07,3.44-.59,4.84-1.08,2.92-3.74,5.15-5.17,6.35-.49.41-.81.68-.92.85-.14.22-.26.59-.41,1.06-.31.96-.78,2.41-1.75,3.6-1.37,1.67-3.24,2.27-4.42,2.27-1.51,0-1.99-1.58-2.54-3.42-.66-2.2-1.4-4.7-4.27-4.7-.48,0-1.11.03-1.7.29-.63.27-1.1.74-1.45,1.43-.21.1-1.02.52-1.3,1.3-.06.17-.09.35-.09.53,0,.3.08.6.24.91h.31c.02-.11.19-.73,1.07-.73.37,0,.66.17.87.5.19.3.25.67.25.92,0,.73-.37,1.48-1.01,2.06-.67.6-1.55.92-2.47.92-1.18,0-3.04-.59-4.42-2.27-.97-1.18-1.45-2.64-1.75-3.6-.16-.48-.28-.85-.41-1.06-.11-.17-.43-.44-.92-.85-1.43-1.2-4.09-3.43-5.16-6.35-.52-1.41-.73-3.17-.59-4.84.11-1.32.5-3.19,1.68-4.64.33-.41.3-.71.15-.87-.17-.18-.57-.22-1.18.19-1.24.85-2.13,1.95-2.7,3.36-.08.2-.15.4-.23.62-.14-.08-.27-.06-.35-.03-.64.23-1.22,2.03-1.44,2.8-.42,1.47-.66,3.01-.6,3.91v.03c-.07-.02-.13,0-.18,0-.44.1-.66.94-.7,1.11-.29,1.22-.29,1.73-.29,3.09v.23c0,1.05.14,2.11.43,3.16-.07,0-.13.03-.18.05-.28.16-.42.69-.42,1.67,0,1.59.52,3.23,1.55,4.88-.12.03-.19.11-.23.17-.2.29-.09.88.32,1.81.33.75.81,1.57,1.13,2.09.61.96,1.47,1.9,2.56,2.79-.13.26-.1.57.07.92.44.84,1.83,1.93,3.79,2.98-.04.35.08.7.36,1.04.88,1.09,3.15,1.94,4.43,2.35,1.7.54,3.61.95,4.68,1,.07.09.3.43.3,1.32,0,.46-.67,1.66-1.31,2.83-.99,1.78-1.58,2.89-1.32,3.31.04.07.14.16.32.16h.06c-.07.22-.16.58-.26.95-.02,0-.03-.02-.05-.03-.21-.12-.51-.14-.85-.05-.54.14-1.06.52-1.32.96-.08.14-.27.5-.34.95-1.78-.58-3.49-1.3-5.13-2.12l1.96-8.12c-7.85-4.76-13.07-13.24-13.07-22.91,0-10.34,5.98-19.32,14.74-23.85l-6.38-5.95c-10.13,6.24-16.86,17.26-16.86,29.8,0,10.92,5.11,20.69,13.12,27.15l-2.46,6.05v.05c0,1.19,3.48,3.8,7.91,5.92,3.34,1.6,10.08,4.05,17.62,4.05s14.28-2.45,17.62-4.05c4.44-2.12,7.91-4.73,7.91-5.92v-.05l-2.47-6.05c8.01-6.46,13.11-16.23,13.11-27.15l-.02-.02ZM829,31.1c9.53,5.71,15.88,15.97,15.88,27.67,0,5.97-1.65,11.57-4.54,16.37l-1.85-1.63c2.51-4.36,3.95-9.38,3.95-14.74,0-11.07-6.14-20.74-15.27-25.97l1.83-1.7h0ZM839.51,58.77c0-10.31-5.88-19.28-14.55-23.91l2-1.86c9.09,5.17,15.2,14.77,15.2,25.77,0,5.28-1.41,10.24-3.88,14.55l-2.01-1.78c2.07-3.81,3.25-8.15,3.25-12.76h-.01ZM838.27,73.31l-2.01-1.78,2.01,1.78ZM826.52,81.97l7.6,3.98c-1.78,1.4-3.7,2.65-5.75,3.7l-1.85-7.68ZM820.64,90.31c.14-.08.38-.09.63-.03.47.12.93.45,1.15.83.17.3.32.71.32,1.13,0,.14-.02.27-.05.4-.07.28-.23.5-.46.67-.01-.24-.08-.61-.29-.96-.12-.21-.31-.33-.51-.43-.25-.55-.76-1.02-1.24-1.15.04-.18.19-.33.44-.46h0ZM820.41,93.38c-.06-.32-.29-.55-.54-.76-.07-.45-.31-.88-.62-1.18.02-.05.04-.09.07-.13.1-.15.29-.24.57-.29.46-.07,1.26.61,1.39,1.35.03.13.04.27.04.42,0,.36-.08.78-.32,1.1-.16.23-.38.39-.66.48.05-.16.1-.39.1-.65,0-.11,0-.23-.03-.35h0ZM818.46,93.36c-.05-.08-.09-.15-.15-.21l-.05-.07s-.4.09-.59.13c0-.19-.02-.45-.02-.67,0-.18,0-.34.02-.42.1-.59.29-.77.8-.77.46,0,1.12.81,1.12,1.57,0,.59-.28,1.67-1.28,1.82.11-.22.24-.57.24-.97,0-.16-.04-.28-.1-.4h.01ZM817.39,93.26c-1.9.3-3.86.47-5.85.47s-3.93-.16-5.81-.46c0-.16.01-.46.01-.73,0-.2,0-.38-.02-.47-.1-.58-.32-.97-1.01-1.01.15-.38.34-.82.5-1.29.2,0,.41-.26.96-1.08.04-.06.09-.12.13-.19-.13.47-.23.84-.26,1.05-.06.32-.12,1.77.21,2.14.08.09.16.11.22.11.57,0,1.14-.39,1.56-.91.05.48.16.98.4,1.21.1.1.22.15.36.15.39,0,.94-.54,1.32-1.12.23.87.78,1.71,1.44,1.71s1.2-.84,1.43-1.71c.38.58.93,1.12,1.32,1.12.13,0,.26-.05.36-.15.24-.23.36-.73.4-1.21.42.51.99.91,1.55.91.06,0,.15-.02.23-.11.33-.37.26-1.81.21-2.14-.03-.21-.13-.58-.26-1.05.05.07.09.13.13.19.55.82.76,1.08.96,1.08.16.47.35.91.5,1.29-.69.03-.9.42-1.01,1.01-.02.1-.02.28-.02.47,0,.26,0,.56.02.72h.02ZM804.79,94.73c-1.01-.16-1.28-1.23-1.28-1.82,0-.75.66-1.56,1.13-1.56.51,0,.69.18.8.77.01.08.02.24.02.41,0,.23,0,.49-.01.68-.19-.04-.59-.13-.59-.13l-.06.07c-.12.15-.25.34-.25.61,0,.41.13.76.24.97h0ZM802.78,94.39c-.28-.09-.5-.25-.67-.48-.23-.32-.31-.74-.31-1.1,0-.15.01-.3.03-.42.13-.75.93-1.43,1.39-1.35.29.05.47.14.58.29.03.04.05.08.07.13-.3.3-.54.73-.62,1.18-.24.21-.47.44-.53.76-.02.12-.03.24-.03.35,0,.26.05.49.1.65h-.01ZM811.55,84.3h0c.34,0,.66.06.98.16.17,2.02.4,4.99.35,5.65-.08,1.03-.67,2.45-1.33,2.45s-1.24-1.43-1.33-2.45c-.05-.66.17-3.64.34-5.65.32-.1.65-.16.98-.16h.01ZM814.68,87.24c-.1-.54-.2-1.12-.29-1.65.73.66,1.38,1.47,1.9,2.19.24.83.44,1.53.49,1.83.02.14.03.41.03.7,0,.13,0,.27-.01.4-.03.6-.14.79-.18.82-.54,0-1.15-.5-1.52-1.07v-.34c0-.43-.2-1.57-.43-2.88h0ZM814.82,90.12c0,.7-.08,1.53-.35,1.79-.05.05-.1.07-.15.07-.27,0-.89-.6-1.23-1.24.04-.21.07-.43.08-.62.06-.67-.16-3.54-.33-5.56.42.17.83.42,1.21.73.1.62.22,1.31.34,1.98.22,1.25.43,2.43.43,2.84h0ZM809.95,90.13c.01.19.04.4.09.62-.34.63-.97,1.24-1.23,1.24-.05,0-.11-.02-.16-.07-.26-.26-.35-1.1-.35-1.79,0-.41.21-1.59.43-2.84.12-.67.24-1.37.34-1.98.38-.3.79-.55,1.22-.73-.17,2.02-.39,4.89-.33,5.56h-.01ZM808.44,87.24c-.23,1.31-.44,2.45-.44,2.88v.34c-.37.57-.97,1.07-1.52,1.07-.04-.03-.14-.22-.18-.82,0-.13-.01-.27-.01-.4,0-.29.02-.56.04-.7.05-.3.24-1,.49-1.83.52-.72,1.16-1.53,1.9-2.19-.09.54-.19,1.11-.29,1.65h.01ZM820.2,90.28c-.15.14-.25.29-.28.46h-.07c-.36.06-.61.19-.76.4-.02.03-.04.07-.06.1-.1-.07-.2-.12-.3-.15-.16-.41-.36-.9-.55-1.43.15-.11.26-.29.36-.46.15-.24.28-.46.47-.46.2,0,.37.09.55.18.1.05.21.11.32.15.05.18.2.69.33,1.2h0ZM818.82,81.18c.57-.37,1.12-.89,1.5-1.34.48-.09.97-.2,1.47-.34-.59.66-1.59,1.32-2.17,1.55-.29.05-.56.09-.81.12h.01ZM822.9,77.25c1.13-.8,2.43-2.1,2.85-3.02,1.43-.65,2.84-1.45,4.15-2.37-.9,1.67-3.82,4.03-5.26,4.83-.58.21-1.16.39-1.75.56h.01ZM826.64,76.2c-.75.85-2.19,2.14-3.47,2.6-.47.16-.94.3-1.4.43.66-.43,1.47-1.09,2.02-1.95.96-.3,1.92-.67,2.85-1.08ZM827.26,73.18c-1,.54-2.02,1.01-3.03,1.39,1.35-1.15,3.19-3.18,3.45-4.14,1.53-.98,2.94-2.11,4.17-3.35.05-.05.1-.1.15-.15-.86,2.61-3.29,5.16-4.74,6.24h0ZM825.49,71.39c.6-.58,1.21-1.31,1.77-2.08.89-1.23,1.55-2.51,1.88-3.61.68-.68,1.31-1.4,1.9-2.16.85-1.1,1.6-2.25,2.22-3.44-.06,1.32-.5,2.91-1.24,4.56-.75,1.67-1.77,3.27-2.72,4.28-1.18.91-2.45,1.73-3.81,2.44h0ZM831,63.12h-.01c-.06.09-.12.18-.18.26-1.22,1.57-2.64,2.98-4.21,4.2,1.49-2.1,2.46-4.46,2.69-6.57.12-.17.24-.33.34-.48,1.16-1.68,2.14-3.45,2.86-5.11.25,2.13-.57,6.07-1.47,7.71h-.02ZM827.88,64.79c-.54,1.17-1.26,2.34-2.09,3.38-1.03.73-2.11,1.37-3.23,1.91,1.32-1.47,2.27-3.13,2.61-4.47,1.55-1.37,2.82-2.87,3.76-4.12-.16,1.06-.52,2.17-1.04,3.3h-.01ZM826.42,68.06c.79-.59,1.55-1.23,2.27-1.92-.84,2.22-2.76,4.64-4.2,5.75-.71.34-1.44.65-2.18.93,1.1-.96,1.97-2.24,2.46-3.63.57-.35,1.12-.73,1.65-1.12h0ZM827.26,70.7c-.58,1.14-2.65,3.33-3.89,4.18-.57.19-1.14.36-1.69.49.76-.78,1.39-1.73,1.81-2.72,1.31-.55,2.57-1.21,3.76-1.94h.01ZM825.32,74.43c-.62,1.01-2.18,2.46-3.32,3.06-.46.11-.92.21-1.36.29.77-.57,1.42-1.39,1.88-2.34.92-.26,1.86-.6,2.8-1.01ZM823.35,77.42c-.8,1.07-2.01,1.77-2.55,2.05-.33.07-.65.14-.96.18.72-.51,1.32-1.2,1.65-1.75.62-.13,1.24-.3,1.86-.48ZM820.58,80.86c.62-.39,1.31-.95,1.69-1.49.66-.2,1.35-.43,2.05-.69-.77.63-2.18,1.64-3.03,2.01-.24.06-.47.11-.71.17h0ZM827.11,78c-.61.76-2.14,1.57-4.29,2.25-.11.04-.23.07-.35.11,1.07-.67,2.27-1.6,2.57-1.97.39-.16.78-.33,1.17-.51.42-.2.83-.4,1.22-.6,0,.24-.11.48-.31.72h-.01ZM831.22,74.03c-.51.99-2.48,2.37-5.14,3.6-.38.18-.77.34-1.15.51,1.02-.74,1.91-1.66,2.28-2.21.15-.07.3-.14.44-.21,1.38-.69,2.61-1.46,3.68-2.3.05.17.03.37-.1.61h-.01ZM833.87,70.3c-1.2,1.89-3.46,3.72-6.35,5.17-.52.26-1.05.5-1.59.73,1.71-1.22,3.95-3.25,4.43-4.66.22-.17.44-.34.66-.5,1.73-1.36,3.16-2.88,4.15-4.4.11,0,.14.05.16.07.26.39-.55,2.17-1.46,3.6h0ZM836.32,60.07c.08.05.28.28.28,1.43,0,1.59-.55,3.25-1.63,4.93-.98,1.51-2.41,3.03-4.13,4.39-.71.55-1.45,1.08-2.22,1.56.57-.55,1.14-1.18,1.65-1.82.77-.98,1.76-2.48,2.15-4.08,1.26-1.37,2.26-2.82,2.98-4.32.34-.7.6-1.39.81-2.1.07-.02.1,0,.11,0h0ZM835.66,52.46c.16.04.38.43.49.9.29,1.19.29,1.69.28,3.03v.23c0,1.81-.44,3.64-1.3,5.43-.82,1.69-1.99,3.32-3.5,4.84-.39.4-.81.78-1.23,1.15.68-.93,1.34-2.08,1.87-3.26.87-1.94,1.32-3.8,1.27-5.25.23-.47.44-.95.63-1.43.74-1.84,1.19-3.72,1.34-5.58.05-.05.1-.07.14-.06h0ZM833.4,45.71c.29.1.79.95,1.26,2.6.41,1.45.65,2.95.6,3.82-.12,1.95-.57,3.92-1.35,5.86-.56,1.4-1.28,2.75-2.14,4.04.29-.82.55-1.84.74-2.88.32-1.75.38-3.29.17-4.24.71-1.74,1.11-3.32,1.11-4.51,0-1.83-.18-3.36-.56-4.64.08-.08.14-.06.16-.05h.01ZM788.45,48.32c.48-1.65.98-2.5,1.26-2.6.03,0,.08-.03.16.05-.38,1.28-.56,2.8-.56,4.64,0,1.19.4,2.78,1.12,4.51-.21.95-.15,2.48.17,4.24.19,1.04.45,2.06.74,2.88-.87-1.29-1.58-2.64-2.14-4.04-.78-1.94-1.23-3.91-1.34-5.86-.05-.87.18-2.37.59-3.82h0ZM795.44,70.43c.26.96,2.1,2.98,3.46,4.14-1.01-.38-2.03-.85-3.04-1.39-1.44-1.08-3.88-3.64-4.74-6.24.05.05.09.1.15.15,1.23,1.24,2.63,2.37,4.17,3.35h0ZM793.81,68.94c-.95-1.01-1.96-2.61-2.71-4.28-.74-1.65-1.18-3.25-1.24-4.56.63,1.19,1.37,2.34,2.22,3.44.59.76,1.22,1.47,1.9,2.16.34,1.1,1,2.38,1.88,3.61.56.77,1.17,1.5,1.77,2.08-1.36-.71-2.64-1.53-3.82-2.44h0ZM797.37,74.24c.42.92,1.72,2.21,2.84,3.02-.58-.17-1.16-.35-1.74-.56-1.43-.8-4.35-3.16-5.25-4.83,1.31.92,2.73,1.72,4.15,2.37h0ZM799.33,77.28c.55.86,1.36,1.51,2.02,1.95-.45-.13-.93-.27-1.4-.43-1.28-.46-2.72-1.74-3.47-2.6.93.42,1.89.78,2.85,1.08ZM799.77,77.42c.63.18,1.25.35,1.86.48.33.55.93,1.24,1.65,1.75-.31-.05-.63-.11-.96-.18-.54-.28-1.74-.97-2.55-2.05ZM801.12,77.49c-1.15-.6-2.7-2.06-3.32-3.06.94.4,1.89.75,2.81,1.01.46.95,1.11,1.77,1.88,2.34-.45-.08-.91-.17-1.36-.29h-.01ZM799.74,74.87c-1.24-.85-3.3-3.04-3.89-4.18,1.19.73,2.46,1.39,3.77,1.94.42.99,1.05,1.94,1.82,2.72-.56-.13-1.12-.3-1.69-.49h-.01ZM798.63,71.89c-1.45-1.11-3.36-3.53-4.2-5.75.71.69,1.47,1.32,2.26,1.92.54.4,1.09.77,1.65,1.12.48,1.39,1.36,2.67,2.46,3.63-.75-.28-1.47-.58-2.18-.93h0ZM797.33,68.17c-.83-1.03-1.55-2.2-2.1-3.38-.53-1.13-.88-2.24-1.05-3.3.93,1.25,2.21,2.76,3.76,4.12.34,1.34,1.29,3,2.61,4.47-1.12-.54-2.2-1.18-3.23-1.91h0ZM796.52,67.57c-1.58-1.22-2.99-2.63-4.22-4.2-.05-.08-.12-.16-.18-.24h-.01c-.9-1.65-1.72-5.59-1.48-7.72.72,1.66,1.7,3.43,2.85,5.11.11.16.22.31.34.48.22,2.11,1.19,4.46,2.69,6.57h0ZM786.68,56.62v-.23c0-1.34,0-1.84.29-3.03.11-.47.32-.86.48-.9.05,0,.09,0,.14.06.15,1.86.6,3.74,1.34,5.58.19.48.4.96.63,1.43-.05,1.45.4,3.31,1.27,5.25.53,1.18,1.19,2.32,1.86,3.26-.42-.37-.83-.75-1.23-1.15-1.51-1.52-2.68-3.15-3.49-4.84-.86-1.79-1.3-3.62-1.3-5.43h0ZM786.52,61.5c0-1.14.19-1.38.27-1.43.02,0,.05-.03.11,0,.21.71.48,1.4.81,2.1.72,1.5,1.72,2.95,2.98,4.32.39,1.6,1.38,3.1,2.15,4.08.5.64,1.08,1.27,1.65,1.82-.77-.48-1.52-1.01-2.22-1.56-1.72-1.36-3.15-2.88-4.13-4.39-1.08-1.68-1.62-3.34-1.62-4.93h0ZM789.25,70.3c-.91-1.42-1.72-3.21-1.46-3.6,0-.02.04-.07.15-.07.99,1.52,2.43,3.05,4.15,4.4.21.17.44.34.66.5.49,1.41,2.72,3.44,4.44,4.66-.54-.22-1.07-.47-1.59-.73-2.9-1.45-5.15-3.28-6.35-5.17h0ZM791.9,74.03c-.12-.24-.16-.44-.1-.61,1.06.84,2.29,1.61,3.67,2.3.14.07.29.14.44.21.38.54,1.26,1.46,2.29,2.21-.39-.16-.77-.33-1.15-.51-2.66-1.23-4.63-2.61-5.14-3.6h0ZM800.3,80.25c-2.15-.69-3.67-1.49-4.29-2.25-.2-.24-.3-.48-.31-.72.39.2.79.4,1.22.6.39.18.78.35,1.17.51.3.37,1.49,1.3,2.56,1.97-.12-.04-.24-.07-.35-.11ZM801.83,80.69c-.85-.37-2.26-1.38-3.03-2.01.69.26,1.38.49,2.05.69.38.54,1.06,1.09,1.68,1.49-.22-.05-.46-.11-.7-.17h0ZM803.49,81.06c-.58-.24-1.58-.89-2.17-1.55.51.14,1,.25,1.47.34.38.45.93.97,1.51,1.34-.24-.03-.52-.07-.81-.12h0ZM802.88,88.86c-.06,0-.07-.02-.07-.03-.03-.05-.07-.27.3-1.07.26-.57.65-1.28,1.03-1.96.69-1.24,1.34-2.43,1.34-2.96,0-1.21-.4-1.53-.44-1.57,0,0-.02-.01-.03-.01-.52-.24-1.21-.76-1.76-1.33.5.08.98.13,1.42.15l-.26-.3c-.16,0-.28-.02-.44-.04-.81-.42-1.53-1.16-1.94-1.77.62.12,1.24.22,1.83.28l-.15-.3c-.18-.02-.36-.04-.54-.07-.89-.51-1.65-1.34-2.18-2.35.68.17,1.34.31,1.99.39l-.06-.29c-.31-.04-.62-.09-.94-.16-.79-.74-1.49-1.69-1.95-2.68.85.35,1.72.65,2.61.91v-.29c-.3-.09-.65-.2-.96-.31-1.27-.88-2.32-2.22-2.9-3.69,1.19.71,2.44,1.3,3.73,1.78l.1-.26c-.45-.17-.89-.35-1.33-.54-1.41-1.43-2.46-3.07-2.91-4.45,1.3,1.08,2.76,2.06,4.39,2.71l.13-.25c-4.28-1.73-7.52-5.72-9.13-8.05-1.24-1.79-2.29-3.71-3.03-5.54-.71-1.73-1.1-3.3-1.1-4.41,0-2.25.27-4.03.85-5.44.56-1.36,1.41-2.42,2.61-3.24.45-.3.73-.3.8-.22.06.07.03.26-.16.5-1.23,1.51-1.63,3.44-1.74,4.8-.15,1.71.07,3.52.6,4.96,1.1,2.99,3.79,5.25,5.25,6.47.43.36.78.65.86.79.11.18.23.54.38,1,.32.98.8,2.47,1.81,3.69,1.44,1.75,3.39,2.37,4.64,2.37.99,0,1.94-.35,2.66-.99.71-.63,1.12-1.45,1.12-2.26,0-.66-.38-1.71-1.41-1.71-.73,0-1.07.35-1.23.64-.07-.18-.1-.36-.1-.53,0-.15.03-.29.07-.43.27-.76,1.19-1.16,1.2-1.16l.05-.02.02-.05c.68-1.41,1.85-1.59,2.91-1.59,1.18,0,2.08.46,2.74,1.41.59.86.94,1.99,1.26,3.08.55,1.86,1.09,3.62,2.82,3.62,1.24,0,3.21-.62,4.64-2.37,1.01-1.22,1.49-2.71,1.81-3.69.15-.46.26-.81.38-1,.08-.13.43-.42.86-.79,1.45-1.21,4.14-3.48,5.25-6.47.53-1.44.75-3.25.6-4.96-.12-1.36-.51-3.29-1.74-4.8-.2-.24-.23-.42-.16-.5.07-.07.36-.08.81.22,1.19.82,2.05,1.88,2.6,3.24.58,1.41.85,3.19.85,5.44,0,1.11-.39,2.68-1.1,4.41-.75,1.83-1.79,3.75-3.03,5.54-1.61,2.33-4.85,6.33-9.13,8.05l.13.25c1.62-.65,3.09-1.63,4.38-2.71-.45,1.38-1.5,3.02-2.9,4.45-.44.19-.88.37-1.33.54l.1.26c1.29-.48,2.53-1.07,3.73-1.78-.59,1.47-1.64,2.81-2.91,3.69-.31.11-.66.21-.97.31v.29c.9-.26,1.77-.56,2.62-.91-.46.98-1.16,1.94-1.95,2.68-.32.06-.63.12-.94.16l-.06.29c.64-.09,1.31-.22,1.99-.39-.53,1.02-1.3,1.84-2.19,2.35-.18.03-.36.05-.54.07l-.16.3c.6-.06,1.21-.15,1.83-.28-.42.61-1.13,1.34-1.94,1.77-.16.02-.28.03-.43.04l-.26.3c.44-.02.91-.07,1.41-.15-.54.58-1.24,1.09-1.76,1.33,0,0-.02,0-.02.01-.05.03-.44.36-.44,1.57,0,.53.65,1.71,1.34,2.96.38.68.78,1.39,1.04,1.96.37.8.33,1.02.3,1.07,0,0-.02.03-.07.03-.21,0-.37-.09-.55-.18-.2-.1-.41-.21-.69-.21-.35,0-.54.32-.72.6-.13.21-.25.42-.4.42-.12-.06-.44-.53-.71-.95-1.07-1.58-3.06-4.52-5.62-4.52s-4.54,2.95-5.61,4.52c-.28.42-.59.89-.71.95-.14,0-.27-.22-.4-.42-.17-.28-.37-.6-.72-.6-.28,0-.49.11-.69.21-.18.1-.35.18-.55.18h-.03ZM803.25,89.08c.11-.04.22-.1.31-.15.18-.09.35-.18.55-.18.18,0,.32.22.46.46.1.17.21.35.36.46-.19.53-.39,1.01-.55,1.43-.1.03-.2.09-.3.15-.02-.04-.04-.07-.06-.1-.15-.21-.4-.34-.76-.4h-.07c-.03-.17-.13-.32-.28-.46.13-.52.27-1.02.33-1.2h.01ZM800.7,91.11c.22-.37.68-.71,1.15-.83.26-.07.49-.06.63.03.25.13.39.29.44.46-.48.13-.99.6-1.24,1.15-.2.1-.39.22-.51.43-.22.35-.27.72-.29.96-.22-.18-.38-.4-.45-.67-.04-.13-.06-.26-.06-.4,0-.42.16-.83.33-1.13h0ZM794.72,89.66c-2.04-1.06-3.96-2.3-5.75-3.7l7.59-3.98-1.85,7.68h0ZM798.13,34.86c-8.67,4.63-14.55,13.6-14.55,23.91,0,4.61,1.18,8.96,3.25,12.76l-2.01,1.78c-2.47-4.3-3.88-9.26-3.88-14.55,0-10.99,6.11-20.6,15.2-25.77l2,1.86h-.01ZM786.83,71.53l-2.01,1.78,2.01-1.78ZM794.09,31.1l1.83,1.7c-9.14,5.23-15.27,14.9-15.27,25.97,0,5.36,1.43,10.38,3.95,14.74l-1.85,1.63c-2.89-4.8-4.54-10.4-4.54-16.37,0-11.7,6.35-21.96,15.88-27.67h0ZM780.97,77.1l6-5.32c2.26,4.04,5.53,7.46,9.49,9.93l-7.73,4.05c-3.05-2.45-5.68-5.38-7.76-8.67h0ZM836.79,92.03c-.05.84-2.73,3.25-7.75,5.65-3.32,1.59-10.01,4.02-17.5,4.02s-14.17-2.43-17.49-4.02c-5.01-2.4-7.71-4.81-7.75-5.65.02-.05,2.14-5.25,2.42-5.93,3.34,2.65,7.19,4.73,11.37,6.09,0,.17.01.34.07.51.11.42.38.76.8.99l.21-.14v-.09c0-.18.03-.6.26-.98.04-.06.08-.11.14-.16-.09.49-.05,1.21.33,1.74.26.36.63.58,1.1.66l.16-.2s-.16-.35-.16-.79c0-.1,0-.2.02-.3.03-.15.11-.28.24-.4.02.46.16.9.39,1.25.33.49.83.75,1.44.75l.12-.22s-.34-.47-.34-1.05c0-.13.04-.24.13-.37.13.03.74.16.74.16,1.9.3,3.85.46,5.83.46s3.95-.15,5.86-.46c0,0,.61-.13.75-.16.09.13.13.24.13.37,0,.58-.33,1.05-.33,1.05l.12.22c.61,0,1.11-.26,1.43-.75.24-.35.37-.79.4-1.25.12.12.21.25.24.4.02.11.02.21.02.3,0,.44-.16.79-.16.79l.15.2c.48-.08.84-.3,1.1-.66.38-.52.42-1.24.33-1.74.06.05.1.1.14.16.23.38.26.8.26.98v.09l.21.14c.42-.24.69-.57.81-.99.05-.17.07-.35.06-.52,4.17-1.36,8-3.44,11.34-6.08.28.68,2.39,5.87,2.41,5.93h-.05ZM834.36,85.76l-7.73-4.05c3.97-2.48,7.24-5.89,9.5-9.93l5.99,5.32c-2.08,3.29-4.71,6.22-7.76,8.67h0Z"/>
    <path class="st0" d="M807.88,29.86v.1l.12.02c1.47.3,3.34.31,3.55.31s2.08-.01,3.55-.31l.1-.02v-.1c.02-.13.03-.26.05-.41.06-.63.14-1.4-.13-2.16h-.36c-.07.19-.15.4-.21.54v-.17c0-.64-.08-1.44-.36-2.04h-.26c-.21.32-.58.89-.79,1.22,0-.22-.02-.49-.08-.82-.13-.75-.46-1.92-1.35-3.23h-.32c-.89,1.31-1.23,2.47-1.35,3.23-.06.33-.08.6-.08.82-.22-.33-.59-.9-.79-1.22h-.26c-.29.6-.36,1.4-.36,2.04v.17c-.05-.13-.14-.35-.22-.54h-.34c-.27.89-.2,1.57-.13,2.18.01.13.02.27.03.4h-.01ZM808.17,27.67c.17.44.44,1.11.44,1.11l.28-.07s-.07-.47-.07-1.06c0-.52.05-1.16.23-1.67.23.34.94,1.45.94,1.45l.26-.09s-.02-.14-.02-.38c0-.66.16-2.14,1.31-3.89,1.15,1.75,1.3,3.23,1.3,3.89,0,.24-.02.38-.02.38l.26.09s.71-1.1.94-1.45c.18.52.23,1.15.23,1.67,0,.6-.06,1.06-.07,1.07l.28.07s.28-.71.45-1.14c.07.29.09.57.09.85,0,.32-.03.63-.06.92-.01.11-.02.21-.03.3-1.43.27-3.19.28-3.39.28s-1.96,0-3.39-.28c0-.09-.02-.19-.02-.3-.03-.26-.06-.53-.06-.83s.03-.59.1-.93h.02Z"/>
    <path class="st0" d="M801.51,45.61s1,.19,1.67.46l-.04.09,6.47,2.98-2.39,1.11c-.61.29-1.8.85-2.73,1.41-1.03.62-1.41,1.02-1.26,1.33.03.05.08.13.21.17.67.23,3.11-.81,4.49-1.45l3.62-1.67,3.62,1.67c1.39.64,3.82,1.68,4.5,1.45.13-.04.18-.12.21-.17.02-.05.04-.15,0-.26-.24-.66-2.61-1.83-4-2.47l-2.39-1.11,5.99-2.76c.18.03.39.02.59-.08.65-.29,1.78-1.15,2.14-1.94l.08-.18-.2-.04c-.81-.14-2.26.08-2.89.36-.2.09-.36.24-.46.42l-7.19,3.32-7.69-3.55-.05.1c-.63-.34-1.38-1.01-1.39-1.01l-.05-.05h-.06l-1.8.18-.08.14,1.03,1.53h.06v.02ZM818.97,45.19c.07-.18.19-.32.37-.4.52-.23,1.71-.43,2.47-.36-.42.69-1.39,1.38-1.88,1.6-.5.22-.93-.21-.98-.31-.03-.07-.06-.31.02-.53ZM801.12,44.15c.43-.04,1.07-.1,1.15-.11.17.15.83.71,1.41,1.02l-.37.76c-.61-.25-1.45-.42-1.69-.47-.04-.06-.4-.59-.64-.95l1.44.67.12-.25-1.43-.67h.01Z"/>
    <path class="st0" d="M811.54,34.41c1.33,0,2.37-.37,3.08-1.11,1.12-1.15,1.04-2.76,1.04-2.82v-.16l-.17.03c-1.17.23-3.11.39-3.89.39s-2.71-.16-3.88-.39l-.16-.03v.16c-.02.07-.15,1.68.93,2.83.69.74,1.72,1.11,3.04,1.11h.01Z"/>
    <path class="st0" d="M818.41,43.44v-10.45s-6.56,2.65-6.88,2.78c-.32-.13-6.9-2.82-6.9-2.82v10.45l6.9,2.82,6.88-2.78ZM805.49,34.21c.98.4,6.04,2.47,6.04,2.47,0,0,5.04-2.04,6.02-2.43v8.64c-.47.2-5.72,2.31-6.02,2.43-.3-.12-5.57-2.27-6.04-2.46v-8.64h0Z"/>
    <path class="st0" d="M816.9,42.37v-7.12l-5.36,2.17-5.36-2.17v7.12l5.36,2.17s5.36-2.17,5.36-2.17ZM811.68,37.67l4.93-2v6.51c-.16.07-4.57,1.85-4.93,2v-6.51ZM811.39,44.18c-.36-.14-4.77-1.93-4.93-2v-6.51l4.93,2v6.51Z"/>
    <path class="st0" d="M805.69,79.58h1.09v.62l.06.04c1,.71,2.18,1.18,3.41,1.38h.07l.46-.43.77.75.77-.75.46.44h.07c1.22-.21,2.4-.69,3.41-1.39l.06-.04v-.62h1.09v-1.06h.65l.04-.06c.73-.99,1.22-2.14,1.41-3.33v-.07l-.44-.44.77-.75-.1-.1-.67-.65.46-.44v-.07c-.21-1.2-.7-2.34-1.43-3.32l-.04-.05h-.64v-1.06h-1.09v-.63l-.05-.04c-1.02-.71-2.19-1.19-3.41-1.38h-.07l-.45.43-.67-.65-.1-.1-.1.1-.67.65-.46-.44h-.07c-1.22.2-2.4.68-3.42,1.39l-.05.04v.63h-1.09v1.06h-.64l-.04.05c-.73.98-1.22,2.12-1.42,3.32v.07l.44.44-.67.65-.1.1.77.75-.45.44v.07c.21,1.19.7,2.34,1.43,3.33l.04.06h.65v1.06h-.04ZM806.77,79.3h-.81v-.79h.81v.79ZM810.22,81.33c-1.14-.19-2.22-.62-3.16-1.27v-1.36c1.11.98,2.55,1.6,4.15,1.68-.34.33-.92.89-.99.96h0ZM811.73,79.57c-.73-.44-1.93-.44-2.66,0-.02.01-.04.02-.05.03-.24-.11-.48-.22-.71-.36.34-.04.66-.15.92-.3.65-.4,1.71-.4,2.36,0,.75.45,1.92.45,2.67,0,.38-.23.9-.33,1.4-.29-.6.49-1.29.87-2.04,1.12-.61.2-1.37.1-1.88-.2h-.01ZM812.24,80.07c-.23.02-.46.03-.7.03-.77,0-1.51-.13-2.19-.38.66-.32,1.62-.29,2.23.08.2.11.42.21.66.26h0ZM811.54,81.55c-.1-.1-.4-.38-.57-.55l.57-.56.57.56c-.17.17-.47.45-.57.55ZM816.03,80.06c-.94.65-2.02,1.09-3.16,1.27-.07-.06-.65-.62-.99-.96,1.59-.07,3.04-.7,4.15-1.68v1.36h0ZM815.92,78.41c-.63-.1-1.33,0-1.83.29-.65.39-1.71.39-2.37,0-.73-.44-1.93-.44-2.66,0-.32.19-.74.29-1.16.3-.32-.22-.61-.46-.88-.72.71.22,1.59.15,2.18-.21.65-.39,1.71-.39,2.37,0,.75.45,1.92.45,2.67,0,.58-.34,1.48-.39,2.13-.12-.14.16-.29.31-.45.46ZM807.93,78.13c-.26-.28-.94-1.13-.97-2.2.44.15,1.61.51,3.11.74,1.68.26,4.11.38,6.42-.37-.16.25-.49.76-.78,1.22-.58-.05-1.18.06-1.62.32-.65.39-1.71.39-2.37,0-.73-.44-1.93-.44-2.66,0-.32.19-.72.28-1.13.29ZM817.12,79.3h-.81v-.79h.81v.79ZM819.2,75.16c-.19,1.1-.65,2.17-1.31,3.09h-1.4c1.01-1.08,1.64-2.5,1.72-4.05l.99.96h0ZM819.42,73.87l-.57.55-.56-.55.56-.56.57.56ZM817.89,69.5c.67.91,1.11,1.98,1.31,3.08-.07.07-.65.64-.99.97-.08-1.55-.72-2.96-1.72-4.04h1.4,0ZM816.31,68.44h.81v.79h-.81v-.79ZM812.86,66.41c1.13.19,2.22.63,3.16,1.28v1.36c-1.11-.97-2.55-1.6-4.15-1.68.34-.33.92-.89.99-.96h0ZM811.54,66.19c.1.1.4.39.56.56l-.56.55-.57-.55c.17-.17.46-.46.57-.56ZM807.06,67.69c.94-.65,2.03-1.09,3.16-1.28.07.07.65.63.99.96-1.59.08-3.04.7-4.15,1.68v-1.36h0ZM811.54,67.64c3.53,0,6.4,2.8,6.4,6.24,0,1.45-.52,2.8-1.38,3.86-.17-.07-.35-.13-.54-.17l.94-1.46-.18-.2c-2.36.88-4.92.75-6.66.48-1.89-.28-3.23-.78-3.25-.79l-.19.12c-.06,1.08.5,1.94.86,2.39-.31-.03-.6-.13-.84-.27l-.17-.11c-.87-1.06-1.38-2.4-1.38-3.86,0-3.44,2.87-6.24,6.4-6.24h-.01ZM805.97,68.44h.81v.79h-.81v-.79ZM803.88,72.58c.2-1.1.65-2.16,1.32-3.08h1.4c-1.01,1.08-1.65,2.49-1.73,4.04-.33-.32-.91-.9-.99-.97h0ZM803.66,73.87l.57-.56.57.56-.57.55-.57-.55ZM805.19,78.24c-.67-.92-1.12-1.98-1.31-3.09l.99-.96c.08,1.55.72,2.96,1.72,4.05h-1.4,0Z"/>
    <path class="st0" d="M807.47,75.59c.6-.14,2.25-.41,2.97-.05-.04.18-.08.36-.14.54l.19.17s3.75-1.32,6.06-.52l.17-.2s-.79-1.4-2.04-2.96c-1.15-1.44-2.94-3.33-4.91-4.11l-.17.22s.52.63.86,1.85c.14.52.27,1.2.3,2.04-.13-.22-.32-.49-.55-.77-.72-.86-1.59-1.38-2.51-1.51l-.14.22s.34.48.48,1.31c.13.77.1,2.01-.73,3.56l.16.2h0ZM810.74,70.44c-.2-.69-.45-1.19-.63-1.51,1.74.85,3.31,2.51,4.35,3.82.89,1.11,1.54,2.13,1.84,2.62-.97-.25-2.21-.23-3.7.05-.87.16-1.59.38-1.96.49.3-1.16.41-2.18.41-3.05,0-1.01-.14-1.82-.31-2.42h0ZM808.39,72.53c0-.29-.03-.54-.06-.77-.09-.51-.24-.9-.36-1.14,1.76.43,2.7,2.33,2.8,2.54-.02.62-.1,1.32-.26,2.1-.78-.34-2.2-.13-2.81,0,.53-1.07.69-2,.69-2.73Z"/>
    <path class="st0" d="M810.61,59.03c.47-.02.8,0,.81,0v-.28s-.63-.03-1.4.04c-.77.06-1.29.2-1.31.21l.07.27s.1-.03.25-.06c.08.28.32.47.59.47.24,0,.46-.05,1-.65h-.01Z"/>
    <path class="st0" d="M790.3,91.43c.04-.11.05-.23.04-.33s-.05-.19-.11-.28-.15-.16-.25-.23c-.12-.09-.25-.14-.38-.17-.12-.02-.24-.02-.36.01s-.23.08-.33.16c-.11.08-.19.18-.28.3-.09.11-.15.22-.18.34-.04.11-.05.23-.03.34.02.11.07.22.14.33.08.11.19.2.33.3l.63.42.57-.81c.1-.14.16-.27.2-.39M789.94,91.35c-.03.07-.06.14-.11.2l-.42.6-.26-.18c-.19-.12-.3-.26-.32-.41-.03-.15.03-.31.17-.51.05-.08.11-.14.17-.19s.12-.09.19-.12c.07-.02.13-.03.21-.03.07,0,.14.03.21.09.07.04.11.09.15.15.03.06.05.12.05.18,0,.07,0,.13-.03.2M790.37,90.51c.06.04.12.05.19.03.07-.02.12-.05.16-.11.05-.06.06-.12.05-.18s-.05-.12-.11-.16-.13-.05-.19-.04c-.07.01-.12.05-.16.11s-.06.12-.05.19.05.12.11.16M789.85,90.15c.06.04.13.05.19.04.07-.01.13-.05.17-.11.05-.06.06-.11.05-.19-.01-.07-.05-.12-.11-.16s-.13-.05-.19-.03c-.07.01-.13.05-.17.11s-.06.12-.05.19c0,.07.04.12.1.16M795.55,93.53c.06.03.13.04.19.01.07-.03.11-.07.15-.13.04-.06.05-.13.03-.19-.02-.07-.07-.11-.13-.15-.07-.03-.13-.04-.2-.01-.07.02-.12.06-.15.13-.03.06-.03.13-.02.19.02.07.06.12.13.15M794.98,93.24c.06.03.13.04.19.01.06-.02.11-.07.15-.13.03-.06.04-.12.02-.19-.01-.07-.06-.11-.13-.15-.06-.03-.13-.03-.19-.01-.07.03-.12.07-.15.13s-.04.13-.02.19c.02.07.06.11.13.15M798.81,97.28l.35.13,1.03-2.81c-.11-.05-.24-.09-.36-.13l-1.03,2.82h.01ZM801.78,95.9c.07.02.13.01.2-.03.05-.04.1-.09.11-.16.02-.07.02-.13-.01-.19-.03-.06-.08-.1-.15-.12-.07-.02-.13-.01-.19.02-.06.04-.1.09-.12.15-.02.07-.01.13.01.2.04.06.08.1.16.12M810.68,96.51l-.06,2.98h.37l.07-2.97c-.12,0-.25-.01-.38,0M813.92,97.32c.05.05.11.07.18.07s.13-.03.17-.09c.04-.05.06-.11.05-.18,0-.07-.03-.13-.08-.17-.05-.05-.11-.07-.18-.06-.07,0-.13.03-.18.09-.04.05-.06.11-.06.18s.03.13.09.17M813.28,97.36c.05.05.11.07.18.06.07,0,.13-.04.17-.09.04-.05.06-.12.06-.19s-.03-.13-.08-.18-.11-.07-.18-.06c-.07,0-.13.03-.18.09-.04.05-.06.11-.06.18s.04.13.09.18M814.61,97.51l.11,1.55-.68.05c-.25.01-.46.01-.62-.03-.17-.03-.3-.09-.39-.17-.1-.07-.17-.17-.22-.29-.04-.11-.07-.24-.08-.37-.01-.11-.01-.22,0-.32,0-.1.03-.2.05-.31l-.4.11c-.02.09-.03.18-.04.29v.29c.01.19.06.35.12.5.07.15.17.26.3.37.13.09.3.17.5.21.21.05.45.06.73.03l1.14-.07-.13-1.87-.38.02h0ZM815.45,96.28l.4,2.96.37-.05-.4-2.96c-.12.01-.25.03-.38.05M817.3,97.14l-.37.06.31,1.89c.03.21.02.37-.05.48s-.21.18-.4.22c-.06,0-.12.01-.18.01l.02.37c.07,0,.14,0,.22-.02.18-.03.33-.08.44-.15s.19-.15.25-.25.09-.21.1-.34c0-.13,0-.26-.02-.41l-.31-1.86h0ZM820.94,96.84c-.07-.11-.14-.19-.23-.25-.09-.06-.18-.09-.29-.11-.11-.01-.22,0-.34.03-.14.03-.26.08-.36.15s-.18.15-.24.26-.09.23-.11.37c-.02.13,0,.29.05.47.03.11.04.19.03.27,0,.08-.02.14-.05.19-.03.05-.07.09-.11.11-.05.03-.09.05-.14.06l-.51.09-.52-2.61c-.12.01-.24.04-.38.07l.59,2.93.84-.15c.17-.04.29-.1.37-.2.07-.09.12-.2.13-.32.09.1.21.16.35.2.15.04.34.03.56-.02l.74-.17-.23-.95c-.04-.16-.1-.3-.16-.41M820.58,98.05c-.22.05-.4.04-.52-.04-.13-.08-.22-.24-.28-.46-.03-.08-.04-.17-.04-.25s.01-.15.04-.21c.02-.07.06-.12.11-.17.05-.05.13-.08.21-.1s.15-.02.21,0c.07.01.13.05.19.09.05.04.09.1.13.16.03.06.07.13.08.21l.18.71-.31.07h0ZM822.61,94.71l-.36.11.65,2.02c.02.08.03.15.03.22s-.02.14-.06.2-.09.11-.17.17c-.08.05-.18.1-.31.13-.09.03-.2.05-.31.06-.11.01-.22.01-.32,0l.08.4c.09,0,.19-.01.3-.03s.22-.05.33-.08c.2-.05.36-.13.48-.21.12-.09.22-.19.27-.29.06-.11.09-.22.09-.34s-.02-.25-.06-.38l-.63-1.98h-.01ZM822.23,97.18l-.7-2.18c-.12.03-.24.07-.36.11l.72,2.27.34-.19h0ZM822.75,98.67c-.07.02-.14.02-.18,0s-.07-.06-.08-.09c-.01-.04,0-.07.01-.11.02-.03.05-.05.09-.06.03-.01.05-.02.07-.02s.04,0,.07-.02v-.2s-.08.01-.11.02c-.03,0-.06.02-.09.02-.11.03-.2.09-.25.16-.06.08-.07.16-.03.25.01.05.03.09.06.11.02.03.06.05.1.06-.04,0-.09,0-.15.02-.06.01-.1.03-.13.03l.07.22.79-.24-.07-.22-.17.05v.02ZM823.21,94.5l1.04,2.81.36-.12-1.04-2.81c-.12.03-.24.08-.36.13M798.81,94.09l-.99,2.48-.85-.33.28-.6c.07-.15.11-.29.13-.42.02-.12.01-.24-.02-.33-.03-.1-.09-.19-.16-.26-.07-.07-.17-.14-.28-.18-.13-.06-.25-.09-.37-.09s-.25.01-.36.06c-.11.05-.22.12-.32.22-.1.1-.18.24-.26.4-.04.1-.09.18-.14.24s-.1.09-.16.12c-.06.03-.11.03-.16.03s-.1-.02-.15-.05c-.15-.07-.31-.14-.46-.22l.73-1.39-.34-.17-.73,1.4c-.28-.14-.58-.29-.86-.44l.29-.49c.1-.17.15-.34.16-.48,0-.15-.02-.28-.09-.4-.06-.12-.14-.22-.26-.32-.11-.1-.23-.18-.36-.25-.07-.05-.14-.08-.2-.11-.05-.03-.11-.05-.15-.07l-.2.26s.1.04.16.07c.05.03.12.06.19.1.26.14.42.3.49.47s.03.38-.11.62l-.24.42c-.53-.29-1.07-.59-1.58-.9l.07-.1c.12-.18.2-.37.24-.55.04-.19.05-.37.01-.55-.03-.18-.1-.35-.19-.52-.1-.17-.22-.33-.38-.48l-.24.31c.26.28.4.56.43.83.04.27-.05.55-.25.85h0c-.38-.22-.75-.46-1.11-.7l-.18.27c1.59,1.05,3.26,2,4.99,2.81.16.07.3.09.42.07.12-.03.23-.09.31-.18.01.13.06.26.16.38.09.11.24.22.45.32l1.91.77,1.12-2.78-.35-.13h-.04ZM796.62,96.1l-.28-.13c-.21-.09-.34-.21-.4-.35-.05-.14-.03-.32.07-.53.04-.08.08-.15.13-.22.04-.06.1-.11.16-.15s.13-.05.2-.06c.07,0,.15,0,.23.04.07.03.13.07.17.12s.07.11.09.17c.01.07.02.13,0,.21-.01.07-.04.15-.07.22l-.31.67h.01ZM802.4,96.07c.07.02.13,0,.19-.03s.1-.09.12-.16c.02-.07.01-.13-.01-.19-.03-.06-.08-.09-.16-.12-.07-.01-.13,0-.19.03s-.1.08-.12.15-.01.13.02.2c.03.06.08.1.15.12M803.36,98.93c-.07-.01-.14,0-.2.03-.05.04-.09.09-.11.16-.01.07,0,.13.03.2.04.06.09.1.16.11.07.02.13,0,.19-.03.05-.04.09-.09.11-.16.02-.07.01-.13-.03-.19-.03-.06-.08-.09-.15-.11M804.78,96.96l-.31,1.51c-.32-.06-.64-.12-.96-.19l.36-1.51-.36-.09-.36,1.51c-.32-.07-.63-.14-.94-.22l.43-1.49c-.11-.05-.2-.09-.3-.13-.09-.04-.2-.07-.32-.1-.14-.04-.28-.06-.42-.04-.13.01-.26.05-.37.11-.12.06-.22.15-.3.25-.09.11-.15.23-.19.38-.04.13-.05.26-.05.38s.04.23.1.33c.05.1.13.19.24.26.1.08.23.13.38.18,0,0,.63.2,1.14.32.73.18,1.46.33,2.2.46l.38-1.84-.37-.07h.02ZM801.84,97.88l-.28-.07c-.19-.06-.33-.15-.4-.29s-.07-.32-.01-.53c.03-.09.06-.17.11-.23.05-.07.11-.12.17-.16.07-.04.14-.07.22-.07.08-.01.15,0,.23.01.02,0,.04.01.07.02.03,0,.06.02.08.03.03.01.06.02.09.03s.05.03.07.03l-.36,1.23h.01ZM804.26,99.11c-.07-.02-.13,0-.19.03-.05.04-.09.09-.1.15-.01.07,0,.13.03.18.03.06.09.09.16.11.07.01.13,0,.18-.04s.08-.09.1-.16c0-.06,0-.13-.03-.18s-.09-.09-.15-.1M802.74,98.79c-.07-.02-.13,0-.19.03-.05.03-.09.09-.11.16-.01.07,0,.14.03.19.04.06.09.1.16.11.07.02.13,0,.19-.03.05-.04.09-.09.12-.16.01-.07,0-.13-.03-.19-.03-.06-.08-.1-.15-.11M825.63,94.4c.06-.03.1-.08.13-.14.03-.07.02-.13,0-.2-.03-.07-.08-.11-.14-.14-.07-.03-.13-.03-.19,0-.07.03-.11.08-.13.14-.02.07-.02.12,0,.19.03.06.07.11.14.14.06.03.13.03.2,0M826.01,94.15c.06.03.13.03.2,0s.11-.07.13-.14c.02-.06.02-.13-.01-.19-.03-.06-.07-.11-.14-.14-.06-.03-.13-.02-.19,0-.07.03-.11.08-.14.14-.02.07-.02.13.01.19.03.07.07.11.14.14M834.12,92.44c-.07-.01-.13,0-.18.05-.05.04-.08.1-.08.17,0,.06.01.11.06.17.04.05.1.09.16.09.07,0,.13,0,.18-.05.05-.04.08-.1.08-.16,0-.07-.02-.12-.06-.18-.05-.05-.1-.08-.16-.09M833.91,90.96c-.13-.15-.26-.26-.4-.32-.13-.05-.27-.08-.41-.07-.13.02-.27.05-.4.12s-.26.15-.37.24c-.07.06-.13.1-.17.15-.05.04-.09.07-.12.11l.17.28s.08-.07.13-.12c.04-.04.1-.08.16-.13.23-.18.44-.27.62-.27.2,0,.38.11.56.32l.3.36-1.51,1.14-1.6-2.16c-.1.07-.2.14-.31.22l1.79,2.42,2.12-1.61-.56-.68h0ZM830.96,92.48c-.09-.08-.19-.14-.3-.17-.1-.03-.21-.03-.31-.01-.11.02-.21.07-.31.12-.12.08-.22.16-.29.26s-.12.2-.15.32c-.02.12-.02.25.01.38.03.14.1.28.19.43.06.09.1.17.12.25.02.07.03.14.01.2,0,.06-.03.1-.06.14-.04.05-.11.09-.16.13-.1.05-.2.09-.34.11-.11.01-.21.01-.31,0,.07-.17.1-.32.1-.48,0-.15-.02-.27-.08-.38-.05-.09-.11-.16-.18-.22s-.15-.1-.25-.13c-.1-.02-.2-.03-.31-.01s-.24.06-.36.13c-.15.08-.29.19-.41.32-.13.14-.24.3-.33.46l.13.37h.31c.09,0,.17.02.26.03.08.02.17.05.26.07.09.03.19.07.31.12-.21.26-.43.43-.66.57-.1.05-.28.14-.54.25l-.65-1.41c-.11.03-.21.06-.31.08-.09.03-.2.07-.32.12-.13.06-.25.14-.35.23-.09.09-.16.2-.21.32-.05.12-.07.25-.06.38,0,.13.04.27.1.41.05.12.13.23.21.31.08.09.18.15.29.19s.23.06.36.05c.13-.01.26-.04.41-.1.6-.26,1.03-.44,1.2-.52.17-.09.32-.2.47-.34.15-.13.28-.28.4-.45.16.02.32.02.48,0,.16-.03.32-.07.49-.16.19-.1.3-.23.35-.35.04-.11.05-.23.03-.34.12.06.25.09.4.08.15,0,.33-.07.52-.19l.65-.4-.53-.83c-.09-.14-.19-.26-.29-.34M826.71,96c-.19.08-.36.09-.5.03-.15-.07-.27-.2-.36-.4-.04-.09-.06-.17-.06-.25s0-.16.03-.23c.02-.07.06-.13.11-.19s.11-.1.19-.13c.02,0,.03-.01.06-.02.03,0,.06-.02.09-.03s.05-.02.09-.03c.03,0,.05-.01.08-.02l.54,1.17-.27.12v-.02ZM828.8,94.27c0,.11-.04.22-.08.34-.2-.1-.4-.17-.58-.21s-.35-.03-.51,0c.06-.11.13-.21.21-.3.07-.09.17-.17.28-.23.14-.07.27-.09.38-.08.12.03.2.09.26.2.04.08.05.17.04.28M831.02,93.74c-.2.12-.36.16-.52.13-.15-.04-.29-.15-.41-.35-.05-.08-.09-.15-.11-.23-.03-.07-.04-.15-.04-.22s.02-.13.06-.19c.04-.06.09-.11.17-.16.07-.04.13-.05.2-.07.07,0,.13,0,.2.03.06.02.12.06.18.11s.1.11.15.18l.39.61-.26.17h-.01ZM809.43,99.12c-.53-.03-.71-.05-.84-.11-.1-.05-.18-.1-.26-.17.15-.1.28-.22.36-.34.08-.12.13-.24.14-.36.01-.1,0-.19-.02-.28s-.07-.17-.14-.24c-.06-.07-.15-.13-.25-.18s-.22-.07-.37-.09c-.17-.02-.35,0-.54.05-.18.05-.36.11-.53.2l-.09.38c.1.06.18.12.25.17.07.05.14.11.2.17s.11.13.17.2c.05.08.12.16.19.27-.13.04-.24.07-.39.09-.23.02-.5.02-1.15-.08l.25-1.53-.37-.06-.31,1.89c-.03.21-.11.36-.21.44-.11.09-.26.11-.45.09-.06-.01-.11-.03-.18-.04l-.1.36c.07.02.14.03.21.04.18.03.34.03.46,0,.13-.03.24-.09.32-.16.08-.08.15-.17.2-.29.05-.11.09-.24.11-.39h0c.69.11,1.06.1,1.26.07s.4-.08.59-.16c.12.1.25.19.4.26.19.1.41.13.87.15l.57.03.17-2.98h-.38l-.16,2.64.02-.04ZM808.06,98.61c-.11-.19-.24-.36-.36-.48-.12-.13-.27-.22-.42-.28.11-.06.23-.11.34-.14.12-.04.24-.05.37-.03.15.02.27.06.35.14.09.08.12.19.11.31,0,.09-.05.17-.13.25-.07.08-.16.16-.26.23"/>
  </g>
</svg>