<?xml version="1.0" encoding="UTF-8"?>
<svg id="Layer_1" data-name="Layer 1" xmlns="http://www.w3.org/2000/svg" viewBox="0 0 326.38 119.06">
  <defs>
    <style>
      .cls-1 {
        fill: #bab4a3;
      }
    </style>
  </defs>
  <path class="cls-1" d="M47.92,66.32c.14.17.28.32.44.48.15.15.31.3.48.44,4.1,3.46,9.88-2.31,6.42-6.42-.14-.17-.28-.32-.44-.48-.15-.15-.31-.3-.48-.44-4.1-3.46-9.88,2.31-6.42,6.42"/>
  <path class="cls-1" d="M22.72,51.4c.15.15.31.3.48.44,4.1,3.46,9.88-2.31,6.42-6.42-.14-.17-.28-.32-.44-.48-.15-.15-.31-.3-.48-.44-4.1-3.46-9.88,2.31-6.42,6.42.14.15.28.32.44.48"/>
  <path class="cls-1" d="M42.13,31.93c.15.15.31.3.48.44,4.1,3.46,9.88-2.31,6.42-6.42-.14-.17-.28-.32-.44-.48-.15-.15-.31-.3-.48-.44-4.1-3.46-9.88,2.31-6.42,6.42.14.17.28.32.44.48"/>
  <path class="cls-1" d="M73.88,19.53c.17-.14.32-.28.46-.44.15-.15.3-.32.42-.48,3.4-4.17-2.47-9.84-6.52-6.31-.15.14-.31.28-.46.44-.15.15-.3.31-.42.48-3.4,4.15,2.47,9.84,6.52,6.31"/>
  <path class="cls-1" d="M93.03,24.73c-.15.15-.3.31-.42.48-3.4,4.15,2.46,9.84,6.52,6.33.17-.14.32-.28.46-.44.15-.15.3-.32.42-.48,3.4-4.17-2.47-9.84-6.52-6.31-.15.13-.31.27-.46.42"/>
  <path class="cls-1" d="M113.3,44.55c-.15.14-.31.28-.46.44-.15.15-.3.31-.42.48-3.4,4.15,2.46,9.84,6.52,6.33.17-.14.32-.28.46-.44.15-.15.3-.31.42-.48,3.4-4.17-2.47-9.85-6.52-6.33"/>
  <path class="cls-1" d="M87.02,59.95c-.15.14-.31.28-.46.44-.15.15-.3.31-.42.48-3.4,4.15,2.46,9.84,6.52,6.33.15-.14.32-.28.46-.44.15-.15.3-.31.42-.48,3.4-4.18-2.47-9.85-6.52-6.33"/>
  <path class="cls-1" d="M128.05,43.83c-.8,10.49-8.68,15.12-18.33,19.61-.86-5.22-2.89-9.74-6.16-13.63-1.27.96-3.54,2.57-6.11,4.08,3.16,3.56,4.9,7.68,5.35,12.74-6.61,3.1-13.25,6.71-17.58,12.47-1.9-5.89-5-11.16-9.29-15.91,4.89-4.08,10.57-7.5,16.06-10.79l1.18-.72c.57-.33,1.13-.68,1.72-1.02,1.63-.99,3.37-2.06,5.02-3.14,6.94-4.49,13.63-9.74,16.8-17.58-1.89-1.89-3.85-3.72-5.89-5.44v.04c-1.8,7.36-7.73,12.42-16.13,17.73-4.12-2.64-8.65-4.81-13.07-6.89l-1.27-.62c-.76-.37-1.5-.72-2.26-1.09,8.13-5.53,13.18-12.18,15.6-20.58-2.16-1.12-4.4-2.15-6.66-3.09-2.65,10.48-9.65,15.9-16.33,19.78-6.7-3.88-13.68-9.3-16.33-19.78-2.28.95-4.5,1.98-6.67,3.09,2.56,8.81,7.97,15.7,16.82,21.4,1.71,1.11,3.6,2.21,5.79,3.37,2.64,1.39,5.27,2.65,8.22,4.05l.1.05c3.22,1.53,6.25,2.98,9.07,4.55-5.52,3.31-11.65,7.03-16.99,11.59-4.26-3.63-8.95-6.69-13.12-9.23-3.15,1.58-5.52,3.34-6.78,4.36,5.48,3.29,10.76,6.58,15.3,10.49,1.52,1.31,2.83,2.57,3.97,3.82,6.94,7.48,10.2,16.15,10.2,27.28v6.21h-19.17v-6.33c.03-9.09,2.31-16.68,6.97-23.2-1.95-2.53-3.94-4.32-5.16-5.3-3.01,3.92-5.26,8.2-6.76,12.86-4.35-5.76-11-9.38-17.59-12.46.59-6.7,3.4-11.72,8.87-16.02,1.39-1.13,3.05-2.22,5.02-3.37,3.19-1.88,6.7-3.55,10.4-5.31,1.11-.53,2.24-1.05,3.34-1.61l.18-.09c-3.07-1.67-5.44-3.56-6.82-4.76-4.35,2.07-8.81,4.22-12.87,6.82-8.38-5.3-14.34-10.38-16.11-17.73v-.04c-2.06,1.72-4.03,3.54-5.92,5.43,3.02,7.52,9.27,12.64,15.88,17-4.86,4.54-7.81,9.98-8.89,16.5-9.65-4.5-17.52-9.12-18.33-19.61-1.9,2.87-3.65,5.85-5.23,8.95,4.31,9.88,14.54,14.54,23.84,18.78,11.73,5.35,21.86,9.97,21.89,23.21v6.28h-11.91v8.01h57.5v-8h-11.91v-6.2c0-13.31,10.15-17.93,21.89-23.29,9.3-4.23,19.53-8.9,23.84-18.78-1.54-3.09-3.31-6.08-5.2-8.95"/>
  <path class="cls-1" d="M141.42,119.05H0V0h141.42v119.05ZM.98,118.08h139.48V.99H.98v117.09Z"/>
  <path class="cls-1" d="M170.01,59.92c-1.74,0-2.6.94-2.6,2.82s.86,2.79,2.6,2.79,2.62-.93,2.62-2.79-.87-2.82-2.62-2.82"/>
  <path class="cls-1" d="M177.68,59.92c-1.74,0-2.6.94-2.6,2.82s.86,2.79,2.6,2.79,2.62-.93,2.62-2.79-.87-2.82-2.62-2.82"/>
  <path class="cls-1" d="M237.14,21.45c1.75,0,2.62-.93,2.62-2.79s-.87-2.82-2.62-2.82-2.6.94-2.6,2.82.86,2.79,2.6,2.79"/>
  <path class="cls-1" d="M244.83,21.45c1.72,0,2.6-.93,2.6-2.79s-.86-2.82-2.6-2.82-2.62.94-2.62,2.82.87,2.79,2.62,2.79"/>
  <path class="cls-1" d="M239.15,46.48h-37.83v-20.4h-6.07c-8.72,0-13.08,4.71-13.08,14.12v6.47c0,4.42-2.93,6.64-8.78,6.64h-6.1c-1.52,0-2.73-.49-3.63-1.45-.9-.98-1.35-2.29-1.35-3.95,0-1.95.24-4.1.73-6.44h-3.74c-.84,2.25-1.25,4.51-1.25,6.78,0,2.85.81,5.07,2.42,6.64,1.62,1.57,3.94,2.35,6.96,2.35h5.95c4.18,0,7.43-.93,9.76-2.78s3.49-4.42,3.49-7.73v-6.37c0-6.92,2.98-10.38,8.94-10.38h1.3v20.42h46.75v-24.31h-4.45v20.38h-.01Z"/>
  <path class="cls-1" d="M306.71,46.48h-3.11c-1.59,0-2.91-.51-3.94-1.56-1.02-1.04-1.53-2.37-1.53-4v-10.94h-4.26v16.5h-3.11c-1.59,0-2.91-.51-3.94-1.56-1.02-1.04-1.53-2.37-1.53-4v-10.94h-4.26v16.5h-15.79c-1.49,0-2.69-.44-3.6-1.3-.91-.86-1.38-2.03-1.38-3.5v-15.6h-4.21v25.76c0,2.01-.44,3.63-1.31,4.85-.87,1.22-2.04,1.84-3.51,1.84-1.74,0-3.29-.53-4.71-1.57l-2.01,3.06c1.95,1.62,4.23,2.42,6.8,2.42,2.85,0,5.05-.96,6.61-2.89s2.33-4.58,2.33-7.96v-4.06c.84,1.71,2.43,2.65,4.77,2.83v.04h20.24v-2.87c.93,1.9,2.8,2.87,5.61,2.87h7.23v-2.87c.93,1.9,2.8,2.87,5.61,2.87h7.23v-24.31h-4.26v20.4h.01Z"/>
  <path class="cls-1" d="M322.26,7.18l-.9.14c-1.02-.54-1.52-1.32-1.52-2.35,0-1.71.87-2.57,2.62-2.57.87,0,1.71.21,2.49.62l.76-2.28C324.73.24,323.62,0,322.42,0c-1.57,0-2.82.4-3.73,1.18-.93.8-1.39,1.89-1.39,3.32,0,1.32.59,2.38,1.76,3.16l-2.38.35v2.33c.99-.19,2.73-.45,5.18-.76,2.46-.31,3.96-.46,4.51-.46v-2.44c-1.22.1-2.58.28-4.12.5"/>
  <rect class="cls-1" x="319.5" y="12.29" width="4.45" height="38.09"/>
  <path class="cls-1" d="M182.6,101.88c0,8.95-3.85,12.91-9.85,12.91-5.4,0-9.43-3.85-9.43-12.91v-23.96h-5.29v23.84c0,12.55,6.25,17.3,14.53,17.3,8.77,0,15.32-5.11,15.32-17.53v-23.61h-5.29v23.96Z"/>
  <path class="cls-1" d="M209.09,95.45c-5.58-2.16-8.05-4.03-8.05-7.81,0-2.76,2.1-6.07,7.63-6.07,3.67,0,6.37,1.2,7.69,1.92l1.44-4.27c-1.8-1.02-4.81-1.98-8.95-1.98-7.87,0-13.09,4.68-13.09,11,0,5.71,4.08,9.13,10.69,11.47,5.47,2.1,7.63,4.27,7.63,8.05,0,4.09-3.13,6.91-8.46,6.91-3.6,0-7.02-1.2-9.36-2.64l-1.32,4.39c2.16,1.44,6.43,2.58,10.33,2.58,9.54,0,14.17-5.4,14.17-11.65s-3.49-9.25-10.33-11.9"/>
  <path class="cls-1" d="M243.85,99.11v-.18c4.26-1.44,7.63-4.99,7.63-10.33,0-3.13-1.14-5.89-3.18-7.69-2.52-2.28-6.12-3.31-11.72-3.31-3.6,0-7.38.3-10.03.84v39.93h5.22v-17.53h4.93c4.75.18,6.91,2.28,8.1,7.87,1.14,5.04,2.04,8.53,2.7,9.67h5.4c-.84-1.56-1.8-5.47-3.12-11.11-.94-4.21-2.8-7.09-5.93-8.17M237.13,96.89h-5.35v-14.78c.84-.24,2.64-.48,5.17-.48,5.53.06,9.31,2.34,9.31,7.56,0,4.63-3.54,7.69-9.13,7.69"/>
  <path class="cls-1" d="M269.86,77.92l-13.75,40.47h5.4l4.21-12.73h14.35l4.32,12.73h5.58l-13.81-40.47h-6.3ZM266.8,101.58l3.96-11.72c.78-2.46,1.44-4.93,2.04-7.33h.12c.6,2.34,1.2,4.75,2.1,7.38l3.96,11.65h-12.18Z"/>
  <polygon class="cls-1" points="286.68 82.36 298.98 82.36 298.98 118.39 304.27 118.39 304.27 82.36 316.64 82.36 316.64 77.92 286.68 77.92 286.68 82.36"/>
  <rect class="cls-1" x="321.14" y="77.92" width="5.22" height="40.47"/>
</svg>