<?xml version="1.0" encoding="UTF-8"?>
<svg id="Layer_1" data-name="Layer 1" xmlns="http://www.w3.org/2000/svg" viewBox="0 0 299.3 123.39">
  <defs>
    <style>
      .cls-1 {
        fill: #ad833b;
      }
    </style>
  </defs>
  <path class="cls-1" d="M43.47,26.58c0,1.34-.3,3.58-.91,6.71-.79,2.26-1.89,4.93-3.31,8.01H9.55c-2.37,0-4.51-.75-6.43-2.25-2.08-1.58-3.12-3.52-3.12-5.84,0-1.76.47-4.52,1.42-8.28,1.08-4.39,2.14-6.59,3.2-6.59.37,0,.39.89.08,2.68-.42,2.47-.63,4.25-.63,5.33,0,1.6.32,2.79.95,3.55,1.84,2.21,4.35,3.31,7.53,3.31h25.6c.32-.26.47-.7.47-1.3,0-.42-.32-1.55-.95-3.39-.66-1.08-1.45-2.37-2.37-3.87l4.14-7.18c2.68,3.34,4.02,6.38,4.02,9.11ZM31.59,8.4c-2.31,3.02-3.72,4.54-4.22,4.54-.16,0-1.16-.51-3.02-1.54-1.85-1.03-2.81-1.54-2.86-1.54-.92.87-1.89,1.87-2.92,3-.66-.18-1.7-.64-3.12-1.38-1.42-.74-2.34-1.33-2.76-1.77,1.03-1.08,2.45-2.55,4.26-4.42.39.45,1.25,1.05,2.56,1.81,1.31.76,2.21,1.14,2.68,1.14.21,0,.76-.45,1.66-1.34,1-.97,1.6-1.51,1.81-1.62l5.92,3.12Z"/>
  <path class="cls-1" d="M62.91,41.3h-10.65l-3.16-35.07,5.17-6.23c.16,2.29.7,8.16,1.62,17.63l1.42,13.73c.32,1.24,1.25,1.85,2.8,1.85h2.8v8.09Z"/>
  <path class="cls-1" d="M68.83,41.3h-7.53v-8.09h7.53v8.09Z"/>
  <path class="cls-1" d="M73.92,41.3h-7.53v-8.09h7.53v8.09Z"/>
  <path class="cls-1" d="M79.01,41.3h-7.53v-8.09h7.53v8.09Z"/>
  <path class="cls-1" d="M84.1,41.3h-7.53v-8.09h7.53v8.09Z"/>
  <path class="cls-1" d="M89.18,41.3h-7.53v-8.09h7.53v8.09Z"/>
  <path class="cls-1" d="M94.27,41.3h-7.53v-8.09h7.53v8.09Z"/>
  <path class="cls-1" d="M127.96,32.42c0,.21-.74,1.53-2.21,3.96-1.47,2.43-2.35,3.77-2.64,4l-14.55-5.25c-.74.16-1.62,1.28-2.64,3.35-.97,1.97-1.84,2.91-2.6,2.8h-10.97v-8.09h13.1l.08-.24c.58-1.34,1.51-3.33,2.8-5.96,1.84-3.39,4.54-5.96,8.09-7.69.18,0,1.07-.35,2.66-1.05,1.59-.7,2.81-1.05,3.65-1.05s1.3.21,1.46.63c.16.76.45,1.89.87,3.39.42,1.24,1.04,3.06,1.85,5.48.71,2.16,1.07,4.05,1.07,5.68ZM121.17,30.88c-.53-1.42-.99-2.59-1.38-3.51-.82-1.76-1.43-2.67-1.85-2.72-1.13,0-2.26.28-3.39.83-.61.37-1.2.71-1.77,1.03l-.83.59,9.23,3.79Z"/>
  <path class="cls-1" d="M158.33,41.3h-3.23c-.92,3.44-2.7,6.84-5.32,10.18-3.08,3.89-6.06,5.8-8.95,5.72-1.37-.03-4.3-.96-8.8-2.8-4.65-1.89-6.98-3.22-6.98-3.98,0-.53.28-.79.83-.79s1.6.3,3.23.91c1.63.6,2.89.92,3.79.95,2.97.08,6.34-.96,10.1-3.12,3.66-2.13,6.3-4.48,7.93-7.06h-.99c-8.28,0-12.42-2.02-12.42-6.07,0-1.63,1.05-4.67,3.16-9.11,2.52-5.39,5.05-8.09,7.57-8.09,2.21,0,4.18,2.31,5.92,6.94,1.29,3.5,1.93,6.06,1.93,7.69v.55h2.25v8.09ZM150.01,31.83v-.24c-1.08-3.76-2.6-5.64-4.58-5.64-1.32,0-2.51,1.03-3.59,3.08v.08c0,1.21.66,2.17,1.97,2.88,1.08.6,2.29.91,3.63.91,1.45,0,2.3-.35,2.56-1.06Z"/>
  <path class="cls-1" d="M164.01,41.3h-7.53v-8.09h7.53v8.09Z"/>
  <path class="cls-1" d="M169.1,41.3h-7.53v-8.09h7.53v8.09Z"/>
  <path class="cls-1" d="M174.19,41.3h-7.53v-8.09h7.53v8.09Z"/>
  <path class="cls-1" d="M179.27,41.3h-7.53v-8.09h7.53v8.09Z"/>
  <path class="cls-1" d="M184.36,41.3h-7.53v-8.09h7.53v8.09Z"/>
  <path class="cls-1" d="M214.81,41.3h-5.56c-.82-.81-2.84-2.87-6.07-6.15-1.08,1.58-2.52,3.63-4.34,6.15h-17.08v-8.09h18.11c.6,0,.88-.29.83-.87l-14.4-13.25c.21-.39.61-1.68,1.2-3.87.59-2.18,1.32-4.29,2.19-6.31,5.97-1.95,13.48-4.21,22.52-6.78l-1.7,7.49c-1.39.39-7.67,2.06-18.81,5.01l19.56,18.58h3.55v8.09Z"/>
  <path class="cls-1" d="M283.49,10.02c-.32.39-2.22,2.93-5.72,7.61,0,1.03.51,5.29,1.54,12.78.13,1.1-.09,2.91-.67,5.4-.21,1-.55,2.52-1.03,4.58-.08.61-.95.91-2.6.91h-20.27l-.87-6.07c-1.21-.16-4.34-.24-9.39-.24-1.53,0-4.07,1.05-7.63,3.16-3.56,2.1-6.11,3.16-7.63,3.16h-15.26v-8.09h16.8c1.55,0,3.56-.49,6.04-1.46,2.31-.89,3.47-1.51,3.47-1.85-1.03-.47-2.91-1.17-5.64-2.09-3.29-1.13-5.34-1.67-6.15-1.62-.71.05-1.73.45-3.06,1.2-1.33.75-2.37,1.12-3.14,1.12-.21,0,.11-.8.95-2.41.92-1.74,2.02-3.27,3.31-4.61,1.87-1.92,3.84-2.88,5.92-2.88,2.29,0,4.81.67,7.57,2.01,4.68,2.24,7.76,3.55,9.23,3.94,5.18,1.39,9.22,2.09,12.11,2.09-.61,1.89-1.3,4.08-2.09,6.55h14.95c.21-.21.32-.75.32-1.62,0-2.16-.57-5.54-1.7-10.16-1.13-4.61-1.7-7.74-1.7-9.37-.76-.6-1.68-1.34-2.76-2.21,2.42-4.79,4.14-7.77,5.17-8.95,0,1.89.49,3.21,1.46,3.94,2.26,1.47,5.09,3.17,8.48,5.09v.08Z"/>
  <path class="cls-1" d="M299.3,29.35c0,5.65-1.34,10.31-4.02,13.96l-3.55-31.32c0-.76,1.83-3.97,5.48-9.62,1.39,8.02,2.09,17.01,2.09,26.98Z"/>
  <path class="cls-1" d="M19.45,69.67c-2.5,3-3.9,4.5-4.22,4.5-.16,0-1.12-.46-2.9-1.38-1.78-.92-2.79-1.49-3.06-1.7-.97.87-1.97,1.87-3,3-.74-.18-1.78-.63-3.12-1.34-1.45-.76-2.38-1.39-2.8-1.89,1.03-1.03,2.43-2.52,4.22-4.5.42.42,1.31,1.05,2.66,1.89,1.35.84,2.24,1.26,2.66,1.26.21,0,.76-.45,1.66-1.34.89-.89,1.55-1.5,1.97-1.81l5.92,3.31ZM30.25,107.3h-4.93c-1.58,0-2.71-1.05-3.39-3.16-.24-.74-.59-2.56-1.07-5.48l-.08-.32-.47.08c-.66.39-1.49,1.63-2.49,3.71-.89,1.84-1.81,2.76-2.76,2.76-1.21,0-3.24-.41-6.09-1.22-2.85-.81-4.96-1.22-6.33-1.22,0-1.26.56-3.31,1.68-6.15,1.12-2.84,2.11-4.68,2.98-5.52,1.08-1.03,2.81-2.18,5.21-3.47,2.6-1.39,4.38-2.49,5.33-3.27,0-.32-.12-.75-.37-1.3-.25-.55-.38-.97-.38-1.26.97-1.31,2.35-3.67,4.14-7.06h.08c.42,1.58,1.12,5.86,2.09,12.86.95,6.73,1.51,10.26,1.7,10.57.42.74.8,1.17,1.14,1.3.16.05.75.08,1.77.08h2.25v8.09ZM20.39,95.35c0-.74-.2-2.27-.59-4.61-.42-2.47-.76-3.84-1.03-4.1-.71.55-1.22,1.18-1.54,1.89-.53,1.13-.87,1.81-1.03,2.05-.66.95-1.89,1.8-3.71,2.56-1.95.82-3.02,1.34-3.23,1.58.92.34,2.72.76,5.4,1.26,2,.39,3.88.47,5.64.24l.08-.87Z"/>
  <path class="cls-1" d="M56.21,107.3h-5.09c-2.87,0-4.84-1.77-5.92-5.33l-2.96,5.33h-13.02v-8.09h15.03l.16-.24c.42-1.03.68-3.52.79-7.49,2.92-3.84,4.54-5.76,4.85-5.76s.08,2.96-.71,8.88c-.18,1.26.24,2.35,1.26,3.27.95.89,2.05,1.34,3.31,1.34h2.29v8.09ZM51.75,118.3c-2.42,3.39-3.84,5.09-4.26,5.09-.05,0-1.03-.57-2.92-1.7-.63-.37-1.58-.93-2.84-1.7-.97.95-2,2.01-3.08,3.19-2.5-.92-4.43-2.08-5.8-3.47,1.03-1.13,2.42-2.77,4.18-4.93.34.45,1.2,1.11,2.56,1.99,1.37.88,2.27,1.32,2.72,1.32.18,0,.75-.51,1.7-1.54,1.08-1.16,1.7-1.8,1.85-1.93l5.88,3.67Z"/>
  <path class="cls-1" d="M62.01,107.3h-7.53v-8.09h7.53v8.09Z"/>
  <path class="cls-1" d="M67.1,107.3h-7.53v-8.09h7.53v8.09Z"/>
  <path class="cls-1" d="M72.18,107.3h-7.53v-8.09h7.53v8.09Z"/>
  <path class="cls-1" d="M77.27,107.3h-7.53v-8.09h7.53v8.09Z"/>
  <path class="cls-1" d="M82.36,107.3h-7.53v-8.09h7.53v8.09Z"/>
  <path class="cls-1" d="M87.45,107.3h-7.53v-8.09h7.53v8.09Z"/>
  <path class="cls-1" d="M92.54,107.3h-7.53v-8.09h7.53v8.09Z"/>
  <path class="cls-1" d="M97.62,107.3h-7.53v-8.09h7.53v8.09Z"/>
  <path class="cls-1" d="M102.71,107.3h-7.53v-8.09h7.53v8.09Z"/>
  <path class="cls-1" d="M107.8,107.3h-7.53v-8.09h7.53v8.09Z"/>
  <path class="cls-1" d="M112.89,107.3h-7.53v-8.09h7.53v8.09Z"/>
  <path class="cls-1" d="M117.98,107.3h-7.53v-8.09h7.53v8.09Z"/>
  <path class="cls-1" d="M123.07,107.3h-7.53v-8.09h7.53v8.09Z"/>
  <path class="cls-1" d="M128.16,107.3h-7.53v-8.09h7.53v8.09Z"/>
  <path class="cls-1" d="M133.24,107.3h-7.53v-8.09h7.53v8.09Z"/>
  <path class="cls-1" d="M138.33,107.3h-7.53v-8.09h7.53v8.09Z"/>
  <path class="cls-1" d="M143.42,107.3h-7.53v-8.09h7.53v8.09Z"/>
  <path class="cls-1" d="M148.51,107.3h-7.53v-8.09h7.53v8.09Z"/>
  <path class="cls-1" d="M153.6,107.3h-7.53v-8.09h7.53v8.09Z"/>
  <path class="cls-1" d="M158.68,107.3h-7.53v-8.09h7.53v8.09Z"/>
  <path class="cls-1" d="M163.77,107.3h-7.53v-8.09h7.53v8.09Z"/>
  <path class="cls-1" d="M168.86,107.3h-7.53v-8.09h7.53v8.09Z"/>
  <path class="cls-1" d="M173.95,107.3h-7.53v-8.09h7.53v8.09Z"/>
  <path class="cls-1" d="M179.04,107.3h-7.53v-8.09h7.53v8.09Z"/>
  <path class="cls-1" d="M201.17,107.3h-6.71c-.61,0-.99-.43-1.14-1.3l-.63-3.79c-.97,1.34-2.18,3.04-3.63,5.09h-11.87v-8.09h15.03l-3.91-24.89c1.52-2.13,3.55-4.9,6.07-8.32.16,1.37.67,6.65,1.54,15.86l1.3,14.63c0,1.81.7,2.72,2.09,2.72h1.85v8.09Z"/>
  <path class="cls-1" d="M207,107.3h-7.53v-8.09h7.53v8.09Z"/>
  <path class="cls-1" d="M212.09,107.3h-7.53v-8.09h7.53v8.09Z"/>
  <path class="cls-1" d="M284.08,103.98c-.13,2.37-1.08,5.01-2.84,7.93-1.34-1.47-2.68-2.71-4.02-3.71h-.08c-1.16-.68-2.77-1.03-4.85-1.03-.74,0-1.53.04-2.37.12h-18.89l-.87-6.07c-1.21-.16-4.34-.24-9.39-.24-1.53,0-4.07,1.05-7.63,3.16-3.56,2.1-6.11,3.16-7.63,3.16h-15.34v-8.09h16.88c1.55,0,3.56-.49,6.04-1.46,2.31-.89,3.47-1.51,3.47-1.85-1.03-.47-2.91-1.17-5.64-2.09-3.29-1.13-5.34-1.67-6.15-1.62-.71.05-1.73.45-3.06,1.2-1.33.75-2.37,1.12-3.14,1.12-.21,0,.11-.8.95-2.41.92-1.74,2.02-3.27,3.31-4.61,1.87-1.92,3.84-2.88,5.92-2.88,2.29,0,4.81.67,7.57,2.01,4.68,2.24,7.76,3.55,9.23,3.94,5.18,1.39,9.22,2.09,12.11,2.09-.61,1.89-1.3,4.08-2.09,6.55h13.88c.47,0,.71-.62.71-1.85,0-2.16-.61-5.52-1.81-10.1-1.21-4.58-1.81-7.64-1.81-9.19,0-.1-.43-.5-1.28-1.18-.85-.68-1.26-1.13-1.2-1.34,0-.63.93-2.28,2.8-4.95,1.87-2.67,3.06-4,3.59-4,.03.16.03.72,0,1.7-.08,1.24.08,1.99.47,2.25,2.05,1.5,4.6,3.22,7.65,5.17-.24.32-1.07,1.75-2.49,4.3-1.16,2.05-2,3.08-2.52,3.08,0,2.21.38,6.4,1.14,12.58.13,1.13,1.76,2.59,4.89,4.38,3.02,1.74,4.52,3.05,4.5,3.94Z"/>
  <path class="cls-1" d="M299.3,95.35c0,5.65-1.34,10.31-4.02,13.96l-3.55-31.32c0-.76,1.83-3.97,5.48-9.62,1.39,8.02,2.09,17.01,2.09,26.98Z"/>
</svg>