<?xml version="1.0" encoding="UTF-8"?>
<svg id="Layer_1" data-name="Layer 1" xmlns="http://www.w3.org/2000/svg" viewBox="0 0 577.31 187.05">
  <defs>
    <style>
      .cls-1 {
        fill: #ad833b;
      }
    </style>
  </defs>
  <path class="cls-1" d="M472.9,149.07c-.21-.02-.42-.04-.63-.07-.21-.02-.42-.04-.62-.06.02-.19.05-.38.08-.57.03-.27.27-.48.57-.51.04,0,.07,0,.09-.02.23-.02.45-.08.64-.15-.04.46-.09.92-.14,1.37M479.81,150.56c.03-1.59.07-3.19.11-4.78-.61.49-1.22.98-1.85,1.47.48.13.59.46.57.79-.02.47-.03.94-.05,1.42-.42-.02-.83-.03-1.24-.05.06-1.24.12-2.47.19-3.7-.62.48-1.25.95-1.89,1.41.48.14.59.48.57.8-.03.47-.06.94-.09,1.41-.66-.04-1.32-.09-1.98-.15.25-2.89.49-5.76.73-8.66-.6.46-1.21.91-1.83,1.36.44.15.52.49.49.81-.1,1.04-.2,2.08-.3,3.12-.05.48-.41.71-.7.82-.19.09-.36.12-.37.15-.84.06-1.57.64-1.67,1.43l-.21,1.64c.49.06.99.12,1.48.17.13.02.27.03.4.05.7.08,1.4.14,2.1.19,1.85.15,3.7.25,5.55.29M467.2,149.42c.41.07.82.13,1.23.19.36-2.47.72-4.93,1.08-7.4.05-.32.22-.63.68-.67-.49-.58-.98-1.17-1.46-1.76-.51,3.22-1.03,6.42-1.54,9.64M462.5,147.43c-.2-.04-.41-.09-.61-.13-.2-.05-.4-.09-.6-.14.03-.14.07-.28.1-.42.24-.13.48-.26.72-.39.16.22.33.44.5.66-.03.14-.06.29-.09.42M465.68,140.78c.44.19.49.53.43.86-.39,2.09-.78,4.19-1.18,6.28-.41-.08-.82-.15-1.22-.24.06-.29.11-.57.17-.85-.5-.66-.98-1.31-1.45-1.98-.71.4-1.43.79-2.15,1.17-.07.28-.14.56-.21.84-.41-.1-.82-.21-1.22-.31.31-1.19.62-2.39.93-3.57-.71.34-1.42.67-2.15,1,.44.23.47.58.38.9-.12.46-.25.91-.38,1.37-.18-.05-.36-.1-.53-.15,0,0,0,0,0-.01-.34-.09-.67-.19-1.01-.29-.01-.43.06-.86.14-1.29.28-1.33.64-2.85-1.04-4.64-.48.23-.97.45-1.47.67,1.18.35,1.66,1.45,1.85,2.32.17,1.06-.41,1.85-.1,2.75-.58-.17-1.16-.35-1.74-.53,0,0,0,0,0,0,.05-.14.09-.28.14-.42.29-.9-.31-1.92-1.34-2.27-.07-.02-.15-.05-.22-.08-2.27-.79-4.51-1.68-6.72-2.66.15-.33.29-.67.44-1,.13-.29.44-.38.76-.24-.34-.74-.66-1.48-.98-2.22-.6,1.31-1.21,2.63-1.81,3.94,2.68,1.23,5.41,2.33,8.17,3.28.39.14.61.52.5.85-.05.14-.09.28-.14.42-.13.38-.25.75-.39,1.13-.25.11-.5.21-.76.31-.14-.25-.28-.5-.42-.75.13-.37.26-.74.39-1.1-.29-.1-.59-.21-.88-.32-.1-.04-.2-.07-.3-.11-2.24-.82-4.45-1.74-6.62-2.74-.15.33-.31.66-.46.99,2.21,1.01,4.44,1.94,6.7,2.77-.06.17-.12.34-.19.51.42.73.84,1.46,1.28,2.19.79-.29,1.56-.6,2.33-.92.05-.18.11-.36.17-.54.87.28,1.74.55,2.62.8.17.25.38.46.65.65-.12-.18-.22-.37-.3-.55.73.21,1.46.41,2.2.6,1.02.26,2.05.51,3.08.74,1.03.23,2.05.44,3.09.63.04,0,.09.02.13.02.36.07.73.13,1.09.2h.01c.56-3.21,1.1-6.42,1.66-9.62-.64.41-1.29.8-1.95,1.19M477.81,151.58c-.36-.02-.64.22-.66.51-.02.3.25.55.61.57.36.02.64-.21.66-.52,0-.29-.25-.55-.61-.56M473.9,19.69c.48,0,.86.36.86.82-.26-.26-1.26-.47-1.73,0,0-.46.39-.82.86-.82M476.06,20.75c-.36,2.73-3.87,2.73-3.99.71.63,2.19,4.02,1.04,3.02-1.39,1.34-.51,2.33-.55,3.41-.72-2.79-.44-6.08-.78-8.12.15-1,.45-.72,1.06-.57,1.31.16-.53,1.05-.56,1.69-.35-.48,4.11,4.78,3.62,4.55.29M441.24,140c-.19-.1-.39-.19-.58-.29-.19-.1-.38-.2-.57-.3.08-.16.17-.32.25-.49.12-.24.43-.34.74-.25.04,0,.06.02.09.02.23.06.46.08.67.08-.2.41-.41.82-.61,1.23M443.88,133.33c.37.31.33.65.19.94-.46.94-.93,1.87-1.39,2.81-.21.43-.63.51-.96.52-.22.01-.39-.03-.41,0-.83-.25-1.71.04-2.09.74-.25.49-.52.96-.77,1.46.57.3,1.14.59,1.72.89.58.29,1.16.58,1.74.85,1.4-2.94,2.8-5.87,4.2-8.82-.74.22-1.48.42-2.23.6M475.28,151.44c-.35-.02-.66.2-.68.49-.02.3.25.56.61.59.35.02.65-.19.67-.5.02-.29-.25-.56-.6-.58M473.77,151.32c-.35-.03-.66.19-.69.48-.03.3.24.57.6.59.34.03.65-.18.68-.48.02-.29-.24-.56-.59-.59M459.48,142.22c.31.08.63-.08.71-.37.07-.28-.12-.59-.43-.67-.32-.09-.64.08-.71.36-.08.29.12.59.44.68M458.11,141.84c.31.09.63-.07.71-.36.08-.29-.12-.59-.42-.68-.32-.09-.64.08-.72.36-.09.29.11.59.43.68M471.81,142.61c.32.04.6-.18.63-.48.03-.29-.19-.56-.5-.6-.3-.04-.59.18-.63.47-.04.3.19.58.5.61M501.46,143.57c.32-.07.52-.37.46-.66-.07-.3-.39-.48-.7-.4-.32.07-.52.37-.46.66.06.29.37.47.7.4M443.03,132.4c.29.15.62.06.76-.21.13-.26.02-.59-.26-.75-.28-.14-.62-.05-.76.21-.14.27-.02.6.26.75M471.97,141.31c.32.04.59-.17.62-.47.03-.29-.18-.56-.49-.6-.3-.04-.59.18-.62.47-.04.3.19.57.49.6M500.07,143.88c.32-.07.53-.37.46-.65-.06-.3-.38-.48-.69-.42-.32.07-.53.36-.47.66.06.29.37.48.7.41M442.42,133.56c.3.15.64.05.77-.22.13-.26.02-.59-.27-.75-.28-.15-.63-.05-.76.21-.15.27-.02.61.26.76M475.18,75.89c-.12-2.04-.19-4.35-.19-6.87,0-2.28.06-4.34.16-6.16,5.77-.52,14.04-.67,21.67,1.32.55,1.64.85,3.38.85,5.2s-.3,3.56-.85,5.19c-7.62,1.98-15.86,1.84-21.65,1.32M481.35,85.71c-1.82,0-3.61-.3-5.31-.89-.14-.87-.53-3.76-.8-7.95,5.69.49,13.68.63,21.18-1.2-2.46,5.9-8.29,10.04-15.07,10.04M465.03,69.38c0-6.59,4-12.54,10.02-15.06-.32,1.95-1.02,7.15-1.02,14.71s.69,13.33.98,15.4c-6.01-2.54-9.99-8.48-9.99-15.05M476.09,53.92c1.69-.58,3.46-.87,5.26-.87,6.77,0,12.59,4.15,15.06,10.03-7.52-1.83-15.53-1.69-21.21-1.2.28-4.34.73-7.12.88-7.97M481.35,52.09c-2.01,0-3.98.34-5.84,1.01-6.85,2.46-11.45,9-11.45,16.28s4.57,13.77,11.38,16.25c1.89.69,3.88,1.04,5.91,1.04,9.53,0,17.29-7.76,17.29-17.29s-7.76-17.29-17.29-17.29M521.67,143.66c-.17.08-.35.03-.41-.11-.07-.14.02-.3.18-.38.06-.03.13-.05.19-.04-.59-.19-1.12.45-.67.85-.16.1-.28.1-.36.01-.11.21-.21.43-.32.64.78-.35,1.56-.71,2.34-1.07-.25-.08-.5-.16-.76-.24.04.12-.05.27-.2.34M530.22,69.97v-1.93c0-.97,0-1.91,0-2.37.01-1.82-.29-4.23-2.01-5.4.52,2.03.17,2.39.17,5.82v4.27c0,1.26.17,2.35.48,3.3-2-.97-4.14-3.07-4.14-6.79,0-1.24-.3-6.38-1.85-8.51v8.9c0,1.17.15,2.2.42,3.11-4.69-2.38-4.23-10.48-5.75-13.62,0,2.72.06,4.63.06,7.34,0,1.34.2,2.49.53,3.49-4.11-2.62-4.58-7.76-4.91-11.6-.4,1.42-1.05,5.17.07,8.7-2.76-2.11-4.29-6.6-4.1-9.81-.4,1.76-.83,4.41.03,7.07-.15,3.02-.12,26.85-.12,29.45-1.57-1.3-3.17-3.64-3-7.19.05-.58.12-1.13.2-1.66,1.1-7.44,1.33-18.16-1.75-26.73,2.48,13.39-.61,27.16-1.05,29.93-.77,4.95.91,15.2,4.4,26.58-.68-.67-3.01-1.64-3.94-2.58,0,1.03.37,2.13.37,4.38-1.2-2.01-1.66-2.09-2.93-4.32.4,2.62.29,2.85.29,5.11-1.24-2.34-1.91-5.45-4.76-9.9-6.34-9.9-15.48-3.76-15.48-2.04,0-1.72-9.13-7.86-15.47,2.04-2.85,4.45-3.51,7.56-4.76,9.9,0-2.26-.11-2.49.29-5.11-1.27,2.23-1.73,2.31-2.93,4.32,0-2.25.38-3.35.38-4.38-.94.93-3.27,1.91-3.94,2.58,3.49-11.38,5.18-21.63,4.4-26.58-.44-2.77-3.53-16.54-1.04-29.93-3.08,8.57-2.85,19.29-1.75,26.73.08.52.14,1.08.2,1.67.17,3.57-1.44,5.91-3.02,7.2,0-2.6.04-26.42-.12-29.47.87-2.66.44-5.31.03-7.07.19,3.21-1.34,7.71-4.1,9.81,1.12-3.54.47-7.28.06-8.7-.32,3.84-.79,8.98-4.9,11.6.33-1,.53-2.15.53-3.49,0-2.72.07-4.62.07-7.34-1.54,3.14-1.07,11.24-5.76,13.62.26-.91.41-1.94.41-3.11v-8.9c-1.54,2.14-1.85,7.27-1.85,8.51,0,3.71-2.14,5.82-4.14,6.78.3-.95.48-2.04.48-3.3v-4.27c0-3.43-.36-3.78.17-5.82-1.73,1.18-2.03,3.59-2.01,5.4,0,.45,0,1.4,0,2.37h0v1.93c0,3.88-2.33,6.01-4.4,6.91.36-.46.74-1.73.74-3.6v-18.69c0-5.25,6.13-11.29,8.4-13.95,6.28-7.36,9.02-1.38,15.35.77,10.52,3.57,16.13-.42,16.13-.42,5.62-3.54,5.64-6.87,5.64-8.95,0-1.41-.54-3.24-1.57-4.42-1.92-1.92-5.33-2.54-5.94-2.42-1.28.66-2.42.66-2.65.84-.59-1.17-.44-2.96,2.21-4.44.74-.41.47-1.35,2.73-2.67,6.61-3.86,13.08-2.46,16.85,1.75-1.34-.49-2.62-.93-4.87-1.14,3.16,1.1,6.9,3.71,9.32,8.05.99,1.73,3.22,6.49,4.01,7.93,1.68,3.07,4.73,9.51,15.48,5.88,6.33-2.14,9.06-8.13,15.35-.77,2.27,2.66,8.4,8.7,8.4,13.95v18.69c0,1.87.39,3.13.74,3.6-2.07-.9-4.4-3.03-4.4-6.91M530.23,84.55v-5.34c0-.88-.03-1.66-.09-2.35.31.12.6.22.86.32.89.89,1.91,1.52,2.88,2.01v8.65c0,1.88.39,3.14.74,3.61-2.06-.9-4.38-3.03-4.4-6.89M530.31,102.69c0-.63-.08-5.82-.08-6.83,0-1.12-.05-3.03-.15-4.46.33.13.64.25.92.35.89.88,1.91,1.52,2.88,2v11.04c0,1.87.39,3.14.74,3.6-1.84-.8-4.32-3.01-4.32-5.71M530.31,130.7v-4.14h0c0-2.61-.08-4.87-.08-5.65v-6.16c0-.52-.02-3.21-.03-6.67.12.05.24.09.35.14.99,1.14,2.19,1.92,3.34,2.49v22.09c0,1.88.39,3.14.74,3.61-1.84-.8-4.32-3.11-4.32-5.71M524.72,81.44v-5.4c0-.95-.03-1.75-.09-2.43.21.08.42.16.61.23.96,1.03,2.09,1.75,3.17,2.28.02,1.13-.04,2.32-.04,3.51v5.29c0,1.26.17,2.35.48,3.3-2-.96-4.14-3.07-4.14-6.79M524.72,98.09v-5.4c0-.96-.03-2.98-.09-4.52.22.08.42.16.62.24.96,1.02,2.09,1.74,3.17,2.27.04,1.8-.03,4.28-.03,5.59v3.15h0v1.97c0,.13,0,.25,0,.37,0,0,0,0,0,0v.12c0,1.13.14,2.13.39,3.01-1.81-.83-4.05-3.15-4.05-6.8M524.72,116.98v-5.4c0-.94-.03-4.4-.09-7.03,1.08,1.43,2.49,2.26,3.78,2.83-.02,3.99-.03,7.18-.03,7.79v5.12c0,1.88,0,2.96.35,3.42-1.54-.67-4.01-2.86-4.01-6.73M519.44,78.27v-4.89c0-1.01.01-1.68-.02-2.25.5.19,1.03.36,1.6.51.6.46,1.22.85,1.84,1.17,0,.18,0,.36,0,.53v8.48c0,1.16.14,2.18.4,3.08-1.9-1.03-3.83-3.11-3.83-6.63M519.44,93.14v-4.89c0-1.87-.05-1.86-.05-2.77.52.22,1,.41,1.44.57.66.54,1.36.98,2.04,1.33,0,1.1,0,2.35,0,2.61v8.48c0,.39.02.74.04,1.09-1.78-1.08-3.47-3.12-3.47-6.42M522.87,108.89v8.38c-1.77-1.1-3.43-3.13-3.43-6.4v-4.9c0-1.43-.03-4.64-.05-6.55.99,1.31,2.25,2.18,3.47,2.82.01,2.28,0,6.3,0,6.65M514.83,75.84v-4.92c0-1.27-.02-2.19-.09-2.89.18.1.37.19.56.29.62.7,1.37,1.35,2.28,1.91.02.41.01.82.01,1.19v7.24c0,1.34.2,2.5.54,3.5-1.71-1.11-3.3-3.12-3.3-6.32M514.83,89v-4.92c0-.55,0-1.04-.02-1.47.23.13.47.25.72.37.63.63,1.32,1.14,2.02,1.57.05.59.05,1.2.05,1.74v7.24c0,.52.03,1,.09,1.47-1.53-1.16-2.85-3.09-2.85-6M517.6,104.02v6.08c-1.5-1.17-2.76-3.08-2.76-5.93v-4.92c0-.92-.01-2.63-.04-3.96.79,1.04,1.76,1.82,2.75,2.41.07,2.08.06,5.71.06,6.33M510.12,74.59c0-1.12-.08-7.02-.09-10.87.64,1.11,1.57,2.18,2.89,3.16.15,1.09.08,2.45.08,3.4v5.95c0,1.11.14,2.09.38,2.96-1.8-1.33-3.24-2.97-3.24-4.6M510.06,78.21c.59,1.07,1.58,2.2,2.94,3.23,0,.71-.01,1.42-.01,1.99v4.91c-1.62-1.27-2.87-2.79-2.87-4.31,0-.68-.03-3.13-.06-5.81M512.98,98.59v3.51c-1.62-1.27-2.87-2.79-2.87-4.31,0-1.06-.08-6.38-.09-10.2.58,1.07,1.57,2.22,2.93,3.26.09,2.24.03,6.9.03,7.75M508.6,119.01c.22.5.16,1.49.39,1.95.23.46.73.78.88,1.01.19.31.12,1.1.37,1.64.12.25.24.51.37.74-.17.18-.3.39-.42.58-.38-.85-1.32-.95-2.02-.51-.36.23-.78.58-1.11,1.14.14-.97-.04-1.28-.42-1.66-.56-.56-.33-1.72-.79-2.43-.35-.54-.99-.72-1.4-1.56-.41-.83-.21-1.28-.63-2.11-.47-.94-.59-1.24-.62-2.52.54.69,1.16,1.27,1.99,2.12.3-1.98.32-2.45.32-4.17.84.72,1.7,1.78,1.98,2.51.16.43.31,1.69.38,1.9.2.65.5.86.73,1.35M512.28,124.8c.88.07.4,3.9,1.04,5.23.66,1.35.38,2.48-.87,2.36-1.28-.12-1.2-4-1.21-4.68,0-.96-.49.51-.75,1.05-.05-.24-.11-.5-.15-.77-.09-.66-.02-1.08.02-1.48.34-.91,1.02-1.78,1.92-1.71M513.41,126.36c.35-1.15,1.31-2.75,2.41-2.5.86.19.04,2.96.56,4.31,1.02,2.64-.41,3.54-1.64,3.23-1.37-.34-.76-4.03-.64-4.57.03-.87-.42-.02-.73.47-.06-.22-.11-.38.04-.94M517.49,126.91l8.09,5.53v11.64c-12.87,7.29-27.28,11.52-42.14,11.83h-.24s-1.13.93-1.68,1.39h0s0,0,0,0c-.55-.46-1.68-1.39-1.68-1.39h-.24c-14.86-.31-29.27-4.54-42.13-11.83v-11.64s8.08-5.53,8.08-5.53c.2.11.4.22.6.34.03,1.16-.79,1.76-.6,2.95.15.99.76,1.7,1.48,2.02.19.44.55.79,1.03.99.49.18.43-.24.42-.87.11-.03.21-.06.32-.12.14.47.44.82.84,1.02.18.36.5.68,1.14,1.11.63.29.21-.39.09-1.01.23-.06.47-.16.7-.31.08.19.2.36.37.48.05.05.12.09.18.13.16.65.61,1.02,1.3,1.41.46.15.29-.37.24-.86.64,0,1.2-.35,1.45-1.39.12-.5.11-.81.08-1.07,7.68,3.27,15.97,5.48,24.09,5.74.29.22,2.23,1.68,2.23,1.68,0,0,1.95-1.47,2.24-1.68,8.07-.25,16.32-2.44,23.96-5.68-.02.25-.02.56.1,1.02.25,1.04.81,1.4,1.45,1.39-.05.49-.22,1.01.24.86.69-.39,1.14-.76,1.3-1.41.06-.04.12-.08.18-.12.17-.12.29-.29.37-.48.23.15.46.25.7.31-.12.62-.55,1.3.09,1.01.63-.42.96-.75,1.13-1.11.39-.2.7-.55.84-1.02.1.05.21.09.32.12,0,.63-.07,1.05.42.87.48-.2.84-.55,1.03-.99.72-.32,1.33-1.03,1.48-2.02.18-1.17-.6-1.76-.6-2.88.24-.13.47-.26.71-.4M446.57,128.17c.52-1.35-.31-4.12.55-4.31,1.1-.25,2.06,1.35,2.41,2.51.11.32.09.83.05.93-.31-.49-.77-1.34-.73-.47.12.53.73,4.22-.64,4.57-1.22.31-2.65-.59-1.63-3.23M450.66,124.8c.89-.07,1.57.8,1.91,1.71.05.41.12.83.03,1.48-.04.27-.09.53-.15.77-.26-.54-.75-2.01-.75-1.05,0,.68.06,4.56-1.22,4.68-1.25.12-1.53-1-.87-2.36.65-1.34.17-5.17,1.05-5.23M455.11,127.73c-1.05,1.9-.12,5.46-1.32,5.54-3.45.22-.89-4.11-.76-5.18.16-1.38.02-3.39,1.36-2.97,1.21.37,2.74,4.28,3.49,5.45,0,.01.02.03.04.04-.28-.11-.55-.22-.82-.34.08.03.14.05.17.05-1.23-.48-1.94-3.46-2.15-2.59M508.55,125.11c1.35-.42,1.2,1.6,1.36,2.97.12,1.08,2.69,5.41-.76,5.18-1.2-.08-.27-3.64-1.32-5.54-.19-.79-.76,1.65-1.78,2.5-.33.14-.66.27-1,.41.8-1.34,2.33-5.17,3.5-5.53M489.74,125.62c.86,5.02-4.09,5.3-4.83,1.43-.09-.49-.22-1.98-.38-3.95-.37-6.74-.93-17.43-.96-19.45.83-.53,1.83-.93,2.85-1.2.55,3.8,3.09,21.83,3.32,23.18M490.24,102.18c.53.1.98.28,1.3.55.49.33,1.02.8,1.58,1.36.89,3.37,4.5,16.87,4.82,18.22.39,1.63.82,3.11,1.5,3.8-2.18.41-3.73,0-4.23-1.98-.66-3.11-4.07-18.53-4.97-21.94M493.91,124.2c.29,1.66,1.61,4.02.09,4.38-2.35.58-2.56-.73-2.94-2.75-.01-.06-3.31-21.64-3.78-23.58.76-.14,1.49-.19,2.15-.16.49,2.38,4.24,20.77,4.47,22.11M479.73,126.25c0-2.62.4-19.3.48-21.99.66.58,1.12,1.26,1.25,2.02.13-.76.59-1.44,1.26-2.02.07,2.69.47,19.38.47,21.99,0,2.85-.75,3.88-1.74,4.46-.98-.59-1.73-1.61-1.73-4.46M463.71,122.13c-.64,2.27-2.19,4.64-2.56,5,1.34.5,3.77.9,5.49.22-.25.9-.23,1.71.53,2.48.94.94,3.58,1.61,4.86-.59,1.03,3.67,4.99,3.5,6.55.93.67,2.13,2.07,2.4,2.87,3.2.8-.8,2.2-1.07,2.88-3.2,1.55,2.57,5.52,2.74,6.55-.93,1.29,2.21,3.93,1.53,4.87.59.76-.76.77-1.58.53-2.48,1.72.68,4.15.29,5.49-.22-.36-.36-1.91-2.73-2.56-5-.78-2.76-3.66-12.72-4.95-16.8,3.5,4.02,7.5,10.84,7.76,14.42.11-.51.34-1.13.56-1.8.81,1.68,2.75,5.11,3.08,5.92.34.85.43,1.41.19,2.53-.18.82-.92,3.29-2.5,4.87,0,0,0,0,0,.02-6.35,2.36-13.03,3.83-19.89,4.02-.56.46-1.94,1.5-1.94,1.5,0,0-1.38-1.04-1.94-1.5-6.84-.19-13.5-1.65-19.82-3.99,0,0,0-.01.01-.02-1.59-1.59-2.53-4.08-2.71-4.89-.24-1.13-.15-1.68.19-2.53.32-.81,2.27-4.25,3.07-5.92.22.67.45,1.29.56,1.8.26-3.58,4.27-10.4,7.77-14.42-1.29,4.08-4.17,14.04-4.96,16.8M467.73,124.12c-.51,1.98-2.05,2.39-4.23,1.98.68-.69,1.11-2.17,1.5-3.8.32-1.35,3.93-14.85,4.82-18.23.56-.56,1.1-1.02,1.58-1.35.32-.26.77-.45,1.3-.55-.9,3.41-4.31,18.83-4.97,21.94M476.52,102.44c1.02.27,2.01.68,2.85,1.2-.04,2.02-.59,12.7-.96,19.44-.15,1.98-.29,3.47-.38,3.96-.74,3.87-5.68,3.59-4.82-1.43.23-1.35,2.77-19.38,3.32-23.18M471.87,125.83c-.38,2.02-.59,3.33-2.93,2.75-1.52-.36-.19-2.73.09-4.38.25-1.44,3.93-19.39,4.47-22.11.66-.04,1.4.02,2.15.16-.47,1.94-3.77,23.53-3.77,23.58M452.71,123.62c.25-.55.18-1.34.37-1.64.14-.23.65-.55.88-1.01.23-.46.17-1.45.39-1.95.22-.5.52-.7.73-1.35.06-.21.22-1.47.38-1.9.28-.73,1.13-1.79,1.98-2.51,0,1.71.02,2.18.32,4.17.84-.85,1.45-1.42,2-2.12-.03,1.27-.14,1.57-.62,2.52-.42.83-.22,1.28-.63,2.11-.41.84-1.06,1.02-1.4,1.56-.46.7-.23,1.87-.79,2.43-.38.38-.55.69-.42,1.66-.33-.56-.75-.91-1.11-1.14-.7-.45-1.64-.35-2.02.5-.12-.19-.26-.4-.42-.58.13-.23.25-.49.37-.74M452.81,74.59c0,1.63-1.44,3.27-3.24,4.6.24-.88.37-1.85.37-2.96v-5.95c0-.95-.08-2.31.07-3.4,1.32-.97,2.25-2.05,2.89-3.16-.02,3.85-.1,9.75-.1,10.87M449.93,81.44c1.35-1.02,2.34-2.15,2.93-3.21-.03,2.67-.06,5.12-.06,5.8,0,1.52-1.24,3.04-2.86,4.31v-4.9c0-.57-.03-1.28-.02-1.99M452.8,97.79c0,1.51-1.24,3.04-2.86,4.3v-3.5c0-.85-.06-5.52.03-7.75,1.35-1.04,2.34-2.19,2.92-3.25-.02,3.83-.09,9.14-.09,10.2M448.1,70.92v4.92c0,3.2-1.59,5.21-3.31,6.32.34-1,.54-2.15.54-3.49v-7.24c0-.38,0-.79.01-1.19.91-.56,1.66-1.21,2.28-1.91.19-.1.38-.19.56-.29-.06.7-.08,1.63-.08,2.89M445.25,95c.05-.46.08-.95.08-1.47v-7.24c0-.55,0-1.15.04-1.74.7-.42,1.4-.93,2.02-1.57.25-.12.48-.24.71-.37,0,.43,0,.92,0,1.47v4.92c0,2.91-1.32,4.84-2.85,6M448.1,99.24v4.92c0,2.86-1.27,4.76-2.77,5.93v-6.08c0-.61-.01-4.25.06-6.33.99-.59,1.95-1.37,2.75-2.41-.03,1.33-.04,3.04-.04,3.96M443.49,88.25v4.89c0,3.3-1.69,5.34-3.47,6.42.02-.35.04-.7.04-1.09v-8.48c0-.27,0-1.51,0-2.61.69-.35,1.38-.8,2.04-1.34.43-.16.92-.34,1.44-.56,0,.91-.05.9-.05,2.77M443.49,105.97v4.9c0,3.27-1.66,5.3-3.43,6.4v-8.38c0-.35,0-4.37,0-6.64,1.22-.64,2.49-1.52,3.47-2.83-.02,1.92-.05,5.13-.05,6.55M439.65,84.91c.26-.9.41-1.92.41-3.08v-9.01c.62-.32,1.24-.71,1.84-1.17.57-.15,1.1-.32,1.6-.51-.02.56-.01,1.24-.01,2.25v4.89c0,3.53-1.93,5.61-3.84,6.63M438.21,92.68v5.4c0,3.65-2.24,5.98-4.05,6.79.25-.88.39-1.88.39-3.01v-.12s0,0,0,0c0-.12,0-.24,0-.37v-1.96h0v-3.16c0-1.31-.08-3.79-.04-5.59,1.08-.53,2.21-1.25,3.17-2.27.19-.08.4-.16.61-.24-.05,1.54-.09,3.55-.09,4.52M438.21,111.58v5.4c0,3.87-2.47,6.05-4.01,6.73.35-.46.36-1.54.36-3.42v-5.12c0-.6-.02-3.8-.02-7.79,1.28-.57,2.69-1.41,3.76-2.83-.05,2.64-.08,6.09-.08,7.03M434.51,76.12c1.08-.53,2.22-1.25,3.17-2.28.19-.07.4-.15.61-.23-.05.68-.08,1.48-.08,2.43v5.4c0,3.71-2.14,5.83-4.14,6.79.3-.95.48-2.05.48-3.3v-5.29c0-1.19-.06-2.38-.04-3.51M428.3,91.45c.36-.46.74-1.73.74-3.61v-8.65c.98-.49,1.99-1.13,2.89-2.01.26-.1.55-.2.86-.32-.05.69-.09,1.47-.09,2.35v5.32c0,3.88-2.33,6.01-4.4,6.91M432.7,95.86c0,1.01-.09,6.2-.09,6.83,0,2.69-2.47,4.91-4.31,5.71.36-.46.74-1.73.74-3.6v-11.04c.98-.49,1.99-1.13,2.89-2,.28-.1.58-.22.91-.35-.09,1.43-.14,3.34-.14,4.46M432.7,114.76v6.16c0,.77-.07,3.04-.09,5.64,0,0,0,0,0,0v4.14c0,2.59-2.47,4.91-4.31,5.71.36-.46.74-1.73.74-3.61v-22.09c1.15-.57,2.35-1.35,3.34-2.49.11-.04.23-.08.35-.14-.02,3.46-.03,6.15-.03,6.67M468.95,26.65h0c-.48.14-3.03.57-3.35.25.56-.29.94-.46,2-1.13.78.06,1.53.54,2.74,1.26-.67-.27-.74-.5-1.39-.38M535.73,94.55c.52.2.99.36,1.35.5-1.45-2.19-1.35-5.75-1.35-6.59v-8.48c.52.2.99.36,1.35.51-1.45-2.2-1.35-5.75-1.35-6.59v-19.74c0-5.46-8.35-18.69-15.41-18.87-5.01-.12-10.89,6.92-18.09,5.1-2.31-.6-4.15-3.08-5.67-6.14-2.68-5.48-5.26-12.81-11.79-17.05-7.23-4.69-15.55.55-16.51,1.38-.82.75-2.12,3-2.82,3.36-2.26,1.18-2.63,3.16-2.63,3.91s.17,2.57,1.54,3.61c-.19-.89-.24-1.39-.03-1.84.9.15,2.88.56,4.16.03.63.63,2.13,1.83,2.78,3.07.91,1.72.92,1.99.92,2.66,0,1.75-.82,4.26-3.32,5.9-2.62,1.87-8.82,2.92-16.58.26-4.2-1.44-5.92-4.35-9.68-4.25-7.06.18-15.41,13.41-15.41,18.87v19.74c0,.84.11,4.39-1.34,6.59.37-.15.83-.31,1.34-.51v8.48c0,.84.11,4.39-1.34,6.59.37-.15.83-.31,1.34-.5v10.87c0,.84.11,4.39-1.34,6.59.37-.15.83-.29,1.34-.49v21.91c0,.63.06,2.78-.52,4.75-.19.66.25,1.44.94,1.17,2.83-1.13,6.94-3.33,6.94-9.48v-3.46c2.03-.89,4.47-2.47,5.25-6.31,2.31-1.14,4.86-3.13,5.42-7.14,2.36-1.37,4.7-3.75,4.73-8.34,2.05-1.55,3.27-3.38,3.51-4.79.17-.95.29-3.23.33-5.86,1.48-1.08,2.55-2.32,3.17-3.44-.24,5.7-1.38,13.36-4.06,23.97.47,0,1.11-.11,1.75-.26-.36,2.14-2.18,7.23-3.4,9.55-.16-.01-.34-.01-.53.02-.4.07-.69.46-.89.94-.55-.84-1.24-2.2-2.84-1.68-.83.27-1.14.93-1.2,1.62-1.34.84-10.38,6.45-10.38,6.45v13.97c13.42,7.95,28.21,12.74,44.17,13.07.52.52,1.94,1.6,1.94,1.6,0,0,1.42-1.08,1.94-1.6,15.95-.33,30.74-5.12,44.17-13.07v-13.97s-9.8-6.08-10.51-6.53c-.09-.66-.4-1.27-1.2-1.54-1.6-.52-2.29.84-2.84,1.68-.19-.49-.49-.87-.89-.94-.19-.03-.37-.03-.53-.02-1.22-2.31-3.05-7.41-3.4-9.55.65.15,1.28.26,1.75.26-2.68-10.61-3.82-18.27-4.06-23.97.61,1.12,1.67,2.35,3.15,3.43.05,2.63.16,4.92.33,5.87.25,1.41,1.47,3.24,3.53,4.8.03,4.59,2.37,6.97,4.73,8.34.56,4.01,3.11,6,5.42,7.14.79,3.84,3.21,5.42,5.25,6.31v3.46c0,6.07,4.02,8.3,6.84,9.44.72.29,1.32-.26,1.13-.79-.69-2.06-.63-4.43-.63-5.1v-21.89c.52.2.99.32,1.35.47-1.45-2.2-1.35-5.75-1.35-6.59v-10.87ZM515.51,143.09c-.19.07-.39.15-.58.23-.05-.14-.1-.27-.16-.41.13-.24.25-.49.38-.73.26.09.52.18.79.27.05.13.11.27.16.4-.2.08-.4.16-.59.24M514.59,140.76c-.37.73-.75,1.46-1.14,2.18.1.27.2.54.3.82-.4.15-.8.29-1.2.43-.72-2.01-1.43-4.01-2.14-6.02-.11-.31-.1-.66.3-.92-.72-.28-1.43-.57-2.13-.86.93,2.74,1.87,5.47,2.8,8.21.12.34.24.69.35,1.03.3-.1.6-.21.91-.31l.29-.1c1-.36,2-.73,2.99-1.12.59-.23,1.18-.48,1.77-.72-.25-.6-.51-1.2-.76-1.8-.78-.26-1.56-.53-2.33-.81M523.53,140.69c.38-.19.76-.39,1.14-.58-1.15-2.21-2.3-4.42-3.45-6.63-.15-.29-.19-.64.18-.95-.76-.17-1.51-.36-2.25-.56,1.3,2.59,2.6,5.17,3.9,7.75.16.32.33.65.49.97M503.08,74.61s.02.03.02.05c0,.02-.02.03-.04.04l-1.15.26-.25,1s-.02.03-.05.04h0s-.04,0-.04-.03l-.57-.92-1.15-.03s-.04-.02-.05-.03c0-.02,0-.04,0-.05l.73-.85-.29-1.07s0-.04.02-.05c.02-.01.04-.02.06,0l1.04.46.91-.59s.02,0,.03,0,.02,0,.03,0h0s.02.03.02.05l-.2,1.01.92.73ZM491.56,86.78l-.51-1.97s-.02-.03-.05-.04c-.02,0-.04,0-.05.02,0,0-1,1.45-1.3,1.85-.5-.02-2.27-.15-2.28-.15-.02,0-.04.01-.05.03,0,0,0,.03,0,.05l1.23,1.63c-2.2.84-4.59,1.3-7.08,1.3s-5.04-.5-7.3-1.39l1.16-1.54s.02-.04,0-.05c-.02-.02-.03-.03-.05-.03,0,0-1.78.14-2.28.15-.3-.4-1.3-1.85-1.3-1.85,0-.02-.03-.03-.05-.02-.02,0-.04.02-.04.04l-.47,1.81c-4.04-2.46-7.14-6.31-8.63-10.89l1.85-.05s.04-.02.04-.03c.01-.02,0-.04,0-.05,0,0-1.16-1.3-1.49-1.69.13-.5.62-2.17.62-2.18,0-.02,0-.04-.01-.05-.02-.02-.03-.02-.05-.01l-1.71.76c-.13-.93-.21-1.88-.21-2.85,0-4.05,1.22-7.82,3.31-10.97l1.13,1.34s.02.02.04.02c0,0,0,0,.01,0,.02,0,.03-.02.04-.04,0,0,.3-1.73.39-2.21.48-.21,2.13-.85,2.13-.85.02,0,.03-.02.04-.04,0-.02-.01-.04-.03-.05l-1.62-.84c3.24-3.45,7.69-5.74,12.66-6.2l-.36,1.85s0,.04.02.05c0,0,.02,0,.03,0,0,0,.02,0,.03,0,0,0,1.54-.88,1.98-1.1.44.22,1.99,1.1,1.99,1.1.02,0,.04,0,.05,0,.02-.01.02-.03.02-.05l-.37-1.87c5.04.39,9.57,2.66,12.87,6.12l-1.82.94s-.03.03-.03.05c0,.02.01.04.03.05,0,0,1.65.64,2.13.85.1.48.39,2.21.39,2.21,0,.02.02.04.04.04,0,0,0,0,0,0,.02,0,.03,0,.04-.02l1.29-1.54c2.16,3.19,3.43,7.03,3.43,11.16,0,1.01-.08,2-.23,2.97l-1.99-.88s-.04,0-.05,0c-.02.02-.02.04-.02.05,0,0,.49,1.68.62,2.18-.33.39-1.49,1.69-1.49,1.69-.02.02-.02.04,0,.05,0,.02.03.03.05.03l2.14.06c-1.52,4.67-4.72,8.59-8.88,11.04M492.09,88.01s0,.02-.02.02l-.9.49v1.17s0,.04-.02.05h-.03s-.02,0-.03,0l-.92-.73-.56.24-.38.16h0s0,0,0,0c-.02,0-.03,0-.05,0,0,0,0-.02,0-.03,0,0-.01-.02,0-.03l.15-.42.22-.58-.29-.39h0l-.39-.53s0-.02,0-.02c0,0,0-.02,0-.03,0,0,.02-.01.02-.02,0,0,.01-.02.02-.02l1.1.03.68-.89s.03-.02.05-.02c.02,0,.03.02.04.03,0,0,0,0,0,0l.17.65.12.46.76.25.26.08s.03.02.04.04c0,.01-.01.02-.02.03M473.83,87.39s0,.02,0,.03l-.39.52-.29.39.16.42.21.58s0,.04-.01.05c0,0,0,0-.01,0,0,0-.03,0-.04,0l-.25-.11-.5-.21s.02,0,.03,0l-.22-.09-.35.28-.57.45s-.02.01-.03.01h-.02s-.02-.03-.02-.05v-1.17s-.9-.49-.9-.49c-.02,0-.03-.03-.03-.05h0s.02-.03.03-.04l.51-.17.51-.17.15-.6.13-.51s.02-.03.04-.03c.02,0,.04,0,.05.02h0l.34.45.34.44,1.09-.02s.04,0,.05.02c0,0,0,.02,0,.02M461.11,75.97s-.02.03-.04.03h0s-.04-.02-.04-.04l-.25-1-1.15-.26s-.03-.02-.04-.04c0-.02,0-.04.02-.05l.93-.73h0s-.04-.22-.04-.22h0s-.16-.79-.16-.79c0-.01,0-.03,0-.04,0,0,0-.01.01-.02.02,0,.04,0,.06,0l.9.59.56-.25.48-.22s.04,0,.05,0c.02.01.02.03.02.05l-.29,1.08.73.85s.02.03,0,.05c0,.02-.02.03-.04.03l-1.15.03-.57.92ZM463.69,57.51l.62-.82-.52-1.05s0-.04,0-.05c.02-.02.03-.02.05-.02l1.16.26.67-.79s.04-.02.06-.02c.02,0,.03.02.03.04l.08,1.08,1.02.53s.03.02.03.04c0,.02,0,.04-.03.05l-1,.45-.22,1.1s-.02.04-.04.04h-.01s-.03,0-.04-.02l-.28-.33-.46-.55-1.03.13h-.04s-.04,0-.05-.02c0-.02,0-.04,0-.06M479.73,48.27s.02-.02.04-.02l1.02-.05.51-1.07s.03-.03.05-.03c.02,0,.04.01.05.03l.51,1.07h.09s0,0,0,0l.7.03h0c.08,0,.17,0,.25.01.02,0,.02.02.03.03h0s0,.04,0,.05l-.77.74.22,1.13s0,.04-.02.05c0,0-.02.01-.03.01,0,0-.02,0-.02,0l-.99-.5-.99.5s-.04,0-.05,0c-.01-.01-.02-.03-.02-.05l.1-.52.12-.6-.77-.74s-.02-.04,0-.05c0,0,0,0,0-.01M496.4,56.37l.45-.23.08-1.08s.01-.04.03-.04c0,0,.02,0,.03,0,.01,0,.02,0,.03.02l.67.79.09-.02,1.07-.24s.04,0,.05.02c.01.01.01.03,0,.05l-.52,1.05.61.83s.02.04,0,.05c-.01.02-.03.03-.05.02l-1.07-.13-.74.88s-.02.02-.04.02c0,0-.01,0-.02,0-.02,0-.03-.02-.03-.04l-.22-1.1-1-.45s-.03-.03-.03-.05,0-.04.03-.05l.58-.3ZM503.28,71.34s0-.04-.02-.05c-.02-.02-.04-.02-.06,0,0,0-.18.12-.42.3.06-.66.1-1.32.1-2,0-4.08-1.15-7.88-3.14-11.13.4.07.71.12.71.12.02,0,.04,0,.05-.02.01-.02.01-.04,0-.05,0,0-1-1.48-1.29-1.89.23-.46.92-1.99.92-1.99.01-.02,0-.04,0-.05-.01-.02-.03-.02-.05-.02l-2.12.48c-.34-.4-1.53-1.72-1.53-1.72-.02-.02-.03-.02-.06-.02-.02,0-.03.02-.03.05l-.06.8c-3.27-3.14-7.54-5.25-12.28-5.81.36-.33.68-.61.68-.61.02-.01.02-.03.02-.05,0-.02-.02-.03-.05-.03,0,0-1.8-.12-2.3-.15-.22-.45-.97-1.94-.97-1.94l-.02-.02s-.03-.01-.05,0c-.01,0-.03.01-.03.03,0,0-.75,1.49-.97,1.94-.5.02-2.3.15-2.3.15-.02,0-.04.02-.05.03,0,.02,0,.04.02.05,0,0,.33.29.7.63-4.76.62-9.03,2.81-12.28,6.04l-.08-1.07s-.01-.03-.04-.04c-.02,0-.04,0-.05.02,0,0-1.19,1.32-1.53,1.72l-2.11-.48s-.04,0-.05.02c0,.02-.02.04,0,.05,0,0,.69,1.53.92,1.99-.29.4-1.29,1.89-1.29,1.89-.02.02-.02.04,0,.06,0,.02.03.02.05.02,0,0,.49-.08,1.03-.18-2,3.26-3.17,7.09-3.17,11.18,0,.75.04,1.49.12,2.22-.4-.28-.73-.52-.73-.52-.02-.02-.04-.02-.06,0-.02.01-.02.03-.02.05,0,0,.25,1.76.34,2.26l-1.71,1.36s-.02.03-.02.05c0,.02.02.03.04.04,0,0,1.64.41,2.14.51.13.49.66,2.18.66,2.18,0,.02.02.03.04.04h0s.04,0,.05-.03c0,0,.21-.38.45-.81,1.59,4.33,4.54,8.01,8.33,10.51-.49.14-.92.26-.92.26-.02,0-.04.02-.04.04,0,.02,0,.04.03.05,0,0,1.56.9,2,1.14,0,.29.03,2.18.03,2.18,0,.02.01.03.03.04.01,0,.02,0,.02,0,.01,0,.03,0,.03-.02l1.71-1.34,2.14.9s.04,0,.05,0c.02-.02.02-.04,0-.06,0,0-.16-.4-.35-.87,2.2.77,4.56,1.19,7.02,1.19,2.33,0,4.58-.38,6.68-1.07-.17.42-.3.75-.3.75,0,.02,0,.04.02.05.01.02.03.02.05,0l2.14-.9,1.71,1.34s.02,0,.03,0h.02s.03-.02.03-.05c0,0,.03-1.89.03-2.18.44-.24,2-1.14,2-1.14.02,0,.03-.03.03-.05,0-.02-.02-.04-.04-.04,0,0-.32-.09-.72-.21,3.74-2.45,6.68-6.03,8.3-10.26.16.29.28.5.28.5,0,.02.03.03.05.03h0s.04-.02.04-.04c0,0,.53-1.69.66-2.18.5-.11,2.14-.52,2.14-.52.02,0,.04-.02.04-.04,0-.02,0-.04-.02-.05l-1.71-1.36c.09-.5.34-2.26.34-2.26M520.6,140.43c.06.13.12.26.19.39-.19.09-.39.18-.59.27-.19.09-.38.18-.57.26-.06-.13-.12-.26-.18-.39.12-.25.23-.5.34-.75.27.08.54.15.81.22M519.49,138.07c-.11.25-.22.51-.34.76-.26-.08-.52-.16-.78-.25-.78-1.71-1.55-3.43-2.32-5.14-.32.78-.66,1.56-1,2.34.47-.07.83.13.95.42.45,1.03.9,2.05,1.34,3.08.03.07.06.13.09.2.41.13.83.27,1.25.39-.19.4-.37.8-.56,1.2.26.6.52,1.2.78,1.79.59-.25,1.17-.51,1.75-.78.58-.27,1.16-.55,1.74-.83-.28-.59-.57-1.17-.85-1.76-.43-.12-.85-.23-1.27-.35.17-.41.35-.81.52-1.21-.52-1.08-1.05-2.15-1.57-3.23-.14-.29-.06-.69.3-1-.81-.24-1.62-.49-2.42-.76.8,1.7,1.6,3.4,2.4,5.1M493.61,141.52c-.64-.42-1.26-.86-1.88-1.29.39,3.24.77,6.46,1.16,9.7.42-.05.83-.1,1.25-.16-.33-2.47-.66-4.94-.99-7.41-.04-.32.02-.66.46-.83M506.03,139.6c-.09-.32-.07-.66.34-.9-.69-.32-1.39-.65-2.07-.98.78,2.78,1.57,5.57,2.35,8.35.1.35.2.7.3,1.05.4-.12.8-.23,1.2-.35-.71-2.39-1.41-4.78-2.12-7.17M486.23,148.31c-.26-.42-.52-.84-.78-1.27.12,0,.25,0,.36-.02.01-.32.12-.49.32-.67.22.16.36.32.4.63.12,0,.24-.02.36-.02-.22.45-.44.89-.66,1.34M489.08,142.03c.46.07.6.39.63.71.2,2.12.39,4.24.59,6.36-1.1.1-2.18.18-3.28.24.59-1.19,1.16-2.39,1.7-3.59-.47.04-.95.07-1.42.1-.2-.37-.79-.77-1.24-.79-.43.07-.98.52-1.13.9-.48.02-.95.03-1.43.04.65,1.15,1.34,2.29,2.04,3.41-1.07.04-2.14.07-3.2.07,0-1.09,0-2.17-.02-3.26-.59.55-1.2,1.09-1.82,1.62.37,0,.6.23.6.56,0,.9-.02,1.8-.02,2.71,0,.6-.57,1.09-1.27,1.07-.56-.01-1.02-.33-1.18-.76.16.73.92,1.3,1.84,1.31,1.06.02,1.89-.72,1.88-1.62,0-.18,0-.36,0-.54,1.33,0,2.66-.04,3.98-.11,1.36-.06,2.72-.16,4.07-.29.06,0,.12,0,.17-.02.36-.03.72-.07,1.08-.11-.35-3.24-.69-6.47-1.03-9.71-.5.57-1.02,1.13-1.54,1.68M502.95,144.13c.49-.01.69.27.76.58.17.67.34,1.34.51,2.01-1.8.46-3.61.85-5.44,1.2-.25.05-.49.09-.74.13-.38-.22-.75-.46-1.12-.69.85-.87,1.38-2.4,1.06-3.7-.21,1.8-1.02,3.07-3.03,3.8.91.6,1.84,1.18,2.79,1.75.42-.07.83-.15,1.24-.23,2.26-.42,4.5-.94,6.73-1.53-.46-1.74-.93-3.49-1.39-5.24-.45.64-.9,1.28-1.37,1.91M509.18,141.9c-.41.7-.83,1.4-1.25,2.1.34-.11.65.03.75.35.26.86.53,1.73.8,2.59.18.57-.24,1.21-.92,1.41-.53.16-1.07,0-1.35-.36.38.65,1.27.96,2.15.69,1.03-.31,1.62-1.27,1.34-2.13-.5-1.55-1.01-3.1-1.51-4.65M466.79,22.42c-.4,0-.73.27-.73.59,0,.29.26.54.61.58-.03-.05-.05-.1-.05-.15,0-.25.3-.45.68-.45.08,0,.15,0,.21.02h0c0-.34-.32-.6-.73-.6"/>
  <g>
    <g>
      <path class="cls-1" d="M66.99,84.5c.41-.26,2.47-.41,3.17-.41.28,0,.44.15.54.85l1.24,9.44c.36,2.71.64,4.62.85,5.85-.46.13-2.4.23-2.97.23-.36,0-.72-.13-.77-.7-.13-1.26-.28-2.76-.54-5.67l-.54-5.85c-.62,2.11-1.91,6.06-3.53,10.96-.18.57-.41.77-1.06.9-.54.1-1.21.21-1.83.21-.54-1.8-2.73-8.69-3.77-12.02-.26,2.91-.85,8.56-1.24,11.73-.05.28-.18.44-.49.44-.83,0-2.24,0-2.66-.23.44-2.79,1.37-9.39,2.35-15.32l-.05-.41c.72-.15,1.75-.41,3.2-.41.41-.03.57.15.95,1.26l3.38,9.54c1.08-2.94,2.68-7.43,3.77-10.06v-.34Z"/>
      <path class="cls-1" d="M75.76,87.57c0-1.73-.03-2.79-.08-3.28.52-.08,2.58-.21,3.17-.21.52,0,.59.26.59,1.44v11.55c0,1.81.05,2.66.08,3.17-.46.13-2.48.21-3.15.21-.44,0-.62-.08-.62-.52v-12.38Z"/>
      <path class="cls-1" d="M83.06,84.43v-.13c.59-.08,3.2-.21,3.71-.21.28,0,.49.18.75.46.8,1.24,2.71,4.25,4.2,6.81,1.08,1.83,1.93,3.17,2.55,4.54-.18-1.7-.16-2.45-.16-3.77v-7.19c0-.59.18-.7.59-.72.83-.08,1.75-.13,2.4-.13-.05,1.11-.08,2.6-.08,4.74v11.35c-.26.08-1.98.44-2.86.44-.39,0-.54-.1-.77-.44-1.13-1.65-1.93-3.02-3.87-6.16-1.57-2.55-2.24-4-3.3-6.11.15,2.37.13,3.66.13,5v6.78c0,.52-.15.59-.62.67-.46.08-1.44.13-2.37.1.05-1.03.08-2.53.08-4.69v-10.78l-.39-.57Z"/>
      <path class="cls-1" d="M101.01,87.57c0-1.73-.03-2.79-.08-3.28.52-.08,2.58-.21,3.17-.21.52,0,.59.26.59,1.44v11.55c0,1.81.05,2.66.08,3.17-.46.13-2.47.21-3.15.21-.44,0-.62-.08-.62-.52v-12.38Z"/>
      <path class="cls-1" d="M113.49,83.81c1.47,0,3.25.62,3.89,1.29,0,.72-.46,1.93-1.5,1.86-.57-.28-1.73-.62-2.5-.62-1.37,0-2.14.62-2.14,1.52,0,1.06.8,1.65,3.25,3.04,2.17,1.21,3.58,2.19,3.58,4.72,0,3.33-2.91,5.08-6.01,5.08-1.83,0-3.15-.52-3.84-1.01-.52-.34-.7-.62-.7-.98,0-.57.49-1.73.72-1.86.96.59,2.5,1.21,3.74,1.21,1.42,0,2.42-.54,2.42-1.73,0-.93-.44-1.52-3.07-2.96-2.99-1.6-3.56-3.28-3.56-4.87,0-1.83,1.29-4.69,5.67-4.69h.03Z"/>
      <path class="cls-1" d="M124.25,86.62h-4.49c-.46,0-.67-.21-.46-.88.28-.9.62-1.34.9-1.68.46.1,1.19.13,3.66.13h9.41c-.15,1.65-.93,2.29-1.52,2.42h-3.82v10.5c0,1.78.05,2.63.08,3.14-.83.13-1.91.21-3.15.21-.41,0-.62-.08-.62-.46v-13.38Z"/>
      <path class="cls-1" d="M138.92,99.69c0,.52-.18.62-.62.67-.75.08-2.45.1-3.04.1.05-1.03.08-2.55.08-4.72v-8.67c0-1.26,0-1.88-.05-2.58.62-.15,3.48-.46,4.67-.46,4.44,0,6.4,1.52,6.4,4.69,0,2.4-2.01,3.56-3.04,4.05.59.52,1.37,1.88,2.19,3.35,1.21,2.17,1.91,3.22,2.61,4v.1c-.21.15-1.32.28-2.35.28s-1.75-.21-2.45-1.08c-.59-.72-1.16-1.91-2.24-4.1-.7-1.39-1.21-1.5-1.78-1.5-.15,0-.23-.03-.36,0v5.85ZM138.92,91.75c.59.08,1.96,0,2.32-.18.33-.18,1.34-.83,1.34-2.5,0-1.96-1.19-2.89-2.73-2.89-.31,0-.67,0-.93.05v5.52Z"/>
      <path class="cls-1" d="M153.26,94.05c0-.49-.03-.9-.21-1.21-1.42-2.55-3.53-5.8-5.11-8.15v-.08c1.01-.28,2.48-.52,3.22-.52.49,0,.67.05,1.37,1.24.85,1.47,1.96,3.53,2.99,5.34,1.19-1.86,3.3-5.67,3.77-6.58,1.11,0,2.14.13,2.53.28.41.18.36.52.03,1.11-.62,1.08-4.38,6.71-4.62,7.14-.21.39-.28.77-.28,1.11v3.43c0,1.75.05,2.53.08,3.09-.7.13-1.55.21-3.25.21-.44,0-.52-.08-.52-.46v-5.96Z"/>
      <path class="cls-1" d="M177.25,83.81c5.36,0,8.28,3.79,8.28,8.3s-2.94,8.59-8.41,8.59c-5.96,0-8.33-4.28-8.33-8.33,0-4.87,3.12-8.56,8.43-8.56h.03ZM176.91,86.08c-2.22,0-4.18,1.8-4.18,5.93s2.09,6.42,4.67,6.42c2.71,0,4.23-2.27,4.23-6.04,0-3.51-1.62-6.32-4.69-6.32h-.03Z"/>
      <path class="cls-1" d="M188.49,87.31c0-1-.03-1.68-.08-2.73.49-.13,2.29-.34,3.58-.39.7-.03,5.11,0,6.45,0-.26,1.39-.7,1.93-1.06,2.27-.36.15-.9.15-2.09.15h-3.12v4.69h5.67c-.33,2.24-.95,2.42-2.01,2.42h-3.66c0,2.45.03,4.62.08,6.52-.46.13-1.93.21-3.15.21-.44,0-.62-.08-.62-.52v-12.64Z"/>
      <path class="cls-1" d="M218.92,97.55c-.1,1.01-.44,1.8-.93,2.27-.64.41-2.01.88-3.69.88-5.96,0-9.18-3.33-9.18-8.28,0-5.37,4.1-8.61,9.26-8.61,2.42,0,4.36.82,4.77,1.29.08.93-.54,1.96-1.52,1.83-.72-.31-1.88-.64-3.25-.64-2.96,0-5.34,1.91-5.34,5.91,0,3.3,2.14,5.9,6.06,5.9,1.78,0,3.07-.41,3.71-.59l.1.05Z"/>
      <path class="cls-1" d="M225.17,96.16c-.46,1.24-1.19,3.15-1.5,3.92-.1.26-.31.39-.77.39-.67,0-1.99-.15-2.6-.34l-.03-.1c1.29-3.15,5.18-12.64,6.21-15.14l-.16-.46c1.13-.23,2.86-.34,3.15-.34.23,0,.46.13.62.49,1.19,2.89,3.02,7.74,3.84,9.93,1.06,2.76,1.68,4.36,2.22,5.54l-.03.1c-.57.18-2.66.31-3.3.31-.44,0-.67-.13-.93-.85-.44-1.29-.77-2.24-1.21-3.46h-5.52ZM229.99,93.76c-1.06-3.07-1.75-4.87-2.04-5.67-.52,1.52-1.21,3.53-2.01,5.67h4.05Z"/>
      <path class="cls-1" d="M238.4,87.78c0-1.39,0-2.14-.08-3.22.67-.18,3.35-.52,5-.52,5.03,0,5.83,2.35,5.83,4.08,0,1.6-1.13,2.79-2.32,3.38,2.22.64,3.28,2.14,3.28,3.84,0,3.43-2.91,5.23-7.14,5.23-1.39,0-3.51-.23-4.56-.44v-12.35ZM241.98,91.11c.72-.13,1.34-.15,2.58-.15.64-.34,1.11-1.08,1.11-2.32,0-1.65-1.08-2.42-2.45-2.42-.41,0-.98.05-1.24.1v4.8ZM241.98,98.3c.31.08.83.1,1.19.1,1.78,0,2.97-1.01,2.97-2.84,0-1.52-1.13-2.45-3.07-2.45-.39,0-.7,0-1.08.05v5.13Z"/>
      <path class="cls-1" d="M253.02,87.57c0-1.73-.03-2.79-.08-3.28.52-.08,2.58-.21,3.17-.21.52,0,.59.26.59,1.44v11.55c0,1.81.05,2.66.08,3.17-.46.13-2.47.21-3.15.21-.44,0-.62-.08-.62-.52v-12.38Z"/>
      <path class="cls-1" d="M260.32,84.43v-.13c.59-.08,3.2-.21,3.71-.21.28,0,.49.18.75.46.8,1.24,2.71,4.25,4.2,6.81,1.08,1.83,1.93,3.17,2.55,4.54-.18-1.7-.15-2.45-.15-3.77v-7.19c0-.59.18-.7.59-.72.83-.08,1.75-.13,2.4-.13-.05,1.11-.08,2.6-.08,4.74v11.35c-.26.08-1.99.44-2.86.44-.39,0-.54-.1-.77-.44-1.13-1.65-1.93-3.02-3.87-6.16-1.57-2.55-2.24-4-3.3-6.11.15,2.37.13,3.66.13,5v6.78c0,.52-.16.59-.62.67-.46.08-1.44.13-2.37.1.05-1.03.08-2.53.08-4.69v-10.78l-.39-.57Z"/>
      <path class="cls-1" d="M278.27,87.8c0-1.24,0-2.11-.08-3.25.83-.18,2.14-.34,3.35-.36h6.14c-.18,1.42-.54,1.91-.85,2.27-.41.15-1.45.15-2.61.15h-2.27v4.18h5.44c-.26,1.98-.82,2.42-1.75,2.42h-3.69v4.67c.59.1,1.19.15,2.06.15.98,0,2.99,0,4.33-.1l.05.05c-.26,1.29-.77,1.91-1.47,2.35-.36.08-1.6.13-3.69.13-2.32,0-3.95-.13-4.56-.26l-.41-.52v-11.89Z"/>
      <path class="cls-1" d="M294.49,86.62h-4.49c-.46,0-.67-.21-.46-.88.28-.9.62-1.34.9-1.68.46.1,1.19.13,3.66.13h9.41c-.15,1.65-.93,2.29-1.52,2.42h-3.82v10.5c0,1.78.05,2.63.08,3.14-.83.13-1.91.21-3.15.21-.41,0-.62-.08-.62-.46v-13.38Z"/>
      <path class="cls-1" d="M314.48,96.16c-.46,1.24-1.19,3.15-1.5,3.92-.1.26-.31.39-.77.39-.67,0-1.99-.15-2.61-.34l-.03-.1c1.29-3.15,5.18-12.64,6.21-15.14l-.15-.46c1.13-.23,2.86-.34,3.15-.34.23,0,.46.13.62.49,1.19,2.89,3.02,7.74,3.84,9.93,1.06,2.76,1.68,4.36,2.22,5.54l-.03.1c-.57.18-2.66.31-3.3.31-.44,0-.67-.13-.93-.85-.44-1.29-.77-2.24-1.21-3.46h-5.52ZM319.3,93.76c-1.06-3.07-1.75-4.87-2.04-5.67-.52,1.52-1.21,3.53-2.01,5.67h4.05Z"/>
      <path class="cls-1" d="M327.71,87.31c0-1-.03-1.68-.08-2.73.49-.13,2.3-.34,3.58-.39.7-.03,5.11,0,6.45,0-.26,1.39-.7,1.93-1.06,2.27-.36.15-.9.15-2.09.15h-3.12v4.69h5.67c-.34,2.24-.96,2.42-2.01,2.42h-3.66c0,2.45.03,4.62.08,6.52-.46.13-1.93.21-3.15.21-.44,0-.62-.08-.62-.52v-12.64Z"/>
      <path class="cls-1" d="M339.94,87.31c0-1-.03-1.68-.08-2.73.49-.13,2.3-.34,3.58-.39.7-.03,5.11,0,6.45,0-.26,1.39-.7,1.93-1.06,2.27-.36.15-.9.15-2.09.15h-3.12v4.69h5.67c-.34,2.24-.96,2.42-2.01,2.42h-3.66c0,2.45.03,4.62.08,6.52-.46.13-1.93.21-3.15.21-.44,0-.62-.08-.62-.52v-12.64Z"/>
      <path class="cls-1" d="M354.33,96.16c-.46,1.24-1.19,3.15-1.5,3.92-.1.26-.31.39-.77.39-.67,0-1.99-.15-2.6-.34l-.03-.1c1.29-3.15,5.18-12.64,6.21-15.14l-.16-.46c1.13-.23,2.86-.34,3.15-.34.23,0,.46.13.62.49,1.19,2.89,3.02,7.74,3.84,9.93,1.06,2.76,1.68,4.36,2.22,5.54l-.03.1c-.57.18-2.66.31-3.3.31-.44,0-.67-.13-.93-.85-.44-1.29-.77-2.24-1.21-3.46h-5.52ZM359.15,93.76c-1.06-3.07-1.75-4.87-2.04-5.67-.52,1.52-1.21,3.53-2.01,5.67h4.05Z"/>
      <path class="cls-1" d="M367.56,87.57c0-1.73-.03-2.79-.08-3.28.52-.08,2.58-.21,3.17-.21.52,0,.59.26.59,1.44v11.55c0,1.81.05,2.66.08,3.17-.46.13-2.48.21-3.15.21-.44,0-.62-.08-.62-.52v-12.38Z"/>
      <path class="cls-1" d="M378.83,99.69c0,.52-.18.62-.62.67-.75.08-2.45.1-3.04.1.05-1.03.08-2.55.08-4.72v-8.67c0-1.26,0-1.88-.05-2.58.62-.15,3.48-.46,4.67-.46,4.44,0,6.4,1.52,6.4,4.69,0,2.4-2.01,3.56-3.04,4.05.59.52,1.37,1.88,2.19,3.35,1.21,2.17,1.91,3.22,2.61,4v.1c-.21.15-1.32.28-2.35.28s-1.75-.21-2.45-1.08c-.59-.72-1.16-1.91-2.24-4.1-.7-1.39-1.21-1.5-1.78-1.5-.15,0-.23-.03-.36,0v5.85ZM378.83,91.75c.59.08,1.96,0,2.32-.18.33-.18,1.34-.83,1.34-2.5,0-1.96-1.19-2.89-2.73-2.89-.31,0-.67,0-.93.05v5.52Z"/>
      <path class="cls-1" d="M395.2,83.81c1.47,0,3.25.62,3.89,1.29,0,.72-.46,1.93-1.5,1.86-.57-.28-1.73-.62-2.5-.62-1.37,0-2.14.62-2.14,1.52,0,1.06.8,1.65,3.25,3.04,2.17,1.21,3.58,2.19,3.58,4.72,0,3.33-2.91,5.08-6.01,5.08-1.83,0-3.15-.52-3.84-1.01-.52-.34-.7-.62-.7-.98,0-.57.49-1.73.72-1.86.96.59,2.5,1.21,3.74,1.21,1.42,0,2.42-.54,2.42-1.73,0-.93-.44-1.52-3.07-2.96-2.99-1.6-3.56-3.28-3.56-4.87,0-1.83,1.29-4.69,5.67-4.69h.03Z"/>
    </g>
    <g>
      <path class="cls-1" d="M94.02,125.46c0-1.24,0-2.29-.1-3.48.7-.13,2.53-.33,4.44-.33,4.07,0,6.88,1.34,6.88,5.34s-3.38,5.18-4.9,5.21c-.34,0-.98-.03-1.29-.18-.44-.21-.95-1.03-.95-1.96.13,0,.41.03.62.03,1.26,0,2.71-.64,2.71-3.15,0-2.17-1.37-3.02-2.86-3.02-.21,0-.57,0-.85.05v10.86c0,1.81.05,2.53.08,3.04-.46.13-2.37.21-3.15.21-.44,0-.62-.08-.62-.46v-12.15Z"/>
      <path class="cls-1" d="M112.36,137.3c0,.52-.18.62-.62.67-.75.08-2.45.1-3.04.1.05-1.03.08-2.55.08-4.72v-8.66c0-1.26,0-1.88-.05-2.58.62-.15,3.48-.46,4.67-.46,4.44,0,6.4,1.52,6.4,4.69,0,2.4-2.01,3.56-3.04,4.05.59.52,1.37,1.88,2.19,3.35,1.21,2.17,1.91,3.22,2.61,4v.1c-.21.15-1.32.28-2.35.28s-1.75-.21-2.45-1.08c-.59-.72-1.16-1.91-2.24-4.1-.7-1.39-1.21-1.5-1.78-1.5-.15,0-.23-.03-.36,0v5.85ZM112.36,129.35c.59.08,1.96,0,2.32-.18.33-.18,1.34-.83,1.34-2.5,0-1.96-1.19-2.89-2.73-2.89-.31,0-.67,0-.93.05v5.52Z"/>
      <path class="cls-1" d="M124.58,125.18c0-1.73-.03-2.79-.08-3.28.52-.08,2.58-.21,3.17-.21.52,0,.59.26.59,1.44v11.55c0,1.81.05,2.66.08,3.17-.46.13-2.47.21-3.15.21-.44,0-.62-.08-.62-.52v-12.38Z"/>
      <path class="cls-1" d="M145.96,122.11c.41-.26,2.47-.41,3.17-.41.28,0,.44.15.54.85l1.24,9.44c.36,2.71.64,4.62.85,5.85-.46.13-2.4.23-2.97.23-.36,0-.72-.13-.77-.7-.13-1.26-.28-2.76-.54-5.67l-.54-5.85c-.62,2.11-1.91,6.06-3.53,10.96-.18.57-.41.77-1.06.9-.54.1-1.21.21-1.83.21-.54-1.8-2.73-8.69-3.77-12.02-.26,2.91-.85,8.56-1.24,11.73-.05.28-.18.44-.49.44-.83,0-2.24,0-2.66-.23.44-2.79,1.37-9.39,2.35-15.32l-.05-.41c.72-.15,1.75-.41,3.2-.41.41-.03.57.15.95,1.26l3.38,9.54c1.08-2.94,2.68-7.43,3.77-10.06v-.33Z"/>
      <path class="cls-1" d="M155.76,125.41c0-1.24,0-2.11-.08-3.25.83-.18,2.14-.33,3.35-.36h6.14c-.18,1.42-.54,1.91-.85,2.27-.41.16-1.45.16-2.61.16h-2.27v4.18h5.44c-.26,1.99-.82,2.42-1.75,2.42h-3.69v4.67c.59.1,1.19.15,2.06.15.98,0,2.99,0,4.33-.1l.05.05c-.26,1.29-.77,1.91-1.47,2.35-.36.08-1.6.13-3.69.13-2.32,0-3.95-.13-4.56-.26l-.41-.52v-11.89Z"/>
      <path class="cls-1" d="M188.67,122.11c.41-.26,2.47-.41,3.17-.41.28,0,.44.15.54.85l1.24,9.44c.36,2.71.64,4.62.85,5.85-.46.13-2.4.23-2.97.23-.36,0-.72-.13-.77-.7-.13-1.26-.28-2.76-.54-5.67l-.54-5.85c-.62,2.11-1.91,6.06-3.53,10.96-.18.57-.41.77-1.06.9-.54.1-1.21.21-1.83.21-.54-1.8-2.73-8.69-3.77-12.02-.26,2.91-.85,8.56-1.24,11.73-.05.28-.18.44-.49.44-.83,0-2.24,0-2.66-.23.44-2.79,1.37-9.39,2.35-15.32l-.05-.41c.72-.15,1.75-.41,3.2-.41.41-.03.57.15.95,1.26l3.38,9.54c1.08-2.94,2.68-7.43,3.77-10.06v-.33Z"/>
      <path class="cls-1" d="M198.47,125.18c0-1.73-.03-2.79-.08-3.28.52-.08,2.58-.21,3.17-.21.52,0,.59.26.59,1.44v11.55c0,1.81.05,2.66.08,3.17-.46.13-2.47.21-3.15.21-.44,0-.62-.08-.62-.52v-12.38Z"/>
      <path class="cls-1" d="M206.8,122.03v-.13c.59-.08,3.2-.21,3.71-.21.28,0,.49.18.75.46.8,1.24,2.71,4.25,4.2,6.81,1.08,1.83,1.93,3.17,2.55,4.54-.18-1.7-.15-2.45-.15-3.77v-7.19c0-.59.18-.7.59-.72.83-.08,1.75-.13,2.4-.13-.05,1.11-.08,2.6-.08,4.74v11.35c-.26.08-1.99.44-2.86.44-.39,0-.54-.1-.77-.44-1.13-1.65-1.93-3.02-3.87-6.16-1.57-2.55-2.24-4-3.3-6.11.15,2.37.13,3.66.13,5v6.78c0,.52-.16.59-.62.67-.46.08-1.44.13-2.37.1.05-1.03.08-2.53.08-4.69v-10.78l-.39-.57Z"/>
      <path class="cls-1" d="M225.79,125.18c0-1.73-.03-2.79-.08-3.28.52-.08,2.58-.21,3.17-.21.52,0,.59.26.59,1.44v11.55c0,1.81.05,2.66.08,3.17-.46.13-2.48.21-3.15.21-.44,0-.62-.08-.62-.52v-12.38Z"/>
      <path class="cls-1" d="M239.3,121.41c1.47,0,3.25.62,3.89,1.29,0,.72-.46,1.93-1.5,1.86-.57-.28-1.73-.62-2.5-.62-1.37,0-2.14.62-2.14,1.52,0,1.06.8,1.65,3.25,3.04,2.17,1.21,3.58,2.19,3.58,4.72,0,3.33-2.91,5.08-6.01,5.08-1.83,0-3.15-.52-3.84-1.01-.52-.33-.7-.62-.7-.98,0-.57.49-1.73.72-1.86.96.59,2.5,1.21,3.74,1.21,1.42,0,2.42-.54,2.42-1.73,0-.93-.44-1.52-3.07-2.96-2.99-1.6-3.56-3.28-3.56-4.87,0-1.83,1.29-4.69,5.67-4.69h.03Z"/>
      <path class="cls-1" d="M251.09,124.22h-4.49c-.46,0-.67-.21-.46-.88.28-.9.62-1.34.9-1.68.46.1,1.19.13,3.66.13h9.41c-.15,1.65-.93,2.29-1.52,2.42h-3.82v10.5c0,1.78.05,2.63.08,3.15-.83.13-1.91.21-3.15.21-.41,0-.62-.08-.62-.46v-13.38Z"/>
      <path class="cls-1" d="M263.21,125.41c0-1.24,0-2.11-.08-3.25.82-.18,2.14-.33,3.35-.36h6.14c-.18,1.42-.54,1.91-.85,2.27-.41.16-1.44.16-2.6.16h-2.27v4.18h5.44c-.26,1.99-.82,2.42-1.75,2.42h-3.69v4.67c.59.1,1.19.15,2.06.15.98,0,2.99,0,4.33-.1l.05.05c-.26,1.29-.77,1.91-1.47,2.35-.36.08-1.6.13-3.69.13-2.32,0-3.95-.13-4.56-.26l-.41-.52v-11.89Z"/>
      <path class="cls-1" d="M280.44,137.3c0,.52-.18.62-.62.67-.75.08-2.45.1-3.04.1.05-1.03.08-2.55.08-4.72v-8.66c0-1.26,0-1.88-.05-2.58.62-.15,3.48-.46,4.67-.46,4.44,0,6.4,1.52,6.4,4.69,0,2.4-2.01,3.56-3.04,4.05.59.52,1.37,1.88,2.19,3.35,1.21,2.17,1.91,3.22,2.6,4v.1c-.21.15-1.31.28-2.35.28-1.08,0-1.75-.21-2.45-1.08-.59-.72-1.16-1.91-2.24-4.1-.7-1.39-1.21-1.5-1.78-1.5-.16,0-.23-.03-.36,0v5.85ZM280.44,129.35c.59.08,1.96,0,2.32-.18.34-.18,1.34-.83,1.34-2.5,0-1.96-1.19-2.89-2.73-2.89-.31,0-.67,0-.93.05v5.52Z"/>
      <path class="cls-1" d="M296.09,121.7c0,1.52-.98,3.38-2.14,4.25-.62.46-1.39.54-2.3.52.85-1.32,1.34-2.97,1.34-4.51,0-.46-.08-.85-.15-1.13.64-.23,1.47-.59,2.24-.59.62,0,1.01.64,1.01,1.44v.03Z"/>
      <path class="cls-1" d="M304.68,121.41c1.47,0,3.25.62,3.89,1.29,0,.72-.46,1.93-1.5,1.86-.57-.28-1.73-.62-2.5-.62-1.37,0-2.14.62-2.14,1.52,0,1.06.8,1.65,3.25,3.04,2.17,1.21,3.58,2.19,3.58,4.72,0,3.33-2.91,5.08-6.01,5.08-1.83,0-3.15-.52-3.84-1.01-.52-.33-.7-.62-.7-.98,0-.57.49-1.73.72-1.86.96.59,2.5,1.21,3.74,1.21,1.42,0,2.42-.54,2.42-1.73,0-.93-.44-1.52-3.07-2.96-2.99-1.6-3.56-3.28-3.56-4.87,0-1.83,1.29-4.69,5.67-4.69h.03Z"/>
      <path class="cls-1" d="M327.01,121.41c5.36,0,8.28,3.79,8.28,8.3s-2.94,8.59-8.41,8.59c-5.96,0-8.33-4.28-8.33-8.33,0-4.87,3.12-8.56,8.43-8.56h.03ZM326.68,123.68c-2.22,0-4.18,1.8-4.18,5.93s2.09,6.42,4.67,6.42c2.71,0,4.23-2.27,4.23-6.03,0-3.51-1.62-6.32-4.69-6.32h-.03Z"/>
      <path class="cls-1" d="M339.29,124.92c0-1-.03-1.68-.08-2.73.49-.13,2.29-.33,3.58-.39.7-.03,5.11,0,6.45,0-.26,1.39-.7,1.93-1.06,2.27-.36.16-.9.16-2.09.16h-3.12v4.69h5.67c-.33,2.24-.95,2.42-2.01,2.42h-3.66c0,2.45.03,4.62.08,6.52-.46.13-1.93.21-3.15.21-.44,0-.62-.08-.62-.52v-12.64Z"/>
      <path class="cls-1" d="M352.55,124.92c0-1-.03-1.68-.08-2.73.49-.13,2.3-.33,3.58-.39.7-.03,5.11,0,6.45,0-.26,1.39-.7,1.93-1.06,2.27-.36.16-.9.16-2.09.16h-3.12v4.69h5.67c-.34,2.24-.96,2.42-2.01,2.42h-3.66c0,2.45.03,4.62.08,6.52-.46.13-1.93.21-3.15.21-.44,0-.62-.08-.62-.52v-12.64Z"/>
      <path class="cls-1" d="M365.8,125.18c0-1.73-.03-2.79-.08-3.28.52-.08,2.58-.21,3.17-.21.52,0,.59.26.59,1.44v11.55c0,1.81.05,2.66.08,3.17-.46.13-2.48.21-3.15.21-.44,0-.62-.08-.62-.52v-12.38Z"/>
      <path class="cls-1" d="M387.36,135.16c-.1,1-.44,1.8-.93,2.27-.64.41-2.01.88-3.69.88-5.96,0-9.18-3.33-9.18-8.28,0-5.36,4.1-8.61,9.26-8.61,2.42,0,4.36.83,4.77,1.29.08.93-.54,1.96-1.52,1.83-.72-.31-1.88-.64-3.25-.64-2.97,0-5.34,1.91-5.34,5.91,0,3.3,2.14,5.91,6.06,5.91,1.78,0,3.07-.41,3.71-.59l.1.05Z"/>
      <path class="cls-1" d="M390.95,125.41c0-1.24,0-2.11-.08-3.25.83-.18,2.14-.33,3.35-.36h6.14c-.18,1.42-.54,1.91-.85,2.27-.41.16-1.44.16-2.6.16h-2.27v4.18h5.44c-.26,1.99-.83,2.42-1.75,2.42h-3.69v4.67c.59.1,1.19.15,2.06.15.98,0,2.99,0,4.33-.1l.05.05c-.26,1.29-.77,1.91-1.47,2.35-.36.08-1.6.13-3.69.13-2.32,0-3.95-.13-4.56-.26l-.41-.52v-11.89Z"/>
    </g>
    <g>
      <path class="cls-1" d="M113.8,56.46c0,4.54,1.83,5.29,3.53,5.29,1.96,0,3.48-.93,3.48-5.47v-7.74c0-.52.21-.62.59-.67.77-.08,2.11-.1,2.63-.1-.05,1.03-.08,2.55-.08,4.69v3.69c0,7.09-3.77,8.23-7.04,8.23-4.59,0-6.81-2.42-6.81-7.76v-5.31c0-1.73-.03-2.79-.08-3.33.52-.08,2.58-.21,3.17-.21.52,0,.59.28.59,1.55v7.14Z"/>
      <path class="cls-1" d="M128.35,48.11v-.13c.59-.08,3.2-.21,3.71-.21.28,0,.49.18.75.46.8,1.24,2.71,4.25,4.2,6.81,1.08,1.83,1.93,3.17,2.55,4.54-.18-1.7-.15-2.45-.15-3.76v-7.19c0-.59.18-.7.59-.72.83-.08,1.75-.13,2.4-.13-.05,1.11-.08,2.61-.08,4.75v11.35c-.26.08-1.99.44-2.86.44-.39,0-.54-.1-.77-.44-1.13-1.65-1.93-3.02-3.87-6.16-1.57-2.55-2.24-4-3.3-6.11.15,2.37.13,3.66.13,5v6.78c0,.52-.16.59-.62.67-.46.08-1.44.13-2.37.1.05-1.03.08-2.53.08-4.69v-10.78l-.39-.57Z"/>
      <path class="cls-1" d="M147.33,51.26c0-1.73-.03-2.79-.08-3.28.52-.08,2.58-.21,3.17-.21.52,0,.59.26.59,1.44v11.55c0,1.81.05,2.66.08,3.17-.46.13-2.47.21-3.15.21-.44,0-.62-.08-.62-.52v-12.38Z"/>
      <path class="cls-1" d="M159.32,50.3h-4.49c-.46,0-.67-.21-.46-.88.28-.9.62-1.34.9-1.68.46.1,1.19.13,3.66.13h9.41c-.16,1.65-.93,2.29-1.52,2.42h-3.82v10.5c0,1.78.05,2.63.08,3.15-.83.13-1.91.21-3.15.21-.41,0-.62-.08-.62-.46v-13.38Z"/>
      <path class="cls-1" d="M171.45,51.49c0-1.24,0-2.11-.08-3.25.83-.18,2.14-.34,3.35-.36h6.14c-.18,1.42-.54,1.91-.85,2.27-.41.15-1.44.15-2.6.15h-2.27v4.18h5.44c-.26,1.99-.83,2.42-1.75,2.42h-3.69v4.67c.59.1,1.19.15,2.06.15.98,0,2.99,0,4.33-.1l.05.05c-.26,1.29-.77,1.91-1.47,2.35-.36.08-1.6.13-3.69.13-2.32,0-3.95-.13-4.56-.26l-.41-.52v-11.89Z"/>
      <path class="cls-1" d="M185.09,51.15c0-1.78-.03-2.27-.05-2.89.67-.15,3.3-.54,5.6-.54,7.63,0,9.05,4.64,9.05,7.97,0,5.54-4,8.56-9.28,8.56-1.91,0-3.58-.15-5.31-.46v-12.63ZM188.78,61.83c.62.13,1.13.15,1.75.15,1.88,0,5.23-.88,5.23-6.27,0-3.82-2.17-5.72-5.54-5.72-.75,0-1.16.05-1.45.1v11.73Z"/>
      <path class="cls-1" d="M213.41,59.84c-.46,1.24-1.19,3.15-1.5,3.92-.1.26-.31.39-.77.39-.67,0-1.99-.15-2.6-.33l-.03-.1c1.29-3.15,5.18-12.64,6.21-15.14l-.16-.46c1.13-.23,2.86-.34,3.15-.34.23,0,.46.13.62.49,1.19,2.89,3.02,7.74,3.84,9.93,1.06,2.76,1.68,4.36,2.22,5.54l-.03.1c-.57.18-2.66.31-3.3.31-.44,0-.67-.13-.93-.85-.44-1.29-.77-2.24-1.21-3.46h-5.52ZM218.23,57.44c-1.06-3.07-1.75-4.87-2.04-5.67-.52,1.52-1.21,3.53-2.01,5.67h4.05Z"/>
      <path class="cls-1" d="M231.25,63.38c0,.52-.18.62-.62.67-.75.08-2.45.1-3.04.1.05-1.03.08-2.55.08-4.72v-8.66c0-1.26,0-1.88-.05-2.58.62-.16,3.48-.46,4.67-.46,4.44,0,6.39,1.52,6.39,4.69,0,2.4-2.01,3.56-3.04,4.05.59.52,1.37,1.88,2.19,3.35,1.21,2.17,1.91,3.22,2.6,4v.1c-.21.15-1.31.28-2.35.28-1.08,0-1.75-.21-2.45-1.08-.59-.72-1.16-1.91-2.24-4.1-.7-1.39-1.21-1.5-1.78-1.5-.16,0-.23-.03-.36,0v5.85ZM231.25,55.43c.59.08,1.96,0,2.32-.18.34-.18,1.34-.82,1.34-2.5,0-1.96-1.19-2.89-2.73-2.89-.31,0-.67,0-.93.05v5.52Z"/>
      <path class="cls-1" d="M247.6,59.84c-.46,1.24-1.19,3.15-1.5,3.92-.1.26-.31.39-.77.39-.67,0-1.99-.15-2.61-.33l-.03-.1c1.29-3.15,5.18-12.64,6.21-15.14l-.15-.46c1.13-.23,2.86-.34,3.15-.34.23,0,.46.13.62.49,1.19,2.89,3.02,7.74,3.84,9.93,1.06,2.76,1.68,4.36,2.22,5.54l-.03.1c-.57.18-2.66.31-3.3.31-.44,0-.67-.13-.93-.85-.44-1.29-.77-2.24-1.21-3.46h-5.52ZM252.43,57.44c-1.06-3.07-1.75-4.87-2.04-5.67-.52,1.52-1.21,3.53-2.01,5.67h4.05Z"/>
      <path class="cls-1" d="M261.87,51.46c0-1.39,0-2.14-.08-3.22.67-.18,3.35-.52,5-.52,5.03,0,5.83,2.35,5.83,4.07,0,1.6-1.13,2.79-2.32,3.38,2.22.64,3.27,2.14,3.27,3.84,0,3.43-2.91,5.23-7.14,5.23-1.39,0-3.51-.23-4.56-.44v-12.35ZM265.45,54.79c.72-.13,1.34-.16,2.58-.16.64-.33,1.11-1.08,1.11-2.32,0-1.65-1.08-2.42-2.45-2.42-.41,0-.98.05-1.24.1v4.8ZM265.45,61.98c.31.08.83.1,1.19.1,1.78,0,2.97-1.01,2.97-2.84,0-1.52-1.13-2.45-3.07-2.45-.39,0-.7,0-1.08.05v5.13Z"/>
      <path class="cls-1" d="M284,51.49c0-1.24,0-2.11-.08-3.25.83-.18,2.14-.34,3.35-.36h6.14c-.18,1.42-.54,1.91-.85,2.27-.41.15-1.44.15-2.6.15h-2.27v4.18h5.44c-.26,1.99-.83,2.42-1.75,2.42h-3.69v4.67c.59.1,1.19.15,2.06.15.98,0,2.99,0,4.33-.1l.05.05c-.26,1.29-.77,1.91-1.47,2.35-.36.08-1.6.13-3.69.13-2.32,0-3.95-.13-4.56-.26l-.41-.52v-11.89Z"/>
      <path class="cls-1" d="M310.71,48.19c.41-.26,2.48-.41,3.17-.41.28,0,.44.16.54.85l1.24,9.44c.36,2.71.64,4.62.85,5.85-.46.13-2.4.23-2.97.23-.36,0-.72-.13-.77-.7-.13-1.26-.28-2.76-.54-5.67l-.54-5.85c-.62,2.11-1.91,6.06-3.53,10.96-.18.57-.41.77-1.06.9-.54.1-1.21.21-1.83.21-.54-1.8-2.73-8.69-3.76-12.02-.26,2.91-.85,8.56-1.24,11.73-.05.28-.18.44-.49.44-.83,0-2.24,0-2.66-.23.44-2.79,1.37-9.39,2.35-15.32l-.05-.41c.72-.16,1.75-.41,3.2-.41.41-.03.57.16.96,1.26l3.38,9.54c1.08-2.94,2.68-7.43,3.77-10.06v-.33Z"/>
      <path class="cls-1" d="M320.52,51.26c0-1.73-.03-2.79-.08-3.28.52-.08,2.58-.21,3.17-.21.52,0,.59.26.59,1.44v11.55c0,1.81.05,2.66.08,3.17-.46.13-2.47.21-3.15.21-.44,0-.62-.08-.62-.52v-12.38Z"/>
      <path class="cls-1" d="M332.82,63.38c0,.52-.18.62-.62.67-.75.08-2.45.1-3.04.1.05-1.03.08-2.55.08-4.72v-8.66c0-1.26,0-1.88-.05-2.58.62-.16,3.48-.46,4.67-.46,4.44,0,6.4,1.52,6.4,4.69,0,2.4-2.01,3.56-3.04,4.05.59.52,1.37,1.88,2.19,3.35,1.21,2.17,1.91,3.22,2.6,4v.1c-.21.15-1.32.28-2.35.28-1.08,0-1.75-.21-2.45-1.08-.59-.72-1.16-1.91-2.24-4.1-.7-1.39-1.21-1.5-1.78-1.5-.15,0-.23-.03-.36,0v5.85ZM332.82,55.43c.59.08,1.96,0,2.32-.18.33-.18,1.34-.82,1.34-2.5,0-1.96-1.19-2.89-2.73-2.89-.31,0-.67,0-.93.05v5.52Z"/>
      <path class="cls-1" d="M349.17,59.84c-.46,1.24-1.19,3.15-1.5,3.92-.1.26-.31.39-.77.39-.67,0-1.99-.15-2.6-.33l-.03-.1c1.29-3.15,5.18-12.64,6.21-15.14l-.16-.46c1.13-.23,2.86-.34,3.15-.34.23,0,.46.13.62.49,1.19,2.89,3.02,7.74,3.84,9.93,1.06,2.76,1.68,4.36,2.22,5.54l-.03.1c-.57.18-2.66.31-3.3.31-.44,0-.67-.13-.93-.85-.44-1.29-.77-2.24-1.21-3.46h-5.52ZM353.99,57.44c-1.06-3.07-1.75-4.87-2.04-5.67-.52,1.52-1.21,3.53-2.01,5.67h4.05Z"/>
      <path class="cls-1" d="M365.29,50.3h-4.49c-.46,0-.67-.21-.46-.88.28-.9.62-1.34.9-1.68.46.1,1.19.13,3.66.13h9.41c-.15,1.65-.93,2.29-1.52,2.42h-3.82v10.5c0,1.78.05,2.63.08,3.15-.83.13-1.91.21-3.15.21-.41,0-.62-.08-.62-.46v-13.38Z"/>
      <path class="cls-1" d="M377.41,51.49c0-1.24,0-2.11-.08-3.25.82-.18,2.14-.34,3.35-.36h6.14c-.18,1.42-.54,1.91-.85,2.27-.41.15-1.44.15-2.6.15h-2.27v4.18h5.44c-.26,1.99-.82,2.42-1.75,2.42h-3.69v4.67c.59.1,1.19.15,2.06.15.98,0,2.99,0,4.33-.1l.05.05c-.26,1.29-.77,1.91-1.47,2.35-.36.08-1.6.13-3.69.13-2.32,0-3.95-.13-4.56-.26l-.41-.52v-11.89Z"/>
      <path class="cls-1" d="M396.24,47.49c1.47,0,3.25.62,3.89,1.29,0,.72-.46,1.93-1.5,1.86-.57-.28-1.73-.62-2.5-.62-1.37,0-2.14.62-2.14,1.52,0,1.06.8,1.65,3.25,3.04,2.17,1.21,3.58,2.19,3.58,4.72,0,3.33-2.91,5.08-6.01,5.08-1.83,0-3.15-.52-3.84-1.01-.52-.33-.7-.62-.7-.98,0-.57.49-1.73.72-1.86.95.59,2.5,1.21,3.74,1.21,1.42,0,2.42-.54,2.42-1.73,0-.93-.44-1.52-3.07-2.97-2.99-1.6-3.56-3.27-3.56-4.87,0-1.83,1.29-4.69,5.67-4.69h.03Z"/>
    </g>
  </g>
</svg>