<?xml version="1.0" encoding="UTF-8"?>
<svg id="Layer_1" data-name="Layer 1" xmlns="http://www.w3.org/2000/svg" xmlns:xlink="http://www.w3.org/1999/xlink" viewBox="0 0 312.07 88.75">
  <defs>
    <style>
      .cls-1 {
        fill: #00a651;
      }

      .cls-2 {
        fill: #231f20;
      }

      .cls-3 {
        fill: #ed1c24;
      }

      .cls-4 {
        fill: url(#radial-gradient);
      }

      .cls-4, .cls-5 {
        stroke-width: .55px;
      }

      .cls-4, .cls-5, .cls-6 {
        stroke: #fff;
      }

      .cls-5, .cls-6 {
        fill: none;
      }

      .cls-6 {
        stroke-width: .55px;
      }
    </style>
    <radialGradient id="radial-gradient" cx="270.17" cy="154.98" fx="270.17" fy="154.98" r="9.45" gradientTransform="translate(14.81 -95.82)" gradientUnits="userSpaceOnUse">
      <stop offset="0" stop-color="#fff"/>
      <stop offset=".35" stop-color="#c3d5ea"/>
      <stop offset=".97" stop-color="#5285c4"/>
    </radialGradient>
  </defs>
  <g>
    <g>
      <g>
        <path class="cls-2" d="M16.45,49.7c-.51.67-.78.83-.78,1.32l.38,3.31c0,.81-.35,1.75-.46,2.47-.05.11-.27.24-.38.24H6.12c-.11,0-.65-.16-.89-.24-1.21-.46-1.48-1.56-1.48-2.31,0-.54.32-2.66,1.18-2.99,0,0,.05.05.11.05v.3c.03.11-.38,1.02-.38,1.16,0,.11.11.4.14.56.08.48,1.07,1.26,1.59,1.26h8.23c.08-.13.13-.27.13-.43,0-.13-.11-.7-.13-.99-.16-.97-.38-2.66-.81-4.09-.05-.19-.46-.38-.73-.59.24-.56.78-1.64,1.4-2.48-.03,1.35,2.18,1.96,2.69,2.45-.19.35-.48.67-.72.99ZM9.19,53.38c-.19.03-.59.16-.7.13h-.62c.94-.59,1.99-.83,2.58-1.4-.62-.38-1.4-.05-1.83-.54-.16-.91,1.32-2.93,2.4-3.25h.19c-.11.32-.27.78-.46,1.1-.05.11-.27.16-.37.24-.32.24-.67.56-.94.89,0,.05.08.13.14.16.43.05.99.13,1.45.3.13.05.19.27.19.4,0,.81-.91,1.91-2.02,1.96Z"/>
        <path class="cls-2" d="M21.16,61.02c-.94,0-4.22-1.35-4.52-1.72v-.24c.08-.05.08-.08.21-.08.24,0,1.8.65,2.47.65,1,0,4.6-2.61,4.6-4.09,0-.62-1.94-2.21-2.1-2.29l.75-2.18c1.56.91,2.37,2.69,2.37,4.09,0,1.45-1.32,5.87-3.79,5.87Z"/>
        <path class="cls-2" d="M27.29,57.04l-.94-9.95c0-.13.19-.35.3-.46.35-.46.86-.97,1.24-1.37.08.62.13,1.29.19,1.91.19,2.18.51,5.49.78,7.26,0,.05.13.16.24.19.27.05.51.27.78.27h.46s0,2.15,0,2.15h-3.04Z"/>
        <path class="cls-2" d="M52.76,57.04c-.43,0-.32,1-.78,1.13l-4.49-2.37c-.51.48-.54,1.24-1.05,1.24h-16.65s0-2.15,0-2.15h17.35c.24,0,.86-1.4,1.13-1.72.62-.83,2.53-1.88,3.28-1.88.97,0,.35.54.64,1.24.19.51.75,1.86,1.43,2.37h.75s0,2.15,0,2.15h-1.61ZM51.79,54.97c0-.43-.32-1.64-1.21-1.64-.4,0-1.32.21-1.53.62.54.27,1.8,1.26,2.45,1.26.13,0,.24-.05.3-.05v-.19Z"/>
        <path class="cls-2" d="M64.73,57.04c-.05-.48-.11-1.08-.24-1.56-.46-.13-1.08-.11-1.56-.11-.11,0-.86,0-1.26.03-.24,0-.54.13-.78.27-.32.16-2.31,1.37-2.83,1.37h-4.49s0-2.15,0-2.15h4.87c.54,0,1.91-.62,2.29-.83,0-.03-2.5-.99-3.15-.99-.7,0-1.13.29-1.78.64.59-1.56,1.51-2.69,2.93-2.69,1.4,0,2.61,1,4.3,1.48,1.59.48,2.5.54,3.63.67-.24.54-.43,1.16-.59,1.69.03.05.14.03,1.21.03h.65s0,2.15,0,2.15h-3.2ZM60.03,61.51c-.16,0-1.67-.83-1.67-1.02,0-.11,1.18-1.29,1.32-1.29s1.16.67,1.7.94c-.03.11-1.16,1.37-1.34,1.37Z"/>
        <path class="cls-2" d="M78.16,57.04c-.35-.21-.21-.86-.43-1.24-.27.38-.57.83-.91,1.24h-9.9s0-2.15,0-2.15h10.63s-.97-6.59-.97-6.59l1.64-2.26c.05.59.19,1.43.21,1.8.16,1.72.46,4.28.59,6.43.03.43.38.62.7.62h.35s0,2.15,0,2.15h-1.91Z"/>
        <path class="cls-2" d="M85.39,48.94c-.27.32-.7.91-1.05,1.35-.05.05-.05.11-.05.24l.46,3.71-.51,2.69c-.13,0-.24.11-.38.11h-4.6s0-2.15,0-2.15h3.98c.05-.32.08-.51.08-.65,0-.13-.13-1.21-.24-1.8-.14-.81-.38-2.42-.73-3.58-.05-.16-.48-.38-.78-.62.46-.94.81-1.64,1.51-2.58,0,.27.03.62.19.86.24.32.73.56,1.13.81.46.3.97.62,1.48.92-.11.21-.3.48-.48.7Z"/>
      </g>
      <g>
        <path class="cls-2" d="M95.49,48.27c-.14,0-1.02-.51-1.56-.83-.27.29-.78.78-.86.78-.14,0-1-.51-1.48-.83.21-.35.7-.81,1.1-1.29.43.32,1.26.86,1.4.86.08,0,.67-.62.97-.86l1.64.94c-.35.35-1.08,1.24-1.21,1.24ZM98.01,57.04c-.11,0-.19-.05-.27-.13-.16-.11-.38-.35-.43-.54-.16-.51-.21-1.1-.38-1.64-.7.32-.67,1.64-1.51,1.72l-3.25-.65v-.3c0-.11.54-1.51.81-2.31.19-.56,1.13-1.13,1.51-1.34.54-.3,1.13-.67,1.67-1.02-.05-.22-.21-.51-.21-.65s.78-1.26,1.16-1.91c.35,1.83.56,4.2,1.07,6.27.08.38,13.55.35,13.93.35h.57s0,2.15,0,2.15h-14.66ZM96.86,53.68c0-.13-.21-1.37-.38-2.02-.19.05-.37.27-.4.38-.37,1.13-1.53,1.35-2.07,1.64.54.16,1.51.4,1.64.4h1.21v-.4Z"/>
        <path class="cls-2" d="M118.21,57.04h-19.42s0-2.15,0-2.15h18.58s.03,0,.03-.13c0-.11-.22-.51-.35-.81-.24-.46-.56-1.02-1-1.56l1.1-1.86c.43.43,1.13,1.53,1.29,2.18.08.27.19.91.19,1.08,0,.13-.27,2.18-.43,3.25ZM116.86,60.76c-.24.32-.7.89-.83.89s-1.1-.59-1.64-.91c-.21.27-.54.59-.86.91-.54-.27-1.16-.62-1.7-1,.32-.46.73-.89,1.18-1.43.08-.03.19.11.3.19.37.3,1.1.7,1.24.7s.83-.91,1-.91c.13,0,1.13.67,1.67.99-.03.16-.24.43-.35.57Z"/>
        <path class="cls-2" d="M125.9,56.32c-.03.21-.16.48-.35.73h-5.27s.21-2.15.21-2.15h4.33c.05-.05.03-.05.03-.19,0-.11-.11-.43-.19-.65-.35-.94-1.4-1.61-2.29-2.07l.54-2.26c1.53.56,2.83,2.39,3.04,3.69.05.29.13.94.13,1.08,0,.13-.08,1.32-.19,1.83Z"/>
        <path class="cls-2" d="M128.97,57.04l-.94-9.95c0-.13.19-.35.3-.46.35-.46.86-.97,1.24-1.37.08.62.13,1.29.19,1.91.19,2.18.51,5.49.78,7.26,0,.05.13.16.24.19.27.05.51.27.78.27h.46s0,2.15,0,2.15h-3.04Z"/>
        <path class="cls-2" d="M156.39,57.04h-7.21c-.11-.54-.19-1.24-.32-1.59-.48-.08-1.45-.08-1.59-.08-.11,0-.83-.03-1.16.03-.29.03-.81.24-1.21.48-.32.16-1.91,1.16-2.34,1.16h-11.36s0-2.15,0-2.15h11.74c.57,0,2.1-.73,2.23-.83-.54-.19-2.39-.94-3.25-.94-.54,0-1.08.21-1.7.59v-.19c0-.27,1.16-1.75,1.21-1.8.67-.65,1.18-.7,1.67-.7.64,0,1.18.11,1.64.35,2.34,1.16,4.2,1.7,6.32,1.8-.21.51-.43,1.24-.62,1.72h5.19c-.29-1.08-.56-1.91-1.4-2.72l1.21-2.07c.08.03.27.21.32.32,1.02,1.78,1.26,1.86,1.26,3.44,0,1.43-.19,1.21-.64,3.17ZM154.56,49.46c-.13,0-1.16-.59-1.7-.91-.32.32-.83.86-.94.86-.38,0-1.7-.94-1.72-.94l1.26-1.35c.43.3,1.37.86,1.51.86.11,0,.81-.62,1.08-.91l1.8,1c-.38.48-1.16,1.4-1.29,1.4Z"/>
        <path class="cls-2" d="M162.38,61.24c-.78-.05-1.72.46-2.61,1.08v-.19c0-.13.54-.65.83-.89-.37-.16-.86-.13-1.16-.35-.03-.46.24-1.13.78-1.61.13-.13.37-.27.54-.35.16-.05.4-.13.54-.13s.22.08.32.08c.05.05.16.16.21.22,0,.05.08.05.08.19s-.22.4-.38.62c0,0-.08-.08-.08-.13-.03-.05-.13-.11-.24-.16-.11-.05-.19-.08-.32-.08s-.37.11-.59.19c-.05,0-.16.13-.27.24-.05.05-.05-.03-.05.11s.16.24.27.27c.48.13,1.34.19,1.48.19s.4,0,1.05-.05c-.11.21-.24.54-.4.78Z"/>
        <path class="cls-2" d="M168.3,49.32s-.03.03-.16.03c-.11,0-.3-.08-.46-.19-.11.59-.27,1.37-.48,1.99-.22.56-.86,1.45-.86,1.59,0,.11.16.3.19.38.51.89.57,1.48.57,2.15,0,.13-.05,1.18-.16,1.78h-5.73c-.3-.16-.4-.97-.4-1.34,0-.11.03-.56.05-.94.03-.21.13-.51.24-.78.14.08.27.35.4.54.19.24.46.27.65.27.75,0,2.15-1.37,2.58-1.75-.24-.59-1.61-2.02-2.34-2.45-.16.19-.19.43-.32.64-.81-.51-1.78-1.05-2.56-1.48-.22-.13-.38-.81-.38-1.08,0-.13.16-.89.27-1.32h1.61c.05-.11.08-.38.05-.59,1.53.91,3.74,3.23,4.6,4.84.46-.75.57-1.7.57-2.48,0-.62-.13-.97-.54-1.45l1.61-2.5c.03.21.03.54.19.78.14.22.48.43.73.62,0,0,1.26.64,1.26.86,0,.11-.78,1.29-1.18,1.88ZM165.18,53.71c-.38.43-.89.97-1.27,1.21.59.05,1.29.05,1.88,0-.16-.38-.4-.83-.62-1.21Z"/>
        <path class="cls-2" d="M172.79,57.04l-1-8.31c0-.35,1.29-2.31,1.56-2.64l.54,6.94c0,1.4-.13,2.56-1.1,4.01Z"/>
      </g>
      <g>
        <path class="cls-2" d="M183.64,48.27c-.14,0-1.02-.51-1.56-.83-.27.29-.78.78-.86.78-.14,0-1-.51-1.48-.83.21-.35.7-.81,1.1-1.29.43.32,1.26.86,1.4.86.08,0,.67-.62.97-.86l1.64.94c-.35.35-1.08,1.24-1.21,1.24ZM186.17,57.04c-.11,0-.19-.05-.27-.13-.16-.11-.38-.35-.43-.54-.16-.51-.21-1.1-.38-1.64-.7.32-.67,1.64-1.51,1.72l-3.25-.65v-.3c0-.11.54-1.51.81-2.31.19-.56,1.13-1.13,1.51-1.34.54-.3,1.13-.67,1.67-1.02-.05-.22-.21-.51-.21-.65s.78-1.26,1.16-1.91c.35,1.83.56,4.2,1.07,6.27.08.38.43.35.81.35h.57s0,2.15,0,2.15h-1.53ZM185.01,53.68c0-.13-.21-1.37-.38-2.02-.19.05-.37.27-.4.38-.37,1.13-1.53,1.35-2.07,1.64.54.16,1.51.4,1.64.4h1.21v-.4Z"/>
        <path class="cls-2" d="M204.74,57.04c-.67,0-1.16-.81-1.32-1.37l-.81,1.37h-15.66s0-2.15,0-2.15h16.15c.13-.83.03-1.61.24-2.1.16-.35,1-1.21,1.45-1.78,0,.24.08.62.05.94-.03.56-.13,1.61-.13,1.75,0,.48.46.81.94,1.18.35-.05.7,0,.97,0v2.15s-1.88,0-1.88,0ZM204.79,49.83c-1.05.05-2.29.67-3.2,1.4h-.21c.16-.54.75-1.08,1.26-1.34-.67-.38-1.32-.13-1.32-.89,0-1.13,1.27-2.37,2.29-2.37.38,0,.7.19.7.59,0,.13-.21.56-.38.83-.11-.24-.67-.51-.86-.51-.22,0-.97.32-1.08.62.24.67,1.75.75,2.5.75.13,0,.27.03.83-.03.03.22-.4.75-.54.94Z"/>
        <path class="cls-2" d="M211.03,57.04c-.54,0-1.27-1.02-1.29-1.32l-.75,1.32h-3.61s0-2.15,0-2.15h4.09c.24-.38.16-.78.22-1.18.05-.19-.11-.64.05-.94.3-.56.83-1,1.34-1.48.19.83-.16,1.8-.16,2.47,0,.7.62,1,1.32,1.13h.54s0,2.15,0,2.15h-1.75ZM210.38,61.4l-1.5-.89c-.3.21-.86.83-.91.83-.16,0-1.43-.81-1.59-.97.27-.4.78-.97,1.16-1.4.4.4.97.7,1.43.94.35-.35.73-.73,1-.94l1.64.94c-.29.4-.81,1.21-1.21,1.48Z"/>
        <path class="cls-2" d="M221.2,57.04c-.48.24-.67.78-.86,1.13-.73,1.32-.91,1.91-1.91,2.37-.19.08-.75.19-.89.19-1.91,0-2.93-1.59-3.12-3.69-.06,0-.16,0-2.48,0v-2.15s3.18,0,3.18,0c.05-.32.08-.43.13-.54.19-.38.59-1.1,1-1.64.43-.62,3.17-3.01,3.98-3.01.14,0,.19.05.24.11.13,1.7-.7,3.5-1.51,5.09.05,0,6.99,0,9.14,0v2.15c-.13,0-6.8,0-6.91,0ZM219.13,58.25c0-.62-1.72-1.45-1.77-1.45-.38-.13-1.1-.32-1.21-.32h-.7v.32c0,.43,1.26,1.48,1.56,1.59.32.13.97.3,1.08.3h1.05v-.43ZM219.05,51.61c-.89.54-2.56,1.86-2.91,2.72h.24c.14,0,1.16-.32,1.64-.51.32-.13.75-.35.91-.56.24-.35.3-1.05.3-1.18,0-.11-.05-.27-.19-.46Z"/>
        <path class="cls-2" d="M233.54,48.94c-.27.32-.7.91-1.05,1.35-.05.05-.05.11-.05.24l.46,3.71-.51,2.69c-.13,0-.24.11-.38.11h-11.16s0-2.15,0-2.15h10.54c.05-.32.08-.51.08-.65s-.13-1.21-.24-1.8c-.14-.81-.38-2.42-.73-3.58-.05-.16-.48-.38-.78-.62.46-.94.81-1.64,1.51-2.58,0,.27.03.62.19.86.24.32.73.56,1.13.81.46.3.97.62,1.48.92-.11.21-.3.48-.48.7Z"/>
        <path class="cls-2" d="M237.84,57.04l-1-8.31c0-.35,1.29-2.31,1.56-2.64l.54,6.94c0,1.4-.13,2.56-1.1,4.01Z"/>
      </g>
    </g>
    <g>
      <path class="cls-1" d="M301.7,21.46s-35.69-.2-47.4,29.06c0,0-10.53,28.87,21.85,34.52,0,0-25.16-11.31-14.63-37.45,0,0,8.19-21.46,40.18-26.14Z"/>
      <path class="cls-2" d="M279.46,32.38s-18.73,9.17-17.36,30.43c0,0,2.93,18.34,20.48,20.87,0,0,13.17,2.83,19.9-12.87,0,0-11.7,11.9-24.19,4.49,0,0-12.48-5.27-10.34-23.99,0,0,3.12-12.68,11.51-18.92Z"/>
      <g>
        <path class="cls-3" d="M311.64,14.24c-1.95-4.29-9.75-3.9-9.75-3.9-3.61-7.22-13.95-9.46-13.95-9.46-24.28-4.58-35.4,10.24-35.4,10.24,11.12-5.85,22.63-5.46,22.63-5.46,6.96-.29,12.18.98,16,2.69,0,0,0,0,.01,0-.64.21-1.41.54-1.97,1.01,0,0,1.48.54,3.24-.44,0,0,.18-.11.3-.21.13-.06.26-.18.36-.23.36-.2.88-.39.88-.39.02-.01.05-.02.07-.03,1.39-.49,2.36.12,2.36.12,2.05,1.33,1.02,3.24.52,3.8,2.17,1.83,2.99,3.22,2.99,3.22,3.12-.98,6.24-.68,6.24-.68,6.24.59,4.68,6.92,4.68,6.92,2.15-4.29.78-7.22.78-7.22Z"/>
        <path class="cls-3" d="M295.75,8.58s-1.04-.26-1.79-.07c-.65.17-.16.07-.69.26-.16.06-.27.14-.36.23-.29.13-.31.33-.33.33-.2.29-.32.81.03,1.51,0,0,1.24,1.81,3.65,1.09,0,0,.23-.09.36-.23,0,0,.1-.09.1-.1.47-.55.81-1.92-.98-3.02ZM293.54,10.51c-.18-.33-.19-.6-.11-.82.27-.37.74-.54.74-.54.55-.27,1.36.05,1.36.05,1.06.84.55,1.67.27,2-1.59.38-2.26-.69-2.26-.69Z"/>
      </g>
      <path class="cls-5" d="M294.48,59.15c0,5.2-4.25,9.41-9.49,9.41s-9.49-4.21-9.49-9.41c0-5.2,4.25-9.41,9.49-9.41s9.49,4.21,9.49,9.41Z"/>
      <path class="cls-4" d="M294.48,59.15c0,5.2-4.25,9.41-9.49,9.41s-9.49-4.21-9.49-9.41c0-5.2,4.25-9.41,9.49-9.41s9.49,4.21,9.49,9.41Z"/>
      <path class="cls-5" d="M285.17,68.37c-3.45-1.5-5.88-5.09-5.88-9.27,0-4.28,2.54-7.93,6.1-9.37"/>
      <path class="cls-5" d="M285.19,49.7c3.6,1.42,6.17,5.09,6.17,9.39s-2.58,7.99-6.2,9.41"/>
      <path class="cls-5" d="M294.53,59c-2.34,1.9-5.75,3.1-9.55,3.1-3.84,0-7.29-1.23-9.63-3.17"/>
      <path class="cls-5" d="M292.93,53.85c-2.18,1.25-4.94,2-7.94,2-3.08,0-5.91-.79-8.12-2.1"/>
      <path class="cls-5" d="M289.97,51.03c-1.53.47-3.22.73-4.99.73-1.77,0-3.45-.26-4.99-.73"/>
      <path class="cls-6" d="M291.16,66.14c-1.9.47-3.98.73-6.18.73-2.19,0-4.28-.26-6.18-.73"/>
      <line class="cls-5" x1="285.41" y1="49.84" x2="285.31" y2="68.17"/>
    </g>
  </g>
  <g>
    <path class="cls-2" d="M11.31,70.87h-6.01v2.76h5.26v2.08h-5.26v5.02h-2.49v-11.97h8.5v2.11Z"/>
    <path class="cls-2" d="M21.94,78.14c-.06.53-.33,1.06-.82,1.6-.76.86-1.82,1.29-3.19,1.29-1.13,0-2.12-.36-2.98-1.09-.86-.73-1.29-1.91-1.29-3.54,0-1.53.39-2.71,1.17-3.53s1.79-1.23,3.03-1.23c.74,0,1.4.14,1.99.41s1.08.71,1.46,1.31c.35.53.57,1.13.67,1.83.06.41.08.99.07,1.76h-6.07c.03.89.31,1.51.84,1.87.32.22.71.33,1.16.33.48,0,.86-.13,1.16-.41.16-.15.31-.35.43-.61h2.37ZM19.64,75.42c-.04-.61-.22-1.08-.56-1.39s-.75-.48-1.24-.48c-.54,0-.95.17-1.25.5-.29.34-.48.79-.56,1.37h3.6Z"/>
    <path class="cls-2" d="M33.22,68.77v11.97h-2.25v-1.23c-.33.53-.71.91-1.13,1.15s-.95.36-1.58.36c-1.04,0-1.91-.42-2.61-1.26-.71-.84-1.06-1.91-1.06-3.22,0-1.51.35-2.7,1.04-3.57.7-.87,1.63-1.3,2.79-1.3.54,0,1.01.12,1.43.35.42.24.76.56,1.02.98v-4.23h2.35ZM26.98,76.36c0,.82.16,1.47.49,1.96.32.49.81.74,1.46.74s1.16-.24,1.5-.73c.34-.49.51-1.12.51-1.89,0-1.08-.27-1.86-.82-2.33-.34-.28-.73-.42-1.17-.42-.68,0-1.17.26-1.49.77-.32.51-.48,1.15-.48,1.91Z"/>
    <path class="cls-2" d="M44.46,78.14c-.06.53-.33,1.06-.82,1.6-.76.86-1.82,1.29-3.19,1.29-1.13,0-2.12-.36-2.98-1.09-.86-.73-1.29-1.91-1.29-3.54,0-1.53.39-2.71,1.17-3.53s1.79-1.23,3.03-1.23c.74,0,1.4.14,1.99.41s1.08.71,1.46,1.31c.35.53.57,1.13.67,1.83.06.41.08.99.07,1.76h-6.07c.03.89.31,1.51.84,1.87.32.22.71.33,1.16.33.48,0,.86-.13,1.16-.41.16-.15.31-.35.43-.61h2.37ZM42.17,75.42c-.04-.61-.22-1.08-.56-1.39s-.75-.48-1.24-.48c-.54,0-.95.17-1.25.5-.29.34-.48.79-.56,1.37h3.6Z"/>
    <path class="cls-2" d="M52.14,74.01c-.93,0-1.56.3-1.88.91-.18.34-.27.87-.27,1.58v4.24h-2.33v-8.86h2.21v1.54c.36-.59.67-1,.93-1.21.43-.36,1-.54,1.69-.54.04,0,.08,0,.11,0,.03,0,.1,0,.2.01v2.37c-.15-.02-.28-.03-.39-.03-.11,0-.21,0-.28,0Z"/>
    <path class="cls-2" d="M56.05,72.83c.61-.78,1.66-1.17,3.15-1.17.97,0,1.83.19,2.59.58.75.38,1.13,1.11,1.13,2.18v4.07c0,.28,0,.62.02,1.02.02.3.06.51.14.62s.19.2.34.27v.34h-2.52c-.07-.18-.12-.35-.15-.5s-.05-.34-.07-.54c-.32.35-.69.64-1.11.89-.5.29-1.06.43-1.69.43-.8,0-1.46-.23-1.99-.69-.52-.46-.79-1.11-.79-1.95,0-1.09.42-1.88,1.26-2.37.46-.27,1.14-.46,2.03-.57l.79-.1c.43-.05.73-.12.92-.2.33-.14.5-.36.5-.66,0-.36-.13-.61-.38-.75-.25-.14-.62-.21-1.11-.21-.55,0-.94.14-1.16.41-.16.2-.27.47-.33.81h-2.24c.05-.78.26-1.41.65-1.91ZM57.77,79.06c.22.18.48.27.8.27.5,0,.96-.15,1.38-.44s.64-.83.65-1.6v-.86c-.15.09-.29.17-.44.22-.15.06-.35.11-.61.16l-.52.1c-.49.09-.84.19-1.05.32-.36.21-.54.54-.54.98,0,.4.11.68.33.85Z"/>
    <path class="cls-2" d="M66.58,68.75h2.32v11.98h-2.32v-11.98Z"/>
    <path class="cls-2" d="M87.52,79.84c-.89.82-2.04,1.23-3.43,1.23-1.72,0-3.08-.55-4.07-1.66-.99-1.11-1.48-2.63-1.48-4.57,0-2.09.56-3.71,1.68-4.84.98-.99,2.22-1.48,3.72-1.48,2.02,0,3.49.66,4.42,1.98.51.74.79,1.49.83,2.24h-2.5c-.16-.57-.37-1.01-.63-1.3-.46-.52-1.13-.78-2.03-.78s-1.63.37-2.15,1.1-.79,1.77-.79,3.12.28,2.35.83,3.02c.56.67,1.26,1,2.12,1s1.55-.29,2.01-.86c.25-.31.47-.77.63-1.39h2.48c-.22,1.31-.77,2.37-1.66,3.19Z"/>
    <path class="cls-2" d="M98.13,79.49s-.08.11-.16.24c-.09.13-.19.25-.31.36-.36.33-.71.55-1.05.67s-.74.18-1.19.18c-1.31,0-2.2-.47-2.65-1.42-.25-.52-.38-1.29-.38-2.3v-5.34h2.37v5.34c0,.5.06.88.18,1.14.21.45.63.67,1.24.67.79,0,1.33-.32,1.63-.96.15-.35.23-.8.23-1.37v-4.82h2.35v8.86h-2.25v-1.25Z"/>
    <path class="cls-2" d="M110.28,72.28c.69.44,1.09,1.21,1.2,2.29h-2.32c-.03-.3-.12-.53-.25-.71-.25-.31-.69-.47-1.3-.47-.5,0-.86.08-1.08.24-.21.16-.32.34-.32.55,0,.27.11.46.34.58.23.12,1.03.34,2.42.64.92.22,1.61.54,2.07.98.46.44.68,1,.68,1.67,0,.88-.33,1.59-.98,2.15s-1.66.83-3.03.83-2.42-.29-3.09-.88-1-1.34-1-2.25h2.35c.05.41.15.7.32.88.29.31.82.46,1.59.46.46,0,.82-.07,1.09-.2.27-.13.4-.34.4-.61s-.11-.46-.33-.59-1.02-.37-2.42-.7c-1-.25-1.71-.56-2.12-.93-.41-.37-.62-.9-.62-1.59,0-.82.32-1.52.96-2.11.64-.59,1.55-.88,2.71-.88s2.01.22,2.71.66Z"/>
    <path class="cls-2" d="M119.04,79.09v1.73l-1.1.04c-1.09.04-1.84-.15-2.24-.57-.26-.27-.39-.67-.39-1.23v-5.46h-1.24v-1.65h1.24v-2.47h2.29v2.47h1.44v1.65h-1.44v4.68c0,.36.05.59.14.68.09.09.37.13.85.13.07,0,.14,0,.22,0,.08,0,.16,0,.23-.01Z"/>
    <path class="cls-2" d="M129.46,73c.75.94,1.12,2.05,1.12,3.33s-.37,2.41-1.12,3.34-1.88,1.39-3.41,1.39-2.66-.46-3.41-1.39-1.12-2.04-1.12-3.34.37-2.39,1.12-3.33,1.88-1.41,3.41-1.41,2.66.47,3.41,1.41ZM126.05,73.55c-.68,0-1.2.24-1.57.72s-.55,1.16-.55,2.05.18,1.58.55,2.06.89.72,1.57.72,1.2-.24,1.56-.72.54-1.17.54-2.06-.18-1.57-.54-2.05-.88-.72-1.56-.72Z"/>
    <path class="cls-2" d="M138.77,74.31c-.2-.43-.58-.64-1.15-.64-.66,0-1.11.21-1.33.64-.12.24-.19.61-.19,1.09v5.33h-2.35v-8.85h2.25v1.29c.29-.46.56-.79.81-.98.45-.35,1.03-.52,1.75-.52.68,0,1.23.15,1.64.45.34.28.59.63.76,1.07.3-.52.68-.9,1.13-1.15.48-.24,1.01-.37,1.59-.37.39,0,.78.08,1.15.23.38.15.72.42,1.03.8.25.31.42.69.5,1.14.05.3.08.73.08,1.31l-.02,5.59h-2.37v-5.64c0-.34-.05-.61-.16-.83-.21-.41-.59-.62-1.14-.62-.64,0-1.08.27-1.33.8-.12.28-.19.62-.19,1.02v5.28h-2.33v-5.28c0-.53-.05-.91-.16-1.15Z"/>
    <path class="cls-2" d="M156.25,72.28c.69.44,1.09,1.21,1.2,2.29h-2.32c-.03-.3-.12-.53-.25-.71-.25-.31-.69-.47-1.3-.47-.5,0-.86.08-1.08.24-.21.16-.32.34-.32.55,0,.27.11.46.34.58.23.12,1.03.34,2.42.64.92.22,1.61.54,2.07.98.46.44.68,1,.68,1.67,0,.88-.33,1.59-.98,2.15s-1.66.83-3.03.83-2.42-.29-3.09-.88-1-1.34-1-2.25h2.35c.05.41.15.7.32.88.29.31.82.46,1.59.46.46,0,.82-.07,1.09-.2.27-.13.4-.34.4-.61s-.11-.46-.33-.59-1.02-.37-2.42-.7c-1-.25-1.71-.56-2.12-.93-.41-.37-.62-.9-.62-1.59,0-.82.32-1.52.96-2.11.64-.59,1.55-.88,2.71-.88s2.01.22,2.71.66Z"/>
    <path class="cls-2" d="M173.72,78.27h-4.42l-.83,2.46h-2.62l4.28-11.98h2.83l4.24,11.98h-2.72l-.77-2.46ZM173.03,76.21l-1.5-4.72-1.54,4.72h3.04Z"/>
    <path class="cls-2" d="M184.15,79.09v1.73l-1.1.04c-1.09.04-1.84-.15-2.24-.57-.26-.27-.39-.67-.39-1.23v-5.46h-1.24v-1.65h1.24v-2.47h2.29v2.47h1.44v1.65h-1.44v4.68c0,.36.05.59.14.68.09.09.37.13.85.13.07,0,.14,0,.22,0,.08,0,.16,0,.23-.01Z"/>
    <path class="cls-2" d="M195.2,75.53v5.2h-2.37v-5.39c0-.48-.08-.86-.24-1.15-.21-.41-.61-.62-1.2-.62s-1.08.21-1.39.61c-.32.41-.48.99-.48,1.75v4.8h-2.31v-11.94h2.31v4.24c.34-.51.73-.87,1.17-1.08s.91-.3,1.39-.3c.55,0,1.04.09,1.49.28.45.19.81.48,1.1.87.24.33.39.67.45,1.02.05.35.08.92.08,1.71Z"/>
    <path class="cls-2" d="M206.3,73c.75.94,1.12,2.05,1.12,3.33s-.37,2.41-1.12,3.34-1.88,1.39-3.41,1.39-2.66-.46-3.41-1.39-1.12-2.04-1.12-3.34.37-2.39,1.12-3.33,1.88-1.41,3.41-1.41,2.66.47,3.41,1.41ZM202.88,73.55c-.68,0-1.2.24-1.57.72s-.55,1.16-.55,2.05.18,1.58.55,2.06.89.72,1.57.72,1.2-.24,1.56-.72.54-1.17.54-2.06-.18-1.57-.54-2.05-.88-.72-1.56-.72Z"/>
    <path class="cls-2" d="M215.08,74.01c-.93,0-1.56.3-1.88.91-.18.34-.27.87-.27,1.58v4.24h-2.33v-8.86h2.21v1.54c.36-.59.67-1,.93-1.21.43-.36,1-.54,1.69-.54.04,0,.08,0,.11,0,.03,0,.1,0,.2.01v2.37c-.15-.02-.28-.03-.39-.03-.11,0-.21,0-.28,0Z"/>
    <path class="cls-2" d="M221.04,68.68v2.14h-2.35v-2.14h2.35ZM221.04,71.87v8.86h-2.35v-8.86h2.35Z"/>
    <path class="cls-2" d="M228.89,79.09v1.73l-1.1.04c-1.09.04-1.84-.15-2.24-.57-.26-.27-.39-.67-.39-1.23v-5.46h-1.24v-1.65h1.24v-2.47h2.29v2.47h1.44v1.65h-1.44v4.68c0,.36.05.59.14.68.09.09.37.13.85.13.07,0,.14,0,.22,0,.08,0,.16,0,.23-.01Z"/>
    <path class="cls-2" d="M235.53,78.41l1.83-6.54h2.46l-3.04,8.72c-.59,1.68-1.05,2.72-1.39,3.13-.34.4-1.02.61-2.05.61-.21,0-.37,0-.5,0-.12,0-.31-.01-.56-.03v-1.85l.29.02c.23.01.44,0,.65-.02.21-.03.38-.09.52-.19.14-.09.26-.28.38-.58.12-.29.16-.47.14-.54l-3.25-9.25h2.58l1.94,6.54Z"/>
  </g>
</svg>