<?xml version="1.0" encoding="UTF-8"?>
<svg id="Layer_1" data-name="Layer 1" xmlns="http://www.w3.org/2000/svg" viewBox="0 0 738.18 128.36">
  <defs>
    <style>
      .cls-1 {
        fill: #28398e;
      }
    </style>
  </defs>
  <path class="cls-1" d="M510.97,28.03v25.57c0,2.46-.98,3.44-3.44,3.44h-7.87c.98-1.97,1.48-4.43,1.48-6.89v-6.39h-6.89v6.89c0,3.44-2.46,6.39-5.41,6.39h-11.8c.98-1.97,1.97-4.43,1.97-7.38,0-9.34-6.89-14.26-13.28-14.26s-13.28,4.92-13.28,14.26c0,2.95.49,5.41,1.97,7.38h-13.77c.98-1.97,1.48-4.43,1.48-6.89v-6.39h-6.89v6.89c0,3.93-2.46,6.39-5.9,6.39h-8.36c.98-1.97,1.48-4.43,1.48-6.89v-6.39h-6.89v6.89c0,3.93-2.46,6.39-5.9,6.39h-43.77v-7.38c0-8.85-6.39-14.26-13.28-14.26-6.39,0-13.28,4.92-13.28,14.26,0,8.85,6.39,14.26,13.28,14.26h154.42c6.39,0,10.33-3.93,10.33-10.33v-28.52l-6.39,2.95ZM465.24,41.8c2.95,0,6.39,2.95,6.39,7.87s-3.44,7.87-6.39,7.87-6.39-2.95-6.39-7.87c0-4.92,2.95-7.87,6.39-7.87M359.01,57.54h-6.39c-2.95,0-6.39-2.95-6.39-7.87s3.44-7.38,6.39-7.87c2.95,0,6.39,2.95,6.39,7.87v7.87Z"/>
  <polygon class="cls-1" points="524.74 63.93 531.63 63.93 531.63 25.08 524.74 28.03 524.74 63.93"/>
  <path class="cls-1" d="M724.9,41.31h-14.26v-3.93c0-3.44,1.97-5.9,5.41-5.9h5.9l2.95-6.89h-8.85c-7.38,0-11.8,5.41-11.8,12.79v9.84h21.64c3.44,0,5.9,2.46,5.9,5.9v3.44h-38.36c.49-.98.49-2.46.49-3.44v-28.03l-6.89,2.95v25.57c0,2.46-.98,3.44-3.44,3.44h-7.87c.98-1.97,1.48-4.43,1.48-6.89v-6.39h-6.89v6.89c0,3.44-2.46,6.39-5.41,6.39h-58.03v-31.97h-6.89v38.85h138.19v-10.82c-.49-6.89-5.9-11.8-13.28-11.8"/>
  <path class="cls-1" d="M587.2,53.61c0,2.46-.98,3.44-3.44,3.44h-28.52l-3.93,6.89h32.46c6.39,0,10.33-3.93,10.33-10.33v-9.34h-6.89v9.34Z"/>
  <path class="cls-1" d="M567.04,42.79c1.97,0,2.95-1.48,2.95-2.95s-1.48-2.95-2.95-2.95c-1.97,0-2.95,1.48-2.95,2.95s1.48,2.95,2.95,2.95"/>
  <path class="cls-1" d="M574.9,42.79c1.97,0,2.95-1.48,2.95-2.95s-1.48-2.95-2.95-2.95c-1.97,0-2.95,1.48-2.95,2.95s1.48,2.95,2.95,2.95"/>
  <path class="cls-1" d="M486.38,39.34c1.97,0,2.95-1.48,2.95-2.95,0-1.97-1.48-2.95-2.95-2.95-1.97,0-2.95,1.48-2.95,2.95s.98,2.95,2.95,2.95"/>
  <path class="cls-1" d="M494.25,39.34c1.97,0,2.95-1.48,2.95-2.95,0-1.97-1.48-2.95-2.95-2.95-1.97,0-2.95,1.48-2.95,2.95s1.48,2.95,2.95,2.95"/>
  <path class="cls-1" d="M300.98,28.03v25.57c0,2.46-.98,3.44-3.44,3.44h-9.34c1.48-2.46,2.46-5.9,2.46-9.34,0-8.85-5.41-12.29-11.8-12.29h-19.18l4.43,6.39v7.87c0,2.95.49,5.41,1.97,7.38h-16.23c.49-.98.49-2.46.49-3.44v-28.52l-6.89,2.95v25.57c0,2.46-.98,3.44-3.44,3.44h-7.38c.98-1.97,1.48-4.43,1.48-6.89v-6.39h-6.89v6.89c0,3.44-2.46,6.39-5.41,6.39h-60.49v-31.97h-6.89v38.85h142.13c6.39,0,10.33-3.93,10.33-10.33v-28.52l-5.9,2.95ZM271.47,49.67v-7.38h7.87c2.95,0,4.92.98,4.92,5.9s-2.46,9.34-6.39,9.34c-3.44-.49-6.39-2.95-6.39-7.87"/>
  <polygon class="cls-1" points="314.75 63.93 321.63 63.93 321.63 25.08 314.75 28.03 314.75 63.93"/>
  <path class="cls-1" d="M220.32,68.85c-1.97,0-2.95,1.48-2.95,2.95,0,1.97,1.48,2.95,2.95,2.95,1.97,0,2.95-1.48,2.95-2.95,0-1.48-1.48-2.95-2.95-2.95"/>
  <path class="cls-1" d="M228.19,68.85c-1.97,0-2.95,1.48-2.95,2.95,0,1.97,1.48,2.95,2.95,2.95,1.97,0,2.95-1.48,2.95-2.95s-.98-2.95-2.95-2.95"/>
  <path class="cls-1" d="M348.19,31.47c1.97,0,2.95-1.48,2.95-2.95,0-1.97-1.48-2.95-2.95-2.95-1.97,0-2.95,1.48-2.95,2.95-.49,1.48.98,2.95,2.95,2.95"/>
  <path class="cls-1" d="M356.06,31.47c1.97,0,2.95-1.48,2.95-2.95,0-1.97-1.48-2.95-2.95-2.95-1.97,0-2.95,1.48-2.95,2.95-.49,1.48.98,2.95,2.95,2.95"/>
  <path class="cls-1" d="M461.79,31.47c1.97,0,2.95-1.48,2.95-2.95,0-1.97-1.48-2.95-2.95-2.95-1.97,0-2.95,1.48-2.95,2.95-.49,1.48.98,2.95,2.95,2.95"/>
  <path class="cls-1" d="M469.66,31.47c1.97,0,2.95-1.48,2.95-2.95,0-1.97-1.48-2.95-2.95-2.95-1.97,0-2.95,1.48-2.95,2.95-.49,1.48.98,2.95,2.95,2.95"/>
  <path class="cls-1" d="M435.24,39.34c1.97,0,2.95-1.48,2.95-2.95,0-1.97-1.48-2.95-2.95-2.95-1.97,0-2.95,1.48-2.95,2.95-.49,1.48.98,2.95,2.95,2.95"/>
  <rect class="cls-1" x="0" y="98.36" width="89.01" height="19.67"/>
  <path class="cls-1" d="M19.67,77.21c0-36.88,22.13-51.64,50.16-61.47,3.44-.98,6.89-2.46,10.33-3.44-.49,0-.98-.49-1.48-.49-5.41-3.93-10.82-6.89-22.62-11.8C29.02,10.82,0,30.98,0,77.21v18.2h19.67v-18.2Z"/>
  <path class="cls-1" d="M83.6,14.75c-5.41,1.48-15.74,4.92-23.61,7.87,2.95,1.48,5.41,2.95,7.87,4.92,16.72,11.31,25.08,27.54,25.08,49.67v40.82h19.67v-40.82c-.49-26.56-9.84-47.21-29.02-62.46"/>
  <g>
    <g>
      <polygon class="cls-1" points="173.11 100.82 160.32 100.82 160.32 89.01 154.91 89.01 154.91 118.03 160.32 118.03 160.32 105.74 173.11 105.74 173.11 118.03 178.52 118.03 178.52 89.01 173.11 89.01 173.11 100.82"/>
      <rect class="cls-1" x="183.93" y="97.87" width="4.92" height="20.16"/>
      <path class="cls-1" d="M186.39,90c-1.48,0-2.95,1.48-2.95,2.95s1.48,2.95,2.95,2.95,2.95-1.48,2.95-2.95c0-1.97-1.48-2.95-2.95-2.95"/>
      <path class="cls-1" d="M229.67,96.88c-1.97,0-3.93.98-5.41,1.97v-9.84h-4.92v19.67h0v9.34h4.92v-11.31c0-1.97,1.97-4.92,4.43-4.92s3.93,1.97,3.93,4.92v11.31h4.92v-10.82c.49-5.9-1.97-10.33-7.87-10.33"/>
      <path class="cls-1" d="M252.29,96.88c-4.92,0-10.33,3.93-10.33,10.82s4.92,10.82,10.82,10.82c2.46,0,5.41-.98,7.87-2.95l-2.46-2.95c-1.48.98-2.95,1.97-4.92,1.97-2.95,0-5.41-1.97-5.9-4.92h15.25v-1.97c0-6.89-4.92-10.82-10.33-10.82M247.37,105.74c0-2.95,2.46-4.43,4.92-4.43s4.92,1.97,4.92,4.43h-9.84Z"/>
      <path class="cls-1" d="M267.04,105.24v12.79h4.92v-11.8c0-2.46,1.48-3.44,3.44-3.44h1.97v-4.92h-2.95c-3.93,0-7.38,1.97-7.38,7.38"/>
      <path class="cls-1" d="M208.52,97.87h-4.92c-4.92,0-9.84,3.93-9.84,10.82s4.92,10.82,9.84,10.82c1.48,0,3.44-.49,4.43-.98,0,3.44-3.44,5.41-6.89,5.41-1.97,0-3.93-.49-5.41-.98l-.98,4.43c1.97.49,4.43.98,6.39.98,6.89,0,12.29-4.43,12.29-12.79v-17.21h-4.92v-.49ZM203.6,114.1c-2.46,0-4.92-1.97-4.92-5.9,0-3.44,2.46-5.9,4.92-5.9h4.92v6.89c0,3.44-1.97,4.92-4.92,4.92"/>
    </g>
    <g>
      <path class="cls-1" d="M307.37,92.95c2.46,0,5.41.49,7.87,1.97l1.48-4.92c-3.44-1.48-6.39-2.46-9.84-2.46-7.87,0-14.75,5.9-14.75,15.25,0,9.84,6.89,15.25,14.75,15.25,3.44,0,6.39-.49,9.84-2.46l-1.48-4.92c-2.46,1.48-5.41,1.97-7.87,1.97-5.41,0-10.33-3.93-10.33-10.33,0-5.41,4.92-9.34,10.33-9.34"/>
      <path class="cls-1" d="M329.01,96.88c-4.92,0-10.33,3.93-10.33,10.82s4.92,10.82,10.33,10.82c4.92,0,10.33-3.93,10.33-10.82s-5.41-10.82-10.33-10.82M329.01,113.6c-2.46,0-4.92-1.97-4.92-5.9s2.46-5.9,4.92-5.9,4.92,1.97,4.92,5.9c.49,3.93-2.46,5.9-4.92,5.9"/>
      <path class="cls-1" d="M348.68,110.16v-19.67l-4.92-1.48v21.15c0,4.92,2.95,7.87,7.87,7.87h.98v-4.92h-.98c-1.97,0-2.95-.98-2.95-2.95"/>
      <path class="cls-1" d="M360.48,110.16v-19.67l-4.92-1.48v21.15c0,4.92,2.95,7.87,7.87,7.87h.49v-4.92h-.98c-1.97,0-2.46-.98-2.46-2.95"/>
      <path class="cls-1" d="M376.71,96.88c-4.92,0-10.33,3.93-10.33,10.82s4.92,10.82,10.82,10.82c2.46,0,5.41-.98,7.87-2.95l-2.46-2.95c-1.48.98-2.95,1.97-4.92,1.97-2.95,0-5.41-1.97-5.9-4.92h15.25v-1.97c0-6.89-4.92-10.82-10.33-10.82M371.79,105.74c0-2.95,2.46-4.43,4.92-4.43s4.92,1.97,4.92,4.43h-9.84Z"/>
      <path class="cls-1" d="M405.24,97.87h-4.92c-4.92,0-9.84,3.93-9.84,10.82s4.92,10.82,9.84,10.82c1.48,0,3.44-.49,4.43-.98,0,3.44-3.44,5.41-6.89,5.41-1.97,0-3.93-.49-5.41-.98l-.98,4.43c1.97.49,4.43.98,6.39.98,6.89,0,12.29-4.43,12.29-12.79v-17.21h-4.92v-.49ZM400.32,114.1c-2.46,0-4.92-1.97-4.92-5.9,0-3.44,2.46-5.9,4.92-5.9h4.92v6.89c0,3.44-1.48,4.92-4.92,4.92"/>
      <path class="cls-1" d="M424.91,96.88c-4.92,0-10.33,3.93-10.33,10.82s4.92,10.82,10.82,10.82c2.46,0,5.41-.98,7.87-2.95l-2.46-2.95c-1.48.98-2.95,1.97-4.92,1.97-2.95,0-5.41-1.97-5.9-4.92h15.25v-1.97c0-6.89-4.92-10.82-10.33-10.82M419.99,105.74c0-2.95,2.46-4.43,4.92-4.43s4.92,1.97,4.92,4.43h-9.84Z"/>
      <path class="cls-1" d="M444.09,102.78c0-.98,1.48-1.97,3.93-1.97,1.97,0,4.43.49,6.39.98l1.48-3.93c-1.97-.98-4.92-1.48-7.38-1.48-5.41,0-8.85,2.46-8.85,6.39,0,7.38,12.29,5.9,12.29,9.34,0,1.48-1.97,2.46-4.43,2.46s-5.9-.49-7.38-1.48l-1.48,3.93c2.46,1.48,5.9,1.97,8.36,1.97h0c5.9,0,9.34-2.95,9.34-6.89,0-7.38-12.29-5.9-12.29-9.34"/>
    </g>
    <g>
      <path class="cls-1" d="M479.99,96.88c-4.92,0-10.33,3.93-10.33,10.82s4.92,10.82,10.33,10.82c4.92,0,10.33-3.93,10.33-10.82-.49-6.89-5.41-10.82-10.33-10.82M479.99,113.6c-2.46,0-4.92-1.97-4.92-5.9s2.46-5.9,4.92-5.9,4.92,1.97,4.92,5.9-2.46,5.9-4.92,5.9"/>
      <path class="cls-1" d="M494.74,94.92v23.11h4.92v-15.74h4.43l1.48-4.92h-5.9v-2.95c0-2.46,1.48-4.43,3.93-4.43h1.97v-4.92h-1.97c-5.41,0-8.85,3.93-8.85,9.84"/>
    </g>
    <g>
      <polygon class="cls-1" points="528.18 89.01 519.33 89.01 519.33 93.93 528.18 93.93 528.18 118.03 533.59 118.03 533.59 93.93 542.45 93.93 542.45 89.01 533.59 89.01 528.18 89.01"/>
      <path class="cls-1" d="M549.33,96.88c-4.92,0-10.33,3.93-10.33,10.82h0c0,6.89,4.92,10.82,10.82,10.82,2.46,0,5.41-.98,7.87-2.95l-2.46-2.95c-1.48.98-2.95,1.97-4.92,1.97-2.95,0-5.41-1.97-5.9-4.92h15.25v-1.97c0-6.89-4.92-10.82-10.33-10.82M544.41,105.74c0-2.95,2.46-4.43,4.92-4.43s4.92,1.97,4.92,4.43h-9.84Z"/>
      <path class="cls-1" d="M574.41,101.8c1.48,0,3.44.49,4.92,1.48l1.97-4.43c-2.46-1.48-4.92-1.97-7.38-1.97-5.41,0-10.82,3.93-10.82,10.82s5.41,10.82,10.82,10.82c2.46,0,4.92-.49,7.38-1.97l-1.97-4.43c-1.48.98-3.44,1.48-4.92,1.48-3.44,0-6.39-2.46-6.39-5.9.49-3.44,2.95-5.9,6.39-5.9"/>
      <path class="cls-1" d="M596.05,96.88c-1.97,0-3.93.98-5.41,1.97v-9.84h-4.92v29.02h4.92v-11.31c0-1.97,1.97-4.92,4.43-4.92s3.93,1.97,3.93,4.92v11.31h4.92v-10.82c.49-5.9-1.97-10.33-7.87-10.33"/>
      <path class="cls-1" d="M619.17,96.88c-5.41,0-9.34,4.43-9.34,10.33v10.82h4.92v-11.31c0-2.95,1.97-4.92,4.43-4.92s4.43,1.97,4.43,4.92v11.31h4.92v-10.82c0-5.9-3.93-10.33-9.34-10.33"/>
      <path class="cls-1" d="M643.26,96.88c-4.92,0-10.33,3.93-10.33,10.82s4.92,10.82,10.33,10.82c4.92,0,10.33-3.93,10.33-10.82-.49-6.89-5.41-10.82-10.33-10.82M643.26,113.6c-2.46,0-4.92-1.97-4.92-5.9s2.46-5.9,4.92-5.9,4.92,1.97,4.92,5.9-2.46,5.9-4.92,5.9"/>
      <path class="cls-1" d="M662.94,110.16v-19.67l-4.92-1.48v21.15c0,4.92,2.95,7.87,7.87,7.87h.98v-4.92h-.98c-1.97,0-2.95-.98-2.95-2.95"/>
      <path class="cls-1" d="M679.16,96.88c-4.92,0-10.33,3.93-10.33,10.82s4.92,10.82,10.33,10.82c4.92,0,10.33-3.93,10.33-10.82,0-6.89-5.41-10.82-10.33-10.82M679.16,113.6c-2.46,0-4.92-1.97-4.92-5.9s2.46-5.9,4.92-5.9,4.92,1.97,4.92,5.9c.49,3.93-2.46,5.9-4.92,5.9"/>
      <path class="cls-1" d="M708.18,97.87h-4.92c-4.92,0-9.84,3.93-9.84,10.82s4.92,10.82,9.84,10.82c1.48,0,3.44-.49,4.43-.98,0,3.44-3.44,5.41-6.89,5.41-1.97,0-3.93-.49-5.41-.98l-.98,4.43c1.97.49,4.43.98,6.39.98,6.89,0,12.29-4.43,12.29-12.79v-17.21h-4.92v-.49ZM703.26,114.1c-2.46,0-4.92-1.97-4.92-5.9,0-3.44,2.46-5.9,4.92-5.9h4.92v6.89c0,3.44-1.97,4.92-4.92,4.92"/>
      <polygon class="cls-1" points="732.28 97.87 726.87 111.64 721.95 97.87 716.54 97.87 724.41 118.03 721.46 126.88 726.38 126.88 737.69 97.87 732.28 97.87"/>
    </g>
  </g>
  <path class="cls-1" d="M407.7,68.85c-1.97,0-2.95,1.48-2.95,2.95,0,1.97,1.48,2.95,2.95,2.95,1.97,0,2.95-1.48,2.95-2.95.49-1.48-.98-2.95-2.95-2.95"/>
  <path class="cls-1" d="M415.56,68.85c-1.97,0-2.95,1.48-2.95,2.95,0,1.97,1.48,2.95,2.95,2.95,1.97,0,2.95-1.48,2.95-2.95.49-1.48-.98-2.95-2.95-2.95"/>
  <path class="cls-1" d="M662.94,68.85c-1.97,0-2.95,1.48-2.95,2.95,0,1.97,1.48,2.95,2.95,2.95,1.97,0,2.95-1.48,2.95-2.95.49-1.48-.98-2.95-2.95-2.95"/>
  <path class="cls-1" d="M670.8,68.85c-1.97,0-2.95,1.48-2.95,2.95,0,1.97,1.48,2.95,2.95,2.95,1.97,0,2.95-1.48,2.95-2.95.49-1.48-.98-2.95-2.95-2.95"/>
</svg>