<?xml version="1.0" encoding="UTF-8"?>
<svg id="Layer_1" data-name="Layer 1" xmlns="http://www.w3.org/2000/svg" viewBox="0 0 297.05 60.51">
  <defs>
    <style>
      .cls-1 {
        fill: #ad833b;
      }
    </style>
  </defs>
  <g>
    <path class="cls-1" d="M10.88,19.25c-.37.16-1.15.1-1.68.21-1.05.11-2.26.37-3.41.84-1.63.68-3.36,1.89-4.98,2.83-.1-1.47,2.15-3.41,3.41-4.04-.73-.31-3.93-.31-3.93-1.94,0-3.62,3.57-7.66,7.5-7.66,1.15,0,2.62.73,2.62,2.1,0,.26-1.05,1.89-1.63,2.68-.58-.26-2.1-1.36-2.89-1.36-.84,0-2.62.63-2.62,1.57,0,1.36,6.14,1.63,6.24,1.63h3.46c-.37.73-1.42,2.31-2.1,3.15Z"/>
    <path class="cls-1" d="M18.43,23.14l-1.84-19.41c0-.26.37-.68.58-.89.68-.89,1.68-1.89,2.41-2.68.16,1.21.26,2.52.37,3.73.37,4.25,1,10.7,1.52,14.17,0,.1.26.31.47.37.53.1,1,.53,1.52.53h.89v4.2h-5.93Z"/>
    <path class="cls-1" d="M34.64,18.94v4.2h-3.04c-.68,0-1.47-.94-1.57-1.47-.26.31-1.42,1.47-1.94,1.47h-5.3v-4.2h6.77c.94,0,.79-2.73.89-2.83.84-1.15,2.15-2.52,3.41-3.72.05,1.52-.89,3.57-1.42,5.67.47.42,1.05.89,1.68.89.32,0,.63-.37.89-.37-.1,0-.21.37-.37.37Z"/>
    <path class="cls-1" d="M33.8,23.14v-4.2h1c4.09-1.47,12.54-9.02,15.9-9.02,1.89,0,6.4,3.31,6.4,5.56,0,.21-1.15,2.05-1.57,3.46h2.57v4.2h-24.29ZM42.82,8.34c-.21,0-2.68-1.73-2.68-2.2,0-.31,2.26-2.52,2.62-2.52s2.78,2.15,2.78,2.52c0,.63-2.47,2.2-2.73,2.2ZM48.33,14.48c-2.41,0-5.25,2.68-8.08,4.04h11.07c.16.05,1.52-.31,1.52-1,0-1.63-3.67-3.04-4.51-3.04Z"/>
    <path class="cls-1" d="M56.35,23.14v-4.2h5.77c.1-.58-.05-1.47.26-1.89,1.73-2.2,6.03-6.4,8.81-6.4,1.99,0,2.47,3.25,2.47,4.25,0,.21,0,.84-.1,1.15-.42.89-1.15,1.78-1.68,2.89h3.15v4.2h-18.68ZM67.37,7.92l-2.62-2.15c.84-.89,2.41-2.47,2.62-2.47.26,0,1.89,1.52,2.83,2.36-.84.79-1.99,1.73-2.83,2.26ZM70.47,16.79c-.21-.52-.53-1.21-1.1-1.57-.31-.16-.89-.37-1.1-.37-.42,0-3.51,1-3.51,1.99,0,1.31,2.68,2.1,3.25,2.1.26,0,1.47-.26,2.1-.53.21-.16.42-.37.53-.42,0-.42-.05-1-.16-1.21Z"/>
    <path class="cls-1" d="M82.16,23.14c-.68-.42-.42-1.68-.84-2.41-.52.73-1.1,1.63-1.78,2.41h-6.24v-4.2h7.66l-1.89-12.85,3.2-4.41c.11,1.15.37,2.78.42,3.51.31,3.36.89,8.34,1.15,12.54.05.84.73,1.21,1.36,1.21h.68v4.2h-3.73Z"/>
    <path class="cls-1" d="M96.27,7.34c-.53.63-1.36,1.78-2.05,2.62-.11.1-.11.21-.11.47l.89,7.24-1,5.25c-.26,0-.47.21-.73.21h-8.97v-4.2h7.76c.1-.63.16-1,.16-1.26s-.26-2.36-.47-3.51c-.26-1.57-.73-4.72-1.42-6.98-.1-.31-.94-.73-1.52-1.21.89-1.84,1.57-3.2,2.94-5.04,0,.52.05,1.21.37,1.68.47.63,1.42,1.1,2.2,1.57.89.58,1.89,1.21,2.89,1.78-.21.42-.58.94-.94,1.36Z"/>
    <path class="cls-1" d="M127.49,23.08h-16.16c-.26,0-.37-.16-.58-.16-1.21-.05-3.46-1.73-3.67-3.25-.05-.21-.05-.79-.05-1.05,0-1.89,1.21-6.93,2.36-7.5l.21.16c0,1-.37,3.51-.37,3.93,0,.21.05,1.1.26,1.63.37.84,2.52,1.94,3.41,1.94h13.9c.16-.21.31-.37.31-.63,0-1-1.47-3.15-1.78-3.67l2.15-3.78c1.05.94,2.26,3.31,2.26,4.83,0,2.41-1.15,5.35-2.26,7.55ZM121.29,8.5l-2.99-1.57c-.58.37-1.1.94-1.52,1.47-1.05-.42-2.2-1-3.25-1.63.58-.73,1.99-2.36,2.36-2.36.26,0,2.36,1.47,2.62,1.47.21,0,1.31-1.05,1.94-1.47l3.1,1.57c-.58.79-1.47,1.84-2.26,2.52Z"/>
    <path class="cls-1" d="M136.24,23.14l-1.94-16.21c0-.68,2.52-4.51,3.04-5.14l1.05,13.54c0,2.73-.26,4.98-2.15,7.82Z"/>
    <path class="cls-1" d="M146.16,30.9c-1.84,0-8.24-2.62-8.81-3.36v-.47c.16-.1.16-.16.42-.16.47,0,3.51,1.26,4.83,1.26,1.94,0,8.97-5.09,8.97-7.98,0-1.21-3.78-4.3-4.09-4.46l1.47-4.25c3.04,1.78,4.62,5.25,4.62,7.97s-2.57,11.44-7.4,11.44Z"/>
    <path class="cls-1" d="M158.12,23.14l-1.84-19.41c0-.26.37-.68.58-.89.68-.89,1.68-1.89,2.41-2.68.16,1.21.26,2.52.37,3.73.37,4.25,1,10.7,1.52,14.17,0,.1.26.31.47.37.53.1,1,.53,1.52.53h.89v4.2h-5.93Z"/>
    <path class="cls-1" d="M181.72,19.04c-.68,1.21-1.52,2.47-2.31,3.67l-7.98-2.89c-1.52.63-1.15,2.2-2.41,3.31h-6.56v-4.2h7.08c.32-.73.58-1.21.68-1.73.58-1.84,2.47-4.72,4.62-5.72,1-.47,3.04-1.68,4.77-1.57.1.11.26.21.32.37.52,1.68,1.47,4.3,1.99,6.4.1.26.16,1.05.16,1.26,0,.26-.21.79-.37,1.1ZM176.9,14.27c-.21-.21-.31-.16-.58-.16s-.89.16-1.15.26c-.42.16-.89.37-1.31.63-.1.1-.37.26-.37.37l4.72,1.89c-.26-1.1-.31-2.2-1.31-2.99Z"/>
    <path class="cls-1" d="M193.42,31.32c-1.52-.11-3.36.89-5.09,2.1v-.37c0-.26,1.05-1.26,1.63-1.73-.73-.32-1.68-.26-2.26-.68-.05-.89.47-2.2,1.52-3.15.26-.26.73-.53,1.05-.68.32-.1.79-.26,1.05-.26s.42.16.63.16c.1.1.32.31.42.42,0,.1.16.1.16.37s-.42.79-.73,1.21c0,0-.16-.16-.16-.26-.05-.1-.26-.21-.47-.31-.21-.1-.37-.16-.63-.16s-.73.21-1.15.37c-.1,0-.31.26-.52.47-.1.1-.1-.05-.1.21s.31.47.52.52c.94.26,2.62.37,2.89.37s.79,0,2.05-.1c-.21.42-.47,1.05-.79,1.52Z"/>
    <path class="cls-1" d="M204.96,8.08c-.05,0-.05.05-.31.05-.21,0-.58-.16-.89-.37-.21,1.15-.52,2.68-.94,3.88-.42,1.1-1.68,2.83-1.68,3.1,0,.21.32.58.37.73,1,1.73,1.1,2.89,1.1,4.2,0,.26-.1,2.31-.31,3.46h-11.18c-.58-.32-.79-1.89-.79-2.62,0-.21.05-1.1.11-1.84.05-.42.26-1,.47-1.52.26.16.53.68.79,1.05.37.47.89.53,1.26.53,1.47,0,4.2-2.68,5.04-3.41-.47-1.15-3.15-3.93-4.57-4.77-.31.37-.37.84-.63,1.26-1.57-1-3.46-2.05-4.98-2.89-.42-.26-.73-1.57-.73-2.1,0-.26.31-1.73.52-2.57h3.15c.1-.21.16-.73.1-1.15,2.99,1.78,7.29,6.3,8.97,9.44.89-1.47,1.1-3.3,1.1-4.83,0-1.21-.26-1.89-1.05-2.83l3.15-4.88c.05.42.05,1.05.37,1.52.26.42.94.84,1.42,1.21,0,0,2.47,1.26,2.47,1.68,0,.21-1.52,2.52-2.31,3.67ZM198.88,16.63c-.73.84-1.73,1.89-2.47,2.36,1.15.1,2.52.1,3.67,0-.31-.73-.79-1.63-1.21-2.36Z"/>
    <path class="cls-1" d="M213.72,23.14l-1.94-16.21c0-.68,2.52-4.51,3.04-5.14l1.05,13.54c0,2.73-.26,4.98-2.15,7.82Z"/>
    <path class="cls-1" d="M233.5,6.03c-.26,0-1.99-1-3.04-1.63-.53.58-1.52,1.52-1.68,1.52-.26,0-1.94-1-2.89-1.63.42-.68,1.36-1.57,2.15-2.52.84.63,2.47,1.68,2.73,1.68.16,0,1.31-1.21,1.89-1.68l3.2,1.84c-.68.68-2.1,2.41-2.36,2.41ZM238.43,23.14c-.21,0-.37-.1-.52-.26-.32-.21-.73-.68-.84-1.05-.32-1-.42-2.15-.73-3.2-1.36.63-1.31,3.2-2.94,3.36l-6.35-1.26v-.58c0-.21,1.05-2.94,1.57-4.51.37-1.1,2.2-2.2,2.94-2.62,1.05-.58,2.2-1.31,3.25-1.99-.1-.42-.42-1-.42-1.26s1.52-2.47,2.26-3.73c.68,3.57,1.1,8.18,2.1,12.22.16.73.84.68,1.57.68h1.1v4.2h-2.99ZM236.17,16.58c0-.26-.42-2.68-.73-3.94-.37.1-.73.53-.79.73-.73,2.2-2.99,2.62-4.04,3.2,1.05.31,2.94.79,3.2.79h2.36v-.79Z"/>
    <path class="cls-1" d="M251.91,7.34c-.53.63-1.36,1.78-2.05,2.62-.11.1-.11.21-.11.47l.89,7.24-1,5.25c-.26,0-.47.21-.73.21h-8.97v-4.2h7.76c.1-.63.16-1,.16-1.26s-.26-2.36-.47-3.51c-.26-1.57-.73-4.72-1.42-6.98-.1-.31-.94-.73-1.52-1.21.89-1.84,1.57-3.2,2.94-5.04,0,.52.05,1.21.37,1.68.47.63,1.42,1.1,2.2,1.57.89.58,1.89,1.21,2.89,1.78-.21.42-.58.94-.94,1.36Z"/>
    <path class="cls-1" d="M258.83,23.14l-1.84-19.41c0-.26.37-.68.58-.89.68-.89,1.68-1.89,2.41-2.68.16,1.21.26,2.52.37,3.73.37,4.25,1,10.7,1.52,14.17,0,.1.26.31.47.37.53.1,1,.53,1.52.53h.89v4.2h-5.93Z"/>
    <path class="cls-1" d="M278.19,5.77c-2.94,1-5.98,1.99-9.08,2.99,2.73,2.47,6.14,4.98,8.76,8.45.21.26.37.68.37,1l-1.21,4.93h-13.33v-4.2h11.12l-5.88-4.93c-.1.21-.47.53-.58.73-.31-.32-.94-.89-1.42-1.42-.73-.79-1.94-2.15-1.94-2.41s1-3.62,1.47-5.35c4.2-1.26,8.55-2.62,12.85-3.93-.21,1.21-.63,2.83-1.15,4.14Z"/>
    <path class="cls-1" d="M287.58,32.37c-2.26,0-8.18-1.68-9.08-2.41,0-.73.58-.63.73-.63.26,0,3.78.73,4.04.73,2.36,0,10.55-5.09,10.55-9.08,0-.21-.05-.89-.26-1.42h-.1c-1.05,2.89-2.26,3.57-4.3,3.57-2.73,0-2.99-1.68-2.99-3.83,0-.26-.05-.79,0-1.26.1-.94,2.94-6.66,5.46-6.66,1.63,0,3.1,3.15,3.31,3.78.16.37.31.84.42,1.31.21.79.37,2.31.37,2.57,0,4.56-2.89,13.33-8.13,13.33ZM290.15,16c-.37,0-2.41.58-2.41,1.68,0,.84,2.31,1.15,2.57,1.15.73,0,1-.05,1.94-.53,0-1.63-1.26-2.31-2.1-2.31Z"/>
  </g>
  <g>
    <path class="cls-1" d="M4.12,50.66c0,5.99,2.57,6.95,4.79,6.95,2.61,0,4.8-1.09,4.8-7.24v-9.66c0-.61.26-.74.71-.8.93-.1,2.19-.13,2.83-.13-.06,1.29-.1,3.19-.1,5.86v4.57c0,9.01-4.76,10.3-8.69,10.3C3.02,60.51.1,57.71.1,50.79v-6.6c0-2.16-.03-3.48-.1-4.15.58-.1,2.8-.26,3.44-.26.58,0,.68.29.68,1.87v9.01Z"/>
    <path class="cls-1" d="M26.68,54.49c-.74,1.87-1.67,4.25-2.09,5.28-.13.29-.39.45-.9.45-.71,0-2.12-.19-2.83-.42v-.13c1.67-3.93,6.69-15.9,7.92-18.83l-.26-.68c1.19-.26,2.99-.39,3.38-.39.29,0,.58.19.74.58,1.48,3.54,3.93,9.88,5.05,12.68,1.32,3.28,2.09,5.31,2.73,6.66v.13c-.71.22-2.9.39-3.6.39-.52,0-.77-.16-1.09-1.03-.58-1.64-1.03-2.86-1.77-4.7h-7.27ZM33.18,51.82c-1.48-3.99-2.44-6.4-2.8-7.43-.8,2.12-1.71,4.67-2.8,7.43h5.6Z"/>
    <path class="cls-1" d="M45.16,44.42c0-1.54,0-2.7-.1-4.06.9-.22,2.32-.42,3.64-.45h7.82c-.19,1.45-.58,2.06-.97,2.48-.48.19-1.58.19-3.02.19h-3.35v5.76h7.02c-.29,2.25-1,2.67-2.12,2.67h-4.89v6.31c.74.16,1.77.22,2.99.22,1.32,0,3.67,0,5.21-.13l.06.06c-.29,1.38-.9,2.12-1.71,2.57-.45.1-1.9.16-4.38.16-2.83,0-4.96-.16-5.73-.32l-.48-.61v-14.87Z"/>
    <path class="cls-1" d="M77.03,39.43c1.71,0,3.83.71,4.63,1.54,0,.8-.51,2.12-1.64,2.06-.74-.39-2.12-.81-3.15-.81-1.71,0-2.93.81-2.93,2.22,0,1.51,1.06,2.28,4.05,3.99,2.9,1.64,4.54,2.86,4.54,5.92,0,3.99-3.48,6.15-7.27,6.15-2.22,0-3.86-.64-4.7-1.26-.55-.35-.74-.68-.74-1.09,0-.68.48-1.87.77-2.06,1.16.8,3.09,1.51,4.63,1.51,1.93,0,3.28-.84,3.28-2.48,0-1.42-.74-2.22-3.99-3.99-3.73-2.03-4.38-4.09-4.38-6.02,0-2.19,1.54-5.7,6.86-5.7h.03Z"/>
    <path class="cls-1" d="M87.84,44.45c0-1.54,0-2.86-.13-4.35.87-.13,3.06-.39,5.28-.39,4.89,0,8.3,1.67,8.3,6.53s-3.99,6.4-6.11,6.44c-.51,0-1.29-.07-1.64-.26-.48-.26-1.06-1.16-1.06-2.19.26.06.71.1,1.03.1,1.61,0,3.6-.84,3.6-4.09,0-3.06-2.06-4.02-3.96-4.02-.39,0-.84.03-1.29.1v13.81c0,2.25.06,3.19.1,3.83-.55.16-2.54.26-3.41.26-.48,0-.71-.1-.71-.58v-15.19Z"/>
    <path class="cls-1" d="M108.73,54.49c-.74,1.87-1.67,4.25-2.09,5.28-.13.29-.39.45-.9.45-.71,0-2.12-.19-2.83-.42v-.13c1.67-3.93,6.69-15.9,7.92-18.83l-.26-.68c1.19-.26,2.99-.39,3.38-.39.29,0,.58.19.74.58,1.48,3.54,3.93,9.88,5.05,12.68,1.32,3.28,2.09,5.31,2.73,6.66v.13c-.71.22-2.9.39-3.6.39-.52,0-.77-.16-1.09-1.03-.58-1.64-1.03-2.86-1.77-4.7h-7.27ZM115.23,51.82c-1.48-3.99-2.44-6.4-2.8-7.43-.8,2.12-1.71,4.67-2.8,7.43h5.6Z"/>
    <path class="cls-1" d="M142.79,56.87c-.1,1.09-.52,2.03-1.06,2.54-.8.51-2.51,1.09-4.67,1.09-7.34,0-11.3-4.18-11.3-10.33,0-6.66,5.05-10.75,11.42-10.75,3.06,0,5.41,1.03,5.92,1.61.06,1.09-.68,2.19-1.71,2.03-.97-.42-2.48-.87-4.25-.87-3.89,0-7.08,2.54-7.08,7.69,0,4.38,2.8,7.72,7.92,7.72,2.16,0,3.86-.55,4.7-.8l.1.06Z"/>
    <path class="cls-1" d="M147.97,44.42c0-1.54,0-2.7-.1-4.06.9-.22,2.32-.42,3.64-.45h7.82c-.19,1.45-.58,2.06-.97,2.48-.48.19-1.58.19-3.02.19h-3.35v5.76h7.02c-.29,2.25-1,2.67-2.12,2.67h-4.89v6.31c.74.16,1.77.22,2.99.22,1.32,0,3.67,0,5.21-.13l.06.06c-.29,1.38-.9,2.12-1.71,2.57-.45.1-1.9.16-4.38.16-2.83,0-4.96-.16-5.73-.32l-.48-.61v-14.87Z"/>
    <path class="cls-1" d="M178.07,54.49c-.74,1.87-1.67,4.25-2.09,5.28-.13.29-.39.45-.9.45-.71,0-2.12-.19-2.83-.42v-.13c1.67-3.93,6.69-15.9,7.92-18.83l-.26-.68c1.19-.26,2.99-.39,3.38-.39.29,0,.58.19.74.58,1.48,3.54,3.93,9.88,5.05,12.68,1.32,3.28,2.09,5.31,2.73,6.66v.13c-.71.22-2.9.39-3.6.39-.52,0-.77-.16-1.09-1.03-.58-1.64-1.03-2.86-1.77-4.7h-7.27ZM184.57,51.82c-1.48-3.99-2.44-6.4-2.8-7.43-.8,2.12-1.71,4.67-2.8,7.43h5.6Z"/>
    <path class="cls-1" d="M209.16,53.43c0-1.35-.07-2.09-.13-2.86,1.03-.16,2.57-.48,3.48-.48.48,0,.68.19.68.87v7.27c-.61.51-1.67,1.19-2.54,1.61-1.13.32-2.86.68-4.41.68-5.41,0-11.13-2.38-11.13-10.39,0-6.63,5.12-10.68,11.42-10.68,3.51,0,5.89,1.13,6.66,1.87.03,1.26-.9,2.22-1.93,2.03-1.45-.71-3.12-1.06-4.83-1.06-3.96,0-7.01,2.57-7.01,7.59,0,5.6,3.73,8.14,7.5,8.14.9,0,1.87-.19,2.25-.35v-4.22Z"/>
    <path class="cls-1" d="M219.34,44.42c0-1.54,0-2.7-.1-4.06.9-.22,2.32-.42,3.64-.45h7.82c-.19,1.45-.58,2.06-.97,2.48-.48.19-1.58.19-3.02.19h-3.35v5.76h7.02c-.29,2.25-1,2.67-2.12,2.67h-4.89v6.31c.74.16,1.77.22,2.99.22,1.32,0,3.67,0,5.21-.13l.06.06c-.29,1.38-.9,2.12-1.71,2.57-.45.1-1.9.16-4.38.16-2.83,0-4.96-.16-5.73-.32l-.48-.61v-14.87Z"/>
    <path class="cls-1" d="M236.01,40.2v-.16c.61-.1,3.38-.26,3.96-.26.32,0,.58.22.9.58,1.03,1.48,3.67,5.5,5.99,9.08,1.45,2.28,2.64,4.09,3.41,5.73-.19-2.48-.16-3.73-.16-5.34v-8.98c0-.74.22-.87.68-.93,1-.1,1.87-.13,2.61-.13-.06,1.38-.1,3.25-.1,5.92v14.19c-.29.13-2.12.51-3.06.51-.39,0-.58-.13-.8-.45-1.67-2.32-3.31-4.83-5.86-8.75-1.71-2.7-2.64-4.5-3.96-6.98.19,3.25.16,4.92.16,6.57v8.43c0,.68-.19.77-.71.87-.58.1-1.61.16-2.57.13.06-1.29.1-3.15.1-5.86v-13.36l-.58-.8Z"/>
    <path class="cls-1" d="M276.08,56.87c-.1,1.09-.52,2.03-1.06,2.54-.8.51-2.51,1.09-4.67,1.09-7.34,0-11.3-4.18-11.3-10.33,0-6.66,5.05-10.75,11.42-10.75,3.06,0,5.41,1.03,5.92,1.61.06,1.09-.68,2.19-1.71,2.03-.97-.42-2.48-.87-4.25-.87-3.89,0-7.08,2.54-7.08,7.69,0,4.38,2.8,7.72,7.92,7.72,2.16,0,3.86-.55,4.7-.8l.1.06Z"/>
    <path class="cls-1" d="M286.42,52.05c0-.61-.03-1.09-.26-1.48-1.74-2.99-4.6-7.34-6.5-10.1v-.1c1.09-.32,2.67-.58,3.51-.58.58,0,.8.16,1.61,1.51,1.13,1.8,2.74,4.6,4.12,6.92,1.38-2.12,4.47-7.31,5.08-8.43,1.19,0,2.25.16,2.7.32.51.19.45.61.03,1.32-.8,1.32-5.57,8.37-5.92,8.91-.26.45-.35.93-.35,1.35v4.41c0,2.19.06,3.15.1,3.86-.74.16-1.77.26-3.54.26-.48,0-.58-.1-.58-.58v-7.59Z"/>
  </g>
</svg>