<?xml version="1.0" encoding="UTF-8"?>
<svg id="Layer_1" data-name="Layer 1" xmlns="http://www.w3.org/2000/svg" viewBox="0 0 399.45 206.87">
  <defs>
    <style>
      .cls-1 {
        fill: #cd9f31;
      }

      .cls-2 {
        fill: #48494c;
      }
    </style>
  </defs>
  <rect class="cls-1" x="279.53" y="143.87" width="9.22" height="8.99"/>
  <rect class="cls-1" x="390.22" y="143.87" width="9.23" height="8.99"/>
  <rect class="cls-1" x="297.98" y="143.87" width="9.22" height="8.99"/>
  <polygon class="cls-1" points="390.23 197.86 279.53 197.86 279.53 206.86 399.45 206.86 399.45 161.87 390.23 161.87 390.23 197.86"/>
  <path class="cls-1" d="M307.2,188.86h0v-27h-27.67v27s0,0,0,0h27.67ZM297.98,179.86h-9.23v-8.99h9.23v8.99Z"/>
  <g>
    <path class="cls-1" d="M279.53,103.79v31.09h9.22v-66.11c.3-20.03,11.66-34.36,21.15-42.85,11.17-10.02,23.41-15.35,29.59-16.76,6.18,1.41,18.42,6.74,29.6,16.76,9.48,8.49,20.85,22.82,21.14,42.86v66.09h9.23s0-31.08,0-31.08v-35.08c-.59-42.61-43.77-66.29-59.97-68.71-16.2,2.42-59.37,26.11-59.96,68.71v35.08Z"/>
    <path class="cls-1" d="M297.97,103.79v31.08h9.23v-65.96c.24-13.57,8.39-23.67,15.18-29.75,5.92-5.3,12.38-9,17.12-11.01,4.74,2.01,11.19,5.71,17.12,11.01,6.79,6.08,14.93,16.18,15.17,29.76v65.94h9.23v-66.02c-.28-16.81-10.04-29.02-18.17-36.31-8.49-7.59-17.85-12.23-23.36-14.02-5.5,1.79-14.87,6.42-23.36,14.02-8.13,7.3-17.89,19.51-18.16,36.31v34.94Z"/>
    <path class="cls-1" d="M334.88,103.79v31.08h9.22v-65.62c-.12-3.28-2.5-6.45-4.61-8.65-2.11,2.2-4.48,5.37-4.61,8.64v34.55Z"/>
    <path class="cls-1" d="M316.42,103.79v85.08s64.58,0,64.58,0v-27h-36.91v-9h36.91v-8.99h-46.13v27h36.9v8.99h-46.13v-110.76c.19-7.14,5.1-13.01,9.21-16.68,1.58-1.42,3.16-2.63,4.63-3.64,1.46,1.01,3.05,2.22,4.63,3.64,4.1,3.68,9.03,9.55,9.21,16.69v65.76h9.23v-65.86c-.22-10.36-6.75-18.34-12.19-23.22-3.98-3.57-7.94-6.04-10.87-7.61-2.93,1.57-6.9,4.04-10.88,7.61-5.44,4.87-11.97,12.86-12.18,23.21v34.78Z"/>
    <path class="cls-2" d="M180.98,115.85c-10.59,0-10.58,7.37-10.58,10.33v8.26h10.6c-.13,7.34-5.29,9.8-5.29,9.8,0,0,10.58-1.16,10.58-10.31v-18.08h-5.31ZM181,129.29h-5.31v-4.86s.02-3.11,4.23-3.39v.02h1.08v8.23Z"/>
    <path class="cls-2" d="M149.26,126.18v3.11h-14.83c-7.75,0-10.36-5.15-10.36-5.15,0,0,1.21,10.31,10.6,10.31h14.56v.04h15.88v-.07h.05v-18.57h-5.32c-10.59,0-10.58,7.37-10.58,10.33M159.87,129.29h-5.32v-4.86s.02-3.41,4.83-3.41h.49v8.27Z"/>
    <path class="cls-2" d="M.55,126.18v8.26h15.88v-18.59h-5.31c-10.59,0-10.57,7.37-10.57,10.33M11.16,129.29h-5.32v-4.86s.02-3.41,4.83-3.41h.49v8.27Z"/>
    <path class="cls-2" d="M260.44,126.19c0-2.96,0-10.33-10.58-10.33h-21.24v13.43h-7.36v-13.43h-5.29v13.43h-7.94v-3.1c0-2.96.02-10.33-10.58-10.33h-6.4v5.17h6.85c4.81,0,4.83,3.41,4.83,3.41v4.85h-11.68v5.17h69.39v-8.26ZM233.9,121.02h16.42c4.8,0,4.83,3.41,4.83,3.41v4.85h-21.24v-8.26Z"/>
  </g>
  <rect class="cls-2" x="107.07" y="103.46" width="5.3" height="30.98"/>
  <g>
    <path class="cls-2" d="M96.49,129.3h-8.51v-13.47h-5.3v18.3c0,7.55-5.3,10.1-5.3,10.1,0,0,10.16-1.14,10.58-9.77h13.77v-.03h.04v-30.98h-5.28v25.86Z"/>
    <path class="cls-2" d="M77.42,134.45h.03v-8.26c0-2.96,0-10.33-10.57-10.33h-22.15l9.87-10.33h-6.87l-15.35,15.5h34.96c4.81,0,4.83,3.41,4.83,3.41v4.84H26.97v-25.83h-5.29v31.01h55.74Z"/>
  </g>
  <polygon class="cls-2" points="222.35 107.08 218.63 103.44 214.87 107.08 218.63 110.74 222.35 107.08"/>
  <polygon class="cls-2" points="157.62 107.08 153.9 103.44 150.15 107.08 153.9 110.74 157.62 107.08"/>
  <polygon class="cls-2" points="165.07 107.08 161.35 103.44 157.6 107.08 161.35 110.74 165.07 107.08"/>
  <polygon class="cls-2" points="89.05 107.08 85.32 103.44 81.58 107.08 85.32 110.74 89.05 107.08"/>
  <polygon class="cls-2" points="8.9 107.08 5.17 103.44 1.42 107.08 5.17 110.74 8.9 107.08"/>
  <polygon class="cls-2" points="16.34 107.08 12.62 103.44 8.87 107.08 12.62 110.74 16.34 107.08"/>
  <polygon class="cls-2" points="155.18 179.57 155.18 152.43 172.52 152.43 172.52 156.17 160.98 156.17 160.98 164.4 170.43 164.4 170.43 168.15 160.98 168.15 160.98 179.57 155.18 179.57"/>
  <path class="cls-2" d="M177.07,152.43h5.79v15.93c0,3.01.52,5,1.57,5.98,1.05.98,2.4,1.46,4.07,1.46s2.95-.49,3.92-1.45c.97-.97,1.46-2.83,1.46-5.6v-16.33h5.04v15.95c0,3.14-.41,5.39-1.22,6.75-.81,1.37-1.98,2.43-3.5,3.22-1.53.78-3.47,1.18-5.81,1.18s-4.28-.36-5.94-1.09c-1.66-.73-2.97-1.81-3.93-3.25-.97-1.44-1.45-3.73-1.45-6.87v-15.89Z"/>
  <polygon class="cls-2" points="205.64 179.57 205.64 152.43 210.75 152.43 223.62 170.97 223.62 152.43 228.26 152.43 228.26 179.57 223.06 179.57 210.29 161.04 210.29 179.57 205.64 179.57"/>
  <path class="cls-2" d="M235.23,179.57v-27.14h11.97c3.21,0,5.71.51,7.49,1.51,1.78,1,3.21,2.47,4.27,4.43,1.06,1.95,1.59,4.31,1.59,7.07s-.51,5.11-1.51,7.24c-1.01,2.12-2.48,3.81-4.41,5.04-1.93,1.24-4.57,1.85-7.93,1.85h-11.47ZM241.03,175.72h4.32c2.26,0,3.98-.35,5.18-1.02,1.2-.69,2.14-1.85,2.84-3.48.7-1.63,1.04-3.45,1.04-5.45s-.34-3.62-1.02-5.1c-.68-1.48-1.61-2.6-2.81-3.37-1.2-.76-3.22-1.15-6.06-1.15h-3.49v19.57Z"/>
  <polygon class="cls-2" points=".55 179.57 .55 175.72 14.95 156.18 1.37 156.18 1.37 152.43 21.95 152.43 21.95 156.18 7.56 175.72 21.95 175.72 21.95 179.57 .55 179.57"/>
  <path class="cls-2" d="M24.75,179.57l11.28-27.13h6.04l11.27,27.13h-6.19l-3.02-7.25h-11.99l-3.01,7.25h-4.39ZM33.65,168.72h8.99l-4.5-10.82-4.49,10.82Z"/>
  <polygon class="cls-2" points="57.43 179.57 57.43 152.43 63.23 152.43 63.23 165.6 73.96 152.43 78.91 152.43 69.2 164.58 81.33 179.57 73.86 179.57 63.23 166.23 63.23 179.57 57.43 179.57"/>
  <path class="cls-2" d="M82.72,179.57l11.27-27.13h6.05l11.27,27.13h-6.2l-3-7.25h-11.98l-3.02,7.25h-4.39ZM91.62,168.72h8.99l-4.49-10.82-4.49,10.82Z"/>
  <polygon class="cls-2" points="122.6 179.57 122.6 156.18 112.23 156.18 112.23 152.43 139 152.43 139 156.18 128.63 156.18 128.63 179.57 122.6 179.57"/>
  <g>
    <path class="cls-2" d="M7.77,189.76c0,.64-.53,1.24-1.27,1.24s-1.31-.56-1.31-1.28c0-.66.57-1.26,1.31-1.26.67,0,1.27.54,1.27,1.3M5.97,194.68c-.4.02-.78.04-1.14.04-.72.02-1.36.27-1.89.79-.53.51-.78,1.16-.78,1.92.02,1.8.67,2.7,1.96,2.7.63,0,1.25-.08,1.84-.24v-5.2ZM4.38,189.76c0,.64-.53,1.24-1.27,1.24s-1.29-.56-1.29-1.28c0-.66.55-1.26,1.29-1.26.7,0,1.27.54,1.27,1.3M9.06,202.29c-1.12,0-2.01-.35-2.69-1.05-.74.39-1.65.58-2.73.6-2.27,0-3.64-1.57-3.64-4.04,0-1.34.44-2.42,1.35-3.22.91-.83,2.12-1.24,3.6-1.24h.68l-.13-.93c.91-.23,1.76-.41,2.54-.56v6.91c0,1.12.51,1.67,1.54,1.67h1.33v1.86h-1.86Z"/>
    <path class="cls-2" d="M16.19,205.61c0,.64-.55,1.24-1.29,1.24-.7,0-1.27-.51-1.27-1.26,0-.68.57-1.24,1.27-1.24s1.29.54,1.29,1.26M18.53,202.29h-1.59c-.84,0-1.54-.21-2.07-.62-.55.41-1.23.62-2.03.62h-2.52v-1.86h1.97c1.04,0,1.54-.54,1.54-1.63v-2.12l-.42-2.66,2.51-.54v5.32c0,1.1.51,1.63,1.55,1.63h1.06v1.86ZM12.82,205.61c0,.64-.57,1.24-1.31,1.24-.67,0-1.29-.51-1.29-1.26,0-.68.62-1.24,1.29-1.24s1.31.54,1.31,1.26"/>
    <path class="cls-2" d="M29.41,202.29h-11.47v-1.86h3.79c-.55-.7-.82-1.57-.82-2.62,0-1.28.4-2.33,1.18-3.14.78-.82,1.8-1.22,3.02-1.2,1.17,0,2.41.5,3.73,1.46l-.8.93c-.79-.52-1.59-.79-2.46-.79-1.71,0-2.58.97-2.58,2.89,0,.79.24,1.41.72,1.86.42.39.95.6,1.57.6h1.1l2.75-.29.28,2.15Z"/>
    <path class="cls-2" d="M37.77,202.29h-1.69c-.38,0-.74-.04-1.06-.15-.25,2.39-1.76,3.96-4.53,4.71l-.47-.8c1.97-.6,2.94-1.92,2.94-3.98l-.02-5.18-.42-2.77,2.52-.55v5.16c0,1.14.51,1.71,1.54,1.71h1.18v1.86Z"/>
    <path class="cls-2" d="M49.94,190.26c0,.68-.57,1.24-1.31,1.24-.67,0-1.29-.51-1.29-1.26,0-.68.62-1.24,1.29-1.24s1.31.54,1.31,1.26M48.22,187.06c0,.66-.55,1.24-1.29,1.24-.7,0-1.27-.56-1.27-1.24s.57-1.28,1.27-1.28c.74,0,1.29.56,1.29,1.28M46.55,190.26c0,.68-.55,1.24-1.29,1.24-.7,0-1.31-.51-1.31-1.26,0-.68.61-1.24,1.31-1.24s1.29.54,1.29,1.26M53.66,199.3c0,1.82-1.21,2.99-3.07,2.99-1.12,0-2.07-.39-2.86-1.18-.57.78-1.42,1.18-2.56,1.18s-2.05-.41-2.88-1.24c-.11.16-.25.31-.4.45-.57.51-1.31.79-2.26.79h-2.46v-1.86h1.95c1.02,0,1.53-.54,1.53-1.63l.04-3.98,2.08-.45v5.37c.53.47,1.14.72,1.88.72.99,0,1.5-.54,1.5-1.63v-4l2.08-.45v5.32c.53.52,1.14.77,1.82.77.99,0,1.5-.54,1.5-1.63v-2.02l-.38-2.68,2.5-.56v5.74Z"/>
    <path class="cls-2" d="M67.06,189.76c0,.64-.53,1.24-1.27,1.24s-1.31-.56-1.31-1.28c0-.66.57-1.26,1.31-1.26.67,0,1.27.54,1.27,1.3M65.25,194.68c-.4.02-.78.04-1.14.04-.72.02-1.36.27-1.89.79-.53.51-.78,1.16-.78,1.92.02,1.8.67,2.7,1.96,2.7.63,0,1.25-.08,1.84-.24v-5.2ZM63.67,189.76c0,.64-.53,1.24-1.27,1.24s-1.29-.56-1.29-1.28c0-.66.55-1.26,1.29-1.26.7,0,1.27.54,1.27,1.3M68.35,202.29c-1.12,0-2.01-.35-2.69-1.05-.74.39-1.65.58-2.73.6-2.27,0-3.64-1.57-3.64-4.04,0-1.34.44-2.42,1.35-3.22.91-.83,2.12-1.24,3.6-1.24h.68l-.13-.93c.91-.23,1.76-.41,2.54-.56v6.91c0,1.12.51,1.67,1.54,1.67h1.33v1.86h-1.86Z"/>
    <path class="cls-2" d="M83.58,190.26c0,.68-.57,1.24-1.31,1.24-.68,0-1.27-.51-1.27-1.24s.59-1.26,1.27-1.26c.74,0,1.31.54,1.31,1.26M85.74,197.75c0-1.57-1.16-2.35-3.47-2.35-1.27,0-2.6.7-3.98,2.1-1.08,1.1-1.8,2.07-2.12,2.93h9.56v-2.68ZM89.76,202.29h-20.14v-1.86h1.95c1.02,0,1.52-.54,1.52-1.63l.04-3.99,2.07-.45v4.52c2.31-3.49,4.81-5.22,7.54-5.22,1.5,0,2.73.33,3.68,1.01.95.66,1.44,1.57,1.44,2.75v3.01h1.9v1.86Z"/>
    <path class="cls-2" d="M94.95,205.61c0,.64-.55,1.24-1.29,1.24-.7,0-1.31-.51-1.31-1.26,0-.68.61-1.24,1.31-1.24s1.29.54,1.29,1.26M95.54,199.3c0,1.84-1.21,2.99-3.13,2.99h-3.24v-1.86h2.73c1.03,0,1.54-.54,1.54-1.63v-2.04l-.36-2.64,2.45-.54v5.72ZM91.58,205.61c0,.64-.57,1.24-1.31,1.24-.67,0-1.29-.51-1.29-1.26,0-.68.62-1.24,1.29-1.24s1.31.54,1.31,1.26"/>
    <path class="cls-2" d="M104.13,202.29h-1.69c-.38,0-.74-.04-1.06-.15-.25,2.39-1.76,3.96-4.53,4.71l-.47-.8c1.97-.6,2.94-1.92,2.94-3.98l-.02-5.18-.42-2.77,2.52-.55v5.16c0,1.14.51,1.71,1.54,1.71h1.18v1.86Z"/>
    <path class="cls-2" d="M111.96,190.26c0,.68-.59,1.24-1.27,1.24-.74,0-1.31-.51-1.31-1.26,0-.68.57-1.24,1.31-1.24.68,0,1.27.54,1.27,1.26M113.04,197.65c0-.89-.25-1.57-.76-2.06-.42-.41-.95-.62-1.59-.62s-1.18.21-1.61.62c-.49.49-.74,1.18-.74,2.06,0,2.02.78,3.03,2.37,3.03.76,0,1.35-.33,1.78-.99.36-.54.55-1.22.55-2.04M117.18,202.29h-4.72c-.06,0-.66-.08-1.78-.25-1.04.16-1.65.25-1.8.25h-5.31v-1.86h3.58c-.72-.7-1.08-1.59-1.08-2.68,0-1.22.4-2.21,1.23-2.99.82-.81,1.95-1.2,3.38-1.2s2.56.39,3.39,1.2c.82.78,1.22,1.77,1.22,2.99,0,1.1-.36,1.98-1.1,2.68h2.98v1.86Z"/>
    <path class="cls-2" d="M123.78,199.22c0,1.92-1.21,3.07-3.15,3.07h-3.96v-1.85h3.45c1.03,0,1.54-.56,1.54-1.69v-6.56l-.36-2.72,2.47-.58v10.34Z"/>
    <path class="cls-2" d="M132.02,200.91c0,.74-.57,1.38-1.4,1.38-.76,0-1.4-.58-1.4-1.38,0-.74.62-1.38,1.4-1.38s1.4.58,1.4,1.38"/>
    <path class="cls-2" d="M137.14,200.91c0,.74-.57,1.38-1.4,1.38-.76,0-1.4-.58-1.4-1.38,0-.74.62-1.38,1.4-1.38s1.4.58,1.4,1.38"/>
    <path class="cls-2" d="M147.23,189.76c0,.64-.53,1.24-1.27,1.24s-1.31-.56-1.31-1.28c0-.66.57-1.26,1.31-1.26.67,0,1.27.54,1.27,1.3M145.43,194.68c-.4.02-.78.04-1.14.04-.72.02-1.36.27-1.89.79-.53.51-.78,1.16-.78,1.92.02,1.8.67,2.7,1.96,2.7.63,0,1.25-.08,1.84-.24v-5.2ZM143.85,189.76c0,.64-.53,1.24-1.27,1.24s-1.29-.56-1.29-1.28c0-.66.55-1.26,1.29-1.26.7,0,1.27.54,1.27,1.3M148.52,202.29c-1.12,0-2.01-.35-2.69-1.05-.74.39-1.65.58-2.73.6-2.27,0-3.64-1.57-3.64-4.04,0-1.34.44-2.42,1.35-3.22.91-.83,2.12-1.24,3.6-1.24h.68l-.13-.93c.91-.23,1.76-.41,2.54-.56v6.91c0,1.12.51,1.67,1.54,1.67h1.33v1.86h-1.86Z"/>
    <path class="cls-2" d="M155.65,205.61c0,.64-.55,1.24-1.29,1.24-.7,0-1.27-.51-1.27-1.26,0-.68.57-1.24,1.27-1.24s1.29.54,1.29,1.26M158,202.29h-1.59c-.84,0-1.54-.21-2.07-.62-.55.41-1.23.62-2.03.62h-2.52v-1.86h1.97c1.04,0,1.54-.54,1.54-1.63v-2.12l-.42-2.66,2.51-.54v5.32c0,1.1.51,1.63,1.55,1.63h1.06v1.86ZM152.29,205.61c0,.64-.57,1.24-1.31,1.24-.67,0-1.29-.51-1.29-1.26,0-.68.62-1.24,1.29-1.24s1.31.54,1.31,1.26"/>
    <path class="cls-2" d="M165.51,202.29h-1.42c-.84,0-1.54-.21-2.09-.64-.53.43-1.21.64-2.01.64h-2.58v-1.86h2.03c1.02,0,1.52-.55,1.52-1.69v-6.42l-.4-2.76,2.51-.56v9.74c0,1.14.51,1.69,1.53,1.69h.91v1.86Z"/>
    <path class="cls-2" d="M170.69,205.61c0,.64-.57,1.24-1.27,1.24-.74,0-1.29-.51-1.29-1.25,0-.68.55-1.24,1.29-1.24.7,0,1.27.54,1.27,1.26M173.13,202.29h-1.59c-.85,0-1.54-.21-2.07-.62-.55.41-1.23.62-2.03.62h-2.52v-1.86h1.97c1.03,0,1.54-.54,1.54-1.63v-2l-.43-2.68,2.52-.55v5.24c0,1.09.51,1.63,1.54,1.63h1.06v1.86Z"/>
    <path class="cls-2" d="M182.67,190.26c0,.68-.55,1.24-1.29,1.24-.7,0-1.29-.51-1.29-1.24s.59-1.26,1.29-1.26,1.29.54,1.29,1.26M182.04,197.65c0-.89-.25-1.57-.76-2.06-.42-.41-.95-.62-1.59-.62s-1.18.21-1.61.62c-.49.49-.74,1.18-.74,2.06,0,2.02.78,3.03,2.37,3.03.76,0,1.35-.33,1.78-.99.36-.54.55-1.22.55-2.04M179.31,190.26c0,.68-.57,1.24-1.31,1.24-.68,0-1.29-.51-1.29-1.24s.61-1.26,1.29-1.26,1.31.54,1.31,1.26M186.18,202.29h-4.72c-.06,0-.66-.08-1.78-.25-1.03.16-1.65.25-1.8.25h-5.35v-1.86h3.62c-.72-.7-1.08-1.59-1.08-2.68,0-1.22.4-2.21,1.23-2.99.82-.81,1.95-1.2,3.38-1.2s2.56.39,3.39,1.2c.82.78,1.22,1.77,1.22,2.99,0,1.1-.36,1.98-1.1,2.68h2.98v1.86Z"/>
    <path class="cls-2" d="M191.75,190.26c0,.68-.55,1.24-1.29,1.24-.7,0-1.27-.51-1.27-1.26,0-.68.57-1.24,1.27-1.24.74,0,1.29.54,1.29,1.26M188.36,190.26c0,.68-.55,1.24-1.29,1.24-.7,0-1.27-.51-1.27-1.26,0-.68.57-1.24,1.27-1.24.74,0,1.29.54,1.29,1.26M193.89,202.29h-1.59c-.85,0-1.54-.21-2.07-.62-.57.41-1.25.62-2.03.62h-2.52v-1.86h1.95c1.04,0,1.57-.54,1.57-1.63v-2l-.44-2.68,2.51-.55v5.24c0,1.09.51,1.63,1.53,1.63h1.1v1.86Z"/>
    <path class="cls-2" d="M211.91,202.29h-1.12c-.85,0-1.54-.21-2.12-.62-.53.41-1.21.62-2.01.62-1.12,0-2.05-.39-2.84-1.18-.57.79-1.41,1.18-2.56,1.18-1.08,0-2.03-.41-2.86-1.22-.11.15-.25.29-.4.43-.57.52-1.31.78-2.26.78h-2.46v-1.86h1.95c1.02,0,1.53-.54,1.53-1.63l.04-3.99,2.08-.45v5.39c.53.47,1.14.7,1.84.7.99,0,1.5-.54,1.5-1.63v-4.01l2.09-.45v5.33c.53.51,1.12.76,1.82.76.99,0,1.5-.54,1.5-1.63v-2.02l-.4-2.68,2.51-.55v5.26c0,1.07.51,1.61,1.53,1.61h.63v1.86Z"/>
    <path class="cls-2" d="M219.96,195.94l-.17-1.2c-.32-.11-.7-.15-1.1-.15-1.78,0-2.67,1.07-2.67,3.24,0,1.73.61,2.6,1.82,2.6,1.5,0,2.26-.93,2.26-2.77,0-.47-.04-1.05-.15-1.73M222.18,193.64l-.19,2.15v2.87c0,2.41-1.59,3.63-4.74,3.63h-5.9v-1.86h3.22c-.42-.7-.63-1.45-.63-2.21,0-1.53.47-2.75,1.4-3.67.93-.93,2.2-1.38,3.83-1.38,1.02,0,2.03.16,3.02.47"/>
    <path class="cls-2" d="M235.38,189.76c0,.64-.53,1.24-1.27,1.24s-1.31-.56-1.31-1.28c0-.66.57-1.26,1.31-1.26.67,0,1.27.54,1.27,1.3M233.58,194.68c-.4.02-.78.04-1.14.04-.72.02-1.36.27-1.89.79-.53.51-.78,1.16-.78,1.92.02,1.8.67,2.7,1.96,2.7.63,0,1.25-.08,1.84-.24v-5.2ZM232,189.76c0,.64-.53,1.24-1.27,1.24s-1.29-.56-1.29-1.28c0-.66.55-1.26,1.29-1.26.7,0,1.27.54,1.27,1.3M236.67,202.29c-1.12,0-2.01-.35-2.69-1.05-.74.39-1.65.58-2.73.6-2.27,0-3.64-1.57-3.64-4.04,0-1.34.44-2.42,1.35-3.22.91-.83,2.12-1.24,3.6-1.24h.68l-.13-.93c.91-.23,1.76-.41,2.54-.56v6.91c0,1.12.51,1.67,1.54,1.67h1.33v1.86h-1.86Z"/>
    <path class="cls-2" d="M243.72,205.61c0,.64-.55,1.24-1.29,1.24-.7,0-1.31-.51-1.31-1.26,0-.68.61-1.24,1.31-1.24s1.29.54,1.29,1.26M244.31,199.3c0,1.84-1.21,2.99-3.13,2.99h-3.24v-1.86h2.73c1.03,0,1.54-.54,1.54-1.63v-2.04l-.36-2.64,2.45-.54v5.72ZM240.35,205.61c0,.64-.57,1.24-1.31,1.24-.67,0-1.29-.51-1.29-1.26,0-.68.62-1.24,1.29-1.24s1.31.54,1.31,1.26"/>
    <path class="cls-2" d="M252.45,200.99v-6.19h-1.12c-1.69,0-2.69,1.32-2.69,3.46s.66,3.08,1.96,3.08c.63,0,1.25-.12,1.84-.35M254.72,192.03h-6.92v-1.28h1.23c0-1.9.89-2.85,2.64-2.85.82,0,1.5.19,2.03.58-.11.27-.24.6-.38.97-.38-.31-.78-.47-1.21-.47-.95.04-1.42.64-1.42,1.77h1.67l1.21-.1,1.14,1.38ZM254.53,201.45c0,2.87-1.53,4.67-4.55,5.43l-.44-.87c1.76-.45,2.71-1.65,2.9-3.61-.74.23-1.48.35-2.27.35-1.08,0-1.95-.43-2.62-1.28-.66-.79-.98-1.73-.98-2.87,0-1.45.4-2.62,1.21-3.55.87-.99,2.01-1.49,3.47-1.49h3.28v7.89Z"/>
    <path class="cls-2" d="M260.16,201.43c0,2.79-1.52,4.6-4.55,5.43l-.44-.81c1.95-.6,2.92-1.92,2.92-3.98l-.02-5.18-.43-2.76,2.52-.56v7.86Z"/>
  </g>
</svg>