<?xml version="1.0" encoding="UTF-8"?>
<svg id="Layer_1" data-name="Layer 1" xmlns="http://www.w3.org/2000/svg" viewBox="0 0 289.4 83.25">
  <defs>
    <style>
      .cls-1 {
        fill: #ad833b;
      }
    </style>
  </defs>
  <path class="cls-1" d="M13.49,28.83l-1.38,3.79c-1.91-.59-3.3-.88-4.17-.88-2.41,0-4.05.29-4.92.88l-.23.15c.65,3.23.98,5.61.98,7.15,0,.6-.17,1.62-.52,3.04-.37,1.55-.7,2.33-.98,2.33.01-.14-.03-.55-.12-1.23l-1.54-10.9c0-.45.65-1.4,1.96-2.87.23-.32,1.03-.73,2.38-1.23,1.21-.44,2.11-.7,2.71-.79l.83-.12c-1.27-1.1-2.41-1.65-3.42-1.65-.51,0-1.19.33-2.02.98-.83.65-1.19.98-1.06.98-.03,0-.04-.03-.04-.08,0-.29.24-.92.71-1.87.42-.83.78-1.44,1.06-1.83.99-1.4,2.05-2.1,3.19-2.1.4,0,1.53.81,3.38,2.44.51.45,1.13,1.15,1.85,2.1.78,1.01,1.23,1.58,1.35,1.69Z"/>
  <path class="cls-1" d="M37.12,34.66h-4.06c-.05-5.41-.51-8.11-1.38-8.11-.01.03-.12.38-.31,1.06-1.05,3.62-2.63,5.94-4.73,6.98-2.6,1.28-6.03,1.92-10.29,1.92-1.28,0-1.92-.06-1.92-.19,0-.22.8-.64,2.4-1.27,2.44-.95,4.47-1.76,6.1-2.42.74-.4,2.04-1.21,3.9-2.44v-.06c-.26-1.77-1.17-3.53-2.73-5.27-.83-.92-1.39-1.38-1.67-1.38-.05,0-.09.04-.12.13-.06.23-.19.61-.37,1.13l-4.6-2.56c-.37-.21-.56-.82-.56-1.85,0-.56.09-1.41.27-2.54.21-1.31.42-1.96.63-1.96.46,0,1.64.65,3.54,1.96,2.41,1.67,4.28,3.73,5.6,6.19.79,1.46,1.24,3.13,1.35,5,.87-.95,1.47-1.7,1.81-2.25.41-.65.81-1.63,1.21-2.94.22-.68.3-1.93.25-3.75-.05-1.76-.04-2.71.04-2.87.17-.28.57-.78,1.21-1.48.69-.78,1.12-1.17,1.27-1.17.08,0,.63,5.4,1.65,16.19h1.5v3.94Z"/>
  <path class="cls-1" d="M54.52,30.45c-.63,1.08-1.43,2.48-2.4,4.21h-15.87v-3.94h3.15v-.75c0-.31-.01-.6-.04-.87,0-.83.38-1.67,1.13-2.52.21-.45.94-1.26,2.21-2.44,1.64-1.53,2.99-2.29,4.06-2.29,1.47,0,2.86.86,4.17,2.58.99,1.28,1.48,2.27,1.48,2.96,0,.14-.03.27-.08.38-.01.04-.18-.1-.5-.4-.46-.45-1.05-.81-1.77-1.1-1.05-.42-2.29-.63-3.71-.63-1.12,0-2.18.19-3.19.56-.76.27-1.13.46-1.13.58,0,.33.52,1.01,1.56,2.02.86.83,1.54,1.44,2.06,1.81.19.13.51.19.94.19.88,0,2.21-.06,3.96-.17,1.76-.12,3.08-.17,3.96-.17Z"/>
  <path class="cls-1" d="M78.08,34.66h-3.73c-.05-5.41-.51-8.11-1.38-8.11-.01.03-.12.38-.31,1.06-1.05,3.62-2.63,5.94-4.73,6.98-2.6,1.28-6.03,1.92-10.29,1.92-1.28,0-1.92-.06-1.92-.19,0-.22.8-.64,2.4-1.27,2.44-.95,4.47-1.76,6.1-2.42.74-.4,2.04-1.21,3.9-2.44v-.06c-.26-1.77-1.17-3.53-2.73-5.27-.83-.92-1.39-1.38-1.67-1.38-.05,0-.09.04-.12.13-.06.23-.19.61-.37,1.13l-4.6-2.56c-.37-.21-.56-.82-.56-1.85,0-.56.09-1.41.27-2.54.21-1.31.42-1.96.63-1.96.46,0,1.64.65,3.54,1.96,2.41,1.67,4.28,3.73,5.6,6.19.79,1.46,1.24,3.13,1.35,5,.87-.95,1.47-1.7,1.81-2.25.41-.65.81-1.63,1.21-2.94.22-.68.3-1.93.25-3.75-.05-1.76-.04-2.71.04-2.87.17-.28.57-.78,1.21-1.48.69-.78,1.12-1.17,1.27-1.17.08,0,.63,5.4,1.65,16.19h1.17v3.94ZM65.75,40.75c-.13.29-.37.74-.71,1.35-1.18,0-2.4.41-3.65,1.23l-1.23.79c-.01-.05-.02-.1-.02-.15,0-.38.57-1.01,1.71-1.87-.37,0-.81-.06-1.33-.17-.69-.15-1.02-.36-.98-.62,0-.71.33-1.47.98-2.29.73-.91,1.58-1.37,2.56-1.37.23,0,.45.09.64.26.2.17.3.38.3.61-.15.31-.33.66-.52,1.06-.28-.47-.7-.71-1.25-.71-.33,0-.7.1-1.1.31-.45.23-.67.49-.67.79,0,.46.62.72,1.85.79.44.04,1.58.04,3.42,0Z"/>
  <path class="cls-1" d="M88.75,19.37c-.21.29-.69.95-1.46,1.96l-1.37,1.75.04.04c0,.53.25,2.6.75,6.23.09.6-.02,1.44-.33,2.52-.33,1.19-.5,1.97-.5,2.35.01.04.02.08.02.12,0,.22-.43.33-1.29.33h-7.27v-3.94h6.88c.1-.1.15-.37.15-.79,0-1.05-.28-2.7-.83-4.95-.55-2.25-.83-3.77-.83-4.57l-.04-.08-1.35-1c1.14-2.26,1.99-3.71,2.54-4.36,0,.9.24,1.54.73,1.92,1.1.72,2.48,1.54,4.13,2.48Z"/>
  <path class="cls-1" d="M119.21,27.48c0,.65-.15,1.74-.44,3.27-.38,1.1-.92,2.4-1.62,3.9h-14.48c-1.15,0-2.2-.37-3.13-1.1-1.01-.77-1.52-1.72-1.52-2.85,0-.86.23-2.21.69-4.04.53-2.14,1.04-3.21,1.56-3.21.18,0,.19.44.04,1.31-.21,1.21-.31,2.07-.31,2.6,0,.78.15,1.36.46,1.73.9,1.08,2.12,1.62,3.67,1.62h12.48c.15-.13.23-.34.23-.63,0-.21-.15-.76-.46-1.65-.32-.53-.71-1.15-1.15-1.88l2.02-3.5c1.31,1.63,1.96,3.11,1.96,4.44ZM113.42,18.62c-1.13,1.47-1.81,2.21-2.06,2.21-.08,0-.57-.25-1.47-.75-.9-.5-1.37-.75-1.39-.75-.45.42-.92.91-1.42,1.46-.32-.09-.83-.31-1.52-.67s-1.14-.65-1.35-.87c.5-.53,1.19-1.24,2.08-2.15.19.22.61.51,1.25.88.64.37,1.08.56,1.31.56.1,0,.37-.22.81-.65.49-.47.78-.74.88-.79l2.88,1.52Z"/>
  <path class="cls-1" d="M126.1,28.83c0,2.76-.65,5.03-1.96,6.81l-1.73-15.27c0-.37.89-1.94,2.67-4.69.68,3.91,1.02,8.29,1.02,13.15Z"/>
  <path class="cls-1" d="M137.84,32.06c0,2.29-.76,4.71-2.29,7.25-1.36,2.26-2.86,3.38-4.5,3.38-.74,0-2.29-.44-4.63-1.31-2.45-.91-3.67-1.58-3.67-2,0-.22.11-.33.33-.33.28,0,.96.19,2.03.58s1.91.58,2.53.58c1.24,0,2.95-.94,5.12-2.83,2.22-1.91,3.33-3.46,3.33-4.65,0-.51-.54-1.3-1.62-2.37-.78-.77-1.51-1.4-2.17-1.9.18-.38.63-1.69,1.35-3.92.91.49,1.76,1.28,2.56,2.37,1.1,1.53,1.65,3.24,1.65,5.15Z"/>
  <path class="cls-1" d="M147.52,34.66h-5.19l-1.54-17.1,2.52-3.04c.08,1.12.34,3.98.79,8.6l.69,6.69c.15.6.61.9,1.37.9h1.37v3.94Z"/>
  <path class="cls-1" d="M164.34,30.33c0,.1-.36.75-1.08,1.93-.72,1.19-1.15,1.84-1.29,1.95l-7.1-2.56c-.36.08-.79.62-1.29,1.63-.47.96-.9,1.42-1.27,1.37h-5.35v-3.94h6.38l.04-.12c.28-.65.74-1.62,1.37-2.9.9-1.65,2.21-2.9,3.94-3.75.09,0,.52-.17,1.3-.51.78-.34,1.37-.51,1.78-.51s.63.1.71.31c.08.37.22.92.42,1.65.21.6.51,1.49.9,2.67.35,1.05.52,1.97.52,2.77ZM161.04,29.58c-.26-.69-.48-1.26-.67-1.71-.4-.86-.7-1.3-.9-1.33-.55,0-1.1.13-1.65.4-.29.18-.58.35-.87.5l-.4.29,4.5,1.85Z"/>
  <path class="cls-1" d="M186.44,17.06c-.21.36-.92,1.49-2.13,3.38-.35,0-.59-.04-.73-.12-.27-.14-.44-.22-.52-.25,0,1.32-.29,2.63-.87,3.94-.65,1.46-1.14,2.35-1.46,2.67l.62,1.29c.4.83.64,1.56.73,2.19.05.37.08.75.08,1.13,0,.6-.05,1.31-.15,2.13l-.17,1.21h-10.19c-.6,0-.9-.81-.9-2.44,0-.54.04-1.17.13-1.9.1-.86.21-1.29.33-1.29.01,0,.19.25.53.75s.82.75,1.45.75c.4,0,.86-.17,1.38-.52.5-.41.93-.74,1.29-.98.96-.65,1.66-1.26,2.1-1.81,0-.24-.72-1.13-2.17-2.67-1.1-1.18-1.85-1.77-2.25-1.77-.05,0-.14.19-.26.57-.12.38-.27.57-.45.57-.12-.12-.53-.42-1.25-.9-.91-.63-1.76-1.1-2.56-1.42-.9-.36-1.35-1.16-1.35-2.4,0-.88.44-2.29,1.31-4.21,1.03.03,3.03,1.37,6.02,4.02.99.87,1.96,1.97,2.92,3.31.38.56.96,1.4,1.73,2.52.68-1.1,1.02-2.73,1.02-4.88,0-.72-.16-1.33-.49-1.84-.33-.51-.49-.75-.49-.72.03-.1.97-1.57,2.83-4.4.08,1.01.53,1.79,1.35,2.35,1.73.95,2.6,1.53,2.6,1.75ZM176.21,40.79c-.14.37-.54.94-1.19,1.71-.12-.01-.24-.02-.37-.02-1.36,0-3.17.78-5.42,2.33.32-.94,1.11-1.69,2.37-2.27-.1-.08-.59-.24-1.46-.48-.69-.19-1.03-.44-1.02-.75.01-.91.35-1.8,1.02-2.67.79-1.05,1.81-1.58,3.04-1.58h.04c.22,0,.47.13.75.38s.42.49.42.71c-.21.37-.51.87-.9,1.5l-.81-.65c-.27-.22-.53-.33-.77-.33-.31,0-.83.31-1.58.94.51.59,1.26.92,2.25.98.94.06,2.15.13,3.63.19ZM179.86,30.79c-.13-.73-.51-1.54-1.13-2.44-.67.9-1.49,1.69-2.48,2.37.21.12.77.18,1.69.19.83.01,1.47-.03,1.92-.12Z"/>
  <path class="cls-1" d="M193.48,28.83c0,2.76-.65,5.03-1.96,6.81l-1.73-15.27c0-.37.89-1.94,2.67-4.69.68,3.91,1.02,8.29,1.02,13.15Z"/>
  <path class="cls-1" d="M235.43,34.66h-1.83c-.21-.26-.52-.66-.94-1.21-.31.68-.46,1.1-.46,1.25l-5.4-.04s-.13-.21-.33-.54c-.18-.29-.29-.44-.35-.44-.04,0-.18.15-.43.46s-.41.48-.47.52h-5.79v.27c0,.31-.25,1.03-.75,2.17-.56,1.27-1.08,2.11-1.54,2.52-.73.64-1.88,1.28-3.46,1.9-1.58.63-2.84.94-3.79.94-4.59,0-6.88-1.47-6.88-4.42,0-1.83.46-3.88,1.38-6.13.87-2.15,1.56-3.23,2.08-3.23.14,0,.21.08.21.23,0,.18-.29.96-.86,2.36-.57,1.39-.86,2.43-.86,3.12,0,1.67.78,2.86,2.33,3.58.96.45,2.06.67,3.31.67.83,0,2.11-.29,3.83-.87,1.86-.63,2.95-1.22,3.27-1.77,0-.47-.19-1.28-.56-2.4-.46-1.42-1.04-2.71-1.73-3.87.27-.55.99-1.81,2.17-3.79.44.86.87,1.71,1.29,2.56.67,1.18,1.24,1.88,1.71,2.1,1.23.1,3.08.14,5.54.12.1-.73.22-1.49.37-2.29.6-.86,1.43-1.81,2.48-2.87-.77,3.08-1.13,4.76-1.08,5.04l.04.12h3.83c-.01-.23-.04-.57-.08-1.02-.09-.7-.25-1.23-.48-1.58.53-.76,1.34-1.82,2.44-3.19v3.38c0,1.32.16,1.98.48,1.98.29.28.51.42.63.42h.67v3.94Z"/>
  <path class="cls-1" d="M246.42,34.66h-3.27c-.29,0-.48-.21-.56-.63l-.31-1.85c-.47.65-1.06,1.48-1.77,2.48h-5.79v-3.94h7.33l-1.9-12.13c.74-1.04,1.73-2.39,2.96-4.06.08.67.33,3.24.75,7.73l.63,7.13c0,.88.34,1.33,1.02,1.33h.9v3.94Z"/>
  <path class="cls-1" d="M271.47,34.66h-5.23l-.44-2.96c-.58-.08-2.15-.12-4.73-.12-.74,0-2.01.51-3.8,1.54-1.79,1.03-3.07,1.54-3.84,1.54h-7.63v-3.94h8.38c.78,0,1.81-.24,3.08-.71,1.18-.44,1.77-.74,1.77-.9-3.19-1.26-5.17-1.86-5.94-1.81-.73.04-1.79.42-3.19,1.13-.1,0,.06-.39.5-1.17,1.28-2.27,2.65-3.47,4.1-3.62.19-.03.38-.04.58-.04,1.13,0,2.4.33,3.81.98,2.4,1.1,3.93,1.74,4.6,1.92,2.54.68,4.58,1.02,6.12,1.02-.3.92-.67,1.99-1.12,3.19h3v3.94ZM259.93,40.33c.49,0,.26.42-.69,1.26-.95.84-1.51,1.26-1.67,1.26-2.03-1.03-3.04-1.63-3.04-1.81,0-.12.37-.54,1.11-1.27.74-.73,1.17-1.1,1.3-1.1.05,0,.54.28,1.46.83.92.55,1.44.83,1.54.83Z"/>
  <path class="cls-1" d="M288.16,30.33c0,.1-.36.75-1.08,1.93-.72,1.19-1.15,1.84-1.29,1.95l-7.1-2.56c-.36.08-.79.62-1.29,1.63-.47.96-.9,1.42-1.27,1.37h-5.35v-3.94h6.38l.04-.12c.28-.65.74-1.62,1.37-2.9.9-1.65,2.21-2.9,3.94-3.75.09,0,.52-.17,1.3-.51.78-.34,1.37-.51,1.78-.51s.63.1.71.31c.08.37.22.92.42,1.65.21.6.51,1.49.9,2.67.35,1.05.52,1.97.52,2.77ZM284.85,29.58c-.26-.69-.48-1.26-.67-1.71-.4-.86-.7-1.3-.9-1.33-.55,0-1.1.13-1.65.4-.29.18-.58.35-.87.5l-.4.29,4.5,1.85Z"/>
  <path class="cls-1" d="M6.27,64.86c0,5.92,2.54,6.87,4.74,6.87,2.58,0,4.74-1.08,4.74-7.16v-9.54c0-.6.25-.73.7-.8.92-.1,2.16-.13,2.8-.13-.06,1.27-.1,3.15-.1,5.79v4.52c0,8.91-4.71,10.18-8.59,10.18-5.38,0-8.27-2.77-8.27-9.61v-6.52c0-2.13-.03-3.44-.1-4.1.57-.1,2.77-.25,3.4-.25.57,0,.67.29.67,1.85v8.91Z"/>
  <path class="cls-1" d="M26.79,68.65c-.73,1.85-1.65,4.2-2.07,5.22-.13.29-.38.45-.89.45-.7,0-2.1-.19-2.8-.41v-.13c1.65-3.88,6.62-15.72,7.83-18.61l-.25-.67c1.18-.25,2.96-.38,3.34-.38.29,0,.57.19.73.57,1.46,3.5,3.88,9.77,4.99,12.53,1.3,3.25,2.07,5.25,2.71,6.59v.13c-.7.22-2.86.38-3.56.38-.51,0-.76-.16-1.08-1.02-.57-1.62-1.02-2.83-1.75-4.65h-7.19ZM33.22,66.01c-1.46-3.94-2.42-6.33-2.77-7.35-.79,2.1-1.69,4.61-2.77,7.35h5.54Z"/>
  <path class="cls-1" d="M43.27,58.69c0-1.53,0-2.67-.1-4.01.89-.22,2.29-.41,3.59-.45h7.73c-.19,1.43-.57,2.04-.96,2.45-.48.19-1.56.19-2.99.19h-3.31v5.69h6.94c-.29,2.23-.99,2.64-2.1,2.64h-4.84v6.24c.73.16,1.75.22,2.96.22,1.3,0,3.63,0,5.15-.13l.06.06c-.29,1.37-.89,2.1-1.69,2.54-.45.1-1.88.16-4.33.16-2.8,0-4.9-.16-5.66-.32l-.48-.6v-14.7Z"/>
  <path class="cls-1" d="M81.29,54.55c.48-.25,2.61-.45,3.37-.45.32,0,.51.19.6.99l1.69,11.71c.51,3.34.86,5.69,1.15,7.22-.54.16-2.54.29-3.18.29-.41,0-.83-.16-.89-.8-.19-1.62-.38-3.34-.73-6.71l-.92-7.99c-.89,2.77-2.77,8.05-4.8,14.03-.22.64-.45.89-1.15,1.05-.57.1-1.34.22-1.97.22-.76-2.48-3.56-10.91-4.99-15.24-.45,3.91-1.4,11.2-1.88,14.92-.06.35-.22.51-.57.51-.86,0-2.32,0-2.83-.29.57-3.37,1.84-11.61,3.09-18.87l-.1-.6c.79-.16,1.94-.45,3.47-.45.48.13.73.57,1.3,2.2l4.29,11.87c1.59-4.17,3.72-9.89,5.06-13.14v-.48Z"/>
  <path class="cls-1" d="M91.89,58.69c0-1.53,0-2.67-.1-4.01.89-.22,2.29-.41,3.59-.45h7.73c-.19,1.43-.57,2.04-.96,2.45-.48.19-1.56.19-2.99.19h-3.31v5.69h6.94c-.29,2.23-.99,2.64-2.1,2.64h-4.84v6.24c.73.16,1.75.22,2.96.22,1.3,0,3.63,0,5.15-.13l.06.06c-.29,1.37-.89,2.1-1.69,2.54-.45.1-1.88.16-4.33.16-2.8,0-4.9-.16-5.66-.32l-.48-.6v-14.7Z"/>
  <path class="cls-1" d="M107.12,58.27c0-2.2-.03-2.8-.06-3.63.7-.16,3.91-.6,6.52-.6,9.58,0,11.29,5.76,11.29,9.83,0,6.87-4.93,10.56-11.45,10.56-2.35,0-4.26-.19-6.3-.6v-15.56ZM111.1,71.7c.76.19,1.62.25,2.48.25,2.86,0,7.03-1.37,7.03-8.02,0-4.8-2.74-7.41-7.48-7.41-.99,0-1.56.06-2.04.16v15.02Z"/>
  <path class="cls-1" d="M128.63,58.4c0-2.13-.03-3.44-.1-4.04.57-.1,2.77-.25,3.44-.25.54,0,.64.29.64,1.72v14.32c0,2.23.06,3.28.1,3.91-.54.16-2.67.25-3.4.25-.48,0-.67-.1-.67-.64v-15.27Z"/>
  <path class="cls-1" d="M141.3,68.65c-.73,1.85-1.65,4.2-2.07,5.22-.13.29-.38.45-.89.45-.7,0-2.1-.19-2.8-.41v-.13c1.65-3.88,6.62-15.72,7.83-18.61l-.25-.67c1.18-.25,2.96-.38,3.34-.38.29,0,.57.19.73.57,1.46,3.5,3.88,9.77,4.99,12.53,1.3,3.25,2.07,5.25,2.71,6.59v.13c-.7.22-2.86.38-3.56.38-.51,0-.76-.16-1.08-1.02-.57-1.62-1.02-2.83-1.75-4.65h-7.19ZM147.72,66.01c-1.46-3.94-2.42-6.33-2.77-7.35-.79,2.1-1.69,4.61-2.77,7.35h5.54Z"/>
  <path class="cls-1" d="M180.17,71c-.09,1.08-.51,2-1.05,2.51-.79.51-2.48,1.08-4.61,1.08-7.25,0-11.17-4.14-11.17-10.21,0-6.59,4.99-10.63,11.29-10.63,3.02,0,5.34,1.02,5.85,1.59.06,1.08-.67,2.16-1.69,2-.96-.41-2.45-.86-4.2-.86-3.85,0-7,2.51-7,7.6,0,4.33,2.77,7.64,7.83,7.64,2.13,0,3.82-.54,4.65-.8l.09.06Z"/>
  <path class="cls-1" d="M192.3,53.76c6.43,0,10.15,4.65,10.15,10.24s-3.53,10.59-10.28,10.59c-7.35,0-10.24-5.44-10.24-10.24,0-6.01,3.85-10.59,10.34-10.59h.03ZM191.91,56.24c-3.12,0-5.69,2.51-5.69,7.73s2.89,8.14,6.24,8.14c3.56,0,5.76-2.86,5.76-7.83,0-4.52-2.32-8.05-6.27-8.05h-.03Z"/>
  <path class="cls-1" d="M210.08,64.86c0,5.92,2.54,6.87,4.74,6.87,2.58,0,4.74-1.08,4.74-7.16v-9.54c0-.6.25-.73.7-.8.92-.1,2.16-.13,2.8-.13-.06,1.27-.1,3.15-.1,5.79v4.52c0,8.91-4.71,10.18-8.59,10.18-5.38,0-8.27-2.77-8.27-9.61v-6.52c0-2.13-.03-3.44-.1-4.1.57-.1,2.77-.25,3.4-.25.57,0,.67.29.67,1.85v8.91Z"/>
  <path class="cls-1" d="M227.17,54.52v-.16c.6-.1,3.34-.25,3.91-.25.32,0,.57.22.89.57,1.02,1.46,3.63,5.44,5.92,8.97,1.43,2.26,2.61,4.04,3.37,5.66-.19-2.45-.16-3.69-.16-5.28v-8.88c0-.73.22-.86.67-.92.99-.1,1.85-.13,2.58-.13-.06,1.37-.1,3.21-.1,5.85v14.03c-.29.13-2.1.51-3.02.51-.38,0-.57-.13-.79-.45-1.65-2.29-3.28-4.77-5.79-8.65-1.69-2.67-2.61-4.45-3.91-6.9.19,3.21.16,4.87.16,6.49v8.34c0,.67-.19.76-.7.86-.57.1-1.59.16-2.55.13.06-1.27.1-3.12.1-5.79v-13.2l-.57-.8Z"/>
  <path class="cls-1" d="M265,71c-.09,1.08-.51,2-1.05,2.51-.79.51-2.48,1.08-4.61,1.08-7.25,0-11.17-4.14-11.17-10.21,0-6.59,4.99-10.63,11.29-10.63,3.02,0,5.34,1.02,5.85,1.59.06,1.08-.67,2.16-1.69,2-.96-.41-2.45-.86-4.2-.86-3.85,0-7,2.51-7,7.6,0,4.33,2.77,7.64,7.83,7.64,2.13,0,3.82-.54,4.65-.8l.09.06Z"/>
  <path class="cls-1" d="M268.34,58.4c0-2.13-.03-3.44-.1-4.04.57-.1,2.77-.25,3.44-.25.54,0,.64.29.64,1.72v14.32c0,2.23.06,3.28.1,3.91-.54.16-2.67.25-3.4.25-.48,0-.67-.1-.67-.64v-15.27Z"/>
  <path class="cls-1" d="M277.34,58.47c0-2.13-.03-3.44-.1-4.1.7-.1,2.23-.25,3.44-.25.54,0,.64.29.64,1.88v15.46c.6.16,1.69.22,2.86.22,1.3,0,3.25,0,4.8-.16l.03.06c-.19,1.24-.83,2.13-1.62,2.58-.45.1-1.56.16-4.01.16-2.64,0-4.77-.16-5.57-.32l-.48-.6v-14.92Z"/>
</svg>