<?xml version="1.0" encoding="UTF-8"?>
<svg id="Layer_1" data-name="Layer 1" xmlns="http://www.w3.org/2000/svg" viewBox="0 0 742.32 167.79">
  <defs>
    <style>
      .cls-1 {
        fill: #00a651;
      }

      .cls-2 {
        fill: #231f20;
      }

      .cls-3 {
        fill: #ed1c24;
      }
    </style>
  </defs>
  <polygon class="cls-2" points=".12 121.97 .12 100.11 12.99 100.11 12.99 104.06 4.8 104.06 4.8 108.55 12.99 108.55 12.99 112.53 4.8 112.53 4.8 121.97 .12 121.97"/>
  <polygon class="cls-2" points="24.89 121.97 24.89 100.11 37.77 100.11 37.77 104.06 29.57 104.06 29.57 108.55 37.77 108.55 37.77 112.53 29.57 112.53 29.57 118 37.77 118 37.77 121.97 24.89 121.97"/>
  <path class="cls-2" d="M50.64,121.97v-21.86h5.96c2.35,0,4.2.16,5.55.49,1.36.33,2.54.88,3.57,1.64,1.32.98,2.33,2.23,3.01,3.73.68,1.5,1.02,3.21,1.02,5.12s-.35,3.66-1.04,5.16c-.7,1.5-1.72,2.74-3.06,3.71-1,.72-2.1,1.23-3.32,1.55-1.22.31-3,.47-5.35.47h-6.33ZM55.32,118.03h2.6c2.45,0,4.23-.56,5.35-1.67,1.12-1.12,1.68-2.88,1.68-5.3s-.56-4.17-1.68-5.29c-1.12-1.12-2.91-1.68-5.35-1.68h-2.6v13.94Z"/>
  <polygon class="cls-2" points="81.96 121.97 81.96 100.11 94.83 100.11 94.83 104.06 86.63 104.06 86.63 108.55 94.83 108.55 94.83 112.53 86.63 112.53 86.63 118 94.83 118 94.83 121.97 81.96 121.97"/>
  <path class="cls-2" d="M112.38,109.44h.7c1.89,0,3.13-.21,3.74-.62.61-.41.91-1.13.91-2.16,0-1.08-.33-1.84-.98-2.29-.65-.45-1.87-.68-3.67-.68h-.7v5.75ZM123.51,121.97h-5.39l-5.74-10.21v10.21h-4.68v-21.86h6.7c2.66,0,4.64.51,5.97,1.55,1.32,1.03,1.98,2.58,1.98,4.65,0,1.5-.45,2.79-1.36,3.85-.91,1.07-2.07,1.69-3.51,1.87l6.02,9.94Z"/>
  <path class="cls-2" d="M131.92,121.97l8.32-21.86h5.35l8.44,21.86h-5.31l-1.78-4.65h-8.47l-1.52,4.65h-5.02ZM145.85,113.66l-2.45-7.06c-.07-.21-.16-.57-.27-1.08-.11-.51-.22-1.13-.35-1.87-.13.71-.26,1.35-.37,1.91-.12.57-.21.94-.27,1.13l-2.36,6.98h6.06Z"/>
  <polygon class="cls-2" points="164.61 121.97 164.61 100.11 169.29 100.11 169.29 118 176.75 118 176.75 121.97 164.61 121.97"/>
  <polygon class="cls-2" points="214.93 104.09 214.93 121.97 210.25 121.97 210.25 104.09 204.9 104.09 204.9 100.11 220.28 100.11 220.28 104.09 214.93 104.09"/>
  <path class="cls-2" d="M227.36,121.97l8.32-21.86h5.35l8.44,21.86h-5.31l-1.78-4.65h-8.47l-1.52,4.65h-5.02ZM241.28,113.66l-2.45-7.06c-.07-.21-.16-.57-.27-1.08-.11-.51-.22-1.13-.35-1.87-.13.71-.26,1.35-.37,1.91-.12.57-.21.94-.27,1.13l-2.36,6.98h6.06Z"/>
  <path class="cls-2" d="M265.8,105.83c.24.41.43.77.57,1.09.14.31.26.64.37.99.13-.36.27-.71.43-1.06.16-.35.35-.72.58-1.11l3.09-5.63h4.96l-6.52,10.42,6.73,11.44h-5.05l-3.24-6.06c-.2-.37-.38-.75-.53-1.15-.15-.4-.3-.82-.42-1.26-.17.52-.34.98-.51,1.39-.17.41-.33.76-.49,1.06l-3.24,6.02h-5.02l6.75-11.44-6.57-10.42h4.98l3.12,5.72Z"/>
  <path class="cls-2" d="M293.48,121.97l8.32-21.86h5.35l8.44,21.86h-5.31l-1.78-4.65h-8.47l-1.52,4.65h-5.02ZM307.41,113.66l-2.45-7.06c-.07-.21-.16-.57-.27-1.08-.11-.51-.22-1.13-.35-1.87-.13.71-.26,1.35-.37,1.91-.12.57-.21.94-.27,1.13l-2.36,6.98h6.06Z"/>
  <path class="cls-2" d="M344.44,100.11v13.61c0,2.96-.78,5.18-2.34,6.64-1.56,1.46-3.92,2.19-7.07,2.19s-5.58-.73-7.14-2.19c-1.56-1.46-2.34-3.68-2.34-6.64v-13.61h4.65v12.88c0,1.8.4,3.16,1.19,4.07.8.91,1.99,1.37,3.57,1.37s2.8-.46,3.61-1.38c.82-.92,1.22-2.27,1.22-4.06v-12.88h4.65Z"/>
  <polygon class="cls-2" points="365.73 104.09 365.73 121.97 361.05 121.97 361.05 104.09 355.7 104.09 355.7 100.11 371.08 100.11 371.08 104.09 365.73 104.09"/>
  <polygon class="cls-2" points="382.43 121.97 382.43 100.11 387.11 100.11 387.11 108.89 396.59 108.89 396.59 100.11 401.26 100.11 401.26 121.97 396.59 121.97 396.59 112.83 387.11 112.83 387.11 121.97 382.43 121.97"/>
  <path class="cls-2" d="M425.15,118.4c1.98,0,3.62-.69,4.91-2.08,1.29-1.39,1.94-3.12,1.94-5.22s-.65-3.81-1.96-5.22c-1.3-1.41-2.94-2.12-4.89-2.12s-3.62.7-4.93,2.11c-1.3,1.41-1.96,3.15-1.96,5.23s.64,3.86,1.93,5.23c1.28,1.38,2.94,2.07,4.96,2.07M436.79,111.09c0,1.56-.29,3.04-.87,4.43-.59,1.4-1.42,2.62-2.52,3.67-1.13,1.09-2.41,1.92-3.84,2.49-1.42.58-2.89.87-4.42.87-1.33,0-2.64-.22-3.91-.68-1.28-.45-2.45-1.11-3.52-1.95-1.38-1.1-2.43-2.4-3.16-3.92-.73-1.52-1.1-3.16-1.1-4.91,0-1.57.29-3.05.87-4.43.58-1.38,1.42-2.6,2.54-3.68,1.1-1.07,2.36-1.89,3.81-2.48,1.45-.59,2.94-.88,4.47-.88s3.01.3,4.44.88c1.44.59,2.71,1.41,3.81,2.48,1.11,1.08,1.95,2.3,2.52,3.69.58,1.38.87,2.85.87,4.42Z"/>
  <path class="cls-2" d="M453.7,109.44h.7c1.89,0,3.13-.21,3.74-.62.61-.41.91-1.13.91-2.16,0-1.08-.33-1.84-.98-2.29-.65-.45-1.87-.68-3.67-.68h-.7v5.75ZM464.83,121.97h-5.39l-5.74-10.21v10.21h-4.68v-21.86h6.7c2.66,0,4.64.51,5.97,1.55,1.32,1.03,1.98,2.58,1.98,4.65,0,1.5-.45,2.79-1.36,3.85-.91,1.07-2.07,1.69-3.51,1.87l6.02,9.94Z"/>
  <rect class="cls-2" x="475.94" y="100.11" width="4.68" height="21.86"/>
  <polygon class="cls-2" points="502.05 104.09 502.05 121.97 497.37 121.97 497.37 104.09 492.02 104.09 492.02 100.11 507.4 100.11 507.4 104.09 502.05 104.09"/>
  <path class="cls-2" d="M523.25,121.97v-9.98l-7.4-11.88h5.47l3.24,5.99c.16.3.33.68.49,1.14.17.46.34.98.52,1.58.14-.5.3-.98.47-1.43.17-.45.37-.89.59-1.31l3.22-5.96h5.47l-7.4,11.88v9.98h-4.68Z"/>
  <path class="cls-2" d="M34.64,68.65h-6.93v-7.93h-5.03v6.77c0,.37-.04.62-.12.75-.08.13-.18.22-.29.28-.12.06-.23.1-.32.11-.08.01-.17.02-.26.02H6.25c-.27,0-.46-.03-.58-.11-.28-.11-.46-.32-.53-.64-.08-.3-.11-.69-.11-1.19v-5.99H0v9.13C0,70.68.03,71.27.11,71.61c.14.58.41,1.05.84,1.42.29.25.6.41.92.48.31.08.71.11,1.21.11h31.57v-4.97ZM13.62,76.11c-.61,0-1.1.22-1.46.67-.36.45-.54.94-.54,1.5s.19,1.08.59,1.52c.39.45.92.67,1.57.67h.23c.63,0,1.12-.21,1.48-.65.36-.43.54-.93.54-1.5s-.18-1.09-.55-1.51c-.41-.47-.95-.71-1.61-.71h-.25Z"/>
  <rect class="cls-2" x="29.21" y="68.72" width="12.09" height="4.97"/>
  <rect class="cls-2" x="39.08" y="68.72" width="12.09" height="4.97"/>
  <path class="cls-2" d="M52.69,57.83l-.07,1.28h4.43c.24,0,.39-.04.44-.13.06-.1.09-.28.09-.56v-.58h-1.85c-.25,0-.49-.08-.71-.22-.23-.16-.35-.35-.36-.57v-.09c0-.25.11-.46.34-.65.23-.19.48-.28.74-.28h1.85v-1.21h-1.86c-.55,0-1.03.11-1.45.35-.43.24-.68.57-.77,1.02v.37c0,.49.15.93.44,1.29h-1.26ZM48.96,73.69h6.42c.43,0,.8-.06,1.11-.16.31-.1.59-.29.84-.56.18-.22.29-.45.36-.67.07-.22.1-.48.1-.75v-10.77h-5.03v6.77c0,.28-.03.5-.1.68-.07.18-.18.3-.34.37-.16.08-.35.11-.55.11h-2.81v4.97Z"/>
  <rect class="cls-2" x="64.66" y="44.65" width="5.03" height="29.04"/>
  <path class="cls-2" d="M88.76,73.62v-4.97h-6.11v-7.93h-5.03v15.43c0,.54-.06.97-.16,1.31-.1.33-.31.63-.63.9-.32.27-.68.45-1.06.53-.4.08-.86.12-1.38.12h-2.2v4.84h2.77c1.49,0,2.74-.2,3.75-.59,1.14-.46,2.11-1.21,2.89-2.25.46-.64.78-1.32.95-2.07.14-.57.2-1.32.2-2.25,0-.28-.01-.56-.05-.84-.03-.28-.06-.57-.06-.86v-1.34h6.11Z"/>
  <rect class="cls-2" x="83.4" y="68.72" width="12.09" height="4.97"/>
  <rect class="cls-2" x="93.27" y="68.72" width="12.09" height="4.97"/>
  <rect class="cls-2" x="103.14" y="68.72" width="12.09" height="4.97"/>
  <path class="cls-2" d="M129.94,49.15c-.63,0-1.14.21-1.51.65-.36.43-.54.93-.54,1.5s.19,1.1.59,1.55c.4.45.93.67,1.6.67h.23c.66,0,1.18-.24,1.56-.71.34-.4.51-.9.51-1.47s-.18-1.06-.55-1.49c-.42-.47-.97-.71-1.65-.71h-.23ZM121.37,68.65l.07-3.95c0-.52.14-1.01.4-1.49.23-.4.57-.81,1.01-1.23.48-.41.96-.73,1.47-.94.5-.21,1.06-.31,1.69-.31h11.15c.74,0,1.37.09,1.91.28.53.19,1.02.52,1.43.97.33.39.57.81.7,1.23.15.43.22.92.22,1.49v3.95h-20.04ZM113.08,68.65l-.14,5.04h39.41v-5.04h-5.92v-4.17c0-1.37-.28-2.57-.85-3.63-.5-.93-1.31-1.87-2.43-2.82-.93-.76-1.79-1.32-2.6-1.67-.95-.41-1.98-.62-3.09-.62h-8.56c-.98,0-1.81.08-2.46.24-.66.16-1.42.46-2.28.9-.62.35-1.12.67-1.52,1-.4.32-.79.75-1.21,1.28v-3.41h-5.03v12.91h-3.33Z"/>
  <rect class="cls-2" x="147.83" y="68.72" width="12.09" height="4.97"/>
  <polygon class="cls-2" points="157.68 73.69 176.4 73.69 176.4 68.72 169.45 68.72 169.45 44.65 164.43 44.65 164.43 68.72 157.68 68.72 157.68 73.69"/>
  <rect class="cls-2" x="170.92" y="68.72" width="12.09" height="4.97"/>
  <polygon class="cls-2" points="180.8 68.72 180.73 73.69 192.41 73.69 192.41 44.65 187.39 44.65 187.39 68.72 180.8 68.72"/>
  <path class="cls-2" d="M214.37,49.69c-.62,0-1.12.22-1.47.66-.35.44-.53.94-.53,1.52s.19,1.12.59,1.57c.38.46.92.68,1.57.68h.23c.65,0,1.14-.22,1.49-.66.35-.44.53-.95.53-1.55s-.18-1.09-.55-1.51c-.41-.48-.95-.72-1.61-.72h-.25ZM220.25,49.76c-.63,0-1.14.21-1.51.64-.36.43-.54.93-.54,1.5s.19,1.11.59,1.56c.4.45.93.67,1.6.67h.23c.66,0,1.17-.21,1.53-.65.36-.44.54-.94.54-1.51s-.18-1.08-.56-1.5c-.42-.47-.97-.71-1.65-.71h-.23ZM223.98,64.01v4.64h-7.65c-.63,0-1.21-.22-1.71-.66-.51-.44-.76-.96-.76-1.56,0-.66.24-1.23.72-1.7.48-.48,1.06-.72,1.74-.72h7.65ZM236.4,68.65h-6.85v-12.86h-5.57v3.05h-7.87c-2.14,0-4.01.74-5.62,2.21-1.61,1.47-2.41,3.24-2.41,5.3v.3c0,2.01.81,3.71,2.45,5.1,1.57,1.34,3.43,2.02,5.57,2.02h7.03l.82-1.01.71,1.01h11.74v-5.11Z"/>
  <rect class="cls-2" x="230.87" y="68.72" width="12.09" height="4.97"/>
  <path class="cls-2" d="M240.75,73.69h10.13c.44,0,.82-.06,1.13-.16.31-.1.59-.29.84-.57.18-.21.29-.44.36-.67.07-.22.1-.48.1-.75v-10.82h-5.03v6.82c0,.28-.03.52-.1.68-.07.18-.18.31-.34.38-.17.08-.35.11-.55.11h-6.54v4.97ZM244.27,75.64c-.62,0-1.12.21-1.48.65-.36.43-.54.94-.54,1.52s.19,1.08.59,1.52c.38.45.92.67,1.57.67h.23c.64,0,1.14-.21,1.49-.65.35-.43.53-.93.53-1.5s-.18-1.09-.55-1.51c-.41-.47-.95-.71-1.61-.71h-.23ZM250.13,75.64c-.63,0-1.14.21-1.51.65-.36.43-.54.94-.54,1.52s.19,1.08.59,1.52c.4.45.93.67,1.6.67h.23c.66,0,1.17-.21,1.53-.65.36-.43.54-.93.54-1.5s-.18-1.09-.56-1.51c-.42-.47-.97-.71-1.65-.71h-.23Z"/>
  <path class="cls-2" d="M268.43,65.52v3.13h-10.55v5.04h12.92c.44,0,.84-.06,1.17-.16.33-.1.63-.29.89-.57.24-.28.4-.56.48-.86.08-.3.12-.66.12-1.06v-6.15c0-1.31-.2-2.45-.6-3.43-.4-.99-1.04-1.94-1.95-2.88-1.01-1.09-2.17-1.85-3.5-2.29-1.13-.37-2.57-.55-4.35-.55h-5.19v4.97h4.42c1.1,0,1.91.06,2.42.18.79.17,1.47.55,2.07,1.12.52.49.92,1.03,1.19,1.6.27.57.41,1.21.41,1.9h.05Z"/>
  <polygon class="cls-2" points="296.2 68.72 285.96 68.72 285.96 44.65 280.93 44.65 280.93 73.69 296.2 73.69 296.2 68.72"/>
  <path class="cls-2" d="M292.97,73.69h33.86v-5.04h-5.99v-4.76c0-1.19-.21-2.22-.64-3.1-.43-.89-1.09-1.76-1.97-2.62-.97-.94-2.05-1.59-3.22-1.96-1-.3-2.3-.46-3.93-.46h-10.35v4.97h10.48c.76,0,1.42.09,1.96.26.54.17,1.05.48,1.51.95.42.43.7.91.87,1.45.17.55.26,1.17.26,1.85v3.43h-22.85v5.04Z"/>
  <rect class="cls-2" x="322.26" y="68.72" width="12.09" height="4.97"/>
  <path class="cls-2" d="M335.07,54.67c-.63,0-1.14.22-1.51.66-.36.44-.54.95-.54,1.54s.19,1.1.59,1.56c.4.46.93.68,1.6.68h.23c.66,0,1.17-.22,1.53-.66.36-.44.54-.95.54-1.53s-.18-1.09-.55-1.52c-.42-.48-.97-.72-1.65-.72h-.23ZM341,54.67c-.66,0-1.17.22-1.53.66-.36.44-.54.95-.54,1.54s.19,1.1.59,1.56c.4.46.94.68,1.62.68h.23c.63,0,1.14-.22,1.51-.66.36-.44.54-.95.54-1.53s-.18-1.09-.55-1.52c-.42-.48-.96-.72-1.63-.72h-.23ZM332.14,73.69h8.14c.44,0,.82-.06,1.11-.16.31-.1.58-.29.81-.56.18-.22.29-.45.36-.67.07-.22.1-.48.1-.75v-10.77h-5.03v6.82c0,.28-.03.52-.1.68-.07.18-.18.31-.34.38-.17.08-.35.11-.55.11h-4.51v4.91Z"/>
  <path class="cls-2" d="M348.5,44.65v20.84h5.03v-20.84h-5.03ZM348.5,73.69h14.54v-29.04h-5.03v24h-9.51v5.04Z"/>
  <rect class="cls-2" x="368.02" y="44.65" width="5.03" height="29.04"/>
  <path class="cls-2" d="M392.92,49.69c-.62,0-1.12.22-1.47.66-.35.44-.53.94-.53,1.52s.19,1.12.59,1.57c.38.46.92.68,1.57.68h.23c.65,0,1.14-.22,1.49-.66.35-.44.53-.95.53-1.55s-.18-1.09-.55-1.51c-.41-.48-.95-.72-1.61-.72h-.25ZM398.81,49.76c-.63,0-1.14.21-1.51.64-.36.43-.54.93-.54,1.5s.19,1.11.59,1.56c.4.45.93.67,1.6.67h.23c.66,0,1.17-.21,1.53-.65.36-.44.54-.94.54-1.51s-.18-1.08-.55-1.5c-.42-.47-.97-.71-1.65-.71h-.23ZM402.54,64.01v4.64h-7.65c-.63,0-1.21-.22-1.71-.66-.51-.44-.76-.96-.76-1.56,0-.66.24-1.23.72-1.7.48-.48,1.06-.72,1.74-.72h7.65ZM414.96,68.65h-6.85v-12.86h-5.57v3.05h-7.87c-2.14,0-4.01.74-5.62,2.21-1.61,1.47-2.41,3.24-2.41,5.3v.3c0,2.01.82,3.71,2.45,5.1,1.57,1.34,3.43,2.02,5.57,2.02h7.03l.81-1.01.71,1.01h11.74v-5.11Z"/>
  <rect class="cls-2" x="409.43" y="68.72" width="12.09" height="4.97"/>
  <rect class="cls-2" x="419.3" y="68.72" width="12.09" height="4.97"/>
  <path class="cls-2" d="M433.05,57.89v1.21h4.4c.24,0,.39-.04.45-.13.07-.09.1-.26.1-.53v-.55h-1.94c-.26,0-.51-.08-.75-.22-.24-.16-.36-.35-.37-.57v-.09c0-.25.11-.46.35-.65.24-.19.5-.28.77-.28h1.94v-1.21h-1.94c-.57,0-1.05.11-1.49.35-.43.24-.69.57-.78,1.02v.37c0,.49.17.93.51,1.29h-1.26ZM429.18,68.72l-.07,4.97h15.69v-4.97h-6.79v-7.93h-4.96v6.81c-.03.37-.08.62-.16.74-.08.12-.2.22-.39.31-.18.09-.36.11-.55.07h-2.77Z"/>
  <rect class="cls-2" x="439.37" y="68.72" width="12.09" height="4.97"/>
  <path class="cls-2" d="M449.1,68.72v4.97h22.08v-4.97h-7.61v-8h-5.64v6.71c0,.32-.03.58-.09.76-.06.17-.19.31-.39.43-.2.11-.42.15-.66.1h-7.7ZM454.88,75.84c-.74,0-1.3.24-1.68.71-.37.47-.57,1.04-.57,1.7s.21,1.23.66,1.74c.44.5,1.03.76,1.77.76h.25c.72,0,1.29-.25,1.69-.75.35-.45.53-1,.53-1.66s-.2-1.23-.6-1.7c-.44-.53-1.05-.8-1.82-.8h-.23ZM461.47,75.84c-.74,0-1.3.24-1.68.71-.37.47-.57,1.04-.57,1.7s.22,1.24.63,1.75c.42.5,1.02.75,1.79.75h.25c.73,0,1.29-.25,1.69-.75.35-.45.53-1,.53-1.66s-.2-1.23-.6-1.7c-.44-.53-1.05-.8-1.82-.8h-.23Z"/>
  <rect class="cls-2" x="464.98" y="68.72" width="12.09" height="4.97"/>
  <path class="cls-2" d="M494.57,65.51c.26.4.48.82.63,1.25.15.43.23.85.23,1.29v.59h-3.67v-4.97c1.18.25,2.09.84,2.76,1.79l.05.05ZM486.67,63.64v5.01h-3.62l-.05-.59c0-.94.28-1.79.86-2.57.67-.97,1.58-1.57,2.76-1.8l.05-.04ZM474.71,73.69h32.91v-5.04h-6.93v-.2c0-1.43-.17-2.64-.51-3.65-.34-1-.95-2.06-1.86-3.17-.89-1.11-1.87-1.97-2.9-2.58-1.03-.6-2.28-1.01-3.74-1.2v-2.11h-5.03v2.12c-1.43.26-2.64.68-3.63,1.27-1,.58-1.91,1.42-2.76,2.52-.79,1-1.37,2.01-1.74,3.03-.36,1.02-.55,2.16-.55,3.43v.55h-3.22l-.05,5.04Z"/>
  <rect class="cls-2" x="502.26" y="68.72" width="12.09" height="4.97"/>
  <polygon class="cls-2" points="512.13 68.72 512.06 73.69 523.75 73.69 523.75 44.65 518.72 44.65 518.72 68.72 512.13 68.72"/>
  <rect class="cls-2" x="530.43" y="44.65" width="5.03" height="29.04"/>
  <path class="cls-1" d="M582.71,40.77c-2.12,0-3.84-1.72-3.84-3.84s1.72-3.84,3.84-3.84h76.13c2.12,0,3.84,1.72,3.84,3.84s-1.72,3.84-3.84,3.84h-76.13Z"/>
  <path class="cls-1" d="M594.8,28.11c-2.12,0-3.84-1.72-3.84-3.84s1.72-3.84,3.84-3.84h51.7c2.12,0,3.84,1.72,3.84,3.84s-1.72,3.84-3.84,3.84h-51.7Z"/>
  <path class="cls-1" d="M612.81,15.65c-2.12,0-3.84-1.7-3.84-3.8s1.72-3.8,3.84-3.8h21.68c2.12,0,4.99,1.7,4.99,3.8s1.08,3.8-1.04,3.8h-25.63Z"/>
  <path class="cls-1" d="M629.37,7.56c-1.37-1.61-1.17-4.03.45-5.4,1.61-1.37,4.03-1.17,5.4.45l56.98,67.01.21,2.13c1.37,1.61,1.9,3.41.29,4.78-1.61,1.37-1.03,4.29-2.39,2.68l-60.93-71.65Z"/>
  <path class="cls-1" d="M644.17,6.31c-1.37-1.62-1.17-4.03.45-5.4,1.62-1.37,4.03-1.16,5.4.45l45.82,53.88.91,2.8c1.37,1.62.83,3.87-.78,5.24-1.62,1.37-1.11,2.64-2.48,1.03l-49.32-57.99Z"/>
  <path class="cls-1" d="M661.64,7.31c-1.37-1.62-1.17-4.03.45-5.4,1.62-1.37,4.03-1.17,5.4.45l33.49,39.39c1.37,1.62,1.17,4.03-.45,5.4-1.62,1.37-4.03,1.16-5.4-.45l-33.49-39.39Z"/>
  <path class="cls-1" d="M682.81,12.96c-1.37-1.61-1.19-4.01.41-5.36,1.59-1.35,3.99-1.15,5.36.46l16.6,19.53c1.37,1.61,1.19,4.01-.41,5.36-1.59,1.35-3.99,1.15-5.36-.46l-16.6-19.53Z"/>
  <path class="cls-3" d="M693.84,150.47c1.92.89,2.76,3.18,1.86,5.1-.89,1.92-3.18,2.76-5.1,1.86l-65.38-30.44-.62-1.81c-1.92-.89-2.81-2.89-1.92-4.82.89-1.92.22-2.93,2.15-2.03l69.01,32.13Z"/>
  <path class="cls-3" d="M677.54,156.85c1.92.89,2.75,3.18,1.86,5.1-.89,1.92-3.18,2.75-5.1,1.86l-46.87-21.82c-1.92-.89-2.75-3.18-1.86-5.1.89-1.92,3.18-2.75,5.1-1.86l46.87,21.82Z"/>
  <path class="cls-3" d="M655.95,160.54c1.92.89,2.76,3.16,1.88,5.07-.89,1.9-3.16,2.72-5.08,1.83l-23.24-10.82c-1.92-.89-2.76-3.16-1.88-5.07.89-1.9,3.16-2.72,5.08-1.83l23.24,10.82Z"/>
  <path class="cls-2" d="M700.84,19.93c.49-2.06,2.56-3.34,4.62-2.85,2.06.49,3.34,2.56,2.85,4.62l-19.72,82.78-.75,3.14-1.9,1.62c-.49,2.06-2.56,1.12-4.62.63-2.06-.49-3.17,1.39-2.68-.67l1.35-1.73,20.85-87.54Z"/>
  <path class="cls-2" d="M711.69,29.76c.49-2.06,2.56-3.34,4.62-2.85,2.06.49,3.34,2.56,2.85,4.62l-15.98,67.08-1.74,2.21c-.49,2.06-1.57,3.34-3.64,2.85-2.06-.49-4.24,2.21-3.75.15l17.64-74.05Z"/>
  <path class="cls-2" d="M722.16,43.54c.49-2.06,2.56-3.34,4.62-2.85,2.06.49,3.34,2.56,2.85,4.62l-11.98,50.3c-.49,2.06-3.54,1.53-5.61,1.04-2.06-.49-2.35-.75-1.86-2.81l11.98-50.3Z"/>
  <path class="cls-2" d="M730.92,63.92c.49-2.05,2.54-3.33,4.57-2.84,2.03.48,3.28,2.54,2.8,4.6l-4.82,20.25-2.02,1.4c-.49,2.05-1.71,3.33-3.75,2.84-2.03-.48-3.2.75-2.71-1.31l5.94-24.94Z"/>
  <path class="cls-2" d="M736.9,79.82c1.92-.88,4.19-.03,5.07,1.89.88,1.92.03,4.19-1.89,5.07l-81.87,37.46-2.69-.03c-1.92.88-3.23.18-4.1-1.74-.88-1.92-1.96-2.63-.04-3.51l85.52-39.14Z"/>
  <path class="cls-2" d="M734.08,94.4c1.92-.88,4.19-.03,5.07,1.89.88,1.92.03,4.19-1.89,5.07l-64.41,29.48-1.99-1.21c-1.92.88-4.64,1.07-5.52-.85-.88-1.92-2.4-1.82-.48-2.7l69.22-31.68Z"/>
  <path class="cls-2" d="M729.94,110.22c1.92-.88,4.19-.03,5.07,1.89.88,1.92.03,4.19-1.89,5.07l-47.01,21.52c-1.92.88-4.19.03-5.07-1.89-.88-1.92-.03-4.19,1.89-5.07l47.01-21.52Z"/>
  <path class="cls-2" d="M718.74,129.05c1.92-.88,4.18-.05,5.05,1.85.87,1.9.02,4.16-1.9,5.03l-20.03,9.17-2.91-.58c-1.92.88-2.7.2-3.57-1.7-.87-1.9-1.87-2.23.05-3.1l23.31-10.67Z"/>
  <path class="cls-3" d="M622.99,157.14c.48,2.06-.8,4.13-2.87,4.61-2.06.48-4.13-.8-4.61-2.87l-16.44-69.81,2.38-1.36c-.48-2.06-.82-2.92,1.25-3.4,2.06-.48,2.35-3.33,2.83-1.27l.53,2.26,16.92,71.84Z"/>
  <path class="cls-3" d="M607.63,149.53c.48,2.06-.8,4.13-2.86,4.61-2.06.48-4.13-.8-4.61-2.86l-11.85-50.33c-.48-2.06.8-4.13,2.86-4.61,2.06-.48,4.13.8,4.61,2.86l11.85,50.33Z"/>
  <path class="cls-3" d="M590.52,135.73c.48,2.05-.77,4.11-2.81,4.59-2.03.48-4.08-.8-4.56-2.85l-4.67-19.84,1.98-3.26c-.48-2.05-.2-3.9,1.83-4.38,2.03-.48,1.87-1.26,2.35.8l5.87,24.95Z"/>
  <path class="cls-3" d="M578,121.81c-1.37,1.61-3.78,1.82-5.4.45-1.61-1.37-1.82-3.78-.45-5.4l58.22-68.72,1.55.63c1.37-1.61,2.89-1.13,4.51.24,1.61,1.37,3.73-.57,2.37,1.04l-60.8,71.76Z"/>
  <path class="cls-3" d="M572.81,108.62c-1.37,1.62-3.79,1.82-5.4.45-1.62-1.37-1.82-3.79-.45-5.4l46.98-55.46,2.05,1.31c1.37-1.62,2.45-2.43,4.06-1.07,1.61,1.37,3.32.46,1.96,2.08l-49.21,58.08Z"/>
  <path class="cls-3" d="M569.8,91.76c-1.37,1.61-3.79,1.82-5.4.45-1.62-1.37-1.82-3.79-.45-5.4l33.42-39.45c1.37-1.62,3.79-1.82,5.4-.45,1.62,1.37,1.82,3.79.45,5.4l-33.42,39.45Z"/>
  <path class="cls-3" d="M571.12,70.04c-1.36,1.61-3.77,1.82-5.36.47-1.59-1.35-1.78-3.75-.42-5.36l14.05-16.58,2.45.8c1.36-1.61,2.33-2.16,3.92-.81,1.59,1.35,3.29.33,1.92,1.94l-16.57,19.56Z"/>
  <path class="cls-3" d="M706.77,143.16c1.92.89,2.75,3.18,1.86,5.1-.89,1.92-3.18,2.75-5.1,1.86l-85.26-39.7c-1.92-.89-.43-3.01.47-4.93.89-1.92.85-2.92,2.77-2.03l85.26,39.7Z"/>
  <path class="cls-3" d="M637.12,162.67c.48,2.06-.8,4.12-2.86,4.6-2.06.48-4.12-.8-4.6-2.86l-20.31-86.26,1.76-.97c-.48-2.06.32-3.3,2.38-3.78,2.06-.48,1.6-4.34,2.08-2.28l21.56,91.55Z"/>
  <path class="cls-1" d="M574.08,52.86c-2.12,0-3.84-1.72-3.84-3.84s1.72-3.84,3.84-3.84h94.05c2.12,0,3.84,1.72,3.84,3.84s-1.72,3.84-3.84,3.84h-94.05Z"/>
</svg>