<?xml version="1.0" encoding="UTF-8"?>
<svg id="Layer_1" data-name="Layer 1" xmlns="http://www.w3.org/2000/svg" viewBox="0 0 184.12 125.19">
  <defs>
    <style>
      .cls-1 {
        fill: #967d5f;
      }

      .cls-2 {
        fill: #304d61;
      }
    </style>
  </defs>
  <path class="cls-2" d="M25.94,4.19H2.96v8.12h12.54s0,.08,0,.12v38.44h9.4V12.3h13.35V4.19h-12.31Z"/>
  <path class="cls-2" d="M53.35,4.19h12.66c9.9,0,17.99,7.93,17.99,17.74v11.2c0,9.82-8.08,17.74-17.99,17.74h-21.49V12.43c0-4.53,3.95-8.24,8.84-8.24M74.59,21.93c0-5.28-3.82-9.62-8.59-9.62h-12.09v30.45h12.09c4.77,0,8.59-4.34,8.59-9.63v-11.2Z"/>
  <path class="cls-2" d="M119.27,36.71c6.77-2.01,11.53-7.36,11.53-14.91v-1.76c0-9.81-8.08-15.85-17.99-15.85h-12.66c-4.89,0-8.84,3.71-8.84,8.24v38.43h9.4v-13.21h7.83l11.59,13.21h11.72l-12.6-14.15ZM100.72,29.54V12.3h12.1c4.76,0,8.58,2.45,8.58,7.74v1.76c0,5.28-3.82,7.74-8.58,7.74h-12.1Z"/>
  <path class="cls-1" d="M166.84,11.8c-1.63-4.65-4.45-8.24-9.34-8.24s-7.71,3.59-9.34,8.24l-13.66,39.06h10.03l2.17-6.23,2.83-8.11,7.98-22.9,12.97,37.24h10.03l-13.66-39.06Z"/>
  <path class="cls-2" d="M26.52,77.98c.14-.14.22-.4.22-.77v-4.42c0-.12.06-.19.19-.19h2.28c.13,0,.19.06.19.19v5.32c0,.81-.17,1.41-.5,1.79-.34.38-.91.57-1.72.57h-9.72c-.79,0-1.35-.19-1.69-.57-.33-.38-.5-.98-.5-1.79v-4.13c0-.12.06-.18.19-.18h2.28c.12,0,.19.06.19.18v3.23c0,.38.07.63.21.77.14.14.37.22.69.22h7c.32,0,.56-.07.7-.22M19.91,71.81c-.12,0-.19-.06-.19-.19v-1.83c0-.12.06-.19.19-.19h1.87c.12,0,.19.06.19.19v1.83c0,.12-.06.19-.19.19h-1.87ZM22.8,71.81c-.12,0-.19-.06-.19-.19v-1.83c0-.12.06-.19.19-.19h1.89c.12,0,.19.06.19.19v1.83c0,.12-.06.19-.19.19h-1.89Z"/>
  <path class="cls-2" d="M36.71,78.2h1.71c.31,0,.54-.07.68-.21.15-.15.22-.4.22-.78v-9.26c0-.12.06-.19.19-.19h2.28c.13,0,.19.06.19.19v10.16c0,.81-.17,1.4-.51,1.78-.34.38-.9.57-1.69.57h-8.71c-.12,0-.19-.06-.19-.19v-1.89c0-.12.06-.19.19-.19h2.98v-7.62c0-.12.06-.19.19-.19h2.28c.12,0,.19.06.19.19v7.62Z"/>
  <path class="cls-2" d="M44.22,67.95c0-.12.06-.19.19-.19h2.25c.12,0,.19.06.19.19v9.26c0,.37.07.63.22.77.14.14.37.21.68.21h.51c.25,0,.44.09.56.27.12.18.19.48.19.9,0,.45-.06.74-.18.88-.12.14-.31.21-.57.21h-1.85c-.78,0-1.34-.19-1.67-.57-.34-.38-.5-.98-.5-1.78v-10.16Z"/>
  <path class="cls-2" d="M48.26,80.46c-.25,0-.43-.07-.53-.21-.11-.14-.16-.42-.16-.83,0-.44.05-.75.15-.94.1-.18.28-.28.54-.28h2.42c.25,0,.44.1.56.28.12.18.19.48.19.89,0,.46-.06.75-.18.89-.12.14-.31.21-.57.21h-2.42Z"/>
  <path class="cls-2" d="M50.68,80.46c-.25,0-.43-.07-.53-.21-.11-.14-.16-.42-.16-.83,0-.44.05-.75.15-.94.1-.18.28-.28.54-.28h2.42c.25,0,.43.1.56.28.13.18.19.48.19.89,0,.46-.06.75-.18.89-.12.14-.31.21-.57.21h-2.42Z"/>
  <path class="cls-2" d="M54.61,72.63c0-.12.06-.19.19-.19h2.25c.12,0,.19.06.19.19v.56c.58-.25,1.2-.46,1.88-.64.67-.18,1.38-.27,2.12-.27,1.53,0,2.68.36,3.47,1.08.79.72,1.18,1.86,1.18,3.42v.22c0,.08,0,.14-.02.21.03.3.16.54.41.72.25.18.59.27,1.03.27h.41c.25,0,.44.09.56.26.12.17.19.46.19.86,0,.76-.25,1.14-.75,1.14-.54,0-1-.08-1.39-.23-.39-.15-.7-.47-.93-.94-.27.47-.67.79-1.19.94-.52.15-1.21.23-2.07.23h-3.61c-.19,0-.39,0-.59,0-.21,0-.4-.02-.59-.05-.19-.02-.36-.06-.5-.11-.15-.05-.26-.12-.32-.22-.21.17-.45.28-.73.33-.27.05-.62.06-1.03.06h-1.66c-.25,0-.44-.08-.56-.23-.12-.15-.19-.45-.19-.89,0-.47.06-.78.17-.92.11-.14.31-.22.58-.22h.75c.18,0,.33-.04.44-.12.1-.08.18-.19.22-.33.04-.14.07-.3.09-.5.01-.2.02-.42.02-.65v-3.96ZM60.73,74.54c-.63,0-1.24.09-1.85.26-.61.17-1.16.37-1.64.58v2.09c0,.14,0,.26,0,.38,0,.12-.02.23-.03.35h3.72c.46,0,.84-.01,1.14-.04.29-.02.52-.09.68-.19.16-.1.27-.26.33-.47.05-.21.09-.5.09-.88,0-.34-.04-.64-.11-.9-.07-.26-.2-.48-.38-.66-.18-.18-.43-.32-.74-.4-.31-.09-.71-.13-1.18-.13"/>
  <path class="cls-2" d="M67.72,80.46c-.25,0-.44-.08-.56-.23-.12-.16-.19-.43-.19-.83,0-.8.25-1.19.75-1.19h1.16c.31,0,.54-.07.68-.22.14-.14.22-.4.22-.77v-4.43c0-.12.06-.19.18-.19h2.25c.12,0,.19.06.19.19v5.32c0,.81-.17,1.41-.5,1.79-.34.38-.89.57-1.67.57h-2.5ZM68.58,70.71c-.13,0-.19-.06-.19-.19v-1.83c0-.12.06-.19.19-.19h1.87c.12,0,.19.06.19.19v1.83c0,.12-.06.19-.19.19h-1.87ZM71.46,70.71c-.13,0-.19-.06-.19-.19v-1.83c0-.12.06-.19.19-.19h1.89c.12,0,.19.06.19.19v1.83c0,.12-.06.19-.19.19h-1.89Z"/>
  <path class="cls-2" d="M80.07,78.2h1.71c.31,0,.54-.07.68-.21.14-.15.22-.4.22-.78v-9.26c0-.12.06-.19.19-.19h2.28c.12,0,.19.06.19.19v10.16c0,.81-.17,1.4-.51,1.78-.34.38-.9.57-1.69.57h-8.71c-.12,0-.19-.06-.19-.19v-1.89c0-.12.06-.19.19-.19h2.98v-7.62c0-.12.06-.19.19-.19h2.28c.12,0,.19.06.19.19v7.62Z"/>
  <path class="cls-2" d="M87.77,67.76h2.25c.1,0,.19.08.19.19v12.32c0,.1-.08.19-.19.19h-2.25c-.1,0-.18-.08-.18-.18v-12.33c0-.1.08-.19.19-.19Z"/>
  <path class="cls-2" d="M102.53,80.59c-.56,0-1.08-.07-1.55-.21-.47-.14-.88-.36-1.23-.69-.09.14-.18.24-.28.32-.1.07-.2.16-.29.25-.1.09-.17.21-.23.34-.06.13-.1.31-.1.53v3.16h-2.66v-3.55c0-.42.05-.77.15-1.04.1-.27.23-.49.39-.67.15-.18.32-.33.5-.45.18-.12.35-.24.53-.35.17-.12.31-.25.43-.39.12-.14.19-.33.22-.57-.01-.11-.02-.23-.02-.35v-.39c0-.83.11-1.51.34-2.05.23-.54.53-.97.91-1.3.38-.32.82-.56,1.32-.69.5-.14,1.03-.21,1.58-.21s1.08.07,1.58.21c.5.14.94.37,1.32.69.38.33.68.76.91,1.3.23.54.34,1.22.34,2.05,0,.09,0,.17-.01.25,0,.08,0,.16,0,.23.02.41.14.71.36.91.21.19.48.29.81.29h.52c.25,0,.44.09.56.26.12.17.19.46.19.86,0,.76-.25,1.14-.75,1.14-.22,0-.45,0-.68-.02-.23-.02-.45-.07-.67-.14-.22-.08-.43-.18-.63-.33-.2-.14-.38-.34-.55-.59-.37.45-.85.77-1.42.94-.57.18-1.19.27-1.87.27M102.53,74.54c-1.02,0-1.53.63-1.53,1.89,0,.71.13,1.2.38,1.48.25.28.64.42,1.14.42s.91-.14,1.15-.42c.25-.28.37-.77.37-1.48,0-1.26-.51-1.89-1.53-1.89"/>
  <path class="cls-2" d="M110.44,72.78c0-.12.06-.19.18-.19h2.25c.12,0,.19.06.19.19v4.41c.03.31.16.56.4.74.24.18.58.27,1.02.27h.43c.25,0,.44.09.56.26.12.17.19.46.19.86,0,.76-.25,1.14-.75,1.14s-.89-.06-1.24-.17c-.35-.11-.64-.36-.88-.77-.2.4-.49.65-.88.77-.39.11-.93.17-1.61.17h-1.93c-.25,0-.44-.08-.56-.23-.12-.16-.19-.45-.19-.87s.06-.72.18-.9c.12-.17.31-.26.57-.26h1.16c.4,0,.65-.11.75-.34.1-.23.15-.63.15-1.19v-3.89ZM109.26,84.29c-.12,0-.19-.06-.19-.19v-1.83c0-.12.06-.19.19-.19h1.87c.12,0,.19.06.19.19v1.83c0,.12-.06.19-.19.19h-1.87ZM112.15,84.29c-.12,0-.19-.06-.19-.19v-1.83c0-.12.06-.19.19-.19h1.89c.12,0,.19.06.19.19v1.83c0,.12-.06.19-.19.19h-1.89Z"/>
  <path class="cls-2" d="M115.8,78.2c.22,0,.4-.05.52-.15.12-.1.22-.24.29-.41.07-.17.11-.38.12-.61.01-.23.02-.48.02-.74v-8.34c.03-.13.09-.19.19-.19h2.25c.12,0,.18.06.18.19l.02,5.24c.56-.25,1.18-.46,1.85-.65.67-.18,1.38-.27,2.12-.27,1.51,0,2.66.36,3.46,1.09.8.73,1.2,1.87,1.2,3.41,0,.07,0,.14,0,.21,0,.07-.01.13-.01.2.03.31.16.55.41.73.24.18.58.27,1.02.27h.43c.25,0,.44.09.56.26.13.17.19.46.19.86,0,.76-.25,1.14-.75,1.14-.54,0-1-.08-1.39-.23-.39-.16-.71-.47-.95-.94-.29.49-.69.81-1.22.95-.53.15-1.23.23-2.12.23h-4.47c-.5,0-.86-.13-1.07-.39-.14.16-.42.27-.85.32-.43.05-.88.07-1.34.07h-1.46c-.25,0-.44-.08-.57-.23-.12-.16-.18-.45-.18-.89,0-.47.06-.78.17-.92.11-.14.31-.21.58-.21h.8ZM122.87,74.54c-.64,0-1.26.09-1.87.26-.61.18-1.15.37-1.63.58v2.09c0,.26-.02.5-.06.73h3.72c.46,0,.84-.01,1.14-.04.29-.03.52-.09.69-.19.16-.1.27-.25.33-.46.06-.21.09-.51.09-.88,0-.34-.04-.63-.11-.9-.08-.26-.21-.48-.39-.66-.18-.18-.42-.31-.73-.4-.31-.09-.7-.13-1.18-.13M122.28,70.71c-.12,0-.19-.06-.19-.19v-1.83c0-.12.06-.19.19-.19h2.32c.13,0,.19.06.19.19v1.83c0,.12-.06.19-.19.19h-2.32Z"/>
  <path class="cls-2" d="M133.81,79.52c-.21.39-.51.64-.88.76-.37.12-.9.18-1.57.18h-1.5c-.25,0-.44-.04-.56-.12-.12-.08-.19-.26-.19-.53,0-.16.01-.34.04-.53.02-.18.07-.36.13-.52.06-.16.14-.3.24-.4.1-.1.23-.16.38-.16h.62c.39,0,.63-.11.74-.33.11-.22.16-.61.16-1.17v-3.92c0-.1.09-.15.27-.17.18-.01.34-.02.48-.02h1.72c.12,0,.19.06.19.19v4.41c.02.31.16.55.4.73.25.18.58.27,1.02.27h.43c.25,0,.44.09.56.26.12.17.19.46.19.86,0,.76-.25,1.14-.75,1.14s-.89-.06-1.23-.17c-.35-.11-.64-.36-.88-.77M131.58,70.71c-.12,0-.19-.06-.19-.19v-1.83c0-.12.06-.19.19-.19h2.32c.13,0,.19.06.19.19v1.83c0,.12-.06.19-.19.19h-2.32Z"/>
  <path class="cls-2" d="M135.85,80.46c-.25,0-.44-.08-.56-.23-.13-.16-.19-.43-.19-.83,0-.8.25-1.19.75-1.19h1.16c.31,0,.54-.07.68-.22.14-.14.22-.4.22-.77v-4.43c0-.12.06-.19.18-.19h2.25c.12,0,.19.06.19.19v5.32c0,.81-.17,1.41-.5,1.79-.33.38-.89.57-1.67.57h-2.51ZM136.71,70.71c-.12,0-.19-.06-.19-.19v-1.83c0-.12.06-.19.19-.19h1.87c.12,0,.19.06.19.19v1.83c0,.12-.06.19-.19.19h-1.87ZM139.6,70.71c-.12,0-.19-.06-.19-.19v-1.83c0-.12.06-.19.19-.19h1.89c.12,0,.19.06.19.19v1.83c0,.12-.06.19-.19.19h-1.89Z"/>
  <path class="cls-2" d="M152.59,72.28v-.81c0-.12.06-.18.19-.18h2.28c.13,0,.19.06.19.18v5.73c0,.37.07.63.22.78.14.14.37.21.68.21h.58c.5,0,.75.38.75,1.14,0,.44-.06.73-.18.89-.12.16-.31.24-.57.24h-1.95c-.61,0-1.09-.1-1.43-.29-.34-.19-.57-.56-.68-1.09-.27.22-.59.4-.96.51-.36.11-.74.17-1.14.17-.49,0-.95-.07-1.4-.2-.44-.14-.83-.35-1.17-.63-.34-.29-.6-.66-.79-1.12-.19-.46-.29-1.02-.29-1.68,0-.75.11-1.37.33-1.85.22-.49.5-.88.86-1.18.36-.3.76-.5,1.21-.62.46-.12.92-.18,1.4-.18h1.87ZM148.79,69.96c-.12,0-.19-.06-.19-.19v-1.83c0-.12.06-.19.19-.19h1.87c.12,0,.19.06.19.19v1.83c0,.12-.06.19-.19.19h-1.87ZM151.05,77.49c.47,0,.84-.13,1.13-.4.28-.27.42-.69.42-1.26v-1.29h-1.49c-.47,0-.85.11-1.14.33-.29.22-.43.64-.43,1.23,0,.51.14.87.43,1.08.29.21.65.31,1.08.31M151.67,69.96c-.12,0-.19-.06-.19-.19v-1.83c0-.12.06-.19.19-.19h1.89c.12,0,.19.06.19.19v1.83c0,.12-.06.19-.19.19h-1.89Z"/>
  <path class="cls-2" d="M160.88,79.52c-.21.39-.5.64-.88.76-.37.12-.9.18-1.57.18h-1.5c-.25,0-.44-.04-.56-.12-.12-.08-.19-.26-.19-.53,0-.16.01-.34.04-.52.03-.19.07-.36.13-.52.06-.16.14-.3.24-.4.1-.11.22-.16.37-.16h.62c.39,0,.63-.11.74-.32.1-.22.16-.61.16-1.17v-3.92c0-.1.09-.15.27-.17.18-.01.34-.02.48-.02h1.72c.12,0,.19.06.19.19v4.41c.02.31.16.56.4.74.24.18.58.27,1.02.27h.43c.25,0,.43.09.56.26.12.17.19.46.19.86,0,.76-.25,1.14-.75,1.14s-.89-.06-1.24-.17c-.35-.11-.64-.37-.88-.77M158.32,69.63c-.07-.12-.14-.26-.19-.41-.05-.15-.08-.32-.08-.52,0-.22.04-.44.12-.66.08-.22.21-.41.38-.59.17-.17.39-.31.65-.42.27-.11.59-.16.96-.16.4,0,.76.07,1.08.22.32.15.55.33.7.54.05.06.05.13-.02.19l-.6.63c-.05.05-.11.04-.17-.04-.14-.12-.28-.22-.42-.3-.14-.08-.32-.11-.52-.11-.25,0-.45.07-.59.21-.14.14-.21.32-.21.56,0,.22.06.41.17.54.11.14.24.24.37.32h1.97c.08,0,.11.04.11.13v.88c0,.09-.04.13-.11.13h-4.27c-.08,0-.11-.04-.11-.13v-.88c0-.09.04-.13.11-.13h.65Z"/>
  <path class="cls-2" d="M165.04,72.78c0-.12.06-.19.18-.19h2.25c.12,0,.18.06.18.19v4.41c.02.31.16.56.4.74.24.18.58.27,1.02.27h.43c.25,0,.44.09.56.26.12.17.19.46.19.86,0,.76-.25,1.14-.75,1.14s-.89-.06-1.24-.17c-.35-.11-.64-.36-.88-.77-.2.4-.49.65-.88.77-.39.11-.93.17-1.61.17h-1.93c-.25,0-.44-.08-.56-.23-.13-.16-.19-.45-.19-.87s.06-.72.18-.9c.12-.17.31-.26.57-.26h1.16c.4,0,.65-.11.75-.34.1-.23.15-.63.15-1.19v-3.89ZM163.86,84.29c-.12,0-.19-.06-.19-.19v-1.83c0-.12.06-.19.19-.19h1.87c.12,0,.19.06.19.19v1.83c0,.12-.06.19-.19.19h-1.87ZM166.75,84.29c-.12,0-.19-.06-.19-.19v-1.83c0-.12.06-.19.19-.19h1.89c.13,0,.19.06.19.19v1.83c0,.12-.06.19-.19.19h-1.89Z"/>
  <path class="cls-2" d="M169.54,80.46c-.25,0-.43-.08-.56-.25-.12-.17-.19-.45-.19-.85s.06-.71.18-.89c.12-.18.31-.27.57-.27h1.84c-.18-.37-.27-.81-.27-1.31s.09-.95.25-1.31c.17-.36.39-.65.66-.88.27-.22.58-.39.93-.5.35-.11.71-.16,1.09-.16.94,0,1.67.23,2.21.68.54.46.81,1.18.81,2.16,0,.26-.04.5-.1.72-.07.22-.15.41-.23.59.56,0,.93-.17,1.12-.51.19-.34.28-.76.28-1.26s-.08-.9-.23-1.25c-.16-.35-.38-.63-.66-.86-.28-.23-.62-.39-1.01-.5-.39-.11-.83-.16-1.3-.16-.42,0-.87.04-1.34.1-.47.07-.93.17-1.38.31-.05.02-.11.05-.19.06-.08,0-.13-.02-.15-.09l-.4-1.4c-.02-.08-.03-.14-.02-.2,0-.06.05-.1.14-.14.61-.24,1.21-.42,1.81-.56.59-.14,1.3-.21,2.11-.21,1.05,0,1.92.14,2.61.42.69.28,1.24.65,1.65,1.11.4.46.69.98.85,1.55.16.57.24,1.16.24,1.76,0,.7-.06,1.3-.19,1.82-.12.52-.33.94-.63,1.28-.29.34-.68.59-1.16.75-.48.16-1.08.24-1.79.24h-7.55ZM174.06,75.64c-.35,0-.62.12-.81.35-.19.23-.29.56-.29.98s.09.75.26.96c.17.21.41.32.72.35h.2c.32-.03.57-.14.73-.35.16-.21.24-.53.24-.96s-.09-.75-.27-.98c-.18-.23-.44-.35-.79-.35"/>
  <path class="cls-2" d="M20.78,90.29v-.81c0-.12.06-.18.19-.18h2.29c.12,0,.19.06.19.18v5.73c0,.37.07.63.22.78s.37.22.68.22h.58c.5,0,.75.38.75,1.14,0,.44-.06.73-.18.89-.12.16-.31.24-.57.24h-1.95c-.61,0-1.09-.1-1.43-.29-.34-.19-.57-.56-.68-1.09-.27.22-.59.4-.96.51-.36.11-.74.17-1.14.17-.48,0-.95-.07-1.39-.2-.44-.14-.83-.35-1.17-.63-.34-.29-.6-.66-.79-1.12-.19-.46-.29-1.02-.29-1.68,0-.75.11-1.37.33-1.86.22-.49.5-.88.86-1.17.36-.3.76-.5,1.22-.62.46-.12.92-.18,1.4-.18h1.87ZM16.98,87.97c-.13,0-.19-.06-.19-.19v-1.83c0-.12.06-.19.19-.19h1.87c.12,0,.19.06.19.19v1.83c0,.13-.06.19-.19.19h-1.87ZM19.23,95.5c.47,0,.85-.13,1.13-.4.28-.27.42-.69.42-1.26v-1.29h-1.49c-.47,0-.85.11-1.14.33-.28.22-.42.64-.42,1.23,0,.51.14.87.42,1.08.29.21.65.31,1.08.31M19.86,87.97c-.12,0-.19-.06-.19-.19v-1.83c0-.12.06-.19.19-.19h1.89c.12,0,.19.06.19.19v1.83c0,.13-.06.19-.19.19h-1.89Z"/>
  <path class="cls-2" d="M25.06,98.47c-.25,0-.43-.07-.53-.21-.11-.14-.16-.42-.16-.83,0-.44.05-.75.15-.93.1-.18.28-.28.54-.28h2.42c.25,0,.44.1.56.27.12.18.19.48.19.89,0,.46-.06.76-.18.89-.12.14-.31.21-.57.21h-2.42Z"/>
  <path class="cls-2" d="M27.48,98.47c-.25,0-.43-.07-.53-.21-.11-.14-.16-.42-.16-.83,0-.44.05-.75.15-.93.1-.18.28-.28.54-.28h2.42c.25,0,.43.1.56.27.13.18.19.48.19.89,0,.46-.06.76-.18.89-.12.14-.31.21-.57.21h-2.42Z"/>
  <path class="cls-2" d="M29.89,98.47c-.25,0-.43-.07-.53-.21-.11-.14-.16-.42-.16-.83,0-.44.05-.75.15-.93.1-.18.28-.28.54-.28h2.42c.25,0,.43.1.56.27.12.18.19.48.19.89,0,.46-.06.76-.18.89-.12.14-.31.21-.57.21h-2.42Z"/>
  <path class="cls-2" d="M32.31,98.47c-.25,0-.43-.07-.53-.21-.11-.14-.16-.42-.16-.83,0-.44.05-.75.15-.93.1-.18.28-.28.54-.28h2.42c.25,0,.44.1.56.27.12.18.19.48.19.89,0,.46-.06.76-.18.89-.12.14-.31.21-.57.21h-2.42Z"/>
  <path class="cls-2" d="M34.72,98.47c-.25,0-.43-.07-.53-.21-.11-.14-.16-.42-.16-.83,0-.44.05-.75.15-.93.1-.18.28-.28.54-.28h2.42c.25,0,.43.1.56.27.12.18.19.48.19.89,0,.46-.06.76-.18.89-.12.14-.31.21-.57.21h-2.42Z"/>
  <path class="cls-2" d="M37.14,98.47c-.25,0-.43-.07-.53-.21-.11-.14-.16-.42-.16-.83,0-.44.05-.75.15-.93.1-.18.28-.28.54-.28h2.42c.25,0,.44.1.56.27.12.18.19.48.19.89,0,.46-.06.76-.18.89-.12.14-.31.21-.57.21h-2.42Z"/>
  <path class="cls-2" d="M39.56,98.47c-.25,0-.43-.07-.53-.21-.11-.14-.16-.42-.16-.83,0-.44.05-.75.15-.93.1-.18.28-.28.54-.28h2.42c.25,0,.43.1.56.27.12.18.19.48.19.89,0,.46-.06.76-.18.89-.12.14-.31.21-.57.21h-2.42Z"/>
  <path class="cls-2" d="M41.97,98.47c-.25,0-.43-.07-.53-.21-.11-.14-.16-.42-.16-.83,0-.44.05-.75.15-.93.1-.18.28-.28.54-.28h2.41c.25,0,.44.1.56.27.12.18.19.48.19.89,0,.46-.06.76-.18.89-.12.14-.31.21-.57.21h-2.41Z"/>
  <path class="cls-2" d="M44.39,98.47c-.25,0-.43-.07-.53-.21-.11-.14-.16-.42-.16-.83,0-.44.05-.75.15-.93.1-.18.28-.28.54-.28h2.42c.25,0,.43.1.56.27.12.18.19.48.19.89,0,.46-.06.76-.18.89-.12.14-.31.21-.57.21h-2.42Z"/>
  <path class="cls-2" d="M48.92,90.79c0-.12.06-.19.19-.19h2.25c.12,0,.18.06.18.19v4.41c.02.31.16.56.4.74.24.18.58.27,1.02.27h.43c.25,0,.44.09.56.26.12.17.19.46.19.86,0,.76-.25,1.14-.75,1.14s-.89-.06-1.24-.17c-.35-.11-.64-.36-.88-.76-.2.4-.49.65-.88.76-.39.12-.93.17-1.61.17h-1.93c-.25,0-.44-.08-.56-.23-.13-.16-.19-.45-.19-.87s.06-.72.18-.9c.12-.17.31-.26.57-.26h1.16c.4,0,.65-.11.75-.34.1-.23.15-.63.15-1.19v-3.89ZM47.74,102.3c-.12,0-.19-.06-.19-.19v-1.83c0-.12.06-.19.19-.19h1.87c.12,0,.19.06.19.19v1.83c0,.12-.06.19-.19.19h-1.87ZM50.62,102.3c-.12,0-.19-.06-.19-.19v-1.83c0-.12.06-.19.19-.19h1.89c.12,0,.19.06.19.19v1.83c0,.12-.06.19-.19.19h-1.89Z"/>
  <path class="cls-2" d="M59.24,98.6c-.66,0-1.27-.09-1.83-.25-.55-.17-1.02-.46-1.4-.89-.14.22-.32.4-.54.54-.22.14-.46.24-.7.31-.24.07-.48.11-.72.13-.24.01-.45.02-.64.02-.25,0-.44-.08-.56-.24-.13-.16-.19-.45-.19-.86s.06-.72.17-.89c.11-.18.31-.26.58-.26h.54c.29,0,.55-.12.78-.36.23-.23.36-.68.39-1.32v-.38c0-1.24.36-2.2,1.07-2.87.71-.67,1.73-1,3.06-1s2.27.35,3.02,1.05c.75.7,1.13,1.77,1.13,3.19,0,.09,0,.17,0,.25,0,.08-.01.16-.01.23.03.41.14.71.36.91.21.19.48.29.81.29h.54c.25,0,.44.09.56.26.13.17.19.46.19.86,0,.76-.25,1.14-.75,1.14-.22,0-.45,0-.69-.02-.24-.02-.47-.07-.69-.14-.23-.08-.44-.18-.64-.33-.2-.14-.38-.34-.53-.59-.38.45-.85.77-1.42.94-.57.18-1.19.27-1.87.27M59.23,92.55c-1.02,0-1.54.63-1.54,1.89,0,.71.13,1.2.38,1.48.26.28.64.42,1.15.42s.91-.14,1.16-.42c.25-.28.37-.77.37-1.48,0-1.26-.51-1.89-1.54-1.89"/>
  <path class="cls-2" d="M65.15,98.47c-.26,0-.45-.08-.57-.24-.12-.16-.18-.46-.18-.91,0-.4.06-.69.19-.87.13-.18.31-.26.56-.26h1.44c-.2-.41-.3-.97-.3-1.68,0-.82.12-1.5.35-2.04.23-.54.54-.97.93-1.3.39-.32.83-.55,1.33-.69.5-.14,1.01-.2,1.54-.2s1.08.07,1.58.2c.5.14.94.37,1.32.69.38.32.69.76.91,1.3.23.54.34,1.22.34,2.04,0,.76-.11,1.39-.32,1.89-.21.51-.51.91-.87,1.22-.37.3-.81.52-1.31.64-.51.13-1.05.19-1.64.19h-5.29ZM68.02,88.72c-.12,0-.19-.06-.19-.19v-1.83c0-.12.06-.19.19-.19h1.87c.12,0,.19.06.19.19v1.83c0,.12-.06.19-.19.19h-1.87ZM70.44,92.55c-1.02,0-1.53.61-1.53,1.82,0,.72.13,1.21.38,1.49.25.27.63.41,1.14.41s.89-.13,1.14-.4c.25-.26.38-.74.38-1.44,0-1.25-.51-1.88-1.53-1.88M70.9,88.72c-.12,0-.19-.06-.19-.19v-1.83c0-.12.06-.19.19-.19h1.89c.12,0,.19.06.19.19v1.83c0,.12-.06.19-.19.19h-1.89Z"/>
  <path class="cls-2" d="M77.56,90.79c0-.12.06-.19.19-.19h2.29c.12,0,.19.06.19.19v4.41c.02.31.16.56.4.74.24.18.58.27,1.02.27h.41c.25,0,.44.09.56.26.12.18.19.46.19.86,0,.76-.25,1.14-.75,1.14-.41,0-.77-.04-1.07-.12-.3-.08-.56-.25-.77-.51v.3c0,1.42-.28,2.47-.82,3.15-.55.68-1.49,1.02-2.81,1.02h-.86c-.13,0-.19-.06-.19-.19v-1.89c0-.12.06-.19.19-.19h.41c.34,0,.6-.05.79-.16.19-.11.33-.26.42-.46.09-.21.15-.46.18-.76.02-.3.04-.64.04-1.02v-6.84Z"/>
  <path class="cls-2" d="M82.06,98.47c-.25,0-.44-.04-.56-.13-.12-.09-.19-.26-.19-.52,0-.15.02-.32.05-.5.03-.19.07-.36.13-.52.05-.16.13-.3.22-.41.09-.11.21-.17.35-.17h.66c.31,0,.54-.07.68-.21.14-.14.21-.4.21-.77v-9.26c0-.13.06-.19.19-.19h2.28c.12,0,.19.06.19.19v10.16c0,.81-.17,1.4-.51,1.79-.34.38-.9.57-1.69.57h-2.02Z"/>
  <path class="cls-2" d="M88.7,85.77h2.25c.1,0,.19.08.19.19v12.32c0,.1-.08.19-.19.19h-2.25c-.1,0-.19-.08-.19-.19v-12.33c0-.1.08-.19.19-.19Z"/>
  <path class="cls-2" d="M103.05,90.29v-.81c0-.12.06-.18.19-.18h2.29c.12,0,.19.06.19.18v5.73c0,.37.07.63.22.78.14.14.37.22.68.22h.58c.5,0,.75.38.75,1.14,0,.44-.06.73-.18.89-.12.16-.31.24-.57.24h-1.95c-.61,0-1.09-.1-1.43-.29-.34-.19-.57-.56-.69-1.09-.27.22-.59.4-.95.51-.36.11-.74.17-1.14.17-.48,0-.95-.07-1.39-.2-.44-.14-.83-.35-1.17-.63-.34-.29-.6-.66-.79-1.12-.19-.46-.29-1.02-.29-1.68,0-.75.11-1.37.33-1.86.22-.49.51-.88.86-1.17.36-.3.76-.5,1.22-.62.46-.12.92-.18,1.4-.18h1.87ZM99.25,87.97c-.13,0-.19-.06-.19-.19v-1.83c0-.12.06-.19.19-.19h1.87c.12,0,.19.06.19.19v1.83c0,.13-.06.19-.19.19h-1.87ZM101.5,95.5c.47,0,.85-.13,1.13-.4.28-.27.42-.69.42-1.26v-1.29h-1.49c-.47,0-.85.11-1.14.33-.28.22-.43.64-.43,1.23,0,.51.14.87.43,1.08.29.21.65.31,1.08.31M102.13,87.97c-.12,0-.19-.06-.19-.19v-1.83c0-.12.06-.19.19-.19h1.89c.12,0,.19.06.19.19v1.83c0,.13-.06.19-.19.19h-1.89Z"/>
  <path class="cls-2" d="M107.34,98.47c-.25,0-.43-.07-.53-.21-.11-.14-.16-.42-.16-.83,0-.44.05-.75.15-.93.1-.18.28-.28.54-.28h2.42c.25,0,.43.1.56.27.13.18.19.48.19.89,0,.46-.06.76-.18.89-.12.14-.31.21-.57.21h-2.42Z"/>
  <path class="cls-2" d="M109.75,98.47c-.25,0-.43-.07-.53-.21-.11-.14-.16-.42-.16-.83,0-.44.05-.75.15-.93.1-.18.28-.28.54-.28h2.42c.25,0,.43.1.56.27.12.18.19.48.19.89,0,.46-.06.76-.18.89-.12.14-.31.21-.57.21h-2.42Z"/>
  <path class="cls-2" d="M112.17,98.47c-.25,0-.43-.07-.53-.21-.11-.14-.16-.42-.16-.83,0-.44.05-.75.15-.93.1-.18.28-.28.54-.28h2.42c.25,0,.43.1.56.27.12.18.19.48.19.89,0,.46-.06.76-.18.89-.12.14-.31.21-.57.21h-2.42Z"/>
  <path class="cls-2" d="M114.58,98.47c-.25,0-.43-.07-.53-.21-.11-.14-.16-.42-.16-.83,0-.44.05-.75.15-.93.1-.18.28-.28.54-.28h2.42c.25,0,.43.1.56.27.12.18.19.48.19.89,0,.46-.06.76-.18.89-.12.14-.31.21-.57.21h-2.42Z"/>
  <path class="cls-2" d="M117,98.47c-.25,0-.43-.07-.53-.21-.11-.14-.16-.42-.16-.83,0-.44.05-.75.15-.93.1-.18.28-.28.54-.28h2.42c.25,0,.44.1.56.27.12.18.19.48.19.89,0,.46-.06.76-.18.89-.12.14-.31.21-.57.21h-2.42Z"/>
  <path class="cls-2" d="M125.25,98.6c-.66,0-1.27-.09-1.83-.25-.56-.17-1.02-.46-1.4-.89-.18.25-.38.44-.61.57-.23.13-.47.23-.7.3-.24.07-.47.11-.69.12-.22.01-.43.02-.6.02-.25,0-.44-.08-.56-.24-.12-.16-.19-.45-.19-.86,0-.44.06-.74.18-.91.12-.17.31-.25.57-.25h.54c.27,0,.53-.12.77-.36.24-.23.37-.68.39-1.32v-.38c0-.73.12-1.35.35-1.85.23-.5.54-.9.92-1.2.38-.3.82-.51,1.31-.63.49-.12,1.01-.19,1.55-.19s1.08.07,1.58.2c.5.14.94.37,1.32.69.38.33.69.76.91,1.3.23.54.34,1.22.34,2.05,0,.76-.11,1.4-.32,1.92-.21.52-.5.94-.87,1.26-.37.32-.81.55-1.31.68-.51.14-1.05.21-1.64.21M125.24,92.55c-1.04,0-1.55.63-1.55,1.89,0,.71.13,1.2.39,1.48.26.28.65.42,1.16.42s.91-.14,1.16-.42c.25-.28.37-.77.37-1.48,0-1.26-.51-1.89-1.54-1.89"/>
  <path class="cls-2" d="M132.87,102.3c-.12,0-.19-.07-.19-.19v-1.88c0-.13.06-.19.19-.19h2.15c.26,0,.5-.02.7-.07.21-.04.38-.12.52-.23.14-.11.24-.27.32-.47.08-.21.11-.47.11-.8h-1.8c-1.22,0-2.16-.29-2.82-.88-.65-.58-.98-1.59-.98-3,0-.8.12-1.47.35-2.02.23-.55.54-.99.92-1.33.38-.34.82-.58,1.31-.73.49-.15,1.01-.22,1.53-.22.55,0,1.08.07,1.58.2.5.14.94.37,1.31.68.38.32.67.75.89,1.29.22.54.33,1.21.33,2.01v1.73h1.27c.5,0,.75.37.75,1.12,0,.47-.06.78-.18.92-.12.14-.31.21-.57.21h-1.27v.36c0,1.17-.3,2.04-.9,2.61-.6.57-1.53.86-2.79.86h-2.73ZM135.2,92.55c-.5,0-.88.17-1.15.52-.27.35-.4.82-.4,1.42,0,.68.15,1.14.44,1.37.29.23.68.34,1.15.34h1.44v-1.81c0-1.23-.49-1.85-1.48-1.85"/>
  <path class="cls-2" d="M144.91,90.47c.61.03,1.16.09,1.65.19.49.1.9.28,1.25.53.34.26.61.6.79,1.03.19.43.28.99.28,1.67v1.36c0,.3.13.53.38.7.26.17.6.25,1.04.25h.41c.25,0,.44.09.56.26.12.17.19.46.19.86,0,.76-.25,1.14-.75,1.14-.52,0-.97-.07-1.35-.2-.38-.14-.68-.42-.92-.86-.22.4-.54.68-.93.83-.4.15-.89.23-1.46.23h-5.51c-.25,0-.44-.09-.56-.26-.12-.18-.19-.49-.19-.94,0-.42.06-.71.18-.85.12-.14.31-.21.57-.21h4.2c.3,0,.54-.02.73-.06.19-.04.33-.1.43-.2.1-.09.17-.22.2-.38.03-.16.05-.37.05-.62v-.86c0-.5-.14-.86-.4-1.09-.27-.22-.7-.33-1.28-.33h-2.81c-.12,0-.19-.06-.19-.19v-1.52c0-.09.05-.18.14-.28.1-.1.17-.19.24-.26l4.01-4.73c.08-.09.16-.11.25-.06l1.55,1.31c.1.07.13.16.08.26l-2.81,3.25Z"/>
  <path class="cls-2" d="M151.56,91.78c.44-.44.93-.79,1.49-1.07.56-.28,1.23-.42,2.03-.42s1.52.12,2.09.35c.57.24,1.03.56,1.39.98.36.42.62.91.78,1.48.16.57.24,1.18.24,1.84v.3c.04.3.17.53.4.71.23.17.56.26,1,.26h.43c.25,0,.43.09.56.26.13.17.19.46.19.86,0,.76-.25,1.14-.75,1.14-.52,0-.98-.07-1.37-.21-.39-.14-.71-.45-.95-.92-.25.45-.6.75-1.06.91-.45.16-1,.23-1.62.23h-5.69c-.25,0-.44-.08-.56-.25-.12-.17-.18-.45-.18-.85s.05-.69.17-.88c.11-.19.31-.28.58-.28h4.65c.3,0,.54-.02.73-.07.19-.04.34-.12.44-.22.1-.1.18-.25.22-.43.05-.18.07-.41.07-.68,0-.31-.03-.6-.09-.88-.06-.27-.17-.51-.32-.72-.15-.2-.35-.37-.59-.48-.24-.12-.55-.18-.91-.18-.4,0-.75.08-1.07.23-.31.15-.6.35-.86.59-.09.09-.17.09-.26.02l-1.1-1.32c-.11-.11-.13-.21-.06-.28"/>
  <path class="cls-2" d="M161.41,98.47c-.25,0-.44-.04-.56-.13-.12-.09-.19-.26-.19-.52,0-.15.02-.32.05-.5.03-.19.07-.36.13-.52.06-.16.13-.3.22-.41.09-.11.21-.17.35-.17h.66c.31,0,.54-.07.68-.21.14-.14.21-.4.21-.77v-9.26c0-.13.06-.19.19-.19h2.28c.12,0,.19.06.19.19v10.16c0,.81-.17,1.4-.51,1.79-.33.38-.9.57-1.68.57h-2.02Z"/>
  <path class="cls-2" d="M168.06,85.77h2.25c.1,0,.19.08.19.19v12.32c0,.1-.08.19-.19.19h-2.25c-.1,0-.19-.08-.19-.19v-12.33c0-.1.08-.19.19-.19Z"/>
  <path class="cls-2" d="M174.25,102.3c-.12,0-.19-.07-.19-.19v-1.88c0-.13.06-.19.19-.19h2.15c.25,0,.47-.02.67-.05.2-.03.37-.1.51-.21.15-.11.26-.27.34-.47.08-.2.12-.48.12-.83h-.79c-.75,0-1.42-.04-2.01-.13-.59-.09-1.1-.27-1.52-.55-.42-.28-.74-.67-.96-1.18-.22-.5-.33-1.18-.33-2.02s.12-1.47.35-2.02c.23-.55.54-.99.92-1.33.38-.34.82-.58,1.31-.73.5-.15,1.01-.22,1.53-.22.55,0,1.07.07,1.58.2.5.14.94.37,1.31.68.38.32.67.75.89,1.29.22.54.33,1.21.33,2.01v4.35c0,1.17-.3,2.04-.9,2.61-.6.57-1.53.86-2.79.86h-2.73ZM176.58,92.55c-.51,0-.9.17-1.16.52-.26.35-.39.82-.39,1.42,0,.68.15,1.14.44,1.37.29.23.68.34,1.15.34h1.44v-1.81c0-1.23-.49-1.85-1.48-1.85"/>
  <path class="cls-2" d="M19.79,105.99l-2.14,1.1h-2.19v-1.1h4.32ZM18.45,112.3h-1.29v-5.19c0-.38.16-.67.48-.89.22-.15.46-.23.73-.23h1.9v1.1h-1.82v5.21Z"/>
  <path class="cls-2" d="M22.35,109.73v1.48h3.27v1.1s-3.35,0-3.35,0c-.4,0-.73-.15-.97-.46-.16-.19-.24-.42-.24-.65v-4.08c0-.37.16-.67.48-.89.22-.15.46-.22.73-.22h3.39l-.04,1.1h-3.27v1.54h3.01v1.1h-3.01Z"/>
  <path class="cls-2" d="M28.45,111.21h3.02v1.1s-3.1,0-3.1,0c-.41,0-.74-.16-.97-.47-.15-.19-.23-.41-.23-.65v-5.19h1.28v5.21Z"/>
  <path class="cls-2" d="M17.68,115.83h.77c.49,0,.97.11,1.43.33.19.09.35.19.46.3l-1.01.78c-.18-.23-.42-.36-.73-.4-.05,0-.1-.01-.14-.01h-.77c-.34,0-.62.16-.83.46-.15.22-.22.46-.22.72v1.37c0,.39.14.71.43.94.19.16.41.24.64.24h1.49v-1.86h1.17v1.84c0,.35-.15.61-.44.82-.2.13-.42.2-.65.2h-1.57c-.63,0-1.16-.22-1.6-.66-.42-.42-.63-.93-.63-1.52v-1.37c0-.62.22-1.14.68-1.57.43-.41.94-.61,1.54-.61"/>
  <path class="cls-2" d="M24.13,121.63h-.77c-.63,0-1.16-.22-1.6-.66-.42-.42-.63-.93-.63-1.51v-1.52c0-.61.22-1.13.67-1.56.44-.41.96-.62,1.56-.62h.77c.63,0,1.16.22,1.6.66.42.42.63.93.63,1.52v1.52c0,.62-.22,1.13-.67,1.56-.44.41-.96.61-1.56.61M23.36,120.63h.77c.35,0,.63-.15.84-.47.15-.21.22-.45.22-.72v-1.52c0-.4-.14-.71-.43-.95-.19-.16-.4-.23-.63-.23h-.77c-.35,0-.63.15-.84.46-.15.22-.23.46-.23.72v1.52c0,.39.14.71.42.94.2.16.41.24.64.24"/>
  <path class="cls-2" d="M33.76,109.73v1.48h3.27v1.1s-3.35,0-3.35,0c-.41,0-.73-.15-.98-.46-.16-.19-.24-.42-.24-.65v-4.08c0-.37.16-.67.49-.89.22-.15.46-.22.73-.22h3.33v1.1s-3.26,0-3.26,0v1.54h3.01v1.1h-3.01Z"/>
  <path class="cls-2" d="M39.56,108.39v1.51c0,.43.16.78.47,1.04.22.18.45.27.71.27h.85c.34,0,.64-.12.88-.35.03-.03.06-.06.08-.09l1.11.85c-.31.29-.79.5-1.45.62-.23.04-.44.07-.63.07h-.85c-.69,0-1.28-.25-1.76-.73-.46-.46-.69-1.02-.69-1.67v-1.51c0-.68.24-1.25.73-1.72.48-.45,1.06-.68,1.72-.68h.85c.54,0,1.06.12,1.57.36.21.11.38.21.5.33l-1.11.85c-.2-.25-.47-.4-.81-.44-.06,0-.11,0-.15,0h-.85c-.38,0-.69.17-.93.51-.17.24-.25.5-.25.8"/>
  <path class="cls-2" d="M47.64,112.38h-.85c-.69,0-1.28-.24-1.76-.73-.46-.46-.69-1.02-.69-1.67v-1.68c0-.67.25-1.25.74-1.72.48-.45,1.06-.68,1.72-.68h.85c.69,0,1.27.24,1.76.73.46.46.69,1.02.69,1.66v1.68c0,.68-.25,1.25-.73,1.71-.48.46-1.06.68-1.72.68M46.79,111.29h.85c.38,0,.69-.17.93-.51.16-.24.24-.5.24-.79v-1.68c0-.43-.16-.78-.47-1.04-.21-.17-.44-.26-.69-.26h-.85c-.39,0-.69.17-.93.51-.17.24-.25.5-.25.79v1.68c0,.43.15.78.47,1.04.22.18.45.27.71.27"/>
  <path class="cls-2" d="M56.93,107.3l-1.42,4.08h-1.35l-1.42-4.08-.48,5h-1.37l.58-5.25c.06-.47.28-.8.67-.99.16-.07.33-.11.51-.11.39,0,.68.15.88.44.05.07.09.15.13.23l1.18,3.45,1.19-3.45c.13-.34.38-.56.74-.64.09-.02.17-.03.26-.03.4,0,.72.15.95.47.13.18.21.39.23.63l.58,5.25h-1.37l-.48-5Z"/>
  <path class="cls-2" d="M65.57,107.3l-1.42,4.08h-1.35l-1.42-4.08-.48,5h-1.37l.58-5.25c.06-.47.28-.8.67-.99.16-.07.33-.11.51-.11.38,0,.68.15.88.44.05.07.09.15.13.23l1.18,3.45,1.19-3.45c.13-.34.38-.56.74-.64.09-.02.17-.03.26-.03.4,0,.72.15.94.47.13.18.2.39.23.63l.58,5.25h-1.37l-.48-5Z"/>
  <path class="cls-2" d="M68.35,106h1.29v3.91c0,.44.16.78.48,1.04.21.18.44.26.69.26h.69c.38,0,.69-.17.93-.51.17-.24.25-.5.25-.8v-3.91h1.28v3.91c0,.68-.25,1.25-.74,1.72-.48.45-1.06.68-1.72.68h-.69c-.69,0-1.28-.24-1.76-.73-.46-.47-.69-1.02-.69-1.67v-3.91Z"/>
  <path class="cls-2" d="M76.36,105.95c.47,0,.84.27,1.14.81.04.09.09.19.14.3l1.78,4.16v-5.24h1.28v5.24c0,.35-.17.64-.51.87-.24.16-.5.24-.78.24-.47,0-.84-.27-1.13-.81-.05-.09-.09-.19-.14-.3l-1.78-4.16v5.24h-1.28v-5.24c0-.35.17-.64.51-.87.24-.16.5-.24.78-.24"/>
  <rect class="cls-2" x="81.94" y="105.99" width="1.28" height="6.31"/>
  <path class="cls-2" d="M85.45,108.39v1.51c0,.43.16.78.47,1.04.22.18.46.27.71.27h.85c.35,0,.64-.12.88-.35.03-.03.06-.06.08-.09l1.11.85c-.31.29-.79.5-1.45.62-.23.04-.44.07-.63.07h-.85c-.69,0-1.28-.25-1.76-.73-.46-.46-.69-1.02-.69-1.67v-1.51c0-.68.24-1.25.73-1.72.48-.45,1.06-.68,1.72-.68h.85c.54,0,1.06.12,1.57.36.21.11.38.21.5.33l-1.11.85c-.2-.25-.46-.4-.81-.44-.05,0-.1,0-.15,0h-.85c-.38,0-.69.17-.93.51-.17.24-.25.5-.25.8"/>
  <path class="cls-2" d="M94.53,111.46h-3.17l-.18-1.1h2.96l-1.08-3.09-1.77,5.03h-1.37l1.86-5.28c.27-.73.7-1.1,1.28-1.11.58,0,1,.37,1.27,1.11l1.87,5.28h-1.37l-.3-.84Z"/>
  <path class="cls-2" d="M99.79,105.99l-1.84,1.1h-2.18v-1.1h4.01ZM98.76,112.3h-1.29v-5.19c0-.38.16-.67.49-.89.22-.15.46-.23.73-.23h1.9v1.1h-1.82v5.21Z"/>
  <rect class="cls-2" x="101.5" y="105.99" width="1.28" height="6.31"/>
  <path class="cls-2" d="M107.05,112.38h-.85c-.69,0-1.28-.24-1.76-.73-.46-.46-.69-1.02-.69-1.67v-1.68c0-.67.24-1.25.73-1.72.48-.45,1.06-.68,1.72-.68h.85c.69,0,1.28.24,1.76.73.46.46.69,1.02.69,1.66v1.68c0,.68-.25,1.25-.73,1.71-.48.46-1.06.68-1.72.68M106.2,111.29h.85c.38,0,.69-.17.93-.51.16-.24.24-.5.24-.79v-1.68c0-.43-.16-.78-.48-1.04-.21-.17-.44-.26-.69-.26h-.85c-.38,0-.69.17-.93.51-.16.24-.25.5-.25.79v1.68c0,.43.15.78.47,1.04.22.18.45.27.71.27"/>
  <path class="cls-2" d="M111.81,105.95c.47,0,.85.27,1.14.81.04.09.09.19.14.3l1.78,4.16v-5.24h1.28v5.24c0,.35-.17.64-.51.87-.24.16-.5.24-.78.24-.47,0-.85-.27-1.13-.81-.05-.09-.09-.19-.14-.3l-1.78-4.16v5.24h-1.28v-5.24c0-.35.17-.64.51-.87.24-.16.5-.24.78-.24"/>
  <path class="cls-2" d="M117.13,107.8c0-.51.24-.94.72-1.29.46-.34,1.01-.51,1.65-.51h.85c.52,0,1.02.12,1.5.36.2.11.36.22.48.33l-1.12.85c-.18-.25-.43-.4-.75-.44-.04,0-.07,0-.11,0h-.85c-.42,0-.73.11-.94.35-.09.12-.14.24-.14.36,0,.21.23.4.69.56.15.05.39.12.73.2.83.22,1.42.43,1.75.63.55.33.82.77.83,1.31,0,.5-.25.93-.74,1.29-.48.34-1.06.51-1.72.51h-.85c-.54,0-1.06-.12-1.57-.36-.21-.1-.38-.21-.5-.33l1.1-.85c.19.24.47.39.82.43.06,0,.11,0,.15,0h.85c.45,0,.79-.12,1.02-.36.1-.11.15-.23.15-.35,0-.24-.23-.44-.69-.6-.07-.03-.47-.14-1.21-.34-.85-.23-1.43-.5-1.73-.82-.25-.26-.37-.58-.37-.94"/>
  <path class="cls-2" d="M130.04,111.46h-3.13l-.1-1.1h2.84l-1.08-3.09-1.77,5.03h-1.37l1.86-5.28c.27-.73.7-1.1,1.28-1.11.58,0,1,.37,1.27,1.11l1.87,5.28h-1.37l-.3-.84Z"/>
  <path class="cls-2" d="M133.71,105.95c.47,0,.84.27,1.13.81.04.09.09.19.14.3l1.78,4.16v-5.24h1.28v5.24c0,.35-.17.64-.51.87-.24.16-.5.24-.78.24-.47,0-.85-.27-1.14-.81-.04-.09-.09-.19-.14-.3l-1.78-4.16v5.24h-1.28v-5.24c0-.35.17-.64.51-.87.24-.16.5-.24.78-.24"/>
  <path class="cls-2" d="M139.23,107.11c0-.37.16-.67.48-.9.22-.14.46-.21.72-.21h1.73c.69,0,1.28.24,1.76.73.46.46.7,1.02.7,1.66v1.51c0,.68-.25,1.25-.74,1.72-.48.45-1.06.68-1.72.68h-2.93v-5.2ZM143.33,109.9v-1.51c0-.44-.16-.79-.48-1.04-.21-.17-.44-.26-.69-.26h-1.65v4.11h1.65c.38,0,.69-.17.93-.51.16-.24.24-.5.24-.79"/>
  <path class="cls-2" d="M148.17,107.11c0-.37.16-.67.48-.9.22-.14.46-.21.72-.21h1.73c.69,0,1.28.24,1.76.73.46.46.69,1.02.69,1.66v1.51c0,.68-.25,1.25-.74,1.72-.48.45-1.06.68-1.72.68h-2.93v-5.2ZM152.27,109.9v-1.51c0-.44-.16-.79-.47-1.04-.21-.17-.44-.26-.69-.26h-1.65v4.11h1.65c.38,0,.69-.17.93-.51.16-.24.24-.5.24-.79"/>
  <rect class="cls-2" x="154.61" y="105.99" width="1.28" height="6.31"/>
  <path class="cls-2" d="M159.27,106h.85c.54,0,1.06.12,1.57.36.21.1.38.21.5.33l-1.11.86c-.19-.25-.46-.4-.81-.44-.06,0-.11,0-.15,0h-.85c-.38,0-.69.17-.92.5-.16.24-.24.5-.24.8v1.51c0,.43.16.78.47,1.04.21.18.45.26.71.26h1.64v-2.05h1.29v2.03c0,.38-.16.68-.48.89-.21.15-.46.22-.72.22h-1.73c-.69,0-1.28-.24-1.76-.73-.46-.47-.69-1.02-.69-1.67v-1.51c0-.68.25-1.26.74-1.73.47-.45,1.04-.67,1.7-.67"/>
  <rect class="cls-2" x="163.39" y="105.99" width="1.28" height="6.31"/>
  <path class="cls-2" d="M169.48,105.99l-1.76,1.1h-2.14v-1.1h3.9ZM168.56,112.3h-1.29v-5.19c0-.38.16-.67.48-.89.22-.15.46-.23.73-.23h1.9v1.1h-1.82v5.21Z"/>
  <path class="cls-2" d="M174.46,111.46h-3.36l.53-1.1h2.44l-1.08-3.09-1.77,5.03h-1.37l1.86-5.28c.27-.73.7-1.1,1.28-1.11.58,0,1,.37,1.27,1.11l1.87,5.28h-1.37l-.3-.84Z"/>
  <path class="cls-2" d="M178.13,111.21h3.02v1.1s-3.1,0-3.1,0c-.41,0-.74-.16-.97-.47-.15-.19-.23-.41-.23-.65v-5.19h1.28v5.21Z"/>
  <path class="cls-2" d="M29.78,120.39l1.61-4.57h1.24l-1.69,4.79c-.25.67-.63,1-1.16,1.01-.53,0-.91-.34-1.15-1.01l-1.7-4.79h1.24l1.61,4.57Z"/>
  <path class="cls-2" d="M34.4,119.22v1.34h2.97l.02,1h-3.06c-.37,0-.66-.14-.88-.42-.14-.18-.21-.38-.21-.6v-3.71c0-.34.15-.61.44-.81.2-.14.42-.2.66-.2h3.03v.99s-2.96,0-2.96,0v1.4h2.74v.99h-2.74Z"/>
  <path class="cls-2" d="M39.92,116.82v4.73h-1.16v-4.72c0-.34.15-.61.44-.82.2-.13.41-.19.65-.19h1.57c.7,0,1.27.21,1.69.62.36.36.54.8.54,1.32v.22c0,.66-.26,1.16-.78,1.53-.2.13-.42.24-.65.3l1.56,1.74h-1.45l-1.44-1.62h-1.33l.02-1h1.84c.47,0,.8-.16.96-.49.06-.14.1-.29.1-.46v-.22c0-.45-.21-.74-.62-.88-.13-.04-.28-.07-.45-.07h-1.5Z"/>
  <path class="cls-2" d="M45.78,115.79c.42,0,.77.25,1.03.74.04.08.08.17.13.27l1.62,3.78v-4.76h1.16v4.76c0,.32-.15.58-.46.79-.22.15-.45.22-.71.22-.42,0-.77-.25-1.03-.74-.04-.08-.08-.17-.13-.27l-1.61-3.78v4.76h-1.16v-4.76c0-.32.16-.58.47-.79.22-.15.45-.22.7-.22"/>
  <path class="cls-2" d="M56.08,117.01l-1.29,3.71h-1.23l-1.29-3.71-.44,4.54h-1.24l.53-4.77c.05-.43.25-.73.61-.9.14-.06.3-.1.46-.1.35,0,.61.13.8.4.05.06.08.14.11.21l1.08,3.14,1.07-3.14c.12-.31.34-.5.68-.58.08-.02.16-.03.24-.03.36,0,.65.14.86.42.12.17.19.36.21.57l.53,4.77h-1.24l-.44-4.54Z"/>
  <path class="cls-2" d="M59.75,119.22v1.34h2.97l-.02,1h-3.02c-.37,0-.66-.14-.89-.42-.14-.18-.21-.38-.21-.6v-3.71c0-.34.15-.61.44-.81.2-.14.42-.2.66-.2h3.06l-.02.99h-2.97v1.4h2.74v.99h-2.74Z"/>
  <path class="cls-2" d="M65.28,115.79c.42,0,.77.25,1.03.74.04.08.08.17.13.27l1.62,3.78v-4.76h1.16v4.76c0,.32-.15.58-.46.79-.22.15-.45.22-.7.22-.42,0-.77-.25-1.03-.74-.04-.08-.08-.17-.13-.27l-1.62-3.78v4.76h-1.16v-4.76c0-.32.15-.58.46-.79.22-.15.45-.22.71-.22"/>
  <path class="cls-2" d="M72.8,115.83l-.73.99h-2.06v-.99h2.79ZM72.73,121.55h-1.17v-4.72c0-.34.15-.61.44-.81.2-.14.42-.2.66-.2h1.72v.99h-1.65v4.73Z"/>
  <path class="cls-2" d="M78.65,116.82v4.73h-1.16v-4.72c0-.34.15-.61.44-.82.2-.13.41-.19.65-.19h1.57c.7,0,1.27.21,1.69.62.36.36.54.8.54,1.32v.22c0,.66-.26,1.16-.78,1.53-.2.13-.41.24-.65.3l1.56,1.74h-1.45l-1.44-1.62h-1.37l.17-1h1.73c.48,0,.8-.16.96-.49.07-.14.1-.29.1-.46v-.22c0-.45-.2-.74-.61-.88-.14-.04-.29-.07-.45-.07h-1.5Z"/>
  <path class="cls-2" d="M84.44,119.22v1.34h2.97l.03,1h-3.07c-.37,0-.66-.14-.89-.42-.14-.18-.21-.38-.21-.6v-3.71c0-.34.15-.61.44-.81.2-.14.42-.2.66-.2h3.07l-.03.99h-2.97v1.4h2.74v.99h-2.74Z"/>
  <path class="cls-2" d="M90.77,115.83h.78c.49,0,.96.11,1.42.33.19.09.35.19.46.3l-1.01.78c-.18-.23-.42-.36-.74-.4-.05,0-.1-.01-.14-.01h-.78c-.34,0-.62.16-.83.46-.15.22-.22.46-.22.72v1.37c0,.39.14.71.42.94.2.16.41.24.65.24h1.49v-1.86h1.17v1.84c0,.35-.15.61-.44.82-.2.13-.41.2-.65.2h-1.57c-.63,0-1.16-.22-1.6-.66-.42-.42-.63-.93-.63-1.52v-1.37c0-.62.22-1.14.67-1.57.43-.41.94-.61,1.54-.61"/>
  <path class="cls-2" d="M94.42,115.83h1.17v3.55c0,.4.14.71.43.95.19.16.4.23.63.23h.62c.35,0,.63-.15.84-.46.15-.21.23-.46.23-.72v-3.55h1.16v3.55c0,.61-.22,1.13-.67,1.56-.44.41-.96.62-1.56.62h-.62c-.63,0-1.16-.22-1.6-.66-.42-.42-.63-.93-.63-1.52v-3.55Z"/>
  <path class="cls-2" d="M101.65,120.56h2.75v1s-2.81,0-2.81,0c-.38,0-.67-.14-.89-.42-.14-.17-.21-.37-.21-.59v-4.72h1.16v4.73Z"/>
  <path class="cls-2" d="M109.11,120.79h-3.03l.33-.99h2.34l-.99-2.81-1.61,4.57h-1.24l1.69-4.79c.25-.67.63-1,1.16-1.01.53,0,.91.34,1.15,1.01l1.7,4.79h-1.24l-.27-.76Z"/>
  <path class="cls-2" d="M113.44,115.83l-.93.99h-2.27v-.99h3.2ZM112.96,121.55h-1.17v-4.72c0-.34.15-.61.44-.81.2-.14.42-.2.66-.2h1.72v.99h-1.65v4.73Z"/>
  <path class="cls-2" d="M118.16,121.63h-.77c-.63,0-1.16-.22-1.6-.66-.42-.42-.63-.93-.63-1.51v-1.52c0-.61.22-1.13.67-1.56.44-.41.96-.62,1.56-.62h.77c.63,0,1.16.22,1.6.66.42.42.63.93.63,1.52v1.52c0,.62-.22,1.13-.67,1.56-.44.41-.96.61-1.56.61M117.38,120.63h.77c.35,0,.63-.15.84-.47.15-.21.22-.45.22-.72v-1.52c0-.4-.14-.71-.43-.95-.19-.16-.4-.23-.63-.23h-.77c-.35,0-.63.15-.84.46-.15.22-.23.46-.23.72v1.52c0,.39.14.71.43.94.2.16.41.24.64.24"/>
  <path class="cls-2" d="M122.47,116.82v4.73h-1.16v-4.72c0-.34.15-.61.44-.82.2-.13.42-.19.65-.19h1.57c.7,0,1.26.21,1.69.62.36.36.54.8.54,1.32v.22c0,.66-.26,1.16-.78,1.53-.2.13-.42.24-.65.3l1.56,1.74h-1.45l-1.44-1.62h-1.17v-1s1.7,0,1.7,0c.47,0,.79-.16.96-.49.06-.14.1-.29.1-.46v-.22c0-.45-.2-.74-.62-.88-.14-.04-.29-.07-.45-.07h-1.5Z"/>
  <path class="cls-2" d="M137.73,120.79h-3.08l.26-.99h2.46l-.99-2.81-1.61,4.57h-1.24l1.69-4.79c.25-.67.63-1,1.16-1.01.53,0,.91.34,1.15,1.01l1.7,4.79h-1.25l-.27-.76Z"/>
  <path class="cls-2" d="M139.85,115.83h1.17v3.55c0,.4.14.71.43.95.19.16.4.23.63.23h.62c.35,0,.63-.15.84-.46.15-.21.23-.46.23-.72v-3.55h1.16v3.55c0,.61-.22,1.13-.67,1.56-.44.41-.96.62-1.56.62h-.62c-.63,0-1.16-.22-1.6-.66-.42-.42-.63-.93-.63-1.52v-3.55Z"/>
  <path class="cls-2" d="M148.78,115.83l-1,.99h-2.11v-.99h3.11ZM148.39,121.55h-1.17v-4.72c0-.34.15-.61.44-.81.2-.14.42-.2.66-.2h1.72v.99h-1.65v4.73Z"/>
  <polygon class="cls-2" points="152.03 118.85 151.73 118.23 154.53 118.23 154.53 115.83 155.7 115.83 155.7 121.55 154.53 121.55 154.53 119.22 152.03 119.22 152.03 121.55 150.87 121.55 150.87 115.83 152.03 115.83 152.03 118.85"/>
  <path class="cls-2" d="M159.57,121.63h-.77c-.63,0-1.16-.22-1.6-.66-.42-.42-.63-.93-.63-1.51v-1.52c0-.61.22-1.13.67-1.56.44-.41.96-.62,1.56-.62h.77c.63,0,1.16.22,1.6.66.42.42.63.93.63,1.52v1.52c0,.62-.22,1.13-.67,1.56-.44.41-.96.61-1.56.61M158.8,120.63h.77c.35,0,.63-.15.84-.47.15-.21.22-.45.22-.72v-1.52c0-.4-.14-.71-.43-.95-.19-.16-.4-.23-.63-.23h-.77c-.35,0-.63.15-.84.46-.15.22-.23.46-.23.72v1.52c0,.39.14.71.42.94.2.16.41.24.64.24"/>
  <path class="cls-2" d="M163.89,116.82v4.73h-1.16v-4.72c0-.34.15-.61.44-.82.2-.13.41-.19.65-.19h1.57c.7,0,1.27.21,1.69.62.36.36.54.8.54,1.32v.22c0,.66-.26,1.16-.78,1.53-.2.13-.42.24-.65.3l1.56,1.74h-1.45l-1.44-1.62h-1.33l-.19-1h2.05c.47,0,.79-.16.96-.49.06-.14.1-.29.1-.46v-.22c0-.45-.21-.74-.62-.88-.14-.04-.29-.07-.45-.07h-1.5Z"/>
  <rect class="cls-2" x="168.63" y="115.83" width="1.16" height="5.73"/>
  <path class="cls-2" d="M173.55,115.83l-.76.99h-2.19v-.99h2.94ZM173.33,121.55h-1.17v-4.72c0-.34.15-.61.44-.81.2-.14.42-.2.66-.2h1.72v.99h-1.65v4.73Z"/>
  <path class="cls-2" d="M178.12,118.31l1.61-2.49h1.24l-1.7,2.71c-.21.31-.39.53-.56.66v2.36h-1.17v-2.34c-.2-.14-.39-.36-.58-.67l-1.69-2.71h1.24l1.61,2.49Z"/>
  <path class="cls-2" d="M129.3,118.31l1.61-2.49h1.24l-1.7,2.71c-.21.31-.39.53-.56.66v2.36h-1.17v-2.34c-.2-.14-.39-.36-.58-.67l-1.69-2.71h1.24l1.61,2.49Z"/>
  <rect class="cls-2" x="14.42" y="58.44" width="114.49" height="1.33"/>
  <rect class="cls-2" x="65.83" y="58.44" width="114.49" height="1.33"/>
</svg>