<?xml version="1.0" encoding="UTF-8"?>
<svg id="Layer_1" data-name="Layer 1" xmlns="http://www.w3.org/2000/svg" viewBox="0 0 1779.71 226.77">
  <defs>
    <style>
      .cls-1 {
        fill: #ad833b;
      }
    </style>
  </defs>
  <g>
    <path class="cls-1" d="M23.68,105.72c.66-.35,3.61-.62,4.66-.62.44,0,.7.26.84,1.36l2.33,16.19c.7,4.62,1.19,7.88,1.58,9.99-.75.22-3.52.4-4.4.4-.57,0-1.14-.22-1.23-1.1-.26-2.25-.53-4.62-1.01-9.29l-1.28-11.05c-1.23,3.83-3.83,11.13-6.64,19.41-.31.88-.62,1.23-1.58,1.45-.79.13-1.85.31-2.73.31-1.06-3.43-4.93-15.09-6.91-21.08-.62,5.41-1.94,15.49-2.6,20.64-.09.48-.31.7-.79.7-1.19,0-3.21,0-3.92-.4.79-4.66,2.55-16.06,4.27-26.1l-.13-.84c1.1-.22,2.68-.62,4.8-.62.66.18,1.01.79,1.8,3.04l5.94,16.41c2.2-5.76,5.15-13.69,7-18.17v-.66Z"/>
    <path class="cls-1" d="M38.98,111.04c0-2.95-.04-4.75-.13-5.59.79-.13,3.83-.35,4.75-.35.75,0,.88.4.88,2.38v19.8c0,3.08.09,4.53.13,5.41-.75.22-3.7.35-4.71.35-.66,0-.92-.13-.92-.88v-21.12Z"/>
    <path class="cls-1" d="M51.35,105.68v-.22c.84-.13,4.62-.35,5.41-.35.44,0,.79.31,1.23.79,1.41,2.02,5.02,7.52,8.19,12.41,1.98,3.12,3.61,5.59,4.66,7.83-.26-3.39-.22-5.1-.22-7.31v-12.28c0-1.01.31-1.19.92-1.28,1.36-.13,2.55-.18,3.56-.18-.09,1.89-.13,4.44-.13,8.1v19.41c-.4.18-2.9.7-4.18.7-.53,0-.79-.18-1.1-.62-2.29-3.17-4.53-6.6-8.01-11.97-2.33-3.7-3.61-6.16-5.41-9.55.26,4.44.22,6.73.22,8.98v11.53c0,.92-.26,1.06-.97,1.19-.79.13-2.2.22-3.52.18.09-1.76.13-4.31.13-8.01v-18.26l-.79-1.1Z"/>
    <path class="cls-1" d="M82.67,111.04c0-2.95-.04-4.75-.13-5.59.79-.13,3.83-.35,4.75-.35.75,0,.88.4.88,2.38v19.8c0,3.08.09,4.53.13,5.41-.75.22-3.7.35-4.71.35-.66,0-.92-.13-.92-.88v-21.12Z"/>
    <path class="cls-1" d="M103.53,104.62c2.33,0,5.24.97,6.34,2.11,0,1.1-.7,2.9-2.24,2.82-1.01-.53-2.9-1.1-4.31-1.1-2.33,0-4,1.1-4,3.04,0,2.07,1.45,3.12,5.54,5.46,3.96,2.24,6.21,3.92,6.21,8.1,0,5.46-4.75,8.41-9.95,8.41-3.04,0-5.28-.88-6.42-1.72-.75-.48-1.01-.92-1.01-1.5,0-.92.66-2.55,1.06-2.82,1.58,1.1,4.22,2.07,6.34,2.07,2.64,0,4.49-1.14,4.49-3.39,0-1.94-1.01-3.04-5.46-5.46-5.1-2.77-5.99-5.59-5.99-8.23,0-2.99,2.11-7.79,9.37-7.79h.04Z"/>
    <path class="cls-1" d="M122.41,108.93h-7.92c-.7,0-1.06-.31-.75-1.32.48-1.32,1.01-2.07,1.45-2.55.7.18,1.89.22,6.34.22h15.67c-.18,2.33-1.36,3.43-2.29,3.65h-7v18.4c0,3.04.09,4.49.13,5.37-1.23.22-2.95.35-4.71.35-.62,0-.92-.13-.92-.79v-23.32Z"/>
    <path class="cls-1" d="M141.55,111.44c0-2.11,0-3.7-.13-5.54,1.23-.31,3.17-.57,4.97-.62h10.69c-.26,1.98-.79,2.82-1.32,3.39-.66.26-2.16.26-4.14.26h-4.58v7.88h9.59c-.4,3.08-1.36,3.65-2.9,3.65h-6.69v8.62c1.01.22,2.42.31,4.09.31,1.8,0,5.02,0,7.13-.18l.09.09c-.4,1.89-1.23,2.9-2.33,3.52-.62.13-2.6.22-5.98.22-3.87,0-6.78-.22-7.83-.44l-.66-.84v-20.33Z"/>
    <path class="cls-1" d="M168.65,131.73c0,.88-.26,1.06-1.01,1.14-1.23.13-3.65.18-4.53.18.09-1.76.13-4.36.13-8.05v-14.74c0-2.2,0-3.26-.09-4.49,1.14-.26,5.54-.75,7.57-.75,7,0,10.47,2.38,10.47,7.97,0,4.18-3.52,6.2-5.28,7,1.01.88,2.38,3.08,3.87,5.68,2.11,3.7,3.52,5.68,4.62,6.86v.18c-.35.26-1.98.44-3.56.44s-2.77-.44-3.92-1.98c-1.19-1.54-2.07-3.3-3.83-6.73-1.36-2.51-2.2-2.86-3.65-2.86h-.79v10.17ZM168.65,118.39c1.19.13,3.61,0,4.22-.31.92-.35,2.68-1.67,2.68-4.62,0-3.65-2.29-5.19-5.02-5.19-.62,0-1.36.04-1.89.13v9.99Z"/>
    <path class="cls-1" d="M211.46,104.62c8.89,0,14.04,6.42,14.04,14.17s-4.88,14.65-14.21,14.65c-10.17,0-14.17-7.53-14.17-14.17,0-8.32,5.32-14.65,14.3-14.65h.04ZM210.94,108.05c-4.31,0-7.88,3.48-7.88,10.69s4,11.27,8.63,11.27c4.93,0,7.96-3.96,7.96-10.83,0-6.25-3.21-11.13-8.67-11.13h-.04Z"/>
    <path class="cls-1" d="M231.44,110.6c0-1.94-.04-3.12-.13-4.66.79-.22,3.39-.57,5.32-.66,1.58-.04,9.06,0,11.18,0-.35,1.98-.97,2.82-1.54,3.39-.57.26-1.5.26-3.43.26h-5.9v8.76h9.95c-.44,3.34-1.5,3.65-3.21,3.65h-6.73c0,4.4.04,8.05.13,11.35-.75.22-2.95.35-4.66.35-.66,0-.97-.13-.97-.84v-21.61Z"/>
    <path class="cls-1" d="M270.69,104.62c2.33,0,5.24.97,6.34,2.11,0,1.1-.7,2.9-2.24,2.82-1.01-.53-2.9-1.1-4.31-1.1-2.33,0-4,1.1-4,3.04,0,2.07,1.45,3.12,5.54,5.46,3.96,2.24,6.21,3.92,6.21,8.1,0,5.46-4.75,8.41-9.95,8.41-3.04,0-5.28-.88-6.42-1.72-.75-.48-1.01-.92-1.01-1.5,0-.92.66-2.55,1.06-2.82,1.58,1.1,4.22,2.07,6.34,2.07,2.64,0,4.49-1.14,4.49-3.39,0-1.94-1.01-3.04-5.46-5.46-5.1-2.77-5.99-5.59-5.99-8.23,0-2.99,2.11-7.79,9.37-7.79h.04Z"/>
    <path class="cls-1" d="M289.56,108.93h-7.92c-.7,0-1.06-.31-.75-1.32.48-1.32,1.01-2.07,1.45-2.55.7.18,1.89.22,6.34.22h15.67c-.18,2.33-1.36,3.43-2.29,3.65h-7v18.4c0,3.04.09,4.49.13,5.37-1.23.22-2.95.35-4.71.35-.62,0-.92-.13-.92-.79v-23.32Z"/>
    <path class="cls-1" d="M310.9,125.21c-1.01,2.55-2.29,5.81-2.86,7.22-.18.4-.53.62-1.23.62-.97,0-2.9-.26-3.87-.57v-.18c2.29-5.37,9.15-21.74,10.83-25.74l-.35-.92c1.63-.35,4.09-.53,4.62-.53.4,0,.79.26,1.01.79,2.02,4.84,5.37,13.51,6.91,17.34,1.8,4.49,2.86,7.26,3.74,9.11v.18c-.97.31-3.96.53-4.93.53-.7,0-1.06-.22-1.5-1.41-.79-2.24-1.41-3.92-2.42-6.42h-9.95ZM319.79,121.56c-2.02-5.46-3.34-8.76-3.83-10.17-1.1,2.9-2.33,6.38-3.83,10.17h7.66Z"/>
    <path class="cls-1" d="M337.61,108.93h-7.92c-.7,0-1.06-.31-.75-1.32.48-1.32,1.01-2.07,1.45-2.55.7.18,1.89.22,6.34.22h15.67c-.18,2.33-1.36,3.43-2.29,3.65h-7v18.4c0,3.04.09,4.49.13,5.37-1.23.22-2.95.35-4.71.35-.62,0-.92-.13-.92-.79v-23.32Z"/>
    <path class="cls-1" d="M356.75,111.44c0-2.11,0-3.7-.13-5.54,1.23-.31,3.17-.57,4.97-.62h10.69c-.26,1.98-.79,2.82-1.32,3.39-.66.26-2.16.26-4.14.26h-4.58v7.88h9.59c-.4,3.08-1.36,3.65-2.9,3.65h-6.69v8.62c1.01.22,2.42.31,4.09.31,1.8,0,5.02,0,7.13-.18l.09.09c-.4,1.89-1.23,2.9-2.33,3.52-.62.13-2.6.22-5.98.22-3.87,0-6.78-.22-7.83-.44l-.66-.84v-20.33Z"/>
    <path class="cls-1" d="M388.87,110.6c0-1.94-.04-3.12-.13-4.66.79-.22,3.39-.57,5.32-.66,1.58-.04,9.07,0,11.18,0-.35,1.98-.97,2.82-1.54,3.39-.57.26-1.5.26-3.43.26h-5.9v8.76h9.95c-.44,3.34-1.5,3.65-3.21,3.65h-6.73c0,4.4.04,8.05.13,11.35-.75.22-2.95.35-4.66.35-.66,0-.97-.13-.97-.84v-21.61Z"/>
    <path class="cls-1" d="M422.88,104.62c8.89,0,14.04,6.42,14.04,14.17s-4.88,14.65-14.21,14.65c-10.17,0-14.17-7.53-14.17-14.17,0-8.32,5.32-14.65,14.3-14.65h.04ZM422.35,108.05c-4.31,0-7.88,3.48-7.88,10.69s4,11.27,8.63,11.27c4.93,0,7.96-3.96,7.96-10.83,0-6.25-3.21-11.13-8.67-11.13h-.04Z"/>
    <path class="cls-1" d="M448.22,131.73c0,.88-.26,1.06-1.01,1.14-1.23.13-3.65.18-4.53.18.09-1.76.13-4.36.13-8.05v-14.74c0-2.2,0-3.26-.09-4.49,1.14-.26,5.54-.75,7.57-.75,7,0,10.47,2.38,10.47,7.97,0,4.18-3.52,6.2-5.28,7,1.01.88,2.38,3.08,3.87,5.68,2.11,3.7,3.52,5.68,4.62,6.86v.18c-.35.26-1.98.44-3.56.44s-2.77-.44-3.92-1.98c-1.19-1.54-2.07-3.3-3.83-6.73-1.36-2.51-2.2-2.86-3.65-2.86h-.79v10.17ZM448.22,118.39c1.19.13,3.61,0,4.22-.31.92-.35,2.68-1.67,2.68-4.62,0-3.65-2.29-5.19-5.02-5.19-.62,0-1.36.04-1.89.13v9.99Z"/>
    <path class="cls-1" d="M495.92,123.76c0-1.85-.09-2.86-.18-3.92,1.41-.22,3.52-.66,4.75-.66.66,0,.92.26.92,1.19v9.95c-.84.7-2.29,1.63-3.48,2.2-1.54.44-3.92.92-6.03.92-7.39,0-15.23-3.26-15.23-14.21,0-9.06,7-14.61,15.62-14.61,4.8,0,8.05,1.54,9.11,2.55.04,1.72-1.23,3.04-2.64,2.77-1.98-.97-4.27-1.45-6.6-1.45-5.41,0-9.59,3.52-9.59,10.39,0,7.66,5.1,11.13,10.25,11.13,1.23,0,2.55-.26,3.08-.48v-5.76Z"/>
    <path class="cls-1" d="M520.6,104.62c8.89,0,14.04,6.42,14.04,14.17s-4.88,14.65-14.21,14.65c-10.17,0-14.17-7.53-14.17-14.17,0-8.32,5.32-14.65,14.3-14.65h.04ZM520.08,108.05c-4.31,0-7.88,3.48-7.88,10.69s4,11.27,8.63,11.27c4.93,0,7.96-3.96,7.96-10.83,0-6.25-3.21-11.13-8.67-11.13h-.04Z"/>
    <path class="cls-1" d="M542.69,105.1c.66,0,.97.57,1.8,2.86,1.63,4.58,4.4,11.84,6.6,18.66,2.38-6.91,5.15-14.43,7.7-21.56,1.45,0,3.26.31,3.87.57.66.22.7.79.31,1.89-3.08,8.19-6.38,16.06-9.59,23.81-.35.79-.66,1.28-1.1,1.45-.53.31-2.24.53-4.05.53-3.26-8.71-6.91-18.66-10.69-27.24,1.76-.53,3.83-.97,5.15-.97Z"/>
    <path class="cls-1" d="M567.9,111.44c0-2.11,0-3.7-.13-5.54,1.23-.31,3.17-.57,4.97-.62h10.69c-.26,1.98-.79,2.82-1.32,3.39-.66.26-2.16.26-4.14.26h-4.58v7.88h9.59c-.4,3.08-1.36,3.65-2.9,3.65h-6.69v8.62c1.01.22,2.42.31,4.09.31,1.8,0,5.02,0,7.13-.18l.09.09c-.4,1.89-1.23,2.9-2.33,3.52-.62.13-2.6.22-5.98.22-3.87,0-6.78-.22-7.83-.44l-.66-.84v-20.33Z"/>
    <path class="cls-1" d="M595.01,131.73c0,.88-.26,1.06-1.01,1.14-1.23.13-3.65.18-4.53.18.09-1.76.13-4.36.13-8.05v-14.74c0-2.2,0-3.26-.09-4.49,1.14-.26,5.54-.75,7.57-.75,7,0,10.47,2.38,10.47,7.97,0,4.18-3.52,6.2-5.28,7,1.01.88,2.38,3.08,3.87,5.68,2.11,3.7,3.52,5.68,4.62,6.86v.18c-.35.26-1.98.44-3.56.44s-2.77-.44-3.92-1.98c-1.19-1.54-2.07-3.3-3.83-6.73-1.36-2.51-2.2-2.86-3.65-2.86h-.79v10.17ZM595.01,118.39c1.19.13,3.61,0,4.22-.31.92-.35,2.68-1.67,2.68-4.62,0-3.65-2.29-5.19-5.02-5.19-.62,0-1.36.04-1.89.13v9.99Z"/>
    <path class="cls-1" d="M614.37,105.68v-.22c.84-.13,4.62-.35,5.41-.35.44,0,.79.31,1.23.79,1.41,2.02,5.02,7.52,8.19,12.41,1.98,3.12,3.61,5.59,4.66,7.83-.26-3.39-.22-5.1-.22-7.31v-12.28c0-1.01.31-1.19.92-1.28,1.36-.13,2.55-.18,3.56-.18-.09,1.89-.13,4.44-.13,8.1v19.41c-.4.18-2.9.7-4.18.7-.53,0-.79-.18-1.1-.62-2.29-3.17-4.53-6.6-8.01-11.97-2.33-3.7-3.61-6.16-5.41-9.55.26,4.44.22,6.73.22,8.98v11.53c0,.92-.26,1.06-.97,1.19-.79.13-2.2.22-3.52.18.09-1.76.13-4.31.13-8.01v-18.26l-.79-1.1Z"/>
    <path class="cls-1" d="M667.7,105.72c.66-.35,3.61-.62,4.66-.62.44,0,.7.26.84,1.36l2.33,16.19c.7,4.62,1.19,7.88,1.58,9.99-.75.22-3.52.4-4.4.4-.57,0-1.14-.22-1.23-1.1-.26-2.25-.53-4.62-1.01-9.29l-1.28-11.05c-1.23,3.83-3.83,11.13-6.65,19.41-.31.88-.62,1.23-1.58,1.45-.79.13-1.85.31-2.73.31-1.06-3.43-4.93-15.09-6.91-21.08-.62,5.41-1.94,15.49-2.6,20.64-.09.48-.31.7-.79.7-1.19,0-3.21,0-3.92-.4.79-4.66,2.55-16.06,4.27-26.1l-.13-.84c1.1-.22,2.68-.62,4.8-.62.66.18,1.01.79,1.8,3.04l5.94,16.41c2.2-5.76,5.15-13.69,7-18.17v-.66Z"/>
    <path class="cls-1" d="M683.01,111.44c0-2.11,0-3.7-.13-5.54,1.23-.31,3.17-.57,4.97-.62h10.69c-.26,1.98-.79,2.82-1.32,3.39-.66.26-2.16.26-4.14.26h-4.58v7.88h9.59c-.4,3.08-1.36,3.65-2.9,3.65h-6.69v8.62c1.01.22,2.42.31,4.09.31,1.8,0,5.02,0,7.13-.18l.09.09c-.4,1.89-1.23,2.9-2.33,3.52-.62.13-2.6.22-5.98.22-3.87,0-6.78-.22-7.83-.44l-.66-.84v-20.33Z"/>
    <path class="cls-1" d="M703.99,105.68v-.22c.84-.13,4.62-.35,5.41-.35.44,0,.79.31,1.23.79,1.41,2.02,5.02,7.52,8.19,12.41,1.98,3.12,3.61,5.59,4.66,7.83-.26-3.39-.22-5.1-.22-7.31v-12.28c0-1.01.31-1.19.92-1.28,1.36-.13,2.55-.18,3.56-.18-.09,1.89-.13,4.44-.13,8.1v19.41c-.4.18-2.9.7-4.18.7-.53,0-.79-.18-1.1-.62-2.29-3.17-4.53-6.6-8.01-11.97-2.33-3.7-3.61-6.16-5.41-9.55.26,4.44.22,6.73.22,8.98v11.53c0,.92-.26,1.06-.97,1.19-.79.13-2.2.22-3.52.18.09-1.76.13-4.31.13-8.01v-18.26l-.79-1.1Z"/>
    <path class="cls-1" d="M741.04,108.93h-7.92c-.7,0-1.06-.31-.75-1.32.48-1.32,1.01-2.07,1.45-2.55.7.18,1.89.22,6.34.22h15.67c-.18,2.33-1.36,3.43-2.29,3.65h-7v18.4c0,3.04.09,4.49.13,5.37-1.23.22-2.95.35-4.71.35-.62,0-.92-.13-.92-.79v-23.32Z"/>
    <path class="cls-1" d="M173.49,167.87c0-3.04-.04-3.87-.09-5.02.97-.22,5.41-.84,9.02-.84,13.25,0,15.62,7.97,15.62,13.6,0,9.5-6.82,14.61-15.84,14.61-3.26,0-5.9-.26-8.71-.84v-21.52ZM178.99,186.44c1.06.26,2.24.35,3.43.35,3.96,0,9.73-1.89,9.73-11.09,0-6.65-3.78-10.25-10.34-10.25-1.36,0-2.16.09-2.82.22v20.77Z"/>
    <path class="cls-1" d="M203.9,168.44c0-2.11,0-3.7-.13-5.54,1.23-.31,3.17-.57,4.97-.62h10.69c-.26,1.98-.79,2.82-1.32,3.39-.66.26-2.16.26-4.14.26h-4.58v7.88h9.59c-.4,3.08-1.36,3.65-2.9,3.65h-6.69v8.62c1.01.22,2.42.31,4.09.31,1.8,0,5.02,0,7.13-.18l.09.09c-.4,1.89-1.23,2.9-2.33,3.52-.62.13-2.6.22-5.98.22-3.87,0-6.78-.22-7.83-.44l-.66-.84v-20.33Z"/>
    <path class="cls-1" d="M228.4,162.1c.66,0,.97.57,1.8,2.86,1.63,4.58,4.4,11.84,6.6,18.66,2.38-6.91,5.15-14.43,7.7-21.56,1.45,0,3.26.31,3.87.57.66.22.7.79.31,1.89-3.08,8.18-6.38,16.06-9.59,23.81-.35.79-.66,1.28-1.1,1.45-.53.31-2.24.53-4.05.53-3.26-8.71-6.91-18.66-10.69-27.24,1.76-.53,3.83-.97,5.15-.97Z"/>
    <path class="cls-1" d="M253.61,168.44c0-2.11,0-3.7-.13-5.54,1.23-.31,3.17-.57,4.97-.62h10.69c-.26,1.98-.79,2.82-1.32,3.39-.66.26-2.16.26-4.14.26h-4.58v7.88h9.59c-.4,3.08-1.36,3.65-2.9,3.65h-6.69v8.62c1.01.22,2.42.31,4.09.31,1.8,0,5.02,0,7.13-.18l.09.09c-.4,1.89-1.23,2.9-2.33,3.52-.62.13-2.6.22-5.98.22-3.87,0-6.78-.22-7.83-.44l-.66-.84v-20.33Z"/>
    <path class="cls-1" d="M275.35,168.13c0-2.95-.04-4.75-.13-5.68.97-.13,3.08-.35,4.75-.35.75,0,.88.4.88,2.6v21.39c.84.22,2.33.31,3.96.31,1.8,0,4.49,0,6.65-.22l.04.09c-.26,1.72-1.14,2.95-2.24,3.56-.62.13-2.16.22-5.54.22-3.65,0-6.6-.22-7.7-.44l-.66-.84v-20.64Z"/>
    <path class="cls-1" d="M307.91,161.62c8.89,0,14.04,6.42,14.04,14.17s-4.88,14.65-14.21,14.65c-10.17,0-14.17-7.53-14.17-14.17,0-8.32,5.32-14.65,14.3-14.65h.04ZM307.38,165.05c-4.31,0-7.88,3.48-7.88,10.69s4,11.27,8.63,11.27c4.93,0,7.96-3.96,7.96-10.83,0-6.25-3.21-11.13-8.67-11.13h-.04Z"/>
    <path class="cls-1" d="M327.89,168.48c0-2.11,0-3.92-.18-5.94,1.19-.18,4.18-.53,7.22-.53,6.69,0,11.35,2.29,11.35,8.93s-5.46,8.76-8.36,8.8c-.7,0-1.76-.09-2.24-.35-.66-.35-1.45-1.58-1.45-2.99.35.09.97.13,1.41.13,2.2,0,4.93-1.14,4.93-5.59,0-4.18-2.82-5.5-5.41-5.5-.53,0-1.14.04-1.76.13v18.88c0,3.08.09,4.36.13,5.24-.75.22-3.48.35-4.66.35-.66,0-.97-.13-.97-.79v-20.77Z"/>
    <path class="cls-1" d="M374.05,162.72c.66-.35,3.61-.62,4.66-.62.44,0,.7.26.84,1.36l2.33,16.19c.7,4.62,1.19,7.88,1.58,9.99-.75.22-3.52.4-4.4.4-.57,0-1.14-.22-1.23-1.1-.26-2.25-.53-4.62-1.01-9.29l-1.28-11.05c-1.23,3.83-3.83,11.13-6.64,19.41-.31.88-.62,1.23-1.58,1.45-.79.13-1.85.31-2.73.31-1.06-3.43-4.93-15.09-6.91-21.08-.62,5.41-1.94,15.49-2.6,20.64-.09.48-.31.7-.79.7-1.19,0-3.21,0-3.92-.4.79-4.66,2.55-16.06,4.27-26.1l-.13-.84c1.1-.22,2.68-.62,4.8-.62.66.18,1.01.79,1.8,3.04l5.94,16.42c2.2-5.76,5.15-13.69,7-18.17v-.66Z"/>
    <path class="cls-1" d="M389.35,168.44c0-2.11,0-3.7-.13-5.54,1.23-.31,3.17-.57,4.97-.62h10.69c-.26,1.98-.79,2.82-1.32,3.39-.66.26-2.16.26-4.14.26h-4.58v7.88h9.59c-.4,3.08-1.36,3.65-2.9,3.65h-6.69v8.62c1.01.22,2.42.31,4.09.31,1.8,0,5.02,0,7.13-.18l.09.09c-.4,1.89-1.23,2.9-2.33,3.52-.62.13-2.6.22-5.98.22-3.87,0-6.78-.22-7.83-.44l-.66-.84v-20.33Z"/>
    <path class="cls-1" d="M410.34,162.68v-.22c.84-.13,4.62-.35,5.41-.35.44,0,.79.31,1.23.79,1.41,2.02,5.02,7.53,8.19,12.41,1.98,3.12,3.61,5.59,4.66,7.83-.26-3.39-.22-5.1-.22-7.31v-12.28c0-1.01.31-1.19.92-1.28,1.36-.13,2.55-.18,3.56-.18-.09,1.89-.13,4.44-.13,8.1v19.41c-.4.18-2.9.7-4.18.7-.53,0-.79-.18-1.1-.62-2.29-3.17-4.53-6.6-8.01-11.97-2.33-3.7-3.61-6.16-5.41-9.55.26,4.44.22,6.73.22,8.98v11.53c0,.92-.26,1.06-.97,1.19-.79.13-2.2.22-3.52.18.09-1.76.13-4.31.13-8.01v-18.26l-.79-1.1Z"/>
    <path class="cls-1" d="M447.39,165.93h-7.92c-.7,0-1.06-.31-.75-1.32.48-1.32,1.01-2.07,1.45-2.55.7.18,1.89.22,6.34.22h15.67c-.18,2.33-1.36,3.43-2.29,3.65h-7v18.39c0,3.04.09,4.49.13,5.37-1.23.22-2.95.35-4.71.35-.62,0-.92-.13-.92-.79v-23.32Z"/>
    <path class="cls-1" d="M501.95,189.56c-.75.26-2.64.75-4.93.75-.79,0-1.36-.31-1.94-.79-.75-.75-1.98-1.89-2.95-2.73-2.6,2.68-5.37,3.52-7.92,3.52-5.28,0-8.63-2.9-8.63-7.61,0-3.87,3.3-5.72,5.37-7.04-1.94-1.94-2.68-4-2.68-6.03,0-3.78,2.95-6.87,7.35-6.87,3.78,0,6.91,1.94,6.91,6.12,0,3.48-3.04,5.24-5.28,6.69,1.98,1.76,4.75,4.31,5.5,4.97.97-1.94,2.55-5.24,3.78-7.39.57-.92,1.14-1.5,1.89-1.5,1.76,0,2.86.66,3.39,1.1v.18c-1.32,1.45-3.56,4.88-6.56,10.17,4.53,4.09,6.07,5.68,6.73,6.29l-.04.18ZM485.76,186.44c1.41,0,3.04-.62,4.09-1.89-1.58-1.54-5.63-5.33-7-6.86-.97.66-2.07,2.07-2.07,4.05,0,2.51,1.89,4.71,4.93,4.71h.04ZM482.81,169.01c0,1.67.84,3.08,2.51,4.62,1.85-1.28,2.82-2.73,2.82-4.62,0-2.07-1.19-3.26-2.64-3.26s-2.68,1.14-2.68,3.21v.04Z"/>
    <path class="cls-1" d="M524.17,165.93h-7.92c-.7,0-1.06-.31-.75-1.32.48-1.32,1.01-2.07,1.45-2.55.7.18,1.89.22,6.34.22h15.67c-.18,2.33-1.36,3.43-2.29,3.65h-7v18.39c0,3.04.09,4.49.13,5.37-1.23.22-2.95.35-4.71.35-.62,0-.92-.13-.92-.79v-23.32Z"/>
    <path class="cls-1" d="M560.56,173.63v-10.12c0-.97.35-1.14,1.06-1.23,1.06-.09,3.21-.13,4.58-.18-.09,1.67-.13,4.31-.13,7.97v14.21c0,3.08.09,4.53.13,5.41-.88.22-3.7.35-4.71.35-.62,0-.92-.13-.92-.84v-12.06c-.88.09-2.33.13-5.02.13h-6.73v11.4c0,.92-.35,1.1-1.36,1.19-1.19.13-3.34.22-4.27.18.09-1.76.13-4.36.13-8.05v-13.91c0-2.99-.04-4.8-.13-5.63,1.14-.22,3.78-.35,4.71-.35.79,0,.92.4.92,2.38v9.15h11.75Z"/>
    <path class="cls-1" d="M573.67,168.44c0-2.11,0-3.7-.13-5.54,1.23-.31,3.17-.57,4.97-.62h10.69c-.26,1.98-.79,2.82-1.32,3.39-.66.26-2.16.26-4.14.26h-4.58v7.88h9.59c-.4,3.08-1.36,3.65-2.9,3.65h-6.69v8.62c1.01.22,2.42.31,4.09.31,1.8,0,5.02,0,7.13-.18l.09.09c-.4,1.89-1.23,2.9-2.33,3.52-.62.13-2.6.22-5.98.22-3.87,0-6.78-.22-7.83-.44l-.66-.84v-20.33Z"/>
    <path class="cls-1" d="M605.79,167.6c0-1.94-.04-3.12-.13-4.66.79-.22,3.39-.57,5.32-.66,1.58-.04,9.07,0,11.18,0-.35,1.98-.97,2.82-1.54,3.39-.57.26-1.5.26-3.43.26h-5.9v8.76h9.95c-.44,3.34-1.5,3.65-3.21,3.65h-6.73c0,4.4.04,8.05.13,11.35-.75.22-2.95.35-4.66.35-.66,0-.97-.13-.97-.84v-21.61Z"/>
    <path class="cls-1" d="M632.19,176.98c0,8.19,3.52,9.51,6.56,9.51,3.56,0,6.56-1.5,6.56-9.9v-13.2c0-.84.35-1.01.97-1.1,1.28-.13,2.99-.18,3.87-.18-.09,1.76-.13,4.36-.13,8.01v6.25c0,12.32-6.51,14.08-11.88,14.08-7.44,0-11.44-3.83-11.44-13.29v-9.02c0-2.95-.04-4.75-.13-5.68.79-.13,3.83-.35,4.71-.35.79,0,.92.4.92,2.55v12.32Z"/>
    <path class="cls-1" d="M663.43,165.93h-7.92c-.7,0-1.06-.31-.75-1.32.48-1.32,1.01-2.07,1.45-2.55.7.18,1.89.22,6.34.22h15.67c-.18,2.33-1.36,3.43-2.29,3.65h-7v18.39c0,3.04.09,4.49.13,5.37-1.23.22-2.95.35-4.71.35-.62,0-.92-.13-.92-.79v-23.32Z"/>
    <path class="cls-1" d="M687.98,176.98c0,8.19,3.52,9.51,6.56,9.51,3.56,0,6.56-1.5,6.56-9.9v-13.2c0-.84.35-1.01.97-1.1,1.28-.13,2.99-.18,3.87-.18-.09,1.76-.13,4.36-.13,8.01v6.25c0,12.32-6.51,14.08-11.88,14.08-7.44,0-11.44-3.83-11.44-13.29v-9.02c0-2.95-.04-4.75-.13-5.68.79-.13,3.83-.35,4.71-.35.79,0,.92.4.92,2.55v12.32Z"/>
    <path class="cls-1" d="M718.38,188.73c0,.88-.26,1.06-1.01,1.14-1.23.13-3.65.18-4.53.18.09-1.76.13-4.36.13-8.05v-14.74c0-2.2,0-3.26-.09-4.49,1.14-.26,5.54-.75,7.57-.75,7,0,10.47,2.38,10.47,7.97,0,4.18-3.52,6.2-5.28,7,1.01.88,2.38,3.08,3.87,5.68,2.11,3.7,3.52,5.68,4.62,6.86v.18c-.35.26-1.98.44-3.56.44s-2.77-.44-3.92-1.98c-1.19-1.54-2.07-3.3-3.83-6.73-1.36-2.51-2.2-2.86-3.65-2.86h-.79v10.17ZM718.38,175.39c1.19.13,3.61,0,4.22-.31.92-.35,2.68-1.67,2.68-4.62,0-3.65-2.29-5.19-5.02-5.19-.62,0-1.36.04-1.89.13v9.99Z"/>
    <path class="cls-1" d="M738.49,168.44c0-2.11,0-3.7-.13-5.54,1.23-.31,3.17-.57,4.97-.62h10.69c-.26,1.98-.79,2.82-1.32,3.39-.66.26-2.16.26-4.14.26h-4.58v7.88h9.59c-.4,3.08-1.36,3.65-2.9,3.65h-6.69v8.62c1.01.22,2.42.31,4.09.31,1.8,0,5.02,0,7.13-.18l.09.09c-.4,1.89-1.23,2.9-2.33,3.52-.62.13-2.6.22-5.98.22-3.87,0-6.78-.22-7.83-.44l-.66-.84v-20.33Z"/>
  </g>
  <path class="cls-1" d="M877.54,209.94c-.33-.03-.65-.06-.98-.1-.33-.03-.65-.07-.98-.1.04-.3.08-.6.12-.89.05-.42.42-.75.9-.79.06,0,.11,0,.15-.02.36-.03.7-.13,1-.25-.07.72-.14,1.44-.21,2.16M888.38,212.29c.05-2.5.11-5,.17-7.5-.95.78-1.91,1.54-2.9,2.3.75.2.92.72.9,1.23-.03.74-.05,1.48-.08,2.22-.65-.02-1.3-.05-1.95-.08.1-1.94.19-3.87.29-5.81-.97.75-1.96,1.49-2.96,2.22.75.22.92.75.89,1.26-.05.74-.1,1.48-.14,2.22-1.04-.07-2.08-.14-3.11-.23.38-4.53.76-9.04,1.15-13.59-.94.72-1.9,1.43-2.88,2.13.69.24.82.76.77,1.28-.16,1.63-.32,3.26-.48,4.89-.07.75-.64,1.12-1.09,1.29-.3.14-.56.18-.58.24-1.33.1-2.46,1.01-2.62,2.25l-.32,2.57c.77.1,1.55.19,2.32.27.21.03.42.05.63.07,1.1.12,2.19.22,3.29.31,2.9.24,5.8.39,8.7.45M868.59,210.5c.64.1,1.29.2,1.93.29.56-3.88,1.13-7.74,1.7-11.61.07-.51.34-.99,1.07-1.05-.78-.91-1.54-1.83-2.29-2.76-.8,5.05-1.61,10.08-2.42,15.13M861.21,207.37c-.32-.07-.64-.14-.96-.21-.32-.07-.63-.14-.95-.21.05-.22.1-.44.15-.67.38-.2.75-.4,1.12-.61.26.35.52.69.78,1.03-.05.22-.1.45-.15.67M866.21,196.94c.69.3.77.84.67,1.34-.62,3.29-1.23,6.57-1.85,9.86-.64-.12-1.28-.24-1.92-.37.09-.44.18-.89.27-1.34-.78-1.03-1.54-2.06-2.28-3.1-1.12.62-2.24,1.24-3.38,1.84-.11.44-.22.88-.32,1.32-.64-.16-1.28-.32-1.92-.48.49-1.87.97-3.74,1.46-5.61-1.11.54-2.23,1.06-3.37,1.57.69.36.73.91.6,1.41-.2.71-.39,1.43-.59,2.15-.28-.08-.56-.15-.83-.23,0,0,0-.01,0-.02-.53-.15-1.06-.3-1.58-.45-.02-.68.09-1.35.22-2.03.43-2.09,1.01-4.47-1.63-7.28-.76.35-1.53.71-2.3,1.05,1.86.55,2.6,2.28,2.89,3.65.27,1.66-.64,2.91-.16,4.32-.91-.27-1.83-.55-2.74-.83,0,0,0-.01,0-.01.07-.22.14-.44.21-.65.45-1.42-.49-3.01-2.09-3.57-.12-.04-.24-.08-.35-.12-3.56-1.24-7.07-2.63-10.54-4.17.23-.53.46-1.05.69-1.57.2-.46.69-.6,1.2-.38-.53-1.16-1.04-2.32-1.54-3.49-.94,2.06-1.89,4.12-2.84,6.18,4.21,1.93,8.49,3.65,12.82,5.15.61.21.96.82.79,1.34-.07.22-.14.43-.22.65-.2.59-.4,1.18-.6,1.77-.39.17-.79.33-1.19.49-.23-.39-.45-.78-.67-1.17.2-.58.41-1.16.61-1.73-.46-.16-.92-.33-1.38-.49-.16-.06-.32-.12-.48-.18-3.51-1.29-6.97-2.72-10.39-4.29-.24.52-.48,1.04-.71,1.55,3.46,1.59,6.97,3.04,10.51,4.34-.1.27-.19.53-.29.79.65,1.15,1.33,2.3,2.02,3.44,1.23-.46,2.45-.95,3.65-1.44.09-.28.18-.56.27-.85,1.37.44,2.74.87,4.11,1.26.26.4.6.73,1.02,1.02-.19-.28-.35-.58-.47-.86,1.15.33,2.29.64,3.45.94,1.61.42,3.22.8,4.83,1.16,1.61.36,3.22.69,4.84.99.07.01.14.03.21.04.57.11,1.14.21,1.72.31,0,0,.01,0,.02,0,.88-5.04,1.73-10.07,2.61-15.1-1,.64-2.03,1.25-3.06,1.87M885.23,213.9c-.56-.03-1,.34-1.03.8-.02.47.39.87.96.89.56.03,1.01-.33,1.03-.81.01-.46-.4-.86-.96-.88M879.11,6.92c.75,0,1.35.57,1.35,1.29-.4-.41-1.98-.73-2.71,0,0-.72.61-1.29,1.35-1.29M882.5,8.59c-.57,4.28-6.06,4.28-6.26,1.12.98,3.45,6.32,1.64,4.74-2.19,2.1-.8,3.66-.85,5.36-1.13-4.39-.68-9.54-1.22-12.74.24-1.56.71-1.12,1.67-.89,2.06.25-.83,1.65-.89,2.65-.55-.75,6.45,7.5,5.69,7.14.45M827.84,195.73c-.3-.15-.6-.3-.9-.45-.3-.16-.59-.32-.89-.47.13-.26.26-.51.39-.77.19-.38.68-.53,1.16-.4.06.01.1.04.15.04.36.1.72.13,1.05.13-.32.64-.64,1.29-.95,1.94M832,185.25c.58.48.52,1.02.29,1.48-.73,1.47-1.45,2.94-2.18,4.4-.34.67-1,.8-1.5.81-.34.02-.61-.04-.64,0-1.3-.39-2.69.05-3.28,1.16-.4.76-.83,1.52-1.21,2.29.89.47,1.79.94,2.7,1.39.91.46,1.82.91,2.73,1.34,2.2-4.62,4.39-9.22,6.6-13.83-1.16.34-2.32.65-3.5.95M881.27,213.67c-.55-.04-1.03.31-1.07.77-.04.48.39.88.95.92.54.04,1.02-.3,1.05-.78.03-.46-.4-.88-.94-.91M878.89,213.49c-.56-.05-1.04.3-1.08.75-.04.47.37.89.94.93.54.05,1.02-.28,1.06-.76.04-.46-.38-.88-.92-.93M856.47,199.2c.49.13.99-.12,1.11-.59.11-.44-.19-.92-.67-1.05-.5-.13-1,.13-1.12.57-.13.46.18.93.69,1.06M854.32,198.61c.48.14.99-.11,1.12-.57.12-.45-.18-.93-.66-1.06-.5-.14-1,.12-1.13.55-.14.46.17.93.67,1.07M875.82,199.82c.51.06.94-.28.99-.76.05-.45-.29-.88-.79-.94-.48-.06-.93.28-.98.73-.06.48.3.91.78.96M922.35,201.32c.49-.11.82-.59.71-1.04-.11-.47-.61-.74-1.09-.63-.51.11-.82.58-.71,1.04.1.45.58.74,1.09.62M830.66,183.79c.46.24.98.09,1.19-.33.21-.41.04-.93-.41-1.17-.43-.22-.98-.07-1.19.33-.22.42-.03.95.41,1.17M876.06,197.78c.5.06.92-.26.97-.74.05-.45-.29-.88-.78-.94-.47-.06-.92.27-.97.73-.06.47.3.89.77.95M920.16,201.81c.49-.11.83-.58.73-1.02-.1-.47-.6-.76-1.09-.65-.5.11-.84.57-.74,1.04.09.45.59.75,1.1.64M829.71,185.61c.46.24,1,.08,1.21-.35.21-.41.03-.93-.42-1.17-.44-.23-.99-.08-1.2.32-.23.42-.03.96.41,1.2M881.12,95.12c-.18-3.2-.3-6.83-.3-10.78,0-3.58.1-6.81.26-9.67,9.06-.81,22.03-1.05,34.01,2.07.86,2.57,1.34,5.31,1.34,8.16s-.48,5.58-1.33,8.15c-11.96,3.11-24.89,2.88-33.97,2.07M890.8,110.52c-2.86,0-5.66-.47-8.34-1.4-.21-1.37-.84-5.9-1.25-12.48,8.93.78,21.46.99,33.24-1.89-3.87,9.25-13.01,15.76-23.64,15.76M865.18,84.9c0-10.34,6.27-19.67,15.73-23.64-.49,3.06-1.6,11.22-1.6,23.08s1.08,20.92,1.54,24.17c-9.42-3.98-15.67-13.3-15.67-23.61M882.54,60.64c2.65-.91,5.42-1.37,8.26-1.37,10.63,0,19.76,6.5,23.64,15.74-11.8-2.88-24.36-2.66-33.28-1.88.43-6.81,1.15-11.18,1.38-12.5M890.8,57.76c-3.15,0-6.24.54-9.17,1.59-10.74,3.86-17.96,14.12-17.96,25.54s7.18,21.62,17.86,25.51c2.97,1.08,6.09,1.63,9.28,1.63,14.96,0,27.13-12.17,27.13-27.13s-12.17-27.13-27.13-27.13M954.07,201.45c-.26.12-.54.05-.64-.17-.1-.22.03-.48.28-.6.1-.04.21-.08.29-.06-.92-.3-1.76.71-1.04,1.33-.25.15-.44.16-.57.02-.17.33-.33.67-.49,1,1.23-.54,2.45-1.11,3.67-1.68-.4-.12-.79-.25-1.18-.38.06.19-.07.42-.31.53M967.48,85.82v-3.02c0-1.52,0-3.01,0-3.72.02-2.85-.46-6.63-3.16-8.48.82,3.19.26,3.75.26,9.13v6.7c0,1.97.28,3.69.75,5.18-3.14-1.52-6.49-4.83-6.49-10.65,0-1.95-.48-10.01-2.9-13.36v13.96c0,1.84.23,3.45.65,4.88-7.36-3.73-6.63-16.44-9.03-21.37,0,4.27.1,7.26.1,11.52,0,2.1.32,3.91.84,5.47-6.45-4.12-7.19-12.18-7.7-18.21-.63,2.23-1.65,8.11.11,13.66-4.33-3.31-6.74-10.36-6.44-15.4-.63,2.76-1.31,6.92.05,11.09-.24,4.74-.2,42.14-.19,46.22-2.45-2.03-4.98-5.71-4.7-11.29.09-.91.19-1.78.31-2.6,1.72-11.67,2.08-28.49-2.74-41.95,3.89,21.02-.96,42.62-1.64,46.97-1.22,7.77,1.42,23.86,6.9,41.71-1.06-1.06-4.72-2.58-6.18-4.05,0,1.61.59,3.35.59,6.87-1.88-3.15-2.6-3.28-4.59-6.77.63,4.11.45,4.47.45,8.02-1.95-3.67-3-8.56-7.46-15.54-9.95-15.53-24.29-5.9-24.29-3.19,0-2.71-14.34-12.34-24.28,3.19-4.47,6.98-5.51,11.86-7.47,15.54,0-3.55-.18-3.91.45-8.02-2,3.5-2.72,3.62-4.59,6.77,0-3.52.59-5.26.59-6.87-1.47,1.46-5.12,2.99-6.18,4.05,5.48-17.85,8.12-33.94,6.9-41.71-.69-4.35-5.54-25.96-1.64-46.97-4.82,13.45-4.47,30.27-2.75,41.95.12.82.22,1.7.31,2.61.28,5.6-2.27,9.27-4.73,11.31,0-4.08.06-41.45-.18-46.25,1.36-4.17.69-8.33.05-11.09.3,5.04-2.11,12.09-6.44,15.4,1.75-5.55.73-11.42.1-13.66-.51,6.03-1.24,14.09-7.69,18.21.52-1.57.84-3.37.84-5.47,0-4.26.1-7.26.1-11.52-2.41,4.93-1.67,17.64-9.03,21.37.41-1.42.65-3.04.65-4.88v-13.96c-2.42,3.35-2.9,11.41-2.9,13.36,0,5.82-3.36,9.13-6.49,10.64.48-1.49.75-3.21.75-5.18v-6.7c0-5.38-.56-5.94.26-9.13-2.71,1.85-3.18,5.62-3.16,8.48,0,.71,0,2.2,0,3.72h0v3.02c0,6.08-3.66,9.43-6.91,10.84.55-.73,1.16-2.71,1.16-5.65v-29.33c0-8.24,9.62-17.71,13.19-21.89,9.86-11.56,14.15-2.16,24.08,1.2,16.51,5.6,25.31-.65,25.31-.65,8.82-5.55,8.85-10.79,8.85-14.05,0-2.21-.85-5.09-2.47-6.94-3.02-3.01-8.37-3.98-9.32-3.79-2.01,1.03-3.8,1.04-4.16,1.32-.93-1.84-.7-4.65,3.46-6.96,1.17-.64.73-2.12,4.29-4.19,10.37-6.05,20.52-3.86,26.45,2.75-2.1-.76-4.11-1.46-7.64-1.79,4.96,1.72,10.83,5.82,14.63,12.64,1.55,2.71,5.05,10.18,6.29,12.44,2.65,4.82,7.43,14.92,24.29,9.23,9.93-3.35,14.23-12.76,24.09-1.2,3.56,4.17,13.18,13.65,13.18,21.89v29.33c0,2.94.6,4.92,1.16,5.65-3.24-1.41-6.91-4.76-6.91-10.84M967.49,108.71v-8.38c0-1.38-.05-2.6-.14-3.69.49.18.94.35,1.36.5,1.39,1.39,2.99,2.39,4.52,3.16v13.57c0,2.95.6,4.93,1.16,5.66-3.24-1.42-6.88-4.75-6.9-10.81M967.62,137.16c0-.98-.13-9.13-.13-10.71,0-1.75-.07-4.75-.22-7,.52.2,1,.38,1.44.54,1.39,1.38,2.99,2.38,4.52,3.15v17.33c0,2.94.6,4.93,1.16,5.65-2.89-1.25-6.77-4.73-6.77-8.96M967.62,181.12v-6.49h0c-.01-4.09-.12-7.65-.12-8.86v-9.67c0-.83-.02-5.04-.05-10.47.19.08.37.15.55.21,1.55,1.79,3.43,3.01,5.24,3.91v34.67c0,2.95.6,4.93,1.16,5.66-2.89-1.25-6.77-4.88-6.77-8.95M958.85,103.82v-8.48c0-1.49-.05-2.75-.13-3.82.33.13.66.25.96.36,1.51,1.62,3.28,2.74,4.98,3.58.03,1.78-.06,3.64-.06,5.51v8.3c0,1.98.28,3.69.75,5.19-3.14-1.5-6.49-4.83-6.49-10.65M958.85,129.95v-8.48c0-1.51-.05-4.68-.14-7.08.34.13.67.25.97.37,1.51,1.6,3.28,2.73,4.97,3.57.06,2.83-.06,6.72-.06,8.78v8.03c0,.21,0,.39.02.58,0,0-.02,0-.02,0v.19c0,1.78.22,3.34.61,4.73-2.83-1.29-6.35-4.95-6.35-10.67M958.85,159.6v-8.47c0-1.47-.05-6.9-.13-11.03,1.69,2.24,3.91,3.55,5.92,4.45-.03,6.26-.05,11.28-.05,12.22v8.03c0,2.95,0,4.64.56,5.37-2.42-1.06-6.3-4.48-6.3-10.56M950.57,98.85v-7.68c0-1.58.02-2.65-.02-3.53.78.3,1.62.56,2.51.8.94.73,1.92,1.34,2.89,1.84,0,.29,0,.56,0,.83v13.31c0,1.82.23,3.42.63,4.83-2.98-1.61-6.01-4.87-6.01-10.41M950.57,122.18v-7.67c0-2.93-.08-2.92-.09-4.35.82.35,1.58.64,2.26.89,1.03.85,2.13,1.54,3.21,2.09,0,1.73,0,3.68,0,4.1v13.31c0,.6.03,1.16.06,1.71-2.79-1.7-5.44-4.9-5.44-10.08M955.95,146.9v13.15c-2.77-1.72-5.38-4.91-5.38-10.04v-7.69c0-2.24-.05-7.28-.08-10.29,1.55,2.05,3.53,3.43,5.45,4.42.02,3.58,0,9.88,0,10.43M943.33,95.03v-7.72c0-1.98-.04-3.44-.14-4.54.29.15.58.3.88.45.97,1.11,2.15,2.12,3.58,3,.02.64.02,1.28.02,1.87v11.36c0,2.11.32,3.92.85,5.49-2.69-1.75-5.19-4.9-5.19-9.92M943.33,115.68v-7.72c0-.87-.01-1.63-.03-2.31.36.2.74.4,1.13.58.99,1,2.07,1.8,3.17,2.46.07.92.07,1.88.07,2.73v11.36c0,.81.05,1.58.14,2.31-2.4-1.82-4.48-4.85-4.48-9.42M947.67,139.26v9.53c-2.35-1.84-4.34-4.83-4.34-9.31v-7.72c0-1.44-.02-4.12-.07-6.21,1.24,1.64,2.76,2.86,4.31,3.79.11,3.26.1,8.97.1,9.93M935.93,93.07c0-1.76-.13-11.02-.15-17.06,1.01,1.74,2.46,3.43,4.53,4.96.23,1.7.12,3.83.12,5.33v9.34c0,1.74.22,3.27.59,4.65-2.83-2.09-5.09-4.66-5.09-7.23M935.83,98.76c.93,1.67,2.48,3.45,4.62,5.07.01,1.11-.02,2.23-.02,3.12v7.7c-2.55-1.99-4.5-4.38-4.5-6.77,0-1.07-.05-4.92-.1-9.12M940.43,130.74v5.51c-2.55-1.99-4.5-4.38-4.5-6.76,0-1.67-.13-10-.15-16.01.91,1.68,2.46,3.48,4.59,5.11.15,3.52.05,10.83.05,12.16M933.54,162.78c.34.78.25,2.34.61,3.06.36.72,1.15,1.22,1.38,1.58.3.49.19,1.72.57,2.58.19.4.38.81.58,1.17-.26.28-.47.61-.66.91-.6-1.34-2.07-1.49-3.18-.79-.56.36-1.23.91-1.74,1.79.21-1.53-.07-2.01-.66-2.6-.87-.87-.52-2.7-1.23-3.81-.54-.85-1.56-1.12-2.2-2.45-.65-1.31-.33-2.01-.98-3.32-.74-1.48-.93-1.95-.97-3.95.85,1.09,1.82,1.99,3.13,3.32.46-3.11.51-3.85.51-6.54,1.32,1.12,2.67,2.8,3.1,3.94.25.68.49,2.65.59,2.98.32,1.02.79,1.34,1.14,2.12M939.32,171.86c1.38.11.62,6.12,1.64,8.22,1.04,2.12.59,3.88-1.37,3.7-2.01-.19-1.89-6.28-1.9-7.35,0-1.51-.76.8-1.18,1.65-.09-.37-.17-.78-.24-1.21-.15-1.03-.04-1.69.04-2.33.54-1.43,1.61-2.78,3.01-2.68M941.1,174.31c.55-1.81,2.05-4.32,3.78-3.92,1.35.3.05,4.64.88,6.76,1.59,4.14-.64,5.55-2.57,5.06-2.15-.54-1.2-6.33-1.01-7.17.05-1.36-.66-.02-1.14.74-.1-.35-.17-.59.07-1.47M947.51,175.17l12.7,8.68-.02,18.27c-20.17,11.44-42.8,18.07-66.11,18.57h-.38s-1.78,1.46-2.63,2.17h0s0,0,0,0c-.86-.71-2.63-2.18-2.63-2.18h-.38c-23.31-.49-45.94-7.12-66.11-18.56l-.02-18.27,12.69-8.68c.31.18.63.35.94.53.05,1.82-1.23,2.75-.94,4.62.24,1.55,1.19,2.66,2.33,3.18.3.68.86,1.24,1.62,1.55.77.29.68-.38.67-1.36.17-.05.33-.1.5-.18.21.74.7,1.28,1.31,1.59.28.56.78,1.07,1.78,1.74.99.46.32-.61.14-1.58.36-.09.74-.25,1.1-.49.13.3.31.56.58.75.09.07.18.13.28.2.25,1.01.96,1.6,2.03,2.21.72.24.45-.58.37-1.36,1,.02,1.89-.54,2.28-2.18.19-.78.18-1.27.13-1.68,12.05,5.12,25.07,8.61,37.8,9,.45.35,3.51,2.65,3.51,2.65,0,0,3.06-2.3,3.51-2.65,12.67-.39,25.6-3.83,37.59-8.91-.03.4-.03.88.15,1.59.4,1.63,1.28,2.19,2.27,2.18-.07.78-.34,1.59.38,1.36,1.08-.61,1.79-1.2,2.04-2.22.09-.06.19-.12.28-.19.27-.19.45-.45.58-.75.37.24.73.4,1.1.49-.19.97-.86,2.04.14,1.58.99-.66,1.51-1.17,1.78-1.74.62-.31,1.1-.86,1.31-1.59.16.08.33.13.5.18-.01.99-.11,1.65.66,1.36.76-.31,1.32-.87,1.62-1.55,1.13-.51,2.09-1.62,2.33-3.18.29-1.83-.94-2.77-.94-4.52.37-.21.75-.42,1.12-.63M836.21,177.15c.81-2.12-.49-6.46.86-6.76,1.73-.4,3.23,2.11,3.78,3.93.17.51.14,1.29.07,1.46-.49-.76-1.2-2.1-1.15-.74.19.84,1.15,6.63-1.01,7.17-1.92.48-4.15-.92-2.56-5.06M842.63,171.86c1.4-.1,2.46,1.25,3.01,2.68.08.64.18,1.29.04,2.33-.06.43-.14.83-.24,1.21-.41-.85-1.17-3.16-1.17-1.65,0,1.07.1,7.16-1.91,7.35-1.97.18-2.4-1.58-1.37-3.7,1.02-2.1.26-8.11,1.64-8.22M849.61,176.46c-1.65,2.98-.19,8.57-2.08,8.69-5.42.35-1.4-6.44-1.19-8.13.25-2.16.02-5.33,2.13-4.67,1.89.58,4.3,6.72,5.47,8.56,0,.02.03.04.06.06-.43-.17-.86-.35-1.28-.53.12.04.22.08.27.09-1.93-.76-3.05-5.43-3.38-4.06M933.47,172.35c2.12-.66,1.89,2.51,2.13,4.67.2,1.69,4.22,8.49-1.2,8.13-1.88-.12-.42-5.71-2.07-8.69-.29-1.23-1.2,2.6-2.79,3.93-.52.22-1.04.43-1.57.64,1.25-2.11,3.66-8.12,5.49-8.68M903.95,173.15c1.35,7.88-6.41,8.32-7.58,2.25-.14-.77-.35-3.11-.6-6.21-.58-10.58-1.45-27.35-1.5-30.52,1.31-.83,2.88-1.46,4.47-1.89.86,5.97,4.85,34.26,5.21,36.37M904.73,136.37c.84.16,1.54.44,2.04.86.76.53,1.6,1.25,2.48,2.13,1.39,5.3,7.06,26.47,7.57,28.6.62,2.56,1.28,4.88,2.36,5.96-3.42.65-5.85,0-6.64-3.11-1.04-4.88-6.39-29.08-7.8-34.43M910.51,170.93c.45,2.6,2.53,6.31.15,6.88-3.69.9-4.01-1.15-4.61-4.32-.02-.09-5.19-33.96-5.93-37.01,1.18-.22,2.34-.3,3.38-.25.76,3.73,6.65,32.59,7.01,34.7M888.25,174.15c0-4.11.63-30.29.76-34.51,1.05.91,1.77,1.98,1.96,3.18.21-1.19.93-2.26,1.98-3.18.12,4.22.74,30.4.74,34.51,0,4.47-1.18,6.08-2.72,7-1.54-.92-2.72-2.53-2.72-7M863.11,167.68c-1.01,3.57-3.44,7.28-4.01,7.85,2.09.79,5.92,1.41,8.62.34-.39,1.41-.36,2.69.84,3.89,1.47,1.47,5.62,2.53,7.63-.93,1.63,5.76,7.84,5.49,10.29,1.46,1.06,3.34,3.24,3.76,4.51,5.03,1.26-1.26,3.46-1.68,4.51-5.03,2.44,4.03,8.66,4.3,10.28-1.46,2.02,3.46,6.17,2.4,7.63.93,1.2-1.2,1.22-2.49.84-3.89,2.7,1.07,6.52.45,8.62-.34-.57-.57-3.01-4.28-4.02-7.85-1.23-4.33-5.74-19.96-7.77-26.37,5.49,6.31,11.78,17.01,12.18,22.63.17-.8.54-1.77.88-2.83,1.27,2.63,4.32,8.02,4.83,9.29.53,1.33.68,2.21.29,3.97-.28,1.28-1.44,5.16-3.93,7.65,0,0,0,.02.01.03-9.96,3.7-20.46,6.01-31.22,6.3-.88.72-3.04,2.35-3.04,2.35,0,0-2.16-1.63-3.04-2.35-10.73-.29-21.18-2.58-31.11-6.27,0-.01.02-.02.02-.03-2.49-2.49-3.96-6.4-4.25-7.68-.38-1.76-.23-2.64.3-3.97.51-1.27,3.56-6.67,4.82-9.29.34,1.05.71,2.03.87,2.83.41-5.62,6.7-16.32,12.19-22.63-2.03,6.41-6.54,22.04-7.77,26.37M869.42,170.8c-.8,3.12-3.22,3.76-6.64,3.11,1.07-1.08,1.74-3.4,2.36-5.96.51-2.12,6.17-23.3,7.57-28.6.88-.88,1.72-1.6,2.48-2.12.5-.42,1.2-.7,2.04-.86-1.41,5.35-6.76,29.55-7.8,34.43M883.22,136.78c1.59.42,3.16,1.06,4.47,1.89-.06,3.18-.92,19.93-1.51,30.51-.24,3.11-.45,5.44-.6,6.22-1.16,6.07-8.91,5.63-7.57-2.25.36-2.11,4.35-30.4,5.21-36.37M875.91,173.48c-.59,3.17-.92,5.22-4.61,4.32-2.38-.57-.3-4.28.15-6.88.38-2.26,6.17-30.43,7.01-34.7,1.04-.05,2.2.03,3.37.25-.73,3.04-5.91,36.92-5.92,37.01M845.84,170.01c.39-.86.28-2.09.58-2.58.22-.36,1.02-.87,1.38-1.58.36-.72.27-2.28.62-3.06.34-.78.82-1.11,1.14-2.12.1-.33.34-2.3.6-2.98.44-1.14,1.77-2.82,3.1-3.94,0,2.69.03,3.43.5,6.54,1.32-1.33,2.29-2.23,3.13-3.32-.04,2-.22,2.47-.96,3.95-.66,1.3-.34,2.01-.99,3.32-.64,1.32-1.66,1.6-2.2,2.45-.71,1.11-.36,2.94-1.23,3.81-.59.59-.87,1.08-.65,2.6-.52-.87-1.18-1.43-1.75-1.79-1.1-.7-2.58-.55-3.17.79-.19-.3-.41-.62-.67-.9.2-.36.4-.77.59-1.17M846.01,93.07c0,2.56-2.26,5.14-5.08,7.23.37-1.38.59-2.91.59-4.65v-9.34c0-1.49-.12-3.63.11-5.33,2.07-1.53,3.53-3.22,4.54-4.96-.02,6.04-.15,15.3-.15,17.06M841.49,103.82c2.12-1.6,3.67-3.37,4.6-5.04-.04,4.19-.09,8.03-.09,9.1,0,2.38-1.94,4.76-4.48,6.76v-7.69c0-.89-.04-2.01-.03-3.13M846,129.48c0,2.37-1.94,4.76-4.48,6.75v-5.5c0-1.33-.09-8.66.05-12.17,2.13-1.63,3.67-3.43,4.58-5.1-.03,6-.15,14.34-.15,16.01M838.62,87.32v7.72c0,5.01-2.5,8.17-5.19,9.92.53-1.57.85-3.37.85-5.48v-11.36c0-.59,0-1.23.01-1.87,1.43-.88,2.61-1.89,3.58-3,.31-.15.59-.3.88-.45-.09,1.09-.13,2.55-.13,4.54M834.14,125.1c.08-.73.13-1.49.13-2.31v-11.36c0-.86,0-1.81.06-2.73,1.1-.66,2.19-1.46,3.17-2.46.38-.19.76-.38,1.12-.58-.01.68-.02,1.44-.02,2.31v7.72c0,4.57-2.08,7.59-4.47,9.42M838.62,131.76v7.72c0,4.48-1.99,7.47-4.34,9.31v-9.53c0-.96-.02-6.67.09-9.93,1.55-.93,3.07-2.15,4.31-3.79-.05,2.09-.07,4.78-.07,6.21M831.37,114.5v7.67c0,5.18-2.66,8.38-5.45,10.08.04-.55.06-1.11.06-1.71v-13.31c0-.42,0-2.37,0-4.1,1.07-.56,2.17-1.25,3.2-2.1.67-.25,1.44-.54,2.25-.89,0,1.43-.08,1.42-.08,4.35M831.37,142.32v7.69c0,5.13-2.61,8.31-5.38,10.04v-13.15c0-.55,0-6.85,0-10.42,1.92-1.01,3.9-2.39,5.45-4.43-.02,3.01-.07,8.05-.07,10.29M825.35,109.26c.41-1.41.64-3.01.64-4.83v-14.14c.97-.5,1.95-1.11,2.89-1.84.9-.23,1.73-.5,2.51-.8-.04.88-.02,1.94-.02,3.53v7.68c0,5.53-3.03,8.8-6.02,10.41M823.1,121.47v8.48c0,5.72-3.52,9.38-6.35,10.66.39-1.38.61-2.94.61-4.72v-.19s0,0-.01,0c0-.19.01-.38.01-.58v-8.03c0-2.06-.12-5.95-.06-8.78,1.69-.83,3.46-1.97,4.97-3.57.31-.12.63-.25.96-.37-.08,2.41-.13,5.58-.13,7.08M823.1,151.12v8.47c0,6.08-3.88,9.5-6.3,10.56.55-.72.56-2.42.56-5.37v-8.03c0-.94-.03-5.96-.04-12.22,2-.9,4.21-2.2,5.91-4.45-.08,4.14-.13,9.56-.13,11.03M817.29,95.47c1.7-.84,3.48-1.96,4.98-3.58.31-.11.63-.24.96-.36-.08,1.06-.13,2.32-.13,3.82v8.48c0,5.82-3.36,9.15-6.49,10.65.48-1.5.75-3.21.75-5.19v-8.3c0-1.87-.1-3.73-.07-5.51M807.55,119.52c.55-.73,1.16-2.71,1.16-5.66v-13.57c1.53-.77,3.13-1.77,4.53-3.16.41-.16.87-.32,1.35-.5-.09,1.09-.14,2.31-.14,3.69v8.35c0,6.08-3.66,9.43-6.91,10.85M814.46,126.45c0,1.58-.14,9.73-.14,10.71,0,4.23-3.88,7.7-6.77,8.96.55-.72,1.16-2.71,1.16-5.65v-17.33c1.53-.76,3.13-1.77,4.53-3.15.44-.16.91-.35,1.43-.54-.14,2.25-.22,5.24-.22,7M814.46,156.11v9.67c0,1.22-.12,4.77-.13,8.86,0,0,0,0,0,0v6.49c0,4.07-3.88,7.7-6.77,8.95.55-.72,1.16-2.71,1.16-5.66v-34.67c1.8-.89,3.68-2.12,5.24-3.91.17-.06.35-.13.55-.21-.04,5.43-.05,9.65-.05,10.47M871.34,17.85v-.02c-.76.23-4.76.91-5.26.41.88-.46,1.47-.72,3.14-1.78,1.22.1,2.4.85,4.29,1.98-1.06-.43-1.16-.79-2.18-.59M976.12,124.39c.83.31,1.55.56,2.12.79-2.28-3.44-2.12-9.02-2.12-10.34v-13.31c.83.31,1.55.56,2.12.8-2.28-3.45-2.12-9.03-2.12-10.35v-30.97c0-8.57-13.1-29.33-24.18-29.61-7.87-.19-17.09,10.86-28.38,8-3.62-.94-6.52-4.83-8.9-9.64-4.21-8.6-8.26-20.1-18.5-26.75-11.34-7.36-24.4.86-25.9,2.17-1.28,1.18-3.33,4.71-4.42,5.27-3.55,1.85-4.13,4.96-4.13,6.14s.26,4.04,2.42,5.66c-.3-1.4-.38-2.18-.05-2.89,1.41.24,4.52.87,6.53.05.98.98,3.34,2.87,4.36,4.82,1.43,2.71,1.44,3.12,1.44,4.18,0,2.75-1.29,6.68-5.2,9.25-4.12,2.94-13.84,4.58-26.02.41-6.59-2.25-9.29-6.82-15.19-6.68-11.08.28-24.19,21.04-24.19,29.61v30.97c0,1.32.18,6.89-2.11,10.35.58-.23,1.29-.49,2.11-.8v13.31c0,1.32.18,6.89-2.11,10.34.58-.23,1.29-.48,2.11-.79v17.06c0,1.32.18,6.89-2.11,10.35.58-.23,1.29-.46,2.11-.77v34.38c0,.98.1,4.37-.82,7.45-.31,1.03.39,2.27,1.47,1.84,4.44-1.76,10.89-5.23,10.89-14.87v-5.43c3.19-1.4,7.01-3.88,8.23-9.91,3.62-1.8,7.62-4.92,8.5-11.2,3.7-2.15,7.38-5.88,7.42-13.09,3.22-2.44,5.13-5.3,5.52-7.52.27-1.5.45-5.06.52-9.19,2.33-1.7,4.01-3.63,4.97-5.4-.38,8.94-2.16,20.97-6.37,37.62.75,0,1.74-.17,2.75-.4-.56,3.35-3.41,11.35-5.33,14.98-.25-.02-.53-.01-.83.03-.63.11-1.09.71-1.39,1.47-.86-1.31-1.94-3.45-4.45-2.63-1.3.43-1.79,1.45-1.89,2.54-2.09,1.31-16.28,10.12-16.28,10.12v21.93c21.07,12.47,44.27,19.99,69.31,20.51.82.82,3.04,2.52,3.04,2.52,0,0,2.23-1.7,3.04-2.52,25.04-.52,48.24-8.03,69.31-20.51v-21.93s-15.39-9.55-16.49-10.25c-.13-1.03-.62-2-1.88-2.41-2.52-.82-3.6,1.31-4.46,2.63-.3-.76-.76-1.36-1.4-1.47-.3-.04-.58-.05-.83-.03-1.91-3.62-4.78-11.62-5.33-14.98,1.02.24,2.01.4,2.75.4-4.21-16.65-5.99-28.68-6.37-37.62.95,1.76,2.62,3.68,4.94,5.38.08,4.13.26,7.71.52,9.21.39,2.22,2.31,5.09,5.54,7.53.04,7.2,3.72,10.94,7.42,13.08.88,6.29,4.88,9.41,8.5,11.2,1.23,6.03,5.04,8.51,8.24,9.91v5.43c0,9.53,6.31,13.03,10.74,14.81,1.13.46,2.07-.41,1.78-1.24-1.09-3.23-.99-6.95-.99-8v-34.35c.83.31,1.55.5,2.12.74-2.28-3.46-2.12-9.03-2.12-10.35v-17.06ZM944.4,200.56c-.3.12-.6.24-.91.36-.09-.21-.16-.42-.25-.64.2-.38.4-.76.6-1.14.41.14.82.28,1.23.42.09.21.17.42.26.63-.31.12-.62.25-.93.37M942.96,196.91c-.58,1.15-1.18,2.29-1.8,3.43.16.43.32.85.47,1.28-.62.23-1.25.46-1.88.68-1.12-3.15-2.24-6.3-3.36-9.45-.17-.48-.16-1.04.47-1.44-1.13-.44-2.24-.89-3.34-1.36,1.46,4.29,2.93,8.59,4.39,12.89.18.54.37,1.08.55,1.62.48-.16.95-.32,1.42-.49l.45-.16c1.57-.56,3.13-1.15,4.7-1.77.93-.37,1.85-.75,2.77-1.13-.39-.94-.79-1.89-1.19-2.83-1.23-.41-2.45-.83-3.66-1.27M956.98,196.79c.6-.3,1.2-.6,1.79-.91-1.8-3.47-3.62-6.94-5.42-10.41-.24-.46-.3-1,.28-1.5-1.19-.27-2.37-.56-3.53-.87,2.04,4.06,4.08,8.11,6.12,12.16.26.51.52,1.02.77,1.53M924.89,93.11s.04.05.03.08c0,.03-.03.05-.06.06l-1.8.4-.4,1.57s-.04.05-.07.05h-.01s-.05-.01-.06-.04l-.89-1.45-1.8-.05s-.06-.02-.07-.05c-.02-.03-.01-.06,0-.08l1.14-1.33-.45-1.69s0-.06.03-.08c.03-.02.06-.03.09,0l1.64.72,1.42-.93s.03-.01.05-.01.03,0,.05.01h0s.03.05.03.08l-.31,1.58,1.45,1.15ZM906.82,112.21l-.8-3.09s-.04-.05-.07-.06c-.03,0-.06,0-.07.03,0,0-1.57,2.28-2.05,2.91-.79-.02-3.56-.23-3.57-.23-.03,0-.05.02-.07.05-.01.02,0,.05,0,.08l1.93,2.56c-3.45,1.31-7.2,2.05-11.11,2.05s-7.91-.78-11.46-2.19l1.82-2.42s.03-.06.01-.09c-.02-.02-.05-.05-.08-.04,0,0-2.79.21-3.57.23-.48-.62-2.05-2.91-2.05-2.91-.02-.03-.05-.04-.08-.03-.03,0-.06.03-.06.06l-.75,2.84c-6.34-3.86-11.21-9.91-13.54-17.09l2.9-.08s.05-.02.07-.05c.02-.03,0-.06-.01-.08,0,0-1.82-2.05-2.34-2.65.21-.78.97-3.41.97-3.42,0-.03,0-.05-.02-.07-.03-.03-.05-.03-.08-.02l-2.69,1.19c-.21-1.46-.33-2.95-.33-4.46,0-6.35,1.91-12.27,5.19-17.21l1.77,2.11s.03.03.06.03c0,0,0,0,.02,0,.03,0,.05-.03.06-.06,0,0,.47-2.71.62-3.47.75-.33,3.34-1.34,3.35-1.34.03-.01.05-.03.05-.06,0-.03-.02-.06-.05-.08l-2.55-1.32c5.09-5.41,12.07-9.01,19.87-9.73l-.57,2.91s0,.06.03.08c0,0,.03.01.05.01,0,0,.02,0,.04,0,0,0,2.41-1.39,3.11-1.74.69.35,3.12,1.73,3.12,1.73.02,0,.06,0,.08,0,.02-.02.04-.05.03-.08l-.58-2.94c7.92.61,15.01,4.18,20.19,9.6l-2.85,1.48s-.05.05-.04.07c0,.04.02.06.05.07,0,0,2.6,1.01,3.34,1.34.16.75.62,3.46.62,3.46.01.03.03.05.06.06,0,0,.02,0,.02,0,.03,0,.05-.01.06-.03l2.03-2.41c3.39,5,5.38,11.03,5.38,17.52,0,1.58-.13,3.14-.36,4.66l-3.12-1.38s-.06,0-.08,0c-.03.03-.04.06-.03.08,0,0,.77,2.63.98,3.42-.53.61-2.34,2.65-2.34,2.65-.02.03-.03.06-.02.08.02.03.05.05.08.05l3.35.09c-2.39,7.33-7.4,13.48-13.93,17.33M907.64,114.14s0,.03-.02.04l-1.42.77.02,1.83s-.02.06-.04.08h-.04s-.04,0-.05-.01l-1.44-1.14-.88.37-.6.26h0s0,0,0,0c-.02,0-.05,0-.07-.01,0-.02,0-.03,0-.05,0-.01-.02-.03,0-.04l.24-.66.34-.91-.45-.6h0l-.62-.83s0-.03,0-.04c0-.01-.02-.03,0-.05,0-.02.03-.02.04-.03.01,0,.02-.02.03-.02l1.72.05,1.06-1.39s.05-.03.07-.03c.03,0,.05.03.06.05,0,0,0,0,0,0h0s.27,1.02.27,1.02l.18.72,1.2.4.41.13s.05.04.05.07c0,.02-.02.03-.02.04M878.99,113.17s0,.03,0,.05l-.62.82-.46.61.25.67.33.9s0,.06-.02.09c0,0-.01,0-.02,0-.01,0-.04.02-.06,0l-.4-.17-.79-.33s.03.01.04.02l-.34-.14-.54.43-.9.7s-.03.02-.05.02c0,0,0,0,0,0h-.03s-.04-.04-.04-.08v-1.83s-1.41-.77-1.41-.77c-.03-.02-.04-.05-.04-.08h0s.03-.05.05-.07l.8-.26.8-.26.25-.94.2-.79s.04-.05.06-.05c.03,0,.06,0,.08.03h0l.53.7.53.7,1.71-.04s.06.01.07.04c0,.01,0,.02,0,.04M859.04,95.23s-.04.04-.06.04h-.01s-.06-.04-.07-.05l-.4-1.57-1.8-.4s-.05-.03-.06-.06c0-.03,0-.06.03-.08l1.45-1.15h0s-.06-.34-.06-.34c0,0,0,0,0,.01l-.25-1.25s0-.04.01-.06c0,0,.01-.02.02-.02.03-.01.06-.01.09,0l1.42.93.88-.39.76-.34s.06-.01.09,0c.03.02.03.05.03.08l-.46,1.69,1.14,1.33s.03.05,0,.09c0,.03-.04.04-.06.05l-1.8.05-.89,1.45ZM863.07,66.27l.96-1.29-.81-1.65s0-.06,0-.09c.02-.03.05-.03.08-.03l1.82.41,1.05-1.24s.06-.03.09-.02c.03,0,.05.03.05.07l.13,1.69,1.61.84s.05.04.05.07-.02.06-.05.08l-1.58.7-.34,1.72s-.03.05-.06.06h-.02s-.05,0-.06-.03l-.43-.51-.73-.87-1.61.2h-.07s-.07,0-.08-.03c-.02-.03-.02-.06,0-.09M888.24,51.77s.03-.04.06-.04l1.61-.07.79-1.67s.04-.05.07-.05.06.02.07.05l.8,1.67h.13s0,0,0,0l1.1.05h0c.13,0,.27.01.4.02.02,0,.04.02.04.04h0s0,.06-.02.09l-1.21,1.17.35,1.77s0,.06-.04.08c-.01,0-.03.02-.04.02-.01,0-.03,0-.04,0l-1.55-.79-1.55.79s-.06,0-.08,0c-.02-.02-.04-.05-.03-.08l.16-.82.19-.95-1.21-1.17s-.03-.05-.02-.09c0,0,0,0,.02-.02M914.41,64.49l.7-.36.13-1.69s.02-.06.05-.06c.01,0,.03,0,.04,0,.02,0,.03.01.04.02l1.05,1.24.14-.04,1.67-.38s.06,0,.08.03c.02.02.02.05,0,.08l-.81,1.65.96,1.29s.03.06,0,.09c-.02.03-.04.04-.07.04l-1.69-.21-1.16,1.37s-.04.03-.06.03c0,0-.02,0-.02,0-.03,0-.05-.03-.06-.06l-.35-1.72-1.58-.7s-.05-.04-.05-.07c0-.03.02-.06.05-.07l.91-.47ZM925.21,87.97s0-.06-.03-.08c-.03-.02-.06-.02-.09,0,0,0-.28.2-.66.47.09-1.04.15-2.08.15-3.14,0-6.39-1.8-12.37-4.92-17.46.62.11,1.11.19,1.11.19.03,0,.06,0,.08-.04.02-.02.02-.06,0-.09,0,0-1.57-2.33-2.03-2.96.36-.72,1.44-3.12,1.44-3.12.02-.03,0-.06-.01-.08-.02-.02-.05-.03-.08-.03l-3.32.76c-.53-.62-2.39-2.69-2.39-2.69-.02-.02-.05-.04-.09-.02-.03.01-.05.04-.05.07l-.1,1.26c-5.13-4.93-11.83-8.23-19.27-9.11.57-.52,1.07-.96,1.07-.96.02-.02.03-.06.02-.09-.01-.03-.04-.05-.07-.05,0,0-2.82-.19-3.6-.23-.34-.71-1.53-3.04-1.53-3.04l-.03-.03s-.04-.02-.07-.02c-.02,0-.04.02-.05.04,0,0-1.18,2.33-1.51,3.05-.78.04-3.61.23-3.61.23-.04,0-.07.02-.08.05,0,.03,0,.06.02.09,0,0,.52.46,1.1.99-7.47.98-14.17,4.41-19.27,9.47l-.13-1.67s-.02-.05-.06-.07c-.03,0-.06,0-.09.02,0,0-1.86,2.07-2.39,2.69l-3.31-.76s-.06,0-.08.03c-.02.03-.02.06,0,.08,0,0,1.08,2.4,1.44,3.12-.46.63-2.03,2.96-2.03,2.96-.02.03-.02.06,0,.09.01.02.05.03.08.03,0,0,.77-.13,1.61-.28-3.15,5.11-4.97,11.12-4.97,17.55,0,1.18.07,2.34.19,3.48-.62-.44-1.15-.81-1.15-.81-.03-.03-.06-.03-.09,0-.03.02-.04.05-.04.08,0,0,.39,2.76.54,3.55l-2.69,2.13s-.03.05-.03.08c0,.03.03.05.06.06,0,0,2.57.64,3.36.81.2.77,1.04,3.42,1.04,3.43,0,.03.03.05.07.06h0s.06-.02.07-.05c0,0,.33-.59.71-1.27,2.5,6.8,7.13,12.56,13.08,16.49-.77.22-1.44.41-1.44.41-.03,0-.06.04-.06.07,0,.03.01.06.04.08,0,0,2.45,1.41,3.14,1.78,0,.46.05,3.43.05,3.43,0,.03.02.05.04.07.02,0,.03,0,.03,0,.02,0,.04,0,.05-.02l2.68-2.1,3.36,1.42s.06,0,.09-.01c.02-.02.03-.06.01-.09,0,0-.26-.63-.55-1.37,3.46,1.21,7.16,1.88,11.02,1.88,3.66,0,7.18-.59,10.48-1.68-.26.65-.48,1.18-.48,1.18,0,.03,0,.07.02.08.02.03.05.03.08.02l3.36-1.42,2.68,2.11s.03,0,.05,0c0,0,.02,0,.03,0,.03-.01.05-.04.05-.07,0,0,.04-2.96.04-3.43.69-.37,3.14-1.79,3.14-1.79.03-.01.04-.04.04-.07,0-.04-.02-.06-.06-.07,0,0-.5-.14-1.13-.32,5.87-3.84,10.47-9.47,13.03-16.1.25.45.44.79.44.79.01.03.05.05.07.05h.01s.06-.03.07-.06c0,0,.83-2.66,1.04-3.43.79-.17,3.36-.81,3.36-.81.03,0,.06-.03.06-.06,0-.03,0-.07-.03-.08l-2.68-2.14c.14-.79.53-3.55.53-3.55M952.38,196.4c.1.21.19.41.29.61-.3.15-.61.29-.92.42-.29.14-.59.28-.89.41-.09-.21-.19-.41-.28-.62.19-.39.36-.78.54-1.18.42.12.84.23,1.26.35M950.64,192.68c-.17.4-.35.79-.53,1.2-.41-.13-.82-.25-1.22-.39-1.22-2.69-2.43-5.38-3.65-8.07-.51,1.23-1.03,2.45-1.57,3.67.74-.12,1.29.2,1.49.66.7,1.61,1.4,3.22,2.11,4.84.05.11.09.21.14.32.65.21,1.31.42,1.96.62-.29.62-.58,1.25-.88,1.88.41.94.82,1.88,1.22,2.82.92-.4,1.84-.81,2.75-1.23.91-.42,1.82-.85,2.72-1.29-.45-.92-.89-1.84-1.34-2.76-.67-.18-1.34-.36-2-.55.27-.64.54-1.27.81-1.9-.82-1.69-1.64-3.38-2.47-5.06-.21-.45-.1-1.08.48-1.57-1.28-.38-2.55-.77-3.8-1.18,1.25,2.67,2.51,5.34,3.76,8.01M910.03,198.1c-1-.66-1.98-1.34-2.95-2.03.61,5.08,1.21,10.14,1.82,15.21.66-.08,1.31-.16,1.96-.25-.52-3.88-1.04-7.76-1.56-11.63-.07-.51.04-1.04.72-1.31M929.52,195.09c-.15-.49-.1-1.04.54-1.41-1.1-.5-2.18-1.01-3.25-1.54,1.23,4.37,2.45,8.74,3.69,13.1.16.55.31,1.1.46,1.65.63-.18,1.26-.36,1.89-.55-1.11-3.75-2.22-7.5-3.33-11.26M898.45,208.75c-.41-.66-.82-1.32-1.22-1.99.19,0,.38-.01.57-.02.02-.5.19-.76.5-1.05.34.26.56.5.62,1,.19,0,.38-.02.57-.03-.34.7-.69,1.4-1.04,2.1M902.92,198.9c.73.11.95.6.99,1.11.31,3.33.62,6.66.93,9.98-1.72.15-3.43.28-5.14.38.92-1.87,1.81-3.75,2.67-5.64-.74.06-1.49.11-2.23.16-.32-.57-1.23-1.2-1.94-1.24-.67.11-1.54.82-1.78,1.42-.75.03-1.49.05-2.24.06,1.02,1.8,2.09,3.58,3.2,5.36-1.67.06-3.35.1-5.03.11,0-1.7-.02-3.41-.03-5.12-.93.86-1.88,1.71-2.85,2.55.58,0,.95.36.94.88,0,1.42-.03,2.83-.04,4.25,0,.94-.89,1.7-2,1.68-.89-.02-1.61-.52-1.86-1.19.26,1.15,1.45,2.04,2.88,2.06,1.65.02,2.97-1.13,2.96-2.55,0-.28,0-.56,0-.84,2.09-.01,4.17-.07,6.25-.17,2.13-.1,4.26-.26,6.39-.45.09,0,.18-.02.28-.03.56-.05,1.12-.11,1.69-.17-.54-5.09-1.08-10.15-1.62-15.24-.79.89-1.6,1.77-2.42,2.63M924.69,202.19c.77-.02,1.08.43,1.2.92.27,1.05.53,2.1.79,3.16-2.83.71-5.67,1.34-8.53,1.88-.38.07-.77.14-1.16.21-.59-.35-1.18-.72-1.76-1.08,1.34-1.36,2.17-3.77,1.66-5.81-.32,2.82-1.6,4.82-4.75,5.96,1.43.94,2.89,1.85,4.38,2.74.65-.11,1.3-.23,1.95-.35,3.54-.67,7.06-1.48,10.56-2.41-.73-2.74-1.46-5.48-2.19-8.21-.7,1.01-1.41,2-2.14,3M934.46,198.7c-.64,1.1-1.29,2.2-1.97,3.3.54-.17,1.02.05,1.17.54.42,1.36.84,2.71,1.26,4.06.28.89-.37,1.91-1.44,2.22-.84.25-1.68,0-2.12-.57.6,1.02,1.99,1.5,3.38,1.08,1.62-.49,2.54-2,2.1-3.34-.79-2.43-1.58-4.86-2.37-7.29M867.95,11.21c-.63,0-1.14.42-1.14.93,0,.46.41.85.96.92-.05-.07-.07-.16-.07-.24,0-.39.47-.7,1.06-.7.12,0,.23.02.33.04h0c0-.53-.51-.95-1.14-.95"/>
  <path class="cls-1" d="M407,75.45c2.82.57,5.46.84,8.71.84,9.02,0,15.84-5.1,15.84-14.61,0-5.63-2.38-13.6-15.62-13.6-3.61,0-8.05.62-9.02.84.04,1.14.09,1.98.09,5.02v21.52ZM412.5,51.74c.66-.13,1.45-.22,2.82-.22,6.56,0,10.34,3.61,10.34,10.25,0,9.2-5.76,11.09-9.73,11.09-1.19,0-2.38-.09-3.43-.35v-20.77ZM385.26,74.84l.66.84c1.06.22,3.96.44,7.83.44,3.39,0,5.37-.09,5.98-.22,1.1-.62,1.94-1.63,2.33-3.52l-.09-.09c-2.11.18-5.32.18-7.13.18-1.67,0-3.08-.09-4.09-.31v-8.63h6.69c1.54,0,2.51-.57,2.9-3.65h-9.59v-7.88h4.58c1.98,0,3.48,0,4.14-.26.53-.57,1.06-1.41,1.32-3.39h-10.69c-1.8.04-3.74.31-4.97.62.13,1.85.13,3.43.13,5.54v20.33ZM326.31,63.79c3.48,5.37,5.72,8.8,8.01,11.97.31.44.57.62,1.1.62,1.28,0,3.78-.53,4.18-.7v-19.41c0-3.65.04-6.2.13-8.1-1.01,0-2.2.04-3.56.18-.62.09-.92.26-.92,1.28v12.28c0,2.2-.04,3.92.22,7.31-1.06-2.24-2.68-4.71-4.66-7.83-3.17-4.88-6.78-10.39-8.19-12.41-.44-.48-.79-.79-1.23-.79-.79,0-4.58.22-5.41.35v.22l.79,1.1v18.26c0,3.7-.04,6.25-.13,8.01,1.32.04,2.73-.04,3.52-.18.7-.13.97-.26.97-1.19v-11.53c0-2.24.04-4.53-.22-8.98,1.8,3.39,3.08,5.85,5.41,9.55ZM347.29,75.23c0,.75.26.88.92.88,1.01,0,3.96-.13,4.71-.35-.04-.88-.13-2.33-.13-5.41v-19.8c0-1.98-.13-2.38-.88-2.38-.92,0-3.96.22-4.75.35.09.84.13,2.64.13,5.59v21.12ZM505.56,75.5c.57-1.41,1.85-4.66,2.86-7.22h9.95c1.01,2.51,1.63,4.18,2.42,6.43.44,1.19.79,1.41,1.5,1.41.97,0,3.96-.22,4.93-.53v-.18c-.88-1.85-1.94-4.62-3.74-9.11-1.54-3.83-4.88-12.5-6.91-17.34-.22-.53-.62-.79-1.01-.79-.53,0-2.99.18-4.62.53l.35.92c-1.67,4-8.54,20.37-10.83,25.74v.18c.97.31,2.9.57,3.87.57.7,0,1.06-.22,1.23-.62ZM513.48,54.46c.48,1.41,1.8,4.71,3.83,10.17h-7.66c1.5-3.78,2.73-7.26,3.83-10.17ZM304.79,49.45v13.2c0,8.41-2.99,9.9-6.56,9.9-3.04,0-6.56-1.32-6.56-9.51v-12.32c0-2.16-.13-2.55-.92-2.55-.88,0-3.92.22-4.71.35.09.92.13,2.73.13,5.68v9.02c0,9.46,4,13.29,11.44,13.29,5.37,0,11.88-1.76,11.88-14.08v-6.25c0-3.65.04-6.25.13-8.01-.88,0-2.6.04-3.87.18-.62.09-.97.26-.97,1.1ZM358.2,52h7.92v23.32c0,.66.31.79.92.79,1.76,0,3.48-.13,4.71-.35-.04-.88-.13-2.33-.13-5.37v-18.39h7c.92-.22,2.11-1.32,2.29-3.65h-15.67c-4.44,0-5.63-.04-6.34-.22-.44.48-.97,1.23-1.45,2.55-.31,1.01.04,1.32.75,1.32ZM690.88,52h7.92v23.32c0,.66.31.79.92.79,1.76,0,3.48-.13,4.71-.35-.04-.88-.13-2.33-.13-5.37v-18.39h7c.92-.22,2.11-1.32,2.29-3.65h-15.67c-4.44,0-5.63-.04-6.34-.22-.44.48-.97,1.23-1.45,2.55-.31,1.01.04,1.32.75,1.32ZM717.94,74.84l.66.84c1.06.22,3.96.44,7.83.44,3.39,0,5.37-.09,5.98-.22,1.1-.62,1.94-1.63,2.33-3.52l-.09-.09c-2.11.18-5.32.18-7.13.18-1.67,0-3.08-.09-4.09-.31v-8.63h6.69c1.54,0,2.51-.57,2.9-3.65h-9.59v-7.88h4.58c1.98,0,3.48,0,4.14-.26.53-.57,1.06-1.41,1.32-3.39h-10.69c-1.8.04-3.74.31-4.97.62.13,1.85.13,3.43.13,5.54v20.33ZM745.84,72.55c-2.11,0-4.75-.97-6.34-2.07-.4.26-1.06,1.89-1.06,2.82,0,.57.26,1.01,1.01,1.5,1.14.84,3.39,1.72,6.42,1.72,5.19,0,9.95-2.95,9.95-8.41,0-4.18-2.24-5.85-6.2-8.1-4.09-2.33-5.54-3.39-5.54-5.46,0-1.94,1.67-3.04,4-3.04,1.41,0,3.3.57,4.31,1.1,1.54.09,2.25-1.72,2.25-2.82-1.1-1.14-4-2.11-6.34-2.11h-.04c-7.26,0-9.37,4.8-9.37,7.79,0,2.64.88,5.46,5.99,8.23,4.44,2.42,5.46,3.52,5.46,5.46,0,2.24-1.85,3.39-4.49,3.39ZM669.24,75.5c.57-1.41,1.85-4.66,2.86-7.22h9.95c1.01,2.51,1.63,4.18,2.42,6.43.44,1.19.79,1.41,1.5,1.41.97,0,3.96-.22,4.93-.53v-.18c-.88-1.85-1.94-4.62-3.74-9.11-1.54-3.83-4.88-12.5-6.91-17.34-.22-.53-.62-.79-1.01-.79-.53,0-2.99.18-4.62.53l.35.92c-1.67,4-8.54,20.37-10.83,25.74v.18c.97.31,2.9.57,3.87.57.7,0,1.06-.22,1.23-.62ZM677.16,54.46c.48,1.41,1.8,4.71,3.83,10.17h-7.66c1.5-3.78,2.73-7.26,3.83-10.17ZM567.16,74.84l.66.84c1.06.22,3.96.44,7.83.44,3.39,0,5.37-.09,5.98-.22,1.1-.62,1.94-1.63,2.33-3.52l-.09-.09c-2.11.18-5.32.18-7.13.18-1.67,0-3.08-.09-4.09-.31v-8.63h6.69c1.54,0,2.51-.57,2.9-3.65h-9.59v-7.88h4.58c1.98,0,3.48,0,4.14-.26.53-.57,1.06-1.41,1.32-3.39h-10.69c-1.8.04-3.74.31-4.97.62.13,1.85.13,3.43.13,5.54v20.33ZM591.89,76.11c.48,0,.7-.22.79-.7.66-5.15,1.98-15.23,2.6-20.64,1.98,5.98,5.85,17.65,6.91,21.08.88,0,1.94-.18,2.73-.31.97-.22,1.28-.57,1.58-1.45,2.82-8.27,5.41-15.58,6.65-19.41l1.28,11.05c.48,4.66.75,7.04,1.01,9.29.09.88.66,1.1,1.23,1.1.88,0,3.65-.18,4.4-.4-.4-2.11-.88-5.37-1.58-9.99l-2.33-16.19c-.13-1.1-.4-1.36-.84-1.36-1.06,0-4,.26-4.66.62v.66c-1.85,4.49-4.8,12.41-7,18.17l-5.94-16.41c-.79-2.24-1.14-2.86-1.8-3.04-2.11,0-3.7.4-4.8.62l.13.84c-1.72,10.03-3.48,21.43-4.27,26.1.7.4,2.73.4,3.92.4ZM531.83,75.54c1.94.44,5.15.75,7.39.75,6.91,0,11.79-2.99,11.79-8.89,0-2.9-1.8-5.5-5.59-6.56,2.02-1.1,3.87-3.12,3.87-5.85s-1.28-6.91-9.55-6.91c-2.82,0-7,.53-8.05.79.13,1.98.13,3.26.13,5.59v21.08ZM537.24,51.56c.44-.09,1.5-.18,2.2-.18,2.82,0,4.58,1.58,4.58,4.36,0,2.24-.97,3.74-2.11,4.27-2.07-.04-3.43,0-4.66.22v-8.67ZM537.24,63.4c.66-.13,1.36-.13,2.02-.13,3.65,0,5.81,1.63,5.81,4.53,0,3.43-2.29,5.24-5.54,5.24-.75,0-1.76-.09-2.29-.22v-9.42ZM639.89,76.11c.88,0,3.3-.04,4.53-.18.75-.09,1.01-.26,1.01-1.14v-10.17h.79c1.45,0,2.29.35,3.65,2.86,1.76,3.43,2.64,5.19,3.83,6.73,1.14,1.54,2.29,1.98,3.92,1.98s3.21-.18,3.56-.44v-.18c-1.1-1.19-2.51-3.17-4.62-6.86-1.5-2.6-2.86-4.8-3.87-5.68,1.76-.79,5.28-2.82,5.28-7,0-5.59-3.48-7.97-10.47-7.97-2.02,0-6.42.48-7.57.75.09,1.23.09,2.29.09,4.49v14.74c0,3.7-.04,6.29-.13,8.05ZM645.43,51.47c.53-.09,1.28-.13,1.89-.13,2.73,0,5.02,1.54,5.02,5.19,0,2.95-1.76,4.27-2.68,4.62-.62.31-3.04.44-4.22.31v-9.99ZM626.95,75.23c0,.75.26.88.92.88,1.01,0,3.96-.13,4.71-.35-.04-.88-.13-2.33-.13-5.41v-19.8c0-1.98-.13-2.38-.88-2.38-.92,0-3.96.22-4.75.35.09.84.13,2.64.13,5.59v21.12ZM486.2,67.49c1.76,3.43,2.64,5.19,3.83,6.73,1.14,1.54,2.29,1.98,3.92,1.98s3.21-.18,3.56-.44v-.18c-1.1-1.19-2.51-3.17-4.62-6.86-1.5-2.6-2.86-4.8-3.87-5.68,1.76-.79,5.28-2.82,5.28-7,0-5.59-3.48-7.97-10.47-7.97-2.02,0-6.42.48-7.57.75.09,1.23.09,2.29.09,4.49v14.74c0,3.7-.04,6.29-.13,8.05.88,0,3.3-.04,4.53-.18.75-.09,1.01-.26,1.01-1.14v-10.17h.79c1.45,0,2.29.35,3.65,2.86ZM481.75,51.47c.53-.09,1.28-.13,1.89-.13,2.73,0,5.02,1.54,5.02,5.19,0,2.95-1.76,4.27-2.68,4.62-.62.31-3.04.44-4.22.31v-9.99ZM465.3,74.71c.44,1.19.79,1.41,1.5,1.41.97,0,3.96-.22,4.93-.53v-.18c-.88-1.85-1.94-4.62-3.74-9.11-1.54-3.83-4.88-12.5-6.91-17.34-.22-.53-.62-.79-1.01-.79-.53,0-2.99.18-4.62.53l.35.92c-1.67,4-8.54,20.37-10.83,25.74v.18c.97.31,2.9.57,3.87.57.7,0,1.06-.22,1.23-.62.57-1.41,1.85-4.66,2.86-7.22h9.95c1.01,2.51,1.63,4.18,2.42,6.43ZM454.17,64.63c1.5-3.78,2.73-7.26,3.83-10.17.48,1.41,1.8,4.71,3.83,10.17h-7.66Z"/>
  <g>
    <path class="cls-1" d="M1047.15,132.96c.35.42,1.13.99,1.48.99h139.57c.42-2.82,1.13-8.18,1.13-8.53,0-.42-.28-2.12-.49-2.82-.42-1.69-2.26-4.58-3.38-5.71l-2.89,4.86c1.13,1.41,1.97,2.89,2.61,4.09.35.78.92,1.83.92,2.12,0,.35-.07.35-.07.35h-132.59c-.49,0-1.06-.07-1.55,0-3.24-1.27-6.7-5-8.39-7.19l-3.03,5c.49.56,3.53,4.16,3.53,5.43,0,2.68-8.53,10.01-12.41,10.01-1.97,0-4.86-1.69-5.43-1.69-.35,0-.35.07-.49.21v.49c1.13,1.34,8.53,4.79,11.21,4.79,5.36,0,9.87-10.01,10.29-12.41Z"/>
    <path class="cls-1" d="M1179.81,141.98c-.35,0-2.26-1.06-3.24-1.83-.28-.21-.56-.56-.78-.49-1.2,1.41-2.26,2.54-3.1,3.74,1.41.99,3.03,1.9,4.44,2.61.85-.85,1.69-1.69,2.26-2.4,1.41.85,3.95,2.4,4.3,2.4s1.55-1.48,2.19-2.33c.28-.35.85-1.06.92-1.48-1.41-.85-4.02-2.61-4.37-2.61-.42,0-2.26,2.4-2.61,2.4Z"/>
    <path class="cls-1" d="M1298.95,113.64c.14,0,1.62-1.55,2.47-2.26,1.27.78,4.09,2.26,4.37,2.26.35,0,.49-.35.56-.35,1.27-1.34,2.19-2.4,2.75-3.31l-4.58-2.47c-.99.78-2.54,2.33-2.89,2.33s-.49-.14-.63-.21c-1.13-.49-2.96-1.97-3.24-1.97-.35,0-2.75,2.61-3.31,3.52,1.13.85,2.4,1.69,3.53,2.11.28.07.71.35.99.35Z"/>
    <path class="cls-1" d="M1341.81,116.89c0-.35,0-.49.14-.63.92-1.13,2.04-2.68,2.75-3.52.49-.56.99-1.27,1.27-1.83-1.34-.78-2.68-1.62-3.88-2.4-1.06-.63-2.33-1.27-2.96-2.12-.42-.63-.49-1.55-.49-2.26-1.83,2.47-2.75,4.3-3.95,6.77.78.63,1.9,1.2,2.04,1.62.92,3.03,1.55,7.26,1.9,9.38.28,1.55.63,4.37.63,4.72s-.07.85-.21,1.69h-9.24c-.85,0-1.76-.49-1.83-1.62-.35-5.64-1.13-12.34-1.55-16.85-.07-.99-.42-3.17-.56-4.72l-4.3,5.92,2.54,17.27h-13.82c-.63,0-2.26-.99-2.54-2.19-.07-.28-.07-.42-.07-.7l.56-6.56c-1.13,1.27-2.96,2.47-3.59,4.16-.63,1.34.21,3.81-.71,5.29h-16.57l1.27-3.38c-.14-2.68-4.16-6.06-6.13-6.91-.56-.21-1.69-.63-2.04-.63s-.92.14-1.13.21c-1.41.28-3.38,1.2-4.72,1.83-1.97.92-4.44,2.11-5.85,2.96-1.69.99-3.52,2.4-5.36,3.45.28-1.97,1.06-5.36,1.06-5.78,0-.28-.49-4.79-.92-6.48,2.75-.07,3.17-3.6,4.23-5.08-1.69-1.06-4.44-2.04-5.85-4.23-.35-.49-.63-1.2-.71-1.62-.07,0-.35-.07-.35-.07-1.06,1.34-2.19,2.75-2.82,3.95-.21.42-.49.99-.49,1.34,0,.92.99,1.48,1.13,1.9.92,2.75,1.34,6.63,1.76,9.38.14.99.28,2.19.42,3.17.14.92.42,2.89.42,3.17,0,.78-.92,2.82-2.04,2.82h-46.17c-.28-3.03-1.06-6.13-2.89-9.45-.42-.71-1.9-1.83-2.33-2.04-.14-.07-.28-.07-.63-.07-.42,0-1.48.28-1.97.71-2.68,2.11-4.02,5.78-4.86,7.97-.49,1.2-1.13,3.81-1.13,4.16s.07.71.07.78c.21,1.48,2.54,2.82,3.45,2.96,2.04.42,4.3.63,6.13.78-2.96,3.45-6.98,6.2-10.15,6.98-.71.14-2.04.35-2.4.35s-5.08-1.34-5.43-1.34c-.42,0-.71,0-.85.14v.49c1.27,1.41,3.67,2.33,4.65,2.68,1.9.78,3.88,1.48,5.64,1.97.35.07,1.06.14,1.41.14s1.41-.07,1.9-.28c1.06-.49,2.4-1.34,3.1-1.97,2.89-2.47,4.37-6.2,5.64-9.3h90.23l1.97-3.38c.28.71.56,1.48.99,1.9.42.56,1.13.99,1.55,1.2.21.07.71.28.99.28h14.03c.92-1.06,1.69-2.26,2.4-3.24.56.99.21,2.68,1.13,3.24h14.95c.35,0,.63-.28.99-.28l1.34-7.05-1.2-9.73ZM1208.01,127.39c-.35.21-1.13.21-1.48.21s-.85,0-1.06-.07c-.56-.07-1.9-.63-2.4-1.34-.14-.14-.49-.85-.49-1.2s.42-.85.78-1.27c.49-.42,1.41-1.06,1.83-1.06.28,0,.99.35,1.34.71.99.92,1.48,2.26,1.97,3.59-.14.14-.35.28-.49.42ZM1282.73,127.46c-.14,0-.28.35-.71.28h-16.21c2.47-1.34,5.92-3.81,7.9-4.3.92-.21,2.68-.49,3.24-.49.28,0,.92,0,1.34.07,1.69.35,3.45,1.97,4.44,3.74v.71Z"/>
    <path class="cls-1" d="M1605.31,127.95c.35-1.2.92-2.47.92-3.88,0-3.81-2.68-4.86-6.98-8.53-2.54,3.03-8.53,11.14-8.53,15.37,0,2.82,4.37,3.03,5.99,3.03,1.83,0,5.57-1.69,6.7-2.33,1.06-.63,1.41-2.19,1.62-2.82.07-.28.21-.56.28-.85ZM1603.27,127.74c-1.55.21-5.08.56-5.43.56-1.13,0-2.89-.28-2.89-2.04,0-1.06,2.4-3.95,3.03-4.86,1.55,1.13,4.3,3.67,5.29,5.85v.49Z"/>
    <path class="cls-1" d="M1597.84,109.91l4.3,2.26c.92-.42,2.61-2.54,3.24-3.45-1.41-.85-4.02-2.33-4.37-2.33s-2.4,2.12-2.68,2.12c-.78,0-3.24-1.69-3.88-2.12-1.13.99-2.26,2.19-3.17,3.31.21.28,3.38,2.33,4.3,2.33.35,0,1.55-1.27,2.26-2.11Z"/>
    <path class="cls-1" d="M1728.81,141.98c-.35,0-2.26-1.06-3.24-1.83-.28-.21-.56-.56-.78-.49-1.2,1.41-2.26,2.54-3.1,3.74,1.41.99,3.03,1.9,4.44,2.61.85-.85,1.69-1.69,2.26-2.4,1.41.85,3.95,2.4,4.3,2.4s1.55-1.48,2.19-2.33c.28-.35.85-1.06.92-1.48-1.41-.85-4.02-2.61-4.37-2.61-.42,0-2.26,2.4-2.61,2.4Z"/>
    <path class="cls-1" d="M1737.2,133.95c.42-2.82,1.13-8.18,1.13-8.53,0-.42-.28-2.12-.49-2.82-.42-1.69-2.26-4.58-3.38-5.71l-2.89,4.86c1.13,1.41,1.97,2.89,2.61,4.09.35.78.92,1.83.92,2.12,0,.35-.07.35-.07.35h-102.49c-.49,0-1.06-.07-1.55,0-3.24-1.27-6.7-5-8.39-7.19l-3.03,5c.49.56,3.53,4.16,3.53,5.43,0,2.68-8.53,10.01-12.41,10.01-1.97,0-4.86-1.69-5.43-1.69-.35,0-.35.07-.49.21v.49c1.13,1.34,8.53,4.79,11.21,4.79,5.36,0,9.87-10.01,10.29-12.41.35.42,1.13.99,1.48.99h109.47Z"/>
    <path class="cls-1" d="M1752.29,117.94l-2.04,5.71c1.41.92,5.36,4.44,5.36,6.06,0,2.82-7.9,10.5-12.2,10.5-2.4,0-5.57-1.55-5.99-1.55h-.71c0,.21-.21.42-.21.56.99,1.2,2.75,1.83,3.59,2.26,1.2.49,6.42,2.54,8.39,2.54,5.57,0,9.8-9.52,9.8-15.23,0-4.16-1.34-7.47-5.99-10.86Z"/>
    <path class="cls-1" d="M1750.46,113.99c.63,0,2.89-3.45,2.89-3.67,0-.78-3.1-2.75-3.52-2.75-.71,0-2.82,2.75-2.82,3.38,0,.42,3.1,3.03,3.46,3.03Z"/>
    <path class="cls-1" d="M1779.22,124.99c-.14-.63-.35-1.27-.56-1.76-.28-.85-2.26-5.08-4.44-5.08-3.38,0-7.19,7.68-7.33,8.95-.07.63,0,1.34,0,1.69,0,2.89.35,5.15,4.02,5.15,2.75,0,4.37-.92,5.78-4.79h.14c.28.7.35,1.62.35,1.9,0,5.36-11,12.2-14.17,12.2-.35,0-5.08-.99-5.43-.99-.21,0-.99-.14-.99.85,1.2.99,9.16,3.24,12.2,3.24,7.05,0,10.93-11.77,10.93-17.91,0-.35-.21-2.4-.49-3.45ZM1772.45,128.16c-.35,0-3.45-.42-3.45-1.55,0-1.48,2.75-2.26,3.24-2.26,1.13,0,2.82.92,2.82,3.1-1.27.63-1.62.71-2.61.71Z"/>
    <path class="cls-1" d="M1169.8,199.26c-1.34-1.2-3.67-3.17-4.02-3.17s-.71.28-.78.35c-1.2.99-2.82,2.61-3.53,3.67.78.78,1.62,1.55,2.19,1.97.71.49,1.83,1.41,2.12,1.41.42,0,.49-.14.63-.21.99-.63,2.47-1.69,3.24-2.4.21-.28.63-.56.63-.85,0-.35-.35-.63-.49-.78Z"/>
    <path class="cls-1" d="M1202.37,168.53l4.79,2.54c1.06-.99,2.33-2.47,3.03-3.52l-4.3-2.26c-.92.85-2.75,2.4-3.03,2.4-.35,0-3.81-2.26-4.16-2.26-.28,0-2.33,2.19-3.17,3.17,1.41.85,2.89,1.76,4.23,2.33l2.61-2.4Z"/>
    <path class="cls-1" d="M1226.76,170.64c.14,0,1.62-1.55,2.47-2.26,1.27.78,4.09,2.26,4.37,2.26.35,0,.49-.35.56-.35,1.27-1.34,2.19-2.4,2.75-3.31l-4.58-2.47c-.99.78-2.54,2.33-2.89,2.33s-.49-.14-.63-.21c-1.13-.49-2.96-1.97-3.24-1.97-.35,0-2.75,2.61-3.31,3.52,1.13.85,2.4,1.69,3.53,2.11.28.07.71.35.99.35Z"/>
    <path class="cls-1" d="M1289.71,183.47c-1.34-2.4-.63-6.06-1.06-9.45,1.76-1.27,2.33-3.88,3.53-5.22-1.41-.7-4.3-2.47-5.78-4.02-.42-.49-.42-1.55-.56-2.26h-.49c-.85.49-3.59,5.71-3.59,6.13,0,.35,1.69,1.41,1.76,1.69,1.06,3.17,1.55,6.98,2.11,9.94.21,1.06.49,3.17.49,3.52s-.14.99-.35,1.48h-10.86c-.46.01-.95-.06-1.27-.71.28-1.06.71-2.96.71-3.31v-4.44c-.28.35-.92.71-1.2,1.13-.92,1.27-2.47,3.45-2.47,3.81s.71,2.33.71,2.68.07.42-.07.85h-5.15v-1.62l1.55-5.99c-1.62,1.34-4.02,3.74-4.37,4.58-.28.85,0,1.9,0,3.03h-5.78c.21,0,.35-.49.49-.49-.35,0-.78.49-1.2.49-.85,0-1.62-.63-2.26-1.2.71-2.82,1.97-5.57,1.9-7.61-1.69,1.62-3.45,3.45-4.58,5-.14.14.07,3.81-1.2,3.81h-12.62c-.63,0-2.26-.99-2.54-2.19-.07-.28-.07-.42-.07-.7l.56-6.56c-1.13,1.27-2.96,2.47-3.59,4.16-.63,1.34.21,3.81-.71,5.29h-22c1.55-3.1,2.4-3.03,2.4-5.43,0-1.34-.63-5.71-3.31-5.71-3.74,0-9.8,5.85-11.84,8.6-.49.63-.21,1.76-.35,2.54h-24.18c-.49,0-1.13-.92-1.48-1.27-.42-.49-.92-1.41-.92-1.76s.49-2.75.49-3.17v-3.95c-1.55,1.62-3.31,3.1-4.02,4.86-.63,1.34.21,3.17-.63,5.29h-110.32c-.92,0-1.9-.14-1.97-1.34-.49-6.06-1.06-12.13-1.48-16.57-.14-1.48-.42-3.74-.56-5.43-1.69,1.76-3.45,4.23-4.23,5.92l2.96,22.56c-.07,1.2-2.26,2.19-3.31,2.54-.85.28-1.83.49-2.68.71s-2.19.21-2.47.21c-3.1,0-8.46-.42-8.46-5.99,0-1.9,2.4-6.56,2.4-6.56,0-.35-.07-.42-.21-.56-2.33.85-4.44,7.19-5.01,9.94-.07.56-.14,1.83-.14,2.19,0,5,5.36,7.19,9.09,7.19.35,0,1.9-.07,2.4-.14,2.33-.42,4.65-1.06,6.56-2.61,2.75-2.18,3.45-4.23,4.65-6.41h111.66c.78-1.2,1.34-2.4,2.04-3.46.14.63.35,1.2.78,1.76.42.63,1.41,1.27,1.97,1.48.14.07.21.21.63.21h60.27l1.97-3.38c.28.71.56,1.48.99,1.9.42.56,1.13.99,1.55,1.2.21.07.71.28.99.28h12.76c.71,0,2.26-1.55,2.61-1.97.14.71,1.2,1.97,2.12,1.97h8.81c.42-.42.85-.99,1.27-1.27.42.35.56.85.78,1.27h7.61c.14-.56.35-1.13.63-1.69.42.56.85,1.13,1.27,1.69h15.16c1.83,0,3.81,2.33,5.01,3.24.78-.92,2.04-4.3,2.04-5.5,0-2.12-5.36-3.38-6.34-5.22ZM1204.63,185.31c-.42,0-4.44-.99-4.44-2.75,0-1.41,4.16-2.75,4.79-2.75,1.76,0,3.24,2.4,3.1,4.23-.99.85-2.54,1.27-3.45,1.27Z"/>
    <path class="cls-1" d="M1306.71,162.25c-.71.85-4.09,5.99-4.09,6.91l2.61,21.78c2.54-3.81,2.89-6.84,2.89-10.5l-1.41-18.19Z"/>
    <path class="cls-1" d="M1328.42,180.23c-.28-.85-2.26-5.08-4.44-5.08-3.38,0-7.19,7.68-7.33,8.95-.07.63,0,1.34,0,1.69,0,2.89.35,5.15,4.02,5.15,2.75,0,4.37-.92,5.78-4.79h.14c.28.7.35,1.62.35,1.9,0,5.36-11,12.2-14.17,12.2-.35,0-5.08-.99-5.43-.99-.21,0-.99-.14-.99.85,1.2.99,9.16,3.24,12.2,3.24,7.05,0,10.93-11.77,10.93-17.91,0-.35-.21-2.4-.49-3.45-.14-.63-.35-1.27-.56-1.76ZM1322.21,185.16c-.35,0-3.45-.42-3.45-1.55,0-1.48,2.75-2.26,3.24-2.26,1.13,0,2.82.92,2.82,3.1-1.27.63-1.62.71-2.61.71Z"/>
    <path class="cls-1" d="M1353.23,206.95c-.35,0-3.17-2.12-3.53-2.12-.21,0-2.12,1.9-2.75,2.68,1.27.85,3.45,2.33,3.81,2.33.21,0,1.76-1.55,2.61-2.19,1.13.92,3.03,2.19,3.45,2.19.35,0,2.04-1.83,2.75-2.54-1.27-.85-3.45-2.47-3.81-2.47-.28,0-2.19,2.12-2.54,2.12Z"/>
    <path class="cls-1" d="M1475.18,173.67c-.07-.21-.28-.35-.42-.49-2.33-.14-5.08,1.48-6.42,2.12-2.89,1.34-5.43,5.22-6.2,7.68-.14.71-.49,1.34-.92,2.33h-101.72l-3.38,6.06c3.17.35,6.98-.56,9.8,3.67l-.21.28c-.71.14-1.48.35-2.04.49-1.27.42-2.54.71-3.74.92-1.27.21-4.02.42-4.37.42-2.82,0-9.66-1.27-9.66-6.27,0-2.61,2.12-5.43,4.44-7.9.35-.35.56-1.06.42-1.55-2.89,1.06-8.32,8.6-8.32,13.75,0,5.78,6.7,7.19,10.22,7.19.35,0,3.38-.28,4.44-.49,1.76-.35,4.02-.78,6.63-2.04.42-.21.99-.28,1.34-.56,2.68-2.04,4.02-5.78,5.57-8.32h89.88c1.69-1.48,1.2-3.6,3.24-4.44l10.72,3.88c1.06-1.62,2.19-3.31,3.1-4.93.21-.42.49-1.13.49-1.48,0-.28-.07-1.34-.21-1.69-.71-2.82-1.97-6.34-2.68-8.6ZM1466.51,180.51c0-.14.35-.35.49-.49.56-.35,1.2-.63,1.76-.85.35-.14,1.2-.35,1.55-.35s.49-.07.78.21c1.34,1.06,1.41,2.54,1.76,4.02l-6.34-2.54Z"/>
    <path class="cls-1" d="M1593.2,163.38c-.42-.63-.49-1.55-.49-2.26-1.83,2.47-2.75,4.3-3.95,6.77.78.63,1.9,1.2,2.04,1.62.92,3.03,1.55,7.26,1.9,9.38.28,1.55.63,4.37.63,4.72s-.07.85-.21,1.69h-14.03c-1.98.02-2.14.06-2.26,0,.42-1.48.85-3.31,1.41-4.51-5.08-.28-11.28-1.9-17.13-5-.35-.21-1.06-.35-1.48-.49-.7-.14-1.76-.14-2.11-.14h-1.41c-1.48.21-3.45,2.11-4.51,3.52-.78.99-1.41,2.54-1.76,3.52.56-.28,1.41-.85,1.9-1.06.85-.42,2.47-.63,2.75-.63.35,0,2.19.49,3.03.78,1.62.49,4.02,1.27,5.29,1.83-1.55.92-3.03,1.41-4.58,1.9-.42.07-1.13.28-1.41.28h-17.41c-4.79-4.02-10.57-9.94-13.39-12.9,4.37-1.27,8.74-2.4,12.9-3.52.35-1.69.78-3.6,1.13-5.29-5.29,1.55-11.14,1.97-15.72,4.65-2.33,1.41-1.48,5.15-2.54,7.26l10.01,9.31c0,.14-.07.49-.21.49h-29.54c-.28-3.03-1.06-6.13-2.89-9.45-.42-.71-1.9-1.83-2.33-2.04-.14-.07-.28-.07-.63-.07-.42,0-1.48.28-1.97.71-2.68,2.11-4.02,5.78-4.86,7.97-.49,1.2-1.13,3.81-1.13,4.16s.07.71.07.78c.21,1.48,2.54,2.82,3.45,2.96,2.04.42,4.3.63,6.13.78-2.96,3.45-6.98,6.2-10.15,6.98-.71.14-2.04.35-2.4.35s-5.08-1.34-5.43-1.34c-.42,0-.71,0-.85.14v.49c1.27,1.41,3.67,2.33,4.65,2.68,1.9.78,3.88,1.48,5.64,1.97.35.07,1.06.14,1.41.14s1.41-.07,1.9-.28c1.06-.49,2.4-1.34,3.1-1.97,2.89-2.47,4.37-6.2,5.64-9.3h29.39c.99-1.41,1.9-2.82,3.03-4.09,1.41,1.41,2.82,2.82,3.95,4.09h18.05c.28,0,1.48-.35,1.9-.56,1.97-1.06,4.09-2.4,6.06-3.31.35-.21,1.06-.49,1.41-.49h7.54l.56,4.37h21.43c.35,0,.63-.28.99-.28l1.34-7.05-1.2-9.73c0-.35,0-.49.14-.63.92-1.13,2.04-2.68,2.75-3.52.49-.56.99-1.27,1.27-1.83-1.34-.78-2.68-1.62-3.88-2.4-1.06-.63-2.33-1.27-2.96-2.12ZM1496.97,184.39c-.35.21-1.13.21-1.48.21s-.85,0-1.06-.07c-.56-.07-1.9-.63-2.4-1.34-.14-.14-.49-.85-.49-1.2s.42-.85.78-1.27c.49-.42,1.41-1.06,1.83-1.06.28,0,.99.35,1.34.71.99.92,1.48,2.26,1.97,3.59-.14.14-.35.28-.49.42Z"/>
    <path class="cls-1" d="M1607.44,169.16l2.61,21.78c2.54-3.81,2.89-6.84,2.89-10.5l-1.41-18.19c-.71.85-4.09,5.99-4.09,6.91Z"/>
    <g>
      <path class="cls-1" d="M1366.56,108.85c2.35,1.46,3.72,2.19,4.09,2.19.14,0,.59-.42,1.34-1.27,1.13-1.18,1.74-1.84,1.83-1.98l-4.3-2.47c-1.79,1.51-2.64,2.26-2.54,2.26-.47,0-1.69-.75-3.67-2.26-1.32,1.55-2.28,2.68-2.89,3.39,2.16,1.46,3.46,2.19,3.88,2.19.23,0,.99-.68,2.26-2.05Z"/>
      <path class="cls-1" d="M1536.32,112.78c.66-.76,1.08-1.37,1.27-1.84-1.32-.76-2.61-1.56-3.88-2.41-1.79-1.13-2.78-1.84-2.96-2.13-.33-.52-.49-1.28-.49-2.27-1.32,1.85-2.64,4.13-3.95,6.83l2.05,1.64c.94,4.18,1.58,7.33,1.91,9.47.42,2.33.64,3.92.64,4.77,0,.43-.07,1-.21,1.71h-150.85c-1.27,0-1.98-.31-2.12-.92-1.37-7.35-2.31-12.88-2.82-16.58-2.02,3.48-3.03,5.15-3.03,5.01,0,.14.08.41.25.81.16.4.27.69.32.88-1.36.94-2.82,1.83-4.38,2.68-2.31,1.37-3.62,2.54-3.95,3.53-1.41,4.33-2.12,6.35-2.12,6.07v.78l8.54,1.69c.8-.09,1.52-.81,2.15-2.15.64-1.34,1.24-2.13,1.8-2.36.47,1.95.8,3.4.99,4.35.14.48.52.95,1.13,1.43.23.24.47.36.71.36h155.02c.14,0,.32-.05.53-.14.21-.09.36-.14.46-.14l1.34-7.09-1.2-9.79c0-.28.05-.5.14-.64,1.69-2.22,2.61-3.4,2.75-3.55ZM1374.25,126.28h-3.18c-.52,0-1.95-.35-4.3-1.06.94-.42,1.91-.87,2.89-1.34,1.27-.75,2.12-1.74,2.54-2.96.14-.47.49-.8,1.06-.99.66,2.78.99,4.54.99,5.29v1.06Z"/>
      <path class="cls-1" d="M1558.91,123.32c-.33-.89-.82-1.86-1.48-2.89-1.04-1.46-2.02-2.19-2.96-2.19-1.46,0-3.08,1.35-4.87,4.04-1.51,2.27-2.33,3.92-2.47,4.96v1.7c0,1.7.21,2.93.64,3.69.61.99,1.74,1.49,3.39,1.49,1.46,0,2.62-.33,3.49-1,.87-.67,1.63-1.96,2.29-3.87h.14c.24.61.35,1.25.35,1.91,0,2.45-1.98,5.15-5.93,8.12-3.58,2.73-6.33,4.09-8.26,4.09-.14,0-1.06-.17-2.75-.49-1.69-.33-2.59-.49-2.68-.49-.66,0-.99.28-.99.85.61.52,2.43,1.19,5.47,2.01,3.03.82,5.28,1.23,6.74,1.23,3.2,0,5.9-2.21,8.12-6.63,1.88-3.81,2.82-7.57,2.82-11.29,0-1.03-.17-2.19-.49-3.46-.24-.8-.42-1.39-.57-1.76ZM1552.7,128.33c-.47,0-1.08-.12-1.83-.36-1.08-.34-1.62-.74-1.62-1.22,0-.67.47-1.25,1.41-1.73.8-.38,1.41-.57,1.83-.57.66,0,1.27.24,1.84.72.66.62.99,1.44.99,2.44-.99.48-1.86.72-2.61.72Z"/>
      <path class="cls-1" d="M1577.96,124.56c-.28-1.79-1.2-3.68-2.75-5.67-1.55-1.98-3.29-3.33-5.22-4.04l-1.41,5.99c3.29,1.71,5.29,3.54,6,5.49.33.86.49,1.43.49,1.71s-.02.45-.07.5h-11.36l-.56,5.58h13.83c.52-.61.82-1.25.92-1.91.33-1.65.49-3.26.49-4.82,0-.61-.12-1.56-.35-2.83Z"/>
    </g>
  </g>
  <path class="cls-1" d="M1343.94,74.09c1.2.92,2.19,1.41,3.03,1.48.21,0,.49.21.78.21h21.71c2.04-4.02,3.03-7.4,3.03-10.15,0-.99-.35-2.12-.99-3.45-.63-1.34-1.34-2.4-2.04-3.03l-2.89,5.08c1.62,2.61,2.4,4.23,2.4,4.93,0,.21-.14.49-.42.85h-18.68c-.63,0-1.48-.28-2.61-.92-1.06-.63-1.76-1.2-1.97-1.69-.21-.49-.35-1.27-.35-2.19,0-.14.07-.92.21-2.33.21-1.48.28-2.47.28-2.96l-.28-.21c-.7.35-1.41,1.83-2.19,4.37-.63,2.33-.99,4.23-.99,5.71,0,.78,0,1.27.07,1.41.14.92.78,1.9,1.9,2.89ZM1241.93,85.3c0-.21-.63-.85-1.9-1.9-1.2-1.06-1.9-1.62-2.04-1.62-.35,0-.99.49-1.9,1.48-.92,1.06-1.41,1.69-1.48,2.04,2.33,1.83,3.67,2.75,4.09,2.75.21,0,.78-.35,1.76-1.06.99-.7,1.48-1.27,1.48-1.69ZM1216.48,84.94l3.95,2.33c1.41-1.48,2.47-2.82,3.17-3.88l-4.3-2.47c-.49.35-1.34,1.2-2.61,2.47-1.62-.78-2.89-1.62-3.74-2.47-1.41,1.48-2.4,2.75-3.03,3.67.21.21.92.71,2.12,1.41,1.2.78,1.83,1.13,2.04,1.13-.21,0,.56-.71,2.4-2.19ZM1329.77,65.35l-1.41-18.19c-.49.63-1.27,1.83-2.33,3.45-1.2,1.9-1.76,3.1-1.76,3.45l2.61,21.78c1.9-2.89,2.89-6.34,2.89-10.5ZM1357.13,54.07l4.02,2.11c1.06-.92,2.12-2.04,3.03-3.38l-4.16-2.11-1.55,1.2c-.63.49-.99.78-1.06.78-.14,0-.71-.35-1.76-.99-1.06-.63-1.62-.99-1.76-.99-.35,0-1.41,1.06-3.17,3.17,1.48.92,2.96,1.62,4.37,2.19.63-.92,1.34-1.55,2.04-1.97ZM1382.72,81.14v.63c.42.49,2.19,1.41,5.36,2.61,3.17,1.27,5.29,1.9,6.49,1.9,2.89,0,5.36-2.04,7.4-6.2,1.69-3.45,2.54-6.49,2.54-9.16,0-1.97-.49-3.95-1.55-5.85-1.2-2.12-2.75-3.74-4.65-4.86l-1.97,5.71c.49.28,1.41,1.13,2.89,2.47,1.76,1.62,2.61,2.82,2.61,3.52,0,1.76-1.69,4.09-5.08,6.84-3.17,2.61-5.5,3.88-6.98,3.88-.7,0-1.9-.28-3.66-.85-1.76-.56-2.68-.85-2.82-.85-.21,0-.42.07-.56.21ZM1433.9,75.85c.49-.42.99-1.27,1.48-2.47.42-1.06.99-1.69,1.76-1.97l10.71,3.88c1.9-2.96,2.89-4.58,3.1-4.93.35-.63.49-1.13.49-1.48,0-.63-.07-1.2-.21-1.69-1.13-3.81-2.04-6.7-2.68-8.6-.07-.14-.21-.28-.42-.49-1.06-.07-3.24.63-6.42,2.11-1.34.63-2.68,1.76-3.88,3.38-1.06,1.48-1.83,2.89-2.33,4.3l-.92,2.33h-17.2c-.49,0-1.69-.63-2.04-.71-.35-.07-.56-.28-.63-.49-.49-3.52-1.2-9.87-2.04-19.03l-.49-5c-1.34,1.34-2.4,2.54-3.24,3.6-.49.63-.78.99-.78,1.2l2.47,26.08h23.26ZM1442.14,64.08c.63-.21,1.13-.35,1.55-.35.78,0,1.41.56,1.83,1.62.07.21.35,1.13.7,2.61l-6.34-2.54c0-.21.78-.78,2.26-1.34ZM1384.13,65.35l-1.41-18.19c-.49.63-1.27,1.83-2.33,3.45-1.2,1.9-1.76,3.1-1.76,3.45l2.61,21.78c1.9-2.89,2.89-6.34,2.89-10.5ZM1244.12,81.98v.49c.63.71,2.33,1.69,5.08,2.89,2.82,1.27,4.87,1.9,6.13,1.9,2.33,0,4.65-1.76,6.98-5.29,1.9-2.75,2.96-5.15,3.31-7.12.56.63,1.06.99,1.48.99h19.81l1.9-3.24,1.83,3.24h20.94c.28,0,.78-.28.99-.28l1.34-7.05-1.2-9.73c0-.28.07-.49.14-.63l2.75-3.52c.63-.78,1.06-1.34,1.27-1.83-1.34-.78-2.61-1.55-3.88-2.4-1.76-1.13-2.75-1.83-2.96-2.12-.35-.49-.49-1.27-.49-2.26-1.34,1.83-2.61,4.09-3.95,6.77,1.34,1.06,2.04,1.62,2.04,1.62.92,4.16,1.55,7.26,1.9,9.38.42,2.33.63,3.88.63,4.72,0,.42-.07.99-.21,1.69h-16.29v-.49l1.2-1.97c.49-.92.78-1.55.78-2.04,0-1.34-.78-2.54-2.26-3.74-1.48-1.2-3.03-1.76-4.65-1.76-.85,0-1.9.21-3.1.56l-2.61.85-2.89,5.5c.63-.07,1.2-.14,1.69-.14,2.12,0,3.74,1.06,4.93,3.24h-16.43c-2.68-1.06-5.5-3.45-8.39-7.19l-3.03,5c2.33,2.61,3.53,4.44,3.53,5.43,0,1.41-1.62,3.45-4.79,6.06-3.17,2.61-5.71,3.95-7.61,3.95-.78,0-1.83-.28-3.17-.85-1.41-.56-2.19-.85-2.26-.85-.21,0-.42.07-.49.21ZM1190.54,57.87c0,.28.49,1.34.56,1.69-1.34.92-2.82,1.83-4.37,2.68-2.33,1.34-3.6,2.54-3.95,3.52-1.41,4.3-2.12,6.34-2.12,6.06v.78l8.53,1.69c.78-.07,1.48-.78,2.12-2.12.63-1.34,1.27-2.19,1.83-2.4.49,1.9.78,3.38.99,4.3.14.49.49.92,1.13,1.41.21.21.49.35.71.35h20.8l1.97-3.45c0,.49.42,1.2,1.2,2.11.78.92,1.55,1.34,2.19,1.34h22.91c.63-4.51.99-7.33.99-8.39,0-2.75-1.27-5.64-3.74-8.67l-2.89,4.72c1.76,2.54,2.89,4.79,3.53,6.7,0-.07-4.44-.07-13.39,0h-4.23c-2.33-.42-3.45-1.41-3.45-2.96,0-.42.07-1.2.28-2.33.21-1.13.28-2.04.28-2.68,0-.56-.07-1.06-.14-1.48-2.04,2.04-3.17,3.31-3.52,3.88-.21,1.06-.21,1.9-.14,2.47-.21,1.83-.42,2.89-.56,3.1h-19.53c-1.27,0-1.97-.28-2.12-.92-1.34-7.26-2.33-12.76-2.82-16.43-2.04,3.45-3.03,5.15-3.03,5ZM1191.95,61.75c.63,2.75.99,4.51.99,5.29v1.06h-3.17c-.49,0-1.97-.35-4.3-1.06l2.89-1.34c1.27-.78,2.12-1.76,2.54-2.96.14-.49.49-.78,1.06-.99ZM1495.44,47.16c-.49.63-1.27,1.83-2.33,3.45-1.2,1.9-1.76,3.1-1.76,3.45l2.61,21.78c1.9-2.89,2.89-6.34,2.89-10.5l-1.41-18.19ZM1481.97,48.43c-1.13-.85-1.76-1.41-1.9-1.62-.35-.92-.49-1.55-.49-2.04l-4.23,6.56c.92,1.13,1.41,2.4,1.41,3.81,0,2.68-.49,4.86-1.48,6.49-1.13-2.04-2.89-4.37-5.36-6.98-2.47-2.61-4.65-4.51-6.7-5.71.07.78,0,1.27-.14,1.55h-4.23c-.49,1.9-.7,3.1-.7,3.45,0,1.48.35,2.47.99,2.82l6.7,3.88.85-1.69c.92.56,2.12,1.55,3.53,3.03,1.41,1.48,2.26,2.61,2.61,3.38-3.38,3.03-5.64,4.58-6.77,4.58-1.48,0-2.26-1.48-2.75-2.11-.49,1.27-.78,2.75-.78,4.51,0,1.97.35,3.17,1.06,3.52h15.02c.28-1.62.42-3.17.42-4.65,0-2.04-.49-3.88-1.48-5.64-.35-.56-.49-.92-.49-.99s.35-.71.99-1.76c.63-1.06,1.06-1.9,1.27-2.4.49-1.48.92-3.24,1.27-5.22.42.35.85.49,1.2.49.21,0,.35,0,.42-.07,2.04-2.96,3.1-4.58,3.1-4.93s-1.13-1.06-3.31-2.26ZM1470.7,70.28c.92-.63,1.97-1.69,3.31-3.17.63,1.06,1.13,2.11,1.62,3.17-1.55.21-3.17.21-4.94,0ZM1461.11,84.45c-.49-.07-.71-.35-.71-.71,0-.07.07-.21.14-.28.78-.78,1.48-1.13,2.26-1.13,1.13,0,1.69.99,1.69.99.63-.78.99-1.34.99-1.62,0,.07-.07-.14-.21-.49-.14-.21-.35-.42-.56-.56-.78-.14-1.06-.21-.85-.21-.99,0-1.9.42-2.82,1.27-1.48,1.34-2.11,2.75-2.04,4.23,1.27.49,2.26.85,3.03.92-1.48,1.2-2.19,1.97-2.19,2.33v.49c2.75-1.97,5.08-2.89,6.84-2.82.49-.92.85-1.55,1.06-2.04-.78.07-1.69.14-2.75.14-1.41,0-2.68-.14-3.88-.49ZM1165.66,65.35l-1.41-18.19c-.49.63-1.27,1.83-2.33,3.45-1.2,1.9-1.76,3.1-1.76,3.45l2.61,21.78c1.9-2.89,2.89-6.34,2.89-10.5ZM1125.47,55.55c-.14,0,.7-.78,2.47-2.26,2.47,1.48,3.88,2.26,4.37,2.26-.21,0,0-.14.56-.35,1.34-1.48,2.26-2.54,2.75-3.31l-4.58-2.47-1.69,1.41c-.63.63-1.06.92-1.2.92-.28,0-.78-.21-2.47-1.34-.85-.56-1.34-.85-1.41-.85-.14,0-.63.49-1.55,1.41-.92.92-1.48,1.62-1.76,2.11,1.34,1.06,2.54,1.76,3.52,2.11.56.21.92.35.99.35ZM1185.25,50.68c2.33,1.48,3.74,2.19,4.09,2.19.14,0,.56-.42,1.34-1.27,1.13-1.2,1.76-1.83,1.83-1.97l-4.3-2.47c-1.76,1.48-2.61,2.26-2.54,2.26-.49,0-1.69-.78-3.67-2.26l-2.89,3.38c2.19,1.48,3.45,2.19,3.88,2.19.21,0,.99-.71,2.26-2.04ZM1046.8,75.85h12.83c.35-.35.78-1.13,1.27-2.26.42-.92.85-1.48,1.34-1.55l1.55,3.81h24.04c.42,0,1.06-.21,1.9-.56,2.68-1.48,4.72-2.54,6.06-3.31.63-.35,1.13-.49,1.41-.49h7.54l.56,4.37h23.9l1.97-3.38c.35.99.7,1.62.99,1.9.85.99,1.69,1.48,2.54,1.48h11.84c.78,0,1.69.42,2.75,1.27l2.26,1.97c.35-.49.78-1.34,1.27-2.68.49-1.27.78-2.19.78-2.82,0-.78-.92-1.62-2.82-2.68-2.04-1.2-3.24-2.04-3.52-2.54-.49-.92-.78-2.4-.85-4.37-.07-3.03-.14-4.72-.21-5.08.63-.49,1.34-1.34,1.97-2.54.78-1.48,1.27-2.33,1.55-2.68-2.4-1.13-4.3-2.47-5.78-4.02-.35-.92-.49-1.69-.56-2.26h-.49c-.35.21-1.06,1.27-2.11,3.1-.99,1.76-1.48,2.82-1.48,3.03,0,.14.28.42.85.92.63.42.92.71.92.78,1.06,4.37,1.76,7.68,2.11,9.94.35,1.62.49,2.82.49,3.52,0,.49-.14.99-.35,1.48h-6.49c-.78,0-2.33-1.06-2.54-2.19-.07-.07-.07-.35-.07-.7l.56-6.56-1.97,1.9c-.85.78-1.41,1.55-1.62,2.26-.21.42-.28,1.27-.28,2.54.07,1.27-.07,2.19-.42,2.75h-21.64c.63-2.33,1.13-3.88,1.41-4.51-5.85-.35-11.56-1.97-17.13-5.01-.63-.21-1.13-.42-1.48-.49-.49-.07-1.2-.14-2.11-.14h-1.41c-1.34.21-2.89,1.34-4.51,3.52-.63.78-1.2,1.97-1.76,3.52l1.9-1.06c.85-.42,1.76-.63,2.75-.63.49,0,1.55.28,3.03.78,3.17,1.06,4.93,1.69,5.29,1.83-1.27.78-2.82,1.41-4.58,1.9-.78.21-1.2.28-1.41.28h-20.73c-1.27,0-2.04-.49-2.33-1.48l-3.46-13.82-2.89,5.64c.35,1.34.78,2.61,1.13,3.88.78,2.54,1.13,4.16,1.13,4.94,0,.21-.07.42-.28.7h-11.91c-.85,0-1.34-.7-.99-4.58-.14-.21-.28-.28-.35-.35-.78.99-1.27,2.26-1.55,3.74-.49,2.4-.78,4.3-.78,5.71.21.85.56,1.27.99,1.27ZM1028.12,52.94c1.2.63,1.97.99,2.4.99.35,0,1.06-.7,2.26-2.11l4.3,2.26c.85-.35,1.9-1.48,3.24-3.45-2.61-1.55-4.02-2.33-4.37-2.33-.14,0-.63.35-1.41,1.06s-1.2,1.06-1.27,1.06c-.21,0-1.55-.7-3.88-2.12-1.06.92-2.11,2.04-3.17,3.31.14.21.78.63,1.9,1.34ZM1031.64,75.85c1.76,0,4.02-.78,6.7-2.33.49-.21.85-.71,1.13-1.41l.49-1.41c.78-2.89,1.2-4.44,1.2-4.72,0-1.62-.63-3.1-1.9-4.3l-5.08-4.23c-1.9,2.19-3.6,4.65-5.22,7.26-2.19,3.52-3.31,6.2-3.31,8.11,0,2.04,1.97,3.03,5.99,3.03ZM1031.15,65.63c.56-.78,1.13-1.55,1.76-2.33,2.61,1.9,4.37,3.81,5.29,5.85v.49c-2.26.35-4.09.56-5.43.56-1.9,0-2.89-.71-2.89-2.04,0-.49.42-1.34,1.27-2.54Z"/>
</svg>