<?xml version="1.0" encoding="UTF-8"?>
<svg id="Layer_1" data-name="Layer 1" xmlns="http://www.w3.org/2000/svg" viewBox="0 0 1481.58 226.77">
  <defs>
    <style>
      .cls-1 {
        fill: #ad833b;
      }
    </style>
  </defs>
  <path class="cls-1" d="M1227.74,65.35l-1.41-18.19c-.49.63-1.27,1.83-2.33,3.45-1.2,1.9-1.76,3.1-1.76,3.45l2.61,21.78c1.9-2.89,2.89-6.34,2.89-10.5ZM1254.09,112.12c1.06-.92,1.62-1.55,1.62-1.9,0-.21-.63-.71-1.83-1.62-1.2-.92-1.97-1.41-2.19-1.41-.28,0-.85.56-1.69,1.62-.85,1.06-1.34,1.76-1.41,2.19,1.97,1.62,3.17,2.4,3.67,2.4.21,0,.78-.42,1.83-1.27ZM1277.07,145.26c3.17,0,5.92-2.19,8.11-6.63,1.9-3.81,2.82-7.54,2.82-11.28,0-1.06-.14-2.18-.49-3.45l-.56-1.76c-.35-.92-.85-1.83-1.48-2.89-1.06-1.48-2.04-2.19-2.96-2.19-1.48,0-3.1,1.34-4.87,4.02-1.48,2.26-2.33,3.88-2.47,4.93v1.69c0,1.69.21,2.89.63,3.67.63.99,1.76,1.48,3.38,1.48,2.89,0,4.44-1.06,5.78-4.79h.14c.21.63.35,1.27.35,1.9,0,2.47-1.97,5.15-5.92,8.11-3.6,2.75-6.35,4.09-8.25,4.09-.14,0-1.06-.14-2.75-.49-1.69-.35-2.61-.49-2.68-.49-.63,0-.99.28-.99.85.63.49,2.4,1.2,5.43,1.97,3.03.85,5.29,1.27,6.77,1.27ZM1280.74,127.07c-.49,0-1.06-.14-1.83-.35-1.06-.35-1.62-.7-1.62-1.2,0-.63.49-1.2,1.41-1.69.78-.35,1.41-.56,1.83-.56.63,0,1.27.21,1.83.7.63.63.99,1.41.99,2.4-.99.49-1.83.71-2.61.71ZM930.17,112.9c.28,0,.85-.56,1.62-1.69.85-1.13,1.27-1.76,1.27-1.97,0-.35-.49-.85-1.55-1.62s-1.69-1.13-1.97-1.13c-.35,0-.92.49-1.69,1.48-.78.92-1.13,1.55-1.13,1.9,0,.21.49.78,1.55,1.69,1.06.92,1.69,1.34,1.9,1.34ZM1011.23,111.42c.92,4.16,1.55,7.26,1.9,9.38.42,2.33.63,3.88.63,4.72,0,.42-.07.99-.21,1.69h-52.87c-.35-3.45-1.27-6.63-2.89-9.45-.49-.92-1.27-1.55-2.33-2.04-.07-.07-.28-.07-.63-.07-.78,0-1.41.21-1.97.71-1.2.92-2.26,2.19-3.17,3.95-.49.92-1.06,2.26-1.69,4.02-.78,1.9-1.13,3.24-1.13,4.16,0,.28,0,.56.07.78.21,1.34,2.26,2.75,3.45,2.96,1.76.35,3.81.63,6.13.78-3.24,3.81-6.63,6.13-10.15,6.98-.92.21-1.76.35-2.4.35-.07,0-.99-.21-2.75-.71-1.69-.42-2.61-.63-2.68-.63-.49,0-.78.07-.85.14v.49c.92.99,2.47,1.9,4.65,2.68,2.47.99,4.37,1.62,5.64,1.97.49.07.92.14,1.41.14.78,0,1.41-.07,1.9-.28,1.27-.56,2.33-1.2,3.1-1.97,1.27-1.06,2.4-2.54,3.45-4.44.49-.92,1.27-2.54,2.19-4.86h55.12c.28,0,.78-.28.99-.28l1.34-7.05-1.2-9.73c0-.28.07-.49.14-.63l2.75-3.52c.63-.78,1.06-1.34,1.27-1.83-1.34-.78-2.61-1.55-3.88-2.4-1.76-1.13-2.75-1.83-2.96-2.12-.35-.49-.49-1.27-.49-2.26-1.34,1.83-2.61,4.09-3.95,6.77,1.34,1.06,2.04,1.62,2.04,1.62ZM955.62,126.29c-.21.14-.71.21-1.48.21-.63,0-.99,0-1.06-.07-1.2-.21-1.97-.71-2.4-1.34-.35-.49-.49-.85-.49-1.2,0-.28.28-.7.78-1.27.7-.71,1.34-1.06,1.83-1.06.85,0,1.76.99,2.54,2.33.21.35.42,1.06.78,1.97l-.49.42ZM937.99,127.7c0-4.37-1.97-7.97-5.99-10.86l-2.04,5.71c.92.63,1.97,1.55,3.17,2.75,1.48,1.48,2.18,2.61,2.18,3.31,0,1.48-1.55,3.59-4.58,6.34-3.03,2.75-5.57,4.16-7.61,4.16-.99,0-2.26-.28-3.74-.78-1.13-.38-1.85-.63-2.12-.73.1-.18.2-.35.29-.54,1.69-3.45,2.54-6.49,2.54-9.16,0-1.97-.49-3.95-1.55-5.85-1.2-2.11-2.75-3.74-4.65-4.86l-1.97,5.71c.49.28,1.41,1.13,2.89,2.47,1.76,1.62,2.61,2.82,2.61,3.53,0,1.76-1.69,4.09-5.08,6.84-3.17,2.61-5.5,3.88-6.98,3.88-.7,0-1.9-.28-3.66-.85-1.76-.56-2.68-.85-2.82-.85-.21,0-.42.07-.56.21v.63c.42.49,2.19,1.41,5.36,2.61,3.17,1.27,5.29,1.9,6.49,1.9,2.5,0,4.69-1.54,6.56-4.66.37.32.82.64,1.34.92.21.14.85.42,1.76.85,3.81,1.69,6.63,2.54,8.39,2.54,2.61,0,4.94-1.83,6.98-5.5,1.9-3.31,2.82-6.56,2.82-9.73ZM1028.86,50.68c2.33,1.48,3.74,2.19,4.09,2.19.14,0,.56-.42,1.34-1.27,1.13-1.2,1.76-1.83,1.83-1.97l-4.3-2.47c-1.76,1.48-2.61,2.26-2.54,2.26-.49,0-1.69-.78-3.67-2.26l-2.89,3.38c2.19,1.48,3.45,2.19,3.88,2.19.21,0,.99-.71,2.26-2.04ZM1187.55,74.09c1.2.92,2.19,1.41,3.03,1.48.21,0,.49.21.78.21h21.71c2.04-4.02,3.03-7.4,3.03-10.15,0-.99-.35-2.12-.99-3.45-.63-1.34-1.34-2.4-2.04-3.03l-2.89,5.08c1.62,2.61,2.4,4.23,2.4,4.93,0,.21-.14.49-.42.85h-18.68c-.63,0-1.48-.28-2.61-.92-1.06-.63-1.76-1.2-1.97-1.69-.21-.49-.35-1.27-.35-2.19,0-.14.07-.92.21-2.33.21-1.48.28-2.47.28-2.96l-.28-.21c-.71.35-1.41,1.83-2.19,4.37-.63,2.33-.99,4.23-.99,5.71,0,.78,0,1.27.07,1.41.14.92.78,1.9,1.9,2.89ZM1087.73,81.98v.49c.63.71,2.33,1.69,5.08,2.89,2.82,1.27,4.87,1.9,6.13,1.9,2.33,0,4.65-1.76,6.98-5.29,1.9-2.75,2.96-5.15,3.31-7.12.56.63,1.06.99,1.48.99h19.81l1.9-3.24,1.83,3.24h20.94c.28,0,.78-.28.99-.28l1.34-7.05-1.2-9.73c0-.28.07-.49.14-.63l2.75-3.52c.63-.78,1.06-1.34,1.27-1.83-1.34-.78-2.61-1.55-3.88-2.4-1.76-1.13-2.75-1.83-2.96-2.12-.35-.49-.49-1.27-.49-2.26-1.34,1.83-2.61,4.09-3.95,6.77,1.34,1.06,2.04,1.62,2.04,1.62.92,4.16,1.55,7.26,1.9,9.38.42,2.33.63,3.88.63,4.72,0,.42-.07.99-.21,1.69h-16.29v-.49l1.2-1.97c.49-.92.78-1.55.78-2.04,0-1.34-.78-2.54-2.26-3.74-1.48-1.2-3.03-1.76-4.65-1.76-.85,0-1.9.21-3.1.56l-2.61.85-2.89,5.5c.63-.07,1.2-.14,1.69-.14,2.12,0,3.74,1.06,4.93,3.24h-16.43c-2.68-1.06-5.5-3.45-8.39-7.19l-3.03,5c2.33,2.61,3.53,4.44,3.53,5.43,0,1.41-1.62,3.45-4.79,6.06-3.17,2.61-5.71,3.95-7.61,3.95-.78,0-1.83-.28-3.17-.85-1.41-.56-2.19-.85-2.26-.85-.21,0-.42.07-.49.21ZM1200.73,54.07l4.02,2.11c1.06-.92,2.12-2.04,3.03-3.38l-4.16-2.11-1.55,1.2c-.63.49-.99.78-1.06.78-.14,0-.7-.35-1.76-.99-1.06-.63-1.62-.99-1.76-.99-.35,0-1.41,1.06-3.17,3.17,1.48.92,2.96,1.62,4.37,2.19.63-.92,1.34-1.55,2.04-1.97ZM1173.38,65.35l-1.41-18.19c-.49.63-1.27,1.83-2.33,3.45-1.2,1.9-1.76,3.1-1.76,3.45l2.61,21.78c1.9-2.89,2.89-6.34,2.89-10.5ZM1226.33,81.14v.63c.42.49,2.19,1.41,5.36,2.61,3.17,1.27,5.29,1.9,6.49,1.9,2.89,0,5.36-2.04,7.4-6.2,1.69-3.45,2.54-6.49,2.54-9.16,0-1.97-.49-3.95-1.55-5.85-1.2-2.12-2.75-3.74-4.65-4.86l-1.97,5.71c.49.28,1.41,1.13,2.89,2.47,1.76,1.62,2.61,2.82,2.61,3.52,0,1.76-1.69,4.09-5.08,6.84-3.17,2.61-5.5,3.88-6.98,3.88-.7,0-1.9-.28-3.66-.85-1.76-.56-2.68-.85-2.82-.85-.21,0-.42.07-.56.21ZM1441.33,122.35l-1.41-18.19c-.49.63-1.27,1.83-2.33,3.45-1.2,1.9-1.76,3.1-1.76,3.45l2.61,21.78c1.9-2.89,2.89-6.34,2.89-10.5ZM1396.77,109.94c1.2.63,1.97.99,2.4.99.35,0,1.06-.7,2.26-2.12l4.3,2.26c.85-.35,1.9-1.48,3.24-3.45-2.61-1.55-4.02-2.33-4.37-2.33-.14,0-.63.35-1.41,1.06s-1.2,1.06-1.27,1.06c-.21,0-1.55-.7-3.88-2.12-1.06.92-2.11,2.04-3.17,3.31.14.21.78.63,1.9,1.34ZM1400.3,132.85c1.76,0,4.02-.78,6.7-2.33.49-.21.85-.71,1.13-1.41l.49-1.41c.78-2.89,1.2-4.44,1.2-4.72,0-1.62-.63-3.1-1.9-4.3l-5.08-4.23c-1.9,2.19-3.6,4.65-5.22,7.26-2.19,3.53-3.31,6.2-3.31,8.11,0,2.04,1.97,3.03,5.99,3.03ZM1399.81,122.63c.56-.78,1.13-1.55,1.76-2.33,2.61,1.9,4.37,3.81,5.29,5.85v.49c-2.26.35-4.09.56-5.43.56-1.9,0-2.89-.71-2.89-2.04,0-.49.42-1.34,1.27-2.54ZM1458.46,142.01c.63.49,2.4,1.2,5.43,1.97,3.03.85,5.29,1.27,6.77,1.27,3.17,0,5.92-2.19,8.11-6.63,1.9-3.81,2.82-7.54,2.82-11.28,0-1.06-.14-2.18-.49-3.45l-.56-1.76c-.35-.92-.85-1.83-1.48-2.89-1.06-1.48-2.04-2.19-2.96-2.19-1.48,0-3.1,1.34-4.87,4.02-1.48,2.26-2.33,3.88-2.47,4.93v1.69c0,1.69.21,2.89.63,3.67.63.99,1.76,1.48,3.38,1.48,2.89,0,4.44-1.06,5.78-4.79h.14c.21.63.35,1.27.35,1.9,0,2.47-1.97,5.15-5.92,8.11-3.6,2.75-6.35,4.09-8.25,4.09-.14,0-1.06-.14-2.75-.49-1.69-.35-2.61-.49-2.68-.49-.63,0-.99.28-.99.85ZM1474.32,127.07c-.49,0-1.06-.14-1.83-.35-1.06-.35-1.62-.7-1.62-1.2,0-.63.49-1.2,1.41-1.69.78-.35,1.41-.56,1.83-.56.63,0,1.27.21,1.83.7.63.63.99,1.41.99,2.4-.99.49-1.83.71-2.61.71ZM1373.58,109.3l-3.6-2.61c-1.76,1.2-2.89,2.18-3.31,2.96,2.33,1.62,3.53,2.47,3.6,2.47s1.13-.92,3.31-2.82ZM1450.42,111.56c1.06.92,1.69,1.34,1.9,1.34.28,0,.85-.56,1.62-1.69.85-1.13,1.27-1.76,1.27-1.97,0-.35-.49-.85-1.55-1.62-1.06-.78-1.69-1.13-1.97-1.13-.35,0-.92.49-1.69,1.48-.78.92-1.13,1.55-1.13,1.9,0,.21.49.78,1.55,1.69ZM1302.74,56.75l6.7,3.88.85-1.69c.92.56,2.12,1.55,3.53,3.03,1.41,1.48,2.26,2.61,2.61,3.38-3.38,3.03-5.64,4.58-6.77,4.58-1.48,0-2.26-1.48-2.75-2.11-.49,1.27-.78,2.75-.78,4.51,0,1.97.35,3.17,1.06,3.52h15.02c.28-1.62.42-3.17.42-4.65,0-2.04-.49-3.88-1.48-5.64-.35-.56-.49-.92-.49-.99s.35-.71.99-1.76c.63-1.06,1.06-1.9,1.27-2.4.49-1.48.92-3.24,1.27-5.22.42.35.85.49,1.2.49.21,0,.35,0,.42-.07,2.04-2.96,3.1-4.58,3.1-4.93s-1.13-1.06-3.31-2.26c-1.13-.85-1.76-1.41-1.9-1.62-.35-.92-.49-1.55-.49-2.04l-4.23,6.56c.92,1.13,1.41,2.4,1.41,3.81,0,2.68-.49,4.86-1.48,6.49-1.13-2.04-2.89-4.37-5.36-6.98-2.47-2.61-4.65-4.51-6.7-5.71.07.78,0,1.27-.14,1.55h-4.23c-.49,1.9-.71,3.1-.71,3.45,0,1.48.35,2.47.99,2.82ZM1319.24,70.28c-1.55.21-3.17.21-4.94,0,.92-.63,1.97-1.69,3.31-3.17.63,1.06,1.13,2.11,1.62,3.17ZM1294.7,113.11c1.34.56,2.4.92,3.1,1.13-1.69,1.06-2.61,2.04-2.82,2.82l.28.07c3.53-1.9,6.13-2.89,7.83-2.96.78-.92,1.27-1.76,1.48-2.4h-5.64c-1.55-.07-2.47-.49-2.82-1.34l.28-.42c.63-.42,1.06-.7,1.27-.78.42-.21.85-.35,1.2-.35.14,0,.28,0,.35.07.85.21,1.48.56,1.83,1.06.78-1.41,1.13-2.04,1.13-1.97,0-.99-.7-1.48-2.04-1.48s-2.61.71-3.88,2.04c-1.2,1.34-1.83,2.68-1.83,3.95,0,.21.07.42.28.56ZM1277.5,75.85c.49-.42.99-1.27,1.48-2.47.42-1.06.99-1.69,1.76-1.97l10.71,3.88c1.9-2.96,2.89-4.58,3.1-4.93.35-.63.49-1.13.49-1.48,0-.63-.07-1.2-.21-1.69-1.13-3.81-2.04-6.7-2.68-8.6-.07-.14-.21-.28-.42-.49-1.06-.07-3.24.63-6.42,2.11-1.34.63-2.68,1.76-3.88,3.38-1.06,1.48-1.83,2.89-2.33,4.3l-.92,2.33h-17.2c-.49,0-1.69-.63-2.04-.71-.35-.07-.56-.28-.63-.49-.49-3.52-1.2-9.87-2.04-19.03l-.49-5c-1.34,1.34-2.4,2.54-3.24,3.6-.49.63-.78.99-.78,1.2l2.47,26.08h23.26ZM1285.75,64.08c.63-.21,1.13-.35,1.55-.35.78,0,1.41.56,1.83,1.62.07.21.35,1.13.71,2.61l-6.34-2.54c0-.21.78-.78,2.26-1.34ZM1368.08,117.48c.14,0,.49-.35,1.13-1.13.78-.92,1.34-1.48,1.62-1.69,2.47,1.76,3.95,2.68,4.37,2.82l1.55-1.97c.63-.85.99-1.48,1.06-1.83l-4.23-2.4c-2.19,1.69-3.24,2.54-3.1,2.54-.14,0-.85-.42-2.19-1.2-1.27-.78-1.97-1.2-2.04-1.2s-1.06,1.13-2.96,3.31c.78.63,1.62,1.2,2.54,1.69,1.34.71,2.04,1.06,2.26,1.06ZM1303.45,89.17v.49c2.75-1.97,5.08-2.89,6.84-2.82.49-.92.85-1.55,1.06-2.04-.78.07-1.69.14-2.75.14-1.41,0-2.68-.14-3.88-.49-.49-.07-.71-.35-.71-.71,0-.07.07-.21.14-.28.78-.78,1.48-1.13,2.26-1.13,1.13,0,1.69.99,1.69.99.63-.78.99-1.34.99-1.62,0,.07-.07-.14-.21-.49-.14-.21-.35-.42-.56-.56-.78-.14-1.06-.21-.85-.21-.99,0-1.9.42-2.82,1.27-1.48,1.34-2.11,2.75-2.04,4.23,1.27.49,2.26.85,3.03.92-1.48,1.2-2.19,1.97-2.19,2.33ZM1340.46,65.35l-1.41-18.19c-.49.63-1.27,1.83-2.33,3.45-1.2,1.9-1.76,3.1-1.76,3.45l2.61,21.78c1.9-2.89,2.89-6.34,2.89-10.5ZM1246.05,121.64v-.63c-.07,0-.21-.07-.35-.14-1.06.35-2.19,2.12-3.31,5.36-.99,2.89-1.48,5.08-1.48,6.56,0,5.15,3.24,7.75,9.66,7.75,2.33,0,5.08-.63,8.11-1.83,3.66-1.48,5.78-3.24,6.27-5.29.21-.56.35-.99.49-1.2l.71-2.4c.49-1.55.7-2.82.7-3.81,0-1.62-.42-3.6-1.2-5.92-.78-2.33-1.76-4.16-2.89-5.5-1.9,3.31-2.89,5.08-2.89,5.29,0,.07.63,1.41,1.83,4.09,1.27,2.68,1.9,4.58,1.9,5.71,0,1.34-1.55,2.47-4.58,3.38-2.47.78-4.58,1.13-6.49,1.13-5.71,0-8.53-2.12-8.53-6.34,0-1.41.35-2.75.99-4.09.71-1.34,1.06-2.04,1.06-2.12ZM1226.24,127.35c.35-.63.49-1.13.49-1.48,0-.63-.07-1.2-.21-1.69-1.13-3.81-2.04-6.7-2.68-8.6-.07-.14-.21-.28-.42-.49-1.06-.07-3.24.63-6.41,2.11-1.34.63-2.68,1.76-3.88,3.38-1.06,1.48-1.83,2.89-2.33,4.3l-.92,2.33h-12.83c-2.04,0-3.1,0-3.17-.07.56-1.9,1.06-3.38,1.55-4.44-4.02-.49-7.19-1.06-9.52-1.76-.99-.28-2.96-1.06-5.92-2.4-2.19-.99-3.95-1.48-5.36-1.48-3.31,0-5.85,2.33-7.68,7.05,2.12-1.13,3.67-1.69,4.65-1.69,1.2,0,3.95.85,8.25,2.61-2.54,1.48-4.51,2.19-5.99,2.19h-15.86c-1.2,0-1.76-.56-1.83-1.62-.63-7.54-1.2-13.11-1.55-16.85-.21-1.9-.35-3.45-.56-4.72l-4.3,5.92,2.54,17.27h-60.76c-.92,0-1.48-.21-1.69-.71.49-1.83.7-2.96.7-3.31v-4.44l-1.2,1.13c-1.62,2.18-2.47,3.45-2.47,3.81,0,.07.14.56.35,1.34.21.78.35,1.27.35,1.34,0,.35,0,.63-.07.85h-5.15v-1.62l1.55-5.99c-2.61,2.19-4.02,3.74-4.37,4.58-.07,1.27-.07,2.26,0,3.03h-6.35c-.21,0-.42-.56-.42-.56-1.06-.78-1.9-1.9-2.68-3.38-.63-1.27-1.2-2.54-1.76-3.81-.63.92-1.55,2.19-2.61,3.95-.63,1.06-.99,1.62-.99,1.83,2.33,4.79,3.52,7.9,3.52,9.23,0,.92-1.55,1.9-4.72,2.89-2.75.85-4.94,1.27-6.41,1.27-2.04,0-3.74-.42-5.22-1.2-1.97-1.13-2.96-2.82-2.96-5,0-.92.85-3.52,2.54-7.9v-.99h-.56c-.99.63-2.12,2.61-3.31,5.92-1.2,3.31-1.83,6.13-1.83,8.32,0,4.58,3.31,6.84,9.94,6.84,2.54,0,5.14-.63,7.82-1.9,2.12-1.06,3.46-1.83,4.09-2.4,1.48-1.34,2.68-3.88,3.6-7.47h7.26l1.27-1.27c.42.56.71.99.78,1.27h7.61c.07-.49.28-1.06.63-1.69l1.27,1.69h60.34l2.4-3.24c.28.56.49,2.75,1.13,3.24h18.96c.49,0,1.83-.56,3.88-1.62l3.53-1.97c.78-.42,1.48-.63,1.97-.7.49-.07,1.62-.07,3.38-.07,2.12,0,3.46.07,4.09.28.21.99.42,2.33.63,4.09h18.82c.49-.42.99-1.27,1.48-2.47.42-1.06.99-1.69,1.76-1.97l10.72,3.88c1.9-2.96,2.89-4.58,3.1-4.93ZM1215.17,122.42c0-.21.78-.78,2.26-1.34.63-.21,1.13-.35,1.55-.35.78,0,1.41.56,1.83,1.62.07.21.35,1.13.71,2.61l-6.35-2.54ZM1358.49,130.88c.21.85,1.27,1.97,2.12,1.97h7.82c.35,0,.56-.07.71-.21l1.27-1.06c.35.56.56.99.63,1.27h7.89c.78-1.9,1.41-3.38,1.76-4.44.14-.49.21-.92.21-1.27v-8.39c-2.75,2.89-4.09,4.58-4.09,4.94,0-.14.21.85.63,2.96.07.21.07.35,0,.56-.07-.07-.85-.14-2.33-.14-1.2,0-1.97.07-2.26.14v-1.76l1.34-5.85c-2.47,2.54-3.81,3.95-3.95,4.16-.49,1.48-.71,2.61-.78,3.45h-4.79c.21,0,.42-.49.49-.49-.28,0-.92.49-1.2.49-.71,0-1.48-.42-2.26-1.2,0-.14.42-1.48,1.27-4.09.49-1.55.7-2.75.63-3.52-2.19,2.18-3.74,3.81-4.58,5l-.14,1.97c-.21,1.2-.56,1.83-1.06,1.83h-47.23c-.35-3.45-1.27-6.63-2.89-9.45-.49-.92-1.27-1.55-2.33-2.04-.07-.07-.28-.07-.63-.07-.78,0-1.41.21-1.97.71-1.2.92-2.26,2.19-3.17,3.95-.49.92-1.06,2.26-1.69,4.02-.78,1.9-1.13,3.24-1.13,4.16,0,.28,0,.56.07.78.21,1.34,2.26,2.75,3.46,2.96,1.76.35,3.81.63,6.13.78-3.24,3.81-6.63,6.13-10.15,6.98-.92.21-1.76.35-2.4.35-.07,0-.99-.21-2.75-.71-1.69-.42-2.61-.63-2.68-.63-.49,0-.78.07-.85.14v.49c.92.99,2.47,1.9,4.65,2.68,2.47.99,4.37,1.62,5.64,1.97.49.07.92.14,1.41.14.78,0,1.41-.07,1.9-.28,1.27-.56,2.33-1.2,3.1-1.97,1.27-1.06,2.4-2.54,3.46-4.44.49-.92,1.27-2.54,2.19-4.86h45.89c.56,0,1.41-.63,2.61-1.97ZM1305.55,126.29c-.21.14-.71.21-1.48.21-.63,0-.99,0-1.06-.07-1.2-.21-1.97-.71-2.4-1.34-.35-.49-.49-.85-.49-1.2,0-.28.28-.7.78-1.27.7-.71,1.34-1.06,1.83-1.06.85,0,1.76.99,2.54,2.33.21.35.42,1.06.78,1.97l-.49.42ZM1009.26,65.35l-1.41-18.19c-.49.63-1.27,1.83-2.33,3.45-1.2,1.9-1.76,3.1-1.76,3.45l2.61,21.78c1.9-2.89,2.89-6.34,2.89-10.5ZM1424.13,117.2l-1.97,5.71c.49.28,1.41,1.13,2.89,2.47,1.76,1.62,2.61,2.82,2.61,3.53,0,1.76-1.69,4.09-5.08,6.84-3.17,2.61-5.5,3.88-6.98,3.88-.7,0-1.9-.28-3.66-.85-1.76-.56-2.68-.85-2.82-.85-.21,0-.42.07-.56.21v.63c.42.49,2.19,1.41,5.36,2.61,3.17,1.27,5.29,1.9,6.49,1.9,2.89,0,5.36-2.04,7.4-6.2,1.69-3.45,2.54-6.49,2.54-9.16,0-1.97-.49-3.95-1.55-5.85-1.2-2.11-2.75-3.74-4.65-4.86ZM1178.02,144.55c.21,0,.85-.56,1.9-1.69,1.06-1.06,1.55-1.69,1.62-1.9l-2.61-1.48c-1.06-.63-1.69-.99-1.83-.99-.21,0-.85.49-1.9,1.55-1.06,1.06-1.55,1.69-1.55,1.83,0,.21.63.71,1.97,1.48,1.34.78,2.19,1.2,2.4,1.2ZM1457.33,137.43c1.9-3.31,2.82-6.56,2.82-9.73,0-4.37-1.97-7.97-5.99-10.86l-2.04,5.71c.92.63,1.97,1.55,3.17,2.75,1.48,1.48,2.18,2.61,2.18,3.31,0,1.48-1.55,3.59-4.58,6.34-3.03,2.75-5.57,4.16-7.61,4.16-.99,0-2.26-.28-3.74-.78-1.48-.49-2.26-.78-2.26-.78h-.71c0,.21-.21.49-.21.56.42.49,1.06.99,1.83,1.41.21.14.85.42,1.76.85,3.81,1.69,6.63,2.54,8.39,2.54,2.61,0,4.94-1.83,6.98-5.5ZM872.71,126.79l3.03.63c-.99.49-1.97,1.2-2.96,2.26-1.13,1.2-1.69,2.26-1.62,3.17,4.09-2.4,6.34-3.67,6.7-3.81,1.34-.56,2.82-.92,4.58-1.13l2.26-.28c1.34-1.55,2.26-2.96,2.82-4.23h-4.65c-1.62-.21-3.17-.35-4.79-.49-2.4-.35-3.6-.92-3.6-1.69,0-.56.42-1.06,1.34-1.55.78-.35,1.48-.56,2.19-.56.42,0,1.13.28,2.04.78l1.83,1.06c1.48-2.04,2.19-3.24,2.19-3.59,0-1.69-1.83-2.82-3.53-2.82-2.61,0-4.93,1.13-6.98,3.31-2.04,2.19-3.1,4.51-3.1,6.98,0,.92.78,1.55,2.26,1.97ZM904.51,73.59c.42-.92.85-1.48,1.34-1.55l1.55,3.81h24.04c.42,0,1.06-.21,1.9-.56,2.68-1.48,4.72-2.54,6.06-3.31.63-.35,1.13-.49,1.41-.49h7.54l.56,4.37h23.9l1.97-3.38c.35.99.71,1.62.99,1.9.85.99,1.69,1.48,2.54,1.48h11.84c.78,0,1.69.42,2.75,1.27l2.26,1.97c.35-.49.78-1.34,1.27-2.68.49-1.27.78-2.19.78-2.82,0-.78-.92-1.62-2.82-2.68-2.04-1.2-3.24-2.04-3.52-2.54-.49-.92-.78-2.4-.85-4.37-.07-3.03-.14-4.72-.21-5.08.63-.49,1.34-1.34,1.97-2.54.78-1.48,1.27-2.33,1.55-2.68-2.4-1.13-4.3-2.47-5.78-4.02-.35-.92-.49-1.69-.56-2.26h-.49c-.35.21-1.06,1.27-2.11,3.1-.99,1.76-1.48,2.82-1.48,3.03,0,.14.28.42.85.92.63.42.92.71.92.78,1.06,4.37,1.76,7.68,2.11,9.94.35,1.62.49,2.82.49,3.52,0,.49-.14.99-.35,1.48h-6.49c-.78,0-2.33-1.06-2.54-2.19-.07-.07-.07-.35-.07-.7l.56-6.56-1.97,1.9c-.85.78-1.41,1.55-1.62,2.26-.21.42-.28,1.27-.28,2.54.07,1.27-.07,2.19-.42,2.75h-21.64c.63-2.33,1.13-3.88,1.41-4.51-5.85-.35-11.56-1.97-17.13-5.01-.63-.21-1.13-.42-1.48-.49-.49-.07-1.2-.14-2.11-.14h-1.41c-1.34.21-2.89,1.34-4.51,3.52-.63.78-1.2,1.97-1.76,3.52l1.9-1.06c.85-.42,1.76-.63,2.75-.63.49,0,1.55.28,3.03.78,3.17,1.06,4.93,1.69,5.29,1.83-1.27.78-2.82,1.41-4.58,1.9-.78.21-1.2.28-1.41.28h-20.73c-1.27,0-2.04-.49-2.33-1.48l-3.46-13.82-2.89,5.64c.35,1.34.78,2.61,1.13,3.88.78,2.54,1.13,4.16,1.13,4.93,0,.21-.07.42-.28.7h-11.91c-.85,0-1.34-.7-.99-4.58-.14-.21-.28-.28-.35-.35-.78.99-1.27,2.26-1.55,3.74-.49,2.4-.78,4.3-.78,5.71.21.85.56,1.27.99,1.27h12.83c.35-.35.78-1.13,1.27-2.26ZM881.95,73.52c.49-.21.85-.71,1.13-1.41l.49-1.41c.78-2.89,1.2-4.44,1.2-4.72,0-1.62-.63-3.1-1.9-4.3l-5.08-4.23c-1.9,2.19-3.6,4.65-5.22,7.26-2.19,3.52-3.31,6.2-3.31,8.11,0,2.04,1.97,3.03,5.99,3.03,1.76,0,4.02-.78,6.7-2.33ZM873.49,68.17c0-.49.42-1.34,1.27-2.54.56-.78,1.13-1.55,1.76-2.33,2.61,1.9,4.37,3.81,5.29,5.85v.49c-2.26.35-4.09.56-5.43.56-1.9,0-2.89-.71-2.89-2.04ZM969.08,55.55c-.14,0,.7-.78,2.47-2.26,2.47,1.48,3.88,2.26,4.37,2.26-.21,0,0-.14.56-.35,1.34-1.48,2.26-2.54,2.75-3.31l-4.58-2.47-1.69,1.41c-.63.63-1.06.92-1.2.92-.28,0-.78-.21-2.47-1.34-.85-.56-1.34-.85-1.41-.85-.14,0-.63.49-1.55,1.41-.92.92-1.48,1.62-1.76,2.11,1.34,1.06,2.54,1.76,3.52,2.11.56.21.92.35.99.35ZM871.72,52.94c1.2.63,1.97.99,2.4.99.35,0,1.06-.7,2.26-2.11l4.3,2.26c.85-.35,1.9-1.48,3.24-3.45-2.61-1.55-4.02-2.33-4.37-2.33-.14,0-.63.35-1.41,1.06-.78.71-1.2,1.06-1.27,1.06-.21,0-1.55-.7-3.88-2.12-1.06.92-2.11,2.04-3.17,3.31.14.21.78.63,1.9,1.34ZM899.71,122.35l-1.41-18.19c-.49.63-1.27,1.83-2.33,3.45-1.2,1.9-1.76,3.1-1.76,3.45l2.61,21.78c1.9-2.89,2.89-6.34,2.89-10.5ZM1062.35,72.4c0,.49.42,1.2,1.2,2.11s1.55,1.34,2.19,1.34h22.91c.63-4.51.99-7.33.99-8.39,0-2.75-1.27-5.64-3.74-8.67l-2.89,4.72c1.76,2.54,2.89,4.79,3.53,6.7,0-.07-4.44-.07-13.39,0h-4.23c-2.33-.42-3.45-1.41-3.45-2.96,0-.42.07-1.2.28-2.33.21-1.13.28-2.04.28-2.68,0-.56-.07-1.06-.14-1.48-2.04,2.04-3.17,3.31-3.52,3.88-.21,1.06-.21,1.9-.14,2.47-.21,1.83-.42,2.89-.56,3.1h-19.53c-1.27,0-1.97-.28-2.12-.92-1.34-7.26-2.33-12.76-2.82-16.43-2.04,3.45-3.03,5.15-3.03,5,0,.28.49,1.34.56,1.69-1.34.92-2.82,1.83-4.37,2.68-2.33,1.34-3.6,2.54-3.95,3.52-1.41,4.3-2.12,6.34-2.12,6.06v.78l8.53,1.69c.78-.07,1.48-.78,2.12-2.12.63-1.34,1.27-2.19,1.83-2.4.49,1.9.78,3.38.99,4.3.14.49.49.92,1.13,1.41.21.21.49.35.7.35h20.8l1.97-3.45ZM1036.55,68.1h-3.17c-.49,0-1.97-.35-4.3-1.06l2.89-1.34c1.27-.78,2.12-1.76,2.54-2.96.14-.49.49-.78,1.06-.99.63,2.75.99,4.51.99,5.29v1.06ZM1060.09,84.94l3.95,2.33c1.41-1.48,2.47-2.82,3.17-3.88l-4.3-2.47c-.49.35-1.34,1.2-2.61,2.47-1.62-.78-2.89-1.62-3.74-2.47-1.41,1.48-2.4,2.75-3.03,3.67.21.21.92.71,2.12,1.41,1.2.78,1.83,1.13,2.04,1.13-.21,0,.56-.71,2.4-2.19ZM1081.59,81.77c-.35,0-.99.49-1.9,1.48-.92,1.06-1.41,1.69-1.48,2.04,2.33,1.83,3.67,2.75,4.09,2.75.21,0,.78-.35,1.76-1.06.99-.7,1.48-1.27,1.48-1.69,0-.21-.63-.85-1.9-1.9-1.2-1.06-1.9-1.62-2.04-1.62ZM1031.96,104.16c-.49.63-1.27,1.83-2.33,3.45-1.2,1.9-1.76,3.1-1.76,3.45l2.61,21.78c1.9-2.89,2.89-6.34,2.89-10.5l-1.41-18.19Z"/>
  <path class="cls-1" d="M295.19,75.5c.57-1.41,1.85-4.66,2.86-7.22h9.95c1.01,2.51,1.63,4.18,2.42,6.43.44,1.19.79,1.41,1.5,1.41.97,0,3.96-.22,4.93-.53v-.18c-.88-1.85-1.94-4.62-3.74-9.11-1.54-3.83-4.88-12.5-6.91-17.34-.22-.53-.62-.79-1.01-.79-.53,0-2.99.18-4.62.53l.35.92c-1.67,4-8.54,20.37-10.83,25.74v.18c.97.31,2.9.57,3.87.57.7,0,1.06-.22,1.23-.62ZM303.11,54.46c.48,1.41,1.8,4.71,3.83,10.17h-7.66c1.5-3.78,2.73-7.26,3.83-10.17ZM203.32,52h7.92v23.32c0,.66.31.79.92.79,1.76,0,3.48-.13,4.71-.35-.04-.88-.13-2.33-.13-5.37v-18.39h7c.92-.22,2.11-1.32,2.29-3.65h-15.67c-4.44,0-5.63-.04-6.34-.22-.44.48-.97,1.23-1.45,2.55-.31,1.01.04,1.32.75,1.32ZM192.41,75.23c0,.75.26.88.92.88,1.01,0,3.96-.13,4.71-.35-.04-.88-.13-2.33-.13-5.41v-19.8c0-1.98-.13-2.38-.88-2.38-.92,0-3.96.22-4.75.35.09.84.13,2.64.13,5.59v21.12ZM230.38,74.84l.66.84c1.06.22,3.96.44,7.83.44,3.39,0,5.37-.09,5.98-.22,1.1-.62,1.94-1.63,2.33-3.52l-.09-.09c-2.11.18-5.32.18-7.13.18-1.67,0-3.08-.09-4.09-.31v-8.63h6.69c1.54,0,2.51-.57,2.9-3.65h-9.59v-7.88h4.58c1.98,0,3.48,0,4.14-.26.53-.57,1.06-1.41,1.32-3.39h-10.69c-1.8.04-3.74.31-4.97.62.13,1.85.13,3.43.13,5.54v20.33ZM252.12,75.45c2.82.57,5.46.84,8.71.84,9.02,0,15.84-5.1,15.84-14.61,0-5.63-2.38-13.6-15.62-13.6-3.61,0-8.05.62-9.02.84.04,1.14.09,1.98.09,5.02v21.52ZM257.62,51.73c.66-.13,1.45-.22,2.82-.22,6.56,0,10.34,3.61,10.34,10.25,0,9.2-5.76,11.09-9.73,11.09-1.19,0-2.38-.09-3.43-.35v-20.77ZM245.96,109c1.94,0,2.86,0,3.43-.26.57-.57,1.19-1.41,1.54-3.39-2.11,0-9.59-.04-11.18,0-1.94.09-4.53.44-5.32.66.09,1.54.13,2.73.13,4.66v21.61c0,.7.31.84.97.84,1.72,0,3.92-.13,4.66-.35-.09-3.3-.13-6.95-.13-11.35h6.73c1.72,0,2.77-.31,3.21-3.65h-9.95v-8.76h5.9ZM131.29,63.22c0,9.46,4,13.29,11.44,13.29,5.37,0,11.88-1.76,11.88-14.08v-6.25c0-3.65.04-6.25.13-8.01-.88,0-2.6.04-3.87.18-.62.09-.97.26-.97,1.1v13.2c0,8.41-2.99,9.9-6.56,9.9-3.04,0-6.56-1.32-6.56-9.51v-12.32c0-2.16-.13-2.55-.92-2.55-.88,0-3.92.22-4.71.35.09.92.13,2.73.13,5.68v9.02ZM141.41,105.83c.09,1.23.09,2.29.09,4.49v14.74c0,3.7-.04,6.29-.13,8.05.88,0,3.3-.04,4.53-.18.75-.09,1.01-.26,1.01-1.14v-10.16h.79c1.45,0,2.29.35,3.65,2.86,1.76,3.43,2.64,5.19,3.83,6.73,1.14,1.54,2.29,1.98,3.92,1.98s3.21-.18,3.56-.44v-.18c-1.1-1.19-2.51-3.17-4.62-6.87-1.5-2.6-2.86-4.8-3.87-5.68,1.76-.79,5.28-2.82,5.28-7,0-5.59-3.48-7.97-10.47-7.97-2.02,0-6.42.48-7.57.75ZM153.82,113.53c0,2.95-1.76,4.27-2.68,4.62-.62.31-3.04.44-4.22.31v-9.99c.53-.09,1.28-.13,1.89-.13,2.73,0,5.02,1.54,5.02,5.19ZM535.26,131.71c.44,1.19.79,1.41,1.5,1.41.97,0,3.96-.22,4.93-.53v-.18c-.88-1.85-1.94-4.62-3.74-9.11-1.54-3.83-4.88-12.5-6.91-17.34-.22-.53-.62-.79-1.01-.79-.53,0-2.99.18-4.62.53l.35.92c-1.67,4-8.54,20.38-10.83,25.74v.18c.97.31,2.9.57,3.87.57.7,0,1.06-.22,1.23-.62.57-1.41,1.85-4.66,2.86-7.22h9.95c1.01,2.51,1.63,4.18,2.42,6.42ZM524.12,121.63c1.5-3.78,2.73-7.26,3.83-10.17.48,1.41,1.8,4.71,3.83,10.17h-7.66ZM38.98,132.23c0,.75.26.88.92.88,1.01,0,3.96-.13,4.71-.35-.04-.88-.13-2.33-.13-5.41v-19.8c0-1.98-.13-2.38-.88-2.38-.92,0-3.96.22-4.75.35.09.84.13,2.64.13,5.59v21.12ZM161.87,68.1c0,3.7-.04,6.25-.13,8.01,1.32.04,2.73-.04,3.52-.18.7-.13.97-.26.97-1.19v-11.53c0-2.24.04-4.53-.22-8.98,1.8,3.39,3.08,5.85,5.41,9.55,3.48,5.37,5.72,8.8,8.01,11.97.31.44.57.62,1.1.62,1.28,0,3.78-.53,4.18-.7v-19.41c0-3.65.04-6.2.13-8.1-1.01,0-2.2.04-3.56.18-.62.09-.92.26-.92,1.28v12.28c0,2.2-.04,3.92.22,7.31-1.06-2.24-2.68-4.71-4.66-7.83-3.17-4.88-6.78-10.39-8.18-12.41-.44-.48-.79-.79-1.23-.79-.79,0-4.58.22-5.41.35v.22l.79,1.1v18.26ZM580.58,132.59c-1.1-1.19-2.51-3.17-4.62-6.87-1.5-2.6-2.86-4.8-3.87-5.68,1.76-.79,5.28-2.82,5.28-7,0-5.59-3.48-7.97-10.47-7.97-2.02,0-6.42.48-7.57.75.09,1.23.09,2.29.09,4.49v14.74c0,3.7-.04,6.29-.13,8.05.88,0,3.3-.04,4.53-.18.75-.09,1.01-.26,1.01-1.14v-10.16h.79c1.45,0,2.29.35,3.65,2.86,1.76,3.43,2.64,5.19,3.83,6.73,1.14,1.54,2.29,1.98,3.92,1.98s3.21-.18,3.57-.44v-.18ZM569.05,118.15c-.62.31-3.04.44-4.22.31v-9.99c.53-.09,1.28-.13,1.89-.13,2.73,0,5.02,1.54,5.02,5.19,0,2.95-1.76,4.27-2.68,4.62ZM514.35,75.5c.57-1.41,1.85-4.66,2.86-7.22h9.95c1.01,2.51,1.63,4.18,2.42,6.43.44,1.19.79,1.41,1.5,1.41.97,0,3.96-.22,4.93-.53v-.18c-.88-1.85-1.94-4.62-3.74-9.11-1.54-3.83-4.88-12.5-6.91-17.34-.22-.53-.62-.79-1.01-.79-.53,0-2.99.18-4.62.53l.35.92c-1.67,4-8.54,20.37-10.83,25.74v.18c.97.31,2.9.57,3.87.57.7,0,1.06-.22,1.23-.62ZM522.27,54.46c.48,1.41,1.8,4.71,3.83,10.17h-7.66c1.5-3.78,2.73-7.26,3.83-10.17ZM472.07,75.23c0,.75.26.88.92.88,1.01,0,3.96-.13,4.71-.35-.04-.88-.13-2.33-.13-5.41v-19.8c0-1.98-.13-2.38-.88-2.38-.92,0-3.96.22-4.75.35.09.84.13,2.64.13,5.59v21.12ZM485,76.11c.88,0,3.3-.04,4.53-.18.75-.09,1.01-.26,1.01-1.14v-10.17h.79c1.45,0,2.29.35,3.65,2.86,1.76,3.43,2.64,5.19,3.83,6.73,1.14,1.54,2.29,1.98,3.92,1.98s3.21-.18,3.56-.44v-.18c-1.1-1.19-2.51-3.17-4.62-6.86-1.5-2.6-2.86-4.8-3.87-5.68,1.76-.79,5.28-2.82,5.28-7,0-5.59-3.48-7.97-10.47-7.97-2.02,0-6.42.48-7.57.75.09,1.23.09,2.29.09,4.49v14.74c0,3.7-.04,6.29-.13,8.05ZM490.55,51.47c.53-.09,1.28-.13,1.89-.13,2.73,0,5.02,1.54,5.02,5.19,0,2.95-1.76,4.27-2.68,4.62-.62.31-3.04.44-4.22.31v-9.99ZM590.96,72.55c-2.11,0-4.75-.97-6.34-2.07-.4.26-1.06,1.89-1.06,2.82,0,.57.26,1.01,1.01,1.5,1.14.84,3.39,1.72,6.42,1.72,5.19,0,9.95-2.95,9.95-8.41,0-4.18-2.24-5.85-6.21-8.1-4.09-2.33-5.54-3.39-5.54-5.46,0-1.94,1.67-3.04,4-3.04,1.41,0,3.3.57,4.31,1.1,1.54.09,2.25-1.72,2.25-2.82-1.1-1.14-4-2.11-6.34-2.11h-.04c-7.26,0-9.37,4.8-9.37,7.79,0,2.64.88,5.46,5.99,8.23,4.44,2.42,5.46,3.52,5.46,5.46,0,2.24-1.85,3.39-4.49,3.39ZM584.58,131.79c1.14.84,3.39,1.72,6.42,1.72,5.19,0,9.95-2.95,9.95-8.41,0-4.18-2.24-5.85-6.21-8.1-4.09-2.33-5.54-3.39-5.54-5.46,0-1.94,1.67-3.04,4-3.04,1.41,0,3.3.57,4.31,1.1,1.54.09,2.25-1.72,2.25-2.82-1.1-1.14-4-2.11-6.34-2.11h-.04c-7.26,0-9.37,4.8-9.37,7.79,0,2.64.88,5.46,5.99,8.23,4.44,2.42,5.46,3.52,5.46,5.46,0,2.25-1.85,3.39-4.49,3.39-2.11,0-4.75-.97-6.34-2.07-.4.26-1.06,1.89-1.06,2.82,0,.57.26,1.01,1.01,1.5ZM563.06,74.84l.66.84c1.06.22,3.96.44,7.83.44,3.39,0,5.37-.09,5.98-.22,1.1-.62,1.94-1.63,2.33-3.52l-.09-.09c-2.11.18-5.32.18-7.13.18-1.67,0-3.08-.09-4.09-.31v-8.63h6.69c1.54,0,2.51-.57,2.9-3.65h-9.59v-7.88h4.58c1.98,0,3.48,0,4.14-.26.53-.57,1.06-1.41,1.32-3.39h-10.69c-1.8.04-3.74.31-4.97.62.13,1.85.13,3.43.13,5.54v20.33ZM536.7,48.13c-.44.48-.97,1.23-1.45,2.55-.31,1.01.04,1.32.75,1.32h7.92v23.32c0,.66.31.79.92.79,1.76,0,3.48-.13,4.71-.35-.04-.88-.13-2.33-.13-5.37v-18.39h7c.92-.22,2.11-1.32,2.29-3.65h-15.67c-4.44,0-5.63-.04-6.34-.22ZM350.68,75.5c.57-1.41,1.85-4.66,2.86-7.22h9.95c1.01,2.51,1.63,4.18,2.42,6.43.44,1.19.79,1.41,1.5,1.41.97,0,3.96-.22,4.93-.53v-.18c-.88-1.85-1.94-4.62-3.74-9.11-1.54-3.83-4.88-12.5-6.91-17.34-.22-.53-.62-.79-1.01-.79-.53,0-2.99.18-4.62.53l.35.92c-1.67,4-8.54,20.37-10.83,25.74v.18c.97.31,2.9.57,3.87.57.7,0,1.06-.22,1.23-.62ZM358.6,54.46c.48,1.41,1.8,4.71,3.83,10.17h-7.66c1.5-3.78,2.73-7.26,3.83-10.17ZM376.94,75.54c1.94.44,5.15.75,7.39.75,6.91,0,11.79-2.99,11.79-8.89,0-2.9-1.8-5.5-5.59-6.56,2.02-1.1,3.87-3.12,3.87-5.85s-1.28-6.91-9.55-6.91c-2.82,0-7,.53-8.05.79.13,1.98.13,3.26.13,5.59v21.08ZM382.36,51.56c.44-.09,1.5-.18,2.2-.18,2.82,0,4.58,1.58,4.58,4.36,0,2.24-.97,3.74-2.11,4.27-2.07-.04-3.43,0-4.66.22v-8.67ZM382.36,63.4c.66-.13,1.36-.13,2.02-.13,3.65,0,5.81,1.63,5.81,4.53,0,3.43-2.29,5.24-5.54,5.24-.75,0-1.76-.09-2.29-.22v-9.42ZM551.84,107.55c0-1.98-.13-2.38-.88-2.38-.92,0-3.96.22-4.75.35.09.84.13,2.64.13,5.59v21.12c0,.75.26.88.92.88,1.01,0,3.96-.13,4.71-.35-.04-.88-.13-2.33-.13-5.41v-19.8ZM348.08,133.11c1.01,0,3.96-.13,4.71-.35-.04-.88-.13-2.33-.13-5.41v-19.8c0-1.98-.13-2.38-.88-2.38-.92,0-3.96.22-4.75.35.09.84.13,2.64.13,5.59v21.12c0,.75.26.88.92.88ZM437,76.11c.48,0,.7-.22.79-.7.66-5.15,1.98-15.23,2.6-20.64,1.98,5.98,5.85,17.65,6.91,21.08.88,0,1.94-.18,2.73-.31.97-.22,1.28-.57,1.58-1.45,2.82-8.27,5.41-15.58,6.65-19.41l1.28,11.05c.48,4.66.75,7.04,1.01,9.29.09.88.66,1.1,1.23,1.1.88,0,3.65-.18,4.4-.4-.4-2.11-.88-5.37-1.58-9.99l-2.33-16.19c-.13-1.1-.4-1.36-.84-1.36-1.06,0-4,.26-4.66.62v.66c-1.85,4.49-4.8,12.41-7,18.17l-5.94-16.41c-.79-2.24-1.14-2.86-1.8-3.04-2.11,0-3.7.4-4.8.62l.13.84c-1.72,10.03-3.48,21.43-4.27,26.1.7.4,2.73.4,3.92.4ZM461.07,105.17c-.53,0-2.99.18-4.62.53l.35.92c-1.67,4-8.54,20.38-10.83,25.74v.18c.97.31,2.9.57,3.87.57.7,0,1.06-.22,1.23-.62.57-1.41,1.85-4.66,2.86-7.22h9.95c1.01,2.51,1.63,4.18,2.42,6.42.44,1.19.79,1.41,1.5,1.41.97,0,3.96-.22,4.93-.53v-.18c-.88-1.85-1.94-4.62-3.74-9.11-1.54-3.83-4.88-12.5-6.91-17.34-.22-.53-.62-.79-1.01-.79ZM455.17,121.63c1.5-3.78,2.73-7.26,3.83-10.17.48,1.41,1.8,4.71,3.83,10.17h-7.66ZM412.27,74.84l.66.84c1.06.22,3.96.44,7.83.44,3.39,0,5.37-.09,5.98-.22,1.1-.62,1.94-1.63,2.33-3.52l-.09-.09c-2.11.18-5.32.18-7.13.18-1.67,0-3.08-.09-4.09-.31v-8.63h6.69c1.54,0,2.51-.57,2.9-3.65h-9.59v-7.88h4.58c1.98,0,3.48,0,4.14-.26.53-.57,1.06-1.41,1.32-3.39h-10.69c-1.8.04-3.74.31-4.97.62.13,1.85.13,3.43.13,5.54v20.33ZM407.66,129.37l-.09-.09c-2.11.18-5.32.18-7.13.18-1.67,0-3.08-.09-4.09-.31v-8.63h6.69c1.54,0,2.51-.57,2.9-3.65h-9.59v-7.88h4.58c1.98,0,3.48,0,4.14-.26.53-.57,1.06-1.41,1.32-3.39h-10.69c-1.8.04-3.74.31-4.97.62.13,1.85.13,3.43.13,5.54v20.33l.66.84c1.06.22,3.96.44,7.83.44,3.39,0,5.37-.09,5.98-.22,1.1-.62,1.94-1.63,2.33-3.52ZM317.55,132.41c-.88-1.85-1.94-4.62-3.74-9.11-1.54-3.83-4.88-12.5-6.91-17.34-.22-.53-.62-.79-1.01-.79-.53,0-2.99.18-4.62.53l.35.92c-1.67,4-8.54,20.38-10.83,25.74v.18c.97.31,2.9.57,3.87.57.7,0,1.06-.22,1.23-.62.57-1.41,1.85-4.66,2.86-7.22h9.95c1.01,2.51,1.63,4.18,2.42,6.42.44,1.19.79,1.41,1.5,1.41.97,0,3.96-.22,4.93-.53v-.18ZM299.99,121.63c1.5-3.78,2.73-7.26,3.83-10.17.48,1.41,1.8,4.71,3.83,10.17h-7.66ZM287.58,128.54l-.13-.09c-1.14.35-3.48,1.1-6.42,1.1-7,0-10.83-4.58-10.83-10.56,0-7.04,4.36-10.52,9.68-10.52,2.42,0,4.49.62,5.81,1.19,1.41.22,2.42-1.28,2.33-2.77-.7-.79-3.92-2.2-8.1-2.2-8.71,0-15.62,5.59-15.62,14.7,0,8.41,5.41,14.13,15.45,14.13,2.95,0,5.28-.79,6.38-1.5.75-.7,1.32-1.98,1.45-3.48ZM492.84,117.76h-9.95v-8.76h5.9c1.94,0,2.86,0,3.43-.26.57-.57,1.19-1.41,1.54-3.39-2.11,0-9.59-.04-11.18,0-1.94.09-4.53.44-5.32.66.09,1.54.13,2.73.13,4.66v21.61c0,.7.31.84.97.84,1.72,0,3.92-.13,4.66-.35-.09-3.3-.13-6.95-.13-11.35h6.73c1.72,0,2.77-.31,3.21-3.65ZM228.62,118.86c0-7.75-5.15-14.17-14.04-14.17h-.04c-8.98,0-14.3,6.34-14.3,14.65,0,6.64,4,14.17,14.17,14.17,9.33,0,14.21-6.78,14.21-14.65ZM214.81,130.08c-4.62,0-8.63-3.92-8.63-11.27s3.56-10.69,7.88-10.69h.04c5.46,0,8.67,4.89,8.67,11.13,0,6.86-3.04,10.83-7.96,10.83ZM378.97,133.38c1.28,0,3.78-.53,4.18-.7v-19.41c0-3.65.04-6.2.13-8.1-1.01,0-2.2.04-3.56.18-.62.09-.92.26-.92,1.28v12.28c0,2.2-.04,3.92.22,7.31-1.06-2.25-2.68-4.71-4.66-7.83-3.17-4.88-6.78-10.39-8.19-12.41-.44-.48-.79-.79-1.23-.79-.79,0-4.58.22-5.41.35v.22l.79,1.1v18.26c0,3.7-.04,6.25-.13,8.01,1.32.04,2.73-.04,3.52-.18.7-.13.97-.26.97-1.19v-11.53c0-2.24.04-4.53-.22-8.98,1.8,3.39,3.08,5.85,5.41,9.55,3.48,5.37,5.72,8.8,8.01,11.97.31.44.57.62,1.1.62ZM334.13,63.04c1.76-.79,5.28-2.82,5.28-7,0-5.59-3.48-7.97-10.47-7.97-2.02,0-6.42.48-7.57.75.09,1.23.09,2.29.09,4.49v14.74c0,3.7-.04,6.29-.13,8.05.88,0,3.3-.04,4.53-.18.75-.09,1.01-.26,1.01-1.14v-10.17h.79c1.45,0,2.29.35,3.65,2.86,1.76,3.43,2.64,5.19,3.83,6.73,1.14,1.54,2.29,1.98,3.92,1.98s3.21-.18,3.56-.44v-.18c-1.1-1.19-2.51-3.17-4.62-6.86-1.5-2.6-2.86-4.8-3.87-5.68ZM331.1,61.15c-.62.31-3.04.44-4.22.31v-9.99c.53-.09,1.28-.13,1.89-.13,2.73,0,5.02,1.54,5.02,5.19,0,2.95-1.76,4.27-2.68,4.62ZM418.08,105.35c-4.44,0-5.63-.04-6.34-.22-.44.48-.97,1.23-1.45,2.55-.31,1.01.04,1.32.75,1.32h7.92v23.32c0,.66.31.79.92.79,1.76,0,3.48-.13,4.71-.35-.04-.88-.13-2.33-.13-5.37v-18.39h7c.92-.22,2.11-1.32,2.29-3.65h-15.67ZM335.76,117.84c2.02-1.1,3.87-3.12,3.87-5.85s-1.28-6.91-9.55-6.91c-2.82,0-7,.53-8.05.79.13,1.98.13,3.26.13,5.59v21.08c1.94.44,5.15.75,7.39.75,6.91,0,11.79-2.99,11.79-8.89,0-2.9-1.8-5.5-5.59-6.56ZM327.58,108.56c.44-.09,1.5-.18,2.2-.18,2.82,0,4.58,1.58,4.58,4.36,0,2.25-.97,3.74-2.11,4.27-2.07-.05-3.43,0-4.66.22v-8.67ZM329.86,130.03c-.75,0-1.76-.09-2.29-.22v-9.42c.66-.13,1.36-.13,2.02-.13,3.65,0,5.81,1.63,5.81,4.53,0,3.43-2.29,5.24-5.54,5.24ZM509.87,109c1.94,0,2.86,0,3.43-.26.57-.57,1.19-1.41,1.54-3.39-2.11,0-9.59-.04-11.18,0-1.94.09-4.53.44-5.32.66.09,1.54.13,2.73.13,4.66v21.61c0,.7.31.84.97.84,1.72,0,3.92-.13,4.66-.35-.09-3.3-.13-6.95-.13-11.35h6.73c1.72,0,2.77-.31,3.21-3.65h-9.95v-8.76h5.9ZM56.5,131.75v-11.53c0-2.24.04-4.53-.22-8.98,1.8,3.39,3.08,5.85,5.41,9.55,3.48,5.37,5.72,8.8,8.01,11.97.31.44.57.62,1.1.62,1.28,0,3.78-.53,4.18-.7v-19.41c0-3.65.04-6.2.13-8.1-1.01,0-2.2.04-3.56.18-.62.09-.92.26-.92,1.28v12.28c0,2.2-.04,3.92.22,7.31-1.06-2.25-2.68-4.71-4.66-7.83-3.17-4.88-6.78-10.39-8.19-12.41-.44-.48-.79-.79-1.23-.79-.79,0-4.58.22-5.41.35v.22l.79,1.1v18.26c0,3.7-.04,6.25-.13,8.01,1.32.04,2.73-.04,3.52-.18.7-.13.97-.26.97-1.19ZM88.17,127.35v-19.8c0-1.98-.13-2.38-.88-2.38-.92,0-3.96.22-4.75.35.09.84.13,2.64.13,5.59v21.12c0,.75.26.88.92.88,1.01,0,3.96-.13,4.71-.35-.04-.88-.13-2.33-.13-5.41ZM29.18,106.53c-.13-1.1-.4-1.36-.84-1.36-1.06,0-4,.26-4.66.62v.66c-1.85,4.49-4.8,12.41-7,18.17l-5.94-16.41c-.79-2.24-1.14-2.86-1.8-3.04-2.11,0-3.7.4-4.8.62l.13.84c-1.72,10.03-3.48,21.43-4.27,26.1.7.4,2.73.4,3.92.4.48,0,.7-.22.79-.7.66-5.15,1.98-15.23,2.6-20.64,1.98,5.99,5.85,17.65,6.91,21.08.88,0,1.94-.18,2.73-.31.97-.22,1.28-.57,1.58-1.45,2.82-8.27,5.41-15.58,6.65-19.41l1.28,11.05c.48,4.66.75,7.04,1.01,9.29.09.88.66,1.1,1.23,1.1.88,0,3.65-.18,4.4-.4-.4-2.11-.88-5.37-1.58-9.99l-2.33-16.2ZM178.33,119.6c.48-.75,7-10.39,8.1-12.19.57-.97.66-1.54-.04-1.8-.62-.22-2.07-.44-3.7-.44-.84,1.54-5.06,8.63-6.95,11.53-1.89-3.17-4.09-7-5.63-9.46-1.1-1.85-1.41-2.07-2.2-2.07-1.14,0-3.3.35-4.8.79v.13c2.6,3.78,6.51,9.73,8.89,13.82.31.53.35,1.19.35,2.02v10.39c0,.66.13.79.79.79,2.42,0,3.83-.13,4.84-.35-.04-.97-.13-2.29-.13-5.28v-6.03c0-.57.13-1.23.48-1.85ZM104.85,117.01c-4.09-2.33-5.55-3.39-5.55-5.46,0-1.94,1.67-3.04,4-3.04,1.41,0,3.3.57,4.31,1.1,1.54.09,2.24-1.72,2.24-2.82-1.1-1.14-4-2.11-6.34-2.11h-.04c-7.26,0-9.37,4.8-9.37,7.79,0,2.64.88,5.46,5.98,8.23,4.44,2.42,5.46,3.52,5.46,5.46,0,2.25-1.85,3.39-4.49,3.39-2.11,0-4.75-.97-6.34-2.07-.4.26-1.06,1.89-1.06,2.82,0,.57.26,1.01,1.01,1.5,1.14.84,3.39,1.72,6.42,1.72,5.19,0,9.95-2.95,9.95-8.41,0-4.18-2.24-5.85-6.2-8.1ZM127.91,109h7c.92-.22,2.11-1.32,2.29-3.65h-15.67c-4.44,0-5.63-.04-6.34-.22-.44.48-.97,1.23-1.45,2.55-.31,1.01.04,1.32.75,1.32h7.92v23.32c0,.66.31.79.92.79,1.76,0,3.48-.13,4.71-.35-.04-.88-.13-2.33-.13-5.37v-18.39Z"/>
  <path class="cls-1" d="M932,173.85l-2.04,5.71c.92.63,1.97,1.55,3.17,2.75,1.48,1.48,2.19,2.61,2.19,3.31,0,1.48-1.55,3.6-4.58,6.34-3.03,2.75-5.57,4.16-7.61,4.16-.99,0-2.26-.28-3.74-.78-1.13-.38-1.85-.63-2.13-.73.1-.18.2-.35.29-.54,1.69-3.45,2.54-6.49,2.54-9.16,0-1.97-.49-3.95-1.55-5.85-1.2-2.12-2.75-3.74-4.65-4.86l-1.97,5.71c.49.28,1.41,1.13,2.89,2.47,1.76,1.62,2.61,2.82,2.61,3.52,0,1.76-1.69,4.09-5.08,6.84-3.17,2.61-5.5,3.88-6.98,3.88-.71,0-1.9-.28-3.67-.85-1.76-.56-2.68-.85-2.82-.85-.21,0-.42.07-.56.21v.63c.42.49,2.18,1.41,5.36,2.61,3.17,1.27,5.29,1.9,6.48,1.9,2.5,0,4.69-1.54,6.56-4.66.37.32.82.64,1.34.92.21.14.85.42,1.76.85,3.81,1.69,6.63,2.54,8.39,2.54,2.61,0,4.94-1.83,6.98-5.5,1.9-3.31,2.82-6.56,2.82-9.73,0-4.37-1.97-7.97-5.99-10.86ZM990.93,164.61c-1.2,1.9-1.76,3.1-1.76,3.45l2.61,21.78c1.9-2.89,2.89-6.34,2.89-10.5l-1.41-18.19c-.49.63-1.27,1.83-2.33,3.45ZM974.93,162.29c-.35-.49-.49-1.27-.49-2.26-1.34,1.83-2.61,4.09-3.95,6.77,1.34,1.06,2.04,1.62,2.04,1.62.92,4.16,1.55,7.26,1.9,9.38.42,2.33.63,3.88.63,4.72,0,.42-.07.99-.21,1.69h-14.17c-.35-3.45-1.27-6.63-2.89-9.45-.49-.92-1.27-1.55-2.33-2.04-.07-.07-.28-.07-.63-.07-.78,0-1.41.21-1.97.71-1.2.92-2.26,2.19-3.17,3.95-.49.92-1.06,2.26-1.69,4.02-.78,1.9-1.13,3.24-1.13,4.16,0,.28,0,.56.07.78.21,1.34,2.26,2.75,3.46,2.96,1.76.35,3.81.63,6.13.78-3.24,3.81-6.63,6.13-10.15,6.98-.92.21-1.76.35-2.4.35-.07,0-.99-.21-2.75-.71-1.69-.42-2.61-.63-2.68-.63-.49,0-.78.07-.85.14v.49c.92.99,2.47,1.9,4.65,2.68,2.47.99,4.37,1.62,5.64,1.97.49.07.92.14,1.41.14.78,0,1.41-.07,1.9-.28,1.27-.56,2.33-1.2,3.1-1.97,1.27-1.06,2.4-2.54,3.45-4.44.49-.92,1.27-2.54,2.19-4.86h16.43c.28,0,.78-.28.99-.28l1.34-7.05-1.2-9.73c0-.28.07-.49.14-.63l2.75-3.52c.63-.78,1.06-1.34,1.27-1.83-1.34-.78-2.61-1.55-3.88-2.4-1.76-1.13-2.75-1.83-2.96-2.12ZM955.62,183.29c-.21.14-.71.21-1.48.21-.63,0-.99,0-1.06-.07-1.2-.21-1.97-.71-2.4-1.34-.35-.49-.49-.85-.49-1.2,0-.28.28-.7.78-1.27.71-.71,1.34-1.06,1.83-1.06.85,0,1.76.99,2.54,2.33.21.35.42,1.06.78,1.97l-.49.42ZM1304.3,169.55c-.14,0,.71-.78,2.47-2.26,2.47,1.48,3.88,2.26,4.37,2.26-.21,0,0-.14.56-.35,1.34-1.48,2.26-2.54,2.75-3.31l-4.58-2.47-1.69,1.41c-.63.63-1.06.92-1.2.92-.28,0-.78-.21-2.47-1.34-.85-.56-1.34-.85-1.41-.85-.14,0-.63.49-1.55,1.41-.92.92-1.48,1.62-1.76,2.11,1.34,1.06,2.54,1.76,3.53,2.11.56.21.92.35.99.35ZM898.3,161.16c-.49.63-1.27,1.83-2.33,3.45-1.2,1.9-1.76,3.1-1.76,3.45l2.61,21.78c1.9-2.89,2.89-6.34,2.89-10.5l-1.41-18.19ZM928.27,168.56c1.06.92,1.69,1.34,1.9,1.34.28,0,.85-.56,1.62-1.69.85-1.13,1.27-1.76,1.27-1.97,0-.35-.49-.85-1.55-1.62-1.06-.78-1.69-1.13-1.97-1.13-.35,0-.92.49-1.69,1.48-.78.92-1.13,1.55-1.13,1.9,0,.21.49.78,1.55,1.69ZM878.07,179.91c-2.4-.35-3.6-.92-3.6-1.69,0-.56.42-1.06,1.34-1.55.78-.35,1.48-.56,2.19-.56.42,0,1.13.28,2.04.78l1.83,1.06c1.48-2.04,2.19-3.24,2.19-3.6,0-1.69-1.83-2.82-3.53-2.82-2.61,0-4.93,1.13-6.98,3.31-2.04,2.19-3.1,4.51-3.1,6.98,0,.92.78,1.55,2.26,1.97l3.03.63c-.99.49-1.97,1.2-2.96,2.26-1.13,1.2-1.69,2.26-1.62,3.17,4.09-2.4,6.34-3.67,6.7-3.81,1.34-.56,2.82-.92,4.58-1.13l2.26-.28c1.34-1.55,2.26-2.96,2.82-4.23h-4.65c-1.62-.21-3.17-.35-4.79-.49ZM1216.88,168.35l2.12.63-1.13.56c-1.34.99-2.04,1.76-1.97,2.33v.49c3.88-2.19,6.7-3.38,8.39-3.52l1.48-2.33c-.92.07-1.69.07-2.19.07-2.54,0-4.3-.28-5.29-.85-.56-.35-.85-.71-.85-1.06,0-.21.07-.28.14-.35.42-.28.78-.49.99-.71.49-.28.99-.42,1.41-.42.21,0,.56.07,1.06.28.35.14.78.49,1.2.99.49-1.34.78-2.04.78-2.11,0-.49-.21-1.06-.56-1.27-.78-.14-1.13-.21-1.13-.21-.56,0-1.13.14-1.69.35-1.69.63-2.89,1.9-3.6,3.74-.35.78-.49,1.41-.49,1.76,0,.78.42,1.34,1.34,1.62ZM1240.78,174.2l-1.97,5.71c.49.28,1.41,1.13,2.89,2.47,1.76,1.62,2.61,2.82,2.61,3.52,0,1.76-1.69,4.09-5.08,6.84-3.17,2.61-5.5,3.88-6.98,3.88-.7,0-1.9-.28-3.67-.85-1.76-.56-2.68-.85-2.82-.85-.21,0-.42.07-.56.21v.63c.42.49,2.18,1.41,5.36,2.61,3.17,1.27,5.29,1.9,6.48,1.9,2.89,0,5.36-2.04,7.4-6.2,1.69-3.45,2.54-6.49,2.54-9.16,0-1.97-.49-3.95-1.55-5.85-1.2-2.12-2.75-3.74-4.65-4.86ZM1274.76,197.39c-.92,1.06-1.41,1.69-1.48,1.9,1.83,1.76,2.96,2.68,3.45,2.68.35,0,.99-.42,2.04-1.2,1.06-.78,1.62-1.34,1.69-1.69-2.4-2.11-3.67-3.17-3.74-3.17-.35,0-.99.49-1.97,1.48ZM1226.54,183.65c.14-1.2.21-2.11.21-2.75,0-.28,0-2.33-1.76-5.64-.85-1.48-1.69-2.61-2.47-3.45-2.04,3.52-3.1,5.22-3.1,5.15,0,.14.35.71,1.06,1.62.78,1.2,1.27,1.97,1.48,2.4.14.21.35.85.7,1.9.28.92.49,1.34.71,1.34h-14.45c-.49,0-1.69-.63-2.04-.71-.35-.07-.56-.28-.63-.49-.49-3.52-1.2-9.87-2.04-19.03l-.49-5c-1.34,1.34-2.4,2.54-3.24,3.6-.49.63-.78.99-.78,1.2l2.47,26.08h23.33c.35-1.55.7-3.6,1.06-6.2ZM1361.83,181.18c-1.13-3.81-2.04-6.7-2.68-8.6-.07-.14-.21-.28-.42-.49-1.06-.07-3.24.63-6.42,2.11-1.34.63-2.68,1.76-3.88,3.38-1.06,1.48-1.83,2.89-2.33,4.3l-.92,2.33h-9.59c-3.53-2.96-7.97-7.26-13.39-12.9,5.78-1.62,10.08-2.75,12.9-3.52l1.13-5.29-8.11,1.9c-3.24.78-5.78,1.69-7.61,2.75-.92.56-1.48,1.69-1.76,3.38-.35,2.19-.56,3.52-.78,3.88l10.01,9.31c0,.35-.07.49-.21.49h-12.13c-.78,0-2.33-1.06-2.54-2.19-.07-.07-.07-.35-.07-.7l.56-6.56-1.97,1.9c-.85.78-1.41,1.55-1.62,2.26-.21.42-.28,1.27-.28,2.54.07,1.27-.07,2.19-.42,2.75h-14.73c-2.26,0-4.65-1.2-4.65-2.96,0,.07.07-.85.21-2.75.14-1.9.21-3.17.21-3.88l-3.45,4.09c-.14.92-.21,1.69-.14,2.33-.21,1.83-.42,2.89-.56,3.17h-19.32c-1.2,0-2.96-1.69-3.6-3.1-.14-.21-.21-.71-.21-1.48,0-1.06.21-2.33.63-3.67.14-.56.21-.78.21-.71v-.92h-.49c-.78.99-1.48,2.54-2.04,4.58-.56,1.9-.85,3.6-.85,5.15,0,2.4.7,4.02,2.19,4.86.99.63,1.76.92,2.33.92h19.67c.7-1.2,1.48-2.33,2.33-3.38.49,1.69,1.97,3.38,3.38,3.38h17.62l1.97-3.38c.35.99.7,1.62.99,1.9.85.99,1.69,1.48,2.54,1.48h13.46c1.34-1.97,2.4-3.31,3.03-4.09,1.76,1.76,3.03,3.1,3.95,4.09h10.51c.49-.42.99-1.27,1.48-2.47.42-1.06.99-1.69,1.76-1.97l10.71,3.88c1.9-2.96,2.89-4.58,3.1-4.93.35-.63.49-1.13.49-1.48,0-.63-.07-1.2-.21-1.69ZM1350.48,179.42c0-.21.78-.78,2.26-1.34.63-.21,1.13-.35,1.55-.35.78,0,1.41.56,1.83,1.62.07.21.35,1.13.71,2.61l-6.34-2.54ZM1125.44,174.2c-.35-.78-.78-1.2-1.34-1.2-.21,0-.71.14-1.48.49l-1.48.49c-1.83.35-3.67,1.55-5.5,3.45-1.76,1.9-2.96,3.81-3.53,5.71-.14.35-.28.71-.49.92h-11.07c.42-1.48.99-2.96,1.62-4.44-2.75-.07-6.42-.85-11.07-2.19-1.06-.28-2.82-1.06-5.29-2.26-1.62-.78-3.31-1.2-5.22-1.2-1.13,0-1.76,0-1.9.07-2.33.71-4.44,2.96-6.21,6.84h.71c1.2-.99,2.54-1.48,4.02-1.48,1.06,0,3.95.78,8.67,2.4.07.07.14.07.14.14-2.75,1.48-4.65,2.26-5.85,2.26h-12.48c-1.2,0-1.76-.56-1.83-1.62-.63-7.54-1.2-13.11-1.55-16.85-.21-1.9-.35-3.45-.56-4.72l-4.3,5.92,2.54,17.27h-9.17c-.92,0-1.48-.21-1.69-.71.49-1.83.71-2.96.71-3.31v-4.44l-1.2,1.13c-1.62,2.19-2.47,3.45-2.47,3.81,0,.07.14.56.35,1.34.21.78.35,1.27.35,1.34,0,.35,0,.63-.07.85h-5.15v-1.62l1.55-5.99c-2.61,2.19-4.02,3.74-4.37,4.58-.07,1.27-.07,2.26,0,3.03h-6.35c-.21,0-.42-.56-.42-.56-1.06-.78-1.9-1.9-2.68-3.38-.63-1.27-1.2-2.54-1.76-3.81-.63.92-1.55,2.18-2.61,3.95-.63,1.06-.99,1.62-.99,1.83,2.33,4.79,3.53,7.9,3.53,9.23,0,.92-1.55,1.9-4.72,2.89-2.75.85-4.94,1.27-6.42,1.27-2.04,0-3.74-.42-5.22-1.2-1.97-1.13-2.96-2.82-2.96-5,0-.92.85-3.52,2.54-7.9v-.99h-.56c-.99.63-2.12,2.61-3.31,5.92-1.2,3.31-1.83,6.13-1.83,8.32,0,4.58,3.31,6.84,9.94,6.84,2.54,0,5.15-.63,7.83-1.9,2.11-1.06,3.45-1.83,4.09-2.4,1.48-1.34,2.68-3.88,3.6-7.47h7.26l1.27-1.27c.42.56.71.99.78,1.27h7.61c.07-.49.28-1.06.63-1.69l1.27,1.69h8.74l2.4-3.24c.28.56.49,2.75,1.13,3.24h15.44c.35,0,1.76-.63,4.09-1.83l3.74-1.9,1.97-.63h2.89c-.35,0,1.13.07,4.44.14.35,1.55.63,2.96.71,4.23h13.82c.21,0,.85-1.06,2.04-3.1.35-.56.78-.92,1.34-1.13l10.5,3.67c1.69-2.4,2.75-4.09,3.17-5.01.14-.21.21-.63.21-1.27,0-.71-.07-1.27-.14-1.76-.92-3.17-1.76-5.5-2.4-7.05ZM1122.98,182.38c-1.48-.63-3.59-1.48-6.27-2.4.78-.63,1.41-.99,1.97-1.2.92-.35,1.55-.49,1.83-.49.35,0,.7.14.99.35.78,1.34,1.27,2.4,1.48,3.17v.56ZM1083.22,195.42c-.21,0-.85.56-1.97,1.62-1.13,1.06-1.69,1.69-1.69,1.83,0,.21.71.78,2.04,1.55,1.41.78,2.26,1.2,2.54,1.2.35,0,.99-.56,1.97-1.69.99-1.13,1.55-1.83,1.69-2.12-.49,0-1.34-.42-2.54-1.2-1.2-.78-1.9-1.2-2.04-1.2ZM1149.7,164.68c2.33,1.48,3.74,2.19,4.09,2.19.14,0,.56-.42,1.34-1.27,1.13-1.2,1.76-1.83,1.83-1.97l-4.3-2.47c-1.76,1.48-2.61,2.26-2.54,2.26-.49,0-1.69-.78-3.67-2.26l-2.89,3.38c2.19,1.48,3.46,2.19,3.88,2.19.21,0,.99-.7,2.26-2.04ZM1191.43,178.5c-1.06,1.34-1.62,2.04-1.62,2.19,0,.07.07.56.28,1.41l.28,2.11h-4.51v-1.76l1.34-5.85c-1.48,1.34-3.31,2.89-4.09,4.23-.35,1.48-.56,2.61-.63,3.38h-4.09c.21,0,.42-.49.49-.49-.28,0-.92.49-1.2.49-.7,0-1.48-.42-2.26-1.2,0-.14.42-1.48,1.27-4.09.49-1.55.71-2.75.63-3.52-2.19,2.19-3.74,3.81-4.58,5.01l-.14,1.97c-.21,1.2-.56,1.83-1.06,1.83h-8.6c-1.27,0-1.97-.28-2.12-.92-1.34-7.26-2.33-12.76-2.82-16.43-2.04,3.45-3.03,5.15-3.03,5,0,.28.49,1.34.56,1.69-1.34.92-2.82,1.83-4.37,2.68-2.33,1.34-3.59,2.54-3.95,3.52-1.41,4.3-2.12,6.34-2.12,6.06v.78l8.53,1.69c.78-.07,1.48-.78,2.12-2.12.63-1.34,1.27-2.19,1.83-2.4.49,1.9.78,3.38.99,4.3.14.49.49.92,1.13,1.41.21.21.49.35.7.35h9.16c.56,0,1.41-.63,2.61-1.97.21.85,1.27,1.97,2.12,1.97h7.12c.78,0,1.62-1.27,1.83-1.27.07,0,.28.42.78,1.27l7.26.14c.07,0,.28-.07.56-.14.07-.07.49-1.13,1.41-3.24.42-1.06.63-1.9.63-2.61v-8.25c-.56.49-1.41,1.41-2.47,2.75ZM1157.38,182.1h-3.17c-.49,0-1.97-.35-4.3-1.06l2.89-1.34c1.27-.78,2.11-1.76,2.54-2.96.14-.49.49-.78,1.06-.99.63,2.75.99,4.51.99,5.29v1.06Z"/>
  <path class="cls-1" d="M284.37,164.55c0-1.98-.13-2.38-.88-2.38-.92,0-3.96.22-4.75.35.09.84.13,2.64.13,5.59v21.12c0,.75.26.88.92.88,1.01,0,3.96-.13,4.71-.35-.04-.88-.13-2.33-.13-5.41v-19.8ZM269.06,163.53c-.13-1.1-.4-1.36-.84-1.36-1.06,0-4,.26-4.66.62v.66c-1.85,4.49-4.8,12.41-7,18.17l-5.94-16.41c-.79-2.24-1.14-2.86-1.8-3.04-2.11,0-3.7.4-4.8.62l.13.84c-1.72,10.03-3.48,21.43-4.27,26.1.7.4,2.73.4,3.92.4.48,0,.7-.22.79-.7.66-5.15,1.98-15.23,2.6-20.64,1.98,5.98,5.85,17.65,6.91,21.08.88,0,1.94-.18,2.73-.31.97-.22,1.28-.57,1.58-1.45,2.82-8.27,5.41-15.58,6.64-19.41l1.28,11.05c.48,4.66.75,7.04,1.01,9.29.09.88.66,1.1,1.23,1.1.88,0,3.65-.18,4.4-.4-.4-2.11-.88-5.37-1.58-9.99l-2.33-16.19ZM328.06,164.55c0-1.98-.13-2.38-.88-2.38-.92,0-3.96.22-4.75.35.09.84.13,2.64.13,5.59v21.12c0,.75.26.88.92.88,1.01,0,3.96-.13,4.71-.35-.04-.88-.13-2.33-.13-5.41v-19.8ZM218.81,186.46c-1.67,0-3.08-.09-4.09-.31v-8.63h6.69c1.54,0,2.51-.57,2.9-3.65h-9.59v-7.88h4.58c1.98,0,3.48,0,4.14-.26.53-.57,1.06-1.41,1.32-3.39h-10.69c-1.8.04-3.74.31-4.97.62.13,1.85.13,3.43.13,5.54v20.33l.66.84c1.06.22,3.96.44,7.83.44,3.39,0,5.37-.09,5.98-.22,1.1-.62,1.94-1.63,2.33-3.52l-.09-.09c-2.11.18-5.33.18-7.13.18ZM310.51,163.62v12.28c0,2.2-.04,3.92.22,7.31-1.06-2.24-2.68-4.71-4.66-7.83-3.17-4.88-6.78-10.39-8.18-12.41-.44-.48-.79-.79-1.23-.79-.79,0-4.58.22-5.41.35v.22l.79,1.1v18.26c0,3.7-.04,6.25-.13,8.01,1.32.04,2.73-.04,3.52-.18.7-.13.97-.26.97-1.19v-11.53c0-2.24.04-4.53-.22-8.98,1.8,3.39,3.08,5.85,5.41,9.55,3.48,5.37,5.72,8.8,8.01,11.97.31.44.57.62,1.1.62,1.28,0,3.78-.53,4.18-.7v-19.41c0-3.65.04-6.2.13-8.1-1.01,0-2.2.04-3.56.18-.62.09-.92.26-.92,1.28ZM344.74,174.01c-4.09-2.33-5.55-3.39-5.55-5.46,0-1.94,1.67-3.04,4-3.04,1.41,0,3.3.57,4.31,1.1,1.54.09,2.24-1.72,2.24-2.82-1.1-1.14-4-2.11-6.34-2.11h-.04c-7.26,0-9.37,4.8-9.37,7.79,0,2.64.88,5.46,5.99,8.23,4.44,2.42,5.46,3.52,5.46,5.46,0,2.24-1.85,3.39-4.49,3.39-2.11,0-4.75-.97-6.34-2.07-.4.26-1.06,1.89-1.06,2.82,0,.57.26,1.01,1.01,1.5,1.14.84,3.39,1.72,6.42,1.72,5.19,0,9.95-2.95,9.95-8.41,0-4.18-2.24-5.85-6.2-8.1ZM145.95,177.04c1.76-.79,5.28-2.82,5.28-7,0-5.59-3.48-7.97-10.47-7.97-2.02,0-6.42.48-7.57.75.09,1.23.09,2.29.09,4.49v14.74c0,3.7-.04,6.29-.13,8.05.88,0,3.3-.04,4.53-.18.75-.09,1.01-.26,1.01-1.14v-10.17h.79c1.45,0,2.29.35,3.65,2.86,1.76,3.43,2.64,5.19,3.83,6.73,1.14,1.54,2.29,1.98,3.92,1.98s3.21-.18,3.56-.44v-.18c-1.1-1.19-2.51-3.17-4.62-6.86-1.5-2.6-2.86-4.8-3.87-5.68ZM142.91,175.15c-.62.31-3.04.44-4.22.31v-9.99c.53-.09,1.28-.13,1.89-.13,2.73,0,5.02,1.54,5.02,5.19,0,2.95-1.76,4.27-2.68,4.62ZM116.86,162.08c-3.04,0-6.03.35-7.22.53.18,2.02.18,3.83.18,5.94v20.77c0,.66.31.79.97.79,1.19,0,3.92-.13,4.66-.35-.04-.88-.13-2.16-.13-5.24v-18.88c.62-.09,1.23-.13,1.76-.13,2.6,0,5.41,1.32,5.41,5.5,0,4.44-2.73,5.59-4.93,5.59-.44,0-1.06-.04-1.41-.13,0,1.41.79,2.64,1.45,2.99.48.26,1.54.35,2.24.35,2.9-.04,8.36-2.46,8.36-8.8s-4.66-8.93-11.35-8.93ZM199.41,163.53c-.13-1.1-.4-1.36-.84-1.36-1.06,0-4,.26-4.66.62v.66c-1.85,4.49-4.8,12.41-7,18.17l-5.94-16.41c-.79-2.24-1.14-2.86-1.8-3.04-2.11,0-3.7.4-4.8.62l.13.84c-1.72,10.03-3.48,21.43-4.27,26.1.7.4,2.73.4,3.92.4.48,0,.7-.22.79-.7.66-5.15,1.98-15.23,2.6-20.64,1.98,5.98,5.85,17.65,6.91,21.08.88,0,1.94-.18,2.73-.31.97-.22,1.28-.57,1.58-1.45,2.82-8.27,5.41-15.58,6.65-19.41l1.28,11.05c.48,4.66.75,7.04,1.01,9.29.09.88.66,1.1,1.23,1.1.88,0,3.65-.18,4.4-.4-.4-2.11-.88-5.37-1.58-9.99l-2.33-16.19ZM164.3,164.55c0-1.98-.13-2.38-.88-2.38-.92,0-3.96.22-4.75.35.09.84.13,2.64.13,5.59v21.12c0,.75.26.88.92.88,1.01,0,3.96-.13,4.71-.35-.04-.88-.13-2.33-.13-5.41v-19.8ZM514.44,166c1.94,0,2.86,0,3.43-.26.57-.57,1.19-1.41,1.54-3.39-2.11,0-9.59-.04-11.18,0-1.94.09-4.53.44-5.32.66.09,1.54.13,2.73.13,4.66v21.61c0,.7.31.84.97.84,1.72,0,3.92-.13,4.66-.35-.09-3.3-.13-6.95-.13-11.35h6.73c1.72,0,2.77-.31,3.21-3.65h-9.95v-8.76h5.9ZM483.07,161.69h-.04c-8.98,0-14.3,6.34-14.3,14.65,0,6.64,4,14.17,14.17,14.17,9.33,0,14.21-6.78,14.21-14.65s-5.15-14.17-14.04-14.17ZM483.29,187.08c-4.62,0-8.63-3.92-8.63-11.27s3.56-10.69,7.88-10.69h.04c5.46,0,8.67,4.88,8.67,11.13,0,6.87-3.04,10.83-7.96,10.83ZM572.26,165.47c2.42,0,4.49.62,5.81,1.19,1.41.22,2.42-1.28,2.33-2.77-.7-.79-3.92-2.2-8.1-2.2-8.71,0-15.62,5.59-15.62,14.7,0,8.41,5.41,14.13,15.45,14.13,2.95,0,5.28-.79,6.38-1.5.75-.7,1.32-1.98,1.45-3.48l-.13-.09c-1.14.35-3.48,1.1-6.42,1.1-7,0-10.83-4.58-10.83-10.56,0-7.04,4.36-10.52,9.68-10.52ZM550.7,164.55c0-1.98-.13-2.38-.88-2.38-.92,0-3.96.22-4.75.35.09.84.13,2.64.13,5.59v21.12c0,.75.26.88.92.88,1.01,0,3.96-.13,4.71-.35-.04-.88-.13-2.33-.13-5.41v-19.8ZM535.52,166c1.94,0,2.86,0,3.43-.26.57-.57,1.19-1.41,1.54-3.39-2.11,0-9.59-.04-11.18,0-1.94.09-4.53.44-5.32.66.09,1.54.13,2.73.13,4.66v21.61c0,.7.31.84.97.84,1.72,0,3.92-.13,4.66-.35-.09-3.3-.13-6.95-.13-11.35h6.73c1.72,0,2.77-.31,3.21-3.65h-9.95v-8.76h5.9ZM448.35,174.01c-4.09-2.33-5.54-3.39-5.54-5.46,0-1.94,1.67-3.04,4-3.04,1.41,0,3.3.57,4.31,1.1,1.54.09,2.24-1.72,2.24-2.82-1.1-1.14-4-2.11-6.34-2.11h-.04c-7.26,0-9.37,4.8-9.37,7.79,0,2.64.88,5.46,5.99,8.23,4.44,2.42,5.46,3.52,5.46,5.46,0,2.24-1.85,3.39-4.49,3.39-2.11,0-4.75-.97-6.34-2.07-.4.26-1.06,1.89-1.06,2.82,0,.57.26,1.01,1.01,1.5,1.14.84,3.39,1.72,6.42,1.72,5.19,0,9.95-2.95,9.95-8.41,0-4.18-2.24-5.85-6.21-8.1ZM415.8,177.04c1.76-.79,5.28-2.82,5.28-7,0-5.59-3.48-7.97-10.47-7.97-2.02,0-6.42.48-7.57.75.09,1.23.09,2.29.09,4.49v14.74c0,3.7-.04,6.29-.13,8.05.88,0,3.3-.04,4.53-.18.75-.09,1.01-.26,1.01-1.14v-10.17h.79c1.45,0,2.29.35,3.65,2.86,1.76,3.43,2.64,5.19,3.83,6.73,1.14,1.54,2.29,1.98,3.92,1.98s3.21-.18,3.56-.44v-.18c-1.1-1.19-2.51-3.17-4.62-6.86-1.5-2.6-2.86-4.8-3.87-5.68ZM412.76,175.15c-.62.31-3.04.44-4.22.31v-9.99c.53-.09,1.28-.13,1.89-.13,2.73,0,5.02,1.54,5.02,5.19,0,2.95-1.76,4.27-2.68,4.62ZM601.96,186.29c-2.11.18-5.32.18-7.13.18-1.67,0-3.08-.09-4.09-.31v-8.63h6.69c1.54,0,2.51-.57,2.9-3.65h-9.59v-7.88h4.58c1.98,0,3.48,0,4.14-.26.53-.57,1.06-1.41,1.32-3.39h-10.69c-1.8.04-3.74.31-4.97.62.13,1.85.13,3.43.13,5.54v20.33l.66.84c1.06.22,3.96.44,7.83.44,3.39,0,5.37-.09,5.98-.22,1.1-.62,1.94-1.63,2.33-3.52l-.09-.09ZM432.03,159.84c-1.14,0-2.42.57-3.34.97.13.48.22,1.14.22,1.85,0,2.64-.88,5.46-2.2,7.57,1.45.04,2.64-.13,3.52-.88,1.76-1.36,3.39-4.58,3.39-7.09v-.04c0-1.32-.53-2.38-1.58-2.38ZM391.02,186.46c-1.67,0-3.08-.09-4.09-.31v-8.63h6.69c1.54,0,2.51-.57,2.9-3.65h-9.59v-7.88h4.58c1.98,0,3.48,0,4.14-.26.53-.57,1.06-1.41,1.32-3.39h-10.69c-1.8.04-3.74.31-4.97.62.13,1.85.13,3.43.13,5.54v20.33l.66.84c1.06.22,3.96.44,7.83.44,3.39,0,5.37-.09,5.98-.22,1.1-.62,1.94-1.63,2.33-3.52l-.09-.09c-2.11.18-5.32.18-7.13.18ZM355.07,162.13c-.44.48-.97,1.23-1.45,2.55-.31,1.01.04,1.32.75,1.32h7.92v23.32c0,.66.31.79.92.79,1.76,0,3.48-.13,4.71-.35-.04-.88-.13-2.33-.13-5.37v-18.39h7c.92-.22,2.11-1.32,2.29-3.65h-15.67c-4.44,0-5.63-.04-6.34-.22Z"/>
  <path class="cls-1" d="M721.68,207.86c-.32-.03-.64-.06-.96-.1-.32-.03-.64-.06-.96-.1.04-.29.07-.58.12-.87.05-.41.41-.74.88-.78.07,0,.1,0,.14-.02.35-.03.69-.12.98-.24-.07.7-.14,1.41-.21,2.11M732.29,210.16c.05-2.45.11-4.9.16-7.34-.93.76-1.87,1.51-2.84,2.25.74.2.9.7.88,1.21-.03.73-.05,1.45-.07,2.18-.64-.02-1.27-.05-1.91-.08.1-1.9.19-3.79.28-5.68-.95.74-1.91,1.46-2.9,2.17.73.22.9.74.87,1.23-.05.72-.09,1.45-.14,2.17-1.02-.06-2.03-.14-3.05-.22.38-4.43.75-8.84,1.12-13.29-.92.71-1.86,1.4-2.81,2.09.68.23.8.75.75,1.25-.15,1.59-.31,3.19-.47,4.79-.07.74-.63,1.1-1.07,1.26-.29.14-.55.18-.57.23-1.3.09-2.4.98-2.56,2.2l-.32,2.52c.75.09,1.51.18,2.27.27.21.02.41.05.62.07,1.07.12,2.14.21,3.22.3,2.84.23,5.68.38,8.52.44M712.93,208.41c.63.1,1.26.2,1.89.29.55-3.79,1.1-7.58,1.66-11.36.07-.5.33-.97,1.05-1.03-.76-.89-1.5-1.79-2.24-2.7-.79,4.94-1.58,9.86-2.36,14.81M705.7,205.35c-.31-.07-.63-.14-.94-.21-.31-.07-.62-.14-.93-.21.05-.22.1-.43.15-.65.37-.2.74-.4,1.1-.6.25.34.51.68.76,1.01-.05.22-.09.44-.14.65M710.59,195.14c.68.29.75.82.66,1.31-.6,3.22-1.2,6.43-1.81,9.65-.63-.12-1.25-.24-1.88-.36.09-.44.17-.87.26-1.31-.76-1.01-1.5-2.01-2.23-3.03-1.09.61-2.19,1.21-3.31,1.8-.11.43-.21.86-.32,1.3-.62-.15-1.25-.32-1.88-.48.48-1.83.95-3.66,1.42-5.49-1.09.52-2.19,1.03-3.29,1.53.68.35.72.89.59,1.38-.19.7-.39,1.4-.58,2.1-.27-.07-.55-.15-.82-.23,0,0,0-.01,0-.02-.52-.14-1.03-.29-1.55-.44-.02-.66.09-1.33.22-1.98.42-2.05.99-4.38-1.59-7.13-.74.35-1.5.69-2.25,1.03,1.82.54,2.54,2.23,2.83,3.57.26,1.62-.62,2.84-.16,4.22-.89-.27-1.78-.54-2.68-.82,0,0,0-.01,0-.01.07-.21.14-.42.21-.64.44-1.38-.48-2.94-2.05-3.49-.11-.04-.23-.08-.34-.12-3.48-1.22-6.92-2.58-10.32-4.08.23-.51.45-1.03.68-1.53.2-.45.68-.59,1.17-.37-.52-1.14-1.02-2.27-1.5-3.42-.93,2.01-1.85,4.03-2.78,6.05,4.11,1.89,8.3,3.57,12.54,5.04.6.21.94.8.77,1.31-.07.21-.14.42-.21.64-.2.58-.39,1.15-.59,1.73-.38.16-.77.32-1.16.48-.22-.38-.43-.76-.65-1.15.2-.56.4-1.13.59-1.7-.45-.16-.9-.32-1.35-.48-.15-.06-.31-.11-.47-.17-3.43-1.26-6.83-2.67-10.17-4.2-.24.5-.47,1.01-.7,1.52,3.39,1.56,6.82,2.97,10.29,4.25-.09.27-.19.52-.28.78.64,1.13,1.3,2.25,1.97,3.36,1.21-.45,2.39-.93,3.57-1.41.08-.27.17-.55.27-.83,1.34.43,2.68.85,4.03,1.23.26.39.58.71,1,1-.19-.28-.34-.56-.46-.85,1.12.32,2.25.63,3.37.92,1.57.41,3.15.79,4.72,1.14,1.57.35,3.15.68,4.74.97.07,0,.14.03.21.04.55.11,1.12.21,1.68.31h.02c.86-4.93,1.7-9.85,2.55-14.77-.98.62-1.98,1.23-2.99,1.83M729.21,211.73c-.55-.02-.98.33-1.01.78-.02.47.38.85.94.88.55.02.99-.33,1.01-.79.01-.45-.39-.84-.94-.87M723.21,9.21c.73,0,1.33.56,1.33,1.26-.4-.4-1.94-.72-2.65,0,0-.7.59-1.26,1.32-1.26M726.53,10.85c-.56,4.18-5.94,4.18-6.12,1.09.96,3.37,6.18,1.6,4.64-2.14,2.05-.78,3.58-.84,5.24-1.11-4.29-.67-9.34-1.2-12.47.24-1.53.69-1.1,1.63-.87,2.02.25-.82,1.62-.87,2.59-.54-.74,6.31,7.33,5.56,6.99.44M673.06,193.95c-.3-.15-.59-.29-.89-.44-.29-.15-.58-.31-.88-.47.13-.25.26-.5.39-.75.19-.36.67-.52,1.14-.39.06,0,.1.03.14.03.35.09.7.13,1.03.13-.31.63-.62,1.26-.93,1.89M677.12,183.71c.57.47.5,1,.28,1.45-.71,1.44-1.42,2.87-2.13,4.31-.33.66-.97.78-1.47.8-.33.02-.6-.04-.62,0-1.28-.38-2.63.06-3.21,1.14-.39.75-.81,1.48-1.18,2.24.87.46,1.75.91,2.64,1.36.89.45,1.78.89,2.67,1.31,2.15-4.52,4.3-9.02,6.45-13.54-1.13.33-2.27.64-3.43.93M725.32,211.51c-.54-.03-1.01.3-1.04.75-.04.47.38.86.93.9.53.04,1-.3,1.03-.76.02-.45-.39-.86-.92-.89M723,211.33c-.54-.05-1.02.29-1.06.74-.04.47.37.87.92.91.53.05,1-.28,1.04-.74.03-.45-.37-.86-.9-.91M701.06,197.35c.48.13.97-.12,1.09-.57.11-.43-.19-.9-.66-1.03-.48-.13-.98.13-1.1.56-.13.45.18.91.67,1.04M698.96,196.77c.48.14.97-.1,1.09-.55.12-.44-.18-.91-.64-1.04-.49-.14-.98.12-1.11.55-.14.45.16.91.66,1.05M719.99,197.96c.5.06.92-.27.97-.74.05-.45-.28-.87-.77-.92-.47-.06-.91.27-.96.72-.06.47.29.89.76.94M765.53,199.43c.48-.11.8-.57.7-1.01-.11-.46-.6-.73-1.07-.62-.49.11-.8.56-.7,1.02.1.44.56.73,1.07.61M675.81,182.27c.45.23.96.09,1.17-.33.21-.41.04-.91-.4-1.15-.42-.22-.96-.07-1.17.33-.22.41-.03.92.4,1.15M720.24,195.96c.49.06.9-.26.95-.72.05-.45-.27-.87-.75-.92-.47-.06-.9.27-.96.72-.06.46.29.88.76.93M763.38,199.91c.48-.11.81-.56.71-1-.1-.46-.58-.74-1.06-.64-.49.1-.82.55-.73,1.02.09.45.57.73,1.08.62M674.88,184.06c.46.23.98.07,1.19-.34.2-.41.03-.91-.41-1.15-.43-.22-.96-.08-1.17.32-.22.41-.03.94.4,1.17M725.18,95.51c-.18-3.13-.29-6.68-.29-10.54,0-3.5.1-6.67.25-9.46,8.86-.79,21.55-1.03,33.27,2.02.84,2.51,1.31,5.2,1.31,7.99s-.47,5.46-1.3,7.97c-11.7,3.05-24.36,2.82-33.24,2.03M734.65,110.58c-2.8,0-5.54-.46-8.16-1.37-.21-1.34-.82-5.77-1.23-12.21,8.74.76,21,.96,32.52-1.85-3.78,9.05-12.73,15.42-23.13,15.42M709.58,85.51c0-10.12,6.14-19.25,15.39-23.13-.48,3-1.56,10.97-1.56,22.58s1.06,20.47,1.5,23.65c-9.22-3.9-15.33-13.02-15.33-23.1M726.57,61.78c2.6-.89,5.31-1.34,8.08-1.34,10.4,0,19.34,6.36,23.13,15.4-11.55-2.81-23.84-2.6-32.56-1.84.42-6.66,1.12-10.94,1.35-12.23M734.65,58.96c-3.08,0-6.1.52-8.97,1.56-10.51,3.77-17.58,13.82-17.58,24.99s7.02,21.15,17.47,24.96c2.91,1.06,5.96,1.59,9.08,1.59,14.64,0,26.55-11.91,26.55-26.55s-11.91-26.55-26.55-26.55M796.56,199.56c-.26.12-.53.05-.62-.17-.1-.21.02-.47.27-.58.09-.04.2-.07.29-.06-.9-.29-1.72.69-1.03,1.3-.24.15-.42.15-.56.02-.16.33-.33.66-.48.98,1.2-.53,2.4-1.09,3.59-1.65-.39-.12-.77-.24-1.16-.37.07.19-.07.41-.3.52M809.69,86.42v-2.96c0-1.49,0-2.94,0-3.63.02-2.79-.45-6.49-3.09-8.3.8,3.12.26,3.67.26,8.93v6.56c0,1.93.27,3.61.73,5.07-3.07-1.48-6.35-4.72-6.35-10.42,0-1.91-.47-9.79-2.84-13.07v13.67c0,1.8.23,3.38.64,4.77-7.21-3.65-6.49-16.08-8.83-20.91,0,4.17.09,7.11.09,11.28,0,2.05.31,3.83.82,5.35-6.31-4.03-7.04-11.92-7.53-17.82-.61,2.19-1.61,7.94.11,13.36-4.23-3.23-6.59-10.13-6.3-15.06-.62,2.7-1.28,6.77.05,10.86-.23,4.64-.19,41.23-.19,45.22-2.4-1.99-4.87-5.59-4.6-11.04.08-.89.18-1.74.31-2.55,1.69-11.42,2.04-27.88-2.68-41.04,3.81,20.56-.94,41.71-1.61,45.96-1.19,7.6,1.39,23.34,6.76,40.81-1.04-1.03-4.62-2.53-6.04-3.96,0,1.57.57,3.28.57,6.72-1.84-3.08-2.54-3.21-4.5-6.63.62,4.02.44,4.38.44,7.85-1.91-3.59-2.93-8.37-7.3-15.2-9.73-15.2-23.77-5.77-23.77-3.13,0-2.65-14.02-12.07-23.75,3.13-4.38,6.83-5.4,11.61-7.31,15.2,0-3.47-.17-3.83.44-7.85-1.96,3.42-2.66,3.55-4.5,6.63,0-3.45.58-5.15.58-6.72-1.44,1.44-5.01,2.93-6.05,3.96,5.36-17.47,7.95-33.21,6.76-40.81-.67-4.25-5.42-25.4-1.6-45.96-4.72,13.16-4.38,29.62-2.69,41.04.12.81.21,1.66.31,2.56.27,5.48-2.22,9.07-4.63,11.06,0-3.99.06-40.56-.18-45.25,1.33-4.09.68-8.15.05-10.86.29,4.93-2.06,11.83-6.29,15.06,1.71-5.43.72-11.18.1-13.36-.5,5.9-1.22,13.79-7.52,17.82.51-1.53.82-3.3.82-5.35,0-4.17.1-7.1.1-11.28-2.36,4.83-1.64,17.26-8.84,20.91.41-1.39.63-2.97.63-4.77v-13.67c-2.37,3.28-2.84,11.16-2.84,13.07,0,5.7-3.28,8.94-6.35,10.41.47-1.46.74-3.14.74-5.06v-6.56c0-5.26-.55-5.81.26-8.93-2.65,1.81-3.11,5.51-3.09,8.3,0,.69,0,2.15,0,3.63h0v2.96c0,5.95-3.58,9.23-6.76,10.61.55-.71,1.14-2.65,1.14-5.53v-28.7c0-8.07,9.42-17.33,12.9-21.42,9.65-11.3,13.85-2.12,23.57,1.18,16.15,5.47,24.77-.64,24.77-.64,8.63-5.43,8.66-10.55,8.66-13.75,0-2.17-.83-4.98-2.41-6.78-2.95-2.94-8.19-3.9-9.12-3.71-1.97,1.01-3.71,1.02-4.07,1.3-.9-1.8-.68-4.55,3.39-6.81,1.14-.63.72-2.07,4.2-4.11,10.15-5.92,20.08-3.77,25.87,2.69-2.05-.75-4.02-1.43-7.47-1.76,4.85,1.68,10.6,5.69,14.31,12.37,1.52,2.65,4.95,9.96,6.16,12.17,2.59,4.72,7.27,14.6,23.76,9.03,9.72-3.28,13.92-12.48,23.57-1.18,3.48,4.09,12.9,13.35,12.9,21.42v28.7c0,2.87.59,4.81,1.14,5.53-3.17-1.38-6.76-4.66-6.76-10.61M809.7,108.81v-8.2c0-1.36-.05-2.54-.14-3.61.48.18.92.34,1.33.49,1.37,1.36,2.93,2.34,4.43,3.09v13.28c0,2.88.59,4.82,1.14,5.54-3.17-1.39-6.73-4.65-6.75-10.58M809.82,136.65c0-.96-.13-8.93-.13-10.48,0-1.71-.07-4.65-.22-6.84.51.2.98.38,1.41.54,1.37,1.35,2.93,2.33,4.43,3.08v16.96c0,2.87.59,4.82,1.14,5.53-2.83-1.23-6.63-4.63-6.63-8.76M809.82,179.67v-6.35h0c0-4-.12-7.48-.12-8.67v-9.46c0-.81-.02-4.93-.05-10.25.18.08.36.14.54.21,1.52,1.75,3.36,2.94,5.13,3.82v33.92c0,2.88.59,4.83,1.14,5.54-2.83-1.23-6.63-4.78-6.63-8.76M801.24,104.03v-8.29c0-1.46-.05-2.69-.13-3.73.32.12.64.25.94.35,1.48,1.58,3.21,2.68,4.87,3.5.03,1.74-.06,3.56-.06,5.39v8.13c0,1.93.27,3.61.73,5.07-3.07-1.47-6.35-4.72-6.35-10.42M801.24,129.59v-8.3c0-1.48-.05-4.58-.14-6.93.33.13.65.25.95.37,1.48,1.57,3.21,2.67,4.86,3.49.07,2.77-.05,6.57-.05,8.59v7.86c0,.2,0,.38.01.57,0,0-.01,0-.01,0v.18c0,1.74.21,3.27.59,4.63-2.77-1.27-6.21-4.84-6.21-10.44M801.24,158.61v-8.29c0-1.44-.05-6.75-.13-10.8,1.65,2.19,3.83,3.47,5.8,4.35-.03,6.12-.05,11.03-.05,11.96v7.86c0,2.88,0,4.54.54,5.25-2.36-1.03-6.16-4.38-6.16-10.33M793.14,99.16v-7.52c0-1.55.02-2.59-.02-3.45.76.29,1.58.55,2.46.78.92.71,1.88,1.31,2.83,1.8,0,.27,0,.55,0,.81v13.02c0,1.78.22,3.35.62,4.73-2.92-1.57-5.88-4.77-5.88-10.19M793.14,121.99v-7.51c0-2.87-.08-2.85-.08-4.25.8.34,1.54.62,2.21.87,1.01.82,2.09,1.5,3.14,2.05,0,1.7,0,3.6,0,4.01v13.02c0,.59.02,1.14.06,1.67-2.73-1.66-5.33-4.79-5.33-9.86M798.4,146.17v12.87c-2.71-1.69-5.27-4.8-5.27-9.82v-7.52c0-2.19-.05-7.12-.07-10.06,1.52,2.01,3.46,3.35,5.33,4.33.02,3.5.01,9.67.01,10.21M786.06,95.43v-7.55c0-1.94-.04-3.37-.14-4.44.28.15.57.29.86.44.95,1.08,2.1,2.07,3.5,2.94.02.63.02,1.25.02,1.83v11.12c0,2.06.31,3.83.82,5.37-2.63-1.71-5.07-4.79-5.07-9.71M786.06,115.64v-7.55c0-.85-.01-1.6-.03-2.26.35.2.73.39,1.1.57.96.97,2.03,1.76,3.1,2.4.07.9.07,1.84.07,2.67v11.12c0,.79.05,1.54.14,2.26-2.35-1.78-4.38-4.74-4.38-9.21M790.3,138.7v9.33c-2.3-1.8-4.24-4.72-4.24-9.11v-7.56c0-1.41-.02-4.04-.07-6.08,1.22,1.6,2.7,2.8,4.22,3.7.11,3.19.09,8.77.09,9.71M778.81,93.51c0-1.72-.13-10.78-.14-16.69.98,1.7,2.41,3.35,4.43,4.85.23,1.67.12,3.76.12,5.21v9.14c0,1.71.21,3.21.58,4.55-2.77-2.05-4.98-4.56-4.98-7.07M778.72,99.07c.9,1.64,2.43,3.38,4.51,4.96.01,1.09-.02,2.19-.02,3.06v7.53c-2.49-1.94-4.4-4.29-4.4-6.62,0-1.05-.05-4.81-.09-8.93M783.22,130.36v5.39c-2.49-1.95-4.4-4.29-4.4-6.62,0-1.63-.13-9.79-.14-15.66.89,1.65,2.41,3.41,4.5,5,.14,3.44.05,10.6.05,11.9M776.48,161.72c.34.77.24,2.29.6,3,.35.7,1.13,1.2,1.35,1.55.29.48.18,1.68.56,2.53.19.39.37.79.57,1.14-.26.27-.46.59-.65.89-.58-1.31-2.03-1.46-3.11-.78-.55.35-1.2.89-1.71,1.75.21-1.49-.07-1.97-.64-2.54-.85-.85-.51-2.65-1.21-3.73-.53-.83-1.52-1.1-2.16-2.39-.63-1.28-.32-1.97-.96-3.24-.73-1.45-.91-1.91-.95-3.86.83,1.06,1.78,1.95,3.06,3.25.46-3.04.5-3.77.5-6.4,1.29,1.1,2.61,2.74,3.03,3.85.25.67.48,2.6.58,2.92.31,1,.77,1.31,1.12,2.08M782.14,170.6c1.36.1.61,5.98,1.6,8.04,1.02,2.08.58,3.8-1.34,3.62-1.96-.18-1.85-6.15-1.86-7.19,0-1.48-.75.79-1.15,1.62-.08-.36-.17-.76-.23-1.18-.14-1.01-.04-1.65.04-2.28.53-1.4,1.57-2.73,2.94-2.62M783.87,173c.54-1.77,2.01-4.23,3.69-3.84,1.33.29.06,4.54.86,6.62,1.56,4.05-.63,5.43-2.51,4.95-2.11-.53-1.17-6.19-.98-7.01.05-1.34-.64-.02-1.12.72-.1-.34-.16-.58.07-1.44M790.14,173.84l12.43,8.49v17.88c-19.76,11.19-41.89,17.68-64.7,18.16h-.37s-1.73,1.43-2.57,2.13h0s0,0,0,0c-.84-.7-2.57-2.13-2.57-2.13h-.37c-22.81-.48-44.94-6.97-64.68-18.16l-.02-17.88,12.42-8.49c.31.17.62.34.92.52.05,1.78-1.21,2.7-.92,4.52.23,1.52,1.16,2.61,2.27,3.11.29.67.84,1.21,1.58,1.52.76.28.67-.37.65-1.34.17-.05.33-.1.49-.18.21.72.68,1.26,1.29,1.56.27.55.77,1.05,1.75,1.7.97.45.32-.6.14-1.55.36-.09.72-.24,1.08-.48.13.29.3.55.57.74.08.07.18.14.27.2.25.99.94,1.57,1.99,2.16.71.23.44-.57.36-1.33.98.01,1.85-.53,2.23-2.13.19-.76.17-1.24.13-1.64,11.79,5.01,24.53,8.42,36.99,8.81.44.34,3.43,2.59,3.43,2.59,0,0,2.99-2.25,3.43-2.59,12.39-.38,25.05-3.75,36.79-8.72-.03.39-.03.86.15,1.56.39,1.6,1.24,2.14,2.22,2.13-.07.76-.34,1.56.37,1.33,1.06-.6,1.75-1.17,1.99-2.17.09-.06.19-.12.27-.19.26-.18.44-.44.57-.74.36.24.71.39,1.08.48-.18.95-.84,2,.14,1.55.97-.65,1.48-1.15,1.74-1.7.61-.3,1.08-.84,1.29-1.56.16.08.33.14.49.18-.01.96-.11,1.62.65,1.34.74-.31,1.29-.85,1.59-1.52,1.1-.5,2.04-1.58,2.27-3.11.28-1.79-.92-2.71-.92-4.43.36-.2.73-.41,1.09-.62M681.24,175.78c.8-2.08-.48-6.32.84-6.62,1.69-.39,3.16,2.07,3.7,3.85.17.5.14,1.27.07,1.44-.48-.75-1.18-2.06-1.13-.73.19.82,1.13,6.49-.99,7.01-1.88.48-4.06-.9-2.5-4.95M687.52,170.6c1.37-.1,2.41,1.23,2.94,2.62.08.62.18,1.27.04,2.28-.06.42-.14.81-.23,1.18-.4-.83-1.15-3.09-1.15-1.62,0,1.04.1,7.01-1.87,7.19-1.92.18-2.35-1.54-1.34-3.62,1-2.05.26-7.93,1.61-8.04M694.35,175.11c-1.62,2.92-.18,8.38-2.03,8.5-5.3.34-1.37-6.3-1.17-7.96.25-2.12.02-5.21,2.08-4.57,1.85.56,4.21,6.57,5.36,8.37,0,.02.03.04.06.06-.42-.17-.84-.34-1.26-.52.12.04.21.07.27.08-1.89-.74-2.98-5.32-3.31-3.97M776.41,171.08c2.07-.64,1.85,2.45,2.09,4.57.19,1.65,4.13,8.3-1.17,7.96-1.85-.12-.41-5.58-2.03-8.5-.28-1.21-1.17,2.54-2.73,3.84-.5.21-1.02.41-1.53.62,1.22-2.06,3.58-7.94,5.37-8.49M747.52,171.87c1.32,7.71-6.28,8.14-7.41,2.19-.14-.75-.34-3.04-.59-6.07-.57-10.35-1.42-26.76-1.47-29.86,1.28-.82,2.81-1.44,4.37-1.85.84,5.84,4.74,33.52,5.1,35.59M748.29,135.88c.82.15,1.5.43,1.99.84.75.51,1.56,1.23,2.43,2.08,1.36,5.18,6.91,25.9,7.4,27.98.61,2.5,1.26,4.78,2.31,5.83-3.35.63-5.72,0-6.5-3.04-1.01-4.77-6.25-28.45-7.63-33.69M753.94,169.69c.44,2.54,2.47,6.17.14,6.73-3.61.89-3.93-1.12-4.51-4.22-.02-.09-5.08-33.23-5.8-36.21,1.16-.21,2.29-.3,3.31-.24.75,3.65,6.5,31.89,6.86,33.95M732.16,172.84c0-4.02.62-29.64.74-33.77,1.02.89,1.72,1.94,1.92,3.11.21-1.17.91-2.22,1.94-3.11.11,4.13.73,29.75.73,33.77,0,4.37-1.15,5.95-2.67,6.85-1.51-.9-2.66-2.48-2.66-6.85M707.56,166.51c-.98,3.49-3.36,7.12-3.92,7.68,2.05.77,5.79,1.38,8.43.34-.38,1.37-.36,2.63.82,3.8,1.44,1.44,5.5,2.48,7.47-.91,1.59,5.64,7.66,5.37,10.06,1.43,1.03,3.27,3.17,3.69,4.41,4.92,1.23-1.23,3.38-1.64,4.42-4.92,2.39,3.94,8.48,4.21,10.06-1.43,1.98,3.39,6.03,2.35,7.47.91,1.17-1.17,1.19-2.43.82-3.8,2.64,1.04,6.37.44,8.43-.34-.55-.56-2.94-4.19-3.93-7.68-1.2-4.24-5.61-19.53-7.6-25.8,5.37,6.18,11.52,16.64,11.92,22.15.17-.78.53-1.73.86-2.76,1.24,2.58,4.22,7.85,4.72,9.09.52,1.3.67,2.16.28,3.89-.27,1.25-1.41,5.05-3.84,7.48,0,0,0,.01.01.02-9.75,3.63-20.01,5.88-30.54,6.17-.86.7-2.98,2.3-2.98,2.3,0,0-2.12-1.59-2.97-2.3-10.5-.29-20.73-2.53-30.44-6.13,0,0,.01-.02.02-.03-2.44-2.44-3.88-6.26-4.16-7.51-.37-1.73-.23-2.58.3-3.89.5-1.24,3.48-6.52,4.72-9.09.33,1.03.69,1.98.85,2.76.4-5.5,6.56-15.97,11.93-22.15-1.98,6.27-6.4,21.56-7.61,25.8M713.74,169.56c-.78,3.05-3.15,3.68-6.5,3.04,1.04-1.05,1.7-3.33,2.31-5.83.49-2.08,6.04-22.8,7.41-27.98.86-.86,1.68-1.57,2.42-2.08.49-.41,1.18-.68,1.99-.84-1.39,5.24-6.62,28.92-7.63,33.69M727.23,136.28c1.56.41,3.09,1.04,4.38,1.85-.06,3.11-.9,19.49-1.48,29.85-.23,3.05-.44,5.33-.59,6.09-1.14,5.94-8.72,5.52-7.41-2.19.35-2.07,4.26-29.75,5.1-35.59M720.09,172.19c-.58,3.1-.9,5.11-4.51,4.22-2.33-.55-.29-4.18.14-6.73.38-2.2,6.04-29.77,6.86-33.95,1.02-.06,2.14.03,3.3.24-.72,2.98-5.78,36.13-5.8,36.21M690.67,168.8c.38-.84.27-2.05.56-2.53.22-.35,1-.85,1.35-1.55.35-.7.26-2.23.6-3,.34-.76.8-1.08,1.11-2.08.1-.32.33-2.25.58-2.92.43-1.11,1.73-2.75,3.04-3.85,0,2.63.03,3.35.49,6.4,1.29-1.3,2.23-2.19,3.07-3.25-.04,1.95-.22,2.41-.95,3.86-.65,1.27-.33,1.96-.97,3.24-.63,1.3-1.62,1.56-2.15,2.39-.7,1.08-.35,2.87-1.21,3.73-.58.58-.85,1.05-.64,2.54-.51-.85-1.16-1.39-1.71-1.75-1.08-.68-2.52-.53-3.1.77-.19-.3-.4-.62-.65-.89.2-.35.39-.75.57-1.14M690.83,93.51c0,2.51-2.22,5.02-4.97,7.07.36-1.35.57-2.85.57-4.55v-9.14c0-1.46-.12-3.55.11-5.21,2.02-1.5,3.45-3.15,4.44-4.85-.02,5.91-.15,14.97-.15,16.69M686.4,104.02c2.07-1.57,3.6-3.3,4.5-4.93-.04,4.1-.09,7.86-.09,8.9,0,2.33-1.9,4.66-4.38,6.62v-7.53c0-.87-.04-1.97-.03-3.06M690.82,129.13c0,2.33-1.9,4.66-4.38,6.61v-5.38c0-1.3-.09-8.47.05-11.9,2.08-1.59,3.59-3.36,4.48-4.99-.02,5.88-.14,14.04-.14,15.66M683.59,87.88v7.55c0,4.91-2.45,8-5.08,9.7.52-1.53.83-3.3.83-5.36v-11.12c0-.58,0-1.21.02-1.83,1.4-.86,2.55-1.85,3.5-2.94.3-.15.58-.29.86-.44-.09,1.07-.13,2.5-.13,4.44M679.21,124.85c.08-.71.13-1.46.13-2.26v-11.12c0-.84,0-1.77.07-2.67,1.08-.65,2.14-1.43,3.11-2.4.38-.18.74-.37,1.09-.57,0,.66-.01,1.41-.01,2.26v7.55c0,4.47-2.03,7.43-4.38,9.21M683.59,131.36v7.56c0,4.38-1.95,7.31-4.25,9.11v-9.33c0-.94-.02-6.52.09-9.71,1.51-.91,3-2.1,4.22-3.7-.05,2.05-.07,4.67-.07,6.08M676.51,114.48v7.51c0,5.06-2.6,8.2-5.33,9.86.04-.54.06-1.08.06-1.67v-13.02c0-.41,0-2.32,0-4.01,1.05-.54,2.12-1.22,3.14-2.05.66-.24,1.41-.53,2.2-.87,0,1.4-.08,1.39-.08,4.25M676.51,141.7v7.52c0,5.02-2.55,8.14-5.27,9.82v-12.87c0-.54,0-6.7,0-10.2,1.88-.99,3.82-2.33,5.33-4.34-.02,2.94-.07,7.87-.07,10.06M670.62,109.35c.4-1.38.62-2.95.62-4.73v-13.83c.95-.49,1.91-1.09,2.83-1.8.88-.23,1.69-.49,2.46-.78-.04.86-.02,1.9-.02,3.45v7.52c0,5.41-2.96,8.61-5.89,10.19M668.41,121.29v8.3c0,5.6-3.44,9.17-6.22,10.43.38-1.35.6-2.88.6-4.62v-.18s0,0,0,0c0-.19,0-.37,0-.57v-7.86c0-2.01-.12-5.82-.06-8.59,1.66-.82,3.39-1.92,4.86-3.49.3-.12.61-.24.94-.37-.08,2.36-.14,5.46-.14,6.93M668.41,150.31v8.29c0,5.95-3.8,9.3-6.16,10.33.54-.71.55-2.37.55-5.25v-7.86c0-.93-.03-5.83-.04-11.96,1.96-.88,4.12-2.16,5.78-4.35-.08,4.05-.13,9.36-.13,10.8M662.73,95.86c1.66-.82,3.4-1.92,4.87-3.5.3-.11.61-.23.93-.35-.07,1.04-.13,2.27-.13,3.73v8.29c0,5.7-3.28,8.95-6.35,10.42.47-1.46.74-3.14.74-5.07v-8.13c0-1.83-.09-3.65-.07-5.39M653.2,119.39c.55-.71,1.14-2.66,1.14-5.54v-13.28c1.5-.75,3.06-1.73,4.43-3.09.41-.15.85-.31,1.32-.49-.08,1.07-.14,2.26-.14,3.61v8.17c0,5.95-3.58,9.23-6.76,10.61M659.95,126.17c0,1.55-.14,9.52-.14,10.48,0,4.14-3.79,7.54-6.62,8.76.55-.7,1.14-2.65,1.14-5.53v-16.96c1.5-.75,3.06-1.73,4.43-3.08.43-.16.89-.34,1.4-.54-.14,2.2-.21,5.13-.21,6.84M659.95,155.18v9.46c0,1.19-.11,4.67-.13,8.67,0,0,0,0,0,0v6.35c0,3.98-3.79,7.53-6.62,8.76.55-.71,1.14-2.65,1.14-5.54v-33.92c1.76-.88,3.61-2.07,5.13-3.82.17-.07.35-.13.54-.21-.04,5.31-.05,9.44-.05,10.25M715.61,19.91h0c-.74.21-4.65.88-5.14.38.86-.45,1.44-.7,3.08-1.74,1.19.09,2.35.82,4.2,1.94-1.03-.42-1.14-.77-2.13-.58M818.14,124.16c.81.3,1.51.55,2.07.77-2.23-3.37-2.07-8.82-2.07-10.12v-13.02c.81.31,1.51.55,2.07.78-2.23-3.38-2.07-8.83-2.07-10.12v-30.31c0-8.38-12.82-28.7-23.66-28.97-7.7-.19-16.73,10.63-27.77,7.83-3.55-.92-6.37-4.73-8.71-9.43-4.11-8.41-8.08-19.66-18.1-26.18-11.1-7.2-23.88.84-25.34,2.12-1.25,1.16-3.26,4.61-4.32,5.16-3.47,1.81-4.04,4.85-4.04,6.01s.26,3.95,2.37,5.54c-.29-1.37-.37-2.13-.05-2.83,1.38.23,4.42.85,6.39.05.96.96,3.27,2.81,4.27,4.72,1.4,2.65,1.41,3.05,1.41,4.09,0,2.69-1.26,6.54-5.09,9.05-4.03,2.87-13.54,4.49-25.45.4-6.45-2.2-9.1-6.68-14.86-6.53-10.84.27-23.67,20.59-23.67,28.97v30.31c0,1.29.17,6.75-2.06,10.12.56-.23,1.27-.48,2.06-.78v13.02c0,1.29.17,6.75-2.06,10.12.56-.22,1.27-.47,2.06-.77v16.69c0,1.29.17,6.74-2.06,10.12.56-.23,1.27-.45,2.06-.75v33.64c0,.96.09,4.27-.8,7.3-.3,1.01.38,2.22,1.44,1.8,4.34-1.73,10.66-5.12,10.66-14.55v-5.31c3.12-1.37,6.86-3.79,8.06-9.69,3.54-1.76,7.46-4.81,8.32-10.96,3.63-2.11,7.22-5.75,7.26-12.81,3.15-2.39,5.02-5.19,5.4-7.36.26-1.46.44-4.95.51-8.99,2.28-1.66,3.92-3.56,4.86-5.28-.37,8.75-2.12,20.52-6.23,36.81.73,0,1.7-.16,2.69-.4-.55,3.28-3.34,11.11-5.21,14.66-.25-.02-.52-.02-.82.02-.62.11-1.06.7-1.36,1.44-.84-1.29-1.9-3.37-4.36-2.57-1.27.42-1.75,1.42-1.85,2.49-2.05,1.29-15.93,9.9-15.93,9.9v21.46c20.61,12.2,43.32,19.56,67.82,20.07.8.8,2.97,2.46,2.97,2.46,0,0,2.18-1.66,2.98-2.46,24.49-.51,47.2-7.87,67.82-20.07v-21.46s-15.05-9.34-16.13-10.03c-.13-1.01-.62-1.95-1.84-2.36-2.46-.8-3.52,1.29-4.36,2.57-.29-.75-.75-1.33-1.37-1.44-.3-.04-.57-.04-.81-.02-1.87-3.55-4.68-11.37-5.22-14.66,1,.23,1.97.4,2.69.4-4.12-16.29-5.87-28.06-6.23-36.81.93,1.72,2.57,3.6,4.83,5.27.07,4.04.25,7.55.51,9.01.38,2.17,2.26,4.98,5.42,7.37.04,7.05,3.64,10.7,7.26,12.8.87,6.16,4.78,9.21,8.32,10.96,1.21,5.9,4.93,8.33,8.07,9.69v5.31c0,9.32,6.17,12.75,10.51,14.5,1.11.44,2.03-.4,1.74-1.21-1.07-3.16-.96-6.81-.96-7.83v-33.61c.81.3,1.51.49,2.07.72-2.23-3.38-2.07-8.83-2.07-10.12v-16.69ZM787.1,198.69c-.29.11-.59.23-.89.35-.08-.21-.16-.41-.24-.62.2-.37.39-.75.59-1.12.4.14.8.27,1.21.41.08.21.17.41.25.62-.31.12-.61.24-.91.36M785.69,195.12c-.57,1.12-1.16,2.24-1.76,3.35.15.42.31.83.46,1.25-.61.22-1.22.45-1.84.67-1.1-3.08-2.19-6.16-3.29-9.24-.17-.48-.15-1.02.46-1.41-1.1-.43-2.19-.87-3.27-1.33,1.43,4.2,2.87,8.41,4.3,12.61.18.52.36,1.06.54,1.58.47-.16.93-.32,1.39-.48l.44-.15c1.53-.55,3.07-1.13,4.59-1.72.91-.36,1.82-.73,2.72-1.11-.39-.92-.78-1.85-1.16-2.77-1.2-.4-2.39-.82-3.58-1.25M799.41,195c.58-.29,1.16-.59,1.75-.89-1.77-3.4-3.54-6.79-5.3-10.19-.23-.45-.29-.98.27-1.46-1.16-.27-2.32-.55-3.46-.85,2,3.97,3.99,7.94,5.99,11.9.25.5.51,1,.75,1.5M768.01,93.55s.04.05.03.08c0,.02-.03.05-.06.06l-1.77.4-.39,1.53s-.04.05-.07.06h0s-.06-.01-.06-.04l-.88-1.42-1.76-.05s-.06-.02-.07-.05c-.01-.03,0-.06,0-.08l1.12-1.3-.44-1.65s0-.06.02-.08c.03-.02.06-.03.09,0l1.6.71,1.39-.9s.03-.01.05-.01.03,0,.05.01h0s.03.05.03.08l-.3,1.55,1.42,1.13ZM750.33,112.23l-.78-3.02s-.04-.05-.07-.06c-.03,0-.06,0-.07.03,0,0-1.54,2.23-2,2.85-.77-.02-3.49-.22-3.49-.22-.03,0-.06.02-.07.05,0,.01,0,.05,0,.08l1.89,2.51c-3.38,1.29-7.05,2-10.87,2s-7.73-.76-11.21-2.14l1.78-2.37s.02-.06.01-.08c-.02-.02-.05-.05-.08-.04,0,0-2.73.21-3.49.22-.47-.61-2-2.84-2-2.84-.01-.03-.05-.04-.07-.04-.03,0-.06.03-.07.06l-.73,2.78c-6.21-3.77-10.96-9.69-13.25-16.72l2.84-.07s.06-.02.07-.05c.02-.02,0-.06,0-.08,0,0-1.78-2-2.29-2.6.2-.77.95-3.34.95-3.35,0-.03,0-.06-.02-.07-.02-.03-.05-.03-.08-.02l-2.63,1.17c-.2-1.43-.33-2.88-.33-4.37,0-6.22,1.87-12.01,5.08-16.84l1.73,2.06s.03.03.06.03c0,0,0,0,.02,0,.03,0,.05-.03.06-.06,0,0,.46-2.65.61-3.39.74-.32,3.27-1.3,3.28-1.31.03-.01.05-.03.06-.07,0-.03-.02-.06-.05-.07l-2.49-1.29c4.98-5.29,11.8-8.82,19.44-9.52l-.55,2.85s0,.06.03.07c0,0,.02.01.04.01,0,0,.02,0,.04,0,0,0,2.36-1.36,3.04-1.7.68.34,3.05,1.69,3.05,1.69.02,0,.06,0,.08,0,.02-.02.04-.05.03-.08l-.56-2.87c7.74.6,14.69,4.09,19.76,9.39l-2.79,1.45s-.05.05-.04.07c0,.04.02.06.05.07,0,0,2.54.98,3.27,1.31.15.74.61,3.39.61,3.39,0,.03.03.06.06.07,0,0,.01,0,.01,0,.03,0,.05-.01.06-.03l1.98-2.36c3.32,4.9,5.27,10.8,5.27,17.14,0,1.55-.13,3.07-.35,4.56l-3.05-1.36s-.07,0-.08,0c-.03.02-.04.06-.03.08,0,0,.75,2.58.96,3.35-.51.6-2.28,2.6-2.29,2.6-.02.02-.03.06-.01.08.01.03.05.05.07.05l3.28.09c-2.34,7.17-7.24,13.19-13.64,16.96M751.14,114.12s0,.03-.02.03l-1.39.75.02,1.79s-.02.06-.04.07h-.04s-.03,0-.05-.01l-1.41-1.11-.86.36-.59.25h0s0,0,0,0c-.02,0-.05,0-.07-.01,0-.01,0-.03,0-.04,0-.01-.02-.03,0-.04l.24-.65.33-.89-.44-.59h0l-.61-.81s0-.03,0-.04c0-.01-.01-.03,0-.05,0-.01.02-.02.04-.02.01,0,.02-.02.03-.02l1.68.05,1.04-1.37s.05-.03.07-.02c.03,0,.05.02.06.05,0,0,0,0,0,0l.26.99.18.71,1.17.39.4.13s.05.04.06.07c0,.02-.02.03-.02.04M723.1,113.17s0,.03,0,.05l-.6.81-.45.6.24.65.33.89s0,.07-.02.08c0,0,0,0-.02,0-.01,0-.04.01-.07,0l-.39-.16-.77-.32s.03,0,.04.01l-.33-.14-.53.42-.88.68s-.03.02-.05.02h-.04s-.04-.05-.04-.07v-1.79s-1.37-.75-1.37-.75c-.03-.01-.05-.05-.05-.08h0s.02-.05.05-.07l.78-.26.79-.26.24-.92.2-.78s.04-.05.06-.05c.03,0,.07,0,.08.02h0l.52.69.52.68,1.67-.04s.06,0,.07.04c0,0,0,.02,0,.04M703.57,95.62s-.03.04-.06.04h-.01s-.06-.04-.07-.06l-.39-1.53-1.76-.4s-.05-.03-.06-.06c0-.03,0-.06.03-.08l1.42-1.13h0s-.06-.34-.06-.34h0s-.24-1.21-.24-1.21c0-.02,0-.04.01-.06,0,0,.01-.02.02-.02.03-.01.06-.01.09,0l1.39.9.87-.38.74-.33s.06,0,.08,0c.03.02.03.05.03.07l-.45,1.65,1.12,1.3s.02.05,0,.08c0,.02-.04.04-.07.05l-1.76.05-.88,1.42ZM707.53,67.28l.95-1.26-.8-1.61s0-.06,0-.08c.02-.02.05-.03.07-.03l1.78.41,1.03-1.21s.06-.03.09-.02c.03,0,.05.03.05.07l.13,1.65,1.57.82s.05.04.05.07c0,.03-.01.06-.05.07l-1.54.69-.34,1.68s-.03.06-.06.06h-.02s-.05,0-.06-.02l-.42-.5-.71-.85-1.57.2h-.07s-.07,0-.08-.03c-.01-.03-.01-.06,0-.09M732.16,53.1s.03-.03.06-.03l1.57-.07.78-1.64s.04-.05.07-.05c.03,0,.07.02.07.05l.78,1.64h.14s0,0,0,0l1.07.05h0c.13,0,.26,0,.39.02.02,0,.04.02.04.05h0s0,.06-.01.08l-1.18,1.14.34,1.73s-.01.06-.04.07c-.01,0-.03.02-.04.02-.01,0-.03,0-.04,0l-1.52-.77-1.51.77s-.06,0-.08,0c-.02-.02-.04-.05-.03-.07l.15-.81.19-.93-1.19-1.14s-.03-.06-.01-.08c0,0,0-.01.01-.02M757.75,65.54l.68-.35.13-1.65s.02-.06.05-.06c.01,0,.03,0,.04,0,.02,0,.03.01.04.02l1.03,1.22.14-.04,1.64-.37s.06,0,.08.03c.02.02.02.05,0,.08l-.8,1.61.94,1.27s.03.06,0,.08c-.02.03-.05.04-.07.04l-1.65-.21-1.14,1.35s-.04.03-.06.03c-.01,0-.02,0-.02,0-.03,0-.05-.03-.05-.06l-.34-1.68-1.54-.69s-.05-.04-.05-.07.01-.06.05-.07l.89-.47ZM768.33,88.51s0-.06-.03-.07c-.03-.02-.06-.02-.09,0,0,0-.27.19-.64.46.09-1.02.15-2.03.15-3.07,0-6.26-1.77-12.1-4.82-17.09.61.11,1.09.19,1.09.19.03,0,.06,0,.08-.03.02-.02.02-.06,0-.08,0,0-1.53-2.28-1.98-2.9.35-.71,1.41-3.05,1.41-3.05.02-.02,0-.06,0-.08-.02-.02-.05-.03-.07-.03l-3.25.74c-.52-.61-2.34-2.64-2.34-2.64-.02-.02-.05-.03-.09-.02-.02.01-.05.04-.05.07l-.1,1.23c-5.02-4.82-11.58-8.06-18.85-8.91.56-.5,1.04-.94,1.04-.94.02-.02.03-.05.02-.08-.01-.03-.04-.05-.07-.05,0,0-2.76-.19-3.53-.23-.33-.69-1.5-2.97-1.5-2.97l-.02-.03s-.04-.02-.07-.01c-.02,0-.04.02-.05.04,0,0-1.16,2.28-1.48,2.98-.76.04-3.53.22-3.53.22-.04,0-.07.02-.07.05,0,.03,0,.07.02.08,0,0,.51.45,1.08.97-7.31.96-13.87,4.32-18.86,9.27l-.13-1.64s-.02-.05-.06-.07c-.02,0-.06,0-.08.02,0,0-1.82,2.03-2.34,2.64l-3.24-.74s-.06,0-.07.03c-.01.03-.02.06,0,.08,0,0,1.06,2.35,1.41,3.05-.45.62-1.98,2.9-1.98,2.9-.02.03-.02.06,0,.09.01.02.05.03.08.03,0,0,.75-.13,1.57-.27-3.08,5-4.86,10.88-4.86,17.17,0,1.15.07,2.29.18,3.41-.61-.42-1.12-.79-1.12-.79-.02-.03-.06-.03-.09,0-.03.02-.04.04-.03.07,0,0,.38,2.7.53,3.47l-2.63,2.09s-.03.05-.03.08c0,.03.03.05.06.06,0,0,2.52.62,3.29.79.2.75,1.02,3.35,1.02,3.35,0,.03.03.05.07.06h0s.06-.01.07-.04c0,0,.32-.58.69-1.25,2.44,6.65,6.98,12.29,12.79,16.14-.75.21-1.41.4-1.41.41-.03,0-.06.04-.06.07,0,.03.01.06.04.07,0,0,2.4,1.38,3.07,1.75,0,.45.05,3.35.05,3.35,0,.03.02.05.04.07.02,0,.03,0,.03,0,.02,0,.04,0,.05-.02l2.62-2.05,3.29,1.38s.06,0,.08,0c.02-.02.03-.06.01-.09,0,0-.25-.62-.54-1.34,3.38,1.18,7,1.83,10.78,1.83,3.58,0,7.03-.58,10.26-1.64-.26.64-.47,1.15-.47,1.15,0,.03,0,.07.02.08.02.02.05.03.07.01l3.29-1.38,2.62,2.06s.03,0,.05,0h.03s.05-.04.05-.07c0,0,.04-2.9.04-3.35.68-.36,3.08-1.75,3.08-1.75.03-.01.05-.04.04-.07,0-.04-.02-.06-.06-.07,0,0-.49-.14-1.11-.32,5.75-3.76,10.25-9.26,12.75-15.75.25.44.43.77.43.77.01.03.05.04.07.04h.01s.06-.03.06-.06c0,0,.82-2.6,1.02-3.35.77-.16,3.28-.79,3.28-.79.02,0,.06-.03.06-.06,0-.03,0-.07-.03-.07l-2.62-2.09c.14-.77.52-3.47.52-3.47M794.91,194.61c.09.2.19.4.28.6-.3.14-.6.28-.9.41-.29.14-.58.27-.88.4-.09-.2-.18-.4-.27-.61.18-.38.35-.76.53-1.15.41.12.82.23,1.24.34M793.21,190.97c-.17.39-.34.78-.52,1.17-.4-.13-.8-.25-1.2-.38-1.19-2.63-2.38-5.26-3.57-7.89-.5,1.2-1.01,2.39-1.54,3.59.73-.11,1.27.2,1.46.65.68,1.57,1.37,3.15,2.06,4.73.04.1.09.21.14.31.63.21,1.28.41,1.92.61-.28.61-.57,1.23-.86,1.84.4.92.8,1.84,1.2,2.75.9-.39,1.79-.79,2.69-1.2.89-.41,1.78-.84,2.67-1.27-.43-.9-.87-1.8-1.31-2.7-.66-.18-1.31-.35-1.96-.54.27-.62.53-1.24.8-1.85-.81-1.65-1.61-3.3-2.41-4.96-.21-.44-.1-1.05.47-1.53-1.25-.37-2.49-.75-3.72-1.16,1.23,2.61,2.46,5.22,3.68,7.84M753.47,196.28c-.98-.65-1.94-1.31-2.88-1.98.59,4.97,1.19,9.92,1.78,14.89.65-.07,1.28-.15,1.92-.24-.51-3.79-1.01-7.59-1.52-11.38-.07-.5.04-1.02.71-1.28M772.54,193.33c-.14-.48-.1-1.02.52-1.37-1.07-.49-2.13-.99-3.18-1.51,1.2,4.27,2.4,8.55,3.61,12.82.15.54.3,1.07.46,1.61.62-.18,1.23-.35,1.85-.54-1.09-3.67-2.17-7.34-3.26-11.01M742.14,206.7c-.41-.65-.81-1.3-1.2-1.95.19,0,.38-.01.56-.02.02-.48.19-.75.49-1.03.33.25.55.49.61.97.18,0,.37-.02.55-.03-.33.68-.67,1.37-1.02,2.05M746.52,197.06c.71.11.93.59.97,1.09.3,3.25.61,6.51.91,9.77-1.68.15-3.35.28-5.03.37.9-1.83,1.78-3.67,2.61-5.52-.73.06-1.45.11-2.19.16-.31-.56-1.21-1.18-1.9-1.22-.66.11-1.51.8-1.74,1.39-.73.02-1.46.05-2.19.06,1,1.76,2.05,3.51,3.13,5.24-1.64.07-3.28.1-4.92.11,0-1.67-.01-3.34-.02-5-.91.84-1.85,1.67-2.79,2.49.57,0,.93.35.93.86-.01,1.38-.03,2.77-.04,4.16,0,.92-.88,1.67-1.96,1.64-.87-.02-1.57-.51-1.82-1.16.25,1.12,1.41,1.99,2.82,2.01,1.62.02,2.91-1.1,2.89-2.49,0-.27,0-.55,0-.82,2.05-.01,4.08-.07,6.12-.16,2.09-.1,4.17-.25,6.25-.44.09,0,.18-.01.27-.03.55-.05,1.1-.1,1.65-.16-.53-4.98-1.05-9.93-1.58-14.91-.77.87-1.57,1.73-2.37,2.58M767.81,200.28c.75-.02,1.05.42,1.17.89.26,1.03.52,2.06.78,3.09-2.77.7-5.55,1.31-8.35,1.84-.38.07-.75.14-1.13.21-.58-.34-1.16-.7-1.72-1.05,1.31-1.33,2.12-3.69,1.63-5.68-.32,2.76-1.57,4.72-4.65,5.83,1.4.92,2.83,1.81,4.28,2.69.64-.11,1.27-.23,1.91-.35,3.47-.65,6.91-1.44,10.33-2.35-.71-2.68-1.43-5.36-2.14-8.04-.68.99-1.38,1.96-2.1,2.94M777.38,196.87c-.62,1.08-1.27,2.16-1.92,3.22.53-.16.99.05,1.15.53.41,1.33.82,2.65,1.23,3.97.27.87-.36,1.86-1.41,2.17-.82.24-1.64,0-2.08-.56.58.99,1.94,1.47,3.3,1.06,1.58-.48,2.48-1.95,2.05-3.27-.77-2.38-1.55-4.76-2.32-7.13M712.3,13.41c-.62,0-1.11.41-1.11.91,0,.45.41.83.94.89-.05-.07-.07-.16-.07-.23,0-.38.46-.68,1.04-.68.12,0,.23.01.33.04h0c0-.52-.5-.93-1.12-.93"/>
</svg>