<?xml version="1.0" encoding="UTF-8"?>
<svg id="Layer_1" data-name="Layer 1" xmlns="http://www.w3.org/2000/svg" viewBox="0 0 226.77 70.87">
  <defs>
    <style>
      .cls-1 {
        fill: #ad833b;
      }
    </style>
  </defs>
  <g>
    <path class="cls-1" d="M74.86,33.13c-.46.85-.75,1.43-.87,1.73-.02,0-.08-.01-.19-.03-.11-.02-.17-.03-.2-.02l.33,4.57c.01.12-.1.46-.32.99-.21.5-.37.84-.48,1-.31.46-.78.87-1.41,1.24-.77.44-1.55.65-2.34.65-.7,0-1.28-.16-1.73-.48-.5-.37-.76-.89-.76-1.56s.21-1.46.64-2.41c.41-.9.72-1.34.93-1.34.05,0,.07.03.07.09s-.14.38-.42.96c-.28.58-.42,1-.42,1.27,0,.53.22.96.67,1.28.4.29.88.44,1.44.44.62,0,1.29-.12,2-.35.76-.25,1.12-.5,1.1-.75l-.7-5.78c-.03-.3-.16-.53-.37-.69-.21-.16-.31-.3-.31-.43,0-.23.12-.58.37-1.06.23-.45.42-.74.56-.86,0,.35.19.62.57.82.22.12.59.25,1.11.39.42.11.66.21.71.31Z"/>
    <path class="cls-1" d="M82.79,40.6h-1.2c-.1.02-.18-.08-.24-.31-.07-.23-.16-.5-.28-.82l-.05-.09-.09.05c-.12.06-.26.28-.43.68-.15.35-.28.51-.4.48h-3.76c-.25,0-.37-.12-.35-.37.03-.49.14-1.22.35-2.19.16-.51.27-.77.35-.77.05,0,.07.26.08.79,0,.53.14.79.41.79h3.64l.02-.1c.04-.23-.06-.77-.3-1.61-.24-.87-.37-1.28-.37-1.25l.83-1.73c.14.48.47,1.79.99,3.94.12.5.27.75.43.75h.37v1.74Z"/>
    <path class="cls-1" d="M84.01,40.6h-1.62v-1.74h1.62v1.74Z"/>
    <path class="cls-1" d="M85.11,40.6h-1.62v-1.74h1.62v1.74Z"/>
    <path class="cls-1" d="M86.21,40.6h-1.62v-1.74h1.62v1.74Z"/>
    <path class="cls-1" d="M87.3,40.6h-1.62v-1.74h1.62v1.74Z"/>
    <path class="cls-1" d="M88.4,40.6h-1.62v-1.74h1.62v1.74Z"/>
    <path class="cls-1" d="M89.5,40.6h-1.62v-1.74h1.62v1.74Z"/>
    <path class="cls-1" d="M90.59,40.6h-1.62v-1.74h1.62v1.74Z"/>
    <path class="cls-1" d="M91.69,40.6h-1.62v-1.74h1.62v1.74Z"/>
    <path class="cls-1" d="M92.79,40.6h-1.62v-1.74h1.62v1.74Z"/>
    <path class="cls-1" d="M93.88,40.6h-1.62v-1.74h1.62v1.74Z"/>
    <path class="cls-1" d="M94.98,40.6h-1.62v-1.74h1.62v1.74Z"/>
    <path class="cls-1" d="M96.08,40.6h-1.62v-1.74h1.62v1.74Z"/>
    <path class="cls-1" d="M97.17,40.6h-1.62v-1.74h1.62v1.74Z"/>
    <path class="cls-1" d="M98.27,40.6h-1.62v-1.74h1.62v1.74Z"/>
    <path class="cls-1" d="M99.37,40.6h-1.62v-1.74h1.62v1.74Z"/>
    <path class="cls-1" d="M100.46,40.6h-1.62v-1.74h1.62v1.74Z"/>
    <path class="cls-1" d="M101.56,40.6h-1.62v-1.74h1.62v1.74Z"/>
    <path class="cls-1" d="M102.66,40.6h-1.62v-1.74h1.62v1.74Z"/>
    <path class="cls-1" d="M103.75,40.6h-1.62v-1.74h1.62v1.74Z"/>
    <path class="cls-1" d="M104.85,40.6h-1.62v-1.74h1.62v1.74Z"/>
    <path class="cls-1" d="M105.95,40.6h-1.62v-1.74h1.62v1.74Z"/>
    <path class="cls-1" d="M107.04,40.6h-1.62v-1.74h1.62v1.74Z"/>
    <path class="cls-1" d="M108.14,40.6h-1.62v-1.74h1.62v1.74Z"/>
    <path class="cls-1" d="M109.24,40.6h-1.62v-1.74h1.62v1.74Z"/>
    <path class="cls-1" d="M110.33,40.6h-1.62v-1.74h1.62v1.74Z"/>
    <path class="cls-1" d="M111.43,40.6h-1.62v-1.74h1.62v1.74Z"/>
    <path class="cls-1" d="M112.53,40.6h-1.62v-1.74h1.62v1.74Z"/>
    <path class="cls-1" d="M113.62,40.6h-1.62v-1.74h1.62v1.74Z"/>
    <path class="cls-1" d="M114.72,40.6h-1.62v-1.74h1.62v1.74Z"/>
    <path class="cls-1" d="M115.82,40.6h-1.62v-1.74h1.62v1.74Z"/>
    <path class="cls-1" d="M116.91,40.6h-1.62v-1.74h1.62v1.74Z"/>
    <path class="cls-1" d="M118.01,40.6h-1.62v-1.74h1.62v1.74Z"/>
    <path class="cls-1" d="M119.11,40.6h-1.62v-1.74h1.62v1.74Z"/>
    <path class="cls-1" d="M120.2,40.6h-1.62v-1.74h1.62v1.74Z"/>
    <path class="cls-1" d="M121.3,40.6h-1.62v-1.74h1.62v1.74Z"/>
    <path class="cls-1" d="M122.4,40.6h-1.62v-1.74h1.62v1.74Z"/>
    <path class="cls-1" d="M123.49,40.6h-1.62v-1.74h1.62v1.74Z"/>
    <path class="cls-1" d="M124.59,40.6h-1.62v-1.74h1.62v1.74Z"/>
    <path class="cls-1" d="M125.69,40.6h-1.62v-1.74h1.62v1.74Z"/>
    <path class="cls-1" d="M126.78,40.6h-1.62v-1.74h1.62v1.74Z"/>
    <path class="cls-1" d="M127.88,40.6h-1.62v-1.74h1.62v1.74Z"/>
    <path class="cls-1" d="M128.98,40.6h-1.62v-1.74h1.62v1.74Z"/>
    <path class="cls-1" d="M130.07,40.6h-1.62v-1.74h1.62v1.74Z"/>
    <path class="cls-1" d="M131.17,40.6h-1.62v-1.74h1.62v1.74Z"/>
    <path class="cls-1" d="M137.9,40.6h-2.03c-.09-.17-.27-.48-.53-.93l-.09-.14-.07.14c-.16.33-.35.64-.56.93h-3.86v-1.74h3.94l-.08-.15c-.35-.6-.84-.89-1.5-.89-.06,0-.14,0-.26.03-.12.02-.2.03-.26.03.27-.54.54-1.05.83-1.51l.09-.14-.07.07s.2-.1.49-.23c.45-.18.88-.27,1.27-.27.65,0,1.19.23,1.64.68.35.35.52.67.52.97,0,.15-.1.37-.29.66-.21.31-.32.53-.34.65l-.02.12h1.16v1.74Z"/>
    <path class="cls-1" d="M139.11,40.6h-1.62v-1.74h1.62v1.74Z"/>
    <path class="cls-1" d="M140.21,40.6h-1.62v-1.74h1.62v1.74Z"/>
    <path class="cls-1" d="M141.3,40.6h-1.62v-1.74h1.62v1.74Z"/>
    <path class="cls-1" d="M142.4,40.6h-1.62v-1.74h1.62v1.74Z"/>
    <path class="cls-1" d="M143.5,40.6h-1.62v-1.74h1.62v1.74Z"/>
    <path class="cls-1" d="M144.59,40.6h-1.62v-1.74h1.62v1.74Z"/>
    <path class="cls-1" d="M145.69,40.6h-1.62v-1.74h1.62v1.74Z"/>
    <path class="cls-1" d="M146.79,40.6h-1.62v-1.74h1.62v1.74Z"/>
    <path class="cls-1" d="M147.88,40.6h-1.62v-1.74h1.62v1.74Z"/>
    <path class="cls-1" d="M148.98,40.6h-1.62v-1.74h1.62v1.74Z"/>
    <path class="cls-1" d="M150.08,40.6h-1.62v-1.74h1.62v1.74Z"/>
    <path class="cls-1" d="M154.63,33.84c-.09.13-.31.42-.65.87l-.6.77.02.02c0,.23.11,1.15.33,2.75.04.27,0,.64-.14,1.11-.15.53-.22.87-.22,1.04,0,.02,0,.03,0,.05,0,.1-.19.14-.57.14h-3.21v-1.74h3.04s.07-.16.07-.35c0-.46-.12-1.19-.37-2.19-.24-.99-.37-1.67-.37-2.02l-.02-.03-.6-.44c.5-1,.88-1.64,1.12-1.93,0,.4.11.68.32.85.49.32,1.1.68,1.83,1.1Z"/>
    <path class="cls-1" d="M158.09,38.03c0,1.22-.29,2.22-.87,3.01l-.77-6.75c0-.16.39-.86,1.18-2.07.3,1.73.45,3.67.45,5.81Z"/>
    <path class="cls-1" d="M167.04,37.71c0,.23-.03.44-.1.65-.1.31-.2.61-.31.92-.14.36-.31.63-.51.81-.13.11-.44.25-.93.42-.49.17-.82.26-.99.26-1.26,0-1.9-.3-1.9-.9,0-.41.14-.91.43-1.48.11-.22.42-.73.93-1.55.45-.73.86-1.3,1.23-1.71.11,0,.66.46,1.64,1.39.33.32.5.72.5,1.2ZM166.76,32.98c-.08.13-.23.33-.45.59-.27.31-.43.46-.5.46.03,0-.41-.23-1.34-.7-.21.2-.43.43-.66.68-.16-.04-.4-.14-.71-.3-.35-.18-.55-.31-.62-.42.24-.23.56-.56.95-.99.09.09.29.22.6.4.31.18.51.26.6.26.05,0,.18-.11.4-.32.22-.22.36-.33.43-.36l1.32.7ZM166.19,38.89c0-.27-.26-.68-.78-1.25-.49-.53-.8-.8-.91-.8-.65.87-.98,1.37-.98,1.51,0,.48.31.71.93.71.24,0,.61-.03,1.1-.09.49-.06.7-.09.65-.09Z"/>
    <path class="cls-1" d="M171.76,39.45c0,1.01-.34,2.08-1.01,3.21-.6,1-1.26,1.5-1.99,1.5-.33,0-1.01-.19-2.05-.58-1.08-.4-1.62-.7-1.62-.88,0-.1.05-.14.14-.14.12,0,.42.08.9.26.47.17.85.26,1.12.26.55,0,1.3-.42,2.26-1.25.98-.84,1.47-1.53,1.47-2.06,0-.23-.24-.58-.71-1.05-.35-.34-.67-.62-.96-.84.08-.17.28-.75.6-1.73.4.22.78.56,1.13,1.05.49.67.73,1.43.73,2.28Z"/>
    <path class="cls-1" d="M174.88,38.03c0,1.22-.29,2.22-.87,3.01l-.77-6.75c0-.16.39-.86,1.18-2.07.3,1.73.45,3.67.45,5.81Z"/>
    <path class="cls-1" d="M180.08,39.45c0,1.01-.34,2.08-1.01,3.21-.6,1-1.26,1.5-1.99,1.5-.33,0-1.01-.19-2.05-.58-1.08-.4-1.62-.7-1.62-.88,0-.1.05-.14.14-.14.12,0,.42.08.9.26.47.17.85.26,1.12.26.55,0,1.3-.42,2.26-1.25.98-.84,1.47-1.53,1.47-2.06,0-.23-.24-.58-.71-1.05-.35-.34-.67-.62-.96-.84.08-.17.28-.75.6-1.73.4.22.78.56,1.13,1.05.49.67.73,1.43.73,2.28ZM178.54,33.76c0,.1-.12.29-.37.58-.22.24-.39.42-.52.52-.12-.09-.29-.22-.52-.4-.35-.27-.53-.44-.53-.5,0-.08.12-.26.35-.56.24-.29.41-.44.52-.44.08,0,.27.11.59.34.31.23.47.38.47.45Z"/>
    <path class="cls-1" d="M185.78,38.69c0,1.21-.29,2.38-.87,3.51-.67,1.33-1.5,1.99-2.49,1.99-.37,0-1.07-.13-2.08-.38-1.07-.27-1.61-.48-1.61-.63,0-.12.08-.19.23-.19s.43.05.82.14c.39.1.68.14.88.14.29,0,.55-.05.78-.15.75-.33,1.48-.81,2.19-1.44.86-.76,1.33-1.46,1.41-2.1.02-.18-.03-.46-.15-.85-.21.6-.41.99-.61,1.2-.28.29-.69.43-1.23.43s-.9-.21-1.06-.64c-.08-.22-.12-.63-.12-1.22,0-.41.25-.99.75-1.76.54-.83,1.04-1.25,1.5-1.25s.88.43,1.23,1.29c.29.71.43,1.35.43,1.9ZM184.41,38.42v-.09c0-.26-.09-.49-.26-.69-.18-.2-.39-.3-.65-.3-.19,0-.41.09-.65.26-.25.18-.37.35-.37.54,0,.13.14.25.43.37.27.11.5.16.7.16.14,0,.41-.08.81-.25Z"/>
  </g>
  <g>
    <path class="cls-1" d="M71.68,20.06c0,.23-.03.44-.1.65-.1.31-.2.61-.31.92-.14.36-.31.63-.51.81-.13.11-.44.25-.93.42-.49.17-.82.26-.99.26-1.26,0-1.9-.3-1.9-.9,0-.41.14-.91.43-1.48.11-.22.42-.73.93-1.55.45-.73.86-1.3,1.23-1.71.11,0,.66.46,1.64,1.39.33.32.5.72.5,1.2ZM71.4,15.32c-.08.13-.23.33-.45.59-.27.31-.43.46-.5.46.03,0-.41-.23-1.34-.7-.21.2-.43.43-.66.68-.16-.04-.4-.14-.71-.3-.35-.18-.55-.31-.62-.42.24-.23.56-.56.95-.99.09.09.29.22.6.4.31.18.51.26.6.26.05,0,.18-.11.4-.32.22-.22.36-.33.43-.36l1.32.7ZM70.83,21.24c0-.27-.26-.68-.78-1.25-.49-.53-.8-.8-.91-.8-.65.87-.98,1.37-.98,1.51,0,.48.31.71.93.71.24,0,.61-.03,1.1-.09.49-.06.7-.09.65-.09Z"/>
    <path class="cls-1" d="M79.55,22.95h-1.2c-.1.02-.18-.08-.24-.31-.07-.23-.16-.5-.28-.82l-.05-.09-.09.05c-.12.06-.26.28-.43.68-.15.35-.28.51-.4.48h-3.76c-.25,0-.37-.12-.35-.37.03-.49.14-1.22.35-2.19.16-.51.27-.77.35-.77.05,0,.07.26.08.79,0,.53.14.79.41.79h3.64l.02-.1c.04-.23-.06-.77-.3-1.61-.24-.87-.37-1.28-.37-1.25l.83-1.73c.14.48.47,1.79.99,3.94.12.5.27.75.43.75h.37v1.74Z"/>
    <path class="cls-1" d="M80.77,22.95h-1.62v-1.74h1.62v1.74Z"/>
    <path class="cls-1" d="M81.87,22.95h-1.62v-1.74h1.62v1.74Z"/>
    <path class="cls-1" d="M82.97,22.95h-1.62v-1.74h1.62v1.74Z"/>
    <path class="cls-1" d="M84.06,22.95h-1.62v-1.74h1.62v1.74Z"/>
    <path class="cls-1" d="M94.98,22.95h-2.31l-.2-1.31c-.26-.03-.95-.05-2.09-.05-.33,0-.89.23-1.68.68-.79.45-1.36.68-1.7.68h-3.44v-1.74h3.77c.35,0,.8-.1,1.36-.31.52-.19.78-.33.78-.4-1.41-.56-2.29-.82-2.63-.8-.32.02-.79.18-1.41.5-.05,0,.03-.17.22-.52.57-1,1.17-1.54,1.81-1.6.09-.01.17-.02.26-.02.5,0,1.06.14,1.68.43,1.06.49,1.74.77,2.03.85,1.12.3,2.02.45,2.7.45-.13.41-.29.88-.49,1.41h1.33v1.74Z"/>
    <path class="cls-1" d="M96.19,22.95h-1.62v-1.74h1.62v1.74Z"/>
    <path class="cls-1" d="M97.29,22.95h-1.62v-1.74h1.62v1.74Z"/>
    <path class="cls-1" d="M98.39,22.95h-1.62v-1.74h1.62v1.74Z"/>
    <path class="cls-1" d="M103.84,22.95h-.83c-.67,0-1.1-.38-1.28-1.15l-.65,1.15h-3.09v-1.74h3.54l.03-.05c.1-.21.16-.75.17-1.62l1.03-1.24c0,.67-.05,1.31-.14,1.91-.05.28.05.52.27.71.21.19.45.28.71.28h.23v1.74ZM103.07,15.59c-.54.72-.88,1.08-1.01,1.08.05,0-.42-.24-1.39-.73-.23.21-.47.44-.71.7-.16-.04-.41-.15-.74-.32-.36-.18-.58-.32-.65-.43.24-.24.58-.59,1.01-1.05.09.1.29.24.61.43.31.19.53.28.63.28.05,0,.18-.11.41-.34.23-.23.38-.35.44-.37l1.41.75Z"/>
    <path class="cls-1" d="M108.96,22.24c-.02.53-.22,1.1-.59,1.71-.4-.4-.69-.66-.89-.8h-.02c-.22-.13-.52-.2-.9-.21.49.01.28.02-.63.02h-2.3v-1.74h2.18c.1,0,.15-.13.15-.4,0-.46-.13-1.19-.38-2.18-.26-.99-.38-1.65-.38-1.98,0-.02-.09-.11-.28-.26-.19-.15-.28-.24-.28-.29,0-.15.17-.51.5-1.08s.55-.85.66-.85c.05,0,.09.12.12.35.03.26.1.43.2.5.5.36,1.05.73,1.66,1.11-.06.07-.24.38-.54.93-.25.44-.43.66-.53.66,0,.2.08,1.1.23,2.71.02.24.37.55,1.05.94.66.38.98.67.97.86Z"/>
    <path class="cls-1" d="M112.35,20.37c0,1.22-.29,2.22-.87,3.01l-.77-6.75c0-.16.39-.86,1.18-2.07.3,1.73.45,3.67.45,5.81Z"/>
    <path class="cls-1" d="M120.36,14.84c-.54.65-.84.97-.91.97-.03,0-.24-.1-.62-.3s-.6-.32-.66-.37c-.21.19-.43.4-.65.65-.16-.04-.38-.14-.67-.29-.31-.16-.51-.3-.6-.41.22-.22.52-.54.91-.97.09.09.28.23.57.41.29.18.48.27.57.27.05,0,.16-.1.36-.29.19-.19.33-.32.43-.39l1.28.71ZM122.69,22.95h-1.06c-.34,0-.58-.23-.73-.68-.05-.16-.13-.55-.23-1.18l-.02-.07-.1.02c-.14.08-.32.35-.54.8-.19.4-.39.6-.6.6-.26,0-.7-.09-1.31-.26-.62-.18-1.07-.26-1.36-.26,0-.27.12-.71.36-1.33.24-.61.45-1.01.64-1.19.23-.22.61-.47,1.12-.75.56-.3.94-.54,1.15-.71,0-.07-.03-.16-.08-.28-.05-.12-.08-.21-.08-.27.21-.28.51-.79.89-1.52h.02c.09.34.24,1.26.45,2.77.2,1.45.33,2.21.37,2.28.09.16.17.25.25.28.03.01.16.02.38.02h.48v1.74ZM120.57,20.37c0-.16-.04-.49-.13-.99-.09-.53-.16-.83-.22-.88-.15.12-.26.26-.33.41-.11.24-.19.39-.22.44-.14.2-.41.39-.8.55-.42.18-.65.29-.7.34.2.07.59.16,1.16.27.43.08.84.1,1.22.05l.02-.19Z"/>
    <path class="cls-1" d="M123.97,22.95h-1.62v-1.74h1.62v1.74Z"/>
    <path class="cls-1" d="M125.07,22.95h-1.62v-1.74h1.62v1.74Z"/>
    <path class="cls-1" d="M130.48,22.95h-1.1c-.62,0-1.04-.38-1.28-1.15l-.64,1.15h-2.81v-1.74h3.24l.03-.05c.09-.22.15-.76.17-1.62.63-.83.98-1.24,1.05-1.24s.02.64-.15,1.91c-.04.27.05.51.27.71.2.19.44.29.71.29h.49v1.74ZM129.52,25.32c-.52.73-.83,1.1-.92,1.1-.01,0-.22-.12-.63-.37-.14-.08-.34-.2-.61-.37-.21.2-.43.43-.66.69-.54-.2-.96-.45-1.25-.75.22-.24.52-.6.9-1.06.07.1.26.24.55.43.29.19.49.28.59.28.04,0,.16-.11.37-.33.23-.25.37-.39.4-.42l1.27.79Z"/>
    <path class="cls-1" d="M135.23,19.8c.07.37.05.86-.04,1.46-.04.39-.12.95-.26,1.69h-4.7v-1.74c2.63,0,4.01,0,4.14-.02-.24-.82-.62-1.51-1.13-2.06.21-.35.51-.83.89-1.46.59.67.95,1.38,1.1,2.13ZM133.99,25.84c.02.07-.12.23-.4.48-.29.26-.47.38-.55.38-.06,0-.28-.13-.65-.39-.37-.26-.58-.42-.6-.48-.01-.05.14-.23.45-.54.31-.31.5-.47.56-.47.04,0,.25.16.62.47.38.31.57.49.57.54Z"/>
    <path class="cls-1" d="M141.67,22.95h-.2l-.63.02c-.27,0-.51-.13-.71-.4-.09.73-.46,1.53-1.1,2.42-.71.99-1.4,1.48-2.07,1.48-.31,0-.94-.2-1.91-.61-1.01-.43-1.51-.73-1.51-.93,0-.08.03-.12.1-.12s.3.09.71.26c.41.18.72.26.95.26.57,0,1.29-.33,2.16-.99,1.18-.9,1.77-1.61,1.77-2.13,0-.14-.16-.43-.47-.87-.26-.36-.46-.64-.63-.82.23-.4.54-.92.91-1.55.2.3.51.75.92,1.36.41.58.83.87,1.26.87h.47v1.74Z"/>
    <path class="cls-1" d="M142.88,22.95h-1.62v-1.74h1.62v1.74Z"/>
    <path class="cls-1" d="M143.97,22.95h-1.62v-1.74h1.62v1.74Z"/>
    <path class="cls-1" d="M150.71,22.95h-2.03c-.09-.17-.27-.48-.53-.93l-.09-.14-.07.14c-.16.33-.35.64-.56.93h-3.86v-1.74h3.94l-.08-.15c-.35-.6-.84-.89-1.5-.89-.06,0-.14,0-.26.03-.12.02-.2.03-.26.03.27-.54.54-1.05.83-1.51l.09-.14-.07.07s.2-.1.49-.23c.45-.18.88-.27,1.27-.27.65,0,1.19.23,1.64.68.35.35.52.67.52.97,0,.15-.1.37-.29.66-.21.31-.32.53-.34.65l-.02.12h1.16v1.74Z"/>
    <path class="cls-1" d="M155.37,16.19c-.09.13-.31.42-.65.87l-.6.77.02.02c0,.23.11,1.15.33,2.75.04.27,0,.64-.14,1.11-.15.53-.22.87-.22,1.04,0,.02,0,.03,0,.05,0,.1-.19.14-.57.14h-3.21v-1.74h3.04s.07-.16.07-.35c0-.46-.12-1.19-.37-2.19-.24-.99-.37-1.67-.37-2.02l-.02-.03-.6-.44c.5-1,.88-1.64,1.12-1.93,0,.4.11.68.32.85.49.32,1.1.68,1.83,1.1Z"/>
    <path class="cls-1" d="M158.82,20.37c0,1.22-.29,2.22-.87,3.01l-.77-6.75c0-.16.39-.86,1.18-2.07.3,1.73.45,3.67.45,5.81Z"/>
    <path class="cls-1" d="M172.43,19.78c0,.29-.07.77-.2,1.45-.17.49-.41,1.06-.71,1.73h-6.4c-.51,0-.97-.16-1.39-.48-.45-.34-.67-.76-.67-1.26,0-.38.1-.97.31-1.79.23-.95.46-1.42.69-1.42.08,0,.09.19.02.58-.09.53-.14.92-.14,1.15,0,.35.07.6.2.77.4.48.94.71,1.62.71h5.52c.07-.06.1-.15.1-.28,0-.09-.07-.33-.2-.73-.14-.23-.31-.51-.51-.83l.89-1.55c.58.72.87,1.37.87,1.96ZM169.87,15.86c-.5.65-.8.98-.91.98-.03,0-.25-.11-.65-.33-.4-.22-.61-.33-.62-.33-.2.19-.41.4-.63.65-.14-.04-.37-.14-.67-.3-.31-.16-.5-.29-.6-.38.22-.23.53-.55.92-.95.08.1.27.23.55.39.28.16.48.25.58.25.05,0,.16-.1.36-.29.22-.21.35-.33.39-.35l1.28.67Z"/>
    <path class="cls-1" d="M175.47,20.37c0,1.22-.29,2.22-.87,3.01l-.77-6.75c0-.16.39-.86,1.18-2.07.3,1.73.45,3.67.45,5.81Z"/>
    <path class="cls-1" d="M180.66,21.8c0,1.01-.34,2.08-1.01,3.21-.6,1-1.26,1.5-1.99,1.5-.33,0-1.01-.19-2.05-.58-1.08-.4-1.62-.7-1.62-.88,0-.1.05-.14.14-.14.12,0,.42.08.9.26.47.17.85.26,1.12.26.55,0,1.3-.42,2.26-1.25.98-.84,1.47-1.53,1.47-2.06,0-.23-.24-.58-.71-1.05-.35-.34-.67-.62-.96-.84.08-.17.28-.75.6-1.73.4.22.78.56,1.13,1.05.49.67.73,1.43.73,2.28Z"/>
    <path class="cls-1" d="M184.94,22.95h-2.3l-.68-7.56,1.11-1.34c.03.49.15,1.76.35,3.8l.31,2.96c.07.27.27.4.6.4h.6v1.74Z"/>
    <path class="cls-1" d="M186.22,22.95h-1.62v-1.74h1.62v1.74Z"/>
    <path class="cls-1" d="M187.31,22.95h-1.62v-1.74h1.62v1.74Z"/>
    <path class="cls-1" d="M188.41,22.95h-1.62v-1.74h1.62v1.74Z"/>
    <path class="cls-1" d="M195.67,21.04s-.16.33-.48.85c-.32.52-.51.81-.57.86l-3.14-1.13c-.16.03-.35.27-.57.72-.21.43-.4.63-.56.6h-2.36v-1.74h2.82l.02-.05c.12-.29.33-.72.6-1.28.4-.73.98-1.28,1.74-1.66.04,0,.23-.07.57-.23.34-.15.6-.23.79-.23s.28.05.31.14c.03.16.1.41.19.73.09.27.22.66.4,1.18.15.46.23.87.23,1.22ZM194.21,20.71c-.11-.31-.21-.56-.3-.76-.18-.38-.31-.58-.4-.59-.24,0-.49.06-.73.18-.13.08-.26.15-.38.22l-.18.13,1.99.82Z"/>
    <path class="cls-1" d="M205.44,15.17c-.09.16-.41.66-.94,1.5-.15,0-.26-.02-.32-.05-.12-.06-.2-.1-.23-.11,0,.58-.13,1.16-.38,1.74-.29.65-.5,1.04-.65,1.18l.27.57c.18.37.28.69.32.97.02.16.03.33.03.5,0,.27-.02.58-.07.94l-.08.54h-4.51c-.27,0-.4-.36-.4-1.08,0-.24.02-.52.06-.84.05-.38.09-.57.14-.57,0,0,.08.11.23.33.15.22.36.33.64.33.18,0,.38-.08.61-.23.22-.18.41-.33.57-.43.43-.29.73-.56.93-.8,0-.11-.32-.5-.96-1.18-.49-.52-.82-.78-.99-.78-.02,0-.06.08-.11.25-.05.17-.12.25-.2.25-.05-.05-.24-.18-.55-.4-.4-.28-.78-.49-1.13-.63-.4-.16-.6-.51-.6-1.06,0-.39.19-1.01.58-1.86.45.01,1.34.6,2.66,1.78.44.39.87.87,1.29,1.46.17.25.43.62.77,1.11.3-.49.45-1.21.45-2.16,0-.32-.07-.59-.22-.81-.14-.22-.22-.33-.22-.32.01-.05.43-.69,1.25-1.95.03.45.23.79.6,1.04.77.42,1.15.68,1.15.77ZM200.92,25.66c-.06.16-.24.42-.53.76-.05,0-.1,0-.16,0-.6,0-1.4.34-2.4,1.03.14-.41.49-.75,1.05-1-.05-.03-.26-.1-.65-.21-.31-.08-.46-.2-.45-.33,0-.4.16-.8.45-1.18.35-.46.8-.7,1.34-.7h.02c.1,0,.21.06.33.17.12.11.19.22.19.31-.09.16-.22.39-.4.66l-.36-.29c-.12-.1-.23-.14-.34-.14-.14,0-.37.14-.7.42.23.26.56.41.99.43.41.03.95.06,1.61.08ZM202.53,21.24c-.06-.32-.22-.68-.5-1.08-.29.4-.66.75-1.1,1.05.09.05.34.08.75.09.37,0,.65-.01.85-.05Z"/>
    <path class="cls-1" d="M208.55,20.37c0,1.22-.29,2.22-.87,3.01l-.77-6.75c0-.16.39-.86,1.18-2.07.3,1.73.45,3.67.45,5.81Z"/>
  </g>
  <path class="cls-1" d="M22.59,64.97c-.1,0-.2-.02-.3-.03-.1,0-.2-.02-.3-.03.01-.09.02-.18.04-.27.01-.13.13-.23.28-.24.02,0,.03,0,.05,0,.11-.01.22-.04.31-.07-.02.22-.04.44-.07.66M25.9,65.69c.02-.76.03-1.53.05-2.3-.29.24-.59.47-.89.7.23.06.28.22.28.38,0,.23-.02.45-.02.68-.2,0-.4-.01-.6-.02.03-.59.06-1.18.09-1.78-.3.23-.6.46-.91.68.23.07.28.23.27.39-.01.23-.03.45-.04.68-.32-.02-.64-.04-.95-.07.12-1.39.23-2.76.35-4.16-.29.22-.58.44-.88.65.21.07.25.23.23.39-.05.5-.1,1-.15,1.5-.02.23-.2.34-.34.39-.09.04-.17.06-.18.07-.41.03-.75.31-.8.69l-.1.79c.24.03.47.06.71.08.06,0,.13.01.19.02.34.04.67.07,1.01.09.89.07,1.77.12,2.66.14M19.85,65.14c.2.03.39.06.59.09.17-1.19.35-2.37.52-3.55.02-.16.1-.3.33-.32-.24-.28-.47-.56-.7-.84-.25,1.54-.49,3.08-.74,4.63M17.59,64.18c-.1-.02-.2-.04-.29-.06-.1-.02-.19-.04-.29-.07.02-.07.03-.14.05-.2.12-.06.23-.12.34-.19.08.1.16.21.24.32-.01.07-.03.14-.05.2M19.12,60.99c.21.09.23.26.21.41-.19,1.01-.38,2.01-.57,3.02-.2-.04-.39-.07-.59-.11.03-.14.05-.27.08-.41-.24-.31-.47-.63-.7-.95-.34.19-.68.38-1.03.56-.03.13-.07.27-.1.4-.2-.05-.39-.1-.59-.15.15-.57.3-1.15.44-1.72-.34.16-.68.32-1.03.48.21.11.22.28.18.43-.06.22-.12.44-.18.66-.09-.02-.17-.05-.25-.07,0,0,0,0,0,0-.16-.05-.32-.09-.49-.14,0-.21.03-.42.07-.62.13-.64.31-1.37-.5-2.23-.23.11-.47.22-.7.32.57.17.8.7.89,1.12.08.51-.2.89-.05,1.32-.28-.08-.56-.17-.84-.25,0,0,0,0,0,0,.02-.07.04-.13.07-.2.14-.43-.15-.92-.64-1.09-.03-.01-.07-.02-.11-.04-1.09-.38-2.16-.81-3.23-1.27.07-.16.14-.32.21-.48.06-.14.21-.18.37-.12-.16-.36-.32-.71-.47-1.07-.29.63-.58,1.26-.87,1.89,1.29.59,2.6,1.12,3.92,1.58.19.07.29.25.24.41-.02.07-.05.13-.07.2-.06.18-.12.36-.18.54-.12.05-.24.1-.36.15-.07-.12-.14-.24-.2-.36.06-.18.13-.35.18-.53-.14-.05-.28-.1-.42-.15-.05-.02-.1-.03-.15-.05-1.07-.39-2.13-.83-3.18-1.31-.07.16-.15.32-.22.47,1.06.49,2.13.93,3.22,1.33-.03.08-.06.16-.09.24.2.35.4.7.62,1.05.38-.14.75-.29,1.12-.44.03-.09.05-.17.08-.26.42.14.84.27,1.26.39.08.12.18.22.31.31-.06-.09-.11-.18-.14-.27.35.1.7.2,1.05.29.49.13.98.25,1.48.36.49.11.99.21,1.48.3.02,0,.04,0,.06.01.17.03.35.06.52.1h0c.27-1.54.53-3.08.8-4.62-.31.2-.62.38-.94.57M24.94,66.18c-.17,0-.31.1-.31.24,0,.15.12.27.29.27.17,0,.31-.1.31-.25,0-.14-.12-.26-.29-.27M23.07,2.86c.23,0,.42.17.42.39-.12-.12-.61-.23-.83,0,0-.22.18-.39.41-.39M24.1,3.38c-.17,1.31-1.86,1.31-1.91.34.3,1.05,1.93.5,1.45-.67.64-.24,1.12-.26,1.64-.35-1.34-.21-2.92-.37-3.9.07-.48.22-.34.51-.27.63.08-.26.51-.27.81-.17-.23,1.97,2.29,1.74,2.19.14M7.39,60.62c-.09-.05-.18-.09-.28-.14-.09-.05-.18-.1-.27-.15.04-.08.08-.16.12-.24.06-.11.21-.16.36-.12.02,0,.03.01.05.01.11.03.22.04.32.04-.1.2-.2.39-.29.59M8.66,57.42c.18.15.16.31.09.45-.22.45-.44.9-.67,1.35-.1.21-.3.24-.46.25-.1,0-.19-.01-.2,0-.4-.12-.82.02-1,.36-.12.23-.25.46-.37.7.27.14.55.29.82.43.28.14.55.28.84.41.67-1.41,1.34-2.82,2.02-4.23-.35.1-.71.2-1.07.29M23.73,66.11c-.17-.01-.32.09-.33.24-.01.15.12.27.29.28.17.01.31-.09.32-.24,0-.14-.12-.27-.29-.28M23,66.05c-.17-.02-.32.09-.33.23-.01.15.12.27.29.29.16.01.31-.09.32-.23.01-.14-.12-.27-.28-.28M16.14,61.68c.15.04.3-.04.34-.18.03-.14-.06-.28-.21-.32-.15-.04-.31.04-.34.17-.04.14.06.28.21.32M15.48,61.5c.15.04.3-.03.34-.17.04-.14-.06-.29-.2-.33-.15-.04-.31.04-.35.17-.04.14.05.28.21.33M22.06,61.87c.16.02.29-.09.3-.23.02-.14-.09-.27-.24-.29-.15-.02-.28.08-.3.22-.02.15.09.28.24.29M36.3,62.33c.15-.03.25-.18.22-.32-.03-.14-.19-.23-.34-.19-.15.03-.25.18-.22.32.03.14.18.23.34.19M8.25,56.97c.14.07.3.03.37-.1.06-.13.01-.29-.13-.36-.13-.07-.3-.02-.37.1-.07.13,0,.29.13.36M22.14,61.25c.15.02.28-.08.3-.23.02-.14-.09-.27-.24-.29-.15-.02-.28.08-.3.22-.02.14.09.27.24.29M35.63,62.48c.15-.03.25-.18.22-.31-.03-.14-.18-.23-.33-.2-.15.03-.26.17-.23.32.03.14.18.23.34.2M7.96,57.53c.14.07.31.02.37-.11.06-.13.01-.29-.13-.36-.13-.07-.3-.02-.37.1-.07.13-.01.29.13.37M23.68,29.84c-.06-.98-.09-2.09-.09-3.3,0-1.1.03-2.08.08-2.96,2.77-.25,6.74-.32,10.4.63.26.79.41,1.62.41,2.5s-.15,1.71-.41,2.49c-3.66.95-7.62.88-10.39.63M26.64,34.56c-.87,0-1.73-.14-2.55-.43-.07-.42-.26-1.8-.38-3.82,2.73.24,6.57.3,10.17-.58-1.18,2.83-3.98,4.82-7.23,4.82M18.8,26.72c0-3.16,1.92-6.02,4.81-7.23-.15.94-.49,3.43-.49,7.06s.33,6.4.47,7.39c-2.88-1.22-4.79-4.07-4.79-7.22M24.12,19.3c.81-.28,1.66-.42,2.53-.42,3.25,0,6.05,1.99,7.23,4.82-3.61-.88-7.45-.81-10.18-.57.13-2.08.35-3.42.42-3.82M26.64,18.42c-.96,0-1.91.16-2.81.49-3.29,1.18-5.49,4.32-5.49,7.81s2.2,6.61,5.46,7.8c.91.33,1.86.5,2.84.5,4.58,0,8.3-3.72,8.3-8.3s-3.72-8.3-8.3-8.3M46,62.37c-.08.04-.17.01-.2-.05-.03-.07,0-.15.09-.18.03-.01.06-.02.09-.02-.28-.09-.54.22-.32.41-.08.05-.13.05-.17,0-.05.1-.1.21-.15.31.38-.17.75-.34,1.12-.52-.12-.04-.24-.08-.36-.12.02.06-.02.13-.09.16M50.1,27v-.93c0-.46,0-.92,0-1.14,0-.87-.14-2.03-.97-2.59.25.98.08,1.15.08,2.79v2.05c0,.6.08,1.13.23,1.58-.96-.46-1.99-1.48-1.99-3.26,0-.6-.15-3.06-.89-4.09v4.27c0,.56.07,1.06.2,1.49-2.25-1.14-2.03-5.03-2.76-6.54,0,1.31.03,2.22.03,3.53,0,.64.1,1.2.26,1.67-1.97-1.26-2.2-3.73-2.36-5.57-.19.68-.5,2.48.03,4.18-1.32-1.01-2.06-3.17-1.97-4.71-.19.84-.4,2.12.01,3.39-.07,1.45-.06,12.89-.06,14.14-.75-.62-1.52-1.75-1.44-3.45.03-.28.06-.54.1-.8.53-3.57.64-8.72-.84-12.83,1.19,6.43-.29,13.04-.5,14.37-.37,2.38.44,7.3,2.11,12.76-.32-.32-1.44-.79-1.89-1.24,0,.49.18,1.02.18,2.1-.57-.96-.8-1-1.41-2.07.19,1.26.14,1.37.14,2.45-.6-1.12-.92-2.62-2.28-4.75-3.04-4.75-7.43-1.8-7.43-.98,0-.83-4.38-3.77-7.43.98-1.37,2.13-1.69,3.63-2.29,4.75,0-1.09-.05-1.2.14-2.45-.61,1.07-.83,1.11-1.41,2.07,0-1.08.18-1.61.18-2.1-.45.45-1.57.91-1.89,1.24,1.68-5.46,2.49-10.38,2.11-12.76-.21-1.33-1.69-7.94-.5-14.37-1.48,4.12-1.37,9.26-.84,12.83.04.25.07.52.1.8.08,1.71-.69,2.84-1.45,3.46,0-1.25.02-12.68-.06-14.15.42-1.28.21-2.55.01-3.39.09,1.54-.65,3.7-1.97,4.71.54-1.7.22-3.49.03-4.18-.16,1.84-.38,4.31-2.35,5.57.16-.48.26-1.03.26-1.67,0-1.3.03-2.22.03-3.53-.74,1.51-.51,5.4-2.76,6.54.13-.44.2-.93.2-1.49v-4.27c-.74,1.03-.89,3.49-.89,4.09,0,1.78-1.03,2.79-1.99,3.26.15-.46.23-.98.23-1.58v-2.05c0-1.64-.17-1.82.08-2.79-.83.57-.97,1.72-.97,2.59,0,.22,0,.67,0,1.14h0v.93c0,1.86-1.12,2.88-2.11,3.32.17-.22.36-.83.36-1.73v-8.97c0-2.52,2.94-5.42,4.03-6.7,3.02-3.53,4.33-.66,7.37.37,5.05,1.71,7.74-.2,7.74-.2,2.7-1.7,2.71-3.3,2.71-4.3,0-.68-.26-1.56-.75-2.12-.92-.92-2.56-1.22-2.85-1.16-.62.32-1.16.32-1.27.41-.28-.56-.21-1.42,1.06-2.13.36-.2.22-.65,1.31-1.28,3.17-1.85,6.28-1.18,8.09.84-.64-.23-1.26-.45-2.34-.55,1.52.53,3.31,1.78,4.47,3.87.47.83,1.55,3.11,1.93,3.8.81,1.47,2.27,4.56,7.43,2.82,3.04-1.03,4.35-3.9,7.37-.37,1.09,1.28,4.03,4.17,4.03,6.7v8.97c0,.9.19,1.5.36,1.73-.99-.43-2.11-1.46-2.11-3.32M50.11,34v-2.56c0-.42-.01-.8-.04-1.13.15.06.29.11.42.15.43.43.91.73,1.38.97v4.15c0,.9.19,1.51.36,1.73-.99-.43-2.1-1.45-2.11-3.31M50.15,42.71c0-.3-.04-2.79-.04-3.28,0-.54-.02-1.45-.07-2.14.16.06.31.12.44.17.43.42.91.73,1.38.96v5.3c0,.9.19,1.51.36,1.73-.88-.38-2.07-1.45-2.07-2.74M50.15,56.15v-1.99h0c0-1.25-.04-2.34-.04-2.71v-2.96c0-.25,0-1.54-.01-3.2.06.02.11.05.17.07.47.55,1.05.92,1.6,1.19v10.61c0,.9.19,1.51.36,1.73-.88-.38-2.07-1.49-2.07-2.74M47.46,32.51v-2.59c0-.46-.02-.84-.04-1.17.1.04.2.08.29.11.46.49,1.01.84,1.52,1.1.01.54-.02,1.11-.02,1.68v2.54c0,.6.08,1.13.23,1.59-.96-.46-1.99-1.48-1.99-3.26M47.46,40.5v-2.59c0-.46-.02-1.43-.04-2.17.1.04.2.08.3.12.46.49,1.01.84,1.52,1.09.02.87-.02,2.06-.02,2.68v1.51h0v.95c0,.06,0,.12,0,.18,0,0,0,0,0,0v.06c0,.54.07,1.02.19,1.45-.87-.4-1.94-1.51-1.94-3.26M47.46,49.57v-2.59c0-.45-.02-2.11-.04-3.38.52.69,1.2,1.09,1.81,1.36,0,1.91-.01,3.45-.01,3.74v1.51h0v.95c0,.9,0,1.42.17,1.64-.74-.32-1.93-1.37-1.93-3.23M44.93,30.99v-2.35c0-.48,0-.81,0-1.08.24.09.5.17.77.24.29.22.59.41.88.56,0,.09,0,.17,0,.25v4.07c0,.56.07,1.05.19,1.48-.91-.49-1.84-1.49-1.84-3.18M44.93,38.12v-2.35c0-.9-.02-.89-.03-1.33.25.11.48.2.69.27.32.26.65.47.98.64,0,.53,0,1.13,0,1.25v4.07c0,.18,0,.36.02.52-.85-.52-1.67-1.5-1.67-3.08M46.57,45.68v4.02c-.85-.53-1.65-1.5-1.65-3.07v-2.35c0-.68-.01-2.23-.02-3.15.47.63,1.08,1.05,1.67,1.35,0,1.1,0,3.02,0,3.19M42.71,29.82v-2.36c0-.61-.01-1.05-.04-1.39.09.05.18.09.27.14.3.34.66.65,1.1.92,0,.2,0,.39,0,.57v3.48c0,.65.1,1.2.26,1.68-.82-.53-1.58-1.5-1.58-3.03M42.71,36.14v-2.36c0-.27,0-.5,0-.71.11.06.23.12.35.18.3.3.63.55.97.75.02.28.02.57.02.84v3.48c0,.25.02.48.04.71-.74-.56-1.37-1.48-1.37-2.88M44.04,43.35v2.92c-.72-.56-1.33-1.48-1.33-2.85v-2.36c0-.44,0-1.26-.02-1.9.38.5.84.87,1.32,1.16.03,1,.03,2.74.03,3.04M40.45,29.22c0-.54-.04-3.37-.05-5.22.31.53.75,1.05,1.39,1.52.07.52.04,1.17.04,1.63v2.86c0,.53.07,1,.18,1.42-.87-.64-1.56-1.43-1.56-2.21M40.42,30.96c.28.51.76,1.06,1.41,1.55,0,.34,0,.68,0,.96v2.36c-.78-.61-1.38-1.34-1.38-2.07,0-.33-.01-1.5-.03-2.79M41.83,40.74v1.69c-.78-.61-1.38-1.34-1.38-2.07,0-.51-.04-3.06-.05-4.9.28.52.75,1.07,1.41,1.56.05,1.08.02,3.31.02,3.72M39.72,50.55c.1.24.08.72.19.94.11.22.35.37.42.49.09.15.06.53.18.79.06.12.12.25.18.36-.08.09-.14.18-.2.28-.18-.41-.63-.46-.97-.24-.17.11-.37.28-.53.55.07-.47-.02-.61-.2-.8-.27-.27-.16-.83-.38-1.17-.17-.26-.48-.34-.67-.75-.2-.4-.1-.62-.3-1.01-.23-.45-.28-.6-.3-1.21.26.33.56.61.96,1.02.14-.95.16-1.18.16-2,.4.34.82.86.95,1.2.08.21.15.81.18.91.1.31.24.41.35.65M41.49,53.32c.42.03.19,1.87.5,2.51.32.65.18,1.19-.42,1.13-.61-.06-.58-1.92-.58-2.25,0-.46-.23.25-.36.51-.03-.11-.05-.24-.07-.37-.05-.32-.01-.52.01-.71.16-.44.49-.85.92-.82M42.03,54.07c.17-.55.63-1.32,1.16-1.2.42.09.02,1.42.27,2.07.49,1.27-.2,1.7-.79,1.55-.66-.16-.37-1.94-.31-2.19.02-.42-.2,0-.35.23-.03-.11-.05-.18.02-.45M43.99,54.33l3.89,2.65v5.59c-6.18,3.5-13.1,5.53-20.23,5.68h-.12s-.54.45-.8.67h0s0,0,0,0c-.26-.22-.8-.67-.8-.67h-.12c-7.13-.15-14.05-2.18-20.22-5.68v-5.59s3.88-2.65,3.88-2.65c.1.05.19.11.29.16.01.56-.38.84-.29,1.41.07.48.36.82.71.97.09.21.26.38.5.47.24.09.21-.12.2-.42.05-.01.1-.03.15-.06.07.23.21.39.4.49.08.17.24.33.55.53.3.14.1-.19.04-.48.11-.03.23-.08.34-.15.04.09.09.17.18.23.03.02.06.04.08.06.08.31.29.49.62.68.22.07.14-.18.11-.42.31,0,.58-.17.7-.67.06-.24.05-.39.04-.51,3.69,1.57,7.67,2.63,11.56,2.75.14.1,1.07.81,1.07.81,0,0,.94-.7,1.07-.81,3.87-.12,7.83-1.17,11.5-2.73-.01.12,0,.27.05.49.12.5.39.67.69.67-.02.24-.1.49.12.42.33-.19.55-.37.62-.68.03-.02.06-.04.09-.06.08-.06.14-.14.18-.23.11.07.22.12.34.15-.06.3-.26.62.04.48.3-.2.46-.36.54-.53.19-.09.34-.26.4-.49.05.03.1.04.15.06,0,.3-.03.51.2.42.23-.1.4-.27.5-.47.35-.16.64-.5.71-.97.09-.56-.29-.85-.29-1.38.11-.06.23-.13.34-.19M9.95,54.94c.25-.65-.15-1.98.26-2.07.53-.12.99.65,1.16,1.2.05.16.04.4.02.45-.15-.23-.37-.65-.35-.23.06.26.35,2.03-.31,2.19-.59.15-1.27-.28-.78-1.55M11.91,53.32c.43-.03.75.38.92.82.02.2.06.4.01.71-.02.13-.04.25-.07.37-.12-.26-.36-.97-.36-.51,0,.33.03,2.19-.58,2.25-.6.06-.74-.48-.42-1.13.31-.64.08-2.48.5-2.51M14.04,54.73c-.51.91-.06,2.62-.63,2.66-1.66.11-.43-1.97-.37-2.49.08-.66,0-1.63.65-1.43.58.18,1.32,2.06,1.68,2.62,0,0,0,.01.02.02-.13-.05-.26-.11-.39-.16.04.01.07.02.08.03-.59-.23-.93-1.66-1.03-1.24M39.7,53.47c.65-.2.58.77.65,1.43.06.52,1.29,2.6-.37,2.49-.58-.04-.13-1.75-.63-2.66-.09-.38-.37.79-.85,1.2-.16.07-.32.13-.48.2.38-.65,1.12-2.48,1.68-2.65M30.67,53.72c.41,2.41-1.96,2.54-2.32.69-.04-.23-.11-.95-.18-1.9-.18-3.24-.44-8.37-.46-9.34.4-.25.88-.45,1.37-.58.26,1.83,1.48,10.48,1.59,11.13M30.91,42.46c.26.05.47.14.62.26.23.16.49.38.76.65.43,1.62,2.16,8.1,2.31,8.75.19.78.39,1.49.72,1.82-1.05.2-1.79,0-2.03-.95-.32-1.49-1.95-8.89-2.39-10.53M32.67,53.03c.14.8.77,1.93.05,2.1-1.13.28-1.23-.35-1.41-1.32,0-.03-1.59-10.39-1.81-11.32.36-.07.72-.09,1.03-.08.23,1.14,2.03,9.97,2.14,10.61M25.87,54.02c0-1.26.19-9.27.23-10.56.32.28.54.61.6.97.06-.37.28-.69.61-.97.03,1.29.23,9.3.23,10.56,0,1.37-.36,1.86-.83,2.14-.47-.28-.83-.77-.83-2.14M18.17,52.04c-.31,1.09-1.05,2.23-1.23,2.4.64.24,1.81.43,2.64.1-.12.43-.11.82.25,1.19.45.45,1.72.77,2.34-.28.5,1.76,2.4,1.68,3.15.45.32,1.02.99,1.15,1.38,1.54.39-.38,1.06-.51,1.38-1.54.75,1.23,2.65,1.32,3.15-.45.62,1.06,1.89.73,2.34.28.37-.37.37-.76.25-1.19.83.33,1.99.14,2.64-.1-.17-.17-.92-1.31-1.23-2.4-.38-1.32-1.76-6.11-2.38-8.07,1.68,1.93,3.6,5.2,3.73,6.92.05-.24.16-.54.27-.86.39.81,1.32,2.45,1.48,2.84.16.41.21.67.09,1.21-.08.39-.44,1.58-1.2,2.34,0,0,0,0,0,0-3.05,1.13-6.26,1.84-9.55,1.93-.27.22-.93.72-.93.72,0,0-.66-.5-.93-.72-3.28-.09-6.48-.79-9.52-1.92,0,0,0,0,0-.01-.76-.76-1.21-1.96-1.3-2.35-.12-.54-.07-.81.09-1.21.16-.39,1.09-2.04,1.47-2.84.1.32.22.62.27.86.13-1.72,2.05-4.99,3.73-6.92-.62,1.96-2,6.74-2.38,8.07M20.1,53c-.24.95-.98,1.15-2.03.95.33-.33.53-1.04.72-1.82.15-.65,1.89-7.13,2.32-8.75.27-.27.53-.49.76-.65.15-.13.37-.21.62-.26-.43,1.64-2.07,9.04-2.39,10.53M24.32,42.59c.49.13.97.32,1.37.58-.02.97-.28,6.09-.46,9.33-.07.95-.14,1.67-.18,1.9-.36,1.86-2.73,1.72-2.32-.69.11-.65,1.33-9.3,1.59-11.13M22.09,53.82c-.18.97-.28,1.6-1.41,1.32-.73-.17-.09-1.31.04-2.1.12-.69,1.89-9.31,2.15-10.61.32-.02.67,0,1.03.08-.22.93-1.81,11.3-1.81,11.32M12.89,52.76c.12-.26.09-.64.18-.79.07-.11.31-.27.42-.49.11-.22.08-.7.19-.94.1-.24.25-.34.35-.65.03-.1.1-.7.18-.91.13-.35.54-.86.95-1.2,0,.82.01,1.05.15,2,.4-.41.7-.68.96-1.02-.01.61-.07.75-.3,1.21-.2.4-.1.61-.3,1.01-.2.4-.51.49-.67.75-.22.34-.11.9-.38,1.17-.18.18-.27.33-.2.8-.16-.27-.36-.44-.53-.55-.34-.21-.79-.17-.97.24-.06-.09-.13-.19-.2-.28.06-.11.12-.23.18-.36M12.94,29.22c0,.78-.69,1.57-1.55,2.21.11-.42.18-.89.18-1.42v-2.86c0-.46-.04-1.11.03-1.63.63-.47,1.08-.98,1.39-1.52,0,1.85-.05,4.68-.05,5.22M11.56,32.51c.65-.49,1.12-1.03,1.41-1.54-.01,1.28-.03,2.46-.03,2.78,0,.73-.59,1.46-1.37,2.07v-2.35c0-.27-.01-.61,0-.96M12.94,40.36c0,.73-.59,1.46-1.37,2.07v-1.68c0-.41-.03-2.65.01-3.72.65-.5,1.12-1.05,1.4-1.56,0,1.84-.04,4.39-.04,4.9M10.68,27.46v2.36c0,1.53-.76,2.5-1.59,3.03.16-.48.26-1.03.26-1.68v-3.48c0-.18,0-.38,0-.57.44-.27.8-.58,1.09-.92.09-.05.18-.09.27-.14-.03.34-.04.78-.04,1.39M9.31,39.02c.03-.22.04-.46.04-.71v-3.48c0-.26,0-.55.02-.84.34-.2.67-.45.97-.75.12-.06.23-.12.34-.18,0,.21,0,.44,0,.71v2.36c0,1.4-.64,2.32-1.37,2.88M10.68,41.05v2.36c0,1.37-.61,2.29-1.33,2.85v-2.92c0-.29,0-2.04.03-3.04.47-.28.94-.66,1.32-1.16-.02.64-.02,1.46-.02,1.9M8.47,35.78v2.35c0,1.58-.81,2.56-1.67,3.08.01-.17.02-.34.02-.52v-4.07c0-.13,0-.72,0-1.25.33-.17.66-.38.98-.64.21-.08.44-.16.69-.27,0,.44-.02.43-.02,1.33M8.47,44.29v2.35c0,1.57-.8,2.54-1.65,3.07v-4.02c0-.17,0-2.1,0-3.19.59-.31,1.19-.73,1.67-1.36,0,.92-.02,2.46-.02,3.15M6.62,34.17c.13-.43.2-.92.2-1.48v-4.33c.3-.15.6-.34.88-.56.28-.07.53-.15.77-.24-.01.27,0,.59,0,1.08v2.35c0,1.69-.93,2.69-1.84,3.18M5.93,37.91v2.59c0,1.75-1.08,2.87-1.94,3.26.12-.42.19-.9.19-1.44v-.06s0,0,0,0c0-.06,0-.12,0-.18v-.94h0v-1.52c0-.63-.04-1.82-.02-2.68.52-.25,1.06-.6,1.52-1.09.09-.04.19-.08.29-.12-.03.74-.04,1.71-.04,2.17M5.93,46.98v2.59c0,1.86-1.19,2.91-1.93,3.23.17-.22.17-.74.17-1.64v-.94h0v-1.51c0-.29,0-1.82-.01-3.74.61-.28,1.29-.67,1.81-1.36-.02,1.27-.04,2.93-.04,3.38M4.16,29.95c.52-.26,1.06-.6,1.52-1.1.09-.03.19-.07.29-.11-.02.32-.04.71-.04,1.17v2.59c0,1.78-1.03,2.8-1.99,3.26.15-.46.23-.98.23-1.59v-2.54c0-.57-.03-1.14-.02-1.68M1.18,37.31c.17-.22.36-.83.36-1.73v-4.15c.47-.23.96-.54,1.39-.97.13-.05.27-.1.41-.15-.03.33-.04.71-.04,1.13v2.55c0,1.86-1.12,2.88-2.11,3.32M3.29,39.43c0,.49-.04,2.98-.04,3.28,0,1.29-1.19,2.36-2.07,2.74.17-.22.36-.83.36-1.73v-5.3c.47-.23.96-.54,1.39-.96.13-.05.28-.11.44-.17-.04.69-.07,1.6-.07,2.14M3.29,48.5v2.96c0,.37-.03,1.46-.04,2.71,0,0,0,0,0,0v1.99c0,1.25-1.19,2.36-2.07,2.74.17-.22.36-.83.36-1.73v-10.61c.55-.27,1.13-.65,1.6-1.19.05-.02.11-.04.17-.07-.01,1.66-.02,2.95-.02,3.2M20.69,6.21h0c-.23.07-1.45.27-1.61.12.27-.14.45-.22.96-.54.37.03.73.26,1.31.61-.32-.13-.36-.24-.67-.18M52.75,38.8c.25.09.47.17.65.24-.7-1.05-.65-2.76-.65-3.16v-4.07c.25.1.47.17.65.24-.7-1.06-.65-2.76-.65-3.17v-9.48c0-2.62-4.01-8.97-7.4-9.06-2.41-.06-5.23,3.32-8.68,2.45-1.11-.29-1.99-1.48-2.72-2.95-1.29-2.63-2.53-6.15-5.66-8.18-3.47-2.25-7.47.26-7.92.66-.39.36-1.02,1.44-1.35,1.61-1.09.57-1.26,1.52-1.26,1.88s.08,1.24.74,1.73c-.09-.43-.12-.67-.02-.88.43.07,1.38.27,2,.01.3.3,1.02.88,1.33,1.48.44.83.44.95.44,1.28,0,.84-.39,2.05-1.59,2.83-1.26.9-4.23,1.4-7.96.13-2.02-.69-2.84-2.09-4.65-2.04-3.39.09-7.4,6.44-7.4,9.06v9.48c0,.4.05,2.11-.65,3.17.18-.07.4-.15.65-.24v4.07c0,.4.05,2.11-.65,3.16.18-.07.4-.15.65-.24v5.22c0,.4.05,2.11-.65,3.17.18-.07.4-.14.65-.24v10.52c0,.3.03,1.34-.25,2.28-.09.31.12.69.45.56,1.36-.54,3.33-1.6,3.33-4.55v-1.66c.98-.43,2.14-1.19,2.52-3.03,1.11-.55,2.33-1.5,2.6-3.43,1.13-.66,2.26-1.8,2.27-4,.99-.75,1.57-1.62,1.69-2.3.08-.46.14-1.55.16-2.81.71-.52,1.23-1.11,1.52-1.65-.12,2.74-.66,6.41-1.95,11.51.23,0,.53-.05.84-.12-.17,1.03-1.04,3.47-1.63,4.58-.08,0-.16,0-.26,0-.19.03-.33.22-.43.45-.26-.4-.59-1.05-1.36-.8-.4.13-.55.44-.58.78-.64.4-4.98,3.09-4.98,3.09v6.71c6.44,3.82,13.54,6.12,21.2,6.27.25.25.93.77.93.77,0,0,.68-.52.93-.77,7.66-.16,14.76-2.46,21.2-6.27v-6.71s-4.71-2.92-5.04-3.13c-.04-.32-.19-.61-.58-.74-.77-.25-1.1.4-1.36.8-.09-.23-.23-.42-.43-.45-.09-.01-.18-.01-.25,0-.59-1.11-1.46-3.56-1.63-4.58.31.07.61.12.84.12-1.29-5.09-1.83-8.77-1.95-11.51.29.54.8,1.13,1.51,1.65.02,1.26.08,2.36.16,2.82.12.68.71,1.56,1.69,2.3.01,2.2,1.14,3.34,2.27,4,.27,1.92,1.49,2.88,2.6,3.43.38,1.84,1.54,2.6,2.52,3.03v1.66c0,2.91,1.93,3.99,3.28,4.53.35.14.63-.13.54-.38-.33-.99-.3-2.13-.3-2.45v-10.51c.25.09.47.15.65.23-.7-1.06-.65-2.76-.65-3.17v-5.22ZM43.04,62.1c-.09.03-.19.07-.28.11-.03-.07-.05-.13-.08-.2.06-.12.12-.23.18-.35.13.04.25.09.38.13.03.06.05.13.08.19-.1.04-.19.08-.29.11M42.6,60.99c-.18.35-.36.7-.55,1.05.05.13.1.26.14.39-.19.07-.38.14-.57.21-.34-.96-.68-1.93-1.03-2.89-.05-.15-.05-.32.14-.44-.34-.13-.68-.27-1.02-.42.45,1.31.9,2.63,1.34,3.94.06.16.11.33.17.5.15-.05.29-.1.44-.15l.14-.05c.48-.17.96-.35,1.44-.54.28-.11.57-.23.85-.35-.12-.29-.24-.58-.36-.87-.38-.13-.75-.26-1.12-.39M46.89,60.95c.18-.09.36-.19.55-.28-.55-1.06-1.11-2.12-1.66-3.18-.07-.14-.09-.31.08-.46-.36-.08-.72-.17-1.08-.27.62,1.24,1.25,2.48,1.87,3.72.08.16.16.31.24.47M37.07,29.23s.01.01,0,.02c0,0,0,.02-.02.02l-.55.12-.12.48s-.01.02-.02.02h0s-.02,0-.02-.01l-.27-.44h-.55s-.02-.02-.02-.03c0-.01,0-.02,0-.03l.35-.41-.14-.52s0-.02,0-.02c0,0,.02,0,.03,0l.5.22.44-.28s.01,0,.01,0,.01,0,.01,0h0s.01.02,0,.02l-.09.48.44.35ZM31.54,35.07l-.24-.95s-.01-.01-.02-.02c0,0-.02,0-.02.01,0,0-.48.7-.63.89-.24,0-1.09-.07-1.09-.07-.01,0-.02,0-.02.01,0,0,0,.02,0,.02l.59.78c-1.06.4-2.2.63-3.4.63s-2.42-.24-3.5-.67l.56-.74s0-.02,0-.03c0,0-.02-.01-.02-.01,0,0-.85.07-1.09.07-.15-.19-.63-.89-.63-.89,0,0-.01-.01-.02-.01-.01,0-.02,0-.02.02l-.23.87c-1.94-1.18-3.43-3.03-4.14-5.23l.89-.02s.02,0,.02-.02c0,0,0-.02,0-.02,0,0-.56-.63-.72-.81.06-.24.3-1.04.3-1.05,0,0,0-.02,0-.02,0,0-.02,0-.03,0l-.82.37c-.06-.45-.1-.9-.1-1.37,0-1.94.59-3.75,1.59-5.27l.54.64s0,0,.02,0c0,0,0,0,0,0,0,0,.02-.01.02-.02,0,0,.14-.83.19-1.06.23-.1,1.02-.41,1.02-.41.01,0,.01-.01.02-.02,0,0,0-.02-.01-.02l-.78-.4c1.56-1.65,3.69-2.76,6.08-2.98l-.17.89s0,.02.01.02c0,0,0,0,.01,0,0,0,0,0,.01,0,0,0,.74-.42.95-.53.21.11.95.53.95.53,0,0,.02,0,.02,0,0,0,.01-.02.01-.02l-.18-.9c2.42.19,4.59,1.28,6.18,2.94l-.87.45s-.01.01-.01.02c0,.01,0,.02.02.02,0,0,.79.31,1.02.41.05.23.19,1.06.19,1.06,0,.01.01.02.02.02,0,0,0,0,0,0,.01,0,.02,0,.02,0l.62-.74c1.04,1.53,1.65,3.38,1.65,5.36,0,.49-.04.96-.11,1.42l-.95-.42s-.02,0-.03,0c0,0-.01.02,0,.02,0,0,.23.81.3,1.05-.16.19-.71.81-.72.81,0,0,0,.02,0,.02,0,0,.01.02.02.02l1.03.03c-.73,2.24-2.26,4.12-4.26,5.3M31.8,35.66s0,.01,0,.01l-.43.24v.56s0,.02,0,.02h-.01s-.01,0-.01,0l-.44-.35-.27.11-.18.08h0s0,0,0,0c0,0-.02,0-.02,0,0,0,0,0,0-.01,0,0,0,0,0-.01l.07-.2.1-.28-.14-.18h0l-.19-.25s0,0,0-.01c0,0,0-.01,0-.01,0,0,0,0,.01,0,0,0,0,0,0,0h.53s.32-.41.32-.41c0,0,.02,0,.02,0,0,0,.02,0,.02.01,0,0,0,0,0,0l.08.31.06.22.37.12.12.04s.01.01.02.02c0,0,0,.01,0,.01M23.03,35.37s0,0,0,.01l-.19.25-.14.19.08.2.1.28s0,.02,0,.03c0,0,0,0,0,0,0,0-.01,0-.02,0l-.12-.05-.24-.1s0,0,.01,0l-.1-.04-.17.13-.27.21s-.01,0-.02,0h-.01s-.01-.01-.01-.02v-.56s-.43-.23-.43-.23c-.01,0-.01-.01-.01-.02h0s0-.02.02-.02l.24-.08.25-.08.07-.29.06-.24s.01-.01.02-.02c.01,0,.02,0,.02,0h0l.16.21.16.21h.52s.02,0,.02,0c0,0,0,0,0,.01M16.93,29.88s-.01.01-.02.01h0s-.02-.01-.02-.02l-.12-.48-.55-.12s-.01,0-.02-.02c0,0,0-.02,0-.02l.44-.35h0s-.02-.1-.02-.1h0s-.08-.38-.08-.38c0,0,0-.01,0-.02,0,0,0,0,0,0,0,0,.02,0,.03,0l.43.28.27-.12.23-.1s.02,0,.03,0c0,0,.01.02,0,.02l-.14.52.35.41s0,.02,0,.03c0,0-.01.01-.02.01h-.55s-.27.46-.27.46ZM18.16,21.02l.3-.39-.25-.5s0-.02,0-.03c0,0,.02-.01.02,0l.56.13.32-.38s.02-.01.03,0c0,0,.01.01.02.02l.04.52.49.26s.01.01.01.02c0,.01,0,.02-.01.02l-.48.22-.11.53s0,.02-.02.02h0s-.01,0-.02,0l-.13-.16-.22-.27-.49.06h-.02s-.02,0-.03-.01c0,0,0-.02,0-.03M25.86,16.58s0-.01.02-.01l.49-.02.24-.51s.01-.01.02-.01c.01,0,.02,0,.02.01l.24.51h.04s0,0,0,0l.34.02h0s.08,0,.12,0c0,0,.01,0,.01.01h0s0,.02,0,.03l-.37.36.11.54s0,.02-.01.02c0,0-.01,0-.01,0,0,0,0,0-.01,0l-.48-.24-.47.24s-.02,0-.03,0c0,0-.01-.02,0-.02l.05-.25.06-.29-.37-.36s0-.02,0-.03c0,0,0,0,0,0M33.87,20.48l.21-.11.04-.52s0-.02.02-.02c0,0,.01,0,.01,0,0,0,.01,0,.01,0l.32.38h.04s.51-.13.51-.13c0,0,.02,0,.02.01,0,0,0,.02,0,.02l-.25.5.29.4s.01.02,0,.03c0,0-.01.01-.02.01l-.52-.06-.36.42s-.01.01-.02.01c0,0,0,0,0,0,0,0-.01,0-.02-.02l-.11-.53-.48-.22s-.02-.01-.02-.02,0-.02.01-.02l.28-.15ZM37.17,27.66s0-.02-.01-.02c-.01,0-.02,0-.03,0,0,0-.08.06-.2.14.03-.32.05-.64.05-.96,0-1.96-.55-3.78-1.51-5.34.19.03.34.06.34.06.01,0,.02,0,.03-.01,0,0,0-.02,0-.03,0,0-.48-.71-.62-.91.11-.22.44-.95.44-.95,0,0,0-.02,0-.02,0,0-.02-.01-.02-.01l-1.02.23c-.16-.19-.73-.82-.73-.82,0,0-.02-.01-.03,0,0,0-.01.01-.01.02l-.03.39c-1.57-1.51-3.62-2.52-5.89-2.79.17-.16.33-.29.33-.29,0,0,0-.02,0-.03,0-.01-.01-.01-.02-.01,0,0-.86-.06-1.1-.07-.1-.22-.47-.93-.47-.93h0s-.01-.02-.02-.01c0,0-.01,0-.01.01,0,0-.36.71-.46.93-.24.01-1.1.07-1.1.07-.01,0-.02,0-.02.02,0,0,0,.02,0,.03,0,0,.16.14.34.3-2.29.3-4.34,1.35-5.9,2.9l-.04-.51s0-.02-.02-.02c0,0-.02,0-.03,0,0,0-.57.63-.73.82l-1.01-.23s-.02,0-.02,0c0,0,0,.02,0,.03,0,0,.33.73.44.95-.14.19-.62.91-.62.91,0,0,0,.02,0,.03,0,0,.01.01.02,0,0,0,.23-.04.49-.08-.96,1.56-1.52,3.4-1.52,5.37,0,.36.02.72.06,1.06-.19-.13-.35-.25-.35-.25,0,0-.02,0-.03,0,0,0-.01.01-.01.02,0,0,.12.84.16,1.09l-.82.65s-.01.01,0,.02c0,0,0,.01.02.02,0,0,.79.2,1.03.25.06.24.32,1.05.32,1.05,0,0,.01.02.02.02h0s.02,0,.02-.01c0,0,.1-.18.22-.39.76,2.08,2.18,3.84,4,5.05-.24.07-.44.13-.44.13-.01,0-.02.01-.02.02,0,.01,0,.02.01.02,0,0,.75.43.96.55,0,.14.01,1.05.01,1.05,0,0,0,.02.01.02,0,0,0,0,.01,0,0,0,.01,0,.02,0l.82-.64,1.03.43s.02,0,.03,0c0,0,.01-.02,0-.03,0,0-.08-.19-.17-.42,1.06.37,2.19.57,3.37.57,1.12,0,2.2-.18,3.21-.51-.08.2-.15.36-.15.36,0,0,0,.02,0,.03,0,0,.02,0,.02,0l1.03-.43.82.65s.01,0,.02,0h0s.01-.01.01-.02c0,0,.01-.91.01-1.05.21-.11.96-.55.96-.55.01,0,.01-.01.01-.02,0-.01,0-.02-.02-.02,0,0-.15-.04-.35-.1,1.8-1.17,3.2-2.9,3.99-4.93.08.14.13.24.13.24,0,0,.01.01.02.01h0s.02,0,.02-.02c0,0,.26-.81.32-1.05.24-.05,1.03-.25,1.03-.25,0,0,.02,0,.02-.02,0,0,0-.02-.01-.02l-.82-.65c.04-.24.16-1.09.16-1.09M45.48,60.83c.03.06.06.13.09.19-.09.05-.19.09-.28.13-.09.04-.18.08-.27.13-.03-.06-.06-.13-.09-.19.06-.12.11-.24.16-.36.13.04.26.07.39.11M44.95,59.69c-.05.12-.11.24-.16.37-.13-.04-.25-.08-.37-.12-.37-.82-.74-1.64-1.12-2.47-.16.38-.32.75-.48,1.12.23-.03.4.06.46.2.21.49.43.98.65,1.48.01.03.03.06.04.1.2.06.4.13.6.19-.09.19-.18.38-.27.57.13.29.25.58.38.86.28-.12.56-.25.84-.37.28-.13.56-.26.83-.4-.14-.28-.27-.56-.41-.84-.21-.06-.41-.11-.61-.17.08-.2.17-.39.25-.58-.25-.52-.5-1.03-.75-1.55-.07-.14-.03-.33.15-.48-.39-.12-.78-.24-1.16-.36.38.82.77,1.63,1.15,2.45M32.53,61.35c-.31-.2-.61-.41-.9-.62.18,1.55.37,3.1.56,4.65.2-.02.4-.05.6-.08-.16-1.19-.32-2.37-.48-3.56-.02-.16.01-.32.22-.4M38.49,60.43c-.05-.15-.03-.32.16-.43-.33-.15-.67-.31-.99-.47.38,1.34.75,2.67,1.13,4.01.05.17.09.34.14.5.19-.06.39-.11.58-.17-.34-1.15-.68-2.29-1.02-3.44M28.98,64.61c-.13-.2-.25-.4-.37-.61.06,0,.12,0,.17,0,0-.15.06-.23.15-.32.1.08.17.15.19.3.06,0,.12,0,.17-.01-.1.21-.21.43-.32.64M30.35,61.59c.22.03.29.19.3.34.09,1.02.19,2.04.28,3.05-.53.05-1.05.09-1.57.12.28-.57.55-1.15.82-1.72-.23.02-.45.03-.68.05-.1-.18-.38-.37-.59-.38-.21.03-.47.25-.54.43-.23,0-.46.01-.68.02.31.55.64,1.1.98,1.64-.51.02-1.03.03-1.54.03,0-.52,0-1.04,0-1.56-.29.26-.58.52-.87.78.18,0,.29.11.29.27,0,.43,0,.87-.01,1.3,0,.29-.27.52-.61.51-.27,0-.49-.16-.57-.36.08.35.44.62.88.63.51,0,.91-.35.9-.78,0-.09,0-.17,0-.26.64,0,1.28-.02,1.91-.05.65-.03,1.3-.08,1.95-.14.03,0,.06,0,.08,0,.17-.01.35-.03.52-.05-.17-1.56-.33-3.11-.5-4.66-.24.27-.49.54-.74.81M37.01,62.6c.24,0,.33.13.37.28.08.32.16.64.24.97-.87.22-1.73.41-2.61.57-.12.02-.24.04-.35.06-.18-.11-.36-.22-.54-.33.41-.42.66-1.15.51-1.78-.1.86-.49,1.47-1.46,1.82.44.29.88.57,1.34.84.2-.03.4-.07.6-.11,1.08-.2,2.16-.45,3.23-.74-.22-.84-.45-1.68-.67-2.51-.21.31-.43.61-.66.92M40,61.53c-.2.34-.4.67-.6,1.01.16-.05.31.02.36.17.13.42.26.83.38,1.24.09.27-.11.58-.44.68-.26.08-.51,0-.65-.17.18.31.61.46,1.03.33.5-.15.78-.61.64-1.02-.24-.74-.49-1.49-.73-2.23M19.65,4.18c-.19,0-.35.13-.35.29,0,.14.13.26.29.28-.01-.02-.02-.05-.02-.07,0-.12.14-.21.32-.21.04,0,.07,0,.1.01h0c0-.16-.16-.29-.35-.29"/>
</svg>