<?xml version="1.0" encoding="UTF-8"?>
<svg id="Layer_1" data-name="Layer 1" xmlns="http://www.w3.org/2000/svg" viewBox="0 0 527.12 432.87">
  <defs>
    <style>
      .cls-1 {
        fill: #bf9c4d;
      }
    </style>
  </defs>
  <g>
    <path class="cls-1" d="M46.57,260.33c6.84,0,10.66,4.02,11.97,10.56h13.47c-2.31-15.18-11.66-22.42-25.44-22.42-15.59,0-26.55,9.25-26.55,30.67v9.85c0,21.22,10.96,30.67,26.55,30.67,14.28,0,23.03-6.84,25.34-22.42h-13.37c-1.51,7.04-4.93,10.56-11.97,10.56-8.14,0-12.47-5.93-12.47-18.8v-9.85c0-13.27,4.32-18.8,12.47-18.8Z"/>
    <path class="cls-1" d="M121.08,290.7c0,11.87-3.92,17.09-12.57,17.09s-12.57-5.23-12.57-17.09v-41.33h-14.08v41.33c0,20.41,11.26,28.96,26.65,28.96s26.65-8.55,26.65-29.06v-41.23h-14.08v41.33Z"/>
    <path class="cls-1" d="M175.18,278.13c-9.25-2.31-13.68-4.73-13.68-10.16,0-4.73,3.42-7.64,9.75-7.64,7.04,0,10.66,2.31,13.68,7.04l10.56-7.54c-4.93-7.64-13.27-11.36-24.33-11.36-16.49,0-23.73,8.55-23.73,19.51s6.84,18,20.51,21.62c11.26,2.92,14.18,5.63,14.18,10.46,0,4.22-2.72,7.74-10.76,7.74-7.14,0-11.36-2.31-15.08-6.94l-10.76,7.44c6.13,8.04,14.58,11.36,26.75,11.36,16.29,0,23.93-8.85,23.93-20.21,0-12.27-6.54-17.7-21.02-21.32Z"/>
    <polygon class="cls-1" points="200.12 261.34 219.22 261.34 219.22 318.76 233.3 318.76 233.3 261.34 252.4 261.34 252.4 249.37 200.12 249.37 200.12 261.34"/>
    <path class="cls-1" d="M283.78,319.66c15.69,0,26.65-9.45,26.65-30.67v-9.85c0-21.42-10.96-30.67-26.65-30.67s-26.55,9.25-26.55,30.67v9.85c0,21.22,10.96,30.67,26.55,30.67ZM271.31,279.14c0-13.27,4.32-18.8,12.47-18.8s12.57,5.53,12.57,18.8v9.85c0,13.27-4.42,18.8-12.57,18.8s-12.47-5.53-12.47-18.8v-9.85Z"/>
    <polygon class="cls-1" points="358.79 306.29 373.88 275.72 373.88 318.76 387.35 318.76 387.35 249.37 373.98 249.37 354.67 287.18 335.16 249.37 321.99 249.37 321.99 318.76 335.36 318.76 335.36 276.02 350.25 306.29 358.79 306.29"/>
    <polygon class="cls-1" points="401.03 318.76 444.26 318.76 444.26 306.89 415.1 306.89 415.1 288.79 441.25 288.79 441.25 276.92 415.1 276.92 415.1 261.34 444.26 261.34 444.26 249.37 401.03 249.37 401.03 318.76"/>
    <path class="cls-1" d="M492.93,289.19c7.54-3.12,11.87-9.25,11.87-18.6,0-14.08-9.96-21.22-25.94-21.22h-24.84v69.38h14.08v-27.25h11.26l12.47,27.25h15.49l-14.38-29.56ZM477.55,279.64h-9.45v-18.3h9.45c8.35,0,13.17,2.01,13.17,9.25s-4.83,9.05-13.17,9.05Z"/>
  </g>
  <g>
    <path class="cls-1" d="M44.66,351.2c9.45,0,16.39,4.42,18.7,16.19h5.73c-2.21-15.18-12.07-21.62-24.43-21.62-15.08,0-24.64,8.75-24.64,31.17v8.25c0,22.42,9.55,31.17,24.64,31.17,11.87,0,22.12-6.23,24.33-21.82h-5.63c-2.21,11.06-8.65,16.39-18.7,16.39-11.77,0-18.8-6.74-18.8-25.74v-8.25c0-18.9,6.94-25.74,18.8-25.74Z"/>
    <path class="cls-1" d="M104.52,345.77c-14.88,0-24.64,9.35-24.64,31.17v8.25c0,21.92,9.75,31.17,24.64,31.17s24.64-9.25,24.64-31.17v-8.25c0-21.82-9.75-31.17-24.64-31.17ZM123.33,385.19c0,18.8-7.44,25.74-18.8,25.74s-18.8-6.94-18.8-25.74v-8.25c0-18.7,7.44-25.74,18.8-25.74s18.8,7.04,18.8,25.74v8.25Z"/>
    <path class="cls-1" d="M183.39,387.4c0,16.09-6.64,23.53-18.8,23.53s-18.8-7.44-18.8-23.53v-41.03h-5.83v41.03c0,20.41,9.55,28.96,24.64,28.96s24.64-8.55,24.64-28.96v-41.03h-5.83v41.03Z"/>
    <polygon class="cls-1" points="240.24 404.59 205.54 346.37 200.01 346.37 200.01 415.76 205.85 415.76 205.85 358.04 240.44 415.76 246.07 415.76 246.07 346.37 240.24 346.37 240.24 404.59"/>
    <path class="cls-1" d="M281.5,351.2c9.45,0,16.39,4.42,18.7,16.19h5.73c-2.21-15.18-12.07-21.62-24.43-21.62-15.08,0-24.64,8.75-24.64,31.17v8.25c0,22.42,9.55,31.17,24.64,31.17,11.87,0,22.12-6.23,24.33-21.82h-5.63c-2.21,11.06-8.65,16.39-18.7,16.39-11.77,0-18.8-6.74-18.8-25.74v-8.25c0-18.9,6.94-25.74,18.8-25.74Z"/>
    <rect class="cls-1" x="316.72" y="346.37" width="5.83" height="69.38"/>
    <polygon class="cls-1" points="339.18 346.37 333.35 346.37 333.35 415.76 374.17 415.76 374.17 410.33 339.18 410.33 339.18 346.37"/>
    <path class="cls-1" d="M410.31,378.35c-10.06-2.21-18-4.73-18-14.68,0-8.55,6.33-12.47,15.89-12.47s14.38,3.92,18,9.25l4.62-3.32c-4.83-7.64-11.66-11.36-22.42-11.36-15.59,0-21.92,8.15-21.92,17.9,0,12.37,8.85,17.4,21.82,19.91,13.07,2.51,17.9,6.54,17.9,14.88,0,6.74-4.63,12.47-16.99,12.47-10.36,0-15.18-3.82-19.51-9.25l-4.73,3.32c5.13,7.54,13.17,11.36,24.23,11.36,16.59,0,22.83-9.25,22.83-18.1,0-13.07-8.65-17.09-21.72-19.91Z"/>
    <path class="cls-1" d="M473.64,383.91c-16.79,0-30.46,13.66-30.46,30.45v1.88h13.48v-3.76h-9.65c.97-13.84,12.54-24.81,26.63-24.81s25.66,10.97,26.63,24.81h-39.78v3.76h43.6v-1.88c0-16.79-13.66-30.45-30.45-30.45Z"/>
    <path class="cls-1" d="M456.2,363.23c0,9.62,7.82,17.44,17.44,17.44s17.44-7.82,17.44-17.44-7.82-17.44-17.44-17.44-17.44,7.82-17.44,17.44ZM487.49,363.23c0,7.64-6.22,13.85-13.85,13.85s-13.85-6.21-13.85-13.85,6.22-13.85,13.85-13.85,13.85,6.21,13.85,13.85Z"/>
    <path class="cls-1" d="M469.01,365.4l-1.81.85c1.17,2.48,3.69,4.09,6.44,4.09s5.29-1.62,6.45-4.12l-1.81-.84c-.83,1.8-2.66,2.96-4.64,2.96s-3.79-1.15-4.63-2.94Z"/>
  </g>
  <g>
    <path class="cls-1" d="M41.12,101.54c5.11,0,9.62-1.65,13.52-4.95,3.87-3.24,6.29-7.32,7.24-12.24h13.1c3.78,0,6.78-1.11,9-3.33.06-.06.17-.21.33-.43.06.06.11.13.14.19,2.41,2.38,5.98,3.57,10.71,3.57h4.86c3.81,0,6.84-1.11,9.1-3.33.35-.35.59-.63.71-.86.09.16.19.27.29.33,2.57,2.57,5.98,3.86,10.24,3.86h68.91c3.75,0,6.76-1.11,9.05-3.33,2.25-2.25,3.38-5.29,3.38-9.1V15.25c0-.89-.43-1.33-1.29-1.33h-4.57c-.86,0-1.29.44-1.29,1.33v56.72c0,1.78-.43,3.11-1.29,4-.79.83-2.08,1.25-3.86,1.29-.03,0-.06-.02-.1-.05h-70.24c-2.25,0-3.98-.6-5.19-1.81-.92-.92-1.38-2.1-1.38-3.52v-32.81c0-.86-.45-1.29-1.33-1.29h-4.48c-.89,0-1.33.43-1.33,1.29v32.81c0,1.84-.41,3.19-1.24,4.05-.89.86-2.22,1.29-4,1.29h-6.14c-2.83,0-4.76-.51-5.81-1.52-.54-.57-.81-1.4-.81-2.48v-31.52c0-.86-.41-1.29-1.24-1.29h-4.62c-.86,0-1.29.43-1.29,1.29v30.19c0,1.87-.43,3.22-1.29,4.05-.83.86-2.14,1.29-3.95,1.29h-12.71v-38.1c0-.89-.44-1.33-1.33-1.33h-4.52c-.89,0-1.33.44-1.33,1.33v41.29c0,3.87-1.37,7.16-4.1,9.86-2.73,2.73-6.02,4.1-9.86,4.1s-7.13-1.37-9.86-4.1c-2.73-2.7-4.09-5.98-4.09-9.86v-23c0-.86-.43-1.29-1.29-1.29h-4.57c-.86,0-1.29.43-1.29,1.29v23c0,5.84,2.06,10.83,6.19,14.95,4.13,4.13,9.09,6.19,14.9,6.19Z"/>
    <path class="cls-1" d="M229.79,84.35h62.24c5.49,0,9.7-1.63,12.62-4.9.44.6.79,1.03,1.05,1.29,2.41,2.41,6,3.62,10.76,3.62h75.33c5.68,0,10.54-2.02,14.57-6.05s6.05-8.87,6.05-14.52v-7.33c0-5.68-2.02-10.52-6.05-14.52-4.03-4.03-8.89-6.05-14.57-6.05s-10.54,2.02-14.57,6.05c-4,4-6,8.84-6,14.52v20.76h-56c-2.86-.03-4.76-.52-5.71-1.48-.57-.54-.86-1.38-.86-2.52v-14.81c0-6.22-2.21-11.54-6.62-15.95-4.41-4.38-9.73-6.57-15.95-6.57-9.4,0-16.54,3.41-21.43,10.24l-1.33,1.86c-.16.25-.24.51-.24.76v.24c.06.35.24.64.52.86l3.71,2.62c.29.22.55.33.81.33.38,0,.71-.21,1-.62l1.33-1.86c3.49-4.86,8.7-7.29,15.62-7.29,4.25,0,7.89,1.51,10.91,4.52,3.02,2.98,4.52,6.6,4.52,10.86v9.38c0,3.24-.76,5.64-2.29,7.19-1.52,1.46-3.92,2.21-7.19,2.24h-62.38c-1.68,0-2.97-.43-3.86-1.29-.83-.86-1.24-2.19-1.24-4V15.25c0-.89-.44-1.33-1.33-1.33h-4.52c-.86,0-1.29.44-1.29,1.33v56.67c0,3.84,1.13,6.87,3.38,9.1,2.22,2.22,5.22,3.33,9,3.33ZM378.37,56.44c0-3.71,1.32-6.87,3.95-9.48,2.6-2.63,5.76-3.95,9.48-3.95s6.89,1.32,9.52,3.95c2.63,2.6,3.95,5.76,3.95,9.48v7.33c0,3.68-1.32,6.84-3.95,9.48s-5.81,3.95-9.52,3.95h-13.43v-20.76Z"/>
    <path class="cls-1" d="M278.31,92.97c-.89,0-1.33.44-1.33,1.33v5.71c0,.86.44,1.29,1.33,1.29h4.81c.86,0,1.29-.43,1.29-1.29v-5.71c0-.89-.43-1.33-1.29-1.33h-4.81Z"/>
  </g>
  <g>
    <path class="cls-1" d="M38.9,120.21c-1.69,0-2.79,1.09-2.79,2.79v5.71c0,1.69,1.09,2.79,2.79,2.79h4.81c1.72,0,2.83-1.09,2.83-2.79v-5.71c0-1.69-1.11-2.79-2.83-2.79h-4.81Z"/>
    <path class="cls-1" d="M42.62,198.4c5.45,0,10.32-1.77,14.49-5.25,3.8-3.18,6.32-7.18,7.48-11.89h24.75c3.84,0,7-1.06,9.43-3.15,2.62,2.09,6.25,3.15,10.81,3.15h31.62c3.85,0,7.01-1.06,9.41-3.16,2.6,2.1,6.23,3.16,10.83,3.16h37.48c6.07,0,11.33-2.18,15.63-6.49s6.49-9.55,6.49-15.58v-7.33c0-6.07-2.18-11.32-6.49-15.58-4.31-4.3-9.57-6.49-15.63-6.49s-11.33,2.18-15.63,6.49c-4.27,4.27-6.44,9.52-6.44,15.58v19.26h-16.64c-3.18,0-4.3-.67-4.74-1.12-.21-.2-.34-.71-.34-1.38v-57.95c0-1.69-1.11-2.79-2.83-2.79h-4.52c-1.72,0-2.83,1.09-2.83,2.79v56.62c0,1.43-.28,2.46-.8,2.99-.56.56-1.5.85-2.8.85h-32.95c-3.19,0-4.34-.68-4.75-1.08-.31-.31-.37-.94-.37-1.42v-34.1c0-1.72-1.11-2.83-2.83-2.83h-4.52c-1.69,0-2.79,1.11-2.79,2.83v32.76c0,.99-.14,2.31-.87,3.01-.53.55-1.45.83-2.73.83h-24.26v-36.64c0-1.72-1.11-2.83-2.83-2.83h-4.52c-1.69,0-2.79,1.11-2.79,2.83v41.29c0,3.49-1.21,6.38-3.7,8.84-2.46,2.46-5.34,3.66-8.8,3.66s-6.34-1.2-8.8-3.66c-2.46-2.46-3.66-5.35-3.66-8.84v-23c0-1.69-1.09-2.79-2.79-2.79h-4.57c-1.69,0-2.79,1.09-2.79,2.79v23c0,6.23,2.23,11.61,6.63,16.01,4.4,4.4,9.77,6.63,15.96,6.63ZM198.91,139.92c3.33,0,6.1,1.15,8.47,3.52,2.36,2.33,3.51,5.08,3.51,8.41v7.33c0,3.3-1.15,6.05-3.51,8.42-2.36,2.36-5.13,3.51-8.46,3.51h-11.93v-19.26c0-3.33,1.15-6.08,3.52-8.42,2.33-2.36,5.08-3.51,8.41-3.51Z"/>
    <path class="cls-1" d="M97.81,187.54c-1.72,0-2.83,1.11-2.83,2.83v5.71c0,1.69,1.11,2.79,2.83,2.79h4.76c1.72,0,2.83-1.09,2.83-2.79v-5.71c0-1.72-1.11-2.83-2.83-2.83h-4.76Z"/>
    <path class="cls-1" d="M84.76,187.54c-1.69,0-2.79,1.11-2.79,2.83v5.71c0,1.69,1.09,2.79,2.79,2.79h4.81c1.72,0,2.83-1.09,2.83-2.79v-5.71c0-1.72-1.11-2.83-2.83-2.83h-4.81Z"/>
    <path class="cls-1" d="M339.92,178.11c2.62,2.09,6.27,3.15,10.85,3.15h57.38c5.22,0,9.9-1.67,13.92-4.98.2.23.39.44.59.64,2.91,2.88,6.71,4.34,11.29,4.34h33.76c4.13,0,7.53-1.26,10.11-3.77,2.54-2.53,3.82-5.95,3.82-10.16v-56.67c0-1.72-1.09-2.83-2.79-2.83h-4.57c-1.69,0-2.79,1.11-2.79,2.83v56.72c0,1.37-.29,2.36-.87,2.96-.57.6-1.65.78-2.53.82-.11-.03-.23-.04-.34-.04h-35.1c-1.86,0-3.21-.45-4.13-1.37-.24-.24-.43-.53-.58-.87,1.5-3.06,2.26-6.33,2.26-9.74v-7.29c0-6.07-2.18-11.33-6.48-15.63-4.27-4.31-9.52-6.49-15.59-6.49s-11.31,2.18-15.58,6.49c-4.3,4.31-6.49,9.56-6.49,15.63v19.26h-36.55c-3.18,0-4.3-.67-4.73-1.12-.32-.3-.39-.92-.39-1.38v-34.1c0-1.72-1.09-2.83-2.79-2.83h-4.57c-1.66,0-2.74,1.11-2.74,2.83v32.76c0,1.41-.29,2.41-.91,3.01-.53.55-1.45.83-2.73.83h-31.88l8.51-18.21c.33-.65.49-1.36.49-2.1v-.38s0-.09,0-.13c-.48-5.58-3.05-10.45-7.64-14.47-4.58-4.04-9.86-6.09-15.71-6.09s-11.17,2.19-15.78,6.49c-4.31,3.97-6.85,8.61-7.55,13.72-.05.25-.08.51-.08.76,0,.72.15,1.43.47,2.16l8.53,18.25h-22.55c-1.27,0-2.22-.29-2.78-.83-.54-.56-.82-1.56-.82-2.96v-56.67c0-1.72-1.11-2.83-2.83-2.83h-4.52c-1.69,0-2.79,1.11-2.79,2.83v56.67c0,4.24,1.29,7.66,3.82,10.16,2.5,2.5,5.89,3.77,10.06,3.77h82.91c3.81,0,6.96-1.06,9.39-3.15ZM408.15,139.92c3.33,0,6.1,1.14,8.46,3.47,2.36,2.36,3.51,5.13,3.51,8.46v7.29c0,3.33-1.15,6.1-3.51,8.46-2.36,2.36-5.13,3.51-8.46,3.51h-11.93v-19.26c0-3.33,1.15-6.1,3.51-8.46,2.33-2.33,5.09-3.47,8.42-3.47ZM275.89,143.28c2.63-2.26,5.43-3.35,8.55-3.35s5.97,1.03,8.59,3.15c2.47,1.96,3.94,4.2,4.47,6.86l-9.87,21.18h-6.37l-9.8-21.03c.69-2.53,2.19-4.82,4.44-6.8Z"/>
    <path class="cls-1" d="M330.44,111.78c-1.72,0-2.83,1.09-2.83,2.79v5.76c0,1.69,1.11,2.79,2.83,2.79h4.86c1.69,0,2.79-1.09,2.79-2.79v-5.76c0-1.69-1.09-2.79-2.79-2.79h-4.86Z"/>
    <path class="cls-1" d="M343.44,111.78c-1.69,0-2.79,1.09-2.79,2.79v5.76c0,1.69,1.09,2.79,2.79,2.79h4.76c1.72,0,2.83-1.09,2.83-2.79v-5.76c0-1.69-1.11-2.79-2.83-2.79h-4.76Z"/>
    <path class="cls-1" d="M497.15,181.26h4.62c1.66,0,2.74-1.09,2.74-2.79v-67.86c0-1.69-1.08-2.79-2.74-2.79h-4.62c-1.69,0-2.79,1.09-2.79,2.79v67.86c0,1.69,1.09,2.79,2.79,2.79Z"/>
  </g>
</svg>