<?xml version="1.0" encoding="UTF-8"?>
<svg id="Layer_1" data-name="Layer 1" xmlns="http://www.w3.org/2000/svg" viewBox="0 0 125.82 206.52">
  <defs>
    <style>
      .cls-1 {
        fill: #bab4a3;
      }
    </style>
  </defs>
  <path class="cls-1" d="M42.62,58.97c.12.14.25.29.39.42.14.14.28.26.42.39,3.65,3.07,8.78-2.06,5.71-5.71-.12-.14-.25-.28-.38-.42-.13-.13-.27-.26-.42-.38-3.66-3.08-8.79,2.05-5.72,5.7"/>
  <path class="cls-1" d="M20.22,45.7c.14.14.28.26.42.39,3.65,3.07,8.78-2.06,5.71-5.71-.12-.14-.25-.28-.38-.42-.13-.13-.27-.26-.42-.38-3.65-3.08-8.79,2.05-5.71,5.71.11.13.24.28.38.41"/>
  <path class="cls-1" d="M37.48,28.39c.14.14.28.26.42.39,3.65,3.07,8.78-2.06,5.71-5.71-.12-.14-.25-.28-.38-.42-.13-.13-.27-.26-.42-.38-3.65-3.08-8.79,2.05-5.71,5.71.12.13.24.27.38.41"/>
  <path class="cls-1" d="M65.72,17.37c.14-.12.28-.26.41-.39.13-.14.26-.28.38-.43,3.02-3.7-2.2-8.75-5.8-5.62-.14.12-.28.25-.41.39-.13.14-.26.28-.38.42-3.02,3.7,2.19,8.76,5.8,5.63"/>
  <path class="cls-1" d="M82.75,21.99c-.13.14-.26.28-.38.42-3.02,3.7,2.19,8.75,5.79,5.62.14-.12.28-.26.41-.39.13-.14.26-.28.38-.43,3.02-3.7-2.2-8.75-5.8-5.62-.13.13-.27.26-.4.4"/>
  <path class="cls-1" d="M100.78,39.61c-.14.12-.28.25-.41.39-.13.14-.26.28-.38.42-3.02,3.7,2.19,8.75,5.79,5.62.14-.12.28-.26.41-.39.13-.14.26-.28.38-.43,3.02-3.69-2.19-8.74-5.79-5.61"/>
  <path class="cls-1" d="M77.41,53.31c-.14.12-.28.25-.41.39-.13.14-.26.28-.38.42-3.02,3.7,2.19,8.75,5.79,5.62.14-.12.28-.26.41-.39.13-.14.26-.28.38-.43,3.02-3.7-2.19-8.75-5.79-5.61"/>
  <path class="cls-1" d="M113.89,38.97c-.71,9.34-7.72,13.45-16.29,17.44-.76-4.64-2.57-8.65-5.48-12.13-1.13.85-3.15,2.29-5.43,3.62,2.81,3.17,4.36,6.83,4.76,11.33-5.88,2.76-11.78,5.97-15.64,11.09-1.7-5.24-4.45-9.93-8.26-14.15,4.35-3.62,9.4-6.67,14.29-9.6l1.05-.64c.51-.3,1.01-.61,1.53-.9,1.45-.88,3-1.83,4.46-2.79,6.18-3.99,12.13-8.66,14.93-15.64-1.68-1.69-3.42-3.3-5.24-4.83v.03c-1.6,6.54-6.88,11.05-14.34,15.77-3.66-2.34-7.7-4.28-11.62-6.13l-1.13-.55c-.67-.33-1.34-.64-2.01-.97,7.22-4.92,11.72-10.84,13.87-18.3-1.93-.99-3.91-1.91-5.92-2.75-2.36,9.32-8.57,14.14-14.53,17.59-5.95-3.45-12.17-8.27-14.53-17.59-2.02.84-4,1.76-5.93,2.75,2.27,7.84,7.09,13.96,14.96,19.03,1.52.98,3.21,1.96,5.15,3,2.34,1.24,4.69,2.36,7.3,3.6l.09.05c2.86,1.36,5.56,2.65,8.07,4.05-4.91,2.94-10.36,6.25-15.11,10.31-3.78-3.22-7.96-5.94-11.67-8.22-2.8,1.41-4.91,2.98-6.02,3.88,4.87,2.93,9.58,5.85,13.61,9.33,1.35,1.17,2.51,2.28,3.53,3.39,6.18,6.66,9.07,14.37,9.07,24.26v5.53h-17.05v-5.63c.02-8.09,2.05-14.83,6.2-20.63-1.74-2.25-3.5-3.84-4.58-4.71-2.68,3.49-4.67,7.29-6.01,11.44-3.87-5.12-9.77-8.34-15.65-11.08.53-5.95,3.02-10.42,7.89-14.25,1.24-1,2.71-1.97,4.47-3,2.84-1.67,5.95-3.16,9.26-4.72.98-.47,1.98-.94,2.98-1.43l.16-.08c-2.74-1.49-4.84-3.17-6.06-4.24-3.87,1.85-7.84,3.75-11.45,6.06-7.46-4.71-12.75-9.23-14.33-15.77v-.04c-1.83,1.54-3.58,3.15-5.26,4.83,2.69,6.69,8.25,11.24,14.13,15.12-4.33,4.04-6.95,8.88-7.91,14.68-8.57-4-15.58-8.11-16.29-17.44-1.69,2.55-3.24,5.2-4.65,7.96,3.83,8.78,12.94,12.94,21.21,16.7,10.43,4.75,19.44,8.86,19.47,20.65v5.58h-10.59v7.11h51.13v-7.11h-10.59v-5.52c0-11.84,9.02-15.95,19.47-20.71,8.27-3.76,17.37-7.92,21.21-16.7-1.43-2.72-2.99-5.38-4.68-7.93"/>
  <path class="cls-1" d="M8.95,162.33c-1.29,0-1.94.7-1.94,2.1s.65,2.09,1.94,2.09,1.96-.69,1.96-2.09-.65-2.1-1.96-2.1"/>
  <path class="cls-1" d="M14.68,162.33c-1.29,0-1.94.7-1.94,2.1s.65,2.09,1.94,2.09,1.96-.69,1.96-2.09-.66-2.1-1.96-2.1"/>
  <path class="cls-1" d="M59.11,133.59c1.3,0,1.96-.7,1.96-2.09s-.65-2.1-1.96-2.1-1.94.7-1.94,2.1.65,2.09,1.94,2.09"/>
  <path class="cls-1" d="M64.86,133.59c1.29,0,1.94-.7,1.94-2.09s-.65-2.1-1.94-2.1-1.96.7-1.96,2.1.65,2.09,1.96,2.09"/>
  <path class="cls-1" d="M60.61,152.29h-28.27v-15.24h-4.54c-6.51,0-9.77,3.52-9.77,10.56v4.83c0,3.3-2.19,4.96-6.57,4.96h-4.56c-1.13,0-2.04-.36-2.71-1.09-.67-.73-1.01-1.71-1.01-2.95,0-1.46.18-3.07.55-4.81H.93c-.62,1.68-.93,3.37-.93,5.07,0,2.13.6,3.79,1.81,4.96,1.21,1.17,2.94,1.76,5.2,1.76h4.45c3.12,0,5.55-.69,7.29-2.08,1.74-1.39,2.61-3.31,2.61-5.77v-4.76c0-5.17,2.23-7.76,6.68-7.76h.97v15.26h34.93v-18.17h-3.33v15.23Z"/>
  <path class="cls-1" d="M111.1,152.29h-2.32c-1.19,0-2.17-.39-2.94-1.16-.76-.77-1.14-1.77-1.14-2.99v-8.18h-3.18v12.33h-2.32c-1.19,0-2.17-.39-2.94-1.16-.76-.77-1.14-1.77-1.14-2.99v-8.18h-3.18v12.33h-11.8c-1.11,0-2.01-.32-2.69-.97-.68-.65-1.02-1.52-1.02-2.62v-11.65h-3.15v19.24c0,1.5-.33,2.71-.98,3.62-.65.91-1.53,1.37-2.62,1.37-1.29,0-2.46-.39-3.51-1.17l-1.5,2.29c1.46,1.21,3.16,1.81,5.09,1.81,2.13,0,3.78-.72,4.94-2.16s1.74-3.42,1.74-5.95v-3.04c.62,1.28,1.82,1.98,3.57,2.11v.03h15.13v-2.14c.69,1.43,2.09,2.14,4.19,2.14h5.4v-2.14c.7,1.43,2.09,2.14,4.19,2.14h5.4v-18.17h-3.18v15.26h-.04Z"/>
  <path class="cls-1" d="M122.72,122.93l-.68.11c-.76-.4-1.13-.99-1.13-1.76,0-1.28.65-1.92,1.96-1.92.66,0,1.28.15,1.87.46l.57-1.7c-.74-.37-1.57-.55-2.47-.55-1.17,0-2.1.3-2.79.89-.69.59-1.03,1.42-1.03,2.48,0,.99.44,1.77,1.32,2.36l-1.77.26v1.74c.74-.15,2.03-.34,3.87-.57,1.84-.23,2.96-.35,3.38-.35v-1.83c-.93.08-1.95.21-3.1.38"/>
  <rect class="cls-1" x="120.65" y="126.75" width="3.33" height="28.46"/>
  <path class="cls-1" d="M125.79,105.87H0V0h125.78v105.87ZM.87,105.01h124.05V.86H.87v104.15Z"/>
  <path class="cls-1" d="M18.36,193.69c0,6.69-2.87,9.65-7.36,9.65-4.04,0-7.05-2.87-7.05-9.65v-17.9H0v17.81c0,9.38,4.67,12.92,10.86,12.92,6.55,0,11.44-3.81,11.44-13.1v-17.64h-3.95v17.91h.01Z"/>
  <path class="cls-1" d="M38.15,188.89c-4.17-1.62-6.01-3.01-6.01-5.83,0-2.06,1.57-4.53,5.7-4.53,2.74,0,4.76.9,5.74,1.44l1.08-3.19c-1.35-.76-3.59-1.48-6.69-1.48-5.88,0-9.78,3.5-9.78,8.21,0,4.26,3.05,6.82,7.99,8.57,4.08,1.57,5.7,3.19,5.7,6.01,0,3.05-2.33,5.16-6.33,5.16-2.69,0-5.25-.9-7-1.97l-.99,3.28c1.62,1.08,4.8,1.93,7.72,1.93,7.14,0,10.59-4.04,10.59-8.71s-2.6-6.92-7.72-8.89"/>
  <path class="cls-1" d="M64.13,191.63v-.13c3.19-1.08,5.7-3.72,5.7-7.72,0-2.33-.85-4.4-2.38-5.74-1.88-1.71-4.58-2.47-8.75-2.47-2.69,0-5.52.22-7.49.63v29.84h3.9v-13.1h3.68c3.54.13,5.16,1.71,6.06,5.88.85,3.77,1.53,6.37,2.02,7.22h4.04c-.63-1.17-1.35-4.08-2.33-8.3-.72-3.15-2.11-5.31-4.45-6.11M59.11,189.97h-3.99v-11.04c.63-.18,1.97-.36,3.86-.36,4.13.04,6.96,1.75,6.96,5.65,0,3.46-2.66,5.75-6.83,5.75"/>
  <path class="cls-1" d="M83.56,175.79l-10.28,30.24h4.04l3.14-9.51h10.72l3.23,9.51h4.17l-10.32-30.24h-4.7ZM81.28,193.47l2.96-8.75c.58-1.84,1.08-3.68,1.53-5.47h.09c.45,1.75.9,3.55,1.57,5.52l2.96,8.71h-9.11Z"/>
  <polygon class="cls-1" points="96.13 179.11 105.33 179.11 105.33 206.03 109.28 206.03 109.28 179.11 118.52 179.11 118.52 175.79 96.13 175.79 96.13 179.11"/>
  <rect class="cls-1" x="121.89" y="175.79" width="3.9" height="30.24"/>
</svg>