<?xml version="1.0" encoding="UTF-8"?>
<svg id="Layer_1" data-name="Layer 1" xmlns="http://www.w3.org/2000/svg" xmlns:xlink="http://www.w3.org/1999/xlink" viewBox="0 0 667.36 149.32">
  <defs>
    <style>
      .cls-1 {
        fill: none;
      }

      .cls-2 {
        fill: #ad833b;
      }
    </style>
    <clipPath id="clippath">
      <rect class="cls-1" x="-183.31" y="104.24" width="740.26" height="195.23"/>
    </clipPath>
  </defs>
  <g>
    <g>
      <path class="cls-2" d="M25.24,27.35c-2.04,2.45-3.19,3.68-3.45,3.68-.13,0-.92-.38-2.37-1.13-1.45-.75-2.28-1.21-2.5-1.39-.8.71-1.61,1.53-2.45,2.45-.6-.15-1.45-.52-2.55-1.1-1.18-.62-1.95-1.14-2.29-1.55.84-.84,1.99-2.06,3.45-3.68.34.34,1.07.86,2.18,1.55,1.11.69,1.83,1.03,2.18,1.03.17,0,.62-.37,1.35-1.1s1.27-1.23,1.61-1.48l4.84,2.71ZM34.07,58.11h-4.03c-1.29,0-2.21-.86-2.77-2.58-.19-.6-.48-2.1-.87-4.48l-.06-.26-.39.06c-.54.32-1.21,1.33-2.03,3.03-.73,1.5-1.48,2.26-2.26,2.26-.99,0-2.65-.33-4.98-1-2.33-.67-4.06-1-5.17-1,0-1.03.46-2.71,1.37-5.03.91-2.32,1.72-3.83,2.43-4.51.88-.84,2.3-1.78,4.26-2.84,2.13-1.14,3.58-2.03,4.35-2.68,0-.26-.1-.61-.31-1.06-.21-.45-.31-.79-.31-1.03.79-1.07,1.92-3,3.39-5.77h.06c.34,1.29.91,4.79,1.71,10.51.77,5.5,1.24,8.38,1.39,8.64.34.6.66.96.94,1.06.13.04.61.06,1.45.06h1.84v6.61ZM26.01,48.34c0-.6-.16-1.86-.48-3.77-.34-2.02-.62-3.14-.84-3.35-.58.45-1,.97-1.26,1.55-.43.92-.71,1.48-.84,1.68-.54.77-1.55,1.47-3.03,2.1-1.59.67-2.47,1.1-2.64,1.29.75.28,2.22.62,4.42,1.03,1.63.32,3.17.39,4.61.19l.06-.71Z"/>
      <path class="cls-2" d="M38.91,58.11h-6.16v-6.61h6.16v6.61Z"/>
      <path class="cls-2" d="M43.07,58.11h-6.16v-6.61h6.16v6.61Z"/>
      <path class="cls-2" d="M47.22,58.11h-6.16v-6.61h6.16v6.61Z"/>
      <path class="cls-2" d="M51.38,58.11h-6.16v-6.61h6.16v6.61Z"/>
      <path class="cls-2" d="M55.54,58.11h-6.16v-6.61h6.16v6.61Z"/>
      <path class="cls-2" d="M59.7,58.11h-6.16v-6.61h6.16v6.61Z"/>
      <path class="cls-2" d="M63.86,58.11h-6.16v-6.61h6.16v6.61Z"/>
      <path class="cls-2" d="M68.02,58.11h-6.16v-6.61h6.16v6.61Z"/>
      <path class="cls-2" d="M72.18,58.11h-6.16v-6.61h6.16v6.61Z"/>
      <path class="cls-2" d="M76.34,58.11h-6.16v-6.61h6.16v6.61Z"/>
      <path class="cls-2" d="M80.5,58.11h-6.16v-6.61h6.16v6.61Z"/>
      <path class="cls-2" d="M84.66,58.11h-6.16v-6.61h6.16v6.61Z"/>
      <path class="cls-2" d="M105.19,58.11h-4.16c-2.34,0-3.96-1.45-4.84-4.35l-2.42,4.35h-10.64v-6.61h12.28l.13-.19c.34-.84.56-2.88.64-6.13,2.39-3.14,3.71-4.71,3.97-4.71s.06,2.42-.58,7.25c-.15,1.03.19,1.92,1.03,2.68.77.73,1.68,1.1,2.71,1.1h1.87v6.61ZM101.55,67.1c-1.98,2.77-3.14,4.16-3.48,4.16-.04,0-.84-.46-2.39-1.39-.52-.3-1.29-.76-2.32-1.39-.8.77-1.63,1.64-2.51,2.61-2.04-.75-3.62-1.7-4.74-2.84.84-.92,1.98-2.27,3.42-4.03.28.37.98.91,2.1,1.63,1.12.72,1.86,1.08,2.22,1.08.15,0,.61-.42,1.39-1.26.88-.95,1.39-1.47,1.51-1.58l4.8,3Z"/>
      <path class="cls-2" d="M133.31,50.85c0,.17-.6,1.25-1.81,3.24-1.2,1.99-1.92,3.08-2.16,3.27l-11.9-4.29c-.6.13-1.32,1.04-2.16,2.74-.79,1.61-1.5,2.37-2.13,2.29h-8.96v-6.61h10.7l.06-.19c.47-1.1,1.24-2.72,2.29-4.87,1.5-2.77,3.71-4.87,6.61-6.29.15,0,.88-.28,2.18-.85,1.3-.57,2.29-.85,2.98-.85s1.06.17,1.19.52c.13.62.37,1.55.71,2.77.34,1.01.85,2.5,1.51,4.48.58,1.76.87,3.31.87,4.64ZM127.76,49.6c-.43-1.16-.81-2.12-1.13-2.87-.67-1.44-1.17-2.18-1.52-2.22-.92,0-1.85.23-2.77.68-.5.3-.98.58-1.45.84l-.68.48,7.54,3.1Z"/>
      <path class="cls-2" d="M158.13,58.11h-2.64c-.75,2.82-2.2,5.59-4.35,8.32-2.51,3.18-4.96,4.74-7.32,4.67-1.12-.02-3.51-.78-7.19-2.29-3.8-1.55-5.71-2.63-5.71-3.26,0-.43.23-.65.68-.65s1.31.25,2.64.74c1.33.49,2.36.75,3.09.77,2.43.06,5.18-.79,8.25-2.55,2.99-1.74,5.15-3.67,6.48-5.77h-.81c-6.77,0-10.16-1.65-10.16-4.97,0-1.33.86-3.81,2.58-7.45,2.06-4.41,4.13-6.61,6.19-6.61,1.81,0,3.42,1.89,4.84,5.67,1.05,2.86,1.58,4.95,1.58,6.29v.45h1.84v6.61ZM151.33,50.37v-.19c-.88-3.07-2.13-4.61-3.74-4.61-1.08,0-2.05.84-2.93,2.51v.06c0,.99.54,1.77,1.61,2.35.88.49,1.87.74,2.97.74,1.18,0,1.88-.29,2.1-.87Z"/>
      <path class="cls-2" d="M162.78,58.11h-6.16v-6.61h6.16v6.61Z"/>
      <path class="cls-2" d="M187.67,58.11h-4.55c-.67-.67-2.32-2.34-4.96-5.03-.88,1.29-2.06,2.97-3.55,5.03h-13.96v-6.61h14.8c.49,0,.72-.24.68-.71l-11.77-10.83c.17-.32.5-1.38.98-3.16.48-1.78,1.08-3.5,1.79-5.16,4.88-1.59,11.02-3.44,18.41-5.55l-1.39,6.13c-1.14.32-6.27,1.69-15.38,4.09l15.99,15.19h2.9v6.61Z"/>
      <path class="cls-2" d="M243.8,32.54c-.26.32-1.82,2.4-4.67,6.22,0,.84.42,4.32,1.26,10.45.11.9-.08,2.38-.55,4.42-.17.82-.45,2.06-.84,3.74-.06.49-.77.74-2.13.74h-16.57l-.71-4.97c-.99-.13-3.55-.19-7.67-.19-1.25,0-3.33.86-6.24,2.58-2.91,1.72-4.99,2.58-6.24,2.58h-12.48v-6.61h13.73c1.27,0,2.91-.4,4.93-1.19,1.89-.73,2.84-1.24,2.84-1.52-.84-.39-2.38-.96-4.61-1.71-2.69-.92-4.36-1.36-5.03-1.32-.58.04-1.41.37-2.5.98-1.09.61-1.94.92-2.56.92-.17,0,.09-.66.77-1.97.75-1.42,1.66-2.68,2.71-3.77,1.53-1.57,3.14-2.35,4.84-2.35,1.87,0,3.93.55,6.19,1.64,3.83,1.83,6.34,2.9,7.54,3.22,4.23,1.14,7.53,1.71,9.9,1.71-.49,1.55-1.06,3.33-1.71,5.35h12.22c.17-.17.26-.61.26-1.32,0-1.76-.46-4.53-1.39-8.3-.92-3.77-1.39-6.32-1.39-7.66-.62-.49-1.38-1.1-2.26-1.81,1.98-3.91,3.39-6.35,4.22-7.32,0,1.55.4,2.62,1.19,3.22,1.85,1.2,4.16,2.59,6.93,4.16v.06Z"/>
      <path class="cls-2" d="M256.73,48.34c0,4.62-1.1,8.43-3.29,11.41l-2.9-25.6c0-.62,1.49-3.25,4.48-7.87,1.14,6.56,1.71,13.91,1.71,22.05Z"/>
      <path class="cls-2" d="M308.32,46.08c0,1.1-.25,2.92-.74,5.48-.65,1.85-1.55,4.03-2.71,6.54h-24.28c-1.93,0-3.69-.61-5.26-1.84-1.7-1.29-2.55-2.88-2.55-4.77,0-1.44.39-3.7,1.16-6.77.88-3.59,1.75-5.38,2.61-5.38.3,0,.32.73.06,2.19-.34,2.02-.52,3.47-.52,4.35,0,1.31.26,2.28.77,2.9,1.5,1.81,3.56,2.71,6.16,2.71h20.92c.26-.21.39-.57.39-1.06,0-.34-.26-1.27-.77-2.77-.54-.88-1.18-1.93-1.93-3.16l3.38-5.87c2.19,2.73,3.29,5.21,3.29,7.45ZM298.61,31.22c-1.89,2.47-3.04,3.71-3.45,3.71-.13,0-.95-.42-2.47-1.26-1.52-.84-2.29-1.26-2.34-1.26-.75.71-1.55,1.53-2.39,2.45-.54-.15-1.39-.53-2.55-1.13-1.16-.6-1.91-1.09-2.26-1.45.84-.88,2-2.08,3.48-3.61.32.37,1.02.86,2.1,1.48,1.07.62,1.81.94,2.19.94.17,0,.62-.37,1.35-1.1.82-.79,1.31-1.24,1.48-1.32l4.84,2.55Z"/>
      <path class="cls-2" d="M324.21,58.11h-8.71l-2.58-28.66,4.22-5.09c.13,1.87.57,6.67,1.32,14.41l1.16,11.22c.26,1.01,1.02,1.52,2.29,1.52h2.29v6.61Z"/>
      <path class="cls-2" d="M329.05,58.11h-6.16v-6.61h6.16v6.61Z"/>
      <path class="cls-2" d="M333.21,58.11h-6.16v-6.61h6.16v6.61Z"/>
      <path class="cls-2" d="M337.37,58.11h-6.16v-6.61h6.16v6.61Z"/>
      <path class="cls-2" d="M341.53,58.11h-6.16v-6.61h6.16v6.61Z"/>
      <path class="cls-2" d="M345.68,58.11h-6.16v-6.61h6.16v6.61Z"/>
      <path class="cls-2" d="M349.84,58.11h-6.16v-6.61h6.16v6.61Z"/>
      <path class="cls-2" d="M354,58.11h-6.16v-6.61h6.16v6.61Z"/>
      <path class="cls-2" d="M358.16,58.11h-6.16v-6.61h6.16v6.61Z"/>
      <path class="cls-2" d="M362.32,58.11h-6.16v-6.61h6.16v6.61Z"/>
      <path class="cls-2" d="M366.48,58.11h-6.16v-6.61h6.16v6.61Z"/>
      <path class="cls-2" d="M370.64,58.11h-6.16v-6.61h6.16v6.61Z"/>
      <path class="cls-2" d="M399.75,51.05c-1.05,1.81-2.4,4.16-4.03,7.06h-26.6v-6.61h5.29v-1.26c0-.52-.02-1-.06-1.45,0-1.4.63-2.81,1.9-4.22.34-.75,1.58-2.12,3.71-4.09,2.75-2.56,5.02-3.84,6.8-3.84,2.47,0,4.8,1.44,7,4.32,1.65,2.15,2.48,3.8,2.48,4.96,0,.24-.04.45-.13.65-.02.06-.3-.16-.84-.68-.77-.75-1.76-1.36-2.97-1.84-1.76-.71-3.84-1.06-6.22-1.06-1.87,0-3.65.31-5.35.93-1.27.45-1.9.77-1.9.97,0,.56.87,1.69,2.61,3.39,1.44,1.4,2.59,2.41,3.45,3.03.32.21.85.32,1.58.32,1.48,0,3.7-.1,6.64-.29,2.95-.19,5.16-.29,6.64-.29Z"/>
      <path class="cls-2" d="M424.13,58.11h-.77l-2.39.06c-1.03.02-1.93-.48-2.71-1.52-.34,2.75-1.73,5.81-4.16,9.19-2.69,3.74-5.31,5.61-7.87,5.61-1.16,0-3.58-.77-7.25-2.32-3.83-1.61-5.74-2.78-5.74-3.51,0-.3.13-.45.39-.45s1.16.33,2.69,1c1.54.67,2.74,1,3.59,1,2.17,0,4.9-1.26,8.19-3.77,4.47-3.42,6.71-6.1,6.71-8.06,0-.54-.59-1.63-1.77-3.29-.97-1.38-1.76-2.42-2.39-3.13.88-1.53,2.03-3.48,3.45-5.87.77,1.14,1.93,2.86,3.48,5.16,1.57,2.19,3.16,3.29,4.77,3.29h1.77v6.61Z"/>
      <path class="cls-2" d="M428.71,58.11h-6.16v-6.61h6.16v6.61Z"/>
      <path class="cls-2" d="M432.87,58.11h-6.16v-6.61h6.16v6.61Z"/>
      <path class="cls-2" d="M437.03,58.11h-6.16v-6.61h6.16v6.61Z"/>
      <path class="cls-2" d="M441.18,58.11h-6.16v-6.61h6.16v6.61Z"/>
      <path class="cls-2" d="M445.34,58.11h-6.16v-6.61h6.16v6.61Z"/>
      <path class="cls-2" d="M449.5,58.11h-6.16v-6.61h6.16v6.61Z"/>
      <path class="cls-2" d="M453.66,58.11h-6.16v-6.61h6.16v6.61Z"/>
      <path class="cls-2" d="M457.82,58.11h-6.16v-6.61h6.16v6.61Z"/>
      <path class="cls-2" d="M461.98,58.11h-6.16v-6.61h6.16v6.61Z"/>
      <path class="cls-2" d="M466.14,58.11h-6.16v-6.61h6.16v6.61Z"/>
      <path class="cls-2" d="M470.3,58.11h-6.16v-6.61h6.16v6.61Z"/>
      <path class="cls-2" d="M474.46,58.11h-6.16v-6.61h6.16v6.61Z"/>
      <path class="cls-2" d="M478.62,58.11h-6.16v-6.61h6.16v6.61Z"/>
      <path class="cls-2" d="M482.78,58.11h-6.16v-6.61h6.16v6.61Z"/>
      <path class="cls-2" d="M520.08,58.11h-3.35l-.55-2.03c-.52,1.14-.82,1.82-.9,2.03h-8.87c-.06-.11-.24-.42-.52-.94-.26-.45-.44-.69-.55-.71-.11,0-.32.19-.64.58-.24.3-.55.66-.93,1.06h-11.35c-.71-.04-1.24-.82-1.58-2.32l-.42.42c-1.27,1.27-2.21,1.9-2.84,1.9h-6.32v-6.61h8.32c1.27,0,1.9-1.36,1.9-4.09.79-1.05,2.25-2.9,4.35-5.55,0,1.31-.32,2.99-.97,5.03-.41,1.23-.87,2.41-1.39,3.55l.06.16c.32.64,2.45.97,6.38.97,1.81,0,3.55-.06,5.22-.19.09-1.1.33-2.38.74-3.84,1.05-1.76,2.42-3.39,4.09-4.87-1.2,4-1.81,6.64-1.81,7.93,0,.34.04.6.13.77v.13h6.22c-.26-1.1-.55-2.5-.87-4.22,0-.26.59-1.2,1.77-2.84,1.14-1.53,1.89-2.47,2.26-2.84v7.74c0,1.05-.02,1.77-.06,2.16h2.45v6.61Z"/>
      <path class="cls-2" d="M539.23,55.4c-.09,2-.83,4.16-2.22,6.48-1.5-1.5-2.63-2.52-3.38-3.03h-.06c-.84-.49-1.98-.76-3.42-.81,1.85.04,1.05.06-2.39.06h-8.71v-6.61h8.25c.39,0,.58-.5.58-1.52,0-1.76-.48-4.51-1.45-8.25-.97-3.74-1.45-6.24-1.45-7.51,0-.09-.36-.41-1.06-.97-.71-.56-1.06-.92-1.06-1.1,0-.56.63-1.92,1.89-4.08s2.09-3.24,2.5-3.24c.17,0,.32.44.45,1.32.13.99.39,1.62.77,1.9,1.89,1.35,3.99,2.76,6.29,4.22-.21.26-.89,1.43-2.03,3.51-.95,1.68-1.61,2.51-2,2.51,0,.75.29,4.18.87,10.29.08.9,1.41,2.08,3.97,3.55,2.49,1.44,3.72,2.53,3.67,3.26Z"/>
      <path class="cls-2" d="M552.09,48.34c0,4.62-1.1,8.43-3.29,11.41l-2.9-25.6c0-.62,1.49-3.25,4.48-7.87,1.14,6.56,1.71,13.91,1.71,22.05Z"/>
    </g>
    <g>
      <path class="cls-2" d="M318.54,140.81c-.78,0-1.45-.04-2.01-.13-.56-.08-1.04-.2-1.43-.36-.39-.16-.7-.34-.94-.56-.24-.22-.42-.46-.55-.71-.13-.26-.22-.54-.26-.83-.05-.3-.07-.61-.07-.93,0-.12,0-.27.01-.43,0-.16.02-.33.04-.5.02-.17.04-.34.06-.51s.05-.33.07-.47l1.65.16c-.03.23-.07.45-.1.68s-.05.45-.05.68c0,.39.05.72.15,1,.1.28.31.5.63.68.32.17.79.3,1.4.38.61.08,1.44.12,2.48.12h7.85v-5.76h1.75v7.51h-10.68ZM319.37,129.82c0-.14.03-.28.08-.4.05-.13.13-.24.22-.33.09-.09.2-.17.33-.22.13-.05.26-.08.4-.08s.28.03.4.08c.13.06.24.13.33.22.09.09.17.2.22.33.06.13.08.26.08.4s-.03.28-.08.4c-.05.13-.13.23-.22.33-.09.09-.2.16-.33.22-.13.06-.26.08-.4.08-.29,0-.54-.1-.73-.3-.2-.2-.3-.44-.3-.73ZM322.14,129.82c0-.14.03-.28.08-.4.05-.13.13-.24.22-.33s.2-.17.33-.22c.13-.05.26-.08.4-.08s.28.03.4.08c.13.06.24.13.33.22s.17.2.22.33.08.26.08.4-.03.28-.08.4c-.05.13-.13.23-.22.33-.09.09-.2.16-.33.22-.13.06-.26.08-.4.08-.29,0-.54-.1-.73-.3-.2-.2-.3-.44-.3-.73Z"/>
      <path class="cls-2" d="M332.53,126.87h1.75v13.96h-1.75v-13.96Z"/>
      <path class="cls-2" d="M335.84,143.2c.69-.09,1.25-.23,1.66-.41s.72-.42.94-.71c.21-.29.35-.63.42-1.02.07-.39.1-.83.1-1.32v-6.44h1.75v5.94c0,.98-.09,1.81-.28,2.47-.19.66-.47,1.21-.86,1.64-.38.43-.87.76-1.46,1-.59.23-1.29.4-2.09.51l-.17-1.67Z"/>
      <path class="cls-2" d="M343.8,126.87h1.75v10.42c0,.35.01.64.04.87.03.23.08.41.16.54.07.13.17.23.3.28.13.06.29.08.49.08h.65c.23,0,.41.04.52.12.12.08.17.21.17.4v.67c0,.12-.02.22-.05.3-.04.07-.09.13-.15.17-.06.04-.14.06-.22.08-.08.01-.17.02-.27.02h-.91c-.43,0-.8-.07-1.11-.21-.31-.14-.57-.34-.77-.59s-.35-.55-.45-.89c-.1-.34-.15-.72-.15-1.12v-11.13Z"/>
      <path class="cls-2" d="M350.97,140.25c0,.12-.02.22-.05.3-.04.07-.09.13-.15.17-.06.04-.14.06-.22.08-.08.01-.17.02-.27.02h-3.08c-.1,0-.19,0-.27-.02-.08-.01-.16-.04-.22-.08-.06-.04-.12-.1-.15-.17-.04-.07-.05-.17-.05-.3v-.67c0-.19.06-.32.17-.4s.29-.12.52-.12h3.08c.23,0,.41.04.52.12s.17.21.17.4v.67Z"/>
      <path class="cls-2" d="M354.05,140.25c0,.12-.02.22-.05.3-.04.07-.09.13-.15.17-.06.04-.14.06-.22.08-.08.01-.17.02-.27.02h-3.08c-.1,0-.19,0-.27-.02-.08-.01-.16-.04-.22-.08-.06-.04-.12-.1-.15-.17-.04-.07-.05-.17-.05-.3v-.67c0-.19.06-.32.17-.4s.29-.12.52-.12h3.08c.23,0,.41.04.52.12s.17.21.17.4v.67Z"/>
      <path class="cls-2" d="M357.13,140.25c0,.12-.02.22-.05.3-.04.07-.09.13-.15.17-.06.04-.14.06-.22.08-.08.01-.17.02-.27.02h-3.08c-.1,0-.19,0-.27-.02-.08-.01-.16-.04-.22-.08-.06-.04-.12-.1-.15-.17-.04-.07-.05-.17-.05-.3v-.67c0-.19.06-.32.17-.4s.29-.12.52-.12h3.08c.23,0,.41.04.52.12s.17.21.17.4v.67Z"/>
      <path class="cls-2" d="M360.21,140.25c0,.12-.02.22-.05.3-.04.07-.09.13-.15.17-.06.04-.14.06-.22.08-.08.01-.17.02-.27.02h-3.08c-.1,0-.19,0-.27-.02-.08-.01-.16-.04-.22-.08-.06-.04-.12-.1-.15-.17-.04-.07-.05-.17-.05-.3v-.67c0-.19.06-.32.17-.4s.29-.12.52-.12h3.08c.23,0,.41.04.52.12s.17.21.17.4v.67Z"/>
      <path class="cls-2" d="M362.5,139.47c-.14.25-.28.46-.43.64s-.32.31-.5.41c-.18.1-.37.18-.59.22s-.45.07-.72.07h-.76c-.23,0-.41-.04-.52-.12s-.17-.21-.17-.4v-.67c0-.12.02-.22.05-.3.04-.07.09-.13.15-.17.06-.04.14-.06.22-.08.08-.01.17-.02.27-.02h.46c.4,0,.76-.09,1.07-.28.31-.18.53-.48.64-.88.19-.69.4-1.29.63-1.79.23-.5.48-.93.73-1.28s.52-.64.78-.85c.27-.22.53-.39.79-.51s.51-.21.74-.25.45-.06.66-.06c.43,0,.83.06,1.19.18.36.12.67.29.95.5s.52.46.73.73.38.57.51.87c.14.3.24.61.3.92.06.31.1.61.1.88,0,.25-.03.52-.1.8-.07.28-.16.56-.29.83-.13.27-.3.53-.5.77s-.45.46-.72.65c-.28.19-.6.34-.95.45-.36.11-.75.17-1.19.17s-.81-.04-1.18-.13c-.37-.09-.7-.2-.99-.33-.29-.14-.56-.29-.79-.46-.23-.17-.42-.34-.57-.51ZM368.21,137.45c0-.24-.04-.51-.13-.82-.09-.3-.22-.59-.41-.86s-.42-.5-.7-.69c-.29-.18-.62-.28-1.02-.28-.38,0-.72.1-1.03.3s-.59.46-.83.79c-.24.33-.44.7-.6,1.12s-.28.85-.35,1.3c.06.09.19.19.38.29.19.1.41.19.66.27.25.08.51.15.8.2.28.05.55.08.81.08.37,0,.7-.03,1.01-.08.3-.05.56-.14.77-.27.21-.13.38-.3.49-.52s.17-.5.17-.85Z"/>
      <path class="cls-2" d="M383.57,126.86v13.96h-11.06v-1.75h4.3v-8.43h1.75v8.43h3.26v-12.21h1.75ZM378.94,143.11c-.05-.01-.13-.03-.23-.04-.1-.01-.22-.02-.34-.02-.28,0-.51.06-.69.17-.18.11-.27.29-.27.55,0,.12.03.25.09.37.06.12.15.23.26.33s.26.18.44.24c.18.06.39.09.64.09h.28v.82h-3.01v-.82h1.11c-.06-.04-.12-.09-.19-.17s-.14-.16-.2-.27-.12-.23-.17-.36c-.04-.14-.07-.29-.07-.46s.03-.33.1-.49c.07-.16.17-.3.32-.42s.32-.22.54-.3.47-.11.76-.11c.11,0,.23,0,.35,0s.26.02.41.05l-.13.83Z"/>
      <path class="cls-2" d="M386.87,126.87h1.75v13.96h-1.75v-13.96Z"/>
      <path class="cls-2" d="M403.63,137.71c0,.26.01.48.04.65s.09.31.18.42.22.18.39.22c.17.05.39.07.67.07h.68c.23,0,.41.04.52.12.12.08.17.21.17.4v.67c0,.12-.02.22-.05.3-.04.07-.09.13-.15.17-.07.04-.14.06-.22.08-.08.01-.17.02-.27.02h-1.12c-.43,0-.8-.04-1.1-.12-.3-.08-.55-.19-.75-.32-.2-.13-.35-.29-.46-.47s-.19-.36-.24-.56c-.48.29-.94.5-1.37.62-.43.12-.87.18-1.32.18-.39,0-.78-.05-1.18-.17-.4-.11-.75-.28-1.07-.52s-.58-.54-.79-.91-.31-.81-.31-1.33c0-.49.1-.92.3-1.31.2-.39.46-.73.79-1.03.33-.3.7-.57,1.12-.8.42-.23.85-.43,1.3-.6.44-.17.88-.32,1.31-.44.43-.12.82-.23,1.17-.33v-1.03h1.75v6.01ZM401.88,134.29c-.65.12-1.24.27-1.77.44-.53.17-.99.36-1.37.59-.38.22-.68.47-.89.75-.21.28-.32.59-.32.94,0,.29.06.52.18.72s.28.35.47.47.41.2.65.25c.24.05.48.08.73.08.46,0,.88-.06,1.27-.17.38-.12.73-.28,1.04-.49v-3.57ZM398.76,129.33c0-.14.03-.28.08-.4.05-.13.13-.24.22-.33.09-.09.2-.17.33-.22.13-.06.26-.08.4-.08s.28.03.4.08c.13.05.24.13.33.22s.17.2.22.33c.05.13.08.26.08.4s-.03.28-.08.4c-.05.13-.13.23-.22.33s-.2.16-.33.22c-.13.06-.26.08-.4.08-.29,0-.54-.1-.73-.3-.2-.2-.3-.44-.3-.73ZM401.53,129.33c0-.14.03-.28.08-.4.06-.13.13-.24.22-.33s.2-.17.33-.22c.13-.06.26-.08.4-.08s.28.03.4.08c.13.05.24.13.33.22s.17.2.22.33c.05.13.08.26.08.4s-.03.28-.08.4c-.06.13-.13.23-.22.33s-.2.16-.33.22c-.13.06-.26.08-.4.08-.29,0-.54-.1-.73-.3s-.3-.44-.3-.73Z"/>
      <path class="cls-2" d="M408.58,139.47c-.14.25-.28.46-.43.64s-.32.31-.5.41c-.18.1-.37.18-.59.22s-.45.07-.72.07h-.76c-.23,0-.41-.04-.52-.12s-.17-.21-.17-.4v-.67c0-.12.02-.22.05-.3.04-.07.09-.13.15-.17.06-.04.14-.06.22-.08.08-.01.17-.02.27-.02h.46c.4,0,.76-.09,1.07-.28.31-.18.53-.48.64-.88.19-.69.4-1.29.63-1.79.23-.5.48-.93.73-1.28s.52-.64.78-.85c.27-.22.53-.39.79-.51s.51-.21.74-.25.45-.06.66-.06c.43,0,.83.06,1.19.18.36.12.67.29.95.5s.52.46.73.73.38.57.51.87c.14.3.24.61.3.92.06.31.1.61.1.88,0,.25-.03.52-.1.8-.07.28-.16.56-.29.83-.13.27-.3.53-.5.77s-.45.46-.72.65c-.28.19-.6.34-.95.45-.36.11-.75.17-1.19.17s-.81-.04-1.18-.13c-.37-.09-.7-.2-.99-.33-.29-.14-.56-.29-.79-.46-.23-.17-.42-.34-.57-.51ZM414.29,137.45c0-.24-.04-.51-.13-.82-.09-.3-.22-.59-.41-.86s-.42-.5-.7-.69c-.29-.18-.62-.28-1.02-.28-.38,0-.72.1-1.03.3s-.59.46-.83.79c-.24.33-.44.7-.6,1.12s-.28.85-.35,1.3c.06.09.19.19.38.29.19.1.41.19.66.27.25.08.51.15.8.2.28.05.55.08.81.08.37,0,.7-.03,1.01-.08.3-.05.56-.14.77-.27.21-.13.38-.3.49-.52s.17-.5.17-.85Z"/>
      <path class="cls-2" d="M422.85,140.81c-.8,0-1.47-.11-2.01-.34-.55-.23-.99-.52-1.33-.88-.34-.36-.58-.77-.73-1.22-.15-.45-.22-.9-.22-1.35,0-.56.1-1.09.29-1.58.19-.49.47-.92.84-1.29.36-.37.8-.65,1.31-.86.51-.21,1.08-.31,1.72-.31.25,0,.52.02.8.07.28.05.55.14.82.26.27.13.52.3.76.51.24.21.45.48.63.81.18.33.33.72.43,1.18.11.46.16.99.16,1.59v1.66h2.1c.23,0,.41.04.52.12.12.08.17.21.17.4v.67c0,.12-.02.22-.05.3-.04.07-.09.13-.15.17-.07.04-.14.06-.22.08-.08.01-.17.02-.27.02h-2.22c-.17.71-.44,1.3-.82,1.8-.38.49-.84.9-1.38,1.22-.54.32-1.16.57-1.85.75s-1.43.31-2.21.38l-.18-1.68c1.32-.09,2.38-.35,3.18-.77.8-.42,1.3-.99,1.51-1.69h-1.59ZM424.57,139.07v-1.1c0-.69-.06-1.26-.19-1.69s-.29-.78-.5-1.02c-.2-.24-.44-.41-.7-.5-.26-.09-.53-.13-.79-.13-.3,0-.58.06-.83.17-.26.11-.48.27-.68.47-.19.2-.34.44-.45.72-.11.28-.17.59-.17.93,0,.29.05.57.14.83s.24.49.45.68c.21.19.47.35.8.47.32.12.72.17,1.18.17h1.73Z"/>
      <path class="cls-2" d="M432.18,140.25c0,.12-.02.22-.05.3-.04.07-.09.13-.15.17-.06.04-.14.06-.22.08-.08.01-.17.02-.27.02h-3.08c-.1,0-.19,0-.27-.02-.08-.01-.16-.04-.22-.08-.06-.04-.12-.1-.15-.17-.04-.07-.05-.17-.05-.3v-.67c0-.19.06-.32.17-.4s.29-.12.52-.12h3.08c.23,0,.41.04.52.12s.17.21.17.4v.67Z"/>
      <path class="cls-2" d="M435.26,140.25c0,.12-.02.22-.05.3-.04.07-.09.13-.15.17-.06.04-.14.06-.22.08-.08.01-.17.02-.27.02h-3.08c-.1,0-.19,0-.27-.02-.08-.01-.16-.04-.22-.08-.06-.04-.12-.1-.15-.17-.04-.07-.05-.17-.05-.3v-.67c0-.19.06-.32.17-.4s.29-.12.52-.12h3.08c.23,0,.41.04.52.12s.17.21.17.4v.67Z"/>
      <path class="cls-2" d="M438.34,140.25c0,.12-.02.22-.05.3-.04.07-.09.13-.15.17-.06.04-.14.06-.22.08-.08.01-.17.02-.27.02h-3.08c-.1,0-.19,0-.27-.02-.08-.01-.16-.04-.22-.08-.06-.04-.12-.1-.15-.17-.04-.07-.05-.17-.05-.3v-.67c0-.19.06-.32.17-.4s.29-.12.52-.12h3.08c.23,0,.41.04.52.12s.17.21.17.4v.67Z"/>
      <path class="cls-2" d="M441.42,140.25c0,.12-.02.22-.05.3-.04.07-.09.13-.15.17-.06.04-.14.06-.22.08-.08.01-.17.02-.27.02h-3.08c-.1,0-.19,0-.27-.02-.08-.01-.16-.04-.22-.08-.06-.04-.12-.1-.15-.17-.04-.07-.05-.17-.05-.3v-.67c0-.19.06-.32.17-.4s.29-.12.52-.12h3.08c.23,0,.41.04.52.12s.17.21.17.4v.67Z"/>
      <path class="cls-2" d="M440.72,140.81c-.23,0-.41-.04-.52-.12s-.17-.21-.17-.4v-.67c0-.12.02-.22.05-.3.04-.07.09-.13.15-.17.06-.04.14-.06.22-.08.08-.01.17-.02.27-.02h2.92c.46,0,.84-.03,1.13-.08.29-.05.53-.14.69-.24.17-.11.28-.24.35-.39.06-.15.1-.33.1-.52,0-.32-.09-.63-.27-.95-.18-.31-.43-.63-.75-.94-.32-.31-.71-.62-1.16-.93-.45-.31-.94-.61-1.47-.92l3.88-6.66,1.27.89-2.96,5.19c.45.27.86.55,1.23.86.38.31.7.64.97,1,.27.35.48.72.63,1.11.15.39.22.8.22,1.22,0,.27-.02.52-.07.74.3.21.65.36,1.05.47s.88.16,1.43.16h.08c.23,0,.41.04.52.12.12.08.17.21.17.4v.67c0,.12-.02.22-.05.3-.04.07-.09.13-.15.17-.06.04-.14.06-.22.08-.08.01-.17.02-.27.02h-.1c-.38,0-.71-.03-1.01-.08-.3-.06-.57-.13-.82-.23-.24-.1-.46-.22-.66-.35-.19-.13-.37-.28-.53-.43-.29.35-.67.62-1.17.81s-1.11.29-1.85.29h-3.15Z"/>
      <path class="cls-2" d="M451.82,133.2c.38-.11.77-.21,1.16-.3.39-.09.83-.13,1.33-.13s.94.08,1.33.23c.38.16.71.37.99.65.28.28.5.61.67,1,.17.39.29.8.36,1.26.06.41.13.81.19,1.19.06.38.15.72.25,1.01s.23.52.38.69c.15.17.35.26.59.26v1.75h-9.06c-.23,0-.41-.04-.52-.12s-.17-.21-.17-.4v-.67c0-.12.02-.22.05-.3.04-.07.09-.13.15-.17.06-.04.14-.06.22-.08.08-.01.17-.02.27-.02h6.91c-.14-.14-.25-.32-.33-.55-.09-.23-.16-.55-.22-.96-.05-.38-.12-.76-.2-1.14s-.21-.71-.39-1.02-.42-.54-.73-.73-.71-.28-1.22-.28c-.14,0-.3.01-.49.03-.18.02-.37.05-.55.09-.19.04-.37.08-.53.12-.17.05-.31.09-.43.15v-1.58Z"/>
      <path class="cls-2" d="M475.14,139.08c0-.18-.02-.41-.05-.67s-.08-.55-.14-.85-.13-.6-.22-.9c-.09-.3-.19-.58-.31-.84l1.72-.49c.07.19.14.41.21.65.07.24.14.49.2.75s.12.53.17.81c.05.28.09.55.12.81.3.25.67.43,1.08.54.42.12.92.17,1.52.17h.08c.23,0,.41.04.52.12s.17.21.17.4v.67c0,.12-.02.22-.05.3-.04.07-.09.13-.15.17-.06.04-.14.06-.22.08-.08.01-.17.02-.27.02h-.1c-.6,0-1.11-.07-1.53-.2-.42-.14-.78-.32-1.08-.54-.09.73-.29,1.39-.58,1.99-.3.6-.69,1.12-1.18,1.55-.49.43-1.08.77-1.76,1.01-.68.24-1.46.36-2.32.36-.92,0-1.72-.14-2.39-.42-.68-.28-1.24-.66-1.68-1.13-.45-.47-.78-1.02-1-1.64-.22-.62-.33-1.27-.33-1.95,0-.32.03-.66.08-1s.13-.67.22-1,.2-.64.33-.93.26-.55.42-.79l1.48.83c-.1.17-.2.36-.28.57-.08.21-.16.43-.21.67-.06.23-.1.47-.14.71-.03.24-.05.48-.05.71,0,.51.08.98.24,1.42.16.44.4.83.71,1.16.31.33.7.59,1.16.78.46.19.99.29,1.59.29.64,0,1.21-.1,1.71-.29s.92-.47,1.26-.83.6-.8.79-1.32c.18-.52.27-1.1.27-1.76ZM471.26,131.77c0-.14.03-.28.08-.4.05-.13.13-.24.22-.33.09-.09.2-.17.33-.22.13-.06.26-.08.4-.08s.28.03.4.08c.13.05.24.13.33.22.09.09.17.2.22.33.05.13.08.26.08.4s-.03.28-.08.4c-.06.13-.13.23-.22.33s-.2.16-.33.22c-.13.05-.26.08-.4.08-.29,0-.54-.1-.73-.3-.2-.2-.3-.44-.3-.73Z"/>
      <path class="cls-2" d="M482.52,139.47c-.14.25-.28.46-.43.64s-.32.31-.5.41c-.18.1-.37.18-.59.22s-.45.07-.72.07h-.76c-.23,0-.41-.04-.52-.12s-.17-.21-.17-.4v-.67c0-.12.02-.22.05-.3.04-.07.09-.13.15-.17.06-.04.14-.06.22-.08.08-.01.17-.02.27-.02h.46c.4,0,.76-.09,1.07-.28.31-.18.53-.48.64-.88.19-.69.4-1.29.63-1.79.23-.5.48-.93.73-1.28s.52-.64.78-.85c.27-.22.53-.39.79-.51s.51-.21.74-.25.45-.06.66-.06c.43,0,.83.06,1.19.18.36.12.67.29.95.5s.52.46.73.73.38.57.51.87c.14.3.24.61.3.92.06.31.1.61.1.88,0,.25-.03.52-.1.8-.07.28-.16.56-.29.83-.13.27-.3.53-.5.77s-.45.46-.72.65c-.28.19-.6.34-.95.45-.36.11-.75.17-1.19.17s-.81-.04-1.18-.13c-.37-.09-.7-.2-.99-.33-.29-.14-.56-.29-.79-.46-.23-.17-.42-.34-.57-.51ZM488.23,137.45c0-.24-.04-.51-.13-.82-.09-.3-.22-.59-.41-.86s-.42-.5-.7-.69c-.29-.18-.62-.28-1.02-.28-.38,0-.72.1-1.03.3s-.59.46-.83.79c-.24.33-.44.7-.6,1.12s-.28.85-.35,1.3c.06.09.19.19.38.29.19.1.41.19.66.27.25.08.51.15.8.2.28.05.55.08.81.08.37,0,.7-.03,1.01-.08.3-.05.56-.14.77-.27.21-.13.38-.3.49-.52s.17-.5.17-.85Z"/>
      <path class="cls-2" d="M500.12,140.81c-.56,0-1.06-.09-1.5-.27-.44-.18-.81-.42-1.11-.73s-.53-.67-.68-1.08-.23-.85-.23-1.32c0-.78.12-1.46.35-2.05.24-.59.54-1.08.91-1.48.37-.4.78-.7,1.22-.9s.87-.3,1.29-.3.87.1,1.31.29.83.49,1.18.88c.35.39.63.88.85,1.48.22.59.33,1.29.33,2.08,0,.44-.08.87-.24,1.28-.16.41-.39.77-.69,1.09-.3.31-.66.57-1.08.75-.42.19-.89.28-1.41.28h-.49ZM497.83,129.82c0-.14.03-.28.08-.4.05-.13.13-.24.22-.33.09-.09.2-.17.33-.22.13-.05.26-.08.4-.08s.28.03.4.08c.13.06.24.13.33.22s.17.2.22.33.08.26.08.4-.03.28-.08.4c-.05.13-.13.23-.22.33-.09.09-.2.16-.33.22-.13.06-.26.08-.4.08-.29,0-.54-.1-.73-.3-.2-.2-.3-.44-.3-.73ZM498.14,137.09c0,.66.2,1.15.59,1.48s.91.49,1.56.49h.19c.32,0,.59-.05.83-.16s.43-.25.59-.43c.16-.18.28-.39.35-.63.08-.24.12-.49.12-.76,0-.47-.06-.89-.19-1.24s-.29-.65-.49-.89c-.2-.24-.42-.42-.66-.54-.24-.12-.47-.18-.7-.18-.27,0-.54.06-.8.17-.26.12-.5.29-.7.53-.21.24-.37.53-.5.89-.13.36-.19.78-.19,1.26ZM500.6,129.82c0-.14.03-.28.08-.4.06-.13.13-.24.22-.33s.2-.17.33-.22c.13-.05.26-.08.4-.08s.28.03.4.08c.13.06.24.13.33.22s.17.2.22.33c.05.13.08.26.08.4s-.03.28-.08.4c-.06.13-.13.23-.22.33-.09.09-.2.16-.33.22-.13.06-.26.08-.4.08-.29,0-.54-.1-.73-.3-.2-.2-.3-.44-.3-.73Z"/>
      <path class="cls-2" d="M505.1,143.2c.69-.09,1.25-.23,1.66-.41s.72-.42.94-.71c.21-.29.35-.63.42-1.02.07-.39.1-.83.1-1.32v-6.44h1.75v5.94c0,.98-.09,1.81-.28,2.47-.19.66-.47,1.21-.86,1.64-.38.43-.87.76-1.46,1-.59.23-1.29.4-2.09.51l-.17-1.67Z"/>
      <path class="cls-2" d="M512.2,140.81v-1.75h3.31c.46,0,.84-.03,1.13-.08.29-.05.53-.14.69-.24.17-.11.28-.24.35-.39.06-.15.1-.33.1-.52,0-.34-.09-.7-.28-1.08s-.43-.76-.73-1.13c-.3-.38-.64-.74-1.02-1.1-.38-.36-.75-.69-1.14-1.01l1.29-1.27c.43.37.85.77,1.26,1.21.41.44.78.89,1.11,1.36.33.47.59.95.79,1.44.2.49.3.98.3,1.46s-.07.88-.2,1.26c-.14.38-.35.71-.64.98-.29.27-.67.49-1.13.64-.46.15-1.02.23-1.67.23h-3.54Z"/>
      <path class="cls-2" d="M522.19,126.87h1.75v10.42c0,.35.01.64.04.87.03.23.08.41.16.54.07.13.17.23.3.28.13.06.29.08.49.08h.65c.23,0,.41.04.52.12.12.08.17.21.17.4v.67c0,.12-.02.22-.05.3-.04.07-.09.13-.15.17-.06.04-.14.06-.22.08-.08.01-.17.02-.27.02h-.91c-.43,0-.8-.07-1.11-.21-.31-.14-.57-.34-.77-.59s-.35-.55-.45-.89c-.1-.34-.15-.72-.15-1.12v-11.13Z"/>
      <path class="cls-2" d="M529.36,140.25c0,.12-.02.22-.05.3-.04.07-.09.13-.15.17-.06.04-.14.06-.22.08-.08.01-.17.02-.27.02h-3.08c-.1,0-.19,0-.27-.02-.08-.01-.16-.04-.22-.08-.06-.04-.12-.1-.15-.17-.04-.07-.05-.17-.05-.3v-.67c0-.19.06-.32.17-.4s.29-.12.52-.12h3.08c.23,0,.41.04.52.12s.17.21.17.4v.67Z"/>
      <path class="cls-2" d="M532.44,140.25c0,.12-.02.22-.05.3-.04.07-.09.13-.15.17-.06.04-.14.06-.22.08-.08.01-.17.02-.27.02h-3.08c-.1,0-.19,0-.27-.02-.08-.01-.16-.04-.22-.08-.06-.04-.12-.1-.15-.17-.04-.07-.05-.17-.05-.3v-.67c0-.19.06-.32.17-.4s.29-.12.52-.12h3.08c.23,0,.41.04.52.12s.17.21.17.4v.67Z"/>
      <path class="cls-2" d="M535.52,140.25c0,.12-.02.22-.05.3-.04.07-.09.13-.15.17-.06.04-.14.06-.22.08-.08.01-.17.02-.27.02h-3.08c-.1,0-.19,0-.27-.02-.08-.01-.16-.04-.22-.08-.06-.04-.12-.1-.15-.17-.04-.07-.05-.17-.05-.3v-.67c0-.19.06-.32.17-.4s.29-.12.52-.12h3.08c.23,0,.41.04.52.12s.17.21.17.4v.67Z"/>
      <path class="cls-2" d="M539.2,138.46c.29.2.64.35,1.03.45.4.1.87.15,1.42.15h.08c.23,0,.41.04.52.12s.17.21.17.4v.67c0,.12-.02.22-.05.3-.04.07-.09.13-.15.17-.06.04-.14.06-.22.08-.08.01-.17.02-.27.02h-.1c-.67,0-1.23-.09-1.68-.26-.45-.17-.83-.4-1.14-.66-.16.26-.38.48-.65.66s-.61.27-1.03.27h-2.32c-.23,0-.41-.04-.52-.12s-.17-.21-.17-.4v-.67c0-.12.02-.22.05-.3.04-.07.09-.13.15-.17.06-.04.14-.06.22-.08.08-.01.17-.02.27-.02h1.96c.21,0,.37-.09.49-.27.12-.18.18-.46.18-.83v-4.65h1.75v5.15ZM537.28,143.73c0-.14.03-.28.08-.4.05-.13.13-.24.22-.33.09-.09.2-.17.33-.22.13-.05.26-.08.4-.08s.28.03.4.08c.13.06.24.13.33.22.09.09.17.2.22.33.06.13.08.26.08.4s-.03.28-.08.4c-.05.13-.13.23-.22.33-.09.09-.2.16-.33.22-.13.06-.26.08-.4.08-.29,0-.54-.1-.73-.3-.2-.2-.3-.44-.3-.73Z"/>
      <path class="cls-2" d="M544.74,139.47c-.14.25-.28.46-.43.64s-.32.31-.5.41c-.18.1-.37.18-.59.22s-.45.07-.72.07h-.76c-.23,0-.41-.04-.52-.12s-.17-.21-.17-.4v-.67c0-.12.02-.22.05-.3.04-.07.09-.13.15-.17.06-.04.14-.06.22-.08.08-.01.17-.02.27-.02h.46c.4,0,.76-.09,1.07-.28.31-.18.53-.48.64-.88.19-.69.4-1.29.63-1.79.23-.5.48-.93.73-1.28s.52-.64.78-.85c.27-.22.53-.39.79-.51s.51-.21.74-.25.45-.06.66-.06c.43,0,.83.06,1.19.18.36.12.67.29.95.5s.52.46.73.73.38.57.51.87c.14.3.24.61.3.92.06.31.1.61.1.88,0,.25-.03.52-.1.8-.07.28-.16.56-.29.83-.13.27-.3.53-.5.77s-.45.46-.72.65c-.28.19-.6.34-.95.45-.36.11-.75.17-1.19.17s-.81-.04-1.18-.13c-.37-.09-.7-.2-.99-.33-.29-.14-.56-.29-.79-.46-.23-.17-.42-.34-.57-.51ZM550.45,137.45c0-.24-.04-.51-.13-.82-.09-.3-.22-.59-.41-.86s-.42-.5-.7-.69c-.29-.18-.62-.28-1.02-.28-.38,0-.72.1-1.03.3s-.59.46-.83.79c-.24.33-.44.7-.6,1.12s-.28.85-.35,1.3c.06.09.19.19.38.29.19.1.41.19.66.27.25.08.51.15.8.2.28.05.55.08.81.08.37,0,.7-.03,1.01-.08.3-.05.56-.14.77-.27.21-.13.38-.3.49-.52s.17-.5.17-.85Z"/>
    </g>
    <g>
      <path class="cls-2" d="M19.34,135.06c0,.98-.12,1.85-.35,2.59s-.58,1.37-1.03,1.87c-.45.51-1.01.89-1.68,1.14-.66.26-1.42.38-2.27.38-1.7,0-3.02-.51-3.95-1.52-.92-1.02-1.38-2.51-1.38-4.47v-8.14h1.97v7.89c0,.66.06,1.27.17,1.82.11.55.3,1.02.56,1.42.26.4.61.7,1.04.92.43.22.96.33,1.59.33s1.17-.11,1.6-.33.78-.53,1.04-.92c.26-.4.45-.87.56-1.42s.17-1.16.17-1.82v-7.89h1.96v8.14Z"/>
      <path class="cls-2" d="M27.22,126.92h2.07l5.8,13.89h-2.14l-1.4-3.5h-6.73l-1.39,3.5h-2.07l5.86-13.89ZM28.18,128.8l-2.73,6.89h5.47l-2.74-6.89Z"/>
      <path class="cls-2" d="M37.18,126.92h7.69v1.75h-5.73v4.07h5.22v1.75h-5.22v4.57h5.73v1.75h-7.69v-13.89Z"/>
      <path class="cls-2" d="M63.92,129.39c-.48-.32-1.01-.55-1.58-.71-.56-.16-1.29-.24-2.2-.24-.78,0-1.5.13-2.15.41-.65.28-1.21.66-1.67,1.15s-.82,1.07-1.08,1.73c-.26.66-.38,1.38-.37,2.14,0,.82.14,1.56.41,2.23.27.67.64,1.24,1.11,1.72s1.01.84,1.64,1.1,1.3.39,2.01.39c.34,0,.62,0,.85-.02s.42-.03.58-.05c.16-.02.3-.05.42-.08.12-.03.24-.06.36-.08v-4.22h-2.89v-1.63h4.85v7.22c-.37.14-.9.27-1.58.41-.33.07-.72.12-1.15.16s-.92.05-1.46.05c-1.09,0-2.08-.17-2.97-.51-.89-.34-1.65-.83-2.28-1.46s-1.12-1.39-1.46-2.28c-.35-.89-.52-1.89-.52-3s.18-2.05.54-2.92c.36-.87.87-1.62,1.51-2.24.64-.62,1.41-1.1,2.3-1.44.89-.34,1.86-.51,2.91-.51.51,0,.95.02,1.32.05.38.04.71.09,1.02.15.3.06.59.14.86.22.27.08.55.18.84.27l-.15,2Z"/>
      <path class="cls-2" d="M66.85,135.74c0-.77.12-1.48.37-2.13.25-.65.59-1.21,1.04-1.68.45-.47.98-.84,1.61-1.1.63-.27,1.33-.4,2.1-.4s1.46.13,2.08.4c.63.27,1.16.63,1.61,1.1.45.47.79,1.03,1.03,1.68.24.65.37,1.36.37,2.13,0,.73-.12,1.41-.37,2.05-.25.64-.6,1.21-1.05,1.69s-.98.86-1.61,1.15c-.62.28-1.31.42-2.06.42s-1.45-.14-2.08-.42c-.63-.28-1.17-.66-1.62-1.15-.45-.48-.8-1.05-1.05-1.69-.25-.64-.38-1.33-.38-2.05ZM68.82,135.74c0,.45.06.9.19,1.35.12.45.32.86.57,1.22.26.36.58.66.98.88.4.23.87.34,1.41.34s1-.11,1.4-.34c.39-.23.72-.52.97-.88.25-.36.44-.77.57-1.22.12-.45.19-.9.19-1.35,0-.49-.07-.96-.21-1.41s-.35-.86-.62-1.21c-.27-.36-.6-.64-.98-.85-.39-.21-.83-.32-1.31-.32s-.94.11-1.33.32c-.39.21-.72.5-.99.85-.27.36-.48.76-.62,1.21-.14.45-.22.92-.22,1.41Z"/>
      <path class="cls-2" d="M83.99,140.81h-2.21l-3.59-10.14h2.02l2.72,8.27h.04l2.78-8.27h1.84l-3.59,10.14Z"/>
      <path class="cls-2" d="M97.08,140.4c-.19.06-.38.13-.57.21-.2.07-.42.15-.67.21s-.53.12-.85.17c-.31.05-.68.07-1.09.07-.88,0-1.65-.13-2.31-.4-.65-.27-1.19-.64-1.62-1.12-.43-.48-.75-1.06-.96-1.73-.21-.68-.31-1.43-.31-2.25,0-.74.11-1.43.34-2.06.22-.63.54-1.17.96-1.63s.91-.81,1.48-1.06c.58-.25,1.22-.38,1.93-.38.83,0,1.53.15,2.1.44.57.29,1.02.69,1.37,1.21.34.51.59,1.12.73,1.82.15.7.22,1.45.22,2.27h-7.16c0,.5.09.96.27,1.37.18.41.42.77.73,1.07.3.3.66.53,1.06.69s.82.25,1.25.25c.31,0,.63-.04.95-.11.32-.07.62-.16.89-.26.28-.1.53-.21.75-.33.22-.12.39-.22.5-.32v1.88ZM95.88,134.76c0-.39-.06-.75-.17-1.09s-.27-.64-.49-.89c-.21-.26-.47-.46-.78-.61-.31-.15-.67-.22-1.06-.22-.46,0-.85.09-1.18.26-.32.17-.59.39-.8.67-.21.27-.38.57-.49.91s-.19.66-.23.99h5.2Z"/>
      <path class="cls-2" d="M100.33,130.67h1.73v1.56h.04c.24-.52.61-.96,1.09-1.3.47-.34.98-.5,1.53-.5.28,0,.5.01.67.04.17.03.35.06.55.1v1.67c-.17-.06-.35-.11-.52-.14-.18-.03-.34-.04-.5-.04-.83,0-1.49.37-1.99,1.12-.5.74-.75,1.75-.75,3.02v4.61h-1.84v-10.14Z"/>
      <path class="cls-2" d="M107.99,130.67h1.79v1.6h.04c.28-.59.72-1.04,1.32-1.36.61-.32,1.26-.49,1.97-.49,1.29,0,2.24.39,2.85,1.16.6.76.9,1.83.9,3.2v6.03h-1.84v-5.25c0-1.19-.15-2.07-.45-2.66-.3-.59-.86-.91-1.67-.95-.53,0-.99.1-1.37.31-.38.2-.7.49-.95.86s-.43.81-.55,1.32c-.12.51-.18,1.07-.18,1.69v4.69h-1.84v-10.14Z"/>
      <path class="cls-2" d="M119.99,130.67h1.73v1.47h.04c.35-.6.79-1.03,1.3-1.3.51-.27,1.14-.41,1.89-.41.58,0,1.13.16,1.66.47.54.32.93.82,1.19,1.51.17-.36.38-.67.64-.92s.54-.46.83-.61c.29-.16.58-.27.87-.33.29-.07.54-.1.76-.1.64,0,1.18.1,1.62.3.44.2.8.47,1.08.82.28.35.48.76.6,1.23s.19.98.19,1.53v6.51h-1.85v-6.05c0-.31-.02-.63-.07-.97s-.14-.64-.26-.91c-.13-.28-.31-.5-.54-.68-.23-.17-.54-.26-.91-.26-.47,0-.88.11-1.21.32-.33.21-.6.5-.82.84-.21.35-.37.75-.46,1.2-.1.45-.14.91-.14,1.39v5.11h-1.85v-6.05c0-.31-.02-.63-.07-.97-.05-.33-.14-.64-.26-.91s-.31-.5-.54-.68c-.23-.17-.54-.26-.91-.26-.47,0-.88.11-1.21.32-.33.21-.61.5-.82.84-.21.35-.37.75-.47,1.2-.1.45-.15.91-.15,1.39v5.11h-1.84v-10.14Z"/>
      <path class="cls-2" d="M145.2,140.4c-.19.06-.38.13-.57.21-.2.07-.42.15-.67.21s-.53.12-.85.17c-.31.05-.68.07-1.09.07-.88,0-1.65-.13-2.31-.4-.65-.27-1.19-.64-1.62-1.12-.43-.48-.75-1.06-.96-1.73-.21-.68-.31-1.43-.31-2.25,0-.74.11-1.43.34-2.06.22-.63.54-1.17.96-1.63s.91-.81,1.48-1.06c.58-.25,1.22-.38,1.93-.38.83,0,1.53.15,2.1.44.57.29,1.02.69,1.37,1.21.34.51.59,1.12.73,1.82.15.7.22,1.45.22,2.27h-7.16c0,.5.09.96.27,1.37.18.41.42.77.73,1.07.3.3.66.53,1.06.69s.82.25,1.25.25c.31,0,.63-.04.95-.11.32-.07.62-.16.89-.26.28-.1.53-.21.75-.33.22-.12.39-.22.5-.32v1.88ZM144,134.76c0-.39-.06-.75-.17-1.09s-.27-.64-.49-.89c-.21-.26-.47-.46-.78-.61-.31-.15-.67-.22-1.06-.22-.46,0-.85.09-1.18.26-.32.17-.59.39-.8.67-.21.27-.38.57-.49.91s-.19.66-.23.99h5.2Z"/>
      <path class="cls-2" d="M148.45,130.67h1.79v1.6h.04c.28-.59.72-1.04,1.32-1.36.61-.32,1.26-.49,1.97-.49,1.29,0,2.24.39,2.85,1.16.6.76.9,1.83.9,3.2v6.03h-1.84v-5.25c0-1.19-.15-2.07-.45-2.66-.3-.59-.86-.91-1.67-.95-.53,0-.99.1-1.37.31-.38.2-.7.49-.95.86s-.43.81-.55,1.32c-.12.51-.18,1.07-.18,1.69v4.69h-1.84v-10.14Z"/>
      <path class="cls-2" d="M165.8,132.18h-2.66v5.56c0,.6.15,1.05.46,1.35.32.3.69.46,1.09.46.29,0,.54-.04.74-.11.21-.07.38-.16.52-.25v1.59c-.21.06-.45.13-.72.19s-.55.09-.86.09c-.96,0-1.71-.24-2.26-.71-.55-.48-.83-1.23-.83-2.24v-5.93h-2.27v-1.51h2.27v-2.35l1.84-.6v2.95h2.66v1.51Z"/>
      <path class="cls-2" d="M173.76,126.92h1.97v13.89h-1.97v-13.89Z"/>
      <path class="cls-2" d="M179.06,130.67h1.79v1.6h.04c.28-.59.72-1.04,1.32-1.36.61-.32,1.26-.49,1.97-.49,1.29,0,2.24.39,2.85,1.16.6.76.9,1.83.9,3.2v6.03h-1.84v-5.25c0-1.19-.15-2.07-.45-2.66-.3-.59-.86-.91-1.67-.95-.53,0-.99.1-1.37.31-.38.2-.7.49-.95.86s-.43.81-.55,1.32c-.12.51-.18,1.07-.18,1.69v4.69h-1.84v-10.14Z"/>
      <path class="cls-2" d="M193.28,128.4h-2.08v-2.11h2.08v2.11ZM191.31,130.67h1.85v10.14h-1.85v-10.14Z"/>
      <path class="cls-2" d="M201.87,132.18h-2.66v5.56c0,.6.15,1.05.46,1.35.32.3.69.46,1.09.46.29,0,.54-.04.74-.11.21-.07.38-.16.52-.25v1.59c-.21.06-.45.13-.72.19s-.55.09-.86.09c-.96,0-1.71-.24-2.26-.71-.55-.48-.83-1.23-.83-2.24v-5.93h-2.27v-1.51h2.27v-2.35l1.84-.6v2.95h2.66v1.51Z"/>
      <path class="cls-2" d="M204.67,131.38c.46-.28.97-.51,1.52-.68s1.15-.27,1.79-.27c1.44,0,2.47.35,3.09,1.06.63.71.94,1.75.94,3.14v4.2c0,.58,0,1.02.02,1.32.01.3.03.52.06.67h-1.73v-1.31h-.04c-.11.16-.25.32-.43.5s-.4.35-.66.5c-.26.16-.56.29-.89.39s-.71.16-1.13.16c-.54,0-1.03-.06-1.48-.18-.45-.12-.84-.31-1.17-.57-.33-.26-.58-.59-.76-.99-.18-.4-.27-.88-.27-1.43,0-.32.04-.61.12-.87s.19-.5.34-.72c.14-.21.32-.4.51-.57.2-.17.41-.32.64-.45.46-.26.97-.44,1.52-.55.54-.12,1.06-.17,1.54-.17h.98c.15,0,.3,0,.46,0,.16,0,.33.02.52.03,0-.87-.18-1.53-.54-1.97-.36-.45-1-.67-1.94-.67-.53,0-1.05.09-1.56.28s-.96.44-1.35.75l-.1-1.59ZM210.16,135.98c-.19,0-.39,0-.59-.02-.2-.01-.39-.02-.59-.02-.13,0-.27,0-.43.01s-.34.02-.54.03c-.38.03-.77.11-1.15.25-.37.12-.69.32-.96.58-.27.27-.4.62-.4,1.07,0,.27.06.5.17.7.12.2.26.38.45.51s.38.25.61.32c.22.07.44.11.65.11.92,0,1.61-.26,2.08-.77.47-.52.71-1.15.71-1.9v-.89Z"/>
      <path class="cls-2" d="M220.48,132.18h-2.66v5.56c0,.6.15,1.05.46,1.35.32.3.69.46,1.09.46.29,0,.54-.04.74-.11.21-.07.38-.16.52-.25v1.59c-.21.06-.45.13-.72.19s-.55.09-.86.09c-.96,0-1.71-.24-2.26-.71-.55-.48-.83-1.23-.83-2.24v-5.93h-2.27v-1.51h2.27v-2.35l1.84-.6v2.95h2.66v1.51Z"/>
      <path class="cls-2" d="M225,128.4h-2.08v-2.11h2.08v2.11ZM223.03,130.67h1.85v10.14h-1.85v-10.14Z"/>
      <path class="cls-2" d="M232.72,140.81h-2.21l-3.59-10.14h2.02l2.72,8.27h.04l2.78-8.27h1.84l-3.59,10.14Z"/>
      <path class="cls-2" d="M245.8,140.4c-.19.06-.38.13-.57.21-.2.07-.42.15-.67.21s-.53.12-.85.17c-.31.05-.68.07-1.09.07-.88,0-1.65-.13-2.31-.4-.65-.27-1.19-.64-1.62-1.12-.43-.48-.75-1.06-.96-1.73-.21-.68-.31-1.43-.31-2.25,0-.74.11-1.43.34-2.06.22-.63.54-1.17.96-1.63s.91-.81,1.48-1.06c.58-.25,1.22-.38,1.93-.38.83,0,1.53.15,2.1.44.57.29,1.02.69,1.37,1.21.34.51.59,1.12.73,1.82.15.7.22,1.45.22,2.27h-7.16c0,.5.09.96.27,1.37.18.41.42.77.73,1.07.3.3.66.53,1.06.69s.82.25,1.25.25c.31,0,.63-.04.95-.11.32-.07.62-.16.89-.26.28-.1.53-.21.75-.33.22-.12.39-.22.5-.32v1.88ZM244.6,134.76c0-.39-.06-.75-.17-1.09s-.27-.64-.49-.89c-.21-.26-.47-.46-.78-.61-.31-.15-.67-.22-1.06-.22-.46,0-.85.09-1.18.26-.32.17-.59.39-.8.67-.21.27-.38.57-.49.91s-.19.66-.23.99h5.2Z"/>
    </g>
    <g>
      <path class="cls-2" d="M27.42,102.52c0-1.39-.12-2.17-.16-3.16,1.56-.21,3.77-.62,5.04-.62.7,0,.98.25.98,1.11v9.18c-.9.74-2.25,1.64-3.44,2.21-1.52.45-3.65.86-5.66.86-6.68,0-14.14-2.87-14.14-13.24,0-8.48,6.56-13.61,14.63-13.61,4.38,0,7.5,1.35,8.61,2.42.04,1.84-1.27,3.16-2.75,2.91-1.72-.74-3.77-1.23-5.9-1.23-4.67,0-8.36,2.91-8.36,9.18,0,6.68,4.43,9.96,8.89,9.96,1.03,0,1.89-.16,2.25-.29v-5.7Z"/>
      <path class="cls-2" d="M50.46,85.27c8.52,0,13.16,6.02,13.16,13.2s-4.67,13.65-13.36,13.65c-9.47,0-13.24-6.8-13.24-13.24,0-7.75,4.96-13.61,13.4-13.61h.04ZM49.92,88.87c-3.52,0-6.64,2.87-6.64,9.43s3.32,10.21,7.42,10.21c4.3,0,6.72-3.61,6.72-9.59,0-5.57-2.58-10.04-7.46-10.04h-.04Z"/>
      <path class="cls-2" d="M71.08,85.72c.66,0,.98.53,1.6,2.38,1.6,4.51,4.18,11.27,5.86,16.89,2.01-6.11,4.47-12.95,6.68-19.35,1.64,0,3.65.33,4.26.57.62.25.66.78.25,1.89-2.79,7.54-5.86,14.84-8.81,21.93-.37.82-.66,1.27-1.07,1.48-.57.29-2.5.49-4.43.49-2.95-8.07-6.39-17.42-9.88-25.33,2.01-.53,4.22-.94,5.53-.94Z"/>
      <path class="cls-2" d="M93.54,91.62c0-1.97,0-3.36-.12-5.16,1.31-.29,3.4-.53,5.33-.57h9.75c-.29,2.25-.86,3.03-1.35,3.61-.66.25-2.29.25-4.14.25h-3.61v6.64h8.65c-.41,3.16-1.31,3.85-2.79,3.85h-5.86v7.42c.94.16,1.89.25,3.28.25,1.56,0,4.75,0,6.89-.16l.08.08c-.41,2.05-1.23,3.03-2.34,3.73-.57.12-2.54.21-5.86.21-3.69,0-6.27-.21-7.25-.41l-.66-.82v-18.89Z"/>
      <path class="cls-2" d="M119.28,110.51c0,.82-.29.98-.98,1.07-1.19.12-3.89.16-4.84.16.08-1.64.12-4.06.12-7.5v-13.77c0-2.01,0-2.99-.08-4.1.98-.25,5.53-.74,7.42-.74,7.05,0,10.16,2.42,10.16,7.46,0,3.81-3.2,5.66-4.84,6.43.94.82,2.17,2.99,3.48,5.33,1.93,3.44,3.03,5.12,4.14,6.35v.16c-.33.25-2.09.45-3.73.45-1.72,0-2.79-.33-3.89-1.72-.94-1.15-1.84-3.03-3.57-6.52-1.11-2.21-1.93-2.38-2.83-2.38-.25,0-.37-.04-.57,0v9.3ZM119.28,97.89c.94.12,3.12,0,3.69-.29.53-.29,2.13-1.31,2.13-3.98,0-3.11-1.89-4.59-4.34-4.59-.49,0-1.07,0-1.48.08v8.77Z"/>
      <path class="cls-2" d="M136.46,86.25v-.21c.94-.12,5.08-.33,5.9-.33.45,0,.78.29,1.19.74,1.27,1.97,4.3,6.76,6.68,10.82,1.72,2.91,3.07,5.04,4.06,7.21-.29-2.71-.25-3.89-.25-5.98v-11.44c0-.94.29-1.11.94-1.15,1.31-.12,2.79-.21,3.81-.21-.08,1.76-.12,4.14-.12,7.54v18.03c-.41.12-3.16.7-4.55.7-.62,0-.86-.16-1.23-.7-1.8-2.62-3.07-4.79-6.15-9.8-2.5-4.06-3.57-6.35-5.25-9.71.25,3.77.21,5.82.21,7.95v10.78c0,.82-.25.94-.98,1.07s-2.29.21-3.77.16c.08-1.64.12-4.02.12-7.46v-17.13l-.62-.9Z"/>
      <path class="cls-2" d="M185.11,86.37c.66-.41,3.93-.66,5.04-.66.45,0,.7.25.86,1.35l1.97,15c.57,4.3,1.03,7.34,1.35,9.3-.74.21-3.81.37-4.71.37-.57,0-1.15-.21-1.23-1.11-.21-2.01-.45-4.39-.86-9.02l-.86-9.3c-.98,3.36-3.03,9.63-5.62,17.42-.29.9-.66,1.23-1.68,1.43-.86.16-1.93.33-2.91.33-.86-2.87-4.34-13.81-5.98-19.1-.41,4.63-1.35,13.61-1.97,18.65-.08.45-.29.7-.78.7-1.31,0-3.57,0-4.22-.37.7-4.43,2.17-14.92,3.73-24.35l-.08-.66c1.15-.25,2.79-.66,5.08-.66.66-.04.9.25,1.52,2.01l5.37,15.16c1.72-4.67,4.26-11.8,5.98-15.98v-.53Z"/>
      <path class="cls-2" d="M199.05,91.62c0-1.97,0-3.36-.12-5.16,1.31-.29,3.4-.53,5.33-.57h9.75c-.29,2.25-.86,3.03-1.35,3.61-.66.25-2.29.25-4.14.25h-3.61v6.64h8.65c-.41,3.16-1.31,3.85-2.79,3.85h-5.86v7.42c.94.16,1.89.25,3.28.25,1.56,0,4.75,0,6.89-.16l.08.08c-.41,2.05-1.23,3.03-2.34,3.73-.57.12-2.54.21-5.86.21-3.69,0-6.27-.21-7.25-.41l-.66-.82v-18.89Z"/>
      <path class="cls-2" d="M218.48,86.25v-.21c.94-.12,5.08-.33,5.9-.33.45,0,.78.29,1.19.74,1.27,1.97,4.3,6.76,6.68,10.82,1.72,2.91,3.07,5.04,4.06,7.21-.29-2.71-.25-3.89-.25-5.98v-11.44c0-.94.29-1.11.94-1.15,1.31-.12,2.79-.21,3.81-.21-.08,1.76-.12,4.14-.12,7.54v18.03c-.41.12-3.16.7-4.55.7-.62,0-.86-.16-1.23-.7-1.8-2.62-3.07-4.79-6.15-9.8-2.5-4.06-3.57-6.35-5.25-9.71.25,3.77.21,5.82.21,7.95v10.78c0,.82-.25.94-.98,1.07s-2.29.21-3.77.16c.08-1.64.12-4.02.12-7.46v-17.13l-.62-.9Z"/>
      <path class="cls-2" d="M252.21,89.73h-7.13c-.74,0-1.07-.33-.74-1.39.45-1.43.98-2.13,1.43-2.66.74.16,1.89.21,5.82.21h14.96c-.25,2.62-1.48,3.65-2.42,3.85h-6.07v16.68c0,2.83.08,4.18.12,5-1.31.21-3.03.33-5,.33-.66,0-.98-.12-.98-.74v-21.27Z"/>
      <path class="cls-2" d="M283.98,104.9c-.74,1.97-1.89,5-2.38,6.23-.16.41-.49.61-1.23.61-1.07,0-3.16-.25-4.14-.53l-.04-.16c2.05-5,8.24-20.08,9.88-24.06l-.25-.74c1.8-.37,4.55-.53,5-.53.37,0,.74.21.98.78,1.88,4.59,4.79,12.3,6.11,15.78,1.68,4.39,2.66,6.93,3.52,8.81l-.04.16c-.9.29-4.22.49-5.25.49-.7,0-1.07-.21-1.47-1.35-.7-2.05-1.23-3.57-1.93-5.49h-8.77ZM291.65,101.09c-1.68-4.88-2.79-7.75-3.24-9.02-.82,2.42-1.93,5.61-3.2,9.02h6.43Z"/>
      <path class="cls-2" d="M325.26,107.11c-.16,1.6-.7,2.87-1.48,3.61-1.02.66-3.2,1.39-5.86,1.39-9.47,0-14.59-5.29-14.59-13.16,0-8.52,6.52-13.69,14.71-13.69,3.85,0,6.93,1.31,7.58,2.05.12,1.48-.86,3.11-2.42,2.91-1.15-.49-2.99-1.02-5.16-1.02-4.71,0-8.48,3.03-8.48,9.39,0,5.25,3.4,9.39,9.63,9.39,2.83,0,4.88-.66,5.9-.94l.16.08Z"/>
      <path class="cls-2" d="M349.32,107.11c-.16,1.6-.7,2.87-1.48,3.61-1.02.66-3.2,1.39-5.86,1.39-9.47,0-14.59-5.29-14.59-13.16,0-8.52,6.52-13.69,14.71-13.69,3.85,0,6.93,1.31,7.58,2.05.12,1.48-.86,3.11-2.42,2.91-1.15-.49-2.99-1.02-5.16-1.02-4.71,0-8.48,3.03-8.48,9.39,0,5.25,3.4,9.39,9.63,9.39,2.83,0,4.88-.66,5.9-.94l.16.08Z"/>
      <path class="cls-2" d="M353.38,91.62c0-1.97,0-3.36-.12-5.16,1.31-.29,3.4-.53,5.33-.57h9.75c-.29,2.25-.86,3.03-1.35,3.61-.66.25-2.29.25-4.14.25h-3.61v6.64h8.65c-.41,3.16-1.31,3.85-2.79,3.85h-5.86v7.42c.94.16,1.89.25,3.28.25,1.56,0,4.75,0,6.89-.16l.08.08c-.41,2.05-1.23,3.03-2.34,3.73-.57.12-2.54.21-5.86.21-3.69,0-6.27-.21-7.25-.41l-.66-.82v-18.89Z"/>
      <path class="cls-2" d="M379.12,110.51c0,.82-.29.98-.98,1.07-1.19.12-3.89.16-4.84.16.08-1.64.12-4.06.12-7.5v-13.77c0-2.01,0-2.99-.08-4.1.98-.25,5.53-.74,7.42-.74,7.05,0,10.16,2.42,10.16,7.46,0,3.81-3.2,5.66-4.84,6.43.94.82,2.17,2.99,3.48,5.33,1.93,3.44,3.03,5.12,4.14,6.35v.16c-.33.25-2.09.45-3.73.45-1.72,0-2.79-.33-3.89-1.72-.94-1.15-1.84-3.03-3.57-6.52-1.11-2.21-1.93-2.38-2.83-2.38-.25,0-.37-.04-.57,0v9.3ZM379.12,97.89c.94.12,3.12,0,3.69-.29.53-.29,2.13-1.31,2.13-3.98,0-3.11-1.89-4.59-4.34-4.59-.49,0-1.07,0-1.48.08v8.77Z"/>
      <path class="cls-2" d="M396.91,91.62c0-1.97,0-3.36-.12-5.16,1.31-.29,3.4-.53,5.33-.57h9.75c-.29,2.25-.86,3.03-1.35,3.61-.66.25-2.29.25-4.14.25h-3.61v6.64h8.65c-.41,3.16-1.31,3.85-2.79,3.85h-5.86v7.42c.94.16,1.89.25,3.28.25,1.56,0,4.75,0,6.89-.16l.08.08c-.41,2.05-1.23,3.03-2.34,3.73-.57.12-2.54.21-5.86.21-3.69,0-6.27-.21-7.25-.41l-.66-.82v-18.89Z"/>
      <path class="cls-2" d="M416.96,91.33c0-2.75-.04-4.43-.12-5.29.98-.12,3.24-.33,5.04-.33.82,0,.94.45.94,2.5v19.39c.74.21,1.89.29,3.28.29,1.6,0,4.1,0,6.23-.2l.08.08c-.33,1.84-1.19,3.07-2.25,3.77-.62.12-2.05.21-5.37.21s-6.19-.21-7.17-.41l-.66-.82v-19.18Z"/>
      <path class="cls-2" d="M442,104.9c-.74,1.97-1.89,5-2.38,6.23-.16.41-.49.61-1.23.61-1.07,0-3.16-.25-4.14-.53l-.04-.16c2.05-5,8.24-20.08,9.88-24.06l-.25-.74c1.8-.37,4.55-.53,5-.53.37,0,.74.21.98.78,1.88,4.59,4.79,12.3,6.11,15.78,1.68,4.39,2.66,6.93,3.52,8.81l-.04.16c-.9.29-4.22.49-5.25.49-.7,0-1.07-.21-1.47-1.35-.7-2.05-1.23-3.57-1.93-5.49h-8.77ZM449.66,101.09c-1.68-4.88-2.79-7.75-3.24-9.02-.82,2.42-1.93,5.61-3.2,9.02h6.43Z"/>
      <path class="cls-2" d="M465.98,89.73h-7.13c-.74,0-1.07-.33-.74-1.39.45-1.43.98-2.13,1.43-2.66.74.16,1.89.21,5.82.21h14.96c-.25,2.62-1.47,3.65-2.42,3.85h-6.07v16.68c0,2.83.08,4.18.12,5-1.31.21-3.03.33-5,.33-.66,0-.98-.12-.98-.74v-21.27Z"/>
      <path class="cls-2" d="M494.51,85.27c8.52,0,13.16,6.02,13.16,13.2s-4.67,13.65-13.36,13.65c-9.47,0-13.24-6.8-13.24-13.24,0-7.75,4.96-13.61,13.4-13.61h.04ZM493.97,88.87c-3.52,0-6.64,2.87-6.64,9.43s3.32,10.21,7.42,10.21c4.3,0,6.72-3.61,6.72-9.59,0-5.57-2.58-10.04-7.46-10.04h-.04Z"/>
      <path class="cls-2" d="M518.08,110.51c0,.82-.29.98-.98,1.07-1.19.12-3.89.16-4.84.16.08-1.64.12-4.06.12-7.5v-13.77c0-2.01,0-2.99-.08-4.1.98-.25,5.53-.74,7.42-.74,7.05,0,10.16,2.42,10.16,7.46,0,3.81-3.2,5.66-4.84,6.43.94.82,2.17,2.99,3.48,5.33,1.93,3.44,3.03,5.12,4.14,6.35v.16c-.33.25-2.09.45-3.73.45-1.72,0-2.79-.33-3.89-1.72-.94-1.15-1.84-3.03-3.57-6.52-1.11-2.21-1.93-2.38-2.83-2.38-.25,0-.37-.04-.57,0v9.3ZM518.08,97.89c.94.12,3.12,0,3.69-.29.53-.29,2.13-1.31,2.13-3.98,0-3.11-1.89-4.59-4.34-4.59-.49,0-1.07,0-1.48.08v8.77Z"/>
      <path class="cls-2" d="M544.11,85.27c2.34,0,5.16.98,6.19,2.05,0,1.15-.74,3.07-2.38,2.95-.9-.45-2.75-.98-3.98-.98-2.17,0-3.4.98-3.4,2.42,0,1.68,1.27,2.62,5.16,4.84,3.44,1.93,5.7,3.48,5.7,7.5,0,5.29-4.63,8.07-9.55,8.07-2.91,0-5-.82-6.11-1.6-.82-.53-1.11-.98-1.11-1.56,0-.9.78-2.75,1.15-2.95,1.52.94,3.98,1.93,5.94,1.93,2.25,0,3.85-.86,3.85-2.75,0-1.48-.7-2.42-4.88-4.71-4.75-2.54-5.66-5.21-5.66-7.75,0-2.91,2.05-7.46,9.02-7.46h.04Z"/>
    </g>
  </g>
  <g>
    <path class="cls-2" d="M606.43,136.99c-.47,0-.93.42-1,1.2.68.02,1.52,0,1.68,0,.12-.01.2-.09.2-.2,0-.56-.28-1-.87-1h0ZM607.88,139.95s.11.39-.36.63c-.15.08-.54.2-.92.2-1.3,0-2.01-.77-2.01-2.07,0-1.17.71-2.21,1.95-2.21,1.07,0,1.57.68,1.49,2.16h-2.64c0,.95.59,1.49,1.41,1.49s1.07-.21,1.07-.21"/>
    <path class="cls-2" d="M655.14,139.84c-.22.19-.59.31-.89.31-.74,0-1.32-.56-1.32-1.5,0-1.17.78-1.66,1.48-1.66.33,0,.6.07.73.15v2.7ZM655.92,139.72v-2.26c0-.59-.79-.87-.79-.87-.11-.03-.35-.12-.72-.12-1.33,0-2.33.94-2.33,2.29s.83,2.03,1.82,2.03c.39,0,.94-.23,1.32-.54.06.28.24.54.68.54.2,0,.39-.24.43-.45,0,0-.4-.18-.4-.62"/>
    <path class="cls-2" d="M627.42,139.84c-.23.19-.59.31-.89.31-.74,0-1.32-.56-1.32-1.5,0-1.17.78-1.66,1.48-1.66.33,0,.6.07.73.15v2.7ZM628.21,139.72v-2.26c0-.59-.79-.87-.79-.87-.11-.03-.35-.12-.72-.12-1.33,0-2.33.94-2.33,2.29s.82,2.03,1.82,2.03c.39,0,.95-.23,1.32-.54.06.28.24.54.68.54.2,0,.39-.24.43-.45,0,0-.4-.18-.4-.62"/>
    <path class="cls-2" d="M640.26,137.39s0,0,0,.01v1.6"/>
    <path class="cls-2" d="M648.51,135.5c0-.24-.2-.43-.43-.43s-.43.19-.43.43.19.43.43.43.43-.19.43-.43"/>
    <path class="cls-2" d="M661.55,136.99c-.47,0-.93.42-1.01,1.2.68.02,1.52,0,1.69,0,.12-.01.2-.09.2-.2.01-.56-.28-1-.87-1h0ZM663,139.95s.11.39-.36.63c-.15.08-.54.2-.92.2-1.3,0-2.01-.77-2.01-2.07,0-1.17.71-2.21,1.95-2.21,1.07,0,1.58.68,1.49,2.16h-2.63c.01.95.59,1.49,1.41,1.49s1.07-.21,1.07-.21"/>
    <path class="cls-2" d="M639.47,140.08h-2.55v-2.36h1.71c.31,0,.39-.07.47-.57h-2.18v-2.3h1.86c.37,0,.37-.33.39-.57h-3.07v6.45h3.04c.17,0,.29-.3.31-.6v-.05Z"/>
    <path class="cls-2" d="M616.65,138.85h2.26c.23,0,.1-.23-.04-.58h-2.22v.58Z"/>
    <path class="cls-2" d="M593.39,134.32c-.1.02-.18.05-.18.22v3.29c0,2.07-.81,2.37-1.65,2.37-.71,0-1.64-.3-1.64-2.26v-2.66c0-.45.04-.9.04-1.01,0,0-.72,0-.79.08-.04.04-.06.04-.07.19v1.36c0,.05,0,.1,0,.14v1.9c0,2.17.95,2.86,2.36,2.86,1.05,0,2.46-.32,2.46-3.02v-1.32c0-.78,0-1.83.03-2.2-.19,0-.28,0-.56.04"/>
    <path class="cls-2" d="M665.49,136.49c.35.03.59.13.68.45.04.16.01.41-.1.34-.19-.12-.44-.22-.67-.24-.36-.03-.65.15-.68.48-.02.27.15.45.35.58.24.15.54.32.8.5.4.27.56.62.53.99-.08.89-.9,1.26-1.63,1.15-.97-.15-1.01-.96-.9-1,.26.21.66.42,1.01.45.47.04.73-.18.76-.5.02-.23-.1-.41-.41-.61-.24-.15-.46-.27-.67-.41-.37-.25-.62-.6-.58-1.08.06-.76.77-1.17,1.51-1.1h.01Z"/>
    <path class="cls-2" d="M630.7,140.26c-.18,0-.42-.03-.59-.09v-2.81c.23-.14.63-.25.86-.25.78,0,1.3.54,1.3,1.45,0,1.14-.75,1.71-1.57,1.71M631.37,136.47c-.41,0-.91.21-1.25.42v-2.6c-.21.07-.79.01-.79.34v5.65c0,.16.05.21.16.28.22.11.67.22,1.14.22,1.37,0,2.49-.87,2.49-2.34,0-1.36-.89-1.98-1.75-1.98"/>
    <path class="cls-2" d="M609.55,138.65c0-1.17.78-1.66,1.48-1.66.33,0,.6.07.73.15v2.7c-.22.19-.59.31-.89.31-.74,0-1.32-.56-1.32-1.5M612.55,139.75v-5.46c-.21.07-.79.01-.79.34v1.96c-.11-.03-.35-.12-.72-.12-1.33,0-2.33.94-2.33,2.29s.83,2.03,1.82,2.03c.39,0,.95-.23,1.32-.54.06.28.24.54.67.54.2,0,.39-.24.43-.45,0,0-.38-.17-.4-.59"/>
    <path class="cls-2" d="M648.45,140.73v-4.24c-.21.07-.79.01-.79.34v3.9h.79Z"/>
    <path class="cls-2" d="M645,136.47c-.51,0-1.02.33-1.39.69,0-.04-.02-.08-.03-.13-.13-.38-.53-.57-1.17-.57-.5,0-.99.32-1.37.67v-.65c-.21.07-.79.01-.79.34v3.9h.79v-.04.04s0-3.07,0-3.07h0c.24-.26.61-.55,1.03-.55s.76.11.79.74v1.16c0,.83,0,1.39-.03,1.72h.81v-3.07c.22-.25.58-.56,1.06-.56.54,0,.87.36.87,1.09v2.55h.78v-2.56c0-.9-.29-1.71-1.37-1.71"/>
    <path class="cls-2" d="M598.33,137.03c-.13-.38-.53-.57-1.17-.57-.51,0-.99.32-1.36.67v-.65c-.21.07-.79.01-.79.34v3.9s.79,0,.79,0v-.04.04-3.07h0c.24-.26.61-.55,1.03-.55s.76.11.79.74v1.16c0,.83,0,1.39-.03,1.72h.81v-3.07c0-.22,0-.38-.08-.62"/>
    <path class="cls-2" d="M600.62,135.5c0-.24-.19-.43-.43-.43s-.43.19-.43.43.2.43.43.43.43-.19.43-.43"/>
    <path class="cls-2" d="M600.57,140.73v-4.24c-.21.07-.79.01-.79.34v3.9h.79Z"/>
    <path class="cls-2" d="M651.96,136.62c-.07-.07-.24-.15-.42-.15-.4,0-.79.28-1.07.82v-.8c-.21.07-.79.01-.79.34v3.9h.79s0,0,0,0h0v-2.5c.01-.13.05-.24.1-.37.2-.46.37-.65.94-.65.15,0,.49-.51.46-.59"/>
    <path class="cls-2" d="M624.17,136.62c-.06-.07-.23-.15-.42-.15-.4,0-.79.28-1.07.82v-.82c-.21.07-.79.01-.79.34v3.92h.78s0,0,0,0h0v-2.5c.01-.13.05-.24.1-.37.2-.46.37-.65.94-.65.15,0,.5-.51.46-.59"/>
    <path class="cls-2" d="M658.54,140.28c-.32,0-.63-.24-.68-.8-.04-.4,0-2.37,0-2.37,0,0,.23,0,.58,0,.17,0,.82-.04.91-.5h-1.5v-.57c-.21.07-.79.01-.79.34v3.17c0,.71.33,1.24,1.16,1.24.33,0,.69-.09.88-.25.17-.13.2-.34.15-.52,0,0-.26.28-.72.28"/>
    <path class="cls-2" d="M603.38,140.28c-.32,0-.63-.24-.67-.8-.04-.4,0-2.37,0-2.37,0,0,.23,0,.58,0,.17,0,.82-.04.91-.5h-1.5v-.57c-.21.07-.79.01-.79.34v1.66s0,0,0,0v1.5c0,.71.33,1.24,1.16,1.24.33,0,.69-.09.88-.25.17-.13.2-.34.15-.52,0,0-.27.28-.72.28"/>
    <path class="cls-2" d="M621.12,140.59c-.17-.34-.4-.92-.79-1.8-.37-.85-1.9-4.5-1.9-4.5h-.16s-2.17,5.13-2.71,6.28l-.06.14c.33,0,.47.02.62.02.11,0,.17-.04.21-.11.16-.33.45-1.01.78-1.77h.59v-.57h-.38c.37-.88.66-1.63.98-2.39.13.33,1.62,4.08,1.83,4.56.09.22.16.28.28.28.15,0,.5-.02.77,0l-.05-.13Z"/>
    <path class="cls-2" d="M621.75,122.65c-.15-.01-.3-.03-.44-.05-.15-.01-.3-.03-.44-.05.02-.14.03-.27.05-.4.02-.19.19-.34.41-.36.03,0,.05,0,.07-.01.16-.02.32-.06.46-.11-.03.32-.06.65-.1.98M626.66,123.71c.02-1.13.05-2.27.08-3.4-.43.35-.87.7-1.31,1.04.34.09.42.33.41.56-.01.34-.02.67-.03,1.01-.3-.01-.59-.02-.88-.04.05-.88.09-1.75.13-2.63-.44.34-.89.68-1.34,1,.34.1.42.34.4.57-.02.33-.04.67-.06,1-.47-.03-.94-.06-1.41-.1.17-2.05.35-4.09.52-6.15-.43.33-.86.65-1.3.97.31.11.37.34.35.58-.07.74-.14,1.48-.22,2.21-.03.34-.29.51-.5.58-.14.06-.25.08-.26.11-.6.04-1.11.46-1.18,1.02l-.15,1.16c.35.04.7.08,1.05.12.09.01.19.02.29.03.5.05.99.1,1.49.14,1.31.11,2.63.18,3.94.2M617.7,122.9c.29.05.58.09.88.13.25-1.76.51-3.51.77-5.26.03-.23.15-.45.49-.48-.35-.41-.7-.83-1.04-1.25-.36,2.29-.73,4.57-1.09,6.85M614.36,121.48c-.14-.03-.29-.06-.44-.09-.14-.03-.29-.06-.43-.1.02-.1.05-.2.07-.3.17-.09.34-.18.51-.28.12.16.24.31.35.47-.02.1-.04.2-.07.3M616.62,116.76c.31.14.35.38.3.61-.28,1.49-.56,2.98-.84,4.46-.29-.06-.58-.11-.87-.17.04-.2.08-.4.12-.61-.35-.47-.69-.93-1.03-1.4-.5.28-1.01.56-1.53.83-.05.2-.1.4-.15.6-.29-.07-.58-.15-.87-.22.22-.85.44-1.7.66-2.54-.5.24-1.01.48-1.52.71.31.16.33.41.27.64-.09.32-.18.65-.27.97-.13-.03-.25-.07-.38-.11,0,0,0,0,0,0-.24-.07-.48-.14-.72-.2,0-.31.04-.61.1-.92.2-.95.46-2.03-.74-3.3-.34.16-.69.32-1.04.48.84.25,1.18,1.03,1.31,1.65.12.75-.29,1.32-.07,1.95-.41-.12-.83-.25-1.24-.38,0,0,0,0,0,0,.03-.1.06-.2.1-.3.2-.64-.22-1.36-.95-1.62-.05-.02-.11-.04-.16-.06-1.61-.56-3.2-1.19-4.77-1.89.11-.24.21-.47.31-.71.09-.21.31-.27.54-.17-.24-.53-.47-1.05-.69-1.58-.43.93-.86,1.87-1.29,2.8,1.9.87,3.84,1.65,5.81,2.33.28.1.44.37.36.61-.03.1-.07.2-.1.3-.09.27-.18.53-.27.8-.18.08-.36.15-.54.22-.1-.18-.2-.35-.3-.53.09-.26.19-.52.27-.78-.21-.07-.42-.15-.62-.22-.07-.03-.14-.05-.22-.08-1.59-.58-3.16-1.23-4.71-1.95-.11.23-.22.47-.33.7,1.57.72,3.15,1.38,4.76,1.97-.04.12-.09.24-.13.36.3.52.6,1.04.91,1.56.56-.21,1.11-.43,1.65-.65.04-.13.08-.25.12-.38.62.2,1.24.39,1.86.57.12.18.27.33.46.46-.09-.13-.16-.26-.21-.39.52.15,1.04.29,1.56.43.73.19,1.46.36,2.19.53.73.16,1.46.31,2.19.45.03,0,.06.01.09.02.26.05.52.09.78.14h0c.4-2.28.79-4.56,1.18-6.84-.46.29-.92.57-1.38.85M625.24,124.44c-.25-.01-.46.15-.47.36-.01.22.18.39.43.41.25.01.46-.15.47-.37,0-.21-.18-.39-.43-.4M622.46,30.71c.34,0,.61.26.61.58-.18-.18-.9-.33-1.23,0,0-.33.27-.58.61-.58M624,31.46c-.26,1.94-2.75,1.94-2.83.5.44,1.56,2.86.74,2.15-.99.95-.36,1.66-.39,2.43-.51-1.99-.31-4.32-.55-5.77.11-.71.32-.51.75-.4.93.12-.38.75-.4,1.2-.25-.34,2.92,3.39,2.57,3.23.2M599.25,116.21c-.14-.07-.27-.14-.41-.2-.14-.07-.27-.14-.41-.22.06-.11.12-.23.18-.35.09-.17.31-.24.53-.18.03,0,.05.02.07.02.16.04.33.06.47.06-.14.29-.29.58-.43.88M601.13,111.46c.27.22.23.46.13.67-.33.67-.66,1.33-.99,1.99-.15.3-.45.36-.68.37-.15,0-.28-.02-.29,0-.59-.18-1.22.03-1.49.53-.18.35-.37.69-.55,1.04.4.21.81.42,1.22.63.41.21.82.41,1.24.61,1-2.09,1.99-4.17,2.99-6.26-.52.15-1.05.3-1.59.43M623.44,124.33c-.25-.02-.47.14-.48.35-.02.22.18.4.43.42.25.02.46-.14.48-.35.01-.21-.18-.4-.42-.41M622.37,124.25c-.25-.02-.47.13-.49.34-.02.22.17.4.43.42.24.02.46-.13.48-.34.02-.21-.17-.4-.42-.42M612.21,117.78c.22.06.45-.05.5-.27.05-.2-.09-.42-.31-.47-.22-.06-.45.06-.51.26-.06.21.08.42.31.48M611.24,117.51c.22.06.45-.05.51-.25.05-.2-.08-.42-.3-.48-.23-.06-.46.05-.51.25-.06.21.08.42.3.49M620.97,118.06c.23.03.43-.13.45-.34.02-.21-.13-.4-.36-.43-.22-.03-.42.13-.45.33-.03.22.14.41.35.44M642.05,118.74c.22-.05.37-.27.32-.47-.05-.21-.28-.34-.5-.29-.23.05-.37.26-.32.47.05.2.26.34.5.28M600.52,110.8c.21.11.44.04.54-.15.09-.19.02-.42-.19-.53-.2-.1-.44-.03-.54.15-.1.19-.01.43.19.53M621.09,117.14c.23.03.42-.12.44-.33.02-.21-.13-.4-.35-.43-.22-.03-.42.13-.44.33-.03.21.13.41.35.43M641.05,118.96c.22-.05.38-.26.33-.46-.05-.21-.27-.34-.49-.3-.23.05-.38.26-.34.47.04.21.27.34.5.29M600.09,111.63c.21.11.45.03.55-.16.09-.19.02-.42-.19-.53-.2-.1-.45-.04-.54.15-.1.19-.02.44.19.54M623.37,70.64c-.08-1.45-.14-3.09-.14-4.88,0-1.62.05-3.09.12-4.38,4.1-.37,9.98-.47,15.4.94.39,1.16.61,2.4.61,3.7s-.22,2.53-.6,3.69c-5.42,1.41-11.27,1.31-15.38.94M627.76,77.62c-1.29,0-2.56-.21-3.78-.63-.1-.62-.38-2.67-.57-5.65,4.04.35,9.72.45,15.05-.86-1.75,4.19-5.89,7.14-10.71,7.14M616.15,66.02c0-4.68,2.84-8.91,7.12-10.7-.22,1.39-.72,5.08-.72,10.45s.49,9.48.7,10.95c-4.27-1.8-7.1-6.03-7.1-10.69M624.02,55.03c1.2-.41,2.46-.62,3.74-.62,4.81,0,8.95,2.95,10.7,7.13-5.34-1.3-11.03-1.2-15.07-.85.2-3.08.52-5.06.63-5.66M627.76,53.73c-1.43,0-2.83.24-4.15.72-4.87,1.75-8.13,6.4-8.13,11.57s3.25,9.79,8.09,11.55c1.35.49,2.76.74,4.2.74,6.78,0,12.29-5.51,12.29-12.29s-5.51-12.29-12.29-12.29M656.41,118.8c-.12.05-.25.02-.29-.08-.05-.1.01-.22.13-.27.04-.02.09-.03.13-.03-.42-.13-.8.32-.47.6-.11.07-.2.07-.26,0-.08.15-.15.3-.22.46.56-.25,1.11-.5,1.66-.76-.18-.06-.36-.11-.54-.17.03.09-.03.19-.14.24M662.49,66.44v-1.37c0-.69,0-1.36,0-1.68,0-1.29-.21-3-1.43-3.84.37,1.44.12,1.7.12,4.13v3.04c0,.89.12,1.67.34,2.35-1.42-.69-2.94-2.18-2.94-4.82,0-.88-.22-4.53-1.31-6.05v6.33c0,.83.11,1.56.3,2.21-3.34-1.69-3-7.44-4.09-9.68,0,1.93.04,3.29.04,5.22,0,.95.14,1.77.38,2.48-2.92-1.86-3.26-5.52-3.49-8.25-.28,1.01-.75,3.67.05,6.18-1.96-1.5-3.05-4.69-2.92-6.97-.29,1.25-.59,3.13.02,5.02-.11,2.15-.09,19.08-.09,20.93-1.11-.92-2.26-2.59-2.13-5.11.04-.41.08-.81.14-1.18.78-5.29.94-12.9-1.24-19,1.76,9.52-.44,19.3-.74,21.27-.55,3.52.64,10.8,3.13,18.89-.48-.48-2.14-1.17-2.8-1.83,0,.73.27,1.52.27,3.11-.85-1.43-1.18-1.49-2.08-3.07.28,1.86.2,2.02.2,3.63-.88-1.66-1.36-3.88-3.38-7.03-4.5-7.03-11-2.67-11-1.45,0-1.22-6.49-5.59-10.99,1.45-2.03,3.16-2.5,5.37-3.38,7.03,0-1.61-.08-1.77.2-3.63-.91,1.58-1.23,1.64-2.08,3.07,0-1.6.27-2.38.27-3.11-.67.66-2.32,1.35-2.8,1.83,2.48-8.08,3.68-15.37,3.13-18.89-.31-1.97-2.51-11.76-.74-21.27-2.19,6.09-2.02,13.71-1.24,19,.06.37.1.77.14,1.18.12,2.54-1.03,4.2-2.14,5.12,0-1.85.03-18.77-.08-20.94.62-1.89.31-3.77.02-5.02.14,2.28-.96,5.48-2.91,6.97.79-2.51.33-5.17.05-6.18-.23,2.73-.56,6.38-3.48,8.25.24-.71.38-1.53.38-2.48,0-1.93.05-3.29.05-5.22-1.09,2.23-.76,7.99-4.09,9.68.19-.64.29-1.38.29-2.21v-6.33c-1.1,1.52-1.31,5.16-1.31,6.05,0,2.64-1.52,4.14-2.94,4.82.22-.67.34-1.45.34-2.34v-3.04c0-2.43-.25-2.69.12-4.13-1.23.84-1.44,2.55-1.43,3.84,0,.32,0,.99,0,1.68h0v1.37c0,2.75-1.66,4.27-3.13,4.91.25-.33.53-1.23.53-2.56v-13.28c0-3.73,4.36-8.02,5.97-9.91,4.47-5.23,6.41-.98,10.91.55,7.48,2.53,11.46-.3,11.46-.3,3.99-2.51,4.01-4.88,4.01-6.36,0-1-.39-2.31-1.12-3.14-1.37-1.36-3.79-1.8-4.22-1.72-.91.47-1.72.47-1.88.6-.42-.83-.31-2.11,1.57-3.15.53-.29.33-.96,1.94-1.9,4.7-2.74,9.29-1.75,11.98,1.25-.95-.35-1.86-.66-3.46-.81,2.24.78,4.9,2.64,6.62,5.72.7,1.23,2.29,4.61,2.85,5.63,1.2,2.18,3.36,6.76,11,4.18,4.5-1.52,6.44-5.78,10.91-.55,1.61,1.89,5.97,6.18,5.97,9.91v13.28c0,1.33.27,2.23.53,2.56-1.47-.64-3.13-2.16-3.13-4.91M662.49,76.8v-3.8c0-.63-.02-1.18-.06-1.67.22.08.43.16.61.23.63.63,1.35,1.08,2.05,1.43v6.15c0,1.33.27,2.23.53,2.56-1.47-.64-3.12-2.15-3.12-4.9M662.55,89.69c0-.44-.06-4.13-.06-4.85,0-.79-.03-2.15-.1-3.17.24.09.45.17.65.25.63.62,1.35,1.08,2.05,1.42v7.85c0,1.33.27,2.23.53,2.56-1.31-.57-3.07-2.14-3.07-4.06M662.55,109.59v-2.94h0c0-1.85-.05-3.46-.05-4.01v-4.38c0-.37-.01-2.28-.02-4.74.08.04.17.07.25.1.7.81,1.55,1.36,2.37,1.77v15.7c0,1.33.27,2.23.53,2.56-1.31-.57-3.07-2.21-3.07-4.05M658.58,74.59v-3.84c0-.67-.02-1.25-.06-1.73.15.06.3.11.43.16.68.73,1.49,1.24,2.25,1.62.02.8-.03,1.65-.03,2.49v3.76c0,.89.12,1.67.34,2.35-1.42-.68-2.94-2.18-2.94-4.82M658.58,86.42v-3.84c0-.68-.02-2.12-.06-3.21.15.06.3.11.44.17.68.72,1.49,1.24,2.25,1.62.03,1.28-.02,3.04-.02,3.97v2.24h0v1.4c0,.09,0,.18,0,.27,0,0,0,0,0,0v.08c0,.8.1,1.51.27,2.14-1.28-.59-2.87-2.24-2.87-4.83M658.58,99.85v-3.84c0-.67-.02-3.12-.06-5,.77,1.02,1.77,1.61,2.68,2.01-.01,2.83-.02,5.1-.02,5.53v2.23h0v1.41c0,1.33,0,2.1.25,2.43-1.09-.48-2.85-2.03-2.85-4.78M654.83,72.34v-3.48c0-.72,0-1.2-.01-1.6.35.14.73.26,1.14.36.43.33.87.61,1.31.83,0,.13,0,.25,0,.38v6.03c0,.82.1,1.55.29,2.19-1.35-.73-2.72-2.21-2.72-4.71M654.83,82.9v-3.48c0-1.33-.04-1.32-.04-1.97.37.16.71.29,1.02.4.47.38.97.7,1.45.95,0,.78,0,1.67,0,1.86v6.03c0,.27.01.53.03.77-1.26-.77-2.46-2.22-2.46-4.56M657.26,94.09v5.96c-1.26-.78-2.44-2.22-2.44-4.55v-3.48c0-1.01-.02-3.3-.03-4.66.7.93,1.6,1.55,2.46,2,0,1.62,0,4.48,0,4.72M651.55,70.61v-3.49c0-.9-.02-1.56-.06-2.06.13.07.26.14.4.2.44.5.97.96,1.62,1.36.01.29,0,.58,0,.85v5.15c0,.96.14,1.77.38,2.48-1.22-.79-2.35-2.22-2.35-4.49M651.55,79.96v-3.5c0-.39,0-.74-.01-1.05.16.09.34.18.51.27.45.45.94.81,1.43,1.11.03.42.03.85.03,1.24v5.15c0,.37.02.71.06,1.04-1.09-.83-2.03-2.2-2.03-4.26M653.51,90.63v4.32c-1.06-.83-1.96-2.19-1.96-4.22v-3.5c0-.65,0-1.87-.03-2.81.56.74,1.25,1.29,1.95,1.71.05,1.48.04,4.06.04,4.5M648.2,69.72c0-.8-.06-4.99-.07-7.72.46.79,1.11,1.55,2.05,2.24.11.77.05,1.74.05,2.41v4.23c0,.79.1,1.48.27,2.11-1.28-.95-2.31-2.11-2.31-3.27M648.15,72.29c.42.76,1.12,1.57,2.09,2.29,0,.5,0,1.01,0,1.41v3.49c-1.15-.9-2.04-1.98-2.04-3.06,0-.49-.02-2.23-.04-4.13M650.23,86.78v2.5c-1.15-.9-2.04-1.98-2.04-3.06,0-.75-.06-4.53-.07-7.25.41.76,1.11,1.58,2.08,2.31.07,1.59.02,4.9.02,5.51M647.12,101.29c.16.36.11,1.06.28,1.39.16.33.52.55.63.72.13.22.08.78.26,1.17.09.18.17.36.26.53-.12.13-.21.27-.3.41-.27-.61-.94-.68-1.44-.36-.25.16-.55.41-.79.81.1-.69-.03-.91-.3-1.18-.39-.39-.24-1.22-.56-1.73-.25-.39-.71-.51-1-1.11-.29-.59-.15-.91-.45-1.5-.34-.67-.42-.88-.44-1.79.38.49.82.9,1.42,1.5.21-1.41.23-1.74.23-2.96.6.51,1.21,1.27,1.4,1.78.11.31.22,1.2.27,1.35.14.46.36.61.52.96M649.73,105.4c.63.05.28,2.77.74,3.72.47.96.27,1.76-.62,1.68-.91-.08-.86-2.84-.86-3.33,0-.68-.35.36-.53.75-.04-.17-.08-.35-.11-.55-.07-.47-.02-.77.02-1.05.24-.65.73-1.26,1.36-1.21M650.54,106.51c.25-.82.93-1.96,1.71-1.78.61.14.03,2.1.4,3.06.72,1.88-.29,2.51-1.16,2.29-.97-.24-.54-2.87-.46-3.25.02-.62-.3-.01-.52.33-.05-.16-.08-.27.03-.67M653.44,106.9l5.75,3.93v8.27c-9.14,5.18-19.39,8.18-29.95,8.41h-.17s-.8.66-1.19.99h0s0,0,0,0c-.39-.32-1.19-.99-1.19-.99h-.17c-10.56-.22-20.8-3.23-29.94-8.4v-8.27s5.74-3.93,5.74-3.93c.14.08.28.16.42.24.02.83-.56,1.25-.43,2.09.11.71.54,1.21,1.05,1.44.14.31.39.56.73.7.35.13.31-.17.3-.62.08-.02.15-.05.23-.08.1.33.31.58.6.72.13.25.36.49.81.79.45.21.15-.28.06-.72.17-.04.33-.11.5-.22.06.14.14.26.27.34.04.03.08.06.13.09.11.46.43.72.92,1,.33.11.2-.26.17-.61.45,0,.85-.25,1.03-.99.09-.35.08-.57.06-.76,5.46,2.32,11.35,3.9,17.12,4.08.2.16,1.59,1.2,1.59,1.2,0,0,1.38-1.04,1.59-1.2,5.74-.18,11.6-1.74,17.03-4.04-.02.18-.01.4.07.72.18.74.58.99,1.03.99-.03.35-.16.72.17.61.49-.28.81-.54.92-1,.04-.03.09-.06.13-.09.12-.08.2-.2.26-.34.17.11.33.18.5.22-.08.44-.39.93.06.72.45-.3.68-.53.81-.79.28-.14.5-.39.6-.72.07.04.15.06.23.08,0,.45-.05.75.3.62.34-.14.6-.39.74-.7.51-.23.94-.73,1.05-1.44.13-.83-.43-1.25-.42-2.05.17-.09.34-.19.5-.28M603.04,107.79c.37-.96-.22-2.93.39-3.06.78-.18,1.46.96,1.71,1.78.08.23.06.59.03.66-.22-.35-.55-.96-.52-.34.09.38.52,3-.46,3.25-.87.22-1.88-.42-1.16-2.29M605.94,105.4c.63-.05,1.11.57,1.36,1.21.04.29.08.59.02,1.05-.03.19-.06.38-.11.55-.18-.38-.53-1.43-.53-.75,0,.48.05,3.24-.86,3.33-.89.08-1.09-.71-.62-1.68.46-.95.12-3.67.74-3.72M609.11,107.49c-.75,1.35-.08,3.88-.94,3.93-2.45.16-.63-2.92-.54-3.68.11-.98.01-2.41.96-2.11.86.26,1.95,3.04,2.48,3.87,0,0,.01.02.03.03-.2-.08-.39-.16-.58-.24.06.02.1.03.12.04-.88-.34-1.38-2.46-1.53-1.84M647.08,105.62c.96-.3.86,1.13.97,2.11.09.77,1.91,3.84-.54,3.68-.85-.05-.19-2.58-.94-3.93-.13-.56-.54,1.18-1.26,1.78-.23.1-.47.19-.71.29.56-.96,1.66-3.68,2.49-3.93M633.71,105.98c.61,3.57-2.9,3.77-3.43,1.02-.06-.35-.16-1.41-.27-2.81-.26-4.79-.66-12.39-.68-13.82.59-.38,1.3-.66,2.02-.86.39,2.7,2.2,15.51,2.36,16.47M634.07,89.33c.38.07.7.2.92.39.35.24.72.57,1.12.96.63,2.4,3.2,11.99,3.43,12.95.28,1.16.58,2.21,1.07,2.7-1.55.29-2.65,0-3.01-1.41-.47-2.21-2.89-13.17-3.53-15.59M636.68,104.98c.2,1.18,1.14,2.86.07,3.11-1.67.41-1.82-.52-2.09-1.95,0-.04-2.35-15.38-2.68-16.76.54-.1,1.06-.14,1.53-.11.35,1.69,3.01,14.76,3.17,15.71M626.61,106.44c0-1.86.29-13.72.34-15.63.47.41.8.9.89,1.44.09-.54.42-1.03.9-1.44.05,1.91.34,13.77.34,15.63,0,2.02-.53,2.75-1.23,3.17-.7-.42-1.23-1.15-1.23-3.17M615.22,103.5c-.46,1.62-1.55,3.3-1.82,3.55.95.36,2.68.64,3.9.16-.18.64-.17,1.22.38,1.76.67.67,2.54,1.15,3.46-.42.74,2.61,3.55,2.49,4.66.66.48,1.51,1.47,1.71,2.04,2.28.57-.57,1.57-.76,2.04-2.28,1.1,1.82,3.92,1.95,4.66-.66.91,1.57,2.79,1.09,3.46.42.54-.54.55-1.13.38-1.76,1.22.48,2.95.2,3.9-.16-.26-.26-1.36-1.94-1.82-3.55-.56-1.96-2.6-9.04-3.52-11.94,2.49,2.86,5.33,7.7,5.52,10.25.08-.36.24-.8.4-1.28.57,1.19,1.95,3.63,2.19,4.21.24.6.31,1,.13,1.8-.13.58-.65,2.34-1.78,3.46,0,0,0,0,0,.01-4.51,1.68-9.26,2.72-14.14,2.86-.4.33-1.38,1.06-1.38,1.06,0,0-.98-.74-1.38-1.06-4.86-.13-9.59-1.17-14.09-2.84,0,0,0,0,0-.02-1.13-1.13-1.8-2.9-1.92-3.48-.17-.8-.11-1.19.14-1.8.23-.57,1.61-3.02,2.18-4.21.15.48.32.92.39,1.28.19-2.55,3.03-7.39,5.52-10.25-.92,2.9-2.96,9.98-3.52,11.94M618.08,104.92c-.36,1.41-1.46,1.7-3.01,1.41.48-.49.79-1.54,1.07-2.7.23-.96,2.79-10.55,3.43-12.95.4-.4.78-.72,1.12-.96.23-.19.55-.32.92-.39-.64,2.42-3.06,13.38-3.53,15.59M624.32,89.51c.72.19,1.43.48,2.02.86-.03,1.44-.42,9.02-.68,13.81-.11,1.41-.2,2.46-.27,2.82-.53,2.75-4.04,2.55-3.43-1.02.16-.96,1.97-13.77,2.36-16.47M621.02,106.14c-.27,1.43-.42,2.36-2.09,1.95-1.08-.26-.14-1.94.06-3.11.17-1.02,2.79-13.78,3.18-15.71.47-.03.99.01,1.53.11-.33,1.38-2.68,16.72-2.68,16.76M607.4,104.56c.17-.39.13-.95.26-1.17.1-.16.46-.39.63-.72.16-.33.12-1.03.28-1.39.16-.35.37-.5.52-.96.05-.15.15-1.04.27-1.35.2-.52.8-1.27,1.41-1.78,0,1.22.02,1.55.23,2.96.6-.6,1.03-1.01,1.42-1.5-.02.9-.1,1.12-.44,1.79-.3.59-.15.91-.45,1.5-.29.6-.75.72-1,1.11-.32.5-.16,1.33-.56,1.73-.27.27-.39.49-.3,1.18-.24-.39-.53-.64-.79-.81-.5-.32-1.17-.25-1.44.36-.09-.14-.19-.28-.3-.41.09-.16.18-.35.27-.53M607.48,69.72c0,1.16-1.03,2.32-2.3,3.27.17-.62.27-1.32.27-2.11v-4.23c0-.67-.06-1.64.05-2.41.94-.69,1.6-1.46,2.06-2.24-.01,2.73-.07,6.93-.07,7.72M605.43,74.59c.96-.72,1.66-1.53,2.08-2.28-.02,1.9-.04,3.64-.04,4.12,0,1.08-.88,2.16-2.03,3.06v-3.48c0-.4-.02-.91-.01-1.42M607.47,86.21c0,1.08-.88,2.16-2.03,3.06v-2.49c0-.6-.04-3.92.02-5.51.96-.74,1.66-1.55,2.07-2.31-.01,2.72-.06,6.5-.06,7.25M604.13,67.11v3.49c0,2.27-1.13,3.7-2.35,4.49.24-.71.38-1.53.38-2.48v-5.15c0-.27,0-.56,0-.85.65-.4,1.18-.86,1.62-1.36.14-.07.27-.14.4-.2-.04.5-.06,1.16-.06,2.06M602.1,84.22c.04-.33.06-.68.06-1.04v-5.15c0-.39,0-.82.03-1.24.5-.3.99-.66,1.44-1.11.17-.08.34-.17.5-.27,0,.31,0,.65,0,1.05v3.5c0,2.07-.94,3.44-2.03,4.26M604.13,87.24v3.5c0,2.03-.9,3.38-1.97,4.22v-4.32c0-.44,0-3.02.04-4.5.7-.42,1.39-.97,1.95-1.71-.02.95-.03,2.16-.03,2.81M600.85,79.42v3.48c0,2.34-1.2,3.79-2.46,4.56.02-.25.03-.5.03-.77v-6.03c0-.19,0-1.07,0-1.86.49-.25.98-.56,1.45-.95.3-.11.65-.24,1.02-.4,0,.65-.04.64-.04,1.97M600.85,92.02v3.48c0,2.32-1.18,3.77-2.44,4.55v-5.96c0-.25,0-3.1,0-4.72.87-.46,1.77-1.08,2.47-2.01-.01,1.36-.03,3.64-.03,4.66M598.12,77.05c.19-.64.29-1.37.29-2.19v-6.4c.44-.23.88-.5,1.31-.83.41-.11.78-.23,1.14-.36-.02.4,0,.88,0,1.6v3.48c0,2.51-1.37,3.99-2.73,4.71M597.1,82.58v3.84c0,2.59-1.59,4.25-2.88,4.83.18-.63.28-1.33.28-2.14v-.08s0,0,0,0c0-.09,0-.17,0-.27v-1.39h0v-2.24c0-.93-.05-2.69-.03-3.97.77-.38,1.57-.89,2.25-1.62.14-.06.28-.11.44-.17-.04,1.09-.06,2.53-.06,3.21M597.1,96.01v3.84c0,2.75-1.76,4.3-2.85,4.78.25-.33.25-1.1.25-2.43v-1.4h0v-2.24c0-.43-.01-2.7-.02-5.53.91-.41,1.91-1,2.67-2.01-.04,1.87-.06,4.33-.06,5M594.47,70.81c.77-.38,1.57-.89,2.26-1.62.14-.05.28-.11.43-.16-.03.48-.06,1.05-.06,1.73v3.84c0,2.64-1.52,4.14-2.94,4.82.22-.68.34-1.45.34-2.35v-3.76c0-.85-.04-1.69-.03-2.49M590.06,81.7c.25-.33.53-1.23.53-2.56v-6.15c.69-.35,1.42-.8,2.05-1.43.19-.07.39-.14.61-.23-.04.49-.06,1.04-.06,1.67v3.78c0,2.75-1.66,4.27-3.13,4.91M593.18,84.83c0,.72-.06,4.41-.06,4.85,0,1.91-1.76,3.49-3.06,4.06.25-.33.53-1.23.53-2.56v-7.85c.69-.35,1.42-.8,2.05-1.42.2-.07.41-.16.65-.25-.06,1.02-.1,2.37-.1,3.17M593.18,98.26v4.38c0,.55-.05,2.16-.06,4.01,0,0,0,0,0,0v2.94c0,1.84-1.76,3.49-3.06,4.05.25-.33.53-1.23.53-2.56v-15.7c.82-.41,1.67-.96,2.37-1.77.08-.03.16-.06.25-.1-.02,2.46-.02,4.37-.02,4.74M618.95,35.65h0c-.34.1-2.15.41-2.38.18.4-.21.67-.33,1.42-.81.55.04,1.09.38,1.95.9-.48-.19-.53-.36-.99-.27M666.4,83.9c.37.14.7.25.96.36-1.03-1.56-.96-4.08-.96-4.68v-6.03c.37.14.7.26.96.36-1.03-1.56-.96-4.09-.96-4.69v-14.03c0-3.88-5.93-13.28-10.95-13.41-3.56-.09-7.74,4.92-12.85,3.63-1.64-.43-2.95-2.19-4.03-4.36-1.9-3.89-3.74-9.1-8.38-12.12-5.14-3.33-11.05.39-11.73.98-.58.53-1.51,2.13-2,2.39-1.61.84-1.87,2.24-1.87,2.78s.12,1.83,1.1,2.56c-.14-.63-.17-.99-.02-1.31.64.11,2.05.39,2.96.02.45.45,1.51,1.3,1.98,2.18.65,1.22.65,1.41.65,1.89,0,1.24-.58,3.03-2.36,4.19-1.87,1.33-6.27,2.08-11.78.19-2.98-1.02-4.21-3.09-6.88-3.02-5.02.13-10.95,9.53-10.95,13.41v14.03c0,.6.08,3.12-.96,4.69.26-.11.59-.22.96-.36v6.03c0,.6.08,3.12-.96,4.68.26-.1.59-.22.96-.36v7.72c0,.6.08,3.12-.96,4.69.26-.11.59-.21.96-.35v15.57c0,.44.04,1.98-.37,3.38-.14.47.18,1.03.67.83,2.01-.8,4.93-2.37,4.93-6.73v-2.46c1.44-.63,3.17-1.76,3.73-4.49,1.64-.81,3.45-2.23,3.85-5.07,1.68-.97,3.34-2.66,3.36-5.93,1.46-1.1,2.32-2.4,2.5-3.41.12-.68.2-2.29.24-4.16,1.05-.77,1.81-1.65,2.25-2.45-.17,4.05-.98,9.5-2.88,17.04.34,0,.79-.08,1.24-.18-.25,1.52-1.55,5.14-2.41,6.78-.12,0-.24,0-.38.01-.28.05-.49.32-.63.67-.39-.6-.88-1.56-2.02-1.19-.59.19-.81.66-.85,1.15-.95.6-7.37,4.58-7.37,4.58v9.93c9.54,5.65,20.05,9.05,31.39,9.29.37.37,1.38,1.14,1.38,1.14,0,0,1.01-.77,1.38-1.14,11.34-.24,21.85-3.64,31.39-9.29v-9.93s-6.97-4.32-7.47-4.64c-.06-.47-.28-.9-.85-1.09-1.14-.37-1.63.6-2.02,1.19-.14-.35-.35-.62-.63-.67-.14-.02-.27-.02-.37-.01-.87-1.64-2.17-5.26-2.42-6.78.46.11.91.18,1.25.18-1.91-7.54-2.72-12.99-2.88-17.04.43.8,1.19,1.67,2.24,2.44.03,1.87.12,3.49.24,4.17.17,1,1.05,2.31,2.51,3.41.02,3.26,1.68,4.95,3.36,5.92.4,2.85,2.21,4.26,3.85,5.07.56,2.73,2.28,3.85,3.73,4.49v2.46c0,4.32,2.86,5.9,4.86,6.71.51.2.94-.19.81-.56-.49-1.46-.45-3.15-.45-3.62v-15.55c.37.14.7.23.96.33-1.03-1.57-.96-4.09-.96-4.69v-7.72ZM652.03,118.4c-.14.05-.27.11-.41.16-.04-.1-.07-.19-.11-.29.09-.17.18-.35.27-.52.19.06.37.13.56.19.04.09.08.19.12.29-.14.05-.28.11-.42.17M651.38,116.75c-.26.52-.53,1.04-.81,1.55.07.19.14.39.21.58-.28.1-.57.21-.85.31-.51-1.43-1.01-2.85-1.52-4.28-.08-.22-.07-.47.21-.65-.51-.2-1.01-.4-1.51-.61.66,1.95,1.33,3.89,1.99,5.84.08.24.17.49.25.73.22-.07.43-.15.64-.22l.2-.07c.71-.25,1.42-.52,2.13-.8.42-.17.84-.34,1.26-.51-.18-.43-.36-.86-.54-1.28-.56-.19-1.11-.38-1.66-.58M657.73,116.69c.27-.14.54-.27.81-.41-.82-1.57-1.64-3.14-2.45-4.71-.11-.21-.14-.46.13-.68-.54-.12-1.07-.25-1.6-.39.93,1.84,1.85,3.67,2.77,5.51.12.23.24.46.35.69M643.2,69.74s.02.02.01.04c0,.01-.01.02-.03.03l-.82.18-.18.71s-.02.02-.03.03h0s-.03,0-.03-.02l-.41-.66-.82-.02s-.03-.01-.03-.02c0-.02,0-.03,0-.04l.52-.6-.2-.76s0-.03.01-.04c.01,0,.03-.01.04,0l.74.33.64-.42s.02,0,.02,0,.02,0,.02,0h0s.02.02.01.04l-.14.72.66.52ZM635.01,78.39l-.36-1.4s-.02-.02-.03-.03c-.01,0-.03,0-.03.02,0,0-.71,1.03-.93,1.32-.36-.01-1.62-.1-1.62-.1-.02,0-.03,0-.03.02,0,0,0,.02,0,.04l.87,1.16c-1.56.6-3.26.93-5.03.93s-3.58-.35-5.19-.99l.82-1.1s.01-.03,0-.04c-.01-.01-.02-.02-.04-.02,0,0-1.26.1-1.62.1-.22-.28-.93-1.32-.93-1.32,0-.01-.02-.02-.03-.02-.02,0-.03.01-.03.03l-.34,1.29c-2.87-1.75-5.07-4.49-6.13-7.74l1.31-.03s.03-.01.03-.02c0-.01,0-.03,0-.04,0,0-.82-.93-1.06-1.2.09-.36.44-1.54.44-1.55,0-.01,0-.03,0-.03-.01-.01-.02-.01-.04,0l-1.22.54c-.09-.66-.15-1.33-.15-2.02,0-2.88.87-5.56,2.35-7.8l.8.95s.01.01.03.01c0,0,0,0,0,0,.01,0,.02-.02.03-.03,0,0,.21-1.23.28-1.57.34-.15,1.51-.6,1.52-.61.02,0,.02-.02.03-.03,0-.01,0-.03-.02-.03l-1.15-.6c2.3-2.45,5.46-4.08,9-4.41l-.26,1.32s0,.03.02.03c0,0,.01,0,.02,0,0,0,.01,0,.02,0,0,0,1.09-.63,1.41-.78.31.16,1.41.78,1.41.78.01,0,.03,0,.04,0,.01,0,.02-.02.02-.04l-.26-1.33c3.58.28,6.8,1.89,9.14,4.35l-1.29.67s-.02.02-.02.03c0,.02,0,.03.02.03,0,0,1.18.46,1.51.61.07.34.28,1.57.28,1.57,0,.02.02.03.03.03,0,0,0,0,0,0,.02,0,.02,0,.03-.01l.92-1.09c1.54,2.27,2.44,5,2.44,7.93,0,.72-.06,1.42-.16,2.11l-1.41-.63s-.03,0-.04,0c-.01.01-.02.03-.01.04,0,0,.35,1.19.44,1.55-.24.28-1.06,1.2-1.06,1.2-.01.01-.01.03,0,.04,0,.01.02.02.03.02l1.52.04c-1.08,3.32-3.35,6.1-6.31,7.85M635.39,79.26s0,.02-.01.02l-.64.35v.83s0,.03-.01.03h-.02s-.02,0-.02,0l-.65-.52-.4.17-.27.11h0s0,0,0,0c-.01,0-.02,0-.03,0,0,0,0-.01,0-.02,0,0,0-.01,0-.02l.11-.3.15-.41-.2-.27h0l-.28-.38s0-.01,0-.02c0,0,0-.02,0-.02,0,0,.01,0,.02-.01,0,0,0-.01.01-.01l.78.02.48-.63s.02-.01.03-.01c.01,0,.02.01.03.02,0,0,0,0,0,0l.12.46.08.33.54.18.18.06s.02.02.03.03c0,0,0,.02-.01.02M622.41,78.82s0,.01,0,.02l-.28.37-.21.28.11.3.15.41s0,.03,0,.04c0,0,0,0,0,0,0,0-.02,0-.03,0l-.18-.08-.36-.15s.01,0,.02,0l-.15-.06-.25.2-.41.32s-.02,0-.02,0h-.02s-.02-.02-.02-.03v-.83s-.64-.35-.64-.35c-.02,0-.02-.02-.02-.04h0s.01-.02.02-.03l.36-.12.36-.12.11-.43.09-.36s.02-.02.03-.02c.02,0,.03,0,.04.01h0l.24.32.24.31.77-.02s.03,0,.03.02c0,0,0,.01,0,.02M613.37,70.7s-.02.02-.03.02h0s-.03-.02-.03-.03l-.18-.71-.82-.18s-.02-.01-.03-.03c0-.01,0-.03.01-.04l.66-.52h0s-.03-.16-.03-.16h0s-.11-.56-.11-.56c0,0,0-.02,0-.03,0,0,0,0,0-.01.01,0,.03,0,.04,0l.64.42.4-.17.34-.15s.03,0,.04,0c.01,0,.02.02.01.03l-.21.77.52.6s.01.02,0,.04c0,.01-.02.02-.03.02l-.82.02-.41.66ZM615.2,57.58l.44-.58-.37-.75s0-.03,0-.04c.01-.01.02-.02.03-.01l.83.19.47-.56s.03-.02.04-.01c.01,0,.02.02.02.03l.06.77.73.38s.02.02.02.03c0,.02,0,.03-.02.03l-.71.32-.16.78s-.01.03-.03.03h0s-.02,0-.03-.01l-.2-.23-.33-.39-.73.09h-.03s-.03,0-.04-.02c0-.01,0-.03,0-.04M626.6,51.02s.01-.02.03-.02l.73-.03.36-.76s.02-.02.03-.02c.02,0,.03,0,.03.02l.36.76h.06s0,0,0,0l.5.02h0c.06,0,.12,0,.18,0,.01,0,.02.01.02.02h0s0,.03,0,.04l-.55.53.16.8s0,.03-.02.03c0,0-.02,0-.02,0,0,0-.01,0-.02,0l-.71-.36-.7.36s-.03,0-.04,0c0,0-.02-.02-.01-.03l.07-.37.09-.43-.55-.53s-.01-.03,0-.04c0,0,0,0,0,0M638.45,56.78l.32-.16.06-.77s0-.03.02-.03c0,0,.02,0,.02,0,0,0,.02,0,.02.01l.48.56.06-.02.76-.17s.03,0,.04.02c0,0,0,.02,0,.04l-.37.75.43.59s.02.03,0,.04c0,.01-.02.02-.03.02l-.76-.09-.53.62s-.02.02-.03.02c0,0,0,0-.01,0-.01,0-.02-.01-.02-.03l-.16-.78-.71-.32s-.02-.02-.02-.03,0-.03.02-.03l.41-.22ZM643.34,67.41s0-.03-.02-.03c-.02-.01-.03-.01-.04,0,0,0-.13.09-.3.21.04-.47.07-.94.07-1.42,0-2.9-.82-5.6-2.23-7.91.28.05.5.09.5.09.02,0,.03,0,.04-.02,0-.01,0-.03,0-.04,0,0-.71-1.05-.92-1.34.16-.33.65-1.41.65-1.41,0-.01,0-.03,0-.04,0-.01-.02-.02-.03-.02l-1.5.34c-.24-.28-1.08-1.22-1.08-1.22-.01-.01-.02-.02-.04-.01-.01,0-.02.02-.02.03l-.05.57c-2.32-2.23-5.36-3.73-8.73-4.13.26-.23.48-.43.48-.43.01,0,.01-.02.01-.04,0-.02-.02-.02-.03-.02,0,0-1.28-.09-1.63-.11-.15-.32-.69-1.38-.69-1.38v-.02s-.03,0-.04,0c0,0-.02,0-.02.02,0,0-.53,1.06-.69,1.38-.35.02-1.63.1-1.63.1-.02,0-.03.01-.03.02,0,.01,0,.03.01.04,0,0,.24.21.5.45-3.38.44-6.42,2-8.73,4.29l-.06-.76s0-.02-.03-.03c-.01,0-.03,0-.04.01,0,0-.84.94-1.08,1.22l-1.5-.34s-.03,0-.03.01c0,.01-.01.03,0,.04,0,0,.49,1.09.65,1.41-.21.29-.92,1.34-.92,1.34-.01.01-.01.03,0,.04,0,.01.02.02.04.01,0,0,.35-.06.73-.13-1.42,2.31-2.25,5.04-2.25,7.95,0,.53.03,1.06.08,1.58-.28-.2-.52-.37-.52-.37-.01-.01-.03-.01-.04,0-.01,0-.02.02-.02.03,0,0,.17,1.25.24,1.61l-1.22.97s-.02.02-.01.04c0,.01.01.02.03.03,0,0,1.16.29,1.52.36.09.35.47,1.55.47,1.55,0,.01.02.02.03.03h0s.03,0,.03-.02c0,0,.15-.27.32-.58,1.13,3.08,3.23,5.69,5.92,7.47-.35.1-.65.19-.65.19-.02,0-.03.02-.03.03,0,.02,0,.03.02.03,0,0,1.11.64,1.42.81,0,.21.02,1.55.02,1.55,0,.01,0,.02.02.03,0,0,.01,0,.02,0,0,0,.02,0,.02-.01l1.21-.95,1.52.64s.03,0,.04,0c.01-.01.02-.03,0-.04,0,0-.12-.29-.25-.62,1.57.55,3.24.85,4.99.85,1.66,0,3.25-.27,4.75-.76-.12.3-.22.53-.22.53,0,.01,0,.03.01.04,0,.01.02.01.03,0l1.52-.64,1.21.96s.02,0,.02,0h.01s.02-.02.02-.03c0,0,.02-1.34.02-1.55.31-.17,1.42-.81,1.42-.81.02,0,.02-.02.02-.03,0-.02-.01-.03-.03-.03,0,0-.23-.06-.51-.15,2.66-1.74,4.74-4.29,5.9-7.29.11.2.2.36.2.36,0,.01.02.02.03.02h0s.03-.01.03-.03c0,0,.38-1.2.47-1.55.36-.08,1.52-.37,1.52-.37.01,0,.03-.01.03-.03,0-.01,0-.03-.02-.03l-1.21-.97c.06-.36.24-1.61.24-1.61M655.65,116.51c.04.09.09.19.13.28-.14.07-.28.13-.42.19-.13.06-.27.13-.41.19-.04-.09-.08-.19-.13-.28.08-.18.16-.35.24-.53.19.05.38.11.57.16M654.86,114.83c-.08.18-.16.36-.24.54-.19-.06-.37-.11-.55-.17-.55-1.22-1.1-2.43-1.65-3.65-.23.56-.47,1.11-.71,1.66.34-.05.59.09.68.3.32.73.64,1.46.96,2.19.02.05.04.09.06.14.29.09.59.19.89.28-.13.28-.26.57-.4.85.19.42.37.85.56,1.27.42-.18.83-.36,1.24-.55.41-.19.83-.39,1.23-.59-.2-.42-.4-.83-.61-1.25-.3-.08-.61-.16-.91-.25.12-.29.25-.57.37-.86-.37-.77-.75-1.53-1.12-2.29-.1-.2-.05-.49.22-.71-.58-.17-1.15-.35-1.72-.54.57,1.21,1.14,2.42,1.7,3.63M636.47,117.28c-.45-.3-.9-.61-1.33-.92.27,2.3.55,4.59.82,6.89.3-.03.59-.07.89-.11-.24-1.76-.47-3.51-.71-5.27-.03-.23.02-.47.33-.59M645.29,115.92c-.07-.22-.05-.47.24-.64-.49-.23-.99-.46-1.47-.7.56,1.98,1.11,3.95,1.67,5.93.07.25.14.5.21.75.29-.08.57-.16.86-.25-.5-1.7-1-3.4-1.51-5.1M631.22,122.11c-.19-.3-.37-.6-.55-.9.09,0,.17,0,.26-.01,0-.22.09-.35.23-.47.15.11.25.23.28.45.08,0,.17-.01.26-.02-.15.32-.31.63-.47.95M633.25,117.64c.33.05.43.27.45.5.14,1.51.28,3.01.42,4.52-.78.07-1.55.13-2.33.17.42-.85.82-1.7,1.21-2.55-.34.03-.67.05-1.01.07-.14-.26-.56-.55-.88-.56-.3.05-.7.37-.81.64-.34.01-.68.02-1.01.03.46.82.95,1.62,1.45,2.43-.76.03-1.52.05-2.28.05,0-.77,0-1.54-.01-2.32-.42.39-.85.77-1.29,1.15.26,0,.43.16.43.4,0,.64-.01,1.28-.02,1.92,0,.43-.41.77-.91.76-.4,0-.73-.24-.84-.54.12.52.65.92,1.3.93.75.01,1.35-.51,1.34-1.15,0-.13,0-.25,0-.38.95,0,1.89-.03,2.83-.08.97-.05,1.93-.12,2.89-.2.04,0,.08,0,.12-.01.26-.02.51-.05.77-.08-.25-2.3-.49-4.6-.73-6.9-.36.4-.72.8-1.1,1.19M643.11,119.13c.35,0,.49.19.54.41.12.48.24.95.36,1.43-1.28.32-2.57.61-3.86.85-.17.03-.35.06-.52.09-.27-.16-.53-.32-.8-.49.61-.62.98-1.71.75-2.63-.15,1.28-.73,2.18-2.15,2.7.65.42,1.31.84,1.98,1.24.3-.05.59-.11.88-.16,1.6-.3,3.2-.67,4.78-1.09-.33-1.24-.66-2.48-.99-3.72-.32.46-.64.91-.97,1.36M647.53,117.56c-.29.5-.59,1-.89,1.49.24-.08.46.02.53.25.19.61.38,1.23.57,1.84.13.4-.17.86-.65,1-.38.11-.76,0-.96-.26.27.46.9.68,1.53.49.73-.22,1.15-.9.95-1.51-.36-1.1-.72-2.2-1.07-3.3M617.41,32.65c-.29,0-.52.19-.52.42,0,.21.19.38.43.41-.02-.03-.03-.07-.03-.11,0-.17.21-.32.48-.32.05,0,.11,0,.15.02h0c0-.24-.23-.43-.52-.43"/>
  </g>
</svg>