<?xml version="1.0" encoding="UTF-8"?>
<svg id="Layer_1" data-name="Layer 1" xmlns="http://www.w3.org/2000/svg" viewBox="0 0 471.2 368.45">
  <defs>
    <style>
      .cls-1 {
        fill: #ad833b;
      }
    </style>
  </defs>
  <path class="cls-1" d="M136.27,329.4c-1.2,1.9-1.76,3.1-1.76,3.45l2.61,21.78c1.9-2.89,2.89-6.34,2.89-10.5l-1.41-18.19c-.49.63-1.27,1.83-2.33,3.46ZM117.32,279.66c0,.28.49,1.34.56,1.69-1.34.92-2.82,1.83-4.37,2.68-2.33,1.34-3.6,2.54-3.95,3.52-1.41,4.3-2.12,6.34-2.12,6.06v.78l8.53,1.69c.78-.07,1.48-.78,2.11-2.12.63-1.34,1.27-2.19,1.83-2.4.49,1.9.78,3.38.99,4.3.14.49.49.92,1.13,1.41.21.21.49.35.71.35h53.85c.49-.42.99-1.27,1.48-2.47.42-1.06.99-1.69,1.76-1.97l10.71,3.88c1.9-2.96,2.89-4.58,3.1-4.93.35-.63.49-1.13.49-1.48,0-.63-.07-1.2-.21-1.69-1.13-3.81-2.04-6.7-2.68-8.6-.07-.14-.21-.28-.42-.49-1.06-.07-3.24.63-6.42,2.11-1.34.63-2.68,1.76-3.88,3.38-1.06,1.48-1.83,2.89-2.33,4.3l-.92,2.33h-52.02c-1.27,0-1.97-.28-2.11-.92-1.34-7.26-2.33-12.76-2.82-16.42-2.04,3.45-3.03,5.15-3.03,5ZM184.85,285.86c.63-.21,1.13-.35,1.55-.35.78,0,1.41.56,1.83,1.62.07.21.35,1.13.71,2.61l-6.34-2.54c0-.21.78-.78,2.26-1.34ZM118.73,283.54c.63,2.75.99,4.51.99,5.29v1.06h-3.17c-.49,0-1.97-.35-4.3-1.06l2.89-1.34c1.27-.78,2.12-1.76,2.54-2.96.14-.49.49-.78,1.06-.99ZM125.13,349.7c-2.04-1.2-3.24-2.04-3.52-2.54-.49-.92-.78-2.4-.85-4.37-.07-3.03-.14-4.72-.21-5.08.63-.49,1.34-1.34,1.97-2.54.78-1.48,1.27-2.33,1.55-2.68-2.4-1.13-4.3-2.47-5.78-4.02-.35-.92-.49-1.69-.56-2.26h-.49c-.35.21-1.06,1.27-2.11,3.1-.99,1.76-1.48,2.82-1.48,3.03,0,.14.28.42.85.92.63.42.92.71.92.78,1.06,4.37,1.76,7.68,2.11,9.94.35,1.62.49,2.82.49,3.52,0,.49-.14.99-.35,1.48h-6.49c-.78,0-2.33-1.06-2.54-2.19-.07-.07-.07-.35-.07-.71l.56-6.56-1.97,1.9c-.85.78-1.41,1.55-1.62,2.26-.21.42-.28,1.27-.28,2.54.07,1.27-.07,2.19-.42,2.75h-21.64c.63-2.33,1.13-3.88,1.41-4.51-5.85-.35-11.56-1.97-17.13-5-.63-.21-1.13-.42-1.48-.49-.49-.07-1.2-.14-2.11-.14h-1.41c-1.34.21-2.89,1.34-4.51,3.52-.63.78-1.2,1.97-1.76,3.53l1.9-1.06c.85-.42,1.76-.63,2.75-.63.49,0,1.55.28,3.03.78,3.17,1.06,4.93,1.69,5.29,1.83-1.27.78-2.82,1.41-4.58,1.9-.78.21-1.2.28-1.41.28h-20.73c-1.27,0-2.04-.49-2.33-1.48l-3.45-13.82-2.89,5.64c.35,1.34.78,2.61,1.13,3.88.78,2.54,1.13,4.16,1.13,4.93,0,.21-.07.42-.28.71h-11.91c-.85,0-1.34-.71-.99-4.58-.14-.21-.28-.28-.35-.35-.78.99-1.27,2.26-1.55,3.74-.49,2.4-.78,4.3-.78,5.71.21.85.56,1.27.99,1.27h12.83c.35-.35.78-1.13,1.27-2.26.42-.92.85-1.48,1.34-1.55l1.55,3.81h24.04c.42,0,1.06-.21,1.9-.56,2.68-1.48,4.72-2.54,6.06-3.31.63-.35,1.13-.49,1.41-.49h7.54l.56,4.37h23.9l1.97-3.38c.35.99.71,1.62.99,1.9.85.99,1.69,1.48,2.54,1.48h11.84c.78,0,1.69.42,2.75,1.27l2.26,1.97c.35-.49.78-1.34,1.27-2.68.49-1.27.78-2.19.78-2.82,0-.78-.92-1.62-2.82-2.68ZM159.61,329.47c2.33,1.48,3.74,2.19,4.09,2.19.14,0,.56-.42,1.34-1.27,1.13-1.2,1.76-1.83,1.83-1.97l-4.3-2.47c-1.76,1.48-2.61,2.26-2.54,2.26-.49,0-1.69-.78-3.67-2.26l-2.89,3.38c2.19,1.48,3.45,2.19,3.88,2.19.21,0,.99-.7,2.26-2.04ZM99.82,334.33c-.14,0,.71-.78,2.47-2.26,2.47,1.48,3.88,2.26,4.37,2.26-.21,0,0-.14.56-.35,1.34-1.48,2.26-2.54,2.75-3.31l-4.58-2.47-1.69,1.41c-.63.63-1.06.92-1.2.92-.28,0-.78-.21-2.47-1.34-.85-.56-1.34-.85-1.41-.85-.14,0-.63.49-1.55,1.41-.92.92-1.48,1.62-1.76,2.11,1.34,1.06,2.54,1.76,3.52,2.12.56.21.92.35.99.35ZM2.47,331.73c1.2.63,1.97.99,2.4.99.35,0,1.06-.7,2.26-2.12l4.3,2.26c.85-.35,1.9-1.48,3.24-3.45-2.61-1.55-4.02-2.33-4.37-2.33-.14,0-.63.35-1.41,1.06-.78.71-1.2,1.06-1.27,1.06-.21,0-1.55-.7-3.88-2.12-1.06.92-2.11,2.04-3.17,3.31.14.21.78.63,1.9,1.34ZM8.53,336.24c-1.9,2.19-3.6,4.65-5.22,7.26-2.19,3.53-3.31,6.2-3.31,8.11,0,2.04,1.97,3.03,5.99,3.03,1.76,0,4.02-.78,6.7-2.33.49-.21.85-.71,1.13-1.41l.49-1.41c.78-2.89,1.2-4.44,1.2-4.72,0-1.62-.63-3.1-1.9-4.3l-5.08-4.23ZM12.55,348.43c-2.26.35-4.09.56-5.43.56-1.9,0-2.89-.71-2.89-2.04,0-.49.42-1.34,1.27-2.54.56-.78,1.13-1.55,1.76-2.33,2.61,1.9,4.37,3.81,5.29,5.85v.49ZM193.09,351.18c0,.49.42,1.2,1.2,2.11.78.92,1.55,1.34,2.18,1.34h22.91c.63-4.51.99-7.33.99-8.39,0-2.75-1.27-5.64-3.74-8.67l-2.89,4.72c1.76,2.54,2.89,4.79,3.53,6.7,0-.07-4.44-.07-13.39,0h-4.23c-2.33-.42-3.45-1.41-3.45-2.96,0-.42.07-1.2.28-2.33.21-1.13.28-2.04.28-2.68,0-.56-.07-1.06-.14-1.48-2.04,2.04-3.17,3.31-3.52,3.88-.21,1.06-.21,1.9-.14,2.47-.21,1.83-.42,2.89-.56,3.1h-19.53c-1.27,0-1.97-.28-2.11-.92-1.34-7.26-2.33-12.76-2.82-16.43-2.04,3.45-3.03,5.15-3.03,5,0,.28.49,1.34.56,1.69-1.34.92-2.82,1.83-4.37,2.68-2.33,1.34-3.6,2.54-3.95,3.52-1.41,4.3-2.11,6.34-2.11,6.06v.78l8.53,1.69c.78-.07,1.48-.78,2.11-2.12.63-1.34,1.27-2.19,1.83-2.4.49,1.9.78,3.38.99,4.3.14.49.49.92,1.13,1.41.21.21.49.35.71.35h20.8l1.97-3.45ZM167.29,346.88h-3.17c-.49,0-1.97-.35-4.3-1.06l2.89-1.34c1.27-.78,2.12-1.76,2.54-2.96.14-.49.49-.78,1.06-.99.63,2.75.99,4.51.99,5.29v1.06ZM112.03,272.47c2.33,1.48,3.74,2.19,4.09,2.19.14,0,.56-.42,1.34-1.27,1.13-1.2,1.76-1.83,1.83-1.97l-4.3-2.47c-1.76,1.48-2.61,2.26-2.54,2.26-.49,0-1.69-.78-3.67-2.26l-2.89,3.38c2.19,1.48,3.45,2.19,3.88,2.19.21,0,.99-.71,2.26-2.04ZM422.91,337.37c-.07-.14-.21-.28-.42-.49-1.06-.07-3.24.63-6.42,2.11-1.34.63-2.68,1.76-3.88,3.38-1.06,1.48-1.83,2.89-2.33,4.3l-.92,2.33h-17.2c-.49,0-1.69-.63-2.04-.71-.35-.07-.56-.28-.63-.49-.49-3.53-1.2-9.87-2.04-19.03l-.49-5c-1.34,1.34-2.4,2.54-3.24,3.59-.49.63-.78.99-.78,1.2l2.47,26.08h23.26c.49-.42.99-1.27,1.48-2.47.42-1.06.99-1.69,1.76-1.97l10.72,3.88c1.9-2.96,2.89-4.58,3.1-4.93.35-.63.49-1.13.49-1.48,0-.63-.07-1.2-.21-1.69-1.13-3.81-2.04-6.7-2.68-8.6ZM414.24,344.2c0-.21.78-.78,2.26-1.34.63-.21,1.13-.35,1.55-.35.78,0,1.41.56,1.83,1.62.07.21.35,1.13.7,2.61l-6.34-2.54ZM435.46,363.24c-.49-.07-.71-.35-.71-.71,0-.07.07-.21.14-.28.78-.78,1.48-1.13,2.26-1.13,1.13,0,1.69.99,1.69.99.63-.78.99-1.34.99-1.62,0,.07-.07-.14-.21-.49-.14-.21-.35-.42-.56-.56-.78-.14-1.06-.21-.85-.21-.99,0-1.9.42-2.82,1.27-1.48,1.34-2.11,2.75-2.04,4.23,1.27.49,2.26.85,3.03.92-1.48,1.2-2.19,1.97-2.19,2.33v.49c2.75-1.97,5.08-2.89,6.84-2.82.49-.92.85-1.55,1.06-2.04-.78.07-1.69.14-2.75.14-1.41,0-2.68-.14-3.88-.49ZM357.07,325.95c-.49.63-1.27,1.83-2.33,3.46-1.2,1.9-1.76,3.1-1.76,3.45l2.61,21.78c1.9-2.89,2.89-6.34,2.89-10.5l-1.41-18.19ZM372.65,338.99l-1.97,5.71c.49.28,1.41,1.13,2.89,2.47,1.76,1.62,2.61,2.82,2.61,3.53,0,1.76-1.69,4.09-5.08,6.84-3.17,2.61-5.5,3.88-6.98,3.88-.7,0-1.9-.28-3.67-.85-1.76-.56-2.68-.85-2.82-.85-.21,0-.42.07-.56.21v.63c.42.49,2.19,1.41,5.36,2.61,3.17,1.27,5.29,1.9,6.49,1.9,2.89,0,5.36-2.05,7.4-6.2,1.69-3.45,2.54-6.49,2.54-9.16,0-1.97-.49-3.95-1.55-5.85-1.2-2.11-2.75-3.74-4.65-4.86ZM469.79,325.95c-.49.63-1.27,1.83-2.33,3.46-1.2,1.9-1.76,3.1-1.76,3.45l2.61,21.78c1.9-2.89,2.89-6.34,2.89-10.5l-1.41-18.19ZM456.33,327.21c-1.13-.85-1.76-1.41-1.9-1.62-.35-.92-.49-1.55-.49-2.04l-4.23,6.56c.92,1.13,1.41,2.4,1.41,3.81,0,2.68-.49,4.86-1.48,6.49-1.13-2.04-2.89-4.37-5.36-6.98-2.47-2.61-4.65-4.51-6.7-5.71.07.78,0,1.27-.14,1.55h-4.23c-.49,1.9-.71,3.1-.71,3.45,0,1.48.35,2.47.99,2.82l6.7,3.88.85-1.69c.92.56,2.12,1.55,3.53,3.03,1.41,1.48,2.26,2.61,2.61,3.38-3.38,3.03-5.64,4.58-6.77,4.58-1.48,0-2.26-1.48-2.75-2.11-.49,1.27-.78,2.75-.78,4.51,0,1.97.35,3.17,1.06,3.52h15.02c.28-1.62.42-3.17.42-4.65,0-2.04-.49-3.88-1.48-5.64-.35-.56-.49-.92-.49-.99s.35-.71.99-1.76c.63-1.06,1.06-1.9,1.27-2.4.49-1.48.92-3.24,1.27-5.22.42.35.85.49,1.2.49.21,0,.35,0,.42-.07,2.04-2.96,3.1-4.58,3.1-4.93s-1.13-1.06-3.31-2.26ZM445.05,349.07c.92-.63,1.97-1.69,3.31-3.17.63,1.06,1.13,2.11,1.62,3.17-1.55.21-3.17.21-4.93,0ZM362.28,294.68c.14,0,.28,0,.42-.07l3.6-4.65c-3.38-.71-6.63-1.83-9.73-3.45-3.1-1.62-5.29-2.82-6.56-3.59-1.41-.71-2.89-1.06-4.37-1.06-1.83,0-3.95,1.62-6.41,4.93-.42.63-.63.99-.63,1.2v.49c.63-.14,1.34-.35,2.19-.7.63-.28,1.2-.42,1.83-.42,1.9,0,4.65.99,8.25,2.89-.28.35-1.13.71-2.54,1.13-1.41.42-2.4.63-3.03.63h-42.51c-3.52-2.96-7.97-7.26-13.39-12.9,5.78-1.62,10.08-2.75,12.9-3.52l1.13-5.29-8.11,1.9c-3.24.78-5.78,1.69-7.61,2.75-.92.56-1.48,1.69-1.76,3.38-.35,2.19-.56,3.53-.78,3.88l10.01,9.3c0,.35-.07.49-.21.49h-76.83c-.35-3.45-1.27-6.63-2.89-9.45-.49-.92-1.27-1.55-2.33-2.04-.07-.07-.28-.07-.63-.07-.78,0-1.41.21-1.97.71-1.2.92-2.26,2.19-3.17,3.95-.49.92-1.06,2.26-1.69,4.02-.78,1.9-1.13,3.24-1.13,4.16,0,.28,0,.56.07.78.21,1.34,2.26,2.75,3.45,2.96,1.76.35,3.81.63,6.13.78-3.24,3.81-6.63,6.13-10.15,6.98-.92.21-1.76.35-2.4.35-.07,0-.99-.21-2.75-.71-1.69-.42-2.61-.63-2.68-.63-.49,0-.78.07-.85.14v.49c.92.99,2.47,1.9,4.65,2.68,2.47.99,4.37,1.62,5.64,1.97.49.07.92.14,1.41.14.78,0,1.41-.07,1.9-.28,1.27-.56,2.33-1.2,3.1-1.97,1.27-1.06,2.4-2.54,3.45-4.44.49-.92,1.27-2.54,2.19-4.86h76.69c1.34-1.97,2.4-3.31,3.03-4.09,1.76,1.76,3.03,3.1,3.95,4.09h42.86c.49,0,1.83-.63,4.09-1.83,2.26-1.2,4.02-1.83,5.36-1.83l8.81.71ZM213.05,291.08c-.21.14-.71.21-1.48.21-.63,0-.99,0-1.06-.07-1.2-.21-1.97-.71-2.4-1.34-.35-.49-.49-.85-.49-1.2,0-.28.28-.7.78-1.27.71-.71,1.34-1.06,1.83-1.06.85,0,1.76.99,2.54,2.33.21.35.42,1.06.78,1.97l-.49.42ZM300.39,329.4c-1.2,1.9-1.76,3.1-1.76,3.45l2.61,21.78c1.9-2.89,2.89-6.34,2.89-10.5l-1.41-18.19c-.49.63-1.27,1.83-2.33,3.46ZM191.05,362.18c-1.62-.78-2.89-1.62-3.74-2.47-1.41,1.48-2.4,2.75-3.03,3.67.21.21.92.71,2.12,1.41,1.2.78,1.83,1.13,2.04,1.13-.21,0,.56-.71,2.4-2.19l3.95,2.33c1.41-1.48,2.47-2.82,3.17-3.88l-4.3-2.47c-.49.35-1.34,1.2-2.61,2.47ZM214.38,362.18c-1.2-1.06-1.9-1.62-2.04-1.62-.35,0-.99.49-1.9,1.48-.92,1.06-1.41,1.69-1.48,2.04,2.33,1.83,3.66,2.75,4.09,2.75.21,0,.78-.35,1.76-1.06.99-.7,1.48-1.27,1.48-1.69,0-.21-.63-.85-1.9-1.9ZM284.38,327.07c-.35-.49-.49-1.27-.49-2.26-1.34,1.83-2.61,4.09-3.95,6.77,1.34,1.06,2.05,1.62,2.05,1.62.92,4.16,1.55,7.26,1.9,9.38.42,2.33.63,3.88.63,4.72,0,.42-.07.99-.21,1.69h-16.29v-.49l1.2-1.97c.49-.92.78-1.55.78-2.04,0-1.34-.78-2.54-2.26-3.74-1.48-1.2-3.03-1.76-4.65-1.76-.85,0-1.9.21-3.1.56l-2.61.85-2.89,5.5c.63-.07,1.2-.14,1.69-.14,2.11,0,3.74,1.06,4.93,3.24h-16.43c-2.68-1.06-5.5-3.45-8.39-7.19l-3.03,5c2.33,2.61,3.52,4.44,3.52,5.43,0,1.41-1.62,3.45-4.79,6.06-3.17,2.61-5.71,3.95-7.61,3.95-.78,0-1.83-.28-3.17-.85-1.41-.56-2.18-.85-2.26-.85-.21,0-.42.07-.49.21v.49c.63.71,2.33,1.69,5.08,2.89,2.82,1.27,4.86,1.9,6.13,1.9,2.33,0,4.65-1.76,6.98-5.29,1.9-2.75,2.96-5.15,3.31-7.12.56.63,1.06.99,1.48.99h19.81l1.9-3.24,1.83,3.24h20.94c.28,0,.78-.28.99-.28l1.34-7.05-1.2-9.73c0-.28.07-.49.14-.63l2.75-3.52c.63-.78,1.06-1.34,1.27-1.83-1.34-.78-2.61-1.55-3.88-2.4-1.76-1.13-2.75-1.83-2.96-2.12ZM343.81,337.93l-2.89,5.08c1.62,2.61,2.4,4.23,2.4,4.93,0,.21-.14.49-.42.85h-18.68c-.63,0-1.48-.28-2.61-.92-1.06-.63-1.76-1.2-1.97-1.69-.21-.49-.35-1.27-.35-2.19,0-.14.07-.92.21-2.33.21-1.48.28-2.47.28-2.96l-.28-.21c-.71.35-1.41,1.83-2.19,4.37-.63,2.33-.99,4.23-.99,5.71,0,.78,0,1.27.07,1.41.14.92.78,1.9,1.9,2.89,1.2.92,2.19,1.41,3.03,1.48.21,0,.49.21.78.21h21.71c2.04-4.02,3.03-7.4,3.03-10.15,0-.99-.35-2.12-.99-3.45-.63-1.34-1.34-2.4-2.04-3.03ZM331.48,332.85l4.02,2.12c1.06-.92,2.11-2.04,3.03-3.38l-4.16-2.12-1.55,1.2c-.63.49-.99.78-1.06.78-.14,0-.71-.35-1.76-.99-1.06-.63-1.62-.99-1.76-.99-.35,0-1.41,1.06-3.17,3.17,1.48.92,2.96,1.62,4.37,2.18.63-.92,1.34-1.55,2.04-1.97Z"/>
  <path class="cls-1" d="M222.82,209.46c-.32-.03-.65-.06-.98-.1-.32-.03-.65-.06-.97-.1.04-.3.08-.59.12-.89.05-.42.42-.75.9-.79.07,0,.1,0,.15-.02.36-.03.7-.12,1-.24-.07.71-.14,1.43-.21,2.15M233.63,211.79c.05-2.49.11-4.99.17-7.49-.95.77-1.91,1.54-2.89,2.29.75.2.92.72.9,1.23-.03.74-.05,1.48-.08,2.22-.65-.02-1.3-.05-1.95-.08.1-1.93.19-3.86.29-5.8-.97.75-1.95,1.49-2.95,2.21.75.22.92.75.89,1.26-.05.74-.09,1.48-.14,2.21-1.04-.06-2.07-.14-3.11-.23.38-4.52.76-9.02,1.14-13.55-.94.72-1.9,1.43-2.87,2.13.69.24.82.76.76,1.27-.16,1.62-.32,3.25-.48,4.88-.08.75-.64,1.12-1.09,1.29-.3.14-.56.18-.58.24-1.32.09-2.45,1-2.61,2.24l-.32,2.57c.77.09,1.54.19,2.32.27.21.02.42.05.63.07,1.09.12,2.19.21,3.28.3,2.89.24,5.79.39,8.68.45M213.89,210.01c.64.1,1.28.2,1.93.29.56-3.87,1.13-7.72,1.69-11.59.07-.51.34-.99,1.07-1.05-.77-.91-1.53-1.83-2.28-2.76-.8,5.04-1.61,10.06-2.41,15.1M206.53,206.89c-.32-.07-.64-.14-.96-.21-.32-.07-.63-.14-.95-.21.05-.22.1-.44.15-.67.38-.2.75-.4,1.12-.61.26.34.52.69.78,1.03-.05.22-.1.45-.15.67M211.51,196.49c.69.3.76.84.67,1.34-.61,3.28-1.23,6.56-1.84,9.83-.64-.12-1.28-.24-1.91-.37.09-.45.18-.89.27-1.33-.78-1.03-1.53-2.05-2.27-3.09-1.11.62-2.23,1.24-3.37,1.83-.11.44-.22.88-.33,1.32-.64-.16-1.28-.32-1.91-.48.48-1.87.97-3.73,1.45-5.6-1.11.53-2.23,1.05-3.36,1.56.69.36.73.91.6,1.41-.19.71-.39,1.43-.59,2.14-.28-.08-.56-.15-.83-.23,0,0,0-.01,0-.02-.53-.15-1.05-.3-1.58-.45-.02-.67.09-1.35.22-2.02.43-2.09,1.01-4.46-1.62-7.27-.76.36-1.52.71-2.29,1.05,1.85.55,2.59,2.28,2.89,3.64.27,1.65-.64,2.9-.16,4.3-.91-.27-1.82-.55-2.73-.83,0,0,0-.01,0-.01.07-.22.14-.43.21-.65.45-1.41-.49-3-2.09-3.56-.11-.04-.23-.08-.35-.12-3.55-1.24-7.06-2.63-10.52-4.16.23-.52.46-1.05.69-1.56.2-.46.69-.6,1.19-.38-.53-1.16-1.04-2.32-1.53-3.48-.95,2.05-1.89,4.11-2.84,6.17,4.2,1.92,8.47,3.64,12.79,5.14.61.21.96.81.79,1.34-.08.22-.15.43-.22.65-.2.59-.4,1.17-.6,1.77-.39.17-.79.33-1.19.49-.22-.39-.44-.78-.66-1.17.2-.57.41-1.15.6-1.73-.46-.16-.92-.32-1.37-.49-.16-.06-.32-.11-.48-.17-3.5-1.29-6.96-2.72-10.37-4.29-.24.51-.48,1.03-.72,1.55,3.45,1.59,6.95,3.03,10.49,4.33-.1.27-.19.53-.29.79.65,1.15,1.32,2.29,2.01,3.43,1.23-.46,2.44-.95,3.64-1.43.09-.28.18-.56.27-.85,1.36.44,2.73.86,4.1,1.26.26.4.59.73,1.02,1.02-.19-.29-.35-.57-.47-.86,1.14.33,2.29.64,3.44.94,1.6.41,3.21.8,4.82,1.16,1.61.36,3.22.69,4.83.99.07,0,.14.03.21.04.57.11,1.14.21,1.71.31h.02c.87-5.03,1.73-10.04,2.6-15.06-1,.64-2.02,1.25-3.05,1.86M230.49,213.4c-.56-.02-1,.34-1.03.8-.02.48.39.86.95.89.56.02,1.01-.33,1.03-.81.01-.46-.4-.86-.95-.88M224.38,6.91c.75,0,1.35.57,1.35,1.29-.4-.4-1.98-.74-2.7,0,0-.72.6-1.29,1.35-1.29M227.77,8.57c-.57,4.27-6.05,4.27-6.24,1.11.98,3.43,6.3,1.63,4.73-2.18,2.09-.79,3.65-.86,5.34-1.13-4.38-.68-9.52-1.22-12.71.24-1.56.71-1.12,1.66-.89,2.06.26-.84,1.65-.88,2.64-.55-.75,6.43,7.48,5.67,7.13.45M173.24,195.27c-.3-.15-.6-.3-.9-.45-.3-.16-.59-.31-.89-.48.13-.25.26-.51.39-.77.19-.37.68-.53,1.16-.39.06,0,.1.03.15.03.36.09.72.13,1.05.13-.32.64-.64,1.28-.95,1.93M177.38,184.82c.58.48.51,1.02.29,1.48-.73,1.47-1.45,2.93-2.18,4.39-.33.67-.99.8-1.5.81-.34.02-.61-.04-.64,0-1.3-.39-2.68.06-3.27,1.16-.4.76-.82,1.51-1.21,2.29.89.47,1.79.93,2.69,1.39.9.46,1.81.9,2.73,1.33,2.19-4.6,4.38-9.19,6.58-13.8-1.15.34-2.32.65-3.5.95M226.54,213.18c-.55-.03-1.03.31-1.06.77-.04.48.39.87.95.92.54.04,1.02-.3,1.05-.78.02-.46-.4-.87-.94-.91M224.17,212.99c-.56-.05-1.04.29-1.08.75-.04.48.38.89.94.93.54.05,1.02-.29,1.06-.76.03-.46-.38-.88-.92-.93M201.8,198.73c.48.13.99-.12,1.11-.58.11-.44-.19-.92-.67-1.05-.49-.13-1,.13-1.12.57-.13.46.18.93.68,1.06M199.65,198.14c.48.14.99-.1,1.12-.56.12-.45-.18-.93-.66-1.06-.5-.14-1,.12-1.13.56-.14.46.17.93.67,1.07M221.1,199.36c.51.06.94-.28.99-.75.05-.46-.29-.88-.78-.94-.48-.06-.93.28-.98.73-.06.48.3.9.78.96M267.53,200.86c.49-.11.82-.58.71-1.03-.11-.47-.61-.75-1.09-.63-.5.11-.81.57-.71,1.04.1.45.57.74,1.09.62M176.05,183.36c.46.24.97.09,1.19-.33.21-.41.04-.93-.41-1.17-.43-.22-.97-.07-1.19.33-.22.42-.03.94.41,1.17M221.35,197.32c.5.06.92-.27.97-.74.05-.46-.28-.88-.77-.94-.47-.06-.92.28-.97.73-.06.47.29.89.77.95M265.34,201.34c.49-.11.83-.57.73-1.02-.1-.47-.59-.76-1.08-.65-.5.1-.84.57-.74,1.04.09.46.58.75,1.1.64M175.1,185.18c.47.24,1,.08,1.21-.35.21-.41.03-.93-.42-1.17-.44-.23-.98-.08-1.2.32-.23.42-.03.96.41,1.19M226.39,94.89c-.18-3.19-.3-6.81-.3-10.75,0-3.57.1-6.8.26-9.65,9.04-.81,21.98-1.05,33.93,2.06.86,2.56,1.33,5.3,1.33,8.15s-.48,5.57-1.33,8.12c-11.93,3.11-24.84,2.88-33.89,2.07M236.05,110.26c-2.85,0-5.65-.47-8.32-1.39-.21-1.37-.84-5.88-1.25-12.45,8.91.77,21.41.98,33.16-1.89-3.86,9.23-12.98,15.73-23.59,15.73M210.48,84.7c0-10.32,6.26-19.63,15.69-23.58-.49,3.05-1.59,11.19-1.59,23.02s1.08,20.88,1.53,24.12c-9.4-3.97-15.63-13.28-15.63-23.55M227.81,60.5c2.65-.9,5.41-1.36,8.24-1.36,10.6,0,19.72,6.49,23.58,15.71-11.77-2.86-24.31-2.65-33.2-1.87.43-6.79,1.14-11.15,1.38-12.47M236.05,57.63c-3.15,0-6.22.53-9.15,1.59-10.72,3.85-17.92,14.09-17.92,25.48s7.16,21.56,17.82,25.45c2.96,1.08,6.08,1.62,9.25,1.62,14.93,0,27.07-12.15,27.07-27.07s-12.14-27.07-27.07-27.07M299.17,200.99c-.26.12-.54.05-.64-.17-.1-.22.02-.47.28-.59.1-.04.2-.08.29-.06-.92-.29-1.76.71-1.05,1.33-.25.15-.43.16-.57.02-.17.33-.33.67-.49,1,1.23-.54,2.45-1.11,3.66-1.68-.39-.12-.79-.25-1.18-.38.07.19-.07.42-.31.53M312.55,85.62v-3.02c0-1.52,0-3,0-3.71.02-2.85-.46-6.62-3.15-8.46.81,3.18.26,3.74.26,9.11v6.69c0,1.97.27,3.68.75,5.17-3.13-1.51-6.48-4.81-6.48-10.62,0-1.95-.48-9.98-2.89-13.33v13.93c0,1.83.23,3.44.65,4.87-7.35-3.72-6.62-16.4-9.01-21.32,0,4.26.1,7.25.1,11.5,0,2.1.31,3.9.84,5.46-6.43-4.1-7.17-12.15-7.68-18.17-.62,2.23-1.64,8.09.11,13.63-4.31-3.3-6.72-10.33-6.42-15.36-.63,2.76-1.3,6.9.05,11.07-.24,4.73-.19,42.04-.19,46.11-2.45-2.03-4.97-5.7-4.69-11.26.09-.91.19-1.78.31-2.6,1.72-11.65,2.08-28.43-2.74-41.85,3.88,20.97-.96,42.53-1.64,46.86-1.21,7.75,1.42,23.8,6.89,41.61-1.06-1.05-4.71-2.57-6.16-4.04,0,1.61.58,3.34.58,6.86-1.87-3.15-2.59-3.27-4.58-6.76.63,4.1.45,4.46.45,8-1.94-3.66-2.99-8.54-7.44-15.5-9.92-15.5-24.23-5.89-24.23-3.19,0-2.7-14.3-12.31-24.22,3.19-4.47,6.96-5.5,11.83-7.45,15.5,0-3.54-.18-3.9.45-8-2,3.49-2.71,3.62-4.58,6.76,0-3.52.59-5.25.59-6.86-1.47,1.46-5.11,2.98-6.17,4.04,5.47-17.81,8.1-33.86,6.89-41.61-.68-4.34-5.53-25.9-1.63-46.86-4.82,13.42-4.46,30.2-2.74,41.85.12.82.22,1.7.31,2.61.27,5.59-2.26,9.25-4.72,11.28,0-4.07.06-41.36-.18-46.14,1.36-4.17.69-8.31.05-11.07.3,5.03-2.1,12.07-6.42,15.36,1.75-5.53.73-11.4.1-13.63-.51,6.01-1.24,14.06-7.67,18.17.52-1.56.84-3.36.84-5.46,0-4.25.1-7.24.1-11.5-2.4,4.92-1.67,17.6-9.01,21.32.41-1.42.65-3.03.65-4.87v-13.93c-2.42,3.34-2.89,11.38-2.89,13.33,0,5.81-3.35,9.11-6.48,10.62.48-1.49.75-3.2.75-5.16v-6.69c0-5.36-.56-5.92.26-9.11-2.7,1.84-3.17,5.62-3.15,8.46,0,.71,0,2.19,0,3.71h0v3.02c0,6.07-3.65,9.41-6.89,10.82.56-.73,1.16-2.7,1.16-5.63v-29.26c0-8.22,9.6-17.67,13.16-21.84,9.84-11.53,14.12-2.16,24.03,1.2,16.47,5.58,25.26-.65,25.26-.65,8.8-5.53,8.83-10.76,8.83-14.02,0-2.21-.85-5.08-2.46-6.92-3.01-3-8.35-3.97-9.3-3.79-2.01,1.03-3.79,1.04-4.15,1.32-.92-1.84-.69-4.64,3.45-6.95,1.16-.64.73-2.11,4.28-4.19,10.35-6.04,20.47-3.85,26.38,2.75-2.09-.76-4.1-1.46-7.62-1.79,4.95,1.71,10.8,5.81,14.59,12.61,1.55,2.7,5.05,10.16,6.28,12.41,2.64,4.81,7.41,14.88,24.23,9.21,9.91-3.35,14.19-12.73,24.03-1.2,3.55,4.17,13.15,13.62,13.15,21.84v29.26c0,2.93.6,4.91,1.16,5.63-3.24-1.41-6.89-4.75-6.89-10.82M312.56,108.46v-8.36c0-1.38-.05-2.59-.14-3.68.48.18.94.35,1.35.5,1.39,1.39,2.98,2.39,4.51,3.15v13.54c0,2.94.6,4.92,1.16,5.64-3.23-1.42-6.87-4.74-6.88-10.79M312.69,136.84c0-.98-.13-9.11-.13-10.69,0-1.75-.08-4.74-.23-6.98.52.2,1,.38,1.44.55,1.39,1.37,2.98,2.38,4.51,3.14v17.29c0,2.93.6,4.92,1.16,5.63-2.88-1.25-6.76-4.72-6.76-8.94M312.69,180.7v-6.48h0c0-4.08-.12-7.63-.12-8.84v-9.64c0-.82-.02-5.03-.05-10.45.19.08.37.15.55.21,1.55,1.78,3.43,3,5.23,3.9v34.59c0,2.94.6,4.92,1.16,5.64-2.88-1.25-6.76-4.87-6.76-8.93M303.94,103.58v-8.46c0-1.49-.05-2.75-.13-3.81.33.12.66.25.96.36,1.51,1.61,3.28,2.74,4.96,3.57.03,1.77-.06,3.63-.06,5.49v8.29c0,1.97.27,3.68.75,5.17-3.13-1.5-6.48-4.81-6.48-10.62M303.94,129.65v-8.46c0-1.51-.05-4.67-.14-7.07.34.13.67.25.96.38,1.51,1.6,3.28,2.73,4.96,3.56.07,2.82-.05,6.7-.05,8.76v8.01c0,.2,0,.39.01.58,0,0-.01,0-.01,0v.19c0,1.77.22,3.33.6,4.72-2.83-1.29-6.33-4.94-6.33-10.65M303.94,159.23v-8.46c0-1.47-.05-6.88-.13-11.01,1.69,2.24,3.9,3.54,5.91,4.44-.03,6.24-.05,11.25-.05,12.19v8.01c0,2.94,0,4.63.55,5.35-2.41-1.05-6.28-4.47-6.28-10.53M295.68,98.62v-7.66c0-1.58.02-2.64-.02-3.52.78.3,1.62.57,2.5.8.94.73,1.91,1.33,2.88,1.84,0,.28,0,.56,0,.83v13.28c0,1.81.22,3.41.63,4.82-2.98-1.61-6-4.86-6-10.39M295.68,121.9v-7.66c0-2.92-.08-2.91-.09-4.34.82.35,1.57.64,2.25.89,1.03.84,2.13,1.53,3.2,2.09,0,1.73,0,3.67,0,4.09v13.28c0,.6.02,1.16.06,1.71-2.78-1.7-5.43-4.89-5.43-10.05M301.05,146.55v13.12c-2.77-1.72-5.37-4.9-5.37-10.01v-7.67c0-2.23-.05-7.26-.08-10.26,1.55,2.05,3.53,3.42,5.43,4.41.02,3.57.01,9.86.01,10.41M288.46,94.81v-7.7c0-1.98-.04-3.43-.14-4.53.29.15.58.3.88.45.97,1.1,2.14,2.11,3.57,2.99.02.64.02,1.28.02,1.87v11.34c0,2.1.31,3.91.84,5.47-2.68-1.74-5.17-4.89-5.17-9.9M288.46,115.42v-7.7c0-.86-.01-1.63-.03-2.3.36.2.74.4,1.13.58.98.99,2.07,1.79,3.16,2.45.08.92.07,1.87.07,2.73v11.34c0,.81.05,1.57.14,2.3-2.4-1.82-4.47-4.84-4.47-9.39M292.79,138.93v9.51c-2.34-1.83-4.33-4.82-4.33-9.29v-7.71c0-1.43-.02-4.11-.07-6.2,1.24,1.63,2.76,2.85,4.3,3.78.11,3.25.1,8.95.1,9.91M281.08,92.86c0-1.76-.13-10.99-.15-17.02,1,1.73,2.46,3.42,4.52,4.95.23,1.7.12,3.83.12,5.32v9.32c0,1.74.21,3.27.59,4.64-2.82-2.09-5.08-4.65-5.08-7.21M280.98,98.53c.92,1.67,2.48,3.45,4.6,5.06.01,1.11-.02,2.23-.02,3.12v7.68c-2.54-1.98-4.49-4.37-4.49-6.75,0-1.07-.05-4.91-.09-9.1M285.57,130.43v5.5c-2.54-1.99-4.49-4.37-4.49-6.75,0-1.66-.13-9.98-.15-15.97.9,1.68,2.46,3.48,4.58,5.1.15,3.51.05,10.8.05,12.13M278.7,162.41c.34.78.25,2.34.61,3.05.36.72,1.15,1.22,1.38,1.58.29.48.19,1.72.57,2.58.19.4.38.8.58,1.16-.26.28-.47.6-.66.91-.59-1.34-2.07-1.49-3.17-.79-.56.36-1.22.91-1.74,1.78.21-1.52-.07-2-.65-2.59-.87-.87-.52-2.7-1.23-3.8-.54-.85-1.55-1.12-2.2-2.44-.65-1.31-.33-2.01-.98-3.31-.74-1.48-.93-1.95-.96-3.94.85,1.08,1.81,1.99,3.12,3.31.47-3.1.51-3.84.51-6.52,1.32,1.12,2.66,2.79,3.09,3.93.25.68.49,2.65.59,2.97.32,1.02.79,1.34,1.14,2.12M284.46,171.46c1.38.1.62,6.1,1.63,8.2,1.04,2.12.59,3.88-1.37,3.69-2-.19-1.89-6.27-1.9-7.33,0-1.51-.76.8-1.17,1.65-.09-.37-.17-.78-.23-1.21-.15-1.03-.04-1.69.04-2.32.54-1.43,1.6-2.78,3-2.67M286.23,173.91c.55-1.81,2.05-4.31,3.77-3.91,1.35.3.06,4.63.87,6.75,1.59,4.13-.64,5.53-2.56,5.05-2.15-.54-1.2-6.31-1-7.15.05-1.36-.66-.02-1.15.74-.1-.35-.17-.59.07-1.47M292.63,174.76l12.67,8.66v18.23c-20.14,11.41-42.72,18.03-65.97,18.52h-.38s-1.77,1.46-2.62,2.17h0s0,0,0,0c-.86-.71-2.62-2.18-2.62-2.18h-.38c-23.26-.48-45.83-7.11-65.95-18.51l-.02-18.23,12.67-8.66c.31.18.63.35.94.53.05,1.82-1.23,2.75-.94,4.61.23,1.55,1.19,2.66,2.32,3.17.3.68.86,1.24,1.62,1.55.77.29.68-.38.67-1.36.17-.05.33-.1.5-.19.21.74.69,1.28,1.31,1.59.28.56.78,1.07,1.78,1.73.99.46.32-.61.14-1.58.37-.09.74-.25,1.1-.49.13.3.31.57.58.75.09.07.19.14.28.2.25,1.01.96,1.6,2.03,2.2.72.23.45-.58.37-1.35,1,.01,1.88-.54,2.28-2.17.19-.78.18-1.26.13-1.68,12.02,5.11,25.01,8.58,37.72,8.98.45.34,3.5,2.64,3.5,2.64,0,0,3.05-2.29,3.5-2.64,12.64-.39,25.55-3.82,37.51-8.89-.03.4-.03.87.15,1.59.39,1.63,1.27,2.19,2.27,2.17-.07.77-.34,1.59.38,1.35,1.08-.61,1.78-1.19,2.03-2.21.09-.06.19-.12.28-.19.27-.19.45-.45.58-.75.37.24.73.4,1.1.49-.19.96-.86,2.04.14,1.58.99-.67,1.51-1.17,1.78-1.73.62-.31,1.1-.86,1.31-1.59.16.09.33.14.5.19-.01.98-.11,1.65.66,1.36.75-.31,1.32-.86,1.62-1.55,1.13-.51,2.08-1.62,2.32-3.17.29-1.83-.94-2.76-.94-4.51.37-.2.74-.41,1.11-.63M181.59,176.74c.81-2.12-.48-6.45.86-6.75,1.72-.39,3.23,2.11,3.78,3.92.17.51.14,1.29.07,1.46-.49-.76-1.2-2.1-1.15-.74.19.84,1.15,6.61-1.01,7.15-1.91.48-4.14-.92-2.55-5.05M187.99,171.46c1.4-.1,2.46,1.25,3,2.67.08.64.19,1.29.04,2.32-.06.43-.14.83-.24,1.21-.4-.85-1.17-3.15-1.17-1.65,0,1.06.1,7.15-1.91,7.33-1.96.19-2.4-1.57-1.37-3.69,1.02-2.1.26-8.09,1.64-8.2M194.96,176.06c-1.65,2.97-.19,8.55-2.07,8.67-5.4.35-1.4-6.43-1.19-8.11.25-2.16.02-5.31,2.12-4.66,1.89.57,4.29,6.7,5.46,8.53,0,.02.03.04.06.06-.43-.17-.86-.35-1.28-.53.12.04.22.08.27.09-1.93-.76-3.04-5.42-3.37-4.05M278.62,171.95c2.11-.66,1.89,2.5,2.13,4.66.19,1.69,4.21,8.47-1.19,8.11-1.88-.12-.42-5.69-2.07-8.67-.29-1.23-1.2,2.59-2.78,3.91-.51.22-1.04.42-1.56.64,1.24-2.1,3.65-8.1,5.48-8.66M249.17,172.75c1.35,7.86-6.4,8.3-7.56,2.24-.14-.77-.35-3.1-.6-6.19-.58-10.56-1.45-27.29-1.5-30.45,1.31-.83,2.87-1.46,4.46-1.89.86,5.95,4.84,34.18,5.2,36.29M249.95,136.05c.84.16,1.53.44,2.03.86.76.52,1.59,1.25,2.48,2.12,1.39,5.28,7.04,26.41,7.55,28.53.62,2.55,1.28,4.87,2.35,5.94-3.42.65-5.83,0-6.63-3.1-1.03-4.86-6.38-29.01-7.78-34.35M255.71,170.53c.45,2.59,2.52,6.29.15,6.86-3.68.9-4-1.15-4.6-4.3-.02-.09-5.18-33.88-5.91-36.92,1.18-.22,2.33-.3,3.37-.25.76,3.72,6.63,32.51,6.99,34.61M233.51,173.74c0-4.1.63-30.22.76-34.43,1.04.91,1.76,1.98,1.96,3.17.21-1.19.93-2.26,1.98-3.17.11,4.21.74,30.33.74,34.43,0,4.46-1.17,6.07-2.72,6.98-1.54-.92-2.71-2.53-2.71-6.98M208.42,167.29c-1,3.56-3.43,7.26-4,7.83,2.09.79,5.91,1.41,8.6.34-.39,1.4-.37,2.68.83,3.88,1.47,1.47,5.61,2.53,7.62-.93,1.62,5.75,7.82,5.48,10.26,1.46,1.05,3.34,3.24,3.76,4.49,5.01,1.26-1.25,3.45-1.68,4.5-5.01,2.43,4.02,8.64,4.29,10.26-1.46,2.01,3.45,6.15,2.39,7.62.93,1.19-1.2,1.21-2.48.83-3.88,2.69,1.06,6.5.45,8.59-.34-.57-.57-3-4.27-4.01-7.83-1.23-4.32-5.72-19.91-7.75-26.31,5.48,6.3,11.75,16.97,12.15,22.58.18-.79.54-1.77.87-2.82,1.26,2.63,4.3,8.01,4.82,9.27.53,1.33.68,2.2.29,3.96-.28,1.28-1.44,5.15-3.92,7.63,0,0,0,.01.01.02-9.94,3.7-20.41,6-31.14,6.29-.88.72-3.04,2.34-3.04,2.34,0,0-2.16-1.62-3.03-2.34-10.7-.29-21.13-2.58-31.04-6.25,0,0,.01-.02.02-.03-2.48-2.48-3.96-6.38-4.24-7.66-.38-1.76-.23-2.63.3-3.96.51-1.26,3.55-6.65,4.81-9.27.34,1.05.7,2.02.87,2.82.41-5.61,6.68-16.28,12.16-22.58-2.02,6.39-6.52,21.99-7.76,26.31M214.72,170.4c-.8,3.11-3.21,3.75-6.63,3.1,1.06-1.07,1.73-3.39,2.35-5.94.5-2.12,6.16-23.25,7.55-28.53.88-.88,1.71-1.6,2.47-2.12.5-.41,1.2-.7,2.03-.86-1.42,5.34-6.75,29.48-7.78,34.35M228.48,136.46c1.59.42,3.15,1.06,4.46,1.89-.06,3.17-.92,19.88-1.51,30.43-.24,3.11-.45,5.43-.6,6.2-1.16,6.06-8.89,5.62-7.55-2.24.36-2.11,4.34-30.33,5.2-36.29M221.2,173.08c-.59,3.16-.92,5.21-4.59,4.3-2.38-.57-.3-4.27.14-6.86.38-2.25,6.16-30.36,7-34.61,1.04-.06,2.19.03,3.36.25-.73,3.04-5.9,36.84-5.91,36.92M191.2,169.62c.38-.86.28-2.09.57-2.58.22-.36,1.02-.86,1.38-1.58.36-.72.27-2.27.61-3.05.34-.78.82-1.1,1.14-2.12.1-.33.34-2.29.59-2.97.44-1.14,1.77-2.81,3.1-3.93,0,2.68.03,3.42.5,6.52,1.31-1.33,2.28-2.23,3.13-3.31-.04,1.99-.22,2.46-.96,3.94-.66,1.3-.34,2-.99,3.31-.64,1.32-1.65,1.59-2.19,2.44-.71,1.1-.36,2.93-1.23,3.8-.59.59-.86,1.07-.65,2.59-.52-.87-1.18-1.42-1.74-1.78-1.1-.7-2.57-.54-3.16.79-.19-.3-.41-.63-.67-.9.2-.36.4-.76.58-1.16M191.36,92.86c0,2.56-2.26,5.12-5.07,7.21.37-1.37.58-2.9.58-4.64v-9.32c0-1.49-.12-3.62.11-5.32,2.06-1.53,3.52-3.21,4.53-4.95-.02,6.02-.15,15.26-.15,17.02M186.85,103.58c2.11-1.6,3.67-3.36,4.59-5.03-.04,4.19-.09,8.01-.09,9.08,0,2.38-1.94,4.76-4.47,6.75v-7.68c0-.89-.04-2-.03-3.12M191.35,129.18c0,2.37-1.94,4.76-4.47,6.74v-5.48c0-1.33-.09-8.64.05-12.14,2.12-1.62,3.66-3.43,4.57-5.09-.02,5.99-.14,14.31-.14,15.97M183.99,87.12v7.7c0,5-2.49,8.16-5.18,9.89.53-1.56.85-3.36.85-5.47v-11.34c0-.59,0-1.23.02-1.87,1.43-.88,2.6-1.89,3.57-2.99.3-.15.59-.3.87-.45-.09,1.09-.13,2.55-.13,4.53M179.52,124.81c.09-.73.13-1.49.13-2.3v-11.34c0-.86,0-1.81.07-2.73,1.1-.66,2.19-1.46,3.17-2.45.38-.19.76-.38,1.11-.58,0,.67-.01,1.44-.01,2.3v7.7c0,4.56-2.07,7.57-4.47,9.39M183.99,131.45v7.71c0,4.47-1.99,7.45-4.33,9.29v-9.51c0-.96-.02-6.65.1-9.91,1.54-.93,3.06-2.14,4.3-3.78-.05,2.09-.07,4.77-.07,6.2M176.76,114.24v7.66c0,5.16-2.65,8.36-5.43,10.05.04-.55.06-1.1.06-1.71v-13.28c0-.42,0-2.36,0-4.09,1.07-.55,2.17-1.24,3.2-2.09.67-.25,1.44-.54,2.25-.88,0,1.43-.08,1.42-.08,4.34M176.76,141.99v7.67c0,5.12-2.6,8.3-5.37,10.01v-13.12c0-.55,0-6.84,0-10.4,1.91-1.01,3.89-2.38,5.44-4.42-.02,3-.07,8.03-.07,10.26M170.76,109.01c.41-1.41.64-3.01.64-4.82v-14.11c.97-.5,1.95-1.11,2.88-1.84.9-.23,1.72-.5,2.5-.8-.04.88-.02,1.94-.02,3.52v7.66c0,5.52-3.02,8.78-6.01,10.39M168.5,121.18v8.46c0,5.71-3.51,9.35-6.34,10.64.39-1.38.61-2.94.61-4.71v-.19s0,0,0,0c0-.19,0-.38,0-.58v-8.01c0-2.05-.12-5.93-.06-8.76,1.69-.83,3.46-1.96,4.96-3.56.3-.12.62-.25.96-.38-.09,2.4-.14,5.56-.14,7.07M168.5,150.77v8.46c0,6.06-3.87,9.48-6.29,10.53.55-.72.56-2.42.56-5.35v-8.01c0-.95-.03-5.95-.04-12.19,2-.9,4.2-2.2,5.89-4.44-.08,4.13-.13,9.54-.13,11.01M162.71,95.25c1.69-.84,3.47-1.96,4.97-3.57.3-.11.62-.24.95-.36-.08,1.06-.13,2.32-.13,3.81v8.46c0,5.81-3.35,9.13-6.48,10.62.48-1.49.75-3.2.75-5.17v-8.29c0-1.86-.1-3.72-.07-5.49M152.99,119.25c.56-.73,1.16-2.71,1.16-5.64v-13.54c1.53-.76,3.12-1.76,4.52-3.15.41-.15.86-.32,1.35-.5-.09,1.09-.14,2.3-.14,3.68v8.33c0,6.07-3.65,9.41-6.89,10.82M159.88,126.15c0,1.58-.14,9.71-.14,10.69,0,4.22-3.87,7.69-6.75,8.94.56-.72,1.16-2.7,1.16-5.63v-17.29c1.53-.76,3.12-1.76,4.52-3.14.44-.16.91-.35,1.43-.55-.14,2.24-.22,5.23-.22,6.98M159.88,155.74v9.64c0,1.21-.11,4.76-.13,8.84,0,0,0,0,0,0v6.48c0,4.06-3.87,7.68-6.75,8.93.56-.72,1.16-2.7,1.16-5.64v-34.59c1.8-.89,3.68-2.11,5.23-3.9.17-.07.36-.13.55-.21-.04,5.42-.05,9.63-.05,10.45M216.63,17.81h0c-.75.21-4.74.89-5.24.39.87-.46,1.47-.72,3.14-1.78,1.22.09,2.39.84,4.29,1.98-1.05-.43-1.16-.79-2.17-.59M321.18,124.11c.82.31,1.54.56,2.11.79-2.28-3.43-2.11-9-2.11-10.31v-13.27c.82.31,1.54.57,2.11.8-2.28-3.44-2.11-9.01-2.11-10.32v-30.9c0-8.55-13.07-29.26-24.12-29.54-7.85-.19-17.06,10.84-28.32,7.99-3.62-.94-6.5-4.82-8.88-9.62-4.2-8.58-8.24-20.05-18.46-26.69-11.32-7.34-24.35.86-25.84,2.16-1.28,1.18-3.32,4.7-4.41,5.26-3.54,1.85-4.12,4.95-4.12,6.12s.26,4.03,2.41,5.65c-.3-1.4-.38-2.18-.05-2.88,1.41.24,4.51.87,6.51.05.98.98,3.34,2.87,4.35,4.81,1.43,2.7,1.44,3.11,1.44,4.17,0,2.74-1.28,6.67-5.19,9.23-4.11,2.93-13.81,4.58-25.95.41-6.58-2.25-9.27-6.81-15.16-6.66-11.06.28-24.13,20.99-24.13,29.54v30.9c0,1.32.18,6.88-2.1,10.32.57-.23,1.29-.48,2.1-.8v13.27c0,1.32.18,6.88-2.1,10.31.57-.23,1.29-.48,2.1-.79v17.02c0,1.32.18,6.87-2.1,10.32.57-.23,1.29-.46,2.1-.77v34.3c0,.98.09,4.36-.82,7.44-.3,1.03.39,2.26,1.47,1.83,4.43-1.76,10.87-5.22,10.87-14.84v-5.42c3.18-1.39,6.99-3.87,8.21-9.88,3.61-1.79,7.6-4.9,8.49-11.18,3.7-2.15,7.36-5.87,7.41-13.06,3.22-2.43,5.12-5.29,5.5-7.5.27-1.49.45-5.05.52-9.17,2.32-1.7,4-3.62,4.96-5.39-.38,8.92-2.16,20.92-6.35,37.53.74,0,1.73-.17,2.74-.4-.56,3.35-3.41,11.33-5.32,14.95-.26-.02-.53-.02-.84.02-.63.11-1.08.71-1.39,1.47-.86-1.31-1.93-3.44-4.45-2.62-1.3.43-1.78,1.45-1.88,2.54-2.09,1.31-16.24,10.09-16.24,10.09v21.88c21.02,12.44,44.17,19.94,69.15,20.46.81.82,3.03,2.51,3.03,2.51,0,0,2.22-1.69,3.04-2.51,24.98-.52,48.13-8.02,69.15-20.46v-21.88s-15.35-9.53-16.45-10.22c-.13-1.03-.63-1.99-1.88-2.4-2.51-.82-3.59,1.31-4.44,2.62-.3-.76-.76-1.36-1.4-1.47-.3-.04-.58-.04-.82-.02-1.91-3.62-4.77-11.6-5.33-14.95,1.02.24,2,.4,2.75.4-4.2-16.61-5.98-28.61-6.35-37.53.95,1.76,2.62,3.67,4.93,5.37.08,4.12.26,7.7.52,9.19.38,2.21,2.3,5.08,5.53,7.51.04,7.18,3.71,10.91,7.4,13.05.88,6.28,4.87,9.39,8.48,11.18,1.23,6.01,5.03,8.49,8.22,9.88v5.42c0,9.51,6.29,13,10.71,14.78,1.13.45,2.07-.41,1.78-1.24-1.09-3.22-.98-6.94-.98-7.98v-34.27c.82.31,1.54.5,2.11.74-2.28-3.45-2.11-9.01-2.11-10.32v-17.02ZM289.52,200.1c-.3.11-.6.24-.91.36-.09-.21-.16-.42-.25-.64.2-.38.4-.76.6-1.14.41.14.82.28,1.23.42.09.21.17.42.26.63-.31.12-.62.25-.93.37M288.09,196.46c-.58,1.14-1.18,2.29-1.79,3.42.16.43.32.85.47,1.28-.62.23-1.24.46-1.87.68-1.12-3.14-2.23-6.28-3.35-9.42-.17-.48-.16-1.04.47-1.44-1.12-.44-2.23-.89-3.33-1.35,1.46,4.29,2.92,8.57,4.38,12.86.18.53.37,1.08.55,1.62.48-.16.95-.32,1.42-.49l.45-.16c1.56-.56,3.13-1.15,4.68-1.76.93-.37,1.85-.75,2.77-1.13-.39-.94-.79-1.89-1.19-2.82-1.23-.41-2.44-.84-3.65-1.27M302.08,196.34c.59-.3,1.19-.6,1.78-.91-1.8-3.46-3.61-6.93-5.41-10.39-.24-.46-.3-1,.28-1.49-1.19-.27-2.36-.56-3.53-.87,2.04,4.05,4.07,8.09,6.1,12.13.26.51.52,1.02.77,1.53M270.06,92.89s.04.05.03.08c0,.02-.03.05-.06.06l-1.8.4-.39,1.56s-.04.05-.07.06h0s-.06-.01-.06-.04l-.89-1.44-1.8-.05s-.06-.02-.07-.05c-.01-.03,0-.06,0-.09l1.14-1.33-.45-1.68s0-.06.02-.08c.03-.02.06-.03.09,0l1.63.72,1.42-.92s.03-.01.05-.01.03,0,.05.01h0s.03.05.03.08l-.31,1.58,1.44,1.15ZM252.03,111.95l-.8-3.08s-.04-.05-.07-.06c-.03,0-.06,0-.07.03,0,0-1.57,2.28-2.04,2.9-.79-.02-3.56-.23-3.56-.23-.03,0-.06.02-.08.05,0,.01,0,.05,0,.08l1.92,2.56c-3.44,1.32-7.18,2.04-11.08,2.04s-7.89-.78-11.43-2.18l1.81-2.42s.02-.06.01-.09c-.02-.02-.05-.05-.08-.04,0,0-2.78.21-3.56.23-.48-.62-2.04-2.9-2.04-2.9-.01-.03-.05-.04-.08-.04-.03,0-.06.03-.07.06l-.74,2.83c-6.33-3.85-11.18-9.88-13.51-17.05l2.89-.08s.06-.02.07-.05c.02-.02,0-.06,0-.08,0,0-1.81-2.04-2.33-2.65.2-.78.96-3.4.96-3.41,0-.03,0-.06-.02-.07-.02-.03-.05-.03-.09-.02l-2.68,1.19c-.21-1.45-.33-2.94-.33-4.46,0-6.34,1.91-12.24,5.18-17.17l1.77,2.1s.03.03.06.03c0,0,0,0,.02,0,.03,0,.05-.03.06-.06,0,0,.47-2.7.62-3.46.75-.33,3.34-1.33,3.34-1.33.03-.01.05-.03.06-.07,0-.03-.02-.06-.05-.08l-2.54-1.32c5.07-5.4,12.03-8.99,19.83-9.71l-.57,2.9s0,.06.03.08c0,0,.02.01.04.01,0,0,.02,0,.04,0,0,0,2.4-1.38,3.1-1.73.69.35,3.11,1.72,3.11,1.72.02,0,.06,0,.08,0,.02-.02.04-.05.03-.08l-.57-2.93c7.9.61,14.98,4.17,20.14,9.58l-2.85,1.48s-.05.05-.04.07c0,.04.02.06.05.07,0,0,2.59,1,3.34,1.33.16.76.62,3.45.62,3.45,0,.03.03.06.06.07,0,0,.01,0,.01,0,.03,0,.05-.01.06-.03l2.02-2.4c3.39,4.99,5.37,11.01,5.37,17.48,0,1.58-.13,3.13-.36,4.65l-3.11-1.38s-.07,0-.09,0c-.03.02-.04.06-.03.08,0,0,.76,2.63.97,3.41-.52.61-2.33,2.65-2.33,2.65-.02.02-.03.06-.01.08.01.03.05.05.08.05l3.34.09c-2.39,7.31-7.38,13.45-13.91,17.29M252.86,113.87s0,.03-.02.03l-1.42.77.02,1.82s-.02.06-.04.08h-.04s-.03,0-.05-.01l-1.43-1.14-.88.37-.6.25h0s0,0,0,0c-.02,0-.05,0-.07-.01,0-.01,0-.03,0-.04,0-.01-.02-.03,0-.04l.24-.66.34-.91-.45-.6h0l-.62-.83s0-.03,0-.04c0-.01-.01-.03,0-.05,0-.01.02-.02.04-.02.01,0,.02-.02.03-.02l1.71.05,1.06-1.39s.05-.03.08-.02c.03,0,.05.02.06.05,0,0,0,0,0,0l.27,1.01.19.72,1.2.39.4.13s.05.04.06.07c0,.02-.02.03-.02.04M224.27,112.9s0,.03,0,.05l-.61.82-.46.61.25.67.33.9s0,.07-.02.09c0,0,0,0-.02,0-.01,0-.04.01-.07,0l-.39-.17-.79-.33s.03,0,.04.01l-.34-.14-.54.43-.89.7s-.03.02-.05.02h-.04s-.04-.05-.04-.08v-1.82s-1.4-.76-1.4-.76c-.03-.01-.05-.05-.05-.08h0s.02-.05.05-.07l.8-.27.8-.26.24-.94.2-.79s.04-.05.06-.05c.03,0,.07,0,.08.02h0l.53.7.53.69,1.71-.04s.06,0,.08.04c0,0,0,.02,0,.04M204.36,95.01s-.03.04-.06.04h-.01s-.06-.04-.07-.06l-.4-1.56-1.8-.4s-.05-.03-.06-.06c0-.03,0-.06.03-.08l1.45-1.15h0s-.06-.34-.06-.34h0s-.25-1.24-.25-1.24c0-.02,0-.04.01-.06,0,0,.01-.02.02-.02.03-.01.06-.01.09,0l1.42.92.88-.38.76-.34s.06,0,.09,0c.03.02.03.05.03.08l-.46,1.69,1.14,1.33s.02.05,0,.09c0,.02-.04.04-.07.05l-1.8.05-.89,1.44ZM208.39,66.12l.96-1.29-.81-1.64s0-.06,0-.09c.02-.02.05-.03.08-.03l1.82.41,1.05-1.24s.06-.03.09-.02c.03,0,.05.03.05.07l.13,1.69,1.6.84s.05.04.05.07c0,.03-.01.06-.05.08l-1.57.7-.35,1.72s-.03.06-.06.06h-.02s-.05,0-.06-.02l-.43-.51-.73-.86-1.61.2h-.07s-.07,0-.09-.03c-.01-.03-.01-.06,0-.09M233.5,51.65s.03-.03.06-.03l1.6-.08.79-1.67s.04-.05.07-.05c.03,0,.07.02.07.05l.8,1.67h.14s0,0,0,0l1.09.05h0c.13,0,.27,0,.39.02.02,0,.04.02.04.05h0s0,.06-.01.09l-1.21,1.16.35,1.77s-.01.06-.04.08c-.01,0-.03.02-.04.02-.01,0-.03,0-.04,0l-1.55-.79-1.54.79s-.06,0-.09,0c-.02-.02-.04-.05-.03-.08l.16-.82.19-.95-1.21-1.16s-.03-.06-.01-.09c0,0,0-.01.01-.02M259.6,64.34l.7-.36.13-1.69s.02-.06.05-.06c.01,0,.03,0,.04,0,.02,0,.03.01.04.02l1.05,1.24.14-.04,1.67-.38s.06,0,.08.03c.02.02.02.05,0,.08l-.81,1.64.95,1.29s.03.06,0,.09c-.02.03-.05.04-.07.04l-1.68-.21-1.16,1.37s-.04.03-.06.03c-.01,0-.02,0-.02,0-.03,0-.05-.03-.05-.06l-.35-1.72-1.57-.7s-.05-.04-.05-.07.01-.06.05-.07l.91-.48ZM270.38,87.76s0-.06-.03-.08c-.03-.02-.06-.02-.09,0,0,0-.28.19-.66.47.09-1.04.15-2.07.15-3.13,0-6.38-1.8-12.34-4.91-17.42.62.11,1.11.19,1.11.19.03,0,.06,0,.09-.03.02-.02.02-.06,0-.09,0,0-1.56-2.32-2.02-2.96.36-.72,1.43-3.11,1.43-3.11.02-.02,0-.06,0-.08-.02-.02-.05-.03-.08-.03l-3.31.76c-.53-.62-2.39-2.69-2.39-2.69-.02-.02-.05-.03-.09-.02-.02.01-.05.04-.05.07l-.1,1.26c-5.12-4.91-11.81-8.21-19.22-9.09.57-.51,1.06-.95,1.06-.95.02-.02.03-.05.02-.09-.01-.03-.04-.05-.08-.05,0,0-2.82-.19-3.6-.23-.34-.71-1.53-3.03-1.53-3.03l-.02-.03s-.04-.02-.07-.01c-.02,0-.04.02-.05.04,0,0-1.18,2.33-1.51,3.04-.78.04-3.6.23-3.6.23-.04,0-.07.02-.08.05,0,.03,0,.07.02.09,0,0,.52.46,1.1.99-7.45.97-14.14,4.4-19.23,9.45l-.13-1.67s-.02-.05-.06-.07c-.02,0-.06,0-.09.02,0,0-1.86,2.07-2.39,2.69l-3.31-.76s-.06,0-.08.03c-.01.03-.02.06,0,.09,0,0,1.08,2.39,1.43,3.11-.46.63-2.02,2.96-2.02,2.96-.02.03-.02.06,0,.09.01.02.05.03.08.03,0,0,.76-.13,1.61-.28-3.14,5.1-4.96,11.09-4.96,17.51,0,1.17.07,2.33.19,3.47-.62-.43-1.15-.81-1.15-.81-.02-.03-.06-.03-.09,0-.03.02-.04.04-.03.08,0,0,.38,2.75.54,3.54l-2.68,2.13s-.03.05-.03.08c0,.03.03.05.06.06,0,0,2.57.64,3.35.8.2.77,1.04,3.42,1.04,3.42,0,.03.03.05.07.06h0s.06-.01.07-.04c0,0,.33-.59.71-1.27,2.49,6.78,7.11,12.53,13.05,16.46-.77.21-1.44.41-1.44.41-.03,0-.06.04-.06.07,0,.03.01.06.04.08,0,0,2.45,1.41,3.13,1.78,0,.46.05,3.42.05,3.42,0,.03.02.05.04.07.02,0,.03,0,.03,0,.02,0,.04,0,.05-.02l2.67-2.1,3.35,1.41s.06,0,.09,0c.02-.02.03-.06.01-.09,0,0-.26-.63-.55-1.36,3.45,1.21,7.14,1.87,10.99,1.87,3.65,0,7.16-.59,10.46-1.68-.26.65-.48,1.17-.48,1.17,0,.03,0,.07.02.09.02.02.05.03.08.01l3.35-1.41,2.67,2.1s.03,0,.05,0h.03s.05-.04.05-.07c0,0,.04-2.96.04-3.42.69-.37,3.14-1.78,3.14-1.78.03-.01.05-.04.04-.08,0-.04-.02-.06-.06-.07,0,0-.5-.14-1.13-.32,5.86-3.83,10.45-9.44,13-16.06.25.45.44.79.44.79.01.03.05.04.07.04h.01s.06-.03.06-.06c0,0,.84-2.65,1.04-3.42.78-.17,3.35-.81,3.35-.81.02,0,.06-.03.06-.06,0-.03,0-.07-.03-.08l-2.67-2.13c.14-.79.53-3.54.53-3.54M297.49,195.94c.1.2.19.41.29.61-.3.15-.61.29-.92.42-.29.14-.59.28-.89.41-.09-.2-.19-.41-.28-.62.19-.39.36-.78.54-1.17.42.12.84.23,1.26.35M295.75,192.23c-.18.4-.35.79-.53,1.19-.41-.13-.82-.25-1.22-.38-1.22-2.68-2.43-5.36-3.64-8.05-.51,1.23-1.03,2.44-1.57,3.66.74-.11,1.29.2,1.49.66.7,1.61,1.4,3.21,2.1,4.83.04.1.09.21.14.32.65.21,1.3.42,1.96.62-.29.62-.58,1.25-.88,1.87.41.94.82,1.88,1.23,2.81.92-.4,1.83-.8,2.74-1.22.91-.42,1.82-.86,2.72-1.29-.44-.92-.89-1.84-1.34-2.76-.67-.18-1.33-.36-2-.55.27-.64.54-1.26.81-1.89-.82-1.69-1.64-3.37-2.46-5.05-.22-.45-.1-1.07.48-1.56-1.27-.38-2.54-.77-3.79-1.18,1.25,2.67,2.5,5.33,3.75,7.99M255.24,197.64c-1-.67-1.98-1.34-2.94-2.02.6,5.07,1.21,10.11,1.81,15.18.66-.08,1.31-.16,1.96-.25-.52-3.87-1.03-7.74-1.55-11.61-.07-.51.04-1.04.72-1.3M274.68,194.64c-.15-.49-.1-1.04.53-1.4-1.09-.5-2.17-1.01-3.24-1.54,1.23,4.36,2.45,8.71,3.68,13.07.16.55.31,1.09.47,1.64.63-.18,1.26-.36,1.89-.55-1.11-3.74-2.21-7.48-3.32-11.23M243.68,208.27c-.41-.66-.82-1.32-1.22-1.99.19,0,.38-.01.57-.02.02-.49.19-.76.5-1.05.34.25.56.5.62.99.19,0,.38-.02.57-.03-.34.7-.68,1.4-1.04,2.1M248.14,198.44c.73.11.95.6.99,1.11.31,3.32.62,6.64.93,9.96-1.72.15-3.42.29-5.13.38.92-1.87,1.81-3.74,2.66-5.62-.74.06-1.48.11-2.23.16-.32-.57-1.23-1.2-1.93-1.24-.67.11-1.54.82-1.78,1.42-.75.02-1.49.05-2.23.06,1.02,1.8,2.09,3.58,3.19,5.34-1.67.07-3.34.1-5.02.11,0-1.7-.01-3.4-.02-5.1-.93.86-1.88,1.7-2.85,2.54.58,0,.95.36.95.87-.01,1.41-.03,2.82-.04,4.24,0,.94-.89,1.7-2,1.68-.88-.02-1.6-.52-1.85-1.19.26,1.14,1.44,2.03,2.87,2.05,1.65.02,2.96-1.13,2.95-2.54,0-.28,0-.56,0-.84,2.09-.01,4.16-.07,6.24-.17,2.13-.1,4.25-.26,6.38-.45.09,0,.18-.01.27-.03.57-.05,1.13-.1,1.69-.17-.54-5.07-1.07-10.13-1.62-15.2-.79.89-1.6,1.76-2.42,2.63M269.86,201.72c.77-.02,1.07.43,1.19.91.27,1.05.53,2.1.79,3.15-2.82.71-5.66,1.34-8.51,1.87-.38.07-.77.14-1.15.21-.59-.35-1.18-.71-1.75-1.07,1.34-1.36,2.17-3.76,1.66-5.79-.32,2.82-1.6,4.81-4.75,5.94,1.43.94,2.88,1.85,4.37,2.74.66-.11,1.3-.23,1.94-.36,3.53-.67,7.05-1.47,10.53-2.4-.73-2.73-1.46-5.47-2.18-8.2-.7,1.01-1.41,2-2.14,2.99M279.61,198.24c-.64,1.1-1.29,2.2-1.96,3.29.54-.17,1.01.05,1.17.54.41,1.35.84,2.7,1.25,4.05.28.89-.37,1.9-1.43,2.21-.84.25-1.67,0-2.12-.57.59,1.01,1.98,1.5,3.37,1.08,1.62-.48,2.53-1.99,2.09-3.33-.79-2.42-1.58-4.85-2.37-7.27M213.25,11.19c-.63,0-1.14.42-1.14.93,0,.46.41.85.95.91-.05-.07-.07-.16-.07-.24,0-.38.47-.7,1.06-.7.12,0,.23.01.33.04h0c0-.53-.51-.95-1.14-.95"/>
</svg>