<?xml version="1.0" encoding="UTF-8"?>
<svg id="Layer_1" data-name="Layer 1" xmlns="http://www.w3.org/2000/svg" viewBox="0 0 226.77 70.87">
  <defs>
    <style>
      .cls-1 {
        fill: #ad833b;
      }
    </style>
  </defs>
  <g>
    <path class="cls-1" d="M69.84,32.56c-.55.66-.86.99-.93.99-.03,0-.25-.1-.64-.3-.39-.2-.61-.33-.67-.37-.21.19-.43.41-.66.66-.16-.04-.39-.14-.69-.29-.32-.17-.52-.31-.62-.42.23-.23.53-.55.93-.99.09.09.29.23.58.42.3.18.49.28.59.28.05,0,.17-.1.36-.29s.34-.33.43-.4l1.3.73ZM72.21,40.83h-1.08c-.35,0-.6-.23-.75-.69-.05-.16-.13-.56-.23-1.2l-.02-.07-.1.02c-.15.09-.33.36-.55.82-.2.4-.4.61-.61.61-.27,0-.71-.09-1.34-.27-.63-.18-1.09-.27-1.39-.27,0-.28.12-.73.37-1.35.25-.62.46-1.03.65-1.21.24-.23.62-.48,1.14-.76.57-.31.96-.55,1.17-.72,0-.07-.03-.17-.08-.29-.06-.12-.08-.21-.08-.28.21-.29.52-.81.91-1.55h.02c.09.35.24,1.29.46,2.83.21,1.48.33,2.25.37,2.32.09.16.18.26.25.29.03.01.17.02.39.02h.49v1.78ZM70.05,38.21c0-.16-.04-.5-.13-1.01-.09-.54-.17-.84-.23-.9-.16.12-.27.26-.34.42-.12.25-.19.4-.22.45-.15.21-.42.4-.82.56-.43.18-.66.29-.71.35.2.08.6.17,1.19.28.44.09.85.1,1.24.05l.02-.19Z"/>
    <path class="cls-1" d="M73.51,40.83h-1.65v-1.78h1.65v1.78Z"/>
    <path class="cls-1" d="M74.63,40.83h-1.65v-1.78h1.65v1.78Z"/>
    <path class="cls-1" d="M75.75,40.83h-1.65v-1.78h1.65v1.78Z"/>
    <path class="cls-1" d="M76.87,40.83h-1.65v-1.78h1.65v1.78Z"/>
    <path class="cls-1" d="M77.98,40.83h-1.65v-1.78h1.65v1.78Z"/>
    <path class="cls-1" d="M79.1,40.83h-1.65v-1.78h1.65v1.78Z"/>
    <path class="cls-1" d="M80.22,40.83h-1.65v-1.78h1.65v1.78Z"/>
    <path class="cls-1" d="M81.34,40.83h-1.65v-1.78h1.65v1.78Z"/>
    <path class="cls-1" d="M82.46,40.83h-1.65v-1.78h1.65v1.78Z"/>
    <path class="cls-1" d="M83.57,40.83h-1.65v-1.78h1.65v1.78Z"/>
    <path class="cls-1" d="M84.69,40.83h-1.65v-1.78h1.65v1.78Z"/>
    <path class="cls-1" d="M85.81,40.83h-1.65v-1.78h1.65v1.78Z"/>
    <path class="cls-1" d="M86.93,40.83h-1.65v-1.78h1.65v1.78Z"/>
    <path class="cls-1" d="M88.05,40.83h-1.65v-1.78h1.65v1.78Z"/>
    <path class="cls-1" d="M89.16,40.83h-1.65v-1.78h1.65v1.78Z"/>
    <path class="cls-1" d="M90.28,40.83h-1.65v-1.78h1.65v1.78Z"/>
    <path class="cls-1" d="M91.4,40.83h-1.65v-1.78h1.65v1.78Z"/>
    <path class="cls-1" d="M92.52,40.83h-1.65v-1.78h1.65v1.78Z"/>
    <path class="cls-1" d="M93.63,40.83h-1.65v-1.78h1.65v1.78Z"/>
    <path class="cls-1" d="M94.75,40.83h-1.65v-1.78h1.65v1.78Z"/>
    <path class="cls-1" d="M95.87,40.83h-1.65v-1.78h1.65v1.78Z"/>
    <path class="cls-1" d="M96.99,40.83h-1.65v-1.78h1.65v1.78Z"/>
    <path class="cls-1" d="M98.11,40.83h-1.65v-1.78h1.65v1.78Z"/>
    <path class="cls-1" d="M99.22,40.83h-1.65v-1.78h1.65v1.78Z"/>
    <path class="cls-1" d="M100.34,40.83h-1.65v-1.78h1.65v1.78Z"/>
    <path class="cls-1" d="M101.46,40.83h-1.65v-1.78h1.65v1.78Z"/>
    <path class="cls-1" d="M102.58,40.83h-1.65v-1.78h1.65v1.78Z"/>
    <path class="cls-1" d="M103.7,40.83h-1.65v-1.78h1.65v1.78Z"/>
    <path class="cls-1" d="M104.82,40.83h-1.65v-1.78h1.65v1.78Z"/>
    <path class="cls-1" d="M105.93,40.83h-1.65v-1.78h1.65v1.78Z"/>
    <path class="cls-1" d="M107.05,40.83h-1.65v-1.78h1.65v1.78Z"/>
    <path class="cls-1" d="M108.17,40.83h-1.65v-1.78h1.65v1.78Z"/>
    <path class="cls-1" d="M109.29,40.83h-1.65v-1.78h1.65v1.78Z"/>
    <path class="cls-1" d="M110.4,40.83h-1.65v-1.78h1.65v1.78Z"/>
    <path class="cls-1" d="M111.52,40.83h-1.65v-1.78h1.65v1.78Z"/>
    <path class="cls-1" d="M112.64,40.83h-1.65v-1.78h1.65v1.78Z"/>
    <path class="cls-1" d="M113.76,40.83h-1.65v-1.78h1.65v1.78Z"/>
    <path class="cls-1" d="M126.56,37.85c0,.09-.23.63-.68,1.61-.42.91-.77,1.37-1.05,1.37h-8.52c-.11,0-.18-.08-.22-.23l-.17-.8c-.18.27-.39.61-.62,1.03h-1.99v-1.78h2.61l-.23-1.24c.02-.06.42-.58,1.19-1.58,0,.1.02.49.07,1.14l.06,1.07c0,.4.19.6.56.6h.27c.39,0,1.12-.35,2.18-1.07.47-.33,1.18-.82,2.13-1.47.88-.59,1.5-.88,1.88-.88.44,0,.97.26,1.59.79.62.53.93,1,.93,1.43ZM121.94,33.53c0,.07-.17.24-.51.52-.34.28-.55.41-.63.41-.06,0-.27-.14-.61-.42-.34-.28-.51-.44-.51-.49,0-.06.17-.25.51-.56.34-.31.54-.46.61-.46.03,0,.23.16.59.48.36.32.54.5.54.52ZM124.92,38.63c0-.25-.22-.52-.67-.81-.43-.27-.78-.41-1.05-.41-.39,0-.81.12-1.27.37l-1.14.71c-.19.1-.52.29-1,.56h4.28c.57,0,.85-.14.85-.42Z"/>
    <path class="cls-1" d="M130.9,40.83h-2.34l-.69-7.7,1.14-1.37c.03.5.15,1.79.35,3.87l.31,3.02c.07.27.28.41.62.41h.62v1.78Z"/>
    <path class="cls-1" d="M132.2,40.83h-1.65v-1.78h1.65v1.78Z"/>
    <path class="cls-1" d="M133.32,40.83h-1.65v-1.78h1.65v1.78Z"/>
    <path class="cls-1" d="M134.44,40.83h-1.65v-1.78h1.65v1.78Z"/>
    <path class="cls-1" d="M135.55,40.83h-1.65v-1.78h1.65v1.78Z"/>
    <path class="cls-1" d="M136.67,40.83h-1.65v-1.78h1.65v1.78Z"/>
    <path class="cls-1" d="M141.69,37.62c.08.37.07.87-.02,1.49-.05.39-.14.96-.28,1.72h-5.13v-1.78h4.56l-.03-.14c-.38-.92-.74-1.58-1.1-1.98.12-.17.42-.67.89-1.49.59.68.97,1.41,1.12,2.17ZM140.97,43.46c-.51.77-.83,1.15-.96,1.15-.04,0-.28-.13-.71-.39-.14-.09-.36-.22-.66-.39,0,.03-.11.15-.33.36-.22.21-.34.34-.36.39-.17-.06-.41-.18-.72-.36-.34-.19-.55-.34-.64-.44.25-.26.58-.64.99-1.13.09.1.29.24.6.44.32.21.53.32.63.32.03,0,.16-.12.38-.37.22-.25.36-.38.41-.41l1.37.83Z"/>
    <path class="cls-1" d="M148.35,40.83h-.21l-.64.02c-.28,0-.52-.13-.73-.41-.09.74-.47,1.56-1.12,2.47-.72,1.01-1.43,1.51-2.11,1.51-.31,0-.96-.21-1.95-.62-1.03-.43-1.54-.75-1.54-.94,0-.08.03-.12.1-.12s.31.09.72.27c.41.18.73.27.97.27.58,0,1.32-.34,2.2-1.01,1.2-.92,1.8-1.64,1.8-2.17,0-.14-.16-.44-.48-.88-.26-.37-.47-.65-.64-.84.24-.41.55-.94.93-1.58.21.31.52.77.94,1.39.42.59.85.88,1.28.88h.48v1.78Z"/>
    <path class="cls-1" d="M153.1,33.94c-.09.13-.31.43-.66.88l-.61.79.02.02c0,.24.11,1.17.34,2.81.04.27,0,.65-.15,1.13-.15.54-.23.89-.23,1.06,0,.02,0,.03,0,.05,0,.1-.19.15-.58.15h-3.28v-1.78h3.1s.07-.16.07-.35c0-.47-.12-1.22-.37-2.23-.25-1.01-.37-1.7-.37-2.06l-.02-.03-.61-.45c.51-1.02.9-1.67,1.14-1.97,0,.4.11.69.33.87.5.32,1.12.7,1.86,1.12Z"/>
    <path class="cls-1" d="M156.62,38.21c0,1.24-.29,2.26-.88,3.07l-.78-6.88c0-.17.4-.87,1.21-2.11.31,1.76.46,3.74.46,5.93Z"/>
    <path class="cls-1" d="M165.75,37.88c0,.23-.03.45-.1.66l-.31.94c-.14.36-.31.64-.52.82-.13.11-.45.25-.95.43s-.84.26-1.01.26c-1.29,0-1.93-.31-1.93-.92,0-.42.15-.92.44-1.51.11-.22.43-.75.95-1.58.46-.75.88-1.33,1.26-1.74.11,0,.67.47,1.67,1.42.34.32.51.73.51,1.22ZM165.46,33.06c-.08.13-.23.33-.46.6-.27.31-.44.47-.51.47.03,0-.42-.24-1.37-.71-.21.2-.44.43-.68.69-.16-.04-.4-.14-.73-.3-.35-.18-.56-.32-.63-.43.25-.24.57-.57.97-1.01.09.09.3.23.61.41s.52.27.61.27c.05,0,.18-.11.4-.33.22-.22.37-.34.44-.36l1.34.71ZM164.88,39.09c0-.27-.27-.7-.8-1.27-.5-.54-.81-.81-.93-.81-.66.88-1,1.4-1,1.54,0,.49.32.73.95.73.25,0,.62-.03,1.12-.09.5-.06.72-.09.66-.09Z"/>
    <path class="cls-1" d="M170.56,39.66c0,1.03-.34,2.12-1.03,3.27-.61,1.02-1.29,1.53-2.03,1.53-.34,0-1.03-.2-2.09-.59-1.1-.41-1.66-.71-1.66-.9,0-.1.05-.15.15-.15.13,0,.43.09.92.26.48.17.86.26,1.14.26.56,0,1.33-.43,2.31-1.27,1-.86,1.5-1.56,1.5-2.1,0-.23-.24-.59-.73-1.07-.35-.35-.68-.63-.98-.86.08-.17.28-.76.61-1.77.41.22.79.58,1.15,1.07.5.69.74,1.46.74,2.32Z"/>
    <path class="cls-1" d="M173.75,38.21c0,1.24-.29,2.26-.88,3.07l-.78-6.88c0-.17.4-.87,1.21-2.11.31,1.76.46,3.74.46,5.93Z"/>
    <path class="cls-1" d="M179.04,39.66c0,1.03-.34,2.12-1.03,3.27-.61,1.02-1.29,1.53-2.03,1.53-.34,0-1.03-.2-2.09-.59-1.1-.41-1.66-.71-1.66-.9,0-.1.05-.15.15-.15.13,0,.43.09.92.26.48.17.86.26,1.14.26.56,0,1.33-.43,2.31-1.27,1-.86,1.5-1.56,1.5-2.1,0-.23-.24-.59-.73-1.07-.35-.35-.68-.63-.98-.86.08-.17.28-.76.61-1.77.41.22.79.58,1.15,1.07.5.69.74,1.46.74,2.32ZM177.47,33.85c0,.1-.12.3-.37.59-.22.25-.4.43-.53.53-.12-.09-.3-.23-.53-.41-.36-.28-.54-.45-.54-.51,0-.08.12-.27.36-.57.24-.3.42-.45.53-.45.08,0,.28.12.6.35.32.23.48.39.48.46Z"/>
    <path class="cls-1" d="M184.86,38.88c0,1.23-.3,2.42-.89,3.58-.69,1.35-1.53,2.03-2.54,2.03-.38,0-1.09-.13-2.12-.39-1.09-.27-1.64-.49-1.64-.64,0-.13.08-.19.23-.19.16,0,.44.05.83.15.39.1.69.15.9.15.3,0,.56-.05.8-.15.76-.34,1.51-.83,2.24-1.47.88-.77,1.36-1.49,1.44-2.14.02-.18-.03-.47-.15-.87-.21.61-.42,1.01-.62,1.22-.28.29-.7.44-1.26.44s-.92-.22-1.08-.65c-.08-.23-.12-.64-.12-1.25,0-.42.25-1.01.76-1.79.55-.85,1.06-1.27,1.53-1.27s.89.44,1.26,1.32c.29.73.44,1.37.44,1.93ZM183.46,38.61v-.09c0-.27-.09-.5-.27-.71-.18-.21-.4-.31-.66-.31-.19,0-.41.09-.67.27s-.38.36-.38.55c0,.13.15.26.44.37.28.11.51.17.71.17.14,0,.42-.08.82-.25Z"/>
  </g>
  <g>
    <path class="cls-1" d="M70.51,20.92c0,.23-.03.45-.1.66l-.31.94c-.14.36-.31.64-.52.82-.13.11-.45.25-.95.43s-.84.26-1.01.26c-1.29,0-1.93-.31-1.93-.92,0-.42.15-.92.44-1.51.11-.22.43-.75.95-1.58.46-.75.88-1.33,1.26-1.74.11,0,.67.47,1.67,1.42.34.32.51.73.51,1.22ZM70.22,16.09c-.08.13-.23.33-.46.6-.27.31-.44.47-.51.47.03,0-.42-.24-1.37-.71-.21.2-.44.43-.68.69-.16-.04-.4-.14-.73-.3-.35-.18-.56-.32-.63-.43.25-.24.57-.57.97-1.01.09.09.3.23.61.41s.52.27.61.27c.05,0,.18-.11.4-.33.22-.22.37-.34.44-.36l1.34.71ZM69.64,22.13c0-.27-.27-.7-.8-1.27-.5-.54-.81-.81-.93-.81-.66.88-1,1.4-1,1.54,0,.49.32.73.95.73.25,0,.62-.03,1.12-.09.5-.06.72-.09.66-.09Z"/>
    <path class="cls-1" d="M78.52,23.87h-1.22c-.1.02-.18-.08-.25-.32-.07-.23-.16-.51-.28-.84l-.05-.09-.1.05c-.12.06-.27.29-.44.69-.15.35-.29.52-.41.49h-3.83c-.25,0-.37-.12-.35-.37.03-.5.15-1.25.35-2.24.16-.52.28-.78.35-.78.05,0,.07.27.08.81s.14.81.42.81h3.71l.02-.1c.04-.24-.06-.78-.3-1.64-.25-.88-.37-1.31-.37-1.27l.85-1.76c.14.49.48,1.82,1.01,4.01.13.51.28.76.44.76h.37v1.78Z"/>
    <path class="cls-1" d="M79.77,23.87h-1.65v-1.78h1.65v1.78Z"/>
    <path class="cls-1" d="M80.89,23.87h-1.65v-1.78h1.65v1.78Z"/>
    <path class="cls-1" d="M82.01,23.87h-1.65v-1.78h1.65v1.78Z"/>
    <path class="cls-1" d="M83.12,23.87h-1.65v-1.78h1.65v1.78Z"/>
    <path class="cls-1" d="M94.25,23.87h-2.36l-.2-1.33c-.26-.03-.97-.05-2.13-.05-.34,0-.91.23-1.71.69-.81.46-1.38.69-1.73.69h-3.51v-1.78h3.85c.35,0,.81-.11,1.39-.32.53-.2.8-.33.8-.41-1.44-.57-2.33-.84-2.68-.81-.33.02-.81.19-1.44.51-.05,0,.03-.18.22-.53.58-1.02,1.19-1.56,1.85-1.63.09-.01.17-.02.26-.02.51,0,1.08.15,1.72.44,1.08.5,1.77.79,2.07.87,1.14.31,2.06.46,2.76.46-.13.42-.3.9-.5,1.44h1.35v1.78Z"/>
    <path class="cls-1" d="M95.49,23.87h-1.65v-1.78h1.65v1.78Z"/>
    <path class="cls-1" d="M96.61,23.87h-1.65v-1.78h1.65v1.78Z"/>
    <path class="cls-1" d="M97.73,23.87h-1.65v-1.78h1.65v1.78Z"/>
    <path class="cls-1" d="M103.28,23.87h-.85c-.69,0-1.12-.39-1.3-1.17l-.66,1.17h-3.15v-1.78h3.61l.03-.05c.1-.21.16-.76.17-1.65l1.05-1.26c0,.69-.05,1.34-.14,1.95-.05.28.05.53.28.73.21.19.46.29.73.29h.23v1.78ZM102.5,16.36c-.55.73-.9,1.1-1.03,1.1.05,0-.43-.25-1.42-.75-.24.21-.48.45-.73.71-.16-.04-.41-.15-.75-.33-.37-.18-.59-.33-.67-.43.25-.25.59-.6,1.03-1.07.09.1.3.24.62.44.32.19.54.29.65.29.05,0,.19-.12.42-.35.23-.23.38-.36.45-.38l1.44.76Z"/>
    <path class="cls-1" d="M108.5,23.14c-.02.54-.22,1.12-.6,1.74-.41-.41-.71-.68-.91-.82h-.02c-.23-.13-.53-.2-.92-.22.5.01.28.02-.64.02h-2.34v-1.78h2.22c.1,0,.16-.14.16-.41,0-.47-.13-1.21-.39-2.22-.26-1.01-.39-1.68-.39-2.02,0-.02-.09-.11-.29-.26-.19-.15-.29-.25-.29-.3,0-.15.17-.52.51-1.1.34-.58.56-.87.67-.87.05,0,.09.12.12.36.03.27.1.44.21.51.51.36,1.07.74,1.69,1.13-.06.07-.24.38-.55.95-.25.45-.43.68-.54.68,0,.2.08,1.12.23,2.77.02.24.38.56,1.07.95.67.39,1,.68.99.88Z"/>
    <path class="cls-1" d="M111.96,21.24c0,1.24-.29,2.26-.88,3.07l-.78-6.88c0-.17.4-.87,1.21-2.11.31,1.76.46,3.74.46,5.93Z"/>
    <path class="cls-1" d="M120.13,15.6c-.55.66-.86.99-.93.99-.03,0-.25-.1-.64-.3-.39-.2-.61-.33-.67-.37-.21.19-.43.41-.66.66-.16-.04-.39-.14-.69-.29-.32-.17-.52-.31-.62-.42.23-.23.53-.55.93-.99.09.09.29.23.58.42.3.18.49.28.59.28.05,0,.17-.1.36-.29s.34-.33.43-.4l1.3.73ZM122.5,23.87h-1.08c-.35,0-.6-.23-.75-.69-.05-.16-.13-.56-.23-1.2l-.02-.07-.1.02c-.15.09-.33.36-.55.82-.2.4-.4.61-.61.61-.27,0-.71-.09-1.34-.27-.63-.18-1.09-.27-1.39-.27,0-.28.12-.73.37-1.35.25-.62.46-1.03.65-1.21.24-.23.62-.48,1.14-.76.57-.31.96-.55,1.17-.72,0-.07-.03-.17-.08-.29-.06-.12-.08-.21-.08-.28.21-.29.52-.81.91-1.55h.02c.09.35.24,1.29.46,2.83.21,1.48.33,2.25.37,2.32.09.16.18.26.25.29.03.01.17.02.39.02h.49v1.78ZM120.34,21.24c0-.16-.04-.5-.13-1.01-.09-.54-.17-.84-.23-.9-.16.12-.27.26-.34.42-.12.25-.19.4-.22.45-.15.21-.42.4-.82.56-.43.18-.66.29-.71.35.2.08.6.17,1.19.28.44.09.85.1,1.24.05l.02-.19Z"/>
    <path class="cls-1" d="M123.8,23.87h-1.65v-1.78h1.65v1.78Z"/>
    <path class="cls-1" d="M124.92,23.87h-1.65v-1.78h1.65v1.78Z"/>
    <path class="cls-1" d="M130.44,23.87h-1.12c-.63,0-1.06-.39-1.3-1.17l-.65,1.17h-2.86v-1.78h3.3l.03-.05c.09-.23.15-.77.17-1.65.64-.84,1-1.26,1.07-1.26s.02.65-.16,1.95c-.04.28.05.52.28.72.21.2.45.29.73.29h.5v1.78ZM129.46,26.29c-.53.75-.84,1.12-.94,1.12-.01,0-.22-.12-.64-.37-.14-.08-.35-.21-.62-.37-.21.21-.44.44-.68.7-.55-.2-.97-.46-1.27-.76.23-.25.53-.61.92-1.08.08.1.26.24.56.44.3.19.5.29.6.29.04,0,.16-.11.37-.34.24-.25.37-.4.41-.42l1.29.81Z"/>
    <path class="cls-1" d="M135.29,20.65c.07.38.05.87-.04,1.49-.04.39-.13.97-.26,1.72h-4.79v-1.78c2.68,0,4.09,0,4.22-.02-.25-.84-.63-1.54-1.15-2.1.21-.35.52-.85.91-1.49.6.69.97,1.41,1.12,2.17ZM134.02,26.82c.02.07-.12.23-.41.49-.29.26-.48.39-.56.39-.06,0-.29-.13-.67-.39-.38-.26-.59-.43-.62-.49-.01-.05.14-.23.46-.55.32-.32.51-.48.57-.48.04,0,.25.16.64.48.38.32.58.5.58.55Z"/>
    <path class="cls-1" d="M141.85,23.87h-.21l-.64.02c-.28,0-.52-.13-.73-.41-.09.74-.47,1.56-1.12,2.47-.72,1.01-1.43,1.51-2.11,1.51-.31,0-.96-.21-1.95-.62-1.03-.43-1.54-.75-1.54-.94,0-.08.03-.12.1-.12s.31.09.72.27c.41.18.73.27.97.27.58,0,1.32-.34,2.2-1.01,1.2-.92,1.8-1.64,1.8-2.17,0-.14-.16-.44-.48-.88-.26-.37-.47-.65-.64-.84.24-.41.55-.94.93-1.58.21.31.52.77.94,1.39.42.59.85.88,1.28.88h.48v1.78Z"/>
    <path class="cls-1" d="M143.08,23.87h-1.65v-1.78h1.65v1.78Z"/>
    <path class="cls-1" d="M144.2,23.87h-1.65v-1.78h1.65v1.78Z"/>
    <path class="cls-1" d="M151.06,23.87h-2.07c-.09-.17-.27-.49-.54-.95l-.09-.14-.07.14c-.17.34-.36.65-.57.95h-3.93v-1.78h4.01l-.08-.15c-.35-.61-.86-.91-1.53-.91-.06,0-.15,0-.26.03-.12.02-.21.03-.26.03.27-.55.55-1.07.85-1.54l.09-.14-.07.07s.2-.11.5-.23c.46-.18.89-.28,1.29-.28.66,0,1.22.23,1.67.69.35.36.53.69.53.99,0,.15-.1.38-.29.68-.21.32-.33.54-.35.66l-.02.12h1.19v1.78Z"/>
    <path class="cls-1" d="M155.82,16.98c-.09.13-.31.43-.66.88l-.61.79.02.02c0,.24.11,1.17.34,2.81.04.27,0,.65-.15,1.13-.15.54-.23.89-.23,1.06,0,.02,0,.03,0,.05,0,.1-.19.15-.58.15h-3.28v-1.78h3.1s.07-.16.07-.35c0-.47-.12-1.22-.37-2.23-.25-1.01-.37-1.7-.37-2.06l-.02-.03-.61-.45c.51-1.02.9-1.67,1.14-1.97,0,.4.11.69.33.87.5.32,1.12.7,1.86,1.12Z"/>
    <path class="cls-1" d="M159.34,21.24c0,1.24-.29,2.26-.88,3.07l-.78-6.88c0-.17.4-.87,1.21-2.11.31,1.76.46,3.74.46,5.93Z"/>
    <path class="cls-1" d="M173.2,20.64c0,.3-.07.79-.2,1.47-.17.5-.42,1.08-.73,1.76h-6.53c-.52,0-.99-.16-1.41-.49-.46-.35-.69-.77-.69-1.28,0-.39.1-.99.31-1.82.24-.96.47-1.45.7-1.45.08,0,.09.2.02.59-.09.54-.14.93-.14,1.17,0,.35.07.61.21.78.4.49.96.73,1.65.73h5.63c.07-.06.1-.15.1-.29,0-.09-.07-.34-.21-.75-.15-.24-.32-.52-.52-.85l.91-1.58c.59.73.88,1.4.88,2ZM170.59,16.64c-.51.66-.82,1-.93,1-.03,0-.26-.11-.66-.34-.41-.23-.62-.34-.63-.34-.2.19-.42.41-.64.66-.15-.04-.37-.14-.69-.3s-.51-.29-.61-.39c.23-.24.54-.56.94-.97.09.1.27.23.56.4.29.17.49.25.59.25.05,0,.17-.1.36-.29.22-.21.35-.33.4-.36l1.3.69Z"/>
    <path class="cls-1" d="M176.31,21.24c0,1.24-.29,2.26-.88,3.07l-.78-6.88c0-.17.4-.87,1.21-2.11.31,1.76.46,3.74.46,5.93Z"/>
    <path class="cls-1" d="M181.6,22.7c0,1.03-.34,2.12-1.03,3.27-.61,1.02-1.29,1.53-2.03,1.53-.34,0-1.03-.2-2.09-.59-1.1-.41-1.66-.71-1.66-.9,0-.1.05-.15.15-.15.13,0,.43.09.92.26.48.17.86.26,1.14.26.56,0,1.33-.43,2.31-1.27,1-.86,1.5-1.56,1.5-2.1,0-.23-.24-.59-.73-1.07-.35-.35-.68-.63-.98-.86.08-.17.28-.76.61-1.77.41.22.79.58,1.15,1.07.5.69.74,1.46.74,2.32Z"/>
    <path class="cls-1" d="M185.96,23.87h-2.34l-.69-7.7,1.14-1.37c.03.5.15,1.79.35,3.87l.31,3.02c.07.27.28.41.62.41h.62v1.78Z"/>
    <path class="cls-1" d="M187.26,23.87h-1.65v-1.78h1.65v1.78Z"/>
    <path class="cls-1" d="M188.38,23.87h-1.65v-1.78h1.65v1.78Z"/>
    <path class="cls-1" d="M189.5,23.87h-1.65v-1.78h1.65v1.78Z"/>
    <path class="cls-1" d="M196.9,21.92s-.16.34-.49.87c-.32.53-.52.83-.58.88l-3.2-1.15c-.16.03-.36.28-.58.74-.21.43-.4.64-.57.61h-2.41v-1.78h2.88l.02-.05c.13-.3.33-.73.61-1.31.4-.75,1-1.31,1.78-1.69.04,0,.24-.08.58-.23.35-.15.62-.23.8-.23s.29.05.32.14c.03.17.1.42.19.75.09.27.23.67.41,1.2.16.47.23.89.23,1.25ZM195.41,21.58c-.12-.31-.22-.57-.3-.77-.18-.39-.32-.59-.41-.6-.25,0-.5.06-.74.18-.13.08-.26.16-.39.23l-.18.13,2.03.83Z"/>
    <path class="cls-1" d="M206.85,15.94c-.09.16-.41.67-.96,1.53-.16,0-.27-.02-.33-.05-.12-.06-.2-.1-.23-.11,0,.6-.13,1.19-.39,1.78-.29.66-.51,1.06-.66,1.21l.28.58c.18.38.29.7.33.99.02.17.03.34.03.51,0,.27-.02.59-.07.96l-.08.55h-4.59c-.27,0-.41-.37-.41-1.1,0-.24.02-.53.06-.86.05-.39.1-.58.15-.58,0,0,.09.11.24.34.15.23.37.34.65.34.18,0,.39-.08.62-.23.23-.18.42-.33.58-.44.43-.29.75-.57.94-.81,0-.11-.33-.51-.98-1.21-.5-.53-.84-.8-1.01-.8-.02,0-.06.09-.12.26-.06.17-.12.26-.2.26-.05-.05-.24-.19-.56-.41-.41-.28-.79-.5-1.15-.64-.41-.16-.61-.52-.61-1.08,0-.4.2-1.03.59-1.9.46.01,1.37.61,2.71,1.81.44.39.88.89,1.32,1.49.17.25.43.63.78,1.13.31-.5.46-1.23.46-2.2,0-.32-.07-.6-.22-.83-.15-.23-.22-.34-.22-.32.01-.05.44-.71,1.27-1.99.03.46.24.81.61,1.06.78.43,1.17.69,1.17.79ZM202.24,26.63c-.06.17-.24.43-.54.77-.05,0-.11,0-.17,0-.61,0-1.43.35-2.44,1.05.14-.42.5-.76,1.07-1.02-.05-.03-.27-.11-.66-.22-.31-.09-.47-.2-.46-.34,0-.41.16-.81.46-1.21.36-.47.81-.71,1.37-.71h.02c.1,0,.21.06.34.17.13.11.19.22.19.32-.09.17-.23.39-.41.68l-.36-.29c-.12-.1-.24-.15-.35-.15-.14,0-.38.14-.71.42.23.27.57.41,1.01.44.42.03.97.06,1.64.09ZM203.89,22.13c-.06-.33-.23-.7-.51-1.1-.3.4-.67.76-1.12,1.07.09.05.35.08.76.09.38,0,.66-.01.87-.05Z"/>
    <path class="cls-1" d="M210.03,21.24c0,1.24-.29,2.26-.88,3.07l-.78-6.88c0-.17.4-.87,1.21-2.11.31,1.76.46,3.74.46,5.93Z"/>
  </g>
  <path class="cls-1" d="M22.59,64.97c-.1,0-.2-.02-.3-.03-.1,0-.2-.02-.3-.03.01-.09.02-.18.04-.27.01-.13.13-.23.28-.24.02,0,.03,0,.05,0,.11-.01.22-.04.31-.07-.02.22-.04.44-.07.66M25.9,65.69c.02-.76.03-1.53.05-2.3-.29.24-.59.47-.89.7.23.06.28.22.28.38,0,.23-.02.45-.02.68-.2,0-.4-.01-.6-.02.03-.59.06-1.18.09-1.78-.3.23-.6.46-.91.68.23.07.28.23.27.39-.01.23-.03.45-.04.68-.32-.02-.64-.04-.95-.07.12-1.39.23-2.76.35-4.16-.29.22-.58.44-.88.65.21.07.25.23.23.39-.05.5-.1,1-.15,1.5-.02.23-.2.34-.34.39-.09.04-.17.06-.18.07-.41.03-.75.31-.8.69l-.1.79c.24.03.47.06.71.08.06,0,.13.01.19.02.34.04.67.07,1.01.09.89.07,1.77.12,2.66.14M19.85,65.14c.2.03.39.06.59.09.17-1.19.35-2.37.52-3.55.02-.16.1-.3.33-.32-.24-.28-.47-.56-.7-.84-.25,1.54-.49,3.08-.74,4.63M17.59,64.18c-.1-.02-.2-.04-.29-.06-.1-.02-.19-.04-.29-.07.02-.07.03-.14.05-.2.12-.06.23-.12.34-.19.08.1.16.21.24.32-.01.07-.03.14-.05.2M19.12,60.99c.21.09.23.26.21.41-.19,1.01-.38,2.01-.57,3.02-.2-.04-.39-.07-.59-.11.03-.14.05-.27.08-.41-.24-.31-.47-.63-.7-.95-.34.19-.68.38-1.03.56-.03.13-.07.27-.1.4-.2-.05-.39-.1-.59-.15.15-.57.3-1.15.44-1.72-.34.16-.68.32-1.03.48.21.11.22.28.18.43-.06.22-.12.44-.18.66-.09-.02-.17-.05-.25-.07,0,0,0,0,0,0-.16-.05-.32-.09-.49-.14,0-.21.03-.42.07-.62.13-.64.31-1.37-.5-2.23-.23.11-.47.22-.7.32.57.17.8.7.89,1.12.08.51-.2.89-.05,1.32-.28-.08-.56-.17-.84-.25,0,0,0,0,0,0,.02-.07.04-.13.07-.2.14-.43-.15-.92-.64-1.09-.03-.01-.07-.02-.11-.04-1.09-.38-2.16-.81-3.23-1.27.07-.16.14-.32.21-.48.06-.14.21-.18.37-.12-.16-.36-.32-.71-.47-1.07-.29.63-.58,1.26-.87,1.89,1.29.59,2.6,1.12,3.92,1.58.19.07.29.25.24.41-.02.07-.05.13-.07.2-.06.18-.12.36-.18.54-.12.05-.24.1-.36.15-.07-.12-.14-.24-.2-.36.06-.18.13-.35.18-.53-.14-.05-.28-.1-.42-.15-.05-.02-.1-.03-.15-.05-1.07-.39-2.13-.83-3.18-1.31-.07.16-.15.32-.22.47,1.06.49,2.13.93,3.22,1.33-.03.08-.06.16-.09.24.2.35.4.7.62,1.05.38-.14.75-.29,1.12-.44.03-.09.05-.17.08-.26.42.14.84.27,1.26.39.08.12.18.22.31.31-.06-.09-.11-.18-.14-.27.35.1.7.2,1.05.29.49.13.98.25,1.48.36.49.11.99.21,1.48.3.02,0,.04,0,.06.01.17.03.35.06.52.1h0c.27-1.54.53-3.08.8-4.62-.31.2-.62.38-.94.57M24.94,66.18c-.17,0-.31.1-.31.24,0,.15.12.27.29.27.17,0,.31-.1.31-.25,0-.14-.12-.26-.29-.27M23.07,2.86c.23,0,.42.17.42.39-.12-.12-.61-.23-.83,0,0-.22.18-.39.41-.39M24.1,3.38c-.17,1.31-1.86,1.31-1.91.34.3,1.05,1.93.5,1.45-.67.64-.24,1.12-.26,1.64-.35-1.34-.21-2.92-.37-3.9.07-.48.22-.34.51-.27.63.08-.26.51-.27.81-.17-.23,1.97,2.29,1.74,2.19.14M7.39,60.62c-.09-.05-.18-.09-.28-.14-.09-.05-.18-.1-.27-.15.04-.08.08-.16.12-.24.06-.11.21-.16.36-.12.02,0,.03.01.05.01.11.03.22.04.32.04-.1.2-.2.39-.29.59M8.66,57.42c.18.15.16.31.09.45-.22.45-.44.9-.67,1.35-.1.21-.3.24-.46.25-.1,0-.19-.01-.2,0-.4-.12-.82.02-1,.36-.12.23-.25.46-.37.7.27.14.55.29.82.43.28.14.55.28.84.41.67-1.41,1.34-2.82,2.02-4.23-.35.1-.71.2-1.07.29M23.73,66.11c-.17-.01-.32.09-.33.24-.01.15.12.27.29.28.17.01.31-.09.32-.24,0-.14-.12-.27-.29-.28M23,66.05c-.17-.02-.32.09-.33.23-.01.15.12.27.29.29.16.01.31-.09.32-.23.01-.14-.12-.27-.28-.28M16.14,61.68c.15.04.3-.04.34-.18.03-.14-.06-.28-.21-.32-.15-.04-.31.04-.34.17-.04.14.06.28.21.32M15.48,61.5c.15.04.3-.03.34-.17.04-.14-.06-.29-.2-.33-.15-.04-.31.04-.35.17-.04.14.05.28.21.33M22.06,61.87c.16.02.29-.09.3-.23.02-.14-.09-.27-.24-.29-.15-.02-.28.08-.3.22-.02.15.09.28.24.29M36.3,62.33c.15-.03.25-.18.22-.32-.03-.14-.19-.23-.34-.19-.15.03-.25.18-.22.32.03.14.18.23.34.19M8.25,56.97c.14.07.3.03.37-.1.06-.13.01-.29-.13-.36-.13-.07-.3-.02-.37.1-.07.13,0,.29.13.36M22.14,61.25c.15.02.28-.08.3-.23.02-.14-.09-.27-.24-.29-.15-.02-.28.08-.3.22-.02.14.09.27.24.29M35.63,62.48c.15-.03.25-.18.22-.31-.03-.14-.18-.23-.33-.2-.15.03-.26.17-.23.32.03.14.18.23.34.2M7.96,57.53c.14.07.31.02.37-.11.06-.13.01-.29-.13-.36-.13-.07-.3-.02-.37.1-.07.13-.01.29.13.37M23.68,29.84c-.06-.98-.09-2.09-.09-3.3,0-1.1.03-2.08.08-2.96,2.77-.25,6.74-.32,10.4.63.26.79.41,1.62.41,2.5s-.15,1.71-.41,2.49c-3.66.95-7.62.88-10.39.63M26.64,34.56c-.87,0-1.73-.14-2.55-.43-.07-.42-.26-1.8-.38-3.82,2.73.24,6.57.3,10.17-.58-1.18,2.83-3.98,4.82-7.23,4.82M18.8,26.72c0-3.16,1.92-6.02,4.81-7.23-.15.94-.49,3.43-.49,7.06s.33,6.4.47,7.39c-2.88-1.22-4.79-4.07-4.79-7.22M24.12,19.3c.81-.28,1.66-.42,2.53-.42,3.25,0,6.05,1.99,7.23,4.82-3.61-.88-7.45-.81-10.18-.57.13-2.08.35-3.42.42-3.82M26.64,18.42c-.96,0-1.91.16-2.81.49-3.29,1.18-5.49,4.32-5.49,7.81s2.2,6.61,5.46,7.8c.91.33,1.86.5,2.84.5,4.58,0,8.3-3.72,8.3-8.3s-3.72-8.3-8.3-8.3M46,62.37c-.08.04-.17.01-.2-.05-.03-.07,0-.15.09-.18.03-.01.06-.02.09-.02-.28-.09-.54.22-.32.41-.08.05-.13.05-.17,0-.05.1-.1.21-.15.31.38-.17.75-.34,1.12-.52-.12-.04-.24-.08-.36-.12.02.06-.02.13-.09.16M50.1,27v-.93c0-.46,0-.92,0-1.14,0-.87-.14-2.03-.97-2.59.25.98.08,1.15.08,2.79v2.05c0,.6.08,1.13.23,1.58-.96-.46-1.99-1.48-1.99-3.26,0-.6-.15-3.06-.89-4.09v4.27c0,.56.07,1.06.2,1.49-2.25-1.14-2.03-5.03-2.76-6.54,0,1.31.03,2.22.03,3.53,0,.64.1,1.2.26,1.67-1.97-1.26-2.2-3.73-2.36-5.57-.19.68-.5,2.48.03,4.18-1.32-1.01-2.06-3.17-1.97-4.71-.19.84-.4,2.12.01,3.39-.07,1.45-.06,12.89-.06,14.14-.75-.62-1.52-1.75-1.44-3.45.03-.28.06-.54.1-.8.53-3.57.64-8.72-.84-12.83,1.19,6.43-.29,13.04-.5,14.37-.37,2.38.44,7.3,2.11,12.76-.32-.32-1.44-.79-1.89-1.24,0,.49.18,1.02.18,2.1-.57-.96-.8-1-1.41-2.07.19,1.26.14,1.37.14,2.45-.6-1.12-.92-2.62-2.28-4.75-3.04-4.75-7.43-1.8-7.43-.98,0-.83-4.38-3.77-7.43.98-1.37,2.13-1.69,3.63-2.29,4.75,0-1.09-.05-1.2.14-2.45-.61,1.07-.83,1.11-1.41,2.07,0-1.08.18-1.61.18-2.1-.45.45-1.57.91-1.89,1.24,1.68-5.46,2.49-10.38,2.11-12.76-.21-1.33-1.69-7.94-.5-14.37-1.48,4.12-1.37,9.26-.84,12.83.04.25.07.52.1.8.08,1.71-.69,2.84-1.45,3.46,0-1.25.02-12.68-.06-14.15.42-1.28.21-2.55.01-3.39.09,1.54-.65,3.7-1.97,4.71.54-1.7.22-3.49.03-4.18-.16,1.84-.38,4.31-2.35,5.57.16-.48.26-1.03.26-1.67,0-1.3.03-2.22.03-3.53-.74,1.51-.51,5.4-2.76,6.54.13-.44.2-.93.2-1.49v-4.27c-.74,1.03-.89,3.49-.89,4.09,0,1.78-1.03,2.79-1.99,3.26.15-.46.23-.98.23-1.58v-2.05c0-1.64-.17-1.82.08-2.79-.83.57-.97,1.72-.97,2.59,0,.22,0,.67,0,1.14h0v.93c0,1.86-1.12,2.88-2.11,3.32.17-.22.36-.83.36-1.73v-8.97c0-2.52,2.94-5.42,4.03-6.7,3.02-3.53,4.33-.66,7.37.37,5.05,1.71,7.74-.2,7.74-.2,2.7-1.7,2.71-3.3,2.71-4.3,0-.68-.26-1.56-.75-2.12-.92-.92-2.56-1.22-2.85-1.16-.62.32-1.16.32-1.27.41-.28-.56-.21-1.42,1.06-2.13.36-.2.22-.65,1.31-1.28,3.17-1.85,6.28-1.18,8.09.84-.64-.23-1.26-.45-2.34-.55,1.52.53,3.31,1.78,4.47,3.87.47.83,1.55,3.11,1.93,3.8.81,1.47,2.27,4.56,7.43,2.82,3.04-1.03,4.35-3.9,7.37-.37,1.09,1.28,4.03,4.17,4.03,6.7v8.97c0,.9.19,1.5.36,1.73-.99-.43-2.11-1.46-2.11-3.32M50.11,34v-2.56c0-.42-.01-.8-.04-1.13.15.06.29.11.42.15.43.43.91.73,1.38.97v4.15c0,.9.19,1.51.36,1.73-.99-.43-2.1-1.45-2.11-3.31M50.15,42.71c0-.3-.04-2.79-.04-3.28,0-.54-.02-1.45-.07-2.14.16.06.31.12.44.17.43.42.91.73,1.38.96v5.3c0,.9.19,1.51.36,1.73-.88-.38-2.07-1.45-2.07-2.74M50.15,56.15v-1.99h0c0-1.25-.04-2.34-.04-2.71v-2.96c0-.25,0-1.54-.01-3.2.06.02.11.05.17.07.47.55,1.05.92,1.6,1.19v10.61c0,.9.19,1.51.36,1.73-.88-.38-2.07-1.49-2.07-2.74M47.46,32.51v-2.59c0-.46-.02-.84-.04-1.17.1.04.2.08.29.11.46.49,1.01.84,1.52,1.1.01.54-.02,1.11-.02,1.68v2.54c0,.6.08,1.13.23,1.59-.96-.46-1.99-1.48-1.99-3.26M47.46,40.5v-2.59c0-.46-.02-1.43-.04-2.17.1.04.2.08.3.12.46.49,1.01.84,1.52,1.09.02.87-.02,2.06-.02,2.68v1.51h0v.95c0,.06,0,.12,0,.18,0,0,0,0,0,0v.06c0,.54.07,1.02.19,1.45-.87-.4-1.94-1.51-1.94-3.26M47.46,49.57v-2.59c0-.45-.02-2.11-.04-3.38.52.69,1.2,1.09,1.81,1.36,0,1.91-.01,3.45-.01,3.74v1.51h0v.95c0,.9,0,1.42.17,1.64-.74-.32-1.93-1.37-1.93-3.23M44.93,30.99v-2.35c0-.48,0-.81,0-1.08.24.09.5.17.77.24.29.22.59.41.88.56,0,.09,0,.17,0,.25v4.07c0,.56.07,1.05.19,1.48-.91-.49-1.84-1.49-1.84-3.18M44.93,38.12v-2.35c0-.9-.02-.89-.03-1.33.25.11.48.2.69.27.32.26.65.47.98.64,0,.53,0,1.13,0,1.25v4.07c0,.18,0,.36.02.52-.85-.52-1.67-1.5-1.67-3.08M46.57,45.68v4.02c-.85-.53-1.65-1.5-1.65-3.07v-2.35c0-.68-.01-2.23-.02-3.15.47.63,1.08,1.05,1.67,1.35,0,1.1,0,3.02,0,3.19M42.71,29.82v-2.36c0-.61-.01-1.05-.04-1.39.09.05.18.09.27.14.3.34.66.65,1.1.92,0,.2,0,.39,0,.57v3.48c0,.65.1,1.2.26,1.68-.82-.53-1.58-1.5-1.58-3.03M42.71,36.14v-2.36c0-.27,0-.5,0-.71.11.06.23.12.35.18.3.3.63.55.97.75.02.28.02.57.02.84v3.48c0,.25.02.48.04.71-.74-.56-1.37-1.48-1.37-2.88M44.04,43.35v2.92c-.72-.56-1.33-1.48-1.33-2.85v-2.36c0-.44,0-1.26-.02-1.9.38.5.84.87,1.32,1.16.03,1,.03,2.74.03,3.04M40.45,29.22c0-.54-.04-3.37-.05-5.22.31.53.75,1.05,1.39,1.52.07.52.04,1.17.04,1.63v2.86c0,.53.07,1,.18,1.42-.87-.64-1.56-1.43-1.56-2.21M40.42,30.96c.28.51.76,1.06,1.41,1.55,0,.34,0,.68,0,.96v2.36c-.78-.61-1.38-1.34-1.38-2.07,0-.33-.01-1.5-.03-2.79M41.83,40.74v1.69c-.78-.61-1.38-1.34-1.38-2.07,0-.51-.04-3.06-.05-4.9.28.52.75,1.07,1.41,1.56.05,1.08.02,3.31.02,3.72M39.72,50.55c.1.24.08.72.19.94.11.22.35.37.42.49.09.15.06.53.18.79.06.12.12.25.18.36-.08.09-.14.18-.2.28-.18-.41-.63-.46-.97-.24-.17.11-.37.28-.53.55.07-.47-.02-.61-.2-.8-.27-.27-.16-.83-.38-1.17-.17-.26-.48-.34-.67-.75-.2-.4-.1-.62-.3-1.01-.23-.45-.28-.6-.3-1.21.26.33.56.61.96,1.02.14-.95.16-1.18.16-2,.4.34.82.86.95,1.2.08.21.15.81.18.91.1.31.24.41.35.65M41.49,53.32c.42.03.19,1.87.5,2.51.32.65.18,1.19-.42,1.13-.61-.06-.58-1.92-.58-2.25,0-.46-.23.25-.36.51-.03-.11-.05-.24-.07-.37-.05-.32-.01-.52.01-.71.16-.44.49-.85.92-.82M42.03,54.07c.17-.55.63-1.32,1.16-1.2.42.09.02,1.42.27,2.07.49,1.27-.2,1.7-.79,1.55-.66-.16-.37-1.94-.31-2.19.02-.42-.2,0-.35.23-.03-.11-.05-.18.02-.45M43.99,54.33l3.89,2.65v5.59c-6.18,3.5-13.1,5.53-20.23,5.68h-.12s-.54.45-.8.67h0s0,0,0,0c-.26-.22-.8-.67-.8-.67h-.12c-7.13-.15-14.05-2.18-20.22-5.68v-5.59s3.88-2.65,3.88-2.65c.1.05.19.11.29.16.01.56-.38.84-.29,1.41.07.48.36.82.71.97.09.21.26.38.5.47.24.09.21-.12.2-.42.05-.01.1-.03.15-.06.07.23.21.39.4.49.08.17.24.33.55.53.3.14.1-.19.04-.48.11-.03.23-.08.34-.15.04.09.09.17.18.23.03.02.06.04.08.06.08.31.29.49.62.68.22.07.14-.18.11-.42.31,0,.58-.17.7-.67.06-.24.05-.39.04-.51,3.69,1.57,7.67,2.63,11.56,2.75.14.1,1.07.81,1.07.81,0,0,.94-.7,1.07-.81,3.87-.12,7.83-1.17,11.5-2.73-.01.12,0,.27.05.49.12.5.39.67.69.67-.02.24-.1.49.12.42.33-.19.55-.37.62-.68.03-.02.06-.04.09-.06.08-.06.14-.14.18-.23.11.07.22.12.34.15-.06.3-.26.62.04.48.3-.2.46-.36.54-.53.19-.09.34-.26.4-.49.05.03.1.04.15.06,0,.3-.03.51.2.42.23-.1.4-.27.5-.47.35-.16.64-.5.71-.97.09-.56-.29-.85-.29-1.38.11-.06.23-.13.34-.19M9.95,54.94c.25-.65-.15-1.98.26-2.07.53-.12.99.65,1.16,1.2.05.16.04.4.02.45-.15-.23-.37-.65-.35-.23.06.26.35,2.03-.31,2.19-.59.15-1.27-.28-.78-1.55M11.91,53.32c.43-.03.75.38.92.82.02.2.06.4.01.71-.02.13-.04.25-.07.37-.12-.26-.36-.97-.36-.51,0,.33.03,2.19-.58,2.25-.6.06-.74-.48-.42-1.13.31-.64.08-2.48.5-2.51M14.04,54.73c-.51.91-.06,2.62-.63,2.66-1.66.11-.43-1.97-.37-2.49.08-.66,0-1.63.65-1.43.58.18,1.32,2.06,1.68,2.62,0,0,0,.01.02.02-.13-.05-.26-.11-.39-.16.04.01.07.02.08.03-.59-.23-.93-1.66-1.03-1.24M39.7,53.47c.65-.2.58.77.65,1.43.06.52,1.29,2.6-.37,2.49-.58-.04-.13-1.75-.63-2.66-.09-.38-.37.79-.85,1.2-.16.07-.32.13-.48.2.38-.65,1.12-2.48,1.68-2.65M30.67,53.72c.41,2.41-1.96,2.54-2.32.69-.04-.23-.11-.95-.18-1.9-.18-3.24-.44-8.37-.46-9.34.4-.25.88-.45,1.37-.58.26,1.83,1.48,10.48,1.59,11.13M30.91,42.46c.26.05.47.14.62.26.23.16.49.38.76.65.43,1.62,2.16,8.1,2.31,8.75.19.78.39,1.49.72,1.82-1.05.2-1.79,0-2.03-.95-.32-1.49-1.95-8.89-2.39-10.53M32.67,53.03c.14.8.77,1.93.05,2.1-1.13.28-1.23-.35-1.41-1.32,0-.03-1.59-10.39-1.81-11.32.36-.07.72-.09,1.03-.08.23,1.14,2.03,9.97,2.14,10.61M25.87,54.02c0-1.26.19-9.27.23-10.56.32.28.54.61.6.97.06-.37.28-.69.61-.97.03,1.29.23,9.3.23,10.56,0,1.37-.36,1.86-.83,2.14-.47-.28-.83-.77-.83-2.14M18.17,52.04c-.31,1.09-1.05,2.23-1.23,2.4.64.24,1.81.43,2.64.1-.12.43-.11.82.25,1.19.45.45,1.72.77,2.34-.28.5,1.76,2.4,1.68,3.15.45.32,1.02.99,1.15,1.38,1.54.39-.38,1.06-.51,1.38-1.54.75,1.23,2.65,1.32,3.15-.45.62,1.06,1.89.73,2.34.28.37-.37.37-.76.25-1.19.83.33,1.99.14,2.64-.1-.17-.17-.92-1.31-1.23-2.4-.38-1.32-1.76-6.11-2.38-8.07,1.68,1.93,3.6,5.2,3.73,6.92.05-.24.16-.54.27-.86.39.81,1.32,2.45,1.48,2.84.16.41.21.67.09,1.21-.08.39-.44,1.58-1.2,2.34,0,0,0,0,0,0-3.05,1.13-6.26,1.84-9.55,1.93-.27.22-.93.72-.93.72,0,0-.66-.5-.93-.72-3.28-.09-6.48-.79-9.52-1.92,0,0,0,0,0-.01-.76-.76-1.21-1.96-1.3-2.35-.12-.54-.07-.81.09-1.21.16-.39,1.09-2.04,1.47-2.84.1.32.22.62.27.86.13-1.72,2.05-4.99,3.73-6.92-.62,1.96-2,6.74-2.38,8.07M20.1,53c-.24.95-.98,1.15-2.03.95.33-.33.53-1.04.72-1.82.15-.65,1.89-7.13,2.32-8.75.27-.27.53-.49.76-.65.15-.13.37-.21.62-.26-.43,1.64-2.07,9.04-2.39,10.53M24.32,42.59c.49.13.97.32,1.37.58-.02.97-.28,6.09-.46,9.33-.07.95-.14,1.67-.18,1.9-.36,1.86-2.73,1.72-2.32-.69.11-.65,1.33-9.3,1.59-11.13M22.09,53.82c-.18.97-.28,1.6-1.41,1.32-.73-.17-.09-1.31.04-2.1.12-.69,1.89-9.31,2.15-10.61.32-.02.67,0,1.03.08-.22.93-1.81,11.3-1.81,11.32M12.89,52.76c.12-.26.09-.64.18-.79.07-.11.31-.27.42-.49.11-.22.08-.7.19-.94.1-.24.25-.34.35-.65.03-.1.1-.7.18-.91.13-.35.54-.86.95-1.2,0,.82.01,1.05.15,2,.4-.41.7-.68.96-1.02-.01.61-.07.75-.3,1.21-.2.4-.1.61-.3,1.01-.2.4-.51.49-.67.75-.22.34-.11.9-.38,1.17-.18.18-.27.33-.2.8-.16-.27-.36-.44-.53-.55-.34-.21-.79-.17-.97.24-.06-.09-.13-.19-.2-.28.06-.11.12-.23.18-.36M12.94,29.22c0,.78-.69,1.57-1.55,2.21.11-.42.18-.89.18-1.42v-2.86c0-.46-.04-1.11.03-1.63.63-.47,1.08-.98,1.39-1.52,0,1.85-.05,4.68-.05,5.22M11.56,32.51c.65-.49,1.12-1.03,1.41-1.54-.01,1.28-.03,2.46-.03,2.78,0,.73-.59,1.46-1.37,2.07v-2.35c0-.27-.01-.61,0-.96M12.94,40.36c0,.73-.59,1.46-1.37,2.07v-1.68c0-.41-.03-2.65.01-3.72.65-.5,1.12-1.05,1.4-1.56,0,1.84-.04,4.39-.04,4.9M10.68,27.46v2.36c0,1.53-.76,2.5-1.59,3.03.16-.48.26-1.03.26-1.68v-3.48c0-.18,0-.38,0-.57.44-.27.8-.58,1.09-.92.09-.05.18-.09.27-.14-.03.34-.04.78-.04,1.39M9.31,39.02c.03-.22.04-.46.04-.71v-3.48c0-.26,0-.55.02-.84.34-.2.67-.45.97-.75.12-.06.23-.12.34-.18,0,.21,0,.44,0,.71v2.36c0,1.4-.64,2.32-1.37,2.88M10.68,41.05v2.36c0,1.37-.61,2.29-1.33,2.85v-2.92c0-.29,0-2.04.03-3.04.47-.28.94-.66,1.32-1.16-.02.64-.02,1.46-.02,1.9M8.47,35.78v2.35c0,1.58-.81,2.56-1.67,3.08.01-.17.02-.34.02-.52v-4.07c0-.13,0-.72,0-1.25.33-.17.66-.38.98-.64.21-.08.44-.16.69-.27,0,.44-.02.43-.02,1.33M8.47,44.29v2.35c0,1.57-.8,2.54-1.65,3.07v-4.02c0-.17,0-2.1,0-3.19.59-.31,1.19-.73,1.67-1.36,0,.92-.02,2.46-.02,3.15M6.62,34.17c.13-.43.2-.92.2-1.48v-4.33c.3-.15.6-.34.88-.56.28-.07.53-.15.77-.24-.01.27,0,.59,0,1.08v2.35c0,1.69-.93,2.69-1.84,3.18M5.93,37.91v2.59c0,1.75-1.08,2.87-1.94,3.26.12-.42.19-.9.19-1.44v-.06s0,0,0,0c0-.06,0-.12,0-.18v-.94h0v-1.52c0-.63-.04-1.82-.02-2.68.52-.25,1.06-.6,1.52-1.09.09-.04.19-.08.29-.12-.03.74-.04,1.71-.04,2.17M5.93,46.98v2.59c0,1.86-1.19,2.91-1.93,3.23.17-.22.17-.74.17-1.64v-.94h0v-1.51c0-.29,0-1.82-.01-3.74.61-.28,1.29-.67,1.81-1.36-.02,1.27-.04,2.93-.04,3.38M4.16,29.95c.52-.26,1.06-.6,1.52-1.1.09-.03.19-.07.29-.11-.02.32-.04.71-.04,1.17v2.59c0,1.78-1.03,2.8-1.99,3.26.15-.46.23-.98.23-1.59v-2.54c0-.57-.03-1.14-.02-1.68M1.18,37.31c.17-.22.36-.83.36-1.73v-4.15c.47-.23.96-.54,1.39-.97.13-.05.27-.1.41-.15-.03.33-.04.71-.04,1.13v2.55c0,1.86-1.12,2.88-2.11,3.32M3.29,39.43c0,.49-.04,2.98-.04,3.28,0,1.29-1.19,2.36-2.07,2.74.17-.22.36-.83.36-1.73v-5.3c.47-.23.96-.54,1.39-.96.13-.05.28-.11.44-.17-.04.69-.07,1.6-.07,2.14M3.29,48.5v2.96c0,.37-.03,1.46-.04,2.71,0,0,0,0,0,0v1.99c0,1.25-1.19,2.36-2.07,2.74.17-.22.36-.83.36-1.73v-10.61c.55-.27,1.13-.65,1.6-1.19.05-.02.11-.04.17-.07-.01,1.66-.02,2.95-.02,3.2M20.69,6.21h0c-.23.07-1.45.27-1.61.12.27-.14.45-.22.96-.54.37.03.73.26,1.31.61-.32-.13-.36-.24-.67-.18M52.75,38.8c.25.09.47.17.65.24-.7-1.05-.65-2.76-.65-3.16v-4.07c.25.1.47.17.65.24-.7-1.06-.65-2.76-.65-3.17v-9.48c0-2.62-4.01-8.97-7.4-9.06-2.41-.06-5.23,3.32-8.68,2.45-1.11-.29-1.99-1.48-2.72-2.95-1.29-2.63-2.53-6.15-5.66-8.18-3.47-2.25-7.47.26-7.92.66-.39.36-1.02,1.44-1.35,1.61-1.09.57-1.26,1.52-1.26,1.88s.08,1.24.74,1.73c-.09-.43-.12-.67-.02-.88.43.07,1.38.27,2,.01.3.3,1.02.88,1.33,1.48.44.83.44.95.44,1.28,0,.84-.39,2.05-1.59,2.83-1.26.9-4.23,1.4-7.96.13-2.02-.69-2.84-2.09-4.65-2.04-3.39.09-7.4,6.44-7.4,9.06v9.48c0,.4.05,2.11-.65,3.17.18-.07.4-.15.65-.24v4.07c0,.4.05,2.11-.65,3.16.18-.07.4-.15.65-.24v5.22c0,.4.05,2.11-.65,3.17.18-.07.4-.14.65-.24v10.52c0,.3.03,1.34-.25,2.28-.09.31.12.69.45.56,1.36-.54,3.33-1.6,3.33-4.55v-1.66c.98-.43,2.14-1.19,2.52-3.03,1.11-.55,2.33-1.5,2.6-3.43,1.13-.66,2.26-1.8,2.27-4,.99-.75,1.57-1.62,1.69-2.3.08-.46.14-1.55.16-2.81.71-.52,1.23-1.11,1.52-1.65-.12,2.74-.66,6.41-1.95,11.51.23,0,.53-.05.84-.12-.17,1.03-1.04,3.47-1.63,4.58-.08,0-.16,0-.26,0-.19.03-.33.22-.43.45-.26-.4-.59-1.05-1.36-.8-.4.13-.55.44-.58.78-.64.4-4.98,3.09-4.98,3.09v6.71c6.44,3.82,13.54,6.12,21.2,6.27.25.25.93.77.93.77,0,0,.68-.52.93-.77,7.66-.16,14.76-2.46,21.2-6.27v-6.71s-4.71-2.92-5.04-3.13c-.04-.32-.19-.61-.58-.74-.77-.25-1.1.4-1.36.8-.09-.23-.23-.42-.43-.45-.09-.01-.18-.01-.25,0-.59-1.11-1.46-3.56-1.63-4.58.31.07.61.12.84.12-1.29-5.09-1.83-8.77-1.95-11.51.29.54.8,1.13,1.51,1.65.02,1.26.08,2.36.16,2.82.12.68.71,1.56,1.69,2.3.01,2.2,1.14,3.34,2.27,4,.27,1.92,1.49,2.88,2.6,3.43.38,1.84,1.54,2.6,2.52,3.03v1.66c0,2.91,1.93,3.99,3.28,4.53.35.14.63-.13.54-.38-.33-.99-.3-2.13-.3-2.45v-10.51c.25.09.47.15.65.23-.7-1.06-.65-2.76-.65-3.17v-5.22ZM43.04,62.1c-.09.03-.19.07-.28.11-.03-.07-.05-.13-.08-.2.06-.12.12-.23.18-.35.13.04.25.09.38.13.03.06.05.13.08.19-.1.04-.19.08-.29.11M42.6,60.99c-.18.35-.36.7-.55,1.05.05.13.1.26.14.39-.19.07-.38.14-.57.21-.34-.96-.68-1.93-1.03-2.89-.05-.15-.05-.32.14-.44-.34-.13-.68-.27-1.02-.42.45,1.31.9,2.63,1.34,3.94.06.16.11.33.17.5.15-.05.29-.1.44-.15l.14-.05c.48-.17.96-.35,1.44-.54.28-.11.57-.23.85-.35-.12-.29-.24-.58-.36-.87-.38-.13-.75-.26-1.12-.39M46.89,60.95c.18-.09.36-.19.55-.28-.55-1.06-1.11-2.12-1.66-3.18-.07-.14-.09-.31.08-.46-.36-.08-.72-.17-1.08-.27.62,1.24,1.25,2.48,1.87,3.72.08.16.16.31.24.47M37.07,29.23s.01.01,0,.02c0,0,0,.02-.02.02l-.55.12-.12.48s-.01.02-.02.02h0s-.02,0-.02-.01l-.27-.44h-.55s-.02-.02-.02-.03c0-.01,0-.02,0-.03l.35-.41-.14-.52s0-.02,0-.02c0,0,.02,0,.03,0l.5.22.44-.28s.01,0,.01,0,.01,0,.01,0h0s.01.02,0,.02l-.09.48.44.35ZM31.54,35.07l-.24-.95s-.01-.01-.02-.02c0,0-.02,0-.02.01,0,0-.48.7-.63.89-.24,0-1.09-.07-1.09-.07-.01,0-.02,0-.02.01,0,0,0,.02,0,.02l.59.78c-1.06.4-2.2.63-3.4.63s-2.42-.24-3.5-.67l.56-.74s0-.02,0-.03c0,0-.02-.01-.02-.01,0,0-.85.07-1.09.07-.15-.19-.63-.89-.63-.89,0,0-.01-.01-.02-.01-.01,0-.02,0-.02.02l-.23.87c-1.94-1.18-3.43-3.03-4.14-5.23l.89-.02s.02,0,.02-.02c0,0,0-.02,0-.02,0,0-.56-.63-.72-.81.06-.24.3-1.04.3-1.05,0,0,0-.02,0-.02,0,0-.02,0-.03,0l-.82.37c-.06-.45-.1-.9-.1-1.37,0-1.94.59-3.75,1.59-5.27l.54.64s0,0,.02,0c0,0,0,0,0,0,0,0,.02-.01.02-.02,0,0,.14-.83.19-1.06.23-.1,1.02-.41,1.02-.41.01,0,.01-.01.02-.02,0,0,0-.02-.01-.02l-.78-.4c1.56-1.65,3.69-2.76,6.08-2.98l-.17.89s0,.02.01.02c0,0,0,0,.01,0,0,0,0,0,.01,0,0,0,.74-.42.95-.53.21.11.95.53.95.53,0,0,.02,0,.02,0,0,0,.01-.02.01-.02l-.18-.9c2.42.19,4.59,1.28,6.18,2.94l-.87.45s-.01.01-.01.02c0,.01,0,.02.02.02,0,0,.79.31,1.02.41.05.23.19,1.06.19,1.06,0,.01.01.02.02.02,0,0,0,0,0,0,.01,0,.02,0,.02,0l.62-.74c1.04,1.53,1.65,3.38,1.65,5.36,0,.49-.04.96-.11,1.42l-.95-.42s-.02,0-.03,0c0,0-.01.02,0,.02,0,0,.23.81.3,1.05-.16.19-.71.81-.72.81,0,0,0,.02,0,.02,0,0,.01.02.02.02l1.03.03c-.73,2.24-2.26,4.12-4.26,5.3M31.8,35.66s0,.01,0,.01l-.43.24v.56s0,.02,0,.02h-.01s-.01,0-.01,0l-.44-.35-.27.11-.18.08h0s0,0,0,0c0,0-.02,0-.02,0,0,0,0,0,0-.01,0,0,0,0,0-.01l.07-.2.1-.28-.14-.18h0l-.19-.25s0,0,0-.01c0,0,0-.01,0-.01,0,0,0,0,.01,0,0,0,0,0,0,0h.53s.32-.41.32-.41c0,0,.02,0,.02,0,0,0,.02,0,.02.01,0,0,0,0,0,0l.08.31.06.22.37.12.12.04s.01.01.02.02c0,0,0,.01,0,.01M23.03,35.37s0,0,0,.01l-.19.25-.14.19.08.2.1.28s0,.02,0,.03c0,0,0,0,0,0,0,0-.01,0-.02,0l-.12-.05-.24-.1s0,0,.01,0l-.1-.04-.17.13-.27.21s-.01,0-.02,0h-.01s-.01-.01-.01-.02v-.56s-.43-.23-.43-.23c-.01,0-.01-.01-.01-.02h0s0-.02.02-.02l.24-.08.25-.08.07-.29.06-.24s.01-.01.02-.02c.01,0,.02,0,.02,0h0l.16.21.16.21h.52s.02,0,.02,0c0,0,0,0,0,.01M16.93,29.88s-.01.01-.02.01h0s-.02-.01-.02-.02l-.12-.48-.55-.12s-.01,0-.02-.02c0,0,0-.02,0-.02l.44-.35h0s-.02-.1-.02-.1h0s-.08-.38-.08-.38c0,0,0-.01,0-.02,0,0,0,0,0,0,0,0,.02,0,.03,0l.43.28.27-.12.23-.1s.02,0,.03,0c0,0,.01.02,0,.02l-.14.52.35.41s0,.02,0,.03c0,0-.01.01-.02.01h-.55s-.27.46-.27.46ZM18.16,21.02l.3-.39-.25-.5s0-.02,0-.03c0,0,.02-.01.02,0l.56.13.32-.38s.02-.01.03,0c0,0,.01.01.02.02l.04.52.49.26s.01.01.01.02c0,.01,0,.02-.01.02l-.48.22-.11.53s0,.02-.02.02h0s-.01,0-.02,0l-.13-.16-.22-.27-.49.06h-.02s-.02,0-.03-.01c0,0,0-.02,0-.03M25.86,16.58s0-.01.02-.01l.49-.02.24-.51s.01-.01.02-.01c.01,0,.02,0,.02.01l.24.51h.04s0,0,0,0l.34.02h0s.08,0,.12,0c0,0,.01,0,.01.01h0s0,.02,0,.03l-.37.36.11.54s0,.02-.01.02c0,0-.01,0-.01,0,0,0,0,0-.01,0l-.48-.24-.47.24s-.02,0-.03,0c0,0-.01-.02,0-.02l.05-.25.06-.29-.37-.36s0-.02,0-.03c0,0,0,0,0,0M33.87,20.48l.21-.11.04-.52s0-.02.02-.02c0,0,.01,0,.01,0,0,0,.01,0,.01,0l.32.38h.04s.51-.13.51-.13c0,0,.02,0,.02.01,0,0,0,.02,0,.02l-.25.5.29.4s.01.02,0,.03c0,0-.01.01-.02.01l-.52-.06-.36.42s-.01.01-.02.01c0,0,0,0,0,0,0,0-.01,0-.02-.02l-.11-.53-.48-.22s-.02-.01-.02-.02,0-.02.01-.02l.28-.15ZM37.17,27.66s0-.02-.01-.02c-.01,0-.02,0-.03,0,0,0-.08.06-.2.14.03-.32.05-.64.05-.96,0-1.96-.55-3.78-1.51-5.34.19.03.34.06.34.06.01,0,.02,0,.03-.01,0,0,0-.02,0-.03,0,0-.48-.71-.62-.91.11-.22.44-.95.44-.95,0,0,0-.02,0-.02,0,0-.02-.01-.02-.01l-1.02.23c-.16-.19-.73-.82-.73-.82,0,0-.02-.01-.03,0,0,0-.01.01-.01.02l-.03.39c-1.57-1.51-3.62-2.52-5.89-2.79.17-.16.33-.29.33-.29,0,0,0-.02,0-.03,0-.01-.01-.01-.02-.01,0,0-.86-.06-1.1-.07-.1-.22-.47-.93-.47-.93h0s-.01-.02-.02-.01c0,0-.01,0-.01.01,0,0-.36.71-.46.93-.24.01-1.1.07-1.1.07-.01,0-.02,0-.02.02,0,0,0,.02,0,.03,0,0,.16.14.34.3-2.29.3-4.34,1.35-5.9,2.9l-.04-.51s0-.02-.02-.02c0,0-.02,0-.03,0,0,0-.57.63-.73.82l-1.01-.23s-.02,0-.02,0c0,0,0,.02,0,.03,0,0,.33.73.44.95-.14.19-.62.91-.62.91,0,0,0,.02,0,.03,0,0,.01.01.02,0,0,0,.23-.04.49-.08-.96,1.56-1.52,3.4-1.52,5.37,0,.36.02.72.06,1.06-.19-.13-.35-.25-.35-.25,0,0-.02,0-.03,0,0,0-.01.01-.01.02,0,0,.12.84.16,1.09l-.82.65s-.01.01,0,.02c0,0,0,.01.02.02,0,0,.79.2,1.03.25.06.24.32,1.05.32,1.05,0,0,.01.02.02.02h0s.02,0,.02-.01c0,0,.1-.18.22-.39.76,2.08,2.18,3.84,4,5.05-.24.07-.44.13-.44.13-.01,0-.02.01-.02.02,0,.01,0,.02.01.02,0,0,.75.43.96.55,0,.14.01,1.05.01,1.05,0,0,0,.02.01.02,0,0,0,0,.01,0,0,0,.01,0,.02,0l.82-.64,1.03.43s.02,0,.03,0c0,0,.01-.02,0-.03,0,0-.08-.19-.17-.42,1.06.37,2.19.57,3.37.57,1.12,0,2.2-.18,3.21-.51-.08.2-.15.36-.15.36,0,0,0,.02,0,.03,0,0,.02,0,.02,0l1.03-.43.82.65s.01,0,.02,0h0s.01-.01.01-.02c0,0,.01-.91.01-1.05.21-.11.96-.55.96-.55.01,0,.01-.01.01-.02,0-.01,0-.02-.02-.02,0,0-.15-.04-.35-.1,1.8-1.17,3.2-2.9,3.99-4.93.08.14.13.24.13.24,0,0,.01.01.02.01h0s.02,0,.02-.02c0,0,.26-.81.32-1.05.24-.05,1.03-.25,1.03-.25,0,0,.02,0,.02-.02,0,0,0-.02-.01-.02l-.82-.65c.04-.24.16-1.09.16-1.09M45.48,60.83c.03.06.06.13.09.19-.09.05-.19.09-.28.13-.09.04-.18.08-.27.13-.03-.06-.06-.13-.09-.19.06-.12.11-.24.16-.36.13.04.26.07.39.11M44.95,59.69c-.05.12-.11.24-.16.37-.13-.04-.25-.08-.37-.12-.37-.82-.74-1.64-1.12-2.47-.16.38-.32.75-.48,1.12.23-.03.4.06.46.2.21.49.43.98.65,1.48.01.03.03.06.04.1.2.06.4.13.6.19-.09.19-.18.38-.27.57.13.29.25.58.38.86.28-.12.56-.25.84-.37.28-.13.56-.26.83-.4-.14-.28-.27-.56-.41-.84-.21-.06-.41-.11-.61-.17.08-.2.17-.39.25-.58-.25-.52-.5-1.03-.75-1.55-.07-.14-.03-.33.15-.48-.39-.12-.78-.24-1.16-.36.38.82.77,1.63,1.15,2.45M32.53,61.35c-.31-.2-.61-.41-.9-.62.18,1.55.37,3.1.56,4.65.2-.02.4-.05.6-.08-.16-1.19-.32-2.37-.48-3.56-.02-.16.01-.32.22-.4M38.49,60.43c-.05-.15-.03-.32.16-.43-.33-.15-.67-.31-.99-.47.38,1.34.75,2.67,1.13,4.01.05.17.09.34.14.5.19-.06.39-.11.58-.17-.34-1.15-.68-2.29-1.02-3.44M28.98,64.61c-.13-.2-.25-.4-.37-.61.06,0,.12,0,.17,0,0-.15.06-.23.15-.32.1.08.17.15.19.3.06,0,.12,0,.17-.01-.1.21-.21.43-.32.64M30.35,61.59c.22.03.29.19.3.34.09,1.02.19,2.04.28,3.05-.53.05-1.05.09-1.57.12.28-.57.55-1.15.82-1.72-.23.02-.45.03-.68.05-.1-.18-.38-.37-.59-.38-.21.03-.47.25-.54.43-.23,0-.46.01-.68.02.31.55.64,1.1.98,1.64-.51.02-1.03.03-1.54.03,0-.52,0-1.04,0-1.56-.29.26-.58.52-.87.78.18,0,.29.11.29.27,0,.43,0,.87-.01,1.3,0,.29-.27.52-.61.51-.27,0-.49-.16-.57-.36.08.35.44.62.88.63.51,0,.91-.35.9-.78,0-.09,0-.17,0-.26.64,0,1.28-.02,1.91-.05.65-.03,1.3-.08,1.95-.14.03,0,.06,0,.08,0,.17-.01.35-.03.52-.05-.17-1.56-.33-3.11-.5-4.66-.24.27-.49.54-.74.81M37.01,62.6c.24,0,.33.13.37.28.08.32.16.64.24.97-.87.22-1.73.41-2.61.57-.12.02-.24.04-.35.06-.18-.11-.36-.22-.54-.33.41-.42.66-1.15.51-1.78-.1.86-.49,1.47-1.46,1.82.44.29.88.57,1.34.84.2-.03.4-.07.6-.11,1.08-.2,2.16-.45,3.23-.74-.22-.84-.45-1.68-.67-2.51-.21.31-.43.61-.66.92M40,61.53c-.2.34-.4.67-.6,1.01.16-.05.31.02.36.17.13.42.26.83.38,1.24.09.27-.11.58-.44.68-.26.08-.51,0-.65-.17.18.31.61.46,1.03.33.5-.15.78-.61.64-1.02-.24-.74-.49-1.49-.73-2.23M19.65,4.18c-.19,0-.35.13-.35.29,0,.14.13.26.29.28-.01-.02-.02-.05-.02-.07,0-.12.14-.21.32-.21.04,0,.07,0,.1.01h0c0-.16-.16-.29-.35-.29"/>
</svg>