<?xml version="1.0" encoding="UTF-8"?>
<svg id="Layer_1" data-name="Layer 1" xmlns="http://www.w3.org/2000/svg" viewBox="0 0 588.66 175.34">
  <defs>
    <style>
      .cls-1 {
        fill: #c8202f;
      }

      .cls-2 {
        fill: #010101;
      }

      .cls-3 {
        fill: #088542;
      }
    </style>
  </defs>
  <g>
    <path class="cls-2" d="M0,0v175.34h175.34V0H0ZM170.64,170.67H4.7V4.7h165.94s0,165.97,0,165.97Z"/>
    <rect class="cls-3" x="125.24" y="18.79" width="31.31" height="137.75"/>
    <path class="cls-2" d="M93.93,18.79H18.79v31.31h43.83c14.31-5.63,25.68-17,31.31-31.31Z"/>
    <path class="cls-1" d="M62.62,50.1H18.79v106.44h12.52c4.73-29.64,15.61-57.24,31.31-81.41v-25.03Z"/>
    <path class="cls-2" d="M87.68,75.17h-25.03c-15.7,24.17-26.58,51.77-31.31,81.41h56.37v-81.41h-.03Z"/>
  </g>
  <g>
    <g>
      <g>
        <path class="cls-2" d="M210.2,169.09l-1.67-4.91h-9.06l-1.73,4.91h-3.62l7.91-22.25h4.17l7.97,22.25h-3.99ZM204.92,153.73c-.4-1.08-.68-2.04-.93-3.03h-.03c-.31.99-.56,1.95-.93,3.03l-2.69,7.63h7.23l-2.66-7.63Z"/>
        <path class="cls-2" d="M233.01,169.09l-7.88-13.38c-.9-1.58-1.58-2.97-2.16-4.39.12,2.16.22,8.13.22,11.65v6.15h-3.46v-22.25h4.79l7.73,13.14c.83,1.39,1.64,3,2.32,4.45-.09-2.5-.22-8.41-.22-11.93v-5.66h3.46v22.25h-4.79v-.03Z"/>
        <path class="cls-2" d="M252.23,169.22c-2.29,0-4.17-.12-5.9-.15v-22.19c1.76-.06,4.33-.15,6.89-.15,7.02,0,11.34,3.25,11.34,10.94,0,7.6-5.07,11.56-12.33,11.56ZM252.91,149.68c-1.08,0-2.23.03-3,.09v16.2c.74.09,1.79.19,2.69.19,4.79,0,8.16-2.57,8.16-8.28-.03-5.25-2.38-8.19-7.85-8.19Z"/>
        <path class="cls-2" d="M285.4,169.43c-1.89,0-3.55-.19-4.98-.59l.43-3.46c1.39.56,3.03.93,4.73.93,2.35,0,4.36-.96,4.36-3.4,0-4.7-9.77-2.72-9.77-9.92,0-3.8,2.91-6.46,8.1-6.46,1.27,0,2.78.15,3.99.43l-.37,3.15c-1.17-.4-2.5-.62-3.83-.62-2.81,0-4.11,1.27-4.11,3.12,0,4.42,9.89,2.81,9.89,9.83-.03,4.05-3.37,6.99-8.44,6.99Z"/>
        <path class="cls-2" d="M307.16,149.87v19.22h-3.59v-19.22h-6.15v-3.03h15.89v3.03h-6.15Z"/>
        <path class="cls-2" d="M330.34,169.09l-1.67-4.91h-9.06l-1.73,4.91h-3.62l7.91-22.25h4.17l7.97,22.25h-3.99ZM325.08,153.73c-.4-1.08-.68-2.04-.93-3.03h-.03c-.31.99-.56,1.95-.93,3.03l-2.69,7.63h7.23l-2.66-7.63Z"/>
        <path class="cls-2" d="M345.11,149.87v19.22h-3.59v-19.22h-6.15v-3.03h15.89v3.03h-6.15Z"/>
        <path class="cls-2" d="M357.07,169.09v-22.25h3.59v22.25h-3.59Z"/>
        <path class="cls-2" d="M372.8,169.43c-1.89,0-3.55-.19-4.98-.59l.43-3.46c1.39.56,3.03.93,4.73.93,2.35,0,4.36-.96,4.36-3.4,0-4.7-9.77-2.72-9.77-9.92,0-3.8,2.91-6.46,8.1-6.46,1.27,0,2.78.15,3.99.43l-.37,3.15c-1.17-.4-2.5-.62-3.83-.62-2.81,0-4.11,1.27-4.11,3.12,0,4.42,9.89,2.81,9.89,9.83-.03,4.05-3.37,6.99-8.44,6.99Z"/>
        <path class="cls-2" d="M394.56,149.87v19.22h-3.59v-19.22h-6.15v-3.03h15.89v3.03h-6.15Z"/>
        <path class="cls-2" d="M406.52,169.09v-22.25h3.59v22.25h-3.59Z"/>
        <path class="cls-2" d="M427.05,169.37c-7.42,0-10.2-4.82-10.2-10.79,0-6.89,3.52-11.93,11.03-11.93,1.64,0,3.43.22,4.95.68l-.53,3.31c-1.48-.56-3.09-.87-4.7-.87-4.7,0-6.8,3.55-6.8,8.22,0,5.19,2.23,8.16,7.08,8.16,1.51,0,3.34-.43,4.57-1.02l.59,3.12c-1.67.65-3.8,1.11-6,1.11Z"/>
        <path class="cls-2" d="M443.98,169.43c-1.89,0-3.55-.19-4.98-.59l.43-3.46c1.39.56,3.03.93,4.73.93,2.35,0,4.36-.96,4.36-3.4,0-4.7-9.77-2.72-9.77-9.92,0-3.8,2.91-6.46,8.1-6.46,1.27,0,2.78.15,3.99.43l-.37,3.15c-1.17-.4-2.5-.62-3.83-.62-2.81,0-4.11,1.27-4.11,3.12,0,4.42,9.89,2.81,9.89,9.83,0,4.05-3.34,6.99-8.44,6.99Z"/>
        <path class="cls-2" d="M478.07,169.37c-7.42,0-10.2-4.82-10.2-10.79,0-6.89,3.52-11.93,11.03-11.93,1.64,0,3.43.22,4.95.68l-.53,3.31c-1.48-.56-3.09-.87-4.7-.87-4.7,0-6.8,3.55-6.8,8.22,0,5.19,2.23,8.16,7.08,8.16,1.51,0,3.34-.43,4.57-1.02l.59,3.12c-1.67.65-3.8,1.11-6,1.11Z"/>
        <path class="cls-2" d="M490.84,169.09v-22.25h11.74v2.97h-8.16v6.37h7.76v2.94h-7.76v6.92h8.16v3.06h-11.74Z"/>
        <path class="cls-2" d="M523.38,169.09l-7.88-13.38c-.9-1.58-1.58-2.97-2.16-4.39.12,2.16.22,8.13.22,11.65v6.15h-3.46v-22.25h4.79l7.73,13.14c.83,1.39,1.64,3,2.32,4.45-.09-2.5-.22-8.41-.22-11.93v-5.66h3.46v22.25h-4.79v-.03Z"/>
        <path class="cls-2" d="M543.75,149.87v19.22h-3.59v-19.22h-6.15v-3.03h15.89v3.03h-6.15Z"/>
        <path class="cls-2" d="M566.44,169.09l-6.74-9.64h-.4v9.64h-3.59v-22.25c1.61-.09,3.46-.12,5.93-.12,4.67,0,7.82,1.61,7.82,6,0,3.55-2.75,5.87-6.06,6.27.62.8,1.33,1.61,1.85,2.38l5.69,7.76h-4.51v-.03ZM561.18,149.62c-.74,0-1.36.03-1.89.09v7.05c.34.03.96.06,1.76.06,2.91,0,4.67-1.48,4.67-3.74,0-2.41-1.55-3.46-4.54-3.46Z"/>
        <path class="cls-2" d="M576.92,169.09v-22.25h11.74v2.97h-8.16v6.37h7.76v2.94h-7.76v6.92h8.16v3.06h-11.74Z"/>
      </g>
      <g>
        <path class="cls-2" d="M197.71,112.29v6.52h7.57v2.94h-7.57v9.77h-3.59v-22.25h11.62v3.03h-8.04Z"/>
        <path class="cls-2" d="M209.64,131.51v-22.25h11.74v2.97h-8.16v6.37h7.76v2.94h-7.76v6.92h8.16v3.06h-11.74Z"/>
        <path class="cls-2" d="M232.11,131.67c-2.29,0-4.14-.12-5.9-.15v-22.19c1.76-.06,4.33-.15,6.89-.15,7.02,0,11.34,3.25,11.34,10.94.03,7.6-5.07,11.56-12.33,11.56ZM232.82,112.13c-1.08,0-2.19.03-3,.09v16.2c.71.09,1.79.19,2.66.19,4.79,0,8.16-2.57,8.16-8.28,0-5.25-2.35-8.19-7.82-8.19Z"/>
        <path class="cls-2" d="M248.53,131.51v-22.25h11.74v2.97h-8.16v6.37h7.76v2.94h-7.76v6.92h8.16v3.06h-11.74Z"/>
        <path class="cls-2" d="M275.82,131.51l-6.74-9.64h-.4v9.64h-3.59v-22.25c1.61-.09,3.46-.12,5.93-.12,4.64,0,7.82,1.61,7.82,6,0,3.55-2.75,5.87-6.06,6.27.62.8,1.33,1.61,1.85,2.38l5.69,7.76h-4.51v-.03ZM270.59,112.07c-.71,0-1.36.03-1.89.09v7.05c.34.03.96.06,1.76.06,2.91,0,4.64-1.48,4.64-3.74,0-2.41-1.55-3.46-4.51-3.46Z"/>
        <path class="cls-2" d="M296.8,131.51l-1.67-4.91h-9.02l-1.7,4.91h-3.62l7.91-22.25h4.14l7.97,22.25h-4.02ZM291.52,116.15c-.4-1.08-.68-2.04-.93-3.03h-.03c-.31.99-.56,1.95-.93,3.03l-2.66,7.63h7.23l-2.69-7.63Z"/>
        <path class="cls-2" d="M303.66,131.51v-22.25h3.59v19.16h7.67v3.09h-11.25Z"/>
        <path class="cls-2" d="M334.17,131.79c-7.42,0-10.2-4.82-10.2-10.79,0-6.89,3.52-11.93,11-11.93,1.64,0,3.43.22,4.95.68l-.53,3.31c-1.48-.56-3.09-.87-4.7-.87-4.7,0-6.8,3.55-6.8,8.22,0,5.19,2.19,8.16,7.05,8.16,1.51,0,3.34-.43,4.57-1.02l.59,3.12c-1.61.65-3.74,1.11-5.93,1.11Z"/>
        <path class="cls-2" d="M352.13,131.85c-6.74,0-9.98-4.39-9.98-11.16,0-7.42,4.85-11.78,10.69-11.78,6.74,0,10.01,4.39,10.01,11.16-.03,7.42-4.85,11.78-10.72,11.78ZM352.47,112.13c-3.62,0-6.52,2.91-6.52,8.1s2.1,8.41,6.52,8.41c3.62,0,6.52-2.87,6.52-8.1.03-5.04-2.13-8.41-6.52-8.41Z"/>
        <path class="cls-2" d="M388.04,131.51l-1.79-11.93c-.31-2.23-.53-4.2-.68-5.59h-.06c-.28,1.21-.65,2.87-1.17,4.57l-4.27,12.95h-3.62l-4.02-12.12c-.59-1.85-1.11-3.8-1.45-5.44h-.06c-.12,1.89-.34,3.86-.59,5.9l-1.42,11.65h-3.62l3.31-22.25h4.33l4.3,12.92c.37,1.14.9,3,1.27,4.51h.06c.4-1.61.8-3.09,1.21-4.39l4.33-13.07h4.36l3.4,22.25h-3.8v.03Z"/>
        <path class="cls-2" d="M401.21,123.51c-.99,0-1.85-.09-1.85-.09v8.13h-3.59v-22.25s3-.12,5.87-.12c5.29,0,8.19,2.5,8.19,6.68-.03,4.39-3.15,7.67-8.62,7.67ZM401.3,112.1c-.99,0-1.95.03-1.95.03v8.22s.96.15,2.1.15c3.06,0,4.61-1.64,4.61-4.3s-1.48-4.11-4.76-4.11Z"/>
        <path class="cls-2" d="M413.38,131.51v-22.25h11.74v2.97h-8.16v6.37h7.76v2.94h-7.76v6.92h8.16v3.06h-11.74Z"/>
        <path class="cls-2" d="M437.62,112.29v19.22h-3.59v-19.22h-6.12v-3.03h15.86v3.03h-6.15Z"/>
        <path class="cls-2" d="M446.95,131.51v-22.25h3.59v22.25h-3.59Z"/>
        <path class="cls-2" d="M463.49,112.29v19.22h-3.59v-19.22h-6.12v-3.03h15.86v3.03h-6.15Z"/>
        <path class="cls-2" d="M472.82,131.51v-22.25h3.59v22.25h-3.59Z"/>
        <path class="cls-2" d="M491.36,131.51h-4.08l-7.91-22.25h3.96l4.7,13.75c.46,1.27.99,2.97,1.39,4.42h.06c.37-1.48.9-3.12,1.45-4.7l4.79-13.51h3.71l-8.07,22.28Z"/>
        <path class="cls-2" d="M502.31,131.51v-22.25h11.74v2.97h-8.16v6.37h7.76v2.94h-7.76v6.92h8.16v3.06h-11.74Z"/>
        <path class="cls-2" d="M532.19,131.51l-7.88-13.38c-.9-1.58-1.58-2.97-2.16-4.39.12,2.16.22,8.13.22,11.65v6.15h-3.46v-22.25h4.79l7.73,13.14c.83,1.39,1.64,3,2.32,4.45-.09-2.5-.22-8.41-.22-11.93v-5.66h3.46v22.25h-4.79v-.03Z"/>
        <path class="cls-2" d="M542.86,131.51v-22.25h11.74v2.97h-8.16v6.37h7.76v2.94h-7.76v6.92h8.16v3.06h-11.74Z"/>
        <path class="cls-2" d="M563.56,131.85c-1.89,0-3.55-.19-4.98-.59l.43-3.46c1.39.56,3.03.93,4.73.93,2.35,0,4.36-.96,4.36-3.4,0-4.7-9.77-2.72-9.77-9.92,0-3.8,2.91-6.46,8.07-6.46,1.27,0,2.78.15,3.99.43l-.37,3.15c-1.17-.4-2.5-.62-3.83-.62-2.81,0-4.11,1.27-4.11,3.12,0,4.42,9.89,2.81,9.89,9.83,0,4.05-3.34,6.99-8.41,6.99Z"/>
        <path class="cls-2" d="M580.25,131.85c-1.89,0-3.55-.19-4.98-.59l.43-3.46c1.39.56,3.03.93,4.73.93,2.35,0,4.36-.96,4.36-3.4,0-4.7-9.77-2.72-9.77-9.92,0-3.8,2.91-6.46,8.07-6.46,1.27,0,2.78.15,3.99.43l-.37,3.15c-1.17-.4-2.5-.62-3.83-.62-2.81,0-4.11,1.27-4.11,3.12,0,4.42,9.89,2.81,9.89,9.83,0,4.05-3.34,6.99-8.41,6.99Z"/>
      </g>
    </g>
    <g>
      <g>
        <g>
          <rect class="cls-2" x="584.7" y="6.27" width="3.96" height="25.34"/>
          <path class="cls-2" d="M504.5,29.55c0-8.16-3.21-12.12-8.44-14.37l9.36-5.69v-3.93l-13.91,8.72v2.91c6.03,1.58,8.99,4.91,9.15,11.34h-93.03v-14.22h-3.93v15.67c0,7.36-5.29,7.23-9.8,7.23v3.52c4.27,0,12.73.09,13.63-9.09h96.96v-2.1Z"/>
          <path class="cls-2" d="M574.32,28.5h-13.54v-6.03c0-5.1-2.57-8.16-7.91-8.16-6.09,0-9.15,4.14-9.15,8.78,0,4.27-1.58,5.44-3.89,5.44h-23.21v-14.22h-3.93v15.67c0,7.36-5.29,7.23-9.8,7.23v3.52c4.27,0,12.73.09,13.63-9.09h23.86c3,0,4.57-1.3,5.13-3.09,1.24,1.82,2.94,3.09,8.19,3.09h24.51V6.31h-3.93v22.19h.03ZM556.89,28.5h-3.21c-4.2,0-6.03-1.82-6.03-5.59,0-3.25,1.82-5.47,4.88-5.47,2.72,0,4.36,1.61,4.36,5.56v5.5h0Z"/>
          <rect class="cls-2" x="403.65" y="6.27" width="3.93" height="3.93"/>
        </g>
        <g>
          <path class="cls-2" d="M229.27,13.97l-1.48,3.25c5.32,2.38,6.74,5.69,6.8,11.28h-13.04v3.12h16.94v-2.04c0-8.31-2.13-12.49-9.21-15.61Z"/>
          <polygon class="cls-2" points="370.73 28.5 359.61 28.5 359.61 31.62 374.69 31.62 374.69 6.27 370.73 6.27 370.73 28.5"/>
          <rect class="cls-2" x="381.15" y="6.27" width="3.96" height="25.34"/>
          <path class="cls-2" d="M348.08,28.5h-18.58v-.09c0-2.5,0-7.45-3.46-10.88-2.16-2.16-5.32-3.28-9.46-3.25h-4.54v3.37h4.54c9.27,0,9.27,7.02,9.27,10.54v.31h-77.79V6.27h-3.96v25.34h107.87V14.28h-3.93v14.22h.03Z"/>
          <path class="cls-2" d="M224.94,24.54v-1.14c0-5.47-2.13-9.09-8.84-9.09-3.03,0-5.87.53-5.87.53v13.66h-2.81c-7.17,0-9.36-2.6-9.36-7.88,0-1.98.49-4.39,1.33-6.09l-4.23.68c-.59,1.48-1.05,3.77-1.05,5.87,0,6.68,3.46,10.54,12.83,10.54h7.08v-14s1.17-.22,2.19-.22c3.55,0,5.29,1.73,5.29,6.09v1.05h3.46Z"/>
          <rect class="cls-2" x="348.08" y="6.27" width="3.93" height="3.93"/>
          <rect class="cls-2" x="342.64" y="6.27" width="3.93" height="3.93"/>
          <rect class="cls-2" x="206.68" y="36.81" width="3.93" height="3.93"/>
          <rect class="cls-2" x="201.27" y="36.81" width="3.93" height="3.93"/>
          <polygon class="cls-2" points="367.61 25.5 362.02 6.06 358.09 6.58 363.53 25.5 367.61 25.5"/>
        </g>
      </g>
      <g>
        <g>
          <rect class="cls-2" x="561.46" y="53.28" width="3.93" height="3.93"/>
          <rect class="cls-2" x="556.02" y="53.28" width="3.93" height="3.93"/>
          <rect class="cls-2" x="428.65" y="83.82" width="3.93" height="3.93"/>
          <rect class="cls-2" x="423.21" y="83.82" width="3.93" height="3.93"/>
          <rect class="cls-2" x="546.35" y="53.28" width="3.93" height="3.93"/>
          <rect class="cls-2" x="504.81" y="53.28" width="3.93" height="3.93"/>
          <rect class="cls-2" x="405.32" y="53.28" width="3.93" height="3.93"/>
          <rect class="cls-2" x="399.88" y="53.28" width="3.93" height="3.93"/>
          <polygon class="cls-2" points="584.74 53.28 584.74 75.51 576.24 75.51 576.24 53.28 572.34 53.28 572.34 75.51 562.67 75.51 562.67 61.32 558.74 61.32 558.74 75.51 550.24 75.51 550.24 61.32 546.35 61.32 546.35 75.51 525.11 75.51 525.11 53.28 521.16 53.28 521.16 78.66 588.66 78.66 588.66 53.28 584.74 53.28"/>
          <path class="cls-2" d="M507.44,61.32c-6.09,0-9.18,4.14-9.18,8.78,0,2.81.83,4.61,2.38,5.66,0,0-.8-.22-2.04-.22h-12.67c.28-.65.4-1.39.4-2.19v-12.02h-3.49v12.02c0,1.3-.87,2.16-2.16,2.16h-4.73c.25-.65.4-1.39.4-2.16v-9.86h-3.49v9.86c0,1.3-.87,2.16-2.16,2.16h-4.73c.25-.65.4-1.39.4-2.16v-7.67h-3.49v7.67c0,1.3-.87,2.16-2.16,2.16h-30.81v-14.22h-3.93v14.22h-16.29v-14.22c-4.23.22-7.79,1.92-10.69,5.07s-4.57,7.26-5.1,12.27h3.74c.28-1.64.62-3.06,1.02-4.23.34-1.05.8-2.16,1.51-3.31,1.42-2.5,3.03-4.11,4.85-4.98.22-.03.53-.15.93-.34v12.86h54.71c2.13,0,3.83-.83,4.79-2.26v2.26h5.22c2.13,0,3.83-.83,4.79-2.26v2.26h5.22c1.21,0,2.26-.28,3.12-.77v.77h31.53v-9.18c0-5.07-2.53-8.13-7.88-8.13ZM511.45,75.51h-3.21c-4.23,0-6.03-1.82-6.03-5.63,0-3.25,1.82-5.47,4.88-5.47,2.72,0,4.36,1.61,4.36,5.56v5.53h0Z"/>
        </g>
        <g>
          <rect class="cls-2" x="355.19" y="53.28" width="3.96" height="25.34"/>
          <path class="cls-2" d="M200.34,72.76c0-1.45,1.08-2.47,3.15-2.47,1.24,0,2.47.22,2.94.31l.46-3.15c-.53-.06-1.82-.25-3.12-.25-5.35,0-7.42,2.91-7.42,5.75,0,1.33.59,2.38,1.58,2.84-.9-.15-2.35-.25-3.83-.25v3.12h13.94v-3.12h-3.25c-3.25-.03-4.45-1.17-4.45-2.78Z"/>
          <path class="cls-2" d="M338.9,84.32c0-.65.59-1.11,1.67-1.11.8,0,1.45.09,1.79.22l.4-2.23c-.4-.09-1.14-.22-1.98-.22-3.09,0-4.61,1.55-4.61,3.31,0,.74.37,1.17.71,1.39-.53-.09-1.3-.19-2.04-.19v2.23h8.62v-2.19h-2.19c-1.7,0-2.38-.43-2.38-1.21Z"/>
          <polygon class="cls-2" points="344.77 75.51 333.64 75.51 333.64 78.66 348.73 78.66 348.73 53.28 344.77 53.28 344.77 75.51"/>
          <path class="cls-2" d="M314.23,61.32h-4.54v3.37h4.54c9.27,0,9.27,7.02,9.27,10.54v.31h-27.04v-.71c0-8.78-3.21-13.48-9.52-13.48-4.14,0-8.38,3.06-11.22,7.51v-4.17h-3.65v6c0,2.94-.77,4.27-1.64,4.85h-53.56v-22.22h-3.96v25.34h114.23v-3.21c0-2.5,0-7.45-3.46-10.88-2.16-2.16-5.32-3.31-9.46-3.25ZM292.75,75.51h-17.28c2.07-5.75,7.11-10.85,11.31-10.85,3.71,0,6.03,3.83,6.03,9.52-.03.43-.03.9-.06,1.33Z"/>
          <path class="cls-2" d="M373.76,61.32c-6.34,0-9.24,4.23-9.24,8.96,0,5.13,2.6,8.38,9.52,8.38h3.28v.71c0,3.8-2.78,5.25-6.58,5.25-2.78,0-5.69-.68-5.69-.68l-.28,3.28s2.84.53,5.56.53c7.85,0,10.82-4.14,10.82-8.65v-16.5s-3.28-1.27-7.39-1.27ZM377.32,75.51h-2.81c-4.23,0-6-1.92-6-5.63,0-3.25,1.82-5.47,4.85-5.47,2.38,0,3.96.74,3.96.74v10.35Z"/>
          <polygon class="cls-2" points="341.65 72.54 336.05 53.07 332.13 53.62 337.57 72.54 341.65 72.54"/>
        </g>
      </g>
    </g>
  </g>
</svg>