<?xml version="1.0" encoding="UTF-8"?>
<svg id="Layer_1" xmlns="http://www.w3.org/2000/svg" version="1.1" viewBox="0 0 480.36 144.51">
  <!-- Generator: Adobe Illustrator 30.2.1, SVG Export Plug-In . SVG Version: 2.1.1 Build 1)  -->
  <defs>
    <style>
      .st0 {
        fill: #ad833b;
      }
    </style>
  </defs>
  <path class="st0" d="M47.05,133.8c-.21-.02-.42-.04-.63-.07-.21-.02-.42-.04-.62-.06.02-.19.05-.38.08-.57.03-.27.27-.48.57-.51.04,0,.07,0,.09-.02.23-.02.45-.08.64-.15-.04.46-.09.92-.14,1.37M53.96,135.29c.03-1.59.07-3.19.11-4.78-.61.49-1.22.98-1.85,1.47.48.13.59.46.57.79-.02.47-.03.94-.05,1.42-.42-.02-.83-.03-1.24-.05.06-1.24.12-2.47.19-3.7-.62.48-1.25.95-1.89,1.41.48.14.59.48.57.8l-.09,1.41c-.66-.04-1.32-.09-1.98-.15.25-2.89.49-5.76.73-8.66-.6.46-1.21.91-1.83,1.36.44.15.52.49.49.81-.1,1.04-.2,2.08-.3,3.12-.05.48-.41.71-.7.82-.19.09-.36.12-.37.15-.84.06-1.57.64-1.67,1.43l-.21,1.64c.49.06.99.12,1.48.17.13.02.27.03.4.05.7.08,1.4.14,2.1.19,1.85.15,3.7.25,5.55.29M41.35,134.15c.41.07.82.13,1.23.19.36-2.47.72-4.93,1.08-7.4.05-.32.22-.63.68-.67-.49-.58-.98-1.17-1.46-1.76-.51,3.22-1.03,6.42-1.54,9.64M36.65,132.16c-.2-.04-.41-.09-.61-.13-.2-.05-.4-.09-.6-.14.03-.14.07-.28.1-.42.24-.13.48-.26.72-.39.16.22.33.44.5.66-.03.14-.06.29-.09.42M39.83,125.51c.44.19.49.53.43.86-.39,2.09-.78,4.19-1.18,6.28-.41-.08-.82-.15-1.22-.24.06-.29.11-.57.17-.85-.5-.66-.98-1.31-1.45-1.98-.71.4-1.43.79-2.15,1.17l-.21.84c-.41-.1-.82-.21-1.22-.31.31-1.19.62-2.39.93-3.57-.71.34-1.42.67-2.15,1,.44.23.47.58.38.9-.12.46-.25.91-.38,1.37-.18-.05-.36-.1-.53-.15h0c-.34-.1-.67-.2-1.01-.3,0-.43.06-.86.14-1.29.28-1.33.64-2.85-1.04-4.64-.48.23-.97.45-1.47.67,1.18.35,1.66,1.45,1.85,2.32.17,1.06-.41,1.85-.1,2.75-.58-.17-1.16-.35-1.74-.53h0c.05-.14.09-.28.14-.42.29-.9-.31-1.92-1.34-2.27-.07-.02-.15-.05-.22-.08-2.27-.79-4.51-1.68-6.72-2.66.15-.33.29-.67.44-1,.13-.29.44-.38.76-.24-.34-.74-.66-1.48-.98-2.22-.6,1.31-1.21,2.63-1.81,3.94,2.68,1.23,5.41,2.33,8.17,3.28.39.14.61.52.5.85-.05.14-.09.28-.14.42-.13.38-.25.75-.39,1.13-.25.11-.5.21-.76.31l-.42-.75c.13-.37.26-.74.39-1.1-.29-.1-.59-.21-.88-.32-.1-.04-.2-.07-.3-.11-2.24-.82-4.45-1.74-6.62-2.74-.15.33-.31.66-.46.99,2.21,1.01,4.44,1.94,6.7,2.77-.06.17-.12.34-.19.51.42.73.84,1.46,1.28,2.19.79-.29,1.56-.6,2.33-.92.05-.18.11-.36.17-.54.87.28,1.74.55,2.62.8.17.25.38.46.65.65-.12-.18-.22-.37-.3-.55.73.21,1.46.41,2.2.6,1.02.26,2.05.51,3.08.74,1.03.23,2.05.44,3.09.63.04,0,.09.02.13.02.36.07.73.13,1.09.2h.01c.56-3.21,1.1-6.42,1.66-9.62-.64.41-1.29.8-1.95,1.19M51.96,136.31c-.36-.02-.64.22-.66.51-.02.3.25.55.61.57s.64-.21.66-.52c0-.29-.25-.55-.61-.56M48.05,4.42c.48,0,.86.36.86.82-.26-.26-1.26-.47-1.73,0,0-.46.39-.82.86-.82M50.21,5.48c-.36,2.73-3.87,2.73-3.99.71.63,2.19,4.02,1.04,3.02-1.39,1.34-.51,2.33-.55,3.41-.72-2.79-.44-6.08-.78-8.12.15-1,.45-.72,1.06-.57,1.31.16-.53,1.05-.56,1.69-.35-.48,4.11,4.78,3.62,4.55.29M15.39,124.73c-.19-.1-.39-.19-.58-.29-.19-.1-.38-.2-.57-.3.08-.16.17-.32.25-.49.12-.24.43-.34.74-.25.04,0,.06.02.09.02.23.06.46.08.67.08-.2.41-.41.82-.61,1.23M18.03,118.06c.37.31.33.65.19.94-.46.94-.93,1.87-1.39,2.81-.21.43-.63.51-.96.52-.22,0-.39-.03-.41,0-.83-.25-1.71.04-2.09.74-.25.49-.52.96-.77,1.46.57.3,1.14.59,1.72.89.58.29,1.16.58,1.74.85,1.4-2.94,2.8-5.87,4.2-8.82-.74.22-1.48.42-2.23.6M49.43,136.17c-.35-.02-.66.2-.68.49-.02.3.25.56.61.59.35.02.65-.19.67-.5.02-.29-.25-.56-.6-.58M47.92,136.05c-.35-.03-.66.19-.69.48-.03.3.24.57.6.59.34.03.65-.18.68-.48.02-.29-.24-.56-.59-.59M33.63,126.95c.31.08.63-.08.71-.37.07-.28-.12-.59-.43-.67-.32-.09-.64.08-.71.36-.08.29.12.59.44.68M32.25,126.57c.31.09.63-.07.71-.36s-.12-.59-.42-.68c-.32-.09-.64.08-.72.36-.09.29.11.59.43.68M45.96,127.34c.32.04.6-.18.63-.48.03-.29-.19-.56-.5-.6-.3-.04-.59.18-.63.47-.04.3.19.58.5.61M75.61,128.3c.32-.07.52-.37.46-.66-.07-.3-.39-.48-.7-.4-.32.07-.52.37-.46.66.06.29.37.47.7.4M17.18,117.13c.29.15.62.06.76-.21.13-.26.02-.59-.26-.75-.28-.14-.62-.05-.76.21-.14.27-.02.6.26.75M46.11,126.04c.32.04.59-.17.62-.47.03-.29-.18-.56-.49-.6-.3-.04-.59.18-.62.47-.04.3.19.57.49.6M74.21,128.61c.32-.07.53-.37.46-.65-.06-.3-.38-.48-.69-.42-.32.07-.53.36-.47.66.06.29.37.48.7.41M16.57,118.29c.3.15.64.05.77-.22.13-.26.02-.59-.27-.75-.28-.15-.63-.05-.76.21-.15.27-.02.61.26.76M49.33,60.62c-.12-2.04-.19-4.35-.19-6.87,0-2.28.06-4.34.16-6.16,5.77-.52,14.04-.67,21.67,1.32.55,1.64.85,3.38.85,5.2s-.3,3.56-.85,5.19c-7.62,1.98-15.86,1.84-21.65,1.32M55.5,70.44c-1.82,0-3.61-.3-5.31-.89-.14-.87-.53-3.76-.8-7.95,5.69.49,13.68.63,21.18-1.2-2.46,5.9-8.29,10.04-15.07,10.04M39.17,54.11c0-6.59,4-12.54,10.02-15.06-.32,1.95-1.02,7.15-1.02,14.71s.69,13.33.98,15.4c-6.01-2.54-9.99-8.48-9.99-15.05M50.24,38.65c1.69-.58,3.46-.87,5.26-.87,6.77,0,12.59,4.15,15.06,10.03-7.52-1.83-15.53-1.69-21.21-1.2.28-4.34.73-7.12.88-7.97M55.5,36.82c-2.01,0-3.98.34-5.84,1.01-6.85,2.46-11.45,9-11.45,16.28s4.57,13.77,11.38,16.25c1.89.69,3.88,1.04,5.91,1.04,9.53,0,17.29-7.76,17.29-17.29s-7.76-17.29-17.29-17.29M95.82,128.39c-.17.08-.35.03-.41-.11-.07-.14.02-.3.18-.38.06-.03.13-.05.19-.04-.59-.19-1.12.45-.67.85-.16.1-.28.1-.36,0-.11.21-.21.43-.32.64.78-.35,1.56-.71,2.34-1.07-.25-.08-.5-.16-.76-.24.04.12-.05.27-.2.34M104.37,54.7v-4.3c0-1.82-.29-4.23-2.01-5.4.52,2.03.17,2.39.17,5.82v4.27c0,1.26.17,2.35.48,3.3-2-.97-4.14-3.07-4.14-6.79,0-1.24-.3-6.38-1.85-8.51v8.9c0,1.17.15,2.2.42,3.11-4.69-2.38-4.23-10.48-5.75-13.62,0,2.72.06,4.63.06,7.34,0,1.34.2,2.49.53,3.49-4.11-2.62-4.58-7.76-4.91-11.6-.4,1.42-1.05,5.17.07,8.7-2.76-2.11-4.29-6.6-4.1-9.81-.4,1.76-.83,4.41.03,7.07-.15,3.02-.12,26.85-.12,29.45-1.57-1.3-3.17-3.64-3-7.19.05-.58.12-1.13.2-1.66,1.1-7.44,1.33-18.16-1.75-26.73,2.48,13.39-.61,27.16-1.05,29.93-.77,4.95.91,15.2,4.4,26.58-.68-.67-3.01-1.64-3.94-2.58,0,1.03.37,2.13.37,4.38-1.2-2.01-1.66-2.09-2.93-4.32.4,2.62.29,2.85.29,5.11-1.24-2.34-1.91-5.45-4.76-9.9-6.34-9.9-15.48-3.76-15.48-2.04,0-1.72-9.13-7.86-15.47,2.04-2.85,4.45-3.51,7.56-4.76,9.9,0-2.26-.11-2.49.29-5.11-1.27,2.23-1.73,2.31-2.93,4.32,0-2.25.38-3.35.38-4.38-.94.93-3.27,1.91-3.94,2.58,3.49-11.38,5.18-21.63,4.4-26.58-.44-2.77-3.53-16.54-1.04-29.93-3.08,8.57-2.85,19.29-1.75,26.73.08.52.14,1.08.2,1.67.17,3.57-1.44,5.91-3.02,7.2,0-2.6.04-26.42-.12-29.47.87-2.66.44-5.31.03-7.07.19,3.21-1.34,7.71-4.1,9.81,1.12-3.54.47-7.28.06-8.7-.32,3.84-.79,8.98-4.9,11.6.33-1,.53-2.15.53-3.49,0-2.72.07-4.62.07-7.34-1.54,3.14-1.07,11.24-5.76,13.62.26-.91.41-1.94.41-3.11v-8.9c-1.54,2.14-1.85,7.27-1.85,8.51,0,3.71-2.14,5.82-4.14,6.78.3-.95.48-2.04.48-3.3v-4.27c0-3.43-.36-3.78.17-5.82-1.73,1.18-2.03,3.59-2.01,5.4v2.37h0v1.93c0,3.88-2.33,6.01-4.4,6.91.36-.46.74-1.73.74-3.6v-18.69c0-5.25,6.13-11.29,8.4-13.95,6.28-7.36,9.02-1.38,15.35.77,10.52,3.57,16.13-.42,16.13-.42,5.62-3.54,5.64-6.87,5.64-8.95,0-1.41-.54-3.24-1.57-4.42-1.92-1.92-5.33-2.54-5.94-2.42-1.28.66-2.42.66-2.65.84-.59-1.17-.44-2.96,2.21-4.44.74-.41.47-1.35,2.73-2.67,6.61-3.86,13.08-2.46,16.85,1.75-1.34-.49-2.62-.93-4.87-1.14,3.16,1.1,6.9,3.71,9.32,8.05.99,1.73,3.22,6.49,4.01,7.93,1.68,3.07,4.73,9.51,15.48,5.88,6.33-2.14,9.06-8.13,15.35-.77,2.27,2.66,8.4,8.7,8.4,13.95v18.69c0,1.87.39,3.13.74,3.6-2.07-.9-4.4-3.03-4.4-6.91M104.38,69.28v-5.34c0-.88-.03-1.66-.09-2.35.31.12.6.22.86.32.89.89,1.91,1.52,2.88,2.01v8.65c0,1.88.39,3.14.74,3.61-2.06-.9-4.38-3.03-4.4-6.89M104.46,87.42c0-.63-.08-5.82-.08-6.83,0-1.12-.05-3.03-.15-4.46.33.13.64.25.92.35.89.88,1.91,1.52,2.88,2v11.04c0,1.87.39,3.14.74,3.6-1.84-.8-4.32-3.01-4.32-5.71M104.46,115.43v-4.14h0c0-2.61-.08-4.87-.08-5.65v-6.16c0-.52-.02-3.21-.03-6.67.12.05.24.09.35.14.99,1.14,2.19,1.92,3.34,2.49v22.09c0,1.88.39,3.14.74,3.61-1.84-.8-4.32-3.11-4.32-5.71M98.87,66.17v-5.4c0-.95-.03-1.75-.09-2.43.21.08.42.16.61.23.96,1.03,2.09,1.75,3.17,2.28.02,1.13-.04,2.32-.04,3.51v5.29c0,1.26.17,2.35.48,3.3-2-.96-4.14-3.07-4.14-6.79M98.87,82.82v-5.4c0-.96-.03-2.98-.09-4.52.22.08.42.16.62.24.96,1.02,2.09,1.74,3.17,2.27.04,1.8-.03,4.28-.03,5.59v3.15h0v2.34h0v.12c0,1.13.14,2.13.39,3.01-1.81-.83-4.05-3.15-4.05-6.8M98.87,101.71v-5.4c0-.94-.03-4.4-.09-7.03,1.08,1.43,2.49,2.26,3.78,2.83-.02,3.99-.03,7.18-.03,7.79v5.12c0,1.88,0,2.96.35,3.42-1.54-.67-4.01-2.86-4.01-6.73M93.59,63v-4.89c0-1.01.01-1.68-.02-2.25.5.19,1.03.36,1.6.51.6.46,1.22.85,1.84,1.17v9.01c0,1.16.14,2.18.4,3.08-1.9-1.03-3.83-3.11-3.83-6.63M93.59,77.87v-4.89c0-1.87-.05-1.86-.05-2.77.52.22,1,.41,1.44.57.66.54,1.36.98,2.04,1.33v11.09c0,.39.02.74.04,1.09-1.78-1.08-3.47-3.12-3.47-6.42M97.02,93.62v8.38c-1.77-1.1-3.43-3.13-3.43-6.4v-4.9c0-1.43-.03-4.64-.05-6.55.99,1.31,2.25,2.18,3.47,2.82,0,2.28,0,6.3,0,6.65M88.98,60.57v-4.92c0-1.27-.02-2.19-.09-2.89.18.1.37.19.56.29.62.7,1.37,1.35,2.28,1.91.02.41.01.82.01,1.19v7.24c0,1.34.2,2.5.54,3.5-1.71-1.11-3.3-3.12-3.3-6.32M88.98,73.73v-4.92c0-.55,0-1.04-.02-1.47.23.13.47.25.72.37.63.63,1.32,1.14,2.02,1.57.05.59.05,1.2.05,1.74v7.24c0,.52.03,1,.09,1.47-1.53-1.16-2.85-3.09-2.85-6M91.74,88.75v6.08c-1.5-1.17-2.76-3.08-2.76-5.93v-4.92c0-.92-.01-2.63-.04-3.96.79,1.04,1.76,1.82,2.75,2.41.07,2.08.06,5.71.06,6.33M84.26,59.32c0-1.12-.08-7.02-.09-10.87.64,1.11,1.57,2.18,2.89,3.16.15,1.09.08,2.45.08,3.4v5.95c0,1.11.14,2.09.38,2.96-1.8-1.33-3.24-2.97-3.24-4.6M84.2,62.94c.59,1.07,1.58,2.2,2.94,3.23,0,.71-.01,1.42-.01,1.99v4.91c-1.62-1.27-2.87-2.79-2.87-4.31,0-.68-.03-3.13-.06-5.81M87.13,83.32v3.51c-1.62-1.27-2.87-2.79-2.87-4.31,0-1.06-.08-6.38-.09-10.2.58,1.07,1.57,2.22,2.93,3.26.09,2.24.03,6.9.03,7.75M82.74,103.74c.22.5.16,1.49.39,1.95.23.46.73.78.88,1.01.19.31.12,1.1.37,1.64.12.25.24.51.37.74-.17.18-.3.39-.42.58-.38-.85-1.32-.95-2.02-.51-.36.23-.78.58-1.11,1.14.14-.97-.04-1.28-.42-1.66-.56-.56-.33-1.72-.79-2.43-.35-.54-.99-.72-1.4-1.56-.41-.83-.21-1.28-.63-2.11-.47-.94-.59-1.24-.62-2.52.54.69,1.16,1.27,1.99,2.12.3-1.98.32-2.45.32-4.17.84.72,1.7,1.78,1.98,2.51.16.43.31,1.69.38,1.9.2.65.5.86.73,1.35M86.43,109.53c.88.07.4,3.9,1.04,5.23.66,1.35.38,2.48-.87,2.36-1.28-.12-1.2-4-1.21-4.68,0-.96-.49.51-.75,1.05-.05-.24-.11-.5-.15-.77-.09-.66-.02-1.08.02-1.48.34-.91,1.02-1.78,1.92-1.71M87.56,111.09c.35-1.15,1.31-2.75,2.41-2.5.86.19.04,2.96.56,4.31,1.02,2.64-.41,3.54-1.64,3.23-1.37-.34-.76-4.03-.64-4.57.03-.87-.42-.02-.73.47-.06-.22-.11-.38.04-.94M91.64,111.64l8.09,5.53v11.64c-12.87,7.29-27.28,11.52-42.14,11.83h-.24s-1.13.93-1.68,1.39h0c-.55-.46-1.68-1.39-1.68-1.39h-.24c-14.86-.31-29.27-4.54-42.13-11.83v-11.64l8.08-5.53c.2.11.4.22.6.34.03,1.16-.79,1.76-.6,2.95.15.99.76,1.7,1.48,2.02.19.44.55.79,1.03.99.49.18.43-.24.42-.87.11-.03.21-.06.32-.12.14.47.44.82.84,1.02.18.36.5.68,1.14,1.11.63.29.21-.39.09-1.01.23-.06.47-.16.7-.31.08.19.2.36.37.48.05.05.12.09.18.13.16.65.61,1.02,1.3,1.41.46.15.29-.37.24-.86.64,0,1.2-.35,1.45-1.39.12-.5.11-.81.08-1.07,7.68,3.27,15.97,5.48,24.09,5.74.29.22,2.23,1.68,2.23,1.68,0,0,1.95-1.47,2.24-1.68,8.07-.25,16.32-2.44,23.96-5.68-.02.25-.02.56.1,1.02.25,1.04.81,1.4,1.45,1.39-.05.49-.22,1.01.24.86.69-.39,1.14-.76,1.3-1.41.06-.04.12-.08.18-.12.17-.12.29-.29.37-.48.23.15.46.25.7.31-.12.62-.55,1.3.09,1.01.63-.42.96-.75,1.13-1.11.39-.2.7-.55.84-1.02.1.05.21.09.32.12,0,.63-.07,1.05.42.87.48-.2.84-.55,1.03-.99.72-.32,1.33-1.03,1.48-2.02.18-1.17-.6-1.76-.6-2.88.24-.13.47-.26.71-.4M20.72,112.9c.52-1.35-.31-4.12.55-4.31,1.1-.25,2.06,1.35,2.41,2.51.11.32.09.83.05.93-.31-.49-.77-1.34-.73-.47.12.53.73,4.22-.64,4.57-1.22.31-2.65-.59-1.63-3.23M24.81,109.53c.89-.07,1.57.8,1.91,1.71.05.41.12.83.03,1.48-.04.27-.09.53-.15.77-.26-.54-.75-2.01-.75-1.05,0,.68.06,4.56-1.22,4.68-1.25.12-1.53-1-.87-2.36.65-1.34.17-5.17,1.05-5.23M29.26,112.46c-1.05,1.9-.12,5.46-1.32,5.54-3.45.22-.89-4.11-.76-5.18.16-1.38.02-3.39,1.36-2.97,1.21.37,2.74,4.28,3.49,5.45,0,0,.02.03.04.04-.28-.11-.55-.22-.82-.34.08.03.14.05.17.05-1.23-.48-1.94-3.46-2.15-2.59M82.7,109.84c1.35-.42,1.2,1.6,1.36,2.97.12,1.08,2.69,5.41-.76,5.18-1.2-.08-.27-3.64-1.32-5.54-.19-.79-.76,1.65-1.78,2.5-.33.14-.66.27-1,.41.8-1.34,2.33-5.17,3.5-5.53M63.88,110.35c.86,5.02-4.09,5.3-4.83,1.43-.09-.49-.22-1.98-.38-3.95-.37-6.74-.93-17.43-.96-19.45.83-.53,1.83-.93,2.85-1.2.55,3.8,3.09,21.83,3.32,23.18M64.38,86.91c.53.1.98.28,1.3.55.49.33,1.02.8,1.58,1.36.89,3.37,4.5,16.87,4.82,18.22.39,1.63.82,3.11,1.5,3.8-2.18.41-3.73,0-4.23-1.98-.66-3.11-4.07-18.53-4.97-21.94M68.06,108.93c.29,1.66,1.61,4.02.09,4.38-2.35.58-2.56-.73-2.94-2.75-.01-.06-3.31-21.64-3.78-23.58.76-.14,1.49-.19,2.15-.16.49,2.38,4.24,20.77,4.47,22.11M53.88,110.98c0-2.62.4-19.3.48-21.99.66.58,1.12,1.26,1.25,2.02.13-.76.59-1.44,1.26-2.02.07,2.69.47,19.38.47,21.99,0,2.85-.75,3.88-1.74,4.46-.98-.59-1.73-1.61-1.73-4.46M37.86,106.86c-.64,2.27-2.19,4.64-2.56,5,1.34.5,3.77.9,5.49.22-.25.9-.23,1.71.53,2.48.94.94,3.58,1.61,4.86-.59,1.03,3.67,4.99,3.5,6.55.93.67,2.13,2.07,2.4,2.87,3.2.8-.8,2.2-1.07,2.88-3.2,1.55,2.57,5.52,2.74,6.55-.93,1.29,2.21,3.93,1.53,4.87.59.76-.76.77-1.58.53-2.48,1.72.68,4.15.29,5.49-.22-.36-.36-1.91-2.73-2.56-5-.78-2.76-3.66-12.72-4.95-16.8,3.5,4.02,7.5,10.84,7.76,14.42.11-.51.34-1.13.56-1.8.81,1.68,2.75,5.11,3.08,5.92.34.85.43,1.41.19,2.53-.18.82-.92,3.29-2.5,4.87v.02c-6.35,2.36-13.03,3.83-19.89,4.02-.56.46-1.94,1.5-1.94,1.5,0,0-1.38-1.04-1.94-1.5-6.84-.19-13.5-1.65-19.82-3.99,0,0,0,0,.01-.02-1.59-1.59-2.53-4.08-2.71-4.89-.24-1.13-.15-1.68.19-2.53.32-.81,2.27-4.25,3.07-5.92.22.67.45,1.29.56,1.8.26-3.58,4.27-10.4,7.77-14.42-1.29,4.08-4.17,14.04-4.96,16.8M41.88,108.85c-.51,1.98-2.05,2.39-4.23,1.98.68-.69,1.11-2.17,1.5-3.8.32-1.35,3.93-14.85,4.82-18.23.56-.56,1.1-1.02,1.58-1.35.32-.26.77-.45,1.3-.55-.9,3.41-4.31,18.83-4.97,21.94M50.67,87.17c1.02.27,2.01.68,2.85,1.2-.04,2.02-.59,12.7-.96,19.44-.15,1.98-.29,3.47-.38,3.96-.74,3.87-5.68,3.59-4.82-1.43.23-1.35,2.77-19.38,3.32-23.18M46.02,110.56c-.38,2.02-.59,3.33-2.93,2.75-1.52-.36-.19-2.73.09-4.38.25-1.44,3.93-19.39,4.47-22.11.66-.04,1.4.02,2.15.16-.47,1.94-3.77,23.53-3.77,23.58M26.86,108.35c.25-.55.18-1.34.37-1.64.14-.23.65-.55.88-1.01s.17-1.45.39-1.95.52-.7.73-1.35c.06-.21.22-1.47.38-1.9.28-.73,1.13-1.79,1.98-2.51,0,1.71.02,2.18.32,4.17.84-.85,1.45-1.42,2-2.12-.03,1.27-.14,1.57-.62,2.52-.42.83-.22,1.28-.63,2.11-.41.84-1.06,1.02-1.4,1.56-.46.7-.23,1.87-.79,2.43-.38.38-.55.69-.42,1.66-.33-.56-.75-.91-1.11-1.14-.7-.45-1.64-.35-2.02.5-.12-.19-.26-.4-.42-.58.13-.23.25-.49.37-.74M26.96,59.32c0,1.63-1.44,3.27-3.24,4.6.24-.88.37-1.85.37-2.96v-5.95c0-.95-.08-2.31.07-3.4,1.32-.97,2.25-2.05,2.89-3.16-.02,3.85-.1,9.75-.1,10.87M24.08,66.17c1.35-1.02,2.34-2.15,2.93-3.21-.03,2.67-.06,5.12-.06,5.8,0,1.52-1.24,3.04-2.86,4.31v-4.9c0-.57-.03-1.28-.02-1.99M26.95,82.52c0,1.51-1.24,3.04-2.86,4.3v-3.5c0-.85-.06-5.52.03-7.75,1.35-1.04,2.34-2.19,2.92-3.25-.02,3.83-.09,9.14-.09,10.2M22.25,55.65v4.92c0,3.2-1.59,5.21-3.31,6.32.34-1,.54-2.15.54-3.49v-7.24c0-.38,0-.79,0-1.19.91-.56,1.66-1.21,2.28-1.91.19-.1.38-.19.56-.29-.06.7-.08,1.63-.08,2.89M19.4,79.73c.05-.46.08-.95.08-1.47v-7.24c0-.55,0-1.15.04-1.74.7-.42,1.4-.93,2.02-1.57.25-.12.48-.24.71-.37v6.39c0,2.91-1.32,4.84-2.85,6M22.25,83.97v4.92c0,2.86-1.27,4.76-2.77,5.93v-6.08c0-.61,0-4.25.06-6.33.99-.59,1.95-1.37,2.75-2.41-.03,1.33-.04,3.04-.04,3.96M17.63,72.98v4.89c0,3.3-1.69,5.34-3.47,6.42.02-.35.04-.7.04-1.09v-11.09c.69-.35,1.38-.8,2.04-1.34.43-.16.92-.34,1.44-.56,0,.91-.05.9-.05,2.77M17.63,90.7v4.9c0,3.27-1.66,5.3-3.43,6.4v-15.02c1.22-.64,2.49-1.52,3.47-2.83-.02,1.92-.05,5.13-.05,6.55M13.8,69.64c.26-.9.41-1.92.41-3.08v-9.01c.62-.32,1.24-.71,1.84-1.17.57-.15,1.1-.32,1.6-.51-.02.56,0,1.24,0,2.25v4.89c0,3.53-1.93,5.61-3.84,6.63M12.36,77.41v5.4c0,3.65-2.24,5.98-4.05,6.79.25-.88.39-1.88.39-3.01v-.12h0v-2.33h0v-3.16c0-1.31-.08-3.79-.04-5.59,1.08-.53,2.21-1.25,3.17-2.27.19-.08.4-.16.61-.24-.05,1.54-.09,3.55-.09,4.52M12.36,96.31v5.4c0,3.87-2.47,6.05-4.01,6.73.35-.46.36-1.54.36-3.42v-5.12c0-.6-.02-3.8-.02-7.79,1.28-.57,2.69-1.41,3.76-2.83-.05,2.64-.08,6.09-.08,7.03M8.66,60.85c1.08-.53,2.22-1.25,3.17-2.28.19-.07.4-.15.61-.23-.05.68-.08,1.48-.08,2.43v5.4c0,3.71-2.14,5.83-4.14,6.79.3-.95.48-2.05.48-3.3v-5.29c0-1.19-.06-2.38-.04-3.51M2.45,76.18c.36-.46.74-1.73.74-3.61v-8.65c.98-.49,1.99-1.13,2.89-2.01.26-.1.55-.2.86-.32-.05.69-.09,1.47-.09,2.35v5.32c0,3.88-2.33,6.01-4.4,6.91M6.85,80.59c0,1.01-.09,6.2-.09,6.83,0,2.69-2.47,4.91-4.31,5.71.36-.46.74-1.73.74-3.6v-11.04c.98-.49,1.99-1.13,2.89-2,.28-.1.58-.22.91-.35-.09,1.43-.14,3.34-.14,4.46M6.85,99.49v6.16c0,.77-.07,3.04-.09,5.64h0v4.14c0,2.59-2.47,4.91-4.31,5.71.36-.46.74-1.73.74-3.61v-22.09c1.15-.57,2.35-1.35,3.34-2.49.11-.04.23-.08.35-.14-.02,3.46-.03,6.15-.03,6.67M43.1,11.38h0c-.48.14-3.03.57-3.35.25.56-.29.94-.46,2-1.13.78.06,1.53.54,2.74,1.26-.67-.27-.74-.5-1.39-.38M109.88,79.28c.52.2.99.36,1.35.5-1.45-2.19-1.35-5.75-1.35-6.59v-8.48c.52.2.99.36,1.35.51-1.45-2.2-1.35-5.75-1.35-6.59v-19.74c0-5.46-8.35-18.69-15.41-18.87-5.01-.12-10.89,6.92-18.09,5.1-2.31-.6-4.15-3.08-5.67-6.14-2.68-5.48-5.26-12.81-11.79-17.05-7.23-4.69-15.55.55-16.51,1.38-.82.75-2.12,3-2.82,3.36-2.26,1.18-2.63,3.16-2.63,3.91s.17,2.57,1.54,3.61c-.19-.89-.24-1.39-.03-1.84.9.15,2.88.56,4.16.03.63.63,2.13,1.83,2.78,3.07.91,1.72.92,1.99.92,2.66,0,1.75-.82,4.26-3.32,5.9-2.62,1.87-8.82,2.92-16.58.26-4.2-1.44-5.92-4.35-9.68-4.25-7.06.18-15.41,13.41-15.41,18.87v19.74c0,.84.11,4.39-1.34,6.59.37-.15.83-.31,1.34-.51v8.48c0,.84.11,4.39-1.34,6.59.37-.15.83-.31,1.34-.5v10.87c0,.84.11,4.39-1.34,6.59.37-.15.83-.29,1.34-.49v21.91c0,.63.06,2.78-.52,4.75-.19.66.25,1.44.94,1.17,2.83-1.13,6.94-3.33,6.94-9.48v-3.46c2.03-.89,4.47-2.47,5.25-6.31,2.31-1.14,4.86-3.13,5.42-7.14,2.36-1.37,4.7-3.75,4.73-8.34,2.05-1.55,3.27-3.38,3.51-4.79.17-.95.29-3.23.33-5.86,1.48-1.08,2.55-2.32,3.17-3.44-.24,5.7-1.38,13.36-4.06,23.97.47,0,1.11-.11,1.75-.26-.36,2.14-2.18,7.23-3.4,9.55-.16-.01-.34-.01-.53.02-.4.07-.69.46-.89.94-.55-.84-1.24-2.2-2.84-1.68-.83.27-1.14.93-1.2,1.62-1.34.84-10.38,6.45-10.38,6.45v13.97c13.42,7.95,28.21,12.74,44.17,13.07.52.52,1.94,1.6,1.94,1.6,0,0,1.42-1.08,1.94-1.6,15.95-.33,30.74-5.12,44.17-13.07v-13.97s-9.8-6.08-10.51-6.53c-.09-.66-.4-1.27-1.2-1.54-1.6-.52-2.29.84-2.84,1.68-.19-.49-.49-.87-.89-.94-.19-.03-.37-.03-.53-.02-1.22-2.31-3.05-7.41-3.4-9.55.65.15,1.28.26,1.75.26-2.68-10.61-3.82-18.27-4.06-23.97.61,1.12,1.67,2.35,3.15,3.43.05,2.63.16,4.92.33,5.87.25,1.41,1.47,3.24,3.53,4.8.03,4.59,2.37,6.97,4.73,8.34.56,4.01,3.11,6,5.42,7.14.79,3.84,3.21,5.42,5.25,6.31v3.46c0,6.07,4.02,8.3,6.84,9.44.72.29,1.32-.26,1.13-.79-.69-2.06-.63-4.43-.63-5.1v-21.89c.52.2.99.32,1.35.47-1.45-2.2-1.35-5.75-1.35-6.59v-10.87h.03ZM89.66,127.82c-.19.07-.39.15-.58.23-.05-.14-.1-.27-.16-.41.13-.24.25-.49.38-.73.26.09.52.18.79.27.05.13.11.27.16.4-.2.08-.4.16-.59.24M88.74,125.49c-.37.73-.75,1.46-1.14,2.18.1.27.2.54.3.82-.4.15-.8.29-1.2.43-.72-2.01-1.43-4.01-2.14-6.02-.11-.31-.1-.66.3-.92-.72-.28-1.43-.57-2.13-.86.93,2.74,1.87,5.47,2.8,8.21.12.34.24.69.35,1.03.3-.1.6-.21.91-.31l.29-.1c1-.36,2-.73,2.99-1.12.59-.23,1.18-.48,1.77-.72-.25-.6-.51-1.2-.76-1.8-.78-.26-1.56-.53-2.33-.81M97.68,125.42c.38-.19.76-.39,1.14-.58-1.15-2.21-2.3-4.42-3.45-6.63-.15-.29-.19-.64.18-.95-.76-.17-1.51-.36-2.25-.56,1.3,2.59,2.6,5.17,3.9,7.75.16.32.33.65.49.97M77.23,59.34s.02.03.02.05-.02.03-.04.04l-1.15.26-.25,1s-.02.03-.05.04h0s-.04,0-.04-.03l-.57-.92-1.15-.03s-.04-.02-.05-.03v-.05l.73-.85-.29-1.07s0-.04.02-.05.04-.02.06,0l1.04.46.91-.59h.06s.02.03.02.05l-.2,1.01.92.73v-.02ZM65.71,71.51l-.51-1.97s-.02-.03-.05-.04c-.02,0-.04,0-.05.02,0,0-1,1.45-1.3,1.85-.5-.02-2.27-.15-2.28-.15-.02,0-.04.01-.05.03v.05l1.23,1.63c-2.2.84-4.59,1.3-7.08,1.3s-5.04-.5-7.3-1.39l1.16-1.54s.02-.04,0-.05c-.02-.02-.03-.03-.05-.03,0,0-1.78.14-2.28.15-.3-.4-1.3-1.85-1.3-1.85,0-.02-.03-.03-.05-.02-.02,0-.04.02-.04.04l-.47,1.81c-4.04-2.46-7.14-6.31-8.63-10.89l1.85-.05s.04-.02.04-.03c.01-.02,0-.04,0-.05,0,0-1.16-1.3-1.49-1.69.13-.5.62-2.17.62-2.18,0-.02,0-.04-.01-.05-.02-.02-.03-.02-.05-.01l-1.71.76c-.13-.93-.21-1.88-.21-2.85,0-4.05,1.22-7.82,3.31-10.97l1.13,1.34s.02.02.04.02h.01s.03-.02.04-.04c0,0,.3-1.73.39-2.21.48-.21,2.13-.85,2.13-.85.02,0,.03-.02.04-.04,0-.02-.01-.04-.03-.05l-1.62-.84c3.24-3.45,7.69-5.74,12.66-6.2l-.36,1.85s0,.04.02.05h.06s1.54-.88,1.98-1.1c.44.22,1.99,1.1,1.99,1.1h.05s.02-.03.02-.05l-.37-1.87c5.04.39,9.57,2.66,12.87,6.12l-1.82.94s-.03.03-.03.05.01.04.03.05c0,0,1.65.64,2.13.85.1.48.39,2.21.39,2.21,0,.02.02.04.04.04h0s.03,0,.04-.02l1.29-1.54c2.16,3.19,3.43,7.03,3.43,11.16,0,1.01-.08,2-.23,2.97l-1.99-.88h-.05s-.02.04-.02.05c0,0,.49,1.68.62,2.18-.33.39-1.49,1.69-1.49,1.69-.02.02-.02.04,0,.05,0,.02.03.03.05.03l2.14.06c-1.52,4.67-4.72,8.59-8.88,11.04M66.24,72.74s0,.02-.02.02l-.9.49v1.17s0,.04-.02.05h-.06l-.92-.73-.56.24-.38.16h-.05v-.03s-.01-.02,0-.03l.15-.42.22-.58-.29-.39h0l-.39-.53v-.05s.02-.01.02-.02c0,0,.01-.02.02-.02l1.1.03.68-.89s.03-.02.05-.02.03.02.04.03h0l.17.65.12.46.76.25.26.08s.03.02.04.04c0,.01-.01.02-.02.03M47.98,72.12v.03l-.39.52-.29.39.16.42.21.58s0,.04-.01.05h-.05l-.25-.11-.5-.21h.03l-.22-.09-.35.28-.57.45s-.02.01-.03.01h-.02s-.02-.03-.02-.05v-1.17l-.9-.49s-.03-.03-.03-.05h0s.02-.03.03-.04l.51-.17.51-.17.15-.6.13-.51s.02-.03.04-.03.04,0,.05.02h0l.34.45.34.44,1.09-.02s.04,0,.05.02v.02M35.26,60.7s-.02.03-.04.03h0s-.04-.02-.04-.04l-.25-1-1.15-.26s-.03-.02-.04-.04c0-.02,0-.04.02-.05l.93-.73h0l-.04-.22h0l-.16-.79v-.04s0-.01.01-.02h.06l.9.59.56-.25.48-.22h.05s.02.03.02.05l-.29,1.08.73.85s.02.03,0,.05c0,.02-.02.03-.04.03l-1.15.03-.57.92v.03ZM37.84,42.24l.62-.82-.52-1.05v-.05s.03-.02.05-.02l1.16.26.67-.79s.04-.02.06-.02.03.02.03.04l.08,1.08,1.02.53s.03.02.03.04,0,.04-.03.05l-1,.45-.22,1.1s-.02.04-.04.04h-.01s-.03,0-.04-.02l-.28-.33-.46-.55-1.03.13h-.04s-.04,0-.05-.02v-.06M53.88,33s.02-.02.04-.02l1.02-.05.51-1.07s.03-.03.05-.03.04,0,.05.03l.51,1.07h.09l.7.03h0c.08,0,.17,0,.25,0,.02,0,.02.02.03.03h0v.05l-.77.74.22,1.13s0,.04-.02.05c0,0-.02,0-.03,0h-.02l-.99-.5-.99.5h-.05s-.02-.03-.02-.05l.1-.52.12-.6-.77-.74s-.02-.04,0-.05h0M70.55,41.1l.45-.23.08-1.08s.01-.04.03-.04h.03s.02,0,.03.02l.67.79.09-.02,1.07-.24s.04,0,.05.02c.01,0,.01.03,0,.05l-.52,1.05.61.83s.02.04,0,.05c-.01.02-.03.03-.05.02l-1.07-.13-.74.88s-.02.02-.04.02h-.02s-.03-.02-.03-.04l-.22-1.1-1-.45s-.03-.03-.03-.05,0-.04.03-.05l.58-.3ZM77.43,56.07s0-.04-.02-.05c-.02-.02-.04-.02-.06,0,0,0-.18.12-.42.3.06-.66.1-1.32.1-2,0-4.08-1.15-7.88-3.14-11.13.4.07.71.12.71.12.02,0,.04,0,.05-.02s.01-.04,0-.05c0,0-1-1.48-1.29-1.89.23-.46.92-1.99.92-1.99.01-.02,0-.04,0-.05-.01-.02-.03-.02-.05-.02l-2.12.48c-.34-.4-1.53-1.72-1.53-1.72-.02-.02-.03-.02-.06-.02-.02,0-.03.02-.03.05l-.06.8c-3.27-3.14-7.54-5.25-12.28-5.81.36-.33.68-.61.68-.61.02,0,.02-.03.02-.05s-.02-.03-.05-.03c0,0-1.8-.12-2.3-.15-.22-.45-.97-1.94-.97-1.94l-.02-.02s-.03,0-.05,0c-.01,0-.03,0-.03.03,0,0-.75,1.49-.97,1.94-.5.02-2.3.15-2.3.15-.02,0-.04.02-.05.03,0,.02,0,.04.02.05,0,0,.33.29.7.63-4.76.62-9.03,2.81-12.28,6.04l-.08-1.07s-.01-.03-.04-.04c-.02,0-.04,0-.05.02,0,0-1.19,1.32-1.53,1.72l-2.11-.48s-.04,0-.05.02c0,.02-.02.04,0,.05,0,0,.69,1.53.92,1.99-.29.4-1.29,1.89-1.29,1.89-.02.02-.02.04,0,.06,0,.02.03.02.05.02,0,0,.49-.08,1.03-.18-2,3.26-3.17,7.09-3.17,11.18,0,.75.04,1.49.12,2.22-.4-.28-.73-.52-.73-.52-.02-.02-.04-.02-.06,0-.02.01-.02.03-.02.05,0,0,.25,1.76.34,2.26l-1.71,1.36s-.02.03-.02.05.02.03.04.04c0,0,1.64.41,2.14.51.13.49.66,2.18.66,2.18,0,.02.02.03.04.04h0s.04,0,.05-.03c0,0,.21-.38.45-.81,1.59,4.33,4.54,8.01,8.33,10.51-.49.14-.92.26-.92.26-.02,0-.04.02-.04.04s0,.04.03.05c0,0,1.56.9,2,1.14,0,.29.03,2.18.03,2.18,0,.02.01.03.03.04h.02s.03,0,.03-.02l1.71-1.34,2.14.9h.05s.02-.04,0-.06c0,0-.16-.4-.35-.87,2.2.77,4.56,1.19,7.02,1.19,2.33,0,4.58-.38,6.68-1.07-.17.42-.3.75-.3.75,0,.02,0,.04.02.05.01.02.03.02.05,0l2.14-.9,1.71,1.34h.05s.03-.02.03-.05c0,0,.03-1.89.03-2.18.44-.24,2-1.14,2-1.14.02,0,.03-.03.03-.05s-.02-.04-.04-.04c0,0-.32-.09-.72-.21,3.74-2.45,6.68-6.03,8.3-10.26.16.29.28.5.28.5,0,.02.03.03.05.03h0s.04-.02.04-.04c0,0,.53-1.69.66-2.18.5-.11,2.14-.52,2.14-.52.02,0,.04-.02.04-.04s0-.04-.02-.05l-1.71-1.36c.09-.5.34-2.26.34-2.26M94.75,125.16c.06.13.12.26.19.39-.19.09-.39.18-.59.27-.19.09-.38.18-.57.26-.06-.13-.12-.26-.18-.39.12-.25.23-.5.34-.75.27.08.54.15.81.22M93.64,122.8c-.11.25-.22.51-.34.76-.26-.08-.52-.16-.78-.25-.78-1.71-1.55-3.43-2.32-5.14-.32.78-.66,1.56-1,2.34.47-.07.83.13.95.42.45,1.03.9,2.05,1.34,3.08.03.07.06.13.09.2.41.13.83.27,1.25.39-.19.4-.37.8-.56,1.2.26.6.52,1.2.78,1.79.59-.25,1.17-.51,1.75-.78s1.16-.55,1.74-.83c-.28-.59-.57-1.17-.85-1.76-.43-.12-.85-.23-1.27-.35.17-.41.35-.81.52-1.21-.52-1.08-1.05-2.15-1.57-3.23-.14-.29-.06-.69.3-1-.81-.24-1.62-.49-2.42-.76.8,1.7,1.6,3.4,2.4,5.1M67.76,126.25c-.64-.42-1.26-.86-1.88-1.29.39,3.24.77,6.46,1.16,9.7.42-.05.83-.1,1.25-.16-.33-2.47-.66-4.94-.99-7.41-.04-.32.02-.66.46-.83M80.18,124.33c-.09-.32-.07-.66.34-.9-.69-.32-1.39-.65-2.07-.98.78,2.78,1.57,5.57,2.35,8.35.1.35.2.7.3,1.05.4-.12.8-.23,1.2-.35-.71-2.39-1.41-4.78-2.12-7.17M60.38,133.04c-.26-.42-.52-.84-.78-1.27.12,0,.25,0,.36-.02.01-.32.12-.49.32-.67.22.16.36.32.4.63.12,0,.24-.02.36-.02-.22.45-.44.89-.66,1.34M63.23,126.76c.46.07.6.39.63.71.2,2.12.39,4.24.59,6.36-1.1.1-2.18.18-3.28.24.59-1.19,1.16-2.39,1.7-3.59-.47.04-.95.07-1.42.1-.2-.37-.79-.77-1.24-.79-.43.07-.98.52-1.13.9-.48.02-.95.03-1.43.04.65,1.15,1.34,2.29,2.04,3.41-1.07.04-2.14.07-3.2.07,0-1.09,0-2.17-.02-3.26-.59.55-1.2,1.09-1.82,1.62.37,0,.6.23.6.56,0,.9-.02,1.8-.02,2.71,0,.6-.57,1.09-1.27,1.07-.56,0-1.02-.33-1.18-.76.16.73.92,1.3,1.84,1.31,1.06.02,1.89-.72,1.88-1.62v-.54c1.33,0,2.66-.04,3.98-.11,1.36-.06,2.72-.16,4.07-.29.06,0,.12,0,.17-.02.36-.03.72-.07,1.08-.11-.35-3.24-.69-6.47-1.03-9.71-.5.57-1.02,1.13-1.54,1.68M77.1,128.86c.49,0,.69.27.76.58.17.67.34,1.34.51,2.01-1.8.46-3.61.85-5.44,1.2-.25.05-.49.09-.74.13-.38-.22-.75-.46-1.12-.69.85-.87,1.38-2.4,1.06-3.7-.21,1.8-1.02,3.07-3.03,3.8.91.6,1.84,1.18,2.79,1.75.42-.07.83-.15,1.24-.23,2.26-.42,4.5-.94,6.73-1.53-.46-1.74-.93-3.49-1.39-5.24-.45.64-.9,1.28-1.37,1.91M83.33,126.63c-.41.7-.83,1.4-1.25,2.1.34-.11.65.03.75.35.26.86.53,1.73.8,2.59.18.57-.24,1.21-.92,1.41-.53.16-1.07,0-1.35-.36.38.65,1.27.96,2.15.69,1.03-.31,1.62-1.27,1.34-2.13-.5-1.55-1.01-3.1-1.51-4.65M40.94,7.15c-.4,0-.73.27-.73.59,0,.29.26.54.61.58-.03-.05-.05-.1-.05-.15,0-.25.3-.45.68-.45.08,0,.15,0,.21.02h0c0-.34-.32-.6-.73-.6"/>
  <path class="st0" d="M175.11,108.65l-1.33,3.7c.59.41,1.28,1.01,2.06,1.78.96.96,1.42,1.69,1.42,2.15,0,.96-1.01,2.33-2.97,4.11-1.97,1.78-3.61,2.7-4.94,2.7-.64,0-1.46-.18-2.42-.5-.74-.24-1.2-.41-1.38-.47.06-.12.13-.23.19-.35,1.1-2.24,1.65-4.21,1.65-5.94,0-1.28-.32-2.56-1.01-3.79-.78-1.37-1.78-2.42-3.02-3.15l-1.28,3.7c.32.18.91.73,1.87,1.6,1.14,1.05,1.69,1.83,1.69,2.29,0,1.14-1.1,2.65-3.29,4.43-2.06,1.69-3.57,2.51-4.53,2.51-.46,0-1.24-.18-2.38-.55-1.14-.37-1.74-.55-1.83-.55-.14,0-.27.05-.36.14v.41c.27.32,1.42.91,3.47,1.69,2.06.82,3.43,1.23,4.21,1.23,1.62,0,3.04-1,4.25-3.02.24.21.53.41.87.6.14.09.55.27,1.14.55,2.47,1.1,4.3,1.65,5.44,1.65,1.69,0,3.2-1.19,4.53-3.57,1.23-2.15,1.83-4.25,1.83-6.31,0-2.83-1.28-5.17-3.89-7.04h.01ZM213.33,102.66c-.78,1.23-1.14,2.01-1.14,2.24l1.69,14.13c1.24-1.87,1.87-4.11,1.87-6.81l-.91-11.8c-.32.41-.82,1.19-1.51,2.24ZM202.96,101.15c-.23-.32-.32-.82-.32-1.46-.87,1.19-1.69,2.65-2.56,4.39.87.69,1.33,1.05,1.33,1.05.59,2.7,1.01,4.71,1.23,6.08.27,1.51.41,2.51.41,3.06,0,.27-.05.64-.14,1.1h-9.19c-.23-2.24-.82-4.3-1.87-6.13-.32-.59-.82-1.01-1.51-1.33-.05-.05-.18-.05-.41-.05-.5,0-.91.14-1.28.46-.78.59-1.46,1.42-2.06,2.56-.32.59-.69,1.46-1.1,2.61-.5,1.23-.73,2.1-.73,2.7,0,.18,0,.37.05.5.14.87,1.46,1.78,2.24,1.92,1.14.23,2.47.41,3.98.5-2.1,2.47-4.3,3.98-6.58,4.53-.6.14-1.14.23-1.56.23-.05,0-.64-.14-1.78-.46-1.1-.27-1.69-.41-1.74-.41-.32,0-.5.05-.55.09v.32c.59.64,1.6,1.23,3.02,1.74,1.6.64,2.83,1.05,3.66,1.28.32.05.59.09.91.09.5,0,.91-.05,1.23-.18.82-.37,1.51-.78,2.01-1.28.82-.69,1.55-1.65,2.24-2.88.32-.59.82-1.65,1.42-3.15h10.65c.18,0,.5-.18.64-.18l.87-4.57-.78-6.31c0-.18.05-.32.09-.41l1.78-2.29c.41-.5.69-.87.82-1.19-.87-.5-1.69-1.01-2.51-1.55-1.14-.73-1.78-1.19-1.92-1.37h0ZM190.43,114.77c-.14.09-.46.14-.96.14-.41,0-.64,0-.69-.05-.78-.14-1.28-.46-1.55-.87-.23-.32-.32-.55-.32-.78,0-.18.18-.46.5-.82.46-.46.87-.69,1.19-.69.55,0,1.14.64,1.65,1.51.14.23.27.69.5,1.28l-.32.27h0ZM416.57,105.86c-.09,0,.46-.5,1.6-1.46,1.6.96,2.51,1.46,2.83,1.46-.14,0,0-.09.37-.23.87-.96,1.46-1.65,1.78-2.15l-2.97-1.6-1.1.91c-.41.41-.69.59-.78.59-.18,0-.5-.14-1.6-.87-.55-.37-.87-.55-.91-.55-.09,0-.41.32-1.01.91-.59.59-.96,1.05-1.14,1.37.87.69,1.65,1.14,2.29,1.37.36.14.59.23.64.23v.02ZM153.26,100.42c-.32.41-.82,1.19-1.51,2.24-.78,1.23-1.14,2.01-1.14,2.24l1.69,14.13c1.24-1.87,1.87-4.11,1.87-6.81l-.91-11.8ZM172.69,105.22c.69.59,1.1.87,1.23.87.18,0,.55-.37,1.05-1.1.55-.73.82-1.14.82-1.28,0-.23-.32-.55-1.01-1.05-.69-.5-1.1-.73-1.28-.73-.23,0-.59.32-1.1.96-.5.59-.73,1.01-.73,1.23,0,.14.32.5,1.01,1.1h0ZM140.13,112.58c-1.55-.23-2.33-.59-2.33-1.1,0-.37.27-.69.87-1.01.5-.23.96-.37,1.42-.37.27,0,.73.18,1.33.5l1.19.69c.96-1.33,1.42-2.1,1.42-2.33,0-1.1-1.19-1.83-2.29-1.83-1.69,0-3.2.73-4.53,2.15s-2.01,2.93-2.01,4.53c0,.59.5,1.01,1.46,1.28l1.97.41c-.64.32-1.28.78-1.92,1.46-.73.78-1.1,1.46-1.05,2.06,2.65-1.55,4.11-2.38,4.34-2.47.87-.37,1.83-.59,2.97-.73l1.46-.18c.87-1.01,1.46-1.92,1.83-2.74h-3.02c-1.05-.14-2.06-.23-3.11-.32h0ZM359.88,105.08l1.37.41-.73.37c-.87.64-1.32,1.14-1.28,1.51v.32c2.51-1.42,4.34-2.19,5.44-2.29l.96-1.51c-.59.05-1.1.05-1.42.05-1.65,0-2.79-.18-3.43-.55-.37-.23-.55-.46-.55-.69,0-.14.05-.18.09-.23.27-.18.5-.32.64-.46.32-.18.64-.27.91-.27.14,0,.37.05.69.18.23.09.5.32.78.64.32-.87.5-1.33.5-1.37,0-.32-.14-.69-.36-.82-.5-.09-.73-.14-.73-.14-.37,0-.73.09-1.1.23-1.1.41-1.87,1.23-2.33,2.42-.23.5-.32.91-.32,1.14,0,.5.27.87.87,1.05h0ZM375.38,108.88l-1.28,3.7c.32.18.91.73,1.87,1.6,1.14,1.05,1.69,1.83,1.69,2.29,0,1.14-1.1,2.65-3.29,4.43-2.06,1.69-3.57,2.51-4.53,2.51-.46,0-1.24-.18-2.38-.55-1.14-.37-1.74-.55-1.83-.55-.14,0-.27.05-.36.14v.41c.27.32,1.42.91,3.47,1.69,2.06.82,3.43,1.23,4.21,1.23,1.87,0,3.47-1.33,4.8-4.02,1.1-2.24,1.65-4.21,1.65-5.94,0-1.28-.32-2.56-1.01-3.79-.78-1.37-1.78-2.42-3.02-3.15h.01ZM397.42,123.92c-.6.69-.91,1.1-.96,1.23,1.19,1.14,1.92,1.74,2.24,1.74.23,0,.64-.27,1.33-.78.69-.5,1.05-.87,1.1-1.1-1.55-1.37-2.38-2.06-2.42-2.06-.23,0-.64.32-1.28.96h0ZM366.14,115c.09-.78.14-1.37.14-1.78,0-.18,0-1.51-1.14-3.66-.55-.96-1.1-1.69-1.6-2.24-1.33,2.29-2.01,3.38-2.01,3.34,0,.09.23.46.69,1.05.5.78.82,1.28.96,1.55.09.14.23.55.46,1.23.18.59.32.87.46.87h-9.37c-.32,0-1.1-.41-1.33-.46-.23-.05-.37-.18-.41-.32-.32-2.29-.78-6.4-1.33-12.35l-.32-3.25c-.87.87-1.55,1.65-2.1,2.33-.32.41-.5.64-.5.78l1.6,16.92h15.13c.23-1.01.46-2.33.69-4.02h-.02ZM453.88,113.4c-.73-2.47-1.33-4.34-1.74-5.58-.05-.09-.14-.18-.27-.32-.69-.05-2.1.41-4.16,1.37-.87.41-1.74,1.14-2.51,2.19-.69.96-1.19,1.87-1.51,2.79l-.59,1.51h-6.22c-2.29-1.92-5.17-4.71-8.69-8.37,3.75-1.05,6.54-1.78,8.37-2.29l.73-3.43-5.26,1.23c-2.1.5-3.75,1.1-4.94,1.78-.59.37-.96,1.1-1.14,2.19-.23,1.42-.37,2.29-.5,2.51l6.49,6.04c0,.23-.05.32-.14.32h-7.87c-.5,0-1.51-.69-1.65-1.42-.05-.05-.05-.23-.05-.46l.36-4.25-1.28,1.23c-.55.5-.91,1.01-1.05,1.46-.14.27-.18.82-.18,1.65.05.82-.05,1.42-.27,1.78h-9.56c-1.46,0-3.02-.78-3.02-1.92,0,.05.05-.55.14-1.78.09-1.23.14-2.06.14-2.51l-2.24,2.65c-.09.59-.14,1.1-.09,1.51-.14,1.19-.27,1.87-.36,2.06h-12.53c-.78,0-1.92-1.1-2.33-2.01-.09-.14-.14-.46-.14-.96,0-.69.14-1.51.41-2.38.09-.37.14-.5.14-.46v-.59h-.32c-.5.64-.96,1.65-1.32,2.97-.37,1.23-.55,2.33-.55,3.34,0,1.55.46,2.61,1.42,3.15.64.41,1.14.59,1.51.59h12.76c.46-.78.96-1.51,1.51-2.19.32,1.1,1.28,2.19,2.19,2.19h11.43l1.28-2.19c.23.64.46,1.05.64,1.23.55.64,1.1.96,1.65.96h8.73c.87-1.28,1.56-2.15,1.97-2.65,1.14,1.14,1.97,2.01,2.56,2.65h6.81c.32-.27.64-.82.96-1.6.27-.69.64-1.1,1.14-1.28l6.95,2.51c1.24-1.92,1.87-2.97,2.01-3.2.23-.41.32-.73.32-.96,0-.41-.05-.78-.14-1.1v.04ZM446.52,112.26c0-.14.5-.5,1.46-.87.41-.14.73-.23,1.01-.23.5,0,.91.37,1.19,1.05.05.14.23.73.46,1.69l-4.11-1.65h-.01ZM300.57,108.88c-.23-.5-.5-.78-.87-.78-.14,0-.46.09-.96.32l-.96.32c-1.19.23-2.38,1.01-3.57,2.24-1.14,1.23-1.92,2.47-2.29,3.7-.09.23-.18.46-.32.59h-7.18c.27-.96.64-1.92,1.05-2.88-1.78-.05-4.16-.55-7.18-1.42-.69-.18-1.83-.69-3.43-1.46-1.05-.5-2.15-.78-3.38-.78-.73,0-1.14,0-1.23.05-1.51.46-2.88,1.92-4.02,4.43h.46c.78-.64,1.65-.96,2.61-.96.69,0,2.56.5,5.62,1.55.05.05.09.05.09.09-1.78.96-3.02,1.46-3.79,1.46h-8.09c-.78,0-1.14-.37-1.19-1.05-.41-4.89-.78-8.5-1.01-10.93-.14-1.23-.23-2.24-.37-3.06l-2.79,3.84,1.65,11.2h-5.94c-.59,0-.96-.14-1.1-.46.32-1.19.46-1.92.46-2.15v-2.88l-.78.73c-1.05,1.42-1.6,2.24-1.6,2.47,0,.05.09.37.23.87s.23.82.23.87c0,.23,0,.41-.05.55h-3.34v-1.05l1.01-3.89c-1.69,1.42-2.61,2.42-2.83,2.97-.05.82-.05,1.46,0,1.97h-4.12c-.14,0-.27-.37-.27-.37-.69-.5-1.24-1.23-1.74-2.19-.41-.82-.78-1.65-1.14-2.47-.41.59-1.01,1.42-1.69,2.56-.41.69-.64,1.05-.64,1.19,1.51,3.11,2.29,5.12,2.29,5.99,0,.59-1.01,1.23-3.06,1.87-1.78.55-3.2.82-4.16.82-1.33,0-2.42-.27-3.38-.78-1.28-.73-1.92-1.83-1.92-3.25,0-.59.55-2.29,1.65-5.12v-.64h-.36c-.64.41-1.37,1.69-2.15,3.84s-1.19,3.98-1.19,5.4c0,2.97,2.15,4.44,6.45,4.44,1.65,0,3.34-.41,5.08-1.23,1.37-.69,2.24-1.19,2.65-1.55.96-.87,1.74-2.51,2.33-4.85h4.71l.82-.82c.27.37.46.64.5.82h4.94c.05-.32.18-.69.41-1.1l.82,1.1h5.67l1.55-2.1c.18.37.32,1.78.73,2.1h10.01c.23,0,1.14-.41,2.65-1.19l2.42-1.23,1.28-.41h1.87c-.23,0,.73.05,2.88.09.23,1.01.41,1.92.46,2.74h8.96c.14,0,.55-.69,1.33-2.01.23-.37.5-.59.87-.73l6.81,2.38c1.1-1.55,1.78-2.65,2.06-3.25.09-.14.14-.41.14-.82,0-.46-.05-.82-.09-1.14-.59-2.06-1.14-3.57-1.55-4.57h-.02ZM298.97,114.18c-.96-.41-2.33-.96-4.07-1.55.5-.41.91-.64,1.28-.78.59-.23,1.01-.32,1.19-.32.23,0,.46.09.64.23.5.87.82,1.55.96,2.06v.37h0ZM273.19,122.64c-.14,0-.55.37-1.28,1.05-.73.69-1.1,1.1-1.1,1.19,0,.14.46.5,1.33,1.01.91.5,1.46.78,1.65.78.23,0,.64-.37,1.28-1.1.64-.73,1.01-1.19,1.1-1.37-.32,0-.87-.27-1.65-.78-.78-.5-1.23-.78-1.33-.78ZM316.3,102.7c1.51.96,2.42,1.42,2.65,1.42.09,0,.37-.27.87-.82.73-.78,1.14-1.19,1.19-1.28l-2.79-1.6c-1.14.96-1.69,1.46-1.65,1.46-.32,0-1.1-.5-2.38-1.46l-1.87,2.19c1.42.96,2.24,1.42,2.51,1.42.14,0,.64-.46,1.46-1.33h.01ZM343.37,111.67c-.69.87-1.05,1.33-1.05,1.42,0,.05.05.37.18.91l.18,1.37h-2.93v-1.14l.87-3.79c-.96.87-2.15,1.87-2.65,2.74-.23.96-.37,1.69-.41,2.19h-2.65c.14,0,.27-.32.32-.32-.18,0-.6.32-.78.32-.46,0-.96-.27-1.46-.78,0-.09.27-.96.82-2.65.32-1.01.46-1.78.41-2.29-1.42,1.42-2.42,2.47-2.97,3.25l-.09,1.28c-.14.78-.36,1.19-.69,1.19h-5.58c-.82,0-1.28-.18-1.37-.59-.87-4.71-1.51-8.28-1.83-10.65-1.33,2.24-1.97,3.34-1.97,3.25,0,.18.32.87.37,1.1-.87.59-1.83,1.19-2.83,1.74-1.51.87-2.33,1.65-2.56,2.29-.91,2.79-1.37,4.12-1.37,3.93v.5l5.53,1.1c.5-.05.96-.5,1.37-1.37s.82-1.42,1.19-1.55c.32,1.23.5,2.19.64,2.79.09.32.32.59.73.91.14.14.32.23.46.23h5.94c.37,0,.91-.41,1.69-1.28.14.55.82,1.28,1.37,1.28h4.62c.5,0,1.05-.82,1.19-.82.05,0,.18.27.5.82l4.71.09s.18-.05.37-.09c.05-.05.32-.73.91-2.1.27-.69.41-1.23.41-1.69v-5.35c-.36.32-.91.91-1.6,1.78v-.02ZM321.29,114h-2.06c-.32,0-1.28-.23-2.79-.69l1.87-.87c.82-.5,1.37-1.14,1.65-1.92.09-.32.32-.5.69-.64.41,1.78.64,2.93.64,3.43v.69Z"/>
  <path class="st0" d="M366.69,90.1c2.06,0,3.84-1.42,5.26-4.3,1.24-2.47,1.83-4.89,1.83-7.32,0-.69-.09-1.42-.32-2.24l-.37-1.14c-.23-.59-.55-1.19-.96-1.87-.69-.96-1.33-1.42-1.92-1.42-.96,0-2.01.87-3.16,2.61-.96,1.46-1.51,2.51-1.6,3.2v1.1c0,1.1.14,1.87.41,2.38.41.64,1.14.96,2.19.96,1.87,0,2.88-.69,3.75-3.11h.09c.14.41.23.82.23,1.23,0,1.6-1.28,3.34-3.84,5.26-2.33,1.78-4.12,2.65-5.35,2.65-.09,0-.69-.09-1.78-.32-1.1-.23-1.69-.32-1.74-.32-.41,0-.64.18-.64.55.41.32,1.55.78,3.52,1.28,1.97.55,3.43.82,4.39.82h.01ZM369.07,78.31c-.32,0-.69-.09-1.19-.23-.69-.23-1.05-.46-1.05-.78,0-.41.32-.78.91-1.1.5-.23.91-.37,1.19-.37.41,0,.82.14,1.19.46.41.41.64.91.64,1.55-.64.32-1.19.46-1.69.46h0ZM346.58,74.79v-.41s-.14-.05-.23-.09c-.69.23-1.42,1.37-2.15,3.47-.64,1.87-.96,3.29-.96,4.25,0,3.34,2.1,5.03,6.26,5.03,1.51,0,3.29-.41,5.26-1.19,2.38-.96,3.75-2.1,4.07-3.43.14-.37.23-.64.32-.78l.46-1.55c.32-1.01.46-1.83.46-2.47,0-1.05-.27-2.33-.78-3.84-.5-1.51-1.14-2.7-1.87-3.57-1.23,2.15-1.87,3.29-1.87,3.43,0,.05.41.91,1.19,2.65.82,1.74,1.23,2.97,1.23,3.7,0,.87-1.01,1.6-2.97,2.19-1.6.5-2.97.73-4.21.73-3.7,0-5.53-1.37-5.53-4.11,0-.91.23-1.78.64-2.65.46-.87.69-1.33.69-1.37h-.01ZM351.79,68.62c.69-.6,1.05-1.01,1.05-1.23,0-.14-.41-.46-1.19-1.05-.78-.59-1.28-.91-1.42-.91-.18,0-.55.37-1.1,1.05-.55.69-.87,1.14-.91,1.42,1.28,1.05,2.06,1.55,2.38,1.55.14,0,.5-.27,1.19-.82h0ZM216.27,68.16c.59,2.7,1.01,4.71,1.24,6.08.27,1.51.41,2.51.41,3.06,0,.27-.05.64-.14,1.1h-24.14c-.23-2.24-.82-4.3-1.87-6.13-.32-.59-.82-1.01-1.51-1.33-.05-.05-.18-.05-.41-.05-.5,0-.91.14-1.28.46-.78.59-1.46,1.42-2.06,2.56-.32.59-.69,1.46-1.1,2.61-.5,1.23-.73,2.1-.73,2.7,0,.18,0,.37.05.5.14.87,1.46,1.78,2.24,1.92,1.14.23,2.47.41,3.98.5-2.1,2.47-4.3,3.98-6.58,4.53-.59.14-1.14.23-1.55.23-.05,0-.64-.14-1.78-.46-1.1-.27-1.69-.41-1.74-.41-.32,0-.5.05-.55.09v.32c.59.64,1.6,1.23,3.02,1.74,1.6.64,2.83,1.05,3.66,1.28.32.05.59.09.91.09.5,0,.91-.05,1.23-.18.82-.37,1.51-.78,2.01-1.28.82-.69,1.55-1.65,2.24-2.88.32-.59.82-1.65,1.42-3.15h25.6c.18,0,.5-.18.64-.18l.87-4.57-.78-6.31c0-.18.05-.32.09-.41l1.78-2.29c.41-.5.69-.87.82-1.19-.87-.5-1.69-1.01-2.51-1.55-1.14-.73-1.78-1.19-1.92-1.37-.23-.32-.32-.82-.32-1.46-.87,1.19-1.69,2.65-2.56,4.39.87.69,1.33,1.05,1.33,1.05h-.01ZM190.35,77.81c-.14.09-.46.14-.96.14-.41,0-.64,0-.69-.05-.78-.14-1.28-.46-1.55-.87-.23-.32-.32-.55-.32-.78,0-.18.18-.46.5-.82.46-.46.87-.69,1.19-.69.55,0,1.14.64,1.65,1.51.14.23.27.69.5,1.28l-.32.27h0ZM178.92,78.72c0-2.83-1.28-5.17-3.89-7.04l-1.33,3.7c.59.41,1.28,1.01,2.06,1.78.96.96,1.42,1.69,1.42,2.15,0,.96-1.01,2.33-2.97,4.11-1.97,1.78-3.61,2.7-4.94,2.7-.64,0-1.46-.18-2.42-.5-.73-.25-1.2-.41-1.38-.47.06-.12.13-.23.19-.35,1.1-2.24,1.65-4.21,1.65-5.94,0-1.28-.32-2.56-1.01-3.8-.78-1.37-1.78-2.42-3.02-3.15l-1.28,3.7c.32.18.91.73,1.87,1.6,1.14,1.05,1.69,1.83,1.69,2.29,0,1.14-1.1,2.65-3.29,4.43-2.06,1.69-3.57,2.51-4.53,2.51-.46,0-1.23-.18-2.38-.55-1.14-.37-1.74-.55-1.83-.55-.14,0-.27.05-.37.14v.41c.27.32,1.42.91,3.47,1.69,2.06.82,3.43,1.23,4.21,1.23,1.62,0,3.04-1,4.25-3.02.24.21.53.41.87.6.14.09.55.27,1.14.55,2.47,1.1,4.3,1.65,5.44,1.65,1.69,0,3.2-1.19,4.53-3.57,1.23-2.15,1.83-4.25,1.83-6.31h.02ZM454.25,75.25l-.91-11.8c-.32.41-.82,1.19-1.51,2.24-.78,1.23-1.14,2.01-1.14,2.24l1.69,14.13c1.24-1.87,1.87-4.12,1.87-6.81h0ZM460.15,68.25c.69.6,1.1.87,1.24.87.18,0,.55-.37,1.05-1.1.55-.73.82-1.14.82-1.28,0-.23-.32-.55-1.01-1.05s-1.1-.73-1.28-.73c-.23,0-.59.32-1.1.96-.5.59-.73,1.01-.73,1.23,0,.14.32.5,1.01,1.1h0ZM465.36,88c.41.32,1.55.78,3.52,1.28,1.97.55,3.43.82,4.39.82,2.06,0,3.84-1.42,5.26-4.3,1.24-2.47,1.83-4.89,1.83-7.32,0-.69-.09-1.42-.32-2.24l-.37-1.14c-.23-.59-.55-1.19-.96-1.87-.69-.96-1.33-1.42-1.92-1.42-.96,0-2.01.87-3.16,2.61-.96,1.46-1.51,2.51-1.6,3.2v1.1c0,1.1.14,1.87.41,2.38.41.64,1.14.96,2.19.96,1.87,0,2.88-.69,3.75-3.11h.09c.14.41.23.82.23,1.23,0,1.6-1.28,3.34-3.84,5.26-2.33,1.78-4.12,2.65-5.35,2.65-.09,0-.69-.09-1.78-.32-1.1-.23-1.69-.32-1.74-.32-.41,0-.64.18-.64.55h.01ZM475.65,78.31c-.32,0-.69-.09-1.19-.23-.69-.23-1.05-.46-1.05-.78,0-.41.32-.78.91-1.1.5-.23.91-.37,1.19-.37.41,0,.82.14,1.19.46.41.41.64.91.64,1.55-.64.32-1.19.46-1.69.46h0ZM425.35,67.2c.78.41,1.28.64,1.55.64.23,0,.69-.46,1.46-1.37l2.79,1.46c.55-.23,1.23-.96,2.1-2.24-1.69-1.01-2.61-1.51-2.83-1.51-.09,0-.41.23-.91.69s-.78.69-.82.69c-.14,0-1.01-.46-2.52-1.37-.69.59-1.37,1.33-2.06,2.15.09.14.5.41,1.24.87h0ZM378.12,69.26c.87.37,1.56.59,2.01.73-1.1.69-1.69,1.33-1.83,1.83l.18.05c2.29-1.23,3.98-1.87,5.08-1.92.5-.59.82-1.14.96-1.55h-3.66c-1.01-.05-1.6-.32-1.83-.87l.18-.27c.41-.27.69-.46.82-.5.27-.14.55-.23.78-.23.09,0,.18,0,.23.05.55.14.96.37,1.19.69.5-.91.73-1.33.73-1.28,0-.64-.46-.96-1.32-.96s-1.69.46-2.52,1.33c-.78.87-1.19,1.74-1.19,2.56,0,.14.05.27.18.37v-.03ZM427.64,82.06c1.14,0,2.61-.5,4.34-1.51.32-.14.55-.46.73-.91l.32-.91c.5-1.87.78-2.88.78-3.06,0-1.05-.41-2.01-1.23-2.79l-3.29-2.74c-1.24,1.42-2.33,3.02-3.38,4.71-1.42,2.29-2.15,4.02-2.15,5.26,0,1.33,1.28,1.97,3.89,1.97v-.02ZM427.32,75.43c.36-.5.73-1.01,1.14-1.51,1.69,1.23,2.83,2.47,3.43,3.79v.32c-1.46.23-2.65.37-3.52.37-1.24,0-1.87-.46-1.87-1.33,0-.32.27-.87.82-1.65h0ZM410.31,66.79l-2.33-1.69c-1.14.78-1.87,1.42-2.15,1.92,1.51,1.05,2.29,1.6,2.33,1.6s.73-.6,2.15-1.83ZM406.74,72.09c.09,0,.32-.23.73-.73.5-.59.87-.96,1.05-1.1,1.6,1.14,2.56,1.74,2.83,1.83l1.01-1.28c.41-.55.64-.96.69-1.19l-2.74-1.55c-1.42,1.1-2.1,1.65-2.01,1.65-.09,0-.55-.27-1.42-.78-.82-.5-1.28-.78-1.33-.78s-.69.73-1.92,2.15c.5.41,1.05.78,1.65,1.1.87.46,1.33.69,1.46.69h0ZM302.45,89.65c.14,0,.55-.37,1.23-1.1.69-.69,1.01-1.1,1.05-1.23l-1.69-.96c-.69-.41-1.1-.64-1.19-.64-.14,0-.55.32-1.24,1.01s-1.01,1.1-1.01,1.19c0,.14.41.46,1.28.96s1.42.78,1.55.78h.02ZM443.09,71.91l-1.28,3.7c.32.18.91.73,1.87,1.6,1.14,1.05,1.69,1.83,1.69,2.29,0,1.14-1.1,2.65-3.29,4.43-2.06,1.69-3.57,2.51-4.53,2.51-.46,0-1.23-.18-2.38-.55-1.14-.37-1.74-.55-1.83-.55-.14,0-.27.05-.37.14v.41c.27.32,1.42.91,3.47,1.69,2.06.82,3.43,1.23,4.21,1.23,1.87,0,3.47-1.33,4.8-4.02,1.1-2.24,1.65-4.21,1.65-5.94,0-1.28-.32-2.56-1.01-3.8-.78-1.37-1.78-2.42-3.02-3.15h.02ZM333.73,78.49c.23-.41.32-.73.32-.96,0-.41-.05-.78-.14-1.1-.73-2.47-1.33-4.34-1.74-5.58-.05-.09-.14-.18-.27-.32-.69-.05-2.1.41-4.16,1.37-.87.41-1.74,1.14-2.52,2.19-.69.96-1.19,1.87-1.51,2.79l-.59,1.51h-8.32c-1.33,0-2.01,0-2.06-.05.37-1.23.69-2.19,1.01-2.88-2.61-.32-4.66-.69-6.17-1.14-.64-.18-1.92-.69-3.84-1.55-1.42-.64-2.56-.96-3.48-.96-2.15,0-3.79,1.51-4.98,4.57,1.37-.73,2.38-1.1,3.02-1.1.78,0,2.56.55,5.35,1.69-1.65.96-2.93,1.42-3.89,1.42h-10.29c-.78,0-1.14-.37-1.19-1.05-.41-4.89-.78-8.5-1.01-10.93-.14-1.23-.23-2.24-.37-3.06l-2.79,3.84,1.65,11.2h-17.41c-.59,0-.96-.14-1.1-.46.32-1.19.46-1.92.46-2.15v-2.88l-.78.73c-1.05,1.42-1.6,2.24-1.6,2.47,0,.05.09.37.23.87s.23.82.23.87c0,.23,0,.41-.05.55h-3.34v-1.05l1.01-3.89c-1.69,1.42-2.61,2.42-2.83,2.97-.05.82-.05,1.46,0,1.97h-4.12c-.14,0-.27-.37-.27-.37-.69-.5-1.23-1.24-1.74-2.2-.41-.82-.78-1.65-1.14-2.47-.41.59-1.01,1.42-1.69,2.56-.41.69-.64,1.05-.64,1.19,1.51,3.11,2.29,5.12,2.29,5.99,0,.59-1.01,1.23-3.06,1.87-1.78.55-3.2.82-4.16.82-1.33,0-2.42-.27-3.38-.78-1.28-.73-1.92-1.83-1.92-3.25,0-.59.55-2.29,1.65-5.12v-.64h-.37c-.64.41-1.37,1.69-2.15,3.84-.78,2.15-1.19,3.98-1.19,5.4,0,2.97,2.15,4.43,6.45,4.43,1.65,0,3.34-.41,5.07-1.23,1.37-.69,2.24-1.19,2.65-1.55.96-.87,1.74-2.51,2.33-4.85h4.71l.82-.82c.27.37.46.64.5.82h4.94c.05-.32.18-.69.41-1.1l.82,1.1h17.14l1.55-2.1c.18.37.32,1.78.73,2.1h12.3c.32,0,1.19-.37,2.51-1.05l2.29-1.28c.5-.27.96-.41,1.28-.46.32-.05,1.05-.05,2.19-.05,1.37,0,2.24.05,2.65.18.14.64.27,1.51.41,2.65h12.21c.32-.27.64-.82.96-1.6.27-.69.64-1.1,1.14-1.28l6.95,2.51c1.23-1.92,1.87-2.97,2.01-3.2l.02.04ZM326.55,75.29c0-.14.5-.5,1.46-.87.41-.14.73-.23,1.01-.23.5,0,.91.37,1.19,1.05.05.14.23.73.46,1.69l-4.12-1.65h0ZM464.63,85.03c1.24-2.15,1.83-4.25,1.83-6.31,0-2.83-1.28-5.17-3.89-7.04l-1.33,3.7c.6.41,1.28,1.01,2.06,1.78.96.96,1.42,1.69,1.42,2.15,0,.96-1.01,2.33-2.97,4.11-1.97,1.78-3.61,2.7-4.94,2.7-.64,0-1.46-.18-2.42-.5-.96-.32-1.46-.5-1.46-.5h-.46c0,.14-.14.32-.14.37.27.32.69.64,1.19.91.14.09.55.27,1.14.55,2.47,1.1,4.3,1.65,5.44,1.65,1.69,0,3.2-1.19,4.53-3.57ZM400.52,80.78c.14.55.82,1.28,1.37,1.28h5.07c.23,0,.37-.05.46-.14l.82-.69c.23.37.37.64.41.82h5.12c.5-1.23.91-2.19,1.14-2.88.09-.32.14-.59.14-.82v-5.44c-1.78,1.87-2.65,2.97-2.65,3.2,0-.09.14.55.41,1.92.05.14.05.23,0,.37-.05-.05-.55-.09-1.51-.09-.78,0-1.28.05-1.46.09v-1.14l.87-3.79c-1.6,1.65-2.47,2.56-2.56,2.7-.32.96-.46,1.69-.5,2.24h-3.11c.14,0,.27-.32.32-.32-.18,0-.59.32-.78.32-.46,0-.96-.27-1.46-.78,0-.09.27-.96.82-2.65.32-1.01.46-1.78.41-2.29-1.42,1.42-2.42,2.47-2.97,3.25l-.09,1.28c-.14.78-.36,1.19-.69,1.19h-11.66c-.23-2.24-.82-4.3-1.87-6.13-.32-.59-.82-1.01-1.51-1.33-.05-.05-.18-.05-.41-.05-.5,0-.91.14-1.28.46-.78.59-1.46,1.42-2.06,2.56-.32.59-.69,1.46-1.1,2.61-.5,1.23-.73,2.1-.73,2.7,0,.18,0,.37.05.5.14.87,1.46,1.78,2.24,1.92,1.14.23,2.47.41,3.98.5-2.1,2.47-4.3,3.98-6.58,4.53-.6.14-1.14.23-1.56.23-.05,0-.64-.14-1.78-.46-1.1-.27-1.69-.41-1.74-.41-.32,0-.5.05-.55.09v.32c.59.64,1.6,1.23,3.02,1.74,1.6.64,2.83,1.05,3.66,1.28.32.05.59.09.91.09.5,0,.91-.05,1.23-.18.82-.37,1.51-.78,2.01-1.28.82-.69,1.55-1.65,2.24-2.88.32-.59.82-1.65,1.42-3.15h10.79c.37,0,.91-.41,1.69-1.28h0ZM385.17,77.81c-.14.09-.46.14-.96.14-.41,0-.64,0-.69-.05-.78-.14-1.28-.46-1.55-.87-.23-.32-.32-.55-.32-.78,0-.18.18-.46.5-.82.46-.46.87-.69,1.19-.69.55,0,1.14.64,1.65,1.51.14.23.27.69.5,1.28l-.32.27h0ZM173.84,69.12c.18,0,.55-.37,1.05-1.1.55-.73.82-1.14.82-1.28,0-.23-.32-.55-1.01-1.05-.69-.5-1.1-.73-1.28-.73-.23,0-.59.32-1.1.96-.5.59-.73,1.01-.73,1.23,0,.14.32.5,1.01,1.1.69.6,1.1.87,1.23.87h0ZM229.71,63.45c-.32.41-.82,1.19-1.51,2.24-.78,1.23-1.14,2.01-1.14,2.24l1.69,14.13c1.24-1.87,1.87-4.12,1.87-6.81l-.91-11.8h0ZM136.58,78.13l1.97.41c-.64.32-1.28.78-1.92,1.46-.73.78-1.1,1.46-1.05,2.06,2.65-1.55,4.12-2.38,4.34-2.47.87-.37,1.83-.59,2.97-.73l1.46-.18c.87-1.01,1.46-1.92,1.83-2.74h-3.02c-1.05-.14-2.06-.23-3.11-.32-1.55-.23-2.33-.59-2.33-1.1,0-.37.27-.69.87-1.01.5-.23.96-.37,1.42-.37.27,0,.73.18,1.33.5l1.19.69c.96-1.33,1.42-2.1,1.42-2.33,0-1.1-1.19-1.83-2.29-1.83-1.69,0-3.2.73-4.53,2.15s-2.01,2.93-2.01,4.53c0,.59.5,1.01,1.46,1.28h0ZM154.09,75.25l-.91-11.8c-.32.41-.82,1.19-1.51,2.24-.78,1.23-1.14,2.01-1.14,2.24l1.69,14.13c1.23-1.87,1.87-4.12,1.87-6.81ZM399.97,45.09c.32-.27.64-.82.96-1.6.27-.69.64-1.1,1.14-1.28l6.95,2.51c1.24-1.92,1.87-2.97,2.01-3.2.23-.41.32-.73.32-.96,0-.41-.05-.78-.14-1.1-.73-2.47-1.33-4.34-1.74-5.58-.05-.09-.14-.18-.27-.32-.69-.05-2.1.41-4.16,1.37-.87.41-1.74,1.14-2.51,2.19-.69.96-1.19,1.87-1.51,2.79l-.59,1.51h-11.16c-.32,0-1.1-.41-1.33-.46-.23-.05-.37-.18-.41-.32-.32-2.29-.78-6.4-1.33-12.35l-.32-3.25c-.87.87-1.55,1.65-2.1,2.33-.32.41-.5.64-.5.78l1.6,16.92h15.09v.02ZM405.32,37.45c.41-.14.73-.23,1.01-.23.5,0,.91.37,1.19,1.05.05.14.23.73.46,1.69l-4.11-1.65c0-.14.5-.5,1.46-.87h-.01ZM366.78,48.52v.41c.27.32,1.42.91,3.47,1.69,2.06.82,3.43,1.23,4.21,1.23,1.87,0,3.47-1.33,4.8-4.02,1.1-2.24,1.65-4.21,1.65-5.94,0-1.28-.32-2.56-1.01-3.79-.78-1.37-1.78-2.42-3.02-3.15l-1.28,3.7c.32.18.91.73,1.87,1.6,1.14,1.05,1.69,1.83,1.69,2.29,0,1.14-1.1,2.65-3.29,4.43-2.06,1.69-3.57,2.51-4.53,2.51-.46,0-1.23-.18-2.38-.55-1.14-.37-1.74-.55-1.83-.55-.14,0-.27.05-.37.14h.02ZM238.71,28.77c1.51.96,2.42,1.42,2.65,1.42.09,0,.37-.27.87-.82.73-.78,1.14-1.19,1.19-1.28l-2.79-1.6c-1.14.96-1.69,1.46-1.65,1.46-.32,0-1.1-.5-2.38-1.46l-1.87,2.19c1.42.96,2.24,1.42,2.51,1.42.14,0,.64-.46,1.46-1.33h.01ZM276.89,49.07v.32c.41.46,1.51,1.1,3.29,1.87,1.83.82,3.16,1.23,3.98,1.23,1.51,0,3.02-1.14,4.53-3.43,1.23-1.78,1.92-3.34,2.15-4.62.37.41.69.64.96.64h12.85l1.24-2.1,1.19,2.1h13.58c.18,0,.5-.18.64-.18l.87-4.57-.78-6.31c0-.18.05-.32.09-.41l1.78-2.29c.41-.5.69-.87.82-1.19-.87-.5-1.69-1.01-2.51-1.55-1.14-.73-1.78-1.19-1.92-1.37-.23-.32-.32-.82-.32-1.46-.87,1.19-1.69,2.65-2.56,4.39.87.69,1.33,1.05,1.33,1.05.59,2.7,1.01,4.71,1.23,6.08.27,1.51.41,2.51.41,3.06,0,.27-.05.64-.14,1.1h-10.56v-.32l.78-1.28c.32-.59.5-1.01.5-1.33,0-.87-.5-1.65-1.46-2.42-.96-.78-1.97-1.14-3.02-1.14-.55,0-1.24.14-2.01.37l-1.69.55-1.87,3.57c.41-.05.78-.09,1.1-.09,1.37,0,2.42.69,3.2,2.1h-10.65c-1.74-.69-3.57-2.24-5.44-4.66l-1.97,3.25c1.51,1.69,2.29,2.88,2.29,3.52,0,.91-1.05,2.24-3.11,3.93s-3.7,2.56-4.94,2.56c-.5,0-1.19-.18-2.06-.55-.91-.37-1.42-.55-1.46-.55-.14,0-.27.05-.32.14h-.02ZM350.18,30.96l2.61,1.37c.69-.59,1.37-1.33,1.97-2.19l-2.7-1.37-1.01.78c-.41.32-.64.5-.69.5-.09,0-.46-.23-1.14-.64-.69-.41-1.05-.64-1.14-.64-.23,0-.91.69-2.06,2.06.96.59,1.92,1.05,2.83,1.42.41-.59.87-1.01,1.33-1.28h0ZM367.7,38.28l-.91-11.8c-.32.41-.82,1.19-1.51,2.24-.78,1.23-1.14,2.01-1.14,2.24l1.69,14.13c1.24-1.87,1.87-4.12,1.87-6.81h0ZM332.44,38.28l-.91-11.8c-.32.41-.82,1.19-1.51,2.24-.78,1.23-1.14,2.01-1.14,2.24l1.69,14.13c1.24-1.87,1.87-4.12,1.87-6.81h0ZM341.63,43.95c.78.59,1.42.91,1.97.96.14,0,.32.14.5.14h14.08c1.33-2.61,1.97-4.8,1.97-6.58,0-.64-.23-1.37-.64-2.24-.41-.87-.87-1.55-1.33-1.97l-1.87,3.29c1.05,1.69,1.56,2.74,1.56,3.2,0,.14-.09.32-.27.55h-12.12c-.41,0-.96-.18-1.69-.59-.69-.41-1.14-.78-1.28-1.1-.14-.32-.23-.82-.23-1.42,0-.09.05-.59.14-1.51.14-.96.18-1.6.18-1.92l-.18-.14c-.46.23-.91,1.19-1.42,2.83-.41,1.51-.64,2.74-.64,3.7,0,.5,0,.82.05.91.09.59.5,1.23,1.23,1.87v.02ZM416.8,53.73v.32c1.78-1.28,3.29-1.87,4.43-1.83.32-.59.55-1.01.69-1.33-.5.05-1.1.09-1.78.09-.91,0-1.74-.09-2.51-.32-.32-.05-.46-.23-.46-.46,0-.05.05-.14.09-.18.5-.5.96-.73,1.46-.73.73,0,1.1.64,1.1.64.41-.5.64-.87.64-1.05,0,.05-.05-.09-.14-.32-.09-.14-.23-.27-.37-.37-.5-.09-.69-.14-.55-.14-.64,0-1.23.27-1.83.82-.96.87-1.37,1.78-1.33,2.74.82.32,1.46.55,1.97.59-.96.78-1.42,1.28-1.42,1.51v.02ZM416.34,32.7l4.34,2.51.55-1.1c.59.37,1.37,1.01,2.29,1.97.91.96,1.46,1.69,1.69,2.19-2.19,1.97-3.66,2.97-4.39,2.97-.96,0-1.46-.96-1.78-1.37-.32.82-.5,1.78-.5,2.93,0,1.28.23,2.06.69,2.29h9.74c.18-1.05.27-2.06.27-3.02,0-1.33-.32-2.51-.96-3.66-.23-.37-.32-.59-.32-.64s.23-.46.64-1.14c.41-.69.69-1.23.82-1.55.32-.96.59-2.1.82-3.38.27.23.55.32.78.32.14,0,.23,0,.27-.05,1.33-1.92,2.01-2.97,2.01-3.2s-.73-.69-2.15-1.46c-.73-.55-1.14-.91-1.23-1.05-.23-.59-.32-1.01-.32-1.33l-2.74,4.25c.6.73.91,1.55.91,2.47,0,1.74-.32,3.15-.96,4.21-.73-1.33-1.87-2.83-3.47-4.53-1.6-1.69-3.02-2.93-4.34-3.7.05.5,0,.82-.09,1.01h-2.74c-.32,1.23-.46,2.01-.46,2.24,0,.96.23,1.6.64,1.83h-.01ZM427.04,41.48c-1.01.14-2.06.14-3.2,0,.6-.41,1.28-1.1,2.15-2.06.41.69.73,1.37,1.05,2.06h0ZM440.81,38.28l-.91-11.8c-.32.41-.82,1.19-1.51,2.24-.78,1.23-1.14,2.01-1.14,2.24l1.69,14.13c1.24-1.87,1.87-4.12,1.87-6.81h0ZM258.97,50.99l2.56,1.51c.91-.96,1.6-1.83,2.06-2.51l-2.79-1.6c-.32.23-.87.78-1.69,1.6-1.05-.5-1.87-1.05-2.42-1.6-.91.96-1.55,1.78-1.97,2.38.14.14.59.46,1.37.91.78.5,1.19.73,1.32.73-.14,0,.37-.46,1.56-1.42h0ZM260.43,42.85c0,.32.27.78.78,1.37.5.59,1.01.87,1.42.87h14.86c.41-2.93.64-4.76.64-5.44,0-1.78-.82-3.66-2.42-5.62l-1.87,3.06c1.14,1.65,1.87,3.11,2.29,4.34,0-.05-2.88-.05-8.69,0h-2.74c-1.51-.27-2.24-.91-2.24-1.92,0-.27.05-.78.18-1.51.14-.73.18-1.33.18-1.74,0-.37-.05-.69-.09-.96-1.33,1.33-2.06,2.15-2.29,2.51-.14.69-.14,1.23-.09,1.6-.14,1.19-.27,1.87-.36,2.01h-12.66c-.82,0-1.28-.18-1.37-.59-.87-4.71-1.51-8.28-1.83-10.65-1.33,2.24-1.97,3.34-1.97,3.25,0,.18.32.87.37,1.1-.87.59-1.83,1.19-2.83,1.74-1.51.87-2.33,1.65-2.56,2.29-.91,2.79-1.37,4.11-1.37,3.93v.5l5.53,1.1c.5-.05.96-.5,1.37-1.37s.82-1.42,1.19-1.55c.32,1.23.5,2.19.64,2.79.09.32.32.59.73.91.14.14.32.23.46.23h13.49l1.28-2.24h-.03ZM243.69,40.06h-2.06c-.32,0-1.28-.23-2.79-.69l1.87-.87c.82-.5,1.37-1.14,1.65-1.92.09-.32.32-.5.69-.64.41,1.78.64,2.93.64,3.43,0,0,0,.69,0,.69ZM272.91,48.93c-.23,0-.64.32-1.24.96-.59.69-.91,1.1-.96,1.33,1.51,1.19,2.38,1.78,2.65,1.78.14,0,.5-.23,1.14-.69s.96-.82.96-1.1c0-.14-.41-.55-1.24-1.23-.78-.69-1.23-1.05-1.33-1.05h.02ZM199.94,31.92c-.09,0,.46-.5,1.6-1.46,1.6.96,2.51,1.46,2.83,1.46-.14,0,0-.09.37-.23.87-.96,1.46-1.65,1.78-2.15l-2.97-1.6-1.1.91c-.41.41-.69.59-.78.59-.18,0-.5-.14-1.6-.87-.55-.37-.87-.55-.91-.55-.09,0-.41.32-1.01.91-.59.59-.96,1.05-1.14,1.37.87.69,1.65,1.14,2.29,1.37.37.14.59.23.64.23v.02ZM136.8,30.23c.78.41,1.28.64,1.55.64.23,0,.69-.46,1.46-1.37l2.79,1.46c.55-.23,1.23-.96,2.1-2.24-1.69-1.01-2.61-1.51-2.83-1.51-.09,0-.41.23-.91.69s-.78.69-.82.69c-.14,0-1.01-.46-2.52-1.37-.69.59-1.37,1.33-2.06,2.15.09.14.5.41,1.23.87h.01ZM143.43,43.58c.32-.14.55-.46.73-.91l.32-.91c.5-1.87.78-2.88.78-3.06,0-1.05-.41-2.01-1.24-2.79l-3.29-2.74c-1.23,1.42-2.33,3.02-3.38,4.71-1.42,2.29-2.15,4.02-2.15,5.26,0,1.33,1.28,1.97,3.89,1.97,1.14,0,2.61-.5,4.34-1.51v-.02ZM137.94,40.11c0-.32.27-.87.82-1.65.37-.5.73-1.01,1.14-1.51,1.69,1.23,2.83,2.47,3.43,3.79v.32c-1.46.23-2.65.37-3.52.37-1.23,0-1.87-.46-1.87-1.33h0ZM226,38.28l-.91-11.8c-.32.41-.82,1.19-1.51,2.24-.78,1.23-1.14,2.01-1.14,2.24l1.69,14.13c1.24-1.87,1.87-4.12,1.87-6.81h0ZM158.06,43.63c.27-.59.55-.96.87-1.01l1.01,2.47h15.59c.27,0,.69-.14,1.23-.37,1.74-.96,3.06-1.65,3.93-2.15.41-.23.73-.32.91-.32h4.89l.37,2.83h15.5l1.28-2.19c.23.64.46,1.05.64,1.23.55.64,1.1.96,1.65.96h7.68c.5,0,1.1.27,1.78.82l1.46,1.28c.23-.32.5-.87.82-1.74.32-.82.5-1.42.5-1.83,0-.5-.59-1.05-1.83-1.74-1.33-.78-2.1-1.33-2.29-1.65-.32-.59-.5-1.55-.55-2.83-.05-1.97-.09-3.06-.14-3.29.41-.32.87-.87,1.28-1.65.5-.96.82-1.51,1.01-1.74-1.55-.73-2.79-1.6-3.75-2.61-.23-.59-.32-1.1-.37-1.46h-.32c-.23.14-.69.82-1.37,2.01-.64,1.14-.96,1.83-.96,1.97,0,.09.18.27.55.59.41.27.59.46.59.5.69,2.83,1.14,4.98,1.37,6.45.23,1.05.32,1.83.32,2.29,0,.32-.09.64-.23.96h-4.21c-.5,0-1.51-.69-1.65-1.42-.05-.05-.05-.23-.05-.46l.37-4.25-1.28,1.23c-.55.5-.91,1.01-1.05,1.46-.14.27-.18.82-.18,1.65.05.82-.05,1.42-.27,1.78h-14.04c.41-1.51.73-2.51.91-2.93-3.8-.23-7.5-1.28-11.11-3.25-.41-.14-.73-.27-.96-.32-.32-.05-.78-.09-1.37-.09h-.91c-.87.14-1.87.87-2.93,2.29-.41.5-.78,1.28-1.14,2.29l1.23-.69c.55-.27,1.14-.41,1.78-.41.32,0,1.01.18,1.97.5,2.06.69,3.2,1.1,3.43,1.19-.82.5-1.83.91-2.97,1.23-.5.14-.78.18-.91.18h-13.44c-.82,0-1.33-.32-1.51-.96l-2.24-8.96-1.87,3.66c.23.87.5,1.69.73,2.51.5,1.65.73,2.7.73,3.2,0,.14-.05.27-.18.46h-7.73c-.55,0-.87-.46-.64-2.97-.09-.14-.18-.18-.23-.23-.5.64-.82,1.46-1.01,2.42-.32,1.55-.5,2.79-.5,3.7.14.55.37.82.64.82h8.32c.23-.23.5-.73.82-1.46l.03.05Z"/>
</svg>