<?xml version="1.0" encoding="UTF-8"?>
<svg id="Layer_1" data-name="Layer 1" xmlns="http://www.w3.org/2000/svg" viewBox="0 0 841.89 166.06">
  <defs>
    <style>
      .cls-1 {
        fill: #ad833b;
      }
    </style>
  </defs>
  <g>
    <path class="cls-1" d="M725.46,81.12l2.63,1.39c.69-.6,1.38-1.34,1.98-2.22l-2.72-1.38-1.02.78c-.42.32-.65.51-.69.51-.09,0-.46-.23-1.15-.65-.69-.42-1.06-.65-1.15-.65-.23,0-.92.69-2.08,2.08.97.6,1.94,1.06,2.86,1.43.42-.6.88-1.02,1.34-1.29ZM556.42,56.45c.28-.69.65-1.11,1.15-1.29l7.01,2.54c1.25-1.94,1.89-3,2.03-3.23.23-.42.32-.74.32-.97,0-.42-.05-.78-.14-1.11-.74-2.49-1.34-4.38-1.75-5.63-.05-.09-.14-.18-.28-.32-.69-.05-2.12.42-4.2,1.38-.88.42-1.75,1.15-2.54,2.22-.69.97-1.2,1.89-1.52,2.82l-.6,1.52h-34.06c-.83,0-1.29-.18-1.38-.6-.88-4.75-1.52-8.35-1.85-10.75-1.34,2.26-1.99,3.37-1.99,3.28,0,.18.32.88.37,1.11-.88.6-1.85,1.2-2.86,1.75-1.52.88-2.35,1.66-2.58,2.31-.92,2.82-1.38,4.15-1.38,3.97v.51l5.58,1.11c.51-.05.97-.51,1.38-1.38.41-.88.83-1.43,1.2-1.57.32,1.25.51,2.22.65,2.82.09.32.32.6.74.92.14.14.32.23.46.23h35.26c.32-.28.65-.83.97-1.62ZM560.85,50.36c.41-.14.74-.23,1.02-.23.51,0,.92.37,1.2,1.06.05.14.23.74.46,1.71l-4.15-1.66c0-.14.51-.51,1.48-.88ZM518.21,52.99h-2.08c-.32,0-1.29-.23-2.81-.69l1.89-.88c.83-.51,1.38-1.15,1.66-1.94.09-.32.32-.51.69-.65.42,1.8.65,2.95.65,3.46v.69ZM590.38,92.15c-1.34-.78-2.12-1.34-2.31-1.66-.32-.6-.51-1.57-.55-2.86-.05-1.98-.09-3.09-.14-3.32.42-.32.88-.88,1.29-1.66.51-.97.83-1.52,1.02-1.75-1.57-.74-2.82-1.62-3.78-2.63-.23-.6-.32-1.11-.37-1.48h-.32c-.23.14-.69.83-1.38,2.03-.65,1.15-.97,1.85-.97,1.98,0,.09.18.28.55.6.42.28.6.46.6.51.69,2.86,1.15,5.03,1.38,6.51.23,1.06.32,1.85.32,2.31,0,.32-.09.65-.23.97h-4.25c-.51,0-1.52-.69-1.66-1.43-.05-.05-.05-.23-.05-.46l.37-4.29-1.29,1.25c-.55.51-.92,1.02-1.06,1.48-.14.28-.18.83-.18,1.66.05.83-.05,1.43-.28,1.8h-14.17c.42-1.52.74-2.54.92-2.95-3.83-.23-7.57-1.29-11.21-3.28-.41-.14-.74-.28-.97-.32-.32-.05-.78-.09-1.38-.09h-.92c-.88.14-1.89.88-2.95,2.31-.42.51-.78,1.29-1.15,2.31l1.25-.69c.55-.28,1.15-.42,1.8-.42.32,0,1.02.18,1.98.51,2.08.69,3.23,1.11,3.46,1.2-.83.51-1.85.92-3,1.25-.51.14-.78.18-.92.18h-13.57c-.83,0-1.34-.32-1.52-.97l-2.26-9.05-1.89,3.69c.23.88.51,1.71.74,2.54.51,1.66.74,2.72.74,3.23,0,.14-.05.28-.18.46h-7.8c-.55,0-.88-.46-.65-3-.09-.14-.18-.18-.23-.23-.51.65-.83,1.48-1.02,2.45-.32,1.57-.51,2.82-.51,3.74.14.55.37.83.65.83h8.4c.23-.23.51-.74.83-1.48.28-.6.55-.97.88-1.02l1.02,2.49h15.74c.28,0,.69-.14,1.25-.37,1.75-.97,3.09-1.66,3.97-2.17.41-.23.74-.32.92-.32h4.94l.37,2.86h15.64l1.29-2.22c.23.65.46,1.06.65,1.25.55.65,1.11.97,1.66.97h7.75c.51,0,1.11.28,1.8.83l1.48,1.29c.23-.32.51-.88.83-1.75.32-.83.51-1.43.51-1.85,0-.51-.6-1.06-1.85-1.75ZM597.68,78.86c-.79,1.25-1.15,2.03-1.15,2.26l1.71,14.26c1.25-1.89,1.89-4.15,1.89-6.88l-.92-11.91c-.32.42-.83,1.2-1.52,2.26ZM514.05,83.34c-1.25,1.43-2.35,3.05-3.42,4.75-1.43,2.31-2.17,4.06-2.17,5.31,0,1.34,1.29,1.98,3.92,1.98,1.15,0,2.63-.51,4.38-1.52.32-.14.55-.46.74-.92l.32-.92c.51-1.89.79-2.91.79-3.09,0-1.06-.42-2.03-1.25-2.82l-3.32-2.77ZM516.68,91.32c-1.48.23-2.68.37-3.55.37-1.25,0-1.89-.46-1.89-1.34,0-.32.28-.88.83-1.66.37-.51.74-1.02,1.15-1.52,1.71,1.25,2.86,2.49,3.46,3.83v.32ZM580.46,79.69l-3-1.62-1.11.92c-.42.42-.69.6-.78.6-.18,0-.51-.14-1.62-.88-.55-.37-.88-.55-.92-.55-.09,0-.41.32-1.02.92-.6.6-.97,1.06-1.15,1.38.88.69,1.66,1.15,2.31,1.39.37.14.6.23.65.23-.09,0,.46-.51,1.61-1.48,1.62.97,2.54,1.48,2.86,1.48-.14,0,0-.09.37-.23.88-.97,1.48-1.66,1.8-2.17ZM513.18,41.59c1.52.97,2.45,1.43,2.68,1.43.09,0,.37-.28.88-.83.74-.78,1.15-1.2,1.2-1.29l-2.82-1.62c-1.15.97-1.71,1.48-1.66,1.48-.32,0-1.11-.51-2.4-1.48l-1.89,2.22c1.43.97,2.26,1.43,2.54,1.43.14,0,.65-.46,1.48-1.34ZM574.32,65.55c.32.05.6.09.92.09.51,0,.92-.05,1.25-.18.83-.37,1.52-.78,2.03-1.29.83-.69,1.57-1.66,2.26-2.91.32-.6.83-1.66,1.43-3.18h50.21c.88-1.29,1.57-2.17,1.98-2.68,1.15,1.15,1.98,2.03,2.58,2.68h28.06c.32,0,1.2-.42,2.68-1.2,1.48-.78,2.63-1.2,3.51-1.2l5.77.46c.09,0,.19,0,.28-.05l2.35-3.05c-2.22-.46-4.34-1.2-6.37-2.26-2.03-1.06-3.46-1.85-4.29-2.35-.92-.46-1.89-.69-2.86-.69-1.2,0-2.58,1.06-4.2,3.23-.28.42-.42.65-.42.78v.32c.42-.09.88-.23,1.43-.46.42-.18.78-.28,1.2-.28,1.25,0,3.05.65,5.4,1.89-.18.23-.74.46-1.66.74-.92.28-1.57.42-1.98.42h-27.83c-2.31-1.94-5.21-4.75-8.77-8.45,3.78-1.06,6.6-1.8,8.45-2.31l.74-3.46-5.31,1.25c-2.12.51-3.78,1.11-4.99,1.8-.6.37-.97,1.11-1.15,2.22-.23,1.43-.37,2.31-.51,2.54l6.55,6.09c0,.23-.05.32-.14.32h-50.3c-.23-2.26-.83-4.34-1.89-6.18-.32-.6-.83-1.02-1.52-1.34-.05-.05-.18-.05-.42-.05-.51,0-.92.14-1.29.46-.78.6-1.48,1.43-2.08,2.58-.32.6-.69,1.48-1.11,2.63-.51,1.25-.74,2.12-.74,2.72,0,.18,0,.37.05.51.14.88,1.48,1.8,2.26,1.94,1.15.23,2.49.42,4.02.51-2.12,2.49-4.34,4.01-6.65,4.57-.6.14-1.15.23-1.57.23-.05,0-.65-.14-1.8-.46-1.11-.28-1.71-.42-1.75-.42-.32,0-.51.05-.55.09v.32c.6.65,1.61,1.25,3.05,1.75,1.61.65,2.86,1.06,3.69,1.29ZM579.31,53.78c-.14.09-.46.14-.97.14-.41,0-.65,0-.69-.05-.78-.14-1.29-.46-1.57-.88-.23-.32-.32-.55-.32-.78,0-.18.18-.46.51-.83.46-.46.88-.69,1.2-.69.55,0,1.15.65,1.66,1.52.14.23.28.69.51,1.29l-.32.28ZM510.08,80.38c.78.42,1.29.65,1.57.65.23,0,.69-.46,1.48-1.38l2.82,1.48c.55-.23,1.25-.97,2.12-2.26-1.71-1.02-2.63-1.52-2.86-1.52-.09,0-.42.23-.92.69-.51.46-.78.69-.83.69-.14,0-1.02-.46-2.54-1.38-.69.6-1.38,1.34-2.08,2.17.09.14.51.42,1.25.88ZM705.11,78.86c-.78,1.25-1.15,2.03-1.15,2.26l1.71,14.26c1.25-1.89,1.89-4.15,1.89-6.88l-.92-11.91c-.32.42-.83,1.2-1.52,2.26ZM785.32,84.08c-.05-.09-.14-.18-.28-.32-.69-.05-2.12.41-4.2,1.38-.88.42-1.75,1.15-2.54,2.22-.69.97-1.2,1.89-1.52,2.82l-.6,1.52h-11.26c-.32,0-1.11-.42-1.34-.46-.23-.05-.37-.18-.42-.32-.32-2.31-.79-6.46-1.34-12.46l-.32-3.28c-.88.88-1.57,1.66-2.12,2.35-.32.42-.51.65-.51.78l1.61,17.08h15.23c.32-.28.65-.83.97-1.62.28-.69.65-1.11,1.15-1.29l7.01,2.54c1.25-1.94,1.89-3,2.03-3.23.23-.41.32-.74.32-.97,0-.41-.05-.78-.14-1.11-.74-2.49-1.34-4.38-1.75-5.63ZM779.64,88.55c0-.14.51-.51,1.48-.88.41-.14.74-.23,1.02-.23.51,0,.92.37,1.2,1.06.05.14.23.74.46,1.71l-4.15-1.66ZM752.42,85.14l-1.29,3.74c.32.18.92.74,1.89,1.61,1.15,1.06,1.71,1.85,1.71,2.31,0,1.15-1.11,2.68-3.32,4.48-2.08,1.71-3.6,2.54-4.57,2.54-.46,0-1.25-.18-2.4-.55-1.15-.37-1.75-.55-1.85-.55-.14,0-.28.05-.37.14v.42c.28.32,1.43.92,3.51,1.71,2.08.83,3.46,1.25,4.25,1.25,1.89,0,3.51-1.34,4.85-4.06,1.11-2.26,1.66-4.25,1.66-6,0-1.29-.32-2.58-1.02-3.83-.79-1.38-1.8-2.45-3.05-3.18ZM793.54,101.01c-.32-.05-.46-.23-.46-.46,0-.05.05-.14.09-.18.51-.51.97-.74,1.48-.74.74,0,1.11.65,1.11.65.42-.51.65-.88.65-1.06,0,.05-.05-.09-.14-.32-.09-.14-.23-.28-.37-.37-.51-.09-.69-.14-.55-.14-.65,0-1.25.28-1.85.83-.97.88-1.38,1.8-1.34,2.77.83.32,1.48.55,1.98.6-.97.78-1.43,1.29-1.43,1.52v.32c1.8-1.29,3.32-1.89,4.48-1.85.32-.6.55-1.02.69-1.34-.51.05-1.11.09-1.8.09-.92,0-1.75-.09-2.54-.32ZM816.01,76.6c-.32.42-.83,1.2-1.52,2.26-.79,1.25-1.15,2.03-1.15,2.26l1.71,14.26c1.25-1.89,1.89-4.15,1.89-6.88l-.92-11.91ZM807.19,77.43c-.74-.55-1.15-.92-1.25-1.06-.23-.6-.32-1.02-.32-1.34l-2.77,4.29c.6.74.92,1.57.92,2.49,0,1.75-.32,3.18-.97,4.25-.74-1.34-1.89-2.86-3.51-4.57-1.61-1.71-3.05-2.95-4.38-3.74.05.51,0,.83-.09,1.02h-2.77c-.32,1.25-.46,2.03-.46,2.26,0,.97.23,1.62.65,1.85l4.38,2.54.55-1.11c.6.37,1.38,1.02,2.31,1.98.92.97,1.48,1.71,1.71,2.22-2.21,1.98-3.69,3-4.43,3-.97,0-1.48-.97-1.8-1.38-.32.83-.51,1.8-.51,2.95,0,1.29.23,2.08.69,2.31h9.83c.18-1.06.28-2.08.28-3.05,0-1.34-.32-2.54-.97-3.69-.23-.37-.32-.6-.32-.65s.23-.46.65-1.15c.42-.69.69-1.25.83-1.57.32-.97.6-2.12.83-3.42.28.23.55.32.79.32.14,0,.23,0,.28-.05,1.34-1.94,2.03-3,2.03-3.23s-.74-.69-2.17-1.48ZM799.81,91.74c.6-.41,1.29-1.11,2.17-2.08.42.69.74,1.38,1.06,2.08-1.02.14-2.08.14-3.23,0ZM742.22,76.6c-.32.42-.83,1.2-1.52,2.26-.79,1.25-1.15,2.03-1.15,2.26l1.71,14.26c1.25-1.89,1.89-4.15,1.89-6.88l-.92-11.91ZM733.54,84.45l-1.89,3.32c1.06,1.71,1.57,2.77,1.57,3.23,0,.14-.09.32-.28.55h-12.23c-.42,0-.97-.18-1.71-.6-.69-.42-1.15-.78-1.29-1.11-.14-.32-.23-.83-.23-1.43,0-.09.05-.6.14-1.52.14-.97.18-1.62.18-1.94l-.18-.14c-.46.23-.92,1.2-1.43,2.86-.42,1.52-.65,2.77-.65,3.74,0,.51,0,.83.05.92.09.6.51,1.25,1.25,1.89.79.6,1.43.92,1.98.97.14,0,.32.14.51.14h14.21c1.34-2.63,1.98-4.85,1.98-6.65,0-.65-.23-1.38-.65-2.26-.42-.88-.88-1.57-1.34-1.98ZM633.53,100.32c-1.06-.51-1.89-1.06-2.45-1.61-.92.97-1.57,1.8-1.98,2.4.14.14.6.46,1.38.92.78.51,1.2.74,1.34.74-.14,0,.37-.46,1.57-1.43l2.58,1.52c.92-.97,1.61-1.85,2.08-2.54l-2.82-1.61c-.32.23-.88.78-1.71,1.61ZM634.87,93.12c0,.32.28.78.78,1.38.51.6,1.02.88,1.43.88h15c.42-2.95.65-4.8.65-5.49,0-1.8-.83-3.69-2.45-5.68l-1.89,3.09c1.15,1.66,1.89,3.14,2.31,4.38,0-.05-2.91-.05-8.77,0h-2.77c-1.52-.28-2.26-.92-2.26-1.94,0-.28.05-.78.18-1.52.14-.74.18-1.34.18-1.75,0-.37-.05-.69-.09-.97-1.34,1.34-2.08,2.17-2.31,2.54-.14.69-.14,1.25-.09,1.62-.14,1.2-.28,1.89-.37,2.03h-12.78c-.83,0-1.29-.18-1.38-.6-.88-4.75-1.52-8.35-1.85-10.75-1.34,2.26-1.98,3.37-1.98,3.28,0,.18.32.88.37,1.11-.88.6-1.85,1.2-2.86,1.75-1.52.88-2.35,1.66-2.58,2.31-.92,2.82-1.38,4.15-1.38,3.97v.51l5.58,1.11c.51-.05.97-.51,1.38-1.38.42-.88.83-1.43,1.2-1.57.32,1.25.51,2.22.65,2.81.09.32.32.6.74.92.14.14.32.23.46.23h13.61l1.29-2.26ZM617.98,90.31h-2.08c-.32,0-1.29-.23-2.82-.69l1.89-.88c.83-.51,1.38-1.15,1.66-1.94.09-.32.32-.51.69-.65.42,1.8.65,2.95.65,3.46v.69ZM648.81,100.32c-.78-.69-1.25-1.06-1.34-1.06-.23,0-.65.32-1.25.97-.6.69-.92,1.11-.97,1.34,1.52,1.2,2.4,1.8,2.68,1.8.14,0,.51-.23,1.15-.69.65-.46.97-.83.97-1.11,0-.14-.42-.55-1.25-1.25ZM694.64,77.34c-.23-.32-.32-.83-.32-1.48-.88,1.2-1.71,2.68-2.58,4.43.88.69,1.34,1.06,1.34,1.06.6,2.72,1.02,4.75,1.25,6.14.28,1.52.42,2.54.42,3.09,0,.28-.05.65-.14,1.11h-10.66v-.32l.79-1.29c.32-.6.51-1.02.51-1.34,0-.88-.51-1.66-1.48-2.45-.97-.78-1.98-1.15-3.05-1.15-.55,0-1.25.14-2.03.37l-1.71.55-1.89,3.6c.42-.05.79-.09,1.11-.09,1.38,0,2.45.69,3.23,2.12h-10.75c-1.75-.69-3.6-2.26-5.49-4.71l-1.98,3.28c1.52,1.71,2.31,2.91,2.31,3.55,0,.92-1.06,2.26-3.14,3.97-2.08,1.71-3.74,2.58-4.98,2.58-.51,0-1.2-.18-2.08-.55-.92-.37-1.43-.55-1.48-.55-.14,0-.28.05-.32.14v.32c.42.46,1.52,1.11,3.32,1.89,1.85.83,3.18,1.25,4.01,1.25,1.52,0,3.05-1.15,4.57-3.46,1.25-1.8,1.94-3.37,2.17-4.66.37.42.69.65.97.65h12.97l1.25-2.12,1.2,2.12h13.71c.18,0,.51-.18.65-.18l.88-4.62-.79-6.37c0-.18.05-.32.09-.42l1.8-2.31c.42-.51.69-.88.83-1.2-.88-.51-1.71-1.02-2.54-1.57-1.15-.74-1.8-1.2-1.94-1.38ZM612.95,78.91c1.52.97,2.45,1.43,2.68,1.43.09,0,.37-.28.88-.83.74-.78,1.15-1.2,1.2-1.29l-2.82-1.62c-1.15.97-1.71,1.48-1.66,1.48-.32,0-1.11-.51-2.4-1.48l-1.89,2.22c1.43.97,2.26,1.43,2.54,1.43.14,0,.65-.46,1.48-1.34Z"/>
    <path class="cls-1" d="M412.78,144.99c-.21-.02-.42-.04-.64-.07-.21-.02-.42-.04-.63-.06.02-.19.05-.39.08-.58.03-.27.27-.49.58-.52.04,0,.07,0,.1-.02.23-.02.46-.08.65-.16-.04.46-.09.93-.14,1.4M419.81,146.51c.03-1.62.07-3.25.11-4.87-.62.5-1.24,1-1.88,1.49.49.13.6.47.58.8-.02.48-.03.96-.05,1.44-.42-.02-.84-.03-1.27-.05.06-1.26.12-2.51.19-3.77-.63.49-1.27.97-1.92,1.44.48.15.6.49.58.82-.03.48-.06.96-.09,1.44-.67-.04-1.35-.09-2.02-.15.25-2.94.49-5.86.74-8.81-.61.47-1.24.93-1.87,1.39.45.15.53.49.5.83-.1,1.06-.21,2.11-.31,3.17-.05.49-.42.73-.71.84-.19.09-.36.12-.38.15-.86.06-1.59.65-1.7,1.46l-.21,1.67c.5.06,1,.12,1.51.18.14.02.27.03.41.05.71.08,1.42.14,2.13.2,1.88.15,3.76.25,5.64.29M406.98,145.35c.42.07.83.13,1.25.19.36-2.51.73-5.02,1.1-7.53.05-.33.22-.64.69-.68-.5-.59-1-1.19-1.48-1.79-.52,3.27-1.05,6.54-1.57,9.81M402.19,143.32c-.21-.04-.42-.09-.62-.14-.21-.05-.41-.09-.61-.14.03-.15.07-.29.1-.43.24-.13.49-.26.73-.4.17.22.34.45.51.67-.03.15-.06.29-.1.43M405.43,136.56c.45.19.5.54.44.87-.4,2.13-.8,4.26-1.2,6.39-.42-.08-.83-.16-1.24-.24.06-.29.11-.58.17-.87-.51-.67-.99-1.33-1.48-2.01-.72.4-1.45.8-2.19,1.19-.07.28-.14.57-.21.86-.41-.1-.83-.21-1.24-.31.32-1.21.63-2.43.94-3.64-.72.35-1.45.69-2.18,1.02.45.23.48.59.39.91-.13.46-.26.93-.38,1.39-.18-.05-.36-.1-.54-.15,0,0,0,0,0-.01-.34-.1-.69-.19-1.03-.29-.01-.44.06-.88.15-1.31.28-1.36.65-2.9-1.06-4.72-.49.23-.99.46-1.49.69,1.2.36,1.69,1.48,1.88,2.37.17,1.07-.41,1.88-.11,2.8-.59-.18-1.18-.36-1.78-.54,0,0,0,0,0,0,.05-.14.09-.28.14-.42.29-.92-.32-1.95-1.36-2.31-.07-.02-.15-.05-.23-.08-2.31-.81-4.59-1.71-6.84-2.7.15-.34.3-.68.45-1.02.13-.3.45-.39.78-.24-.34-.75-.67-1.51-.99-2.26-.61,1.33-1.23,2.67-1.84,4.01,2.73,1.25,5.5,2.37,8.31,3.34.4.14.62.53.51.87-.05.14-.1.28-.14.42-.13.38-.26.76-.39,1.15-.25.11-.51.21-.77.32-.15-.25-.29-.51-.43-.76.13-.37.27-.75.39-1.12-.3-.11-.6-.21-.89-.32-.1-.04-.21-.07-.31-.11-2.28-.84-4.52-1.77-6.74-2.79-.16.33-.31.67-.47,1.01,2.24,1.03,4.52,1.97,6.82,2.82-.06.18-.12.34-.19.52.42.75.86,1.49,1.31,2.23.8-.3,1.59-.61,2.37-.93.06-.18.11-.36.18-.55.89.29,1.78.56,2.67.82.17.26.39.47.66.66-.12-.19-.23-.37-.31-.56.74.21,1.49.42,2.24.61,1.04.27,2.08.52,3.13.75,1.04.23,2.09.45,3.14.65.04,0,.09.02.14.02.37.07.74.14,1.11.2h.01c.57-3.27,1.12-6.53,1.69-9.79-.65.41-1.31.81-1.98,1.21M417.77,147.55c-.36-.02-.65.22-.67.52-.02.31.25.56.62.58.36.02.65-.22.67-.52,0-.3-.26-.56-.62-.57M413.8,13.33c.48,0,.88.37.88.84-.26-.26-1.28-.48-1.76,0,0-.47.39-.84.88-.84M416,14.42c-.37,2.77-3.93,2.77-4.06.72.64,2.23,4.09,1.06,3.08-1.42,1.36-.52,2.37-.56,3.47-.73-2.84-.44-6.19-.79-8.26.16-1.01.46-.73,1.08-.58,1.34.17-.54,1.07-.57,1.72-.36-.49,4.18,4.86,3.69,4.63.29M380.56,135.77c-.2-.1-.39-.19-.59-.29-.19-.1-.39-.2-.58-.31.09-.16.17-.33.26-.5.12-.24.44-.35.75-.26.04,0,.06.02.1.02.23.06.47.08.68.08-.21.42-.41.83-.62,1.25M383.25,128.98c.38.31.33.66.19.96-.47.95-.94,1.91-1.41,2.86-.22.44-.65.52-.97.53-.22.01-.4-.03-.41,0-.85-.25-1.74.04-2.13.75-.26.49-.53.98-.78,1.49.58.31,1.16.61,1.75.9.59.3,1.18.59,1.77.87,1.43-2.99,2.85-5.98,4.28-8.97-.75.22-1.51.42-2.27.61M415.2,147.41c-.36-.02-.67.2-.69.5-.02.31.25.57.62.6.35.02.66-.2.68-.51.02-.3-.26-.57-.61-.59M413.66,147.29c-.36-.03-.67.19-.7.49-.03.31.24.58.61.61.35.03.66-.19.69-.49.02-.3-.25-.57-.6-.6M399.12,138.02c.31.08.64-.08.72-.38.07-.29-.13-.6-.44-.68-.32-.09-.65.08-.73.37-.09.3.12.6.44.69M397.72,137.64c.31.09.64-.07.73-.36.08-.29-.12-.61-.43-.69-.32-.09-.65.08-.73.36-.09.3.11.6.44.69M411.66,138.42c.33.04.61-.18.64-.49.03-.3-.19-.57-.51-.61-.31-.04-.6.18-.64.48-.04.31.19.59.51.62M441.84,139.4c.32-.07.53-.38.46-.67-.07-.3-.4-.48-.71-.41-.33.07-.53.37-.46.68.06.29.37.48.71.4M382.38,128.03c.3.15.63.06.78-.22.14-.27.02-.61-.27-.76-.28-.15-.63-.05-.78.22-.15.27-.02.61.27.76M411.82,137.1c.32.04.6-.17.63-.48.03-.3-.18-.57-.5-.61-.31-.04-.6.18-.63.48-.04.31.19.58.5.61M440.42,139.72c.32-.07.54-.37.47-.66-.06-.31-.39-.49-.7-.42-.33.07-.54.37-.48.67.06.3.38.48.71.41M381.76,129.21c.3.15.65.05.79-.23.14-.27.02-.61-.27-.76-.28-.15-.64-.05-.78.21-.15.27-.02.62.27.78M415.1,70.52c-.12-2.08-.19-4.43-.19-6.99,0-2.32.06-4.42.17-6.27,5.87-.52,14.29-.68,22.05,1.34.56,1.66.87,3.44.87,5.3s-.31,3.62-.86,5.28c-7.75,2.02-16.14,1.87-22.03,1.34M421.38,80.51c-1.85,0-3.67-.31-5.41-.9-.14-.89-.54-3.82-.81-8.09,5.79.5,13.92.64,21.55-1.23-2.51,6-8.44,10.22-15.33,10.22M404.76,63.9c0-6.71,4.07-12.76,10.2-15.33-.32,1.99-1.03,7.27-1.03,14.96s.7,13.57,1,15.67c-6.11-2.58-10.16-8.63-10.16-15.31M416.02,48.17c1.72-.59,3.52-.89,5.35-.89,6.89,0,12.82,4.22,15.33,10.21-7.65-1.86-15.8-1.72-21.58-1.22.28-4.42.74-7.25.9-8.11M421.38,46.31c-2.04,0-4.05.35-5.95,1.03-6.97,2.5-11.65,9.16-11.65,16.56s4.65,14.02,11.58,16.54c1.93.7,3.95,1.06,6.02,1.06,9.7,0,17.6-7.9,17.6-17.6s-7.89-17.6-17.6-17.6M462.41,139.48c-.17.08-.35.03-.41-.11-.07-.14.02-.31.18-.39.06-.03.13-.05.19-.04-.6-.19-1.14.46-.68.86-.16.1-.28.1-.37.01-.11.22-.22.44-.32.65.8-.35,1.59-.72,2.38-1.09-.26-.08-.51-.16-.77-.25.04.13-.05.27-.2.35M471.11,64.5v-1.96c0-.99,0-1.95,0-2.41.01-1.85-.3-4.3-2.05-5.5.53,2.07.17,2.43.17,5.92v4.35c0,1.28.18,2.39.48,3.36-2.03-.98-4.21-3.13-4.21-6.9,0-1.27-.31-6.49-1.88-8.66v9.06c0,1.19.15,2.24.42,3.16-4.78-2.42-4.3-10.66-5.85-13.86,0,2.77.06,4.71.06,7.47,0,1.36.2,2.54.54,3.55-4.18-2.67-4.66-7.9-4.99-11.81-.4,1.45-1.07,5.26.07,8.86-2.8-2.14-4.37-6.72-4.18-9.98-.41,1.79-.85,4.49.03,7.2-.15,3.07-.13,27.33-.12,29.97-1.59-1.32-3.23-3.7-3.05-7.32.06-.59.12-1.15.2-1.69,1.12-7.57,1.35-18.48-1.78-27.2,2.52,13.63-.62,27.64-1.07,30.46-.79,5.04.92,15.47,4.48,27.05-.69-.69-3.06-1.67-4.01-2.62,0,1.04.38,2.17.38,4.46-1.22-2.04-1.69-2.13-2.98-4.39.41,2.67.29,2.9.29,5.2-1.26-2.38-1.94-5.55-4.84-10.07-6.45-10.07-15.75-3.83-15.75-2.07,0-1.75-9.29-8-15.74,2.07-2.9,4.52-3.58,7.69-4.85,10.07,0-2.3-.11-2.54.29-5.2-1.3,2.27-1.76,2.35-2.98,4.39,0-2.29.38-3.41.38-4.46-.95.95-3.32,1.94-4.01,2.62,3.55-11.58,5.27-22.01,4.48-27.05-.44-2.82-3.59-16.83-1.06-30.46-3.13,8.72-2.9,19.63-1.78,27.2.08.53.14,1.1.2,1.7.18,3.63-1.47,6.01-3.07,7.33,0-2.65.04-26.88-.12-29.99.88-2.71.45-5.4.03-7.2.19,3.27-1.37,7.84-4.17,9.98,1.14-3.6.48-7.41.06-8.86-.33,3.91-.81,9.14-4.99,11.81.34-1.01.54-2.19.54-3.55,0-2.76.07-4.71.07-7.47-1.56,3.2-1.08,11.44-5.86,13.86.27-.92.42-1.97.42-3.16v-9.06c-1.57,2.17-1.88,7.4-1.88,8.66,0,3.78-2.18,5.92-4.21,6.9.31-.97.49-2.08.49-3.36v-4.35c0-3.49-.36-3.85.17-5.92-1.76,1.2-2.06,3.65-2.05,5.5,0,.46,0,1.42,0,2.41h0v1.96c0,3.94-2.37,6.11-4.48,7.03.36-.47.75-1.76.75-3.66v-19.02c0-5.35,6.24-11.49,8.55-14.2,6.4-7.49,9.18-1.4,15.62.78,10.71,3.63,16.42-.42,16.42-.42,5.72-3.6,5.74-6.99,5.74-9.11,0-1.44-.55-3.3-1.6-4.5-1.96-1.95-5.43-2.58-6.04-2.46-1.31.67-2.46.67-2.7.86-.6-1.2-.45-3.02,2.25-4.51.76-.42.48-1.37,2.78-2.72,6.73-3.92,13.31-2.5,17.15,1.78-1.36-.49-2.66-.95-4.95-1.16,3.21,1.11,7.02,3.77,9.48,8.2,1.01,1.76,3.28,6.6,4.08,8.07,1.71,3.13,4.82,9.67,15.75,5.99,6.44-2.18,9.22-8.27,15.62-.78,2.31,2.71,8.55,8.85,8.55,14.2v19.02c0,1.91.39,3.19.75,3.66-2.1-.92-4.48-3.09-4.48-7.03M471.12,79.34v-5.43c0-.9-.03-1.69-.09-2.39.31.12.61.23.88.32.9.9,1.94,1.55,2.93,2.05v8.8c0,1.91.39,3.2.75,3.67-2.1-.92-4.46-3.08-4.47-7.01M471.2,97.79c0-.64-.08-5.92-.08-6.95,0-1.14-.05-3.08-.15-4.54.34.13.65.25.94.36.9.89,1.94,1.54,2.93,2.04v11.24c0,1.91.39,3.2.75,3.66-1.87-.81-4.39-3.07-4.39-5.81M471.2,126.3v-4.21h0c0-2.65-.08-4.96-.08-5.75v-6.27c0-.53-.02-3.27-.03-6.79.12.05.24.1.36.14,1.01,1.16,2.23,1.95,3.4,2.53v22.48c0,1.91.39,3.2.75,3.67-1.87-.81-4.39-3.17-4.39-5.81M465.51,76.17v-5.5c0-.97-.03-1.78-.09-2.47.21.08.43.16.62.23.98,1.05,2.13,1.78,3.23,2.32.02,1.15-.04,2.36-.04,3.57v5.39c0,1.28.18,2.39.48,3.36-2.03-.97-4.21-3.13-4.21-6.9M465.51,93.11v-5.5c0-.98-.03-3.03-.09-4.59.22.08.43.16.63.24.98,1.04,2.13,1.77,3.22,2.31.04,1.83-.03,4.36-.03,5.69v3.2h0v2c0,.13,0,.25,0,.38,0,0,0,0,0,0v.12c0,1.15.14,2.16.39,3.07-1.84-.84-4.12-3.21-4.12-6.92M465.51,112.34v-5.5c0-.95-.03-4.47-.09-7.15,1.1,1.45,2.54,2.3,3.84,2.88-.02,4.06-.03,7.31-.03,7.92v5.21c0,1.91,0,3.01.36,3.48-1.57-.69-4.08-2.91-4.08-6.85M460.14,72.95v-4.98c0-1.03.01-1.71-.02-2.29.51.19,1.05.37,1.63.52.61.47,1.24.87,1.87,1.2,0,.18,0,.36,0,.54v8.63c0,1.18.15,2.22.41,3.13-1.94-1.04-3.9-3.16-3.9-6.75M460.14,88.08v-4.98c0-1.9-.05-1.89-.06-2.82.53.23,1.02.41,1.46.58.67.55,1.38,1,2.08,1.36,0,1.12,0,2.39,0,2.66v8.63c0,.39.02.75.04,1.11-1.81-1.1-3.53-3.18-3.53-6.53M463.63,104.1v8.53c-1.8-1.12-3.49-3.18-3.49-6.51v-4.98c0-1.45-.03-4.72-.05-6.67,1.01,1.33,2.29,2.22,3.53,2.87.01,2.32,0,6.41,0,6.77M455.45,70.47v-5c0-1.29-.02-2.23-.09-2.94.19.1.38.19.57.29.63.72,1.39,1.37,2.32,1.95.02.42.01.83.01,1.21v7.37c0,1.37.2,2.54.55,3.56-1.74-1.13-3.36-3.18-3.36-6.43M455.45,83.87v-5.01c0-.56,0-1.06-.02-1.5.23.13.48.26.73.38.64.65,1.34,1.16,2.05,1.59.05.6.05,1.22.05,1.77v7.37c0,.52.03,1.02.09,1.49-1.56-1.18-2.9-3.14-2.9-6.11M458.26,99.15v6.18c-1.52-1.19-2.81-3.13-2.81-6.04v-5.01c0-.93-.01-2.67-.04-4.03.81,1.06,1.79,1.85,2.79,2.45.07,2.12.06,5.81.06,6.44M450.65,69.2c0-1.14-.09-7.15-.1-11.06.65,1.13,1.6,2.22,2.94,3.21.15,1.11.08,2.49.08,3.46v6.06c0,1.13.14,2.12.38,3.02-1.83-1.36-3.3-3.02-3.3-4.68M450.59,72.89c.6,1.09,1.61,2.24,2.99,3.29,0,.72-.01,1.45-.01,2.03v4.99c-1.65-1.29-2.92-2.84-2.92-4.39,0-.69-.03-3.19-.06-5.92M453.57,93.63v3.57c-1.65-1.29-2.92-2.84-2.92-4.39,0-1.08-.08-6.49-.1-10.38.59,1.09,1.6,2.26,2.98,3.31.1,2.28.03,7.02.03,7.88M449.1,114.41c.22.51.16,1.52.4,1.99.23.47.75.79.9,1.03.19.32.12,1.11.37,1.67.12.26.25.52.38.76-.17.18-.31.39-.43.59-.39-.87-1.34-.97-2.06-.52-.36.23-.79.59-1.13,1.16.14-.99-.04-1.3-.42-1.69-.57-.57-.34-1.75-.8-2.47-.35-.55-1.01-.73-1.43-1.59-.42-.85-.21-1.31-.64-2.15-.48-.96-.6-1.27-.63-2.56.55.7,1.18,1.29,2.03,2.15.3-2.02.33-2.5.33-4.24.86.73,1.73,1.82,2.01,2.55.16.44.32,1.72.39,1.93.21.66.51.87.74,1.38M452.85,120.29c.9.07.4,3.97,1.06,5.33.68,1.38.38,2.52-.89,2.4-1.3-.12-1.23-4.07-1.24-4.76,0-.98-.49.52-.76,1.07-.06-.24-.11-.51-.15-.78-.1-.67-.02-1.1.02-1.51.35-.93,1.04-1.81,1.95-1.74M454,121.88c.36-1.17,1.33-2.8,2.45-2.54.88.19.04,3.01.57,4.38,1.03,2.69-.42,3.6-1.66,3.28-1.4-.35-.78-4.1-.65-4.65.03-.89-.43-.02-.74.48-.06-.23-.11-.38.04-.95M458.15,122.44l8.24,5.63v11.85c-13.09,7.41-27.76,11.72-42.88,12.04h-.25s-1.15.95-1.7,1.41h0s0,0,0,0c-.56-.46-1.7-1.41-1.7-1.41h-.25c-15.12-.31-29.79-4.62-42.87-12.03v-11.85s8.22-5.63,8.22-5.63c.2.11.41.23.61.34.03,1.18-.8,1.79-.61,3,.15,1.01.77,1.73,1.51,2.06.19.44.56.8,1.05,1.01.5.19.44-.25.43-.89.11-.03.22-.06.33-.12.14.48.45.83.85,1.03.18.36.51.69,1.16,1.13.64.3.21-.4.09-1.03.24-.06.48-.16.72-.32.08.19.2.37.38.49.06.05.12.09.18.13.16.66.62,1.04,1.32,1.43.47.15.29-.38.24-.88.65,0,1.22-.35,1.48-1.41.12-.51.11-.82.08-1.09,7.81,3.32,16.26,5.58,24.52,5.84.29.22,2.27,1.71,2.27,1.71,0,0,1.98-1.49,2.28-1.71,8.21-.25,16.6-2.49,24.38-5.78-.02.26-.02.57.1,1.03.26,1.06.82,1.42,1.47,1.41-.05.5-.22,1.03.24.88.7-.4,1.16-.78,1.32-1.44.06-.04.12-.08.18-.13.17-.12.29-.29.38-.49.24.16.47.26.72.32-.12.63-.56,1.32.09,1.03.64-.43.98-.76,1.15-1.13.4-.2.72-.56.85-1.03.11.06.22.09.33.12,0,.64-.07,1.07.43.89.49-.2.86-.56,1.05-1.01.73-.33,1.35-1.05,1.51-2.06.19-1.19-.61-1.79-.61-2.93.24-.13.48-.27.72-.41M385.98,123.72c.53-1.38-.32-4.19.56-4.38,1.12-.26,2.1,1.37,2.45,2.55.11.33.09.84.05.95-.32-.5-.78-1.37-.75-.48.12.54.75,4.3-.65,4.65-1.24.31-2.69-.6-1.66-3.28M390.14,120.29c.91-.07,1.6.81,1.95,1.74.05.41.12.84.03,1.51-.04.28-.09.54-.15.78-.26-.55-.76-2.05-.76-1.07,0,.69.06,4.64-1.24,4.76-1.27.12-1.56-1.02-.89-2.4.66-1.36.17-5.26,1.07-5.33M394.67,123.28c-1.07,1.93-.12,5.56-1.34,5.63-3.51.23-.91-4.18-.78-5.27.16-1.4.02-3.45,1.38-3.03,1.23.37,2.79,4.36,3.55,5.55,0,.01.02.03.04.04-.28-.11-.56-.23-.83-.34.08.03.14.05.18.06-1.25-.49-1.98-3.52-2.19-2.63M449.05,120.61c1.37-.43,1.23,1.62,1.38,3.03.13,1.1,2.74,5.5-.78,5.27-1.22-.08-.27-3.7-1.34-5.63-.19-.8-.78,1.68-1.81,2.54-.33.14-.68.27-1.02.41.81-1.37,2.37-5.27,3.56-5.63M429.91,121.13c.88,5.11-4.16,5.39-4.91,1.45-.09-.5-.23-2.01-.39-4.02-.38-6.86-.94-17.74-.97-19.79.85-.54,1.87-.95,2.9-1.23.56,3.87,3.14,22.22,3.38,23.59M430.42,97.28c.54.1,1,.29,1.32.56.49.34,1.03.81,1.61,1.38.9,3.43,4.58,17.17,4.91,18.54.4,1.66.83,3.17,1.53,3.86-2.22.42-3.79,0-4.31-2.02-.67-3.16-4.14-18.86-5.06-22.33M434.16,119.69c.29,1.69,1.64,4.09.1,4.46-2.39.59-2.6-.74-2.99-2.8-.01-.06-3.37-22.02-3.84-24,.77-.14,1.52-.2,2.19-.16.49,2.42,4.31,21.13,4.55,22.5M419.73,121.78c0-2.66.41-19.64.49-22.38.68.59,1.14,1.28,1.27,2.06.14-.78.6-1.47,1.28-2.06.07,2.74.48,19.72.48,22.38,0,2.9-.76,3.94-1.77,4.54-1-.6-1.76-1.64-1.76-4.54M403.42,117.58c-.65,2.31-2.23,4.72-2.6,5.09,1.36.51,3.84.91,5.59.22-.25.91-.24,1.74.54,2.52.96.95,3.64,1.64,4.95-.6,1.05,3.74,5.08,3.56,6.67.95.69,2.17,2.1,2.44,2.92,3.26.82-.82,2.24-1.09,2.93-3.26,1.58,2.61,5.62,2.79,6.67-.95,1.31,2.24,4,1.56,4.95.6.78-.78.79-1.61.54-2.52,1.75.69,4.22.29,5.59-.22-.37-.37-1.95-2.78-2.6-5.09-.8-2.81-3.72-12.94-5.04-17.1,3.56,4.09,7.64,11.03,7.9,14.68.11-.52.35-1.15.57-1.83.82,1.71,2.8,5.2,3.13,6.02.34.86.44,1.43.19,2.58-.18.83-.94,3.34-2.55,4.96,0,0,0,0,0,.02-6.46,2.4-13.26,3.9-20.24,4.09-.57.47-1.98,1.52-1.98,1.52,0,0-1.4-1.06-1.97-1.52-6.96-.19-13.74-1.68-20.17-4.06,0,0,0-.01.01-.02-1.62-1.62-2.57-4.15-2.75-4.98-.25-1.15-.15-1.71.2-2.58.33-.82,2.31-4.32,3.13-6.02.22.68.46,1.32.57,1.83.27-3.65,4.34-10.58,7.91-14.68-1.32,4.15-4.24,14.29-5.04,17.1M407.52,119.61c-.52,2.02-2.09,2.44-4.31,2.02.69-.7,1.13-2.2,1.53-3.86.33-1.38,4-15.11,4.91-18.55.57-.57,1.11-1.04,1.61-1.38.32-.27.78-.45,1.32-.56-.92,3.47-4.39,19.16-5.06,22.33M416.46,97.55c1.03.27,2.05.69,2.9,1.23-.04,2.06-.6,12.92-.98,19.78-.15,2.02-.29,3.53-.39,4.03-.75,3.94-5.78,3.66-4.91-1.45.23-1.37,2.82-19.72,3.38-23.59M411.73,121.35c-.39,2.05-.6,3.38-2.99,2.8-1.55-.37-.19-2.77.09-4.46.25-1.46,4-19.73,4.55-22.5.67-.04,1.42.02,2.19.16-.48,1.98-3.83,23.94-3.84,24M392.23,119.1c.25-.56.18-1.36.37-1.67.15-.23.66-.56.9-1.03.23-.47.17-1.48.4-1.99.22-.51.53-.72.74-1.38.06-.21.22-1.49.39-1.93.28-.74,1.15-1.83,2.01-2.55,0,1.74.02,2.22.32,4.24.85-.86,1.48-1.45,2.03-2.15-.03,1.29-.15,1.6-.63,2.56-.43.84-.22,1.3-.64,2.15-.42.86-1.07,1.03-1.43,1.59-.46.72-.23,1.91-.8,2.47-.38.38-.56.7-.42,1.69-.34-.57-.77-.92-1.13-1.16-.71-.45-1.67-.35-2.06.51-.13-.2-.27-.41-.43-.59.13-.23.26-.5.38-.76M392.34,69.2c0,1.66-1.47,3.33-3.29,4.68.24-.89.38-1.89.38-3.02v-6.06c0-.97-.08-2.35.07-3.46,1.34-.99,2.29-2.09,2.94-3.21-.02,3.92-.1,9.92-.1,11.06M389.4,76.17c1.37-1.04,2.38-2.19,2.98-3.27-.03,2.72-.06,5.21-.06,5.9,0,1.55-1.26,3.09-2.91,4.38v-4.99c0-.58-.03-1.3-.02-2.03M392.33,92.81c0,1.54-1.26,3.09-2.91,4.38v-3.56c0-.86-.06-5.61.03-7.89,1.38-1.06,2.38-2.23,2.97-3.31-.02,3.89-.09,9.3-.09,10.38M387.54,65.47v5c0,3.25-1.62,5.3-3.37,6.43.34-1.01.55-2.19.55-3.55v-7.37c0-.38,0-.8.01-1.21.93-.57,1.69-1.23,2.32-1.95.2-.1.38-.19.57-.29-.06.71-.08,1.66-.08,2.94M384.64,89.97c.06-.47.09-.97.09-1.49v-7.37c0-.56,0-1.17.04-1.77.72-.43,1.42-.95,2.06-1.59.25-.12.49-.25.72-.38,0,.44,0,.94,0,1.5v5.01c0,2.96-1.35,4.92-2.9,6.11M387.54,94.29v5.01c0,2.91-1.29,4.85-2.82,6.04v-6.18c0-.62-.01-4.32.06-6.44,1-.6,1.99-1.39,2.8-2.45-.03,1.36-.04,3.1-.04,4.03M382.84,83.1v4.98c0,3.36-1.72,5.43-3.53,6.53.02-.36.04-.72.04-1.11v-8.63c0-.27,0-1.53,0-2.66.7-.36,1.41-.81,2.08-1.36.44-.16.94-.35,1.46-.57,0,.93-.05.92-.05,2.82M382.84,101.14v4.98c0,3.33-1.69,5.39-3.49,6.51v-8.53c0-.36,0-4.44,0-6.76,1.24-.65,2.53-1.54,3.53-2.87-.02,1.95-.05,5.22-.05,6.67M378.94,79.7c.27-.92.41-1.95.41-3.13v-9.17c.63-.33,1.27-.72,1.87-1.2.58-.15,1.12-.32,1.63-.52-.02.57-.01,1.26-.01,2.29v4.98c0,3.59-1.96,5.71-3.9,6.75M377.47,87.61v5.5c0,3.71-2.28,6.08-4.12,6.91.25-.9.4-1.91.4-3.06v-.12s0,0,0,0c0-.13,0-.25,0-.38v-1.99h0v-3.21c0-1.33-.08-3.86-.04-5.69,1.1-.54,2.25-1.28,3.22-2.31.2-.08.4-.16.62-.24-.06,1.56-.09,3.62-.09,4.59M377.47,106.85v5.5c0,3.94-2.52,6.16-4.09,6.85.36-.47.36-1.57.36-3.48v-5.21c0-.61-.02-3.87-.02-7.92,1.3-.58,2.73-1.43,3.83-2.88-.05,2.68-.08,6.2-.08,7.15M373.71,70.76c1.1-.54,2.25-1.28,3.23-2.32.2-.07.4-.15.62-.23-.05.69-.08,1.51-.08,2.47v5.5c0,3.78-2.18,5.93-4.21,6.9.31-.97.49-2.08.49-3.36v-5.39c0-1.21-.06-2.42-.04-3.57M367.39,86.35c.36-.47.75-1.76.75-3.67v-8.8c.99-.5,2.03-1.15,2.94-2.05.27-.1.56-.21.88-.32-.06.71-.09,1.49-.09,2.39v5.41c0,3.94-2.37,6.11-4.48,7.03M371.87,90.84c0,1.03-.09,6.31-.09,6.95,0,2.74-2.51,5-4.39,5.81.36-.47.75-1.76.75-3.66v-11.24c.99-.49,2.03-1.15,2.94-2.04.28-.11.59-.23.93-.36-.09,1.46-.14,3.4-.14,4.54M371.87,110.08v6.27c0,.79-.07,3.09-.09,5.74,0,0,0,0,0,0v4.21c0,2.64-2.51,4.99-4.39,5.81.36-.47.75-1.76.75-3.67v-22.48c1.17-.58,2.39-1.37,3.4-2.53.11-.04.23-.09.36-.14-.02,3.52-.03,6.26-.03,6.79M408.76,20.42h0c-.49.14-3.08.58-3.41.25.57-.3.95-.47,2.04-1.15.79.06,1.56.55,2.79,1.28-.69-.28-.76-.51-1.41-.38M476.71,89.51c.53.2,1,.36,1.37.51-1.48-2.23-1.37-5.85-1.37-6.7v-8.63c.53.2,1,.37,1.37.52-1.48-2.24-1.37-5.85-1.37-6.71v-20.09c0-5.56-8.5-19.02-15.68-19.2-5.1-.12-11.09,7.04-18.41,5.19-2.35-.61-4.22-3.13-5.77-6.25-2.73-5.57-5.35-13.03-12-17.35-7.36-4.77-15.83.56-16.8,1.4-.83.77-2.16,3.05-2.87,3.42-2.3,1.2-2.68,3.21-2.68,3.98s.17,2.62,1.57,3.67c-.19-.91-.24-1.41-.03-1.87.91.15,2.93.57,4.23.03.64.64,2.17,1.87,2.83,3.13.93,1.75.94,2.02.94,2.71,0,1.78-.83,4.34-3.38,6-2.67,1.91-8.97,2.97-16.87.27-4.27-1.46-6.03-4.43-9.85-4.33-7.19.18-15.68,13.65-15.68,19.2v20.09c0,.86.11,4.47-1.37,6.71.37-.15.84-.32,1.37-.52v8.63c0,.86.11,4.47-1.37,6.7.37-.15.84-.31,1.37-.51v11.06c0,.86.11,4.47-1.37,6.71.37-.15.84-.3,1.37-.5v22.3c0,.64.06,2.83-.53,4.84-.2.67.25,1.47.95,1.19,2.88-1.15,7.06-3.39,7.06-9.64v-3.52c2.07-.9,4.55-2.51,5.34-6.42,2.35-1.16,4.94-3.19,5.52-7.27,2.4-1.4,4.79-3.81,4.81-8.49,2.09-1.58,3.33-3.44,3.58-4.88.17-.97.29-3.28.34-5.96,1.51-1.1,2.6-2.36,3.22-3.5-.24,5.8-1.4,13.6-4.13,24.4.48,0,1.13-.11,1.78-.26-.36,2.18-2.21,7.36-3.46,9.71-.17-.01-.34-.01-.54.02-.41.07-.7.46-.9.96-.56-.85-1.26-2.24-2.89-1.7-.84.28-1.16.94-1.22,1.65-1.36.85-10.56,6.56-10.56,6.56v14.22c13.66,8.09,28.71,12.96,44.95,13.3.53.53,1.97,1.63,1.97,1.63,0,0,1.45-1.1,1.98-1.63,16.23-.34,31.28-5.21,44.95-13.3v-14.22s-9.98-6.19-10.69-6.65c-.09-.67-.41-1.29-1.22-1.56-1.63-.53-2.33.85-2.89,1.7-.19-.49-.49-.88-.91-.96-.2-.03-.38-.03-.53-.02-1.24-2.35-3.1-7.54-3.46-9.71.66.15,1.3.26,1.78.26-2.73-10.8-3.89-18.6-4.13-24.4.62,1.14,1.7,2.39,3.2,3.49.05,2.68.17,5,.34,5.97.25,1.44,1.5,3.3,3.59,4.88.03,4.67,2.41,7.09,4.81,8.48.57,4.08,3.17,6.1,5.51,7.27.8,3.91,3.27,5.52,5.35,6.42v3.52c0,6.18,4.09,8.45,6.96,9.61.73.29,1.34-.27,1.15-.8-.71-2.09-.64-4.51-.64-5.19v-22.27c.53.2,1,.33,1.37.48-1.48-2.24-1.37-5.85-1.37-6.71v-11.06ZM456.14,138.91c-.19.07-.39.15-.59.23-.06-.14-.1-.27-.16-.41.13-.25.26-.49.39-.74.27.09.53.18.8.27.06.14.11.27.17.41-.2.08-.4.16-.61.24M455.21,136.54c-.38.74-.77,1.49-1.16,2.22.1.28.21.55.31.83-.4.15-.81.3-1.22.44-.73-2.04-1.45-4.08-2.18-6.12-.11-.32-.1-.67.3-.94-.73-.28-1.45-.58-2.16-.88.95,2.79,1.9,5.57,2.85,8.36.12.35.24.7.36,1.05.31-.11.61-.21.92-.32l.29-.1c1.02-.36,2.03-.75,3.04-1.14.6-.24,1.2-.48,1.8-.73-.26-.61-.52-1.23-.77-1.83-.8-.27-1.59-.54-2.37-.83M464.3,136.46c.39-.19.77-.39,1.16-.59-1.17-2.25-2.34-4.5-3.51-6.75-.15-.3-.19-.65.18-.97-.77-.18-1.53-.36-2.29-.57,1.32,2.63,2.65,5.26,3.97,7.89.17.33.34.66.5.99M443.49,69.22s.02.03.02.05c0,.02-.02.03-.04.04l-1.17.26-.26,1.02s-.02.03-.05.04h0s-.04,0-.04-.03l-.58-.94-1.17-.03s-.04-.02-.05-.03c0-.02,0-.04,0-.06l.74-.86-.29-1.09s0-.04.02-.05c.02-.01.04-.02.06,0l1.06.47.92-.6s.02,0,.03,0,.02,0,.03,0h0s.02.03.02.05l-.2,1.03.94.75ZM431.77,81.61l-.52-2s-.02-.03-.05-.04c-.02,0-.04,0-.05.02,0,0-1.02,1.48-1.33,1.89-.51-.02-2.31-.15-2.32-.15-.02,0-.04.01-.05.03,0,0,0,.03,0,.05l1.25,1.66c-2.24.86-4.67,1.33-7.2,1.33s-5.13-.51-7.43-1.42l1.18-1.57s.02-.04,0-.06c-.02-.02-.03-.03-.05-.03,0,0-1.81.14-2.32.15-.31-.4-1.33-1.88-1.33-1.88,0-.02-.03-.03-.05-.02-.02,0-.04.02-.04.04l-.48,1.84c-4.11-2.5-7.27-6.42-8.78-11.08l1.88-.05s.04-.02.04-.03c.01-.02,0-.04,0-.05,0,0-1.18-1.33-1.52-1.72.13-.51.63-2.21.63-2.22,0-.02,0-.04-.01-.05-.02-.02-.03-.02-.06-.01l-1.74.78c-.14-.94-.22-1.91-.22-2.9,0-4.12,1.24-7.96,3.37-11.16l1.15,1.36s.02.02.04.02c0,0,0,0,.01,0,.02,0,.03-.02.04-.04,0,0,.3-1.76.4-2.25.49-.21,2.17-.86,2.17-.87.02,0,.03-.02.04-.04,0-.02-.01-.04-.03-.05l-1.65-.86c3.3-3.51,7.82-5.84,12.89-6.31l-.37,1.89s0,.04.02.05c0,0,.02,0,.03,0,0,0,.02,0,.03,0,0,0,1.56-.9,2.01-1.12.45.23,2.02,1.12,2.02,1.12.02,0,.04,0,.05,0,.02-.01.02-.03.02-.05l-.37-1.91c5.13.4,9.74,2.71,13.09,6.23l-1.85.96s-.03.03-.03.05c0,.02.01.04.03.05,0,0,1.68.65,2.17.87.1.49.4,2.24.4,2.24,0,.02.02.04.04.04,0,0,0,0,0,0,.02,0,.03,0,.04-.02l1.32-1.56c2.2,3.25,3.49,7.15,3.49,11.36,0,1.03-.08,2.03-.23,3.02l-2.02-.9s-.04,0-.06,0c-.02.02-.02.04-.02.05,0,0,.5,1.71.63,2.22-.34.4-1.51,1.72-1.52,1.72-.02.02-.02.04,0,.05,0,.02.03.03.05.03l2.17.06c-1.55,4.75-4.8,8.74-9.04,11.24M432.3,82.86s0,.02-.02.02l-.92.5v1.19s0,.04-.02.05h-.03s-.02,0-.03,0l-.93-.74-.57.24-.39.16h0s0,0,0,0c-.02,0-.03,0-.05,0,0,0,0-.02,0-.03,0,0-.01-.02,0-.03l.16-.43.22-.59-.29-.39h0l-.4-.54s0-.02,0-.02c0,0,0-.02,0-.03,0,0,.02-.01.02-.02,0,0,.01-.02.02-.02l1.11.03.69-.9s.03-.02.05-.02c.02,0,.03.02.04.03,0,0,0,0,0,0l.17.66.12.47.78.26.26.09s.03.02.04.04c0,.01-.01.02-.02.03M413.72,82.23s0,.02,0,.03l-.4.53-.3.4.16.43.22.59s0,.04-.01.06c0,0,0,0-.01,0,0,0-.03,0-.04,0l-.26-.11-.51-.21s.02,0,.03,0l-.22-.09-.35.28-.58.45s-.02.01-.03.01h-.02s-.02-.03-.02-.05v-1.19s-.91-.5-.91-.5c-.02,0-.03-.03-.03-.05h0s.02-.03.03-.04l.52-.17.52-.17.16-.61.13-.52s.02-.03.04-.03c.02,0,.04,0,.05.02h0l.34.45.35.45,1.11-.02s.04,0,.05.02c0,0,0,.02,0,.02M400.78,70.6s-.02.03-.04.03h0s-.04-.02-.04-.04l-.26-1.02-1.17-.26s-.03-.02-.04-.04c0-.02,0-.04.02-.05l.94-.75h0s-.04-.22-.04-.22h0s-.16-.8-.16-.8c0-.01,0-.03,0-.04,0,0,0-.01.01-.02.02,0,.04,0,.06,0l.92.6.57-.25.49-.22s.04,0,.06,0c.02.01.02.03.02.05l-.3,1.1.74.86s.02.03,0,.06c0,.02-.02.03-.04.03l-1.17.03-.58.94ZM403.4,51.82l.63-.84-.53-1.07s0-.04,0-.06c.02-.02.03-.02.05-.02l1.18.27.68-.8s.04-.02.06-.02c.02,0,.03.02.03.04l.08,1.1,1.04.54s.03.02.03.04c0,.02,0,.04-.03.05l-1.02.46-.23,1.11s-.02.04-.04.04h-.01s-.03,0-.04-.02l-.28-.33-.47-.56-1.04.13h-.04s-.04,0-.06-.02c0-.02,0-.04,0-.06M419.72,42.42s.02-.02.04-.02l1.04-.05.52-1.08s.03-.03.05-.03c.02,0,.04.01.05.03l.52,1.08h.09s0,0,0,0l.71.03h0c.09,0,.17,0,.26.01.02,0,.02.02.03.03h0s0,.04,0,.06l-.78.76.23,1.15s0,.04-.02.05c0,0-.02.01-.03.01,0,0-.02,0-.02,0l-1.01-.51-1,.51s-.04,0-.06,0c-.01-.01-.02-.03-.02-.05l.1-.53.12-.61-.79-.76s-.02-.04,0-.06c0,0,0,0,0-.01M436.69,50.67l.45-.23.08-1.1s.01-.04.03-.04c0,0,.02,0,.03,0,.01,0,.02,0,.03.02l.68.81.09-.02,1.08-.25s.04,0,.05.02c.01.01.01.03,0,.05l-.53,1.07.62.84s.02.04,0,.06c-.01.02-.03.03-.05.02l-1.09-.14-.75.89s-.02.02-.04.02c0,0-.01,0-.02,0-.02,0-.03-.02-.03-.04l-.23-1.11-1.02-.46s-.03-.03-.03-.05,0-.04.03-.05l.59-.31ZM443.7,65.89s0-.04-.02-.05c-.02-.02-.04-.02-.06,0,0,0-.18.13-.43.3.06-.67.1-1.35.1-2.03,0-4.15-1.17-8.02-3.19-11.32.4.07.72.12.72.12.02,0,.04,0,.06-.02.01-.02.01-.04,0-.06,0,0-1.02-1.51-1.32-1.92.23-.47.93-2.02.93-2.02.01-.02,0-.04,0-.05-.01-.02-.03-.02-.05-.02l-2.15.49c-.34-.4-1.55-1.75-1.55-1.75-.02-.02-.03-.02-.06-.02-.02,0-.03.02-.03.05l-.06.82c-3.33-3.19-7.67-5.34-12.49-5.91.37-.33.69-.62.69-.62.02-.01.02-.03.02-.06,0-.02-.02-.03-.05-.03,0,0-1.83-.13-2.34-.15-.22-.46-.99-1.97-.99-1.97l-.02-.02s-.03-.01-.05,0c-.01,0-.03.01-.03.03,0,0-.77,1.51-.98,1.98-.51.02-2.34.15-2.34.15-.02,0-.04.02-.05.03,0,.02,0,.04.02.06,0,0,.34.3.72.65-4.85.63-9.19,2.86-12.5,6.15l-.08-1.09s-.01-.03-.04-.04c-.02,0-.04,0-.06.02,0,0-1.21,1.34-1.55,1.75l-2.15-.49s-.04,0-.05.02c0,.02-.02.04,0,.06,0,0,.7,1.56.93,2.02-.3.41-1.31,1.92-1.31,1.92-.02.02-.02.04,0,.06,0,.02.03.02.05.02,0,0,.5-.09,1.04-.18-2.04,3.31-3.22,7.21-3.22,11.38,0,.76.04,1.52.12,2.26-.4-.28-.74-.52-.74-.52-.02-.02-.04-.02-.06,0-.02.01-.02.03-.02.05,0,0,.25,1.79.35,2.3l-1.74,1.38s-.02.03-.02.05c0,.02.02.03.04.04,0,0,1.67.41,2.18.52.13.5.67,2.22.67,2.22,0,.02.02.03.04.04h0s.04,0,.05-.03c0,0,.21-.39.46-.83,1.62,4.41,4.62,8.15,8.48,10.7-.5.14-.94.27-.94.27-.02,0-.04.02-.04.04,0,.02,0,.04.03.05,0,0,1.59.91,2.03,1.16,0,.3.03,2.22.03,2.22,0,.02.01.03.03.04.01,0,.02,0,.02,0,.01,0,.03,0,.03-.02l1.74-1.36,2.18.92s.04,0,.06,0c.02-.02.02-.04,0-.06,0,0-.17-.41-.36-.89,2.24.78,4.64,1.21,7.15,1.21,2.37,0,4.66-.38,6.8-1.09-.17.42-.31.76-.31.76,0,.02,0,.04.02.06.01.02.03.02.05,0l2.18-.92,1.74,1.37s.02,0,.03,0h.02s.03-.02.03-.05c0,0,.03-1.92.03-2.22.45-.24,2.04-1.16,2.04-1.16.02,0,.03-.03.03-.05,0-.02-.02-.04-.04-.04,0,0-.32-.09-.73-.21,3.81-2.49,6.79-6.14,8.45-10.44.16.29.28.51.28.51,0,.02.03.03.05.03h0s.04-.02.04-.04c0,0,.54-1.72.67-2.22.51-.11,2.18-.52,2.18-.52.02,0,.04-.02.04-.04,0-.02,0-.04-.02-.05l-1.74-1.39c.09-.51.35-2.3.35-2.3M461.31,136.2c.06.13.12.27.19.4-.2.1-.4.19-.6.27-.19.09-.39.18-.58.27-.06-.13-.12-.27-.18-.4.12-.25.23-.51.35-.76.27.08.55.15.82.23M460.19,133.8c-.11.26-.23.52-.34.78-.27-.08-.53-.16-.79-.25-.79-1.74-1.58-3.49-2.37-5.23-.33.8-.67,1.59-1.02,2.38.48-.07.84.13.97.43.45,1.04.91,2.09,1.37,3.14.03.07.06.14.09.21.42.14.85.27,1.28.4-.19.4-.38.81-.57,1.22.27.61.53,1.22.8,1.83.6-.26,1.19-.52,1.78-.79.59-.27,1.18-.56,1.77-.84-.29-.6-.58-1.2-.87-1.79-.44-.12-.87-.23-1.3-.36.18-.41.35-.82.53-1.23-.53-1.1-1.07-2.19-1.6-3.29-.14-.29-.06-.7.31-1.02-.83-.24-1.65-.5-2.46-.77.81,1.73,1.63,3.46,2.44,5.19M433.85,137.31c-.65-.43-1.28-.87-1.91-1.32.39,3.29.79,6.57,1.18,9.87.43-.05.85-.1,1.27-.16-.34-2.51-.67-5.03-1.01-7.54-.04-.33.02-.68.47-.85M446.49,135.36c-.1-.32-.07-.67.35-.91-.71-.32-1.41-.66-2.11-1,.8,2.83,1.59,5.66,2.39,8.5.1.36.2.71.3,1.07.41-.12.82-.23,1.23-.36-.72-2.43-1.44-4.86-2.16-7.3M426.34,144.22c-.27-.43-.53-.86-.79-1.29.12,0,.25,0,.37-.02.01-.32.12-.49.32-.68.22.16.36.32.4.65.12,0,.24-.02.37-.02-.22.45-.44.91-.67,1.36M429.24,137.83c.47.07.61.39.65.72.2,2.16.4,4.32.6,6.48-1.11.1-2.22.19-3.34.25.6-1.21,1.18-2.43,1.73-3.66-.48.04-.96.07-1.45.11-.21-.37-.8-.78-1.26-.81-.44.07-1,.53-1.15.92-.48.02-.97.03-1.45.04.66,1.17,1.36,2.33,2.08,3.47-1.09.04-2.17.07-3.26.07,0-1.11,0-2.21-.02-3.32-.61.56-1.22,1.11-1.85,1.65.38,0,.61.23.61.57,0,.92-.02,1.83-.02,2.75,0,.61-.58,1.11-1.3,1.09-.57-.01-1.04-.34-1.2-.77.17.74.94,1.32,1.87,1.33,1.07.02,1.93-.73,1.92-1.65,0-.18,0-.36,0-.55,1.36,0,2.71-.04,4.05-.11,1.38-.06,2.76-.17,4.14-.29.06,0,.12,0,.18-.02.37-.03.73-.07,1.1-.11-.35-3.3-.7-6.58-1.05-9.88-.51.58-1.04,1.15-1.57,1.71M443.36,139.96c.5-.01.7.28.78.59.17.68.35,1.36.52,2.05-1.83.46-3.68.87-5.53,1.22-.25.05-.5.09-.75.14-.38-.23-.77-.46-1.14-.7.87-.88,1.41-2.45,1.08-3.76-.21,1.83-1.04,3.13-3.08,3.86.93.61,1.87,1.2,2.84,1.78.43-.07.84-.15,1.26-.23,2.3-.43,4.58-.96,6.85-1.56-.47-1.78-.95-3.55-1.42-5.33-.45.65-.92,1.3-1.39,1.95M449.7,137.7c-.41.71-.84,1.43-1.28,2.14.35-.11.66.03.76.35.27.88.54,1.76.82,2.63.18.58-.24,1.24-.93,1.44-.54.16-1.09,0-1.38-.37.39.66,1.29.97,2.19.7,1.05-.31,1.65-1.29,1.36-2.16-.51-1.57-1.03-3.15-1.54-4.73M406.56,16.12c-.41,0-.74.27-.74.61,0,.3.27.55.62.59-.03-.05-.05-.11-.05-.15,0-.25.31-.45.69-.45.08,0,.15,0,.22.02h0c0-.34-.33-.61-.74-.61"/>
  </g>
  <path class="cls-1" d="M109.98,77.21c-2.36,0-5.27.4-5.91.55.03.75.06,1.3.06,3.28v14.09c1.84.37,3.57.55,5.7.55,5.91,0,10.37-3.34,10.37-9.56,0-3.69-1.56-8.9-10.23-8.9ZM109.98,93.42c-.78,0-1.56-.06-2.25-.23v-13.6c.43-.09.95-.14,1.84-.14,4.29,0,6.77,2.36,6.77,6.71,0,6.02-3.77,7.26-6.37,7.26ZM137.15,58.5c6.11,0,9.31-4.44,9.31-9.59s-3.37-9.28-9.19-9.28h-.03c-5.88,0-9.36,4.15-9.36,9.59,0,4.35,2.62,9.28,9.28,9.28ZM136.92,41.88h.03c3.57,0,5.68,3.2,5.68,7.29,0,4.49-1.99,7.09-5.21,7.09-3.03,0-5.65-2.56-5.65-7.37s2.33-7,5.16-7ZM118.65,42.17c1.53,0,3.02.32,4.32.95.92.17,1.76-.69,1.73-1.81-.69-.66-2.82-1.67-5.96-1.67-5.65,0-10.23,3.63-10.23,9.56,0,7.17,5.13,9.3,9.97,9.3,1.38,0,2.94-.32,3.95-.61.78-.37,1.73-.98,2.28-1.44v-6.51c0-.61-.17-.78-.6-.78-.81,0-2.19.29-3.11.43.06.69.12,1.35.12,2.56v3.77c-.35.14-1.21.32-2.02.32-3.37,0-6.71-2.28-6.71-7.29,0-4.49,2.74-6.8,6.28-6.8ZM96.19,93.17c-1.09,0-2.02-.06-2.68-.2v-5.65h4.38c1.01,0,1.64-.37,1.9-2.39h-6.28v-5.16h3c1.3,0,2.28,0,2.71-.17.35-.37.69-.92.86-2.22h-7c-1.18.03-2.45.2-3.26.4.09,1.21.09,2.25.09,3.63v13.31l.43.55c.69.14,2.59.29,5.13.29,2.22,0,3.51-.06,3.92-.14.72-.4,1.27-1.07,1.53-2.3l-.06-.06c-1.38.12-3.49.12-4.67.12ZM276.38,42.46h5.19v15.27c0,.43.2.52.61.52,1.15,0,2.28-.09,3.08-.23-.03-.58-.09-1.53-.09-3.51v-12.04h4.58c.61-.14,1.38-.86,1.5-2.39h-10.26c-2.91,0-3.69-.03-4.15-.14-.29.32-.63.81-.95,1.67-.2.66.03.86.49.86ZM309.1,58.5c6.11,0,9.3-4.44,9.3-9.59s-3.37-9.28-9.19-9.28h-.03c-5.88,0-9.36,4.15-9.36,9.59,0,4.35,2.62,9.28,9.28,9.28ZM308.87,41.88h.03c3.57,0,5.68,3.2,5.68,7.29,0,4.49-1.99,7.09-5.21,7.09-3.03,0-5.65-2.56-5.65-7.37s2.33-7,5.16-7ZM322.29,57.69c0,.46.2.55.63.55,1.12,0,2.56-.09,3.05-.23-.06-2.16-.09-4.55-.09-7.43h4.41c1.12,0,1.81-.2,2.1-2.39h-6.51v-5.73h3.86c1.27,0,1.87,0,2.25-.17.37-.37.78-.92,1.01-2.22-1.38,0-6.28-.03-7.32,0-1.27.06-2.97.29-3.49.43.06,1.01.09,1.79.09,3.05v14.14ZM257.83,53c0,2.42-.03,4.09-.09,5.24.86.03,1.79-.03,2.3-.12.46-.09.63-.17.63-.78v-7.55c0-1.47.03-2.97-.14-5.88,1.18,2.22,2.02,3.83,3.54,6.25,2.28,3.51,3.75,5.76,5.24,7.84.2.29.37.4.72.4.84,0,2.48-.35,2.74-.46v-12.7c0-2.39.03-4.06.09-5.3-.66,0-1.44.03-2.33.12-.4.06-.6.17-.6.84v8.04c0,1.44-.03,2.56.14,4.78-.69-1.47-1.76-3.08-3.05-5.13-2.07-3.2-4.44-6.8-5.36-8.12-.29-.32-.52-.52-.81-.52-.52,0-3,.14-3.54.23v.14l.52.72v11.96ZM68.65,78.82c0-1.3-.09-1.56-.58-1.56-.61,0-2.59.14-3.11.23.06.55.09,1.73.09,3.66v13.83c0,.49.17.58.61.58.66,0,2.59-.09,3.08-.23-.03-.58-.09-1.53-.09-3.54v-12.96ZM168.22,57.41l.43.55c.69.14,2.59.29,5.13.29,2.22,0,3.51-.06,3.92-.14.72-.4,1.27-1.07,1.53-2.3l-.06-.06c-1.38.12-3.49.12-4.67.12-1.09,0-2.02-.06-2.68-.2v-5.65h4.38c1.01,0,1.64-.37,1.9-2.39h-6.28v-5.16h3c1.3,0,2.28,0,2.71-.17.35-.37.69-.92.86-2.22h-7c-1.18.03-2.45.2-3.26.4.09,1.21.09,2.25.09,3.63v13.31ZM72.65,77.23c-.29.32-.63.81-.95,1.67-.2.66.03.86.49.86h5.19v15.27c0,.43.2.52.6.52,1.15,0,2.28-.09,3.08-.23-.03-.58-.09-1.53-.09-3.51v-12.04h4.58c.61-.14,1.38-.86,1.5-2.39h-10.26c-2.91,0-3.69-.03-4.15-.14ZM37.23,78.1v8.64c0,5.5-1.96,6.48-4.29,6.48-1.99,0-4.29-.86-4.29-6.22v-8.07c0-1.41-.09-1.67-.61-1.67-.58,0-2.56.14-3.08.23.06.61.09,1.79.09,3.72v5.91c0,6.19,2.62,8.7,7.49,8.7,3.51,0,7.78-1.15,7.78-9.22v-4.09c0-2.39.03-4.09.09-5.24-.58,0-1.7.03-2.54.12-.4.06-.63.17-.63.72ZM57.16,78.21v8.04c0,1.44-.03,2.56.14,4.78-.69-1.47-1.76-3.08-3.05-5.13-2.07-3.2-4.44-6.8-5.36-8.12-.29-.32-.52-.52-.81-.52-.52,0-3,.14-3.54.23v.14l.52.72v11.96c0,2.42-.03,4.09-.09,5.24.86.03,1.79-.03,2.3-.12.46-.09.63-.17.63-.78v-7.55c0-1.47.03-2.97-.14-5.88,1.18,2.22,2.02,3.83,3.54,6.25,2.28,3.51,3.75,5.76,5.24,7.84.2.29.37.4.72.4.84,0,2.48-.35,2.74-.46v-12.7c0-2.39.03-4.06.09-5.3-.66,0-1.44.03-2.33.12-.4.06-.6.17-.6.84ZM249.85,55.85c-1.09,0-2.02-.06-2.68-.2v-5.65h4.38c1.01,0,1.64-.37,1.9-2.39h-6.28v-5.16h3c1.3,0,2.28,0,2.71-.17.35-.37.69-.92.86-2.22h-7c-1.18.03-2.45.2-3.26.4.09,1.21.09,2.25.09,3.63v13.31l.43.55c.69.14,2.59.29,5.13.29,2.22,0,3.51-.06,3.92-.14.72-.4,1.27-1.07,1.53-2.3l-.06-.06c-1.38.12-3.49.12-4.67.12ZM264.98,87c1.15-.52,3.46-1.84,3.46-4.58,0-3.66-2.28-5.21-6.86-5.21-1.33,0-4.21.32-4.95.49.06.81.06,1.5.06,2.94v9.65c0,2.42-.03,4.12-.09,5.27.58,0,2.16-.03,2.97-.12.49-.06.66-.17.66-.75v-6.65h.52c.95,0,1.5.23,2.39,1.87,1.15,2.25,1.73,3.4,2.51,4.41.75,1.01,1.5,1.3,2.56,1.3s2.1-.12,2.33-.29v-.12c-.72-.78-1.64-2.07-3.02-4.49-.98-1.7-1.87-3.14-2.54-3.72ZM262.99,85.76c-.4.2-1.99.29-2.77.2v-6.54c.35-.06.84-.09,1.24-.09,1.79,0,3.28,1.01,3.28,3.4,0,1.93-1.15,2.79-1.76,3.02ZM251.73,78.82c0-1.3-.09-1.56-.58-1.56-.6,0-2.59.14-3.11.23.06.55.09,1.73.09,3.66v13.83c0,.49.17.58.61.58.66,0,2.59-.09,3.08-.23-.03-.58-.09-1.53-.09-3.54v-12.96ZM241.7,78.16c-.09-.72-.26-.89-.55-.89-.69,0-2.62.17-3.05.4v.43c-1.21,2.94-3.14,8.12-4.58,11.9l-3.89-10.75c-.52-1.47-.75-1.87-1.18-1.99-1.38,0-2.42.26-3.14.4l.09.55c-1.12,6.57-2.28,14.03-2.79,17.08.46.26,1.79.26,2.56.26.32,0,.46-.14.52-.46.43-3.37,1.3-9.97,1.7-13.51,1.3,3.92,3.83,11.55,4.52,13.8.58,0,1.27-.12,1.79-.2.63-.14.84-.37,1.04-.95,1.84-5.42,3.54-10.2,4.35-12.7l.84,7.23c.32,3.05.49,4.61.66,6.08.06.58.43.72.81.72.58,0,2.39-.12,2.88-.26-.26-1.38-.58-3.51-1.04-6.54l-1.53-10.6ZM283.01,77.78c-.14-.35-.4-.52-.66-.52-.35,0-1.96.12-3.02.35l.23.61c-1.09,2.62-5.59,13.34-7.09,16.85v.12c.63.2,1.9.37,2.54.37.46,0,.69-.14.81-.4.37-.92,1.21-3.05,1.87-4.72h6.51c.66,1.64,1.07,2.74,1.58,4.21.29.78.52.92.98.92.63,0,2.59-.14,3.23-.35v-.12c-.58-1.21-1.27-3.02-2.45-5.96-1.01-2.51-3.2-8.18-4.52-11.35ZM278.48,88.04c.98-2.48,1.79-4.75,2.51-6.65.32.92,1.18,3.08,2.51,6.65h-5.01ZM328.43,85.01c-2.68-1.53-3.63-2.22-3.63-3.57,0-1.27,1.09-1.99,2.62-1.99.92,0,2.16.37,2.82.72,1.01.06,1.47-1.12,1.47-1.84-.72-.75-2.62-1.38-4.15-1.38h-.03c-4.75,0-6.14,3.14-6.14,5.1,0,1.73.58,3.57,3.92,5.39,2.91,1.58,3.57,2.3,3.57,3.57,0,1.47-1.21,2.22-2.94,2.22-1.38,0-3.11-.63-4.15-1.35-.26.17-.69,1.24-.69,1.84,0,.37.17.66.66.98.75.55,2.22,1.12,4.21,1.12,3.4,0,6.51-1.93,6.51-5.5,0-2.74-1.47-3.83-4.06-5.3ZM313.97,93.17c-1.09,0-2.02-.06-2.68-.2v-5.65h4.38c1.01,0,1.64-.37,1.9-2.39h-6.28v-5.16h3c1.3,0,2.28,0,2.71-.17.35-.37.69-.92.86-2.22h-7c-1.18.03-2.45.2-3.26.4.09,1.21.09,2.25.09,3.63v13.31l.43.55c.69.14,2.59.29,5.13.29,2.22,0,3.51-.06,3.92-.14.72-.4,1.27-1.07,1.53-2.3l-.06-.06c-1.38.12-3.49.12-4.67.12ZM139.54,77.78c-.14-.35-.4-.52-.66-.52-.35,0-1.96.12-3.03.35l.23.61c-1.09,2.62-5.59,13.34-7.09,16.85v.12c.63.2,1.9.37,2.54.37.46,0,.69-.14.81-.4.37-.92,1.21-3.05,1.87-4.72h6.51c.66,1.64,1.07,2.74,1.58,4.21.29.78.52.92.98.92.63,0,2.59-.14,3.23-.35v-.12c-.58-1.21-1.27-3.02-2.45-5.96-1.01-2.51-3.2-8.18-4.52-11.35ZM135.01,88.04c.98-2.48,1.79-4.75,2.51-6.65.32.92,1.18,3.08,2.51,6.65h-5.01ZM290.44,77.23c-.29.32-.63.81-.95,1.67-.2.66.03.86.49.86h5.19v15.27c0,.43.2.52.6.52,1.15,0,2.28-.09,3.08-.23-.03-.58-.09-1.53-.09-3.51v-12.04h4.58c.6-.14,1.38-.86,1.5-2.39h-10.26c-2.91,0-3.69-.03-4.15-.14ZM164.8,40.29c-.4-.17-1.58-.37-2.54-.37-1.67,4.67-3.49,9.59-5.04,14.12-1.44-4.47-3.26-9.22-4.32-12.21-.55-1.5-.75-1.87-1.18-1.87-.86,0-2.22.29-3.37.63,2.48,5.62,4.87,12.13,7,17.83,1.18,0,2.3-.14,2.65-.35.29-.12.49-.43.72-.95,2.1-5.07,4.26-10.23,6.28-15.59.26-.72.23-1.09-.2-1.24ZM175.86,77.78c-.14-.35-.4-.52-.66-.52-.35,0-1.96.12-3.03.35l.23.61c-1.09,2.62-5.59,13.34-7.09,16.85v.12c.63.2,1.9.37,2.54.37.46,0,.69-.14.81-.4.37-.92,1.21-3.05,1.87-4.72h6.51c.66,1.64,1.07,2.74,1.58,4.21.29.78.52.92.98.92.63,0,2.59-.14,3.23-.35v-.12c-.58-1.21-1.27-3.02-2.45-5.96-1.01-2.51-3.2-8.18-4.52-11.35ZM171.34,88.04c.98-2.48,1.79-4.75,2.51-6.65.32.92,1.18,3.08,2.51,6.65h-5.01ZM185.97,57.38v-6.65h.52c.95,0,1.5.23,2.39,1.87,1.15,2.25,1.73,3.4,2.51,4.41.75,1.01,1.5,1.3,2.56,1.3s2.1-.12,2.33-.29v-.12c-.72-.78-1.64-2.07-3.02-4.49-.98-1.7-1.87-3.14-2.54-3.72,1.15-.52,3.46-1.84,3.46-4.58,0-3.66-2.28-5.21-6.86-5.21-1.33,0-4.21.32-4.95.49.06.81.06,1.5.06,2.94v9.65c0,2.42-.03,4.12-.09,5.27.58,0,2.16-.03,2.97-.12.49-.06.66-.17.66-.75ZM185.97,42.11c.35-.06.84-.09,1.24-.09,1.79,0,3.28,1.01,3.28,3.4,0,1.93-1.15,2.79-1.76,3.02-.4.2-1.99.29-2.77.2v-6.54ZM157.83,87c1.15-.52,3.46-1.84,3.46-4.58,0-3.66-2.28-5.21-6.86-5.21-1.33,0-4.21.32-4.95.49.06.81.06,1.5.06,2.94v9.65c0,2.42-.03,4.12-.09,5.27.58,0,2.16-.03,2.97-.12.49-.06.66-.17.66-.75v-6.65h.52c.95,0,1.5.23,2.39,1.87,1.15,2.25,1.73,3.4,2.51,4.41.75,1.01,1.5,1.3,2.56,1.3s2.1-.12,2.33-.29v-.12c-.72-.78-1.64-2.07-3.02-4.49-.98-1.7-1.87-3.14-2.54-3.72ZM155.84,85.76c-.4.2-1.99.29-2.77.2v-6.54c.35-.06.84-.09,1.24-.09,1.79,0,3.28,1.01,3.28,3.4,0,1.93-1.15,2.79-1.76,3.02ZM227.36,58.07c.58,0,1.27-.12,1.79-.2.63-.14.84-.37,1.04-.95,1.84-5.42,3.54-10.2,4.35-12.7l.84,7.23c.32,3.05.49,4.61.66,6.08.06.58.43.72.81.72.58,0,2.39-.12,2.88-.26-.26-1.38-.58-3.51-1.04-6.54l-1.53-10.6c-.09-.72-.26-.89-.55-.89-.69,0-2.62.17-3.05.4v.43c-1.21,2.94-3.14,8.12-4.58,11.9l-3.89-10.75c-.52-1.47-.75-1.87-1.18-1.99-1.38,0-2.42.26-3.14.4l.09.55c-1.12,6.57-2.28,14.03-2.79,17.08.46.26,1.79.26,2.56.26.32,0,.46-.14.52-.46.43-3.37,1.3-9.97,1.7-13.51,1.3,3.92,3.83,11.55,4.52,13.8ZM215.26,93.17c-1.09,0-2.02-.06-2.68-.2v-5.65h4.38c1.01,0,1.64-.37,1.9-2.39h-6.28v-5.16h3c1.3,0,2.28,0,2.71-.17.35-.37.69-.92.86-2.22h-7c-1.18.03-2.45.2-3.26.4.09,1.21.09,2.25.09,3.63v13.31l.43.55c.69.14,2.59.29,5.13.29,2.22,0,3.51-.06,3.92-.14.72-.4,1.27-1.07,1.53-2.3l-.06-.06c-1.38.12-3.49.12-4.67.12ZM194.75,85.56c1.32-.72,2.53-2.05,2.53-3.83s-.84-4.52-6.25-4.52c-1.84,0-4.58.35-5.27.52.09,1.3.09,2.13.09,3.66v13.8c1.27.29,3.37.49,4.84.49,4.52,0,7.72-1.96,7.72-5.82,0-1.9-1.18-3.6-3.66-4.29ZM189.4,79.48c.29-.06.98-.12,1.44-.12,1.84,0,3,1.04,3,2.85,0,1.47-.63,2.45-1.38,2.8-1.35-.03-2.25,0-3.05.14v-5.68ZM190.89,93.54c-.49,0-1.15-.06-1.5-.14v-6.17c.43-.09.89-.09,1.33-.09,2.39,0,3.8,1.07,3.8,2.97,0,2.25-1.5,3.43-3.63,3.43ZM210.65,58.01c.2.29.37.4.72.4.84,0,2.48-.35,2.74-.46v-12.7c0-2.39.03-4.06.09-5.3-.66,0-1.44.03-2.33.12-.4.06-.6.17-.6.84v8.04c0,1.44-.03,2.56.14,4.78-.69-1.47-1.76-3.08-3.05-5.13-2.07-3.2-4.44-6.8-5.36-8.12-.29-.32-.52-.52-.81-.52-.52,0-3,.14-3.54.23v.14l.52.72v11.96c0,2.42-.03,4.09-.09,5.24.86.03,1.79-.03,2.3-.12.46-.09.63-.17.63-.78v-7.55c0-1.47.03-2.97-.14-5.88,1.18,2.22,2.02,3.83,3.54,6.25,2.28,3.51,3.74,5.76,5.24,7.84Z"/>
</svg>