<?xml version="1.0" encoding="UTF-8"?>
<svg id="Layer_1" data-name="Layer 1" xmlns="http://www.w3.org/2000/svg" viewBox="0 0 304.01 437.85">
  <defs>
    <style>
      .cls-1 {
        fill: #211e1e;
      }
    </style>
  </defs>
  <g>
    <path class="cls-1" d="M70.03,421.15c-1.8,0-3.57,1.61-3.85,4.61,2.6.07,5.83.03,6.48,0,.47-.04.77-.33.77-.76.03-2.17-1.09-3.85-3.36-3.85h-.03ZM75.62,432.53s.44,1.51-1.37,2.43c-.59.3-2.09.78-3.53.78-5.01,0-7.74-2.96-7.74-7.96,0-4.49,2.73-8.49,7.49-8.49,4.11,0,6.05,2.62,5.74,8.32l-10.14.03c.03,3.64,2.27,5.71,5.44,5.71s4.11-.83,4.11-.83"/>
    <path class="cls-1" d="M257.3,432.11c-.86.72-2.27,1.18-3.43,1.18-2.84,0-5.07-2.16-5.07-5.76,0-4.5,2.99-6.38,5.69-6.38,1.26,0,2.3.25,2.81.58v10.38ZM260.32,431.63v-8.68c0-2.27-3.02-3.35-3.02-3.35-.43-.11-1.34-.47-2.77-.47-5.11,0-8.97,3.6-8.97,8.79s3.17,7.81,6.99,7.81c1.51,0,3.63-.9,5.07-2.06.21,1.09.94,2.06,2.6,2.06.76,0,1.51-.93,1.66-1.73,0,0-1.56-.68-1.56-2.38"/>
    <path class="cls-1" d="M150.74,432.11c-.87.72-2.27,1.18-3.42,1.18-2.84,0-5.08-2.16-5.08-5.76,0-4.5,2.99-6.38,5.69-6.38,1.26,0,2.31.25,2.81.58v10.38ZM153.77,431.63v-8.68c0-2.27-3.03-3.35-3.03-3.35-.43-.11-1.33-.47-2.77-.47-5.11,0-8.97,3.6-8.97,8.79s3.17,7.81,6.98,7.81c1.52,0,3.65-.9,5.09-2.06.22,1.09.93,2.06,2.6,2.06.75,0,1.51-.93,1.64-1.73,0,0-1.54-.68-1.54-2.38"/>
    <path class="cls-1" d="M200.11,422.7s-.01.03-.01.04v6.16"/>
    <path class="cls-1" d="M231.83,415.43c0-.93-.75-1.67-1.67-1.67s-1.67.75-1.67,1.67.74,1.67,1.67,1.67,1.67-.75,1.67-1.67"/>
    <path class="cls-1" d="M281.96,421.15c-1.81,0-3.57,1.61-3.87,4.61,2.6.07,5.84.03,6.49,0,.47-.04.76-.33.76-.76.04-2.17-1.08-3.85-3.34-3.85h-.03ZM287.54,432.53s.44,1.51-1.37,2.43c-.58.3-2.09.78-3.53.78-5,0-7.74-2.96-7.74-7.96,0-4.49,2.75-8.49,7.49-8.49,4.1,0,6.06,2.62,5.74,8.32l-10.13.03c.04,3.64,2.26,5.71,5.44,5.71s4.11-.83,4.11-.83"/>
    <path class="cls-1" d="M197.07,433.04h-9.79v-9.06h6.58c1.19,0,1.49-.25,1.81-2.2h-8.39v-8.86h7.17c1.4,0,1.4-1.26,1.51-2.2h-11.8v24.8h11.7c.67,0,1.1-1.17,1.18-2.3l.03-.18Z"/>
    <path class="cls-1" d="M109.31,428.3h8.68c.89,0,.38-.87-.16-2.23h-8.52v2.23Z"/>
    <path class="cls-1" d="M19.91,410.88c-.4.07-.69.21-.69.86v12.66c0,7.96-3.13,9.11-6.33,9.11-2.74,0-6.3-1.15-6.3-8.67v-10.23c0-1.74.15-3.46.15-3.88,0,0-2.78,0-3.05.31-.14.16-.21.17-.28.74v5.23c0,.2.01.38.01.55v7.31c0,8.36,3.67,10.99,9.08,10.99,4.03,0,9.47-1.23,9.47-11.59v-5.08c0-2.99.03-7.04.11-8.45-.72,0-1.09.04-2.16.15"/>
    <path class="cls-1" d="M297.12,419.21c1.33.11,2.27.49,2.6,1.74.17.63.06,1.57-.39,1.3-.73-.44-1.71-.84-2.56-.9-1.4-.12-2.51.58-2.61,1.84-.09,1.04.58,1.71,1.36,2.24.93.58,2.07,1.22,3.06,1.92,1.53,1.03,2.15,2.39,2.02,3.82-.29,3.41-3.46,4.83-6.29,4.41-3.74-.56-3.9-3.71-3.45-3.85.99.81,2.54,1.62,3.87,1.74,1.8.15,2.81-.71,2.92-1.93.07-.89-.37-1.59-1.58-2.33-.93-.58-1.75-1.05-2.58-1.59-1.44-.95-2.37-2.3-2.21-4.16.25-2.91,2.95-4.49,5.81-4.24h.04Z"/>
    <path class="cls-1" d="M163.36,433.72c-.68,0-1.62-.11-2.27-.36v-10.8c.9-.54,2.41-.97,3.31-.97,2.99,0,5.01,2.09,5.01,5.58,0,4.39-2.88,6.56-6.05,6.56M165.92,419.14c-1.58,0-3.49.82-4.82,1.62v-10.01c-.81.27-3.04.06-3.04,1.32v21.73c.01.61.19.82.62,1.08.83.43,2.56.86,4.4.86,5.26,0,9.58-3.35,9.58-9,0-5.22-3.43-7.6-6.74-7.6"/>
    <path class="cls-1" d="M82.03,427.53c0-4.5,2.99-6.38,5.69-6.38,1.26,0,2.3.25,2.81.58v10.38c-.86.72-2.27,1.18-3.42,1.18-2.85,0-5.07-2.16-5.07-5.76M93.57,431.76v-21.01c-.81.27-3.05.06-3.05,1.32v7.54c-.43-.11-1.33-.47-2.77-.47-5.11,0-8.96,3.6-8.96,8.79s3.17,7.81,6.98,7.81c1.51,0,3.65-.9,5.09-2.06.21,1.09.94,2.06,2.59,2.06.76,0,1.51-.93,1.66-1.73,0,0-1.46-.66-1.53-2.25"/>
    <path class="cls-1" d="M231.61,435.52v-16.31c-.81.26-3.04.05-3.04,1.31v15h3.04Z"/>
    <path class="cls-1" d="M218.35,419.14c-1.97,0-3.92,1.26-5.33,2.67-.01-.15-.06-.32-.13-.49-.51-1.46-2.05-2.18-4.5-2.18-1.94,0-3.83,1.25-5.25,2.56v-2.48c-.8.26-3.04.05-3.04,1.31v15h3.04v-.15.15s0-11.81,0-11.81h0c.9-.98,2.34-2.12,3.95-2.12s2.93.43,3.05,2.83v4.47c0,3.21-.03,5.33-.1,6.63h3.13v-11.81c.83-.97,2.24-2.16,4.07-2.16,2.09,0,3.35,1.37,3.35,4.17v9.8h3.01v-9.83c0-3.46-1.11-6.56-5.26-6.56"/>
    <path class="cls-1" d="M38.88,421.32c-.51-1.46-2.04-2.18-4.49-2.18-1.94,0-3.82,1.25-5.24,2.56v-2.48c-.81.26-3.04.05-3.04,1.31v15s3.04,0,3.04,0v-.15.15-11.81h0c.9-.98,2.34-2.12,3.95-2.12s2.93.43,3.05,2.83v4.47c0,3.21-.03,5.33-.1,6.63h3.13v-11.81c0-.84.01-1.47-.29-2.39"/>
    <path class="cls-1" d="M47.69,415.43c0-.93-.75-1.67-1.67-1.67s-1.67.75-1.67,1.67.75,1.67,1.67,1.67,1.67-.75,1.67-1.67"/>
    <path class="cls-1" d="M47.48,435.52v-16.31c-.81.26-3.05.05-3.05,1.31v15h3.05Z"/>
    <path class="cls-1" d="M245.08,419.71c-.25-.26-.91-.58-1.62-.58-1.55,0-3.03,1.08-4.12,3.15v-3.07c-.8.26-3.04.05-3.04,1.31v15h3.02s0,0,0,0h.02v-9.62c.05-.52.18-.94.37-1.43.76-1.76,1.44-2.48,3.61-2.48.58,0,1.9-1.95,1.76-2.27"/>
    <path class="cls-1" d="M138.24,419.71c-.24-.26-.89-.58-1.61-.58-1.55,0-3.02,1.08-4.12,3.15v-3.15c-.8.26-3.04.06-3.04,1.31v15.08h3.02s0,0,0,0h.02v-9.62c.06-.52.18-.94.37-1.43.76-1.76,1.43-2.48,3.61-2.48.58,0,1.91-1.95,1.75-2.27"/>
    <path class="cls-1" d="M270.4,433.81c-1.23,0-2.41-.92-2.6-3.08-.14-1.55,0-9.11,0-9.11,0,0,.89.02,2.24,0,.65,0,3.15-.14,3.51-1.94h-5.76v-2.18c-.81.26-3.04.05-3.04,1.31v12.18c0,2.73,1.26,4.75,4.46,4.75,1.26,0,2.66-.36,3.39-.98.65-.5.76-1.29.57-2.01,0,0-1.01,1.06-2.76,1.06"/>
    <path class="cls-1" d="M58.32,433.81c-1.22,0-2.41-.92-2.59-3.08-.14-1.55,0-9.11,0-9.11,0,0,.88.02,2.24,0,.65,0,3.15-.14,3.51-1.94h-5.77v-2.18c-.81.26-3.04.05-3.04,1.31v6.4s0,0,0,0v5.78c0,2.73,1.26,4.75,4.46,4.75,1.26,0,2.66-.36,3.39-.98.65-.5.76-1.29.58-2.01,0,0-1.02,1.06-2.78,1.06"/>
    <path class="cls-1" d="M126.53,434.99c-.65-1.31-1.55-3.53-3.03-6.92-1.44-3.27-7.31-17.32-7.31-17.32h-.61s-8.35,19.74-10.41,24.17l-.23.55c1.28-.03,1.81.06,2.39.06.43,0,.64-.14.79-.43.61-1.26,1.73-3.89,2.99-6.8h2.27v-2.2h-1.48c1.41-3.38,2.55-6.26,3.78-9.18.5,1.26,6.25,15.71,7.02,17.54.36.86.61,1.08,1.08,1.08.58,0,1.92-.06,2.94-.03l-.21-.51Z"/>
  </g>
  <path class="cls-1" d="M128.65,365.76c-.56-.05-1.13-.11-1.71-.18-.56-.05-1.13-.11-1.7-.17.07-.52.13-1.03.21-1.55.08-.74.73-1.31,1.56-1.38.12-.02.18-.02.26-.04.63-.06,1.23-.22,1.75-.42-.12,1.24-.25,2.5-.37,3.75M147.5,369.83c.09-4.35.19-8.7.29-13.05-1.66,1.35-3.33,2.68-5.04,4,1.31.35,1.6,1.25,1.56,2.14-.05,1.29-.09,2.57-.13,3.87-1.13-.04-2.26-.08-3.39-.14.17-3.37.33-6.73.5-10.1-1.69,1.31-3.4,2.6-5.15,3.86,1.3.39,1.6,1.31,1.55,2.19-.08,1.28-.17,2.57-.25,3.86-1.8-.11-3.61-.24-5.41-.4.67-7.87,1.32-15.71,1.99-23.62-1.64,1.26-3.31,2.49-5,3.72,1.2.41,1.42,1.32,1.33,2.22-.27,2.83-.55,5.66-.83,8.5-.13,1.31-1.12,1.95-1.9,2.24-.52.24-.97.31-1.01.41-2.3.17-4.27,1.75-4.54,3.91l-.56,4.47c1.34.17,2.69.32,4.04.47.36.04.73.08,1.1.12,1.9.21,3.81.37,5.72.53,5.04.41,10.08.68,15.13.79M113.1,366.73c1.12.18,2.24.35,3.36.51.98-6.74,1.96-13.46,2.95-20.19.12-.89.59-1.72,1.86-1.83-1.35-1.59-2.67-3.19-3.97-4.8-1.4,8.77-2.81,17.52-4.2,26.31M100.27,361.29c-.55-.12-1.12-.25-1.67-.36-.55-.12-1.1-.25-1.65-.37.09-.39.18-.77.26-1.16.65-.35,1.31-.7,1.95-1.06.45.6.9,1.2,1.36,1.8-.08.39-.17.78-.26,1.16M108.95,343.16c1.2.52,1.33,1.46,1.17,2.33-1.07,5.71-2.14,11.42-3.21,17.14-1.12-.22-2.23-.42-3.34-.65.16-.78.31-1.55.46-2.33-1.36-1.79-2.67-3.58-3.96-5.39-1.94,1.08-3.89,2.15-5.88,3.2-.19.76-.38,1.53-.57,2.3-1.11-.27-2.23-.56-3.34-.84.84-3.25,1.69-6.51,2.52-9.75-1.93.93-3.88,1.84-5.85,2.72,1.2.63,1.27,1.58,1.04,2.45-.34,1.24-.69,2.48-1.03,3.73-.49-.13-.97-.27-1.45-.41,0-.02,0-.02,0-.03-.92-.26-1.84-.52-2.76-.79-.03-1.18.16-2.36.39-3.52.75-3.63,1.76-7.77-2.83-12.67-1.32.62-2.66,1.23-4,1.84,3.23.96,4.52,3.97,5.03,6.34.46,2.88-1.11,5.05-.28,7.5-1.59-.47-3.17-.95-4.76-1.45,0,0,0-.03,0-.03.12-.38.25-.75.37-1.13.78-2.46-.85-5.23-3.64-6.2-.2-.07-.41-.14-.6-.22-6.18-2.16-12.29-4.58-18.33-7.24.41-.91.8-1.82,1.21-2.72.35-.79,1.2-1.04,2.08-.65-.92-2.02-1.8-4.04-2.67-6.07-1.65,3.58-3.29,7.17-4.94,10.75,7.31,3.35,14.75,6.35,22.28,8.96,1.07.37,1.67,1.42,1.37,2.33-.13.38-.26.75-.38,1.13-.36,1.03-.7,2.04-1.05,3.08-.68.29-1.37.57-2.07.85-.39-.68-.77-1.36-1.15-2.04.35-1,.71-2.01,1.05-3.01-.79-.28-1.6-.56-2.39-.86-.27-.1-.55-.2-.83-.3-6.1-2.24-12.13-4.74-18.06-7.47-.42.89-.84,1.8-1.25,2.7,6.02,2.76,12.11,5.28,18.28,7.55-.17.47-.33.92-.51,1.38,1.13,2,2.3,3.99,3.5,5.98,2.14-.8,4.25-1.65,6.35-2.5.15-.49.31-.98.47-1.47,2.38.77,4.76,1.51,7.15,2.19.46.7,1.03,1.27,1.78,1.78-.33-.5-.6-1-.82-1.51,1.99.57,3.99,1.12,5.99,1.64,2.79.72,5.59,1.4,8.39,2.02,2.8.63,5.6,1.2,8.42,1.73.12.02.24.05.36.07.99.19,1.99.36,2.98.55h.03c1.52-8.76,3.01-17.5,4.53-26.25-1.75,1.11-3.52,2.18-5.31,3.25M142.02,372.63c-.97-.04-1.75.59-1.79,1.39-.04.83.68,1.51,1.66,1.56.98.04,1.75-.58,1.79-1.41.02-.8-.7-1.5-1.66-1.54M131.38,12.84c1.3,0,2.36.99,2.36,2.24-.7-.7-3.44-1.28-4.71,0,0-1.25,1.05-2.24,2.35-2.24M137.27,15.74c-.99,7.43-10.55,7.43-10.88,1.94,1.71,5.98,10.98,2.85,8.24-3.8,3.64-1.38,6.37-1.49,9.31-1.97-7.62-1.19-16.59-2.13-22.15.42-2.72,1.23-1.95,2.9-1.55,3.58.45-1.46,2.87-1.54,4.6-.96-1.31,11.21,13.03,9.88,12.42.79M42.27,341.04c-.53-.26-1.05-.52-1.57-.79-.52-.27-1.03-.55-1.56-.83.23-.44.46-.89.69-1.34.33-.65,1.18-.93,2.02-.69.11.02.17.06.26.06.62.17,1.25.22,1.82.22-.55,1.12-1.11,2.24-1.66,3.36M49.49,322.84c1.02.84.89,1.77.5,2.57-1.27,2.56-2.52,5.11-3.79,7.66-.58,1.17-1.73,1.39-2.61,1.42-.59.03-1.06-.07-1.11,0-2.27-.68-4.68.1-5.7,2.02-.7,1.32-1.43,2.63-2.1,3.98,1.55.82,3.11,1.62,4.69,2.42,1.57.79,3.15,1.57,4.75,2.33,3.82-8.02,7.63-16.02,11.46-24.05-2.01.59-4.04,1.13-6.09,1.65M135.13,372.24c-.96-.06-1.8.54-1.85,1.34-.07.83.68,1.52,1.66,1.6.94.07,1.77-.53,1.83-1.36.04-.79-.7-1.52-1.63-1.58M131.01,371.92c-.97-.09-1.8.51-1.89,1.31-.07.83.65,1.55,1.64,1.62.94.08,1.77-.5,1.85-1.32.06-.79-.66-1.53-1.6-1.61M92.03,347.08c.84.22,1.72-.21,1.93-1.02.19-.77-.34-1.61-1.18-1.82-.86-.23-1.74.22-1.95.99-.23.8.31,1.61,1.19,1.85M88.28,346.05c.84.24,1.72-.18,1.95-.98.21-.78-.31-1.62-1.14-1.85-.87-.25-1.75.21-1.97.97-.24.79.29,1.61,1.17,1.86M125.66,348.16c.89.11,1.64-.49,1.72-1.31.09-.79-.5-1.54-1.37-1.64-.83-.11-1.61.48-1.71,1.27-.11.83.52,1.57,1.36,1.67M206.55,350.78c.86-.19,1.42-1.02,1.24-1.8-.2-.81-1.06-1.3-1.9-1.1-.88.2-1.42,1-1.24,1.81.17.79,1,1.29,1.9,1.08M47.16,320.29c.8.41,1.7.16,2.08-.58.36-.72.07-1.62-.71-2.04-.75-.39-1.7-.12-2.08.58-.39.74-.05,1.64.71,2.04M126.09,344.61c.87.1,1.6-.46,1.69-1.28.09-.79-.49-1.54-1.34-1.64-.83-.1-1.6.48-1.7,1.27-.1.82.51,1.56,1.35,1.65M202.74,351.62c.86-.19,1.44-1,1.27-1.78-.17-.82-1.03-1.32-1.89-1.13-.88.18-1.46.99-1.29,1.8.16.79,1.02,1.3,1.91,1.11M45.5,323.47c.81.41,1.74.13,2.11-.6.36-.72.06-1.62-.74-2.04-.76-.4-1.71-.14-2.09.56-.4.73-.06,1.67.71,2.08M134.87,166.15c-.31-5.56-.52-11.87-.52-18.73,0-6.23.17-11.85.45-16.81,15.74-1.41,38.29-1.82,59.11,3.59,1.5,4.46,2.33,9.23,2.33,14.2s-.83,9.7-2.31,14.16c-20.79,5.41-43.28,5.02-59.05,3.6M151.7,192.93c-4.97,0-9.84-.82-14.49-2.43-.37-2.38-1.46-10.25-2.18-21.69,15.52,1.35,37.31,1.71,57.77-3.29-6.72,16.08-22.62,27.4-41.1,27.4M107.16,148.39c0-17.98,10.9-34.2,27.34-41.09-.86,5.32-2.77,19.49-2.77,40.12s1.88,36.37,2.67,42.02c-16.38-6.92-27.24-23.14-27.24-41.04M137.35,106.22c4.61-1.57,9.43-2.38,14.35-2.38,18.48,0,34.35,11.31,41.09,27.37-20.51-4.99-42.36-4.62-57.85-3.26.75-11.84,1.99-19.43,2.4-21.73M151.7,101.22c-5.48,0-10.84.93-15.94,2.76-18.67,6.71-31.22,24.55-31.22,44.4s12.47,37.57,31.04,44.34c5.17,1.88,10.59,2.83,16.13,2.83,26.01,0,47.17-21.17,47.17-47.17s-21.16-47.17-47.17-47.17M261.69,351c-.46.21-.94.08-1.11-.3-.18-.38.04-.83.49-1.03.17-.07.36-.13.51-.1-1.61-.51-3.06,1.23-1.82,2.32-.43.27-.75.27-.99.03-.29.58-.58,1.17-.86,1.75,2.14-.94,4.26-1.93,6.38-2.93-.69-.22-1.37-.43-2.06-.66.12.34-.12.74-.54.93M285.01,150v-5.26c0-2.64,0-5.22.02-6.46.03-4.96-.79-11.53-5.5-14.74,1.42,5.55.46,6.52.46,15.87v11.66c0,3.43.47,6.41,1.3,9.01-5.46-2.63-11.28-8.39-11.28-18.51,0-3.39-.83-17.39-5.04-23.22v24.28c0,3.2.41,6,1.13,8.48-12.81-6.49-11.53-28.58-15.69-37.15,0,7.42.17,12.62.17,20.03,0,3.65.55,6.8,1.46,9.51-11.21-7.15-12.5-21.18-13.39-31.66-1.08,3.88-2.86,14.1.19,23.74-7.52-5.74-11.71-18-11.19-26.76-1.1,4.8-2.27,12.03.08,19.29-.41,8.24-.34,73.25-.33,80.35-4.27-3.53-8.66-9.93-8.18-19.62.15-1.59.32-3.1.55-4.53,3-20.3,3.62-49.54-4.77-72.92,6.76,36.53-1.67,74.1-2.86,81.65-2.11,13.5,2.48,41.47,12,72.51-1.85-1.84-8.2-4.49-10.74-7.04,0,2.8,1.02,5.82,1.02,11.95-3.26-5.48-4.52-5.7-7.99-11.78,1.09,7.14.78,7.77.78,13.94-3.39-6.38-5.21-14.88-12.97-27-17.29-27-42.23-10.26-42.23-5.55,0-4.7-24.92-21.45-42.2,5.55-7.78,12.13-9.59,20.62-12.99,27,0-6.17-.31-6.8.79-13.94-3.48,6.08-4.72,6.3-7.99,11.78,0-6.13,1.03-9.15,1.03-11.95-2.56,2.55-8.91,5.2-10.74,7.04,9.53-31.03,14.12-59.01,12-72.51-1.19-7.56-9.63-45.12-2.85-81.65-8.39,23.39-7.77,52.62-4.78,72.92.22,1.43.38,2.96.55,4.54.47,9.73-3.94,16.12-8.23,19.65.02-7.09.11-72.06-.31-80.4,2.37-7.26,1.2-14.49.08-19.29.52,8.76-3.67,21.03-11.18,26.76,3.05-9.64,1.27-19.86.17-23.74-.89,10.48-2.16,24.5-13.37,31.66.91-2.72,1.46-5.86,1.46-9.51,0-7.41.18-12.62.18-20.03-4.19,8.58-2.91,30.66-15.7,37.15.72-2.48,1.13-5.28,1.13-8.48v-24.28c-4.21,5.83-5.04,19.83-5.04,23.22,0,10.12-5.84,15.88-11.28,18.5.83-2.59,1.31-5.57,1.31-9v-11.66c0-9.35-.98-10.32.46-15.87-4.71,3.21-5.53,9.78-5.5,14.74,0,1.23,0,3.82,0,6.46h0v5.26c0,10.57-6.37,16.39-12,18.85.97-1.27,2.02-4.71,2.02-9.82v-50.98c0-14.33,16.73-30.79,22.92-38.05,17.14-20.08,24.6-3.76,41.87,2.09,28.7,9.73,44.01-1.13,44.01-1.13,15.33-9.64,15.38-18.75,15.38-24.43,0-3.85-1.48-8.85-4.29-12.05-5.25-5.23-14.54-6.92-16.2-6.6-3.5,1.8-6.6,1.8-7.24,2.3-1.61-3.2-1.2-8.09,6.02-12.1,2.03-1.12,1.27-3.68,7.46-7.29,18.03-10.52,35.67-6.71,45.97,4.78-3.64-1.32-7.14-2.54-13.28-3.12,8.62,2.99,18.82,10.12,25.42,21.97,2.7,4.71,8.79,17.7,10.94,21.62,4.59,8.38,12.91,25.93,42.22,16.05,17.27-5.84,24.73-22.18,41.88-2.09,6.18,7.26,22.91,23.72,22.91,38.05v50.98c0,5.11,1.05,8.55,2.02,9.82-5.64-2.46-12.01-8.28-12.01-18.85M285.03,189.78v-14.57c0-2.41-.08-4.52-.25-6.42.84.31,1.64.6,2.36.87,2.43,2.42,5.2,4.16,7.86,5.49v23.59c0,5.12,1.05,8.57,2.02,9.83-5.63-2.47-11.96-8.26-11.99-18.8M285.25,239.24c0-1.71-.22-15.87-.22-18.63,0-3.05-.13-8.25-.4-12.16.91.35,1.74.67,2.51.95,2.43,2.39,5.2,4.14,7.86,5.46v30.12c0,5.11,1.05,8.57,2.02,9.82-5.02-2.18-11.77-8.22-11.77-15.57M285.25,315.66v-11.28h-.02c-.02-7.11-.21-13.29-.21-15.41v-16.8c0-1.43-.04-8.77-.08-18.2.32.14.65.26.95.37,2.7,3.1,5.97,5.23,9.11,6.79v60.26c0,5.12,1.05,8.58,2.02,9.83-5.02-2.18-11.77-8.48-11.77-15.56M270,181.29v-14.74c0-2.59-.09-4.78-.23-6.63.57.22,1.14.44,1.66.63,2.62,2.81,5.71,4.77,8.65,6.22.06,3.09-.1,6.32-.1,9.57v14.44c0,3.44.47,6.42,1.3,9.01-5.46-2.61-11.28-8.39-11.28-18.51M270,226.7v-14.74c0-2.62-.09-8.13-.25-12.32.59.22,1.16.44,1.68.65,2.62,2.78,5.71,4.75,8.64,6.2.12,4.92-.09,11.68-.09,15.26v13.96c0,.36,0,.68.02,1.02-.02,0-.02,0-.02-.02v.32c0,3.09.38,5.8,1.05,8.22-4.93-2.25-11.03-8.6-11.03-18.55M270,278.25v-14.73c0-2.56-.09-11.99-.23-19.18,2.94,3.9,6.8,6.17,10.3,7.73-.05,10.88-.08,19.59-.08,21.24v13.96c0,5.12,0,8.07.96,9.33-4.2-1.84-10.94-7.79-10.94-18.35M255.61,172.64v-13.35c0-2.75.03-4.59-.04-6.13,1.36.52,2.81.98,4.36,1.39,1.64,1.27,3.34,2.33,5.02,3.2,0,.49,0,.98,0,1.44v23.14c0,3.16.39,5.94,1.1,8.4-5.19-2.8-10.45-8.48-10.45-18.1M255.61,213.2v-13.34c0-5.09-.14-5.07-.15-7.56,1.42.6,2.74,1.11,3.92,1.55,1.8,1.47,3.71,2.67,5.57,3.63,0,3.01,0,6.4,0,7.13v23.14c0,1.05.04,2.02.11,2.97-4.84-2.96-9.46-8.52-9.46-17.52M264.96,256.16v22.86c-4.82-3-9.35-8.53-9.35-17.45v-13.36c0-3.89-.08-12.65-.13-17.88,2.7,3.57,6.14,5.95,9.46,7.69.03,6.23.02,17.19.02,18.14M243.02,166.01v-13.41c0-3.45-.07-5.99-.25-7.89.5.26,1.01.52,1.53.79,1.69,1.92,3.73,3.68,6.23,5.22.04,1.12.03,2.23.03,3.25v19.75c0,3.67.55,6.81,1.47,9.54-4.68-3.03-9.01-8.52-9.01-17.24M243.02,201.91v-13.42c0-1.51-.02-2.84-.05-4.01.63.36,1.29.7,1.96,1.02,1.71,1.73,3.6,3.12,5.5,4.27.13,1.61.12,3.26.12,4.75v19.75c0,1.41.09,2.74.24,4.01-4.18-3.17-7.78-8.43-7.78-16.37M250.57,242.88v16.57c-4.08-3.2-7.54-8.39-7.54-16.18v-13.43c0-2.5-.03-7.17-.12-10.8,2.16,2.85,4.8,4.97,7.49,6.58.19,5.67.17,15.59.17,17.26M230.16,162.59c0-3.06-.23-19.16-.26-29.65,1.75,3.02,4.28,5.96,7.87,8.62.41,2.96.21,6.67.21,9.26v16.24c0,3.03.37,5.7,1.03,8.09-4.92-3.63-8.85-8.1-8.85-12.56M229.99,172.48c1.61,2.91,4.31,6.01,8.02,8.81.03,1.94-.03,3.88-.03,5.43v13.39c-4.43-3.45-7.82-7.62-7.82-11.76,0-1.86-.08-8.55-.17-15.86M237.98,228.07v9.58c-4.43-3.46-7.82-7.62-7.82-11.76,0-2.89-.22-17.39-.26-27.83,1.57,2.93,4.28,6.06,7.99,8.88.26,6.11.09,18.82.09,21.13M226.01,283.78c.6,1.37.43,4.07,1.06,5.32.62,1.25,2,2.13,2.4,2.76.51.84.32,2.99,1,4.49.33.7.66,1.4,1.01,2.03-.46.49-.82,1.05-1.15,1.58-1.03-2.33-3.6-2.6-5.52-1.38-.98.63-2.13,1.59-3.03,3.1.37-2.65-.12-3.49-1.13-4.52-1.51-1.52-.91-4.7-2.14-6.62-.94-1.48-2.71-1.95-3.83-4.25-1.13-2.28-.57-3.5-1.71-5.76-1.29-2.57-1.61-3.39-1.68-6.86,1.47,1.89,3.16,3.46,5.44,5.77.81-5.41.89-6.7.89-11.37,2.29,1.95,4.64,4.87,5.39,6.85.44,1.18.85,4.61,1.03,5.18.55,1.77,1.37,2.33,1.99,3.69M236.06,299.56c2.41.18,1.08,10.63,2.85,14.28,1.81,3.69,1.03,6.75-2.38,6.43-3.48-.32-3.29-10.92-3.31-12.77,0-2.62-1.32,1.4-2.04,2.87-.15-.65-.3-1.36-.41-2.1-.26-1.8-.07-2.94.07-4.05.94-2.48,2.79-4.84,5.23-4.66M239.14,303.82c.96-3.15,3.57-7.51,6.56-6.82,2.36.52.1,8.06,1.52,11.75,2.77,7.2-1.12,9.64-4.46,8.8-3.74-.94-2.09-11-1.75-12.46.09-2.38-1.14-.04-2,1.28-.17-.6-.29-1.03.12-2.56M250.28,305.31l22.08,15.08-.03,31.76c-35.07,19.88-74.4,31.41-114.92,32.27h-.66s-3.08,2.54-4.57,3.78h0s0,0,0,0c-1.49-1.24-4.57-3.79-4.57-3.79h-.66c-40.53-.84-79.85-12.38-114.91-32.26l-.03-31.76,22.07-15.08c.55.31,1.09.61,1.63.92.08,3.17-2.14,4.79-1.64,8.04.41,2.71,2.07,4.64,4.04,5.52.52,1.19,1.5,2.15,2.81,2.7,1.35.5,1.18-.66,1.16-2.38.3-.08.58-.17.88-.32.37,1.28,1.21,2.23,2.28,2.77.48.98,1.37,1.86,3.1,3.02,1.72.8.56-1.07.24-2.75.64-.16,1.28-.43,1.92-.85.22.52.54.99,1.02,1.31.15.12.32.24.48.35.44,1.76,1.66,2.78,3.53,3.84,1.26.41.78-1.01.65-2.36,1.74.02,3.28-.94,3.97-3.78.33-1.36.31-2.2.22-2.92,20.94,8.91,43.58,14.96,65.72,15.65.78.6,6.09,4.59,6.09,4.59,0,0,5.31-4,6.1-4.59,22.02-.68,44.51-6.66,65.35-15.5-.06.7-.05,1.52.26,2.77.69,2.84,2.21,3.81,3.95,3.78-.12,1.35-.6,2.76.65,2.36,1.89-1.06,3.1-2.08,3.54-3.85.16-.1.33-.22.49-.34.46-.32.79-.79,1.01-1.31.64.42,1.27.7,1.92.85-.32,1.68-1.49,3.55.25,2.75,1.72-1.16,2.62-2.04,3.1-3.02,1.08-.54,1.92-1.49,2.28-2.77.28.15.58.24.88.32-.03,1.71-.2,2.87,1.15,2.38,1.31-.55,2.29-1.51,2.82-2.7,1.96-.89,3.63-2.81,4.04-5.52.5-3.19-1.64-4.81-1.63-7.86.65-.36,1.29-.72,1.94-1.09M56.81,308.75c1.42-3.69-.84-11.23,1.5-11.75,3.01-.69,5.62,3.68,6.58,6.84.3.89.24,2.25.12,2.55-.85-1.33-2.09-3.67-2-1.29.33,1.46,2,11.52-1.75,12.46-3.34.84-7.22-1.6-4.45-8.8M67.97,299.56c2.43-.18,4.28,2.18,5.22,4.66.14,1.11.32,2.25.07,4.05-.11.74-.25,1.44-.41,2.1-.7-1.47-2.04-5.5-2.04-2.87-.02,1.85.17,12.45-3.32,12.77-3.41.32-4.18-2.74-2.38-6.43,1.77-3.65.46-14.1,2.86-14.28M80.11,307.57c-2.87,5.18-.32,14.89-3.6,15.1-9.41.61-2.43-11.2-2.08-14.14.44-3.76.04-9.25,3.7-8.11,3.29,1,7.48,11.68,9.52,14.87,0,.03.05.07.1.11-.75-.3-1.49-.6-2.24-.92.22.07.38.13.47.15-3.36-1.32-5.3-9.45-5.88-7.05M225.89,300.41c3.68-1.14,3.29,4.35,3.71,8.11.34,2.94,7.34,14.75-2.08,14.14-3.28-.21-.73-9.92-3.6-15.1-.5-2.14-2.09,4.51-4.85,6.82-.89.38-1.81.74-2.72,1.11,2.17-3.67,6.37-14.11,9.54-15.08M174.57,301.81c2.35,13.7-11.15,14.45-13.17,3.9-.25-1.33-.61-5.4-1.04-10.79-1.01-18.39-2.52-47.55-2.61-53.05,2.28-1.45,5-2.55,7.76-3.29,1.5,10.37,8.43,59.55,9.06,63.23M175.93,237.87c1.46.27,2.67.77,3.54,1.49,1.32.91,2.77,2.18,4.31,3.7,2.42,9.21,12.27,46.02,13.15,49.71,1.08,4.45,2.24,8.48,4.1,10.36-5.95,1.13-10.17,0-11.55-5.41-1.8-8.48-11.11-50.55-13.56-59.85M185.96,297.93c.78,4.52,4.39,10.97.26,11.95-6.41,1.57-6.98-2-8.01-7.5-.03-.16-9.03-59.04-10.31-64.34,2.06-.38,4.06-.53,5.88-.43,1.32,6.48,11.56,56.65,12.19,60.31M147.28,303.54c0-7.14,1.1-52.66,1.32-60,1.81,1.58,3.06,3.44,3.41,5.52.36-2.08,1.61-3.94,3.44-5.52.2,7.33,1.29,52.85,1.29,60,0,7.76-2.04,10.57-4.73,12.17-2.68-1.6-4.73-4.4-4.73-12.17M103.57,292.29c-1.75,6.2-5.97,12.65-6.97,13.64,3.64,1.37,10.29,2.45,14.98.6-.68,2.44-.64,4.67,1.45,6.75,2.57,2.56,9.77,4.4,13.27-1.61,2.82,10.02,13.62,9.54,17.88,2.54,1.84,5.81,5.64,6.55,7.83,8.73,2.19-2.19,6.01-2.92,7.85-8.73,4.24,7,15.06,7.48,17.87-2.54,3.51,6.02,10.72,4.17,13.28,1.61,2.08-2.09,2.11-4.32,1.45-6.75,4.69,1.85,11.32.78,14.97-.6-.99-.99-5.22-7.44-6.98-13.64-2.14-7.52-9.97-34.69-13.5-45.84,9.54,10.98,20.47,29.57,21.17,39.35.31-1.38.94-3.08,1.52-4.91,2.2,4.58,7.5,13.95,8.39,16.15.92,2.32,1.18,3.83.5,6.9-.48,2.23-2.51,8.97-6.83,13.29,0,.02.02.03.03.04-17.32,6.44-35.55,10.45-54.26,10.96-1.53,1.25-5.3,4.08-5.3,4.08,0,0-3.76-2.83-5.28-4.08-18.65-.51-36.82-4.49-54.08-10.89,0-.02.02-.03.03-.06-4.33-4.33-6.9-11.12-7.38-13.34-.66-3.07-.41-4.59.53-6.9.89-2.2,6.18-11.59,8.38-16.15.59,1.83,1.23,3.53,1.52,4.91.71-9.78,11.65-28.37,21.19-39.35-3.53,11.13-11.37,38.31-13.52,45.84M114.54,297.72c-1.39,5.41-5.6,6.53-11.55,5.41,1.85-1.87,3.02-5.91,4.1-10.36.88-3.69,10.73-40.51,13.16-49.72,1.53-1.53,2.99-2.78,4.3-3.69.87-.72,2.09-1.22,3.54-1.49-2.47,9.3-11.75,51.37-13.56,59.85M138.52,238.58c2.77.74,5.49,1.85,7.77,3.29-.11,5.52-1.61,34.63-2.62,53.03-.41,5.41-.78,9.46-1.04,10.81-2.02,10.55-15.5,9.8-13.16-3.9.63-3.68,7.57-52.85,9.06-63.23M125.82,302.38c-1.03,5.5-1.61,9.07-8,7.5-4.15-.99-.52-7.43.25-11.95.67-3.92,10.73-52.9,12.19-60.31,1.8-.1,3.81.05,5.86.43-1.27,5.3-10.27,64.19-10.3,64.34M73.56,296.35c.67-1.5.49-3.64,1-4.49.39-.63,1.78-1.51,2.4-2.76.62-1.25.46-3.96,1.07-5.32.6-1.36,1.42-1.92,1.98-3.69.17-.57.59-4,1.03-5.18.76-1.98,3.08-4.89,5.4-6.85,0,4.67.06,5.96.87,11.37,2.28-2.31,3.97-3.88,5.45-5.77-.07,3.47-.39,4.29-1.68,6.86-1.15,2.26-.59,3.49-1.72,5.76-1.12,2.3-2.88,2.77-3.82,4.25-1.24,1.92-.63,5.11-2.14,6.62-1.03,1.03-1.51,1.87-1.13,4.52-.9-1.51-2.05-2.47-3.04-3.1-1.91-1.22-4.48-.94-5.51,1.37-.34-.53-.71-1.09-1.16-1.57.35-.63.7-1.33,1.02-2.03M73.85,162.59c0,4.45-3.94,8.92-8.83,12.56.65-2.39,1.02-5.06,1.02-8.09v-16.24c0-2.59-.22-6.3.19-9.26,3.59-2.66,6.13-5.6,7.89-8.62-.04,10.5-.26,26.59-.26,29.65M65.98,181.28c3.68-2.78,6.39-5.86,8-8.76-.07,7.29-.16,13.96-.16,15.82,0,4.15-3.38,8.29-7.79,11.75v-13.38c0-1.55-.07-3.49-.05-5.44M73.82,225.89c0,4.13-3.38,8.29-7.79,11.74v-9.55c0-2.31-.17-15.05.08-21.15,3.69-2.83,6.38-5.97,7.96-8.87-.04,10.44-.25,24.94-.25,27.83M60.99,152.6v13.41c0,8.72-4.35,14.21-9.02,17.23.92-2.72,1.47-5.86,1.47-9.53v-19.75c0-1.03,0-2.14.03-3.25,2.48-1.53,4.53-3.29,6.22-5.22.53-.27,1.03-.52,1.52-.79-.16,1.9-.22,4.44-.22,7.89M53.21,218.27c.15-1.27.23-2.6.23-4.01v-19.75c0-1.49,0-3.15.12-4.75,1.92-1.15,3.81-2.54,5.52-4.27.67-.32,1.32-.66,1.94-1.02-.02,1.18-.02,2.51-.02,4.01v13.42c0,7.94-3.61,13.2-7.78,16.37M60.99,229.85v13.43c0,7.79-3.46,12.99-7.55,16.18v-16.57c0-1.67-.03-11.59.17-17.26,2.69-1.61,5.33-3.73,7.5-6.58-.09,3.63-.12,8.3-.12,10.8M48.4,199.85v13.34c0,9-4.61,14.56-9.46,17.52.07-.95.11-1.92.11-2.97v-23.14c0-.73,0-4.11,0-7.13,1.87-.96,3.77-2.17,5.57-3.64,1.17-.43,2.51-.94,3.92-1.54,0,2.49-.14,2.47-.14,7.56M48.4,248.21v13.36c0,8.92-4.54,14.45-9.35,17.45v-22.86c0-.95,0-11.91,0-18.12,3.34-1.75,6.78-4.14,9.47-7.71-.04,5.23-.12,13.99-.12,17.88M37.94,190.74c.71-2.46,1.11-5.24,1.11-8.4v-24.58c1.69-.88,3.39-1.94,5.02-3.2,1.56-.41,3-.87,4.36-1.39-.07,1.53-.03,3.38-.03,6.13v13.35c0,9.62-5.26,15.3-10.46,18.1M34.01,211.96v14.74c0,9.95-6.12,16.3-11.04,18.53.68-2.4,1.07-5.12,1.07-8.2v-.32s-.02,0-.02.02c0-.34.02-.66.02-1.02v-13.96c0-3.58-.21-10.34-.1-15.26,2.95-1.45,6.03-3.42,8.64-6.2.53-.22,1.08-.43,1.67-.65-.15,4.19-.24,9.69-.24,12.32M34.01,263.51v14.73c0,10.56-6.75,16.51-10.95,18.35.96-1.26.98-4.21.98-9.33v-13.96c0-1.65-.05-10.36-.07-21.24,3.49-1.56,7.33-3.83,10.26-7.73-.14,7.19-.22,16.62-.22,19.18M23.91,166.78c2.95-1.46,6.04-3.42,8.66-6.22.53-.19,1.08-.41,1.66-.63-.13,1.85-.22,4.04-.22,6.63v14.74c0,10.12-5.84,15.9-11.28,18.51.83-2.6,1.31-5.58,1.31-9.01v-14.44c0-3.24-.17-6.48-.12-9.57M6.99,208.58c.97-1.27,2.02-4.72,2.02-9.83v-23.59c2.67-1.33,5.44-3.07,7.87-5.49.72-.26,1.51-.55,2.35-.87-.15,1.9-.24,4.01-.24,6.42v14.51c0,10.57-6.37,16.39-12,18.86M18.99,220.61c0,2.76-.24,16.92-.24,18.63,0,7.35-6.74,13.39-11.76,15.57.97-1.25,2.02-4.71,2.02-9.82v-30.12c2.67-1.32,5.44-3.07,7.87-5.46.76-.28,1.59-.6,2.49-.95-.25,3.91-.38,9.11-.38,12.16M18.99,272.17v16.8c0,2.11-.2,8.29-.23,15.4,0,0,0,0,0,0v11.28c0,7.08-6.74,13.39-11.76,15.56.97-1.26,2.02-4.71,2.02-9.83v-60.26c3.13-1.56,6.41-3.68,9.11-6.79.3-.12.62-.23.96-.37-.07,9.44-.09,16.77-.09,18.2M117.88,31.84l-.02-.02c-1.31.4-8.25,1.58-9.13.7,1.52-.79,2.56-1.25,5.46-3.1,2.12.17,4.17,1.47,7.47,3.44-1.84-.74-2.03-1.37-3.78-1.03M300.03,217.05c1.43.54,2.69.98,3.68,1.37-3.97-5.98-3.68-15.68-3.68-17.97v-23.13c1.43.55,2.69.98,3.68,1.39-3.97-6-3.68-15.7-3.68-17.99v-53.85c0-14.89-22.77-50.98-42.04-51.47-13.67-.33-29.72,18.88-49.34,13.92-6.3-1.64-11.32-8.4-15.48-16.75-7.31-14.94-14.35-34.93-32.16-46.51-19.72-12.79-42.42,1.5-45.02,3.77-2.23,2.05-5.79,8.19-7.68,9.16-6.17,3.22-7.18,8.62-7.18,10.67s.46,7.02,4.21,9.84c-.52-2.43-.65-3.79-.09-5.02,2.45.41,7.86,1.52,11.35.08,1.71,1.71,5.81,5,7.58,8.39,2.49,4.7,2.51,5.42,2.51,7.27,0,4.78-2.23,11.62-9.05,16.08-7.16,5.11-24.06,7.97-45.22.71-11.46-3.92-16.16-11.86-26.41-11.61-19.26.49-42.04,36.58-42.04,51.47v53.85c0,2.29.31,11.99-3.67,17.99,1-.41,2.25-.84,3.67-1.39v23.13c0,2.29.31,11.99-3.67,17.97,1-.4,2.25-.84,3.67-1.37v29.65c0,2.29.31,11.98-3.67,17.99,1-.41,2.25-.8,3.67-1.34v59.77c0,1.71.17,7.59-1.42,12.96-.53,1.79.68,3.94,2.56,3.2,7.72-3.07,18.93-9.09,18.93-25.85v-9.44c5.55-2.43,12.18-6.74,14.31-17.22,6.29-3.12,13.24-8.54,14.78-19.48,6.44-3.74,12.83-10.22,12.91-22.76,5.6-4.24,8.92-9.22,9.59-13.07.46-2.6.78-8.8.91-15.98,4.05-2.96,6.96-6.32,8.63-9.39-.65,15.55-3.76,36.45-11.07,65.4,1.29,0,3.02-.29,4.78-.7-.97,5.84-5.94,19.73-9.26,26.04-.45-.03-.92-.03-1.46.04-1.09.2-1.89,1.24-2.42,2.57-1.5-2.28-3.37-5.99-7.75-4.57-2.26.74-3.1,2.52-3.28,4.42-3.64,2.28-28.3,17.58-28.3,17.58v38.12c36.62,21.68,76.96,34.75,120.49,35.65,1.42,1.42,5.28,4.37,5.28,4.37,0,0,3.87-2.95,5.3-4.37,43.52-.9,83.86-13.97,120.49-35.65v-38.12s-26.75-16.6-28.66-17.81c-.23-1.8-1.09-3.47-3.27-4.19-4.37-1.42-6.25,2.28-7.74,4.57-.52-1.32-1.32-2.37-2.43-2.57-.53-.07-1.02-.07-1.43-.04-3.33-6.31-8.31-20.21-9.28-26.04,1.77.41,3.49.7,4.78.7-7.32-28.95-10.42-49.85-11.07-65.4,1.66,3.06,4.56,6.4,8.58,9.35.13,7.18.45,13.41.9,16.01.67,3.85,4.01,8.85,9.63,13.09.07,12.52,6.47,19.01,12.9,22.74,1.54,10.94,8.48,16.36,14.78,19.48,2.14,10.48,8.77,14.79,14.33,17.22v9.44c0,16.56,10.97,22.65,18.67,25.75,1.97.79,3.6-.71,3.1-2.15-1.9-5.61-1.71-12.09-1.71-13.91v-59.71c1.43.54,2.69.88,3.68,1.28-3.97-6.01-3.68-15.7-3.68-17.99v-29.65ZM244.88,349.45c-.52.2-1.05.41-1.58.62-.15-.37-.28-.74-.43-1.11.35-.66.7-1.32,1.04-1.99.71.24,1.42.49,2.14.73.15.36.3.73.45,1.1-.55.21-1.08.43-1.62.65M242.38,343.11c-1.01,1.99-2.05,3.98-3.12,5.95.27.74.55,1.48.82,2.23-1.08.4-2.17.8-3.26,1.18-1.95-5.47-3.89-10.94-5.84-16.42-.3-.84-.27-1.8.81-2.51-1.95-.76-3.89-1.55-5.8-2.36,2.54,7.47,5.09,14.93,7.63,22.4.31.93.65,1.88.95,2.81.83-.28,1.65-.56,2.48-.85l.78-.27c2.72-.97,5.45-2,8.16-3.06,1.61-.64,3.23-1.3,4.83-1.97-.69-1.64-1.38-3.29-2.07-4.92-2.14-.71-4.25-1.46-6.36-2.22M266.76,342.91c1.03-.52,2.07-1.05,3.1-1.59-3.14-6.03-6.28-12.07-9.42-18.1-.41-.79-.52-1.75.48-2.6-2.07-.47-4.11-.98-6.14-1.51,3.55,7.05,7.09,14.1,10.64,21.14.45.89.9,1.77,1.34,2.66M210.97,162.66s.07.08.05.14c0,.04-.05.09-.1.1l-3.14.7-.69,2.72s-.07.09-.12.1h-.02s-.1-.02-.11-.07l-1.56-2.52-3.13-.08s-.11-.04-.12-.08c-.03-.06-.02-.11.02-.15l1.99-2.32-.79-2.93s0-.11.04-.14c.05-.03.1-.05.16-.02l2.85,1.26,2.48-1.61s.06-.03.08-.03.06.02.08.03h0s.06.09.05.14l-.54,2.75,2.52,2ZM179.55,195.86l-1.39-5.37s-.07-.08-.12-.1c-.05-.02-.1.02-.12.06,0,0-2.73,3.97-3.56,5.06-1.37-.04-6.2-.4-6.21-.4-.06,0-.1.03-.13.08-.02.02,0,.09.02.14l3.35,4.45c-6,2.29-12.52,3.56-19.31,3.56s-13.74-1.36-19.92-3.8l3.16-4.21s.04-.1.02-.15c-.04-.04-.09-.08-.14-.07,0,0-4.85.37-6.21.4-.83-1.08-3.56-5.05-3.56-5.05-.03-.05-.08-.07-.13-.07-.06.02-.1.05-.12.1l-1.29,4.93c-11.03-6.71-19.48-17.22-23.53-29.71l5.04-.13s.1-.04.12-.09c.03-.04.02-.1-.02-.14,0,0-3.16-3.56-4.06-4.61.36-1.37,1.68-5.93,1.68-5.94.02-.05,0-.1-.03-.12-.04-.05-.09-.05-.15-.03l-4.68,2.08c-.36-2.53-.58-5.12-.58-7.76,0-11.04,3.33-21.33,9.02-29.93l3.08,3.66s.05.05.1.05c0,0,.02,0,.03,0,.05-.02.09-.06.1-.11,0,0,.81-4.71,1.08-6.03,1.31-.57,5.81-2.32,5.82-2.33.06-.02.08-.06.1-.12,0-.05-.03-.1-.08-.13l-4.42-2.29c8.84-9.4,20.97-15.66,34.54-16.91l-.99,5.06s0,.1.06.13c0,.02.04.02.07.02.02,0,.04,0,.07,0,0,0,4.19-2.41,5.4-3.01,1.21.6,5.42,3,5.42,3,.04.02.1.02.14,0,.04-.03.07-.09.06-.14l-1-5.11c13.76,1.06,26.1,7.26,35.1,16.69l-4.96,2.57c-.06.03-.08.08-.07.12,0,.07.03.11.09.12,0,0,4.51,1.75,5.81,2.33.27,1.32,1.08,6.02,1.08,6.02.02.06.06.1.11.12,0,0,.02,0,.02,0,.06,0,.09-.02.11-.05l3.53-4.19c5.9,8.7,9.36,19.18,9.36,30.45,0,2.76-.22,5.46-.62,8.1l-5.42-2.41c-.06-.02-.12,0-.15.02-.05.04-.07.1-.05.14,0,.02,1.33,4.58,1.7,5.94-.91,1.06-4.06,4.61-4.06,4.61-.04.04-.05.1-.02.14.02.05.08.09.13.09l5.83.16c-4.16,12.74-12.86,23.43-24.23,30.12M180.99,199.22s-.02.06-.04.06l-2.47,1.34.03,3.18s-.03.1-.07.13h-.07s-.06,0-.08-.02l-2.5-1.98-1.53.65-1.04.44h0s0,0-.02,0c-.04,0-.09,0-.12-.03-.02-.02-.02-.05-.02-.07-.02-.03-.03-.05-.02-.07l.42-1.15.59-1.58-.79-1.05h0l-1.08-1.44s0-.05,0-.07c0-.02-.02-.06,0-.08.02-.02.04-.03.07-.04.03,0,.03-.04.05-.04l2.99.08,1.85-2.43s.09-.05.13-.04c.05,0,.09.04.11.08,0,0,0,0,0,0l.46,1.76.32,1.26,2.09.69.7.23s.08.07.1.12c0,.03-.03.06-.04.07M131.18,197.53s0,.05,0,.08l-1.07,1.43-.8,1.06.43,1.16.58,1.57s0,.12-.03.15c-.02.02-.02,0-.03.02-.03,0-.07.02-.12,0l-.69-.29-1.37-.57s.05.02.07.02l-.59-.25-.94.75-1.56,1.22s-.06.03-.09.03h-.07s-.07-.08-.07-.13l.02-3.18-2.46-1.33c-.06-.02-.08-.08-.08-.14h0s.04-.09.09-.12l1.39-.46,1.4-.46.42-1.64.36-1.38s.07-.08.11-.09c.06,0,.12,0,.14.04h0l.92,1.22.93,1.21,2.97-.07c.07-.02.11.02.13.07.02.02,0,.04,0,.07M96.49,166.35s-.06.07-.11.07h-.02s-.1-.07-.12-.1l-.7-2.72-3.13-.7c-.06,0-.08-.05-.11-.1,0-.05,0-.11.05-.14l2.52-2h0s-.11-.6-.11-.6v.03l-.43-2.18s0-.07.02-.1c0,0,.03-.03.03-.04.05-.03.1-.03.16,0l2.47,1.61,1.54-.67,1.32-.59c.07-.03.11-.02.15.02.05.03.06.09.05.13l-.79,2.94,1.99,2.32s.04.09.02.15c-.02.04-.07.07-.12.08l-3.13.08-1.56,2.52ZM103.51,116.01l1.68-2.24-1.42-2.86s-.02-.11,0-.15c.04-.04.09-.06.13-.05l3.17.72,1.82-2.15s.11-.06.16-.04c.05.02.08.06.09.12l.22,2.94,2.79,1.46c.06.02.08.07.08.12,0,.06-.02.11-.08.13l-2.74,1.22-.6,2.99c0,.06-.05.1-.1.11h-.03s-.08,0-.11-.04l-.75-.89-1.27-1.51-2.8.36-.12.02c-.07,0-.12-.03-.15-.07-.02-.05-.02-.11,0-.16M147.26,90.8s.05-.06.1-.06l2.79-.13,1.38-2.91s.07-.08.12-.08c.06,0,.12.03.12.08l1.39,2.91.24.02h0l1.9.09h0c.23,0,.46.02.69.03.04.02.07.04.07.08h0s.02.11-.02.15l-2.1,2.03.61,3.08s-.02.1-.07.13c-.03.02-.06.03-.07.03-.02,0-.05,0-.07-.02l-2.71-1.37-2.69,1.37s-.1.02-.15-.02c-.03-.03-.07-.09-.05-.13l.27-1.43.33-1.65-2.11-2.03s-.05-.1-.03-.15c0-.02.02-.03.03-.03M192.74,112.91l1.22-.63.22-2.94s.03-.1.09-.11c.03-.02.06-.02.07,0,.03,0,.06.02.07.04l1.83,2.16.25-.07,2.91-.66s.1,0,.14.06c.03.03.03.09.02.14l-1.42,2.86,1.66,2.25c.06.04.06.1.02.15-.03.05-.08.07-.12.07l-2.93-.36-2.02,2.39s-.07.06-.1.06c-.02,0-.03,0-.04,0-.05,0-.08-.05-.09-.11l-.61-2.99-2.74-1.22c-.06-.03-.09-.07-.09-.12s.02-.11.08-.12l1.58-.83ZM211.53,153.72c0-.06-.02-.11-.06-.13-.06-.04-.11-.04-.16,0,0,0-.48.34-1.14.81.16-1.8.26-3.61.26-5.46,0-11.12-3.14-21.5-8.56-30.36,1.08.19,1.93.33,1.93.33.06,0,.11,0,.15-.06.03-.04.03-.1,0-.15,0,0-2.72-4.05-3.53-5.15.62-1.26,2.5-5.42,2.5-5.42.03-.04.02-.11-.02-.14-.03-.04-.09-.06-.13-.06l-5.77,1.32c-.92-1.08-4.16-4.69-4.16-4.69-.04-.04-.09-.06-.16-.04-.04.03-.08.07-.08.12l-.17,2.19c-8.92-8.56-20.57-14.31-33.49-15.84.99-.89,1.85-1.66,1.85-1.66.04-.03.05-.09.04-.15-.02-.06-.07-.08-.13-.08,0,0-4.91-.34-6.27-.41-.59-1.23-2.66-5.28-2.66-5.28l-.04-.06s-.07-.03-.12-.02c-.03,0-.07.03-.08.07-.02,0-2.05,4.06-2.63,5.3-1.36.07-6.27.4-6.27.4-.07,0-.12.04-.13.09,0,.05,0,.12.04.15,0,0,.9.8,1.92,1.73-12.99,1.7-24.64,7.67-33.5,16.47l-.22-2.91s-.03-.09-.1-.12c-.04-.02-.1,0-.15.04,0,0-3.24,3.6-4.16,4.69l-5.76-1.32s-.1.02-.13.05c-.02.05-.04.11-.02.15,0,0,1.88,4.17,2.5,5.42-.8,1.1-3.52,5.15-3.52,5.15-.04.05-.04.11,0,.16.03.04.08.06.14.05,0,0,1.33-.23,2.8-.48-5.46,8.88-8.63,19.33-8.63,30.5,0,2.04.12,4.06.32,6.05-1.08-.75-2-1.41-2-1.41-.04-.05-.11-.05-.16,0-.05.03-.07.07-.06.13,0,0,.67,4.79.94,6.17l-4.68,3.71s-.06.08-.05.14c.02.05.05.08.11.11,0,0,4.47,1.11,5.84,1.4.35,1.34,1.8,5.95,1.8,5.96.02.05.06.09.12.1h0s.1-.02.12-.07c0,0,.57-1.03,1.23-2.22,4.34,11.81,12.39,21.84,22.73,28.67-1.34.37-2.51.71-2.51.72-.06.02-.1.07-.11.12,0,.06.02.11.07.13,0,0,4.26,2.45,5.45,3.1,0,.8.08,5.96.08,5.96,0,.05.03.09.07.12.03,0,.05.02.06.02.03,0,.07-.02.09-.04l4.66-3.65,5.84,2.46s.11.02.15-.02c.04-.04.06-.11.02-.16,0,0-.45-1.1-.96-2.38,6.01,2.1,12.44,3.25,19.16,3.25,6.37,0,12.48-1.03,18.22-2.92-.46,1.13-.83,2.04-.83,2.04-.02.05,0,.12.04.15.03.04.09.05.13.02l5.84-2.46,4.66,3.67s.06,0,.09,0h.05s.08-.07.08-.12c0,0,.07-5.15.07-5.95,1.2-.65,5.46-3.1,5.46-3.1.06-.03.08-.07.07-.13,0-.07-.04-.1-.1-.12,0,0-.87-.25-1.97-.56,10.21-6.67,18.21-16.46,22.65-27.99.44.79.76,1.37.76,1.37.02.05.08.07.12.07h.03s.1-.05.11-.1c0,0,1.46-4.62,1.8-5.96,1.37-.29,5.84-1.41,5.84-1.41.04-.02.1-.05.1-.1.02-.05,0-.12-.06-.13l-4.65-3.72c.25-1.37.93-6.17.93-6.17M258.75,342.21c.17.36.33.71.5,1.07-.53.26-1.07.5-1.6.74-.51.25-1.03.48-1.56.71-.16-.36-.32-.71-.49-1.08.32-.68.63-1.36.94-2.04.74.21,1.47.41,2.2.6M255.73,335.75c-.31.7-.61,1.38-.92,2.08-.71-.22-1.42-.44-2.13-.67-2.12-4.68-4.23-9.35-6.34-14.02-.89,2.14-1.8,4.25-2.74,6.37,1.29-.2,2.25.36,2.6,1.15,1.22,2.8,2.44,5.6,3.67,8.41.07.18.16.36.24.55,1.13.36,2.27.73,3.42,1.08-.5,1.08-1.01,2.18-1.53,3.26.71,1.63,1.42,3.27,2.14,4.89,1.6-.7,3.19-1.4,4.78-2.13,1.59-.74,3.17-1.49,4.73-2.25-.77-1.61-1.55-3.2-2.33-4.8-1.17-.31-2.33-.63-3.48-.96.47-1.11.94-2.2,1.42-3.29-1.43-2.94-2.86-5.87-4.29-8.81-.38-.78-.17-1.87.83-2.72-2.22-.65-4.43-1.34-6.61-2.06,2.18,4.64,4.36,9.28,6.54,13.92M185.14,345.17c-1.74-1.16-3.44-2.33-5.12-3.53,1.05,8.83,2.11,17.62,3.16,26.45,1.15-.13,2.28-.27,3.41-.43-.9-6.74-1.8-13.48-2.71-20.22-.12-.89.07-1.81,1.26-2.27M219.02,339.94c-.26-.86-.18-1.8.93-2.44-1.9-.87-3.78-1.76-5.65-2.68,2.14,7.59,4.27,15.18,6.41,22.78.27.95.54,1.9.81,2.86,1.1-.31,2.19-.62,3.29-.95-1.93-6.51-3.86-13.04-5.79-19.57M165,363.69c-.72-1.15-1.43-2.3-2.13-3.46.33,0,.67-.02.99-.04.03-.86.33-1.32.87-1.82.59.44.97.87,1.08,1.73.32-.02.65-.04.99-.06-.59,1.22-1.19,2.43-1.8,3.65M172.78,346.56c1.27.19,1.65,1.05,1.73,1.94.54,5.78,1.08,11.57,1.61,17.36-2.99.26-5.96.5-8.94.66,1.61-3.25,3.15-6.51,4.64-9.8-1.29.1-2.58.19-3.88.28-.55-1-2.14-2.09-3.37-2.16-1.17.19-2.68,1.42-3.1,2.47-1.3.04-2.6.08-3.89.1,1.78,3.13,3.64,6.23,5.56,9.31-2.91.12-5.83.18-8.74.2,0-2.96-.02-5.93-.04-8.89-1.62,1.49-3.28,2.96-4.96,4.42,1.01,0,1.65.63,1.65,1.52-.03,2.46-.05,4.92-.07,7.38,0,1.64-1.56,2.96-3.48,2.92-1.54-.03-2.79-.9-3.23-2.07.45,1.99,2.51,3.54,5.01,3.58,2.88.04,5.17-1.96,5.14-4.43,0-.49,0-.97,0-1.47,3.63-.03,7.25-.12,10.87-.29,3.71-.17,7.41-.45,11.11-.79.16-.02.31-.03.47-.05.99-.08,1.96-.18,2.94-.29-.94-8.84-1.87-17.65-2.81-26.49-1.37,1.55-2.78,3.07-4.21,4.58M210.62,352.28c1.34-.03,1.87.74,2.08,1.59.46,1.83.93,3.66,1.38,5.49-4.92,1.24-9.86,2.33-14.83,3.26-.67.12-1.34.25-2.01.36-1.03-.61-2.05-1.24-3.05-1.87,2.33-2.37,3.77-6.56,2.89-10.09-.56,4.91-2.79,8.38-8.27,10.36,2.49,1.63,5.02,3.22,7.61,4.78,1.14-.2,2.26-.41,3.39-.62,6.16-1.16,12.28-2.57,18.35-4.18-1.27-4.76-2.54-9.53-3.8-14.29-1.22,1.75-2.46,3.49-3.73,5.22M227.61,346.22c-1.11,1.91-2.25,3.83-3.42,5.73.94-.29,1.76.09,2.04.94.72,2.36,1.46,4.71,2.19,7.06.49,1.55-.65,3.31-2.5,3.86-1.46.43-2.91-.02-3.69-.99,1.03,1.76,3.45,2.61,5.87,1.88,2.81-.84,4.41-3.47,3.64-5.8-1.37-4.22-2.76-8.45-4.12-12.67M111.98,20.3c-1.1,0-1.98.73-1.98,1.62,0,.8.72,1.47,1.66,1.59-.08-.12-.12-.28-.12-.41,0-.67.82-1.22,1.85-1.22.21,0,.41.02.58.07v-.02c0-.89-.89-1.62-1.99-1.62"/>
</svg>