<?xml version="1.0" encoding="UTF-8"?>
<svg id="Layer_1" data-name="Layer 1" xmlns="http://www.w3.org/2000/svg" viewBox="0 0 283.85 58.98">
  <defs>
    <style>
      .cls-1 {
        fill: #ad833b;
      }
    </style>
  </defs>
  <g>
    <path class="cls-1" d="M13.48,55.9c-.1.98-.43,1.76-.91,2.22-.63.4-1.97.86-3.6.86-5.82,0-8.97-3.25-8.97-8.09,0-5.24,4.01-8.41,9.04-8.41,2.37,0,4.26.81,4.66,1.26.08.91-.53,1.91-1.49,1.79-.7-.3-1.84-.63-3.17-.63-2.9,0-5.21,1.86-5.21,5.77,0,3.22,2.09,5.77,5.92,5.77,1.74,0,3-.4,3.63-.58l.1.05Z"/>
    <path class="cls-1" d="M19.75,52.48c0-.48-.03-.88-.2-1.19-1.39-2.49-3.45-5.67-4.99-7.96v-.08c.98-.28,2.42-.5,3.15-.5.48,0,.66.05,1.34,1.21.83,1.44,1.91,3.45,2.92,5.21,1.16-1.81,3.22-5.54,3.68-6.42,1.08,0,2.09.13,2.47.28.4.18.35.5.02,1.08-.6,1.06-4.28,6.55-4.51,6.98-.2.38-.28.76-.28,1.08v3.35c0,1.71.05,2.47.08,3.02-.68.13-1.51.2-3.17.2-.43,0-.5-.08-.5-.45v-5.82Z"/>
    <path class="cls-1" d="M30.35,46.35c0-1.36,0-2.09-.08-3.15.65-.18,3.28-.5,4.89-.5,4.91,0,5.69,2.29,5.69,3.98,0,1.56-1.11,2.72-2.27,3.3,2.17.63,3.2,2.09,3.2,3.75,0,3.35-2.85,5.11-6.98,5.11-1.36,0-3.43-.23-4.46-.43v-12.07ZM33.85,49.61c.7-.13,1.31-.15,2.52-.15.63-.33,1.08-1.06,1.08-2.27,0-1.61-1.06-2.37-2.39-2.37-.4,0-.96.05-1.21.1v4.69ZM33.85,56.63c.3.08.81.1,1.16.1,1.74,0,2.9-.98,2.9-2.77,0-1.49-1.11-2.39-3-2.39-.38,0-.68,0-1.06.05v5.01Z"/>
    <path class="cls-1" d="M44.37,46.38c0-1.21,0-2.07-.08-3.18.81-.18,2.09-.33,3.28-.35h6c-.18,1.39-.53,1.86-.83,2.22-.4.15-1.41.15-2.54.15h-2.22v4.08h5.32c-.25,1.94-.81,2.37-1.71,2.37h-3.6v4.56c.58.1,1.16.15,2.02.15.96,0,2.92,0,4.23-.1l.05.05c-.25,1.26-.76,1.86-1.44,2.29-.35.08-1.56.13-3.6.13-2.27,0-3.85-.13-4.46-.25l-.4-.5v-11.61Z"/>
    <path class="cls-1" d="M59.94,57.99c0,.5-.18.6-.6.66-.73.07-2.39.1-2.97.1.05-1.01.08-2.49.08-4.61v-8.46c0-1.23,0-1.84-.05-2.52.6-.15,3.4-.45,4.56-.45,4.33,0,6.25,1.49,6.25,4.58,0,2.34-1.97,3.48-2.97,3.96.58.5,1.34,1.84,2.14,3.27,1.18,2.12,1.86,3.15,2.54,3.91v.1c-.2.15-1.29.28-2.29.28-1.06,0-1.71-.2-2.39-1.06-.58-.7-1.13-1.86-2.19-4-.68-1.36-1.18-1.46-1.74-1.46-.15,0-.23-.02-.35,0v5.72ZM59.94,50.24c.58.07,1.91,0,2.27-.18.33-.18,1.31-.81,1.31-2.44,0-1.91-1.16-2.82-2.67-2.82-.3,0-.66,0-.91.05v5.39Z"/>
    <path class="cls-1" d="M80.34,42.48c1.44,0,3.17.6,3.8,1.26,0,.71-.45,1.89-1.46,1.81-.55-.28-1.69-.6-2.44-.6-1.34,0-2.09.6-2.09,1.49,0,1.03.78,1.61,3.17,2.97,2.12,1.19,3.5,2.14,3.5,4.61,0,3.25-2.85,4.96-5.87,4.96-1.79,0-3.07-.5-3.75-.98-.5-.33-.68-.6-.68-.96,0-.56.48-1.69.71-1.81.93.58,2.44,1.19,3.65,1.19,1.39,0,2.37-.53,2.37-1.69,0-.91-.43-1.49-3-2.9-2.92-1.56-3.48-3.2-3.48-4.76,0-1.79,1.26-4.58,5.54-4.58h.02Z"/>
    <path class="cls-1" d="M87.31,46.38c0-1.21,0-2.07-.08-3.18.81-.18,2.09-.33,3.28-.35h6c-.18,1.39-.53,1.86-.83,2.22-.4.15-1.41.15-2.54.15h-2.22v4.08h5.32c-.25,1.94-.81,2.37-1.71,2.37h-3.6v4.56c.58.1,1.16.15,2.02.15.96,0,2.92,0,4.23-.1l.05.05c-.25,1.26-.76,1.86-1.44,2.29-.35.08-1.56.13-3.6.13-2.27,0-3.85-.13-4.46-.25l-.4-.5v-11.61Z"/>
    <path class="cls-1" d="M111.75,55.9c-.1.98-.43,1.76-.91,2.22-.63.4-1.97.86-3.6.86-5.82,0-8.97-3.25-8.97-8.09,0-5.24,4.01-8.41,9.04-8.41,2.37,0,4.26.81,4.66,1.26.08.91-.53,1.91-1.49,1.79-.7-.3-1.84-.63-3.17-.63-2.9,0-5.22,1.86-5.22,5.77,0,3.22,2.09,5.77,5.92,5.77,1.74,0,3-.4,3.63-.58l.1.05Z"/>
    <path class="cls-1" d="M117.66,51.24c0,4.43,1.79,5.17,3.45,5.17,1.91,0,3.4-.91,3.4-5.34v-7.56c0-.5.2-.6.58-.66.76-.08,2.07-.1,2.57-.1-.05,1.01-.08,2.49-.08,4.58v3.6c0,6.93-3.68,8.04-6.88,8.04-4.48,0-6.65-2.37-6.65-7.58v-5.19c0-1.69-.03-2.72-.08-3.25.5-.08,2.52-.2,3.1-.2.5,0,.58.28.58,1.51v6.98Z"/>
    <path class="cls-1" d="M134.48,57.99c0,.5-.18.6-.6.66-.73.07-2.39.1-2.97.1.05-1.01.08-2.49.08-4.61v-8.46c0-1.23,0-1.84-.05-2.52.6-.15,3.4-.45,4.56-.45,4.33,0,6.25,1.49,6.25,4.58,0,2.34-1.97,3.48-2.97,3.96.58.5,1.34,1.84,2.14,3.27,1.18,2.12,1.86,3.15,2.54,3.91v.1c-.2.15-1.29.28-2.29.28-1.06,0-1.71-.2-2.39-1.06-.58-.7-1.13-1.86-2.19-4-.68-1.36-1.18-1.46-1.74-1.46-.15,0-.23-.02-.35,0v5.72ZM134.48,50.24c.58.07,1.91,0,2.27-.18.33-.18,1.31-.81,1.31-2.44,0-1.91-1.16-2.82-2.67-2.82-.3,0-.66,0-.91.05v5.39Z"/>
    <path class="cls-1" d="M145.16,46.15c0-1.69-.02-2.72-.08-3.2.5-.08,2.52-.2,3.1-.2.5,0,.58.25.58,1.41v11.29c0,1.76.05,2.59.08,3.1-.45.13-2.42.2-3.07.2-.43,0-.6-.08-.6-.5v-12.09Z"/>
    <path class="cls-1" d="M155.61,45.22h-4.38c-.45,0-.65-.2-.45-.86.28-.88.6-1.31.88-1.64.45.1,1.16.13,3.58.13h9.2c-.15,1.61-.91,2.24-1.49,2.37h-3.73v10.25c0,1.74.05,2.57.08,3.07-.81.13-1.86.2-3.07.2-.4,0-.6-.08-.6-.45v-13.08Z"/>
    <path class="cls-1" d="M170.14,52.48c0-.48-.03-.88-.2-1.19-1.39-2.49-3.45-5.67-4.99-7.96v-.08c.98-.28,2.42-.5,3.15-.5.48,0,.66.05,1.34,1.21.83,1.44,1.91,3.45,2.92,5.21,1.16-1.81,3.22-5.54,3.68-6.42,1.08,0,2.09.13,2.47.28.4.18.35.5.02,1.08-.6,1.06-4.28,6.55-4.51,6.98-.2.38-.28.76-.28,1.08v3.35c0,1.71.05,2.47.08,3.02-.68.13-1.51.2-3.17.2-.43,0-.5-.08-.5-.45v-5.82Z"/>
    <path class="cls-1" d="M198.53,55.9c-.1.98-.43,1.76-.91,2.22-.63.4-1.97.86-3.6.86-5.82,0-8.97-3.25-8.97-8.09,0-5.24,4.01-8.41,9.04-8.41,2.37,0,4.26.81,4.66,1.26.08.91-.53,1.91-1.49,1.79-.7-.3-1.84-.63-3.17-.63-2.9,0-5.22,1.86-5.22,5.77,0,3.22,2.09,5.77,5.92,5.77,1.74,0,3-.4,3.63-.58l.1.05Z"/>
    <path class="cls-1" d="M207.85,42.48c5.24,0,8.09,3.7,8.09,8.11s-2.87,8.39-8.21,8.39c-5.82,0-8.14-4.18-8.14-8.14,0-4.76,3.05-8.36,8.24-8.36h.02ZM207.52,44.69c-2.17,0-4.08,1.76-4.08,5.79s2.04,6.27,4.56,6.27c2.65,0,4.13-2.22,4.13-5.89,0-3.43-1.59-6.17-4.59-6.17h-.02Z"/>
    <path class="cls-1" d="M222.1,51.24c0,4.43,1.79,5.17,3.45,5.17,1.91,0,3.4-.91,3.4-5.34v-7.56c0-.5.2-.6.58-.66.76-.08,2.07-.1,2.57-.1-.05,1.01-.08,2.49-.08,4.58v3.6c0,6.93-3.68,8.04-6.88,8.04-4.48,0-6.65-2.37-6.65-7.58v-5.19c0-1.69-.03-2.72-.08-3.25.5-.08,2.52-.2,3.1-.2.5,0,.58.28.58,1.51v6.98Z"/>
    <path class="cls-1" d="M235.04,43.08v-.13c.58-.08,3.12-.2,3.63-.2.28,0,.48.18.73.45.78,1.21,2.65,4.16,4.11,6.65,1.06,1.79,1.89,3.1,2.49,4.43-.18-1.66-.15-2.39-.15-3.68v-7.03c0-.58.18-.68.58-.71.81-.07,1.71-.13,2.34-.13-.05,1.08-.08,2.55-.08,4.64v11.09c-.25.07-1.94.43-2.8.43-.38,0-.53-.1-.76-.43-1.11-1.61-1.89-2.95-3.78-6.02-1.54-2.49-2.19-3.9-3.22-5.97.15,2.32.13,3.58.13,4.89v6.63c0,.5-.15.58-.6.66-.45.07-1.41.13-2.32.1.05-1.01.08-2.47.08-4.59v-10.53l-.38-.55Z"/>
    <path class="cls-1" d="M264.86,55.9c-.1.98-.43,1.76-.91,2.22-.63.4-1.97.86-3.6.86-5.82,0-8.97-3.25-8.97-8.09,0-5.24,4.01-8.41,9.04-8.41,2.37,0,4.26.81,4.66,1.26.08.91-.53,1.91-1.49,1.79-.7-.3-1.84-.63-3.17-.63-2.9,0-5.22,1.86-5.22,5.77,0,3.22,2.09,5.77,5.92,5.77,1.74,0,3-.4,3.63-.58l.1.05Z"/>
    <path class="cls-1" d="M267.1,46.15c0-1.69-.02-2.72-.08-3.2.5-.08,2.52-.2,3.1-.2.5,0,.58.25.58,1.41v11.29c0,1.76.05,2.59.08,3.1-.45.13-2.42.2-3.07.2-.43,0-.6-.08-.6-.5v-12.09Z"/>
    <path class="cls-1" d="M274.35,46.2c0-1.69-.02-2.72-.08-3.25.6-.08,1.99-.2,3.1-.2.5,0,.58.28.58,1.54v11.92c.45.13,1.16.18,2.02.18.98,0,2.52,0,3.83-.13l.05.05c-.2,1.13-.73,1.89-1.39,2.32-.38.08-1.26.13-3.3.13s-3.8-.13-4.41-.25l-.4-.5v-11.79Z"/>
  </g>
  <g>
    <path class="cls-1" d="M19.75,25.5h-.94c-.33.75-.73,1.56-1.22,2.43-.98,1.74-1.8,2.81-2.47,3.2-3.06,1.37-5.88,2.05-8.46,2.05-1.8,0-3.3-.38-4.5-1.13C.7,31.16,0,29.86.03,28.15c.04-1.27.49-2.71,1.36-4.31.72-1.34,1.54-2.52,2.47-3.52.75-.84,1.27-1.27,1.54-1.28.12,0,.19.06.19.17,0-.05-.57.72-1.69,2.33-1.13,1.6-1.69,2.93-1.69,4,0,1.28.7,2.32,2.11,3.13,1.16.65,2.38,1.02,3.67,1.11,1.56.11,3.2-.06,4.93-.53.6-.19,1.51-.46,2.73-.81l.25-.04c-.85-1.59-2.2-2.39-4.05-2.39l-1.13-.13c-.74-.07-1.24-.11-1.51-.11.82-1.97,1.56-3.35,2.24-4.12h8.3v3.86ZM11.41,36.68l-1.85,1.73-2.35-1.58-1.69,1.58-2.5-1.66,1.81-1.73,2.43,1.54,1.66-1.58,2.5,1.69Z"/>
    <path class="cls-1" d="M30.2,18.91c0,.23-.01.73-.04,1.51l-.06.88-1.11,4.2h-9.91v-3.86h8.68c-.72-2.41-1.53-4.07-2.43-4.97.82-1.39,1.51-2.6,2.07-3.63,1,.97,1.86,2.5,2.58,4.59.11.34.18.77.21,1.28ZM27.26,9.26l-2.35,2.54c-1.57-.83-2.71-1.38-3.43-1.66.69-.74,1.55-1.61,2.58-2.62,1.08.74,2.15,1.32,3.2,1.73Z"/>
    <path class="cls-1" d="M37.36,19.79c0,2.7-.64,4.92-1.92,6.67l-1.69-14.95c0-.36.87-1.9,2.62-4.59.67,3.83,1,8.12,1,12.88Z"/>
    <path class="cls-1" d="M52.48,25.5h-.45l-1.39.04c-.6.01-1.13-.28-1.58-.88-.2,1.61-1.01,3.4-2.43,5.37-1.57,2.19-3.1,3.28-4.59,3.28-.68,0-2.09-.45-4.24-1.36-2.23-.94-3.35-1.63-3.35-2.05,0-.18.08-.26.23-.26s.67.2,1.57.58c.9.39,1.6.58,2.1.58,1.27,0,2.86-.73,4.78-2.2,2.61-2,3.92-3.57,3.92-4.71,0-.31-.35-.95-1.04-1.92-.57-.8-1.03-1.41-1.39-1.83.51-.89,1.19-2.03,2.01-3.43.45.67,1.13,1.67,2.03,3.01.92,1.28,1.85,1.92,2.79,1.92h1.04v3.86Z"/>
    <path class="cls-1" d="M64.21,25.5h-1.81c-1.31,0-2.18-.81-2.62-2.43-.34.67-.78,1.48-1.32,2.43h-6.63v-3.86h7.51c.19-.33.3-1.37.32-3.13.06-.14.45-.63,1.15-1.49.67-.83,1.09-1.33,1.28-1.51.12,1.18.04,2.63-.25,4.35-.08.48.08.89.47,1.24.39.35.82.53,1.3.53h.58v3.86ZM61.89,31.39c0,.18-.4.59-1.21,1.23-.81.65-1.31.97-1.52.97-.15,0-.64-.33-1.46-1-.82-.67-1.23-1.05-1.23-1.17,0-.14.41-.59,1.23-1.36.82-.77,1.31-1.15,1.46-1.15.09,0,.56.4,1.43,1.19.87.79,1.3,1.22,1.3,1.28Z"/>
    <path class="cls-1" d="M76.49,25.5h-2.43c-1.37,0-2.31-.85-2.82-2.54l-1.41,2.54h-6.21v-3.86h7.17l.08-.11c.2-.49.33-1.68.38-3.58,1.39-1.83,2.17-2.75,2.32-2.75s.04,1.41-.34,4.24c-.09.6.11,1.12.6,1.56.45.43.98.64,1.58.64h1.09v3.86ZM74.36,30.75c-1.16,1.62-1.83,2.43-2.03,2.43-.02,0-.49-.27-1.39-.81-.3-.18-.75-.45-1.36-.81-.46.45-.95.96-1.47,1.53-1.19-.44-2.12-.99-2.77-1.66.49-.54,1.15-1.32,2-2.35.16.21.57.53,1.22.95.65.42,1.09.63,1.3.63.09,0,.36-.24.81-.73.51-.55.81-.86.89-.92l2.81,1.75Z"/>
    <path class="cls-1" d="M98.61,25.5h-1.96l-.32-1.19c-.3.67-.48,1.06-.53,1.19h-5.18c-.04-.06-.14-.24-.3-.55-.15-.26-.26-.4-.32-.41-.06,0-.19.11-.38.34-.14.18-.32.38-.55.62h-6.63c-.41-.02-.72-.48-.92-1.36l-.24.25c-.74.74-1.29,1.11-1.66,1.11h-3.69v-3.86h4.86c.74,0,1.11-.8,1.11-2.39.46-.61,1.31-1.69,2.54-3.24,0,.77-.19,1.75-.57,2.94-.24.72-.51,1.41-.81,2.07l.04.09c.19.38,1.43.57,3.73.57,1.05,0,2.07-.04,3.05-.11.05-.64.19-1.39.43-2.24.61-1.03,1.41-1.98,2.39-2.84-.7,2.34-1.05,3.88-1.05,4.63,0,.2.02.35.08.45v.07h3.63c-.15-.64-.32-1.46-.51-2.47,0-.15.35-.7,1.04-1.66.67-.89,1.1-1.44,1.32-1.66v4.52c0,.61-.01,1.03-.04,1.26h1.43v3.86Z"/>
    <path class="cls-1" d="M109.14,10.53c-.2.29-.68.93-1.43,1.92l-1.34,1.71.04.04c0,.52.25,2.55.73,6.1.09.59-.02,1.41-.32,2.47-.33,1.17-.49,1.93-.49,2.3.01.04.02.08.02.11,0,.21-.42.32-1.26.32h-7.12v-3.86h6.74c.1-.1.15-.36.15-.77,0-1.03-.27-2.65-.81-4.85s-.81-3.69-.81-4.47l-.04-.08-1.32-.98c1.12-2.21,1.95-3.63,2.49-4.28,0,.88.24,1.51.72,1.88,1.08.7,2.43,1.51,4.05,2.43Z"/>
    <path class="cls-1" d="M116.79,19.79c0,2.7-.64,4.92-1.92,6.67l-1.69-14.95c0-.36.87-1.9,2.62-4.59.67,3.83,1,8.12,1,12.88Z"/>
    <path class="cls-1" d="M145.8,25.5h-2.64v.51c0,.33-.26,1.14-.77,2.43-.58,1.44-1.09,2.37-1.54,2.77-.75.68-1.96,1.27-3.62,1.77-1.44.44-2.69.66-3.75.66-2,0-3.62-.38-4.86-1.15-1.38-.87-2.07-2.12-2.07-3.75,0-1.79.38-3.68,1.15-5.67.7-1.82,1.31-2.73,1.81-2.73.14,0,.21.08.21.23,0,.11-.21.73-.64,1.86s-.64,2.01-.64,2.64c0,1.73.78,3.01,2.35,3.82,1.04.54,2.17.81,3.39.81s2.57-.21,4.05-.62c1.64-.45,2.62-.96,2.94-1.53,0-.68-.16-1.59-.47-2.75-.43-1.62-1.04-2.98-1.85-4.09.41-.77,1.15-1.95,2.2-3.54l1.77,3.16c.61.87,1.32,1.3,2.13,1.3h.85v3.86ZM136.43,12.77s-.4.39-1.19,1.01c-.79.62-1.24.93-1.36.93l-2.39-1.9,2.39-2.32,2.54,2.28Z"/>
    <path class="cls-1" d="M162.07,21.26c0,.1-.35.73-1.05,1.89-.7,1.16-1.12,1.8-1.26,1.91l-6.95-2.5c-.35.08-.77.61-1.26,1.6-.46.94-.88,1.39-1.24,1.34h-5.24v-3.86h6.25l.04-.11c.28-.64.72-1.59,1.34-2.84.88-1.62,2.17-2.84,3.86-3.67.09,0,.51-.17,1.27-.5.76-.33,1.34-.5,1.74-.5s.62.1.7.3c.08.36.21.9.41,1.62.2.59.5,1.46.89,2.62.34,1.03.51,1.93.51,2.71ZM158.84,20.53c-.25-.68-.47-1.24-.66-1.68-.39-.84-.68-1.27-.89-1.3-.54,0-1.08.13-1.62.4-.29.18-.57.34-.85.49l-.4.28,4.41,1.81Z"/>
    <path class="cls-1" d="M169.59,2.9c-.13.25-.34.67-.64,1.26-1.12,0-2.22.36-3.31,1.09-.78.5-1.18.75-1.21.73-.03-.04-.04-.08-.04-.13,0-.34.54-.9,1.62-1.69-.31-.01-.72-.08-1.2-.21-.65-.18-.95-.36-.89-.57,0-.66.3-1.37.9-2.11.67-.85,1.43-1.28,2.3-1.28.6,0,.9.26.9.77l-.51,1.09c-.15-.44-.54-.66-1.17-.66-.31,0-.65.08-1,.24-.41.19-.62.43-.62.72,0,.54,1.62.79,4.86.73ZM183.37,9.79c-.44.85-1,1.84-1.69,2.98-.26,0-.42-.02-.47-.08-.15-.1-.31-.19-.47-.26l-.34-.11v.38c0,1-.35,2.06-1.04,3.16-.56.9-1,1.51-1.32,1.81l-.04.04v.11s.21.58.62,1.58c.43,1.04.67,1.76.73,2.17.03.19.04.42.04.7,0,.36-.05.91-.16,1.63s-.16,1.26-.16,1.61h-9.75c.51-1.64.99-2.96,1.43-3.94.62,0,1.44-.33,2.49-1,.98-.63,1.67-1.22,2.07-1.77v-.11c-.08-.3-.53-.9-1.36-1.79-.92-.98-1.6-1.49-2.05-1.54-.21.05-.41.25-.59.6s-.29.53-.33.53c-.73-.5-1.31-.89-1.73-1.17-1.04-.67-1.93-1.12-2.66-1.38-.49-.18-.92-.54-1.28-1.09-.33-.5-.49-.94-.49-1.3,0-.88.48-2.34,1.45-4.37,1.23.1,3.34,1.45,6.33,4.05,1.73,1.51,3.21,3.25,4.44,5.22l.19.3.19-.34c.7-1.26,1.05-2.54,1.05-3.86,0-.84-.18-1.49-.55-1.94-.25-.31-.37-.48-.36-.49l2.28-3.52c0,.49.47,1.09,1.41,1.79.7.48,1.41.95,2.11,1.41ZM177.57,22.07l-.11-.24c-.18-.73-.53-1.42-1.07-2.07l-.19-.23-.11.26c-.13.19-.77.79-1.94,1.81l-.3.26.34.17c.06.02,1.08.04,3.05.04h.34Z"/>
    <path class="cls-1" d="M190.6,19.79c0,2.7-.64,4.92-1.92,6.67l-1.69-14.95c0-.36.87-1.9,2.62-4.59.67,3.83,1,8.12,1,12.88Z"/>
    <path class="cls-1" d="M231.69,25.5h-1.79c-.2-.25-.51-.65-.92-1.19-.3.67-.45,1.07-.45,1.22l-5.29-.04s-.13-.2-.32-.53c-.18-.29-.29-.43-.34-.43-.04,0-.18.15-.42.45-.24.3-.4.47-.46.51h-5.67v.26c0,.3-.24,1.01-.73,2.13-.55,1.24-1.05,2.07-1.51,2.47-.72.63-1.85,1.25-3.39,1.86-1.54.61-2.78.92-3.71.92-4.49,0-6.74-1.44-6.74-4.33,0-1.79.45-3.8,1.36-6.01.85-2.11,1.53-3.16,2.03-3.16.14,0,.21.08.21.23,0,.18-.28.95-.84,2.31-.56,1.36-.84,2.38-.84,3.06,0,1.63.76,2.8,2.28,3.5.94.44,2.02.66,3.24.66.82,0,2.07-.28,3.75-.85,1.82-.61,2.89-1.19,3.2-1.73,0-.46-.18-1.25-.55-2.35-.45-1.39-1.02-2.65-1.69-3.78.26-.54.97-1.78,2.13-3.71.43.84.85,1.68,1.26,2.5.65,1.16,1.21,1.84,1.68,2.05,1.21.1,3.01.14,5.42.11.1-.72.22-1.46.36-2.24.59-.84,1.4-1.78,2.43-2.81-.75,3.01-1.1,4.66-1.05,4.93l.04.11h3.75c-.01-.23-.04-.56-.08-1-.09-.69-.25-1.2-.47-1.54.51-.74,1.31-1.78,2.39-3.13v3.31c0,1.29.16,1.94.47,1.94.29.28.5.41.62.41h.66v3.86Z"/>
    <path class="cls-1" d="M242.45,25.5h-3.2c-.29,0-.47-.21-.55-.62l-.3-1.81c-.46.64-1.04,1.45-1.73,2.43h-5.67v-3.86h7.17l-1.86-11.88c.73-1.02,1.69-2.34,2.9-3.97.08.65.32,3.18.73,7.57l.62,6.99c0,.87.33,1.3,1,1.3h.89v3.86Z"/>
    <path class="cls-1" d="M266.98,25.5h-5.12l-.43-2.9c-.56-.07-2.11-.11-4.63-.11-.73,0-1.97.5-3.72,1.51-1.75,1-3,1.51-3.76,1.51h-7.48v-3.86h8.21c.77,0,1.77-.23,3.01-.7,1.15-.43,1.73-.72,1.73-.88-3.13-1.23-5.07-1.82-5.82-1.77-.72.04-1.76.41-3.13,1.11-.1,0,.06-.38.49-1.15,1.25-2.22,2.59-3.4,4.01-3.54.19-.02.38-.04.56-.04,1.1,0,2.35.32,3.73.96,2.35,1.08,3.85,1.71,4.5,1.88,2.49.67,4.48,1,5.99,1-.29.9-.65,1.95-1.09,3.13h2.94v3.86ZM255.68,31.05c.48,0,.25.41-.68,1.23-.93.82-1.48,1.23-1.64,1.23-1.98-1-2.98-1.59-2.98-1.77,0-.11.36-.53,1.08-1.24.72-.72,1.15-1.07,1.27-1.07.05,0,.53.27,1.43.81.9.54,1.41.81,1.51.81Z"/>
    <path class="cls-1" d="M283.33,21.26c0,.1-.35.73-1.05,1.89-.7,1.16-1.12,1.8-1.26,1.91l-6.95-2.5c-.35.08-.77.61-1.26,1.6-.46.94-.88,1.39-1.24,1.34h-5.24v-3.86h6.25l.04-.11c.28-.64.72-1.59,1.34-2.84.88-1.62,2.17-2.84,3.86-3.67.09,0,.51-.17,1.27-.5.76-.33,1.34-.5,1.74-.5s.62.1.7.3c.08.36.21.9.41,1.62.2.59.5,1.46.89,2.62.34,1.03.51,1.93.51,2.71ZM280.09,20.53c-.25-.68-.47-1.24-.66-1.68-.39-.84-.68-1.27-.89-1.3-.54,0-1.08.13-1.62.4-.29.18-.57.34-.85.49l-.4.28,4.41,1.81Z"/>
  </g>
</svg>