<?xml version="1.0" encoding="UTF-8"?>
<svg id="Layer_1" data-name="Layer 1" xmlns="http://www.w3.org/2000/svg" viewBox="0 0 332.02 38.94">
  <defs>
    <style>
      .cls-1 {
        fill: #32577a;
      }
    </style>
  </defs>
  <path class="cls-1" d="M3.24,4.5C1.08,6.71,0,9.44,0,12.54v26.25h34.78v-5.9H5.69v-11.06h29.02v-5.9H5.69v-3.47c0-1.55.5-2.8,1.58-3.91,1.08-1.11,2.38-1.62,3.82-1.62h23.62V1.03H11.16c-3.1.07-5.76,1.18-7.92,3.47Z"/>
  <path class="cls-1" d="M67.83,16h-23.33V1.11h-5.69v37.68h5.69v-16.96h23.33v16.96h5.69V1.11h-5.69v14.9Z"/>
  <path class="cls-1" d="M84.32,8.04c.65-.66,1.44-1.03,2.38-1.03h25.63V1.11h-25.63c-2.45,0-4.61.88-6.41,2.73-1.8,1.84-2.66,4.06-2.66,6.56v2.14c0,2.58.86,4.79,2.66,6.56,1.8,1.77,3.96,2.73,6.41,2.73h16.56c.94,0,1.73.3,2.38,1.03.65.66,1.01,1.47,1.01,2.43v4.28c0,.96-.29,1.77-1.01,2.43-.65.66-1.44,1.03-2.38,1.03h-25.63v5.9h25.63c2.45,0,4.61-.88,6.41-2.73,1.8-1.84,2.66-4.06,2.66-6.56v-4.28c0-2.58-.86-4.79-2.66-6.56-1.8-1.77-3.96-2.73-6.41-2.73h-16.56c-.94,0-1.73-.3-2.38-1.03-.65-.66-1.01-1.47-1.01-2.43v-2.14c.07-1.03.36-1.77,1.01-2.43Z"/>
  <path class="cls-1" d="M121.98.74h-1.44v36.95h1.44V.74Z"/>
  <path class="cls-1" d="M138.32,11.14c0,.3-.07.44-.14.52-.07.07-.29.07-.5.07h-.58c-.43,0-.79-.07-1.15-.22-.29-.15-.58-.37-.72-.66h-1.44c-1.22,0-2.16-.22-2.74-.74-.58-.52-.86-1.18-.86-2.14,0-1.11.36-1.92,1.01-2.43s1.58-.74,2.81-.74h.5c.22,0,.43,0,.65.07.22,0,.43,0,.65.07.22,0,.36.07.5.07v4.28c0,.37.07.66.22.88.14.22.43.37.86.37h.36c.22,0,.36,0,.43.07.07.15.14.3.14.52ZM131.56,7.89c0,.66.22,1.18.65,1.47.43.29,1.08.44,1.87.44h.94v-3.83c-.22,0-.5-.07-.65-.07h-.36c-.72,0-1.3.15-1.73.44-.5.37-.72.88-.72,1.55ZM131.7,2.88c0-.22.07-.44.22-.59.14-.15.36-.22.58-.22s.43.07.58.22c.14.15.22.37.22.59s-.07.44-.22.59c-.14.15-.36.22-.58.22s-.43-.07-.58-.22c-.14-.15-.22-.37-.22-.59ZM133.72,2.88c0-.22.07-.44.22-.59.14-.15.36-.22.58-.22s.43.07.58.22c.14.15.22.37.22.59s-.07.44-.22.59c-.14.15-.36.22-.58.22s-.43-.07-.58-.22c-.14-.15-.22-.37-.22-.59Z"/>
  <path class="cls-1" d="M137.75,11.73c-.22,0-.36-.07-.43-.15-.07-.07-.14-.22-.14-.44,0-.3.07-.44.14-.44.07-.07.29-.07.5-.07h1.08c.43,0,.72-.07.79-.3.14-.22.22-.52.22-.96v-4.35h1.3v5.09c0,.07,0,.15.07.22.07.07.14.15.29.15.07.07.22.07.36.07h.79c.22,0,.36,0,.43.07.07.07.14.22.14.44,0,.29-.07.44-.14.52-.07.07-.29.07-.51.07h-.29c-.29,0-.58-.07-.79-.15-.22-.07-.43-.3-.58-.52-.14.15-.29.3-.58.44-.29.15-.65.22-1.22.22h-1.44v.07ZM138.54,13.72c0-.22.07-.44.22-.59.14-.15.36-.22.58-.22s.43.07.58.22c.14.15.22.37.22.59s-.07.44-.22.59c-.14.15-.36.22-.58.22s-.43-.07-.58-.22c-.14-.15-.22-.37-.22-.59ZM140.56,13.72c0-.22.07-.44.22-.59.14-.15.36-.22.58-.22s.43.07.58.22c.14.15.22.37.22.59s-.07.44-.22.59c-.14.15-.36.22-.58.22s-.43-.07-.58-.22c-.14-.15-.22-.37-.22-.59Z"/>
  <path class="cls-1" d="M147.68,10.62c-.14-.3-.29-.59-.36-.88-.07-.37-.14-.66-.14-1.03-.07-.37-.07-.66-.14-1.03-.07-.29-.14-.59-.29-.88-.14-.29-.36-.44-.58-.59-.29-.15-.58-.22-1.01-.22s-.72,0-1.01.07c-.29.07-.5.15-.65.15v-1.03c.22-.07.43-.15.79-.22.36-.07.72-.15,1.15-.15.65,0,1.22.07,1.58.29.43.22.72.52.94.81.22.37.36.74.43,1.18.07.44.14.88.22,1.25.07.44.14.81.22,1.18.07.37.22.66.43.96h.94c.22,0,.36,0,.43.07.07.07.14.22.14.44,0,.3-.07.44-.14.52-.07.07-.29.07-.5.07h-7.42c-.43,0-.65-.22-.65-.66,0-.22.07-.3.15-.37.07-.07.29-.07.5-.07h4.97v.15Z"/>
  <path class="cls-1" d="M153.3,5.6c.22-.07.5-.15.86-.15.36-.07.72-.15,1.08-.22s.72-.07,1.08-.15c.36-.07.72-.07,1.01-.07.86,0,1.58.07,2.09.29.58.22,1.01.44,1.3.81.29.37.5.74.65,1.25s.14,1.03.14,1.62v1.11c0,.07.07.15.14.22.07.07.14.15.29.15.07.07.22.07.36.07h.65c.22,0,.36,0,.43.07.07.07.14.22.14.44,0,.29-.07.44-.14.52-.07.07-.29.07-.5.07h-.14c-.29,0-.58-.07-.79-.15-.22-.07-.43-.29-.58-.52-.14.15-.29.3-.58.44-.29.15-.65.22-1.22.22h-9.58c-.22,0-.36-.07-.43-.15-.07-.07-.14-.22-.14-.44,0-.3.07-.44.14-.44.07-.07.29-.07.5-.07h2.02v-5.6h1.3v.66h-.07ZM160.29,9.22c0-.52-.07-1.03-.14-1.4-.07-.37-.29-.74-.5-.96-.22-.29-.58-.44-1.01-.59-.43-.15-.94-.22-1.58-.22-.29,0-.65,0-.94.07-.36,0-.65.07-1.01.15-.36.07-.65.07-.94.15-.29.07-.58.15-.79.15v4.06h5.98c.43,0,.72-.07.79-.3.14-.22.22-.52.22-.96v-.15h-.07Z"/>
  <path class="cls-1" d="M162.95,11.73c-.22,0-.36-.07-.43-.15-.07-.07-.14-.22-.14-.44,0-.3.07-.44.14-.44.07-.07.29-.07.5-.07h1.94V.3h1.3v11.43h-3.31Z"/>
  <path class="cls-1" d="M169.72.3v11.43h-1.3V.3h1.3Z"/>
  <path class="cls-1" d="M186.06,10.62v-5.6h1.3v6.71h-10.3c-.65,0-1.22-.15-1.58-.52-.43-.37-.58-.89-.58-1.7v-3.1h1.3v2.95c0,.37.07.66.22.88.14.22.43.37.86.37h8.78ZM179.37,3.83c0-.22.07-.44.22-.59.14-.15.36-.22.58-.22s.43.07.58.22c.14.15.22.37.22.59s-.07.44-.22.59c-.14.15-.36.22-.58.22s-.43-.07-.58-.22c-.07-.15-.22-.37-.22-.59ZM181.38,3.83c0-.22.07-.44.22-.59.14-.15.36-.22.58-.22s.43.07.58.22c.14.15.22.37.22.59s-.07.44-.22.59c-.14.15-.36.22-.58.22s-.43-.07-.58-.22c-.14-.15-.22-.37-.22-.59Z"/>
  <path class="cls-1" d="M192.83,11.14c0,.3-.07.44-.14.52-.07.07-.29.07-.5.07h-.58c-.65,0-1.22-.15-1.58-.52-.43-.37-.58-.88-.58-1.7V.3h1.3v9.07c0,.44.07.74.22.96.14.22.43.3.87.3h.43c.22,0,.36,0,.5.07,0,.07.07.22.07.44Z"/>
  <path class="cls-1" d="M194.42,10.62c-.14-.3-.29-.66-.36-1.11-.14-.44-.22-.96-.22-1.47,0-.44.07-.81.22-1.25.14-.37.36-.74.65-1.03.29-.29.65-.52,1.01-.66.43-.15.86-.22,1.44-.22s1.08.07,1.51.29c.43.22.72.44,1.01.81.22.29.43.66.5,1.11.14.37.14.81.14,1.18,0,.44-.07.88-.22,1.33-.15.44-.36.81-.58,1.11-.29.3-.58.59-.94.81-.36.22-.86.3-1.37.3h-4.97c-.22,0-.36-.07-.43-.15-.07-.07-.14-.22-.14-.44,0-.3.07-.44.14-.44.07-.07.29-.07.5-.07h2.09v-.07ZM197.01,10.62c.36,0,.65-.07.86-.22.22-.15.43-.3.58-.59.14-.22.29-.52.36-.81.07-.29.07-.59.07-.88,0-.66-.14-1.25-.5-1.62-.29-.44-.79-.66-1.37-.66-.22,0-.5.07-.72.15-.22.07-.43.22-.58.37-.14.15-.29.37-.43.66-.14.29-.14.59-.14.96,0,.29,0,.52.07.81.07.22.07.52.14.74.07.22.14.44.22.59.07.15.14.37.22.44h1.22v.07Z"/>
  <path class="cls-1" d="M206.73,8.92c0-.44,0-.81-.07-1.11-.07-.37-.14-.66-.36-.88-.22-.22-.5-.44-.94-.59-.43-.15-.94-.22-1.66-.22h-1.22v-1.03h1.3c.86,0,1.58.07,2.16.29.58.15,1.01.44,1.3.74.29.29.5.66.65,1.11.14.44.14.96.14,1.47v1.47c0,.07.07.15.14.22.07.07.14.15.29.15.14.07.22.07.36.07h.65c.22,0,.36,0,.43.07.07.07.14.22.14.44,0,.3-.07.44-.14.52-.07.07-.29.07-.5.07h-.14c-.29,0-.58-.07-.79-.15-.22-.07-.43-.3-.58-.52-.14.15-.29.29-.58.44-.29.15-.65.22-1.22.22h-4.54v-1.11h4.25c.43,0,.72-.07.79-.3.14-.22.22-.52.22-.96v-.44h-.07Z"/>
  <path class="cls-1" d="M214.51,10.62c-.14-.3-.29-.59-.36-.88-.07-.37-.14-.66-.14-1.03-.07-.37-.07-.66-.14-1.03-.07-.29-.14-.59-.29-.88-.14-.29-.36-.44-.58-.59-.22-.15-.58-.22-1.01-.22s-.72,0-1.01.07c-.29.07-.5.15-.65.15v-1.03c.22-.07.43-.15.79-.22.36-.07.72-.15,1.15-.15.65,0,1.22.07,1.58.29.43.22.72.52.94.81.22.37.36.74.43,1.18.07.44.14.88.22,1.25.07.44.14.81.22,1.18.07.37.22.66.43.96h.94c.22,0,.36,0,.43.07.07.07.14.22.14.44,0,.3-.07.44-.14.52-.07.07-.29.07-.5.07h-7.42c-.43,0-.65-.22-.65-.66,0-.22.07-.3.14-.37.07-.07.29-.07.5-.07h4.97v.15ZM211.34,2.88c0-.22.07-.44.22-.59.14-.15.36-.22.58-.22s.43.07.58.22c.14.15.22.37.22.59s-.07.44-.22.59c-.14.15-.36.22-.58.22s-.43-.07-.58-.22c-.14-.15-.22-.37-.22-.59Z"/>
  <path class="cls-1" d="M216.81,11.73c-.22,0-.36-.07-.43-.15-.07-.07-.14-.22-.14-.44,0-.3.07-.44.14-.44.07-.07.29-.07.5-.07h1.08c.43,0,.72-.07.79-.3.14-.22.22-.52.22-.96V.3h1.3v9.81c0,.07.07.15.14.22.07.07.14.15.29.15.14.07.22.07.36.07h.79c.22,0,.36,0,.43.07.07.07.14.22.14.44,0,.3-.07.44-.14.52-.07.07-.29.07-.5.07h-.43c-.29,0-.58-.07-.79-.15-.22-.07-.43-.3-.58-.52-.14.15-.29.3-.58.44-.29.15-.65.22-1.22.22h-1.37v.07Z"/>
  <path class="cls-1" d="M221.63,11.73c-.22,0-.36-.07-.43-.15-.07-.07-.14-.22-.14-.44,0-.3.07-.44.14-.44.07-.07.29-.07.5-.07h1.94V.3h1.3v11.43h-3.31Z"/>
  <path class="cls-1" d="M241.15,10.62v-5.6h1.3v6.71h-10.3c-.65,0-1.22-.15-1.58-.52-.43-.37-.58-.89-.58-1.7v-3.1h1.3v2.95c0,.37.07.66.22.88.14.22.43.37.86.37h8.79ZM234.45,3.83c0-.22.07-.44.22-.59.14-.15.36-.22.58-.22s.43.07.58.22c.14.15.22.37.22.59s-.07.44-.22.59c-.14.15-.36.22-.58.22s-.43-.07-.58-.22c-.14-.15-.22-.37-.22-.59ZM236.47,3.83c0-.22.07-.44.22-.59.14-.15.36-.22.58-.22s.43.07.58.22c.14.15.22.37.22.59s-.07.44-.22.59c-.14.15-.36.22-.58.22s-.43-.07-.58-.22c-.14-.15-.22-.37-.22-.59Z"/>
  <path class="cls-1" d="M245.83.3v11.43h-1.3V.3h1.3Z"/>
  <path class="cls-1" d="M249.07,5.01h1.3v6.42c0,.44-.07.88-.14,1.25-.07.37-.22.66-.43.96-.22.3-.5.52-.86.66-.36.15-.87.22-1.44.22h-.29v-1.11h.14c.65,0,1.08-.15,1.3-.44.22-.29.36-.81.36-1.47v-6.49h.07Z"/>
  <path class="cls-1" d="M255.84,11.14c0,.3-.07.44-.14.52-.07.07-.29.07-.5.07h-.58c-.65,0-1.22-.15-1.58-.52-.43-.37-.58-.88-.58-1.7V.3h1.3v9.07c0,.44.07.74.22.96.14.22.43.3.86.3h.43c.22,0,.36,0,.51.07,0,.07.07.22.07.44Z"/>
  <path class="cls-1" d="M257.35,10.62c-.14-.3-.29-.66-.36-1.11-.14-.44-.22-.96-.22-1.47,0-.44.07-.81.22-1.25.14-.37.36-.74.65-1.03.29-.29.65-.52,1.01-.66.43-.15.86-.22,1.44-.22s1.08.07,1.51.29c.43.22.72.44,1.01.81.22.29.43.66.5,1.11.14.37.14.81.14,1.18,0,.44-.07.88-.22,1.33-.14.44-.36.81-.58,1.11-.29.3-.58.59-.94.81-.36.22-.86.3-1.37.3h-4.97c-.22,0-.36-.07-.43-.15-.07-.07-.14-.22-.14-.44,0-.3.07-.44.14-.44.07-.07.29-.07.5-.07h2.09v-.07ZM260.01,10.62c.36,0,.65-.07.86-.22.22-.15.43-.3.58-.59.14-.22.29-.52.36-.81.07-.29.07-.59.07-.88,0-.66-.14-1.25-.5-1.62-.29-.44-.79-.66-1.37-.66-.22,0-.5.07-.72.15-.22.07-.43.22-.58.37-.14.15-.29.37-.43.66-.14.29-.14.59-.14.96,0,.29,0,.52.07.81.07.22.07.52.14.74.07.22.14.44.22.59.07.15.14.37.22.44h1.22v.07Z"/>
  <path class="cls-1" d="M264.62,11.73v-1.11h3.17V3.02h1.3v7.6h2.81V.3h1.3v11.43h-8.57ZM269.95,16h-3.17v-.74h.72c-.07-.3-.14-.44-.14-.59s-.07-.3-.07-.37c0-.44.14-.74.43-1.03.29-.3.72-.44,1.3-.44h.72v.74h-.43c-.36,0-.65.07-.86.22-.22.15-.29.37-.29.66,0,.07,0,.22.07.37,0,.15.07.3.14.52h1.66v.66h-.07Z"/>
  <path class="cls-1" d="M276.79.3v11.43h-1.3V.3h1.3Z"/>
  <path class="cls-1" d="M290.04,11.14c0,.3-.07.44-.14.52-.07.07-.29.07-.5.07h-.65c-.43,0-.79-.07-1.15-.22-.29-.15-.58-.37-.72-.66h-1.44c-1.22,0-2.16-.22-2.74-.74-.58-.52-.86-1.18-.86-2.14,0-1.11.36-1.92,1.01-2.43.65-.52,1.58-.74,2.81-.74h.5c.22,0,.43,0,.65.07.22,0,.43,0,.65.07.22,0,.36.07.5.07v4.28c0,.37.07.66.22.88.14.22.43.37.86.37h.36c.22,0,.36,0,.43.07.14.15.22.3.22.52ZM283.27,7.89c0,.66.22,1.18.65,1.47.43.29,1.08.44,1.87.44h.94v-3.83c-.22,0-.51-.07-.65-.07h-.36c-.72,0-1.3.15-1.73.44-.5.37-.72.88-.72,1.55ZM283.42,2.88c0-.22.07-.44.22-.59.14-.15.36-.22.58-.22s.43.07.58.22c.14.15.22.37.22.59s-.07.44-.22.59c-.14.15-.36.22-.58.22s-.43-.07-.58-.22c-.14-.15-.22-.37-.22-.59ZM285.43,2.88c0-.22.07-.44.22-.59.14-.15.36-.22.58-.22s.43.07.58.22c.14.15.22.37.22.59s-.07.44-.22.59c-.14.15-.36.22-.58.22s-.43-.07-.58-.22c-.14-.15-.22-.37-.22-.59Z"/>
  <path class="cls-1" d="M289.46,11.73c-.22,0-.36-.07-.43-.15-.07-.07-.14-.22-.14-.44,0-.3.07-.44.14-.44.07-.07.29-.07.5-.07h2.52v-4.2h1.3v4.2h2.74v-4.2h1.3v4.2h1.66c.43,0,.72-.07.79-.3.14-.22.22-.52.22-.96v-4.35h1.3v5.09c0,.07.07.15.14.22.07.07.14.15.29.15.14.07.22.07.36.07h.79c.22,0,.36,0,.43.07.07.07.14.22.14.44,0,.29-.07.44-.14.52-.07.07-.29.07-.5.07h-.29c-.29,0-.58-.07-.79-.15-.22-.07-.43-.29-.58-.52-.14.15-.29.3-.58.44-.29.15-.65.22-1.22.22h-9.94v.07Z"/>
  <path class="cls-1" d="M302.79,11.73c-.22,0-.36-.07-.43-.15-.07-.07-.14-.22-.14-.44,0-.3.07-.44.14-.44.07-.07.29-.07.5-.07h2.74v-4.2h1.3v4.2h2.74v-4.2h1.3v4.2h2.67v-5.6h1.3v6.71h-12.1Z"/>
  <path class="cls-1" d="M322.51,11.73c0,.44-.07.81-.22,1.18-.14.37-.29.66-.5.89s-.58.44-.94.52c-.36.15-.86.22-1.44.22h-1.87v-1.03h1.87c.65,0,1.08-.15,1.37-.37.29-.3.43-.74.43-1.33h-.94c-.79,0-1.44-.15-1.94-.37-.5-.22-.86-.52-1.15-.81-.29-.37-.43-.74-.58-1.11-.07-.37-.14-.74-.14-1.11,0-.52.07-.96.22-1.4.14-.44.43-.81.72-1.11.29-.29.79-.52,1.3-.74.5-.15,1.15-.22,1.87-.22.29,0,.58,0,.94.07.36,0,.65.07.94.07v5.53h1.44c.22,0,.36,0,.43.07.07.07.15.22.15.44,0,.3-.07.44-.15.52-.07.07-.29.07-.5.07h-1.3ZM317.76,8.33c0,.44.07.81.22,1.03.14.29.29.52.5.74.22.15.5.3.79.37.29.07.65.15,1.08.15h.79v-4.65h-.58c-.29,0-.65,0-.94.07-.36.07-.65.15-.94.29-.29.15-.5.44-.72.74-.07.22-.22.66-.22,1.25ZM321.72,3.69h-3.67v-.81h.86c-.14-.29-.22-.59-.22-.74s-.07-.37-.07-.52c0-.44.14-.88.5-1.18.36-.29.86-.44,1.51-.44h.72v.74h-.58c-.43,0-.79.07-1.01.15-.22.15-.36.37-.36.81,0,.15,0,.29.07.44,0,.15.07.37.22.66h1.87v.88h.14Z"/>
  <path class="cls-1" d="M326.12,10.62c-.14-.3-.29-.66-.36-1.11-.14-.44-.22-.96-.22-1.47,0-.44.07-.81.22-1.25.14-.37.36-.74.65-1.03.29-.29.65-.52,1.01-.66.43-.15.86-.22,1.44-.22s1.08.07,1.51.29c.43.22.72.44,1.01.81.22.29.43.66.5,1.11.14.37.14.81.14,1.18,0,.44-.07.88-.22,1.33-.14.44-.36.81-.58,1.11-.29.3-.58.59-.94.81-.36.22-.86.3-1.37.3h-4.97c-.22,0-.36-.07-.43-.15-.07-.07-.14-.22-.14-.44,0-.3.07-.44.14-.44.07-.07.29-.07.5-.07h2.09v-.07ZM328.78,10.62c.36,0,.65-.07.86-.22.22-.15.43-.3.58-.59.14-.22.29-.52.36-.81s.07-.59.07-.88c0-.66-.14-1.25-.5-1.62-.29-.44-.79-.66-1.37-.66-.22,0-.5.07-.72.15-.22.07-.43.22-.58.37-.14.15-.29.37-.43.66-.14.29-.14.59-.14.96,0,.29,0,.52.07.81.07.22.07.52.14.74.07.22.14.44.22.59.07.15.14.37.22.44h1.22v.07Z"/>
  <path class="cls-1" d="M130.91,38.57v-11.73h7.13v1.18h-5.62v3.91h5.4v1.18h-5.4v4.28h5.83v1.18h-7.35Z"/>
  <path class="cls-1" d="M151.72,38.57v-4.87c0-.37,0-.66-.07-.96-.07-.29-.14-.52-.29-.74-.14-.22-.36-.37-.58-.52-.22-.15-.58-.22-.94-.22-.43,0-.72.07-1.01.22-.29.15-.5.3-.65.59-.14.22-.29.52-.36.81-.07.3-.07.66-.07,1.03v4.57h-1.37v-4.72c0-.37,0-.66-.07-.96-.07-.29-.14-.59-.29-.81-.14-.22-.29-.37-.58-.52-.22-.15-.58-.22-.94-.22s-.72.07-.94.22c-.29.15-.5.37-.65.59s-.29.52-.36.89c-.07.29-.14.66-.14.96v4.57h-1.37v-5.38c0-.96,0-1.84-.07-2.8h1.37l.07,1.33c.58-.96,1.44-1.47,2.52-1.47.65,0,1.15.15,1.58.37.43.22.72.66,1.01,1.33.58-1.11,1.51-1.7,2.81-1.7.58,0,1.01.07,1.37.3.36.15.65.44.86.74.22.29.36.66.43,1.11.07.44.14.89.14,1.4v4.79h-1.44v.07Z"/>
  <path class="cls-1" d="M156.4,28.32v-1.47h1.58v1.47h-1.58ZM156.47,38.57v-8.19h1.37v8.19h-1.37Z"/>
  <path class="cls-1" d="M165.25,31.71h-.36c-.79,0-1.37.22-1.73.66-.29.44-.5,1.03-.5,1.84v4.42h-1.37v-5.83c0-.81,0-1.62-.07-2.43h1.37l.07,1.33c.29-.52.65-.81,1.01-1.03.36-.22.86-.3,1.44-.3h.43v1.33h-.29Z"/>
  <path class="cls-1" d="M172.96,38.57c0-.15-.07-.37-.07-.59s-.07-.37-.07-.59c-.36.52-.72.81-1.15,1.03-.43.22-.94.29-1.51.29-.36,0-.72-.07-1.08-.15-.36-.07-.65-.22-.86-.44-.29-.22-.43-.44-.65-.74-.14-.29-.22-.66-.22-1.11,0-.59.14-1.11.43-1.47.29-.37.65-.66,1.15-.81.43-.22.94-.29,1.51-.37.5-.07,1.08-.07,1.51-.07h.79v-.52c0-.66-.14-1.11-.36-1.47-.29-.37-.72-.52-1.37-.52-.5,0-.86.07-1.15.3-.29.22-.43.59-.5,1.11h-1.37c0-.44.14-.81.29-1.11.15-.3.43-.52.65-.74.29-.15.58-.3.94-.37.36-.07.72-.15,1.08-.15,1.01,0,1.8.22,2.3.66.5.44.72,1.18.72,2.29v3.02c0,.52,0,1.03.07,1.47.07.44.14.74.14.96h-1.22v.07ZM172.67,34.51h-.72c-.29,0-.65,0-1.01.07-.36,0-.72.15-1.08.22-.36.15-.58.3-.86.52-.22.22-.36.59-.36.96,0,.22.07.44.14.66.07.22.22.37.36.52.14.15.36.22.58.3.22.07.43.07.65.07.5,0,.94-.07,1.22-.3.29-.22.5-.44.65-.74.14-.29.22-.66.29-1.11.14-.37.14-.81.14-1.18Z"/>
  <path class="cls-1" d="M179.87,38.64c-.65,0-1.15-.15-1.44-.44-.29-.29-.5-.81-.5-1.47v-5.38h-1.58v-.96h1.58v-1.62l1.37-.59v2.21h1.8v.96h-1.8v5.46c0,.15.07.3.14.44.07.07.22.22.36.22.14.07.36.07.58.07h.36c.14,0,.22,0,.36-.07v1.11c-.36.07-.79.07-1.22.07Z"/>
  <path class="cls-1" d="M184.55,34.73v.15c0,.37.07.74.14,1.11.07.37.22.66.43.96.22.3.43.52.72.66.29.15.65.22,1.08.22.58,0,1.01-.15,1.37-.52.36-.29.58-.81.65-1.4h1.3c-.14.96-.58,1.7-1.15,2.14-.58.44-1.44.66-2.3.66-.65,0-1.15-.07-1.66-.29-.43-.22-.86-.52-1.15-.88-.29-.37-.5-.81-.72-1.33-.14-.52-.22-1.03-.22-1.7,0-.59.07-1.18.22-1.7.14-.52.36-.96.72-1.4.36-.44.72-.74,1.15-.96.43-.22,1.01-.37,1.73-.37.65,0,1.22.15,1.66.37.43.22.79.59,1.08.96.29.44.43.89.58,1.4.07.52.14,1.11.14,1.7h-5.76v.22ZM189.02,33.78c0-.37-.07-.66-.14-.96-.07-.29-.22-.59-.36-.81-.14-.22-.36-.44-.65-.59-.29-.15-.58-.22-.94-.22s-.72.07-.94.22c-.22.15-.5.3-.72.59-.22.22-.36.52-.43.81-.14.3-.22.66-.22.96h4.39Z"/>
  <path class="cls-1" d="M199.02,36.21c0,.44-.07.88-.29,1.18-.22.3-.43.59-.72.81-.29.22-.65.37-1.08.44-.36.07-.79.15-1.15.15-.43,0-.79-.07-1.22-.15-.36-.07-.72-.22-1.01-.44-.29-.22-.5-.52-.65-.81-.14-.37-.22-.74-.22-1.25h1.37c0,.59.22.96.5,1.25.29.3.72.37,1.3.37.22,0,.43,0,.65-.07.22-.07.43-.15.58-.22.14-.15.29-.22.43-.44.14-.15.14-.37.14-.66,0-.22-.07-.37-.14-.52-.07-.15-.22-.29-.36-.37-.14-.15-.36-.22-.58-.29-.22-.07-.43-.15-.65-.22l-.65-.15c-.29-.07-.58-.15-.86-.29-.29-.15-.58-.22-.79-.44-.22-.15-.43-.37-.58-.66-.14-.22-.22-.59-.22-.96,0-.44.07-.81.29-1.11.22-.3.43-.52.72-.74.29-.22.65-.3,1.01-.37.36-.07.72-.15,1.08-.15.43,0,.79.07,1.15.15.36.07.65.22.94.44.29.22.5.44.65.74.14.3.22.66.29,1.18h-1.37c0-.52-.14-.88-.43-1.11-.29-.3-.65-.37-1.15-.37-.14,0-.36,0-.58.07-.22.07-.36.15-.5.22-.14.07-.29.22-.36.37-.07.15-.14.37-.14.59,0,.37.14.66.5.88.36.22.72.37,1.22.52l.65.15c.36.07.65.22,1.01.29.29.15.58.3.79.44.22.15.36.37.5.66-.07.22-.07.52-.07.88Z"/>
  <path class="cls-1" d="M215.01,38.57v-5.38h-5.9v5.38h-1.44v-11.73h1.44v5.09h5.9v-5.09h1.44v11.73h-1.44Z"/>
  <path class="cls-1" d="M221.06,34.73v.15c0,.37.07.74.14,1.11.07.37.22.66.43.96.22.3.43.52.72.66.29.15.65.22,1.08.22.58,0,1.01-.15,1.37-.52.36-.29.58-.81.65-1.4h1.3c-.14.96-.58,1.7-1.15,2.14-.58.44-1.44.66-2.3.66-.65,0-1.15-.07-1.66-.29-.43-.22-.86-.52-1.15-.88-.29-.37-.5-.81-.72-1.33-.14-.52-.22-1.03-.22-1.7,0-.59.07-1.18.22-1.7.14-.52.36-.96.72-1.4.29-.37.72-.74,1.15-.96.43-.22,1.01-.37,1.73-.37.65,0,1.22.15,1.66.37.43.22.79.59,1.08.96.29.44.43.89.58,1.4.07.52.14,1.11.14,1.7h-5.76v.22ZM225.52,33.78c0-.37-.07-.66-.14-.96-.07-.29-.22-.59-.36-.81-.14-.22-.36-.44-.65-.59-.29-.15-.58-.22-.94-.22s-.72.07-.94.22c-.29.15-.5.3-.72.59-.22.22-.36.52-.43.81-.14.3-.22.66-.22.96h4.39Z"/>
  <path class="cls-1" d="M234.81,38.57c0-.15-.07-.37-.07-.59s-.07-.37-.07-.59c-.36.52-.72.81-1.15,1.03-.43.22-.94.29-1.51.29-.36,0-.72-.07-1.08-.15-.36-.07-.65-.22-.86-.44-.29-.22-.43-.44-.65-.74-.14-.29-.22-.66-.22-1.11,0-.59.14-1.11.43-1.47.29-.37.65-.66,1.15-.81.43-.22.94-.29,1.51-.37.5-.07,1.08-.07,1.51-.07h.79v-.52c0-.66-.14-1.11-.36-1.47-.29-.37-.72-.52-1.37-.52-.5,0-.86.07-1.15.3-.29.22-.43.59-.5,1.11h-1.37c0-.44.14-.81.29-1.11.14-.3.43-.52.65-.74.29-.15.58-.3.94-.37.36-.07.72-.15,1.08-.15,1.01,0,1.8.22,2.3.66.5.44.72,1.18.72,2.29v3.02c0,.52,0,1.03.07,1.47.07.44.14.74.14.96h-1.22v.07ZM234.52,34.51h-.65c-.29,0-.65,0-1.01.07-.36,0-.72.15-1.08.22-.36.15-.58.3-.86.52-.22.22-.36.59-.36.96,0,.22.07.44.14.66.07.22.22.37.36.52.14.15.36.22.58.3.22.07.43.07.65.07.5,0,.94-.07,1.22-.3.29-.22.5-.44.65-.74.14-.29.22-.66.29-1.11,0-.37.07-.81.07-1.18Z"/>
  <path class="cls-1" d="M239.28,38.57v-11.73h1.37v11.73h-1.37Z"/>
  <path class="cls-1" d="M246.55,38.64c-.65,0-1.15-.15-1.44-.44-.36-.29-.5-.81-.5-1.47v-5.38h-1.58v-.96h1.58v-1.62l1.37-.59v2.21h1.8v.96h-1.8v5.46c0,.15.07.3.14.44.07.07.22.22.36.22s.36.07.58.07h.36c.14,0,.22,0,.36-.07v1.11c-.36.07-.79.07-1.22.07Z"/>
  <path class="cls-1" d="M255.84,38.57v-4.57c0-.37,0-.66-.07-1.03-.07-.37-.14-.59-.22-.88-.14-.22-.29-.44-.58-.59-.22-.15-.58-.22-1.01-.22s-.72.07-1.01.22c-.29.15-.5.37-.65.66-.14.3-.29.59-.36.96-.07.37-.14.74-.14,1.11v4.35h-1.37v-11.73h1.37v4.79c.29-.44.65-.81,1.08-1.03.43-.22.94-.37,1.51-.37.5,0,1.01.07,1.37.22.36.15.65.37.86.66.22.29.36.59.5,1.03.07.37.14.81.14,1.33v5.09h-1.44Z"/>
  <path class="cls-1" d="M273.98,35.32c0,.59-.14,1.18-.36,1.55-.29.44-.58.81-1.01,1.11-.43.29-.86.44-1.37.59-.5.15-1.01.22-1.58.22-.5,0-1.01-.07-1.51-.15-.5-.07-.86-.29-1.22-.59-.36-.29-.65-.59-.86-1.03-.22-.44-.36-.96-.43-1.55h1.51c0,.37.07.66.22.96.14.29.36.52.58.66.22.15.5.29.79.37.29.07.65.15.94.15s.65-.07.94-.15c.29-.07.65-.22.86-.37.29-.15.5-.37.65-.66.14-.3.22-.59.22-.96,0-.29-.07-.59-.22-.81-.14-.22-.29-.44-.5-.59-.22-.15-.43-.29-.72-.44-.29-.15-.58-.22-.86-.3l-1.01-.29c-.43-.15-.79-.3-1.22-.44-.36-.15-.72-.37-1.08-.59-.29-.22-.58-.52-.72-.89-.22-.37-.29-.74-.29-1.25,0-.59.14-1.11.36-1.47.22-.37.5-.74.94-1.03.36-.3.79-.44,1.3-.59.5-.15.94-.15,1.44-.15s.94.07,1.37.15c.43.07.86.3,1.22.52.36.22.65.52.86.89.22.37.36.88.36,1.4h-1.51c0-.37-.14-.59-.22-.88-.07-.3-.29-.44-.5-.59-.22-.15-.43-.22-.72-.29-.29-.07-.58-.07-.86-.07s-.58,0-.86.07c-.29.07-.58.15-.79.37-.22.15-.43.37-.58.59-.14.22-.22.52-.22.89,0,.3.07.52.22.66.14.22.29.37.43.52.22.15.43.3.65.37.22.07.43.22.65.29l1.3.44c.43.15.79.29,1.22.44.36.15.72.37,1.08.59.29.22.58.52.72.88.29.52.43.96.43,1.47Z"/>
  <path class="cls-1" d="M277.73,34.73v.15c0,.37.07.74.14,1.11.07.37.22.66.43.96.22.3.43.52.72.66.29.15.65.22,1.08.22.58,0,1.01-.15,1.37-.52.36-.29.58-.81.65-1.4h1.3c-.14.96-.58,1.7-1.15,2.14-.58.44-1.44.66-2.3.66-.65,0-1.15-.07-1.66-.29-.43-.22-.86-.52-1.15-.88-.29-.37-.5-.81-.72-1.33-.14-.52-.22-1.03-.22-1.7,0-.59.07-1.18.22-1.7.14-.52.36-.96.72-1.4.29-.37.72-.74,1.15-.96.43-.22,1.01-.37,1.73-.37.65,0,1.22.15,1.66.37.43.22.79.59,1.08.96.29.44.43.89.58,1.4.07.52.14,1.11.14,1.7h-5.76v.22ZM282.19,33.78c0-.37-.07-.66-.14-.96-.07-.29-.22-.59-.36-.81-.14-.22-.36-.44-.65-.59-.29-.15-.58-.22-.94-.22s-.72.07-.94.22c-.29.15-.5.3-.72.59-.22.22-.36.52-.43.81-.14.3-.22.66-.22.96h4.39Z"/>
  <path class="cls-1" d="M290.4,31.71h-.36c-.79,0-1.37.22-1.73.66-.29.44-.5,1.03-.5,1.84v4.42h-1.37v-5.83c0-.81,0-1.62-.07-2.43h1.37l.07,1.33c.29-.52.65-.81,1.01-1.03.36-.22.86-.3,1.44-.3h.43v1.33h-.29Z"/>
  <path class="cls-1" d="M296.66,38.57h-1.44l-3.24-8.19h1.58l2.52,6.78,2.52-6.78h1.44l-3.38,8.19Z"/>
  <path class="cls-1" d="M302.21,28.32v-1.47h1.58v1.47h-1.58ZM302.28,38.57v-8.19h1.37v8.19h-1.37Z"/>
  <path class="cls-1" d="M313.44,37.17c-.22.37-.43.66-.72.88-.29.22-.65.44-1.08.52-.43.15-.79.15-1.3.15-.65,0-1.22-.07-1.66-.29-.5-.22-.86-.52-1.22-.88-.36-.37-.58-.81-.72-1.33-.14-.52-.29-1.11-.29-1.7,0-.66.07-1.18.29-1.77.22-.59.43-1.03.72-1.4.36-.37.72-.74,1.22-.96.5-.22,1.08-.37,1.73-.37.94,0,1.66.22,2.23.74.58.44.94,1.18,1.01,2.14h-1.37c-.07-.59-.22-1.03-.58-1.4-.36-.3-.79-.52-1.37-.52-.5,0-.86.07-1.22.3-.29.22-.58.44-.79.74-.22.3-.36.66-.43,1.11-.07.37-.14.81-.14,1.25,0,.37.07.81.14,1.18.07.37.22.74.43,1.03.22.29.43.59.72.74.29.15.65.29,1.15.29.58,0,1.08-.15,1.44-.52.36-.37.58-.81.58-1.47h1.37c.14.74.07,1.18-.14,1.55Z"/>
  <path class="cls-1" d="M317.26,34.73v.15c0,.37.07.74.14,1.11.07.37.22.66.43.96.22.3.43.52.72.66.29.15.65.22,1.08.22.58,0,1.01-.15,1.37-.52.36-.29.58-.81.65-1.4h1.3c-.14.96-.58,1.7-1.15,2.14s-1.44.66-2.3.66c-.65,0-1.15-.07-1.66-.29-.43-.22-.86-.52-1.15-.88-.29-.37-.5-.81-.72-1.33-.14-.52-.22-1.03-.22-1.7,0-.59.07-1.18.22-1.7.14-.52.36-.96.72-1.4.29-.37.72-.74,1.15-.96.43-.22,1.01-.37,1.73-.37.65,0,1.22.15,1.66.37.43.22.79.59,1.08.96.29.44.43.89.58,1.4.07.52.14,1.11.14,1.7h-5.76v.22ZM321.72,33.78c0-.37-.07-.66-.14-.96-.07-.29-.22-.59-.36-.81-.14-.22-.36-.44-.65-.59-.29-.15-.58-.22-.94-.22s-.72.07-.94.22c-.29.15-.5.3-.72.59-.22.22-.36.52-.43.81-.14.3-.22.66-.22.96h4.39Z"/>
  <path class="cls-1" d="M331.73,36.21c0,.44-.07.88-.29,1.18-.22.3-.43.59-.72.81-.29.22-.65.37-1.08.44-.36.07-.79.15-1.15.15-.43,0-.79-.07-1.22-.15-.36-.07-.72-.22-1.01-.44-.29-.22-.5-.52-.65-.81-.14-.29-.22-.74-.22-1.25h1.37c0,.59.22.96.5,1.25.29.3.72.37,1.3.37.22,0,.43,0,.65-.07.22-.07.43-.15.58-.22.14-.15.29-.22.43-.44.14-.15.14-.37.14-.66,0-.22-.07-.37-.14-.52-.07-.15-.22-.29-.36-.37-.14-.15-.36-.22-.58-.29-.22-.07-.43-.15-.65-.22l-.65-.15c-.29-.07-.58-.15-.86-.29-.29-.07-.58-.22-.79-.44-.22-.15-.43-.37-.58-.66-.14-.22-.22-.59-.22-.96,0-.44.07-.81.29-1.11.22-.3.43-.52.72-.74.29-.22.65-.3,1.01-.37.36-.07.72-.15,1.08-.15.43,0,.79.07,1.15.15.36.07.65.22.94.44.29.22.5.44.65.74.14.3.22.66.29,1.18h-1.37c0-.52-.14-.88-.43-1.11-.29-.3-.65-.37-1.15-.37-.14,0-.36,0-.58.07-.22.07-.36.15-.5.22-.14.07-.29.22-.43.37-.07.15-.14.37-.14.59,0,.37.14.66.5.88.36.22.72.37,1.22.52l.65.15c.36.07.65.22,1.01.29.29.15.58.3.79.44.22.15.36.37.5.66.14.29,0,.52,0,.88Z"/>
</svg>