<?xml version="1.0" encoding="UTF-8"?>
<svg id="Layer_1" data-name="Layer 1" xmlns="http://www.w3.org/2000/svg" viewBox="0 0 272.38 110.53">
  <defs>
    <style>
      .cls-1 {
        fill: #0057a1;
      }

      .cls-2 {
        fill: #2f3639;
      }

      .cls-3 {
        fill: #6b93c2;
      }
    </style>
  </defs>
  <path class="cls-3" d="M105.52,95.49c-5,1.82-10.38,2.81-16.01,2.81-16.29,0-30.64-8.32-39.07-20.96l-6.27-2.74c8.47,16.47,25.59,27.74,45.34,27.74,7.63,0,14.86-1.69,21.36-4.7l-5.36-2.15Z"/>
  <path class="cls-3" d="M89.51,4.05c16.17,0,30.42,8.19,38.87,20.67l5.01.38C124.51,10.07,108.18,0,89.51,0c-14.87,0-28.25,6.39-37.58,16.57,1.82-.16,4.46-.39,6.29-.55,8.31-7.45,19.27-11.98,31.29-11.98Z"/>
  <path class="cls-1" d="M142.25,27.32c.98.09,1.95.2,2.93.32.76.09,1.51.19,2.27.28,1.75.22,3.51.46,5.26.7.59.08,1.17.17,1.76.25-.42-.07-.84-.21-1.25-.32-.43-.11-.86-.21-1.28-.32-.86-.21-1.71-.42-2.57-.63-1.7-.41-3.4-.8-5.11-1.17-.02,0-.03,0-.05-.01-1.55-.34-3.11-.66-4.67-.96-1.53-.3-3.07-.59-4.61-.87-1.55-.28-3.09-.54-4.64-.79-1.55-.25-3.1-.49-4.65-.72-1.55-.23-3.09-.45-4.64-.65-1.54-.21-3.08-.4-4.62-.59-1.52-.19-3.05-.36-4.57-.53-1.5-.17-3.01-.32-4.51-.47-1.48-.15-2.96-.28-4.43-.42-1.44-.13-2.89-.25-4.33-.36-1.41-.11-2.81-.21-4.22-.31-1.36-.09-2.72-.18-4.08-.26-1.31-.08-2.62-.15-3.93-.22-1.25-.07-2.51-.12-3.76-.18-1.19-.05-2.38-.1-3.57-.14-1.12-.04-2.25-.08-3.37-.1-1.05-.03-2.09-.05-3.14-.07-.97-.02-1.93-.03-2.9-.04-.88-.01-1.76-.01-2.64-.02-.79,0-1.57,0-2.36,0-.69,0-1.37.01-2.06.03-.58.01-1.16.03-1.74.05-.47.02-.94.04-1.41.06-.05,0-.09,0-.14,0-14.32.85-26.49,2.94-27.93,3.36-1.14.3-.3,1-.3,1l13.56,7.11c-1.32-.3-2.67-.6-4.03-.89-9.68-2.39-19.86-4.33-26.37-4.79-.15-.01-.29,0-.44,0-5.99.18-8.14,3.39-8.4,4.37-7.34,2.3-5.06,7.07-4.58,7.9.08-.44.32-.93.38-1.06,8.12.96,17.68,5.07,20.22,6.61.88,18.34,14.42,25.8,27.64,31.44,54.96,23.52,87.45,33.99,96.54,36.63l-14.88-6.05c-7.34-3.08-18.54-7.65-31.84-13.09-2.02-.8-3.93-1.61-5.75-2.41l13.91-2.22c-30.08-8.62-47.3-19.38-46.67-32.11.76-15.2,27.07-25.81,60.7-27.74.26-.01.52-.02.77-.02.71-.02,1.41-.03,2.12-.05,1.06-.02,2.12-.03,3.18-.03,1.32,0,2.63,0,3.95.01,1.47.02,2.94.05,4.42.1,1.53.05,3.07.12,4.6.22.75.06,1.5.12,2.24.2ZM12.74,28.26c-2.09.27-3.88.68-5.21,1.19-.06-.01-.07-.05,0-.09,1.03-.76.12-.88,1.75-1.36.6-.15,1.9-.24,4.23.12-.11-.02-.39.04-.77.14Z"/>
  <path class="cls-2" d="M92.33,42.43l-.7,4.15c-.04.22-.03.41.01.59.04.18.12.33.23.45.15.18.32.27.5.27h7.27c.17,0,.36-.09.57-.27.15-.13.28-.28.38-.45.1-.18.18-.37.21-.59l1.1-6.47h2.41l-1.1,6.47c-.07.39-.2.76-.42,1.1-.21.34-.47.65-.78.91-.36.32-.77.56-1.23.73-.46.18-.94.26-1.45.26h-7.24c-.52,0-.98-.09-1.38-.26-.4-.18-.72-.42-.98-.73-.22-.26-.37-.56-.47-.91-.1-.34-.11-.71-.04-1.1h-.01l.7-4.15h2.43Z"/>
  <path class="cls-2" d="M110.97,35.72l-2.33,13.75h-2.41l2.33-13.75h2.41Z"/>
  <path class="cls-2" d="M116.06,40.09l-1.6,9.45c-.14.62-.32,1.17-.54,1.65-.22.48-.46.9-.75,1.25-.28.36-.6.67-.95.93-.35.26-.72.47-1.12.64-.4.18-.8.32-1.22.42-.42.1-.84.17-1.26.21-.43.04-.86.07-1.3.08-.44,0-.89.01-1.34.01l.28-1.68c.36,0,.71,0,1.05,0,.34,0,.67-.02.99-.05.32-.03.62-.07.89-.13.28-.06.54-.13.77-.24.23-.1.44-.23.65-.4.21-.17.4-.38.57-.63.17-.25.33-.54.47-.89.14-.34.26-.74.36-1.2l1.6-9.43h2.43Z"/>
  <path class="cls-2" d="M140.12,42.27c-.05-.45-.16-.86-.31-1.21-.16-.36-.36-.66-.61-.92-.25-.26-.52-.47-.82-.63-.29-.15-.6-.26-.92-.34-.3-.07-.6-.1-.92-.1h-.1c-.35,0-.7.04-1.05.12-.35.08-.69.2-1.02.35-.36.16-.7.37-1.03.62-.33.25-.62.55-.89.89-.26.34-.49.72-.69,1.15-.19.43-.33.89-.42,1.39l-.73,4.31h-10.27c-.16,0-.32-.09-.48-.27-.11-.13-.18-.28-.23-.45-.05-.18-.05-.37-.01-.59l1.84-10.87h-2.41l-1.84,10.87c-.07.39-.05.76.05,1.1.09.34.25.65.47.91.25.32.58.56.98.73.4.18.86.26,1.36.26h11.25l3.33.92h.03c.31.08.62.11.93.11.24,0,.48-.02.73-.07.56-.1,1.08-.33,1.58-.7.22-.15.41-.31.58-.48.17-.17.32-.35.45-.55.24-.37.4-.77.47-1.21l.64-3.84h0c.08-.55.1-1.05.05-1.51ZM137.67,43.79l-.64,3.82c-.03.22-.1.42-.19.61-.09.19-.21.34-.36.45-.15.12-.33.19-.55.21-.04,0-.09.01-.14.01-.19,0-.39-.04-.62-.12l-2.16-.61.78-4.58c.12-.71.34-1.29.67-1.73.32-.44.69-.77,1.1-.96.23-.09.44-.14.63-.16.19,0,.38.05.58.15.17.1.33.23.46.39.14.17.25.37.34.61.09.24.14.52.16.84.02.32,0,.68-.06,1.07Z"/>
  <path class="cls-2" d="M144.73,52.89l-2.66.22.02-.71.76-.04c-.08-.13-.15-.24-.2-.33-.05-.08-.08-.17-.09-.24-.01-.04-.01-.09,0-.14,0-.03.01-.07.03-.11.03-.08.09-.2.18-.34.11-.18.26-.31.44-.39.18-.08.38-.14.6-.16.11-.01.21-.02.32-.02h.21c.17.02.33.04.48.07l-.29.68c-.11-.02-.23-.04-.35-.05-.06,0-.12,0-.18,0s-.11,0-.17,0c-.21.02-.33.07-.37.12-.01.02-.02.05-.03.08,0,.05,0,.09.03.15.03.09.09.18.18.29.08.1.15.2.19.3l.92-.08-.02.72ZM147.12,35.72l-2.06,12.18h2.78c.17,0,.36-.09.57-.27.15-.13.28-.28.39-.45.11-.18.18-.37.22-.59l1.84-10.87h2.41l-1.84,10.87c-.07.39-.2.76-.42,1.1-.21.34-.47.65-.78.91-.37.32-.78.56-1.24.73s-.94.26-1.45.26h-6.88l.29-1.69h1.7l2.06-12.18h2.41Z"/>
  <path class="cls-2" d="M157.57,35.72l-2.33,13.75h-2.41l2.33-13.75h2.41Z"/>
  <path class="cls-2" d="M189.29,40.09l-1.1,6.49h.01c-.04.22-.11.41-.21.59-.1.18-.23.33-.38.45-.21.18-.41.27-.59.27h-4.07l1.32-7.81h-2.42l-1.6,9.43c-.1.46-.22.86-.36,1.2-.14.34-.3.63-.47.89-.17.25-.37.46-.58.63-.21.17-.43.3-.65.4-.24.1-.49.18-.77.24-.28.06-.58.1-.89.13-.32.03-.64.05-.99.05-.34,0-.69,0-1.06,0l-.28,1.68c.45,0,.9,0,1.34-.01s.88-.03,1.3-.08c.43-.04.85-.11,1.26-.21.42-.1.82-.24,1.22-.42.4-.17.77-.38,1.11-.64.34-.25.66-.56.95-.92.29-.36.54-.77.75-1.24.21-.47.39-1.01.53-1.62h4.06c.52,0,1-.09,1.46-.26.45-.18.87-.42,1.23-.73.31-.26.57-.56.78-.91s.35-.71.42-1.1l1.1-6.49h-2.43Z"/>
  <path class="cls-2" d="M94.37,36.95c.03-.17.09-.33.18-.47.09-.15.2-.28.33-.39.13-.11.27-.2.42-.26.15-.06.31-.09.47-.09s.3.03.44.09c.14.06.25.15.34.26.09.11.15.24.19.39.03.15.04.3,0,.47-.03.17-.09.33-.18.47-.09.15-.19.27-.32.38-.13.11-.27.19-.43.26-.16.06-.32.09-.47.09s-.3-.03-.43-.09c-.13-.06-.24-.15-.33-.26-.09-.11-.16-.23-.19-.38-.04-.14-.05-.3-.01-.47Z"/>
  <path class="cls-2" d="M97.5,36.95c.03-.17.09-.33.18-.47.09-.15.2-.28.33-.39.13-.11.27-.2.43-.26.16-.06.32-.09.48-.09s.3.03.43.09c.13.06.24.15.32.26.09.11.15.24.18.39.03.15.04.3,0,.47-.03.17-.09.33-.18.47-.09.15-.19.27-.32.38-.12.11-.26.19-.42.26-.15.06-.31.09-.47.09s-.32-.03-.45-.09c-.14-.06-.25-.15-.34-.26-.09-.11-.16-.23-.19-.38-.03-.14-.04-.3,0-.47Z"/>
  <path class="cls-2" d="M204.75,45.2c-.01.09-.03.18-.05.26-.02.09-.04.17-.06.25l-.15.87h0c-.04.22-.03.42,0,.59.04.18.12.33.22.45.07.08.14.15.23.2.09.05.17.08.26.08h0s1.09-.01,1.09-.01l-.28,1.7h-1.09c-.48,0-.9-.08-1.27-.24-.37-.16-.69-.38-.95-.66-.29.23-.6.42-.91.56-.66.32-1.34.47-2.03.47h-.1c-.31,0-.61-.03-.9-.1-.32-.08-.62-.19-.9-.34-.29-.17-.56-.38-.8-.63-.24-.26-.44-.56-.59-.92-.15-.36-.26-.76-.31-1.21-.05-.45-.04-.95.05-1.51.04-.32.09-.63.14-.92l.07-.43c.08-.42.18-.81.3-1.17.12-.36.28-.7.47-1.01.19-.31.43-.6.72-.86.31-.27.67-.5,1.08-.7.41-.2.88-.36,1.42-.48.54-.12,1.16-.2,1.86-.25.4-.02.83-.03,1.3-.03.34,0,.69,0,1.06.02l1.11.04-1,5.97ZM202.47,44.7l.64-3.86c-.92,0-1.65.07-2.18.2-.53.12-.93.3-1.2.53-.17.16-.32.35-.44.57-.12.23-.22.48-.3.77-.08.29-.16.61-.22.95-.02.11-.05.23-.07.36-.04.24-.08.5-.12.77-.06.4-.08.75-.06,1.07.02.32.07.59.16.84.08.24.19.45.33.61.14.17.28.29.45.39.2.1.38.15.56.15.18,0,.4-.06.63-.16.34-.17.66-.44.96-.81.29-.37.52-.84.67-1.43l.16-.96h.02Z"/>
  <path class="cls-2" d="M215.54,49.6h-10.16l.28-1.7h10.16l-.28,1.7Z"/>
  <path class="cls-2" d="M225.09,49.6h-10.21l.28-1.7h2.37c-.13-.2-.22-.42-.28-.66-.06-.24-.09-.49-.1-.75-.01-.27,0-.55.03-.85.03-.3.08-.61.13-.95l.08-.45c.03-.16.06-.32.09-.48h0c.16-.82.41-1.52.76-2.11.35-.59.76-1.07,1.22-1.46.46-.38.97-.67,1.51-.86.54-.19,1.09-.28,1.63-.28h0c.53,0,1.03.1,1.5.29.47.19.87.48,1.2.87.33.38.57.86.72,1.42.15.56.16,1.22.04,1.95h-2.37c.07-.43.08-.83.04-1.18-.05-.35-.14-.65-.27-.9-.14-.25-.31-.44-.51-.57-.2-.13-.42-.2-.65-.2h0c-.23,0-.47.06-.71.19-.24.13-.48.32-.71.57-.22.25-.43.57-.62.95-.18.38-.33.83-.43,1.34h0c-.03.16-.06.3-.08.44l-.07.39c-.09.52-.15.98-.17,1.38-.02.4.03.72.17.99.14.27.38.48.74.63.36.15.87.25,1.55.29h3.41l-.29,1.7Z"/>
  <path class="cls-2" d="M237.92,49.6h-2.45c-.14.61-.32,1.16-.53,1.63-.21.47-.46.89-.74,1.25-.28.36-.58.67-.92.92-.34.26-.7.47-1.08.64-.39.18-.79.32-1.19.42-.41.1-.82.17-1.24.21-.42.05-.84.07-1.28.08-.44,0-.87.01-1.31.01l.28-1.69c.35,0,.7,0,1.03,0,.34,0,.66-.02.97-.05.31-.03.61-.07.88-.13.27-.06.53-.14.76-.24.22-.1.43-.23.63-.4.2-.17.38-.37.55-.61.17-.24.33-.53.47-.86.14-.33.26-.72.36-1.16-.69,0-1.3-.04-1.83-.11-.53-.06-1-.16-1.4-.27-.4-.12-.75-.27-1.03-.45-.29-.18-.52-.39-.71-.63-.21-.26-.35-.55-.44-.86-.08-.31-.13-.65-.13-1.01,0-.36.03-.76.09-1.17l.23-1.35c.1-.55.25-1.05.45-1.5.2-.45.44-.86.71-1.21.27-.36.57-.66.9-.92.33-.26.67-.47,1.02-.63.64-.29,1.29-.44,1.96-.44h.1c.69,0,1.31.16,1.87.47.29.17.55.37.79.62.24.25.43.55.57.89.15.34.24.72.29,1.15.05.43.03.89-.06,1.39l-.72,4.32h2.45l-.28,1.7ZM234.1,43.58c.12-.71.09-1.29-.08-1.74-.17-.45-.43-.77-.76-.96-.19-.1-.38-.15-.57-.16-.18,0-.38.05-.61.15-.41.19-.78.53-1.12,1-.34.47-.59,1.11-.73,1.91-.05.27-.1.52-.14.77-.02.13-.04.25-.05.36-.06.35-.09.66-.1.95s0,.54.05.77c.04.23.13.42.25.57.19.24.53.42,1.02.54.5.12,1.2.18,2.12.19l.73-4.35Z"/>
  <path class="cls-2" d="M248.42,49.6h-2.08c-.11.1-.22.19-.34.27-.49.37-1.01.6-1.55.7-.24.04-.48.07-.72.07-.3,0-.6-.04-.91-.11h-.03l-3.25-.92h-3.17l.28-1.7h2.19l.72-4.32c.08-.5.22-.97.41-1.39.19-.43.41-.81.67-1.15.26-.34.55-.64.87-.89.32-.25.66-.46,1.01-.62.32-.16.66-.28,1-.35.34-.08.68-.12,1.03-.12h.1c.31,0,.61.03.9.1.32.08.62.19.9.34.29.17.56.38.8.63.24.26.44.56.59.92.15.36.26.76.3,1.21.05.45.04.95-.04,1.5h0s-.63,3.86-.63,3.86l-.03.15s-.02.09-.03.13h1.29l-.28,1.7ZM241.17,48.17l2.11.61c.22.08.42.12.61.12.04,0,.09,0,.14-.01.21-.02.39-.09.54-.21.15-.12.27-.27.36-.45.09-.19.15-.39.19-.61l.63-3.84c.06-.4.08-.75.06-1.07-.02-.32-.07-.59-.16-.84-.08-.24-.19-.45-.33-.61-.14-.17-.28-.29-.45-.39-.2-.1-.39-.15-.57-.15-.19.01-.4.07-.62.16-.4.19-.76.52-1.07.96-.32.45-.53,1.03-.65,1.74l-.77,4.59Z"/>
  <path class="cls-2" d="M251.19,39.36c.77-.17,1.46-.25,2.08-.25.09,0,.19,0,.28.01.69.03,1.28.15,1.78.36.51.21.93.51,1.29.88.35.38.64.82.86,1.34.18.4.31.83.41,1.3.1.47.17.97.22,1.49.05.52.08,1.07.09,1.65,0,.57,0,1.16,0,1.76h1.53l-.28,1.7h-11.7l.28-1.7h7.79c0-.55,0-1.08,0-1.6,0-.52-.04-1.02-.08-1.49-.04-.47-.11-.91-.19-1.32-.09-.41-.2-.78-.35-1.12-.14-.3-.3-.56-.5-.79s-.45-.4-.74-.52c-.29-.12-.63-.2-1.01-.22h-.19c-.35,0-.73.04-1.17.14l-.41-1.62ZM251.1,52.96c.03-.17.09-.33.18-.49.09-.15.2-.28.33-.39.13-.11.27-.2.42-.26.15-.06.31-.1.47-.1s.31.03.45.1c.14.06.25.15.34.26.09.11.16.24.19.39.04.15.04.31.01.49-.03.17-.09.33-.17.48-.09.15-.19.27-.32.38-.13.11-.27.19-.43.26-.16.06-.32.1-.48.1s-.31-.03-.44-.1c-.13-.06-.24-.15-.34-.26-.09-.11-.16-.24-.2-.38-.04-.15-.05-.3-.02-.48Z"/>
  <path class="cls-2" d="M260.38,47.9l.72-4.32c.08-.5.22-.97.41-1.39.19-.43.41-.81.67-1.15.26-.34.55-.64.87-.89.32-.25.66-.46,1.01-.62.32-.16.66-.28,1-.35.34-.08.68-.12,1.03-.12h.1c.31,0,.61.03.9.1.32.08.62.19.9.34.29.17.56.38.8.63.24.26.44.56.59.92.15.36.26.76.3,1.21.05.45.04.95-.04,1.5h0s-.63,3.86-.63,3.86c-.07.44-.23.85-.47,1.21-.14.19-.28.38-.44.55-.16.17-.35.33-.56.49-.49.37-1,.6-1.55.7-.24.05-.48.07-.72.07-.3,0-.6-.04-.91-.11h-.03l-3.25-.92h-2.28l.28-1.7h1.3ZM262.72,48.17l2.11.61c.22.08.42.12.61.12.05,0,.09,0,.14-.01.21-.02.39-.09.54-.21.15-.12.27-.27.36-.45.09-.19.15-.39.19-.61l.63-3.84c.06-.4.08-.75.06-1.07-.02-.32-.07-.59-.16-.84-.08-.24-.19-.45-.33-.61-.14-.17-.28-.29-.45-.39-.2-.1-.39-.15-.57-.15-.19.01-.4.07-.62.16-.4.19-.76.52-1.07.96-.32.45-.53,1.03-.66,1.74l-.77,4.59Z"/>
  <path class="cls-2" d="M200.7,36.95c.03-.17.09-.33.18-.47.09-.15.2-.28.33-.39.13-.11.27-.2.42-.26.15-.06.31-.09.47-.09s.31.03.44.09c.14.06.24.15.34.26.09.11.15.24.19.39.03.15.04.3,0,.47-.03.17-.09.33-.18.47-.09.15-.19.27-.32.38-.13.11-.27.19-.43.26-.16.06-.31.09-.48.09s-.3-.03-.43-.09c-.13-.06-.24-.15-.33-.26-.09-.11-.16-.23-.19-.38-.04-.14-.04-.3-.01-.47Z"/>
  <path class="cls-2" d="M203.83,36.95c.03-.17.09-.33.18-.47.09-.15.2-.28.33-.39.13-.11.27-.2.43-.26.16-.06.32-.09.49-.09s.31.03.43.09c.13.06.24.15.32.26.09.11.15.24.18.39.03.15.04.3,0,.47-.03.17-.09.33-.18.47-.09.15-.19.27-.31.38-.13.11-.26.19-.42.26-.15.06-.31.09-.47.09-.17,0-.32-.03-.45-.09-.14-.06-.25-.15-.34-.26-.09-.11-.16-.23-.19-.38-.03-.14-.04-.3,0-.47Z"/>
  <path class="cls-2" d="M175.45,40.07l-1.1,6.49h.01c-.04.22-.11.41-.21.59s-.23.33-.38.45c-.21.18-.41.27-.59.27h-4c.13-.54.25-1.04.33-1.51.08-.47.13-.91.16-1.32.06-.82.03-1.54-.06-2.15-.1-.61-.26-1.13-.48-1.56-.23-.43-.49-.78-.78-1.06-.29-.28-.61-.51-.95-.67-.34-.16-.68-.28-1-.36-.33-.08-.64-.13-.93-.16-.29-.02-.54-.04-.73-.04h-.02v.02s-.02-.01-.02-.01l-.94,1.61c.36.03.72.07,1.08.12.37.05.71.15,1.03.3.32.15.6.37.83.67.24.3.41.71.52,1.23.11.52.14,1.18.08,1.97-.03.42-.08.89-.17,1.4-.08.46-.18.97-.31,1.51h-5.5l-.29,1.69h11.88c.52,0,1-.09,1.46-.26.45-.18.87-.42,1.23-.73.31-.26.57-.56.78-.91.21-.34.35-.71.42-1.1l1.1-6.49h-2.43Z"/>
  <path class="cls-2" d="M165.77,53.96c.03-.17.09-.33.18-.47.09-.15.2-.28.33-.39.13-.11.27-.2.42-.26.15-.06.31-.09.47-.09s.3.03.44.09c.14.06.25.15.34.26.09.11.15.24.19.39.03.15.04.3,0,.47-.03.17-.09.33-.18.47s-.19.27-.32.38c-.13.11-.27.19-.43.26-.16.06-.32.09-.47.09s-.3-.03-.43-.09c-.13-.06-.24-.15-.33-.26-.09-.11-.16-.23-.19-.38-.04-.14-.04-.3-.01-.47Z"/>
  <path class="cls-2" d="M168.9,53.96c.03-.17.09-.33.18-.47.09-.15.2-.28.33-.39.13-.11.27-.2.43-.26.16-.06.32-.09.48-.09s.3.03.43.09c.13.06.24.15.32.26.09.11.15.24.18.39.03.15.04.3,0,.47-.03.17-.09.33-.18.47-.09.15-.19.27-.32.38-.12.11-.26.19-.42.26-.15.06-.31.09-.47.09s-.32-.03-.45-.09c-.14-.06-.25-.15-.34-.26-.09-.11-.16-.23-.19-.38-.03-.14-.04-.3,0-.47Z"/>
  <path class="cls-2" d="M184.14,53.96c.03-.17.09-.33.18-.47.09-.15.2-.28.33-.39.13-.11.27-.2.43-.26.16-.06.32-.09.49-.09s.3.03.43.09c.13.06.24.15.32.26.09.11.15.24.18.39.03.15.04.3,0,.47-.03.17-.09.33-.18.47-.09.15-.19.27-.32.38-.12.11-.26.19-.42.26-.15.06-.31.09-.47.09s-.32-.03-.45-.09c-.14-.06-.25-.15-.34-.26-.09-.11-.16-.23-.19-.38-.03-.14-.04-.3,0-.47Z"/>
  <path class="cls-2" d="M90.83,64.64h7.21l-.36,2.59h-7.21l-.56,4.02h7.83l-.36,2.59h-10.42l2.21-15.83h10.42l-.36,2.59h-7.83l-.58,4.04Z"/>
  <path class="cls-2" d="M111.86,62.05c.52,0,1.02.09,1.48.28.47.19.87.45,1.22.79.34.34.6.76.76,1.25.1.33.16.69.16,1.07,0,.21-.01.42-.04.65l-1.07,7.75h-2.43l1.07-7.66c.03-.14.04-.25.04-.36,0-.36-.13-.66-.38-.91-.31-.31-.71-.47-1.18-.47-.24,0-.48.04-.74.13s-.49.21-.7.36c-.21.15-.4.32-.56.52-.16.2-.25.41-.28.64l-1.07,7.75h-2.41l1.09-7.86c.03-.25,0-.47-.08-.67-.08-.19-.2-.35-.37-.48-.16-.12-.36-.22-.59-.29-.23-.07-.47-.1-.72-.1h-.14c-.25,0-.51.04-.78.11-.33.08-.62.19-.89.36l-1.23,8.93h-2.41l1.45-10.56c.56-.36,1.22-.65,1.96-.88.74-.23,1.47-.35,2.19-.35.69.01,1.31.15,1.88.41.57.26.98.67,1.24,1.22.42-.51.92-.9,1.53-1.2.61-.29,1.27-.44,2-.44Z"/>
  <path class="cls-2" d="M119.35,73.83h-2.46l1.63-11.59h2.46l-1.63,11.59ZM120.34,57.81c.46,0,.84.16,1.12.47.21.25.31.54.31.87,0,.09,0,.19-.02.29-.08.46-.29.85-.64,1.16-.35.31-.76.47-1.22.47s-.82-.16-1.09-.47c-.21-.24-.31-.53-.31-.87,0-.09,0-.19.02-.29.07-.46.28-.85.62-1.16.35-.31.75-.47,1.21-.47Z"/>
  <path class="cls-2" d="M127.99,62.05c.19,0,.39,0,.6.02.21.01.44.05.69.11l-.31,2.17c-.25-.07-.54-.11-.87-.11h-.16c-.39.01-.76.09-1.11.24-.35.14-.65.35-.91.61-.26.27-.42.6-.48.98l-1.09,7.77h-2.46l1.09-7.81c.12-.83.42-1.56.9-2.17.49-.61,1.06-1.05,1.73-1.32.49-.21.97-.34,1.43-.4.46-.06.77-.09.94-.09Z"/>
  <path class="cls-2" d="M132.99,74.06c-.52,0-1.01-.09-1.47-.27-.46-.18-.86-.44-1.21-.78-.34-.34-.6-.76-.76-1.25-.1-.31-.16-.65-.16-1.03,0-.21.01-.42.05-.62l.58-4.02c.1-.76.33-1.4.67-1.91s.76-.93,1.25-1.25c.49-.32,1.04-.55,1.64-.68.6-.13,1.22-.2,1.84-.2.71,0,1.44.1,2.18.29.74.19,1.4.44,1.97.74l-1.5,10.76h-1.99l-.18-1c-.43.43-.9.74-1.41.94-.51.19-1.01.29-1.52.29ZM135.36,64.15c-.33,0-.65.03-.97.1s-.61.18-.88.34c-.27.16-.5.36-.69.6-.19.25-.31.54-.36.88l-.58,4.04c-.01.1-.02.2-.02.29,0,.18.03.33.09.45.07.21.19.38.36.51.16.14.36.24.59.3.23.07.48.1.75.1h.14c.39,0,.77-.06,1.16-.18.43-.14.8-.31,1.09-.54l.94-6.52c-.21-.12-.45-.21-.74-.28-.29-.07-.58-.1-.88-.1Z"/>
  <path class="cls-2" d="M144.86,74.06h-.42c-.55,0-1.05-.08-1.51-.25-.45-.16-.83-.41-1.13-.75-.3-.34-.51-.76-.65-1.28-.07-.28-.11-.6-.11-.96,0-.27.02-.56.07-.87l1.52-10.56h2.23l-.22,2.88h2.21l-.29,2.26h-2.21l-.8,5.4c-.03.18-.04.35-.04.51,0,.22.03.42.09.58.12.25.29.44.5.57.21.13.47.2.78.24.3.03.63.04.97.04l-.29,2.12c-.21.05-.44.07-.69.07Z"/>
  <path class="cls-2" d="M151.63,74.06c-.56,0-1.11-.09-1.64-.26-.53-.17-.99-.43-1.37-.77-.39-.34-.69-.77-.89-1.27-.14-.36-.2-.74-.2-1.16,0-.19.01-.39.04-.6l.54-3.84c.09-.69.3-1.29.64-1.8.34-.51.74-.94,1.22-1.28.47-.34,1-.6,1.56-.77.56-.17,1.14-.26,1.72-.26s1.13.09,1.64.26c.51.17.96.42,1.34.76.38.34.66.76.84,1.26.12.34.18.71.18,1.12,0,.21-.01.42-.04.65-.08.55-.25,1.03-.52,1.44-.28.41-.62.75-1.03,1.01-.41.27-.88.46-1.42.59-.54.13-1.1.19-1.7.19-.85,0-1.65-.15-2.41-.45l-.14,1.12c-.01.1-.02.2-.02.29,0,.18.03.34.09.47.07.22.2.41.38.57.18.16.39.28.64.36.25.08.5.12.77.12h.09c.4,0,.83-.09,1.3-.27.47-.19.87-.49,1.18-.89l1.56,1.16c-.6.74-1.27,1.31-2.04,1.68-.77.38-1.53.57-2.29.57ZM152.68,67.43c.65,0,1.16-.15,1.52-.45.39-.33.58-.73.58-1.21,0-.36-.14-.68-.42-.96-.31-.3-.79-.45-1.43-.45-.28,0-.56.04-.82.12-.27.08-.51.2-.74.37-.22.16-.41.36-.56.59-.15.23-.25.5-.29.79l-.14.8c.25.08.58.16.98.25.4.09.84.13,1.32.13Z"/>
  <path class="cls-2" d="M162.28,71.78c.43,0,.82-.11,1.16-.32.34-.21.55-.54.62-.97.03-.21,0-.38-.1-.52-.1-.14-.23-.26-.39-.36-.16-.1-.35-.17-.55-.24-.2-.06-.4-.11-.59-.16-.4-.07-.83-.19-1.29-.35-.45-.16-.87-.37-1.25-.66-.38-.28-.68-.64-.9-1.07-.15-.31-.22-.68-.22-1.09,0-.18.01-.36.04-.56.09-.64.27-1.18.56-1.62.28-.44.63-.79,1.04-1.06.41-.27.86-.46,1.34-.58.48-.12.97-.18,1.46-.18.31,0,.64.03.97.09.34.06.67.15,1,.28.34.13.65.29.96.48.3.19.59.43.84.71l-1.7,1.61c-.24-.25-.58-.46-1.03-.64-.45-.17-.91-.26-1.41-.28h-.09c-.34,0-.65.08-.91.22-.28.16-.48.44-.58.82-.06.25-.04.47.07.66.1.19.25.34.45.47.19.13.41.23.66.3.25.07.49.14.72.18.45.08.89.19,1.33.34.44.15.82.36,1.14.64.32.28.56.62.72,1.04.14.3.2.63.2,1,0,.18-.01.36-.04.54-.09.61-.28,1.14-.57,1.57-.29.44-.65.81-1.07,1.11-.42.3-.89.52-1.41.66-.51.14-1.03.21-1.55.21-.45,0-.89-.06-1.33-.17-.44-.11-.85-.28-1.23-.51-.38-.23-.71-.52-.99-.86s-.5-.74-.65-1.21l2.01-1.18c.24.55.6.96,1.09,1.24.5.27.98.41,1.45.41Z"/>
  <path class="cls-2" d="M180.96,58.03c.91,0,1.68.15,2.32.45.64.3,1.15.69,1.54,1.18.39.49.65,1.05.8,1.67.07.39.11.77.11,1.16,0,.24-.01.48-.05.74-.09.65-.29,1.29-.6,1.91-.31.62-.73,1.16-1.25,1.64-.52.48-1.14.86-1.86,1.15-.72.29-1.54.44-2.44.44h-3.59l-.76,5.47h-2.54l2.21-15.8h6.11ZM179.84,66c.49,0,.92-.08,1.31-.25.38-.16.71-.37.99-.62.28-.25.51-.54.67-.87s.27-.65.31-.98c.01-.12.02-.24.02-.36,0-.21-.02-.41-.07-.6-.07-.33-.21-.62-.42-.87-.21-.25-.49-.45-.82-.6-.31-.15-.69-.22-1.12-.22h-3.68l-.76,5.38h3.57Z"/>
  <path class="cls-2" d="M191.96,62.05c.55,0,1.08.09,1.61.26.52.17.97.42,1.35.76.38.34.67.75.86,1.24.14.34.2.72.2,1.14,0,.19-.01.39-.05.6l-.56,4.02c-.09.67-.3,1.25-.64,1.75-.34.5-.74.91-1.22,1.25-.48.34-1,.59-1.56.75-.56.16-1.12.25-1.67.25s-1.11-.08-1.64-.25c-.53-.16-.98-.41-1.36-.75-.38-.34-.67-.75-.86-1.24-.14-.34-.2-.73-.2-1.16,0-.19.01-.4.04-.6l.56-4.02c.09-.67.3-1.25.64-1.74.34-.49.74-.9,1.22-1.24.47-.34,1-.59,1.57-.76.58-.17,1.14-.26,1.71-.26ZM191.63,64.43c-.25,0-.51.03-.77.1s-.5.17-.72.3c-.22.14-.41.3-.56.5-.15.2-.25.44-.29.7l-.54,3.91c-.01.09-.02.17-.02.25,0,.18.04.34.11.47.09.22.23.41.41.56.19.15.4.26.65.34.25.08.5.11.75.11.24,0,.49-.04.74-.11.25-.07.49-.19.71-.34.22-.15.41-.33.56-.55.15-.21.25-.46.29-.72l.54-3.91c.01-.07.02-.15.02-.22,0-.18-.04-.34-.11-.47-.1-.21-.25-.38-.42-.51-.18-.14-.39-.24-.62-.3-.25-.07-.48-.1-.72-.1Z"/>
  <path class="cls-2" d="M201.36,71.78c.43,0,.82-.11,1.16-.32.34-.21.55-.54.62-.97.03-.21,0-.38-.1-.52-.1-.14-.23-.26-.39-.36-.16-.1-.35-.17-.55-.24-.2-.06-.4-.11-.59-.16-.4-.07-.83-.19-1.29-.35-.45-.16-.87-.37-1.25-.66-.38-.28-.68-.64-.9-1.07-.15-.31-.22-.68-.22-1.09,0-.18.01-.36.04-.56.09-.64.27-1.18.56-1.62.28-.44.63-.79,1.04-1.06.41-.27.85-.46,1.34-.58.49-.12.97-.18,1.46-.18.31,0,.64.03.97.09.34.06.67.15,1.01.28.34.13.65.29.96.48.31.19.59.43.84.71l-1.7,1.61c-.24-.25-.58-.46-1.03-.64-.45-.17-.91-.26-1.41-.28h-.09c-.34,0-.65.08-.91.22-.28.16-.48.44-.58.82-.06.25-.04.47.07.66.1.19.25.34.45.47.19.12.41.23.66.3.25.07.49.14.72.18.45.08.89.19,1.33.34.44.15.82.36,1.14.64.32.28.56.62.72,1.04.14.3.2.63.2,1,0,.18-.01.36-.05.54-.09.61-.28,1.14-.57,1.57-.29.44-.65.81-1.07,1.11-.42.3-.89.52-1.41.66-.51.14-1.03.21-1.55.21-.45,0-.89-.06-1.33-.17-.44-.11-.85-.28-1.23-.51-.38-.23-.71-.52-.99-.86s-.5-.74-.65-1.21l2.01-1.18c.24.55.6.96,1.09,1.24.5.27.98.41,1.46.41Z"/>
  <path class="cls-2" d="M211.25,74.06h-.42c-.55,0-1.05-.08-1.51-.25-.45-.16-.83-.41-1.13-.75-.3-.34-.51-.76-.65-1.28-.07-.28-.11-.6-.11-.96,0-.27.02-.56.07-.87l1.52-10.56h2.23l-.22,2.88h2.21l-.29,2.26h-2.21l-.81,5.4c-.03.18-.04.35-.04.51,0,.22.03.42.09.58.12.25.29.44.5.57.21.13.47.2.78.24.3.03.63.04.97.04l-.29,2.12c-.21.05-.44.07-.69.07Z"/>
  <path class="cls-2" d="M226.29,57.81c.58,0,1.14.06,1.68.19.54.13,1.05.33,1.51.61.46.28.87.64,1.22,1.07.36.43.64.95.85,1.56l-2.48,1.16c-.25-.71-.68-1.22-1.28-1.53-.6-.3-1.25-.46-1.93-.46-.43,0-.86.05-1.28.16-.42.1-.81.26-1.16.47-.35.21-.65.47-.89.78-.24.31-.4.68-.46,1.09l-.85,6c-.01.12-.02.23-.02.34,0,.3.06.56.18.78.15.33.37.6.67.8.3.21.65.36,1.06.47.41.1.83.16,1.26.16s.89-.05,1.33-.16c.44-.1.84-.26,1.2-.47.36-.21.67-.47.91-.79.25-.32.4-.7.46-1.13l.16-1.25h-4.44l.36-2.48h7.01l-.51,3.71c-.12.86-.4,1.62-.84,2.27-.44.65-.98,1.18-1.62,1.61-.64.42-1.34.74-2.1.95-.76.21-1.52.31-2.3.31s-1.49-.1-2.19-.31c-.7-.21-1.3-.52-1.81-.95-.51-.43-.89-.96-1.14-1.62-.18-.43-.27-.91-.27-1.45,0-.25.02-.52.07-.8l.85-6.05c.12-.85.4-1.58.84-2.21.44-.62.97-1.15,1.6-1.57.62-.42,1.32-.74,2.08-.95.76-.21,1.52-.32,2.28-.32Z"/>
  <path class="cls-2" d="M238.3,62.05c.19,0,.4,0,.6.02.21.01.44.05.69.11l-.31,2.17c-.25-.07-.54-.11-.87-.11h-.16c-.39.01-.76.09-1.11.24-.35.14-.65.35-.91.61-.26.27-.42.6-.48.98l-1.1,7.77h-2.46l1.1-7.81c.12-.83.42-1.56.9-2.17.49-.61,1.06-1.05,1.73-1.32.49-.21.97-.34,1.43-.4.46-.06.77-.09.94-.09Z"/>
  <path class="cls-2" d="M245.37,62.05c.55,0,1.09.09,1.61.26.52.17.97.42,1.35.76.38.34.67.75.86,1.24.14.34.2.72.2,1.14,0,.19-.01.39-.05.6l-.56,4.02c-.09.67-.3,1.25-.64,1.75-.34.5-.74.91-1.22,1.25-.48.34-1,.59-1.56.75-.56.16-1.12.25-1.67.25s-1.11-.08-1.64-.25c-.53-.16-.98-.41-1.36-.75-.38-.34-.67-.75-.86-1.24-.14-.34-.2-.73-.2-1.16,0-.19.01-.4.04-.6l.56-4.02c.09-.67.3-1.25.64-1.74.34-.49.74-.9,1.21-1.24.48-.34,1-.59,1.57-.76.57-.17,1.14-.26,1.71-.26ZM245.04,64.43c-.25,0-.51.03-.77.1-.26.07-.5.17-.73.3-.22.14-.41.3-.56.5-.15.2-.25.44-.29.7l-.54,3.91c-.01.09-.02.17-.02.25,0,.18.04.34.11.47.09.22.22.41.41.56.19.15.4.26.65.34.25.08.5.11.75.11.24,0,.49-.04.74-.11.25-.07.49-.19.71-.34.22-.15.41-.33.56-.55.15-.21.25-.46.29-.72l.54-3.91c.01-.07.02-.15.02-.22,0-.18-.04-.34-.11-.47-.1-.21-.25-.38-.42-.51-.18-.14-.39-.24-.62-.3-.24-.07-.48-.1-.72-.1Z"/>
  <path class="cls-2" d="M255.06,74.06c-.62,0-1.2-.07-1.74-.22-.54-.15-.99-.39-1.37-.71s-.66-.74-.84-1.25c-.12-.31-.18-.68-.18-1.09,0-.22.02-.47.07-.74l1.1-7.77h2.46l-1.1,7.81v.2c0,.22.05.43.14.62.11.24.26.43.47.58.21.15.45.26.74.34s.57.11.87.11.6-.03.91-.1c.31-.07.6-.17.85-.3l1.3-9.26h2.43l-1.52,10.83c-.75.3-1.51.53-2.3.7-.79.17-1.55.26-2.28.26Z"/>
  <path class="cls-2" d="M268.16,62.05c.62,0,1.21.07,1.75.21.54.14,1.01.37,1.41.68.39.31.68.73.86,1.25.14.33.2.7.2,1.12,0,.24-.02.49-.07.76l-.58,4.11c-.09.65-.3,1.23-.64,1.72-.34.49-.74.9-1.23,1.22-.48.32-1.01.56-1.58.71-.57.16-1.14.24-1.71.24-.75,0-1.41-.14-2.01-.4l-.54,3.95h-2.46l2.05-14.64c.67-.28,1.4-.51,2.2-.67.79-.16,1.57-.24,2.33-.24ZM266.42,71.89h.2c.61,0,1.17-.13,1.67-.39.5-.26.84-.7.98-1.33l.6-4.15c.01-.1.02-.21.02-.31,0-.21-.03-.39-.09-.56-.1-.24-.26-.43-.47-.58-.21-.15-.46-.25-.75-.31-.29-.06-.59-.09-.9-.09-.64,0-1.25.13-1.83.38l-1.01,7.07c.25.09.54.16.85.2.22.04.46.07.71.07Z"/>
</svg>