<?xml version="1.0" encoding="UTF-8"?>
<svg id="Layer_1" data-name="Layer 1" xmlns="http://www.w3.org/2000/svg" viewBox="0 0 355.72 127.34">
  <defs>
    <style>
      .cls-1 {
        fill: #e9ccd4;
      }

      .cls-2 {
        fill: #bc667d;
      }

      .cls-3 {
        fill: #b0a37d;
      }

      .cls-4 {
        fill: #e29a42;
      }

      .cls-5 {
        fill: #4d4d4f;
      }

      .cls-6 {
        fill: #900027;
      }
    </style>
  </defs>
  <g>
    <path class="cls-5" d="M203.3,38.17c.81,0,1.44-.62,1.44-1.45,0-.77-.63-1.43-1.44-1.43s-1.44.66-1.44,1.43c0,.82.61,1.45,1.44,1.45"/>
    <path class="cls-5" d="M223.77,38.31c.76,0,1.44-.67,1.44-1.43s-.67-1.43-1.44-1.43c-.83,0-1.44.62-1.44,1.43,0,.76.67,1.43,1.44,1.43"/>
    <path class="cls-5" d="M220.49,38.31c.76,0,1.42-.67,1.42-1.43,0-.82-.61-1.43-1.42-1.43s-1.44.65-1.44,1.43.65,1.43,1.44,1.43"/>
    <g>
      <path class="cls-5" d="M185.08,58.03c-.76,0-1.44.67-1.44,1.43,0,.81.67,1.43,1.44,1.43.83,0,1.44-.62,1.44-1.43,0-.76-.61-1.43-1.44-1.43"/>
      <path class="cls-5" d="M189.59,40.74h-2.88v12.85h-42.09v-5.53c0-1.86-.48-3.63-1.76-5.07-1.39-1.53-3.4-2.25-5.42-2.25s-4.01.72-5.38,2.25c-.83.9-1.31,1.91-1.54,3.02h3.07c.54-1.77,1.7-3.21,3.86-3.21,3.4,0,4.31,3.53,4.31,6.31v4.47h-12.72v2.76h60.56"/>
      <path class="cls-5" d="M188.39,58.03c-.76,0-1.44.67-1.44,1.43,0,.81.67,1.43,1.44,1.43.8,0,1.44-.62,1.44-1.43,0-.76-.63-1.43-1.44-1.43"/>
      <rect class="cls-5" x="193.64" y="35.29" width="2.88" height="21.05"/>
      <path class="cls-5" d="M202,54.87c0,1.82-.37,3.25-1.09,4.3-.72,1.05-1.72,1.58-2.92,1.58v3.39h.2c1.96,0,3.53-.71,4.81-2.11,1.15-1.28,1.87-2.82,1.87-4.73v-16.57h-2.87"/>
      <path class="cls-5" d="M348.49,57.97c-.76,0-1.44.67-1.44,1.44s.63,1.43,1.44,1.43,1.44-.62,1.44-1.43-.68-1.44-1.44-1.44"/>
      <path class="cls-5" d="M353.93,42.99c-1.37-1.48-3.29-2.25-5.36-2.25s-3.96.77-5.34,2.25c-1.31,1.39-1.79,3.21-1.79,5.07v2.79h2.83v-1.79c0-2.68,1-6.26,4.29-6.26s4.31,3.59,4.31,6.26v4.53h-42.9v-18.3h-2.88v21.05h48.6v-8.29c0-1.86-.48-3.68-1.79-5.07"/>
      <path class="cls-5" d="M296.51,53.59h-4.07v-4.75c0-2.77.89-6.03,4.29-6.03,3.16,0,4.07,2.54,4.07,5.23s-.91,5.55-4.29,5.55M255,48.03c0-1.72,1.15-5.23,4.05-5.23s4.31,3.26,4.31,5.23l-4.6,5.55-3.77-5.55ZM226.67,53.59h-4.07c-3.4,0-4.31-2.78-4.31-5.55s.91-5.23,4.07-5.23c3.4,0,4.31,3.26,4.31,6.03v4.75ZM296.51,40.74c-2.02,0-3.79.77-5.12,2.25-1.31,1.43-1.76,2.88-1.76,4.8v5.8h-27.61l4.46-5.17c0-2.35-.72-3.9-2.07-5.37-1.39-1.53-3.07-2.25-5.12-2.25-2.16,0-3.86.72-5.31,2.25-1.37,1.47-2.09,3.12-2.09,5.37l3.88,5.17h-26.28v-5.8c0-1.91-.48-3.36-1.76-4.8-1.33-1.48-3.09-2.25-5.12-2.25-4.53,0-7.03,3.32-7.03,7.68,0,2.2.54,4.18,1.68,5.47,1.87,2.16,4.4,2.46,6.4,2.46h71.8c2.03,0,4.55-.3,6.42-2.46,1.11-1.28,1.68-3.27,1.68-5.47,0-4.36-2.5-7.68-7.03-7.68"/>
      <polyline class="cls-5" points="128.61 91.71 128.61 91.03 137.13 74.34 128.74 74.34 128.74 71.91 140.83 71.91 140.83 72.58 132.29 89.28 141.13 89.28 141.13 91.71"/>
      <path class="cls-5" d="M155.77,91.71l-1.37-4.18h-7.36l-1.46,4.18h-3.03l8.04-20.07h.72l7.45,20.07M150.8,76.83l-3.05,8.72h5.88l-2.83-8.72Z"/>
      <polyline class="cls-5" points="165.13 82.85 165.13 91.71 162.43 91.71 162.43 82.85 156.05 71.91 158.84 71.91 163.76 80.56 168.7 71.91 171.49 71.91"/>
      <polyline class="cls-5" points="176.39 74.34 176.39 79.84 182.92 79.84 182.92 82.14 176.39 82.14 176.39 89.28 185.36 89.28 185.36 91.71 173.69 91.71 173.69 71.91 185.51 71.91 185.51 74.34"/>
      <path class="cls-5" d="M192.5,91.71h-3.99v-19.8c2.53-.09,4.16-.14,4.88-.14,2.76,0,4.94.84,6.55,2.52,1.61,1.68,2.42,3.92,2.42,6.71,0,7.14-3.29,10.71-9.87,10.71M191.22,74.34v14.8c.59.09,1.35.14,2.24.14,1.89,0,3.37-.71,4.46-2.13,1.07-1.42,1.61-3.39,1.61-5.92,0-4.69-2.11-7.03-6.31-7.03-.24,0-.91.05-2,.14"/>
      <path class="cls-5" d="M213.82,71.91h2.7v13.55c0,1.21.39,2.2,1.15,2.98.76.78,1.79,1.17,3.05,1.17,1.33,0,2.37-.38,3.13-1.13.76-.76,1.15-1.79,1.15-3.08v-13.49h2.7v13.77c0,2-.61,3.56-1.87,4.68-1.24,1.13-2.94,1.68-5.1,1.68s-3.92-.55-5.12-1.65c-1.2-1.1-1.81-2.68-1.81-4.73"/>
      <polyline class="cls-5" points="244.57 91.98 234.34 77.5 234.34 91.71 231.77 91.71 231.77 71.91 232.86 71.91 242.81 85.6 242.81 71.91 245.4 71.91 245.4 91.98"/>
      <rect class="cls-5" x="249.91" y="71.91" width="2.7" height="19.8"/>
      <polyline class="cls-5" points="264.04 91.98 262.67 91.98 255.28 71.91 258.29 71.91 263.38 86.49 268.31 71.91 271.2 71.91"/>
      <polyline class="cls-5" points="276.1 74.34 276.1 79.84 282.66 79.84 282.66 82.14 276.1 82.14 276.1 89.28 285.07 89.28 285.07 91.71 273.4 91.71 273.4 71.91 285.23 71.91 285.23 74.34"/>
      <path class="cls-5" d="M299.23,91.71l-5.29-8.5c-.61,0-1.57-.04-2.87-.14v8.64h-2.7v-19.8c.11,0,.81-.04,2.11-.11,1.31-.06,2.24-.1,2.83-.1,4.77,0,7.14,1.89,7.14,5.67,0,1.25-.37,2.36-1.15,3.36-.76,1-1.68,1.62-2.72,1.86l5.75,9.11M291.06,74.34v6.43c.65.09,1.28.14,1.89.14,1.63,0,2.81-.26,3.55-.78.74-.52,1.11-1.45,1.11-2.8,0-1.11-.39-1.91-1.2-2.39-.78-.48-2.05-.73-3.74-.73-.28,0-.81.05-1.61.14"/>
      <path class="cls-5" d="M303.45,90.8l.98-2.49c.5.37,1.13.68,1.89.93.74.25,1.42.37,2.03.37,1.04,0,1.89-.29,2.52-.86.65-.57.96-1.31.96-2.2,0-.67-.17-1.28-.52-1.86-.35-.57-1.26-1.19-2.68-1.87l-1.61-.74c-1.35-.63-2.29-1.38-2.83-2.24-.52-.86-.81-1.91-.81-3.13,0-1.48.52-2.7,1.57-3.68,1.05-.97,2.39-1.46,4.03-1.46,2.2,0,3.73.35,4.57,1.07l-.78,2.35c-.37-.26-.91-.51-1.65-.76-.74-.25-1.44-.37-2.07-.37-.91,0-1.63.26-2.15.78-.52.53-.78,1.19-.78,2.02,0,.5.09.97.28,1.38.17.41.46.76.78,1.04.33.28,1.02.67,2.07,1.18l1.63.77c1.35.64,2.29,1.4,2.83,2.29.54.89.83,2.02.83,3.39,0,1.49-.61,2.75-1.79,3.79-1.2,1.04-2.79,1.56-4.79,1.56-1.76,0-3.27-.42-4.51-1.25"/>
      <rect class="cls-5" x="318.13" y="71.91" width="2.7" height="19.8"/>
      <polyline class="cls-5" points="332.57 74.34 332.57 91.71 329.87 91.71 329.87 74.34 323.57 74.34 323.57 71.91 339.17 71.91 339.17 74.34"/>
      <polyline class="cls-5" points="348.66 82.85 348.66 91.71 345.96 91.71 345.96 82.85 339.58 71.91 342.37 71.91 347.29 80.56 352.23 71.91 355.02 71.91"/>
    </g>
  </g>
  <g>
    <path class="cls-1" d="M104.8,71.94c1.87-6.04,2.8-12.25,2.8-18.43,0-13.7-4.58-27.22-13.36-38.31,5.64,8.67,8.98,18.45,9.89,28.46,2.34,9.09,2.63,18.75.67,28.29"/>
    <path class="cls-1" d="M93.51,85.14c.15-.41.29-.81.45-1.22-7.85,11.92-19.44,20.72-33.23,25.11-15.94,5.08-32.92,3.64-47.8-4.05-3.73-1.93-7.21-4.24-10.45-6.85,4.32,4.18,9.19,7.72,14.61,10.52,14.24,7.36,30.06,8.65,44.44,4.8,13.41-5.27,24.91-15.13,31.98-28.32"/>
    <path class="cls-2" d="M67.18,111.66c-.96.48-1.93.94-2.93,1.38-.82.37-1.66.72-2.51,1.05-12.95,5.09-27.68,5.93-41.95,1.37-3.99-1.28-7.8-2.98-11.44-5.01,4.95,3.39,10.34,6.07,16.16,7.93,14.12,4.52,28.7,3.69,41.53-1.37,5.51-3.11,10.48-7.05,14.78-11.64.33-.35.65-.7.96-1.06.36-.4.71-.8,1.05-1.21,3.39-3.98,6.27-8.39,8.57-13.15-6.1,9.38-14.53,16.79-24.24,21.7"/>
    <path class="cls-2" d="M104.37,47.8c-.12-.68-.26-1.37-.42-2.05-.16-.66-.31-1.32-.48-1.98-2.97-11.49-9.23-22.06-18.31-30.3,8.59,9.4,14.01,21.05,15.77,33.35,1.04,3.44,1.81,6.99,2.24,10.64.06.46.09.94.14,1.41.05.44.09.88.12,1.32.12,1.61.19,3.23.19,4.87,0,4.86-.54,9.59-1.59,14.13-.09.37-.19.73-.28,1.09l.71-2.06s0-.03.02-.04c2-6.26,2.96-12.65,2.96-18.96,0-3.85-.36-7.67-1.07-11.42"/>
    <path class="cls-3" d="M95.87,80.17c-.02.06-.03.13-.06.19.05-.12.11-.23.15-.34-.03.05-.06.1-.09.16"/>
    <path class="cls-4" d="M94.76,82.67s-.02,0-.02,0c.02,0,.02-.02.02-.03v.02"/>
    <path class="cls-6" d="M102.92,62.79c-.02-.43-.03-.87-.06-1.29-.03-.46-.05-.91-.09-1.36-.23-3.05-.7-6.04-1.36-8.96-.15-.7-.33-1.39-.51-2.08-.2-.72-.4-1.44-.62-2.16-5.11-16.79-17.18-30.78-33.48-38.23,19.32,11.1,31.47,31.69,31.47,54.32,0,5.43-.7,10.7-2,15.73-.12.47-.25.94-.39,1.41.03-.06.06-.11.09-.16-.06.11-.11.23-.15.34-.11.38-.22.77-.34,1.15-.14.47-.29.94-.45,1.41-.28.84-.59,1.68-.91,2.52-2.18,5.72-5.18,11.03-8.87,15.81-.32.42-.67.84-1.01,1.26-.29.37-.6.75-.93,1.11-3.73,4.4-8.08,8.27-12.86,11.5-.73.48-1.45.94-2.2,1.4-.63.39-1.27.76-1.92,1.12-9.09,5.15-19.58,8.08-30.76,8.08-4.19,0-8.34-.46-12.43-1.27,5.76,1.71,11.72,2.62,17.82,2.62,24.21,0,45.21-13.94,55.41-34.21.51-1,.98-2.01,1.44-3.05.46-1.07.91-2.16,1.32-3.27.12-.33.25-.68.37-1.03.19-.54.37-1.08.54-1.62.17-.54.34-1.08.5-1.63,1.58-5.47,2.43-11.24,2.43-17.21,0-.76-.02-1.51-.05-2.26"/>
    <path class="cls-6" d="M61.91,2.88c.9,2.15-.12,4.62-2.27,5.52-2.15.89-4.63-.12-5.51-2.27-.91-2.16.11-4.63,2.26-5.52,2.15-.9,4.63.12,5.53,2.27"/>
  </g>
</svg>