<?xml version="1.0" encoding="UTF-8"?>
<svg id="Layer_1" data-name="Layer 1" xmlns="http://www.w3.org/2000/svg" viewBox="0 0 629.7 62.7">
  <defs>
    <style>
      .cls-1 {
        fill: #3c4d61;
      }

      .cls-2 {
        fill: #93795e;
      }

      .cls-3 {
        fill: #314c61;
      }
    </style>
  </defs>
  <g>
    <path class="cls-1" d="M277.02,27.71l-4.65,2.38h-4.76v-2.38h9.41ZM274.11,41.43h-2.8v-11.29c0-.8.35-1.45,1.05-1.93.47-.33,1-.49,1.58-.49h4.12v2.38h-3.96v11.33Z"/>
    <path class="cls-1" d="M282.59,35.83v3.21h7.12l.02,2.38h-7.3c-.88,0-1.59-.33-2.12-.99-.34-.43-.51-.91-.51-1.43v-8.88c0-.8.35-1.45,1.05-1.93.47-.32,1-.49,1.58-.49h7.37l-.09,2.38h-7.12v3.36h6.56v2.38h-6.56Z"/>
    <path class="cls-1" d="M295.85,39.04h6.57v2.38s-6.74,0-6.74,0c-.9,0-1.6-.34-2.12-1.01-.33-.42-.49-.89-.49-1.41v-11.3h2.78v11.33Z"/>
    <path class="cls-1" d="M272.43,49.1h1.68c1.07,0,2.1.24,3.1.7.42.21.75.43.99.66l-2.19,1.69c-.38-.49-.92-.78-1.6-.87-.11-.01-.21-.02-.3-.02h-1.68c-.75,0-1.35.33-1.82,1-.32.47-.48,1-.48,1.57v2.98c0,.85.31,1.54.92,2.05.43.35.9.52,1.4.52h3.25v-4.05h2.54v4.02c0,.74-.32,1.33-.96,1.77-.43.29-.9.43-1.42.43h-3.41c-1.36,0-2.52-.48-3.48-1.44-.91-.92-1.37-2.02-1.37-3.29v-2.98c0-1.34.49-2.48,1.47-3.41.93-.89,2.05-1.33,3.35-1.33"/>
    <path class="cls-1" d="M286.47,61.72h-1.68c-1.36,0-2.52-.48-3.48-1.44-.91-.92-1.37-2.02-1.37-3.29v-3.31c0-1.33.48-2.46,1.45-3.39.96-.9,2.09-1.34,3.4-1.34h1.68c1.36,0,2.52.48,3.48,1.44.91.92,1.37,2.02,1.37,3.29v3.31c0,1.33-.48,2.46-1.45,3.39-.96.9-2.09,1.34-3.4,1.34M284.78,59.56h1.68c.76,0,1.37-.34,1.83-1.02.32-.47.48-.99.48-1.56v-3.31c0-.86-.31-1.55-.94-2.07-.41-.34-.86-.51-1.37-.51h-1.68c-.76,0-1.37.33-1.83,1-.33.47-.5.99-.5,1.57v3.31c0,.85.31,1.54.92,2.05.43.35.9.53,1.4.53"/>
    <path class="cls-1" d="M307.41,35.83v3.21h7.12v2.38s-7.28,0-7.28,0c-.88,0-1.59-.33-2.12-.99-.34-.43-.51-.91-.51-1.43v-8.88c0-.8.35-1.45,1.05-1.93.47-.32,1-.49,1.58-.49h7.25l.03,2.38h-7.12v3.36h6.56v2.38h-6.56Z"/>
    <path class="cls-1" d="M320.03,32.93v3.28c0,.94.34,1.69,1.02,2.25.47.38.99.58,1.54.58h1.85c.75,0,1.39-.25,1.91-.76.07-.07.13-.14.18-.2l2.41,1.84c-.68.64-1.72,1.09-3.14,1.35-.5.1-.95.14-1.36.14h-1.85c-1.5,0-2.78-.53-3.83-1.59-1.01-1.01-1.51-2.22-1.51-3.63v-3.28c0-1.47.53-2.71,1.6-3.73,1.05-.99,2.3-1.48,3.74-1.48h1.85c1.17,0,2.31.26,3.41.78.46.23.82.47,1.09.72l-2.41,1.86c-.43-.54-1.01-.86-1.76-.96-.12-.01-.23-.02-.33-.02h-1.85c-.83,0-1.51.37-2.02,1.1-.36.52-.54,1.1-.54,1.73"/>
    <path class="cls-1" d="M337.59,41.61h-1.85c-1.5,0-2.78-.53-3.83-1.59-1.01-1.01-1.51-2.22-1.51-3.63v-3.65c0-1.47.53-2.71,1.6-3.73,1.05-.99,2.3-1.48,3.74-1.48h1.85c1.5,0,2.78.53,3.83,1.59,1.01,1.01,1.51,2.22,1.51,3.63v3.65c0,1.47-.53,2.71-1.6,3.73-1.05.99-2.3,1.48-3.74,1.48M335.74,39.22h1.85c.83,0,1.51-.37,2.02-1.12.35-.52.53-1.09.53-1.71v-3.65c0-.95-.35-1.71-1.04-2.27-.45-.37-.95-.56-1.51-.56h-1.85c-.83,0-1.51.37-2.02,1.1-.36.52-.54,1.1-.54,1.73v3.65c0,.94.34,1.69,1.02,2.25.47.38.99.58,1.54.58"/>
    <path class="cls-1" d="M357.8,30.55l-3.09,8.88h-2.94l-3.09-8.88-1.05,10.88h-2.98l1.27-11.42c.12-1.02.6-1.74,1.45-2.15.35-.16.72-.24,1.11-.24.83,0,1.47.32,1.91.96.11.16.2.33.27.51l2.58,7.51,2.58-7.51c.28-.75.82-1.21,1.62-1.39.19-.05.38-.07.56-.07.87,0,1.55.34,2.05,1.01.28.4.45.85.51,1.37l1.27,11.42h-2.98l-1.05-10.88Z"/>
    <path class="cls-1" d="M376.6,30.55l-3.09,8.88h-2.94l-3.09-8.88-1.05,10.88h-2.98l1.27-11.42c.12-1.02.6-1.74,1.45-2.15.35-.16.72-.24,1.11-.24.83,0,1.47.32,1.91.96.11.16.2.33.27.51l2.58,7.51,2.58-7.51c.28-.75.82-1.21,1.62-1.39.19-.05.38-.07.56-.07.87,0,1.55.34,2.05,1.01.28.4.45.85.51,1.37l1.27,11.42h-2.98l-1.05-10.88Z"/>
    <path class="cls-1" d="M382.64,27.71h2.8v8.5c0,.95.35,1.71,1.04,2.27.45.37.95.56,1.51.56h1.49c.83,0,1.51-.37,2.02-1.1.36-.52.54-1.1.54-1.73v-8.5h2.78v8.5c0,1.47-.53,2.71-1.6,3.73-1.05.99-2.3,1.48-3.74,1.48h-1.49c-1.5,0-2.78-.53-3.83-1.59-1-1.01-1.51-2.22-1.51-3.63v-8.5Z"/>
    <path class="cls-1" d="M400.08,27.62c1.02,0,1.84.59,2.47,1.77.1.19.2.41.31.65l3.87,9.06v-11.39h2.78v11.39c0,.77-.37,1.4-1.11,1.89-.52.35-1.08.52-1.69.52-1.02,0-1.84-.59-2.47-1.77-.1-.19-.2-.41-.31-.65l-3.87-9.06v11.39h-2.78v-11.39c0-.77.37-1.4,1.11-1.89.52-.35,1.09-.52,1.69-.52"/>
    <rect class="cls-1" x="412.22" y="27.71" width="2.78" height="13.71"/>
    <path class="cls-1" d="M419.85,32.93v3.28c0,.94.34,1.69,1.02,2.25.47.38.99.58,1.54.58h1.85c.75,0,1.39-.25,1.91-.76.07-.07.13-.14.18-.2l2.41,1.84c-.68.64-1.72,1.09-3.14,1.35-.5.1-.95.14-1.36.14h-1.85c-1.5,0-2.78-.53-3.83-1.59-1.01-1.01-1.51-2.22-1.51-3.63v-3.28c0-1.47.53-2.71,1.6-3.73,1.05-.99,2.3-1.48,3.74-1.48h1.85c1.17,0,2.31.26,3.41.78.46.23.82.47,1.09.72l-2.41,1.86c-.42-.54-1.01-.86-1.76-.96-.12-.01-.23-.02-.33-.02h-1.85c-.83,0-1.51.37-2.02,1.1-.36.52-.54,1.1-.54,1.73"/>
    <path class="cls-1" d="M439.6,39.6h-6.89l-.39-2.38h6.44l-2.36-6.73-3.85,10.93h-2.98l4.05-11.48c.59-1.6,1.52-2.41,2.78-2.42,1.26.01,2.18.82,2.76,2.42l4.07,11.48h-2.98l-.65-1.82Z"/>
    <path class="cls-1" d="M451.04,27.71l-3.99,2.38h-4.74v-2.38h8.73ZM448.81,41.43h-2.8v-11.29c0-.8.35-1.45,1.05-1.93.47-.33,1-.49,1.58-.49h4.12v2.38h-3.96v11.33Z"/>
    <rect class="cls-1" x="454.77" y="27.71" width="2.78" height="13.71"/>
    <path class="cls-1" d="M466.84,41.61h-1.85c-1.5,0-2.78-.53-3.83-1.59-1.01-1.01-1.51-2.22-1.51-3.63v-3.65c0-1.47.53-2.71,1.6-3.73,1.05-.99,2.3-1.48,3.74-1.48h1.85c1.5,0,2.78.53,3.83,1.59,1.01,1.01,1.51,2.22,1.51,3.63v3.65c0,1.47-.53,2.71-1.6,3.73-1.05.99-2.3,1.48-3.74,1.48M464.99,39.22h1.85c.83,0,1.51-.37,2.02-1.12.35-.52.53-1.09.53-1.71v-3.65c0-.95-.35-1.71-1.04-2.27-.45-.37-.95-.56-1.51-.56h-1.85c-.83,0-1.51.37-2.02,1.1-.36.52-.54,1.1-.54,1.73v3.65c0,.94.34,1.69,1.02,2.25.47.38.99.58,1.54.58"/>
    <path class="cls-1" d="M477.19,27.62c1.02,0,1.84.59,2.47,1.77.1.19.2.41.31.65l3.87,9.06v-11.39h2.78v11.39c0,.77-.37,1.4-1.11,1.89-.52.35-1.08.52-1.69.52-1.02,0-1.84-.59-2.47-1.77-.1-.19-.2-.41-.31-.65l-3.87-9.06v11.39h-2.78v-11.39c0-.77.37-1.4,1.11-1.89.52-.35,1.08-.52,1.69-.52"/>
    <path class="cls-1" d="M488.76,31.63c0-1.11.52-2.04,1.56-2.81,1-.73,2.2-1.1,3.6-1.1h1.85c1.13,0,2.22.26,3.27.78.44.23.79.47,1.05.72l-2.43,1.86c-.4-.55-.94-.87-1.63-.96-.09-.01-.17-.02-.26-.02h-1.85c-.91,0-1.59.25-2.05.76-.21.25-.31.51-.31.77,0,.47.5.87,1.51,1.21.32.11.85.26,1.6.45,1.82.47,3.09.93,3.81,1.37,1.19.72,1.79,1.67,1.8,2.85,0,1.1-.53,2.03-1.6,2.8-1.05.75-2.3,1.12-3.74,1.12h-1.85c-1.17,0-2.31-.26-3.41-.78-.46-.23-.82-.47-1.09-.72l2.4-1.84c.42.53,1.02.84,1.78.94.12.01.23.02.33.02h1.85c.98,0,1.72-.26,2.22-.77.22-.24.33-.49.33-.76,0-.53-.5-.97-1.51-1.32-.15-.06-1.02-.31-2.63-.74-1.85-.49-3.11-1.09-3.78-1.79-.53-.58-.8-1.26-.8-2.04"/>
    <path class="cls-1" d="M516.85,39.6h-6.81l-.21-2.38h6.18l-2.36-6.73-3.85,10.93h-2.98l4.05-11.48c.59-1.6,1.52-2.41,2.78-2.42,1.26.01,2.18.82,2.76,2.42l4.07,11.48h-2.98l-.65-1.82Z"/>
    <path class="cls-1" d="M524.82,27.62c1.02,0,1.84.59,2.47,1.77.1.19.2.41.31.65l3.87,9.06v-11.39h2.78v11.39c0,.77-.37,1.4-1.11,1.89-.52.35-1.08.52-1.69.52-1.02,0-1.84-.59-2.47-1.77-.1-.19-.2-.41-.31-.65l-3.87-9.06v11.39h-2.78v-11.39c0-.77.37-1.4,1.11-1.89.52-.35,1.08-.52,1.69-.52"/>
    <path class="cls-1" d="M536.84,30.13c0-.82.35-1.47,1.05-1.95.47-.31.99-.47,1.56-.47h3.76c1.5,0,2.78.53,3.83,1.59,1.01,1.01,1.51,2.22,1.51,3.63v3.28c0,1.47-.53,2.71-1.6,3.73-1.05.99-2.3,1.48-3.74,1.48h-6.38v-11.3ZM545.76,36.21v-3.28c0-.95-.35-1.71-1.04-2.27-.45-.37-.95-.56-1.51-.56h-3.6v8.95h3.6c.83,0,1.51-.37,2.02-1.12.35-.52.53-1.09.53-1.71"/>
    <path class="cls-1" d="M556.29,30.13c0-.82.35-1.47,1.05-1.95.47-.31.99-.47,1.56-.47h3.76c1.5,0,2.78.53,3.83,1.59,1.01,1.01,1.51,2.22,1.51,3.63v3.28c0,1.47-.53,2.71-1.6,3.73-1.05.99-2.3,1.48-3.74,1.48h-6.38v-11.3ZM565.2,36.21v-3.28c0-.95-.34-1.71-1.03-2.27-.45-.37-.95-.56-1.51-.56h-3.6v8.95h3.6c.83,0,1.51-.37,2.02-1.12.35-.52.52-1.09.52-1.71"/>
    <rect class="cls-1" x="570.29" y="27.71" width="2.78" height="13.71"/>
    <path class="cls-1" d="M580.44,27.71h1.85c1.17,0,2.31.26,3.41.78.46.23.82.47,1.09.72l-2.42,1.86c-.42-.54-1.01-.86-1.76-.96-.12-.01-.23-.02-.33-.02h-1.85c-.82,0-1.49.37-2,1.1-.35.52-.53,1.1-.53,1.73v3.28c0,.94.34,1.69,1.02,2.25.47.38.99.58,1.54.58h3.58v-4.46h2.8v4.42c0,.82-.35,1.47-1.05,1.95-.47.31-.99.47-1.56.47h-3.76c-1.5,0-2.78-.53-3.83-1.59-1.01-1.01-1.51-2.22-1.51-3.63v-3.28c0-1.48.54-2.73,1.62-3.75,1.03-.97,2.26-1.46,3.69-1.46"/>
    <rect class="cls-1" x="589.39" y="27.71" width="2.78" height="13.71"/>
    <path class="cls-1" d="M602.64,27.71l-3.83,2.38h-4.66v-2.38h8.49ZM600.65,41.43h-2.8v-11.29c0-.8.35-1.45,1.05-1.93.47-.33,1-.49,1.58-.49h4.12v2.38h-3.96v11.33Z"/>
    <path class="cls-1" d="M613.47,39.6h-7.3l1.15-2.38h5.32l-2.36-6.73-3.85,10.93h-2.98l4.05-11.48c.59-1.6,1.52-2.41,2.78-2.42,1.26.01,2.18.82,2.76,2.42l4.07,11.48h-2.98l-.65-1.82Z"/>
    <path class="cls-1" d="M621.46,39.04h6.57v2.38s-6.74,0-6.74,0c-.9,0-1.6-.34-2.12-1.01-.33-.42-.49-.89-.49-1.41v-11.3h2.78v11.33Z"/>
    <path class="cls-1" d="M298.74,59.03l3.5-9.93h2.71l-3.68,10.43c-.54,1.45-1.38,2.19-2.53,2.2-1.14-.01-1.98-.74-2.51-2.2l-3.7-10.43h2.71l3.5,9.93Z"/>
    <path class="cls-1" d="M308.8,56.47v2.92h6.47l.04,2.16h-6.65c-.8,0-1.45-.3-1.93-.9-.31-.39-.46-.82-.46-1.29v-8.06c0-.73.32-1.32.96-1.76.43-.29.91-.44,1.44-.44h6.59l.02,2.16h-6.47v3.05h5.95v2.16h-5.95Z"/>
    <path class="cls-1" d="M320.81,51.26v10.29h-2.52v-10.26c0-.74.32-1.33.96-1.77.43-.28.9-.43,1.42-.43h3.42c1.53,0,2.75.45,3.68,1.36.78.78,1.17,1.73,1.17,2.87v.48c0,1.42-.57,2.53-1.7,3.31-.43.3-.9.52-1.42.67l3.4,3.77h-3.15l-3.13-3.53h-2.89l.03-2.16h4.02c1.03,0,1.73-.35,2.09-1.06.14-.29.22-.63.22-1v-.48c0-.98-.45-1.62-1.34-1.92-.3-.1-.62-.15-.97-.15h-3.27Z"/>
    <path class="cls-1" d="M333.55,49.02c.92,0,1.67.54,2.24,1.61.09.17.18.37.28.59l3.52,8.23v-10.34h2.52v10.34c0,.7-.34,1.27-1.01,1.72-.47.32-.98.48-1.53.48-.92,0-1.67-.54-2.24-1.61-.09-.17-.18-.37-.28-.59l-3.51-8.23v10.34h-2.52v-10.34c0-.7.33-1.27,1.01-1.72.47-.32.98-.48,1.53-.48"/>
    <path class="cls-1" d="M355.96,51.67l-2.8,8.06h-2.67l-2.8-8.06-.96,9.88h-2.71l1.15-10.38c.11-.93.55-1.58,1.32-1.95.32-.14.65-.21,1.01-.21.76,0,1.34.29,1.73.87.1.14.18.29.25.46l2.34,6.82,2.34-6.82c.25-.68.74-1.1,1.47-1.26.18-.04.35-.06.51-.06.79,0,1.41.3,1.87.92.25.36.41.78.46,1.25l1.15,10.38h-2.71l-.96-9.88Z"/>
    <path class="cls-1" d="M363.95,56.47v2.92h6.47l-.05,2.16h-6.57c-.8,0-1.45-.3-1.93-.9-.31-.39-.46-.82-.46-1.29v-8.06c0-.73.32-1.32.96-1.76.43-.29.91-.44,1.44-.44h6.66l-.05,2.16h-6.47v3.05h5.95v2.16h-5.95Z"/>
    <path class="cls-1" d="M375.97,49.02c.92,0,1.67.54,2.24,1.61.09.17.18.37.28.59l3.52,8.23v-10.34h2.52v10.34c0,.7-.34,1.27-1.01,1.72-.47.32-.98.48-1.53.48-.92,0-1.67-.54-2.24-1.61-.09-.17-.18-.37-.28-.59l-3.51-8.23v10.34h-2.52v-10.34c0-.7.34-1.27,1.01-1.72.47-.32.98-.48,1.53-.48"/>
    <path class="cls-1" d="M392.34,49.1l-1.58,2.16h-4.48v-2.16h6.07ZM392.17,61.56h-2.54v-10.26c0-.73.32-1.32.96-1.76.43-.29.91-.44,1.44-.44h3.75v2.16h-3.6v10.29Z"/>
    <path class="cls-1" d="M405.06,51.26v10.29h-2.52v-10.26c0-.74.32-1.33.96-1.77.43-.28.9-.43,1.42-.43h3.41c1.53,0,2.75.45,3.68,1.36.78.78,1.17,1.73,1.17,2.87v.48c0,1.42-.57,2.53-1.7,3.31-.43.3-.9.52-1.42.67l3.4,3.77h-3.15l-3.13-3.53h-2.98l.38-2.16h3.75c1.03,0,1.73-.35,2.1-1.06.14-.29.21-.63.21-1v-.48c0-.98-.45-1.62-1.34-1.92-.3-.1-.62-.15-.97-.15h-3.27Z"/>
    <path class="cls-1" d="M417.66,56.47v2.92h6.47l.06,2.16h-6.68c-.8,0-1.45-.3-1.93-.9-.31-.39-.46-.82-.46-1.29v-8.06c0-.73.32-1.32.96-1.76.43-.29.91-.44,1.44-.44h6.68l-.06,2.16h-6.47v3.05h5.96v2.16h-5.96Z"/>
    <path class="cls-1" d="M431.42,49.1h1.68c1.07,0,2.1.24,3.1.7.42.21.75.43.99.66l-2.19,1.69c-.38-.49-.92-.78-1.6-.87-.11-.01-.21-.02-.3-.02h-1.68c-.75,0-1.35.33-1.81,1-.32.47-.48,1-.48,1.57v2.98c0,.85.31,1.54.92,2.05.43.35.9.52,1.4.52h3.25v-4.05h2.54v4.02c0,.74-.32,1.33-.96,1.77-.43.29-.9.43-1.42.43h-3.41c-1.36,0-2.52-.48-3.48-1.44-.91-.92-1.37-2.02-1.37-3.29v-2.98c0-1.34.49-2.48,1.47-3.41.93-.89,2.05-1.33,3.35-1.33"/>
    <path class="cls-1" d="M439.35,49.1h2.54v7.72c0,.86.31,1.55.94,2.06.41.34.86.51,1.37.51h1.35c.76,0,1.37-.33,1.83-1,.33-.47.49-.99.49-1.57v-7.72h2.52v7.72c0,1.33-.48,2.46-1.45,3.39-.96.9-2.09,1.34-3.4,1.34h-1.35c-1.36,0-2.52-.48-3.48-1.44-.91-.92-1.37-2.02-1.37-3.29v-7.72Z"/>
    <path class="cls-1" d="M455.08,59.39h5.97l.03,2.16h-6.15c-.81,0-1.46-.31-1.93-.92-.3-.38-.45-.81-.45-1.28v-10.26h2.52v10.29Z"/>
    <path class="cls-1" d="M471.32,59.9h-6.59l.73-2.16h5.1l-2.14-6.12-3.5,9.93h-2.71l3.68-10.43c.54-1.45,1.38-2.18,2.52-2.2,1.14.01,1.98.74,2.51,2.2l3.7,10.43h-2.71l-.59-1.66Z"/>
    <path class="cls-1" d="M480.74,49.1l-2.03,2.16h-4.93v-2.16h6.96ZM479.69,61.56h-2.54v-10.26c0-.73.32-1.32.96-1.76.43-.29.91-.44,1.44-.44h3.75v2.16h-3.6v10.29Z"/>
    <path class="cls-1" d="M491,61.72h-1.68c-1.36,0-2.52-.48-3.48-1.44-.91-.92-1.37-2.02-1.37-3.29v-3.31c0-1.33.48-2.46,1.45-3.39.96-.9,2.09-1.34,3.4-1.34h1.68c1.36,0,2.52.48,3.48,1.44.91.92,1.37,2.02,1.37,3.29v3.31c0,1.33-.48,2.46-1.45,3.39-.96.9-2.09,1.34-3.4,1.34M489.32,59.56h1.68c.76,0,1.37-.34,1.83-1.02.32-.47.48-.99.48-1.56v-3.31c0-.86-.31-1.55-.94-2.07-.41-.34-.86-.51-1.37-.51h-1.68c-.76,0-1.37.33-1.83,1-.33.47-.49.99-.49,1.57v3.31c0,.85.31,1.54.92,2.05.43.35.9.53,1.4.53"/>
    <path class="cls-1" d="M500.39,51.26v10.29h-2.52v-10.26c0-.74.32-1.33.96-1.77.43-.28.9-.43,1.42-.43h3.42c1.53,0,2.75.45,3.68,1.36.78.78,1.17,1.73,1.17,2.87v.48c0,1.42-.57,2.53-1.7,3.31-.43.3-.9.52-1.42.67l3.4,3.77h-3.15l-3.13-3.53h-2.55l-.03-2.16h3.73c1.03,0,1.73-.35,2.09-1.06.14-.29.22-.63.22-1v-.48c0-.98-.45-1.62-1.34-1.92-.3-.1-.62-.15-.97-.15h-3.27Z"/>
    <path class="cls-1" d="M533.57,59.9h-6.69l.57-2.16h5.36l-2.14-6.12-3.5,9.93h-2.71l3.68-10.43c.54-1.45,1.38-2.18,2.53-2.2,1.14.01,1.98.74,2.51,2.2l3.69,10.43h-2.71l-.59-1.66Z"/>
    <path class="cls-1" d="M538.18,49.1h2.54v7.72c0,.86.31,1.55.94,2.06.41.34.86.51,1.37.51h1.35c.76,0,1.37-.33,1.83-1,.33-.47.49-.99.49-1.57v-7.72h2.52v7.72c0,1.33-.48,2.46-1.45,3.39-.96.9-2.09,1.34-3.4,1.34h-1.35c-1.36,0-2.52-.48-3.48-1.44-.91-.92-1.37-2.02-1.37-3.29v-7.72Z"/>
    <path class="cls-1" d="M557.62,49.1l-2.18,2.16h-4.59v-2.16h6.77ZM556.76,61.56h-2.54v-10.26c0-.73.32-1.32.96-1.76.43-.29.91-.44,1.44-.44h3.75v2.16h-3.6v10.29Z"/>
    <polygon class="cls-1" points="564.69 55.67 564.03 54.31 570.12 54.31 570.12 49.1 572.66 49.1 572.66 61.56 570.12 61.56 570.12 56.47 564.69 56.47 564.69 61.56 562.17 61.56 562.17 49.1 564.69 49.1 564.69 55.67"/>
    <path class="cls-1" d="M581.09,61.72h-1.68c-1.36,0-2.52-.48-3.48-1.44-.91-.92-1.37-2.02-1.37-3.29v-3.31c0-1.33.48-2.46,1.45-3.39.96-.9,2.09-1.34,3.4-1.34h1.68c1.36,0,2.53.48,3.48,1.44.91.92,1.37,2.02,1.37,3.29v3.31c0,1.33-.48,2.46-1.45,3.39-.96.9-2.09,1.34-3.4,1.34M579.41,59.56h1.68c.76,0,1.37-.34,1.83-1.02.32-.47.48-.99.48-1.56v-3.31c0-.86-.31-1.55-.94-2.07-.41-.34-.86-.51-1.37-.51h-1.68c-.76,0-1.37.33-1.83,1-.33.47-.49.99-.49,1.57v3.31c0,.85.31,1.54.92,2.05.43.35.9.53,1.4.53"/>
    <path class="cls-1" d="M590.48,51.26v10.29h-2.53v-10.26c0-.74.32-1.33.96-1.77.43-.28.9-.43,1.42-.43h3.42c1.53,0,2.75.45,3.68,1.36.78.78,1.17,1.73,1.17,2.87v.48c0,1.42-.57,2.53-1.7,3.31-.43.3-.9.52-1.42.67l3.4,3.77h-3.15l-3.13-3.53h-2.89l-.41-2.16h4.45c1.03,0,1.73-.35,2.09-1.06.14-.29.22-.63.22-1v-.48c0-.98-.45-1.62-1.34-1.92-.3-.1-.62-.15-.97-.15h-3.27Z"/>
    <rect class="cls-1" x="600.79" y="49.1" width="2.53" height="12.46"/>
    <path class="cls-1" d="M611.51,49.1l-1.64,2.16h-4.75v-2.16h6.4ZM611.02,61.56h-2.54v-10.26c0-.73.32-1.32.96-1.76.43-.29.91-.44,1.44-.44h3.75v2.16h-3.6v10.29Z"/>
    <path class="cls-1" d="M621.44,54.51l3.5-5.41h2.71l-3.69,5.9c-.44.68-.85,1.15-1.22,1.43v5.13h-2.54v-5.1c-.43-.3-.86-.79-1.27-1.46l-3.68-5.9h2.7l3.5,5.41Z"/>
    <path class="cls-1" d="M515.24,54.51l3.5-5.41h2.71l-3.69,5.9c-.44.68-.85,1.15-1.22,1.43v5.13h-2.54v-5.1c-.43-.3-.86-.79-1.27-1.46l-3.68-5.9h2.7l3.5,5.41Z"/>
  </g>
  <g>
    <path class="cls-2" d="M213.92,11.7c-2.12-6.08-5.8-10.76-12.17-10.76s-10.05,4.68-12.17,10.76l-17.81,51h13.07l2.83-8.13,3.68-10.6,10.4-29.9,16.91,48.62h13.07l-17.81-51Z"/>
    <path class="cls-3" d="M274.16,6.58v-.97c0-.15.08-.23.23-.23h2.77c.15,0,.23.08.23.23v6.96c0,.45.09.77.26.94.17.17.45.26.83.26h.7c.61,0,.91.46.91,1.38,0,.53-.07.89-.22,1.08-.14.19-.37.28-.69.28h-2.36c-.74,0-1.32-.12-1.74-.35-.42-.23-.69-.68-.83-1.33-.33.27-.72.48-1.16.61-.44.14-.9.21-1.38.21-.59,0-1.15-.08-1.69-.25-.54-.17-1.01-.42-1.42-.77-.41-.35-.73-.8-.96-1.36-.23-.56-.35-1.24-.35-2.04,0-.91.13-1.66.4-2.26.27-.6.61-1.07,1.04-1.43.43-.35.92-.6,1.48-.75.55-.14,1.12-.22,1.69-.22h2.27ZM269.55,3.76c-.15,0-.23-.08-.23-.23V1.31c0-.15.08-.23.23-.23h2.27c.15,0,.23.08.23.23v2.22c0,.15-.08.23-.23.23h-2.27ZM272.28,12.9c.57,0,1.03-.16,1.37-.49.34-.33.51-.84.51-1.53v-1.56h-1.8c-.57,0-1.03.14-1.38.41-.35.27-.52.77-.52,1.5,0,.62.17,1.05.52,1.3.35.25.78.37,1.31.37M273.04,3.76c-.15,0-.23-.08-.23-.23V1.31c0-.15.07-.23.23-.23h2.29c.15,0,.23.08.23.23v2.22c0,.15-.08.23-.23.23h-2.29Z"/>
    <path class="cls-3" d="M281.92,7.19c0-.15.08-.23.23-.23h2.73c.15,0,.23.08.23.23v5.35c.03.38.19.68.49.9.3.22.71.33,1.24.33h.52c.3,0,.53.11.68.32.15.21.23.56.23,1.04,0,.92-.3,1.38-.91,1.38s-1.08-.07-1.5-.2c-.42-.14-.78-.45-1.07-.93-.24.48-.6.79-1.07.93-.47.14-1.12.2-1.95.2h-2.34c-.3,0-.53-.09-.68-.28-.15-.19-.23-.54-.23-1.05s.07-.88.22-1.09c.14-.21.37-.32.69-.32h1.41c.48,0,.79-.14.91-.42.12-.28.18-.76.18-1.44v-4.72ZM280.49,21.16c-.15,0-.23-.08-.23-.23v-2.22c0-.15.08-.23.23-.23h2.27c.15,0,.23.08.23.23v2.22c0,.15-.08.23-.23.23h-2.27ZM283.99,21.16c-.15,0-.23-.08-.23-.23v-2.22c0-.15.08-.23.23-.23h2.29c.15,0,.23.08.23.23v2.22c0,.15-.08.23-.23.23h-2.29Z"/>
    <path class="cls-3" d="M294.43,16.67c-.8,0-1.54-.1-2.22-.31-.67-.2-1.24-.56-1.69-1.08-.17.27-.39.49-.66.66-.27.17-.56.29-.85.37-.29.08-.59.14-.87.16-.29.02-.54.03-.77.03-.3,0-.53-.1-.68-.3-.15-.2-.23-.54-.23-1.04s.07-.88.2-1.09c.14-.21.37-.32.7-.32h.66c.35,0,.66-.14.94-.43.28-.29.43-.82.47-1.61v-.45c0-1.51.43-2.67,1.3-3.48.86-.81,2.1-1.21,3.71-1.21s2.75.43,3.66,1.28c.91.85,1.37,2.14,1.37,3.87,0,.11,0,.21-.01.31,0,.1-.01.19-.01.28.03.5.17.87.43,1.1.26.23.58.35.98.35h.66c.3,0,.53.11.68.32.15.21.23.56.23,1.04,0,.92-.3,1.38-.91,1.38-.27,0-.55-.01-.84-.03-.29-.02-.57-.08-.84-.17-.27-.09-.53-.22-.77-.4-.24-.17-.46-.41-.64-.71-.46.54-1.03.93-1.72,1.15-.69.22-1.44.33-2.26.33M294.43,9.32c-1.24,0-1.86.76-1.86,2.29,0,.86.16,1.46.47,1.8.31.34.78.51,1.4.51s1.1-.17,1.41-.51c.3-.34.45-.94.45-1.8,0-1.53-.62-2.29-1.86-2.29"/>
    <path class="cls-3" d="M301.6,16.51c-.32,0-.55-.09-.69-.29-.14-.19-.22-.56-.22-1.11,0-.49.08-.84.23-1.05.15-.21.38-.32.68-.32h1.75c-.24-.5-.37-1.18-.37-2.03,0-.99.14-1.82.42-2.48.28-.65.66-1.18,1.13-1.57.47-.39,1.01-.67,1.62-.84.61-.17,1.23-.25,1.87-.25s1.3.08,1.91.25c.61.17,1.14.45,1.6.84.46.39.83.92,1.1,1.58.27.66.41,1.49.41,2.48,0,.92-.13,1.69-.39,2.3-.26.61-.61,1.1-1.06,1.47-.45.37-.98.63-1.59.78-.61.15-1.28.23-1.99.23h-6.41ZM305.07,4.67c-.15,0-.23-.08-.23-.23v-2.22c0-.15.08-.23.23-.23h2.27c.15,0,.23.08.23.23v2.22c0,.15-.08.23-.23.23h-2.27ZM308.01,9.32c-1.23,0-1.85.74-1.85,2.21,0,.87.15,1.47.46,1.81.31.33.77.5,1.39.5s1.08-.16,1.39-.49c.31-.32.46-.91.46-1.75,0-1.52-.62-2.28-1.85-2.28M308.57,4.67c-.15,0-.23-.08-.23-.23v-2.22c0-.15.07-.23.23-.23h2.29c.15,0,.23.08.23.23v2.22c0,.15-.08.23-.23.23h-2.29Z"/>
    <path class="cls-3" d="M316.65,7.19c0-.15.08-.23.23-.23h2.77c.15,0,.23.08.23.23v5.35c.03.38.19.68.49.9.29.22.71.33,1.24.33h.5c.3,0,.53.11.68.32.15.21.23.56.23,1.04,0,.92-.3,1.38-.91,1.38-.5,0-.93-.05-1.29-.15-.36-.1-.67-.31-.93-.62v.36c0,1.72-.33,3-1,3.82-.67.82-1.8,1.24-3.41,1.24h-1.04c-.15,0-.23-.07-.23-.23v-2.29c0-.15.08-.23.23-.23h.5c.41,0,.73-.06.95-.19.23-.13.4-.32.51-.57.11-.25.19-.56.22-.92.03-.36.05-.78.05-1.25V7.19Z"/>
    <path class="cls-3" d="M322.1,16.51c-.3,0-.53-.05-.68-.16-.15-.11-.23-.32-.23-.64,0-.18.02-.39.06-.61.04-.23.09-.44.16-.64.07-.2.16-.36.27-.5.11-.14.25-.2.42-.2h.79c.38,0,.65-.09.83-.26.17-.17.26-.49.26-.94V1.32c0-.15.08-.23.23-.23h2.77c.15,0,.23.08.23.23v12.34c0,.98-.2,1.7-.61,2.17-.41.46-1.09.69-2.04.69h-2.45Z"/>
    <path class="cls-3" d="M330.16,1.09h2.73c.12,0,.23.1.23.23v14.97c0,.13-.1.23-.23.23h-2.73c-.12,0-.23-.1-.23-.23V1.32c0-.13.1-.23.23-.23Z"/>
    <path class="cls-3" d="M347.54,6.58v-.97c0-.15.08-.23.23-.23h2.77c.15,0,.23.08.23.23v6.96c0,.45.09.77.26.94.17.17.45.26.83.26h.7c.61,0,.91.46.91,1.38,0,.53-.07.89-.22,1.08-.14.19-.37.28-.69.28h-2.36c-.74,0-1.32-.12-1.74-.35-.42-.23-.69-.68-.83-1.33-.33.27-.72.48-1.16.61-.44.14-.9.21-1.38.21-.59,0-1.15-.08-1.69-.25-.54-.17-1.01-.42-1.42-.77-.41-.35-.73-.8-.96-1.36-.23-.56-.35-1.24-.35-2.04,0-.91.13-1.66.4-2.26.27-.6.61-1.07,1.04-1.43.43-.35.92-.6,1.48-.75.55-.14,1.12-.22,1.69-.22h2.27ZM342.94,3.76c-.15,0-.23-.08-.23-.23V1.31c0-.15.08-.23.23-.23h2.27c.15,0,.23.08.23.23v2.22c0,.15-.08.23-.23.23h-2.27ZM345.67,12.9c.57,0,1.03-.16,1.37-.49.34-.33.51-.84.51-1.53v-1.56h-1.8c-.57,0-1.03.14-1.38.41-.35.27-.52.77-.52,1.5,0,.62.17,1.05.52,1.3.35.25.78.37,1.31.37M346.43,3.76c-.15,0-.23-.08-.23-.23V1.31c0-.15.08-.23.23-.23h2.29c.15,0,.23.08.23.23v2.22c0,.15-.08.23-.23.23h-2.29Z"/>
    <path class="cls-3" d="M359.81,16.67c-.8,0-1.54-.1-2.22-.31-.67-.2-1.24-.56-1.69-1.08-.21.3-.46.53-.74.69-.28.16-.56.28-.85.36-.29.08-.57.13-.84.15-.27.01-.51.02-.73.02-.3,0-.53-.1-.68-.3-.15-.2-.23-.54-.23-1.04,0-.53.07-.9.22-1.1.14-.2.37-.31.69-.31h.66c.33,0,.64-.14.93-.43.29-.29.45-.82.48-1.61v-.45c0-.89.14-1.64.42-2.25.28-.6.65-1.09,1.11-1.45.46-.36.99-.62,1.59-.77.6-.15,1.23-.23,1.88-.23s1.3.08,1.91.25c.61.17,1.14.45,1.6.84.46.39.83.92,1.1,1.58.27.66.41,1.49.41,2.48,0,.92-.13,1.7-.39,2.33-.26.64-.61,1.15-1.06,1.53-.45.39-.98.66-1.59.83-.61.17-1.28.25-1.99.25M359.8,9.32c-1.26,0-1.88.76-1.88,2.29,0,.86.16,1.46.48,1.8.32.34.79.51,1.41.51s1.1-.17,1.41-.51c.3-.34.45-.94.45-1.8,0-1.53-.62-2.29-1.86-2.29"/>
    <path class="cls-3" d="M369.06,21.16c-.15,0-.23-.08-.23-.23v-2.29c0-.15.08-.23.23-.23h2.61c.32,0,.6-.03.85-.08.25-.05.46-.15.62-.28.17-.14.29-.33.39-.58.09-.25.14-.57.14-.96h-2.18c-1.48,0-2.62-.36-3.42-1.07-.8-.71-1.19-1.93-1.19-3.65,0-.97.14-1.78.42-2.45.28-.66.65-1.2,1.11-1.61.46-.41.99-.7,1.59-.88.6-.18,1.22-.27,1.85-.27s1.3.08,1.91.25c.61.17,1.14.44,1.59.83.45.38.81.91,1.08,1.56.26.66.4,1.47.4,2.44v2.11h1.54c.6,0,.91.45.91,1.36,0,.57-.07.95-.22,1.12s-.37.26-.69.26h-1.54v.43c0,1.42-.36,2.48-1.09,3.18-.72.7-1.85,1.04-3.39,1.04h-3.31ZM371.88,9.32c-.61,0-1.07.21-1.4.63-.33.42-.49,1-.49,1.72,0,.83.18,1.39.53,1.67.36.28.82.42,1.4.42h1.75v-2.2c0-1.5-.6-2.24-1.79-2.24"/>
    <path class="cls-3" d="M383.66,6.8c.74.03,1.41.11,2,.23.59.12,1.09.33,1.51.64.42.31.74.73.97,1.25.23.53.34,1.21.34,2.03v1.65c0,.36.15.64.46.85.31.2.73.3,1.26.3h.5c.3,0,.53.11.68.32.15.21.23.56.23,1.04,0,.92-.3,1.38-.91,1.38-.64,0-1.18-.08-1.63-.25-.45-.17-.83-.51-1.11-1.04-.27.48-.65.82-1.13,1.01-.48.19-1.07.28-1.77.28h-6.67c-.3,0-.53-.11-.68-.32-.15-.21-.23-.59-.23-1.13,0-.51.07-.86.22-1.03.14-.17.37-.26.69-.26h5.08c.36,0,.66-.02.89-.07.23-.04.4-.12.52-.24.12-.11.2-.27.24-.46.04-.2.06-.45.06-.75v-1.04c0-.6-.16-1.04-.49-1.31-.33-.27-.84-.41-1.55-.41h-3.4c-.15,0-.23-.07-.23-.22v-1.84c0-.1.06-.22.17-.34.11-.12.21-.22.28-.32l4.86-5.74c.09-.11.19-.13.29-.07l1.88,1.59c.12.09.15.2.09.32l-3.4,3.95Z"/>
    <path class="cls-3" d="M391.72,8.39c.53-.53,1.13-.96,1.8-1.3.67-.34,1.49-.51,2.46-.51s1.84.14,2.53.43c.69.29,1.25.68,1.68,1.19.43.51.75,1.1.94,1.79.2.69.29,1.43.29,2.23v.36c.05.36.21.65.49.86.28.21.68.32,1.21.32h.52c.3,0,.53.11.68.32.15.21.23.56.23,1.04,0,.92-.3,1.38-.91,1.38-.64,0-1.19-.09-1.66-.26-.47-.17-.85-.55-1.16-1.12-.3.54-.73.91-1.28,1.1-.55.19-1.21.28-1.96.28h-6.9c-.3,0-.53-.1-.68-.31-.15-.21-.23-.55-.23-1.03s.07-.84.2-1.07c.14-.23.37-.34.7-.34h5.63c.36,0,.66-.03.88-.08.23-.05.4-.14.53-.27.13-.13.22-.3.27-.52.05-.22.08-.5.08-.83,0-.38-.04-.73-.11-1.07-.08-.33-.2-.62-.39-.87-.18-.25-.42-.45-.71-.59-.29-.14-.66-.22-1.1-.22-.48,0-.92.09-1.29.28-.38.19-.73.43-1.04.71-.11.11-.21.11-.32.02l-1.34-1.61c-.14-.14-.16-.25-.07-.34"/>
    <path class="cls-3" d="M403.66,16.51c-.3,0-.53-.05-.68-.16-.15-.11-.23-.32-.23-.64,0-.18.02-.39.06-.61.04-.23.09-.44.16-.64.07-.2.16-.36.27-.5.11-.14.25-.2.42-.2h.79c.38,0,.65-.09.83-.26.17-.17.26-.49.26-.94V1.32c0-.15.08-.23.23-.23h2.77c.15,0,.23.08.23.23v12.34c0,.98-.2,1.7-.61,2.17-.41.46-1.09.69-2.04.69h-2.45Z"/>
    <path class="cls-3" d="M411.72,1.09h2.73c.12,0,.23.1.23.23v14.97c0,.13-.1.23-.23.23h-2.73c-.12,0-.23-.1-.23-.23V1.32c0-.13.1-.23.23-.23Z"/>
    <path class="cls-3" d="M419.23,21.16c-.15,0-.23-.08-.23-.23v-2.29c0-.15.08-.23.23-.23h2.61c.3,0,.58-.02.82-.06.24-.04.45-.12.62-.26.17-.14.31-.33.41-.58.1-.25.15-.59.15-1.01h-.95c-.91,0-1.72-.05-2.44-.16-.72-.11-1.33-.33-1.84-.67-.51-.34-.89-.82-1.16-1.43-.26-.61-.4-1.43-.4-2.46,0-.97.14-1.78.42-2.45.28-.66.65-1.2,1.11-1.61.46-.41.99-.7,1.59-.88.6-.18,1.22-.27,1.85-.27s1.3.08,1.91.25c.61.17,1.14.44,1.59.83.45.38.81.91,1.08,1.56.26.66.4,1.47.4,2.44v5.28c0,1.42-.36,2.48-1.09,3.18-.72.7-1.85,1.04-3.39,1.04h-3.31ZM422.04,9.32c-.62,0-1.09.21-1.41.63-.32.42-.48,1-.48,1.72,0,.83.18,1.39.53,1.67.36.28.82.42,1.4.42h1.75v-2.2c0-1.5-.6-2.24-1.79-2.24"/>
    <path class="cls-3" d="M448.46,13.5c.17-.17.26-.49.26-.94v-5.37c0-.15.07-.23.23-.23h2.77c.15,0,.23.08.23.23v6.46c0,.98-.2,1.71-.61,2.17s-1.1.69-2.09.69h-11.78c-.95,0-1.64-.23-2.04-.69-.41-.46-.61-1.18-.61-2.17v-5.01c0-.15.08-.23.23-.23h2.77c.15,0,.23.08.23.23v3.92c0,.45.09.77.26.94.17.18.45.26.83.26h8.49c.39,0,.68-.09.85-.26M440.45,6.01c-.15,0-.23-.08-.23-.23v-2.22c0-.15.08-.23.23-.23h2.27c.15,0,.23.08.23.23v2.22c0,.15-.08.23-.23.23h-2.27ZM443.95,6.01c-.15,0-.23-.08-.23-.23v-2.22c0-.15.08-.23.23-.23h2.29c.15,0,.23.08.23.23v2.22c0,.15-.08.23-.23.23h-2.29Z"/>
    <path class="cls-3" d="M460.82,13.77h2.07c.38,0,.65-.09.83-.26.17-.17.26-.49.26-.94V1.31c0-.15.08-.23.23-.23h2.77c.15,0,.23.08.23.23v12.34c0,.98-.2,1.71-.61,2.17-.41.46-1.09.69-2.04.69h-10.56c-.15,0-.23-.08-.23-.23v-2.29c0-.15.08-.23.23-.23h3.61V4.51c0-.15.08-.23.23-.23h2.77c.15,0,.23.08.23.23v9.25Z"/>
    <path class="cls-3" d="M469.92,1.32c0-.15.07-.23.22-.23h2.73c.15,0,.22.08.22.23v11.25c0,.45.09.77.26.94.17.17.45.26.83.26h.61c.3,0,.53.11.68.33.15.22.23.59.23,1.1,0,.54-.07.9-.22,1.07-.14.17-.37.25-.69.25h-2.24c-.95,0-1.62-.23-2.03-.69-.41-.46-.61-1.18-.61-2.17V1.32Z"/>
    <path class="cls-3" d="M476.66,7.01c0-.15.08-.23.23-.23h2.73c.15,0,.23.08.23.23v.68c.7-.3,1.46-.56,2.28-.78.82-.22,1.68-.33,2.57-.33,1.85,0,3.25.44,4.21,1.32.96.88,1.43,2.26,1.43,4.15v.27c0,.09,0,.17-.02.25.03.36.2.65.5.87.3.22.72.33,1.25.33h.5c.3,0,.53.11.68.32.15.21.23.56.23,1.04,0,.92-.3,1.38-.91,1.38-.65,0-1.21-.09-1.69-.28-.48-.19-.85-.57-1.12-1.15-.33.57-.81.96-1.44,1.15-.63.19-1.46.28-2.51.28h-4.38c-.23,0-.47,0-.71-.01-.25,0-.49-.03-.72-.06-.23-.03-.43-.08-.61-.14-.18-.06-.31-.15-.39-.27-.26.21-.55.34-.89.4-.33.05-.75.08-1.25.08h-2.02c-.3,0-.53-.09-.68-.28-.15-.19-.23-.55-.23-1.08,0-.57.07-.95.2-1.12s.37-.26.7-.26h.91c.23,0,.4-.05.53-.15.13-.1.22-.23.27-.4.05-.17.09-.37.1-.61.01-.24.02-.51.02-.79v-4.81ZM484.07,9.32c-.76,0-1.51.11-2.24.32-.74.21-1.4.45-1.99.7v2.54c0,.17,0,.32-.01.47,0,.14-.02.28-.03.42h4.51c.56,0,1.02-.02,1.38-.05.36-.03.63-.11.83-.23.2-.12.33-.31.4-.57.07-.26.1-.61.1-1.07,0-.41-.04-.77-.14-1.09-.09-.32-.25-.58-.47-.8-.22-.22-.52-.38-.9-.49-.38-.11-.86-.16-1.44-.16"/>
    <path class="cls-3" d="M492.55,16.51c-.3,0-.53-.09-.68-.28-.15-.19-.23-.53-.23-1.01,0-.97.3-1.45.91-1.45h1.41c.38,0,.65-.09.83-.26.17-.17.26-.49.26-.94v-5.37c0-.15.08-.23.23-.23h2.73c.15,0,.23.08.23.23v6.46c0,.98-.2,1.7-.61,2.17-.41.46-1.08.69-2.03.69h-3.04ZM493.59,4.67c-.15,0-.23-.08-.23-.23v-2.22c0-.15.08-.23.23-.23h2.27c.15,0,.23.08.23.23v2.22c0,.15-.08.23-.23.23h-2.27ZM497.09,4.67c-.15,0-.23-.08-.23-.23v-2.22c0-.15.08-.23.23-.23h2.29c.15,0,.23.08.23.23v2.22c0,.15-.08.23-.23.23h-2.29Z"/>
    <path class="cls-3" d="M507.53,13.77h2.07c.38,0,.65-.09.83-.26.17-.17.26-.49.26-.94V1.31c0-.15.08-.23.23-.23h2.77c.15,0,.23.08.23.23v12.34c0,.98-.2,1.71-.61,2.17-.41.46-1.09.69-2.04.69h-10.56c-.15,0-.23-.08-.23-.23v-2.29c0-.15.08-.23.23-.23h3.61V4.51c0-.15.08-.23.23-.23h2.77c.15,0,.23.08.23.23v9.25Z"/>
    <path class="cls-3" d="M516.86,1.09h2.73c.12,0,.23.1.23.23v14.97c0,.13-.1.23-.23.23h-2.73c-.12,0-.23-.1-.23-.23V1.32c0-.13.1-.23.23-.23Z"/>
    <path class="cls-3" d="M534.76,16.67c-.68,0-1.31-.08-1.88-.25-.57-.17-1.07-.45-1.49-.84-.11.17-.22.29-.34.39-.12.09-.24.19-.35.31-.11.11-.21.25-.28.41-.08.16-.11.37-.11.65v3.83h-3.22v-4.31c0-.51.06-.93.18-1.26.12-.32.28-.6.47-.82s.39-.4.61-.54c.22-.14.43-.29.64-.43.2-.14.38-.3.52-.48.14-.17.23-.4.26-.69-.02-.14-.02-.28-.02-.43v-.48c0-1,.14-1.83.41-2.48.27-.66.64-1.18,1.1-1.58.46-.39,1-.67,1.6-.84.61-.17,1.24-.25,1.91-.25s1.3.08,1.91.25c.61.17,1.14.45,1.6.84.46.39.83.92,1.1,1.58.27.66.41,1.49.41,2.48,0,.11,0,.21-.01.31,0,.1-.01.19-.01.28.03.5.17.87.43,1.1.26.23.58.35.98.35h.63c.3,0,.53.11.68.32.15.21.23.56.23,1.04,0,.92-.3,1.38-.91,1.38-.27,0-.55-.01-.83-.03-.28-.02-.55-.08-.82-.17-.26-.09-.52-.22-.76-.4-.24-.17-.46-.41-.66-.71-.45.54-1.03.93-1.72,1.15-.69.22-1.44.33-2.26.33M534.76,9.32c-1.23,0-1.85.76-1.85,2.29,0,.86.15,1.46.46,1.8.31.34.77.51,1.39.51s1.1-.17,1.4-.51c.3-.34.45-.94.45-1.8,0-1.53-.62-2.29-1.85-2.29"/>
    <path class="cls-3" d="M544.35,7.19c0-.15.08-.23.23-.23h2.73c.15,0,.23.08.23.23v5.35c.03.38.19.68.49.9.3.22.71.33,1.24.33h.52c.3,0,.53.11.68.32.15.21.23.56.23,1.04,0,.92-.3,1.38-.91,1.38s-1.08-.07-1.5-.2c-.42-.14-.78-.45-1.06-.93-.24.48-.6.79-1.07.93-.47.14-1.12.2-1.95.2h-2.34c-.3,0-.53-.09-.68-.28-.15-.19-.23-.54-.23-1.05s.07-.88.22-1.09c.14-.21.37-.32.69-.32h1.41c.48,0,.79-.14.91-.42.12-.28.18-.76.18-1.44v-4.72ZM542.92,21.16c-.15,0-.23-.08-.23-.23v-2.22c0-.15.08-.23.23-.23h2.27c.15,0,.23.08.23.23v2.22c0,.15-.08.23-.23.23h-2.27ZM546.41,21.16c-.15,0-.23-.08-.23-.23v-2.22c0-.15.08-.23.23-.23h2.29c.15,0,.23.08.23.23v2.22c0,.15-.08.23-.23.23h-2.29Z"/>
    <path class="cls-3" d="M550.84,13.77c.27,0,.48-.06.63-.18.15-.12.27-.29.35-.5.08-.21.13-.46.15-.74.02-.28.02-.58.02-.9V1.32c.03-.15.11-.23.23-.23h2.73c.15,0,.23.08.23.23l.02,6.37c.68-.3,1.43-.56,2.25-.78.82-.22,1.67-.33,2.57-.33,1.83,0,3.23.44,4.2,1.33.97.88,1.45,2.26,1.45,4.14,0,.09,0,.18-.01.26,0,.08-.01.16-.01.24.03.38.19.68.49.9.29.22.71.33,1.24.33h.52c.3,0,.53.11.68.32.15.21.23.56.23,1.04,0,.92-.3,1.38-.91,1.38-.65,0-1.21-.09-1.69-.28-.48-.19-.86-.57-1.15-1.15-.35.59-.84.98-1.48,1.16-.64.18-1.49.27-2.57.27h-5.42c-.61,0-1.04-.16-1.29-.48-.17.2-.51.33-1.03.39-.52.06-1.06.09-1.62.09h-1.77c-.3,0-.53-.09-.68-.28-.15-.19-.23-.55-.23-1.08,0-.57.07-.95.2-1.12.14-.17.37-.26.7-.26h.98ZM559.41,9.32c-.77,0-1.53.11-2.27.32-.74.21-1.39.45-1.97.7v2.54c0,.32-.02.61-.07.89h4.51c.56,0,1.02-.02,1.38-.05.36-.03.63-.11.83-.23.2-.12.33-.31.4-.57.07-.26.1-.61.1-1.07,0-.41-.05-.77-.14-1.09-.09-.32-.25-.58-.47-.8-.22-.22-.52-.38-.89-.49-.37-.11-.85-.16-1.42-.16M558.7,4.67c-.15,0-.23-.08-.23-.23v-2.22c0-.15.08-.23.23-.23h2.81c.15,0,.23.08.23.23v2.22c0,.15-.08.23-.23.23h-2.81Z"/>
    <path class="cls-3" d="M572.68,15.37c-.26.47-.61.78-1.07.92-.45.14-1.09.22-1.91.22h-1.82c-.3,0-.53-.05-.68-.15-.15-.1-.23-.31-.23-.65,0-.2.02-.41.05-.63.03-.23.08-.44.16-.64.08-.2.17-.36.29-.49.12-.13.27-.19.45-.19h.75c.47,0,.77-.13.9-.4.13-.26.19-.74.19-1.42v-4.76c0-.12.11-.19.33-.21.22-.01.41-.02.58-.02h2.09c.15,0,.23.08.23.23v5.35c.03.38.19.68.49.9.29.22.71.33,1.24.33h.52c.3,0,.53.11.68.32.15.21.23.56.23,1.04,0,.92-.3,1.38-.91,1.38s-1.07-.07-1.5-.2c-.42-.14-.78-.45-1.07-.93M569.98,4.67c-.15,0-.23-.08-.23-.23v-2.22c0-.15.08-.23.23-.23h2.81c.15,0,.23.08.23.23v2.22c0,.15-.08.23-.23.23h-2.81Z"/>
    <path class="cls-3" d="M575.15,16.51c-.3,0-.53-.09-.68-.28-.15-.19-.23-.53-.23-1.01,0-.97.3-1.45.91-1.45h1.41c.38,0,.65-.09.83-.26.17-.17.26-.49.26-.94v-5.37c0-.15.08-.23.23-.23h2.73c.15,0,.23.08.23.23v6.46c0,.98-.2,1.7-.61,2.17-.41.46-1.08.69-2.03.69h-3.04ZM576.2,4.67c-.15,0-.23-.08-.23-.23v-2.22c0-.15.08-.23.23-.23h2.27c.15,0,.23.08.23.23v2.22c0,.15-.08.23-.23.23h-2.27ZM579.69,4.67c-.15,0-.23-.08-.23-.23v-2.22c0-.15.08-.23.23-.23h2.29c.15,0,.23.08.23.23v2.22c0,.15-.08.23-.23.23h-2.29Z"/>
    <path class="cls-3" d="M595.45,6.58v-.97c0-.15.08-.23.23-.23h2.77c.15,0,.23.08.23.23v6.96c0,.45.09.77.26.94.17.17.45.26.83.26h.7c.61,0,.91.46.91,1.38,0,.53-.07.89-.22,1.08-.14.19-.37.28-.69.28h-2.36c-.74,0-1.32-.12-1.74-.35-.42-.23-.69-.68-.83-1.33-.33.27-.72.48-1.16.61-.44.14-.9.21-1.38.21-.59,0-1.15-.08-1.69-.25-.54-.17-1.01-.42-1.42-.77-.41-.35-.73-.8-.96-1.36-.23-.56-.35-1.24-.35-2.04,0-.91.13-1.66.4-2.26.27-.6.61-1.07,1.04-1.43.43-.35.92-.6,1.48-.75.55-.14,1.12-.22,1.69-.22h2.27ZM590.84,3.76c-.15,0-.23-.08-.23-.23V1.31c0-.15.08-.23.23-.23h2.27c.15,0,.23.08.23.23v2.22c0,.15-.08.23-.23.23h-2.27ZM593.57,12.9c.57,0,1.03-.16,1.37-.49.34-.33.51-.84.51-1.53v-1.56h-1.81c-.57,0-1.03.14-1.38.41-.35.27-.52.77-.52,1.5,0,.62.17,1.05.52,1.3.35.25.78.37,1.31.37M594.33,3.76c-.15,0-.23-.08-.23-.23V1.31c0-.15.08-.23.23-.23h2.29c.15,0,.23.08.23.23v2.22c0,.15-.08.23-.23.23h-2.29Z"/>
    <path class="cls-3" d="M605.5,15.37c-.26.47-.61.78-1.07.92-.45.14-1.09.22-1.91.22h-1.82c-.3,0-.53-.05-.68-.15-.15-.1-.23-.31-.23-.65,0-.2.02-.41.05-.63.03-.23.08-.44.16-.64.08-.2.17-.36.3-.49.12-.13.27-.19.45-.19h.75c.47,0,.77-.13.9-.4.13-.26.19-.74.19-1.42v-4.76c0-.12.11-.19.33-.2.22-.01.41-.02.58-.02h2.09c.15,0,.23.08.23.23v5.35c.03.38.19.68.49.9.29.22.71.33,1.24.33h.52c.3,0,.53.11.68.32.15.21.23.56.23,1.04,0,.92-.3,1.38-.91,1.38s-1.08-.07-1.5-.2c-.42-.14-.78-.45-1.07-.93M602.39,3.36c-.09-.15-.17-.32-.23-.5-.06-.18-.09-.39-.09-.64,0-.27.05-.54.15-.81.1-.26.25-.5.45-.71.2-.21.47-.38.79-.51C603.79.06,604.19,0,604.64,0,605.12,0,605.56.09,605.94.27c.39.18.67.4.85.66.06.08.05.15-.02.23l-.73.77c-.06.06-.13.05-.2-.05-.17-.15-.34-.27-.51-.36-.17-.09-.38-.14-.62-.14-.3,0-.54.08-.71.25-.17.17-.26.39-.26.68s.07.49.2.66c.14.17.29.3.45.39h2.38c.09,0,.14.05.14.16v1.07c0,.11-.04.16-.14.16h-5.18c-.09,0-.14-.05-.14-.16v-1.07c0-.11.05-.16.14-.16h.79Z"/>
    <path class="cls-3" d="M610.54,7.19c0-.15.08-.23.23-.23h2.73c.15,0,.23.08.23.23v5.35c.03.38.19.68.49.9.3.22.71.33,1.24.33h.52c.3,0,.53.11.68.32.15.21.23.56.23,1.04,0,.92-.3,1.38-.91,1.38s-1.08-.07-1.5-.2c-.42-.14-.78-.45-1.06-.93-.24.48-.6.79-1.07.93-.47.14-1.12.2-1.95.2h-2.34c-.3,0-.53-.09-.68-.28-.15-.19-.23-.54-.23-1.05s.07-.88.22-1.09c.14-.21.37-.32.69-.32h1.41c.48,0,.79-.14.91-.42.12-.28.18-.76.18-1.44v-4.72ZM609.11,21.16c-.15,0-.23-.08-.23-.23v-2.22c0-.15.08-.23.23-.23h2.27c.15,0,.23.08.23.23v2.22c0,.15-.08.23-.23.23h-2.27ZM612.61,21.16c-.15,0-.23-.08-.23-.23v-2.22c0-.15.08-.23.23-.23h2.29c.15,0,.23.08.23.23v2.22c0,.15-.08.23-.23.23h-2.29Z"/>
    <path class="cls-3" d="M615.99,16.51c-.3,0-.53-.1-.68-.31-.15-.2-.23-.55-.23-1.03s.07-.86.22-1.08c.14-.22.37-.33.69-.33h2.23c-.21-.45-.32-.98-.32-1.59s.1-1.15.31-1.59c.2-.44.47-.79.79-1.07s.7-.47,1.12-.6c.42-.13.86-.19,1.32-.19,1.13,0,2.03.28,2.68.83.65.55.98,1.42.98,2.62,0,.32-.04.61-.13.87-.08.27-.18.5-.28.71.68,0,1.14-.21,1.36-.62.23-.42.34-.93.34-1.53s-.09-1.1-.28-1.52c-.19-.42-.45-.77-.8-1.04-.34-.27-.75-.47-1.23-.6s-1-.19-1.58-.19c-.51,0-1.06.04-1.62.13-.57.08-1.12.21-1.67.37-.06.03-.14.05-.23.07-.09.02-.15-.02-.18-.11l-.48-1.7c-.03-.09-.04-.17-.03-.24,0-.07.06-.12.17-.17.74-.29,1.47-.51,2.19-.68.72-.17,1.57-.25,2.55-.25,1.27,0,2.33.17,3.17.51.84.34,1.5.79,2,1.35.49.56.84,1.19,1.03,1.88.2.7.29,1.41.29,2.13,0,.85-.08,1.58-.23,2.21-.15.63-.4,1.15-.76,1.55-.36.41-.82.71-1.41.91-.58.2-1.3.29-2.17.29h-9.15ZM621.47,10.66c-.42,0-.75.14-.98.42-.23.28-.35.68-.35,1.19s.11.92.32,1.17c.21.25.5.39.88.42h.25c.39-.03.68-.17.88-.42.2-.25.29-.64.29-1.17s-.11-.91-.33-1.19c-.22-.28-.54-.42-.96-.42"/>
    <path class="cls-3" d="M29.95,1.63H0v10.6h16.35c0,.05,0,.11,0,.16v50.18h12.25V12.22h17.4V1.63h-16.04Z"/>
    <path class="cls-3" d="M65.67,1.63h16.5c12.91,0,23.45,10.35,23.45,23.16v14.62c0,12.81-10.54,23.16-23.45,23.16h-28.02V12.39c0-5.91,5.15-10.76,11.52-10.76M93.37,24.79c0-6.9-4.98-12.57-11.19-12.57h-15.77v39.75h15.77c6.21,0,11.19-5.67,11.19-12.57v-14.62Z"/>
    <path class="cls-3" d="M30.22,1.59H.27v10.6h16.35c0,.05,0,.11,0,.16v50.18h12.25V12.19h17.4V1.59h-16.04Z"/>
    <path class="cls-3" d="M65.95,1.59h16.5c12.91,0,23.45,10.35,23.45,23.16v14.62c0,12.81-10.54,23.16-23.45,23.16h-28.02V12.35c0-5.91,5.15-10.76,11.52-10.76M93.64,24.75c0-6.9-4.98-12.57-11.19-12.57h-15.77v39.75h15.77c6.21,0,11.19-5.67,11.19-12.57v-14.62Z"/>
    <path class="cls-3" d="M151.88,44.05c8.82-2.63,15.03-9.61,15.03-19.47v-2.3c0-12.81-10.54-20.7-23.45-20.7h-16.5c-6.37,0-11.52,4.85-11.52,10.76v50.18h12.25v-17.25h10.21l15.11,17.25h15.28l-16.42-18.48ZM127.7,34.69V12.19h15.77c6.21,0,11.19,3.2,11.19,10.1v2.3c0,6.9-4.98,10.1-11.19,10.1h-15.77Z"/>
    <rect class="cls-3" x="247.26" y="1.63" width="1.51" height="60.94"/>
  </g>
</svg>