<?xml version="1.0" encoding="UTF-8"?>
<svg id="Layer_1" data-name="Layer 1" xmlns="http://www.w3.org/2000/svg" viewBox="0 0 760.83 696.11">
  <defs>
    <style>
      .cls-1 {
        fill: #fff;
      }

      .cls-2 {
        fill: #b49a00;
        fill-rule: evenodd;
      }
    </style>
  </defs>
  <path class="cls-1" d="M589.35,313.06c-143.59-6.59-229.45-73.18-213.98-120.46-38.36,61.56,49.19,154.64,203.53,160.3l10.45-39.84Z"/>
  <path class="cls-1" d="M595.45,291.68l9.87-38.47c-85.25,4.22-149.97-13.66-182.65-38.72-19.69-15.09-41.8-46.09,7.07-79.34,0,0,.03,0,.03,0l.41-1.83s-.07.06-.11.08c-109.55,69.07,4.97,165.94,165.39,158.29"/>
  <path class="cls-2" d="M589.75,313.11c-34.35,16.63-77.53,40.85-100.15,53.9-96.98,55.83-139.69,132.04-104.25,189.38-19.76-46.87,13.94-106.11,111.43-158.3,19.16-10.25,52.11-29.44,82.44-45.03l10.53-39.95Z"/>
  <path class="cls-2" d="M605.63,253.17c-38.43,20.76-92.56,49.01-121.61,65.3-114.72,64.38-157.97,155.65-122.52,223-21.52-54.1,30.37-140.49,131.05-192.93,23.55-13.42,66.13-37.36,102.63-56.07l10.46-39.3Z"/>
  <path class="cls-1" d="M171.47,255.55c143.6,6.59,229.45,73.2,214.01,120.47,38.34-61.56-49.2-154.65-203.55-160.31l-10.45,39.85Z"/>
  <path class="cls-1" d="M165.39,276.92l-9.87,38.48c85.25-4.24,149.97,13.65,182.64,38.71,19.71,15.11,41.82,46.1-7.04,79.34h-.04s-.41,1.84-.41,1.84c.03-.04.06-.04.09-.08,109.56-69.08-4.95-165.91-165.36-158.29"/>
  <path class="cls-2" d="M171.08,255.49c34.35-16.62,77.53-40.85,100.16-53.9,96.98-55.81,139.69-132.05,104.25-189.38,19.75,46.88-13.96,106.11-111.43,158.3-19.14,10.26-52.13,29.46-82.43,45.04l-10.55,39.94Z"/>
  <path class="cls-2" d="M155.2,315.42c38.43-20.74,92.57-48.98,121.62-65.28,114.72-64.41,157.97-155.65,122.5-223.01,21.53,54.11-30.35,140.5-131.04,192.93-23.55,13.43-66.12,37.38-102.62,56.07l-10.46,39.29Z"/>
  <path class="cls-1" d="M61.41,683.45l-4.75-8.45h-27.34l-4.71,8.45h-11.27l25.38-42.4h8.54l25.34,42.4h-11.2ZM43.23,650.69l-10.74,18.88h21.3l-10.57-18.88Z"/>
  <path class="cls-1" d="M231.21,683.45l-4.77-8.45h-27.34l-4.77,8.45h-11.2l25.36-42.4h8.52l25.41,42.4h-11.21ZM213.06,650.69l-10.8,18.88h21.32l-10.52-18.88Z"/>
  <polygon class="cls-1" points="290.12 683.46 258.19 653.63 258.19 683.46 247.63 683.46 247.63 641.06 257.21 641.06 289.19 670.81 289.19 641.06 299.77 641.06 299.77 683.46 290.12 683.46"/>
  <path class="cls-1" d="M95.06,641.06v28.6c0,5.58-4.77,8.43-12.61,8.43-1.3,0-2.42-.06-3.42-.21v5.92c1.1.06,2.23.1,3.42.1,12.78,0,23.04-5.09,23.04-13.75v-29.09h-10.43Z"/>
  <polygon class="cls-1" points="166.72 641.06 147.09 666.04 126.65 641.06 116.14 641.06 116.14 683.46 126.65 683.46 126.65 655.24 142.33 675.01 151.38 675.01 166.72 655.24 166.72 683.46 177.22 683.46 177.22 641.06 166.72 641.06"/>
  <path class="cls-1" d="M494.07,683.45l-4.76-8.45h-27.36l-4.75,8.45h-11.18l25.39-42.4h8.45l25.41,42.4h-11.21ZM475.9,650.69l-10.8,18.88h21.32l-10.52-18.88Z"/>
  <path class="cls-1" d="M610.53,683.45h-28.01v-42.39h26.86c12.86,0,20.91,4.46,20.91,11.67,0,4.62-4.62,7.79-9.26,8.97,5.3,1.24,10.4,4.57,10.4,9.85,0,7.79-8.66,11.9-20.91,11.9M608.53,646.86h-15.5v13.31h15.5c6.71,0,11.31-2.09,11.31-7.28,0-3.89-4.6-6.03-11.31-6.03M609.54,665.58h-16.51v12.09h16.51c7.33,0,11.36-2.67,11.36-6.48,0-4.46-4.03-5.62-11.36-5.62"/>
  <polygon class="cls-1" points="641.76 683.46 641.76 641.06 685.98 641.06 685.98 646.87 652.28 646.87 652.28 660.16 681.02 660.16 681.02 665.72 652.28 665.72 652.28 677.66 685.98 677.66 685.98 683.46 641.76 683.46"/>
  <path class="cls-1" d="M735.03,683.45l-14.65-17.84h-13.08v17.84h-10.49v-42.4h26.76c13.23,0,21.55,5.23,21.55,12.41,0,6.11-6.01,10.01-13.82,11.31l15.98,18.68h-12.25ZM722.82,646.86h-15.52v13.3h15.52c7.02,0,11.8-2.52,11.8-6.7s-4.78-6.61-11.8-6.61"/>
  <polygon class="cls-1" points="561.25 641.06 541.36 666.33 521.19 641.06 510.66 641.06 510.66 683.46 521.19 683.46 521.19 655.24 536.87 675.01 545.91 675.01 561.25 655.24 561.25 683.46 571.77 683.46 571.77 641.06 561.25 641.06"/>
  <path class="cls-1" d="M356.38,683.9c-7.24,0-13.49-1.61-18.21-4.56-6.85-4.1-6.76-8.82-6.76-17.04s-.09-12.8,6.76-17.07c4.72-2.87,10.96-4.57,18.21-4.57,12.75,0,22.44,4.94,24.76,14.46l-10.5.02c-1.54-5.59-6.63-8.57-14.26-8.57-4.09,0-7.76.89-10.19,2.56-3.46,2.21-4.26,4.65-4.26,13.17s.81,11.02,4.26,13.31c2.43,1.52,6.1,2.48,10.19,2.48,7.63,0,12.65-2.62,14.54-8.5h10.22c-2.67,10.02-12.24,14.31-24.76,14.31"/>
  <polygon class="cls-1" points="430.14 683.46 430.14 665.72 401.97 665.72 401.97 683.46 391.46 683.46 391.46 641.06 401.97 641.06 401.97 660.16 430.14 660.16 430.14 641.06 440.57 641.06 440.57 683.46 430.14 683.46"/>
  <path class="cls-1" d="M43.73,575.38c0,2.78-2.38,5.33-5.32,5.33s-5.33-2.55-5.33-5.33c0-3.03,2.37-5.38,5.33-5.38s5.32,2.35,5.32,5.38"/>
  <path class="cls-1" d="M269.47,625.52c0,2.79-2.39,5.36-5.32,5.36s-5.33-2.57-5.33-5.36c0-3.02,2.38-5.38,5.33-5.38s5.32,2.36,5.32,5.38"/>
  <path class="cls-1" d="M344.87,611.65c-.88-.71-1.49-1.76-1.94-2.94-.69-1.69-.96-3.47-.96-5.37,0-2.04.27-3.91.96-5.59.67-1.61,1.54-2.93,2.87-4.12,1.2-1.32,2.72-2.14,4.48-2.87,1.8-.64,3.82-.99,6.1-.99s4.36.35,6.1.99c1.78.74,3.32,1.56,4.6,2.87,1.22,1.19,2.14,2.51,2.84,4.12.57,1.46.92,3.06,1,4.79h10.42c-.09-2.61-.71-4.96-1.73-7.06-1.16-2.5-2.86-4.48-4.99-6.33-2.2-1.68-4.84-3.07-7.96-3.96-3.07-1.03-6.61-1.48-10.5-1.48-4.2,0-7.84.53-10.97,1.53-3.13,1.03-5.79,2.37-7.88,4.2-2.09,1.68-3.72,3.76-4.75,6.11-1.01,2.43-1.53,4.86-1.53,7.64,0,2.95.6,5.57,1.84,8,.11.16.23.3.28.45h-43.98c-2.67-.16-5.42-3.16-5.42-9.85-.11-6.18-.93-10.01-6.63-13.58-4.88-3.03-11.03-4.51-18.29-4.51-12.72,0-22.27,4.64-24.7,13h10.69c1.73-4.26,6.33-7.19,14.01-7.19,4.1,0,7.77.91,10.24,2.45,2.85,1.97,4.16,4.02,4.16,9.38,0,8.91,2.14,9.73,3.28,10.3h-24.17v.05h-47.43v-.05h-9.99c.21-.29.41-.49.55-.86,1.25-2.37,1.81-5.04,1.81-7.95s-.56-5.38-1.73-7.64c-1.13-2.51-2.76-4.57-5-6.25-2.13-1.76-4.79-3.19-7.85-4.13-3.08-.97-6.63-1.46-10.57-1.46-4.19,0-7.86.5-10.99,1.54-3.08,1.03-5.72,2.43-7.77,4.18-2.14,1.78-3.75,3.9-4.79,6.25-1.1,2.27-1.63,4.86-1.63,7.5,0,3.01.71,5.74,1.92,8.16.15.16.37.51.53.66h-66.04v-42.06h-10.5v47.72h81.67c2.13,1.63,4.64,2.88,7.49,3.66,3.02.91,6.44,1.41,10.11,1.41s7.21-.5,10.31-1.41c2.85-.87,5.26-2.1,7.31-3.66h13.17v.11h49.43v.03h129.34v-5.8h-36.8ZM185.88,608.42c-.7,1.63-1.58,3.08-2.84,4.27-1.24,1.17-2.78,2.14-4.56,2.8-1.8.57-3.81.93-6.08.93s-4.27-.37-6.13-.93c-1.75-.66-3.29-1.63-4.53-2.8-1.22-1.18-2.22-2.63-2.81-4.27-.71-1.69-1-3.51-1-5.5s.29-3.77,1-5.38c.59-1.68,1.58-3.15,2.81-4.33,1.24-1.12,2.78-2.16,4.53-2.74,1.86-.66,3.83-1.02,6.13-1.02s4.29.36,6.08,1.02c1.78.59,3.32,1.62,4.56,2.74,1.26,1.17,2.14,2.65,2.84,4.33.68,1.61,1,3.44,1,5.38s-.32,3.8-1,5.5"/>
  <path class="cls-1" d="M52.93,608.69c0,5.58-4.86,8.36-12.57,8.36h-2.66c-7.77,0-12.56-2.78-12.56-8.36v-24.72h-10.49v25.15c0,8.83,10.3,13.72,23.05,13.72h2.66c12.71,0,23.01-4.89,23.01-13.72v-25.15h-10.44v24.72Z"/>
  <path class="cls-1" d="M593.06,609.86v-25.96h-19.21l-2.69.05c-9.93,0-18,4.9-18,10.93s8.07,11,18,11l11.37-.06v5.98h-125.47v-28.06h-25.54c-13.18,0-18.88,11.51-18.88,19.85,0,.51.04,13.91.04,13.91h180.39v-7.63h-.01ZM574.7,600.07h-1.71c-5.33,0-9.61-2.32-9.61-5.2s4.29-5.16,9.61-5.16h1.71s7.83-.01,7.83-.01v10.37h-7.83ZM446.54,611.79h-23.33v-9.32c0-5.82,2.35-12.92,10.83-12.92h12.5v22.24Z"/>
  <path class="cls-1" d="M747.49,611.65h-36.8c-.89-.71-1.5-1.77-1.95-2.94-.69-1.69-.96-3.46-.96-5.37,0-2.04.27-3.9.96-5.59.68-1.62,1.53-2.93,2.87-4.12,1.22-1.32,2.71-2.14,4.48-2.86,1.8-.65,3.83-1.01,6.09-1.01s4.36.36,6.1,1.01c1.77.73,3.32,1.54,4.6,2.86,1.21,1.19,2.14,2.5,2.83,4.12.54,1.42.89,2.94.99,4.6h10.43c-.13-2.52-.74-4.82-1.73-6.87-1.16-2.5-2.85-4.48-4.99-6.33-2.21-1.68-4.86-3.07-7.94-3.96-3.08-1.03-6.62-1.48-10.51-1.48-4.19,0-7.84.51-10.97,1.54-3.14,1.03-5.79,2.36-7.89,4.2-2.09,1.7-3.71,3.76-4.72,6.1-1.04,2.44-1.57,4.87-1.57,7.65,0,2.94.59,5.57,1.85,8.01.11.13.21.29.28.44h-75.6v-27.92h-10.42v28.16c0,5.61-4.81,8.46-12.61,8.46-1.31,0-2.42-.06-3.43-.21v5.9c1.09.08,2.23.12,3.43.12,10.07,0,18.55-3.15,21.72-8.71h125.44v-5.8Z"/>
  <path class="cls-1" d="M725.04,575.07c0,2.79-2.39,5.35-5.32,5.35s-5.33-2.56-5.33-5.35c0-3.03,2.38-5.38,5.33-5.38s5.32,2.35,5.32,5.38"/>
  <path class="cls-1" d="M579.63,575.07c0,2.79-2.38,5.35-5.31,5.35s-5.33-2.56-5.33-5.35c0-3.03,2.37-5.38,5.33-5.38s5.31,2.35,5.31,5.38"/>
  <path class="cls-1" d="M434.19,575.07c0,2.79-2.4,5.35-5.32,5.35s-5.33-2.56-5.33-5.35c0-3.03,2.38-5.38,5.33-5.38s5.32,2.35,5.32,5.38"/>
  <path class="cls-1" d="M448.19,575.07c0,2.79-2.4,5.35-5.34,5.35s-5.33-2.56-5.33-5.35c0-3.03,2.4-5.38,5.33-5.38s5.34,2.35,5.34,5.38"/>
</svg>