<?xml version="1.0" encoding="UTF-8"?>
<svg id="Layer_1" data-name="Layer 1" xmlns="http://www.w3.org/2000/svg" viewBox="0 0 800.14 126.76">
  <defs>
    <style>
      .cls-1 {
        fill: #ad833b;
      }
    </style>
  </defs>
  <g>
    <path class="cls-1" d="M44.44,55.53h-1.54c-.53,1.23-1.2,2.56-2,3.97-1.6,2.85-2.95,4.6-4.04,5.24-5.01,2.24-9.62,3.36-13.83,3.36-2.94,0-5.39-.62-7.36-1.85-2.38-1.46-3.54-3.58-3.48-6.38.06-2.07.8-4.43,2.22-7.06,1.17-2.2,2.52-4.12,4.04-5.76,1.23-1.38,2.07-2.07,2.53-2.1.21,0,.31.09.31.28,0-.08-.92,1.19-2.77,3.81-1.85,2.62-2.77,4.8-2.77,6.55,0,2.1,1.15,3.8,3.45,5.11,1.89,1.07,3.89,1.67,6.01,1.82,2.55.18,5.24-.1,8.07-.86.99-.31,2.47-.75,4.47-1.32l.4-.06c-1.4-2.61-3.6-3.91-6.62-3.91l-1.85-.22c-1.21-.12-2.03-.19-2.46-.19,1.34-3.22,2.56-5.47,3.67-6.75h13.59v6.32ZM30.79,73.83l-3.02,2.83-3.85-2.59-2.77,2.59-4.1-2.71,2.96-2.83,3.97,2.53,2.71-2.59,4.1,2.77Z"/>
    <path class="cls-1" d="M48.85,55.53h-5.88v-6.32h5.88v6.32Z"/>
    <path class="cls-1" d="M52.82,55.53h-5.88v-6.32h5.88v6.32Z"/>
    <path class="cls-1" d="M56.8,55.53h-5.88v-6.32h5.88v6.32Z"/>
    <path class="cls-1" d="M60.77,55.53h-5.88v-6.32h5.88v6.32Z"/>
    <path class="cls-1" d="M64.75,55.53h-5.88v-6.32h5.88v6.32Z"/>
    <path class="cls-1" d="M68.72,55.53h-5.88v-6.32h5.88v6.32Z"/>
    <path class="cls-1" d="M72.69,55.53h-5.88v-6.32h5.88v6.32Z"/>
    <path class="cls-1" d="M76.67,55.53h-5.88v-6.32h5.88v6.32Z"/>
    <path class="cls-1" d="M80.64,55.53h-5.88v-6.32h5.88v6.32Z"/>
    <path class="cls-1" d="M84.62,55.53h-5.88v-6.32h5.88v6.32Z"/>
    <path class="cls-1" d="M88.59,55.53h-5.88v-6.32h5.88v6.32Z"/>
    <path class="cls-1" d="M92.57,55.53h-5.88v-6.32h5.88v6.32Z"/>
    <path class="cls-1" d="M96.54,55.53h-5.88v-6.32h5.88v6.32Z"/>
    <path class="cls-1" d="M100.52,55.53h-5.88v-6.32h5.88v6.32Z"/>
    <path class="cls-1" d="M104.49,55.53h-5.88v-6.32h5.88v6.32Z"/>
    <path class="cls-1" d="M108.46,55.53h-5.88v-6.32h5.88v6.32Z"/>
    <path class="cls-1" d="M134.78,48.6c0,.16-.58,1.2-1.73,3.1-1.15,1.9-1.84,2.94-2.06,3.13l-11.37-4.1c-.58.12-1.26,1-2.06,2.62-.76,1.54-1.44,2.27-2.03,2.19h-8.57v-6.32h10.23l.06-.19c.45-1.05,1.18-2.6,2.19-4.65,1.44-2.65,3.54-4.65,6.32-6.01.14,0,.84-.27,2.08-.82,1.24-.54,2.19-.82,2.85-.82s1.02.16,1.14.49c.12.6.35,1.48.68,2.65.33.97.81,2.39,1.45,4.28.55,1.68.83,3.16.83,4.44ZM129.48,47.39c-.41-1.11-.77-2.02-1.08-2.74-.64-1.38-1.12-2.08-1.45-2.13-.88,0-1.77.22-2.65.65-.47.29-.93.55-1.39.8l-.65.46,7.21,2.96Z"/>
    <path class="cls-1" d="M158.5,55.53h-2.53c-.72,2.69-2.11,5.34-4.16,7.95-2.4,3.04-4.73,4.53-6.99,4.47-1.07-.02-3.36-.75-6.87-2.19-3.64-1.48-5.45-2.52-5.45-3.11,0-.41.21-.62.65-.62s1.25.24,2.53.71c1.27.47,2.26.72,2.96.74,2.32.06,4.95-.75,7.89-2.43,2.86-1.66,4.92-3.5,6.19-5.52h-.77c-6.47,0-9.71-1.58-9.71-4.74,0-1.27.82-3.65,2.46-7.12,1.97-4.21,3.94-6.32,5.92-6.32,1.73,0,3.27,1.81,4.62,5.42,1.01,2.73,1.51,4.73,1.51,6.01v.43h1.76v6.32ZM152,48.13v-.18c-.84-2.94-2.03-4.41-3.57-4.41-1.03,0-1.96.8-2.8,2.4v.06c0,.95.51,1.69,1.54,2.25.84.47,1.79.71,2.83.71,1.13,0,1.8-.28,2-.83Z"/>
    <path class="cls-1" d="M182.75,55.53h-4.34c-.64-.64-2.22-2.24-4.74-4.81-.84,1.23-1.97,2.83-3.39,4.81h-13.34v-6.32h14.14c.47,0,.69-.23.65-.68l-11.25-10.35c.16-.31.48-1.31.94-3.02.46-1.7,1.03-3.35,1.71-4.93,4.66-1.52,10.53-3.29,17.59-5.3l-1.32,5.85c-1.09.31-5.99,1.61-14.7,3.91l15.28,14.51h2.77v6.32Z"/>
    <path class="cls-1" d="M187.49,55.53h-5.88v-6.32h5.88v6.32Z"/>
    <path class="cls-1" d="M191.47,55.53h-5.88v-6.32h5.88v6.32Z"/>
    <path class="cls-1" d="M195.44,55.53h-5.88v-6.32h5.88v6.32Z"/>
    <path class="cls-1" d="M199.42,55.53h-5.88v-6.32h5.88v6.32Z"/>
    <path class="cls-1" d="M203.39,55.53h-5.88v-6.32h5.88v6.32Z"/>
    <path class="cls-1" d="M207.37,55.53h-5.88v-6.32h5.88v6.32Z"/>
    <path class="cls-1" d="M211.34,55.53h-5.88v-6.32h5.88v6.32Z"/>
    <path class="cls-1" d="M215.32,55.53h-5.88v-6.32h5.88v6.32Z"/>
    <path class="cls-1" d="M219.29,55.53h-5.88v-6.32h5.88v6.32Z"/>
    <path class="cls-1" d="M272.16,31.1c-.25.31-1.74,2.29-4.47,5.95,0,.8.4,4.13,1.2,9.98.1.86-.07,2.27-.52,4.22-.17.78-.43,1.97-.8,3.57-.06.47-.74.71-2.03.71h-15.84l-.68-4.74c-.94-.12-3.39-.19-7.33-.19-1.19,0-3.18.82-5.96,2.46-2.78,1.64-4.77,2.46-5.96,2.46h-11.92v-6.32h13.12c1.21,0,2.78-.38,4.71-1.14,1.81-.7,2.71-1.18,2.71-1.45-.8-.37-2.27-.91-4.41-1.63-2.57-.88-4.17-1.3-4.81-1.26-.55.04-1.35.35-2.39.94-1.04.59-1.85.88-2.45.88-.17,0,.08-.63.74-1.88.72-1.36,1.58-2.56,2.59-3.6,1.46-1.5,3-2.25,4.62-2.25,1.79,0,3.76.52,5.92,1.57,3.66,1.75,6.06,2.77,7.21,3.08,4.05,1.09,7.2,1.63,9.46,1.63-.47,1.48-1.02,3.18-1.63,5.11h11.68c.16-.16.25-.59.25-1.26,0-1.68-.44-4.33-1.32-7.93-.88-3.6-1.32-6.04-1.32-7.32-.6-.47-1.32-1.05-2.16-1.73,1.89-3.74,3.24-6.07,4.04-6.99,0,1.48.38,2.51,1.14,3.08,1.77,1.15,3.97,2.48,6.62,3.97v.06Z"/>
    <path class="cls-1" d="M284.51,46.19c0,4.42-1.05,8.05-3.14,10.91l-2.77-24.46c0-.6,1.43-3.1,4.28-7.52,1.09,6.27,1.63,13.29,1.63,21.07Z"/>
    <path class="cls-1" d="M342.07,49.27l-2.71,6.38h-39.74v-.96c0-1.73.44-3.51,1.32-5.36,1.15-2.4,2.88-4.19,5.18-5.36,1.15-.58,3.9-1.06,8.26-1.45,3.29-.29,5.01-1.15,5.18-2.59,0-2.57-.59-4.52-1.76-5.85l-.46-.52-.12.59c-1.05,2.53-1.67,3.93-1.88,4.22-.88,1.21-2.21,1.82-3.97,1.82-3.16,0-4.75-1.19-4.75-3.57,0-1.77.94-4.31,2.83-7.64,2.18-3.84,4.26-5.71,6.25-5.61.82.02,2.02,1.11,3.61,3.27,1.89,2.57,2.83,5.28,2.83,8.13,0,2.57-.62,4.94-1.85,7.12-1.34,2.38-3.13,4.01-5.39,4.87h.06l-5.18.28c-3.12.14-5.06.69-5.82,1.63l-.37.62h38.48ZM307.5,25.12l-3.85,3.02-3.85-2.96,3.85-3.6,3.85,3.54ZM316.16,33.01c0-.6-.41-1.3-1.23-2.13-.82-.82-1.53-1.23-2.13-1.23-.47,0-1.07.21-1.79.62-.78.45-1.17.88-1.17,1.29,0,.82.69,1.53,2.06,2.13,1.09.47,1.95.71,2.59.71,1.11,0,1.66-.46,1.66-1.39ZM328.82,62.52c-.76.92-1.91,2.21-3.45,3.85-.04,0-.96-.5-2.74-1.51s-2.79-1.51-3.02-1.51h.06c-.8.64-1.83,1.6-3.08,2.9-2.01-.76-3.68-1.68-4.99-2.77l3.67-3.67c2.45,1.81,4.11,2.71,4.99,2.71.35,0,.93-.4,1.76-1.2.68-.66,1.22-1.2,1.63-1.63l5.18,2.83Z"/>
    <path class="cls-1" d="M363.79,55.53h-.74l-2.28.06c-.99.02-1.85-.46-2.59-1.45-.33,2.63-1.65,5.56-3.97,8.78-2.57,3.57-5.07,5.36-7.52,5.36-1.11,0-3.42-.74-6.93-2.22-3.66-1.54-5.48-2.66-5.48-3.36,0-.29.12-.43.37-.43s1.1.32,2.57.96c1.47.64,2.61.96,3.44.96,2.07,0,4.68-1.2,7.83-3.6,4.27-3.27,6.41-5.83,6.41-7.7,0-.51-.57-1.56-1.7-3.14-.92-1.31-1.68-2.31-2.28-2.99.84-1.46,1.94-3.33,3.3-5.61.74,1.09,1.85,2.73,3.33,4.93,1.5,2.1,3.02,3.14,4.56,3.14h1.7v6.32Z"/>
    <path class="cls-1" d="M368.17,55.53h-5.88v-6.32h5.88v6.32Z"/>
    <path class="cls-1" d="M372.14,55.53h-5.88v-6.32h5.88v6.32Z"/>
    <path class="cls-1" d="M376.11,55.53h-5.88v-6.32h5.88v6.32Z"/>
    <path class="cls-1" d="M380.09,55.53h-5.88v-6.32h5.88v6.32Z"/>
    <path class="cls-1" d="M384.06,55.53h-5.88v-6.32h5.88v6.32Z"/>
    <path class="cls-1" d="M388.04,55.53h-5.88v-6.32h5.88v6.32Z"/>
    <path class="cls-1" d="M392.01,55.53h-5.88v-6.32h5.88v6.32Z"/>
    <path class="cls-1" d="M395.99,55.53h-5.88v-6.32h5.88v6.32Z"/>
    <path class="cls-1" d="M399.96,55.53h-5.88v-6.32h5.88v6.32Z"/>
    <path class="cls-1" d="M403.94,55.53h-5.88v-6.32h5.88v6.32Z"/>
    <path class="cls-1" d="M428.34,55.53h-7.36c-.33-.62-.97-1.74-1.91-3.36l-.31-.49-.25.49c-.6,1.19-1.27,2.31-2.03,3.36h-13.99v-6.32h14.27l-.28-.55c-1.25-2.16-3.06-3.24-5.42-3.24-.21,0-.52.03-.94.09-.42.06-.73.09-.94.09.97-1.97,1.97-3.8,3.02-5.48l.31-.49-.25.25c.12-.1.72-.38,1.79-.83,1.64-.66,3.17-.99,4.59-.99,2.34,0,4.32.82,5.95,2.46,1.25,1.27,1.88,2.44,1.88,3.51,0,.53-.35,1.34-1.05,2.4-.76,1.13-1.17,1.91-1.23,2.34l-.06.43h4.22v6.32Z"/>
    <path class="cls-1" d="M446.33,52.94c-.08,1.91-.79,3.97-2.13,6.19-1.44-1.44-2.52-2.4-3.23-2.9h-.06c-.8-.47-1.89-.73-3.27-.77,1.77.04,1.01.06-2.28.06h-8.32v-6.32h7.89c.37,0,.55-.48.55-1.45,0-1.68-.46-4.31-1.39-7.89-.92-3.57-1.39-5.97-1.39-7.18,0-.08-.34-.39-1.02-.92-.68-.53-1.02-.88-1.02-1.05,0-.53.6-1.83,1.8-3.9,1.2-2.06,2-3.1,2.39-3.1.16,0,.31.42.43,1.26.12.95.37,1.55.74,1.82,1.81,1.29,3.81,2.64,6.01,4.04-.21.25-.85,1.37-1.94,3.36-.9,1.6-1.54,2.4-1.91,2.4,0,.72.28,4,.83,9.83.08.86,1.35,1.99,3.79,3.39,2.38,1.38,3.55,2.41,3.51,3.11Z"/>
    <path class="cls-1" d="M458.62,46.19c0,4.42-1.05,8.05-3.14,10.91l-2.77-24.46c0-.6,1.43-3.1,4.28-7.52,1.09,6.27,1.63,13.29,1.63,21.07Z"/>
    <path class="cls-1" d="M503.3,28.45c-1.66,3.08-2.71,5.17-3.14,6.25-.06,0-.29-.04-.68-.12-.39-.08-.63-.1-.71-.06l1.2,16.55c.04.45-.35,1.65-1.17,3.6-.76,1.83-1.33,3.04-1.72,3.64-1.11,1.66-2.81,3.16-5.12,4.5-2.79,1.58-5.62,2.37-8.47,2.37-2.55,0-4.63-.58-6.25-1.73-1.83-1.34-2.74-3.21-2.74-5.64s.77-5.29,2.31-8.72c1.48-3.25,2.6-4.87,3.36-4.87.16,0,.25.11.25.34s-.5,1.39-1.51,3.48c-1.01,2.1-1.51,3.63-1.51,4.59,0,1.93.81,3.48,2.43,4.65,1.46,1.07,3.19,1.6,5.21,1.6,2.26,0,4.67-.42,7.24-1.26,2.75-.9,4.08-1.81,3.97-2.71l-2.53-20.95c-.12-1.09-.56-1.92-1.32-2.5-.76-.57-1.14-1.09-1.14-1.54,0-.82.44-2.1,1.33-3.85.84-1.64,1.52-2.68,2.03-3.11,0,1.25.69,2.24,2.06,2.96.78.43,2.12.9,4.04,1.42,1.52.39,2.38.76,2.59,1.11Z"/>
    <path class="cls-1" d="M523.94,46.5c0,6.29-.71,9.31-2.13,9.09h-14.67c.14-1.52.36-3.65.65-6.38h12.82v-.43c0-1.07-.45-2.27-1.36-3.6-.82-1.25-1.71-2.18-2.68-2.77-.88-.53-1.96-1.1-3.24-1.69.39-1.81.91-4.04,1.57-6.69,2.28,1.09,4.2,2.58,5.76,4.47,2.18,2.67,3.27,5.32,3.27,7.95v.06Z"/>
    <path class="cls-1" d="M539.35,55.53h-8.32l-2.46-27.39,4.04-4.87c.12,1.79.54,6.38,1.26,13.77l1.11,10.72c.25.97.97,1.45,2.19,1.45h2.19v6.32Z"/>
    <path class="cls-1" d="M543.97,55.53h-5.88v-6.32h5.88v6.32Z"/>
    <path class="cls-1" d="M547.94,55.53h-5.88v-6.32h5.88v6.32Z"/>
    <path class="cls-1" d="M551.92,55.53h-5.88v-6.32h5.88v6.32Z"/>
    <path class="cls-1" d="M555.89,55.53h-5.88v-6.32h5.88v6.32Z"/>
    <path class="cls-1" d="M559.87,55.53h-5.88v-6.32h5.88v6.32Z"/>
    <path class="cls-1" d="M563.84,55.53h-5.88v-6.32h5.88v6.32Z"/>
    <path class="cls-1" d="M567.82,55.53h-5.88v-6.32h5.88v6.32Z"/>
    <path class="cls-1" d="M571.79,55.53h-5.88v-6.32h5.88v6.32Z"/>
    <path class="cls-1" d="M575.76,55.53h-5.88v-6.32h5.88v6.32Z"/>
    <path class="cls-1" d="M594.56,55.53h-2.96c-2.14,0-3.56-1.32-4.28-3.97-.55,1.09-1.27,2.41-2.16,3.97h-10.84v-6.32h12.29c.31-.53.48-2.24.52-5.11.1-.23.73-1.04,1.88-2.43,1.09-1.36,1.79-2.18,2.1-2.46.21,1.93.07,4.3-.4,7.12-.12.78.13,1.46.77,2.03.64.58,1.35.86,2.13.86h.96v6.32ZM590.77,65.17c0,.29-.66.96-1.99,2.02-1.33,1.06-2.15,1.59-2.48,1.59-.25,0-1.04-.54-2.39-1.63-1.35-1.09-2.02-1.73-2.02-1.91,0-.23.67-.97,2.02-2.22,1.34-1.25,2.14-1.88,2.39-1.88.14,0,.92.65,2.34,1.94,1.42,1.29,2.12,1.99,2.12,2.1Z"/>
    <path class="cls-1" d="M614.77,55.53h-3.02c-2.45,0-3.99-1.39-4.62-4.16l-2.34,4.16h-11.21v-6.32h12.82l.12-.19c.37-.76.58-2.71.62-5.85l3.73-4.5c0,2.44-.17,4.76-.49,6.93-.16,1.01.16,1.87.99,2.59.76.68,1.62,1.02,2.59,1.02h.83v6.32ZM612,28.85c-1.97,2.61-3.19,3.91-3.67,3.91.16,0-1.52-.88-5.05-2.65-.84.76-1.71,1.6-2.59,2.53-.58-.14-1.47-.53-2.68-1.17-1.32-.66-2.11-1.17-2.37-1.54.88-.88,2.1-2.15,3.67-3.79.33.35,1.06.87,2.2,1.56,1.14.69,1.9,1.03,2.29,1.03.16,0,.66-.41,1.49-1.23.83-.82,1.36-1.27,1.59-1.36l5.11,2.71Z"/>
    <path class="cls-1" d="M632.24,31.03c-.33.47-1.11,1.52-2.34,3.14l-2.19,2.8.06.06c0,.84.4,4.17,1.2,9.98.14.97-.03,2.31-.52,4.04-.53,1.91-.8,3.16-.8,3.76.02.06.03.12.03.18,0,.35-.69.52-2.06.52h-11.65v-6.32h11.03c.16-.16.25-.59.25-1.26,0-1.68-.44-4.33-1.33-7.93-.88-3.6-1.32-6.04-1.32-7.32l-.06-.12-2.16-1.6c1.83-3.62,3.18-5.95,4.07-6.99,0,1.44.39,2.46,1.17,3.08,1.77,1.15,3.97,2.48,6.62,3.97Z"/>
    <path class="cls-1" d="M644.75,46.19c0,4.42-1.05,8.05-3.14,10.91l-2.77-24.46c0-.6,1.43-3.1,4.28-7.52,1.09,6.27,1.63,13.29,1.63,21.07Z"/>
    <path class="cls-1" d="M697.71,55.53h-3.54c-2.14,0-3.61-1.39-4.41-4.16-.76,1.01-1.68,2.39-2.77,4.16h-20.95c-1.81,0-3.25-.6-4.33-1.79-1.08-1.19-1.62-2.7-1.62-4.53,0-1.38.35-3.44,1.05-6.19.84-3.27,1.7-4.9,2.56-4.9.08,0,.12.08.12.25,0,.47-.17,1.38-.51,2.73-.34,1.35-.51,2.37-.51,3.07,0,1.11.24,1.93.71,2.46.86,1.01,1.47,1.66,1.82,1.97.59.41,1.44.62,2.53.62h20.89l.12-.19c.37-.76.61-2.71.71-5.85.88-1.11,2.14-2.65,3.76-4.62,0,2.08-.21,4.43-.62,7.06-.17.99.13,1.83.89,2.54.76.71,1.64,1.06,2.65,1.06h1.45v6.32ZM682.12,66c0,.29-.58.88-1.74,1.79-1.16.9-1.91,1.36-2.23,1.36-.27,0-.96-.47-2.06-1.4-1.11-.94-1.66-1.52-1.66-1.74,0-.21.56-.85,1.68-1.93,1.12-1.08,1.8-1.62,2.05-1.62.9,0,1.79.37,2.67,1.12.87.75,1.31,1.56,1.31,2.42Z"/>
    <path class="cls-1" d="M702.64,55.53h-5.88v-6.32h5.88v6.32Z"/>
    <path class="cls-1" d="M706.62,55.53h-5.88v-6.32h5.88v6.32Z"/>
    <path class="cls-1" d="M710.59,55.53h-5.88v-6.32h5.88v6.32Z"/>
    <path class="cls-1" d="M714.57,55.53h-5.88v-6.32h5.88v6.32Z"/>
    <path class="cls-1" d="M718.54,55.53h-5.88v-6.32h5.88v6.32Z"/>
    <path class="cls-1" d="M722.51,55.53h-5.88v-6.32h5.88v6.32Z"/>
    <path class="cls-1" d="M726.49,55.53h-5.88v-6.32h5.88v6.32Z"/>
    <path class="cls-1" d="M746.24,55.53h-3.02c-2.44,0-3.99-1.39-4.62-4.16l-2.34,4.16h-11.21v-6.32h12.82l.12-.19c.37-.76.57-2.71.62-5.85l3.73-4.5c0,2.44-.16,4.76-.49,6.93-.17,1.01.17,1.87.99,2.59.76.68,1.62,1.02,2.59,1.02h.83v6.32ZM743.47,28.85c-1.97,2.61-3.2,3.91-3.67,3.91.16,0-1.52-.88-5.05-2.65-.84.76-1.71,1.6-2.59,2.53-.57-.14-1.47-.53-2.68-1.17-1.31-.66-2.11-1.17-2.37-1.54.88-.88,2.11-2.15,3.67-3.79.33.35,1.06.87,2.2,1.56,1.14.69,1.91,1.03,2.3,1.03.16,0,.66-.41,1.5-1.23.83-.82,1.36-1.27,1.59-1.36l5.12,2.71Z"/>
    <path class="cls-1" d="M770.98,55.53h-4.34c-.64-.64-2.22-2.24-4.75-4.81-.84,1.23-1.97,2.83-3.39,4.81h-13.34v-6.32h14.14c.47,0,.69-.23.65-.68l-11.25-10.35c.16-.31.48-1.31.94-3.02.46-1.7,1.03-3.35,1.71-4.93,4.66-1.52,10.53-3.29,17.59-5.3l-1.33,5.85c-1.09.31-5.99,1.61-14.7,3.91l15.28,14.51h2.77v6.32Z"/>
    <path class="cls-1" d="M798.06,48.6c0,.16-.58,1.2-1.73,3.1-1.15,1.9-1.84,2.94-2.06,3.13l-11.37-4.1c-.58.12-1.26,1-2.06,2.62-.76,1.54-1.44,2.27-2.03,2.19h-8.57v-6.32h10.23l.06-.19c.45-1.05,1.18-2.6,2.19-4.65,1.44-2.65,3.54-4.65,6.32-6.01.14,0,.84-.27,2.08-.82,1.24-.54,2.19-.82,2.85-.82s1.02.16,1.14.49c.12.6.35,1.48.68,2.65.33.97.81,2.39,1.45,4.28.55,1.68.83,3.16.83,4.44ZM792.76,47.39c-.41-1.11-.77-2.02-1.08-2.74-.64-1.38-1.12-2.08-1.45-2.13-.88,0-1.77.22-2.65.65-.47.29-.93.55-1.39.8l-.65.46,7.21,2.96Z"/>
  </g>
  <g>
    <path class="cls-1" d="M26.44,106.63c0-1.33-.12-2.08-.16-3.02,1.49-.2,3.6-.59,4.82-.59.67,0,.94.24.94,1.06v8.77c-.86.71-2.15,1.57-3.29,2.12-1.45.43-3.49.82-5.41.82-6.38,0-13.51-2.74-13.51-12.65,0-8.11,6.27-13,13.98-13,4.19,0,7.17,1.29,8.22,2.31.04,1.76-1.21,3.02-2.62,2.78-1.65-.71-3.6-1.17-5.64-1.17-4.47,0-7.99,2.78-7.99,8.77,0,6.38,4.23,9.52,8.5,9.52.98,0,1.8-.16,2.15-.27v-5.44Z"/>
    <path class="cls-1" d="M48.61,90.14c8.15,0,12.57,5.76,12.57,12.61s-4.47,13.04-12.77,13.04c-9.05,0-12.65-6.5-12.65-12.65,0-7.4,4.74-13,12.81-13h.04ZM48.1,93.59c-3.37,0-6.34,2.74-6.34,9.01s3.17,9.75,7.09,9.75c4.11,0,6.42-3.45,6.42-9.17,0-5.33-2.47-9.6-7.13-9.6h-.04Z"/>
    <path class="cls-1" d="M68.47,90.57c.63,0,.94.51,1.53,2.27,1.53,4.31,4,10.77,5.6,16.14,1.92-5.84,4.27-12.38,6.38-18.49,1.57,0,3.49.31,4.07.55.59.23.63.74.23,1.8-2.66,7.21-5.6,14.18-8.42,20.96-.35.78-.63,1.21-1.02,1.41-.55.27-2.39.47-4.23.47-2.82-7.72-6.11-16.65-9.44-24.21,1.92-.51,4.03-.9,5.29-.9Z"/>
    <path class="cls-1" d="M90.09,96.21c0-1.88,0-3.21-.12-4.94,1.25-.27,3.25-.51,5.09-.55h9.32c-.27,2.15-.82,2.9-1.29,3.45-.63.23-2.19.23-3.96.23h-3.45v6.35h8.26c-.39,3.02-1.25,3.68-2.66,3.68h-5.6v7.09c.9.16,1.8.24,3.13.24,1.49,0,4.54,0,6.58-.16l.08.08c-.39,1.96-1.17,2.9-2.23,3.56-.55.12-2.43.2-5.6.2-3.53,0-5.99-.2-6.93-.39l-.63-.78v-18.06Z"/>
    <path class="cls-1" d="M114.85,114.27c0,.78-.28.94-.94,1.02-1.13.12-3.72.16-4.62.16.08-1.57.12-3.88.12-7.17v-13.16c0-1.92,0-2.86-.08-3.92.94-.23,5.29-.71,7.09-.71,6.74,0,9.71,2.31,9.71,7.13,0,3.64-3.06,5.41-4.62,6.15.9.78,2.08,2.86,3.33,5.09,1.84,3.29,2.9,4.9,3.96,6.07v.16c-.31.24-2,.43-3.56.43-1.64,0-2.66-.31-3.72-1.64-.9-1.1-1.76-2.9-3.41-6.23-1.06-2.12-1.84-2.27-2.7-2.27-.24,0-.35-.04-.55,0v8.89ZM114.85,102.2c.9.12,2.98,0,3.52-.27.51-.27,2.04-1.25,2.04-3.8,0-2.98-1.8-4.39-4.15-4.39-.47,0-1.02,0-1.41.08v8.38Z"/>
    <path class="cls-1" d="M131.42,91.08v-.2c.9-.12,4.86-.31,5.64-.31.43,0,.74.27,1.14.71,1.21,1.88,4.11,6.46,6.38,10.34,1.64,2.78,2.94,4.82,3.88,6.89-.27-2.59-.23-3.72-.23-5.72v-10.93c0-.9.27-1.06.9-1.1,1.25-.12,2.66-.2,3.64-.2-.08,1.68-.12,3.96-.12,7.21v17.23c-.39.12-3.02.67-4.35.67-.59,0-.82-.16-1.18-.67-1.72-2.51-2.94-4.58-5.88-9.36-2.39-3.88-3.41-6.07-5.01-9.28.23,3.6.2,5.56.2,7.6v10.3c0,.78-.23.9-.94,1.02-.71.12-2.19.2-3.6.16.08-1.57.12-3.84.12-7.13v-16.37l-.59-.86Z"/>
    <path class="cls-1" d="M178.07,91.2c.63-.39,3.76-.63,4.82-.63.43,0,.67.24.82,1.29l1.88,14.34c.55,4.11.98,7.01,1.29,8.89-.71.2-3.64.35-4.5.35-.55,0-1.1-.2-1.18-1.06-.2-1.92-.43-4.19-.82-8.62l-.82-8.89c-.94,3.21-2.9,9.21-5.37,16.65-.27.86-.63,1.17-1.61,1.37-.82.16-1.84.31-2.78.31-.82-2.74-4.15-13.2-5.72-18.25-.39,4.43-1.29,13-1.88,17.82-.08.43-.27.67-.74.67-1.25,0-3.41,0-4.04-.35.67-4.23,2.08-14.26,3.56-23.27l-.08-.63c1.1-.23,2.66-.63,4.86-.63.63-.04.86.24,1.45,1.92l5.13,14.49c1.64-4.46,4.07-11.28,5.72-15.28v-.51Z"/>
    <path class="cls-1" d="M191.54,96.21c0-1.88,0-3.21-.12-4.94,1.25-.27,3.25-.51,5.09-.55h9.32c-.27,2.15-.82,2.9-1.29,3.45-.63.23-2.19.23-3.96.23h-3.45v6.35h8.26c-.39,3.02-1.25,3.68-2.66,3.68h-5.6v7.09c.9.16,1.8.24,3.13.24,1.49,0,4.54,0,6.58-.16l.08.08c-.39,1.96-1.17,2.9-2.23,3.56-.55.12-2.43.2-5.6.2-3.53,0-5.99-.2-6.93-.39l-.63-.78v-18.06Z"/>
    <path class="cls-1" d="M210.27,91.08v-.2c.9-.12,4.86-.31,5.64-.31.43,0,.74.27,1.14.71,1.21,1.88,4.11,6.46,6.38,10.34,1.65,2.78,2.94,4.82,3.88,6.89-.27-2.59-.24-3.72-.24-5.72v-10.93c0-.9.27-1.06.9-1.1,1.25-.12,2.66-.2,3.64-.2-.08,1.68-.12,3.96-.12,7.21v17.23c-.39.12-3.02.67-4.35.67-.59,0-.82-.16-1.17-.67-1.72-2.51-2.94-4.58-5.88-9.36-2.39-3.88-3.41-6.07-5.01-9.28.23,3.6.2,5.56.2,7.6v10.3c0,.78-.23.9-.94,1.02-.71.12-2.19.2-3.6.16.08-1.57.12-3.84.12-7.13v-16.37l-.59-.86Z"/>
    <path class="cls-1" d="M242.66,94.41h-6.82c-.71,0-1.02-.31-.71-1.33.43-1.37.94-2.04,1.37-2.55.71.16,1.8.2,5.56.2h14.3c-.24,2.51-1.41,3.49-2.31,3.68h-5.8v15.94c0,2.7.08,4,.12,4.78-1.25.2-2.9.31-4.78.31-.63,0-.94-.12-.94-.71v-20.33Z"/>
    <path class="cls-1" d="M268.16,96.21c0-1.88,0-3.21-.12-4.94,1.25-.27,3.25-.51,5.09-.55h9.32c-.27,2.15-.82,2.9-1.29,3.45-.63.23-2.19.23-3.96.23h-3.45v6.35h8.26c-.39,3.02-1.25,3.68-2.66,3.68h-5.6v7.09c.9.16,1.8.24,3.13.24,1.49,0,4.54,0,6.58-.16l.08.08c-.39,1.96-1.17,2.9-2.23,3.56-.55.12-2.43.2-5.6.2-3.53,0-5.99-.2-6.93-.39l-.63-.78v-18.06Z"/>
    <path class="cls-1" d="M286.26,91.43c2-.51,4.5-.86,5.33-.86.51,0,.9.35,1.37,1.18,2.27,3.53,3.45,5.41,4.43,6.89,1.02-1.61,3.13-4.82,4.86-7.36.43-.59.67-.71,1.02-.71.63,0,2.86.39,4.07.9v.12c-1.29,1.84-4.35,6.31-7.6,10.58,4.78,7.44,7.4,11.32,8.19,12.65v.12c-.47.27-2.82.75-5.37.75-.55,0-.94-.16-1.37-.82-1.53-2.47-3.13-5.13-4.86-8.11-1.72,2.86-4.07,6.38-5.05,7.99-.35.55-.74.71-1.18.71-1.14,0-3.64-.2-4.35-.47l-.04-.16c1.68-2.39,5.41-7.68,8.19-11.75-2.15-3.37-6.23-9.64-7.64-11.52v-.12Z"/>
    <path class="cls-1" d="M311.64,96.29c0-1.88,0-3.49-.16-5.29,1.06-.2,3.84-.51,6.74-.51,6.19,0,10.46,2.04,10.46,8.11s-5.13,7.87-7.44,7.91c-.51,0-1.49-.04-1.96-.27-.67-.31-1.45-1.57-1.45-2.98.2,0,.63.04.94.04,1.92,0,4.11-.98,4.11-4.78,0-3.29-2.08-4.58-4.35-4.58-.31,0-.86,0-1.29.08v16.49c0,2.74.08,3.84.12,4.62-.71.2-3.6.31-4.78.31-.67,0-.94-.12-.94-.71v-18.45Z"/>
    <path class="cls-1" d="M332.64,96.21c0-1.88,0-3.21-.12-4.94,1.25-.27,3.25-.51,5.09-.55h9.32c-.27,2.15-.82,2.9-1.29,3.45-.63.23-2.19.23-3.96.23h-3.45v6.35h8.27c-.39,3.02-1.25,3.68-2.66,3.68h-5.6v7.09c.9.16,1.8.24,3.13.24,1.49,0,4.54,0,6.58-.16l.08.08c-.39,1.96-1.18,2.9-2.23,3.56-.55.12-2.43.2-5.6.2-3.53,0-5.99-.2-6.93-.39l-.63-.78v-18.06Z"/>
    <path class="cls-1" d="M357.39,114.27c0,.78-.27.94-.94,1.02-1.14.12-3.72.16-4.62.16.08-1.57.12-3.88.12-7.17v-13.16c0-1.92,0-2.86-.08-3.92.94-.23,5.29-.71,7.09-.71,6.74,0,9.71,2.31,9.71,7.13,0,3.64-3.05,5.41-4.62,6.15.9.78,2.08,2.86,3.33,5.09,1.84,3.29,2.9,4.9,3.96,6.07v.16c-.31.24-2,.43-3.56.43-1.65,0-2.66-.31-3.72-1.64-.9-1.1-1.76-2.9-3.41-6.23-1.06-2.12-1.84-2.27-2.7-2.27-.24,0-.35-.04-.55,0v8.89ZM357.39,102.2c.9.12,2.98,0,3.53-.27.51-.27,2.04-1.25,2.04-3.8,0-2.98-1.8-4.39-4.15-4.39-.47,0-1.02,0-1.41.08v8.38Z"/>
    <path class="cls-1" d="M374.55,95.86c0-2.62-.04-4.23-.12-4.97.78-.12,3.92-.31,4.82-.31.78,0,.9.39.9,2.19v17.55c0,2.74.08,4.03.12,4.82-.71.2-3.76.31-4.78.31-.67,0-.94-.12-.94-.78v-18.8Z"/>
    <path class="cls-1" d="M386.38,96.21c0-1.88,0-3.21-.12-4.94,1.25-.27,3.25-.51,5.09-.55h9.32c-.27,2.15-.82,2.9-1.29,3.45-.63.23-2.19.23-3.96.23h-3.45v6.35h8.27c-.39,3.02-1.25,3.68-2.66,3.68h-5.6v7.09c.9.16,1.8.24,3.13.24,1.49,0,4.54,0,6.58-.16l.08.08c-.39,1.96-1.18,2.9-2.23,3.56-.55.12-2.43.2-5.6.2-3.53,0-5.99-.2-6.93-.39l-.63-.78v-18.06Z"/>
    <path class="cls-1" d="M405.1,91.08v-.2c.9-.12,4.86-.31,5.64-.31.43,0,.74.27,1.14.71,1.21,1.88,4.11,6.46,6.38,10.34,1.65,2.78,2.94,4.82,3.88,6.89-.27-2.59-.24-3.72-.24-5.72v-10.93c0-.9.27-1.06.9-1.1,1.25-.12,2.66-.2,3.64-.2-.08,1.68-.12,3.96-.12,7.21v17.23c-.39.12-3.02.67-4.35.67-.59,0-.82-.16-1.17-.67-1.72-2.51-2.94-4.58-5.88-9.36-2.39-3.88-3.41-6.07-5.01-9.28.23,3.6.2,5.56.2,7.6v10.3c0,.78-.23.9-.94,1.02-.71.12-2.19.2-3.6.16.08-1.57.12-3.84.12-7.13v-16.37l-.59-.86Z"/>
    <path class="cls-1" d="M452.03,111.02c-.16,1.53-.67,2.74-1.41,3.45-.98.63-3.05,1.33-5.6,1.33-9.05,0-13.94-5.05-13.94-12.57,0-8.15,6.23-13.08,14.06-13.08,3.68,0,6.62,1.25,7.25,1.96.12,1.41-.82,2.98-2.31,2.78-1.1-.47-2.86-.98-4.93-.98-4.5,0-8.11,2.9-8.11,8.97,0,5.01,3.25,8.97,9.21,8.97,2.7,0,4.66-.63,5.64-.9l.16.08Z"/>
    <path class="cls-1" d="M456.07,96.21c0-1.88,0-3.21-.12-4.94,1.25-.27,3.25-.51,5.09-.55h9.32c-.27,2.15-.82,2.9-1.29,3.45-.63.23-2.19.23-3.96.23h-3.45v6.35h8.26c-.39,3.02-1.25,3.68-2.66,3.68h-5.6v7.09c.9.16,1.8.24,3.13.24,1.49,0,4.54,0,6.58-.16l.08.08c-.39,1.96-1.17,2.9-2.23,3.56-.55.12-2.43.2-5.6.2-3.53,0-5.99-.2-6.93-.39l-.63-.78v-18.06Z"/>
    <path class="cls-1" d="M483.8,96.21c0-1.88,0-3.21-.12-4.94,1.25-.27,3.25-.51,5.09-.55h9.32c-.27,2.15-.82,2.9-1.29,3.45-.63.23-2.19.23-3.96.23h-3.45v6.35h8.27c-.39,3.02-1.25,3.68-2.66,3.68h-5.6v7.09c.9.16,1.8.24,3.13.24,1.49,0,4.54,0,6.58-.16l.08.08c-.39,1.96-1.18,2.9-2.23,3.56-.55.12-2.43.2-5.6.2-3.53,0-5.99-.2-6.93-.39l-.63-.78v-18.06Z"/>
    <path class="cls-1" d="M501.9,91.43c2-.51,4.5-.86,5.33-.86.51,0,.9.35,1.37,1.18,2.27,3.53,3.45,5.41,4.43,6.89,1.02-1.61,3.13-4.82,4.86-7.36.43-.59.67-.71,1.02-.71.63,0,2.86.39,4.07.9v.12c-1.29,1.84-4.35,6.31-7.6,10.58,4.78,7.44,7.4,11.32,8.19,12.65v.12c-.47.27-2.82.75-5.37.75-.55,0-.94-.16-1.37-.82-1.53-2.47-3.13-5.13-4.86-8.11-1.72,2.86-4.07,6.38-5.05,7.99-.35.55-.74.71-1.18.71-1.13,0-3.64-.2-4.35-.47l-.04-.16c1.68-2.39,5.41-7.68,8.19-11.75-2.15-3.37-6.23-9.64-7.64-11.52v-.12Z"/>
    <path class="cls-1" d="M546,111.02c-.16,1.53-.67,2.74-1.41,3.45-.98.63-3.05,1.33-5.6,1.33-9.05,0-13.94-5.05-13.94-12.57,0-8.15,6.23-13.08,14.06-13.08,3.68,0,6.62,1.25,7.25,1.96.12,1.41-.82,2.98-2.31,2.78-1.1-.47-2.86-.98-4.93-.98-4.5,0-8.11,2.9-8.11,8.97,0,5.01,3.25,8.97,9.21,8.97,2.7,0,4.66-.63,5.64-.9l.16.08Z"/>
    <path class="cls-1" d="M565,100.64v-8.77c0-.9.35-1.06,1.06-1.14,1.02-.08,3.25-.12,4.66-.16-.08,1.49-.12,3.84-.12,7.09v12.65c0,2.74.08,4.03.12,4.82-.86.2-3.76.31-4.78.31-.63,0-.94-.12-.94-.78v-10.5c-.78.08-2.04.12-3.92.12h-5.44v9.91c0,.86-.35,1.02-1.33,1.1-1.14.12-3.56.2-4.39.16.08-1.57.12-3.88.12-7.13v-12.42c0-2.62-.04-4.27-.12-5.01,1.21-.2,3.92-.31,4.82-.31.78,0,.9.43.9,2.15v7.91h9.36Z"/>
    <path class="cls-1" d="M581.61,108.9c-.71,1.88-1.8,4.78-2.27,5.95-.16.39-.47.59-1.17.59-1.02,0-3.02-.24-3.96-.51l-.04-.16c1.96-4.78,7.87-19.19,9.44-22.99l-.24-.71c1.72-.35,4.35-.51,4.78-.51.35,0,.71.2.94.75,1.8,4.39,4.58,11.75,5.84,15.08,1.61,4.19,2.55,6.62,3.37,8.42l-.04.16c-.86.27-4.03.47-5.01.47-.67,0-1.02-.2-1.41-1.29-.67-1.96-1.17-3.41-1.84-5.25h-8.38ZM588.93,105.26c-1.61-4.66-2.66-7.4-3.09-8.62-.78,2.31-1.84,5.37-3.06,8.62h6.15Z"/>
    <path class="cls-1" d="M601.27,91.08v-.2c.9-.12,4.86-.31,5.64-.31.43,0,.74.27,1.13.71,1.21,1.88,4.11,6.46,6.38,10.34,1.65,2.78,2.94,4.82,3.88,6.89-.27-2.59-.24-3.72-.24-5.72v-10.93c0-.9.27-1.06.9-1.1,1.25-.12,2.66-.2,3.64-.2-.08,1.68-.12,3.96-.12,7.21v17.23c-.39.12-3.02.67-4.35.67-.59,0-.82-.16-1.17-.67-1.72-2.51-2.94-4.58-5.88-9.36-2.39-3.88-3.41-6.07-5.01-9.28.24,3.6.2,5.56.2,7.6v10.3c0,.78-.24.9-.94,1.02-.71.12-2.19.2-3.6.16.08-1.57.12-3.84.12-7.13v-16.37l-.59-.86Z"/>
    <path class="cls-1" d="M643.81,106.63c0-1.33-.12-2.08-.16-3.02,1.49-.2,3.6-.59,4.82-.59.67,0,.94.24.94,1.06v8.77c-.86.71-2.15,1.57-3.29,2.12-1.45.43-3.49.82-5.41.82-6.38,0-13.51-2.74-13.51-12.65,0-8.11,6.27-13,13.98-13,4.19,0,7.17,1.29,8.23,2.31.04,1.76-1.21,3.02-2.62,2.78-1.65-.71-3.6-1.17-5.64-1.17-4.46,0-7.99,2.78-7.99,8.77,0,6.38,4.23,9.52,8.5,9.52.98,0,1.8-.16,2.15-.27v-5.44Z"/>
    <path class="cls-1" d="M654.7,96.21c0-1.88,0-3.21-.12-4.94,1.25-.27,3.25-.51,5.09-.55h9.32c-.27,2.15-.82,2.9-1.29,3.45-.63.23-2.19.23-3.96.23h-3.45v6.35h8.27c-.39,3.02-1.25,3.68-2.66,3.68h-5.6v7.09c.9.16,1.8.24,3.13.24,1.49,0,4.54,0,6.58-.16l.08.08c-.39,1.96-1.18,2.9-2.23,3.56-.55.12-2.43.2-5.6.2-3.53,0-5.99-.2-6.93-.39l-.63-.78v-18.06Z"/>
    <path class="cls-1" d="M693.83,90.14c8.15,0,12.57,5.76,12.57,12.61s-4.46,13.04-12.77,13.04c-9.05,0-12.65-6.5-12.65-12.65,0-7.4,4.74-13,12.81-13h.04ZM693.32,93.59c-3.37,0-6.35,2.74-6.35,9.01s3.17,9.75,7.09,9.75c4.11,0,6.42-3.45,6.42-9.17,0-5.33-2.47-9.6-7.13-9.6h-.04Z"/>
    <path class="cls-1" d="M711.07,95.47c0-1.53-.04-2.55-.12-4.15.74-.2,3.49-.51,5.45-.59,1.06-.04,7.75,0,9.79,0-.39,2.12-1.06,2.94-1.61,3.45-.55.23-1.37.23-3.17.23h-4.74v7.13h8.62c-.51,3.41-1.45,3.68-3.05,3.68h-5.56c0,3.72.04,7.01.12,9.91-.71.2-2.94.31-4.78.31-.67,0-.94-.12-.94-.78v-19.19Z"/>
    <path class="cls-1" d="M729.79,95.47c0-1.53-.04-2.55-.12-4.15.74-.2,3.49-.51,5.44-.59,1.06-.04,7.76,0,9.79,0-.39,2.12-1.06,2.94-1.61,3.45-.55.23-1.37.23-3.17.23h-4.74v7.13h8.62c-.51,3.41-1.45,3.68-3.06,3.68h-5.56c0,3.72.04,7.01.12,9.91-.71.2-2.94.31-4.78.31-.67,0-.94-.12-.94-.78v-19.19Z"/>
    <path class="cls-1" d="M748.51,95.86c0-2.62-.04-4.23-.12-4.97.78-.12,3.92-.31,4.82-.31.78,0,.9.39.9,2.19v17.55c0,2.74.08,4.03.12,4.82-.71.2-3.76.31-4.78.31-.67,0-.94-.12-.94-.78v-18.8Z"/>
    <path class="cls-1" d="M779.85,111.02c-.16,1.53-.67,2.74-1.41,3.45-.98.63-3.05,1.33-5.6,1.33-9.05,0-13.94-5.05-13.94-12.57,0-8.15,6.23-13.08,14.06-13.08,3.68,0,6.62,1.25,7.25,1.96.12,1.41-.82,2.98-2.31,2.78-1.1-.47-2.86-.98-4.93-.98-4.5,0-8.11,2.9-8.11,8.97,0,5.01,3.25,8.97,9.21,8.97,2.7,0,4.66-.63,5.64-.9l.16.08Z"/>
    <path class="cls-1" d="M783.89,96.21c0-1.88,0-3.21-.12-4.94,1.25-.27,3.25-.51,5.09-.55h9.32c-.27,2.15-.82,2.9-1.29,3.45-.63.23-2.19.23-3.96.23h-3.45v6.35h8.27c-.39,3.02-1.25,3.68-2.66,3.68h-5.6v7.09c.9.16,1.8.24,3.13.24,1.49,0,4.54,0,6.58-.16l.08.08c-.39,1.96-1.18,2.9-2.23,3.56-.55.12-2.43.2-5.6.2-3.53,0-5.99-.2-6.93-.39l-.63-.78v-18.06Z"/>
  </g>
</svg>