<?xml version="1.0" encoding="UTF-8"?>
<svg id="Layer_1" data-name="Layer 1" xmlns="http://www.w3.org/2000/svg" viewBox="0 0 273.66 50.06">
  <defs>
    <style>
      .cls-1 {
        fill: #ad833b;
      }
    </style>
  </defs>
  <g>
    <path class="cls-1" d="M12.87,27.72c-.74.41-2.17.82-3.07.9-.45.04-1.6.12-1.85.12-3.57,0-7.46-1.52-7.46-6.27,0-.16,0-.62.04-.86.04-1.02.25-2.34.61-3.44.21-.57.7-1.8,1.15-2.58.62-.94,1.56-1.85,2.54-2.83-.08-.08-.25-.16-.37-.16-.57-.12-1.64-.29-1.85-.29s-.53.04-.78.12c-.41.08-.9.57-1.31.74-.12.08-.45-.12-.45.08l-.08-.25c0-.16.21-.78.33-1.19.25-.78,1.07-2.34,2.13-2.71.25-.04.62,0,.82,0,.16,0,1.02.04,1.35.08,1.31.29,3.81.82,4.02.82h4.63c-.41.98-.78,1.85-1.31,2.99-1.23.16-2.58.41-3.81.74-.94.25-2.17.57-3.44,1.6-.98.86-1.84,2.01-2.34,3.32-.21.62-.33,1.76-.33,1.97,0,4.8,7.3,5.45,9.47,5.49h3.32c-.66.78-1.27,1.23-1.97,1.6ZM8.41,22.39c-.66-.45-2.09-1.6-2.09-1.76,0-.12,1.19-1.93,1.56-1.93.21,0,1.56.94,2.3,1.52-.37.62-1.15,1.56-1.76,2.17Z"/>
    <path class="cls-1" d="M16.77,17.96l-1.43-15.17c0-.21.29-.53.45-.7.53-.7,1.31-1.48,1.89-2.09.12.94.21,1.97.29,2.91.29,3.32.78,8.36,1.19,11.07,0,.08.2.25.37.29.41.08.78.41,1.19.41h.7v3.28h-4.63Z"/>
    <path class="cls-1" d="M20.58,17.96v-3.28h3.24v3.28h-3.24Z"/>
    <path class="cls-1" d="M23.08,17.96v-3.28h3.24v3.28h-3.24Z"/>
    <path class="cls-1" d="M25.58,17.96v-3.28h3.24v3.28h-3.24Z"/>
    <path class="cls-1" d="M28.08,17.96v-3.28h3.24v3.28h-3.24Z"/>
    <path class="cls-1" d="M30.58,17.96v-3.28h3.24v3.28h-3.24Z"/>
    <path class="cls-1" d="M33.08,17.96v-3.28h3.24v3.28h-3.24Z"/>
    <path class="cls-1" d="M35.58,17.96v-3.28h3.24v3.28h-3.24Z"/>
    <path class="cls-1" d="M38.08,17.96v-3.28h3.24v3.28h-3.24Z"/>
    <path class="cls-1" d="M57.19,17.96c-.08-.74-.16-1.64-.37-2.38-.7-.21-1.64-.16-2.38-.16-.16,0-1.31,0-1.93.04-.37,0-.82.21-1.19.41-.49.25-3.53,2.09-4.31,2.09h-6.85v-3.28h7.42c.82,0,2.91-.94,3.48-1.27,0-.04-3.81-1.52-4.8-1.52-1.07,0-1.72.45-2.71.98.9-2.38,2.3-4.1,4.47-4.1s3.98,1.52,6.56,2.25c2.42.74,3.81.82,5.53,1.03-.37.82-.66,1.76-.9,2.58.04.08.21.04,1.85.04h.98v3.28h-4.88ZM50.02,24.76c-.25,0-2.54-1.27-2.54-1.56,0-.16,1.8-1.97,2.01-1.97s1.76,1.03,2.58,1.44c-.04.16-1.76,2.09-2.05,2.09Z"/>
    <path class="cls-1" d="M86.55,8.73l.66,5.33c0,.16-.16,1.15-.29,1.64-.12.61-.29,1.35-.49,1.97,0,.08-.25.29-.41.29h-8.9c-.16-.82-.29-1.89-.49-2.42-.49-.12-2.13-.12-2.34-.12-.16,0-1.44-.04-2.09.12-.98.25-2.71,1.52-4.1,2.17-.21.08-.62.25-.82.25h-6.76v-3.28h7.42c.16,0,.62-.12.98-.25.62-.25,1.52-.45,2.17-1.03-.49-.25-1.03-.37-1.52-.57-.7-.25-1.72-.57-2.62-.82-.16-.04-.37-.04-.57-.04s-.82.04-1.23.2c-.33.08-.78.45-1.27.7v-.29c0-.16.37-.78.62-1.19.29-.57,1.56-2.21,2.46-2.42.37-.12.98-.21,1.19-.21s.98,0,1.44.21c1.76.61,3.53,1.64,5.37,2.21.86.29,3.24.86,4.84.86-.21.9-.49,1.72-.74,2.58h5.95c.12-.21.16-.45.16-.66s-.21-1.72-.37-2.62c-.25-1.56-.74-3.2-.98-4.84-.08-.62-.7-.78-1.19-1.31.66-1.15,1.35-2.46,2.17-3.69-.04.25.08.66.12.86.08.21.29.66.62.86,1.07.7,3.32,1.93,3.32,2.13,0,.29-2.3,2.58-2.3,3.36Z"/>
    <path class="cls-1" d="M95.07,17.96l-1.52-12.67c0-.53,1.97-3.53,2.38-4.02l.82,10.58c0,2.13-.21,3.9-1.68,6.11Z"/>
    <path class="cls-1" d="M118.89,16.19c-.12.37-.33,1.03-.41,1.39-.04.16-.21.41-.29.7-.66,2.71-6.27,4.14-8.36,4.14-2.83,0-5.62-.98-5.62-4.51,0-1.39,1.35-6.52,2.79-6.93,0,0,.12.08.21.08v.37c0,.53-1.19,1.56-1.19,3.61,0,3.32,2.87,3.69,4.96,3.69,1.52,0,6.44-.9,6.44-2.62s-2.17-5.29-2.17-5.7c0-.21,1.02-1.93,1.68-3.08,1.35,1.6,2.38,4.84,2.38,6.64,0,.62-.04,1.07-.41,2.21ZM110.82,6.64c-.25,0-1.52-.9-2.13-1.39.08-.45,1.44-2.21,1.8-2.21.29,0,2.34,1.56,2.34,1.76,0,.49-1.89,1.85-2.01,1.85Z"/>
    <path class="cls-1" d="M125.25,25.17c-1.76,0-6.4-1.31-7.09-1.89,0-.57.45-.49.57-.49.21,0,2.95.57,3.16.57,1.84,0,8.24-3.98,8.24-7.09,0-.16-.04-.7-.21-1.11h-.08c-.82,2.25-1.76,2.79-3.36,2.79-2.13,0-2.34-1.31-2.34-2.99,0-.21-.04-.61,0-.98.08-.74,2.3-5.21,4.26-5.21,1.27,0,2.42,2.46,2.58,2.95.12.29.25.66.33,1.02.16.61.29,1.8.29,2.01,0,3.57-2.25,10.41-6.36,10.41ZM127.26,12.38c-.29,0-1.89.45-1.89,1.31,0,.66,1.8.9,2.01.9.57,0,.78-.04,1.52-.41,0-1.27-.98-1.8-1.64-1.8Z"/>
    <path class="cls-1" d="M140.38,7.09c-1.52.04-2.79.78-4.55,1.72l-.16-.04c.21-.82,1.03-1.23,1.64-1.64-.49-.21-1.23-.37-1.8-.66-.08-.04-.16-.12-.16-.33,0-1.44,1.72-3.48,3.32-3.48.62,0,1.19.25,1.19.86,0,.21-.49.82-.66,1.15-.16-.21-.7-.49-1.07-.61-.12-.04,0-.04-.21-.04s-.53.08-.7.2c-.25.12-.49.29-.74.45-.08.08-.08.16-.16.25.08.16.25.33.41.41.37.25,1.02.37,1.23.37h3.28c-.12.37-.49.94-.86,1.39Z"/>
    <path class="cls-1" d="M144.4,17.96c-.74,1.8-1.6,3.98-3.28,5.41-.41.37-1.19.86-1.8,1.15-.29.12-.9.16-1.11.16s-.62-.04-.82-.08c-1.02-.29-2.17-.7-3.28-1.15-.57-.21-1.97-.74-2.71-1.56v-.29c.08-.08.25-.08.49-.08.21,0,2.95.78,3.16.78s.98-.12,1.39-.21c1.84-.45,4.18-2.05,5.9-4.06-1.07-.08-2.38-.21-3.57-.45-.53-.08-1.89-.86-2.01-1.72,0-.04-.04-.25-.04-.45s.37-1.72.66-2.42c.49-1.27,1.27-3.4,2.83-4.63.29-.25.9-.41,1.15-.41.21,0,.29,0,.37.04.25.12,1.11.78,1.35,1.19,1.07,1.93,1.52,3.73,1.68,5.49h.94v3.28h-1.31ZM140.95,11.81c-.21-.21-.62-.41-.78-.41-.25,0-.78.37-1.07.62-.21.25-.45.53-.45.74s.21.61.29.7c.29.41,1.07.74,1.39.78.12.04.41.04.62.04s.66,0,.86-.12c.08-.08.21-.16.29-.25-.29-.78-.57-1.56-1.15-2.09Z"/>
    <path class="cls-1" d="M144.85,17.96v-3.28h3.24v3.28h-3.24Z"/>
    <path class="cls-1" d="M147.35,17.96v-3.28h3.24v3.28h-3.24Z"/>
    <path class="cls-1" d="M149.85,17.96v-3.28h3.24v3.28h-3.24Z"/>
    <path class="cls-1" d="M152.35,17.96v-3.28h3.24v3.28h-3.24Z"/>
    <path class="cls-1" d="M154.85,17.96v-3.28h3.24v3.28h-3.24Z"/>
    <path class="cls-1" d="M157.35,17.96v-3.28h3.24v3.28h-3.24Z"/>
    <path class="cls-1" d="M159.85,17.96v-3.28h3.24v3.28h-3.24Z"/>
    <path class="cls-1" d="M162.35,17.96v-3.28h3.24v3.28h-3.24Z"/>
    <path class="cls-1" d="M164.85,17.96v-3.28h3.24v3.28h-3.24Z"/>
    <path class="cls-1" d="M167.35,17.96v-3.28h3.24v3.28h-3.24Z"/>
    <path class="cls-1" d="M169.85,17.96v-3.28h3.24v3.28h-3.24Z"/>
    <path class="cls-1" d="M181.21,14.68v3.28h-2.38c-.53,0-1.15-.74-1.23-1.15-.21.25-1.11,1.15-1.52,1.15h-4.14v-3.28h5.29c.74,0,.62-2.13.7-2.21.66-.9,1.68-1.97,2.67-2.91.04,1.19-.7,2.79-1.11,4.43.37.33.82.7,1.31.7.25,0,.49-.29.7-.29-.08,0-.16.29-.29.29Z"/>
    <path class="cls-1" d="M190.52,15.38c-.25.86-.7,1.76-1.03,2.58h-4.59c-.04-.25-.21-.49-.37-.74-.25.08-.45.45-.74.61-.04.08-.25.12-.41.12h-3.24v-3.28c2.79,0,3.53-.16,3.85,0,.16-.7.12-1.44.45-2.01.49-.86,1.48-1.6,2.3-2.42l-.78,3.4v1.03c0-.08,2.67-.08,2.67,0,.08-.16.04-.25,0-.33-.12-.62-.37-1.52-.37-1.72s1.56-1.97,2.38-2.87v4.88c0,.16-.04.49-.12.74ZM187.32,9.02c-.7-.25-1.76-1.11-2.54-1.64-.57.49-1.39,1.64-1.6,1.64-.16,0-.9-.41-1.31-.62-.49-.25-.98-.57-1.48-.98.57-.66,1.52-1.93,1.72-1.93s2.25,1.39,2.46,1.39c.16,0,1.27-1.07,1.8-1.48l2.46,1.39c-.08.57-1.02,1.48-1.52,2.21ZM184.45,5.9c-.16,0-1.27-.86-2.09-1.44.25-.45,1.48-1.44,1.93-1.72l2.09,1.52c-.57.49-1.72,1.64-1.93,1.64Z"/>
    <path class="cls-1" d="M217,17.96c-.86,0-1.72-1.07-1.97-1.97-.53.66-.98,1.31-1.35,1.97h-11.44c-.21,0-.94-.25-1.35-.53-1.11-.66-1.27-1.84-1.27-2.83,0-1.68.66-4.43,1.68-5.66h.29v.53c0,.16-.08.25-.12.41-.21.66-.37,1.93-.37,2.13,0,.16-.04.57.12.86.33.74,1.31,1.8,2.09,1.8h11.23c.25-.49.25-1.27.33-1.85.08-.37-.12-1.02.08-1.35.49-.82,1.31-1.56,2.01-2.38,0,.98-.25,3.65-.25,3.85,0,1.15,1.56,1.72,2.71,1.72h.66v3.28h-3.08ZM209.05,25.01c-.45,0-1.8-1.35-2.01-1.56.04-.16,1.56-1.97,2.01-1.97.16,0,1.44,1.19,2.17,1.85-.08.33-1.76,1.68-2.17,1.68Z"/>
    <path class="cls-1" d="M219.21,17.96v-3.28h3.24v3.28h-3.24Z"/>
    <path class="cls-1" d="M221.72,17.96v-3.28h3.24v3.28h-3.24Z"/>
    <path class="cls-1" d="M224.22,17.96v-3.28h3.24v3.28h-3.24Z"/>
    <path class="cls-1" d="M226.72,17.96v-3.28h3.24v3.28h-3.24Z"/>
    <path class="cls-1" d="M229.22,17.96v-3.28h3.24v3.28h-3.24Z"/>
    <path class="cls-1" d="M231.72,17.96v-3.28h3.24v3.28h-3.24Z"/>
    <path class="cls-1" d="M234.22,17.96v-3.28h3.24v3.28h-3.24Z"/>
    <path class="cls-1" d="M245.45,17.96c-.16,0-.45-.12-.57-.16-.25-.12-.66-.37-.9-.7-.25-.25-.41-.7-.57-1.11l-1.15,1.97h-5.95v-3.28h6.68c.53-.86.04-2.3.41-3.08.37-.98,1.43-1.68,2.09-2.42l-.33,3.81c0,.16,0,.25.04.41.16.7,1.11,1.27,1.48,1.27h.78v3.28h-2.01ZM244.39,5.94s-.12.21-.33.21c-.16,0-1.8-.86-2.54-1.31-.49.41-1.35,1.31-1.43,1.31-.16,0-.41-.16-.57-.21-.66-.25-1.39-.74-2.05-1.23.33-.53,1.72-2.05,1.93-2.05.16,0,1.23.86,1.89,1.15.08.04.16.12.37.12s1.11-.9,1.68-1.35l2.67,1.44c-.33.53-.86,1.15-1.6,1.93Z"/>
    <path class="cls-1" d="M257.34,17.96c-.66-.74-1.48-1.56-2.3-2.38-.66.74-1.19,1.56-1.76,2.38h-7.05v-3.28h7.5c.08,0,.12-.21.12-.29l-5.82-5.41c.61-1.23.12-3.4,1.48-4.22,2.67-1.56,6.07-1.8,9.14-2.71-.21.98-.45,2.09-.66,3.08-2.42.66-4.96,1.31-7.5,2.05,1.64,1.72,5,5.17,7.79,7.5h1.39v3.28h-2.34Z"/>
    <path class="cls-1" d="M273.37,14.76c-.53.94-1.19,1.93-1.8,2.87l-6.23-2.25c-1.19.49-.9,1.72-1.89,2.58h-5.12v-3.28h5.54c.25-.57.45-.94.53-1.35.45-1.44,1.93-3.69,3.61-4.47.78-.37,2.38-1.31,3.73-1.23.08.08.21.16.25.29.41,1.31,1.15,3.36,1.56,5,.08.21.12.82.12.98,0,.21-.16.62-.29.86ZM269.6,11.03c-.16-.16-.25-.12-.45-.12s-.7.12-.9.21c-.33.12-.7.29-1.03.49-.08.08-.29.21-.29.29l3.69,1.48c-.21-.86-.25-1.72-1.03-2.34Z"/>
  </g>
  <g>
    <path class="cls-1" d="M1.5,38.08c0-1.15,0-2.14-.1-3.24.65-.1,2.28-.29,3.94-.29,3.65,0,6.19,1.25,6.19,4.87s-2.98,4.78-4.56,4.8c-.38,0-.96-.05-1.22-.19-.36-.19-.79-.86-.79-1.63.19.05.53.07.77.07,1.2,0,2.69-.62,2.69-3.05,0-2.28-1.54-3-2.95-3-.29,0-.62.02-.96.07v10.3c0,1.68.05,2.38.07,2.86-.41.12-1.9.19-2.54.19-.36,0-.53-.07-.53-.43v-11.33Z"/>
    <path class="cls-1" d="M14.19,37.84c0-1.61-.02-2.59-.07-3.05.43-.07,2.09-.19,2.59-.19.41,0,.48.22.48,1.3v10.8c0,1.68.05,2.47.07,2.95-.41.12-2.02.19-2.57.19-.36,0-.5-.07-.5-.48v-11.52Z"/>
    <path class="cls-1" d="M21.22,37.89c0-1.61-.02-2.59-.07-3.1.53-.07,1.68-.19,2.59-.19.41,0,.48.22.48,1.42v11.67c.46.12,1.27.17,2.16.17.98,0,2.45,0,3.62-.12l.02.05c-.14.94-.62,1.61-1.22,1.94-.34.07-1.18.12-3.02.12-1.99,0-3.6-.12-4.2-.24l-.36-.46v-11.26Z"/>
    <path class="cls-1" d="M41.53,44.78c0-1.01-.05-1.56-.1-2.14.77-.12,1.92-.36,2.59-.36.36,0,.5.14.5.65v5.42c-.46.38-1.25.89-1.9,1.2-.84.24-2.14.5-3.29.5-4.03,0-8.3-1.78-8.3-7.75,0-4.94,3.82-7.97,8.52-7.97,2.62,0,4.39.84,4.97,1.39.02.94-.67,1.66-1.44,1.51-1.08-.53-2.33-.79-3.6-.79-2.95,0-5.23,1.92-5.23,5.66,0,4.18,2.78,6.07,5.59,6.07.67,0,1.39-.14,1.68-.26v-3.14Z"/>
    <path class="cls-1" d="M50.94,49.12c0,.48-.14.58-.55.62-.67.07-1.99.1-2.47.1.05-.96.07-2.38.07-4.39v-8.04c0-1.2,0-1.78-.05-2.45.62-.14,3.02-.41,4.13-.41,3.82,0,5.71,1.3,5.71,4.34,0,2.28-1.92,3.38-2.88,3.82.55.48,1.3,1.68,2.11,3.1,1.15,2.02,1.92,3.1,2.52,3.74v.1c-.19.14-1.08.24-1.94.24s-1.51-.24-2.14-1.08c-.65-.84-1.13-1.8-2.09-3.67-.74-1.37-1.2-1.56-1.99-1.56h-.43v5.54ZM50.94,41.85c.65.07,1.97,0,2.3-.17.5-.19,1.46-.91,1.46-2.52,0-1.99-1.25-2.83-2.74-2.83-.34,0-.74.02-1.03.07v5.45Z"/>
    <path class="cls-1" d="M61.78,37.84c0-1.61-.02-2.59-.07-3.05.43-.07,2.09-.19,2.59-.19.41,0,.48.22.48,1.3v10.8c0,1.68.05,2.47.07,2.95-.41.12-2.02.19-2.57.19-.36,0-.5-.07-.5-.48v-11.52Z"/>
    <path class="cls-1" d="M80.82,34.94c.36-.19,1.97-.34,2.54-.34.24,0,.38.14.46.74l1.27,8.83c.38,2.52.65,4.3.86,5.45-.41.12-1.92.22-2.4.22-.31,0-.62-.12-.67-.6-.14-1.22-.29-2.52-.55-5.06l-.7-6.02c-.67,2.09-2.09,6.07-3.62,10.58-.17.48-.34.67-.86.79-.43.07-1.01.17-1.49.17-.58-1.87-2.69-8.23-3.77-11.5-.34,2.95-1.06,8.45-1.42,11.26-.05.26-.17.38-.43.38-.65,0-1.75,0-2.14-.22.43-2.54,1.39-8.76,2.33-14.23l-.07-.46c.6-.12,1.46-.34,2.62-.34.36.1.55.43.98,1.66l3.24,8.95c1.2-3.14,2.81-7.46,3.82-9.91v-.36Z"/>
    <path class="cls-1" d="M93.32,34.34c1.27,0,2.86.53,3.46,1.15,0,.6-.38,1.58-1.22,1.54-.55-.29-1.58-.6-2.35-.6-1.27,0-2.18.6-2.18,1.66,0,1.13.79,1.7,3.02,2.98,2.16,1.22,3.38,2.14,3.38,4.42,0,2.98-2.59,4.58-5.42,4.58-1.66,0-2.88-.48-3.5-.94-.41-.26-.55-.5-.55-.82,0-.5.36-1.39.58-1.54.86.6,2.3,1.13,3.46,1.13,1.44,0,2.45-.62,2.45-1.85,0-1.06-.55-1.66-2.98-2.98-2.78-1.51-3.26-3.05-3.26-4.49,0-1.63,1.15-4.25,5.11-4.25h.02Z"/>
    <path class="cls-1" d="M102.7,34.65c0,1.37-.89,3.12-1.85,3.86-.48.41-1.13.5-1.92.48.72-1.15,1.2-2.69,1.2-4.13,0-.38-.05-.74-.12-1.01.5-.22,1.2-.53,1.82-.53.58,0,.86.58.86,1.3v.02Z"/>
    <path class="cls-1" d="M114.05,45.57c-.55,1.39-1.25,3.17-1.56,3.94-.1.22-.29.34-.67.34-.53,0-1.58-.14-2.11-.31v-.1c1.25-2.93,4.99-11.86,5.9-14.04l-.19-.5c.89-.19,2.23-.29,2.52-.29.22,0,.43.14.55.43,1.1,2.64,2.93,7.37,3.77,9.46.98,2.45,1.56,3.96,2.04,4.97v.1c-.53.17-2.16.29-2.69.29-.38,0-.58-.12-.82-.77-.43-1.22-.77-2.14-1.32-3.5h-5.42ZM118.9,43.58c-1.1-2.98-1.82-4.78-2.09-5.54-.6,1.58-1.27,3.48-2.09,5.54h4.18Z"/>
    <path class="cls-1" d="M126.73,37.6c0-1.06-.02-1.7-.07-2.54.43-.12,1.85-.31,2.9-.36.86-.02,4.94,0,6.1,0-.19,1.08-.53,1.54-.84,1.85-.31.14-.82.14-1.87.14h-3.22v4.78h5.42c-.24,1.82-.82,1.99-1.75,1.99h-3.67c0,2.4.02,4.39.07,6.19-.41.12-1.61.19-2.54.19-.36,0-.53-.07-.53-.46v-11.79Z"/>
    <path class="cls-1" d="M138.1,37.6c0-1.06-.02-1.7-.07-2.54.43-.12,1.85-.31,2.9-.36.86-.02,4.94,0,6.1,0-.19,1.08-.53,1.54-.84,1.85-.31.14-.82.14-1.87.14h-3.22v4.78h5.42c-.24,1.82-.82,1.99-1.75,1.99h-3.67c0,2.4.02,4.39.07,6.19-.41.12-1.61.19-2.54.19-.36,0-.53-.07-.53-.46v-11.79Z"/>
    <path class="cls-1" d="M151.3,45.57c-.55,1.39-1.25,3.17-1.56,3.94-.1.22-.29.34-.67.34-.53,0-1.58-.14-2.11-.31v-.1c1.25-2.93,4.99-11.86,5.9-14.04l-.19-.5c.89-.19,2.23-.29,2.52-.29.22,0,.43.14.55.43,1.1,2.64,2.93,7.37,3.77,9.46.98,2.45,1.56,3.96,2.04,4.97v.1c-.53.17-2.16.29-2.69.29-.38,0-.58-.12-.82-.77-.43-1.22-.77-2.14-1.32-3.5h-5.42ZM156.15,43.58c-1.1-2.98-1.82-4.78-2.09-5.54-.6,1.58-1.27,3.48-2.09,5.54h4.18Z"/>
    <path class="cls-1" d="M163.97,37.84c0-1.61-.02-2.59-.07-3.05.43-.07,2.09-.19,2.59-.19.41,0,.48.22.48,1.3v10.8c0,1.68.05,2.47.07,2.95-.41.12-2.02.19-2.57.19-.36,0-.5-.07-.5-.48v-11.52Z"/>
    <path class="cls-1" d="M173.93,49.12c0,.48-.14.58-.55.62-.67.07-1.99.1-2.47.1.05-.96.07-2.38.07-4.39v-8.04c0-1.2,0-1.78-.05-2.45.62-.14,3.02-.41,4.13-.41,3.82,0,5.71,1.3,5.71,4.34,0,2.28-1.92,3.38-2.88,3.82.55.48,1.3,1.68,2.11,3.1,1.15,2.02,1.92,3.1,2.52,3.74v.1c-.19.14-1.08.24-1.94.24s-1.51-.24-2.14-1.08c-.65-.84-1.13-1.8-2.09-3.67-.74-1.37-1.2-1.56-1.99-1.56h-.43v5.54ZM173.93,41.85c.65.07,1.97,0,2.3-.17.5-.19,1.46-.91,1.46-2.52,0-1.99-1.25-2.83-2.74-2.83-.34,0-.74.02-1.03.07v5.45Z"/>
    <path class="cls-1" d="M189.41,34.34c1.27,0,2.86.53,3.46,1.15,0,.6-.38,1.58-1.22,1.54-.55-.29-1.58-.6-2.35-.6-1.27,0-2.18.6-2.18,1.66,0,1.13.79,1.7,3.02,2.98,2.16,1.22,3.38,2.14,3.38,4.42,0,2.98-2.59,4.58-5.42,4.58-1.66,0-2.88-.48-3.5-.94-.41-.26-.55-.5-.55-.82,0-.5.36-1.39.58-1.54.86.6,2.3,1.13,3.46,1.13,1.44,0,2.45-.62,2.45-1.85,0-1.06-.55-1.66-2.98-2.98-2.78-1.51-3.26-3.05-3.26-4.49,0-1.63,1.15-4.25,5.11-4.25h.02Z"/>
    <path class="cls-1" d="M208.83,34.34c4.85,0,7.66,3.5,7.66,7.73s-2.67,7.99-7.75,7.99c-5.54,0-7.73-4.1-7.73-7.73,0-4.54,2.9-7.99,7.8-7.99h.02ZM208.54,36.21c-2.35,0-4.3,1.9-4.3,5.83s2.18,6.14,4.7,6.14c2.69,0,4.34-2.16,4.34-5.9,0-3.41-1.75-6.07-4.73-6.07h-.02Z"/>
    <path class="cls-1" d="M219.6,37.6c0-1.06-.02-1.7-.07-2.54.43-.12,1.85-.31,2.9-.36.86-.02,4.94,0,6.1,0-.19,1.08-.53,1.54-.84,1.85-.31.14-.82.14-1.87.14h-3.22v4.78h5.42c-.24,1.82-.82,1.99-1.75,1.99h-3.67c0,2.4.02,4.39.07,6.19-.41.12-1.61.19-2.54.19-.36,0-.53-.07-.53-.46v-11.79Z"/>
    <path class="cls-1" d="M230.98,37.6c0-1.06-.02-1.7-.07-2.54.43-.12,1.85-.31,2.9-.36.86-.02,4.94,0,6.1,0-.19,1.08-.53,1.54-.84,1.85-.31.14-.82.14-1.87.14h-3.22v4.78h5.42c-.24,1.82-.82,1.99-1.75,1.99h-3.67c0,2.4.02,4.39.07,6.19-.41.12-1.61.19-2.54.19-.36,0-.53-.07-.53-.46v-11.79Z"/>
    <path class="cls-1" d="M242.36,37.84c0-1.61-.02-2.59-.07-3.05.43-.07,2.09-.19,2.59-.19.41,0,.48.22.48,1.3v10.8c0,1.68.05,2.47.07,2.95-.41.12-2.02.19-2.57.19-.36,0-.5-.07-.5-.48v-11.52Z"/>
    <path class="cls-1" d="M261.2,47.35c-.07.82-.38,1.51-.79,1.9-.6.38-1.87.82-3.48.82-5.47,0-8.42-3.12-8.42-7.7,0-4.97,3.77-8.02,8.52-8.02,2.28,0,4.03.77,4.42,1.2.05.82-.5,1.63-1.27,1.51-.72-.31-1.85-.65-3.17-.65-2.9,0-5.28,1.9-5.28,5.74,0,3.26,2.09,5.76,5.9,5.76,1.61,0,2.88-.41,3.5-.6l.07.05Z"/>
    <path class="cls-1" d="M263.96,38.06c0-1.15,0-2.02-.07-3.02.67-.17,1.73-.31,2.71-.34h5.83c-.14,1.08-.43,1.54-.72,1.85-.36.14-1.18.14-2.26.14h-2.5v4.3h5.23c-.22,1.68-.74,1.99-1.58,1.99h-3.65v4.7c.55.12,1.32.17,2.23.17.98,0,2.74,0,3.89-.1l.05.05c-.22,1.03-.67,1.58-1.27,1.92-.34.07-1.42.12-3.26.12-2.11,0-3.7-.12-4.27-.24l-.36-.46v-11.09Z"/>
  </g>
</svg>