<?xml version="1.0" encoding="UTF-8"?>
<svg id="Layer_1" data-name="Layer 1" xmlns="http://www.w3.org/2000/svg" xmlns:xlink="http://www.w3.org/1999/xlink" viewBox="0 0 345.87 173.48">
  <defs>
    <style>
      .cls-1 {
        fill: none;
      }

      .cls-2 {
        fill: #6e6f72;
      }

      .cls-3 {
        fill: #010101;
      }

      .cls-4 {
        fill: #cf202a;
      }

      .cls-5 {
        fill: #fff;
      }

      .cls-6 {
        fill: #818285;
      }

      .cls-7 {
        clip-path: url(#clippath);
      }
    </style>
    <clipPath id="clippath">
      <path class="cls-1" d="M121.03,60.15c0,27.5,22.29,49.8,49.79,49.8s49.79-22.29,49.79-49.8-22.29-49.79-49.79-49.79-49.79,22.29-49.79,49.79"/>
    </clipPath>
  </defs>
  <g>
    <g>
      <path class="cls-6" d="M220.61,60.15c0,27.5-22.3,49.8-49.8,49.8s-49.79-22.29-49.79-49.8,22.3-49.79,49.79-49.79,49.8,22.29,49.8,49.79"/>
      <path class="cls-5" d="M220.45,64.21v-8.13c-1.84-22.8-19.04-41.26-41.25-45.02-1.52,7.42-2.2,16.83-1.81,20.18.38,3.26,1.51,6.9-2.17,9.69-3.68,2.79-6.73,6.92-9.64,10.32-2.9,3.41-6.53,6.66-3.02,10.49,3.52,3.83,7.85,2.62,7.3,5.98-.54,3.37-3.83,3.52-2.43,7.36,1.39,3.84,3.77,4.04,3.77,4.04,0,0-3.08,3.9-1.44,5.83,1.64,1.93,3.58,2.41,2.69,4.87-.89,2.46-5.91,9.89-.94,16.14,1.34,1.68,3.4,2.8,5.77,3.56,23.12-3,41.26-21.86,43.16-45.31"/>
      <path class="cls-4" d="M220.45,64.21v-8.13c-1.55-19.14-13.92-35.22-30.98-42.12-1.57,7.75-1.28,13.44-.15,21.03,1.16,7.82-.58,15.06-5.5,21.14-4.92,6.09-8.11,9.56-3.18,13.04,4.92,3.48,9.26,4.06,7.82,6.95-1.45,2.89-2.01,4.13-.98,5.93,1.02,1.8,1.79,2.57,1.79,2.57,0,0-2.82,3.86-1.28,5.9,1.54,2.06,4.62,0,5.13,4.37.36,3.05-.66,6.6.54,9.52,14.88-7.68,25.39-22.66,26.81-40.2"/>
    </g>
    <g class="cls-7">
      <path class="cls-5" d="M168.72,3.36c-1.87,2.04-4.32,3.88-5.63,4.01-1.31.13-1-1.48.86-3.5,1.85-2.02,4.56-3.7,5.88-3.85,1.32-.15.75,1.31-1.12,3.35"/>
      <path class="cls-5" d="M161.4,12.53c-1.53,2.23-3.69,4.17-4.98,4.28-1.29.11-1.24-1.65.28-3.85,1.52-2.21,3.94-4.03,5.24-4.16,1.3-.13.99,1.51-.54,3.73"/>
      <path class="cls-5" d="M155.55,22.41c-1.19,2.37-3.07,4.4-4.34,4.48-1.28.08-1.49-1.8-.3-4.14,1.17-2.35,3.31-4.28,4.6-4.39,1.28-.1,1.24,1.68.05,4.05"/>
      <path class="cls-5" d="M151.17,32.85c-.85,2.48-2.44,4.56-3.71,4.62-1.27.06-1.74-1.92-.9-4.38.84-2.46,2.69-4.47,3.96-4.55,1.28-.08,1.49,1.83.64,4.31"/>
      <path class="cls-5" d="M148.24,43.67c-.51,2.55-1.82,4.66-3.08,4.69-1.26.03-2.01-2.01-1.5-4.54.51-2.53,2.08-4.6,3.34-4.65,1.27-.05,1.75,1.95,1.24,4.5"/>
      <path class="cls-5" d="M146.78,54.72c-.17,2.59-1.2,4.69-2.46,4.69-1.26,0-2.28-2.08-2.11-4.64.17-2.56,1.46-4.65,2.72-4.68,1.26-.02,2.02,2.04,1.85,4.63"/>
      <path class="cls-5" d="M146.78,65.86c.17,2.59-.59,4.65-1.85,4.63-1.26-.03-2.55-2.12-2.72-4.68-.17-2.56.85-4.64,2.11-4.64,1.26,0,2.29,2.11,2.46,4.69"/>
      <path class="cls-5" d="M148.24,76.92c.51,2.55.03,4.55-1.24,4.5-1.27-.05-2.83-2.12-3.34-4.65-.51-2.52.24-4.57,1.5-4.54,1.26.03,2.57,2.14,3.08,4.69"/>
      <path class="cls-5" d="M151.17,87.74c.85,2.48.63,4.39-.64,4.31-1.28-.08-3.12-2.1-3.96-4.55-.84-2.46-.37-4.43.9-4.38,1.27.06,2.86,2.14,3.71,4.62"/>
      <path class="cls-5" d="M155.55,98.17c1.19,2.37,1.24,4.15-.04,4.05-1.29-.1-3.42-2.04-4.6-4.39-1.18-2.35-.97-4.23.31-4.15,1.27.08,3.14,2.11,4.34,4.48"/>
      <path class="cls-5" d="M161.4,108.05c1.53,2.22,1.84,3.86.54,3.73-1.31-.13-3.72-1.95-5.24-4.15-1.51-2.2-1.57-3.96-.28-3.85,1.29.11,3.45,2.05,4.98,4.28"/>
      <path class="cls-5" d="M168.72,117.23c1.87,2.04,2.44,3.49,1.12,3.35-1.33-.15-4.03-1.83-5.89-3.85-1.85-2.02-2.17-3.63-.86-3.5,1.31.13,3.75,1.96,5.63,4"/>
      <path class="cls-5" d="M163.12,3.95c-1.85,2.02-4.29,3.84-5.59,3.97-1.31.13-1-1.46.83-3.46,1.83-2,4.52-3.66,5.84-3.81,1.32-.15.77,1.29-1.08,3.3"/>
      <path class="cls-5" d="M155.88,13.03c-1.52,2.2-3.66,4.13-4.95,4.24-1.3.11-1.25-1.63.25-3.81,1.51-2.18,3.9-3.99,5.21-4.11,1.31-.13,1.01,1.49-.51,3.69"/>
      <path class="cls-5" d="M150.09,22.81c-1.18,2.34-3.04,4.35-4.32,4.44-1.28.08-1.49-1.78-.33-4.1,1.17-2.32,3.28-4.24,4.57-4.34,1.29-.1,1.25,1.66.07,4"/>
      <path class="cls-5" d="M145.75,33.13c-.84,2.45-2.42,4.52-3.69,4.57-1.27.06-1.75-1.9-.91-4.33.83-2.43,2.67-4.43,3.95-4.5,1.27-.08,1.5,1.81.66,4.26"/>
      <path class="cls-5" d="M142.86,43.84c-.5,2.52-1.81,4.61-3.07,4.64-1.26.03-2.01-1.99-1.51-4.49.5-2.5,2.06-4.55,3.33-4.6,1.27-.06,1.76,1.93,1.25,4.45"/>
      <path class="cls-5" d="M141.41,54.78c-.17,2.56-1.2,4.64-2.46,4.65-1.27,0-2.28-2.06-2.11-4.6.17-2.54,1.45-4.6,2.72-4.63,1.27-.03,2.02,2.02,1.85,4.58"/>
      <path class="cls-5" d="M141.41,65.8c.17,2.56-.59,4.6-1.85,4.58-1.26-.03-2.55-2.09-2.72-4.63-.17-2.54.85-4.59,2.11-4.59,1.26,0,2.29,2.08,2.46,4.64"/>
      <path class="cls-5" d="M142.86,76.74c.5,2.52.02,4.5-1.25,4.45-1.27-.06-2.83-2.1-3.33-4.6-.5-2.5.25-4.52,1.51-4.49,1.26.03,2.57,2.12,3.07,4.64"/>
      <path class="cls-5" d="M145.75,87.45c.84,2.45.61,4.34-.66,4.26-1.27-.08-3.12-2.07-3.95-4.5-.83-2.43-.36-4.39.91-4.33,1.27.06,2.85,2.12,3.69,4.58"/>
      <path class="cls-5" d="M150.09,97.77c1.18,2.35,1.22,4.11-.07,4.01-1.29-.1-3.41-2.02-4.58-4.35-1.17-2.32-.95-4.18.33-4.1,1.28.08,3.14,2.09,4.32,4.44"/>
      <path class="cls-5" d="M155.88,107.55c1.51,2.2,1.81,3.81.51,3.69-1.3-.13-3.7-1.93-5.21-4.11-1.5-2.18-1.55-3.92-.25-3.81,1.29.11,3.44,2.04,4.95,4.24"/>
      <path class="cls-5" d="M163.12,116.63c1.85,2.02,2.41,3.45,1.08,3.31-1.32-.15-4.01-1.82-5.85-3.81-1.83-2-2.13-3.59-.83-3.46,1.31.13,3.74,1.94,5.59,3.96"/>
      <path class="cls-5" d="M157.53,4.55c-1.84,2-4.25,3.8-5.56,3.93-1.31.13-1.02-1.44.8-3.42,1.81-1.97,4.48-3.62,5.81-3.77,1.32-.15.79,1.27-1.04,3.27"/>
      <path class="cls-5" d="M150.36,13.53c-1.5,2.18-3.63,4.09-4.93,4.2-1.29.11-1.26-1.61.23-3.77,1.48-2.16,3.88-3.94,5.18-4.07,1.3-.13,1.02,1.47-.48,3.65"/>
      <path class="cls-5" d="M144.64,23.21c-1.17,2.32-3.02,4.31-4.3,4.39-1.28.08-1.5-1.76-.35-4.05,1.15-2.3,3.26-4.19,4.55-4.3,1.29-.1,1.26,1.64.1,3.96"/>
      <path class="cls-5" d="M140.34,33.42c-.83,2.43-2.41,4.47-3.68,4.53-1.27.05-1.75-1.88-.93-4.28.82-2.4,2.65-4.38,3.93-4.46,1.28-.08,1.51,1.79.68,4.21"/>
      <path class="cls-5" d="M137.48,44.02c-.5,2.5-1.8,4.56-3.07,4.59-1.26.03-2.01-1.97-1.51-4.44.5-2.47,2.05-4.5,3.32-4.55,1.27-.05,1.76,1.91,1.27,4.41"/>
      <path class="cls-5" d="M136.04,54.84c-.17,2.54-1.2,4.59-2.46,4.6-1.26,0-2.27-2.03-2.11-4.54.17-2.51,1.45-4.56,2.71-4.58,1.26-.02,2.02,2,1.86,4.53"/>
      <path class="cls-5" d="M136.04,65.74c.17,2.53-.6,4.56-1.86,4.53-1.26-.02-2.55-2.07-2.71-4.58-.17-2.51.85-4.54,2.11-4.54,1.26,0,2.29,2.06,2.46,4.59"/>
      <path class="cls-5" d="M137.48,76.57c.5,2.5,0,4.46-1.27,4.4-1.27-.05-2.82-2.08-3.32-4.55-.5-2.47.26-4.47,1.51-4.44,1.27.03,2.57,2.09,3.07,4.59"/>
      <path class="cls-5" d="M140.34,87.16c.83,2.43.6,4.29-.68,4.21-1.27-.08-3.1-2.05-3.93-4.46-.83-2.41-.34-4.34.93-4.28,1.27.05,2.84,2.1,3.68,4.52"/>
      <path class="cls-5" d="M144.63,97.38c1.17,2.32,1.2,4.06-.1,3.96-1.29-.1-3.39-2-4.55-4.3-1.15-2.3-.92-4.14.35-4.05,1.28.08,3.13,2.07,4.3,4.39"/>
      <path class="cls-5" d="M150.36,107.05c1.49,2.18,1.78,3.77.48,3.65-1.31-.13-3.7-1.91-5.18-4.07-1.48-2.16-1.51-3.88-.23-3.77,1.29.11,3.43,2.02,4.93,4.19"/>
      <path class="cls-5" d="M157.52,116.04c1.83,2,2.37,3.42,1.05,3.27-1.32-.15-4-1.8-5.81-3.78-1.82-1.98-2.1-3.55-.79-3.42,1.31.13,3.72,1.93,5.56,3.92"/>
      <path class="cls-5" d="M151.93,5.14c-1.82,1.98-4.22,3.76-5.53,3.89-1.31.13-1.04-1.42.76-3.38,1.79-1.95,4.45-3.59,5.77-3.73,1.32-.15.8,1.26-1.01,3.23"/>
      <path class="cls-5" d="M144.84,14.03c-1.48,2.16-3.61,4.05-4.9,4.15-1.29.11-1.27-1.59.2-3.73,1.47-2.14,3.84-3.9,5.15-4.03,1.31-.13,1.04,1.45-.45,3.6"/>
      <path class="cls-5" d="M139.18,23.6c-1.15,2.29-3,4.26-4.28,4.35-1.28.08-1.51-1.74-.37-4.01,1.14-2.27,3.24-4.15,4.53-4.25,1.29-.1,1.27,1.63.12,3.92"/>
      <path class="cls-5" d="M134.93,33.71c-.82,2.4-2.39,4.42-3.67,4.48-1.27.06-1.76-1.85-.94-4.24.81-2.38,2.63-4.33,3.91-4.41,1.27-.08,1.52,1.77.69,4.17"/>
      <path class="cls-5" d="M132.09,44.19c-.49,2.47-1.79,4.51-3.06,4.54-1.26.03-2.01-1.95-1.53-4.39.49-2.45,2.04-4.46,3.31-4.51,1.27-.05,1.77,1.89,1.27,4.36"/>
      <path class="cls-5" d="M130.67,54.9c-.17,2.51-1.2,4.54-2.46,4.55-1.26,0-2.28-2.01-2.12-4.5.17-2.48,1.44-4.5,2.71-4.53,1.26-.03,2.02,1.98,1.86,4.48"/>
      <path class="cls-5" d="M130.67,65.68c.17,2.5-.6,4.51-1.86,4.48-1.27-.02-2.54-2.05-2.71-4.53-.16-2.48.85-4.5,2.11-4.5,1.26,0,2.29,2.04,2.45,4.54"/>
      <path class="cls-5" d="M132.09,76.39c.49,2.47,0,4.41-1.27,4.35-1.27-.05-2.82-2.05-3.31-4.5-.49-2.44.26-4.42,1.53-4.39,1.26.03,2.56,2.07,3.06,4.54"/>
      <path class="cls-5" d="M134.93,86.88c.82,2.4.58,4.24-.69,4.17-1.28-.08-3.1-2.03-3.91-4.41-.82-2.38-.33-4.3.94-4.24,1.27.06,2.84,2.08,3.67,4.48"/>
      <path class="cls-5" d="M139.18,96.98c1.15,2.3,1.17,4.02-.12,3.92-1.29-.1-3.39-1.98-4.53-4.26-1.14-2.27-.91-4.09.37-4.01,1.28.08,3.12,2.05,4.28,4.35"/>
      <path class="cls-5" d="M144.84,106.55c1.48,2.15,1.75,3.73.45,3.6-1.3-.13-3.68-1.9-5.15-4.03-1.47-2.14-1.49-3.83-.19-3.73,1.29.11,3.41,2,4.9,4.15"/>
      <path class="cls-5" d="M151.93,115.44c1.81,1.97,2.33,3.38,1.01,3.23-1.32-.15-3.98-1.78-5.77-3.74-1.79-1.96-2.06-3.51-.76-3.38,1.31.13,3.71,1.91,5.52,3.88"/>
      <path class="cls-5" d="M146.33,5.74c-1.79,1.96-4.18,3.72-5.49,3.85-1.31.13-1.05-1.4.73-3.34,1.78-1.94,4.41-3.55,5.73-3.7,1.33-.15.82,1.24-.97,3.19"/>
      <path class="cls-5" d="M139.32,14.53c-1.47,2.13-3.58,4-4.87,4.11-1.29.11-1.28-1.57.17-3.69,1.46-2.11,3.81-3.86,5.11-3.99,1.31-.13,1.05,1.43-.42,3.56"/>
      <path class="cls-5" d="M133.72,24c-1.14,2.27-2.98,4.22-4.26,4.3-1.28.08-1.52-1.72-.39-3.97,1.13-2.25,3.21-4.11,4.5-4.21,1.29-.1,1.28,1.6.15,3.87"/>
      <path class="cls-5" d="M129.51,33.99c-.81,2.37-2.38,4.38-3.65,4.43-1.27.06-1.76-1.84-.96-4.19.81-2.35,2.62-4.29,3.9-4.37,1.28-.08,1.53,1.75.71,4.12"/>
      <path class="cls-5" d="M126.71,44.36c-.49,2.44-1.79,4.46-3.05,4.5-1.27.03-2.02-1.93-1.53-4.35.48-2.42,2.03-4.41,3.29-4.46,1.27-.05,1.78,1.87,1.29,4.31"/>
      <path class="cls-5" d="M125.31,54.96c-.17,2.48-1.2,4.49-2.46,4.5-1.26,0-2.27-1.99-2.11-4.45.16-2.46,1.44-4.46,2.7-4.48,1.26-.02,2.03,1.95,1.87,4.43"/>
      <path class="cls-5" d="M125.31,65.62c.16,2.48-.61,4.46-1.87,4.43-1.26-.03-2.54-2.03-2.7-4.48-.16-2.46.85-4.45,2.11-4.45,1.26,0,2.29,2.01,2.46,4.49"/>
      <path class="cls-5" d="M126.71,76.22c.49,2.44-.02,4.36-1.29,4.31-1.27-.05-2.81-2.04-3.29-4.46-.49-2.42.27-4.37,1.53-4.35,1.26.03,2.56,2.05,3.05,4.49"/>
      <path class="cls-5" d="M129.51,86.59c.82,2.38.57,4.2-.71,4.12-1.28-.08-3.09-2.01-3.9-4.36-.81-2.36-.31-4.25.96-4.19,1.27.06,2.83,2.06,3.65,4.43"/>
      <path class="cls-5" d="M133.72,96.58c1.14,2.27,1.15,3.98-.14,3.87-1.29-.1-3.37-1.96-4.5-4.21-1.13-2.25-.89-4.05.39-3.97,1.28.08,3.11,2.03,4.26,4.3"/>
      <path class="cls-5" d="M139.32,106.05c1.47,2.13,1.72,3.69.42,3.56-1.3-.13-3.66-1.88-5.11-3.99-1.46-2.11-1.46-3.79-.17-3.68,1.29.11,3.4,1.98,4.87,4.11"/>
      <path class="cls-5" d="M146.33,114.85c1.79,1.95,2.3,3.34.97,3.2-1.32-.15-3.96-1.77-5.73-3.7-1.78-1.93-2.03-3.47-.73-3.34,1.31.13,3.7,1.89,5.49,3.85"/>
    </g>
  </g>
  <g>
    <path class="cls-3" d="M11.58,148.76c0,.38-.07.61-.21.71-.14.1-.36.15-.66.15h-.87c-.61,0-1.13-.09-1.57-.28-.44-.19-.79-.5-1.03-.94h-2.02c-1.72,0-3-.34-3.82-1.03-.83-.68-1.25-1.69-1.25-3.01,0-1.56.47-2.71,1.41-3.43.94-.72,2.24-1.08,3.9-1.08.19,0,.43,0,.71.02.29.02.59.03.89.06.3.02.6.05.87.08.28.03.53.06.73.09v6.14c0,.51.1.94.3,1.29.19.35.61.52,1.25.52h.5c.29,0,.51.04.65.12.14.09.22.28.22.6M2.04,144.18c0,.96.31,1.66.91,2.08.61.42,1.48.63,2.61.63h1.28v-5.44c-.35-.04-.66-.07-.95-.09-.28-.01-.46-.02-.53-.02-1.01,0-1.82.22-2.42.66-.6.43-.91,1.17-.91,2.19M2.23,137.02c0-.33.11-.61.34-.85.23-.23.5-.35.82-.35s.59.12.82.35c.22.23.34.52.34.85s-.11.61-.34.85c-.22.23-.49.35-.82.35s-.59-.12-.82-.35c-.22-.23-.34-.51-.34-.85M5.06,137.02c0-.33.11-.61.34-.85.22-.23.49-.35.81-.35s.59.12.82.35c.22.23.34.52.34.85s-.11.61-.34.85c-.23.23-.5.35-.82.35s-.59-.12-.81-.35c-.23-.23-.34-.51-.34-.85"/>
    <path class="cls-3" d="M10.73,149.62c-.29,0-.51-.05-.65-.16-.15-.11-.22-.32-.22-.63,0-.38.07-.6.21-.68.14-.08.36-.11.66-.11h1.52c.59,0,.98-.14,1.15-.42.17-.28.26-.74.26-1.37v-6.23h1.82v7.25c0,.14.05.25.15.35.1.1.23.18.38.24.15.06.31.11.49.13.18.03.32.05.46.05h.57c.29,0,.51.04.65.12.14.08.21.28.21.6,0,.38-.07.61-.21.71-.14.1-.36.15-.66.15h-.39c-.42,0-.79-.07-1.12-.21-.33-.14-.61-.4-.84-.76-.17.24-.45.46-.83.67-.38.2-.94.31-1.69.31h-1.93ZM11.9,152.47c0-.33.11-.61.34-.85.23-.23.5-.35.82-.35s.59.12.82.35c.22.23.34.52.34.85s-.11.61-.34.85c-.23.23-.5.35-.82.35s-.59-.12-.82-.35c-.22-.23-.34-.52-.34-.85M14.73,152.47c0-.33.11-.61.34-.85.22-.23.49-.35.81-.35s.59.12.82.35c.23.23.34.52.34.85s-.11.61-.34.85c-.22.23-.5.35-.82.35s-.59-.12-.81-.35c-.23-.23-.34-.52-.34-.85"/>
    <path class="cls-3" d="M20.62,148.04c-.17-.42-.36-.95-.54-1.59-.19-.64-.28-1.34-.28-2.11,0-.62.1-1.2.3-1.75.2-.55.5-1.03.89-1.43.39-.41.88-.73,1.46-.97.58-.24,1.24-.36,1.98-.36.83,0,1.52.14,2.09.43.57.28,1.02.66,1.37,1.12.35.46.6.97.75,1.53.15.57.23,1.12.23,1.66,0,.66-.1,1.3-.28,1.91-.19.61-.46,1.15-.83,1.61-.36.47-.81.84-1.36,1.12-.54.28-1.17.42-1.88.42h-6.98c-.29,0-.5-.05-.65-.16-.14-.1-.22-.32-.22-.63,0-.38.07-.6.21-.68.14-.08.36-.11.66-.11h3.09ZM24.31,148.04c.46,0,.86-.1,1.2-.3.33-.2.61-.47.83-.79.22-.32.38-.69.48-1.11.1-.41.15-.83.15-1.23,0-.96-.22-1.75-.67-2.36-.44-.61-1.09-.92-1.94-.92-.33,0-.66.06-.99.17-.32.11-.61.29-.86.54-.25.25-.45.57-.6.96-.15.39-.23.86-.23,1.4,0,.39.03.76.1,1.12.07.35.15.69.24,1,.1.32.19.6.29.86.1.26.2.47.28.66h1.72Z"/>
    <path class="cls-3" d="M39.81,149.62c-.03.62-.12,1.17-.28,1.66-.16.49-.41.9-.74,1.24-.34.34-.77.6-1.32.78-.54.18-1.21.27-2.01.27h-2.65v-1.51h2.65c.87,0,1.5-.19,1.88-.58.38-.38.6-1.01.64-1.86h-1.28c-1.15,0-2.07-.16-2.76-.47-.7-.32-1.24-.72-1.62-1.2-.39-.48-.64-1-.77-1.57-.13-.57-.19-1.1-.19-1.59,0-.74.11-1.41.34-2.01.22-.6.57-1.12,1.04-1.56.47-.44,1.07-.78,1.81-1.02.74-.24,1.63-.36,2.66-.36.38,0,.81.02,1.29.07.49.04.93.08,1.33.11v8.01h2.02c.29,0,.51.04.66.12.14.08.22.28.22.6,0,.38-.07.61-.21.71-.14.1-.36.15-.67.15h-2.03ZM33.18,144.79c0,.6.09,1.11.26,1.52.18.41.42.75.75,1.01.32.26.71.44,1.16.55.45.11.95.17,1.51.17h1.15v-6.66c-.12-.02-.24-.02-.37-.03-.13,0-.26-.01-.39-.01-.42,0-.86.03-1.34.08-.48.06-.92.2-1.32.43-.4.23-.74.58-1.01,1.04-.27.46-.4,1.09-.4,1.91"/>
    <path class="cls-3" d="M53.26,147.27c0,.14.05.25.15.35.11.1.23.18.38.24.15.06.31.1.48.13.18.03.33.05.46.05h.42c.29,0,.51.04.66.12.15.08.22.28.22.6,0,.38-.07.61-.21.71-.14.1-.36.15-.67.15h-.24c-.42,0-.8-.07-1.13-.22-.33-.14-.61-.39-.84-.75-.17.24-.45.46-.82.67-.37.2-.93.3-1.69.3h-8.58c-.29,0-.51-.06-.65-.16-.15-.1-.22-.31-.22-.63,0-.38.07-.6.21-.68.13-.07.36-.11.66-.11h8.17c.59,0,.98-.14,1.15-.42.17-.28.26-.74.26-1.37v-.68c0-.78-.09-1.44-.27-1.96-.18-.53-.45-.94-.82-1.24-.37-.3-.85-.51-1.43-.64-.59-.13-1.28-.19-2.08-.19h-3.78v-1.51l6.15-6.84,1.19,1.15-5.09,5.69h1.65c1,0,1.89.09,2.67.26.78.17,1.44.46,1.98.85.54.39.95.92,1.23,1.58.28.66.42,1.49.42,2.48v2.08Z"/>
    <path class="cls-3" d="M62.36,148.04c-.23-.38-.39-.8-.49-1.29-.09-.48-.17-.97-.23-1.47-.06-.5-.12-.98-.2-1.45-.07-.47-.2-.88-.4-1.25-.2-.37-.47-.67-.83-.89-.36-.23-.84-.34-1.47-.34-.56,0-1.05.05-1.46.14-.41.1-.72.19-.96.26v-1.42c.26-.12.62-.24,1.08-.35.45-.11.99-.17,1.6-.17.94,0,1.69.15,2.25.46.56.31.99.71,1.3,1.2.31.49.52,1.04.64,1.65.12.61.21,1.22.29,1.83.08.61.17,1.18.27,1.73.1.54.29.99.57,1.35h1.28c.29,0,.51.04.65.12.15.08.22.28.22.6,0,.38-.07.61-.21.71-.14.1-.36.15-.66.15h-10.47c-.58,0-.87-.3-.87-.91,0-.27.07-.45.21-.54.14-.09.36-.14.66-.14h7.22Z"/>
    <path class="cls-3" d="M65.62,149.62c-.29,0-.5-.05-.65-.16-.14-.11-.22-.32-.22-.63,0-.38.07-.6.21-.68.14-.08.36-.11.66-.11h2.72v-14.74h1.83v16.33h-4.54Z"/>
    <rect class="cls-3" x="73.75" y="133.3" width="1.82" height="16.33"/>
    <path class="cls-3" d="M96.46,148.76c0,.38-.07.61-.21.71-.13.1-.36.15-.66.15h-.87c-.61,0-1.13-.09-1.57-.28-.44-.19-.78-.5-1.03-.94h-2.01c-1.72,0-3-.34-3.83-1.03-.83-.68-1.25-1.69-1.25-3.01,0-1.56.47-2.71,1.41-3.43.94-.72,2.24-1.08,3.9-1.08.19,0,.43,0,.72.02.29.02.59.03.89.06.3.02.59.05.88.08.28.03.53.06.73.09v6.14c0,.51.1.94.3,1.29.19.35.61.52,1.25.52h.5c.29,0,.51.04.65.12.14.09.21.28.21.6M86.92,144.18c0,.96.3,1.66.91,2.08.61.42,1.48.63,2.61.63h1.28v-5.44c-.35-.04-.66-.07-.94-.09-.28-.01-.46-.02-.53-.02-1.01,0-1.82.22-2.42.66-.6.43-.91,1.17-.91,2.19M87.12,137.02c0-.33.11-.61.34-.85.23-.23.5-.35.81-.35s.59.12.82.35c.22.23.34.52.34.85s-.11.61-.34.85c-.23.23-.5.35-.82.35s-.59-.12-.81-.35c-.23-.23-.34-.51-.34-.85M89.94,137.02c0-.33.11-.61.34-.85.23-.23.5-.35.82-.35s.59.12.82.35c.22.23.34.52.34.85s-.11.61-.34.85c-.23.23-.5.35-.82.35s-.59-.12-.82-.35c-.22-.23-.34-.51-.34-.85"/>
    <path class="cls-3" d="M95.61,149.62c-.29,0-.5-.05-.65-.16-.15-.11-.22-.32-.22-.63,0-.53.29-.79.87-.79h2.72v-8.02h1.82v9.6h-4.54ZM96.03,152.47c0-.33.11-.61.34-.85.22-.23.5-.35.81-.35s.59.12.82.35c.22.23.34.52.34.85s-.11.61-.34.85c-.22.23-.5.35-.82.35s-.59-.12-.81-.35c-.23-.23-.34-.52-.34-.85M98.85,152.47c0-.33.11-.61.34-.85.22-.23.5-.35.81-.35s.59.12.82.35c.22.23.34.52.34.85s-.11.61-.34.85c-.22.23-.5.35-.82.35s-.59-.12-.81-.35c-.22-.23-.34-.52-.34-.85"/>
    <path class="cls-3" d="M104.78,140.03h1.83v8.02h2.01c.29,0,.51.04.66.12.15.08.22.28.22.6,0,.38-.07.61-.21.71-.14.1-.36.15-.67.15h-2.04c-.03.58-.11,1.12-.24,1.6-.13.48-.34.9-.64,1.24-.3.35-.7.62-1.2.81-.51.2-1.14.29-1.89.29h-.39v-1.58h.24c.89,0,1.5-.22,1.83-.66.33-.44.49-1.14.49-2.1v-9.21Z"/>
    <path class="cls-3" d="M108.61,149.62c-.29,0-.51-.06-.65-.16-.14-.1-.22-.31-.22-.63,0-.38.07-.6.2-.68.14-.08.36-.11.66-.11h3.59v-5.98h1.82v5.98h3.8v-5.98h1.82v5.98h2.35c.59,0,.97-.14,1.15-.42.18-.28.26-.74.26-1.37v-6.23h1.83v7.25c0,.14.05.25.15.35.1.1.23.17.38.24.15.06.32.1.49.13.17.03.33.04.46.04h.59c.29,0,.51.04.65.12.14.09.22.28.22.6,0,.38-.07.61-.21.71s-.36.15-.66.15h-.41c-.42,0-.8-.07-1.12-.22-.32-.14-.6-.4-.84-.76-.17.24-.45.46-.83.67-.38.2-.94.3-1.7.3h-13.8ZM116.28,137.02c0-.33.11-.61.34-.85.22-.23.49-.35.82-.35s.59.12.82.35c.22.23.34.52.34.85s-.11.61-.34.85c-.22.23-.5.35-.82.35s-.59-.12-.82-.35c-.22-.23-.34-.51-.34-.85M117.74,134.31c0-.33.11-.61.34-.85.22-.23.5-.35.82-.35s.59.12.82.35c.22.23.34.52.34.85s-.11.61-.34.85c-.22.23-.5.35-.82.35s-.59-.11-.82-.35c-.22-.23-.34-.52-.34-.85M119.11,137.02c0-.33.11-.61.34-.85.23-.23.5-.35.82-.35s.59.12.82.35c.22.23.34.52.34.85s-.11.61-.34.85c-.22.23-.5.35-.82.35s-.59-.12-.82-.35c-.22-.23-.34-.51-.34-.85"/>
    <path class="cls-3" d="M127.3,149.62c-.29,0-.51-.05-.65-.16-.14-.11-.22-.32-.22-.63,0-.38.07-.6.21-.68.14-.08.36-.11.66-.11h1.52c.59,0,.98-.14,1.15-.42.17-.28.26-.74.26-1.37v-6.23h1.83v7.25c0,.14.05.25.15.35.1.1.23.18.38.24.15.06.32.1.49.13.18.03.32.04.46.04h.57c.29,0,.51.04.65.12.15.09.22.28.22.6,0,.38-.07.61-.2.71-.14.1-.36.15-.66.15h-.39c-.42,0-.79-.07-1.12-.21-.32-.14-.61-.4-.84-.75-.17.24-.45.46-.82.66-.38.21-.94.3-1.7.3h-1.93ZM129.91,152.4c0-.33.11-.61.34-.85.22-.23.5-.35.82-.35s.59.12.82.35c.23.23.34.51.34.85s-.11.61-.34.85c-.22.23-.49.35-.82.35s-.59-.12-.82-.35c-.22-.23-.34-.51-.34-.85"/>
    <path class="cls-3" d="M134.1,149.62c-.29,0-.51-.05-.65-.16-.14-.11-.22-.32-.22-.63,0-.38.07-.6.21-.68.14-.08.36-.11.66-.11h2.72v-14.74h1.83v16.33h-4.54Z"/>
    <rect class="cls-3" x="142.23" y="133.3" width="1.82" height="16.33"/>
    <path class="cls-3" d="M154.42,141.54v-1.51h1.87c1.23,0,2.24.12,3.02.37.78.25,1.39.6,1.82,1.05.43.45.72.99.88,1.62.16.63.24,1.34.24,2.12v4.43h-9.17v-1.58h7.34v-2.46c0-.58-.04-1.13-.11-1.62-.08-.5-.25-.92-.54-1.28-.28-.35-.7-.63-1.27-.83-.56-.2-1.35-.31-2.35-.31h-1.74Z"/>
    <path class="cls-3" d="M166.46,140.03h1.83v9.19c0,.63-.06,1.21-.17,1.75-.12.53-.32.99-.62,1.38-.3.38-.71.68-1.23.9-.52.22-1.18.33-1.98.33h-.39v-1.58h.24c.89,0,1.5-.22,1.83-.66.33-.44.49-1.14.49-2.1v-9.21Z"/>
    <rect class="cls-3" x="171.65" y="133.3" width="1.83" height="16.33"/>
    <path class="cls-3" d="M185.09,149.62c-.03.62-.12,1.17-.28,1.66-.16.49-.4.9-.74,1.24-.34.34-.78.6-1.32.78-.54.18-1.21.27-2.01.27h-2.65v-1.51h2.65c.87,0,1.5-.19,1.88-.58.38-.38.6-1.01.64-1.86h-1.28c-1.15,0-2.06-.16-2.76-.47-.7-.32-1.23-.72-1.62-1.2-.39-.48-.64-1-.77-1.57-.13-.57-.19-1.1-.19-1.59,0-.74.11-1.41.34-2.01.22-.6.57-1.12,1.04-1.56.47-.44,1.07-.78,1.81-1.02.74-.24,1.63-.36,2.66-.36.38,0,.8.02,1.29.07.48.04.93.08,1.33.11v8.01h2.02c.29,0,.51.04.66.12.14.08.22.28.22.6,0,.38-.07.61-.21.71-.13.1-.36.15-.67.15h-2.03ZM178.46,144.79c0,.6.09,1.11.26,1.52.17.41.42.75.75,1.01.32.26.71.44,1.16.55.45.11.95.17,1.51.17h1.15v-6.66c-.11-.02-.24-.02-.37-.03-.13,0-.26-.01-.39-.01-.42,0-.87.03-1.34.08-.47.06-.91.2-1.32.43-.4.23-.74.58-1.01,1.04-.27.46-.4,1.09-.4,1.91"/>
    <path class="cls-3" d="M190.95,151.5c-.09-.2-.2-.46-.34-.78-.14-.32-.29-.69-.45-1.09h-3.06c-.29,0-.51-.05-.65-.16-.15-.11-.22-.32-.22-.63,0-.38.07-.6.21-.68.14-.08.36-.11.66-.11h2.59c-.07-.3-.13-.6-.16-.9-.04-.3-.06-.61-.06-.92,0-.62.1-1.2.3-1.75.21-.55.5-1.03.89-1.43.39-.41.88-.73,1.45-.97.58-.24,1.24-.36,1.98-.36.83,0,1.52.14,2.09.43.57.29,1.03.66,1.37,1.12.35.46.6.97.75,1.53.15.57.23,1.12.23,1.66,0,.57-.07,1.11-.19,1.6h1.71c.29,0,.51.04.65.12.15.08.22.28.22.6,0,.38-.07.61-.21.71-.14.1-.36.15-.66.15h-2.39c-.38.57-.85,1.03-1.42,1.36-.57.34-1.26.51-2.06.51h-3.24ZM193.99,149.92c.46,0,.86-.1,1.2-.3.33-.2.61-.47.83-.79.22-.32.38-.69.48-1.11.1-.42.15-.83.15-1.23,0-.96-.22-1.75-.66-2.36-.44-.61-1.09-.92-1.94-.92-.33,0-.66.06-.99.17-.33.11-.61.29-.86.54-.25.25-.45.57-.6.96-.15.39-.23.86-.23,1.4,0,.39.03.76.1,1.12.07.35.15.69.24,1,.09.32.19.6.29.86.1.26.19.48.28.66h1.72Z"/>
    <path class="cls-3" d="M200.04,149.62c-.29,0-.51-.05-.65-.16-.14-.11-.22-.32-.22-.63,0-.38.07-.6.21-.68.14-.08.36-.11.66-.11h1.52c.6,0,.98-.14,1.15-.42.17-.28.26-.74.26-1.37v-12.96h1.82v13.98c0,.14.05.25.15.35.1.1.23.18.38.24.15.06.32.1.49.13.17.03.32.05.45.05h.57c.29,0,.51.04.65.12.15.08.22.28.22.6,0,.38-.07.61-.21.71-.14.1-.36.15-.66.15h-.39c-.42,0-.79-.07-1.12-.22-.32-.14-.6-.39-.83-.75-.18.24-.45.46-.83.67-.38.2-.94.3-1.69.3h-1.93Z"/>
    <path class="cls-3" d="M206.84,149.62c-.29,0-.51-.05-.65-.16-.14-.11-.22-.32-.22-.63,0-.38.07-.6.21-.68.14-.08.36-.11.66-.11h2.72v-14.74h1.83v16.33h-4.54Z"/>
    <path class="cls-3" d="M232.16,148.76c0,.38-.07.61-.21.71-.13.1-.36.15-.66.15h-.87c-.61,0-1.13-.09-1.58-.28-.44-.19-.78-.5-1.03-.94h-2.01c-1.72,0-3-.34-3.82-1.03-.83-.68-1.25-1.69-1.25-3.01,0-1.56.47-2.71,1.41-3.43.94-.72,2.24-1.08,3.9-1.08.19,0,.43,0,.72.02.29.02.58.03.89.06.3.02.59.05.87.08.28.03.53.06.73.09v6.14c0,.51.1.94.29,1.29.19.35.61.52,1.25.52h.5c.29,0,.51.04.65.12.15.09.22.28.22.6M222.62,144.18c0,.96.3,1.66.91,2.08.61.42,1.48.63,2.61.63h1.28v-5.44c-.35-.04-.66-.07-.94-.09-.28-.01-.46-.02-.53-.02-1.01,0-1.82.22-2.42.66-.6.43-.9,1.17-.9,2.19M222.81,137.02c0-.33.11-.61.34-.85.23-.23.5-.35.82-.35s.59.12.82.35c.22.23.33.52.33.85s-.11.61-.33.85c-.23.23-.5.35-.82.35s-.59-.12-.82-.35c-.22-.23-.34-.51-.34-.85M225.64,137.02c0-.33.11-.61.34-.85.22-.23.5-.35.81-.35s.59.12.82.35c.23.23.34.52.34.85s-.11.61-.34.85c-.22.23-.5.35-.82.35s-.59-.12-.81-.35c-.23-.23-.34-.51-.34-.85"/>
    <path class="cls-3" d="M231.31,149.62c-.29,0-.51-.05-.65-.16-.14-.11-.22-.32-.22-.63,0-.53.29-.79.87-.79h2.72v-8.02h1.83v9.6h-4.54ZM231.72,152.47c0-.33.11-.61.34-.85.23-.23.5-.35.82-.35s.59.12.82.35c.22.23.34.52.34.85s-.11.61-.34.85c-.23.23-.5.35-.82.35s-.59-.12-.82-.35c-.22-.23-.34-.52-.34-.85M234.55,152.47c0-.33.11-.61.34-.85.22-.23.5-.35.81-.35s.59.12.82.35c.23.23.34.52.34.85s-.11.61-.34.85c-.22.23-.5.35-.82.35s-.59-.12-.81-.35c-.23-.23-.34-.52-.34-.85"/>
    <path class="cls-3" d="M239.69,141.54v-1.51h1.87c1.23,0,2.24.12,3.02.37.78.25,1.39.6,1.82,1.05.43.45.72.99.88,1.62.16.63.24,1.34.24,2.12v4.43h-9.17v-1.58h7.34v-2.46c0-.58-.04-1.13-.11-1.62-.08-.5-.25-.92-.53-1.28-.28-.35-.71-.63-1.27-.83-.57-.2-1.35-.31-2.35-.31h-1.74Z"/>
    <path class="cls-3" d="M255.28,148.76c0,.38-.08.61-.22.71-.15.1-.37.15-.68.15h-.83c-.93,0-1.67-.24-2.24-.71-.57-.47-.85-1.27-.85-2.4v-13.21h1.82v12.94c0,.59.09,1.04.28,1.34.19.31.6.46,1.24.46h.56c.29,0,.51.04.66.12.15.08.23.28.23.6"/>
    <path class="cls-3" d="M261.6,148.04c-.23-.38-.39-.8-.49-1.29-.09-.48-.17-.97-.23-1.47-.06-.5-.13-.98-.2-1.45-.07-.47-.21-.88-.4-1.25-.2-.37-.47-.67-.83-.89-.36-.23-.84-.34-1.47-.34-.56,0-1.05.05-1.46.14-.4.1-.73.19-.96.26v-1.42c.26-.12.62-.24,1.07-.35.46-.11.99-.17,1.6-.17.94,0,1.69.15,2.25.46.56.31.99.71,1.31,1.2.31.49.52,1.04.64,1.65.12.61.21,1.22.29,1.83.08.61.17,1.18.27,1.73.1.54.29.99.57,1.35h1.28c.29,0,.51.04.65.12.15.08.22.28.22.6,0,.38-.07.61-.21.71-.14.1-.36.15-.66.15h-10.48c-.58,0-.87-.3-.87-.91,0-.27.07-.45.21-.54.14-.09.36-.14.66-.14h7.22Z"/>
    <path class="cls-3" d="M264.86,149.62c-.29,0-.51-.06-.65-.16-.14-.1-.22-.31-.22-.63,0-.53.29-.79.87-.79h2.72v-8.01h1.83v9.6h-4.54ZM265.88,137.02c0-.33.11-.61.34-.85.22-.23.49-.35.82-.35s.59.12.82.35c.22.23.34.52.34.85s-.11.61-.34.85c-.22.23-.5.35-.82.35s-.59-.12-.82-.35c-.23-.23-.34-.51-.34-.85M268.71,137.02c0-.33.11-.61.34-.85.23-.23.5-.35.82-.35s.59.12.82.35c.22.23.34.52.34.85s-.11.61-.34.85c-.23.23-.5.35-.82.35s-.59-.12-.82-.35c-.22-.23-.34-.51-.34-.85"/>
    <polygon class="cls-3" points="272.12 149.62 272.12 148.04 276.58 148.04 276.58 137.23 278.4 137.23 278.4 148.04 282.38 148.04 282.38 133.3 284.2 133.3 284.2 149.62 272.12 149.62"/>
    <rect class="cls-3" x="287.79" y="133.3" width="1.83" height="16.33"/>
    <path class="cls-3" d="M310.5,148.76c0,.38-.07.61-.21.71-.14.1-.36.15-.66.15h-.87c-.61,0-1.13-.09-1.57-.28-.44-.19-.78-.5-1.03-.94h-2.02c-1.72,0-3-.34-3.82-1.03-.83-.68-1.25-1.69-1.25-3.01,0-1.56.47-2.71,1.41-3.43.94-.72,2.24-1.08,3.9-1.08.19,0,.43,0,.72.02.29.02.58.03.88.06.31.02.6.05.88.08.28.03.53.06.73.09v6.14c0,.51.1.94.29,1.29.2.35.61.52,1.25.52h.5c.29,0,.51.04.65.12.15.09.22.28.22.6M300.96,144.18c0,.96.3,1.66.91,2.08.61.42,1.48.63,2.61.63h1.28v-5.44c-.35-.04-.66-.07-.95-.09-.28-.01-.46-.02-.53-.02-1.02,0-1.82.22-2.43.66-.6.43-.9,1.17-.9,2.19M301.15,137.02c0-.33.11-.61.34-.85.23-.23.5-.35.82-.35s.59.12.82.35c.22.23.34.52.34.85s-.11.61-.34.85c-.23.23-.5.35-.82.35s-.59-.12-.82-.35c-.22-.23-.34-.51-.34-.85M303.98,137.02c0-.33.11-.61.34-.85.22-.23.5-.35.82-.35s.59.12.82.35c.22.23.34.52.34.85s-.11.61-.34.85c-.23.23-.49.35-.82.35s-.59-.12-.82-.35c-.22-.23-.34-.51-.34-.85"/>
    <path class="cls-3" d="M309.65,149.62c-.29,0-.51-.05-.65-.16-.14-.11-.22-.32-.22-.63,0-.38.07-.6.21-.68.14-.08.36-.11.66-.11h1.52c.59,0,.98-.14,1.15-.42.17-.28.26-.74.26-1.37v-6.23h1.83v7.25c0,.14.05.25.15.35.1.1.23.18.38.24.15.06.32.11.49.13.17.03.32.05.45.05h.56c.29,0,.51.04.65.12.15.08.22.28.22.6,0,.38-.07.61-.21.71-.14.1-.36.15-.66.15h-.39c-.42,0-.79-.07-1.12-.21-.32-.14-.6-.39-.84-.76-.17.24-.45.46-.83.66-.38.21-.94.31-1.69.31h-1.93ZM316.06,138.2h-5.15v-1.11h1.17c-.16-.47-.26-.82-.29-1.06-.03-.24-.06-.47-.06-.7,0-.68.24-1.23.72-1.66.48-.43,1.17-.64,2.09-.64.13,0,.31,0,.55.01.23.01.42.02.55.03v1.08c-.07-.01-.19-.03-.36-.03-.17,0-.28-.01-.36-.01-.62,0-1.09.09-1.41.26-.32.17-.48.54-.48,1.12,0,.18.02.39.06.63.04.24.14.56.3.97h2.65v1.11Z"/>
    <path class="cls-3" d="M316.45,149.62c-.29,0-.51-.05-.65-.16-.15-.11-.22-.32-.22-.63,0-.38.07-.6.21-.68.14-.08.36-.11.66-.11h1.52c.59,0,.98-.14,1.15-.42.17-.28.26-.74.26-1.37v-6.23h1.82v7.25c0,.14.05.25.15.35.1.1.23.18.38.24.15.06.31.11.49.13.17.03.33.05.46.05h.56c.29,0,.51.04.65.12.15.08.22.28.22.6,0,.38-.07.61-.21.71-.14.1-.36.15-.66.15h-.39c-.42,0-.79-.07-1.12-.21-.33-.14-.6-.4-.84-.76-.17.24-.45.46-.83.67-.38.2-.94.31-1.7.31h-1.93ZM317.62,152.47c0-.33.11-.61.34-.85.23-.23.5-.35.82-.35s.59.12.82.35c.22.23.33.52.33.85s-.11.61-.33.85c-.23.23-.5.35-.82.35s-.59-.12-.82-.35c-.22-.23-.34-.52-.34-.85M320.45,152.47c0-.33.11-.61.34-.85.22-.23.5-.35.81-.35s.59.12.82.35c.22.23.34.52.34.85s-.11.61-.34.85c-.23.23-.5.35-.82.35s-.59-.12-.81-.35c-.23-.23-.34-.52-.34-.85"/>
    <path class="cls-3" d="M332.96,149.62c.34.35.57.74.69,1.17.13.44.19.79.19,1.06,0,.99-.32,1.81-.97,2.45-.65.64-1.65.96-3.01.96-.63,0-1.19-.08-1.7-.23-.5-.15-.93-.39-1.29-.71-.36-.32-.63-.74-.82-1.26-.19-.52-.29-1.15-.29-1.89v-1.56h-2.53c-.29,0-.5-.05-.65-.16-.15-.11-.22-.32-.22-.63,0-.38.07-.6.21-.68.14-.08.36-.11.66-.11h2.53v-3.59c0-1.46.36-2.6,1.08-3.41.72-.81,1.74-1.22,3.07-1.22.76,0,1.39.14,1.9.42.51.28.92.63,1.24,1.06.31.43.53.91.67,1.44.13.54.2,1.06.2,1.57,0,.9-.15,1.67-.45,2.28-.3.62-.62,1.1-.95,1.44h2.93c.29,0,.51.04.65.12.14.08.22.28.22.6,0,.38-.07.61-.21.71-.14.1-.36.15-.66.15h-2.49ZM329.54,148.04c.42,0,.79-.1,1.11-.3.32-.2.59-.47.8-.8.21-.33.38-.71.49-1.13.11-.42.16-.85.16-1.29s-.04-.83-.14-1.22c-.1-.39-.23-.73-.42-1.02-.19-.28-.42-.51-.71-.69-.28-.17-.61-.26-.99-.26-.26,0-.53.05-.79.15-.27.1-.51.28-.73.54-.22.26-.39.62-.52,1.06-.13.44-.19,1.01-.19,1.68v3.27h1.93ZM332.27,151.77c0-.21-.03-.44-.1-.69-.06-.25-.18-.48-.36-.7-.17-.22-.4-.4-.68-.54-.28-.14-.64-.21-1.08-.21h-2.45v1.7c0,.86.21,1.48.63,1.86.42.39,1,.58,1.74.58.45,0,.82-.06,1.12-.18.3-.12.53-.27.7-.46.18-.19.3-.4.37-.64.07-.24.11-.47.11-.7"/>
    <path class="cls-3" d="M335.45,149.62c-.29,0-.51-.05-.65-.16-.14-.11-.22-.32-.22-.63,0-.38.07-.6.21-.68.13-.08.36-.11.66-.11h2.72v-14.74h1.83v16.33h-4.54Z"/>
    <rect class="cls-3" x="343.57" y="133.3" width="1.83" height="16.33"/>
    <polygon class="cls-2" points="1.31 161.2 1.31 164.73 5.87 164.73 5.87 165.79 1.31 165.79 1.31 170.7 0 170.7 0 160.13 6.09 160.13 6.09 161.2 1.31 161.2"/>
    <path class="cls-2" d="M8.29,167.25v.15c0,.34.04.67.14.98.09.31.22.59.4.83.18.24.4.44.67.58.27.14.58.21.94.21.51,0,.92-.15,1.24-.45.32-.3.52-.71.59-1.23h1.19c-.14.87-.49,1.51-1.06,1.92-.57.41-1.25.62-2.06.62-.55,0-1.04-.09-1.44-.27-.41-.18-.75-.43-1.02-.77-.27-.33-.48-.73-.61-1.18-.14-.46-.21-.96-.21-1.5s.07-1.07.21-1.55c.13-.48.34-.89.62-1.25.28-.36.63-.63,1.05-.84.42-.2.93-.31,1.51-.31s1.09.11,1.48.34c.39.22.71.52.95.89.24.37.4.8.49,1.29.1.49.14,1,.14,1.54h-5.21ZM12.27,166.39c0-.3-.03-.59-.1-.87-.07-.28-.18-.53-.34-.74-.16-.21-.35-.39-.59-.52-.24-.13-.52-.2-.84-.2s-.61.06-.86.19c-.25.13-.45.3-.62.52-.17.22-.3.47-.4.75-.1.28-.16.57-.19.87h3.95Z"/>
    <path class="cls-2" d="M20.25,170.7l-.07-1.13c-.3.43-.63.75-.97.95-.35.2-.79.31-1.31.31s-1-.11-1.4-.32c-.39-.21-.72-.5-.97-.86-.26-.36-.44-.77-.57-1.24-.12-.47-.18-.95-.18-1.45s.06-.94.18-1.4c.12-.46.31-.86.57-1.21.25-.35.57-.64.96-.85.39-.21.84-.32,1.37-.32s.99.1,1.36.31c.37.2.69.54.97,1.01v-4.36h1.24v8.42c0,.35,0,.71,0,1.07,0,.36.02.72.03,1.08h-1.21ZM20.19,167.02c0-.35-.04-.7-.11-1.05-.07-.35-.2-.67-.37-.94-.17-.28-.39-.5-.66-.68-.27-.18-.6-.26-1-.26s-.7.09-.96.27c-.25.18-.45.41-.6.68-.15.28-.26.59-.32.94-.06.35-.09.69-.09,1.02,0,.36.03.72.1,1.06.07.35.18.66.35.93.16.27.38.49.65.66.27.17.61.26,1.02.26.38,0,.7-.09.96-.26.25-.18.46-.4.61-.68.15-.28.26-.59.32-.93.06-.34.09-.68.09-1.01"/>
    <path class="cls-2" d="M24.45,167.25v.15c0,.34.04.67.14.98.09.31.22.59.4.83.18.24.4.44.67.58.27.14.58.21.94.21.51,0,.92-.15,1.24-.45.32-.3.52-.71.59-1.23h1.18c-.14.87-.49,1.51-1.06,1.92-.57.41-1.25.62-2.06.62-.56,0-1.04-.09-1.44-.27-.41-.18-.75-.43-1.03-.77-.27-.33-.48-.73-.61-1.18-.14-.46-.21-.96-.21-1.5s.07-1.07.21-1.55c.13-.48.34-.89.62-1.25.28-.36.63-.63,1.05-.84.42-.2.93-.31,1.51-.31s1.09.11,1.48.34c.39.22.71.52.94.89.24.37.4.8.49,1.29.1.49.14,1,.14,1.54h-5.2ZM28.43,166.39c0-.3-.04-.59-.11-.87-.07-.28-.19-.53-.34-.74-.16-.21-.35-.39-.59-.52-.24-.13-.52-.2-.84-.2s-.62.06-.86.19c-.25.13-.45.3-.62.52-.17.22-.3.47-.41.75-.09.28-.16.57-.19.87h3.95Z"/>
    <path class="cls-2" d="M34.94,164.47c-.1-.01-.21-.01-.31-.01-.73,0-1.24.2-1.52.61-.28.4-.42.96-.42,1.66v3.98h-1.24v-5.22c0-.72-.02-1.44-.04-2.16h1.21l.06,1.18c.25-.44.55-.75.91-.94.36-.19.78-.28,1.26-.28.07,0,.13,0,.2,0,.07,0,.13.01.19.02v1.22c-.1-.02-.19-.03-.3-.04"/>
    <path class="cls-2" d="M41.08,170.7c-.03-.16-.06-.33-.08-.52-.02-.19-.04-.36-.05-.52-.3.45-.65.76-1.04.94-.4.17-.85.26-1.37.26-.33,0-.64-.04-.94-.13-.3-.09-.57-.22-.8-.4-.23-.18-.41-.4-.55-.68-.13-.27-.2-.6-.2-.98,0-.56.13-1,.39-1.32.27-.33.59-.57.99-.75.4-.17.84-.28,1.32-.33.48-.05.94-.07,1.37-.07.13,0,.26,0,.37,0,.12,0,.23.01.33.02v-.44c0-.56-.12-1-.35-1.32-.23-.31-.64-.47-1.22-.47-.44,0-.79.09-1.04.28-.25.19-.4.53-.45,1.02h-1.21c.02-.4.1-.74.26-1.01.16-.27.35-.49.6-.66.24-.17.52-.29.83-.36.31-.07.64-.11.97-.11.91,0,1.59.2,2.04.6.44.4.67,1.08.67,2.05v2.72c0,.49.03.93.08,1.32.05.4.1.68.15.84h-1.09ZM40.83,167c-.15-.02-.27-.03-.35-.03h-.28c-.27,0-.58.01-.92.04-.34.03-.66.1-.95.21-.3.11-.55.27-.74.49-.2.22-.3.51-.3.89,0,.22.04.42.12.6.08.18.2.32.35.44.14.12.31.21.5.26.19.06.39.09.59.09.45,0,.8-.08,1.07-.26.26-.17.45-.4.59-.68.14-.28.22-.6.26-.97.04-.36.06-.73.06-1.1"/>
    <rect class="cls-2" x="44.31" y="160.13" width="1.24" height="10.57"/>
    <path class="cls-2" d="M59.25,170.7l-1.06-2.79h-4.94l-1.04,2.79h-1.34l4.15-10.57h1.45l4.3,10.57h-1.52ZM55.67,161.33l-2.05,5.56h4.16l-2.12-5.56Z"/>
    <path class="cls-2" d="M66.87,170.7l-.06-1.17c-.3.43-.63.75-.99.95-.36.2-.79.31-1.31.31-.47,0-.87-.06-1.19-.19-.33-.13-.59-.31-.79-.56-.2-.25-.35-.55-.43-.91-.09-.36-.13-.76-.13-1.22v-4.59h1.24v4.09c0,.32.01.63.04.92.03.29.1.55.21.77.11.22.28.39.5.52.22.13.52.19.89.19s.69-.07.94-.21c.25-.14.45-.33.6-.58.15-.24.26-.52.33-.83.06-.31.1-.63.1-.97v-3.9h1.24v5.48c0,.63,0,1.26.03,1.91h-1.21Z"/>
    <path class="cls-2" d="M72.54,170.77c-.58,0-1.01-.13-1.3-.39-.29-.26-.44-.7-.44-1.31v-4.86h-1.4v-.89h1.4v-1.43l1.24-.54v1.97h1.59v.89h-1.59v4.34c0,.22,0,.42.03.57.02.16.06.28.13.38.07.1.17.17.3.21.13.04.3.06.52.06.11,0,.22,0,.32-.02.1-.01.22-.03.34-.05v.98c-.39.06-.78.09-1.14.09"/>
    <path class="cls-2" d="M80.06,170.7v-4.09c0-.32-.01-.63-.04-.92-.03-.29-.1-.55-.21-.77-.11-.22-.28-.39-.5-.53-.22-.13-.52-.2-.89-.2s-.66.08-.91.22c-.25.15-.45.34-.61.58-.15.24-.27.52-.34.83-.07.32-.1.64-.1.97v3.91h-1.24v-10.57h1.24v4.34c.28-.42.61-.73.98-.94.37-.21.81-.31,1.32-.31.47,0,.87.07,1.19.2s.59.32.79.57c.2.25.35.55.44.91.09.36.14.76.14,1.22v4.59h-1.24Z"/>
    <path class="cls-2" d="M90.08,166.97c0,.54-.08,1.05-.23,1.53-.16.47-.38.89-.69,1.24-.3.35-.67.63-1.1.83-.43.2-.93.3-1.48.3s-1.07-.1-1.5-.29c-.44-.19-.81-.46-1.1-.81-.3-.35-.53-.76-.68-1.24-.16-.48-.23-.99-.23-1.55s.08-1.07.24-1.54c.16-.47.39-.87.69-1.21.3-.34.67-.6,1.11-.79.44-.19.94-.28,1.49-.28s1.06.09,1.5.28c.43.19.8.45,1.1.78.3.34.52.74.67,1.21.15.47.23.98.23,1.55M88.77,166.98c0-.36-.04-.72-.12-1.06-.08-.35-.21-.66-.38-.93-.18-.28-.4-.49-.69-.66-.28-.17-.62-.25-1.02-.25s-.74.08-1.02.25c-.28.17-.51.39-.68.66-.17.27-.3.58-.38.93-.08.35-.12.7-.12,1.06s.04.72.12,1.08c.08.36.21.68.38.97.18.29.4.52.68.7.28.18.62.27,1.02.27s.73-.09,1.01-.27c.28-.18.5-.42.68-.71.18-.29.31-.62.39-.97.08-.36.12-.71.12-1.06"/>
    <path class="cls-2" d="M95.35,164.47c-.1-.01-.2-.01-.31-.01-.73,0-1.24.2-1.52.61-.28.4-.42.96-.42,1.66v3.98h-1.24v-5.22c0-.72-.01-1.44-.04-2.16h1.21l.06,1.18c.26-.44.56-.75.91-.94.35-.19.77-.28,1.26-.28.07,0,.13,0,.2,0,.07,0,.13.01.19.02v1.22c-.09-.02-.2-.03-.3-.04"/>
    <path class="cls-2" d="M96.91,160.13h1.38v1.3h-1.38v-1.3ZM96.98,163.32h1.24v7.38h-1.24v-7.38Z"/>
    <path class="cls-2" d="M102.72,170.77c-.57,0-1.01-.13-1.3-.39-.29-.26-.44-.7-.44-1.31v-4.86h-1.4v-.89h1.4v-1.43l1.24-.54v1.97h1.59v.89h-1.59v4.34c0,.22,0,.42.03.57.01.16.06.28.13.38.07.1.17.17.3.21.12.04.3.06.51.06.11,0,.22,0,.32-.02.1-.01.22-.03.34-.05v.98c-.39.06-.78.09-1.14.09"/>
    <polygon class="cls-2" points="107.52 173.48 106.27 173.48 107.45 170.69 104.41 163.32 105.82 163.32 108.07 169.36 110.3 163.32 111.55 163.32 107.52 173.48"/>
    <polygon class="cls-2" points="118.48 161.2 118.48 164.73 123.03 164.73 123.03 165.79 118.48 165.79 118.48 170.7 117.17 170.7 117.17 160.13 123.26 160.13 123.26 161.2 118.48 161.2"/>
    <path class="cls-2" d="M131.42,166.97c0,.54-.08,1.05-.23,1.53-.16.47-.38.89-.69,1.24-.3.35-.67.63-1.1.83-.43.2-.93.3-1.49.3s-1.07-.1-1.51-.29c-.44-.19-.8-.46-1.1-.81-.3-.35-.52-.76-.68-1.24-.16-.48-.23-.99-.23-1.55s.08-1.07.24-1.54c.16-.47.39-.87.69-1.21.3-.34.67-.6,1.11-.79.44-.19.94-.28,1.49-.28s1.07.09,1.5.28c.43.19.8.45,1.1.78.3.34.52.74.67,1.21.15.47.23.98.23,1.55M130.1,166.98c0-.36-.04-.72-.12-1.06-.08-.35-.21-.66-.38-.93-.18-.28-.4-.49-.69-.66-.28-.17-.62-.25-1.02-.25s-.73.08-1.02.25c-.28.17-.51.39-.69.66-.17.27-.3.58-.38.93-.08.35-.12.7-.12,1.06s.04.72.12,1.08c.08.36.21.68.38.97.18.29.4.52.68.7.28.18.62.27,1.02.27s.73-.09,1.01-.27c.28-.18.5-.42.68-.71.18-.29.31-.62.39-.97.08-.36.12-.71.12-1.06"/>
    <path class="cls-2" d="M136.69,164.47c-.1-.01-.2-.01-.31-.01-.73,0-1.24.2-1.52.61-.28.4-.42.96-.42,1.66v3.98h-1.24v-5.22c0-.72-.02-1.44-.04-2.16h1.21l.06,1.18c.26-.44.56-.75.91-.94.35-.19.77-.28,1.26-.28.07,0,.13,0,.2,0,.07,0,.13.01.19.02v1.22c-.1-.02-.2-.03-.3-.04"/>
    <path class="cls-2" d="M148.63,170.65c-.58.11-1.17.17-1.76.17-.8,0-1.5-.13-2.12-.4-.61-.27-1.12-.64-1.53-1.13-.41-.48-.72-1.06-.93-1.73-.21-.67-.32-1.39-.32-2.18s.1-1.46.3-2.12c.2-.66.49-1.24.89-1.74.39-.49.88-.89,1.48-1.17.59-.29,1.27-.43,2.05-.43.46,0,.9.06,1.32.18.42.12.79.29,1.11.53.32.24.59.55.79.92.2.37.33.82.38,1.35h-1.38c-.1-.64-.36-1.12-.76-1.43-.4-.31-.9-.46-1.52-.46s-1.08.13-1.49.37c-.41.25-.75.58-1,.99-.26.41-.45.87-.56,1.38-.12.51-.18,1.03-.18,1.55,0,.58.06,1.13.19,1.67.13.54.34,1.01.62,1.42.28.41.65.74,1.1.98.45.25.98.37,1.6.37.37,0,.73-.03,1.1-.08.36-.05.72-.13,1.07-.24v-3.14h-2.44v-1.02h3.72v4.99c-.57.17-1.15.3-1.73.41"/>
    <path class="cls-2" d="M159.22,166.97c0,.54-.08,1.05-.23,1.53-.16.47-.39.89-.69,1.24-.3.35-.67.63-1.1.83-.43.2-.93.3-1.48.3s-1.07-.1-1.51-.29c-.44-.19-.81-.46-1.11-.81-.3-.35-.52-.76-.68-1.24-.16-.48-.23-.99-.23-1.55s.08-1.07.24-1.54c.16-.47.39-.87.69-1.21.3-.34.67-.6,1.11-.79.44-.19.93-.28,1.49-.28s1.07.09,1.5.28c.43.19.8.45,1.09.78.3.34.52.74.67,1.21.15.47.23.98.23,1.55M157.91,166.98c0-.36-.04-.72-.12-1.06-.08-.35-.2-.66-.38-.93-.17-.28-.4-.49-.68-.66-.28-.17-.62-.25-1.02-.25s-.73.08-1.02.25c-.28.17-.51.39-.68.66-.17.27-.3.58-.38.93-.08.35-.12.7-.12,1.06s.04.72.12,1.08c.08.36.21.68.38.97.18.29.4.52.68.7.28.18.62.27,1.02.27s.73-.09,1.01-.27c.28-.18.5-.42.68-.71.18-.29.31-.62.39-.97.08-.36.12-.71.12-1.06"/>
    <polygon class="cls-2" points="163.99 170.7 162.69 170.7 159.8 163.32 161.21 163.32 163.43 169.46 165.68 163.32 166.95 163.32 163.99 170.7"/>
    <path class="cls-2" d="M168.75,167.25v.15c0,.34.04.67.13.98.09.31.22.59.4.83.18.24.4.44.67.58.27.14.58.21.94.21.51,0,.92-.15,1.24-.45.32-.3.52-.71.59-1.23h1.18c-.14.87-.49,1.51-1.06,1.92-.57.41-1.25.62-2.06.62-.55,0-1.04-.09-1.45-.27-.41-.18-.75-.43-1.02-.77-.27-.33-.48-.73-.61-1.18-.14-.46-.21-.96-.21-1.5s.07-1.07.21-1.55c.13-.48.34-.89.62-1.25.28-.36.63-.63,1.05-.84.42-.2.93-.31,1.51-.31s1.08.11,1.48.34c.39.22.71.52.95.89.24.37.4.8.49,1.29.09.49.14,1,.14,1.54h-5.2ZM172.72,166.39c0-.3-.03-.59-.11-.87-.07-.28-.18-.53-.34-.74-.16-.21-.35-.39-.59-.52-.24-.13-.52-.2-.84-.2s-.62.06-.86.19c-.25.13-.45.3-.62.52-.17.22-.3.47-.4.75-.1.28-.16.57-.19.87h3.95Z"/>
    <path class="cls-2" d="M179.24,164.47c-.1-.01-.21-.01-.31-.01-.73,0-1.24.2-1.52.61-.28.4-.42.96-.42,1.66v3.98h-1.24v-5.22c0-.72-.01-1.44-.04-2.16h1.21l.06,1.18c.25-.44.55-.75.91-.94.36-.19.78-.28,1.26-.28.07,0,.13,0,.21,0,.07,0,.13.01.19.02v1.22c-.09-.02-.19-.03-.29-.04"/>
    <path class="cls-2" d="M185.72,170.7v-4.09c0-.32-.01-.63-.04-.92-.03-.29-.1-.54-.21-.76-.11-.22-.28-.39-.5-.53-.22-.13-.52-.2-.9-.2s-.7.08-.96.25c-.26.17-.46.38-.6.64-.15.26-.25.56-.31.9-.06.34-.09.68-.09,1.02v3.69h-1.24v-5.48c0-.16,0-.32,0-.5,0-.18-.01-.36-.01-.53,0-.17,0-.33-.01-.48,0-.15,0-.28,0-.39h1.23l.04,1.18c.29-.43.62-.75,1-.96.37-.21.82-.32,1.33-.32.93,0,1.59.25,1.97.76.38.51.57,1.21.57,2.12v4.59h-1.24Z"/>
    <path class="cls-2" d="M198.68,170.7v-4.36c0-.3-.02-.58-.07-.84-.05-.26-.13-.48-.25-.67-.12-.19-.29-.34-.5-.45-.21-.11-.48-.17-.81-.17-.36,0-.65.07-.89.19-.23.13-.42.3-.56.51-.14.21-.24.47-.3.76-.06.29-.09.6-.09.93v4.09h-1.24v-4.28c0-.3-.02-.59-.06-.86-.04-.27-.12-.5-.24-.7-.12-.2-.28-.36-.5-.47-.21-.12-.49-.18-.83-.18s-.61.07-.85.2c-.24.14-.43.31-.58.54-.15.22-.26.47-.33.77-.07.29-.11.59-.11.89v4.09h-1.24v-4.85c0-.84-.01-1.68-.04-2.53h1.23l.04,1.23c.51-.88,1.26-1.32,2.26-1.32.56,0,1.03.12,1.4.35.37.23.66.62.87,1.17.5-1.01,1.32-1.52,2.47-1.52.5,0,.91.08,1.23.24.32.16.57.38.76.66.18.28.31.61.38.99.07.39.11.8.11,1.25v4.33h-1.24Z"/>
    <path class="cls-2" d="M202.91,167.25v.15c0,.34.04.67.14.98.09.31.22.59.4.83.18.24.4.44.67.58.27.14.58.21.94.21.51,0,.92-.15,1.24-.45.32-.3.52-.71.59-1.23h1.18c-.14.87-.49,1.51-1.06,1.92-.57.41-1.25.62-2.06.62-.56,0-1.04-.09-1.45-.27-.41-.18-.75-.43-1.02-.77-.27-.33-.48-.73-.61-1.18-.14-.46-.21-.96-.21-1.5s.07-1.07.21-1.55c.13-.48.34-.89.62-1.25.28-.36.63-.63,1.05-.84.42-.2.93-.31,1.51-.31s1.09.11,1.48.34c.39.22.71.52.95.89.24.37.4.8.49,1.29.1.49.14,1,.14,1.54h-5.21ZM206.89,166.39c0-.3-.03-.59-.11-.87-.07-.28-.18-.53-.34-.74-.16-.21-.35-.39-.59-.52-.24-.13-.52-.2-.84-.2s-.62.06-.86.19c-.25.13-.45.3-.62.52-.17.22-.3.47-.4.75-.1.28-.16.57-.19.87h3.95Z"/>
    <path class="cls-2" d="M214.77,170.7v-4.09c0-.32-.02-.63-.04-.92-.03-.29-.1-.54-.21-.76-.11-.22-.28-.39-.5-.53-.22-.13-.52-.2-.9-.2s-.71.08-.96.25c-.26.17-.46.38-.6.64-.15.26-.25.56-.31.9-.06.34-.09.68-.09,1.02v3.69h-1.24v-5.48c0-.16,0-.32,0-.5,0-.18-.01-.36-.02-.53,0-.17,0-.33-.01-.48,0-.15,0-.28,0-.39h1.23l.04,1.18c.29-.43.62-.75,1-.96.37-.21.82-.32,1.33-.32.93,0,1.59.25,1.97.76.38.51.57,1.21.57,2.12v4.59h-1.24Z"/>
    <path class="cls-2" d="M220.47,170.77c-.57,0-1.01-.13-1.3-.39-.29-.26-.44-.7-.44-1.31v-4.86h-1.4v-.89h1.4v-1.43l1.24-.54v1.97h1.6v.89h-1.6v4.34c0,.22.01.42.03.57.02.16.06.28.13.38.07.1.17.17.3.21.12.04.3.06.52.06.11,0,.22,0,.32-.02.1-.01.22-.03.34-.05v.98c-.4.06-.78.09-1.14.09"/>
    <polygon class="cls-2" points="234.05 170.7 234.05 165.82 228.76 165.82 228.76 170.7 227.45 170.7 227.45 160.13 228.76 160.13 228.76 164.74 234.05 164.74 234.05 160.13 235.36 160.13 235.36 170.7 234.05 170.7"/>
    <path class="cls-2" d="M242.78,170.7l-.06-1.17c-.3.43-.63.75-.99.95-.36.2-.79.31-1.31.31-.47,0-.87-.06-1.19-.19-.32-.13-.59-.31-.79-.56-.2-.25-.35-.55-.44-.91-.09-.36-.13-.76-.13-1.22v-4.59h1.24v4.09c0,.32.01.63.04.92.03.29.1.55.21.77.11.22.28.39.5.52.22.13.52.19.9.19s.69-.07.94-.21c.25-.14.45-.33.6-.58.15-.24.26-.52.33-.83.07-.31.1-.63.1-.97v-3.9h1.24v5.48c0,.63.01,1.26.03,1.91h-1.21Z"/>
    <path class="cls-2" d="M255.72,170.7v-4.36c0-.3-.02-.58-.07-.84-.05-.26-.13-.48-.26-.67-.12-.19-.29-.34-.5-.45-.21-.11-.48-.17-.81-.17-.36,0-.65.07-.89.19-.23.13-.42.3-.56.51-.14.21-.24.47-.3.76-.06.29-.09.6-.09.93v4.09h-1.24v-4.28c0-.3-.02-.59-.06-.86-.04-.27-.12-.5-.24-.7-.12-.2-.28-.36-.5-.47-.21-.12-.49-.18-.82-.18s-.61.07-.85.2c-.24.14-.43.31-.58.54-.15.22-.26.47-.33.77-.07.29-.11.59-.11.89v4.09h-1.24v-4.85c0-.84-.01-1.68-.04-2.53h1.23l.04,1.23c.51-.88,1.26-1.32,2.26-1.32.56,0,1.03.12,1.4.35.37.23.66.62.87,1.17.5-1.01,1.32-1.52,2.47-1.52.5,0,.91.08,1.23.24.32.16.57.38.76.66.18.28.31.61.38.99.07.39.11.8.11,1.25v4.33h-1.24Z"/>
    <path class="cls-2" d="M263.75,170.7c-.03-.16-.06-.33-.08-.52-.03-.19-.04-.36-.05-.52-.3.45-.65.76-1.04.94-.4.17-.85.26-1.37.26-.33,0-.64-.04-.94-.13-.3-.09-.57-.22-.8-.4-.23-.18-.41-.4-.55-.68-.13-.27-.2-.6-.2-.98,0-.56.13-1,.39-1.32.27-.33.6-.57,1-.75.4-.17.84-.28,1.32-.33.48-.05.94-.07,1.37-.07.13,0,.26,0,.38,0,.12,0,.23.01.33.02v-.44c0-.56-.11-1-.35-1.32-.23-.31-.64-.47-1.22-.47-.44,0-.79.09-1.04.28-.25.19-.4.53-.45,1.02h-1.21c.02-.4.1-.74.26-1.01.16-.27.36-.49.6-.66.24-.17.52-.29.83-.36.31-.07.63-.11.97-.11.92,0,1.59.2,2.04.6.45.4.67,1.08.67,2.05v2.72c0,.49.03.93.08,1.32.05.4.1.68.15.84h-1.08ZM263.49,167c-.15-.02-.27-.03-.36-.03h-.28c-.27,0-.58.01-.92.04-.34.03-.65.1-.95.21-.3.11-.55.27-.74.49-.2.22-.3.51-.3.89,0,.22.04.42.13.6.09.18.2.32.35.44.15.12.31.21.5.26.19.06.38.09.59.09.45,0,.81-.08,1.07-.26.26-.17.46-.4.59-.68.14-.28.22-.6.26-.97.03-.36.06-.73.06-1.1"/>
    <path class="cls-2" d="M271.83,170.7v-4.09c0-.32-.01-.63-.04-.92-.03-.29-.1-.54-.21-.76-.11-.22-.28-.39-.5-.53-.22-.13-.52-.2-.9-.2s-.7.08-.96.25c-.26.17-.45.38-.6.64-.15.26-.25.56-.31.9-.06.34-.09.68-.09,1.02v3.69h-1.24v-5.48c0-.16,0-.32,0-.5,0-.18-.01-.36-.01-.53,0-.17-.01-.33-.01-.48,0-.15,0-.28,0-.39h1.23l.04,1.18c.29-.43.63-.75,1-.96.37-.21.82-.32,1.33-.32.93,0,1.59.25,1.97.76.38.51.57,1.21.57,2.12v4.59h-1.24Z"/>
    <path class="cls-2" d="M285.5,170.7c-.16-.42-.26-.85-.3-1.29-.03-.44-.07-.88-.11-1.32-.04-.39-.08-.73-.12-1.02-.04-.29-.13-.53-.25-.72-.13-.19-.31-.33-.56-.42-.25-.09-.58-.14-1.01-.14h-2.18v4.9h-1.31v-10.57h3.64c.41,0,.82.04,1.23.12.41.08.78.22,1.1.41.32.19.59.46.79.8.21.34.3.76.3,1.28,0,.7-.18,1.25-.55,1.65-.36.39-.86.68-1.48.86.32.08.58.18.8.31.21.13.38.28.51.47.13.19.23.4.29.63.06.24.11.5.13.78.04.35.07.71.08,1.08.02.37.07.76.14,1.17.04.19.08.38.13.55.05.18.12.33.21.47h-1.5ZM285.38,162.9c0-.37-.07-.67-.2-.89-.14-.23-.32-.4-.55-.52-.23-.12-.48-.2-.76-.24-.28-.04-.57-.06-.86-.06h-2.02v3.6h1.65c.32,0,.64-.02.97-.06.33-.04.62-.12.88-.26.27-.13.48-.32.64-.56.17-.24.25-.58.25-1"/>
    <path class="cls-2" d="M289.66,167.25v.15c0,.34.04.67.14.98.09.31.22.59.4.83.18.24.4.44.67.58.27.14.58.21.94.21.51,0,.92-.15,1.24-.45.32-.3.52-.71.59-1.23h1.18c-.14.87-.49,1.51-1.06,1.92-.57.41-1.25.62-2.06.62-.55,0-1.04-.09-1.45-.27-.41-.18-.75-.43-1.02-.77-.27-.33-.48-.73-.61-1.18-.14-.46-.21-.96-.21-1.5s.07-1.07.21-1.55c.13-.48.34-.89.62-1.25.27-.36.63-.63,1.05-.84.43-.2.93-.31,1.51-.31s1.09.11,1.48.34c.39.22.71.52.94.89.24.37.4.8.49,1.29.09.49.14,1,.14,1.54h-5.21ZM293.64,166.39c0-.3-.03-.59-.11-.87-.07-.28-.18-.53-.34-.74-.16-.21-.35-.39-.59-.52-.24-.13-.52-.2-.84-.2s-.61.06-.86.19c-.25.13-.45.3-.62.52-.17.22-.3.47-.4.75-.1.28-.16.57-.19.87h3.95Z"/>
    <path class="cls-2" d="M301.84,168.57c0,.42-.09.77-.26,1.07-.17.29-.39.53-.67.71-.28.18-.59.31-.93.4-.34.08-.69.12-1.04.12-.37,0-.73-.04-1.07-.12-.34-.08-.63-.22-.89-.41-.25-.19-.45-.44-.6-.74-.15-.3-.22-.68-.22-1.13h1.24c.03.52.18.9.45,1.14.27.25.66.37,1.14.37.19,0,.38-.02.56-.07.19-.05.36-.12.51-.22.16-.1.28-.23.38-.39.1-.16.15-.35.15-.57,0-.2-.04-.36-.12-.5-.08-.14-.19-.26-.33-.36-.14-.1-.31-.19-.49-.26-.19-.07-.38-.13-.59-.18l-.58-.15c-.26-.07-.52-.15-.78-.25-.26-.1-.49-.22-.69-.37-.2-.15-.36-.34-.49-.57-.12-.23-.18-.51-.18-.84,0-.38.08-.7.25-.97.16-.27.38-.49.63-.66.26-.17.55-.29.87-.37.33-.07.64-.11.95-.11.36,0,.69.04,1,.13.31.08.58.21.82.39.23.18.42.41.56.69.14.28.21.63.23,1.04h-1.23c-.02-.44-.15-.78-.4-1.02-.25-.24-.58-.35-1.01-.35-.16,0-.33.02-.5.06-.17.04-.33.1-.47.19-.14.09-.26.2-.35.34-.1.14-.14.31-.14.5,0,.34.15.6.44.79.29.18.66.33,1.08.44l.57.15c.31.08.6.17.87.28.27.11.5.24.69.4.19.16.34.36.46.58.11.22.17.5.17.82"/>
    <path class="cls-2" d="M310.16,166.97c0,.54-.08,1.05-.23,1.53-.16.47-.38.89-.69,1.24-.3.35-.67.63-1.1.83-.44.2-.93.3-1.49.3s-1.07-.1-1.51-.29c-.44-.19-.8-.46-1.1-.81-.3-.35-.52-.76-.68-1.24-.15-.48-.23-.99-.23-1.55s.08-1.07.24-1.54c.16-.47.39-.87.69-1.21.3-.34.67-.6,1.11-.79.44-.19.94-.28,1.49-.28s1.07.09,1.5.28c.43.19.8.45,1.1.78.3.34.52.74.67,1.21.15.47.23.98.23,1.55M308.85,166.98c0-.36-.04-.72-.12-1.06-.08-.35-.21-.66-.38-.93-.17-.28-.4-.49-.68-.66-.28-.17-.62-.25-1.02-.25s-.73.08-1.02.25c-.28.17-.51.39-.68.66-.18.27-.3.58-.38.93-.08.35-.12.7-.12,1.06s.04.72.12,1.08c.08.36.21.68.38.97.18.29.4.52.68.7.27.18.61.27,1.02.27s.73-.09,1.01-.27c.28-.18.51-.42.69-.71.18-.29.3-.62.39-.97.08-.36.12-.71.12-1.06"/>
    <path class="cls-2" d="M316.81,170.7l-.06-1.17c-.3.43-.63.75-.98.95-.36.2-.8.31-1.31.31-.47,0-.87-.06-1.19-.19-.32-.13-.59-.31-.79-.56-.2-.25-.35-.55-.44-.91-.09-.36-.13-.76-.13-1.22v-4.59h1.24v4.09c0,.32.02.63.04.92.03.29.1.55.21.77.11.22.28.39.5.52.22.13.52.19.9.19s.69-.07.94-.21c.25-.14.45-.33.6-.58.15-.24.26-.52.33-.83.07-.31.1-.63.1-.97v-3.9h1.24v5.48c0,.63.01,1.26.03,1.91h-1.21Z"/>
    <path class="cls-2" d="M323.79,164.47c-.1-.01-.2-.01-.31-.01-.73,0-1.24.2-1.52.61-.28.4-.42.96-.42,1.66v3.98h-1.24v-5.22c0-.72-.01-1.44-.04-2.16h1.21l.06,1.18c.25-.44.55-.75.91-.94.35-.19.77-.28,1.26-.28.07,0,.13,0,.2,0,.07,0,.13.01.19.02v1.22c-.1-.02-.19-.03-.3-.04"/>
    <path class="cls-2" d="M331.06,169.39c-.16.33-.38.61-.65.83-.27.22-.58.38-.93.49-.35.11-.73.16-1.13.16-.56,0-1.06-.09-1.49-.28-.43-.19-.79-.45-1.08-.78-.29-.33-.51-.73-.66-1.19-.15-.46-.22-.97-.22-1.53s.07-1.09.22-1.58c.15-.49.38-.91.67-1.26.3-.36.66-.64,1.1-.84.44-.2.95-.3,1.53-.3.81,0,1.47.21,2,.64.53.42.83,1.07.9,1.95h-1.21c-.04-.53-.2-.94-.49-1.24-.29-.3-.69-.44-1.2-.44-.42,0-.78.09-1.06.26-.28.18-.51.4-.67.69-.17.28-.29.61-.37.97-.08.36-.11.73-.11,1.1s.04.7.11,1.06c.07.35.2.67.37.95.17.28.4.51.67.69.27.18.61.26,1,.26.53,0,.95-.16,1.26-.49.31-.32.48-.76.52-1.3h1.21c-.03.46-.13.84-.29,1.17"/>
    <path class="cls-2" d="M333.7,167.25v.15c0,.34.04.67.13.98.09.31.22.59.4.83.18.24.4.44.67.58.27.14.58.21.94.21.51,0,.92-.15,1.24-.45.32-.3.52-.71.59-1.23h1.18c-.14.87-.49,1.51-1.06,1.92-.56.41-1.25.62-2.06.62-.55,0-1.04-.09-1.45-.27-.41-.18-.75-.43-1.02-.77-.27-.33-.48-.73-.61-1.18-.14-.46-.2-.96-.2-1.5s.07-1.07.2-1.55c.14-.48.34-.89.62-1.25.28-.36.63-.63,1.05-.84.42-.2.93-.31,1.51-.31s1.09.11,1.48.34c.39.22.71.52.95.89.23.37.4.8.49,1.29.09.49.14,1,.14,1.54h-5.2ZM337.68,166.39c0-.3-.03-.59-.11-.87-.07-.28-.18-.53-.34-.74-.16-.21-.35-.39-.59-.52-.24-.13-.52-.2-.84-.2s-.62.06-.86.19c-.25.13-.45.3-.62.52-.17.22-.3.47-.4.75-.1.28-.16.57-.19.87h3.95Z"/>
    <path class="cls-2" d="M345.87,168.57c0,.42-.08.77-.25,1.07-.17.29-.39.53-.67.71-.28.18-.59.31-.93.4-.34.08-.69.12-1.04.12-.38,0-.73-.04-1.07-.12-.34-.08-.64-.22-.89-.41-.26-.19-.45-.44-.6-.74-.14-.3-.22-.68-.22-1.13h1.24c.03.52.18.9.45,1.14.27.25.65.37,1.14.37.19,0,.38-.02.57-.07.19-.05.36-.12.51-.22.16-.1.28-.23.38-.39.1-.16.15-.35.15-.57,0-.2-.04-.36-.12-.5-.08-.14-.19-.26-.33-.36-.14-.1-.31-.19-.49-.26-.19-.07-.39-.13-.59-.18l-.58-.15c-.26-.07-.52-.15-.78-.25-.26-.1-.49-.22-.69-.37-.2-.15-.36-.34-.49-.57-.12-.23-.18-.51-.18-.84,0-.38.08-.7.25-.97.16-.27.37-.49.64-.66.26-.17.55-.29.87-.37.32-.07.64-.11.95-.11.36,0,.69.04,1,.13.31.08.58.21.82.39.23.18.42.41.56.69.14.28.21.63.24,1.04h-1.23c-.02-.44-.15-.78-.4-1.02-.25-.24-.59-.35-1.01-.35-.16,0-.33.02-.5.06-.17.04-.33.1-.47.19-.14.09-.26.2-.35.34-.1.14-.14.31-.14.5,0,.34.15.6.45.79.3.18.66.33,1.08.44l.56.15c.31.08.6.17.87.28.27.11.5.24.69.4.19.16.35.36.46.58.11.22.17.5.17.82"/>
  </g>
</svg>