<?xml version="1.0" encoding="UTF-8"?>
<svg id="Layer_1" data-name="Layer 1" xmlns="http://www.w3.org/2000/svg" viewBox="0 0 256.61 39.59">
  <defs>
    <style>
      .cls-1 {
        fill: #ad833b;
      }
    </style>
  </defs>
  <g>
    <path class="cls-1" d="M14.87,10.21c0,1.47-.49,3.13-1.48,4.96H2.85c-.48,0-1.08-.25-1.79-.76-.71-.51-1.06-.98-1.06-1.41v-.69c0-1.72.41-3.35,1.24-4.86.02,0,.13-.05.31-.14l.1.07c0,.25-.03.75-.1,1.5-.07.74-.1,1.13-.1,1.15,0,.44.05.8.15,1.08.1.28.42.57.96.89.54.31.96.47,1.25.47h9.13c.11-.21.17-.35.17-.42,0-.39-.39-1.23-1.17-2.5l1.41-2.5c.37.32.71.81,1.03,1.46.32.66.48,1.22.48,1.71M9.89,19.37c-.07.16-.32.42-.75.79-.5.41-.86.62-1.06.62-.07,0-.38-.2-.93-.58-.55-.39-.82-.66-.82-.82,0-.12.26-.41.77-.89.51-.48.83-.72.94-.72.16,0,.51.25,1.06.75.48.48.74.77.79.86"/>
    <path class="cls-1" d="M22.04,15.18h-3.88l-1.2-12.73c0-.09.13-.29.38-.59.41-.53.94-1.11,1.58-1.75.07.55.15,1.37.24,2.45.41,4.49.74,7.6,1,9.32.02.12.13.2.31.24.09.02.25.09.48.19.23.1.4.16.52.16h.58v2.71Z"/>
    <path class="cls-1" d="M42.06,15.18h-2.47s-.08-.03-.31-.1c-.41-.16-.73-.41-.96-.74-.16-.21-.29-.5-.38-.88-.21.37-.54.95-1,1.72h-15.81v-2.71h16.35c.14-.35.2-.82.19-1.41-.01-.59.03-.99.12-1.2.14-.35.79-1.15,1.96-2.4v1.95c0,.07-.04.34-.12.8-.08.46-.12.72-.12.77,0,.28.15.57.45.87.41.42.65.63.72.63h1.37v2.71ZM39.62,19.57c0,.07-.12.21-.34.43-.23.22-.74.6-1.55,1.15-.25.07-.36.1-.31.1-.09,0-.44-.23-1.03-.69-.23-.16-.58-.48-1.06-.96.46-.64,1.03-1.24,1.72-1.79.16-.11.29-.17.38-.17.14,0,.79.52,1.96,1.55.16.14.24.26.24.38"/>
    <path class="cls-1" d="M48.34,12.16s-.06.05-.1.15c-.05.1-.09.15-.14.15v2.71h-1.99c-.21,0-.42-.11-.64-.34-.22-.22-.35-.45-.39-.66-.57.66-1,1-1.27,1h-3.47v-2.71l4.43-.07c.25,0,.42-.3.52-.89.02-.32.05-.64.07-.96.41-.57,1.16-1.38,2.23-2.44.02.39-.08.96-.31,1.72-.41,1.26-.62,1.92-.62,1.99.39.39.76.58,1.1.58.07,0,.17-.04.29-.12.13-.08.22-.12.29-.12"/>
    <path class="cls-1" d="M57.13,15.18h-1c-.16-.21-.37-.5-.62-.86-.16.33-.27.62-.34.86h-3.71s-.14-.27-.34-.65c-.11.05-.32.27-.62.65h-2.95v-2.71h3.4c-.02-.4-.01-.94.03-1.64.02-.09.26-.39.7-.89.45-.5.91-.96,1.39-1.38-.44,2.03-.65,3.17-.65,3.43,0,.19.03.35.1.49h2.48c.07,0,.01-.39-.17-1.19-.02-.07-.07-.19-.14-.36-.07-.17-.1-.3-.1-.37,0-.09.26-.49.77-1.19.52-.7.85-1.12,1.01-1.26v2.16l-.27,1.71c.02.33.24.49.65.49h.38v2.71ZM54.59,4.94c-.39.52-.86,1.06-1.39,1.62l-2.17-1.05c-.09.06-.33.25-.71.58-.29.24-.46.37-.51.37-.11,0-.75-.33-1.92-.98.14-.25.58-.75,1.34-1.49,1.24.66,1.88,1,1.92,1,.07,0,.26-.12.58-.37.43-.35.72-.56.86-.62l1.99.96ZM52.43,2.78c-.27.25-.73.66-1.37,1.23-.14-.11-.36-.31-.67-.58-.31-.27-.53-.47-.67-.58l1.27-1.27c.32.25.8.65,1.44,1.2"/>
    <path class="cls-1" d="M64.48,15.18h-2.44c-.16-.11-.28-.36-.34-.75-.07-.39-.14-.66-.21-.79-.23.34-.62.85-1.17,1.54h-4.09v-2.71h5.01l-1.24-8.46,2.09-2.9c.09.62.18,1.39.28,2.31.18,1.82.43,4.57.76,8.26.02.53.32.79.89.79h.45v2.71Z"/>
    <path class="cls-1" d="M71.89,3.9c-.09.23-.3.53-.62.9-.07.07-.52.64-1.34,1.73-.05.07-.07.17-.07.31l.58,4.76-.65,3.45s-.12.02-.22.07c-.1.05-.19.07-.26.07h-5.87v-2.71h5.08c.07-.35.1-.62.1-.83,0-.42-.1-1.19-.31-2.32-.16-1.04-.47-2.57-.93-4.61l-1-.8c.64-1.32,1.28-2.42,1.92-3.33,0,.48.08.85.24,1.1.09.14.57.48,1.44,1.03.62.41,1.25.8,1.89,1.17"/>
    <path class="cls-1" d="M85.42,2.37c-.05.07-.34.39-.89.96-.37.41-.58.62-.65.62-.18,0-.85-.35-1.99-1.06-.62.66-.98,1-1.1,1-.21,0-.84-.35-1.89-1.06.3-.34.77-.89,1.41-1.65.96.73,1.56,1.1,1.79,1.1-.05,0,.37-.37,1.24-1.1l2.09,1.2ZM89.06,15.18h-1.96c-.12,0-.23-.06-.34-.17-.3-.23-.48-.46-.55-.69-.09-.46-.25-1.17-.48-2.12-.27.11-.57.5-.88,1.15-.31.65-.66,1-1.05,1.05l-4.15-.82v-.38c0,.14.34-.85,1.03-2.95.16-.48.8-1.05,1.92-1.72.76-.41,1.47-.85,2.13-1.3-.02-.09-.07-.23-.15-.43-.08-.19-.12-.33-.12-.4,0,.07.49-.74,1.48-2.44.25,1.8.71,4.49,1.37,8.07.07.3.41.45,1.03.45h.72v2.71ZM85.63,11.37v-.52c0-.36-.16-1.22-.48-2.57-.27.09-.45.25-.52.48-.21.6-.62,1.08-1.24,1.44-.48.23-.95.45-1.41.65,1.14.34,1.84.52,2.09.52h1.54Z"/>
    <path class="cls-1" d="M107.19,11c0,.28-.18,1.67-.55,4.17h-18.24v-2.71h17.17s.03-.06.03-.17c0-.07-.15-.42-.45-1.04-.39-.77-.81-1.44-1.27-2.02l1.41-2.4c.82.8,1.37,1.74,1.65,2.79.16.57.24,1.04.24,1.38M105.95,19.16c-.05.14-.2.38-.45.72-.57.76-.93,1.13-1.06,1.13-.09,0-.79-.39-2.09-1.17-.14.18-.5.57-1.1,1.17-.85-.44-1.57-.86-2.16-1.27.14-.21.64-.81,1.51-1.82.02-.02.15.06.38.24.78.6,1.3.89,1.58.89.05,0,.25-.2.62-.58.37-.39.58-.58.65-.58.02,0,.73.42,2.13,1.27"/>
    <path class="cls-1" d="M116.66,11.9c0,.76-.08,1.54-.24,2.34-.05.32-.2.63-.45.93h-6.73l.27-2.71h5.53s.03-.1.03-.24-.08-.42-.24-.83c-.34-.95-1.32-1.84-2.92-2.67l.69-2.92c.94.35,1.79,1,2.54,1.97.76.96,1.2,1.88,1.34,2.76.11.62.17,1.08.17,1.38"/>
    <path class="cls-1" d="M124.22,15.18h-3.88l-1.2-12.73c0-.09.13-.29.38-.59.41-.53.94-1.11,1.58-1.75.07.55.15,1.37.24,2.45.41,4.49.74,7.6,1,9.32.02.12.13.2.31.24.09.02.25.09.48.19.23.1.4.16.52.16h.58v2.71Z"/>
    <path class="cls-1" d="M151.82,11.11c0,.71-.07,1.3-.21,1.76-.37,1.31-.57,2.08-.62,2.31h-9.2c-.09-.54-.23-1.22-.41-2.06-.39-.07-1.06-.1-2.03-.1-.85,0-1.34.01-1.48.03-.41.05-.93.26-1.55.63-1.76,1-2.76,1.5-2.99,1.5h-9.13v-2.71h9.61c.32,0,.86-.16,1.61-.49.66-.28,1.08-.48,1.24-.6-2.2-.82-3.58-1.24-4.16-1.24-.62,0-1.34.25-2.16.75v-.24c0-.16.25-.59.76-1.28.41-.6.68-.95.79-1.04.62-.6,1.33-.9,2.13-.9s1.5.15,2.09.46c2.81,1.43,5.51,2.21,8.07,2.35-.18.54-.45,1.28-.79,2.24h6.63c-.41-1.6-1.01-2.77-1.79-3.51l1.55-2.67c.14.05.27.18.41.41.39.69.79,1.38,1.2,2.07.28.62.41,1.4.41,2.34M150.31,3.71c-.92,1.16-1.46,1.74-1.65,1.74-.14,0-.86-.39-2.16-1.17-.71.73-1.11,1.1-1.2,1.1-.41,0-1.14-.4-2.2-1.2l1.61-1.72c1.05.73,1.69,1.1,1.92,1.1s.69-.37,1.37-1.1l2.3,1.24Z"/>
    <path class="cls-1" d="M167.68,2.88c0,.16-.5.96-1.51,2.4-.02.02-.09.03-.21.03-.18,0-.38-.08-.58-.24-.16.96-.37,1.81-.62,2.55-.09.25-.3.64-.62,1.17-.32.53-.48.82-.48.86,0,.05.08.21.24.48.48.85.72,1.77.72,2.76,0,.71-.07,1.47-.21,2.27h-7.31c-.34-.18-.51-.76-.51-1.73,0-.85.13-1.59.38-2.22.11.16.28.38.48.66.21.27.49.41.86.41.55,0,1.65-.75,3.3-2.25-.16-.39-.58-.94-1.27-1.66-.69-.71-1.26-1.21-1.72-1.49-.09.18-.23.46-.41.82-.09-.07-1.18-.7-3.26-1.89-.32-.18-.48-.64-.48-1.37,0-.18.11-.74.34-1.68h2.06c.07-.14.09-.39.07-.75.98.59,2.07,1.52,3.26,2.78,1.19,1.26,2.06,2.39,2.61,3.4.48-.8.72-1.85.72-3.16,0-.69-.23-1.3-.69-1.85l2.06-3.19c0,.23.08.56.24,1,.07.12.38.38.93.79,1.07.57,1.61.94,1.61,1.1M162.98,12.43c-.23-.5-.49-1.02-.79-1.55-.64.73-1.18,1.25-1.61,1.55.85.09,1.65.09,2.4,0"/>
    <path class="cls-1" d="M173.32,10.05c0,2.02-.47,3.73-1.41,5.13l-1.27-10.64c0-.18.29-.75.86-1.69.5-.8.88-1.37,1.13-1.69l.69,8.88Z"/>
    <path class="cls-1" d="M186.4,2.37c-.05.07-.34.39-.89.96-.37.41-.58.62-.65.62-.18,0-.85-.35-1.99-1.06-.62.66-.98,1-1.1,1-.21,0-.84-.35-1.89-1.06.3-.34.77-.89,1.41-1.65.96.73,1.56,1.1,1.79,1.1-.05,0,.37-.37,1.24-1.1l2.09,1.2ZM190.04,15.18h-1.96c-.11,0-.23-.06-.34-.17-.3-.23-.48-.46-.55-.69-.09-.46-.25-1.17-.48-2.12-.28.11-.57.5-.88,1.15-.31.65-.66,1-1.05,1.05l-4.15-.82v-.38c0,.14.34-.85,1.03-2.95.16-.48.8-1.05,1.92-1.72.76-.41,1.46-.85,2.13-1.3-.02-.09-.07-.23-.15-.43-.08-.19-.12-.33-.12-.4,0,.07.49-.74,1.48-2.44.25,1.8.71,4.49,1.37,8.07.07.3.41.45,1.03.45h.72v2.71ZM186.6,11.37v-.52c0-.36-.16-1.22-.48-2.57-.27.09-.45.25-.51.48-.21.6-.62,1.08-1.24,1.44-.48.23-.95.45-1.41.65,1.14.34,1.84.52,2.09.52h1.54Z"/>
    <path class="cls-1" d="M207.58,12.16s-.06.05-.1.15c-.05.1-.09.15-.14.15v2.71h-1.99c-.21,0-.42-.11-.64-.34-.22-.22-.35-.45-.39-.66-.57.66-1,1-1.27,1h-13.98v-2.71l14.94-.07c.25,0,.42-.3.51-.89.02-.32.04-.64.07-.96.41-.57,1.16-1.38,2.23-2.44.02.39-.08.96-.31,1.72-.41,1.26-.62,1.92-.62,1.99.39.39.76.58,1.1.58.07,0,.17-.04.29-.12.13-.08.22-.12.29-.12"/>
    <path class="cls-1" d="M216.27,15.18h-1c-.14-.19-.34-.48-.62-.86-.16.33-.26.62-.31.86h-3.71c-.05-.14-.17-.36-.38-.65-.14.15-.34.36-.62.65h-2.85v-2.71h3.37c-.05-.37-.05-.87,0-1.5.16-.42.87-1.18,2.13-2.27l-.76,2.97v.8h2.51c.02-.09.03-.23.03-.42,0-.05-.06-.27-.17-.66-.11-.4-.17-.62-.17-.66,0-.16.4-.79,1.2-1.88.14-.14.33-.33.58-.56v2.2c0,.19-.11.73-.34,1.64.11.23.39.35.82.35h.27v2.71Z"/>
    <path class="cls-1" d="M223.44,12.16s-.06.05-.1.15c-.05.1-.09.15-.14.15v2.71h-1.99c-.21,0-.42-.11-.64-.34-.22-.22-.35-.45-.39-.66-.57.66-1,1-1.27,1h-3.47v-2.71l4.43-.07c.25,0,.42-.3.51-.89.02-.32.04-.64.07-.96.41-.57,1.16-1.38,2.23-2.44.02.39-.08.96-.31,1.72-.41,1.26-.62,1.92-.62,1.99.39.39.76.58,1.1.58.07,0,.17-.04.29-.12.13-.08.22-.12.29-.12"/>
    <path class="cls-1" d="M230.75,12.27c0,.34-.1.76-.31,1.26-.43,1.03-.66,1.55-.69,1.57-.14.05-.23.07-.27.07l-3.54-.07c-.23-.39-.36-.59-.38-.59-.05,0-.16.11-.34.33-.18.22-.37.33-.55.33h-2.37v-2.71h2.88c.02-.4.13-.96.31-1.68.18-.33.47-.68.86-1.05.39-.37.77-.72,1.13-1.05l-.65,2.9v.87h2.2c-.02-.21-.07-.56-.14-1.05-.09-.42-.14-.65-.14-.7,0-.07.26-.43.79-1.08.53-.65.93-1.11,1.2-1.36v4Z"/>
    <path class="cls-1" d="M239.37,4.88c-.11.32-.36.71-.72,1.17-.82.02-2.09.5-3.81,1.44l-.14-.03c.09-.39.55-.85,1.37-1.37-.34-.09-.85-.28-1.51-.55-.09-.07-.14-.16-.14-.27,0-.62.3-1.26.91-1.92.61-.66,1.23-1,1.87-1s1,.24,1,.72c0-.05-.18.27-.55.96-.18-.23-.48-.4-.89-.51-.05-.02-.1-.03-.17-.03-.18,0-.38.06-.58.17-.11.05-.32.17-.62.38-.02.02-.05.06-.07.1-.02.05-.05.08-.07.1.16.41.62.63,1.37.65h2.75Z"/>
    <path class="cls-1" d="M243.15,15.18h-1.1c-.46,1.11-.81,1.9-1.06,2.36-.5.91-1.06,1.63-1.68,2.15-.39.36-.89.68-1.51.95-.25.09-.56.14-.93.14-.23,0-.46-.02-.69-.07-.62-.16-1.53-.48-2.75-.96-1.08-.39-1.83-.82-2.27-1.3v-.24s.18-.07.41-.07c.05,0,.49.11,1.32.33.84.22,1.28.33,1.32.33.32,0,.71-.06,1.17-.17,1.72-.41,3.37-1.54,4.94-3.4-1.15-.07-2.14-.19-2.99-.38-.3-.05-.64-.22-1.03-.52-.39-.3-.61-.61-.65-.93-.02-.11-.03-.24-.03-.38,0-.44.18-1.11.55-2.03.32-.85.59-1.5.82-1.96.46-.85.97-1.49,1.54-1.92.28-.23.6-.34.96-.34.16,0,.26.01.31.04.53.23.9.57,1.13,1.01.78,1.39,1.25,2.94,1.41,4.66h.79v2.71ZM240.13,11.74c-.16-.46-.29-.78-.38-.96-.18-.32-.38-.59-.6-.81-.22-.22-.43-.33-.64-.33-.25,0-.55.17-.89.51-.25.27-.38.48-.38.62,0,.16.08.36.24.58.21.32.59.54,1.17.65.05.02.22.03.51.03.37,0,.61-.03.72-.1.02-.02.1-.09.24-.21"/>
    <path class="cls-1" d="M250.63,14.04c0,.3-.12.76-.36,1.39-.24.63-.45,1.06-.64,1.29-.37-.31-.73-.63-1.1-.94-.53-.4-.97-.61-1.34-.61h-5.12v-2.71h3.54c.11-.25.17-.5.17-.73,0-.35-.08-.92-.24-1.73-.16-1.11-.5-2.73-1.03-4.87,0-.05-.14-.18-.43-.4-.29-.22-.43-.36-.43-.43,0-.12.25-.62.74-1.5.49-.89.83-1.39,1.01-1.5h.24c.02.28.11.64.27,1.1.71.75,1.65,1.41,2.82,1.96-.14.16-.39.6-.76,1.31-.32.6-.64,1.01-.96,1.24.02.16.06.98.1,2.47.02.96.16,1.67.41,2.13.14.25.71.66,1.72,1.24.92.5,1.37.94,1.37,1.31"/>
    <path class="cls-1" d="M256.47,10.05c0,2.02-.47,3.73-1.41,5.13l-1.27-10.64c0-.18.29-.75.86-1.69.5-.8.88-1.37,1.13-1.69l.69,8.88Z"/>
  </g>
  <g>
    <path class="cls-1" d="M.52,29.29c0-.87-.02-1.41-.06-2.1.36-.1,1.53-.26,2.4-.3.71-.02,4.09,0,5.04,0-.16.89-.44,1.27-.69,1.53-.26.12-.68.12-1.55.12h-2.66v3.95h4.48c-.2,1.51-.68,1.65-1.45,1.65h-3.04c0,1.98.02,3.63.06,5.12-.34.1-1.33.16-2.1.16-.3,0-.44-.06-.44-.38v-9.74Z"/>
    <path class="cls-1" d="M10.04,29.67c0-.95,0-1.67-.06-2.5.56-.14,1.43-.26,2.24-.28h4.82c-.12.89-.36,1.27-.6,1.53-.3.12-.97.12-1.87.12h-2.06v3.55h4.32c-.18,1.39-.61,1.65-1.31,1.65h-3.01v3.89c.46.1,1.09.14,1.85.14.81,0,2.26,0,3.21-.08l.04.04c-.18.85-.56,1.31-1.05,1.59-.28.06-1.17.1-2.7.1-1.74,0-3.06-.1-3.53-.2l-.3-.38v-9.17Z"/>
    <path class="cls-1" d="M19.86,29.41c0-1.37-.02-1.75-.04-2.26.44-.1,2.44-.38,4.07-.38,5.97,0,7.04,3.59,7.04,6.13,0,4.29-3.08,6.59-7.14,6.59-1.47,0-2.66-.12-3.93-.38v-9.7ZM22.34,37.78c.48.12,1.01.16,1.55.16,1.79,0,4.38-.85,4.38-5,0-3-1.71-4.62-4.66-4.62-.61,0-.97.04-1.27.1v9.36Z"/>
    <path class="cls-1" d="M33.59,29.67c0-.95,0-1.67-.06-2.5.56-.14,1.43-.26,2.24-.28h4.82c-.12.89-.36,1.27-.6,1.53-.3.12-.97.12-1.86.12h-2.06v3.55h4.32c-.18,1.39-.61,1.65-1.31,1.65h-3.02v3.89c.46.1,1.09.14,1.84.14.81,0,2.26,0,3.21-.08l.04.04c-.18.85-.56,1.31-1.05,1.59-.28.06-1.17.1-2.7.1-1.75,0-3.06-.1-3.53-.2l-.3-.38v-9.17Z"/>
    <path class="cls-1" d="M45.83,38.81c0,.4-.12.48-.46.52-.56.06-1.65.08-2.04.08.04-.79.06-1.96.06-3.63v-6.65c0-.99,0-1.47-.04-2.02.52-.12,2.5-.34,3.41-.34,3.16,0,4.72,1.07,4.72,3.59,0,1.88-1.59,2.8-2.38,3.15.46.4,1.07,1.39,1.74,2.56.95,1.67,1.59,2.56,2.08,3.1v.08c-.16.12-.89.2-1.61.2s-1.25-.2-1.77-.89c-.53-.69-.93-1.49-1.73-3.04-.62-1.13-.99-1.29-1.65-1.29h-.36v4.58ZM45.83,32.8c.54.06,1.63,0,1.9-.14.42-.16,1.21-.75,1.21-2.08,0-1.65-1.03-2.34-2.26-2.34-.28,0-.62.02-.85.06v4.5Z"/>
    <path class="cls-1" d="M57.87,35.88c-.46,1.15-1.03,2.62-1.29,3.25-.08.18-.24.28-.55.28-.44,0-1.31-.12-1.75-.26v-.08c1.03-2.42,4.13-9.8,4.88-11.61l-.16-.42c.73-.16,1.85-.24,2.08-.24.18,0,.36.12.46.36.91,2.18,2.42,6.09,3.11,7.82.81,2.02,1.29,3.27,1.69,4.11v.08c-.44.14-1.79.24-2.22.24-.32,0-.48-.1-.67-.63-.36-1.01-.63-1.77-1.09-2.9h-4.48ZM61.88,34.23c-.91-2.46-1.51-3.95-1.73-4.58-.5,1.31-1.05,2.88-1.73,4.58h3.45Z"/>
    <path class="cls-1" d="M68.46,29.53c0-1.33-.02-2.14-.06-2.56.44-.06,1.39-.16,2.14-.16.34,0,.4.18.4,1.17v9.64c.38.1,1.05.14,1.79.14.81,0,2.02,0,3-.1l.02.04c-.12.77-.52,1.33-1.01,1.61-.28.06-.97.1-2.5.1-1.65,0-2.98-.1-3.47-.2l-.3-.38v-9.3Z"/>
    <path class="cls-1" d="M85.54,34.37c0-.38-.02-.67-.16-.91-1.07-1.85-2.84-4.52-4.01-6.23v-.06c.68-.2,1.65-.36,2.16-.36.36,0,.5.1.99.93.69,1.11,1.69,2.84,2.54,4.27.85-1.31,2.76-4.5,3.13-5.2.73,0,1.39.1,1.67.2.32.12.28.38.02.81-.5.81-3.43,5.16-3.65,5.5-.16.28-.22.57-.22.83v2.72c0,1.35.04,1.94.06,2.38-.46.1-1.09.16-2.18.16-.3,0-.36-.06-.36-.36v-4.68Z"/>
    <path class="cls-1" d="M99.65,26.59c4.01,0,6.33,2.9,6.33,6.39s-2.2,6.61-6.41,6.61c-4.58,0-6.39-3.39-6.39-6.39,0-3.75,2.4-6.61,6.45-6.61h.02ZM99.41,28.14c-1.94,0-3.55,1.57-3.55,4.82s1.81,5.08,3.89,5.08c2.22,0,3.59-1.79,3.59-4.88,0-2.82-1.45-5.02-3.91-5.02h-.02Z"/>
    <path class="cls-1" d="M111.06,33.51c0,3.69,1.59,4.28,2.96,4.28,1.61,0,2.96-.67,2.96-4.46v-5.95c0-.38.16-.46.44-.5.58-.06,1.35-.08,1.74-.08-.04.79-.06,1.96-.06,3.61v2.82c0,5.55-2.94,6.35-5.36,6.35-3.35,0-5.16-1.73-5.16-5.99v-4.07c0-1.33-.02-2.14-.06-2.56.36-.06,1.73-.16,2.12-.16.36,0,.42.18.42,1.15v5.56Z"/>
    <path class="cls-1" d="M125.16,28.53h-3.57c-.32,0-.48-.14-.34-.59.22-.59.46-.93.65-1.15.32.08.85.1,2.86.1h7.06c-.08,1.05-.61,1.55-1.03,1.65h-3.15v8.29c0,1.37.04,2.02.06,2.42-.55.1-1.33.16-2.12.16-.28,0-.42-.06-.42-.36v-10.52Z"/>
    <path class="cls-1" d="M141.59,32.01v-4.56c0-.44.16-.52.48-.55.48-.04,1.45-.06,2.06-.08-.04.75-.06,1.94-.06,3.59v6.41c0,1.39.04,2.04.06,2.44-.4.1-1.67.16-2.12.16-.28,0-.42-.06-.42-.38v-5.44c-.4.04-1.05.06-2.26.06h-3.04v5.14c0,.42-.16.5-.62.53-.54.06-1.51.1-1.92.08.04-.79.06-1.96.06-3.63v-6.27c0-1.35-.02-2.16-.06-2.54.52-.1,1.71-.16,2.12-.16.36,0,.42.18.42,1.07v4.13h5.3Z"/>
    <path class="cls-1" d="M154.52,35.88c-.46,1.15-1.03,2.62-1.29,3.25-.08.18-.24.28-.56.28-.44,0-1.31-.12-1.75-.26v-.08c1.03-2.42,4.13-9.8,4.88-11.61l-.16-.42c.73-.16,1.85-.24,2.08-.24.18,0,.36.12.46.36.91,2.18,2.42,6.09,3.11,7.82.81,2.02,1.29,3.27,1.69,4.11v.08c-.44.14-1.79.24-2.22.24-.32,0-.48-.1-.68-.63-.36-1.01-.64-1.77-1.09-2.9h-4.48ZM158.53,34.23c-.91-2.46-1.51-3.95-1.73-4.58-.5,1.31-1.05,2.88-1.73,4.58h3.45Z"/>
    <path class="cls-1" d="M167.06,33.51c0,3.69,1.59,4.28,2.95,4.28,1.61,0,2.96-.67,2.96-4.46v-5.95c0-.38.16-.46.44-.5.57-.06,1.35-.08,1.74-.08-.04.79-.06,1.96-.06,3.61v2.82c0,5.55-2.94,6.35-5.36,6.35-3.35,0-5.16-1.73-5.16-5.99v-4.07c0-1.33-.02-2.14-.06-2.56.36-.06,1.73-.16,2.12-.16.36,0,.42.18.42,1.15v5.56Z"/>
    <path class="cls-1" d="M181.16,28.53h-3.57c-.32,0-.48-.14-.34-.59.22-.59.46-.93.65-1.15.32.08.85.1,2.86.1h7.06c-.08,1.05-.61,1.55-1.03,1.65h-3.15v8.29c0,1.37.04,2.02.06,2.42-.55.1-1.33.16-2.12.16-.28,0-.42-.06-.42-.36v-10.52Z"/>
    <path class="cls-1" d="M197.59,32.01v-4.56c0-.44.16-.52.48-.55.48-.04,1.45-.06,2.06-.08-.04.75-.06,1.94-.06,3.59v6.41c0,1.39.04,2.04.06,2.44-.4.1-1.67.16-2.12.16-.28,0-.42-.06-.42-.38v-5.44c-.4.04-1.05.06-2.26.06h-3.04v5.14c0,.42-.16.5-.61.53-.54.06-1.51.1-1.92.08.04-.79.06-1.96.06-3.63v-6.27c0-1.35-.02-2.16-.06-2.54.52-.1,1.71-.16,2.12-.16.36,0,.42.18.42,1.07v4.13h5.3Z"/>
    <path class="cls-1" d="M209.25,26.59c4.01,0,6.33,2.9,6.33,6.39s-2.2,6.61-6.41,6.61c-4.58,0-6.39-3.39-6.39-6.39,0-3.75,2.4-6.61,6.45-6.61h.02ZM209.02,28.14c-1.94,0-3.55,1.57-3.55,4.82s1.81,5.08,3.89,5.08c2.22,0,3.59-1.79,3.59-4.88,0-2.82-1.45-5.02-3.91-5.02h-.02Z"/>
    <path class="cls-1" d="M220.7,38.81c0,.4-.12.48-.46.52-.56.06-1.65.08-2.04.08.04-.79.06-1.96.06-3.63v-6.65c0-.99,0-1.47-.04-2.02.52-.12,2.5-.34,3.41-.34,3.15,0,4.72,1.07,4.72,3.59,0,1.88-1.59,2.8-2.38,3.15.46.4,1.07,1.39,1.75,2.56.95,1.67,1.59,2.56,2.08,3.1v.08c-.16.12-.89.2-1.61.2s-1.25-.2-1.76-.89c-.54-.69-.93-1.49-1.73-3.04-.61-1.13-.99-1.29-1.65-1.29h-.36v4.58ZM220.7,32.8c.53.06,1.63,0,1.9-.14.42-.16,1.21-.75,1.21-2.08,0-1.65-1.03-2.34-2.26-2.34-.28,0-.61.02-.85.06v4.5Z"/>
    <path class="cls-1" d="M229.79,29.49c0-1.33-.02-2.14-.06-2.52.36-.06,1.73-.16,2.14-.16.34,0,.4.18.4,1.07v8.93c0,1.39.04,2.04.06,2.44-.34.1-1.67.16-2.12.16-.3,0-.42-.06-.42-.4v-9.52Z"/>
    <path class="cls-1" d="M238.29,28.53h-3.57c-.32,0-.48-.14-.34-.59.22-.59.46-.93.65-1.15.32.08.85.1,2.86.1h7.06c-.08,1.05-.61,1.55-1.03,1.65h-3.15v8.29c0,1.37.04,2.02.06,2.42-.55.1-1.33.16-2.12.16-.28,0-.42-.06-.42-.36v-10.52Z"/>
    <path class="cls-1" d="M250.06,34.37c0-.38-.02-.67-.16-.91-1.07-1.85-2.84-4.52-4.01-6.23v-.06c.67-.2,1.65-.36,2.16-.36.36,0,.5.1.99.93.69,1.11,1.69,2.84,2.54,4.27.85-1.31,2.76-4.5,3.14-5.2.73,0,1.39.1,1.67.2.32.12.28.38.02.81-.5.81-3.43,5.16-3.65,5.5-.16.28-.22.57-.22.83v2.72c0,1.35.04,1.94.06,2.38-.46.1-1.09.16-2.18.16-.3,0-.36-.06-.36-.36v-4.68Z"/>
  </g>
</svg>