<?xml version="1.0" encoding="UTF-8"?>
<svg id="Layer_1" data-name="Layer 1" xmlns="http://www.w3.org/2000/svg" viewBox="0 0 440.49 212.5">
  <defs>
    <style>
      .cls-1, .cls-2 {
        fill: #fff;
      }

      .cls-1, .cls-3, .cls-4 {
        fill-rule: evenodd;
      }

      .cls-5 {
        fill: #858176;
      }

      .cls-6 {
        fill: #d2c08e;
      }

      .cls-7 {
        fill: #ef5152;
      }

      .cls-8 {
        fill: #e62f92;
      }

      .cls-3, .cls-9 {
        fill: #ece0bf;
      }

      .cls-4, .cls-10 {
        fill: #0eb25e;
      }

      .cls-11 {
        fill: #ee3435;
      }
    </style>
  </defs>
  <path class="cls-7" d="M153.77,164.63h26.14l-12.73-40.37h-.33l-13.08,40.37ZM194.15,207.59l-7.13-20.69h-40.21l-7.25,20.69h-30.85l34.1-91.28h-37.76s0,43.64,0,43.64c0,33.43-15.34,50.05-50.23,50.05S4.59,193.38,4.59,159.95v-67.65h30.05v69.42c0,14.86,5.5,22.45,20.17,22.45s20.19-7.59,20.19-22.45v-69.42h107.34l31.94,91.16h14.38s0-91.16,0-91.16h91.89v24.06h-61.82v20.16h56.51v23.24h-56.51v21.97h63.45v25.85h-128.04ZM435.75,159.95c0,33.43-15.36,50.05-50.23,50.05s-50.23-16.62-50.23-50.05v-67.65h30.06v69.42c0,14.86,5.45,22.45,20.16,22.45s20.18-7.59,20.18-22.45v-69.42h30.05v67.65Z"/>
  <g>
    <g>
      <path d="M423.45,22.44c-.06-.19-.13-.37-.2-.54-.51-1.24-1.28-2.2-2.37-2.95-.53-.36-.88-.32-1.03-.16-.13.13-.16.4.13.76,1.04,1.27,1.38,2.92,1.48,4.08.13,1.47-.06,3.02-.52,4.25-.94,2.57-3.28,4.52-4.54,5.58-.43.36-.71.6-.81.75-.12.19-.22.52-.36.93-.27.84-.68,2.12-1.54,3.16-1.21,1.47-2.84,1.99-3.88,1.99-1.33,0-1.75-1.39-2.23-3-.58-1.93-1.23-4.13-3.75-4.13-.43,0-.98.03-1.49.25-.55.24-.97.65-1.28,1.25-.18.09-.9.46-1.15,1.14-.06.15-.08.3-.08.46,0,.26.07.53.21.8h.27c.02-.1.17-.64.94-.64.32,0,.58.15.76.44.17.26.22.59.22.81,0,.64-.32,1.3-.89,1.81-.59.52-1.36.81-2.17.81-1.03,0-2.67-.52-3.88-1.99-.85-1.04-1.27-2.31-1.54-3.16-.14-.42-.24-.75-.36-.93-.1-.15-.38-.39-.81-.75-1.26-1.05-3.6-3.01-4.54-5.58-.46-1.24-.64-2.79-.52-4.25.1-1.16.44-2.81,1.47-4.08.29-.36.26-.63.13-.76-.15-.16-.5-.2-1.04.16-1.09.75-1.87,1.71-2.37,2.95-.07.18-.14.36-.2.54-.12-.07-.24-.05-.31-.03-.56.2-1.07,1.79-1.26,2.46-.37,1.29-.58,2.64-.53,3.43v.03c-.06-.02-.12-.01-.16,0-.39.09-.58.83-.62.97-.25,1.07-.25,1.52-.25,2.72v.2c0,.92.13,1.85.38,2.78-.07,0-.11.02-.16.05-.25.14-.37.61-.37,1.46,0,1.39.46,2.83,1.36,4.29-.1.03-.16.09-.2.15-.17.25-.08.78.28,1.59.29.66.71,1.38.99,1.84.54.84,1.29,1.67,2.25,2.45-.11.23-.09.5.06.81.39.74,1.61,1.69,3.33,2.62-.04.3.07.61.31.91.77.96,2.77,1.7,3.89,2.06,1.49.48,3.17.84,4.11.88.06.08.26.38.26,1.16,0,.41-.58,1.46-1.15,2.48-.87,1.56-1.39,2.54-1.16,2.91.04.07.12.14.28.14.02,0,.04,0,.05,0-.06.19-.14.51-.23.84-.02,0-.03-.02-.05-.03-.18-.11-.45-.12-.75-.05-.48.13-.93.46-1.16.84-.07.12-.24.44-.29.83-1.56-.51-3.06-1.14-4.51-1.87l1.72-7.13c-6.89-4.18-11.48-11.63-11.48-20.12,0-9.08,5.25-16.97,12.95-20.95l-5.61-5.23c-8.9,5.48-14.81,15.16-14.81,26.17,0,9.59,4.48,18.17,11.52,23.85l-2.16,5.31v.02s0,.02,0,.02c0,1.05,3.05,3.33,6.95,5.2,2.94,1.4,8.85,3.55,15.47,3.55s12.54-2.15,15.48-3.55c3.9-1.87,6.95-4.15,6.95-5.2v-.04s-2.17-5.31-2.17-5.31c7.03-5.67,11.52-14.25,11.52-23.85,0-11.01-5.91-20.69-14.8-26.17l-5.61,5.23c7.71,3.98,12.95,11.87,12.95,20.95,0,8.49-4.58,15.94-11.47,20.12l1.71,7.13c-1.43.73-2.93,1.35-4.47,1.86-.06-.39-.23-.71-.3-.83-.23-.39-.69-.72-1.16-.84-.3-.08-.56-.06-.75.05-.02.01-.03.02-.05.03-.09-.33-.18-.65-.23-.84.02,0,.03,0,.05,0,.16,0,.24-.08.28-.14.23-.37-.29-1.34-1.16-2.91-.56-1.02-1.15-2.08-1.15-2.48,0-.78.2-1.08.27-1.16.94-.04,2.61-.4,4.1-.88,1.13-.36,3.12-1.1,3.89-2.06.25-.3.36-.61.32-.91,1.71-.92,2.94-1.88,3.32-2.62.16-.3.18-.58.06-.81.96-.78,1.71-1.61,2.25-2.45.29-.45.7-1.17.99-1.84.36-.81.45-1.33.29-1.59-.04-.06-.1-.12-.21-.15.9-1.45,1.36-2.89,1.36-4.29,0-.85-.12-1.32-.37-1.46-.04-.02-.09-.05-.15-.05.25-.93.38-1.86.38-2.78v-.2c0-1.2,0-1.65-.25-2.72-.04-.15-.23-.88-.62-.97-.04,0-.1-.01-.16,0,0-.01,0-.02,0-.03.04-.79-.16-2.14-.54-3.43-.19-.67-.69-2.25-1.26-2.46-.07-.02-.19-.04-.31.03"/>
      <path class="cls-1" d="M409.61,64.4c0-.14-.02-.4-.02-.63,0-.17,0-.33.02-.42.09-.51.28-.86.89-.88-.14-.33-.3-.72-.44-1.13-.01,0,.01,0,0,0-.18,0-.37-.23-.85-.95-.04-.05-.08-.11-.12-.17.12.41.2.74.23.92.05.28.1,1.55-.18,1.88-.07.08-.15.09-.2.09-.5,0-1-.35-1.36-.8-.04.42-.14.86-.35,1.07-.09.09-.2.13-.32.13-.34,0-.83-.47-1.16-.98-.2.76-.68,1.5-1.26,1.5s-1.06-.74-1.26-1.5c-.33.51-.82.98-1.16.98-.12,0-.23-.05-.31-.13-.22-.21-.31-.64-.36-1.07-.36.45-.87.8-1.37.8-.05,0-.13-.02-.19-.09-.28-.33-.23-1.59-.18-1.88.03-.18.11-.51.23-.92-.04.06-.08.11-.12.17-.49.72-.67.95-.85.95-.02,0,0,0,0,0-.15.41-.31.8-.44,1.13.6.03.79.37.88.88.01.09.02.24.02.42,0,.24,0,.5-.01.64,1.66.27,3.37.41,5.1.41s3.46-.14,5.13-.41"/>
      <path d="M407.3,6.46c-.06.17-.14.35-.19.47,0-.05,0-.1,0-.15,0-.56-.07-1.26-.32-1.79h-.23c-.18.28-.51.78-.7,1.07,0-.19-.02-.43-.07-.72-.11-.66-.41-1.68-1.19-2.83h-.28c-.78,1.15-1.08,2.17-1.19,2.83-.05.29-.07.53-.07.72-.19-.29-.52-.79-.69-1.07h-.23c-.25.53-.31,1.23-.31,1.79v.15c-.05-.12-.12-.3-.19-.47h-.3c-.24.78-.17,1.38-.12,1.91.01.12.02.23.03.35v.09s.1.02.1.02c1.29.26,2.93.27,3.11.27s1.83-.01,3.12-.27l.09-.02v-.09c.02-.11.03-.23.04-.36.05-.55.12-1.23-.11-1.9h-.31Z"/>
      <path class="cls-11" d="M403.34,6.5s-.02-.12-.02-.33c0-.58.14-1.88,1.15-3.41,1.01,1.54,1.15,2.83,1.15,3.41,0,.21-.02.33-.02.33l.23.08s.62-.97.83-1.27c.16.45.2,1.01.2,1.47,0,.52-.05.93-.06.94l.25.06s.25-.62.4-1c.06.25.08.5.08.75,0,.28-.03.55-.05.81-.01.1-.02.18-.03.27-1.25.24-2.8.25-2.98.25s-1.72,0-2.98-.25c0-.08-.02-.17-.02-.26-.03-.22-.05-.47-.05-.73s.02-.52.09-.81c.15.38.39.98.39.98l.24-.06s-.06-.41-.06-.93c0-.46.05-1.01.2-1.47.2.3.83,1.27.83,1.27l.23-.08Z"/>
      <path d="M398.4,11.98v8.63l6.06,2.48,6.04-2.44v-9.18s-5.76,2.33-6.04,2.44c-.28-.11-6.06-2.48-6.06-2.48v.55Z"/>
      <path class="cls-2" d="M399.16,12.54c.86.35,5.31,2.17,5.31,2.17,0,0,4.43-1.79,5.29-2.14v7.58c-.42.17-5.02,2.03-5.29,2.14-.26-.11-4.89-1.99-5.31-2.16v-7.59Z"/>
      <polygon points="404.47 15.37 399.76 13.46 399.76 19.71 404.47 21.62 409.18 19.71 409.18 13.46 404.47 15.37"/>
      <path d="M410.8,21.96l-6.32,2.92-6.76-3.12-.05.09c-.56-.3-1.21-.88-1.22-.88l-.04-.04h-.05s-1.58.16-1.58.16l-.07.13.91,1.35h.05s.88.17,1.47.41l-.04.08,5.68,2.62-2.1.97c-.54.25-1.58.75-2.4,1.24-.91.55-1.24.89-1.11,1.17.03.05.07.11.18.15.59.2,2.73-.71,3.95-1.27l3.18-1.47,3.18,1.47c1.22.56,3.36,1.48,3.95,1.27.11-.04.16-.1.19-.15.02-.05.04-.13,0-.23-.21-.58-2.29-1.61-3.51-2.17l-2.1-.97,5.26-2.42c.16.03.34.02.52-.07.57-.26,1.56-1.01,1.88-1.7l.07-.16-.17-.03c-.71-.13-1.99.07-2.54.32-.17.08-.31.21-.4.37"/>
      <path d="M407.94,9.15c-1.02.2-2.73.35-3.41.35s-2.38-.14-3.41-.35l-.14-.03v.14c-.02.06-.13,1.48.82,2.49.61.65,1.51.97,2.67.97s2.08-.32,2.71-.97c.98-1.01.91-2.42.91-2.48v-.14s-.15.03-.15.03Z"/>
      <path class="cls-10" d="M381,46.88c-2.17-3.78-3.41-8.14-3.41-12.77,0-9.65,5.36-18.09,13.35-22.63l1.75,1.63c-7.61,4.06-12.78,11.95-12.78,21,0,4.05,1.03,7.87,2.86,11.21"/>
      <line class="cls-8" x1="382.77" y1="45.32" x2="381" y2="46.88"/>
      <path class="cls-11" d="M391.23,54.26l-6.79,3.56c-2.68-2.15-4.99-4.72-6.81-7.61l5.27-4.67c1.98,3.55,4.86,6.55,8.34,8.73"/>
      <path d="M389.7,61.24c-1.79-.93-3.48-2.02-5.05-3.25l6.67-3.5-1.62,6.75Z"/>
      <path class="cls-2" d="M389.15,9.8l1.6,1.49c-8.03,4.59-13.41,13.09-13.41,22.81,0,4.7,1.26,9.12,3.46,12.94l-1.62,1.43c-2.54-4.22-3.99-9.14-3.99-14.38,0-10.28,5.58-19.28,13.95-24.3"/>
      <path class="cls-10" d="M427.95,46.88c2.17-3.78,3.41-8.14,3.41-12.77,0-9.65-5.36-18.09-13.35-22.63l-1.75,1.63c7.62,4.06,12.78,11.95,12.78,21,0,4.05-1.03,7.87-2.85,11.21"/>
      <line class="cls-8" x1="426.18" y1="45.32" x2="427.95" y2="46.88"/>
      <path class="cls-11" d="M417.72,54.26l6.79,3.56c2.68-2.15,4.99-4.72,6.81-7.61l-5.26-4.67c-1.99,3.55-4.86,6.55-8.34,8.73"/>
      <path d="M419.25,61.24c1.79-.93,3.48-2.02,5.05-3.25l-6.67-3.5,1.62,6.75Z"/>
      <path class="cls-2" d="M419.8,9.8l-1.61,1.49c8.02,4.59,13.41,13.09,13.41,22.81,0,4.7-1.26,9.12-3.47,12.94l1.62,1.43c2.54-4.22,3.99-9.14,3.99-14.38,0-10.28-5.58-19.28-13.95-24.3"/>
      <path class="cls-2" d="M397.57,22.07l-.33.66c-.54-.22-1.27-.37-1.48-.42-.03-.05-.35-.52-.56-.84l1.27.59.11-.22-1.25-.59c.38-.04.94-.09,1.01-.09.15.14.73.62,1.24.9"/>
      <path class="cls-2" d="M410.98,22.65c-.03-.07-.06-.27.02-.47.06-.16.17-.28.32-.35.46-.21,1.5-.38,2.17-.32-.37.6-1.22,1.21-1.65,1.4-.44.2-.81-.18-.86-.27"/>
      <path class="cls-11" d="M403.34,6.5s-.02-.12-.02-.33c0-.58.14-1.88,1.15-3.41,1.01,1.54,1.15,2.83,1.15,3.41,0,.21-.02.33-.02.33l.23.08s.62-.97.83-1.27c.16.45.2,1.01.2,1.47,0,.52-.05.93-.06.94l.25.06s.25-.62.4-1c.06.25.08.5.08.75,0,.28-.03.55-.05.81-.01.1-.02.18-.03.27-1.25.24-2.8.25-2.98.25s-1.72,0-2.98-.25c0-.08-.02-.17-.02-.26-.03-.22-.05-.47-.05-.73s.02-.52.09-.81c.15.38.39.98.39.98l.24-.06s-.06-.41-.06-.93c0-.46.05-1.01.2-1.47.2.3.83,1.27.83,1.27l.23-.08Z"/>
      <path d="M398.4,11.98v8.63l6.06,2.48,6.04-2.44v-9.18s-5.76,2.33-6.04,2.44c-.28-.11-6.06-2.48-6.06-2.48v.55Z"/>
      <path class="cls-2" d="M399.16,12.54c.86.35,5.31,2.17,5.31,2.17,0,0,4.43-1.79,5.29-2.14v7.58c-.42.17-5.02,2.03-5.29,2.14-.26-.11-4.89-1.99-5.31-2.16v-7.59Z"/>
      <polygon points="404.47 15.37 399.76 13.46 399.76 19.71 404.47 21.62 409.18 19.71 409.18 13.46 404.47 15.37"/>
      <path class="cls-2" d="M410.98,22.65c-.03-.07-.06-.27.02-.47.06-.16.17-.28.32-.35.46-.21,1.5-.38,2.17-.32-.37.6-1.22,1.21-1.65,1.4-.44.2-.81-.18-.86-.27"/>
      <path class="cls-1" d="M403.36,56.77c-.15,1.77-.34,4.29-.29,4.88.01.17.03.36.08.54-.3.56-.85,1.09-1.08,1.09-.05,0-.1-.02-.14-.06-.23-.23-.31-.96-.31-1.58,0-.36.19-1.4.38-2.49.11-.59.21-1.2.3-1.74.34-.26.69-.48,1.07-.64"/>
      <path class="cls-1" d="M402,57.66c-.08.47-.17.98-.25,1.45-.2,1.15-.38,2.15-.39,2.53,0,.09,0,.19,0,.29-.32.5-.86.94-1.33.94-.04-.02-.13-.19-.16-.72,0-.12-.01-.24-.01-.36,0-.26.02-.49.04-.61.04-.26.21-.88.43-1.61.46-.63,1.02-1.34,1.67-1.92"/>
      <path class="cls-1" d="M404.48,56.53c.3,0,.58.05.87.14.15,1.77.35,4.38.3,4.96-.07.9-.59,2.16-1.17,2.16s-1.09-1.25-1.17-2.16c-.05-.58.15-3.19.3-4.96.28-.09.57-.14.87-.14"/>
      <path class="cls-1" d="M405.61,56.77c.15,1.77.34,4.29.29,4.88-.01.17-.04.36-.07.54.29.56.84,1.09,1.08,1.09.05,0,.1-.02.14-.06.24-.23.31-.96.31-1.58,0-.36-.18-1.4-.38-2.49-.1-.59-.21-1.2-.3-1.74-.33-.26-.69-.48-1.07-.64"/>
      <path class="cls-1" d="M406.98,57.66c.07.47.17.98.25,1.45.2,1.15.38,2.15.38,2.53,0,.09,0,.19,0,.29.32.5.86.94,1.33.94.04-.02.13-.19.16-.72.01-.12.01-.24.01-.36,0-.26-.01-.49-.03-.61-.05-.26-.22-.88-.43-1.61-.46-.63-1.02-1.34-1.67-1.92"/>
      <path class="cls-3" d="M397.42,64.09c0-.66.58-1.37.99-1.37.45,0,.61.16.7.68.01.07.02.21.02.36,0,.2,0,.43-.01.59-.17-.04-.52-.11-.52-.11l-.05.06c-.11.13-.22.3-.22.54,0,.36.12.66.21.86-.88-.14-1.13-1.08-1.13-1.6"/>
      <path class="cls-3" d="M398.68,61.25c-.17.46-.34.89-.49,1.25-.09.03-.18.08-.26.14-.02-.03-.04-.06-.05-.09-.14-.19-.36-.3-.67-.35-.02,0-.04,0-.06,0-.03-.15-.11-.28-.25-.41.11-.45.24-.9.29-1.06.1-.04.19-.09.27-.13.16-.08.3-.16.49-.16.16,0,.28.2.41.41.09.15.19.31.32.4"/>
      <path class="cls-3" d="M395.81,63.22c-.18.09-.34.2-.45.38-.19.31-.24.63-.25.84-.2-.16-.33-.35-.4-.59-.04-.11-.05-.23-.05-.35,0-.37.14-.73.29-.99.19-.33.6-.62,1.01-.73.22-.06.43-.05.55.02.22.12.34.25.39.41-.42.11-.87.52-1.09,1.01"/>
      <path class="cls-3" d="M397.19,63.84c-.21.18-.41.39-.47.66-.02.11-.03.21-.03.31,0,.23.04.43.09.57-.25-.08-.44-.22-.59-.42-.2-.28-.27-.65-.27-.97,0-.13.01-.26.03-.37.12-.65.82-1.25,1.22-1.19.25.04.41.13.51.25.02.03.05.07.06.12-.27.26-.48.64-.54,1.04"/>
      <path class="cls-9" d="M392.66,51.34c.26.32,1.31,1.14,2.25,1.73-.11-.04-.21-.07-.31-.1-1.89-.6-3.23-1.31-3.77-1.98-.18-.21-.26-.42-.27-.63.34.18.69.36,1.07.53.34.16.68.3,1.03.45"/>
      <path class="cls-9" d="M387.97,45.32c.43,1.23,2.39,3.02,3.9,4.09-.47-.2-.94-.41-1.39-.64-2.54-1.27-4.52-2.88-5.58-4.54-.8-1.25-1.51-2.82-1.28-3.16,0-.02.03-.06.13-.06.87,1.34,2.13,2.67,3.65,3.87.19.15.38.3.58.44"/>
      <path class="cls-9" d="M389.5,46.06c-.67-.42-1.33-.88-1.95-1.37-1.51-1.19-2.76-2.53-3.62-3.86-.95-1.47-1.43-2.93-1.43-4.33,0-1,.17-1.21.24-1.25.02-.01.04-.03.1,0,.18.62.42,1.23.71,1.84.63,1.32,1.51,2.59,2.61,3.79.34,1.41,1.21,2.72,1.89,3.59.44.56.94,1.11,1.45,1.6"/>
      <path class="cls-9" d="M390.74,49.18c.33.48,1.11,1.28,2.01,1.94-.34-.14-.67-.29-1.01-.45-2.33-1.08-4.07-2.29-4.51-3.16-.11-.21-.14-.39-.09-.54.93.74,2.01,1.41,3.22,2.02.13.06.25.13.38.19"/>
      <path class="cls-9" d="M387.93,42.25c-.37-.32-.73-.66-1.08-1.01-1.32-1.33-2.35-2.77-3.07-4.25-.76-1.57-1.14-3.18-1.14-4.77v-.2c0-1.18,0-1.62.25-2.66.1-.41.28-.76.42-.79.04,0,.08.01.13.06.13,1.64.53,3.28,1.18,4.9.17.42.35.84.55,1.26-.04,1.27.35,2.91,1.12,4.61.46,1.03,1.05,2.04,1.64,2.86"/>
      <path class="cls-3" d="M410.55,64.49c.05.1.09.21.09.35,0,.36-.12.66-.21.86.88-.14,1.13-1.08,1.13-1.6,0-.66-.58-1.37-.99-1.37-.45,0-.61.16-.7.68-.02.07-.02.21-.02.37,0,.2.01.43.02.59.17-.04.52-.11.52-.11l.05.06c.05.06.09.12.13.19"/>
      <path class="cls-3" d="M410.3,61.25c.17.46.34.89.48,1.25.1.03.18.08.27.14.02-.03.04-.06.05-.09.13-.19.35-.3.67-.35.02,0,.04,0,.06,0,.03-.15.11-.28.25-.41-.11-.45-.24-.9-.29-1.06-.09-.04-.19-.09-.28-.13-.16-.08-.3-.16-.48-.16-.16,0-.28.2-.41.41-.09.15-.19.31-.32.4"/>
      <path class="cls-3" d="M413.17,63.22c.18.09.34.2.45.38.18.31.24.63.25.84.2-.16.33-.35.4-.59.03-.11.05-.23.05-.35,0-.37-.13-.73-.28-.99-.2-.33-.6-.62-1.01-.73-.22-.06-.43-.05-.55.02-.22.12-.35.25-.39.41.42.11.87.52,1.09,1.01"/>
      <path class="cls-3" d="M411.79,63.84c.22.18.42.39.47.66.02.11.03.21.03.31,0,.23-.04.43-.09.57.24-.08.44-.22.58-.42.21-.28.28-.65.28-.97,0-.13-.01-.26-.04-.37-.11-.65-.82-1.25-1.22-1.19-.25.04-.41.13-.5.25-.03.03-.05.07-.06.12.27.26.48.64.54,1.04"/>
      <path class="cls-9" d="M416.32,51.34c-.26.32-1.31,1.14-2.25,1.73.1-.04.21-.07.31-.1,1.89-.6,3.23-1.31,3.77-1.98.17-.21.27-.42.27-.63-.34.18-.7.36-1.07.53-.34.16-.68.3-1.03.45"/>
      <path class="cls-9" d="M421,45.32c-.42,1.23-2.39,3.02-3.89,4.09.48-.2.94-.41,1.4-.64,2.54-1.27,4.52-2.88,5.58-4.54.8-1.25,1.51-2.82,1.28-3.16-.01-.02-.04-.06-.14-.06-.87,1.34-2.13,2.67-3.65,3.87-.19.15-.38.3-.58.44"/>
      <path class="cls-9" d="M419.47,46.06c.67-.42,1.33-.88,1.95-1.37,1.51-1.19,2.77-2.53,3.63-3.86.94-1.47,1.43-2.93,1.43-4.33,0-1-.17-1.21-.25-1.25-.01-.01-.04-.03-.1,0-.19.62-.42,1.23-.72,1.84-.63,1.32-1.51,2.59-2.61,3.79-.34,1.41-1.21,2.72-1.89,3.59-.44.56-.94,1.11-1.45,1.6"/>
      <path class="cls-9" d="M418.24,49.18c-.33.48-1.11,1.28-2,1.94.34-.14.68-.29,1.01-.45,2.34-1.08,4.07-2.29,4.51-3.16.11-.21.14-.39.09-.54-.93.74-2.01,1.41-3.23,2.02-.12.06-.25.13-.38.19"/>
      <path class="cls-9" d="M421.04,42.25c.37-.32.74-.66,1.08-1.01,1.32-1.33,2.35-2.77,3.07-4.25.75-1.57,1.14-3.18,1.14-4.77v-.2c0-1.18,0-1.62-.25-2.66-.1-.41-.28-.76-.43-.79-.04,0-.08.01-.12.06-.13,1.64-.53,3.28-1.18,4.9-.17.42-.35.84-.56,1.26.05,1.27-.35,2.91-1.12,4.61-.47,1.03-1.05,2.04-1.64,2.86"/>
      <path class="cls-6" d="M404.49,56.29c-2.24,0-3.99,2.59-4.93,3.97-.25.37-.52.78-.63.83-.13,0-.23-.19-.35-.37-.15-.25-.32-.53-.63-.53-.24,0-.43.1-.6.18-.16.09-.31.16-.49.16-.05,0-.06-.02-.06-.02-.03-.05-.06-.24.26-.94.23-.5.57-1.12.9-1.72.61-1.09,1.18-2.13,1.18-2.6,0-1.06-.35-1.35-.39-1.37,0,0-.02-.01-.03-.01-.46-.21-1.06-.66-1.55-1.17.44.07.86.12,1.24.13l-.23-.26c-.14,0-.24-.02-.39-.03-.71-.37-1.34-1.02-1.7-1.55.55.11,1.09.19,1.61.24l-.14-.26c-.16-.02-.31-.04-.47-.06-.78-.45-1.45-1.18-1.92-2.07.59.15,1.18.27,1.75.34l-.06-.26c-.27-.04-.55-.08-.83-.14-.69-.65-1.31-1.49-1.71-2.35.75.3,1.51.57,2.29.8v-.25c-.26-.08-.57-.18-.85-.27-1.11-.78-2.03-1.95-2.55-3.24,1.05.62,2.15,1.15,3.28,1.56l.09-.23c-.39-.15-.78-.31-1.17-.47-1.24-1.26-2.16-2.7-2.55-3.91,1.14.95,2.43,1.81,3.85,2.38l.12-.22c-3.76-1.52-6.6-5.02-8.02-7.07-1.09-1.57-2.01-3.26-2.66-4.87-.62-1.52-.96-2.9-.96-3.88,0-1.98.24-3.54.75-4.77.49-1.2,1.24-2.13,2.29-2.85.39-.26.64-.26.71-.2.06.07.03.23-.14.44-1.08,1.32-1.43,3.02-1.53,4.21-.13,1.5.06,3.09.53,4.36.96,2.63,3.33,4.61,4.61,5.68.38.32.68.57.76.69.1.16.2.48.33.88.28.86.7,2.17,1.59,3.24,1.26,1.54,2.98,2.08,4.07,2.08.87,0,1.7-.31,2.34-.87.62-.55.98-1.27.98-1.99,0-.58-.33-1.5-1.24-1.5-.64,0-.94.31-1.08.56-.06-.16-.09-.31-.09-.47,0-.13.02-.26.07-.38.24-.67,1.04-1.02,1.05-1.02l.05-.02.02-.05c.6-1.23,1.63-1.4,2.56-1.4,1.04,0,1.83.4,2.4,1.24.52.75.82,1.75,1.11,2.71.49,1.63.96,3.18,2.47,3.18,1.09,0,2.82-.54,4.07-2.08.89-1.08,1.31-2.38,1.59-3.24.13-.4.23-.72.33-.88.07-.12.38-.37.76-.69,1.27-1.07,3.64-3.05,4.61-5.68.47-1.26.66-2.85.53-4.36-.1-1.19-.45-2.89-1.53-4.21-.17-.21-.2-.37-.14-.44.06-.06.31-.07.71.2,1.05.72,1.8,1.65,2.28,2.85.51,1.23.75,2.8.75,4.77,0,.98-.34,2.35-.96,3.88-.66,1.61-1.57,3.29-2.66,4.87-1.41,2.05-4.26,5.56-8.02,7.07l.12.22c1.42-.57,2.71-1.43,3.85-2.38-.4,1.21-1.32,2.65-2.55,3.91-.39.17-.77.33-1.17.47l.09.23c1.13-.42,2.22-.94,3.28-1.56-.52,1.29-1.44,2.47-2.55,3.24-.27.09-.58.19-.86.27v.25c.79-.22,1.55-.49,2.3-.8-.4.86-1.02,1.7-1.71,2.35-.28.06-.55.1-.83.14l-.05.26c.56-.08,1.15-.19,1.75-.34-.47.89-1.14,1.62-1.92,2.07-.16.03-.32.04-.48.06l-.14.26c.53-.06,1.06-.14,1.61-.24-.37.53-.99,1.18-1.7,1.55-.14.02-.24.03-.38.03l-.23.26c.39-.02.8-.06,1.24-.13-.48.51-1.09.96-1.55,1.17,0,0-.02,0-.02.01-.04.03-.39.31-.39,1.37,0,.47.57,1.51,1.18,2.6.33.6.68,1.22.91,1.72.33.71.29.89.26.94,0,0-.02.02-.07.02-.18,0-.32-.08-.48-.16-.18-.09-.36-.18-.6-.18-.31,0-.48.28-.63.53-.11.18-.22.37-.35.37-.1-.05-.38-.47-.62-.83-.94-1.39-2.69-3.97-4.94-3.97"/>
      <path class="cls-6" d="M391.28,41.84c-1.39-1.07-2.63-2.31-3.7-3.69-.05-.07-.11-.14-.16-.21h-.01c-.79-1.45-1.51-4.91-1.3-6.78.63,1.46,1.49,3.01,2.51,4.49.09.14.2.27.3.42.2,1.86,1.05,3.92,2.36,5.77"/>
      <path class="cls-6" d="M395.08,52.2c.33.47.93.96,1.48,1.3-.2-.05-.4-.09-.61-.15-.74-.33-1.99-1.21-2.66-1.77.61.23,1.22.43,1.8.61"/>
      <path class="cls-6" d="M392.02,47.69c.37.81,1.51,1.94,2.5,2.65-.51-.15-1.02-.31-1.53-.49-1.26-.7-3.82-2.78-4.61-4.24,1.15.81,2.39,1.51,3.65,2.08"/>
      <path class="cls-6" d="M393.37,47.99c-.89-.34-1.79-.75-2.67-1.22-1.27-.95-3.41-3.19-4.16-5.48.04.04.08.09.13.13,1.08,1.09,2.31,2.08,3.66,2.94.23.84,1.85,2.62,3.04,3.63"/>
      <path class="cls-6" d="M394.29,51.69c-1.13-.41-2.39-1.53-3.05-2.28.82.37,1.66.68,2.51.95.49.76,1.19,1.33,1.77,1.71-.4-.11-.81-.24-1.23-.38"/>
      <path class="cls-6" d="M392.26,45.19c-1.2-.63-2.32-1.35-3.35-2.15-.83-.89-1.72-2.29-2.38-3.76-.65-1.45-1.03-2.85-1.09-4.01.55,1.05,1.21,2.06,1.95,3.02.52.66,1.08,1.29,1.67,1.89.29.96.88,2.09,1.65,3.17.49.68,1.03,1.31,1.56,1.83"/>
      <path class="cls-6" d="M417.69,41.84c1.38-1.07,2.63-2.31,3.7-3.69.05-.07.11-.14.16-.21h.01c.79-1.45,1.51-4.91,1.29-6.78-.63,1.46-1.49,3.01-2.51,4.49-.09.14-.19.27-.3.42-.2,1.86-1.05,3.92-2.36,5.77"/>
      <path class="cls-6" d="M413.9,52.2c-.33.47-.93.96-1.48,1.3.2-.05.41-.09.62-.15.75-.33,1.98-1.21,2.66-1.77-.61.23-1.22.43-1.8.61"/>
      <path class="cls-6" d="M416.95,47.69c-.37.81-1.51,1.94-2.5,2.65.51-.15,1.02-.31,1.53-.49,1.26-.7,3.82-2.78,4.62-4.24-1.15.81-2.39,1.51-3.65,2.08"/>
      <path class="cls-6" d="M415.61,47.99c.89-.34,1.78-.75,2.66-1.22,1.27-.95,3.41-3.19,4.16-5.48-.05.04-.09.09-.13.13-1.08,1.09-2.31,2.08-3.66,2.94-.23.84-1.84,2.62-3.03,3.63"/>
      <path class="cls-6" d="M414.69,51.69c1.12-.41,2.39-1.53,3.05-2.28-.82.37-1.66.68-2.5.95-.49.76-1.2,1.33-1.77,1.71.4-.11.81-.24,1.23-.38"/>
      <path class="cls-6" d="M416.72,45.19c1.19-.63,2.32-1.35,3.35-2.15.83-.89,1.72-2.29,2.38-3.76.65-1.45,1.03-2.85,1.09-4.01-.55,1.05-1.2,2.06-1.95,3.02-.52.66-1.07,1.29-1.67,1.89-.29.96-.87,2.09-1.65,3.17-.49.68-1.03,1.31-1.55,1.83"/>
      <path class="cls-2" d="M391.99,42.36c-.73-.91-1.36-1.94-1.84-2.97-.46-.99-.77-1.97-.92-2.9.82,1.1,1.94,2.42,3.3,3.62.29,1.18,1.14,2.63,2.29,3.93-.98-.48-1.93-1.04-2.83-1.68"/>
      <path class="cls-2" d="M395.49,52.32c.45.12.88.22,1.29.3.33.39.82.85,1.32,1.18-.21-.03-.45-.06-.71-.11-.51-.21-1.39-.79-1.91-1.36"/>
      <path class="cls-2" d="M394.87,48.74c.4.84.97,1.55,1.65,2.06-.39-.07-.8-.15-1.2-.25-1.01-.53-2.37-1.81-2.92-2.69.82.36,1.66.65,2.47.88"/>
      <path class="cls-2" d="M395.6,48.68c-.49-.12-.98-.26-1.49-.43-1.09-.75-2.9-2.67-3.42-3.67,1.05.64,2.16,1.22,3.31,1.7.37.87.92,1.7,1.59,2.39"/>
      <path class="cls-2" d="M394.13,50.48c.55.16,1.1.3,1.64.42.29.49.82,1.09,1.45,1.54-.27-.04-.56-.1-.85-.16-.47-.24-1.53-.86-2.24-1.8"/>
      <path class="cls-2" d="M395.05,46.44c-.65-.24-1.29-.51-1.91-.81-1.27-.97-2.95-3.1-3.69-5.05.62.6,1.29,1.16,1.99,1.68.47.35.96.68,1.45.99.43,1.22,1.2,2.35,2.16,3.19"/>
      <path class="cls-2" d="M416.99,42.36c.73-.91,1.36-1.94,1.84-2.97.46-.99.77-1.97.92-2.9-.82,1.1-1.94,2.42-3.3,3.62-.29,1.18-1.13,2.63-2.29,3.93.98-.48,1.93-1.04,2.84-1.68"/>
      <path class="cls-2" d="M413.48,52.32c-.44.12-.88.22-1.29.3-.33.39-.82.85-1.32,1.18.21-.03.45-.06.71-.11.51-.21,1.39-.79,1.9-1.36"/>
      <path class="cls-2" d="M414.11,48.74c-.4.84-.98,1.55-1.65,2.06.39-.07.79-.15,1.2-.25,1-.53,2.37-1.81,2.92-2.69-.83.36-1.66.65-2.46.88"/>
      <path class="cls-2" d="M413.38,48.68c.48-.12.98-.26,1.49-.43,1.09-.75,2.9-2.67,3.41-3.67-1.04.64-2.15,1.22-3.31,1.7-.37.87-.92,1.7-1.59,2.39"/>
      <path class="cls-2" d="M414.84,50.48c-.55.16-1.1.3-1.64.42-.29.49-.82,1.09-1.45,1.54.27-.04.56-.1.85-.16.47-.24,1.53-.86,2.24-1.8"/>
      <path class="cls-2" d="M413.93,46.44c.65-.24,1.29-.51,1.91-.81,1.26-.97,2.95-3.1,3.69-5.05-.63.6-1.29,1.16-1.99,1.68-.47.35-.95.68-1.45.99-.43,1.22-1.19,2.35-2.16,3.19"/>
      <path d="M404.47,54.45l.68-.66.4.39h.06c1.08-.18,2.11-.6,2.99-1.22l.05-.03v-.55h.95v-.93c.31,0,.57,0,.57,0l.04-.05c.64-.87,1.07-1.88,1.24-2.92v-.06s-.39-.39-.39-.39l.68-.65-.09-.09-.59-.57.4-.39v-.06c-.19-1.05-.62-2.06-1.25-2.92l-.04-.05h-.56v-.93s-.95,0-.95,0c0-.3,0-.55,0-.55l-.05-.04c-.89-.62-1.92-1.04-3-1.21h-.06s-.4.38-.4.38l-.59-.57-.09-.09-.09.09-.59.57-.4-.39h-.06c-1.08.18-2.11.6-3,1.22l-.05.04s0,.25,0,.55h-.96v.93h-.56l-.03.05c-.64.86-1.07,1.87-1.25,2.92v.06s.39.39.39.39l-.59.57-.09.09.68.65-.4.39v.06c.18,1.04.61,2.05,1.25,2.92l.03.05s.26,0,.57,0v.93h.96v.55l.05.03c.88.62,1.91,1.04,2.99,1.21h.06s.4-.38.4-.38l.68.66Z"/>
      <path class="cls-11" d="M400.07,50.76c-.76-.93-1.21-2.11-1.21-3.39,0-3.02,2.52-5.48,5.62-5.48s5.62,2.46,5.62,5.48c0,1.28-.46,2.46-1.21,3.39-.15-.06-.31-.11-.47-.15l.83-1.28-.16-.17c-2.07.77-4.32.66-5.85.43-1.66-.25-2.84-.69-2.85-.69l-.17.11c-.05.94.44,1.7.76,2.09-.27-.03-.53-.12-.74-.24l-.15-.1"/>
      <path d="M403.51,48.84c-.04.16-.07.31-.12.47l.17.15s3.3-1.16,5.33-.46l.15-.17s-.7-1.23-1.79-2.6c-1.01-1.27-2.58-2.92-4.32-3.61l-.15.19s.46.55.76,1.62c.13.46.24,1.06.26,1.8-.12-.19-.28-.43-.48-.67-.63-.75-1.4-1.21-2.2-1.33l-.12.2s.3.42.42,1.15c.11.67.09,1.77-.64,3.13l.14.18c.53-.13,1.98-.36,2.61-.04"/>
      <path class="cls-2" d="M403.56,48.6c-.69-.3-1.93-.11-2.47,0,.47-.94.6-1.76.6-2.39,0-.25-.02-.48-.06-.67-.08-.45-.21-.79-.32-1,1.55.38,2.37,2.04,2.46,2.23-.02.55-.09,1.16-.23,1.84"/>
      <path class="cls-2" d="M404.04,46.48c0-.89-.12-1.6-.27-2.13-.17-.6-.4-1.05-.55-1.33,1.53.75,2.9,2.21,3.82,3.35.78.97,1.35,1.87,1.61,2.3-.85-.22-1.94-.2-3.25.05-.76.14-1.4.33-1.72.43.26-1.01.36-1.91.36-2.68"/>
      <path class="cls-2" d="M408.13,50.57c-.51-.05-1.03.05-1.42.28-.57.35-1.51.35-2.08,0-.64-.39-1.69-.39-2.34,0-.28.16-.63.25-.99.26-.23-.25-.83-.99-.85-1.93.39.13,1.41.45,2.73.65,1.47.22,3.61.34,5.64-.32-.14.22-.43.67-.69,1.07"/>
      <path class="cls-2" d="M405.08,52.81c-.2.02-.4.03-.61.03-.67,0-1.32-.12-1.92-.33.58-.28,1.42-.25,1.95.07.17.1.37.18.58.23"/>
      <path class="cls-2" d="M408.07,51.57c-.53.43-1.13.76-1.79.98-.53.18-1.2.09-1.65-.18-.64-.39-1.69-.39-2.34,0-.02,0-.03.02-.05.03-.21-.09-.42-.2-.63-.31.29-.04.58-.13.81-.26.57-.35,1.5-.35,2.07,0,.66.39,1.69.39,2.34,0,.33-.2.79-.29,1.23-.25"/>
      <path class="cls-2" d="M408.32,51.36c-.55-.09-1.17,0-1.61.26-.57.34-1.5.34-2.08,0-.64-.39-1.69-.39-2.34,0-.28.17-.65.26-1.01.26-.28-.19-.53-.4-.77-.63.62.19,1.4.13,1.92-.18.57-.34,1.5-.34,2.08,0,.66.4,1.69.4,2.34,0,.51-.3,1.3-.34,1.87-.1-.12.14-.25.27-.39.4"/>
      <path class="cls-2" d="M404.18,41.66c-1.4.07-2.67.62-3.64,1.47v-1.19c.83-.57,1.79-.96,2.78-1.12.06.06.57.55.87.84"/>
      <path class="cls-2" d="M404.18,53.08c-.29.29-.81.79-.87.84-1-.16-1.95-.55-2.77-1.12v-1.2c.97.86,2.24,1.41,3.64,1.47"/>
      <rect class="cls-2" x="399.58" y="42.6" width=".71" height=".69"/>
      <rect class="cls-2" x="399.58" y="51.45" width=".71" height=".69"/>
      <polygon class="cls-2" points="398.05 46.88 398.55 47.37 398.05 47.86 397.55 47.37 398.05 46.88"/>
      <path class="cls-2" d="M398.9,51.21c-.58-.81-.98-1.74-1.15-2.71l.87-.85c.07,1.36.63,2.6,1.51,3.56h-1.23Z"/>
      <path class="cls-2" d="M398.61,47.08c-.29-.28-.8-.79-.87-.85.18-.97.57-1.9,1.16-2.7h1.23c-.88.95-1.45,2.19-1.52,3.55"/>
      <path class="cls-2" d="M404.47,41.6l.5-.49c-.14-.15-.41-.4-.5-.49-.09.09-.35.34-.5.49l.5.49Z"/>
      <path class="cls-2" d="M403.97,53.63l.5-.49.5.49c-.15.15-.41.4-.5.49-.09-.09-.35-.34-.5-.49"/>
      <path class="cls-2" d="M404.76,41.66c1.4.07,2.67.62,3.64,1.47v-1.19c-.83-.57-1.79-.96-2.78-1.12-.06.06-.57.55-.87.84"/>
      <path class="cls-2" d="M404.77,53.08c.29.29.81.79.87.84,1-.16,1.95-.55,2.77-1.12v-1.2c-.97.86-2.25,1.41-3.64,1.47"/>
      <rect class="cls-2" x="408.66" y="42.6" width=".71" height=".69"/>
      <rect class="cls-2" x="408.66" y="51.45" width=".71" height=".69"/>
      <polygon class="cls-2" points="410.89 46.88 410.4 47.37 410.89 47.86 411.39 47.37 410.89 46.88"/>
      <path class="cls-2" d="M410.05,51.21c.58-.81.98-1.74,1.15-2.71l-.87-.85c-.07,1.36-.62,2.6-1.51,3.56h1.23Z"/>
      <path class="cls-2" d="M410.33,47.08c.29-.28.81-.79.87-.85-.18-.97-.57-1.9-1.15-2.7h-1.23c.88.95,1.45,2.19,1.51,3.55"/>
      <path class="cls-4" d="M414.57,63.46c0,.15-.01.3-.05.46-.1.37-.34.66-.71.87l-.18-.12v-.08c0-.16-.02-.53-.22-.86-.03-.06-.07-.1-.12-.14.08.43.05,1.07-.29,1.53-.23.31-.55.51-.96.58l-.13-.18s.14-.31.14-.69c0-.09,0-.17-.02-.27-.02-.13-.1-.24-.21-.35-.02.4-.14.79-.35,1.1-.29.43-.72.66-1.26.66l-.1-.19s.29-.41.29-.92c0-.12-.03-.21-.12-.32-.12.02-.65.14-.65.14-1.67.27-3.39.4-5.14.4s-3.45-.14-5.12-.4c0,0-.53-.12-.65-.14-.08.11-.12.21-.12.32,0,.51.29.92.29.92l-.1.19c-.53,0-.97-.23-1.26-.66-.2-.3-.33-.7-.34-1.1-.11.11-.18.22-.21.35-.02.09-.02.18-.02.27,0,.39.14.69.14.69l-.14.18c-.41-.07-.74-.27-.96-.58-.33-.46-.36-1.09-.29-1.53-.05.04-.09.09-.12.14-.2.34-.23.7-.23.86,0,.05,0,.08,0,.08l-.18.12c-.37-.21-.6-.5-.7-.87-.05-.15-.07-.3-.06-.45-3.67-1.19-7.05-3.02-9.98-5.35-.24.6-2.11,5.16-2.13,5.2.04.74,2.4,2.85,6.81,4.96,2.92,1.4,8.79,3.53,15.36,3.53s12.45-2.14,15.37-3.53c4.41-2.11,6.77-4.23,6.81-4.96-.02-.05-1.88-4.61-2.12-5.2-2.93,2.32-6.3,4.15-9.96,5.34"/>
      <path class="cls-9" d="M384.95,26.76c0,1.05.36,2.44.98,3.96-.18.83-.13,2.18.15,3.72.17.92.4,1.81.65,2.53-.76-1.13-1.39-2.32-1.88-3.55-.68-1.7-1.08-3.43-1.18-5.14-.05-.77.16-2.08.52-3.36.42-1.45.86-2.2,1.11-2.29.02,0,.07-.03.14.05-.33,1.12-.49,2.46-.49,4.07"/>
      <path class="cls-9" d="M424.02,26.76c0,1.05-.35,2.44-.97,3.96.18.83.13,2.18-.15,3.72-.17.92-.4,1.81-.65,2.53.76-1.13,1.39-2.32,1.88-3.55.68-1.7,1.08-3.43,1.18-5.14.04-.77-.16-2.08-.52-3.36-.42-1.45-.86-2.2-1.11-2.29-.02,0-.07-.03-.14.05.33,1.12.49,2.46.49,4.07"/>
      <path class="cls-10" d="M404.34,15.58v5.72c-.32-.13-4.19-1.69-4.33-1.76v-5.72l4.33,1.76Z"/>
      <path class="cls-10" d="M404.59,21.3v-5.72l4.33-1.76v5.72c-.14.06-4.02,1.63-4.33,1.76"/>
      <line class="cls-2" x1="385.54" y1="63.79" x2="385.38" y2="64.03"/>
      <path class="cls-2" d="M385.82,62.79c.03-.1.05-.2.03-.29-.01-.09-.04-.17-.09-.25-.05-.08-.13-.14-.22-.2-.11-.08-.22-.12-.33-.15-.11-.02-.21-.02-.32,0-.11.02-.2.07-.29.14-.09.07-.17.15-.24.26-.08.1-.13.2-.16.3-.03.1-.04.2-.02.3.02.1.06.2.12.29.07.09.16.18.29.27l.55.37.5-.71c.09-.12.14-.23.18-.34M385.5,62.72c-.03.06-.06.12-.1.18l-.37.53-.23-.15c-.17-.11-.26-.23-.28-.36-.02-.13.03-.27.15-.45.04-.07.1-.12.15-.17.05-.05.11-.08.17-.1.06-.02.12-.03.18-.02.06,0,.12.03.19.08.06.04.1.08.13.13.03.05.04.1.04.16,0,.06,0,.12-.02.18M385.88,61.98c.05.04.11.05.17.03.06-.02.11-.05.14-.1.04-.05.05-.1.05-.16-.01-.06-.04-.11-.09-.14s-.11-.05-.17-.03c-.06.01-.11.04-.14.09-.04.05-.05.11-.04.17.01.06.04.11.09.14M385.42,61.67c.06.04.11.05.17.03.06-.01.11-.04.15-.1.04-.05.05-.1.05-.16-.01-.06-.04-.1-.09-.14-.06-.03-.11-.04-.17-.03-.06.01-.11.05-.15.1-.04.05-.05.11-.04.17,0,.06.04.11.09.14M390.43,64.63c.06.03.12.03.17.01.06-.02.1-.06.13-.12.03-.06.04-.11.02-.17-.02-.06-.06-.1-.11-.13-.06-.03-.11-.03-.17-.01-.06.02-.1.06-.13.11-.03.05-.03.11-.02.17.02.06.05.1.11.13M389.93,64.38c.05.03.11.03.17,0,.05-.02.1-.06.13-.12.03-.05.04-.11.02-.17-.01-.06-.05-.1-.11-.13-.06-.02-.11-.03-.17,0-.06.02-.1.06-.13.12-.03.06-.04.11-.02.17.02.06.06.1.11.13M393.29,67.93l.31.11.91-2.47c-.1-.04-.21-.08-.31-.11l-.9,2.47ZM395.9,66.72c.06.02.11,0,.17-.02.05-.03.09-.08.1-.14.02-.06.02-.12-.01-.17-.03-.05-.07-.09-.13-.1-.06-.02-.12,0-.17.02-.06.03-.09.08-.11.14-.02.06-.01.12.01.17.03.05.07.09.14.11M403.72,67.25l-.06,2.62h.33s.07-2.61.07-2.61c-.11,0-.22-.01-.34,0M406.56,67.96s.1.06.16.06c.07,0,.11-.03.15-.08.04-.05.05-.1.05-.16,0-.07-.03-.12-.07-.15-.04-.04-.09-.06-.16-.06-.06,0-.12.03-.16.08-.04.04-.06.1-.05.16,0,.06.03.11.08.15M406,68s.1.06.16.06c.07,0,.12-.03.15-.08.04-.05.06-.1.05-.16,0-.06-.03-.11-.07-.15-.05-.04-.1-.06-.16-.06-.06,0-.12.03-.16.08-.04.05-.06.1-.05.16,0,.07.04.12.08.16M407.16,68.13l.09,1.36-.6.04c-.22.01-.4,0-.54-.03-.15-.03-.26-.08-.35-.15-.09-.07-.15-.15-.19-.25-.04-.1-.06-.21-.07-.33-.01-.1-.01-.19,0-.28,0-.09.02-.18.05-.27l-.36.1c-.02.08-.03.16-.04.26,0,.1,0,.18,0,.26.01.16.05.31.11.44.06.13.15.23.26.32.12.08.26.15.44.19.18.04.39.05.64.03l1-.07-.12-1.64-.33.02ZM407.9,67.06l.36,2.6.33-.04-.35-2.6c-.11,0-.22.02-.33.05M409.53,67.81l-.33.05.27,1.66c.03.19.02.32-.05.43-.07.1-.18.16-.36.19-.05,0-.1.01-.16.01l.02.32c.06,0,.13,0,.19-.02.16-.03.29-.07.39-.13.1-.06.17-.13.22-.22.05-.09.08-.19.09-.29,0-.11,0-.23-.02-.36l-.27-1.64ZM412.73,67.54c-.06-.09-.12-.17-.2-.22-.08-.06-.16-.08-.25-.1-.1-.01-.19,0-.3.02-.12.03-.23.07-.32.13-.09.06-.16.14-.21.22-.05.09-.08.2-.1.32-.02.12,0,.26.04.41.03.1.04.17.03.24,0,.07-.02.12-.04.17-.03.05-.06.08-.1.1-.04.03-.08.04-.13.05l-.45.08-.46-2.29c-.11.01-.21.04-.33.06l.52,2.57.74-.13c.15-.03.26-.09.33-.17.07-.08.11-.18.12-.28.08.09.19.14.31.18.13.04.29.03.5-.02l.65-.15-.2-.84c-.04-.14-.09-.26-.14-.36M412.41,68.6c-.19.05-.35.03-.46-.04-.11-.07-.2-.21-.24-.41-.02-.07-.03-.15-.03-.22s.01-.13.04-.19c.02-.06.05-.11.1-.15.05-.04.11-.07.19-.09.07-.02.13-.02.18,0,.06.01.11.04.16.08.04.04.08.09.12.14.03.06.06.12.07.19l.16.62-.27.06ZM414.19,65.67l-.31.1.57,1.78c.02.07.03.13.03.19s-.02.12-.05.17c-.04.05-.08.1-.15.15s-.16.09-.27.12c-.08.02-.17.04-.27.05-.1.01-.19.01-.28,0l.07.35c.08,0,.17,0,.26-.03.1-.02.19-.04.29-.07.18-.05.31-.11.42-.19.11-.08.19-.16.24-.25.05-.09.08-.2.08-.3,0-.11-.02-.22-.06-.34l-.55-1.74ZM413.86,67.85l-.61-1.92c-.1.03-.21.06-.32.1l.63,1.99.29-.17ZM414.32,69.15c-.07.02-.12.02-.16,0-.04-.02-.06-.05-.07-.08-.01-.04,0-.06.01-.09.02-.03.05-.05.08-.05.02-.01.05-.02.06-.02.02,0,.04,0,.06-.02v-.17s-.07.01-.1.02c-.03,0-.05.02-.08.02-.1.03-.17.08-.22.14-.05.07-.06.14-.03.22.01.04.03.08.05.1.02.02.05.04.09.05-.04,0-.08,0-.13.02-.05,0-.09.02-.11.03l.06.19.69-.21-.06-.2-.15.05ZM414.72,65.48l.91,2.47.31-.11-.91-2.47c-.11.03-.21.07-.32.11M393.29,65.12l-.87,2.18-.75-.29.24-.52c.06-.13.1-.26.11-.37.02-.11.01-.21-.02-.29-.03-.09-.08-.16-.14-.23-.07-.07-.15-.12-.25-.16-.11-.05-.22-.08-.33-.08-.11,0-.22,0-.31.05-.1.04-.19.11-.28.19-.09.09-.16.21-.23.35-.04.09-.08.16-.13.21-.05.05-.09.08-.14.1-.05.02-.09.03-.14.03-.04,0-.09-.02-.13-.04-.13-.06-.27-.13-.41-.19l.64-1.22-.29-.15-.64,1.23c-.25-.12-.51-.25-.76-.39l.25-.43c.09-.15.14-.29.14-.42,0-.13-.02-.25-.08-.35-.05-.11-.13-.2-.22-.28-.1-.09-.2-.16-.32-.22-.07-.04-.13-.07-.17-.09-.05-.03-.09-.05-.13-.06l-.18.23s.09.04.14.06c.05.03.11.06.17.09.23.13.37.26.43.41.06.15.03.33-.1.54l-.21.37c-.47-.25-.94-.52-1.39-.79l.06-.09c.11-.16.18-.32.21-.48.03-.16.04-.32.01-.48-.03-.16-.09-.31-.17-.46-.09-.15-.2-.29-.33-.42l-.21.27c.22.25.35.49.38.73.04.24-.05.49-.22.75h0c-.33-.19-.65-.4-.97-.61l-.16.24c1.4.92,2.86,1.75,4.39,2.47.14.07.26.08.37.06.11-.03.2-.08.27-.16.01.12.05.23.14.33.08.1.21.2.4.28l1.68.68.98-2.44-.31-.12ZM391.37,66.89l-.25-.11c-.18-.08-.3-.18-.35-.31-.05-.12-.02-.28.06-.47.03-.07.07-.14.12-.19.04-.05.09-.1.14-.13.05-.03.11-.05.17-.05.06,0,.13,0,.2.04.06.03.11.07.15.11.04.05.07.1.08.15.01.06.02.12,0,.18-.01.06-.03.13-.06.19l-.27.59ZM396.44,66.87c.06.02.11,0,.17-.02.05-.03.09-.08.11-.14.02-.06.01-.12-.01-.17-.03-.05-.07-.08-.14-.11-.06-.01-.12,0-.17.03-.06.03-.09.07-.11.13-.02.06-.01.12.02.17.03.06.07.09.14.11M397.29,69.38c-.06-.01-.12,0-.17.03-.05.03-.08.08-.1.14-.01.06,0,.12.03.17.03.05.08.09.14.1.07.02.12,0,.17-.03.05-.04.08-.08.1-.14.02-.06.01-.12-.03-.17-.03-.05-.07-.08-.14-.1M398.54,67.65l-.27,1.33c-.28-.05-.56-.11-.84-.17l.32-1.32-.32-.08-.32,1.33c-.28-.06-.56-.13-.83-.2l.38-1.31c-.09-.04-.18-.08-.26-.11-.08-.03-.17-.06-.28-.09-.12-.04-.25-.05-.37-.04-.12.01-.23.05-.32.1-.1.05-.19.13-.26.22-.08.09-.13.2-.17.33-.04.11-.05.22-.04.33,0,.1.04.2.09.29.05.09.12.16.21.23.09.07.2.12.34.15,0,0,.56.17,1,.28.64.15,1.28.29,1.93.4l.33-1.61-.32-.06ZM395.95,68.46l-.24-.07c-.17-.05-.29-.13-.35-.26-.07-.13-.07-.28-.01-.46.03-.08.06-.15.1-.2.04-.06.1-.11.15-.14.06-.04.12-.06.19-.07.07-.01.14,0,.2.01.02,0,.03,0,.06.02.02,0,.05.02.07.02.03.01.06.02.08.03.02.01.05.02.06.03l-.32,1.08ZM398.08,69.54c-.07-.02-.11,0-.16.03-.05.03-.08.08-.09.13-.01.06,0,.11.03.16.03.06.08.08.14.09.06.01.12,0,.16-.03.05-.04.07-.08.09-.14,0-.06,0-.11-.03-.16-.03-.05-.08-.08-.13-.09M396.74,69.25c-.06-.02-.12,0-.17.03-.05.03-.08.08-.1.14-.01.06,0,.12.02.17.03.05.08.09.14.1.07.02.12,0,.17-.03.05-.04.08-.08.1-.14.01-.06,0-.12-.03-.17-.03-.05-.07-.09-.14-.1M416.84,65.4c.05-.03.09-.07.11-.12.02-.06.02-.12,0-.17-.03-.06-.07-.1-.12-.13-.06-.02-.11-.02-.17,0-.06.03-.1.07-.12.13-.02.06-.02.11,0,.17.03.06.06.1.12.12.06.03.11.03.18,0M417.18,65.18c.06.02.12.02.17,0,.06-.03.1-.07.11-.13.02-.06.02-.12-.01-.17-.03-.06-.07-.1-.12-.12-.05-.02-.11-.02-.17,0-.06.03-.1.07-.12.12-.02.06-.02.11.01.17.03.06.06.1.13.12M424.3,63.68c-.06-.01-.11,0-.16.04-.04.04-.07.09-.07.15,0,.05.01.1.05.15.04.05.09.08.14.08.06,0,.11,0,.16-.04.05-.04.07-.09.07-.14,0-.06-.02-.11-.05-.16-.04-.05-.09-.07-.14-.08M424.11,62.38c-.11-.13-.23-.22-.36-.28-.12-.05-.24-.07-.36-.06-.12.02-.23.04-.35.11-.12.06-.23.13-.33.21-.06.05-.11.09-.15.13-.04.04-.08.07-.11.1l.15.24s.07-.07.11-.11c.04-.03.09-.07.14-.12.2-.16.39-.23.55-.23.17,0,.33.09.49.28l.26.32-1.33,1-1.4-1.89c-.09.06-.18.12-.27.19l1.57,2.12,1.86-1.41-.5-.6ZM421.53,63.72c-.08-.07-.17-.12-.26-.15-.09-.03-.18-.03-.27-.01-.09.02-.18.06-.27.11-.11.07-.19.14-.26.23-.06.09-.11.18-.13.28-.02.11-.02.22.01.33.03.12.09.25.17.38.05.08.09.15.1.22.02.06.03.12.01.17,0,.05-.03.09-.06.12-.04.05-.1.08-.14.11-.09.05-.18.08-.3.09-.1,0-.18,0-.27,0,.06-.15.09-.28.09-.42,0-.13-.02-.24-.07-.33-.05-.08-.09-.14-.16-.19-.06-.05-.13-.09-.22-.11-.09-.02-.17-.02-.27,0-.1.02-.21.05-.32.11-.13.07-.25.16-.36.28-.12.13-.21.26-.29.4l.12.32c.1,0,.19,0,.27,0,.08,0,.15.02.23.03.07.02.15.04.23.07.08.03.17.06.27.1-.18.22-.38.38-.58.5-.09.05-.25.12-.48.22l-.57-1.24c-.1.03-.19.05-.27.07-.08.03-.18.06-.28.1-.12.05-.22.12-.3.2-.08.08-.14.18-.19.28-.04.1-.06.22-.05.33,0,.12.03.24.09.36.05.11.11.2.18.27.07.08.16.13.25.17.1.04.2.05.32.05.11-.01.23-.04.36-.09.53-.22.91-.38,1.05-.46.15-.08.28-.18.41-.29.13-.12.25-.25.35-.4.14.02.28.02.42,0,.14-.02.28-.06.43-.14.16-.09.27-.2.31-.3.04-.1.05-.2.03-.3.1.06.22.08.35.07.13,0,.29-.06.46-.17l.57-.35-.47-.73c-.08-.12-.16-.22-.25-.3M417.8,66.8c-.17.07-.31.08-.44.02-.13-.06-.24-.18-.31-.35-.04-.08-.05-.15-.05-.22,0-.07,0-.14.02-.2.02-.07.06-.12.1-.17s.1-.09.17-.12c.02,0,.03-.01.05-.02.03,0,.05-.02.08-.03.03-.01.05-.02.08-.03.03,0,.05-.01.07-.02l.47,1.02-.23.1ZM419.63,65.28c0,.1-.03.19-.07.29-.18-.09-.35-.15-.51-.18-.16-.03-.3-.03-.45,0,.06-.1.11-.18.18-.26.07-.08.15-.15.25-.2.12-.06.23-.08.33-.07.1.02.18.08.23.17.03.07.05.15.03.24M421.58,64.82c-.17.11-.32.14-.45.11-.13-.03-.25-.13-.36-.31-.05-.07-.08-.13-.1-.2-.03-.07-.03-.13-.03-.19,0-.06.02-.12.05-.17.03-.05.08-.1.15-.14.06-.03.12-.05.18-.06.06,0,.12,0,.17.03.06.02.11.05.16.09.05.04.09.1.13.16l.34.54-.23.15ZM402.62,69.55c-.46-.03-.62-.04-.74-.1-.09-.04-.16-.09-.23-.15.14-.09.24-.19.32-.3.07-.11.12-.21.13-.31.01-.09,0-.17-.02-.24-.02-.08-.07-.15-.12-.21-.06-.06-.13-.12-.22-.16-.09-.04-.2-.07-.32-.08-.15-.02-.31,0-.47.04-.16.04-.31.1-.47.17l-.08.33c.09.05.16.1.22.15.06.05.12.1.17.15.05.05.1.11.15.18.05.07.11.14.17.23-.11.04-.21.06-.35.08-.2.02-.44.02-1.01-.07l.22-1.34-.33-.05-.27,1.66c-.03.18-.09.31-.18.39-.09.08-.22.1-.4.08-.05-.01-.1-.03-.16-.04l-.09.31c.06.02.13.03.19.04.16.03.3.03.41,0,.12-.03.21-.08.28-.14.07-.07.14-.15.18-.25.05-.1.08-.21.1-.35h0c.6.09.93.09,1.1.07.18-.03.35-.07.52-.14.1.09.22.17.35.23.17.09.36.11.77.13l.5.02.15-2.62h-.33s-.14,2.32-.14,2.32ZM401.42,69.1c-.1-.17-.21-.31-.32-.42-.11-.11-.23-.19-.37-.24.1-.05.2-.1.3-.12.1-.03.21-.04.32-.03.13.02.23.06.31.12.08.07.11.16.09.27,0,.08-.05.15-.11.22-.06.07-.14.14-.23.2"/>
      <path d="M403.13,34.12c-.67.06-1.13.18-1.15.18l.06.24s.09-.02.22-.05c.07.25.28.41.52.41.21,0,.4-.05.88-.57.41-.02.7,0,.71,0v-.25s-.56-.03-1.23.04"/>
    </g>
    <g>
      <path class="cls-5" d="M4.24,27.76c0-.95.14-1.8.44-2.55.29-.75.7-1.39,1.23-1.91.53-.51,1.18-.92,1.93-1.19.76-.27,1.6-.41,2.55-.41s1.69.16,2.34.46c.65.31,1.19.74,1.63,1.28.43.53.76,1.18.96,1.94.21.75.31,1.57.31,2.46v5.78h-5.04c-4.24,0-6.36-1.96-6.36-5.85M7.71,20.25c-.52,0-.94-.19-1.28-.54-.35-.36-.52-.79-.52-1.3s.17-.91.52-1.26c.34-.37.77-.54,1.28-.54s.94.18,1.27.54c.34.35.5.78.5,1.26,0,.5-.17.94-.5,1.3-.33.35-.76.54-1.27.54M12.35,31v-3.61c0-1.01-.2-1.78-.61-2.31-.4-.55-.96-.82-1.69-.82-.68,0-1.26.27-1.72.83-.46.54-.7,1.29-.7,2.25,0,1.31.25,2.25.76,2.82.5.56,1.38.84,2.64.84h1.31ZM12.35,20.25c-.52,0-.94-.19-1.28-.54-.35-.36-.52-.79-.52-1.3s.17-.91.52-1.26c.34-.37.77-.54,1.28-.54s.94.18,1.27.54c.33.35.5.78.5,1.26,0,.5-.17.94-.5,1.3-.33.35-.76.54-1.27.54"/>
      <path class="cls-5" d="M47.92,20.25c-.51,0-.94-.19-1.28-.54-.34-.36-.51-.79-.51-1.3s.17-.91.51-1.26c.34-.37.77-.54,1.28-.54s.94.18,1.28.54c.33.35.5.78.5,1.26,0,.5-.17.94-.5,1.3-.33.35-.76.54-1.28.54M52.55,20.25c-.51,0-.94-.19-1.28-.54-.34-.36-.51-.79-.51-1.3s.17-.91.51-1.26c.34-.37.77-.54,1.28-.54s.94.18,1.28.54c.33.35.5.78.5,1.26,0,.5-.16.94-.5,1.3-.33.35-.76.54-1.28.54"/>
      <path class="cls-5" d="M67.15,31v-3.61c0-1.07-.21-1.86-.64-2.36-.43-.52-.98-.77-1.65-.77s-1.26.28-1.72.86c-.46.57-.69,1.3-.69,2.22,0,1.31.25,2.25.75,2.82.5.57,1.38.84,2.65.84h1.31ZM63.29,33.41c-.6-.15-1.11-.31-1.53-.52-.42-.21-.76-.43-1-.69-.25-.25-.43-.51-.53-.74-.24.71-.65,1.23-1.23,1.59-.58.38-1.41.57-2.47.57H18.27v-2.62h7.53c0-.59-.07-1.22-.22-1.9-.14-.69-.43-1.36-.88-2.02-.45-.66-1.08-1.27-1.89-1.84-.82-.57-1.89-1.01-3.23-1.35l.25-2.73c1.73.21,3.19.66,4.36,1.31,1.17.66,2.12,1.44,2.84,2.34.72.9,1.24,1.9,1.56,2.96.32,1.07.48,2.13.48,3.16v.08h10.49v-2.26c0-.76-.08-1.38-.24-1.9-.17-.52-.44-.94-.82-1.27-.37-.31-.86-.55-1.45-.71-.59-.15-1.31-.22-2.17-.22-.49,0-.92,0-1.33.03-.4.02-.75.04-1.04.08l.26-2.56c.28-.03.62-.06,1-.07.38-.02.84-.03,1.39-.03,1.44,0,2.66.16,3.65.48,1,.31,1.8.75,2.42,1.29.62.56,1.06,1.21,1.33,1.95.26.74.4,1.54.4,2.39v2.81h5.98v-8.92h3.27v8.92h4.87c.32,0,.61-.08.86-.25.25-.17.46-.4.62-.66.16-.28.29-.59.37-.93.08-.35.13-.68.13-1.02,0-1.1.15-2.05.44-2.87.29-.81.71-1.48,1.24-2.01.54-.52,1.19-.92,1.94-1.17.75-.25,1.59-.39,2.52-.39.86,0,1.61.15,2.26.44.65.29,1.19.72,1.63,1.26.44.54.77,1.18,1,1.94.23.76.35,1.59.35,2.51v3.16h6.04v-14.62h3.29v17.24h-14.37c-.8,0-1.51-.07-2.11-.21"/>
      <rect class="cls-5" x="83.97" y="16.4" width="3.3" height="17.21"/>
      <path class="cls-5" d="M100.96,20.25c-.51,0-.94-.19-1.28-.54-.34-.36-.52-.79-.52-1.3s.17-.91.52-1.26c.34-.37.77-.54,1.28-.54s.94.18,1.27.54c.34.35.51.78.51,1.26,0,.5-.17.94-.51,1.3-.33.35-.76.54-1.27.54M105.21,31v-6.57c-.27-.07-.54-.11-.8-.14-.26-.02-.48-.04-.67-.04-.9,0-1.6.29-2.12.87-.51.58-.77,1.37-.77,2.38,0,.46.06.91.17,1.32.11.43.29.79.54,1.12.25.31.57.56.97.76.39.19.88.29,1.47.29h1.21ZM105.58,20.25c-.51,0-.94-.19-1.28-.54-.35-.36-.52-.79-.52-1.3s.17-.91.52-1.26c.34-.37.77-.54,1.28-.54s.94.18,1.28.54c.34.35.5.78.5,1.26,0,.5-.17.94-.5,1.3-.33.35-.76.54-1.28.54M118.55,39.09c-.51,0-.94-.17-1.29-.52-.34-.36-.51-.78-.51-1.33,0-.48.17-.89.51-1.24.35-.35.78-.53,1.29-.53s.94.17,1.27.53c.33.36.5.76.5,1.24,0,.55-.17.97-.5,1.33-.33.35-.76.52-1.27.52M123.17,39.09c-.51,0-.94-.17-1.28-.52-.34-.36-.51-.78-.51-1.33,0-.48.17-.89.51-1.24.34-.35.77-.53,1.28-.53s.94.17,1.28.53c.34.36.5.76.5,1.24,0,.55-.16.97-.5,1.33-.33.35-.76.52-1.28.52M98.96,32.12c-1-1-1.5-2.37-1.5-4.11,0-.82.13-1.61.4-2.37.26-.76.67-1.42,1.21-2.01.54-.58,1.22-1.05,2.05-1.4.82-.34,1.8-.53,2.93-.53.78,0,1.53.04,2.26.11.74.07,1.46.15,2.16.27v8.92h12.34v-8.92h3.27v8.92h8.28v-8.92h3.27v11.54h-31.93c-2.14,0-3.72-.52-4.72-1.5M132.38,39.09c-.52,0-.96-.17-1.33-.52-.37-.36-.55-.78-.55-1.33,0-.48.18-.89.55-1.24.37-.35.81-.53,1.33-.53s.95.17,1.31.53c.36.36.54.76.54,1.24,0,.55-.18.97-.54,1.33-.36.35-.8.52-1.31.52"/>
      <path class="cls-5" d="M158.13,28.54c.46-.39.81-.79,1.05-1.2.23-.42.34-.82.34-1.21,0-.62-.22-1.1-.67-1.48-.44-.36-1.04-.55-1.8-.55-.67,0-1.27.11-1.79.32-.52.2-1.02.46-1.48.76.44.17.84.36,1.19.59.35.23.69.47,1.03.75.33.28.67.58,1,.92.34.33.71.7,1.12,1.1M138.78,39.86c-.46,0-.91-.03-1.34-.08l.25-2.62c.38.05.76.07,1.14.07,1.08,0,1.88-.25,2.39-.73.51-.48.77-1.37.77-2.67v-11.76h3.3v8.92h5.33c1.77,0,3.38-.32,4.84-.95-.38-.36-.74-.69-1.08-1.02-.34-.34-.71-.65-1.1-.96-.39-.3-.82-.58-1.3-.85-.48-.26-1.06-.51-1.72-.75l.36-2.72c1.03-.71,2.1-1.27,3.22-1.68,1.11-.43,2.25-.63,3.42-.63.94,0,1.77.12,2.47.36.7.23,1.29.54,1.76.95.47.39.82.87,1.06,1.42.23.54.35,1.13.35,1.77,0,.74-.22,1.45-.65,2.15-.43.7-1.02,1.38-1.8,2.03.48.26.93.49,1.36.65.43.17.95.25,1.57.25h5.84v-14.62h3.29v17.23h-9.27c-1.18,0-2.22-.16-3.12-.49-.9-.3-1.71-.7-2.43-1.22-1.03.53-2.12.94-3.28,1.23-1.16.32-2.31.48-3.46.48h-5.66v.1c0,.79-.1,1.58-.28,2.31-.19.72-.53,1.4-1.02,1.99-.49.56-1.15,1-2,1.34-.84.33-1.91.5-3.21.5"/>
      <rect class="cls-5" x="176.71" y="16.4" width="3.3" height="17.21"/>
      <path class="cls-5" d="M194.19,33c-1.26-.4-2.27-.93-3.01-1.62-.75-.68-1.27-1.47-1.57-2.38-.3-.91-.45-1.85-.45-2.84,0-.54.04-1.12.14-1.76.09-.65.21-1.24.34-1.77l3.48-.63c-.25.6-.41,1.2-.52,1.81-.1.61-.15,1.27-.15,1.97,0,.82.11,1.55.33,2.19.22.64.6,1.2,1.14,1.64.54.46,1.26.79,2.17,1.03.9.23,2.02.35,3.35.35h12.72v-8.92h3.29v11.54h-16.47c-1.94,0-3.54-.21-4.8-.62M201.81,20.95c-.52,0-.94-.19-1.29-.55-.34-.37-.51-.79-.51-1.29,0-.47.17-.91.51-1.26.35-.37.78-.54,1.29-.54s.93.18,1.27.54c.34.36.5.79.5,1.26,0,.5-.16.93-.5,1.29-.33.36-.76.55-1.27.55M206.43,20.95c-.51,0-.94-.19-1.29-.55-.34-.37-.51-.79-.51-1.29,0-.47.17-.91.51-1.26.34-.37.77-.54,1.29-.54s.94.18,1.27.54c.34.36.5.79.5,1.26,0,.5-.17.93-.5,1.29-.34.36-.76.55-1.27.55"/>
      <rect class="cls-5" x="219.58" y="16.41" width="3.3" height="17.21"/>
      <path class="cls-5" d="M224.37,39.86c-.47,0-.91-.03-1.34-.08l.26-2.62c.38.05.75.07,1.13.07,1.08,0,1.88-.25,2.39-.73.51-.48.77-1.37.77-2.67v-11.76h3.29v11.64c0,.79-.09,1.58-.28,2.31-.19.72-.52,1.4-1.01,1.99-.49.56-1.16,1-1.99,1.34-.84.33-1.91.5-3.22.5"/>
      <path class="cls-5" d="M234.56,33.62v-17.21h3.29v14.59h5.68c.32,0,.61-.08.86-.25.25-.17.45-.4.62-.66.16-.28.29-.59.37-.92.09-.36.13-.69.13-1.02,0-1.1.14-2.05.44-2.87.29-.81.71-1.48,1.25-2.01.54-.52,1.19-.92,1.94-1.17.75-.25,1.59-.39,2.52-.39.86,0,1.61.15,2.27.44s1.2.72,1.63,1.26c.44.54.78,1.18,1,1.94.24.76.36,1.59.36,2.51v5.78h-5.05c-.81,0-1.51-.07-2.11-.21-.6-.15-1.11-.31-1.54-.52-.42-.21-.75-.44-1-.69-.25-.25-.43-.51-.53-.74-.24.71-.65,1.23-1.23,1.59-.58.38-1.41.57-2.48.57h-8.43ZM253.62,31v-3.61c0-1.07-.21-1.86-.64-2.36-.43-.52-.98-.77-1.64-.77s-1.27.28-1.72.86c-.47.57-.69,1.3-.69,2.22,0,1.31.24,2.25.74,2.82.5.56,1.38.84,2.65.84h1.31Z"/>
      <path class="cls-5" d="M264.76,16.41v11.36c-.55.18-1.08.33-1.62.45-.53.12-1.09.22-1.68.32v-12.14h3.3ZM260.18,38.87c.11,0,.23,0,.39.01.15.01.32.02.5.04.18.02.36.03.53.06.17.02.32.05.44.08-.16-.13-.27-.3-.33-.5-.06-.21-.09-.44-.09-.68,0-.31.07-.64.2-.9.13-.26.32-.5.56-.71.25-.22.56-.38.93-.51.38-.12.8-.18,1.31-.18.25,0,.55.03.86.1.31.06.61.16.87.27l-.57,1.48c-.15-.1-.34-.17-.56-.24-.23-.06-.46-.09-.67-.09-.26,0-.48.07-.66.22-.17.16-.27.37-.27.6,0,.62.52.93,1.6.93h1.33v1.86h-6.35v-1.86ZM264.61,33.86c-.72,0-1.42-.05-2.09-.13-.67-.09-1.27-.21-1.83-.35l.31-3.14c.56.23,1.18.42,1.85.55.67.13,1.31.18,1.92.18,1.24,0,2.15-.2,2.72-.64.58-.42.86-1.11.86-2.05v-11.87h3.29v11.61c0,.85-.13,1.63-.38,2.34-.25.71-.67,1.32-1.23,1.86-.56.51-1.29.91-2.18,1.21-.89.3-1.97.44-3.24.44"/>
      <rect class="cls-5" x="275.59" y="16.4" width="3.29" height="17.21"/>
      <path class="cls-5" d="M291.87,20.25c-.52,0-.94-.19-1.3-.54-.33-.36-.5-.79-.5-1.3s.16-.91.5-1.26c.36-.37.78-.54,1.3-.54s.93.18,1.26.54c.34.35.51.78.51,1.26,0,.5-.17.94-.51,1.3-.33.35-.76.54-1.26.54"/>
      <path class="cls-5" d="M296.49,20.25c-.5,0-.94-.19-1.28-.54-.34-.36-.52-.79-.52-1.3s.17-.91.52-1.26c.34-.37.78-.54,1.28-.54s.95.18,1.28.54c.33.35.5.78.5,1.26,0,.5-.17.94-.5,1.3-.34.35-.76.54-1.28.54"/>
      <path class="cls-5" d="M296.12,31v-6.57c-.27-.06-.55-.11-.8-.14-.25-.02-.48-.03-.67-.03-.89,0-1.6.29-2.1.87-.52.58-.77,1.37-.77,2.38,0,.46.05.91.16,1.32.11.43.28.79.54,1.12.25.31.56.57.96.76.39.19.88.29,1.46.29h1.21ZM311.65,28.54c.47-.39.82-.79,1.05-1.2.23-.42.34-.82.34-1.21,0-.62-.22-1.1-.66-1.48-.45-.36-1.06-.55-1.8-.55-.69,0-1.28.11-1.8.31-.52.2-1.02.46-1.48.76.45.17.84.36,1.2.59.35.23.69.47,1.02.75.33.28.67.58,1.02.92.33.33.69.7,1.1,1.1M289.87,32.12c-1-1-1.5-2.37-1.5-4.11,0-.82.13-1.61.39-2.37.26-.76.67-1.42,1.21-2.01.54-.59,1.22-1.05,2.04-1.41.82-.34,1.8-.53,2.93-.53.77,0,1.52.04,2.26.11.74.07,1.46.16,2.17.27v8.92h4.76c1.77,0,3.38-.32,4.84-.95-.38-.36-.74-.69-1.08-1.02-.34-.34-.71-.65-1.09-.96-.39-.3-.82-.58-1.31-.85-.48-.26-1.05-.51-1.72-.75l.37-2.73c1.03-.71,2.1-1.26,3.22-1.68,1.11-.43,2.25-.63,3.43-.63.93,0,1.77.11,2.46.36.72.23,1.29.54,1.76.95.49.39.83.87,1.06,1.42.23.54.34,1.13.34,1.77,0,.74-.21,1.45-.63,2.15-.43.7-1.04,1.38-1.8,2.03.47.26.91.49,1.36.65.43.17.94.25,1.56.25h2.93c.33,0,.62-.08.87-.25.24-.17.45-.4.6-.66.16-.28.28-.59.37-.92.09-.36.14-.69.14-1.02,0-1.1.15-2.05.44-2.87.28-.81.69-1.48,1.24-2.01.55-.52,1.18-.92,1.95-1.17.75-.25,1.59-.39,2.51-.39.87,0,1.61.15,2.27.44.65.29,1.19.72,1.64,1.26.43.54.77,1.18.99,1.94.23.76.35,1.59.35,2.51v5.78h-5.05c-.79,0-1.51-.07-2.1-.21-.59-.15-1.12-.31-1.54-.52-.41-.21-.74-.44-1-.69-.25-.25-.43-.51-.53-.74-.24.71-.64,1.23-1.23,1.59-.59.38-1.41.57-2.47.57h-2.53c-1.17,0-2.22-.16-3.11-.49-.91-.3-1.72-.7-2.45-1.22-1.03.53-2.12.94-3.27,1.23-1.16.32-2.32.48-3.46.48h-9.89c-2.14,0-3.71-.52-4.72-1.5M329.92,31v-3.61c0-1.07-.22-1.86-.64-2.36-.43-.52-.98-.77-1.65-.77s-1.27.28-1.72.86c-.46.57-.7,1.3-.7,2.22,0,1.31.26,2.25.75,2.82.49.56,1.39.84,2.65.84h1.31Z"/>
      <path class="cls-5" d="M337.08,33.62v-17.21h3.29v14.59h12.55s0-2.26,0-2.26c0-.76-.08-1.39-.24-1.9-.16-.53-.43-.94-.81-1.27-.38-.32-.87-.55-1.45-.71-.6-.15-1.32-.23-2.18-.23-.48,0-.92.01-1.33.03-.4.01-.75.04-1.03.07l.25-2.56c.29-.03.63-.06,1-.07.37-.01.84-.02,1.39-.02,1.44,0,2.66.16,3.65.48.99.31,1.8.75,2.42,1.29.62.56,1.06,1.21,1.33,1.95.26.74.4,1.54.4,2.4v5.42h-19.24ZM349.24,39.09c-.51,0-.96-.17-1.32-.52-.38-.36-.55-.78-.55-1.33,0-.48.18-.89.55-1.24.36-.35.81-.53,1.32-.53s.96.17,1.32.53c.36.36.54.76.54,1.24,0,.55-.18.97-.54,1.33-.36.35-.81.52-1.32.52"/>
      <path class="cls-5" d="M11.25,63.07c-5.31,0-6.51-2.8-6.51-5.92v-10.75h3.24v10.54c0,2.05.7,3.54,3.5,3.54,2.5,0,3.54-1.07,3.54-3.85v-10.23h3.22v10.03c0,4.51-2.55,6.65-6.98,6.65"/>
      <path class="cls-5" d="M29.66,62.79v-7.7c0-1.22-.35-2.02-1.52-2.02-1.62,0-2.89,1.8-2.89,3.92v5.8h-3.17v-9.69c-.6-.09-1.45-.19-2.17-.24v-1.9c1.57-.19,3.49-.26,5.16-.22,0,.57-.06,1.5-.18,2.14h.03c.75-1.38,2.19-2.38,4.21-2.38,2.79,0,3.69,1.71,3.69,3.85v8.43h-3.17Z"/>
      <path class="cls-5" d="M37.12,62.79v-9.69c-.6-.09-1.45-.19-2.17-.24v-1.9c1.57-.19,3.49-.26,5.33-.22v12.05h-3.17ZM38.69,48.94c-1.08,0-1.97-.81-1.97-1.87s.9-1.88,1.97-1.88,1.99.81,1.99,1.88-.9,1.87-1.99,1.87"/>
      <path class="cls-5" d="M47.89,63.05c-2.74,0-3.59-.97-3.59-3.79v-6.13h-2.14v-2.35h2.14v-3.76l3.17-.83v4.59h3.02v2.35h-3.02v5.32c0,1.55.37,2.01,1.47,2.01.52,0,1-.05,1.42-.18l.22,2.42c-.8.2-1.81.35-2.69.35"/>
      <path class="cls-5" d="M63.13,57.32h-7.68c-.03,2.19,1.12,3.33,3.42,3.33,1.17,0,2.42-.25,3.59-.76l.35,2.36c-1.34.52-2.96.8-4.49.8-3.91,0-6.11-1.9-6.11-6.16,0-3.71,2.1-6.41,5.81-6.41s5.21,2.38,5.21,5.37c0,.41-.02.91-.1,1.47M57.91,52.74c-1.32,0-2.24.97-2.42,2.47h4.57c.05-1.55-.8-2.47-2.15-2.47"/>
      <path class="cls-5" d="M73.37,62.82c0-.6.06-1.36.15-2h-.05c-.65,1.31-2.02,2.25-3.92,2.25-3.02,0-4.51-2.18-4.51-5.63,0-4.12,2.45-6.91,6.56-6.91.53,0,1.02.03,1.57.11v-3.15c-.6-.1-1.45-.21-2.17-.27v-1.94c1.57-.19,3.52-.26,5.34-.21v15.39c.6.1,1.44.2,2.17.24v1.9c-1.57.19-3.49.27-5.14.22M73.17,53.14c-.57-.12-1.12-.19-1.67-.19-1.82,0-3.12,1.17-3.12,4.15,0,2.23.67,3.43,2.12,3.43,1.67,0,2.67-1.92,2.67-4v-3.39Z"/>
      <path class="cls-5" d="M96.21,62.79l-1.17-3.35h-6.36l-1.17,3.35h-3.27l5.88-16.39h3.67l6.01,16.39h-3.59ZM92.55,52.29c-.3-.79-.52-1.52-.7-2.28h-.03c-.2.76-.4,1.5-.67,2.28l-1.67,4.67h4.74l-1.67-4.67Z"/>
      <path class="cls-5" d="M108.62,53.56c-2.36-.51-3.52.98-3.52,4.34v4.89h-3.16v-9.69c-.6-.09-1.45-.19-2.17-.24v-1.9c1.57-.19,3.49-.26,5.16-.22,0,.62-.07,1.57-.23,2.4h.06c.6-1.5,1.8-2.84,4.01-2.64l-.15,3.05Z"/>
      <path class="cls-5" d="M116.59,62.82c0-.69.03-1.41.12-2.03l-.02-.02c-.6,1.33-2.12,2.28-3.97,2.28-2.24,0-3.54-1.32-3.54-3.28,0-2.87,2.94-4.39,7.16-4.39v-.57c0-1.28-.62-1.95-2.42-1.95-1.12,0-2.61.36-3.61.91l-.38-2.55c1.28-.4,2.92-.74,4.44-.74,4.03,0,5.16,1.55,5.16,4.21v5.77c.6.1,1.44.2,2.17.24v1.91c-1.57.19-3.49.27-5.11.22M116.33,57.42c-3.24,0-4.11.84-4.11,1.86,0,.82.55,1.42,1.48,1.42,1.57,0,2.64-1.49,2.64-2.91v-.36Z"/>
      <path class="cls-5" d="M128.38,63.05c-1.8,0-3.19-.2-4.62-.59v-14.97c-.6-.1-1.45-.21-2.17-.26v-1.95c1.6-.19,3.52-.26,5.36-.21v5.2c0,.75-.07,1.73-.2,2.35h.03c.62-1.29,1.99-2.12,3.74-2.12,2.97,0,4.56,2.07,4.56,5.63,0,4.11-2.45,6.91-6.71,6.91M129.6,53.05c-1.65,0-2.65,1.89-2.65,3.91v3.41c.45.15.97.22,1.65.22,1.82,0,3.12-1.16,3.12-4.15,0-2.22-.67-3.4-2.12-3.4"/>
      <polygon class="cls-5" points="143.14 62.79 143.14 46.4 152.29 46.4 152.29 49.06 146.38 49.06 146.38 53.07 151.99 53.07 151.99 55.67 146.38 55.67 146.38 60.12 152.29 60.12 152.29 62.79 143.14 62.79"/>
      <path class="cls-5" d="M171.17,62.79v-7.6c0-1.27-.3-2.12-1.47-2.12-1.39,0-2.84,1.61-2.84,3.97v5.74h-3.14v-7.62c0-1.17-.25-2.09-1.47-2.09-1.48,0-2.85,1.71-2.85,3.97v5.74h-3.16v-9.69c-.6-.09-1.45-.19-2.17-.24v-1.9c1.57-.19,3.52-.26,5.16-.22,0,.57-.05,1.45-.15,2.14l.03.03c.75-1.45,2.24-2.4,4.09-2.4,2.19,0,3.11,1.23,3.41,2.38.57-1.14,1.95-2.38,4.04-2.38,2.39,0,3.71,1.28,3.71,4.01v8.27h-3.19Z"/>
      <path class="cls-5" d="M178.62,62.79v-9.69c-.6-.09-1.45-.19-2.17-.24v-1.9c1.57-.19,3.49-.26,5.34-.22v12.05h-3.17ZM180.19,48.94c-1.07,0-1.97-.81-1.97-1.87s.9-1.88,1.97-1.88,1.99.81,1.99,1.88-.89,1.87-1.99,1.87"/>
      <path class="cls-5" d="M192.73,53.56c-2.37-.51-3.52.98-3.52,4.34v4.89h-3.17v-9.69c-.6-.09-1.45-.19-2.17-.24v-1.9c1.57-.19,3.49-.26,5.16-.22,0,.62-.08,1.57-.23,2.4h.05c.6-1.5,1.8-2.84,4.02-2.64l-.15,3.05Z"/>
      <path class="cls-5" d="M200.7,62.82c0-.69.02-1.41.12-2.03l-.02-.02c-.6,1.33-2.12,2.28-3.97,2.28-2.24,0-3.54-1.32-3.54-3.28,0-2.87,2.94-4.39,7.15-4.39v-.57c0-1.28-.62-1.95-2.41-1.95-1.12,0-2.62.36-3.62.91l-.37-2.55c1.27-.4,2.92-.74,4.43-.74,4.04,0,5.17,1.55,5.17,4.21v5.77c.6.1,1.44.2,2.17.24v1.91c-1.57.19-3.49.27-5.11.22M200.45,57.42c-3.24,0-4.11.84-4.11,1.86,0,.82.55,1.42,1.47,1.42,1.57,0,2.64-1.49,2.64-2.91v-.36Z"/>
      <path class="cls-5" d="M211.92,63.05c-2.74,0-3.59-.97-3.59-3.79v-6.13h-2.14v-2.35h2.14v-3.76l3.17-.83v4.59h3.01v2.35h-3.01v5.32c0,1.55.37,2.01,1.47,2.01.52,0,1-.05,1.42-.18l.22,2.42c-.8.2-1.82.35-2.69.35"/>
      <path class="cls-5" d="M227.15,57.32h-7.68c-.03,2.19,1.12,3.33,3.41,3.33,1.17,0,2.42-.25,3.59-.76l.35,2.36c-1.35.52-2.97.8-4.49.8-3.91,0-6.11-1.9-6.11-6.16,0-3.71,2.1-6.41,5.81-6.41s5.21,2.38,5.21,5.37c0,.41-.03.91-.1,1.47M221.94,52.74c-1.32,0-2.25.97-2.42,2.47h4.57c.05-1.55-.8-2.47-2.15-2.47"/>
      <path class="cls-5" d="M232.16,63.05c-.97,0-1.97-.1-2.76-.33l.22-2.57c.75.33,1.72.51,2.64.51,1.2,0,2-.53,2-1.33,0-2.12-5.04-.88-5.04-4.97,0-2.16,1.67-3.88,5.24-3.88.72,0,1.57.11,2.27.26l-.15,2.38c-.68-.19-1.47-.31-2.25-.31-1.25,0-1.82.48-1.82,1.28,0,2,5.11,1,5.11,4.94,0,2.42-2.17,4.01-5.46,4.01"/>
      <path class="cls-5" d="M251.85,63.07c-5.31,0-6.51-2.8-6.51-5.92v-10.75h3.24v10.54c0,2.05.7,3.54,3.5,3.54,2.49,0,3.54-1.07,3.54-3.85v-10.23h3.22v10.03c0,4.51-2.55,6.65-6.99,6.65"/>
      <path class="cls-5" d="M270.7,62.79v-7.7c0-1.22-.35-2.02-1.52-2.02-1.62,0-2.89,1.8-2.89,3.92v5.8h-3.17v-9.69c-.6-.09-1.45-.19-2.17-.24v-1.9c1.57-.19,3.5-.26,5.16-.22,0,.57-.05,1.5-.18,2.14h.03c.74-1.38,2.19-2.38,4.22-2.38,2.79,0,3.69,1.71,3.69,3.85v8.43h-3.17Z"/>
      <path class="cls-5" d="M278.15,62.79v-9.69c-.59-.09-1.44-.19-2.16-.24v-1.9c1.57-.19,3.49-.26,5.33-.22v12.05h-3.17ZM279.73,48.94c-1.07,0-1.97-.81-1.97-1.87s.9-1.88,1.97-1.88,2,.81,2,1.88-.91,1.87-2,1.87"/>
      <path class="cls-5" d="M290.95,62.79h-3.24l-4.59-12.02h3.49l1.98,5.39c.29.88.6,1.85.82,2.68h.05c.2-.81.44-1.73.75-2.59l1.98-5.49h3.39l-4.63,12.02Z"/>
      <path class="cls-5" d="M307.17,57.32h-7.68c-.02,2.19,1.13,3.33,3.41,3.33,1.18,0,2.42-.25,3.59-.76l.35,2.36c-1.35.52-2.97.8-4.49.8-3.91,0-6.11-1.9-6.11-6.16,0-3.71,2.1-6.41,5.81-6.41s5.21,2.38,5.21,5.37c0,.41-.03.91-.11,1.47M301.97,52.74c-1.32,0-2.25.97-2.42,2.47h4.57c.05-1.55-.8-2.47-2.15-2.47"/>
      <path class="cls-5" d="M317.02,53.56c-2.38-.51-3.52.98-3.52,4.34v4.89h-3.17v-9.69c-.61-.09-1.45-.19-2.17-.24v-1.9c1.56-.19,3.48-.26,5.15-.22,0,.62-.08,1.57-.23,2.4h.05c.61-1.5,1.8-2.84,4.03-2.64l-.16,3.05Z"/>
      <path class="cls-5" d="M321.47,63.05c-.96,0-1.97-.1-2.75-.33l.23-2.57c.73.33,1.72.51,2.63.51,1.2,0,2-.53,2-1.33,0-2.12-5.04-.88-5.04-4.97,0-2.16,1.67-3.88,5.24-3.88.71,0,1.56.11,2.26.26l-.15,2.38c-.67-.19-1.48-.31-2.24-.31-1.25,0-1.83.48-1.83,1.28,0,2,5.11,1,5.11,4.94,0,2.42-2.17,4.01-5.47,4.01"/>
      <path class="cls-5" d="M330.02,62.79v-9.69c-.6-.09-1.44-.19-2.17-.24v-1.9c1.57-.19,3.48-.26,5.33-.22v12.05h-3.17ZM331.59,48.94c-1.07,0-1.98-.81-1.98-1.87s.91-1.88,1.98-1.88,2,.81,2,1.88-.9,1.87-2,1.87"/>
      <path class="cls-5" d="M340.79,63.05c-2.74,0-3.59-.97-3.59-3.79v-6.13h-2.15v-2.35h2.15v-3.76l3.17-.83v4.59h3.01v2.35h-3.01v5.32c0,1.55.37,2.01,1.46,2.01.53,0,1-.05,1.43-.18l.22,2.42c-.8.2-1.82.35-2.69.35"/>
      <path class="cls-5" d="M351.79,63.5c-1.62,4.18-3.37,5.34-6.23,5.34-.53,0-1.27-.07-1.74-.16l.37-2.68c.48.15,1.05.25,1.57.25,1.05,0,2.15-.49,2.84-2.35l.38-1.11-4.57-12.02h3.54l1.67,4.59c.37,1.02.7,2.25.97,3.32h.02c.27-1.07.8-2.73,1.2-3.83l1.47-4.08h3.42l-4.91,12.73Z"/>
    </g>
  </g>
</svg>