<?xml version="1.0" encoding="UTF-8"?>
<svg id="Layer_1" data-name="Layer 1" xmlns="http://www.w3.org/2000/svg" viewBox="0 0 300 296">
  <defs>
    <style>
      .cls-1 {
        fill: #616262;
      }

      .cls-2 {
        fill: #976f33;
      }

      .cls-3 {
        fill: #b2292e;
      }
    </style>
  </defs>
  <path class="cls-1" d="M17.56,264.55c-.68.11-1.35.16-2.04.16-.92,0-1.74-.13-2.45-.39-.71-.26-1.3-.63-1.77-1.1-.47-.47-.83-1.04-1.08-1.69-.24-.65-.37-1.37-.37-2.14,0-.73.11-1.43.34-2.07.23-.65.57-1.22,1.03-1.7.46-.49,1.02-.87,1.7-1.15.68-.28,1.47-.42,2.37-.42.53,0,1.04.06,1.52.17.48.11.91.29,1.29.52.38.23.68.53.92.9.23.37.38.81.43,1.32h-1.6c-.12-.63-.41-1.1-.87-1.4-.46-.3-1.05-.45-1.76-.45s-1.25.12-1.72.37c-.47.24-.86.56-1.16.97-.3.4-.52.85-.65,1.35-.14.5-.21,1.01-.21,1.53,0,.56.08,1.11.23,1.63.15.53.39.99.72,1.39.33.4.75.72,1.26.96.52.24,1.13.36,1.85.36.42,0,.84-.03,1.26-.08.42-.05.84-.13,1.25-.24v-3.08h-2.82v-1h4.31v4.88c-.66.16-1.33.3-2,.41"/>
  <polygon class="cls-1" points="29.33 264.61 29.33 254.25 36.64 254.25 36.64 255.3 30.85 255.3 30.85 258.73 36.39 258.73 36.39 259.78 30.85 259.78 30.85 263.56 36.87 263.56 36.87 264.61 29.33 264.61"/>
  <polygon class="cls-1" points="53.26 264.61 47.41 255.63 47.41 264.61 46.04 264.61 46.04 254.25 48.09 254.25 53.95 263.26 53.95 254.25 55.32 254.25 55.32 264.61 53.26 264.61"/>
  <polygon class="cls-1" points="65.31 264.61 65.31 254.25 72.62 254.25 72.62 255.3 66.83 255.3 66.83 258.73 72.38 258.73 72.38 259.78 66.83 259.78 66.83 263.56 72.85 263.56 72.85 264.61 65.31 264.61"/>
  <path class="cls-1" d="M88.62,256.96c0-.36-.08-.66-.24-.88-.16-.22-.37-.39-.63-.51-.26-.12-.56-.2-.88-.24-.33-.04-.66-.06-1-.06h-2.34v3.52h1.91c.37,0,.74-.02,1.12-.06.38-.04.72-.12,1.02-.25.31-.13.55-.31.75-.55.19-.24.29-.57.29-.98M88.77,264.61c-.19-.41-.3-.83-.34-1.26-.04-.43-.09-.86-.13-1.29-.04-.38-.09-.71-.14-1-.05-.28-.15-.52-.3-.7-.15-.19-.36-.32-.64-.42-.28-.09-.67-.14-1.16-.14h-2.52v4.8h-1.52v-10.35h4.21c.48,0,.96.04,1.43.12.47.08.9.21,1.27.4.37.19.68.45.91.78.23.33.35.75.35,1.25,0,.69-.21,1.23-.63,1.61-.43.38-1,.66-1.71.84.37.08.68.18.92.3.24.12.44.28.6.46.15.18.26.39.33.62.07.23.12.49.15.77.04.34.08.69.1,1.06.02.36.08.74.16,1.14.05.19.09.37.15.54.05.17.14.32.24.46h-1.73Z"/>
  <path class="cls-1" d="M103.83,255.43l-2.37,5.44h4.81l-2.45-5.44ZM107.97,264.61l-1.22-2.74h-5.71l-1.21,2.74h-1.55l4.8-10.35h1.68l4.98,10.35h-1.76Z"/>
  <polygon class="cls-1" points="118.2 264.61 118.2 254.25 119.71 254.25 119.71 263.56 125.5 263.56 125.5 264.61 118.2 264.61"/>
  <path class="cls-1" d="M152.16,257.13c0-.39-.08-.71-.23-.94-.15-.24-.36-.43-.61-.56-.26-.13-.55-.23-.89-.27-.34-.05-.7-.07-1.08-.07h-2.06v3.85h1.62c.41,0,.82-.02,1.21-.06.39-.04.74-.13,1.04-.27.3-.14.54-.34.73-.6.19-.26.28-.62.28-1.07M153.76,257.23c0,.63-.19,1.18-.57,1.65-.38.47-.91.81-1.59,1.03-.32.11-.66.18-1.02.22-.37.04-.74.06-1.12.06h-2.17v4.43h-1.52v-10.35h3.64c.51,0,1.02.02,1.52.07.5.05.97.2,1.42.44.49.28.85.63,1.08,1.07.23.44.34.9.34,1.39"/>
  <polygon class="cls-1" points="162.68 264.61 162.68 254.25 169.98 254.25 169.98 255.3 164.19 255.3 164.19 258.73 169.74 258.73 169.74 259.78 164.19 259.78 164.19 263.56 170.21 263.56 170.21 264.61 162.68 264.61"/>
  <polygon class="cls-1" points="186.6 264.61 180.75 255.63 180.75 264.61 179.38 264.61 179.38 254.25 181.43 254.25 187.29 263.26 187.29 254.25 188.66 254.25 188.66 264.61 186.6 264.61"/>
  <path class="cls-1" d="M206.54,261.71c0,.54-.13,1.01-.39,1.4-.26.39-.6.7-1.01.94-.41.24-.89.42-1.42.53-.53.11-1.07.16-1.6.16s-1.07-.05-1.56-.16c-.48-.1-.91-.27-1.29-.51-.38-.23-.68-.53-.91-.9-.23-.37-.37-.82-.42-1.35h1.58c.02.33.1.62.25.85.15.23.34.43.58.58.24.15.51.26.82.33.31.07.64.11.99.11.33,0,.66-.03.99-.1.33-.07.63-.18.9-.32.27-.15.49-.34.66-.56.17-.23.25-.51.25-.84,0-.27-.07-.5-.2-.69-.13-.2-.3-.37-.51-.51-.21-.14-.46-.27-.74-.37-.28-.1-.58-.19-.88-.28l-1.01-.27c-.43-.11-.84-.24-1.24-.38-.4-.14-.76-.31-1.07-.52-.32-.21-.57-.47-.76-.77-.19-.31-.29-.68-.29-1.13,0-.51.12-.95.36-1.31.24-.36.55-.65.94-.88.39-.23.84-.39,1.33-.5.5-.11,1-.16,1.51-.16s.96.04,1.43.13c.46.09.87.23,1.23.44.36.21.65.47.87.81.23.33.34.75.35,1.24h-1.55c-.03-.3-.11-.55-.24-.76-.13-.21-.3-.37-.51-.5-.21-.13-.45-.22-.73-.28-.27-.05-.56-.08-.86-.08s-.61.03-.92.09c-.31.06-.59.16-.83.3-.24.14-.44.32-.6.54-.15.22-.23.48-.23.79,0,.23.07.43.19.61.13.18.29.33.48.46.2.13.41.24.65.33.24.09.47.17.69.24l1.34.39c.43.12.84.25,1.24.39.4.14.76.31,1.07.52.32.21.57.47.77.78.2.31.29.7.29,1.17"/>
  <rect class="cls-1" x="215.8" y="254.25" width="1.52" height="10.35"/>
  <path class="cls-1" d="M235.59,259.39c0-.53-.06-1.06-.18-1.57-.12-.51-.32-.97-.61-1.37-.29-.4-.67-.73-1.15-.98-.48-.25-1.07-.37-1.78-.37s-1.26.13-1.74.38c-.47.26-.85.59-1.15.99-.3.41-.51.87-.63,1.38-.13.51-.19,1.02-.19,1.54s.06,1.05.19,1.56c.12.52.33.98.62,1.39.29.41.67.74,1.14,1,.47.25,1.06.38,1.75.38s1.28-.13,1.76-.38c.47-.25.85-.59,1.15-1,.29-.41.5-.87.63-1.39.12-.52.19-1.03.19-1.56M237.2,259.35c0,.75-.1,1.45-.31,2.1-.21.66-.53,1.23-.96,1.73-.44.49-.99.88-1.66,1.17-.68.29-1.47.43-2.4.43s-1.72-.14-2.39-.42c-.67-.28-1.22-.66-1.66-1.15-.44-.48-.76-1.05-.96-1.7-.21-.65-.31-1.34-.31-2.09s.1-1.41.32-2.07c.21-.65.54-1.23.98-1.72.44-.49,1-.88,1.66-1.17.67-.29,1.46-.43,2.38-.43s1.74.13,2.4.41c.67.27,1.22.64,1.66,1.12.44.47.76,1.03.95,1.68.2.65.3,1.35.3,2.11"/>
  <polygon class="cls-1" points="253.64 264.61 247.79 255.63 247.79 264.61 246.42 264.61 246.42 254.25 248.47 254.25 254.33 263.26 254.33 254.25 255.7 254.25 255.7 264.61 253.64 264.61"/>
  <path class="cls-1" d="M283.66,259.58h-2.02c-.38,0-.78.02-1.21.05-.42.03-.82.12-1.17.25-.36.13-.66.33-.9.6-.24.26-.36.62-.36,1.08s.13.85.4,1.12.6.47.99.6c.39.13.81.21,1.27.24.46.03.88.04,1.27.04h1.73v-3.98ZM285.11,259.56v5.04h-4.06c-.52,0-1.06-.04-1.61-.11-.55-.08-1.05-.22-1.5-.44-.45-.22-.82-.51-1.1-.89-.28-.38-.42-.87-.42-1.47,0-.39.07-.74.21-1.04.14-.31.33-.57.58-.78.24-.21.54-.39.88-.53.34-.14.71-.24,1.1-.31-.26-.05-.52-.12-.78-.21-.26-.09-.5-.22-.72-.4-.22-.17-.39-.4-.53-.68-.14-.28-.21-.62-.21-1.03,0-.47.12-.87.37-1.21s.55-.62.93-.84c.38-.22.79-.38,1.26-.48.46-.1.91-.15,1.34-.15.36,0,.72.02,1.09.06.37.04.73.08,1.08.13v1.1c-.31-.07-.63-.14-.95-.18-.31-.05-.63-.07-.94-.07s-.63.03-.95.08c-.32.06-.6.16-.86.3-.25.14-.46.32-.62.55-.16.23-.24.52-.24.86,0,.39.11.7.32.93.21.23.48.4.8.52.32.12.67.2,1.04.24.38.04.73.06,1.05.06h1.98v-2.25h1.45v2.25h2.14v.96h-2.14Z"/>
  <path class="cls-1" d="M18.63,283.2c0,.55-.13,1.03-.4,1.42-.27.4-.61.72-1.03.96-.42.25-.9.43-1.45.54-.54.11-1.09.17-1.63.17s-1.09-.05-1.59-.16c-.5-.1-.93-.28-1.31-.52-.38-.24-.69-.54-.93-.92-.24-.38-.38-.84-.43-1.38h1.61c.02.34.11.63.26.87.15.24.35.44.59.59.24.16.52.27.84.34.32.08.65.11,1.01.11.33,0,.67-.03,1.01-.1.34-.07.64-.18.92-.33.28-.15.5-.34.68-.58.17-.23.26-.52.26-.86,0-.27-.07-.51-.2-.71-.13-.2-.31-.37-.52-.52-.22-.15-.47-.27-.76-.37-.29-.1-.59-.2-.9-.29l-1.03-.28c-.43-.12-.86-.24-1.27-.38-.41-.14-.78-.32-1.1-.53-.32-.21-.58-.48-.77-.79-.19-.31-.29-.7-.29-1.15,0-.52.12-.97.37-1.33.24-.37.57-.66.96-.9.4-.23.85-.4,1.35-.51.5-.11,1.02-.16,1.54-.16s.98.04,1.45.13c.47.09.89.24,1.26.45.37.21.66.48.89.83.23.34.35.77.36,1.27h-1.58c-.03-.31-.12-.56-.25-.77-.13-.21-.31-.38-.53-.52-.22-.13-.46-.23-.74-.28-.28-.06-.57-.08-.88-.08s-.62.03-.94.09c-.32.06-.6.16-.85.31-.25.14-.45.32-.61.55-.15.22-.23.49-.23.8,0,.23.06.44.19.62.13.18.29.34.49.47.2.13.42.24.67.34.24.09.48.17.7.24l1.36.4c.43.13.85.26,1.26.4.41.14.77.32,1.1.53.32.22.58.48.78.79.2.32.3.71.3,1.19"/>
  <path class="cls-1" d="M30.93,280.84c0-.54-.06-1.08-.18-1.6-.12-.52-.33-.98-.62-1.39-.29-.41-.69-.74-1.17-.99-.49-.25-1.09-.38-1.81-.38s-1.29.13-1.77.39c-.48.26-.87.59-1.17,1.01-.3.41-.51.88-.64,1.4-.13.52-.19,1.04-.19,1.57s.06,1.07.19,1.59c.13.53.34,1,.63,1.42.3.42.68.75,1.16,1.01.48.26,1.08.39,1.79.39s1.3-.13,1.79-.39c.48-.26.87-.6,1.17-1.01.3-.42.51-.89.64-1.42.13-.53.19-1.06.19-1.59M32.58,280.8c0,.76-.11,1.48-.32,2.15-.21.67-.54,1.26-.98,1.76-.44.5-1.01.9-1.69,1.19-.69.29-1.5.44-2.44.44s-1.75-.14-2.44-.42c-.68-.28-1.25-.67-1.69-1.17-.45-.5-.77-1.07-.98-1.74-.21-.66-.32-1.37-.32-2.13s.11-1.44.32-2.11c.22-.67.55-1.25,1-1.75.45-.5,1.01-.9,1.7-1.19.68-.29,1.49-.44,2.42-.44s1.77.14,2.45.42c.68.28,1.25.66,1.69,1.14.44.48.77,1.06.97,1.72.21.66.31,1.38.31,2.14"/>
  <path class="cls-1" d="M44.78,284.72c-.25.38-.58.69-.96.92-.39.24-.83.4-1.33.51-.5.11-1.03.16-1.6.16-.93,0-1.73-.14-2.39-.42-.67-.28-1.21-.66-1.64-1.14-.42-.48-.74-1.05-.94-1.69-.2-.65-.3-1.34-.3-2.09s.11-1.41.33-2.08c.22-.67.55-1.26,1-1.77.45-.52,1-.92,1.68-1.23.67-.31,1.46-.46,2.36-.46.5,0,1,.06,1.49.17.49.11.94.29,1.34.53.4.24.72.54.97.91.25.36.38.79.41,1.29h-1.65c-.03-.3-.13-.56-.28-.79-.16-.22-.35-.41-.58-.55-.23-.15-.49-.25-.79-.32-.29-.07-.6-.1-.92-.1-.68,0-1.25.13-1.72.39-.47.26-.85.6-1.15,1.02-.29.42-.51.89-.64,1.41-.13.52-.2,1.03-.2,1.54s.06,1.03.18,1.54c.12.51.32.97.61,1.37.28.4.66.73,1.12.98.46.25,1.05.38,1.75.38.78,0,1.41-.17,1.89-.52.48-.34.75-.79.79-1.35h1.68c-.08.55-.24,1.02-.5,1.4"/>
  <rect class="cls-1" x="49.07" y="275.6" width="1.55" height="10.55"/>
  <path class="cls-1" d="M59.35,276.8l-2.41,5.55h4.9l-2.49-5.55ZM63.57,286.15l-1.25-2.79h-5.82l-1.23,2.79h-1.58l4.89-10.55h1.71l5.07,10.55h-1.79Z"/>
  <polygon class="cls-1" points="68.43 286.15 68.43 275.6 69.97 275.6 69.97 285.09 75.88 285.09 75.88 286.15 68.43 286.15"/>
  <path class="cls-1" d="M93.42,283.2c0,.55-.13,1.03-.4,1.42-.27.4-.61.72-1.03.96-.42.25-.9.43-1.45.54-.54.11-1.09.17-1.63.17s-1.09-.05-1.59-.16c-.5-.1-.93-.28-1.31-.52-.38-.24-.69-.54-.93-.92-.24-.38-.38-.84-.43-1.38h1.61c.02.34.11.63.26.87.15.24.35.44.59.59.24.16.53.27.84.34.32.08.65.11,1.01.11.33,0,.67-.03,1.01-.1.34-.07.64-.18.92-.33.28-.15.5-.34.68-.58.17-.23.26-.52.26-.86,0-.27-.07-.51-.2-.71-.13-.2-.31-.37-.52-.52-.22-.15-.47-.27-.76-.37-.29-.1-.59-.2-.9-.29l-1.03-.28c-.43-.12-.86-.24-1.27-.38-.41-.14-.78-.32-1.1-.53-.32-.21-.58-.48-.77-.79-.19-.31-.29-.7-.29-1.15,0-.52.12-.97.37-1.33.24-.37.57-.66.96-.9.4-.23.85-.4,1.35-.51.5-.11,1.02-.16,1.54-.16s.98.04,1.45.13c.47.09.89.24,1.26.45.37.21.66.48.89.83.23.34.35.77.36,1.27h-1.58c-.03-.31-.12-.56-.25-.77-.13-.21-.31-.38-.52-.52-.22-.13-.46-.23-.74-.28-.28-.06-.57-.08-.88-.08s-.62.03-.94.09c-.32.06-.6.16-.85.31-.25.14-.45.32-.61.55-.15.22-.23.49-.23.8,0,.23.06.44.19.62.13.18.29.34.49.47.2.13.42.24.67.34.24.09.48.17.7.24l1.36.4c.43.13.85.26,1.26.4.41.14.77.32,1.1.53.32.22.58.48.78.79.2.32.3.71.3,1.19"/>
  <polygon class="cls-1" points="97.29 286.15 97.29 275.6 104.74 275.6 104.74 276.66 98.84 276.66 98.84 280.17 104.49 280.17 104.49 281.23 98.84 281.23 98.84 285.09 104.97 285.09 104.97 286.15 97.29 286.15"/>
  <path class="cls-1" d="M117.13,284.72c-.25.38-.58.69-.96.92-.39.24-.83.4-1.33.51-.5.11-1.03.16-1.6.16-.93,0-1.73-.14-2.39-.42-.67-.28-1.21-.66-1.64-1.14-.42-.48-.74-1.05-.94-1.69-.2-.65-.3-1.34-.3-2.09s.11-1.41.33-2.08c.22-.67.55-1.26,1-1.77.45-.52,1-.92,1.68-1.23.67-.31,1.46-.46,2.36-.46.5,0,1,.06,1.49.17.49.11.94.29,1.34.53.4.24.72.54.97.91.25.36.38.79.41,1.29h-1.65c-.03-.3-.13-.56-.28-.79-.16-.22-.35-.41-.58-.55-.23-.15-.49-.25-.79-.32-.3-.07-.6-.1-.92-.1-.68,0-1.25.13-1.72.39-.47.26-.85.6-1.15,1.02-.29.42-.51.89-.64,1.41-.13.52-.2,1.03-.2,1.54s.06,1.03.18,1.54c.12.51.32.97.61,1.37.28.4.66.73,1.12.98.46.25,1.05.38,1.75.38.77,0,1.41-.17,1.89-.52.48-.34.74-.79.79-1.35h1.68c-.08.55-.24,1.02-.5,1.4"/>
  <path class="cls-1" d="M129.67,285.26c-.83.72-2.02,1.09-3.57,1.09s-2.81-.35-3.62-1.04c-.8-.69-1.2-1.76-1.2-3.21v-6.5h1.63v6.31c0,.38.02.76.07,1.14.05.38.19.73.43,1.06.29.4.68.69,1.18.87.5.18,1.01.27,1.53.27.62,0,1.2-.12,1.74-.37.54-.24.93-.63,1.19-1.15.15-.29.23-.6.26-.91.03-.32.04-.63.04-.94v-6.28h1.58v6.52c0,1.36-.42,2.41-1.25,3.13"/>
  <path class="cls-1" d="M142.1,278.37c0-.37-.08-.67-.24-.9-.16-.22-.38-.4-.64-.52-.27-.12-.57-.2-.9-.24-.33-.04-.67-.06-1.02-.06h-2.38v3.59h1.95c.38,0,.76-.02,1.14-.06.38-.04.73-.13,1.04-.26.31-.13.56-.32.76-.57.19-.24.29-.57.29-.99M142.25,286.15c-.19-.42-.31-.85-.35-1.28-.04-.44-.09-.88-.13-1.31-.04-.39-.09-.73-.14-1.01-.05-.29-.15-.53-.3-.72-.15-.19-.37-.33-.66-.42-.29-.09-.68-.14-1.18-.14h-2.57v4.89h-1.55v-10.55h4.29c.49,0,.97.04,1.46.12.48.08.92.21,1.3.41.38.19.69.46.93.8.24.34.36.76.36,1.28,0,.7-.22,1.25-.65,1.65-.43.39-1.01.68-1.75.86.38.08.69.18.94.31.25.13.45.28.61.46.15.19.27.4.34.64.07.24.12.5.15.78.04.35.08.71.1,1.08.02.37.08.76.17,1.17.04.2.09.38.15.56.06.17.14.33.25.46h-1.77Z"/>
  <rect class="cls-1" x="147.92" y="275.6" width="1.55" height="10.55"/>
  <polygon class="cls-1" points="157.95 276.68 157.95 286.15 156.4 286.15 156.4 276.68 152.58 276.68 152.58 275.6 161.79 275.6 161.79 276.68 157.95 276.68"/>
  <polygon class="cls-1" points="169.31 281.79 169.31 286.15 167.76 286.15 167.76 281.73 163.12 275.6 164.96 275.6 168.61 280.62 172.21 275.6 173.94 275.6 169.31 281.79"/>
  <path class="cls-1" d="M187.06,276.8l-2.41,5.55h4.9l-2.49-5.55ZM191.29,286.15l-1.25-2.79h-5.82l-1.23,2.79h-1.58l4.89-10.55h1.71l5.07,10.55h-1.79Z"/>
  <path class="cls-1" d="M204.12,285.26c-.83.72-2.02,1.09-3.57,1.09s-2.81-.35-3.62-1.04c-.8-.69-1.2-1.76-1.2-3.21v-6.5h1.63v6.31c0,.38.02.76.07,1.14.05.38.19.73.43,1.06.29.4.68.69,1.18.87.5.18,1.01.27,1.53.27.62,0,1.2-.12,1.74-.37.54-.24.93-.63,1.19-1.15.15-.29.23-.6.26-.91.03-.32.04-.63.04-.94v-6.28h1.58v6.52c0,1.36-.42,2.41-1.25,3.13"/>
  <polygon class="cls-1" points="213.68 276.68 213.68 286.15 212.14 286.15 212.14 276.68 208.31 276.68 208.31 275.6 217.53 275.6 217.53 276.68 213.68 276.68"/>
  <polygon class="cls-1" points="228.4 286.15 228.4 281.28 222.16 281.28 222.16 286.15 220.62 286.15 220.62 275.6 222.16 275.6 222.16 280.2 228.4 280.2 228.4 275.6 229.94 275.6 229.94 286.15 228.4 286.15"/>
  <path class="cls-1" d="M243,280.84c0-.54-.06-1.08-.18-1.6-.12-.52-.33-.98-.62-1.39-.29-.41-.69-.74-1.17-.99-.49-.25-1.09-.38-1.81-.38s-1.29.13-1.77.39c-.48.26-.87.59-1.17,1.01-.3.41-.51.88-.64,1.4-.13.52-.19,1.04-.19,1.57s.06,1.07.19,1.59c.13.53.34,1,.63,1.42.3.42.68.75,1.16,1.01.48.26,1.08.39,1.79.39s1.3-.13,1.79-.39c.48-.26.87-.6,1.17-1.01.3-.42.51-.89.64-1.42.13-.53.19-1.06.19-1.59M244.64,280.8c0,.76-.11,1.48-.32,2.15-.21.67-.54,1.26-.98,1.76-.44.5-1.01.9-1.7,1.19-.69.29-1.5.44-2.44.44s-1.75-.14-2.44-.42c-.68-.28-1.24-.67-1.69-1.17-.44-.5-.77-1.07-.98-1.74-.21-.66-.32-1.37-.32-2.13s.11-1.44.32-2.11c.22-.67.55-1.25,1-1.75.45-.5,1.01-.9,1.7-1.19.68-.29,1.49-.44,2.42-.44s1.77.14,2.45.42c.68.28,1.25.66,1.69,1.14.44.48.77,1.06.97,1.72.21.66.31,1.38.31,2.14"/>
  <path class="cls-1" d="M255.2,278.37c0-.37-.08-.67-.24-.9-.16-.22-.38-.4-.64-.52-.27-.12-.57-.2-.9-.24-.33-.04-.67-.06-1.02-.06h-2.38v3.59h1.95c.38,0,.76-.02,1.14-.06.38-.04.73-.13,1.04-.26.31-.13.56-.32.76-.57.19-.24.29-.57.29-.99M255.35,286.15c-.19-.42-.31-.85-.35-1.28-.04-.44-.09-.88-.13-1.31-.04-.39-.09-.73-.14-1.01-.05-.29-.15-.53-.3-.72-.15-.19-.37-.33-.66-.42-.29-.09-.68-.14-1.18-.14h-2.57v4.89h-1.55v-10.55h4.29c.49,0,.97.04,1.46.12.48.08.92.21,1.3.41.38.19.69.46.93.8.24.34.36.76.36,1.28,0,.7-.22,1.25-.65,1.65-.43.39-1.01.68-1.75.86.38.08.69.18.94.31.25.13.45.28.61.46.15.19.27.4.34.64.07.24.12.5.15.78.05.35.08.71.1,1.08.02.37.08.76.17,1.17.04.2.09.38.15.56.06.17.14.33.25.46h-1.77Z"/>
  <rect class="cls-1" x="261.02" y="275.6" width="1.55" height="10.55"/>
  <polygon class="cls-1" points="271.05 276.68 271.05 286.15 269.5 286.15 269.5 276.68 265.68 276.68 265.68 275.6 274.89 275.6 274.89 276.68 271.05 276.68"/>
  <polygon class="cls-1" points="282.41 281.79 282.41 286.15 280.86 286.15 280.86 281.73 276.22 275.6 278.07 275.6 281.71 280.62 285.31 275.6 287.05 275.6 282.41 281.79"/>
  <rect class="cls-2" x="72.67" y="64.72" width="10.47" height="51.16"/>
  <rect class="cls-2" x="151.19" y="92.63" width="10.47" height="13.95"/>
  <rect class="cls-2" x="56.97" y="92.63" width="10.47" height="13.95"/>
  <rect class="cls-2" x="9.86" y="92.63" width="10.47" height="13.95"/>
  <rect class="cls-2" x="135.49" y="92.63" width="10.47" height="13.95"/>
  <rect class="cls-2" x="119.78" y="92.63" width="10.47" height="13.95"/>
  <rect class="cls-2" x="210.96" y="232.18" width="10.47" height="9.3"/>
  <rect class="cls-3" x="127.64" y="176.34" width="10.47" height="9.3"/>
  <rect class="cls-3" x="111.93" y="176.34" width="10.47" height="9.3"/>
  <rect class="cls-3" x="190.45" y="64.72" width="10.47" height="9.3"/>
  <rect class="cls-3" x="206.15" y="64.72" width="10.47" height="9.3"/>
  <rect class="cls-2" x="135.49" y="78.69" width="10.47" height="9.3"/>
  <rect class="cls-2" x="119.78" y="78.69" width="10.47" height="9.3"/>
  <rect class="cls-2" x="41.27" y="78.69" width="10.47" height="9.3"/>
  <rect class="cls-2" x="25.56" y="78.69" width="10.47" height="9.3"/>
  <rect class="cls-2" x="151.19" y="78.69" width="10.47" height="9.3"/>
  <rect class="cls-2" x="72.67" y="106.58" width="88.98" height="9.3"/>
  <rect class="cls-2" x="9.86" y="106.58" width="57.58" height="9.3"/>
  <polygon class="cls-3" points="177.36 127.09 172.13 127.09 172.13 124.02 177.36 124.02 177.36 120.91 166.9 120.91 166.9 130.21 177.36 130.21 177.36 127.09"/>
  <path class="cls-3" d="M151.19,162.38h-5.24v-4.66h5.24v4.66ZM161.66,148.43h-26.17v4.66h0v9.3h-5.23v-13.95h-10.47v13.95h-5.23v-13.95h-10.47v13.95h-20.94v-42.07h-10.47v51.16h0v.22h62.81s10.47,0,10.47,0h0s5.24,0,5.24,0h0s10.47,0,10.47,0v-18.6h0v-4.66Z"/>
  <rect class="cls-3" x="245.41" y="120.53" width="10.47" height="51.16"/>
  <path class="cls-3" d="M271.58,143.78h5.24v4.65h-5.24v-4.65ZM276.82,134.48h-15.71v23.25h15.71v4.65h-15.71v9.3h26.17v-37.21h-10.47Z"/>
  <polygon class="cls-3" points="229.71 162.39 208.77 162.39 208.77 148.43 198.3 148.43 198.3 162.39 193.07 162.39 177.36 162.39 177.36 134.48 166.9 134.48 166.9 171.69 240.18 171.69 240.18 120.53 229.71 120.53 229.71 162.39"/>
  <rect class="cls-3" x="206.15" y="134.48" width="10.47" height="9.3"/>
  <rect class="cls-3" x="190.45" y="134.48" width="10.47" height="9.3"/>
  <rect class="cls-3" x="104.08" y="134.48" width="10.47" height="9.3"/>
  <polygon class="cls-3" points="56.97 162.37 20.33 162.37 20.33 148.42 9.86 148.42 9.86 162.37 9.86 162.37 9.86 171.67 67.44 171.67 67.44 162.37 67.44 148.42 56.97 148.42 56.97 162.37"/>
  <rect class="cls-3" x="41.27" y="134.49" width="10.47" height="9.3"/>
  <rect class="cls-3" x="25.56" y="134.49" width="10.47" height="9.3"/>
  <rect class="cls-2" x="33.42" y="232.18" width="10.47" height="9.3"/>
  <rect class="cls-2" x="48.94" y="232.18" width="10.47" height="9.3"/>
  <path class="cls-2" d="M145.96,213.54h5.23v4.66h-5.23v-4.66ZM240.18,204.23h-41.87v9.3h31.41v4.66h-36.64v-13.95h-10.47v13.95h-20.94v-13.95h-10.47s-15.7,0-15.7,0v13.96h-36.64v-41.76h-10.47v51.16h10.47v-.1h36.64s10.47,0,10.47,0h0s5.23,0,5.23,0h0s10.47,0,10.47,0h0s14.51,0,14.51,0h64v-23.25h0Z"/>
  <path class="cls-2" d="M25.57,218.19h-5.24v-4.85h5.24v4.85ZM56.97,197.42h0v20.77h-5.23v-14.05h-10.47v14.05h-5.23v-14.16H9.86v14.22h0v9.31h31.41v.03h10.47v-.1h31.41v-9.3h-15.71v-18.6h5.23v5.49h10.47v-5.49h0v-9.3h-26.17v7.13Z"/>
  <rect class="cls-2" x="276.82" y="176.34" width="10.47" height="51.16"/>
  <path class="cls-2" d="M255.88,213.54h5.24v4.65h-5.24v-4.65ZM261.12,204.24h-5.24v-27.9h-10.47v51.16h26.17v-51.16h-10.47v27.9Z"/>
  <rect class="cls-2" x="190.45" y="190.29" width="10.47" height="9.3"/>
  <rect class="cls-2" x="174.75" y="190.29" width="10.47" height="9.3"/>
  <rect class="cls-2" x="9.86" y="190.22" width="10.47" height="9.3"/>
  <rect class="cls-2" x="25.56" y="190.22" width="10.47" height="9.3"/>
  <rect class="cls-3" x="9.86" y="232.18" width="18.51" height="9.3"/>
  <rect class="cls-3" x="64.45" y="232.18" width="141.46" height="9.3"/>
  <rect class="cls-3" x="226.48" y="232.18" width="60.81" height="9.3"/>
  <path class="cls-2" d="M245.41,106.58h-5.23v-4.66h5.23v4.66ZM276.82,64.72v41.86h-5.23v-41.86h-10.47v41.86h-5.23v-13.94h0s-26.17-.01-26.17-.01h0v13.96h-28.79v-18.58h5.23v4.66h10.47v-4.66h0v-9.3h-26.17v7.81h0v20.07h-13.09v-41.86h-10.47v51.16h120.39v-51.16h-10.47Z"/>
  <rect class="cls-3" x="276.82" y="8.91" width="10.47" height="51.16"/>
  <rect class="cls-3" x="135.49" y="8.91" width="10.47" height="51.16"/>
  <polygon class="cls-3" points="119.78 50.77 98.85 50.77 98.85 32.15 104.08 32.15 104.08 36.55 114.55 36.55 114.55 22.89 104.48 22.89 104.48 22.85 88.38 22.85 88.38 32.14 88.38 32.14 88.38 50.77 83.14 50.77 83.14 8.91 72.67 8.91 72.67 55.42 72.68 55.42 72.68 60.07 130.25 60.07 130.25 55.42 130.25 50.77 130.25 8.91 119.78 8.91 119.78 50.77"/>
  <path class="cls-3" d="M229.71,50.77h-5.24v-4.66h5.24v4.66ZM166.89,50.77h-5.24v-4.66h5.24v4.66ZM261.12,50.77h-5.23v-27.89h-41.88v9.3h31.41v18.59h-5.23v-13.95h0s-26.17-.01-26.17-.01h0s0,.01,0,.01v13.95h-5.23v-14.22h-10.47v14.22h-5.24v-14.22h-10.47v14.22h-5.23v-13.96h-26.17v23.27h0s112.41,0,112.41,0h0s7.98,0,7.98,0V8.91h-10.47v41.86Z"/>
  <rect class="cls-3" x="151.19" y="22.87" width="10.47" height="9.3"/>
  <rect class="cls-3" x="166.89" y="22.87" width="10.47" height="9.3"/>
  <rect class="cls-3" x="9.86" y="22.73" width="10.47" height="9.3"/>
  <rect class="cls-3" x="25.56" y="22.73" width="10.47" height="9.3"/>
  <polygon class="cls-3" points="193.07 28.92 187.83 28.92 187.83 25.84 193.07 25.84 193.07 22.73 182.6 22.73 182.6 32.03 193.07 32.03 193.07 28.92"/>
  <path class="cls-3" d="M56.97,50.73h-5.23v-4.6h5.23v4.6ZM25.57,50.77h-5.3s.07,0,.07,0v-4.92h5.24v4.92ZM67.44,36.83h-26.17v13.94h-5.23v-14.22H9.86v17.05h0v6.47h31.41s10.47,0,10.47,0h0v-.04h5.23v.03h10.47v-13.95h0v-9.28Z"/>
</svg>