<?xml version="1.0" encoding="UTF-8"?>
<svg id="Layer_1" data-name="Layer 1" xmlns="http://www.w3.org/2000/svg" viewBox="0 0 554.92 190.58">
  <defs>
    <style>
      .cls-1 {
        fill: #ad833b;
      }
    </style>
  </defs>
  <path class="cls-1" d="M472.47,158.04c-.22-.02-.45-.04-.68-.07-.22-.02-.45-.04-.68-.07.03-.21.05-.41.08-.62.03-.29.29-.52.62-.55.05,0,.07,0,.1-.02.25-.02.49-.09.7-.17-.05.49-.1,1-.15,1.49M479.97,159.66c.04-1.73.08-3.46.12-5.19-.66.54-1.32,1.07-2.01,1.59.52.14.64.5.62.85-.02.51-.04,1.02-.05,1.54-.45-.02-.9-.03-1.35-.06.07-1.34.13-2.68.2-4.02-.67.52-1.35,1.03-2.05,1.54.52.15.64.52.62.87-.03.51-.07,1.02-.1,1.54-.72-.04-1.44-.1-2.15-.16.27-3.13.53-6.25.79-9.4-.65.5-1.32.99-1.99,1.48.48.16.57.53.53.88-.11,1.13-.22,2.25-.33,3.38-.05.52-.44.77-.76.89-.21.1-.39.13-.4.16-.92.07-1.7.7-1.81,1.56l-.22,1.78c.53.07,1.07.13,1.61.19.15.02.29.03.44.05.76.08,1.52.15,2.28.21,2.01.16,4.01.27,6.02.31M466.28,158.43c.44.07.89.14,1.34.2.39-2.68.78-5.36,1.17-8.04.05-.35.23-.69.74-.73-.54-.63-1.06-1.27-1.58-1.91-.56,3.49-1.12,6.98-1.67,10.47M461.18,156.26c-.22-.05-.44-.1-.67-.14-.22-.05-.44-.1-.66-.15.04-.15.07-.31.11-.46.26-.14.52-.28.78-.42.18.24.36.48.54.72-.03.15-.07.31-.1.46M464.63,149.05c.48.21.53.58.46.93-.43,2.27-.85,4.55-1.28,6.82-.44-.09-.89-.17-1.33-.26.06-.31.12-.62.18-.93-.54-.71-1.06-1.42-1.58-2.15-.77.43-1.55.86-2.34,1.27-.08.3-.15.61-.23.92-.44-.11-.89-.22-1.33-.34.34-1.29.67-2.59,1.01-3.88-.77.37-1.55.73-2.33,1.08.48.25.51.63.42.98-.14.49-.27.99-.41,1.49-.19-.05-.39-.11-.58-.16,0,0,0,0,0-.01-.37-.1-.73-.21-1.1-.31-.01-.47.06-.94.15-1.4.3-1.45.7-3.09-1.13-5.04-.52.25-1.06.49-1.59.73,1.29.38,1.8,1.58,2,2.52.18,1.15-.44,2.01-.11,2.99-.63-.19-1.26-.38-1.89-.58,0,0,0,0,0,0,.05-.15.1-.3.15-.45.31-.98-.34-2.08-1.45-2.47-.08-.03-.16-.06-.24-.09-2.46-.86-4.89-1.82-7.3-2.88.16-.36.32-.72.48-1.08.14-.32.48-.42.83-.26-.37-.8-.72-1.61-1.06-2.42-.66,1.42-1.31,2.85-1.97,4.28,2.91,1.33,5.87,2.53,8.87,3.57.43.15.67.56.55.93-.05.15-.1.3-.15.45-.14.41-.28.81-.42,1.23-.27.12-.55.23-.82.34-.15-.27-.31-.54-.46-.81.14-.4.28-.8.42-1.2-.32-.11-.64-.22-.95-.34-.11-.04-.22-.08-.33-.12-2.43-.89-4.83-1.88-7.19-2.97-.17.36-.33.72-.5,1.07,2.4,1.1,4.82,2.1,7.28,3.01-.07.19-.13.37-.2.55.45.8.92,1.59,1.39,2.38.85-.32,1.69-.66,2.53-1,.06-.19.12-.39.19-.59.95.31,1.89.6,2.85.87.18.28.41.5.71.71-.13-.2-.24-.4-.33-.6.79.23,1.59.44,2.39.65,1.11.29,2.22.56,3.34.8,1.11.25,2.23.48,3.35.69.05,0,.1.02.14.03.39.08.79.15,1.19.22h.01c.61-3.49,1.2-6.97,1.8-10.45-.7.44-1.4.87-2.12,1.29M477.8,160.78c-.39-.02-.7.23-.71.55-.02.33.27.6.66.62.39.02.7-.23.71-.56,0-.32-.28-.6-.66-.61M473.56,17.56c.52,0,.94.4.94.89-.28-.28-1.37-.51-1.87,0,0-.5.42-.89.94-.89M475.91,18.72c-.4,2.96-4.2,2.96-4.33.77.68,2.38,4.37,1.13,3.28-1.51,1.45-.55,2.53-.59,3.71-.78-3.03-.47-6.6-.85-8.82.17-1.08.49-.78,1.15-.62,1.43.18-.58,1.14-.61,1.83-.38-.52,4.46,5.19,3.93,4.94.31M438.09,148.2c-.21-.11-.42-.21-.63-.31-.21-.11-.41-.22-.62-.33.09-.17.18-.35.27-.53.13-.26.47-.37.8-.27.04,0,.07.02.1.02.25.07.5.09.72.09-.22.44-.44.89-.66,1.34M440.96,140.96c.41.33.36.71.2,1.02-.5,1.02-1,2.03-1.51,3.05-.23.46-.69.55-1.04.56-.23.01-.42-.03-.44,0-.9-.27-1.86.04-2.27.8-.28.53-.57,1.05-.84,1.58.62.33,1.24.65,1.87.96.63.32,1.26.63,1.89.93,1.52-3.19,3.04-6.38,4.56-9.57-.8.23-1.61.45-2.43.66M475.05,160.62c-.38-.02-.72.21-.74.53-.03.33.27.61.66.64.38.03.71-.21.73-.54.02-.32-.28-.61-.65-.63M473.41,160.49c-.39-.04-.72.2-.75.52-.03.33.26.62.65.65.37.03.71-.2.73-.52.02-.32-.26-.61-.64-.64M457.89,150.6c.34.09.69-.08.77-.41.08-.31-.14-.64-.47-.72-.34-.09-.69.09-.77.4-.09.32.13.64.47.73M456.41,150.2c.34.1.69-.07.77-.39.08-.31-.13-.65-.45-.74-.35-.1-.7.08-.78.39-.1.32.12.64.46.74M471.28,151.04c.35.04.65-.19.69-.52.04-.32-.2-.61-.54-.65-.33-.04-.64.19-.68.51-.04.33.21.63.54.67M503.48,152.08c.34-.08.57-.41.49-.71-.08-.32-.42-.52-.76-.44-.35.08-.56.4-.49.72.07.31.4.51.76.43M440.04,139.94c.32.16.68.06.83-.23.15-.29.03-.65-.28-.81-.3-.15-.68-.05-.83.23-.15.29-.02.65.28.81M471.45,149.62c.35.04.64-.18.67-.51.04-.32-.19-.61-.53-.65-.33-.04-.64.19-.68.51-.04.33.2.62.54.66M501.97,152.41c.34-.08.57-.4.5-.71-.07-.33-.41-.52-.75-.45-.35.07-.58.39-.51.72.06.32.41.52.76.44M439.38,141.21c.32.16.69.05.84-.24.14-.29.02-.65-.29-.81-.3-.16-.68-.06-.83.22-.16.29-.02.67.28.83M474.95,78.58c-.13-2.21-.21-4.73-.21-7.46,0-2.48.07-4.72.18-6.69,6.27-.56,15.24-.72,23.53,1.43.6,1.78.93,3.67.93,5.65s-.33,3.86-.92,5.63c-8.27,2.15-17.23,2-23.51,1.43M481.65,89.24c-1.98,0-3.92-.33-5.77-.97-.15-.95-.58-4.08-.87-8.63,6.18.54,14.85.68,23-1.31-2.68,6.4-9,10.91-16.36,10.91M463.92,71.52c0-7.16,4.34-13.61,10.88-16.36-.34,2.12-1.1,7.76-1.1,15.97s.75,14.48,1.06,16.73c-6.52-2.75-10.84-9.21-10.84-16.34M475.94,54.73c1.84-.63,3.75-.95,5.71-.95,7.35,0,13.67,4.5,16.36,10.89-8.17-1.99-16.86-1.84-23.03-1.3.3-4.71.79-7.73.96-8.65M481.65,52.74c-2.18,0-4.32.37-6.35,1.1-7.43,2.67-12.43,9.77-12.43,17.67s4.97,14.96,12.36,17.65c2.06.75,4.21,1.13,6.42,1.13,10.35,0,18.78-8.43,18.78-18.78s-8.42-18.78-18.78-18.78M525.43,152.17c-.18.08-.38.03-.44-.12-.07-.15.02-.33.19-.41.07-.03.14-.05.2-.04-.64-.2-1.22.49-.72.92-.17.11-.3.11-.4.01-.12.23-.23.46-.34.7.85-.38,1.7-.77,2.54-1.17-.27-.09-.55-.17-.82-.26.05.14-.05.29-.21.37M534.71,72.16v-2.09c0-1.05,0-2.08,0-2.57.01-1.97-.32-4.59-2.19-5.87.56,2.21.18,2.6.18,6.32v4.64c0,1.36.19,2.55.52,3.58-2.17-1.05-4.49-3.34-4.49-7.37,0-1.35-.33-6.92-2.01-9.24v9.66c0,1.27.16,2.39.45,3.37-5.1-2.58-4.59-11.37-6.25-14.79,0,2.95.07,5.02.07,7.97,0,1.45.22,2.71.58,3.79-4.46-2.85-4.98-8.43-5.33-12.6-.43,1.55-1.14,5.61.08,9.45-2.99-2.29-4.66-7.17-4.45-10.65-.44,1.91-.9,4.79.03,7.68-.16,3.28-.14,29.16-.13,31.98-1.7-1.41-3.45-3.95-3.26-7.81.06-.63.13-1.23.22-1.8,1.19-8.08,1.44-19.72-1.9-29.03,2.69,14.54-.67,29.49-1.14,32.5-.84,5.37.99,16.51,4.78,28.86-.73-.73-3.27-1.79-4.27-2.8,0,1.11.41,2.32.41,4.75-1.3-2.18-1.8-2.27-3.18-4.69.43,2.84.31,3.09.31,5.55-1.35-2.54-2.07-5.92-5.16-10.75-6.88-10.75-16.81-4.08-16.81-2.21,0-1.87-9.92-8.54-16.8,2.21-3.1,4.83-3.82,8.21-5.17,10.75,0-2.45-.12-2.71.31-5.55-1.38,2.42-1.88,2.51-3.18,4.69,0-2.44.41-3.64.41-4.75-1.02,1.01-3.55,2.07-4.28,2.8,3.79-12.35,5.62-23.49,4.78-28.86-.47-3.01-3.83-17.96-1.13-32.5-3.34,9.31-3.09,20.95-1.9,29.03.09.57.15,1.18.22,1.81.19,3.87-1.57,6.42-3.28,7.82,0-2.82.04-28.68-.13-32,.94-2.89.48-5.77.03-7.68.21,3.49-1.46,8.37-4.45,10.65,1.21-3.84.51-7.9.07-9.45-.35,4.17-.86,9.75-5.32,12.6.36-1.08.58-2.33.58-3.79,0-2.95.07-5.02.07-7.97-1.67,3.41-1.16,12.2-6.25,14.79.29-.99.45-2.1.45-3.37v-9.66c-1.68,2.32-2.01,7.89-2.01,9.24,0,4.03-2.32,6.32-4.49,7.36.33-1.03.52-2.22.52-3.58v-4.64c0-3.72-.39-4.11.18-6.32-1.87,1.28-2.2,3.89-2.19,5.87,0,.49,0,1.52,0,2.57h0v2.09c0,4.21-2.53,6.52-4.78,7.5.39-.5.8-1.87.8-3.91v-20.29c0-5.7,6.66-12.26,9.12-15.15,6.82-7.99,9.79-1.5,16.67.83,11.42,3.87,17.52-.45,17.52-.45,6.1-3.84,6.12-7.46,6.12-9.72,0-1.53-.59-3.52-1.71-4.8-2.09-2.08-5.79-2.75-6.45-2.63-1.39.72-2.63.72-2.88.92-.64-1.28-.48-3.22,2.4-4.82.81-.44.51-1.47,2.97-2.9,7.18-4.19,14.2-2.67,18.3,1.9-1.45-.53-2.84-1.01-5.29-1.24,3.43,1.19,7.49,4.03,10.12,8.75,1.07,1.87,3.5,7.04,4.36,8.61,1.83,3.33,5.14,10.32,16.8,6.39,6.87-2.32,9.84-8.83,16.67-.83,2.46,2.89,9.12,9.44,9.12,15.15v20.29c0,2.03.42,3.4.8,3.91-2.24-.98-4.78-3.3-4.78-7.5M534.72,87.99v-5.8c0-.96-.03-1.8-.1-2.55.34.13.65.24.94.35.97.96,2.07,1.65,3.13,2.18v9.39c0,2.04.42,3.41.8,3.91-2.24-.98-4.76-3.29-4.77-7.48M534.81,107.68c0-.68-.09-6.32-.09-7.41,0-1.21-.05-3.29-.16-4.84.36.14.69.27,1,.38.97.95,2.07,1.65,3.13,2.17v11.99c0,2.03.42,3.41.8,3.91-2-.87-4.69-3.27-4.69-6.2M534.81,138.1v-4.49h0c0-2.83-.08-5.29-.08-6.13v-6.69c0-.57-.02-3.49-.03-7.25.13.06.26.1.38.15,1.07,1.24,2.38,2.08,3.62,2.7v23.99c0,2.04.42,3.41.8,3.91-2-.87-4.69-3.38-4.69-6.19M528.74,84.61v-5.87c0-1.03-.04-1.9-.09-2.64.23.09.45.17.66.25,1.04,1.12,2.27,1.9,3.44,2.48.02,1.23-.04,2.52-.04,3.81v5.75c0,1.37.19,2.55.52,3.59-2.17-1.04-4.49-3.34-4.49-7.37M528.74,102.69v-5.87c0-1.04-.04-3.24-.1-4.9.23.09.46.17.67.26,1.04,1.11,2.27,1.89,3.44,2.47.05,1.96-.04,4.65-.04,6.07v3.42h0v2.14c0,.14,0,.27,0,.41,0,0,0,0,0,0v.13c0,1.23.15,2.31.42,3.27-1.96-.9-4.39-3.42-4.39-7.38M528.74,123.21v-5.87c0-1.02-.04-4.77-.09-7.63,1.17,1.55,2.71,2.45,4.1,3.08-.02,4.33-.03,7.8-.03,8.46v5.56c0,2.04,0,3.21.38,3.71-1.67-.73-4.36-3.1-4.36-7.31M523.01,81.17v-5.31c0-1.09.01-1.83-.02-2.44.54.21,1.12.39,1.74.55.65.5,1.33.93,2,1.28,0,.19,0,.39,0,.57v9.21c0,1.26.15,2.37.44,3.34-2.07-1.11-4.16-3.37-4.16-7.2M523.01,97.31v-5.31c0-2.03-.06-2.02-.06-3.01.57.24,1.09.44,1.56.62.71.58,1.48,1.06,2.22,1.45,0,1.2,0,2.55,0,2.84v9.21c0,.42.02.8.04,1.18-1.93-1.18-3.77-3.39-3.77-6.97M526.73,114.41v9.1c-1.92-1.19-3.72-3.4-3.72-6.95v-5.32c0-1.55-.03-5.03-.05-7.12,1.07,1.42,2.44,2.37,3.77,3.06.01,2.48,0,6.84,0,7.22M518,78.53v-5.34c0-1.37-.03-2.38-.1-3.14.2.11.4.21.61.31.67.76,1.49,1.47,2.48,2.08.02.44.01.89.01,1.29v7.86c0,1.46.22,2.71.58,3.8-1.86-1.21-3.59-3.39-3.59-6.86M518,92.82v-5.34c0-.6,0-1.13-.02-1.6.25.14.51.28.78.41.68.69,1.43,1.24,2.19,1.7.05.64.05,1.3.05,1.89v7.86c0,.56.04,1.09.1,1.59-1.66-1.26-3.1-3.35-3.1-6.51M521,109.13v6.6c-1.62-1.27-3-3.34-3-6.44v-5.34c0-1-.01-2.85-.05-4.3.86,1.13,1.91,1.98,2.98,2.62.08,2.26.07,6.2.07,6.87M512.88,77.17c0-1.22-.09-7.62-.1-11.8.7,1.2,1.7,2.37,3.13,3.43.16,1.18.08,2.66.08,3.69v6.46c0,1.21.15,2.27.41,3.22-1.96-1.45-3.52-3.23-3.52-5M512.81,81.1c.64,1.16,1.72,2.39,3.19,3.51,0,.77-.01,1.55-.01,2.16v5.33c-1.76-1.37-3.11-3.03-3.11-4.68,0-.74-.03-3.4-.07-6.31M515.99,103.23v3.81c-1.76-1.38-3.11-3.03-3.11-4.68,0-1.15-.09-6.92-.1-11.08.63,1.17,1.7,2.41,3.18,3.54.1,2.43.04,7.49.04,8.41M511.23,125.41c.24.54.17,1.62.42,2.12.25.5.8.85.96,1.1.2.34.13,1.19.4,1.79.13.28.26.56.4.81-.18.19-.33.42-.46.63-.41-.93-1.43-1.03-2.2-.55-.39.25-.85.63-1.21,1.24.15-1.05-.05-1.39-.45-1.8-.6-.6-.36-1.87-.85-2.64-.38-.59-1.08-.78-1.53-1.69-.45-.91-.23-1.39-.68-2.29-.51-1.02-.64-1.35-.67-2.73.59.75,1.26,1.38,2.16,2.3.32-2.15.35-2.67.35-4.52.91.78,1.85,1.94,2.15,2.73.17.47.34,1.84.41,2.06.22.71.55.93.79,1.47M515.23,131.69c.96.07.43,4.23,1.13,5.68.72,1.47.41,2.69-.95,2.56-1.39-.13-1.31-4.35-1.32-5.08,0-1.04-.53.56-.81,1.14-.06-.26-.12-.54-.16-.84-.1-.72-.03-1.17.03-1.61.37-.99,1.11-1.93,2.08-1.86M516.45,133.38c.38-1.25,1.42-2.99,2.61-2.72.94.21.04,3.21.61,4.68,1.1,2.87-.44,3.84-1.78,3.5-1.49-.37-.83-4.38-.7-4.96.04-.95-.45-.02-.79.51-.07-.24-.12-.41.05-1.02M520.89,133.98l8.79,6v12.64c-13.97,7.91-29.63,12.5-45.76,12.84h-.26s-1.23,1.01-1.82,1.51h0s0,0,0,0c-.59-.49-1.82-1.51-1.82-1.51h-.26c-16.13-.34-31.78-4.93-45.74-12.84v-12.64s8.77-6,8.77-6c.22.12.43.24.65.37.03,1.26-.85,1.91-.65,3.2.16,1.08.82,1.85,1.61,2.2.21.47.6.86,1.12,1.07.54.2.47-.26.46-.95.12-.03.23-.07.35-.13.15.51.48.89.91,1.1.19.39.54.74,1.24,1.2.69.32.22-.43.1-1.09.25-.06.51-.17.76-.34.09.21.21.39.41.52.06.05.13.1.19.14.17.7.66,1.11,1.41,1.53.5.16.31-.4.26-.94.69,0,1.3-.38,1.58-1.51.13-.54.12-.88.09-1.16,8.34,3.55,17.35,5.95,26.16,6.23.31.24,2.43,1.83,2.43,1.83,0,0,2.12-1.59,2.43-1.83,8.76-.27,17.72-2.65,26.01-6.17-.02.28-.02.61.11,1.1.27,1.13.88,1.52,1.57,1.51-.05.54-.24,1.1.26.94.75-.42,1.24-.83,1.41-1.53.06-.04.13-.09.19-.14.18-.13.31-.31.4-.52.25.17.5.28.76.34-.13.67-.59,1.41.1,1.09.69-.46,1.04-.81,1.23-1.2.43-.21.76-.59.91-1.1.11.06.23.1.35.13,0,.68-.08,1.14.46.95.52-.22.91-.6,1.12-1.07.78-.35,1.44-1.12,1.61-2.2.2-1.27-.65-1.91-.65-3.13.26-.14.51-.29.77-.44M443.88,135.35c.56-1.47-.34-4.47.6-4.68,1.2-.27,2.24,1.46,2.62,2.72.12.35.1.9.05,1.01-.34-.53-.83-1.46-.8-.51.13.58.8,4.59-.7,4.96-1.33.34-2.87-.64-1.77-3.5M448.32,131.69c.97-.07,1.7.87,2.08,1.86.06.44.13.9.03,1.61-.04.3-.1.57-.16.84-.28-.59-.81-2.19-.81-1.14,0,.74.07,4.96-1.32,5.08-1.36.13-1.66-1.09-.95-2.56.71-1.45.18-5.61,1.14-5.68M453.15,134.88c-1.14,2.06-.13,5.93-1.43,6.01-3.75.24-.97-4.46-.83-5.63.17-1.5.02-3.68,1.47-3.23,1.31.4,2.98,4.65,3.79,5.92,0,.01.02.03.04.04-.3-.12-.59-.24-.89-.37.09.03.15.05.19.06-1.34-.52-2.11-3.76-2.34-2.81M511.18,132.03c1.46-.45,1.31,1.73,1.48,3.23.14,1.17,2.92,5.87-.83,5.63-1.3-.08-.29-3.95-1.43-6.01-.2-.85-.83,1.8-1.93,2.72-.36.15-.72.29-1.08.44.86-1.46,2.53-5.62,3.8-6M490.75,132.58c.94,5.45-4.44,5.75-5.24,1.55-.1-.53-.24-2.15-.42-4.29-.4-7.32-1-18.93-1.04-21.12.91-.58,1.99-1.01,3.09-1.31.6,4.13,3.35,23.7,3.6,25.17M491.29,107.13c.58.11,1.06.31,1.41.59.53.36,1.1.87,1.72,1.47.96,3.66,4.88,18.32,5.24,19.79.43,1.77.89,3.38,1.63,4.12-2.37.45-4.05,0-4.6-2.15-.71-3.37-4.42-20.12-5.4-23.82M495.29,131.04c.31,1.8,1.75,4.37.1,4.76-2.55.63-2.78-.79-3.19-2.99-.01-.06-3.59-23.5-4.1-25.61.82-.15,1.62-.21,2.34-.17.53,2.58,4.6,22.55,4.85,24.01M479.89,133.27c0-2.84.44-20.96.52-23.88.72.63,1.22,1.37,1.36,2.2.14-.83.64-1.57,1.37-2.2.08,2.92.51,21.04.51,23.88,0,3.09-.81,4.21-1.88,4.84-1.07-.64-1.88-1.75-1.88-4.84M462.49,128.79c-.7,2.47-2.38,5.03-2.77,5.43,1.45.55,4.1.98,5.96.24-.27.97-.25,1.86.58,2.69,1.02,1.02,3.89,1.75,5.28-.64,1.12,3.99,5.42,3.8,7.12,1.01.73,2.31,2.24,2.61,3.12,3.48.87-.87,2.39-1.16,3.12-3.48,1.69,2.79,5.99,2.98,7.11-1.01,1.4,2.4,4.27,1.66,5.29.64.83-.83.84-1.72.58-2.69,1.87.74,4.51.31,5.96-.24-.39-.4-2.08-2.96-2.78-5.43-.85-3-3.97-13.81-5.37-18.24,3.8,4.37,8.15,11.77,8.43,15.66.12-.55.37-1.23.61-1.95.88,1.82,2.99,5.55,3.34,6.43.37.92.47,1.53.2,2.75-.19.89-1,3.57-2.72,5.29,0,0,0,0,0,.02-6.89,2.56-14.15,4.16-21.6,4.36-.61.5-2.11,1.62-2.11,1.62,0,0-1.5-1.13-2.1-1.62-7.42-.2-14.66-1.79-21.53-4.34,0,0,0-.01.01-.02-1.72-1.72-2.74-4.43-2.94-5.31-.26-1.22-.16-1.83.21-2.75.35-.88,2.46-4.61,3.33-6.43.23.73.49,1.4.6,1.95.28-3.89,4.64-11.29,8.44-15.66-1.4,4.43-4.52,15.25-5.38,18.24M466.86,130.96c-.55,2.16-2.23,2.6-4.6,2.15.74-.74,1.2-2.35,1.63-4.12.35-1.47,4.27-16.13,5.24-19.79.61-.61,1.19-1.11,1.71-1.47.35-.29.83-.48,1.41-.59-.98,3.7-4.68,20.45-5.4,23.82M476.4,107.42c1.1.29,2.18.73,3.09,1.31-.04,2.2-.64,13.79-1.04,21.11-.16,2.15-.31,3.77-.42,4.3-.8,4.2-6.17,3.9-5.24-1.55.25-1.46,3.01-21.04,3.6-25.17M471.35,132.81c-.41,2.19-.64,3.61-3.19,2.99-1.65-.39-.21-2.96.1-4.76.27-1.56,4.27-21.06,4.85-24.01.72-.04,1.52.02,2.33.17-.51,2.11-4.09,25.55-4.1,25.61M450.54,130.41c.27-.6.19-1.45.4-1.79.15-.25.71-.6.96-1.1.25-.5.18-1.58.43-2.12.24-.54.57-.76.79-1.47.07-.23.23-1.59.41-2.06.3-.79,1.23-1.95,2.15-2.73,0,1.86.02,2.37.35,4.52.91-.92,1.58-1.55,2.17-2.3-.03,1.38-.15,1.71-.67,2.73-.46.9-.23,1.39-.69,2.29-.44.92-1.15,1.1-1.52,1.69-.49.76-.25,2.03-.85,2.64-.41.41-.6.74-.45,1.8-.36-.6-.82-.99-1.21-1.24-.76-.48-1.78-.38-2.19.55-.14-.21-.28-.43-.46-.63.14-.25.28-.53.41-.81M450.66,77.17c0,1.77-1.57,3.55-3.52,5,.26-.95.41-2.01.41-3.22v-6.46c0-1.03-.09-2.51.08-3.69,1.43-1.06,2.44-2.23,3.14-3.43-.02,4.18-.11,10.58-.11,11.8M447.53,84.61c1.47-1.11,2.54-2.33,3.18-3.49-.03,2.9-.06,5.56-.06,6.3,0,1.65-1.34,3.3-3.1,4.68v-5.32c0-.62-.03-1.39-.02-2.16M450.65,102.36c0,1.64-1.34,3.3-3.1,4.67v-3.8c0-.92-.07-5.99.03-8.42,1.47-1.13,2.54-2.38,3.17-3.53-.02,4.16-.1,9.93-.1,11.08M445.54,73.19v5.34c0,3.47-1.73,5.66-3.59,6.86.37-1.08.59-2.33.59-3.79v-7.86c0-.41,0-.85.01-1.29.99-.61,1.8-1.31,2.47-2.08.21-.11.41-.21.61-.31-.06.76-.09,1.77-.09,3.14M442.44,99.33c.06-.5.09-1.03.09-1.59v-7.86c0-.59,0-1.25.05-1.89.76-.46,1.52-1.01,2.2-1.7.27-.13.52-.26.77-.41,0,.47,0,1,0,1.6v5.34c0,3.16-1.44,5.25-3.1,6.51M445.54,103.94v5.34c0,3.1-1.38,5.17-3.01,6.44v-6.6c0-.67-.01-4.61.07-6.87,1.07-.64,2.12-1.49,2.99-2.62-.04,1.45-.05,3.31-.05,4.3M440.53,92v5.31c0,3.58-1.84,5.8-3.77,6.97.03-.38.04-.76.04-1.18v-9.21c0-.29,0-1.64,0-2.84.74-.38,1.5-.86,2.22-1.45.46-.17,1-.37,1.56-.61,0,.99-.06.98-.06,3.01M440.53,111.25v5.32c0,3.55-1.81,5.75-3.72,6.95v-9.1c0-.38,0-4.74,0-7.21,1.33-.7,2.7-1.65,3.77-3.07-.02,2.08-.05,5.57-.05,7.12M436.36,88.37c.28-.98.44-2.09.44-3.34v-9.78c.67-.35,1.35-.77,2-1.28.62-.16,1.2-.35,1.74-.55-.03.61-.01,1.34-.01,2.44v5.31c0,3.83-2.1,6.09-4.16,7.2M434.8,96.82v5.87c0,3.96-2.44,6.49-4.4,7.38.27-.96.43-2.04.43-3.27v-.13s0,0,0,0c0-.14,0-.26,0-.41v-2.13h0v-3.43c0-1.42-.08-4.12-.04-6.07,1.17-.58,2.4-1.36,3.44-2.47.21-.09.43-.17.67-.26-.06,1.67-.1,3.86-.1,4.9M434.8,117.34v5.87c0,4.2-2.69,6.57-4.36,7.31.38-.5.39-1.68.39-3.71v-5.56c0-.66-.02-4.13-.03-8.46,1.39-.62,2.92-1.53,4.09-3.08-.06,2.86-.09,6.62-.09,7.63M430.78,78.83c1.17-.58,2.41-1.36,3.45-2.48.21-.08.43-.16.66-.25-.05.73-.09,1.61-.09,2.64v5.87c0,4.03-2.32,6.33-4.49,7.37.33-1.03.52-2.22.52-3.59v-5.75c0-1.29-.07-2.58-.05-3.81M424.04,95.47c.39-.5.8-1.88.8-3.91v-9.39c1.06-.53,2.16-1.22,3.13-2.18.29-.11.6-.22.94-.35-.06.75-.1,1.59-.1,2.55v5.78c0,4.21-2.53,6.52-4.78,7.51M428.82,100.27c0,1.1-.1,6.74-.1,7.41,0,2.93-2.68,5.33-4.68,6.2.39-.5.8-1.87.8-3.91v-11.99c1.06-.53,2.16-1.22,3.13-2.17.3-.11.63-.24.99-.38-.1,1.56-.15,3.63-.15,4.84M428.82,120.79v6.69c0,.84-.08,3.3-.09,6.13,0,0,0,0,0,0v4.49c0,2.82-2.68,5.33-4.68,6.19.39-.5.8-1.87.8-3.91v-23.99c1.25-.62,2.55-1.47,3.63-2.7.12-.05.25-.09.38-.15-.03,3.76-.04,6.68-.04,7.25M468.19,25.12h0c-.52.15-3.29.62-3.63.27.61-.32,1.02-.5,2.17-1.23.84.07,1.66.58,2.97,1.37-.73-.3-.81-.55-1.51-.41M540.69,98.85c.57.21,1.07.39,1.46.55-1.58-2.38-1.46-6.24-1.46-7.15v-9.21c.57.22,1.07.39,1.46.55-1.58-2.39-1.46-6.25-1.46-7.16v-21.43c0-5.93-9.06-20.29-16.73-20.49-5.44-.13-11.83,7.52-19.64,5.54-2.51-.65-4.51-3.34-6.16-6.67-2.91-5.95-5.71-13.91-12.8-18.51-7.85-5.09-16.89.6-17.92,1.5-.89.82-2.3,3.26-3.06,3.65-2.45,1.28-2.86,3.43-2.86,4.25s.18,2.79,1.67,3.92c-.21-.97-.26-1.51-.04-2,.98.16,3.13.6,4.52.03.68.68,2.31,1.99,3.02,3.34.99,1.87,1,2.16,1,2.89,0,1.9-.89,4.63-3.6,6.4-2.85,2.03-9.58,3.17-18,.28-4.56-1.56-6.43-4.72-10.51-4.62-7.67.19-16.74,14.56-16.74,20.49v21.43c0,.91.12,4.77-1.46,7.16.4-.16.9-.34,1.46-.55v9.21c0,.91.12,4.77-1.46,7.15.4-.16.9-.33,1.46-.55v11.8c0,.91.12,4.77-1.46,7.16.4-.16.9-.32,1.46-.53v23.79c0,.68.07,3.02-.57,5.16-.21.71.27,1.57,1.02,1.27,3.07-1.22,7.54-3.62,7.54-10.29v-3.76c2.21-.97,4.85-2.68,5.7-6.85,2.5-1.24,5.27-3.4,5.89-7.75,2.56-1.49,5.11-4.07,5.14-9.06,2.23-1.69,3.55-3.67,3.82-5.2.18-1.03.31-3.5.36-6.36,1.61-1.18,2.77-2.51,3.44-3.74-.26,6.19-1.5,14.51-4.41,26.03.51,0,1.2-.12,1.9-.28-.39,2.32-2.36,7.86-3.69,10.37-.18-.01-.37-.01-.58.02-.43.08-.75.49-.96,1.02-.6-.91-1.34-2.39-3.08-1.82-.9.3-1.24,1-1.3,1.76-1.45.91-11.27,7-11.27,7v15.17c14.58,8.63,30.63,13.83,47.96,14.19.56.57,2.1,1.74,2.1,1.74,0,0,1.54-1.17,2.11-1.74,17.32-.36,33.38-5.56,47.96-14.19v-15.17s-10.65-6.61-11.41-7.09c-.09-.72-.43-1.38-1.3-1.67-1.74-.57-2.49.91-3.08,1.82-.21-.53-.53-.94-.97-1.02-.21-.03-.41-.03-.57-.02-1.32-2.51-3.31-8.04-3.69-10.37.71.16,1.39.28,1.9.28-2.91-11.52-4.15-19.84-4.41-26.03.66,1.22,1.82,2.55,3.42,3.72.05,2.86.18,5.34.36,6.37.27,1.53,1.6,3.52,3.83,5.21.03,4.98,2.57,7.57,5.13,9.05.61,4.35,3.38,6.51,5.88,7.75.85,4.17,3.49,5.89,5.7,6.85v3.76c0,6.59,4.37,9.02,7.43,10.25.78.31,1.43-.28,1.23-.86-.75-2.23-.68-4.81-.68-5.54v-23.77c.57.21,1.07.35,1.46.51-1.58-2.39-1.46-6.25-1.46-7.16v-11.8ZM518.74,151.55c-.21.08-.42.16-.63.25-.06-.15-.11-.29-.17-.44.14-.26.28-.53.42-.79.28.1.57.19.85.29.06.15.12.29.18.44-.22.08-.43.17-.65.26M517.74,149.03c-.4.79-.82,1.58-1.24,2.37.11.3.22.59.33.89-.43.16-.86.32-1.3.47-.78-2.18-1.55-4.36-2.33-6.53-.12-.34-.11-.72.32-1-.78-.3-1.55-.62-2.31-.94,1.01,2.97,2.03,5.94,3.04,8.92.13.37.26.75.38,1.12.33-.11.66-.22.99-.34l.31-.11c1.08-.39,2.17-.8,3.25-1.22.64-.25,1.29-.52,1.92-.78-.27-.65-.55-1.31-.82-1.96-.85-.28-1.69-.58-2.53-.88M527.45,148.94c.41-.21.82-.42,1.24-.63-1.25-2.4-2.5-4.8-3.75-7.2-.16-.32-.21-.7.19-1.03-.82-.19-1.64-.39-2.44-.6,1.41,2.81,2.82,5.61,4.23,8.42.18.35.36.71.53,1.06M505.24,77.2s.03.03.02.06c0,.02-.02.04-.04.04l-1.25.28-.27,1.08s-.03.04-.05.04h0s-.04,0-.04-.03l-.62-1-1.25-.03s-.04-.02-.05-.03c0-.02,0-.04,0-.06l.79-.92-.31-1.17s0-.04.02-.06c.02-.01.04-.02.06,0l1.13.5.99-.64s.02,0,.03,0,.02,0,.03,0h0s.02.04.02.06l-.21,1.09,1,.8ZM492.73,90.41l-.55-2.14s-.03-.03-.05-.04c-.02,0-.04,0-.05.02,0,0-1.09,1.58-1.42,2.01-.55-.02-2.47-.16-2.47-.16-.02,0-.04.01-.05.03,0,0,0,.04,0,.06l1.33,1.77c-2.39.91-4.98,1.42-7.69,1.42s-5.47-.54-7.93-1.51l1.26-1.68s.02-.04,0-.06c-.02-.02-.04-.03-.06-.03,0,0-1.93.15-2.47.16-.33-.43-1.42-2.01-1.42-2.01,0-.02-.03-.03-.05-.03-.02,0-.04.02-.05.04l-.51,1.96c-4.39-2.67-7.75-6.85-9.37-11.83l2.01-.05s.04-.02.05-.04c.01-.02,0-.04,0-.06,0,0-1.26-1.42-1.62-1.84.14-.54.67-2.36.67-2.37,0-.02,0-.04-.01-.05-.02-.02-.04-.02-.06-.01l-1.86.83c-.14-1.01-.23-2.04-.23-3.09,0-4.4,1.32-8.49,3.59-11.91l1.23,1.46s.02.02.04.02c0,0,0,0,.01,0,.02,0,.04-.02.04-.04,0,0,.32-1.87.43-2.4.52-.23,2.31-.92,2.32-.93.02,0,.03-.02.04-.05,0-.02-.01-.04-.03-.05l-1.76-.91c3.52-3.74,8.35-6.23,13.75-6.73l-.39,2.01s0,.04.02.05c0,0,.02,0,.03,0,0,0,.02,0,.03,0,0,0,1.67-.96,2.15-1.2.48.24,2.16,1.19,2.16,1.2.02,0,.04,0,.06,0,.02-.01.03-.04.02-.06l-.4-2.03c5.48.42,10.39,2.89,13.97,6.64l-1.97,1.02s-.03.03-.03.05c0,.03.01.04.04.05,0,0,1.8.7,2.31.93.11.52.43,2.4.43,2.4,0,.02.02.04.04.05,0,0,0,0,0,0,.02,0,.04,0,.04-.02l1.4-1.67c2.35,3.46,3.73,7.63,3.73,12.12,0,1.1-.09,2.17-.25,3.22l-2.16-.96s-.05,0-.06,0c-.02.02-.03.04-.02.06,0,0,.53,1.82.68,2.37-.36.42-1.61,1.84-1.62,1.84-.02.02-.02.04,0,.06,0,.02.03.04.05.04l2.32.06c-1.65,5.07-5.12,9.33-9.64,11.99M493.31,91.75s0,.02-.02.02l-.98.53v1.27s0,.04-.02.05h-.03s-.02,0-.03,0l-1-.79-.61.26-.42.17h0s0,0,0,0c-.02,0-.04,0-.05,0,0,0,0-.02,0-.03,0,0-.01-.02,0-.03l.17-.46.23-.63-.31-.42h0l-.43-.57s0-.02,0-.03c0,0,0-.02,0-.03,0,0,.02-.01.03-.02,0,0,.01-.02.02-.02l1.19.03.73-.97s.04-.02.05-.02c.02,0,.04.02.04.03,0,0,0,0,0,0l.18.7.13.5.83.27.28.09s.03.03.04.05c0,.01-.01.02-.02.03M473.48,91.08s0,.02,0,.03l-.43.57-.32.42.17.46.23.63s0,.05-.01.06c0,0,0,0-.01,0,0,0-.03,0-.05,0l-.27-.12-.55-.23s.02,0,.03,0l-.23-.1-.38.3-.62.48s-.02.01-.04.01h-.03s-.03-.03-.03-.05v-1.27s-.97-.53-.97-.53c-.02,0-.03-.03-.03-.06h0s.02-.04.04-.05l.55-.18.56-.18.17-.65.14-.55s.03-.03.04-.04c.02,0,.05,0,.06.02h0l.37.48.37.48,1.18-.03s.04,0,.05.03c0,0,0,.02,0,.03M459.67,78.67s-.02.03-.04.03h0s-.04-.03-.05-.04l-.28-1.08-1.25-.28s-.03-.02-.04-.04c0-.02,0-.04.02-.06l1-.8h0s-.04-.24-.04-.24h0s-.17-.86-.17-.86c0-.01,0-.03,0-.04,0,0,0-.01.01-.02.02,0,.04,0,.06,0l.98.64.61-.27.52-.23s.04,0,.06,0c.02.01.02.04.02.05l-.32,1.17.79.92s.02.04,0,.06c0,.02-.03.03-.05.03l-1.25.03-.62,1ZM462.47,58.63l.67-.89-.56-1.14s0-.04,0-.06c.02-.02.04-.02.05-.02l1.26.29.72-.86s.04-.02.06-.02c.02,0,.03.02.04.05l.09,1.17,1.11.58s.03.03.03.05c0,.02,0,.04-.03.05l-1.09.49-.24,1.19s-.02.04-.04.04h-.01s-.03,0-.04-.02l-.3-.36-.5-.6-1.11.14h-.05s-.05,0-.06-.02c0-.02,0-.04,0-.06M479.88,48.59s.02-.02.04-.02l1.11-.05.55-1.16s.03-.03.05-.03c.02,0,.05.01.05.03l.55,1.16h.1s0,0,0,0l.76.04h0c.09,0,.18,0,.27.01.02,0,.03.02.03.03h0s0,.04,0,.06l-.84.81.24,1.23s0,.04-.03.05c0,0-.02.01-.03.01,0,0-.02,0-.03,0l-1.08-.55-1.07.55s-.04,0-.06,0c-.01-.01-.03-.04-.02-.05l.11-.57.13-.66-.84-.81s-.02-.04,0-.06c0,0,0,0,0-.01M497.99,57.39l.48-.25.09-1.17s.01-.04.04-.04c0,0,.02,0,.03,0,.01,0,.02,0,.03.02l.73.86.1-.03,1.16-.26s.04,0,.06.02c.01.01.01.04,0,.06l-.56,1.14.66.9s.02.04,0,.06c-.01.02-.03.03-.05.03l-1.17-.15-.8.95s-.03.02-.04.02c0,0-.01,0-.02,0-.02,0-.03-.02-.04-.04l-.24-1.19-1.09-.49s-.04-.03-.04-.05,0-.04.03-.05l.63-.33ZM505.46,73.64s0-.04-.02-.05c-.02-.02-.04-.02-.06,0,0,0-.19.14-.45.32.06-.72.11-1.44.11-2.17,0-4.43-1.25-8.56-3.41-12.08.43.08.77.13.77.13.02,0,.04,0,.06-.02.01-.02.01-.04,0-.06,0,0-1.08-1.61-1.4-2.05.25-.5,1-2.16,1-2.16.01-.02,0-.04,0-.06-.01-.02-.04-.02-.05-.02l-2.3.52c-.37-.43-1.66-1.87-1.66-1.87-.02-.02-.04-.02-.06-.02-.02,0-.03.03-.03.05l-.07.87c-3.55-3.41-8.19-5.7-13.33-6.3.4-.36.74-.66.74-.66.02-.01.02-.04.02-.06,0-.02-.03-.03-.05-.03,0,0-1.95-.14-2.49-.16-.23-.49-1.06-2.1-1.06-2.1l-.02-.02s-.03-.01-.05,0c-.01,0-.03.01-.03.03,0,0-.82,1.61-1.05,2.11-.54.03-2.49.16-2.49.16-.03,0-.05.02-.05.04,0,.02,0,.05.02.06,0,0,.36.32.76.69-5.17.68-9.81,3.05-13.34,6.56l-.09-1.16s-.01-.04-.04-.05c-.02,0-.04,0-.06.02,0,0-1.29,1.43-1.66,1.87l-2.29-.52s-.04,0-.05.02c0,.02-.02.04,0,.06,0,0,.75,1.66,1,2.16-.32.44-1.4,2.05-1.4,2.05-.02.02-.02.04,0,.06,0,.02.03.02.06.02,0,0,.53-.09,1.11-.19-2.17,3.54-3.44,7.69-3.44,12.14,0,.81.05,1.62.13,2.41-.43-.3-.79-.56-.79-.56-.02-.02-.04-.02-.06,0-.02.01-.03.03-.02.05,0,0,.27,1.91.37,2.45l-1.86,1.48s-.02.03-.02.06c0,.02.02.03.04.04,0,0,1.78.44,2.32.56.14.53.72,2.37.72,2.37,0,.02.02.04.05.04h0s.04,0,.05-.03c0,0,.23-.41.49-.88,1.73,4.7,4.93,8.69,9.05,11.41-.53.15-1,.28-1,.29-.02,0-.04.03-.04.05,0,.02,0,.04.03.05,0,0,1.7.98,2.17,1.24,0,.32.03,2.37.03,2.37,0,.02.01.04.03.05.01,0,.02,0,.02,0,.01,0,.03,0,.04-.02l1.86-1.45,2.33.98s.04,0,.06,0c.02-.02.02-.04,0-.06,0,0-.18-.44-.38-.95,2.39.84,4.95,1.3,7.62,1.3,2.53,0,4.97-.41,7.25-1.16-.18.45-.33.81-.33.81,0,.02,0,.05.02.06.01.02.04.02.05,0l2.33-.98,1.86,1.46s.02,0,.04,0h.02s.03-.03.03-.05c0,0,.03-2.05.03-2.37.48-.26,2.17-1.24,2.17-1.24.02,0,.03-.03.03-.05,0-.03-.02-.04-.04-.05,0,0-.35-.1-.78-.22,4.06-2.66,7.25-6.55,9.02-11.14.17.31.3.55.3.55,0,.02.03.03.05.03h0s.04-.02.04-.04c0,0,.58-1.84.72-2.37.54-.12,2.32-.56,2.32-.56.02,0,.04-.02.04-.04,0-.02,0-.05-.02-.05l-1.85-1.48c.1-.55.37-2.45.37-2.45M524.26,148.67c.07.14.13.28.2.43-.21.1-.43.2-.64.29-.2.1-.41.19-.62.28-.06-.14-.13-.28-.19-.43.13-.27.25-.54.37-.81.29.08.58.16.88.24M523.06,146.1c-.12.28-.24.55-.37.83-.28-.09-.57-.17-.85-.27-.84-1.86-1.68-3.72-2.52-5.58-.35.85-.72,1.69-1.09,2.54.51-.08.9.14,1.03.46.48,1.11.97,2.23,1.46,3.35.03.07.06.14.1.22.45.14.9.29,1.36.43-.2.43-.4.87-.61,1.3.28.65.57,1.3.85,1.95.64-.28,1.27-.56,1.9-.85.63-.29,1.26-.59,1.88-.9-.31-.64-.62-1.28-.93-1.91-.46-.13-.93-.25-1.38-.38.19-.44.38-.88.56-1.31-.57-1.17-1.14-2.34-1.71-3.51-.15-.31-.07-.74.33-1.08-.88-.26-1.76-.53-2.63-.82.87,1.85,1.74,3.69,2.6,5.54M494.96,149.85c-.69-.46-1.37-.93-2.04-1.4.42,3.52.84,7.02,1.26,10.53.46-.05.91-.11,1.36-.17-.36-2.68-.72-5.37-1.08-8.05-.05-.35.03-.72.5-.9M508.44,147.76c-.1-.34-.07-.72.37-.97-.75-.35-1.51-.7-2.25-1.07.85,3.02,1.7,6.04,2.55,9.07.11.38.21.76.32,1.14.44-.13.87-.25,1.31-.38-.77-2.59-1.54-5.19-2.3-7.79M486.94,157.22c-.29-.46-.57-.92-.85-1.38.13,0,.27,0,.4-.02.01-.34.13-.53.35-.72.23.17.39.35.43.69.13,0,.26-.02.39-.02-.23.48-.47.97-.72,1.45M490.04,150.4c.5.08.66.42.69.77.21,2.3.43,4.61.64,6.91-1.19.11-2.37.2-3.56.26.64-1.29,1.26-2.59,1.85-3.9-.51.04-1.03.08-1.55.11-.22-.4-.85-.83-1.34-.86-.46.08-1.07.57-1.23.98-.52.02-1.03.03-1.55.04.71,1.25,1.45,2.48,2.21,3.71-1.16.05-2.32.07-3.48.08,0-1.18,0-2.36-.02-3.54-.65.59-1.3,1.18-1.97,1.76.4,0,.66.25.66.61,0,.98-.02,1.96-.03,2.94,0,.65-.62,1.18-1.38,1.16-.61-.01-1.11-.36-1.29-.82.18.79,1,1.41,1.99,1.42,1.15.02,2.06-.78,2.05-1.76,0-.19,0-.39,0-.58,1.45,0,2.89-.05,4.33-.12,1.48-.07,2.95-.18,4.42-.31.06,0,.13,0,.19-.02.39-.03.78-.07,1.17-.12-.38-3.52-.74-7.03-1.12-10.54-.55.62-1.11,1.22-1.68,1.82M505.1,152.68c.53-.01.74.3.83.63.18.73.37,1.46.55,2.18-1.96.49-3.92.93-5.9,1.3-.27.05-.53.1-.8.14-.41-.24-.82-.49-1.22-.74.93-.94,1.5-2.61,1.15-4.02-.22,1.95-1.11,3.33-3.29,4.12.99.65,2,1.28,3.03,1.9.45-.08.9-.16,1.35-.25,2.45-.46,4.89-1.02,7.31-1.66-.5-1.89-1.01-3.79-1.51-5.69-.48.7-.98,1.39-1.48,2.08M511.86,150.26c-.44.76-.9,1.53-1.36,2.28.37-.12.7.04.81.38.29.94.58,1.87.87,2.81.19.62-.26,1.32-1,1.54-.58.17-1.16,0-1.47-.4.41.7,1.37,1.04,2.34.75,1.12-.34,1.76-1.38,1.45-2.31-.55-1.68-1.1-3.36-1.64-5.04M465.84,20.53c-.44,0-.79.29-.79.65,0,.32.29.59.66.63-.03-.05-.05-.11-.05-.16,0-.27.33-.48.73-.48.08,0,.16,0,.23.03h0c0-.37-.35-.66-.79-.66"/>
  <g>
    <path class="cls-1" d="M29.1,52.18c-1.8,2.16-2.81,3.24-3.04,3.24-.11,0-.81-.33-2.09-.99-1.28-.66-2.01-1.07-2.2-1.22-.7.62-1.42,1.34-2.16,2.16-.53-.13-1.28-.45-2.24-.97-1.04-.55-1.71-1-2.02-1.36.74-.74,1.75-1.82,3.04-3.24.3.3.94.76,1.92,1.36.98.61,1.61.91,1.92.91.15,0,.55-.32,1.19-.97.64-.64,1.12-1.08,1.42-1.31l4.26,2.39ZM36.89,79.28h-3.55c-1.14,0-1.95-.76-2.44-2.27-.17-.53-.43-1.85-.77-3.95l-.06-.23-.34.06c-.47.28-1.07,1.17-1.79,2.67-.64,1.33-1.31,1.99-1.99,1.99-.87,0-2.33-.29-4.39-.88s-3.58-.88-4.56-.88c0-.91.4-2.39,1.21-4.43.8-2.05,1.52-3.37,2.15-3.98.78-.74,2.03-1.57,3.75-2.5,1.88-1,3.15-1.79,3.83-2.36,0-.23-.09-.54-.27-.94-.18-.4-.27-.7-.27-.91.7-.95,1.69-2.64,2.98-5.08h.06c.3,1.14.8,4.22,1.51,9.26.68,4.85,1.09,7.39,1.22,7.61.3.53.58.84.82.94.11.04.54.06,1.28.06h1.62v5.82ZM29.79,70.67c0-.53-.14-1.64-.43-3.32-.3-1.78-.55-2.77-.74-2.95-.51.4-.88.85-1.11,1.36-.38.81-.62,1.31-.74,1.48-.47.68-1.36,1.3-2.67,1.85-1.4.59-2.18.97-2.33,1.14.66.25,1.96.55,3.89.91,1.44.28,2.79.34,4.06.17l.06-.62Z"/>
    <path class="cls-1" d="M53.93,68.74c.25,1.21.23,2.84-.06,4.89-.17,1.27-.47,3.15-.91,5.65h-16.82v-5.82h14.94l-.11-.45c-1.23-3.03-2.43-5.19-3.61-6.48.4-.57,1.36-2.2,2.9-4.89,1.95,2.23,3.17,4.6,3.67,7.1ZM51.57,87.89c-1.69,2.52-2.74,3.78-3.15,3.78-.13,0-.91-.43-2.33-1.28-.47-.28-1.19-.71-2.16-1.28,0,.09-.36.49-1.08,1.18-.72.69-1.12,1.11-1.19,1.26-.55-.19-1.33-.58-2.36-1.16-1.12-.62-1.82-1.11-2.1-1.45.81-.85,1.89-2.09,3.24-3.72.28.32.94.8,1.96,1.45,1.06.7,1.75,1.05,2.07,1.05.11,0,.54-.41,1.26-1.22.73-.81,1.18-1.26,1.35-1.33l4.49,2.73Z"/>
    <path class="cls-1" d="M75.69,79.28h-2.33c-.66,2.48-1.94,4.92-3.83,7.33-2.22,2.8-4.37,4.18-6.45,4.12-.99-.02-3.1-.69-6.33-2.02-3.35-1.36-5.03-2.32-5.03-2.87,0-.38.2-.57.6-.57s1.16.22,2.33.65,2.08.66,2.73.68c2.14.06,4.56-.69,7.27-2.24,2.63-1.53,4.54-3.23,5.71-5.08h-.71c-5.97,0-8.95-1.46-8.95-4.37,0-1.17.76-3.36,2.27-6.56,1.82-3.88,3.64-5.82,5.45-5.82,1.59,0,3.01,1.67,4.26,5,.93,2.52,1.39,4.37,1.39,5.54v.4h1.62v5.82ZM69.7,72.46v-.17c-.78-2.71-1.88-4.06-3.29-4.06-.95,0-1.81.74-2.58,2.22v.06c0,.87.47,1.56,1.42,2.07.78.44,1.65.65,2.61.65,1.04,0,1.66-.26,1.85-.77Z"/>
    <path class="cls-1" d="M93.73,79.28h-3.24c-1.34,0-2.38-.52-3.1-1.56-.17-.26-.46-.97-.85-2.1-.55,1-1.23,2.23-2.04,3.66h-9.66v-5.82h11.11c.23-.49.38-2.06.45-4.72.11-.21.69-.95,1.72-2.22s1.68-2.04,1.95-2.3c.21,1.76.08,3.95-.4,6.56-.13.72.11,1.35.74,1.9.57.51,1.21.77,1.93.77h1.39v5.82ZM89.33,56.13c0,.23-.62.83-1.85,1.8-1.23.98-2,1.46-2.3,1.46-.27,0-1.02-.49-2.26-1.48-1.24-.98-1.86-1.58-1.86-1.79,0-.25.62-.94,1.86-2.07s1.99-1.7,2.26-1.7c.11,0,.83.61,2.16,1.82,1.33,1.21,1.99,1.87,1.99,1.96Z"/>
    <path class="cls-1" d="M127.08,79.28h-2.95l-.48-1.79c-.45,1-.72,1.6-.79,1.79h-7.81c-.06-.09-.21-.37-.45-.82-.23-.4-.39-.61-.48-.62-.09,0-.28.17-.57.51-.21.27-.48.58-.82.94h-10c-.62-.04-1.09-.72-1.39-2.05l-.37.37c-1.12,1.12-1.95,1.68-2.5,1.68h-5.57v-5.82h7.33c1.12,0,1.68-1.2,1.68-3.61.7-.93,1.98-2.56,3.83-4.89,0,1.16-.28,2.63-.85,4.43-.36,1.08-.77,2.12-1.22,3.12l.06.14c.28.57,2.16.85,5.62.85,1.59,0,3.12-.06,4.6-.17.08-.97.29-2.09.65-3.38.93-1.55,2.13-2.98,3.61-4.29-1.06,3.52-1.59,5.85-1.59,6.99,0,.3.04.53.11.68v.11h5.48c-.23-.97-.48-2.21-.77-3.72,0-.23.52-1.06,1.56-2.5,1-1.34,1.67-2.18,1.99-2.5v6.82c0,.93-.02,1.56-.06,1.9h2.16v5.82Z"/>
    <path class="cls-1" d="M142.96,56.69c-.3.44-1.02,1.4-2.16,2.9l-2.02,2.58.06.06c0,.78.37,3.84,1.11,9.2.13.89-.03,2.13-.48,3.72-.49,1.76-.74,2.92-.74,3.47.02.06.03.11.03.17,0,.32-.63.48-1.9.48h-10.74v-5.82h10.17c.15-.15.23-.54.23-1.17,0-1.55-.41-3.99-1.22-7.31s-1.22-5.57-1.22-6.75l-.06-.11-1.99-1.48c1.69-3.33,2.93-5.48,3.75-6.45,0,1.33.36,2.27,1.08,2.84,1.63,1.06,3.66,2.28,6.11,3.66Z"/>
    <path class="cls-1" d="M154.49,70.67c0,4.07-.97,7.42-2.9,10.06l-2.56-22.55c0-.55,1.32-2.86,3.95-6.93,1,5.78,1.5,12.25,1.5,19.43Z"/>
    <path class="cls-1" d="M199.94,68.68c0,.97-.22,2.58-.65,4.83-.57,1.63-1.36,3.55-2.39,5.77h-21.39c-1.7,0-3.25-.54-4.63-1.62-1.5-1.14-2.24-2.54-2.24-4.2,0-1.27.34-3.26,1.02-5.97.78-3.16,1.54-4.74,2.3-4.74.26,0,.28.64.06,1.93-.3,1.78-.45,3.06-.45,3.83,0,1.16.23,2.01.68,2.56,1.33,1.59,3.13,2.39,5.43,2.39h18.44c.23-.19.34-.5.34-.94,0-.3-.23-1.12-.68-2.44-.47-.78-1.04-1.7-1.7-2.78l2.98-5.17c1.93,2.41,2.9,4.59,2.9,6.56ZM191.39,55.59c-1.67,2.18-2.68,3.27-3.04,3.27-.11,0-.84-.37-2.17-1.11-1.33-.74-2.02-1.11-2.06-1.11-.66.62-1.36,1.34-2.1,2.16-.47-.13-1.22-.46-2.24-.99-1.02-.53-1.69-.96-1.99-1.28.74-.78,1.76-1.84,3.07-3.18.28.32.9.76,1.85,1.31s1.59.82,1.93.82c.15,0,.55-.32,1.19-.97.72-.7,1.16-1.09,1.31-1.17l4.26,2.24Z"/>
    <path class="cls-1" d="M213.95,79.28h-7.67l-2.27-25.25,3.72-4.49c.11,1.65.5,5.88,1.17,12.7l1.02,9.89c.23.89.9,1.34,2.02,1.34h2.02v5.82Z"/>
    <path class="cls-1" d="M218.21,79.28h-5.43v-5.82h5.43v5.82Z"/>
    <path class="cls-1" d="M221.87,79.28h-5.43v-5.82h5.43v5.82Z"/>
    <path class="cls-1" d="M225.54,79.28h-5.43v-5.82h5.43v5.82Z"/>
    <path class="cls-1" d="M251.19,73.06c-.93,1.59-2.11,3.66-3.55,6.22h-23.44v-5.82h4.66v-1.11c0-.45-.02-.88-.06-1.28,0-1.23.56-2.47,1.68-3.72.3-.66,1.39-1.87,3.27-3.61,2.42-2.25,4.42-3.38,5.99-3.38,2.18,0,4.23,1.27,6.16,3.81,1.46,1.89,2.19,3.35,2.19,4.37,0,.21-.04.4-.11.57-.02.06-.26-.14-.74-.6-.68-.66-1.55-1.2-2.61-1.62-1.55-.62-3.38-.94-5.48-.94-1.65,0-3.22.27-4.72.82-1.12.4-1.68.68-1.68.85,0,.49.77,1.49,2.3,2.98,1.27,1.23,2.28,2.12,3.04,2.67.28.19.75.28,1.39.28,1.31,0,3.26-.08,5.85-.26s4.54-.26,5.85-.26Z"/>
    <path class="cls-1" d="M265.67,79.28h-7.67l-2.27-25.25,3.72-4.49c.11,1.65.5,5.88,1.17,12.7l1.02,9.89c.23.89.9,1.34,2.02,1.34h2.02v5.82Z"/>
    <path class="cls-1" d="M269.94,79.28h-5.43v-5.82h5.43v5.82Z"/>
    <path class="cls-1" d="M296.3,79.28h-4.21c-.53,0-.96.52-1.28,1.55-.32,1.03-.62,1.55-.88,1.55-.34,0-1.82-.73-4.43-2.19l-7.78-4.35c-.3.23-.75.97-1.33,2.22-.38.81-1.23,1.22-2.56,1.22h-5.23v-5.82h7.73c.72,0,1.27-.39,1.65-1.17.72-1.51,1.32-2.59,1.79-3.24.81-1.12,2.15-2.25,4.01-3.41,1.99-1.23,3.6-1.85,4.83-1.85,1.02,0,1.57.37,1.65,1.11.04.57.11,1.42.23,2.56v.06c1.74,3.96,3.17,5.94,4.29,5.94h1.53v5.82ZM289.42,74.28c0-1.14-.19-2.21-.57-3.21-.53-1.31-1.29-1.96-2.27-1.96-1.88,0-3.26.34-4.15,1.02l-.79.65c.4.28,1.36.86,2.9,1.73.47.28,1.18.7,2.13,1.24.95.54,1.69.75,2.24.64l.51-.11Z"/>
    <path class="cls-1" d="M300.3,79.28h-5.43v-5.82h5.43v5.82Z"/>
    <path class="cls-1" d="M318.51,79.28h-2.78c-2.25,0-3.67-1.28-4.26-3.83l-2.16,3.83h-10.34v-5.82h11.82l.11-.17c.34-.7.53-2.5.57-5.4l3.44-4.15c0,2.25-.15,4.38-.45,6.39-.15.93.15,1.72.91,2.39.7.62,1.5.94,2.39.94h.77v5.82ZM315.96,54.68c-1.82,2.41-2.94,3.61-3.38,3.61.15,0-1.4-.81-4.66-2.44-.78.7-1.57,1.48-2.39,2.33-.53-.13-1.35-.49-2.47-1.08-1.21-.61-1.94-1.08-2.19-1.42.81-.81,1.94-1.98,3.38-3.49.3.32.98.8,2.03,1.43,1.05.63,1.76.95,2.12.95.15,0,.61-.38,1.38-1.14.77-.76,1.25-1.17,1.46-1.25l4.71,2.5Z"/>
    <path class="cls-1" d="M352.26,71.24c-.93,1.33-2.11,2.97-3.55,4.94-1.04,0-2.62-.1-4.74-.31s-3.72-.31-4.8-.31c-1.25,0-3.07.62-5.47,1.86-2.4,1.24-4.08,1.86-5.04,1.86h-10.54v-5.82h11.28c1.86,0,3.83-.35,5.94-1.05l1.45-.8c-3.88-2.06-6.75-3.1-8.61-3.1-.76,0-1.52.17-2.27.51-.85.36-1.47.56-1.85.6-.08,0-.11-.04-.11-.11,0-.61.83-1.81,2.5-3.61,1.8-1.93,3.29-2.9,4.46-2.9,1.88,0,3.87.6,5.99,1.79,3.71,2.1,5.83,3.27,6.36,3.49,3.64,1.63,6.64,2.61,9,2.95ZM341.78,85.98c0-.08-.02-.12-.06-.14-.25,0-.97.67-2.16,2.02-1.27,1.42-1.98,2.17-2.13,2.24-.47-.23-2.28-1.26-5.43-3.1l4.2-4.12,2.56,1.53c1.7,1.04,2.71,1.56,3.01,1.56Z"/>
    <path class="cls-1" d="M385.24,53.29c-.3.53-1.35,2.2-3.15,5-.51,0-.87-.06-1.08-.17-.4-.21-.65-.33-.77-.37,0,1.95-.43,3.89-1.28,5.82-.97,2.16-1.69,3.48-2.16,3.95l.91,1.9c.59,1.23.95,2.31,1.08,3.24.08.55.11,1.11.11,1.68,0,.89-.08,1.94-.23,3.15l-.26,1.79h-15.06c-.89,0-1.33-1.2-1.33-3.61,0-.8.07-1.73.2-2.81.15-1.27.31-1.9.48-1.9.02,0,.28.37.78,1.11s1.22,1.11,2.14,1.11c.59,0,1.27-.26,2.05-.77.74-.61,1.37-1.09,1.9-1.45,1.42-.97,2.45-1.86,3.1-2.67,0-.36-1.07-1.68-3.21-3.95-1.63-1.74-2.74-2.61-3.32-2.61-.08,0-.2.28-.38.84s-.4.84-.67.84c-.17-.17-.79-.62-1.85-1.33-1.34-.93-2.6-1.63-3.78-2.1-1.33-.53-1.99-1.71-1.99-3.55,0-1.31.64-3.38,1.93-6.22,1.51.04,4.48,2.02,8.89,5.94,1.46,1.29,2.9,2.92,4.32,4.89.57.83,1.42,2.07,2.56,3.72,1-1.63,1.51-4.03,1.51-7.22,0-1.06-.24-1.96-.72-2.71s-.72-1.1-.72-1.07c.04-.15,1.43-2.32,4.18-6.51.11,1.5.78,2.65,1.99,3.47,2.56,1.4,3.83,2.26,3.83,2.58ZM375.52,73.57c-.19-1.08-.75-2.28-1.68-3.61-.99,1.33-2.21,2.49-3.67,3.49.3.17,1.14.27,2.5.28,1.23.02,2.18-.04,2.84-.17Z"/>
    <path class="cls-1" d="M395.64,70.67c0,4.07-.97,7.42-2.9,10.06l-2.56-22.55c0-.55,1.32-2.86,3.95-6.93,1,5.78,1.5,12.25,1.5,19.43Z"/>
    <path class="cls-1" d="M46.79,116.68c0,.97-.22,2.58-.65,4.83-.57,1.63-1.36,3.55-2.39,5.77h-21.39c-1.7,0-3.25-.54-4.63-1.62-1.5-1.14-2.24-2.54-2.24-4.2,0-1.27.34-3.26,1.02-5.97.78-3.16,1.54-4.74,2.3-4.74.26,0,.28.64.06,1.93-.3,1.78-.45,3.06-.45,3.83,0,1.16.23,2.01.68,2.56,1.33,1.59,3.13,2.39,5.43,2.39h18.44c.23-.19.34-.5.34-.94,0-.3-.23-1.12-.68-2.44-.47-.78-1.04-1.7-1.7-2.78l2.98-5.17c1.93,2.41,2.9,4.59,2.9,6.56ZM38.24,103.59c-1.67,2.18-2.68,3.27-3.04,3.27-.11,0-.84-.37-2.17-1.11-1.33-.74-2.02-1.11-2.06-1.11-.66.62-1.36,1.34-2.1,2.16-.47-.13-1.22-.46-2.24-.99-1.02-.53-1.69-.96-1.99-1.28.74-.78,1.76-1.84,3.07-3.18.28.32.9.76,1.85,1.31s1.59.82,1.93.82c.15,0,.55-.32,1.19-.97.72-.7,1.16-1.09,1.31-1.17l4.26,2.24Z"/>
    <path class="cls-1" d="M56.96,118.67c0,4.07-.97,7.42-2.9,10.06l-2.56-22.55c0-.55,1.32-2.86,3.95-6.93,1,5.78,1.5,12.25,1.5,19.43Z"/>
    <path class="cls-1" d="M74.31,123.44c0,3.39-1.13,6.96-3.38,10.71-2.01,3.33-4.22,5-6.65,5-1.1,0-3.38-.64-6.85-1.93-3.62-1.34-5.42-2.33-5.42-2.95,0-.32.16-.48.48-.48.42,0,1.42.28,3,.85s2.83.85,3.74.85c1.84,0,4.36-1.39,7.56-4.18,3.28-2.82,4.91-5.11,4.91-6.88,0-.76-.8-1.92-2.39-3.49-1.16-1.14-2.22-2.07-3.21-2.81.27-.57.93-2.5,1.99-5.79,1.34.72,2.6,1.88,3.78,3.49,1.63,2.25,2.44,4.79,2.44,7.61Z"/>
    <path class="cls-1" d="M88.6,127.28h-7.67l-2.27-25.25,3.72-4.49c.11,1.65.5,5.88,1.17,12.7l1.02,9.89c.23.89.9,1.34,2.02,1.34h2.02v5.82Z"/>
    <path class="cls-1" d="M113.46,120.89c0,.15-.53,1.1-1.59,2.85s-1.7,2.71-1.9,2.88l-10.48-3.78c-.53.11-1.16.92-1.9,2.42-.7,1.42-1.33,2.09-1.88,2.02h-7.9v-5.82h9.43l.06-.17c.42-.97,1.09-2.4,2.02-4.29,1.33-2.44,3.27-4.29,5.82-5.54.13,0,.77-.25,1.92-.75,1.15-.5,2.02-.75,2.63-.75s.94.15,1.05.45c.11.55.32,1.36.62,2.44.3.89.75,2.21,1.34,3.95.51,1.55.77,2.92.77,4.09ZM108.57,119.78c-.38-1.02-.71-1.86-.99-2.53-.59-1.27-1.03-1.92-1.33-1.96-.81,0-1.63.2-2.44.6-.44.27-.86.51-1.28.74l-.6.43,6.65,2.73Z"/>
    <path class="cls-1" d="M146.09,101.29c-.3.53-1.35,2.2-3.15,5-.51,0-.87-.06-1.08-.17-.4-.21-.65-.33-.77-.37,0,1.95-.43,3.89-1.28,5.82-.97,2.16-1.69,3.48-2.16,3.95l.91,1.9c.59,1.23.95,2.31,1.08,3.24.08.55.11,1.11.11,1.68,0,.89-.08,1.94-.23,3.15l-.26,1.79h-15.06c-.89,0-1.33-1.2-1.33-3.61,0-.79.07-1.73.2-2.81.15-1.27.31-1.9.48-1.9.02,0,.28.37.78,1.11s1.22,1.11,2.14,1.11c.59,0,1.27-.26,2.05-.77.74-.61,1.37-1.09,1.9-1.45,1.42-.97,2.45-1.86,3.1-2.67,0-.36-1.07-1.68-3.21-3.95-1.63-1.74-2.74-2.61-3.32-2.61-.08,0-.2.28-.38.84s-.4.84-.67.84c-.17-.17-.79-.62-1.85-1.33-1.34-.93-2.6-1.63-3.78-2.1-1.33-.53-1.99-1.71-1.99-3.55,0-1.31.64-3.38,1.93-6.22,1.51.04,4.48,2.02,8.89,5.94,1.46,1.29,2.9,2.92,4.32,4.89.57.83,1.42,2.07,2.56,3.72,1-1.63,1.51-4.03,1.51-7.22,0-1.06-.24-1.96-.72-2.71s-.72-1.1-.72-1.07c.04-.15,1.43-2.32,4.18-6.51.11,1.5.78,2.65,1.99,3.47,2.56,1.4,3.83,2.26,3.83,2.58ZM130.98,136.34c-.21.55-.79,1.39-1.76,2.53-.17-.02-.35-.03-.54-.03-2.01,0-4.68,1.15-8.01,3.44.47-1.38,1.64-2.5,3.49-3.35-.15-.11-.87-.35-2.16-.71-1.02-.28-1.52-.65-1.5-1.11.02-1.34.52-2.66,1.5-3.95,1.17-1.55,2.67-2.33,4.49-2.33h.06c.32,0,.69.19,1.11.57.42.38.62.73.62,1.05-.3.55-.75,1.29-1.33,2.22l-1.19-.97c-.4-.32-.78-.48-1.14-.48-.45,0-1.23.46-2.33,1.39.76.87,1.87,1.35,3.32,1.45,1.38.09,3.17.19,5.37.28ZM136.38,121.57c-.19-1.08-.75-2.28-1.68-3.61-.99,1.33-2.21,2.49-3.67,3.49.3.17,1.14.27,2.5.28,1.23.02,2.18-.04,2.84-.17Z"/>
    <path class="cls-1" d="M156.49,118.67c0,4.07-.97,7.42-2.9,10.06l-2.56-22.55c0-.55,1.32-2.86,3.95-6.93,1,5.78,1.5,12.25,1.5,19.43Z"/>
    <path class="cls-1" d="M183.28,100.18c-1.8,2.16-2.81,3.24-3.04,3.24-.11,0-.81-.33-2.09-.99-1.28-.66-2.01-1.07-2.2-1.22-.7.62-1.42,1.34-2.16,2.16-.53-.13-1.28-.45-2.24-.97-1.04-.55-1.71-1-2.02-1.36.74-.74,1.75-1.82,3.04-3.24.3.3.94.76,1.92,1.36.98.61,1.61.91,1.92.91.15,0,.55-.32,1.19-.97.64-.64,1.12-1.08,1.42-1.31l4.26,2.39ZM191.06,127.28h-3.55c-1.14,0-1.95-.76-2.44-2.27-.17-.53-.43-1.85-.77-3.95l-.06-.23-.34.06c-.47.28-1.07,1.17-1.79,2.67-.64,1.33-1.31,1.99-1.99,1.99-.87,0-2.33-.29-4.39-.88s-3.58-.88-4.56-.88c0-.91.4-2.39,1.21-4.43.8-2.05,1.52-3.37,2.15-3.98.78-.74,2.03-1.57,3.75-2.5,1.88-1,3.15-1.79,3.83-2.36,0-.23-.09-.54-.27-.94-.18-.4-.27-.7-.27-.91.7-.95,1.69-2.64,2.98-5.08h.06c.3,1.14.8,4.22,1.51,9.26.68,4.85,1.09,7.39,1.22,7.61.3.53.58.84.82.94.11.04.54.06,1.28.06h1.62v5.82ZM183.96,118.67c0-.53-.14-1.64-.43-3.32-.3-1.78-.55-2.77-.74-2.95-.51.4-.88.85-1.11,1.36-.38.81-.62,1.31-.74,1.48-.47.68-1.36,1.3-2.67,1.85-1.4.59-2.18.97-2.33,1.14.66.25,1.96.55,3.89.91,1.44.28,2.79.34,4.06.17l.06-.62Z"/>
    <path class="cls-1" d="M206.89,104.69c-.3.44-1.02,1.4-2.16,2.9l-2.02,2.58.06.06c0,.78.37,3.84,1.11,9.2.13.89-.03,2.13-.48,3.72-.49,1.76-.74,2.92-.74,3.47.02.06.03.11.03.17,0,.32-.63.48-1.9.48h-10.74v-5.82h10.17c.15-.15.23-.54.23-1.17,0-1.55-.41-3.99-1.22-7.31s-1.22-5.57-1.22-6.75l-.06-.11-1.99-1.48c1.69-3.33,2.93-5.48,3.75-6.45,0,1.33.36,2.27,1.08,2.84,1.63,1.06,3.66,2.28,6.11,3.66Z"/>
    <path class="cls-1" d="M227.03,120.89c0,4.03-.97,7.94-2.9,11.73-2.25,4.43-5.03,6.65-8.32,6.65-1.25,0-3.57-.43-6.96-1.28-3.58-.89-5.37-1.59-5.37-2.1,0-.42.26-.62.77-.62s1.44.16,2.73.48c1.29.32,2.27.48,2.95.48.97,0,1.84-.17,2.61-.51,2.5-1.12,4.94-2.72,7.33-4.8,2.88-2.54,4.45-4.88,4.72-7.02.08-.59-.1-1.53-.51-2.84-.7,1.99-1.38,3.32-2.04,4-.93.97-2.3,1.45-4.12,1.45s-3.02-.71-3.55-2.13c-.27-.74-.4-2.1-.4-4.09,0-1.36.83-3.32,2.5-5.88,1.82-2.78,3.48-4.18,5-4.18s2.93,1.44,4.12,4.32c.97,2.39,1.45,4.5,1.45,6.33ZM222.45,120.01v-.28c0-.87-.29-1.64-.88-2.31s-1.31-1.01-2.16-1.01c-.62,0-1.35.29-2.19.88-.83.59-1.25,1.18-1.25,1.79,0,.44.48.84,1.45,1.22.91.36,1.69.54,2.33.54.47,0,1.37-.27,2.7-.82Z"/>
    <path class="cls-1" d="M245.72,118.96c0,5.79-.65,8.59-1.96,8.38h-13.52c.13-1.4.33-3.36.6-5.88h11.82v-.4c0-.98-.42-2.09-1.25-3.32-.76-1.16-1.58-2.01-2.47-2.56-.81-.49-1.81-1.01-2.98-1.56.36-1.67.84-3.72,1.45-6.16,2.1,1,3.87,2.38,5.31,4.12,2.01,2.46,3.01,4.91,3.01,7.33v.06Z"/>
    <path class="cls-1" d="M270.89,100.18c-1.8,2.16-2.81,3.24-3.04,3.24-.11,0-.81-.33-2.09-.99-1.28-.66-2.01-1.07-2.2-1.22-.7.62-1.42,1.34-2.16,2.16-.53-.13-1.28-.45-2.24-.97-1.04-.55-1.71-1-2.02-1.36.74-.74,1.75-1.82,3.04-3.24.3.3.94.76,1.92,1.36.98.61,1.61.91,1.92.91.15,0,.55-.32,1.19-.97.64-.64,1.12-1.08,1.42-1.31l4.26,2.39ZM278.67,127.28h-3.55c-1.14,0-1.95-.76-2.44-2.27-.17-.53-.43-1.85-.77-3.95l-.06-.23-.34.06c-.47.28-1.07,1.17-1.79,2.67-.64,1.33-1.31,1.99-1.99,1.99-.87,0-2.33-.29-4.39-.88s-3.58-.88-4.56-.88c0-.91.4-2.39,1.21-4.43.8-2.05,1.52-3.37,2.15-3.98.78-.74,2.03-1.57,3.75-2.5,1.88-1,3.15-1.79,3.83-2.36,0-.23-.09-.54-.27-.94-.18-.4-.27-.7-.27-.91.7-.95,1.69-2.64,2.98-5.08h.06c.3,1.14.8,4.22,1.51,9.26.68,4.85,1.09,7.39,1.22,7.61.3.53.58.84.82.94.11.04.54.06,1.28.06h1.62v5.82ZM271.57,118.67c0-.53-.14-1.64-.43-3.32-.3-1.78-.55-2.77-.74-2.95-.51.4-.88.85-1.11,1.36-.38.81-.62,1.31-.74,1.48-.47.68-1.36,1.3-2.67,1.85-1.4.59-2.18.97-2.33,1.14.66.25,1.96.55,3.89.91,1.44.28,2.79.34,4.06.17l.06-.62Z"/>
    <path class="cls-1" d="M303.53,120.89c0,.15-.53,1.1-1.59,2.85s-1.7,2.71-1.9,2.88l-10.48-3.78c-.53.11-1.16.92-1.9,2.42-.7,1.42-1.33,2.09-1.88,2.02h-7.9v-5.82h9.43l.06-.17c.42-.97,1.09-2.4,2.02-4.29,1.33-2.44,3.27-4.29,5.82-5.54.13,0,.77-.25,1.92-.75,1.15-.5,2.02-.75,2.63-.75s.94.15,1.05.45c.11.55.32,1.36.62,2.44.3.89.75,2.21,1.34,3.95.51,1.55.77,2.92.77,4.09ZM298.64,119.78c-.38-1.02-.71-1.86-.99-2.53-.59-1.27-1.03-1.92-1.33-1.96-.81,0-1.63.2-2.44.6-.44.27-.86.51-1.28.74l-.6.43,6.65,2.73Z"/>
    <path class="cls-1" d="M325.4,127.28h-2.33c-.66,2.48-1.94,4.92-3.83,7.33-2.22,2.8-4.37,4.18-6.45,4.12-.99-.02-3.1-.69-6.33-2.02-3.35-1.36-5.03-2.32-5.03-2.87,0-.38.2-.57.6-.57s1.16.22,2.33.65,2.08.66,2.73.68c2.14.06,4.56-.69,7.27-2.24,2.63-1.53,4.54-3.23,5.71-5.08h-.71c-5.97,0-8.95-1.46-8.95-4.37,0-1.17.76-3.36,2.27-6.56,1.82-3.88,3.64-5.82,5.45-5.82,1.59,0,3.01,1.67,4.26,5,.93,2.52,1.39,4.37,1.39,5.54v.4h1.62v5.82ZM319.4,120.46v-.17c-.78-2.71-1.88-4.06-3.29-4.06-.95,0-1.81.74-2.58,2.22v.06c0,.87.47,1.56,1.42,2.07.78.44,1.65.65,2.61.65,1.04,0,1.66-.26,1.85-.77Z"/>
    <path class="cls-1" d="M347.75,127.28h-4.01c-.59-.59-2.04-2.06-4.37-4.43-.78,1.14-1.82,2.61-3.12,4.43h-12.3v-5.82h13.04c.44,0,.63-.21.6-.62l-10.37-9.54c.15-.28.44-1.21.87-2.78.43-1.57.95-3.09,1.58-4.54,4.3-1.4,9.71-3.03,16.22-4.89l-1.22,5.4c-1,.28-5.52,1.49-13.55,3.61l14.09,13.38h2.56v5.82Z"/>
    <path class="cls-1" d="M397.21,104.75c-.23.28-1.6,2.11-4.12,5.48,0,.74.37,3.81,1.11,9.2.09.8-.07,2.09-.48,3.89-.15.72-.4,1.82-.74,3.29-.06.44-.68.65-1.88.65h-14.6l-.62-4.37c-.87-.11-3.12-.17-6.76-.17-1.1,0-2.93.76-5.5,2.27-2.57,1.52-4.4,2.27-5.5,2.27h-10.99v-5.82h12.1c1.12,0,2.57-.35,4.35-1.05,1.67-.64,2.5-1.09,2.5-1.33-.74-.34-2.09-.84-4.06-1.51-2.37-.81-3.84-1.2-4.43-1.16-.51.04-1.25.33-2.2.87-.96.54-1.71.81-2.26.81-.15,0,.08-.58.68-1.73.66-1.25,1.46-2.36,2.39-3.32,1.34-1.38,2.76-2.07,4.26-2.07,1.65,0,3.47.48,5.45,1.45,3.37,1.61,5.59,2.56,6.65,2.84,3.73,1,6.64,1.51,8.72,1.51-.44,1.36-.94,2.94-1.51,4.72h10.77c.15-.15.23-.54.23-1.17,0-1.55-.41-3.99-1.22-7.31s-1.22-5.57-1.22-6.75c-.55-.44-1.21-.97-1.99-1.59,1.74-3.45,2.98-5.6,3.72-6.45,0,1.36.35,2.31,1.05,2.84,1.63,1.06,3.67,2.28,6.11,3.66v.06Z"/>
    <path class="cls-1" d="M156.26,172.51c7.1-7.43,10.25-11.84,10.25-16.4,0-2.68-1.36-4.7-4.28-4.7-2.02,0-4.09,1.36-4.79,1.93-.94.71-1.5.61-1.97-.38-.28-.52-.38-1.17-.42-1.65,2.21-2.87,5.69-4.32,9.17-4.32,5.31,0,8.18,3.67,8.18,8.27,0,2.54-.8,4.51-2.26,6.86-1.41,2.26-4.04,5.36-7.75,9.02,2.21.24,7.9.14,12.22,0-.33,1.69-1.64,3.38-2.35,3.67-.52.33-2.11.61-4.65.61-5.36,0-9.59,0-11.98-.47l-.24-.42.89-2.02Z"/>
    <path class="cls-1" d="M193.35,146.99c8.46,0,9.63,9.16,9.63,14.15,0,9.78-3.81,14.71-10.25,14.71-4.93,0-9.92-3.34-9.92-14.29,0-6.72,2.58-14.57,10.48-14.57h.05ZM192.88,150.46c-2.68,0-4.18,4.28-4.18,10.72,0,8.93,2.44,11.18,4.42,11.18,1.69,0,4.04-1.36,4.04-11.33,0-7.28-1.65-10.57-4.23-10.57h-.05Z"/>
    <path class="cls-1" d="M212.38,172.51c7.1-7.43,10.25-11.84,10.25-16.4,0-2.68-1.36-4.7-4.28-4.7-2.02,0-4.09,1.36-4.79,1.93-.94.71-1.5.61-1.97-.38-.28-.52-.38-1.17-.42-1.65,2.21-2.87,5.69-4.32,9.17-4.32,5.31,0,8.18,3.67,8.18,8.27,0,2.54-.8,4.51-2.26,6.86-1.41,2.26-4.04,5.36-7.75,9.02,2.21.24,7.9.14,12.22,0-.33,1.69-1.64,3.38-2.35,3.67-.52.33-2.12.61-4.65.61-5.36,0-9.59,0-11.98-.47l-.24-.42.89-2.02Z"/>
    <path class="cls-1" d="M256.65,146.37c-4.14,4.93-9.07,11.19-12.83,17.86,1.79.23,4.23.38,6.67.33l.19-6.25c.94-.61,3.85-1.36,5.26-1.5l.19.19v7.61c.61,0,2.3-.14,3.38-.19l.05.09c-.33,1.5-.8,2.63-1.41,3.34-.75.33-1.46.38-2.02.47v5.83c0,.75-.52.99-1.36,1.13-1.41.24-3.81.28-4.61.28.14-2.3.28-5.64.28-7.19-3.52,0-8.65-.33-10.48-.66-.38-.24-1.5-1.83-1.5-2.68,2.4-4.46,9.59-14.52,11.94-16.97,1.69-1.03,4.51-1.79,6.11-2.02l.14.33Z"/>
  </g>
</svg>