<?xml version="1.0" encoding="UTF-8"?>
<svg id="Layer_1" data-name="Layer 1" xmlns="http://www.w3.org/2000/svg" viewBox="0 0 499.14 127.6">
  <defs>
    <style>
      .cls-1 {
        fill: #db2b3f;
      }

      .cls-2 {
        fill: #757b7f;
      }

      .cls-3 {
        fill: #159c53;
      }
    </style>
  </defs>
  <path class="cls-1" d="M449.17,75.53c.33-.83.75-1.66,1.16-2.5-14.14-9.9-26.37-29.11-28.7-37.68-5.16,4.16-5.24,14.81-5.24,14.81,13.64,18.47,28.2,23.96,32.77,25.37"/>
  <path class="cls-3" d="M447.51,80.77c.17-.75.33-1.5.58-2.16-13.97-4.57-28.78-17.55-32.77-24.04-3.24,4.66-.75,13.39-.75,13.39,15.72,11.89,29.11,12.81,32.94,12.81"/>
  <path class="cls-1" d="M452.08,70.12c.58-.91,1.25-1.75,1.91-2.58-12.23-15.72-19.21-41.01-18.8-51.32-7.15,2.83-10.9,14.64-10.9,14.64,8.9,25.29,23.29,36.35,27.78,39.26"/>
  <path class="cls-1" d="M459.99,62.14c-8.4-21.04-8.07-50.99-4.41-62.14-8.73.83-16.47,12.56-16.47,12.56,1.75,30.69,14.14,47.25,18.05,51.74.91-.75,1.83-1.5,2.83-2.16"/>
  <path d="M450.09,104.06c-3.58,4.33-9.98,7.9-12.89,8.4,1.25,1.83,4.82,2.08,4.82,2.08,5.32-3.41,7.65-7.15,8.65-9.23l-.58-1.25"/>
  <path d="M447.51,95.91c-8.65,3.58-21.29,3.41-25.95,1.83.33,3.58,5.07,6.82,5.07,6.82,12.39-.58,19.21-5.57,21.21-7.24l-.33-1.41"/>
  <path class="cls-3" d="M446.76,86.42c0-.75.08-1.41.17-2.16-12.81-.83-28.03-8.32-32.86-12.89-1.66,4.66,2.41,11.48,2.41,11.48,15.22,6.24,26.37,4.57,30.28,3.58"/>
  <path d="M449.09,101.48l-.42-1.16h0c-5.99,4.41-15.72,6.74-19.63,6.4.91,2.66,5.24,4.24,5.24,4.24,9.23-2.83,13.56-7.74,14.81-9.48"/>
  <path class="cls-3" d="M447.01,92.83c-.08-.58-.17-1.25-.17-1.83-10.98,1.58-25.29-2.08-30.19-5.16-.58,4.24,4.08,9.32,4.08,9.32,14.06,2.66,23.21-.83,26.28-2.33"/>
  <path class="cls-2" d="M461.82,65.63s1.75,4.82,2.58,6.82c.75,2,2.25,5.16-1.66,9.65-1.66,2-4.41,5.66-5.66,10.48-2,7.9-.33,18.3,12.14,24.62,13.06,6.65,16.8-12.56,19.3-11.73,2.08.67,3.74,1.66,8.98.67-1.66,1.41-5.66,1.66-8.07,3.91-2.41,2.16-10.15,16.55-17.88,17.55,4.49-4.33.67-6.32-2.58-7.9-13.48-6.24-18.55-19.63-18.55-30.53.08-9.98,4.33-17.38,11.4-23.54"/>
  <path class="cls-2" d="M491.01,94.74c-3.74-6.57-13.56-7.24-20.63-3.83-6.99,3.41-12.23,12.73-12.23,12.73,13.31-16.64,24.62-13.06,28.78-9.32h0l.25.25c.33.33.83,1,.25,1.25l-.91.25c-1.08.08-2.83-1.41-2.83-1.41,1.41,5.82,4.49,3.74,5.41,2.99.58,1.83,0,2.74,0,2.74.91-.58,2-.83,3.33-.67,6.16.91,5.74,7.24,5.74,9.15,4.33-10.65-7.15-14.14-7.15-14.14"/>
  <polyline class="cls-2" points="5.99 71.04 4.91 71.53 4.41 72.62 4.91 73.7 5.99 74.2 6.99 73.7 7.4 72.62 6.99 71.53"/>
  <polyline class="cls-2" points="9.48 71.04 8.4 71.53 7.99 72.62 8.4 73.7 9.48 74.2 10.48 73.7 10.98 72.62 10.48 71.53"/>
  <polyline class="cls-2" points="42.09 54.9 40.92 55.31 40.51 56.4 40.92 57.56 42.09 57.98 43.17 57.56 43.59 56.4 43.17 55.31"/>
  <path class="cls-2" d="M40.76,67.21h-21.21v-2.99c0-.75-.08-1.41-.25-2.08-.17-.58-.42-1.16-.83-1.58-.42-.42-.91-.75-1.58-1-.67-.25-1.5-.33-2.41-.33-.67,0-1.25,0-1.91.08-.58.08-1.16.17-1.83.33v7.57h-2.08c-1.08,0-2.08-.08-2.83-.33-.75-.17-1.33-.5-1.83-.91-.42-.42-.75-.83-1-1.41-.17-.58-.25-1.16-.25-1.91,0-.58.08-1.16.17-1.66s.25-1,.42-1.58l-2.91.5c-.08.5-.17,1-.25,1.5-.08.58-.17,1.08-.17,1.5,0,.83.17,1.66.42,2.41s.67,1.5,1.33,2.08c.58.58,1.5,1.08,2.5,1.41,1.08.33,2.41.5,3.99.5h5.24v-7.82l.42-.08h.5c.91,0,1.5.25,1.91.58.33.42.5,1.08.5,2.08v5.16h26.7v-9.9h-2.74"/>
  <path class="cls-2" d="M74.28,67.21h-1.08c-1.08,0-1.83-.25-2.25-.75-.42-.5-.67-1.25-.67-2.41,0-.75.17-1.41.58-1.91.42-.5.83-.75,1.41-.75s1,.25,1.33.67c.33.42.58,1.08.58,2M86.59,67.21h-9.57v-2.74c0-.83-.08-1.5-.33-2.16-.17-.67-.5-1.16-.83-1.66s-.83-.83-1.33-1.08c-.58-.25-1.16-.33-1.91-.33s-1.5.08-2.08.33c-.67.25-1.16.58-1.58,1-.42.42-.83,1-1.08,1.75-.25.67-.33,1.5-.33,2.5l-.08.83-.33.75-.5.58-.75.25h-11.23v-.08c0-.91-.17-1.83-.42-2.74-.25-.91-.75-1.75-1.33-2.5s-1.41-1.41-2.33-2c-1-.58-2.16-.91-3.66-1.16l-.17,2.33c1.08.33,2,.67,2.66,1.16.67.5,1.16,1,1.58,1.58.33.58.58,1.16.75,1.75.17.58.17,1.16.17,1.66h-6.32v2.25h19.8c.91,0,1.58-.17,2.08-.5s.83-.75,1-1.41l.42.67.83.58,1.25.42c.5.08,1.08.17,1.75.17h16.64v-15.55h-2.74v13.39Z"/>
  <path class="cls-2" d="M94.08,53.98c-.75.08-1.41.17-2.16.25v1.75l.83.08.83.08v13.39h2.74v-15.55c-.75-.08-1.5-.08-2.25,0"/>
  <polyline class="cls-2" points="108.47 63.05 109.63 62.55 110.05 61.47 109.63 60.39 108.47 59.97 107.39 60.39 106.97 61.47 107.39 62.55"/>
  <path class="cls-2" d="M111.38,67.63c0,1-.08,1.75-.17,2.33-.17.67-.33,1.16-.58,1.5l-.91.83-1.25.25c-1,0-1.75-.42-2.25-1.16-.42-.83-.67-2-.67-3.74,0-.58.08-1.16.17-1.75.17-.58.33-1.25.58-2l-2.91.5c-.17.58-.33,1.25-.42,1.91-.08.67-.17,1.33-.17,1.83,0,1,.08,1.83.33,2.66.25.83.5,1.5,1,2.08.42.58,1,1.08,1.75,1.41.67.33,1.5.5,2.5.5.91,0,1.83-.08,2.5-.42.75-.25,1.33-.67,1.83-1.25.5-.58.83-1.33,1.08-2.25.25-.91.33-2.08.33-3.49v-7.9h-2.74"/>
  <path class="cls-2" d="M118.2,53.98c-.75.08-1.41.17-2.08.25v1.75l.83.08.75.08v13.39h2.74v-15.55c-.83-.08-1.58-.08-2.25,0"/>
  <polyline class="cls-2" points="158.13 71.04 157.04 71.53 156.63 72.62 157.04 73.7 158.13 74.2 159.21 73.7 159.62 72.62 159.21 71.53"/>
  <polyline class="cls-2" points="154.63 71.04 153.55 71.53 153.13 72.62 153.55 73.7 154.63 74.2 155.71 73.7 156.13 72.62 155.71 71.53"/>
  <path class="cls-2" d="M173.18,67.21h-7.24c.25-.75.58-1.41.91-2.08.42-.67.83-1.25,1.25-1.83.5-.58,1-.91,1.5-1.25s1.08-.5,1.66-.5c.67,0,1.16.25,1.41.67.25.5.42,1.16.42,2.25M187.9,67.21h-4.57v-13.31h-2.74v13.31h-4.49v-3.08c0-1.66-.42-2.83-1.16-3.66s-1.83-1.25-3.16-1.25c-.67,0-1.41.17-2,.42-.67.33-1.25.67-1.75,1.08-.5.5-1,.91-1.41,1.5-.42.5-.75,1-1,1.5h0c.08-.5.17-1,.25-1.5.08-.5.08-1.08.08-1.66v-6.65h-2.74v13.31h-4.16v-7.65h-2.74v7.65h-28.45v-7.65h-2.74v10.06c0,1.16-.17,1.91-.67,2.33-.42.42-1.08.67-2,.67l-.91-.08-.25,2.25,1.08.08c1.08,0,2-.17,2.66-.42.67-.25,1.25-.67,1.66-1.16s.67-1.08.83-1.66c.17-.67.25-1.33.25-2v-.08h62.8v-15.55h-2.74v13.23h.08Z"/>
  <polyline class="cls-2" points="200.71 58.06 201.79 57.56 202.21 56.48 201.79 55.31 200.71 54.9 199.63 55.31 199.22 56.48 199.63 57.56"/>
  <polyline class="cls-2" points="204.29 58.06 205.29 57.56 205.7 56.48 205.29 55.31 204.29 54.9 203.21 55.31 202.71 56.48 203.21 57.56"/>
  <path class="cls-2" d="M237.98,67.21h-1.08c-1.08,0-1.83-.25-2.25-.75-.42-.5-.67-1.25-.67-2.41,0-.75.17-1.41.58-1.91.42-.5.91-.75,1.41-.75.58,0,1,.25,1.41.67.33.42.58,1.08.58,2M204.29,67.21h-1l-1.25-.25-.83-.67-.5-.91-.17-1.16c0-.83.25-1.58.67-2.08.42-.5,1.08-.75,1.83-.75h.58l.67.08v5.74h0ZM239.64,60.72c-.33-.5-.83-.83-1.33-1.08-.58-.25-1.16-.42-1.91-.42s-1.5.08-2.08.33c-.67.25-1.16.58-1.66,1-.42.5-.83,1.08-1.08,1.75-.25.67-.42,1.5-.42,2.5l-.08.83-.33.75-.5.58-.75.25h-22.46v-7.65c-.58-.08-1.16-.17-1.83-.25-.58-.08-1.25-.08-1.91-.08-1,0-1.75.17-2.5.42-.67.33-1.25.75-1.75,1.25-.42.5-.75,1.08-1,1.75-.25.67-.33,1.33-.33,2,0,1.5.42,2.66,1.25,3.49.83.83,2.16,1.25,3.91,1.25h26.12c.91,0,1.58-.17,2.08-.5.5-.33.83-.75,1.08-1.41l.42.67.83.58,1.25.42c.5.08,1.08.17,1.75.17h4.24v-4.91c0-.83-.08-1.5-.33-2.16-.08-.5-.33-1-.67-1.5"/>
  <path class="cls-2" d="M266.84,64.13l-.83,1-.91-.91-.83-.83-.83-.67-1-.5,1.25-.67c.42-.17.91-.25,1.5-.25.67,0,1.16.17,1.5.5.42.33.58.75.58,1.25l-.42,1.08M283.64,67.21h-2.99c-3.66-.25-8.07.5-11.65-.25l-1.16-.58c.67-.58,1.16-1.16,1.5-1.75s.5-1.25.5-1.83c0-.5-.08-1.08-.25-1.5l-.91-1.16c-.42-.33-.91-.58-1.5-.83-.58-.17-1.25-.33-2.08-.33-1,0-1.91.17-2.83.58-.91.33-1.83.83-2.66,1.41l-.33,2.33c.58.17,1.08.42,1.41.67l1.08.75.91.83.91.91c-1.25.58-2.58.83-4.08.83h-12.56v-13.31h-2.33c-.75.08-1.41.17-2.16.25v1.75l.83.08.75.08v13.39h15.64c.91,0,1.91-.17,2.91-.42,1-.25,1.91-.58,2.74-1.08.58.42,1.33.83,2,1.08.75.25,1.66.42,2.58.42h16.14v-15.55h-2.74v13.23h.33Z"/>
  <path class="cls-2" d="M291.05,53.98c-.75.08-1.41.17-2.08.25v1.75l.83.08.75.08v13.39h2.74v-15.55c-.75-.08-1.5-.08-2.25,0"/>
  <polyline class="cls-2" points="303.44 58.06 304.52 57.56 304.94 56.48 304.52 55.31 303.44 54.9 302.36 55.31 301.94 56.48 302.36 57.56"/>
  <polyline class="cls-2" points="306.93 58.06 308.02 57.56 308.43 56.48 308.02 55.31 306.93 54.9 305.85 55.31 305.44 56.48 305.85 57.56"/>
  <path class="cls-2" d="M338.38,56.4h-1.16c-.91,0-1.33-.25-1.33-.83l.25-.5.58-.17.58.08.5.17.5-1.25-.75-.25c-1.66-.42-3.58.5-3.16,2.5l.25.42-.33-.08-.42-.08h-.75v1.58h5.32"/>
  <polyline class="cls-2" points="349.44 71.04 348.36 71.53 347.94 72.62 348.36 73.7 349.44 74.2 350.52 73.7 350.94 72.62 350.52 71.53"/>
  <polyline class="cls-2" points="345.95 71.04 344.86 71.53 344.45 72.62 344.86 73.7 345.95 74.2 347.03 73.7 347.44 72.62 347.03 71.53"/>
  <path class="cls-2" d="M364.08,67.21h-.83l-.75-.17-.42-.33-.25-.42-.08-.42.25-.83.75-.33.91.5.25,1.16M307.02,67.21h-1l-1.25-.25-.83-.67-.5-.91-.17-1.16c0-.83.25-1.58.67-2.08s1-.75,1.75-.75h.58l.67.08v5.74h.08ZM375.39,67.21h-4.33v-.33c0-1.5-.17-2.74-.5-3.83-.33-1.08-.83-1.91-1.5-2.66-.67-.67-1.5-1.16-2.41-1.5-.91-.33-2-.5-3.16-.5-.75,0-1.5.08-2.33.17-.83.08-1.5.25-2.16.5l-.17,2.25c.83-.17,1.58-.42,2.25-.5.67-.08,1.41-.17,2.08-.17,1,0,1.83.17,2.41.42.67.25,1.16.67,1.58,1.25.42.5.75,1.16.91,2,.17.83.25,1.75.25,2.83h-1.66c0-1.5-.25-2.66-.83-3.49-.58-.83-1.5-1.25-2.83-1.25-.58,0-1.08.08-1.5.25l-1.16.75-.75,1.08c-.17.42-.25.91-.25,1.41l.08.67.17.58h-9.07v-7.65h-2.74v7.65h-10.48v-7.65h-2.74v7.65h-24.79v-7.65c-.58-.08-1.16-.17-1.83-.25-.67-.08-1.25-.08-1.91-.08-1,0-1.75.17-2.5.42-.67.33-1.25.75-1.75,1.25-.42.5-.75,1.08-1,1.75-.25.67-.33,1.33-.33,2,0,1.5.42,2.66,1.25,3.49.83.83,2.16,1.25,3.91,1.25h72.37v-15.55h-2.74v13.48h.17Z"/>
  <path class="cls-2" d="M382.88,53.98c-.75.08-1.41.17-2.08.25v1.75l.83.08.83.08v13.39h2.74v-15.55c-.91-.08-1.66-.08-2.33,0"/>
  <path class="cls-2" d="M7.32,83.35c2.08,0,3.33.83,4.16,2.74l.08.17,2.33-.33-.08-.25c-1-2.66-3.24-4.08-6.57-4.08-4.49,0-7.15,2.66-7.15,7.07s2.66,7.07,7.15,7.07c1.83,0,3.41-.42,4.41-1.16v.91h2.08v-6.9h-6.4v1.75h3.99v.83c0,1.66-1.5,2.66-3.91,2.66-1.75,0-4.74-.67-4.74-5.32-.08-4.49,2.91-5.16,4.66-5.16"/>
  <polyline class="cls-2" points="19.05 89.25 25.2 89.25 25.2 87.51 19.05 87.51 19.05 83.51 27.7 83.51 27.7 81.77 16.64 81.77 16.64 95.57 28.11 95.57 28.11 93.83 19.05 93.83"/>
  <polyline class="cls-2" points="40.84 91.66 33.44 81.77 30.28 81.77 30.28 95.57 32.52 95.57 32.52 84.18 41.09 95.57 43.09 95.57 43.09 81.77 40.84 81.77"/>
  <polyline class="cls-2" points="49.08 89.25 55.23 89.25 55.23 87.51 49.08 87.51 49.08 83.51 57.73 83.51 57.73 81.77 46.66 81.77 46.66 95.57 58.23 95.57 58.23 93.83 49.08 93.83"/>
  <path class="cls-2" d="M69.7,85.59c0,1.5-1.25,2.16-3.83,2.16h-3.24v-4.24h3.24c2.66,0,3.83.67,3.83,2.08M72.2,85.51c0-2.41-2.25-3.74-6.16-3.74h-5.91v13.81h2.5v-6.07h3.74l3.58,6.07h2.74l-3.83-6.4c2.16-.67,3.33-1.91,3.33-3.66"/>
  <path class="cls-2" d="M82.76,89.67h-4.57l2.25-6.24M78.77,81.77l-5.66,13.81h2.58l1.66-4.16h5.99l1.66,4.16h2.58l-5.66-13.81h-3.16Z"/>
  <polyline class="cls-2" points="91.5 81.77 89 81.77 89 95.57 99.82 95.57 99.82 93.83 91.5 93.83"/>
  <path class="cls-2" d="M117.12,91c-.5,1.41-1.33,2.99-4.08,2.99-2.99,0-4.66-1.91-4.66-5.32s1.58-5.32,4.24-5.32c2.25,0,3.49.83,4.16,2.83l.08.25,2.33-.5-.08-.25c-.83-2.66-2.99-4.08-6.16-4.08-4.41,0-6.99,2.66-6.99,7.07s2.58,7.07,6.99,7.07c3.33,0,5.49-1.5,6.4-4.33l.08-.25-2.25-.33"/>
  <rect class="cls-2" x="121.69" y="81.77" width="2.5" height="13.81"/>
  <polyline class="cls-2" points="132.51 92.33 128.35 81.77 125.85 81.77 131.51 95.57 133.59 95.57 139.24 81.77 136.75 81.77"/>
  <rect class="cls-2" x="140.91" y="81.77" width="2.41" height="13.81"/>
  <polyline class="cls-2" points="149.81 81.77 147.4 81.77 147.4 95.57 158.21 95.57 158.21 93.83 149.81 93.83"/>
  <path class="cls-2" d="M173.26,89.67h-4.57l2.33-6.24M169.35,81.77l-5.66,13.81h2.58l1.66-4.16h5.99l1.66,4.16h2.58l-5.66-13.81h-3.16Z"/>
  <polyline class="cls-2" points="182.66 92.33 178.42 81.77 175.93 81.77 181.58 95.57 183.74 95.57 189.4 81.77 186.82 81.77"/>
  <rect class="cls-2" x="191.06" y="81.77" width="2.41" height="13.81"/>
  <path class="cls-2" d="M204.87,89.67h-4.57l2.33-6.24M204.21,81.77h-3.24l-5.66,13.81h2.58l1.66-4.16h5.99l1.66,4.16h2.58l-5.57-13.64v-.17Z"/>
  <polyline class="cls-2" points="206.87 83.51 212.11 83.51 212.11 95.57 214.52 95.57 214.52 83.51 219.84 83.51 219.84 81.77 206.87 81.77"/>
  <rect class="cls-2" x="221.67" y="81.77" width="2.41" height="13.81"/>
  <path class="cls-2" d="M238.56,88.67c0,3.49-1.66,5.32-4.66,5.32s-4.66-1.83-4.66-5.32,1.66-5.32,4.66-5.32c3.08,0,4.66,1.83,4.66,5.32M233.9,81.6c-4.49,0-7.15,2.58-7.15,7.07s2.58,7.07,7.15,7.07,7.15-2.58,7.15-7.07-2.66-7.07-7.15-7.07"/>
  <polyline class="cls-2" points="253.78 91.66 246.38 81.77 243.22 81.77 243.22 95.57 245.46 95.57 245.46 84.18 254.03 95.57 256.03 95.57 256.03 81.77 253.78 81.77"/>
  <path class="cls-2" d="M273.16,89.67h-4.57l2.33-6.24M272.5,81.77h-3.24l-5.66,13.81h2.58l1.66-4.16h5.99l1.66,4.16h2.58l-5.57-13.64v-.17Z"/>
  <path class="cls-2" d="M289.8,91.41c0,1.58-1.58,2.58-3.99,2.58s-3.99-1-3.99-2.58v-9.65h-2.5v9.57c0,2.74,2.5,4.49,6.4,4.49s6.4-1.75,6.4-4.49v-9.57h-2.33"/>
  <polyline class="cls-2" points="293.71 83.51 299.03 83.51 299.03 95.57 301.44 95.57 301.44 83.51 306.77 83.51 306.77 81.77 293.71 81.77"/>
  <polyline class="cls-2" points="318.58 87.51 310.59 87.51 310.59 81.77 308.18 81.77 308.18 95.57 310.59 95.57 310.59 89.25 318.58 89.25 318.58 95.57 320.99 95.57 320.99 81.77 318.58 81.77"/>
  <path class="cls-2" d="M334.97,88.67c0,3.49-1.58,5.32-4.66,5.32s-4.66-1.83-4.66-5.32,1.58-5.32,4.66-5.32c3.08,0,4.66,1.83,4.66,5.32M330.31,81.6c-4.57,0-7.15,2.58-7.15,7.07s2.58,7.07,7.15,7.07,7.15-2.58,7.15-7.07c-.08-4.49-2.66-7.07-7.15-7.07"/>
  <path class="cls-2" d="M348.94,85.59c0,1.5-1.25,2.16-3.83,2.16h-3.24v-4.24h3.24c2.66,0,3.83.67,3.83,2.08M351.44,85.51c0-2.41-2.25-3.74-6.16-3.74h-5.91v13.81h2.5v-6.07h3.74l3.58,6.07h2.66l-3.74-6.4c2.16-.67,3.33-1.91,3.33-3.66"/>
  <rect class="cls-2" x="355.1" y="81.77" width="2.5" height="13.81"/>
  <polyline class="cls-2" points="382.38 81.77 378.22 87.67 374.14 81.77 359.42 81.77 359.42 83.51 364.66 83.51 364.66 95.57 367.16 95.57 367.16 83.51 372.4 83.51 372.4 83.26 377.06 89.83 377.06 95.57 379.47 95.57 379.47 89.83 385.12 81.77"/>
</svg>