<?xml version="1.0" encoding="UTF-8"?>
<svg id="Layer_1" data-name="Layer 1" xmlns="http://www.w3.org/2000/svg" viewBox="0 0 812.26 206.33">
  <defs>
    <style>
      .cls-1 {
        fill: #ad833b;
      }
    </style>
  </defs>
  <path class="cls-1" d="M724.27,178.47c-.25-.02-.5-.05-.75-.08-.25-.02-.5-.05-.74-.08.03-.23.06-.45.09-.68.04-.32.32-.57.68-.6.05,0,.08,0,.11-.02.27-.03.54-.09.76-.18-.05.54-.11,1.09-.16,1.64M732.51,180.25c.04-1.9.08-3.8.13-5.7-.72.59-1.45,1.17-2.2,1.75.57.15.7.55.68.94-.02.56-.04,1.13-.06,1.69-.5-.02-.99-.04-1.48-.06.08-1.47.14-2.94.22-4.41-.74.57-1.49,1.14-2.25,1.69.57.17.7.57.68.96-.04.56-.07,1.13-.11,1.69-.79-.05-1.58-.11-2.37-.17.29-3.44.58-6.87.87-10.32-.72.55-1.45,1.09-2.19,1.62.52.18.62.58.58.97-.12,1.24-.24,2.48-.36,3.72-.06.57-.49.85-.83.98-.23.1-.42.14-.44.18-1.01.07-1.87.76-1.99,1.71l-.25,1.95c.59.07,1.18.14,1.77.21.16.02.32.04.48.05.83.09,1.66.16,2.5.23,2.2.18,4.41.3,6.61.34M717.48,178.9c.49.08.98.15,1.47.22.43-2.95.86-5.88,1.29-8.83.05-.39.26-.75.81-.8-.59-.69-1.17-1.39-1.74-2.1-.61,3.84-1.23,7.66-1.83,11.5M711.87,176.52c-.24-.05-.49-.11-.73-.16-.24-.05-.48-.11-.72-.16.04-.17.08-.34.12-.51.29-.15.57-.31.85-.46.2.26.39.52.59.79-.04.17-.07.34-.11.51M715.66,168.6c.52.23.58.64.51,1.02-.47,2.5-.93,4.99-1.4,7.49-.49-.09-.97-.18-1.46-.28.07-.34.13-.68.2-1.02-.59-.78-1.17-1.56-1.73-2.36-.85.47-1.7.94-2.57,1.4-.08.33-.17.67-.25,1.01-.48-.12-.97-.25-1.46-.37.37-1.42.74-2.84,1.1-4.26-.84.41-1.7.8-2.56,1.19.52.27.56.69.46,1.07-.15.54-.3,1.09-.45,1.63-.21-.06-.42-.12-.63-.18,0,0,0-.01,0-.01-.4-.11-.8-.23-1.21-.34-.01-.51.07-1.03.17-1.54.33-1.59.77-3.4-1.24-5.54-.58.27-1.16.54-1.75.8,1.41.42,1.98,1.73,2.2,2.77.2,1.26-.48,2.21-.12,3.28-.69-.21-1.39-.42-2.08-.63,0,0,0-.01,0-.01.05-.17.11-.33.16-.5.34-1.07-.37-2.29-1.59-2.71-.09-.03-.18-.06-.26-.09-2.7-.94-5.37-2-8.01-3.17.18-.4.35-.8.53-1.19.15-.35.52-.46.91-.29-.4-.88-.79-1.77-1.17-2.65-.72,1.56-1.44,3.13-2.16,4.7,3.2,1.47,6.45,2.78,9.74,3.92.47.16.73.62.6,1.02-.06.17-.11.33-.17.5-.16.45-.3.89-.46,1.35-.3.13-.6.25-.9.37-.17-.3-.34-.59-.5-.89.15-.44.31-.88.46-1.32-.35-.12-.7-.25-1.05-.38-.12-.04-.24-.09-.36-.13-2.67-.98-5.3-2.07-7.9-3.26-.18.39-.37.79-.55,1.18,2.63,1.21,5.29,2.31,7.99,3.3-.07.21-.14.4-.22.6.5.88,1.01,1.74,1.53,2.61.94-.35,1.86-.72,2.78-1.09.07-.21.13-.43.21-.64,1.04.34,2.08.66,3.13.96.2.3.45.55.78.78-.14-.22-.26-.44-.36-.66.87.25,1.74.49,2.62.72,1.22.31,2.44.61,3.67.88,1.22.27,2.45.52,3.68.76.05,0,.1.02.16.03.43.08.87.16,1.3.24h.01c.67-3.83,1.32-7.65,1.98-11.47-.76.48-1.54.95-2.32,1.42M730.12,181.48c-.42-.02-.76.26-.78.61-.02.36.3.66.73.68.43.02.77-.25.78-.62.01-.35-.3-.65-.73-.67M725.47,24.2c.57,0,1.03.43,1.03.98-.31-.31-1.51-.56-2.06,0,0-.55.46-.98,1.03-.98M728.04,25.47c-.43,3.25-4.61,3.25-4.75.85.75,2.62,4.8,1.24,3.6-1.66,1.59-.6,2.78-.65,4.07-.86-3.33-.52-7.25-.93-9.68.18-1.19.54-.85,1.27-.68,1.57.2-.64,1.26-.67,2.01-.42-.57,4.9,5.7,4.32,5.43.34M686.51,167.67c-.23-.12-.46-.23-.69-.34-.23-.12-.45-.24-.68-.36.1-.19.2-.39.3-.59.14-.28.52-.41.88-.3.05,0,.08.03.11.03.27.07.55.1.8.1-.24.49-.48.98-.72,1.47M689.67,159.71c.45.37.39.77.22,1.13-.55,1.12-1.1,2.23-1.66,3.35-.25.51-.76.61-1.14.62-.26.01-.46-.03-.48,0-.99-.3-2.04.04-2.49.88-.3.58-.63,1.15-.92,1.74.68.36,1.36.71,2.05,1.06.69.35,1.38.69,2.08,1.02,1.67-3.51,3.34-7,5.01-10.51-.88.26-1.77.5-2.66.72M727.11,181.31c-.42-.03-.79.24-.81.59-.03.36.3.67.72.7.41.03.77-.23.8-.59.02-.35-.3-.67-.71-.69M725.3,181.17c-.42-.04-.79.22-.82.57-.03.36.29.68.72.71.41.04.77-.22.81-.58.03-.35-.29-.67-.7-.71M708.26,170.31c.37.1.75-.09.84-.45.08-.34-.15-.7-.51-.8-.38-.1-.76.1-.85.43-.1.35.14.71.52.81M706.63,169.86c.37.1.75-.08.85-.43.09-.34-.14-.71-.5-.81-.38-.11-.76.09-.86.42-.1.35.13.71.51.81M722.97,170.78c.39.05.72-.21.75-.57.04-.35-.22-.67-.6-.72-.36-.05-.71.21-.75.56-.05.36.23.69.59.73M758.33,171.92c.38-.08.62-.45.54-.79-.09-.35-.46-.57-.83-.48-.38.09-.62.44-.54.79.08.34.44.56.83.47M688.65,158.6c.35.18.74.07.91-.25.16-.31.03-.71-.31-.89-.33-.17-.74-.05-.91.25-.17.32-.02.72.31.89M723.15,169.23c.38.04.7-.2.74-.56.04-.35-.21-.67-.59-.72-.36-.04-.7.21-.74.56-.04.36.22.68.59.72M756.66,172.29c.38-.08.63-.44.55-.78-.08-.36-.45-.58-.82-.5-.38.08-.64.43-.56.79.07.35.45.57.84.48M687.93,159.99c.35.18.76.06.92-.26.16-.31.03-.71-.32-.89-.33-.17-.75-.06-.91.25-.17.32-.03.73.31.91M726.99,91.22c-.14-2.43-.23-5.19-.23-8.19,0-2.72.08-5.18.2-7.35,6.88-.62,16.74-.8,25.84,1.57.65,1.95,1.02,4.03,1.02,6.21s-.36,4.24-1.01,6.19c-9.09,2.37-18.92,2.19-25.81,1.57M734.35,102.92c-2.17,0-4.3-.36-6.34-1.06-.16-1.04-.64-4.48-.95-9.48,6.78.59,16.31.75,25.25-1.44-2.94,7.03-9.89,11.98-17.97,11.98M714.88,83.46c0-7.86,4.77-14.95,11.95-17.96-.38,2.33-1.21,8.52-1.21,17.54s.82,15.9,1.17,18.37c-7.16-3.03-11.91-10.11-11.91-17.94M728.08,65.02c2.02-.69,4.12-1.04,6.27-1.04,8.08,0,15.02,4.94,17.96,11.96-8.97-2.18-18.52-2.02-25.29-1.43.33-5.17.87-8.49,1.05-9.5M734.35,62.84c-2.4,0-4.74.41-6.97,1.21-8.16,2.93-13.65,10.73-13.65,19.41s5.45,16.42,13.57,19.38c2.26.82,4.63,1.24,7.05,1.24,11.37,0,20.62-9.25,20.62-20.62s-9.25-20.62-20.62-20.62M782.43,172.02c-.2.09-.41.04-.48-.13-.08-.17.02-.36.21-.45.07-.03.16-.06.22-.04-.7-.22-1.34.54-.8,1.01-.19.12-.33.12-.43.01-.13.25-.25.51-.38.76.93-.41,1.86-.84,2.79-1.28-.3-.09-.6-.19-.9-.29.05.15-.05.32-.24.41M792.62,84.16v-2.3c0-1.15,0-2.28,0-2.82.01-2.17-.35-5.04-2.4-6.44.62,2.42.2,2.85.2,6.94v5.09c0,1.5.21,2.8.57,3.94-2.38-1.15-4.93-3.67-4.93-8.09,0-1.48-.36-7.6-2.2-10.15v10.61c0,1.4.18,2.62.5,3.71-5.6-2.84-5.04-12.49-6.86-16.24,0,3.24.07,5.52.07,8.76,0,1.6.24,2.97.64,4.16-4.9-3.13-5.46-9.26-5.85-13.84-.47,1.7-1.25,6.16.08,10.38-3.29-2.51-5.12-7.87-4.89-11.7-.48,2.1-.99,5.26.04,8.43-.18,3.6-.15,32.02-.14,35.12-1.87-1.55-3.78-4.34-3.58-8.58.07-.69.14-1.35.24-1.98,1.31-8.87,1.58-21.65-2.08-31.88,2.96,15.97-.73,32.39-1.25,35.69-.92,5.9,1.08,18.13,5.25,31.69-.81-.8-3.59-1.96-4.69-3.08,0,1.22.45,2.54.45,5.22-1.43-2.4-1.98-2.49-3.49-5.15.48,3.12.34,3.4.34,6.09-1.48-2.79-2.28-6.5-5.67-11.8-7.56-11.8-18.46-4.48-18.46-2.43,0-2.06-10.89-9.38-18.45,2.43-3.4,5.3-4.19,9.01-5.68,11.8,0-2.7-.13-2.97.34-6.09-1.52,2.66-2.06,2.75-3.49,5.15,0-2.68.45-4,.45-5.22-1.12,1.11-3.89,2.27-4.7,3.08,4.16-13.57,6.17-25.79,5.25-31.69-.52-3.3-4.21-19.72-1.24-35.69-3.67,10.22-3.4,23-2.09,31.88.09.63.17,1.29.24,1.99.21,4.26-1.72,7.05-3.6,8.59,0-3.1.05-31.5-.14-35.14,1.03-3.17.52-6.33.04-8.43.23,3.83-1.6,9.19-4.89,11.7,1.33-4.22.56-8.68.08-10.38-.39,4.58-.94,10.71-5.84,13.84.4-1.19.64-2.56.64-4.16,0-3.24.08-5.51.08-8.76-1.83,3.75-1.27,13.4-6.86,16.24.31-1.08.49-2.31.49-3.71v-10.61c-1.84,2.55-2.2,8.67-2.2,10.15,0,4.43-2.55,6.94-4.93,8.09.36-1.13.57-2.44.57-3.93v-5.09c0-4.09-.43-4.51.2-6.94-2.06,1.4-2.42,4.28-2.4,6.44,0,.54,0,1.67,0,2.82h0v2.3c0,4.62-2.78,7.16-5.25,8.24.42-.55.88-2.06.88-4.29v-22.29c0-6.26,7.31-13.46,10.02-16.63,7.49-8.78,10.75-1.64,18.3.92,12.55,4.25,19.24-.5,19.24-.5,6.7-4.22,6.72-8.2,6.72-10.68,0-1.68-.65-3.87-1.87-5.27-2.29-2.29-6.36-3.03-7.08-2.88-1.53.79-2.88.79-3.16,1.01-.7-1.4-.52-3.54,2.63-5.29.89-.49.56-1.61,3.26-3.19,7.88-4.6,15.59-2.93,20.09,2.09-1.59-.58-3.12-1.11-5.8-1.36,3.77,1.31,8.23,4.42,11.11,9.6,1.18,2.06,3.84,7.74,4.78,9.45,2.01,3.66,5.64,11.34,18.45,7.02,7.55-2.55,10.81-9.69,18.31-.92,2.7,3.17,10.02,10.37,10.02,16.63v22.29c0,2.23.46,3.74.88,4.29-2.46-1.07-5.25-3.62-5.25-8.24M792.63,101.55v-6.37c0-1.05-.04-1.98-.11-2.8.37.14.72.26,1.03.38,1.06,1.06,2.27,1.82,3.44,2.4v10.31c0,2.24.46,3.75.88,4.3-2.46-1.08-5.23-3.61-5.24-8.22M792.73,123.17c0-.75-.1-6.94-.1-8.14,0-1.33-.06-3.61-.17-5.32.4.15.76.29,1.1.42,1.06,1.05,2.27,1.81,3.44,2.39v13.17c0,2.23.46,3.75.88,4.29-2.2-.95-5.15-3.59-5.15-6.81M792.73,156.57v-4.93h0c0-3.11-.09-5.81-.09-6.73v-7.35c0-.63-.02-3.83-.04-7.96.14.06.28.11.42.16,1.18,1.36,2.61,2.29,3.98,2.97v26.34c0,2.24.46,3.75.88,4.3-2.2-.95-5.15-3.71-5.15-6.8M786.06,97.84v-6.44c0-1.13-.04-2.09-.1-2.9.25.09.5.19.73.28,1.15,1.23,2.5,2.08,3.78,2.72.03,1.35-.04,2.76-.04,4.18v6.31c0,1.5.21,2.8.57,3.94-2.38-1.14-4.93-3.67-4.93-8.09M786.06,117.69v-6.44c0-1.15-.04-3.55-.11-5.38.26.1.51.19.73.29,1.15,1.22,2.5,2.08,3.78,2.71.05,2.15-.04,5.11-.04,6.67v3.75h0v2.35c0,.16,0,.3.01.45,0,0-.01,0-.01,0v.14c0,1.35.17,2.54.46,3.59-2.15-.98-4.82-3.76-4.82-8.11M786.06,140.22v-6.44c0-1.12-.04-5.24-.1-8.38,1.28,1.7,2.97,2.7,4.5,3.38-.02,4.75-.04,8.57-.04,9.29v6.1c0,2.24,0,3.53.42,4.08-1.83-.8-4.78-3.41-4.78-8.02M779.77,94.06v-5.84c0-1.2.01-2.01-.02-2.68.59.23,1.23.43,1.91.61.72.55,1.46,1.02,2.2,1.4,0,.21,0,.43,0,.63v10.11c0,1.38.17,2.6.48,3.67-2.27-1.22-4.57-3.71-4.57-7.91M779.77,111.78v-5.83c0-2.23-.06-2.21-.07-3.3.62.26,1.2.48,1.72.68.79.64,1.62,1.17,2.44,1.59,0,1.32,0,2.8,0,3.12v10.11c0,.46.02.88.05,1.3-2.12-1.29-4.14-3.72-4.14-7.66M783.86,130.56v9.99c-2.11-1.31-4.09-3.73-4.09-7.63v-5.84c0-1.7-.04-5.53-.06-7.82,1.18,1.56,2.68,2.6,4.14,3.36.01,2.72.01,7.51.01,7.93M774.27,91.16v-5.86c0-1.51-.03-2.62-.11-3.45.22.12.44.23.67.34.74.84,1.63,1.61,2.72,2.28.02.49.01.97.01,1.42v8.63c0,1.6.24,2.98.64,4.17-2.04-1.32-3.94-3.72-3.94-7.54M774.27,106.85v-5.87c0-.66-.01-1.24-.02-1.76.28.16.56.3.86.45.75.76,1.57,1.36,2.41,1.87.06.7.05,1.43.05,2.08v8.63c0,.62.04,1.2.1,1.75-1.83-1.39-3.4-3.68-3.4-7.15M777.57,124.76v7.24c-1.78-1.4-3.3-3.67-3.3-7.07v-5.87c0-1.09-.01-3.13-.05-4.72.94,1.24,2.1,2.17,3.27,2.88.08,2.48.07,6.81.07,7.54M768.65,89.66c0-1.34-.1-8.37-.11-12.96.76,1.32,1.87,2.61,3.44,3.77.18,1.3.09,2.92.09,4.05v7.1c0,1.32.16,2.49.45,3.54-2.15-1.59-3.87-3.54-3.87-5.49M768.57,93.98c.7,1.27,1.89,2.63,3.51,3.85.01.85-.01,1.7-.01,2.37v5.85c-1.94-1.51-3.42-3.33-3.42-5.14,0-.81-.04-3.74-.07-6.93M772.07,118.29v4.19c-1.94-1.51-3.42-3.33-3.42-5.14,0-1.26-.1-7.6-.11-12.17.69,1.28,1.87,2.65,3.49,3.88.11,2.67.04,8.23.04,9.24M766.83,142.64c.26.6.19,1.78.46,2.33.27.55.88.93,1.05,1.2.22.37.14,1.31.44,1.96.14.3.29.61.44.89-.2.21-.36.46-.5.69-.45-1.02-1.57-1.14-2.41-.6-.43.28-.93.69-1.32,1.36.16-1.16-.05-1.53-.5-1.98-.66-.66-.4-2.06-.94-2.89-.41-.65-1.18-.85-1.68-1.86-.49-1-.25-1.53-.75-2.52-.56-1.13-.71-1.48-.73-3,.64.82,1.38,1.51,2.38,2.52.35-2.36.39-2.93.39-4.97,1,.85,2.03,2.13,2.36,2.99.19.52.37,2.02.45,2.27.24.77.6,1.02.87,1.61M771.23,149.54c1.05.08.47,4.65,1.24,6.24.79,1.61.45,2.95-1.04,2.81-1.52-.14-1.44-4.77-1.45-5.58,0-1.15-.58.61-.89,1.26-.07-.28-.13-.59-.18-.92-.11-.79-.03-1.28.03-1.77.41-1.09,1.22-2.12,2.29-2.04M772.57,151.4c.42-1.37,1.56-3.28,2.87-2.98,1.03.23.04,3.52.67,5.14,1.21,3.15-.49,4.22-1.95,3.85-1.64-.41-.91-4.81-.76-5.45.04-1.04-.5-.02-.87.56-.08-.26-.13-.45.05-1.12M777.44,152.05l9.65,6.59v13.88c-15.34,8.69-32.53,13.73-50.25,14.1h-.29s-1.35,1.11-2,1.65h0s0,0,0,0c-.65-.54-2-1.66-2-1.66h-.29c-17.72-.37-34.9-5.41-50.23-14.1v-13.88s9.63-6.59,9.63-6.59c.24.13.48.27.71.4.04,1.39-.94,2.1-.72,3.51.18,1.18.9,2.03,1.77,2.41.23.52.65.94,1.23,1.18.59.22.52-.29.51-1.04.13-.04.25-.08.38-.14.16.56.53.98,1,1.21.21.43.6.81,1.36,1.32.75.35.25-.47.1-1.2.28-.07.56-.19.84-.37.1.23.24.43.45.57.07.05.14.1.21.15.19.77.73,1.22,1.55,1.68.55.18.34-.44.28-1.03.76.01,1.43-.41,1.73-1.65.14-.59.13-.96.1-1.28,9.15,3.89,19.05,6.54,28.73,6.84.34.26,2.66,2.01,2.66,2.01,0,0,2.32-1.75,2.67-2.01,9.63-.3,19.46-2.91,28.57-6.77-.03.3-.02.67.12,1.21.3,1.24.97,1.66,1.73,1.65-.05.59-.26,1.21.29,1.03.82-.46,1.36-.91,1.55-1.68.07-.04.14-.09.21-.15.2-.14.34-.34.44-.57.28.18.55.3.84.37-.14.73-.65,1.55.11,1.2.75-.51,1.15-.89,1.35-1.32.47-.24.84-.65,1-1.21.12.07.25.1.38.14-.01.75-.09,1.26.5,1.04.57-.24,1-.66,1.23-1.18.86-.39,1.59-1.23,1.77-2.41.22-1.39-.72-2.1-.71-3.44.28-.16.56-.31.85-.48M692.87,153.55c.62-1.61-.37-4.91.65-5.14,1.31-.3,2.46,1.61,2.88,2.99.13.39.1.98.05,1.11-.37-.58-.92-1.6-.88-.56.14.64.88,5.04-.77,5.45-1.46.37-3.16-.7-1.94-3.85M697.75,149.54c1.06-.08,1.87.95,2.28,2.04.06.48.14.98.03,1.77-.05.33-.11.63-.18.92-.31-.64-.89-2.4-.89-1.26,0,.81.08,5.44-1.45,5.58-1.49.14-1.83-1.2-1.04-2.81.77-1.6.2-6.16,1.25-6.24M703.05,153.04c-1.26,2.27-.14,6.51-1.57,6.6-4.11.27-1.06-4.9-.91-6.18.19-1.64.02-4.05,1.62-3.55,1.44.44,3.27,5.11,4.16,6.5,0,.01.02.03.04.05-.33-.13-.65-.26-.98-.4.09.03.17.06.21.07-1.47-.58-2.32-4.13-2.57-3.08M766.78,149.91c1.61-.5,1.44,1.9,1.62,3.55.15,1.28,3.21,6.45-.91,6.18-1.43-.09-.32-4.34-1.57-6.6-.22-.94-.91,1.97-2.12,2.98-.39.17-.79.32-1.19.48.95-1.6,2.78-6.17,4.17-6.59M744.34,150.52c1.03,5.99-4.87,6.32-5.76,1.7-.11-.58-.27-2.36-.46-4.72-.44-8.04-1.1-20.78-1.14-23.19,1-.63,2.19-1.11,3.39-1.44.65,4.53,3.68,26.03,3.96,27.64M744.94,122.57c.64.12,1.17.34,1.55.65.58.4,1.21.95,1.89,1.62,1.06,4.02,5.36,20.12,5.75,21.73.47,1.94.98,3.71,1.79,4.53-2.6.49-4.44,0-5.05-2.36-.79-3.71-4.86-22.09-5.93-26.16M749.33,148.82c.34,1.98,1.92,4.79.11,5.23-2.8.69-3.05-.87-3.5-3.28-.01-.07-3.95-25.81-4.51-28.12.9-.17,1.78-.23,2.57-.19.58,2.83,5.05,24.77,5.33,26.36M732.42,151.27c0-3.12.48-23.02.58-26.23.79.69,1.34,1.51,1.49,2.41.16-.91.71-1.72,1.51-2.41.09,3.21.56,23.1.56,26.23,0,3.39-.89,4.62-2.07,5.32-1.17-.7-2.07-1.93-2.07-5.32M713.31,146.36c-.76,2.71-2.61,5.53-3.05,5.96,1.59.6,4.5,1.07,6.55.26-.3,1.07-.28,2.04.63,2.95,1.12,1.12,4.27,1.93,5.8-.71,1.23,4.38,5.95,4.17,7.82,1.11.8,2.54,2.46,2.86,3.42,3.82.96-.96,2.63-1.28,3.43-3.82,1.85,3.06,6.58,3.27,7.81-1.11,1.53,2.63,4.69,1.82,5.8.71.91-.91.92-1.89.63-2.95,2.05.81,4.95.34,6.55-.26-.43-.43-2.28-3.25-3.05-5.96-.93-3.29-4.36-15.17-5.9-20.04,4.17,4.8,8.95,12.93,9.26,17.2.13-.6.41-1.35.67-2.15.96,2,3.28,6.1,3.67,7.06.4,1.01.52,1.68.22,3.02-.21.97-1.1,3.92-2.99,5.81,0,0,0,.01.01.02-7.57,2.82-15.54,4.57-23.72,4.79-.67.55-2.32,1.78-2.32,1.78,0,0-1.64-1.24-2.31-1.78-8.15-.22-16.1-1.96-23.64-4.76,0,0,.01-.01.01-.03-1.89-1.89-3.01-4.86-3.23-5.83-.29-1.34-.18-2,.23-3.02.39-.96,2.7-5.07,3.66-7.06.26.8.54,1.54.66,2.15.31-4.27,5.09-12.4,9.26-17.2-1.54,4.87-4.97,16.75-5.91,20.04M718.11,148.73c-.61,2.37-2.45,2.86-5.05,2.36.81-.82,1.32-2.58,1.79-4.53.38-1.61,4.69-17.71,5.75-21.73.67-.67,1.31-1.22,1.88-1.61.38-.31.92-.53,1.55-.65-1.08,4.07-5.14,22.46-5.93,26.16M728.59,122.88c1.21.32,2.4.81,3.4,1.44-.05,2.41-.7,15.14-1.15,23.18-.18,2.37-.34,4.14-.46,4.73-.88,4.61-6.77,4.28-5.75-1.7.28-1.61,3.31-23.1,3.96-27.64M723.04,150.77c-.45,2.41-.7,3.97-3.5,3.28-1.81-.43-.23-3.25.11-5.23.29-1.71,4.69-23.12,5.33-26.36.79-.04,1.66.02,2.56.19-.56,2.32-4.49,28.06-4.5,28.12M700.19,148.13c.29-.65.21-1.59.44-1.96.17-.28.78-.66,1.05-1.2.27-.55.2-1.73.47-2.33.26-.59.62-.84.86-1.61.08-.25.26-1.75.45-2.27.33-.86,1.35-2.14,2.36-2.99,0,2.04.03,2.61.38,4.97,1-1.01,1.73-1.7,2.38-2.52-.03,1.52-.17,1.87-.73,3-.5.99-.26,1.52-.75,2.52-.49,1.01-1.26,1.21-1.67,1.86-.54.84-.27,2.23-.94,2.89-.45.45-.66.82-.5,1.98-.39-.66-.9-1.08-1.33-1.36-.84-.53-1.96-.41-2.41.6-.15-.23-.31-.48-.51-.69.15-.28.3-.58.44-.89M700.32,89.66c0,1.95-1.72,3.9-3.86,5.49.28-1.05.45-2.21.45-3.54v-7.1c0-1.13-.09-2.75.08-4.05,1.57-1.16,2.68-2.45,3.45-3.77-.02,4.59-.12,11.62-.12,12.96M696.88,97.83c1.61-1.22,2.79-2.56,3.5-3.83-.03,3.19-.07,6.1-.07,6.92,0,1.81-1.48,3.62-3.41,5.14v-5.85c0-.68-.03-1.53-.02-2.38M700.31,117.33c0,1.81-1.48,3.62-3.41,5.13v-4.18c0-1.01-.07-6.58.04-9.25,1.61-1.24,2.79-2.61,3.48-3.88-.02,4.56-.11,10.9-.11,12.17M694.7,85.29v5.86c0,3.81-1.9,6.21-3.94,7.53.4-1.19.64-2.56.64-4.16v-8.63c0-.45,0-.94.01-1.42,1.09-.67,1.98-1.44,2.72-2.28.23-.12.45-.23.67-.34-.07.83-.1,1.94-.1,3.45M691.3,114c.07-.55.1-1.14.1-1.75v-8.63c0-.65,0-1.38.05-2.08.84-.5,1.66-1.11,2.41-1.87.29-.14.58-.29.85-.45,0,.51-.01,1.1-.01,1.76v5.87c0,3.47-1.58,5.77-3.4,7.15M694.7,119.06v5.87c0,3.41-1.51,5.68-3.3,7.07v-7.24c0-.73-.01-5.07.07-7.54,1.18-.71,2.33-1.63,3.28-2.88-.04,1.59-.05,3.63-.05,4.72M689.19,105.95v5.83c0,3.93-2.02,6.37-4.14,7.66.03-.42.05-.84.05-1.3v-10.11c0-.32,0-1.8,0-3.12.82-.42,1.65-.95,2.44-1.59.51-.19,1.1-.41,1.71-.67,0,1.09-.06,1.08-.06,3.3M689.19,127.09v5.84c0,3.9-1.98,6.32-4.09,7.63v-9.99c0-.42,0-5.21,0-7.92,1.46-.77,2.96-1.81,4.14-3.37-.02,2.29-.05,6.12-.05,7.82M684.62,101.97c.31-1.07.48-2.29.48-3.67v-10.74c.74-.38,1.48-.85,2.2-1.4.68-.18,1.31-.38,1.91-.61-.03.67-.01,1.48-.01,2.68v5.84c0,4.2-2.3,6.69-4.57,7.91M682.9,111.24v6.44c0,4.35-2.67,7.12-4.83,8.1.3-1.05.47-2.24.47-3.59v-.14s0,0,0,0c0-.15,0-.29,0-.45v-2.33h0v-3.77c0-1.56-.09-4.52-.04-6.67,1.29-.63,2.63-1.49,3.78-2.71.23-.09.47-.19.73-.29-.07,1.83-.1,4.24-.1,5.38M682.9,133.78v6.44c0,4.62-2.95,7.22-4.79,8.02.42-.55.43-1.84.43-4.08v-6.1c0-.72-.02-4.53-.03-9.29,1.52-.68,3.2-1.68,4.49-3.38-.06,3.14-.1,7.27-.1,8.38M678.49,91.49c1.29-.64,2.64-1.49,3.78-2.72.23-.08.47-.18.72-.28-.06.81-.1,1.77-.1,2.9v6.44c0,4.43-2.55,6.95-4.93,8.09.36-1.14.57-2.44.57-3.94v-6.31c0-1.42-.07-2.83-.05-4.18M671.09,109.77c.42-.55.88-2.06.88-4.3v-10.31c1.17-.58,2.38-1.34,3.44-2.4.31-.12.66-.24,1.03-.38-.07.83-.1,1.75-.1,2.8v6.34c0,4.62-2.78,7.16-5.25,8.24M676.34,115.03c0,1.21-.1,7.4-.1,8.14,0,3.21-2.95,5.85-5.14,6.81.42-.55.88-2.06.88-4.29v-13.17c1.17-.58,2.38-1.34,3.44-2.39.33-.12.69-.26,1.09-.42-.11,1.71-.17,3.98-.17,5.32M676.34,137.56v7.35c0,.92-.09,3.63-.1,6.73,0,0,0,0,0,0v4.93c0,3.09-2.95,5.85-5.14,6.8.42-.55.88-2.06.88-4.3v-26.34c1.37-.68,2.8-1.61,3.98-2.97.13-.05.27-.1.42-.16-.03,4.13-.04,7.33-.04,7.96M719.56,32.51h0c-.57.16-3.61.68-3.99.3.67-.35,1.12-.55,2.39-1.35.93.07,1.82.64,3.26,1.51-.8-.33-.89-.6-1.65-.45M799.19,113.47c.63.24,1.18.43,1.61.6-1.73-2.62-1.61-6.85-1.61-7.86v-10.11c.63.24,1.18.43,1.61.61-1.73-2.62-1.61-6.86-1.61-7.86v-23.54c0-6.51-9.95-22.29-18.37-22.5-5.98-.14-12.99,8.25-21.57,6.08-2.75-.72-4.95-3.67-6.77-7.32-3.2-6.53-6.27-15.27-14.06-20.33-8.62-5.59-18.54.65-19.68,1.65-.97.9-2.53,3.58-3.36,4.01-2.7,1.41-3.14,3.77-3.14,4.66s.2,3.07,1.84,4.3c-.23-1.06-.29-1.66-.04-2.2,1.07.18,3.43.66,4.96.04.75.75,2.54,2.19,3.31,3.67,1.09,2.06,1.1,2.37,1.1,3.18,0,2.09-.98,5.08-3.96,7.03-3.13,2.23-10.52,3.48-19.77.31-5.01-1.71-7.06-5.19-11.54-5.07-8.42.21-18.38,15.99-18.38,22.5v23.54c0,1,.13,5.24-1.6,7.86.44-.18.98-.37,1.6-.61v10.11c0,1,.13,5.24-1.6,7.86.44-.17.98-.37,1.6-.6v12.96c0,1,.13,5.24-1.6,7.86.44-.18.98-.35,1.6-.59v26.13c0,.75.07,3.32-.62,5.67-.23.78.3,1.72,1.12,1.4,3.37-1.34,8.28-3.97,8.28-11.3v-4.13c2.42-1.06,5.33-2.95,6.26-7.53,2.75-1.36,5.79-3.73,6.46-8.51,2.82-1.64,5.61-4.47,5.64-9.95,2.45-1.85,3.9-4.03,4.19-5.71.2-1.14.34-3.85.4-6.98,1.77-1.29,3.04-2.76,3.77-4.1-.29,6.8-1.64,15.93-4.84,28.59.56,0,1.32-.13,2.09-.31-.42,2.55-2.59,8.63-4.05,11.38-.2-.01-.4-.01-.64.02-.48.09-.82.54-1.06,1.12-.65-1-1.47-2.62-3.39-2-.99.33-1.36,1.1-1.43,1.93-1.59,1-12.37,7.69-12.37,7.69v16.66c16.01,9.48,33.64,15.19,52.67,15.59.62.62,2.31,1.91,2.31,1.91,0,0,1.69-1.29,2.32-1.91,19.02-.39,36.66-6.11,52.67-15.59v-16.66s-11.69-7.26-12.53-7.79c-.1-.79-.48-1.52-1.43-1.83-1.91-.62-2.73,1-3.38,2-.23-.58-.58-1.03-1.06-1.12-.23-.03-.45-.03-.63-.02-1.45-2.76-3.63-8.83-4.06-11.38.77.18,1.53.31,2.09.31-3.2-12.65-4.56-21.79-4.84-28.59.72,1.34,1.99,2.8,3.75,4.09.06,3.14.2,5.86.39,7,.29,1.68,1.76,3.87,4.21,5.72.03,5.47,2.83,8.31,5.64,9.94.67,4.78,3.71,7.15,6.46,8.51.94,4.58,3.83,6.47,6.26,7.53v4.13c0,7.24,4.79,9.9,8.16,11.26.86.34,1.57-.31,1.35-.94-.83-2.45-.75-5.29-.75-6.08v-26.1c.63.24,1.18.38,1.61.56-1.73-2.63-1.61-6.86-1.61-7.86v-12.96ZM775.08,171.35c-.23.09-.46.18-.69.27-.07-.16-.12-.32-.19-.48.15-.29.3-.58.46-.87.31.1.62.21.94.32.07.16.13.32.2.48-.24.09-.47.19-.71.28M773.99,168.57c-.44.87-.9,1.74-1.36,2.6.12.33.24.65.36.97-.47.17-.95.35-1.43.52-.85-2.39-1.7-4.78-2.55-7.18-.13-.37-.12-.79.35-1.1-.85-.33-1.7-.68-2.54-1.03,1.11,3.26,2.23,6.53,3.34,9.79.14.41.28.82.42,1.23.36-.12.72-.25,1.08-.37l.34-.12c1.19-.42,2.38-.88,3.57-1.34.71-.28,1.41-.57,2.11-.86-.3-.72-.6-1.44-.9-2.15-.93-.31-1.86-.64-2.78-.97M784.64,168.48c.45-.23.9-.46,1.36-.69-1.37-2.64-2.75-5.28-4.12-7.91-.18-.35-.23-.76.21-1.14-.9-.21-1.8-.43-2.68-.66,1.55,3.08,3.1,6.16,4.65,9.24.2.39.39.77.59,1.16M760.26,89.69s.03.04.02.06c0,.02-.02.04-.04.04l-1.37.31-.3,1.19s-.03.04-.05.04h0s-.04-.01-.05-.03l-.68-1.1-1.37-.04s-.05-.02-.05-.04c-.01-.03,0-.05,0-.07l.87-1.01-.34-1.28s0-.05.02-.06c.02-.01.04-.02.07,0l1.24.55,1.08-.7s.03-.01.04-.01.03,0,.04.01h0s.03.04.02.06l-.24,1.2,1.1.88ZM746.52,104.21l-.61-2.35s-.03-.04-.05-.04c-.02,0-.04,0-.05.03,0,0-1.19,1.73-1.56,2.21-.6-.02-2.71-.17-2.71-.17-.03,0-.04.01-.06.04,0,.01,0,.04,0,.06l1.47,1.95c-2.62,1-5.47,1.56-8.44,1.56s-6.01-.59-8.71-1.66l1.38-1.84s.02-.04.01-.07c-.02-.02-.04-.04-.06-.03,0,0-2.12.16-2.71.17-.36-.47-1.56-2.21-1.56-2.21-.01-.02-.04-.03-.06-.03-.03,0-.04.02-.05.04l-.56,2.16c-4.82-2.93-8.51-7.53-10.29-12.99l2.2-.06s.04-.02.05-.04c.01-.02,0-.04,0-.06,0,0-1.38-1.56-1.78-2.02.16-.6.73-2.59.73-2.6,0-.02,0-.04-.01-.05-.02-.02-.04-.02-.07-.01l-2.04.91c-.16-1.11-.25-2.24-.25-3.39,0-4.83,1.45-9.32,3.94-13.08l1.35,1.6s.02.02.04.02c0,0,0,0,.01,0,.02,0,.04-.03.04-.05,0,0,.35-2.06.47-2.63.57-.25,2.54-1.01,2.54-1.02.03-.01.04-.03.04-.05,0-.02-.01-.04-.04-.06l-1.93-1c3.86-4.11,9.17-6.85,15.1-7.39l-.43,2.21s0,.04.03.06c0,0,.02.01.03.01,0,0,.02,0,.03,0,0,0,1.83-1.05,2.36-1.32.53.26,2.37,1.31,2.37,1.31.02,0,.04,0,.06,0,.02-.01.03-.04.03-.06l-.44-2.23c6.01.46,11.41,3.17,15.34,7.29l-2.17,1.13s-.04.04-.03.05c0,.03.01.05.04.05,0,0,1.97.76,2.54,1.02.12.58.47,2.63.47,2.63,0,.03.03.04.05.05,0,0,.01,0,.01,0,.03,0,.04-.01.05-.02l1.54-1.83c2.58,3.8,4.09,8.38,4.09,13.31,0,1.2-.1,2.38-.27,3.54l-2.37-1.05s-.05,0-.07,0c-.02.02-.03.04-.02.06,0,0,.58,2,.74,2.6-.4.46-1.77,2.02-1.78,2.02-.02.02-.02.04-.01.06.01.02.04.04.06.04l2.55.07c-1.82,5.57-5.62,10.24-10.59,13.17M747.15,105.67s0,.03-.02.03l-1.08.59v1.39s0,.04-.02.06h-.03s-.03,0-.04-.01l-1.09-.86-.67.28-.46.19h0s0,0,0,0c-.02,0-.04,0-.05-.01,0-.01,0-.02,0-.03,0-.01-.01-.02,0-.03l.18-.5.26-.69-.34-.46h0l-.47-.63s0-.02,0-.03c0-.01-.01-.03,0-.04,0-.01.02-.01.03-.02.01,0,.01-.02.02-.02l1.31.04.81-1.06s.04-.02.06-.02c.02,0,.04.02.05.04,0,0,0,0,0,0l.2.77.14.55.91.3.31.1s.04.03.04.05c0,.01-.01.03-.02.03M725.38,104.93s0,.02,0,.04l-.47.63-.35.46.19.51.25.69s0,.05-.01.07c0,0,0,0-.01,0-.01,0-.03.01-.05,0l-.3-.13-.6-.25s.02,0,.03.01l-.26-.11-.41.33-.68.53s-.03.01-.04.01h-.03s-.03-.04-.03-.06v-1.39s-1.07-.58-1.07-.58c-.03-.01-.04-.04-.04-.06h0s.02-.04.04-.05l.61-.2.61-.2.18-.72.16-.6s.03-.04.05-.04c.03,0,.05,0,.06.02h0l.4.53.41.53,1.3-.03s.05,0,.06.03c0,0,0,.02,0,.03M710.21,91.31s-.03.03-.05.03h-.01s-.04-.03-.05-.04l-.3-1.19-1.37-.31s-.04-.02-.05-.04c0-.02,0-.05.02-.06l1.1-.88h0s-.05-.26-.05-.26h0s-.19-.94-.19-.94c0-.01,0-.03.01-.04,0,0,.01-.01.01-.02.02-.01.04-.01.07,0l1.08.7.67-.29.58-.26s.05,0,.07,0c.02.01.03.04.02.06l-.35,1.28.87,1.01s.02.04,0,.07c0,.02-.03.03-.05.04l-1.37.04-.68,1.1ZM713.28,69.3l.73-.98-.62-1.25s0-.05,0-.07c.02-.02.04-.03.06-.02l1.39.31.8-.94s.05-.03.07-.02c.02,0,.04.03.04.05l.1,1.28,1.22.64s.04.03.04.05c0,.03-.01.05-.04.06l-1.2.54-.26,1.31s-.02.04-.04.05h-.01s-.04,0-.05-.02l-.33-.39-.55-.66-1.22.16h-.05s-.05,0-.07-.03c-.01-.02-.01-.05,0-.07M732.41,58.28s.02-.03.04-.03l1.22-.06.6-1.27s.03-.04.05-.04c.03,0,.05.01.05.04l.61,1.27h.1s0,0,0,0l.83.04h0c.1,0,.2,0,.3.01.02,0,.03.02.03.04h0s0,.05-.01.06l-.92.89.27,1.35s-.01.04-.03.06c-.01,0-.03.01-.03.01-.01,0-.02,0-.03,0l-1.18-.6-1.18.6s-.04,0-.07,0c-.01-.01-.03-.04-.02-.06l.12-.63.14-.72-.92-.89s-.02-.04-.01-.06c0,0,0-.01.01-.01M752.29,67.95l.53-.27.1-1.28s.01-.04.04-.05c.01,0,.03,0,.03,0,.01,0,.03.01.03.02l.8.94.11-.03,1.27-.29s.04,0,.06.03c.01.01.01.04,0,.06l-.62,1.25.73.98s.03.04,0,.07c-.01.02-.04.03-.05.03l-1.28-.16-.88,1.05s-.03.03-.04.03c-.01,0-.01,0-.02,0-.02,0-.04-.02-.04-.05l-.27-1.31-1.2-.54s-.04-.03-.04-.05.01-.05.04-.05l.69-.36ZM760.5,85.79s0-.05-.03-.06c-.03-.02-.05-.02-.07,0,0,0-.21.15-.5.35.07-.79.12-1.58.12-2.38,0-4.86-1.37-9.4-3.74-13.27.47.08.84.14.84.14.03,0,.05,0,.07-.03.01-.02.01-.04,0-.07,0,0-1.19-1.77-1.54-2.25.27-.55,1.09-2.37,1.09-2.37.01-.02,0-.05,0-.06-.01-.02-.04-.03-.06-.03l-2.52.58c-.4-.47-1.82-2.05-1.82-2.05-.02-.02-.04-.03-.07-.02-.02.01-.04.03-.04.05l-.08.96c-3.9-3.74-8.99-6.26-14.64-6.92.43-.39.81-.73.81-.73.02-.01.02-.04.02-.07-.01-.03-.03-.04-.06-.04,0,0-2.15-.15-2.74-.18-.26-.54-1.16-2.31-1.16-2.31l-.02-.03s-.03-.01-.05-.01c-.01,0-.03.01-.04.03,0,0-.9,1.77-1.15,2.32-.59.03-2.74.17-2.74.17-.03,0-.05.02-.06.04,0,.02,0,.05.02.07,0,0,.39.35.84.76-5.68.74-10.77,3.35-14.64,7.2l-.1-1.27s-.01-.04-.04-.05c-.02,0-.04,0-.07.02,0,0-1.41,1.57-1.82,2.05l-2.52-.58s-.04,0-.06.02c-.01.02-.02.05,0,.07,0,0,.82,1.82,1.09,2.37-.35.48-1.54,2.25-1.54,2.25-.02.02-.02.05,0,.07.01.02.04.03.06.02,0,0,.58-.1,1.22-.21-2.39,3.88-3.77,8.45-3.77,13.33,0,.89.05,1.78.14,2.65-.47-.33-.87-.62-.87-.62-.02-.02-.05-.02-.07,0-.02.01-.03.03-.03.06,0,0,.29,2.1.41,2.7l-2.04,1.62s-.03.04-.02.06c0,.02.02.04.05.05,0,0,1.95.48,2.55.61.15.59.79,2.6.79,2.61,0,.02.03.04.05.04h0s.04-.01.05-.03c0,0,.25-.45.54-.97,1.9,5.16,5.42,9.55,9.94,12.53-.59.16-1.1.31-1.1.31-.03,0-.04.03-.05.05,0,.03.01.05.03.06,0,0,1.86,1.07,2.38,1.36,0,.35.04,2.61.04,2.61,0,.02.01.04.03.05.01,0,.02,0,.03,0,.01,0,.03,0,.04-.02l2.04-1.6,2.55,1.07s.05,0,.07,0c.02-.02.03-.05.01-.07,0,0-.2-.48-.42-1.04,2.63.92,5.44,1.42,8.37,1.42,2.78,0,5.46-.45,7.96-1.28-.2.5-.36.89-.36.89,0,.02,0,.05.02.07.01.02.04.02.06.01l2.55-1.07,2.04,1.6s.03,0,.04,0h.02s.04-.03.04-.05c0,0,.03-2.25.03-2.6.52-.28,2.39-1.36,2.39-1.36.03-.01.04-.03.03-.06,0-.03-.02-.04-.04-.05,0,0-.38-.11-.86-.25,4.46-2.92,7.96-7.19,9.9-12.23.19.34.33.6.33.6.01.02.04.03.05.03h.01s.04-.02.05-.04c0,0,.64-2.02.79-2.61.6-.13,2.55-.62,2.55-.62.02,0,.04-.02.04-.04,0-.02,0-.05-.03-.06l-2.03-1.62c.11-.6.41-2.7.41-2.7M781.14,168.18c.07.16.14.31.22.47-.23.11-.47.22-.7.32-.22.11-.45.21-.68.31-.07-.16-.14-.31-.21-.47.14-.3.28-.59.41-.89.32.09.64.18.96.26M779.82,165.36c-.13.3-.27.6-.4.91-.31-.1-.62-.19-.93-.29-.93-2.04-1.85-4.09-2.77-6.13-.39.93-.79,1.86-1.2,2.79.56-.09.98.16,1.14.5.53,1.22,1.07,2.45,1.6,3.68.03.08.07.16.1.24.49.16.99.32,1.49.47-.22.47-.44.95-.67,1.43.31.71.62,1.43.93,2.14.7-.3,1.39-.61,2.09-.93.69-.32,1.39-.65,2.07-.98-.34-.7-.68-1.4-1.02-2.1-.51-.14-1.02-.28-1.52-.42.21-.48.41-.96.62-1.44-.63-1.28-1.25-2.57-1.87-3.85-.17-.34-.08-.82.36-1.19-.97-.29-1.94-.59-2.89-.9.95,2.03,1.91,4.06,2.86,6.09M748.96,169.47c-.76-.51-1.51-1.02-2.24-1.54.46,3.86.92,7.7,1.38,11.56.5-.06,1-.12,1.49-.19-.39-2.95-.79-5.89-1.18-8.84-.05-.39.03-.79.55-.99M763.78,167.19c-.11-.38-.08-.79.41-1.07-.83-.38-1.65-.77-2.47-1.17.93,3.32,1.87,6.64,2.8,9.96.12.42.24.83.35,1.25.48-.14.96-.27,1.44-.42-.84-2.85-1.69-5.7-2.53-8.55M740.16,177.57c-.31-.5-.63-1.01-.93-1.51.14,0,.29-.01.43-.02.01-.38.14-.58.38-.8.26.19.42.38.47.76.14,0,.29-.02.43-.03-.26.53-.52,1.06-.79,1.6M743.56,170.08c.55.08.72.46.76.85.24,2.53.47,5.06.71,7.59-1.31.12-2.61.22-3.91.29.7-1.42,1.38-2.85,2.03-4.28-.56.04-1.13.08-1.7.12-.24-.44-.94-.92-1.47-.94-.51.08-1.17.62-1.35,1.08-.57.02-1.14.04-1.7.04.78,1.37,1.59,2.72,2.43,4.07-1.27.05-2.55.08-3.82.09,0-1.3-.01-2.59-.02-3.89-.71.65-1.43,1.3-2.17,1.93.44,0,.72.28.72.67-.01,1.07-.02,2.15-.03,3.23,0,.72-.68,1.3-1.52,1.28-.67-.01-1.22-.39-1.41-.9.2.87,1.1,1.55,2.19,1.56,1.26.02,2.26-.86,2.25-1.94,0-.21,0-.42,0-.64,1.59-.01,3.17-.05,4.75-.13,1.62-.08,3.24-.2,4.86-.34.07,0,.14-.01.21-.02.43-.04.86-.08,1.28-.13-.41-3.86-.82-7.71-1.23-11.58-.6.68-1.22,1.34-1.84,2M760.1,172.58c.59-.01.82.33.91.69.2.8.41,1.6.6,2.4-2.15.54-4.31,1.02-6.48,1.43-.29.05-.59.11-.88.16-.45-.27-.9-.54-1.34-.82,1.02-1.03,1.65-2.87,1.26-4.41-.25,2.15-1.22,3.66-3.61,4.53,1.09.71,2.2,1.41,3.33,2.09.5-.09.99-.18,1.48-.27,2.69-.51,5.37-1.12,8.02-1.83-.55-2.08-1.11-4.16-1.66-6.25-.53.77-1.07,1.52-1.63,2.28M767.53,169.93c-.48.84-.98,1.68-1.49,2.5.41-.13.77.04.89.41.31,1.03.64,2.06.96,3.09.21.68-.28,1.45-1.09,1.69-.64.19-1.27,0-1.61-.43.45.77,1.51,1.14,2.57.82,1.23-.37,1.93-1.52,1.59-2.54-.6-1.85-1.2-3.69-1.8-5.54M716.99,27.46c-.48,0-.86.32-.86.71,0,.35.31.64.73.69-.04-.05-.05-.12-.05-.18,0-.29.36-.53.81-.53.09,0,.18.01.25.03h0c0-.4-.39-.72-.87-.72"/>
  <g>
    <g>
      <path class="cls-1" d="M64.82,80.91c0,1.46-.33,3.9-.99,7.3-.86,2.46-2.06,5.37-3.61,8.72H27.87c-2.58,0-4.91-.82-7-2.45-2.26-1.72-3.39-3.84-3.39-6.36,0-1.92.52-4.93,1.55-9.02,1.17-4.78,2.33-7.18,3.48-7.18.4,0,.43.97.09,2.92-.46,2.69-.69,4.63-.69,5.8,0,1.75.34,3.04,1.03,3.87,2,2.41,4.74,3.61,8.21,3.61h27.89c.34-.29.52-.76.52-1.42,0-.46-.34-1.69-1.03-3.7-.72-1.17-1.58-2.58-2.58-4.21l4.51-7.82c2.92,3.64,4.38,6.95,4.38,9.93ZM51.89,61.1c-2.52,3.29-4.05,4.94-4.6,4.94-.17,0-1.27-.56-3.29-1.68s-3.06-1.68-3.12-1.68c-1,.95-2.06,2.03-3.18,3.27-.72-.2-1.85-.7-3.39-1.5s-2.55-1.45-3.01-1.93c1.12-1.17,2.66-2.78,4.64-4.81.43.49,1.36,1.15,2.79,1.98,1.43.83,2.41,1.25,2.92,1.25.23,0,.83-.49,1.8-1.46,1.09-1.06,1.75-1.65,1.98-1.76l6.45,3.39Z"/>
      <path class="cls-1" d="M80.21,83.91c0,6.16-1.46,11.23-4.38,15.21l-3.87-34.12c0-.83,1.99-4.33,5.97-10.48,1.52,8.74,2.28,18.53,2.28,29.39Z"/>
      <path class="cls-1" d="M106.46,91.13c0,5.13-1.71,10.53-5.11,16.2-3.04,5.04-6.39,7.56-10.05,7.56-1.66,0-5.11-.97-10.36-2.92-5.47-2.03-8.21-3.52-8.21-4.47,0-.49.24-.73.73-.73.63,0,2.14.43,4.53,1.29,2.39.86,4.28,1.29,5.65,1.29,2.78,0,6.59-2.11,11.43-6.32,4.96-4.27,7.43-7.73,7.43-10.4,0-1.15-1.2-2.91-3.61-5.29-1.75-1.72-3.37-3.14-4.86-4.25.4-.86,1.4-3.78,3.01-8.77,2.03,1.09,3.94,2.85,5.71,5.29,2.46,3.41,3.7,7.25,3.7,11.52Z"/>
      <path class="cls-1" d="M128.07,96.93h-11.6l-3.44-38.2,5.63-6.79c.17,2.49.76,8.89,1.76,19.21l1.55,14.95c.34,1.35,1.36,2.02,3.05,2.02h3.05v8.81Z"/>
      <path class="cls-1" d="M134.52,96.93h-8.21v-8.81h8.21v8.81Z"/>
      <path class="cls-1" d="M140.06,96.93h-8.21v-8.81h8.21v8.81Z"/>
      <path class="cls-1" d="M145.61,96.93h-8.21v-8.81h8.21v8.81Z"/>
      <path class="cls-1" d="M151.15,96.93h-8.21v-8.81h8.21v8.81Z"/>
      <path class="cls-1" d="M156.69,96.93h-8.21v-8.81h8.21v8.81Z"/>
      <path class="cls-1" d="M162.23,96.93h-8.21v-8.81h8.21v8.81Z"/>
      <path class="cls-1" d="M167.78,96.93h-8.21v-8.81h8.21v8.81Z"/>
      <path class="cls-1" d="M173.32,96.93h-8.21v-8.81h8.21v8.81Z"/>
      <path class="cls-1" d="M178.86,96.93h-8.21v-8.81h8.21v8.81Z"/>
      <path class="cls-1" d="M184.41,96.93h-8.21v-8.81h8.21v8.81Z"/>
      <path class="cls-1" d="M189.95,96.93h-8.21v-8.81h8.21v8.81Z"/>
      <path class="cls-1" d="M195.49,96.93h-8.21v-8.81h8.21v8.81Z"/>
      <path class="cls-1" d="M201.04,96.93h-8.21v-8.81h8.21v8.81Z"/>
      <path class="cls-1" d="M206.58,96.93h-8.21v-8.81h8.21v8.81Z"/>
      <path class="cls-1" d="M212.12,96.93h-8.21v-8.81h8.21v8.81Z"/>
      <path class="cls-1" d="M217.66,96.93h-8.21v-8.81h8.21v8.81Z"/>
      <path class="cls-1" d="M223.21,96.93h-8.21v-8.81h8.21v8.81Z"/>
      <path class="cls-1" d="M228.75,96.93h-8.21v-8.81h8.21v8.81Z"/>
      <path class="cls-1" d="M234.29,96.93h-8.21v-8.81h8.21v8.81Z"/>
      <path class="cls-1" d="M270.99,87.27c0,.23-.8,1.67-2.41,4.32-1.6,2.65-2.56,4.1-2.88,4.36l-15.86-5.71c-.8.17-1.76,1.39-2.88,3.65-1.06,2.15-2.01,3.17-2.84,3.05h-11.95v-8.81h14.27l.09-.26c.63-1.46,1.65-3.62,3.05-6.49,2-3.7,4.94-6.49,8.81-8.38.2,0,1.17-.38,2.9-1.14,1.73-.76,3.06-1.14,3.97-1.14s1.42.23,1.59.69c.17.83.49,2.06.95,3.7.46,1.35,1.13,3.34,2.02,5.97.77,2.35,1.16,4.41,1.16,6.19ZM263.6,85.59c-.57-1.55-1.07-2.82-1.5-3.82-.89-1.92-1.56-2.91-2.02-2.96-1.23,0-2.46.3-3.7.9-.66.4-1.3.77-1.93,1.12l-.9.64,10.05,4.12Z"/>
      <path class="cls-1" d="M320.36,57.62c-.46.8-2.05,3.32-4.77,7.56-.77,0-1.32-.09-1.63-.26-.6-.32-.99-.5-1.16-.56,0,2.95-.64,5.89-1.93,8.81-1.46,3.27-2.55,5.26-3.27,5.97l1.38,2.88c.89,1.86,1.43,3.5,1.63,4.9.11.83.17,1.68.17,2.54,0,1.35-.12,2.94-.34,4.77l-.39,2.71h-22.77c-1.35,0-2.02-1.82-2.02-5.46,0-1.2.1-2.62.3-4.25.23-1.92.47-2.88.73-2.88.03,0,.42.56,1.18,1.68.76,1.12,1.84,1.68,3.24,1.68.89,0,1.92-.39,3.09-1.16,1.12-.92,2.08-1.65,2.88-2.19,2.15-1.46,3.71-2.81,4.68-4.04,0-.54-1.62-2.54-4.86-5.97-2.46-2.64-4.14-3.95-5.03-3.95-.12,0-.31.42-.58,1.27-.27.84-.61,1.27-1.01,1.27-.26-.26-1.19-.93-2.79-2.02-2.03-1.4-3.94-2.46-5.71-3.18-2.01-.8-3.01-2.59-3.01-5.37,0-1.98.97-5.11,2.92-9.41,2.29.06,6.77,3.05,13.45,8.98,2.21,1.95,4.38,4.41,6.53,7.39.86,1.26,2.15,3.14,3.87,5.63,1.52-2.46,2.28-6.1,2.28-10.91,0-1.6-.37-2.97-1.1-4.1s-1.1-1.67-1.1-1.61c.06-.23,2.16-3.51,6.32-9.84.17,2.26,1.17,4.01,3.01,5.24,3.87,2.12,5.8,3.42,5.8,3.91ZM297.5,110.64c-.32.83-1.2,2.11-2.66,3.82-.26-.03-.53-.04-.82-.04-3.04,0-7.08,1.73-12.12,5.2.72-2.09,2.48-3.78,5.29-5.07-.23-.17-1.32-.53-3.27-1.07-1.55-.43-2.31-.99-2.28-1.68.03-2.03.79-4.03,2.28-5.97,1.78-2.35,4.04-3.52,6.79-3.52h.09c.49,0,1.04.29,1.68.86.63.57.95,1.1.95,1.59-.46.83-1.13,1.95-2.02,3.35l-1.8-1.46c-.6-.49-1.17-.73-1.72-.73-.69,0-1.86.7-3.52,2.11,1.15,1.32,2.82,2.05,5.03,2.19,2.09.14,4.8.29,8.12.43ZM305.66,88.3c-.29-1.63-1.13-3.45-2.54-5.46-1.49,2-3.34,3.77-5.54,5.29.46.26,1.72.4,3.78.43,1.86.03,3.29-.06,4.3-.26Z"/>
      <path class="cls-1" d="M336.09,83.91c0,6.16-1.46,11.23-4.38,15.21l-3.87-34.12c0-.83,1.99-4.33,5.97-10.48,1.52,8.74,2.28,18.53,2.28,29.39Z"/>
      <path class="cls-1" d="M409.95,96.93h-4.94c-2.98,0-5.03-1.93-6.14-5.8-1.06,1.4-2.35,3.34-3.87,5.8h-29.22c-2.52,0-4.53-.83-6.04-2.49s-2.26-3.77-2.26-6.32c0-1.92.49-4.8,1.46-8.64,1.17-4.55,2.36-6.83,3.57-6.83.11,0,.17.11.17.34,0,.66-.24,1.93-.71,3.8s-.71,3.3-.71,4.28c0,1.55.33,2.69.99,3.44,1.2,1.4,2.05,2.32,2.54,2.75.83.57,2,.86,3.52.86h29.13l.17-.26c.52-1.06.84-3.78.99-8.16,1.23-1.55,2.98-3.7,5.24-6.45,0,2.89-.29,6.17-.86,9.84-.23,1.38.19,2.56,1.25,3.54,1.06.99,2.29,1.48,3.7,1.48h2.02v8.81ZM388.21,111.54c0,.4-.81,1.23-2.43,2.49-1.62,1.26-2.66,1.89-3.12,1.89-.37,0-1.33-.65-2.88-1.96-1.55-1.3-2.32-2.11-2.32-2.43,0-.29.78-1.18,2.34-2.69,1.56-1.5,2.51-2.26,2.86-2.26,1.26,0,2.5.52,3.72,1.57,1.22,1.04,1.83,2.17,1.83,3.37Z"/>
      <path class="cls-1" d="M416.82,96.93h-8.21v-8.81h8.21v8.81Z"/>
      <path class="cls-1" d="M444.37,96.93h-4.21c-3.41,0-5.56-1.93-6.45-5.8l-3.27,5.8h-15.64v-8.81h17.88l.17-.26c.52-1.06.8-3.78.86-8.16l5.2-6.27c0,3.41-.23,6.63-.69,9.67-.23,1.4.23,2.61,1.38,3.61,1.06.95,2.26,1.42,3.61,1.42h1.16v8.81ZM440.5,59.72c-2.75,3.64-4.46,5.46-5.11,5.46.23,0-2.12-1.23-7.05-3.7-1.17,1.06-2.38,2.23-3.61,3.52-.8-.2-2.05-.75-3.74-1.63-1.83-.92-2.94-1.63-3.31-2.15,1.23-1.23,2.94-2.99,5.11-5.29.46.49,1.48,1.21,3.07,2.17s2.66,1.44,3.2,1.44c.23,0,.92-.57,2.08-1.72s1.9-1.78,2.21-1.89l7.13,3.78Z"/>
      <path class="cls-1" d="M451.24,96.93h-8.21v-8.81h8.21v8.81Z"/>
      <path class="cls-1" d="M456.79,96.93h-8.21v-8.81h8.21v8.81Z"/>
      <path class="cls-1" d="M462.33,96.93h-8.21v-8.81h8.21v8.81Z"/>
      <path class="cls-1" d="M467.87,96.93h-8.21v-8.81h8.21v8.81Z"/>
      <path class="cls-1" d="M473.41,96.93h-8.21v-8.81h8.21v8.81Z"/>
      <path class="cls-1" d="M478.96,96.93h-8.21v-8.81h8.21v8.81Z"/>
      <path class="cls-1" d="M484.5,96.93h-8.21v-8.81h8.21v8.81Z"/>
      <path class="cls-1" d="M490.04,96.93h-8.21v-8.81h8.21v8.81Z"/>
      <path class="cls-1" d="M495.59,96.93h-8.21v-8.81h8.21v8.81Z"/>
      <path class="cls-1" d="M528.76,96.93h-6.06c-.89-.89-3.09-3.12-6.62-6.7-1.17,1.72-2.75,3.95-4.73,6.7h-18.61v-8.81h19.72c.66,0,.96-.32.9-.95l-15.68-14.44c.23-.43.67-1.83,1.31-4.21s1.44-4.67,2.38-6.88c6.5-2.12,14.68-4.58,24.54-7.39l-1.85,8.16c-1.52.43-8.35,2.25-20.5,5.46l21.31,20.24h3.87v8.81Z"/>
      <path class="cls-1" d="M535.38,96.93h-8.21v-8.81h8.21v8.81Z"/>
      <path class="cls-1" d="M540.92,96.93h-8.21v-8.81h8.21v8.81Z"/>
      <path class="cls-1" d="M546.46,96.93h-8.21v-8.81h8.21v8.81Z"/>
      <path class="cls-1" d="M552,96.93h-8.21v-8.81h8.21v8.81Z"/>
      <path class="cls-1" d="M557.55,96.93h-8.21v-8.81h8.21v8.81Z"/>
      <path class="cls-1" d="M563.09,96.93h-8.21v-8.81h8.21v8.81Z"/>
      <path class="cls-1" d="M568.63,96.93h-8.21v-8.81h8.21v8.81Z"/>
      <path class="cls-1" d="M574.18,96.93h-8.21v-8.81h8.21v8.81Z"/>
      <path class="cls-1" d="M579.72,96.93h-8.21v-8.81h8.21v8.81Z"/>
      <path class="cls-1" d="M585.26,96.93h-8.21v-8.81h8.21v8.81Z"/>
      <path class="cls-1" d="M590.81,96.93h-8.21v-8.81h8.21v8.81Z"/>
      <path class="cls-1" d="M596.35,96.93h-8.21v-8.81h8.21v8.81Z"/>
      <path class="cls-1" d="M633.04,87.27c0,.23-.8,1.67-2.41,4.32-1.6,2.65-2.56,4.1-2.88,4.36l-15.86-5.71c-.8.17-1.76,1.39-2.88,3.65-1.06,2.15-2.01,3.17-2.84,3.05h-11.95v-8.81h14.27l.09-.26c.63-1.46,1.65-3.62,3.05-6.49,2-3.7,4.94-6.49,8.81-8.38.2,0,1.17-.38,2.9-1.14,1.73-.76,3.06-1.14,3.97-1.14s1.42.23,1.59.69c.17.83.49,2.06.95,3.7.46,1.35,1.13,3.34,2.02,5.97.77,2.35,1.16,4.41,1.16,6.19ZM625.65,85.59c-.57-1.55-1.07-2.82-1.5-3.82-.89-1.92-1.56-2.91-2.02-2.96-1.23,0-2.46.3-3.7.9-.66.4-1.3.77-1.93,1.12l-.9.64,10.05,4.12Z"/>
    </g>
    <g>
      <path class="cls-1" d="M30.03,130.83c-1.7,2.04-2.66,3.06-2.87,3.06-.11,0-.77-.31-1.97-.94-1.21-.63-1.9-1.01-2.08-1.15-.66.59-1.34,1.27-2.04,2.04-.5-.12-1.21-.43-2.12-.91-.98-.52-1.62-.95-1.91-1.29.7-.7,1.66-1.72,2.87-3.06.29.29.89.72,1.81,1.29.92.57,1.53.86,1.81.86.14,0,.52-.3,1.13-.91.61-.61,1.06-1.02,1.34-1.24l4.03,2.26ZM37.39,156.45h-3.36c-1.07,0-1.84-.72-2.31-2.15-.16-.5-.4-1.75-.73-3.73l-.05-.21-.32.05c-.45.27-1.01,1.11-1.69,2.52-.61,1.25-1.24,1.88-1.88,1.88-.82,0-2.21-.28-4.15-.83-1.94-.55-3.38-.83-4.31-.83,0-.86.38-2.26,1.14-4.19s1.44-3.19,2.03-3.76c.73-.7,1.92-1.49,3.54-2.36,1.77-.95,2.98-1.69,3.63-2.23,0-.21-.08-.51-.25-.89-.17-.38-.26-.66-.26-.86.66-.9,1.6-2.5,2.82-4.81h.05c.29,1.07.76,3.99,1.42,8.75.64,4.58,1.03,6.98,1.16,7.2.29.5.55.8.78.89.11.04.51.05,1.21.05h1.53v5.51ZM30.68,148.31c0-.5-.13-1.55-.4-3.14-.29-1.68-.52-2.61-.7-2.79-.48.38-.83.81-1.05,1.29-.36.77-.59,1.24-.7,1.4-.45.64-1.29,1.23-2.53,1.75-1.32.56-2.06.91-2.2,1.07.63.23,1.85.52,3.68.86,1.36.27,2.64.32,3.84.16l.05-.59Z"/>
      <path class="cls-1" d="M55.06,156.45h-3.46c-1.95,0-3.29-1.21-4.03-3.63l-2.01,3.63h-8.86v-5.51h10.23l.11-.16c.29-.7.46-2.4.54-5.1,1.99-2.61,3.09-3.92,3.3-3.92s.05,2.01-.48,6.04c-.12.86.16,1.6.86,2.23.64.61,1.4.91,2.26.91h1.56v5.51ZM52.03,163.94c-1.65,2.31-2.61,3.46-2.9,3.46-.04,0-.7-.39-1.99-1.15-.43-.25-1.07-.64-1.93-1.15-.66.64-1.36,1.37-2.1,2.18-1.7-.63-3.02-1.41-3.95-2.36.7-.77,1.65-1.89,2.85-3.36.23.3.81.76,1.75,1.36.93.6,1.55.9,1.85.9.12,0,.51-.35,1.15-1.05.73-.79,1.16-1.23,1.26-1.32l4,2.5Z"/>
      <path class="cls-1" d="M59.01,156.45h-5.13v-5.51h5.13v5.51Z"/>
      <path class="cls-1" d="M62.47,156.45h-5.13v-5.51h5.13v5.51Z"/>
      <path class="cls-1" d="M65.94,156.45h-5.13v-5.51h5.13v5.51Z"/>
      <path class="cls-1" d="M69.4,156.45h-5.13v-5.51h5.13v5.51Z"/>
      <path class="cls-1" d="M72.87,156.45h-5.13v-5.51h5.13v5.51Z"/>
      <path class="cls-1" d="M76.33,156.45h-5.13v-5.51h5.13v5.51Z"/>
      <path class="cls-1" d="M79.79,156.45h-5.13v-5.51h5.13v5.51Z"/>
      <path class="cls-1" d="M102.73,150.4c0,.14-.5,1.04-1.5,2.7-1,1.66-1.6,2.56-1.8,2.73l-9.91-3.57c-.5.11-1.1.87-1.8,2.28-.66,1.34-1.25,1.98-1.77,1.91h-7.47v-5.51h8.92l.05-.16c.39-.91,1.03-2.26,1.91-4.06,1.25-2.31,3.09-4.06,5.51-5.24.12,0,.73-.24,1.81-.71,1.08-.47,1.91-.71,2.48-.71s.89.14.99.43c.11.52.3,1.29.59,2.31.29.84.71,2.09,1.26,3.73.48,1.47.73,2.76.73,3.87ZM98.11,149.36c-.36-.97-.67-1.76-.94-2.39-.55-1.2-.98-1.82-1.26-1.85-.77,0-1.54.19-2.31.56-.41.25-.82.48-1.21.7l-.56.4,6.29,2.58Z"/>
      <path class="cls-1" d="M123.41,156.45h-2.2c-.63,2.35-1.83,4.65-3.62,6.93-2.09,2.65-4.13,3.95-6.1,3.89-.93-.02-2.93-.65-5.99-1.91-3.17-1.29-4.75-2.19-4.75-2.71,0-.36.19-.54.56-.54s1.09.21,2.2.62c1.11.41,1.97.63,2.58.64,2.02.05,4.31-.65,6.88-2.12,2.49-1.45,4.29-3.05,5.4-4.81h-.67c-5.64,0-8.46-1.38-8.46-4.14,0-1.11.72-3.18,2.15-6.2,1.72-3.67,3.44-5.51,5.16-5.51,1.5,0,2.85,1.58,4.03,4.73.88,2.38,1.32,4.13,1.32,5.24v.38h1.53v5.51ZM117.74,150v-.16c-.73-2.56-1.77-3.84-3.12-3.84-.9,0-1.71.7-2.44,2.09v.05c0,.82.45,1.48,1.34,1.96.73.41,1.56.62,2.47.62.98,0,1.57-.24,1.75-.73Z"/>
      <path class="cls-1" d="M127.28,156.45h-5.13v-5.51h5.13v5.51Z"/>
      <path class="cls-1" d="M130.74,156.45h-5.13v-5.51h5.13v5.51Z"/>
      <path class="cls-1" d="M151.47,156.45h-3.79c-.55-.55-1.93-1.95-4.14-4.19-.73,1.07-1.72,2.47-2.95,4.19h-11.63v-5.51h12.33c.41,0,.6-.2.56-.59l-9.8-9.02c.14-.27.42-1.15.82-2.63.4-1.49.9-2.92,1.49-4.3,4.06-1.32,9.18-2.86,15.33-4.62l-1.16,5.1c-.95.27-5.22,1.41-12.81,3.41l13.32,12.65h2.42v5.51Z"/>
      <path class="cls-1" d="M155.61,156.45h-5.13v-5.51h5.13v5.51Z"/>
      <path class="cls-1" d="M159.07,156.45h-5.13v-5.51h5.13v5.51Z"/>
      <path class="cls-1" d="M162.54,156.45h-5.13v-5.51h5.13v5.51Z"/>
      <path class="cls-1" d="M166,156.45h-5.13v-5.51h5.13v5.51Z"/>
      <path class="cls-1" d="M212.09,135.15c-.21.27-1.51,2-3.89,5.18,0,.7.35,3.6,1.05,8.7.09.75-.06,1.98-.46,3.68-.14.68-.38,1.72-.7,3.12-.05.41-.64.62-1.77.62h-13.8l-.59-4.14c-.82-.11-2.95-.16-6.39-.16-1.04,0-2.77.72-5.2,2.15-2.43,1.43-4.16,2.15-5.2,2.15h-10.39v-5.51h11.44c1.06,0,2.43-.33,4.11-.99,1.58-.61,2.36-1.03,2.36-1.26-.7-.32-1.98-.8-3.84-1.42-2.24-.77-3.63-1.14-4.19-1.1-.48.04-1.18.31-2.08.82-.9.51-1.62.77-2.14.77-.14,0,.07-.55.64-1.64.63-1.18,1.38-2.23,2.26-3.14,1.27-1.31,2.61-1.96,4.03-1.96,1.56,0,3.28.46,5.16,1.37,3.19,1.52,5.28,2.42,6.28,2.69,3.53.95,6.28,1.42,8.25,1.42-.41,1.29-.89,2.78-1.42,4.46h10.18c.14-.14.21-.51.21-1.1,0-1.47-.38-3.77-1.15-6.92-.77-3.14-1.16-5.27-1.16-6.38-.52-.41-1.15-.91-1.88-1.5,1.65-3.26,2.82-5.29,3.52-6.1,0,1.29.33,2.18.99,2.69,1.54,1,3.46,2.16,5.77,3.46v.05Z"/>
      <path class="cls-1" d="M222.85,148.31c0,3.85-.91,7.02-2.74,9.51l-2.42-21.32c0-.52,1.24-2.7,3.73-6.55.95,5.46,1.42,11.58,1.42,18.37Z"/>
      <path class="cls-1" d="M265.82,146.43c0,.91-.21,2.44-.62,4.57-.54,1.54-1.29,3.36-2.26,5.45h-20.22c-1.61,0-3.07-.51-4.38-1.53-1.42-1.07-2.12-2.4-2.12-3.97,0-1.2.32-3.08.97-5.64.73-2.99,1.46-4.48,2.17-4.48.25,0,.27.61.05,1.83-.29,1.68-.43,2.89-.43,3.63,0,1.09.21,1.9.64,2.42,1.25,1.5,2.96,2.26,5.13,2.26h17.43c.21-.18.32-.47.32-.89,0-.29-.21-1.06-.64-2.31-.45-.73-.99-1.61-1.61-2.63l2.82-4.89c1.83,2.27,2.74,4.34,2.74,6.2ZM257.74,134.05c-1.58,2.06-2.53,3.09-2.87,3.09-.11,0-.79-.35-2.05-1.05-1.26-.7-1.91-1.05-1.95-1.05-.63.59-1.29,1.27-1.99,2.04-.45-.12-1.16-.44-2.12-.94-.97-.5-1.59-.9-1.88-1.21.7-.73,1.67-1.74,2.9-3.01.27.3.85.72,1.75,1.24.89.52,1.5.78,1.83.78.14,0,.52-.3,1.13-.91.68-.66,1.09-1.03,1.24-1.1l4.03,2.12Z"/>
      <path class="cls-1" d="M279.06,156.45h-7.25l-2.15-23.87,3.52-4.24c.11,1.56.47,5.56,1.1,12l.97,9.35c.21.84.85,1.26,1.91,1.26h1.91v5.51Z"/>
      <path class="cls-1" d="M283.09,156.45h-5.13v-5.51h5.13v5.51Z"/>
      <path class="cls-1" d="M286.56,156.45h-5.13v-5.51h5.13v5.51Z"/>
      <path class="cls-1" d="M290.02,156.45h-5.13v-5.51h5.13v5.51Z"/>
      <path class="cls-1" d="M293.48,156.45h-5.13v-5.51h5.13v5.51Z"/>
      <path class="cls-1" d="M296.95,156.45h-5.13v-5.51h5.13v5.51Z"/>
      <path class="cls-1" d="M300.41,156.45h-5.13v-5.51h5.13v5.51Z"/>
      <path class="cls-1" d="M323.35,150.4c0,.14-.5,1.04-1.5,2.7-1,1.66-1.6,2.56-1.8,2.73l-9.91-3.57c-.5.11-1.1.87-1.8,2.28-.66,1.34-1.25,1.98-1.77,1.91h-7.47v-5.51h8.92l.05-.16c.39-.91,1.03-2.26,1.91-4.06,1.25-2.31,3.09-4.06,5.51-5.24.12,0,.73-.24,1.81-.71,1.08-.47,1.91-.71,2.48-.71s.89.14.99.43c.11.52.3,1.29.59,2.31.29.84.71,2.09,1.26,3.73.48,1.47.73,2.76.73,3.87ZM318.73,149.36c-.36-.97-.67-1.76-.94-2.39-.55-1.2-.98-1.82-1.26-1.85-.77,0-1.54.19-2.31.56-.41.25-.82.48-1.21.7l-.56.4,6.29,2.58Z"/>
      <path class="cls-1" d="M348.86,156.45h-3.79c-.3.07-.56-.25-.77-.98-.21-.72-.5-1.59-.87-2.59l-.16-.27-.3.16c-.38.18-.83.9-1.37,2.15-.46,1.09-.89,1.6-1.26,1.53h-11.87c-.79,0-1.16-.38-1.1-1.15.09-1.56.46-3.87,1.1-6.93.5-1.61.87-2.42,1.1-2.42.14,0,.22.83.24,2.5s.45,2.5,1.29,2.5h11.49l.05-.32c.12-.73-.19-2.43-.94-5.08-.77-2.74-1.15-4.06-1.15-3.95l2.63-5.45c.45,1.5,1.5,5.65,3.14,12.43.39,1.58.85,2.36,1.37,2.36h1.16v5.51Z"/>
      <path class="cls-1" d="M352.73,156.45h-5.13v-5.51h5.13v5.51Z"/>
      <path class="cls-1" d="M356.19,156.45h-5.13v-5.51h5.13v5.51Z"/>
      <path class="cls-1" d="M359.66,156.45h-5.13v-5.51h5.13v5.51Z"/>
      <path class="cls-1" d="M363.12,156.45h-5.13v-5.51h5.13v5.51Z"/>
      <path class="cls-1" d="M366.59,156.45h-5.13v-5.51h5.13v5.51Z"/>
      <path class="cls-1" d="M412.67,135.15c-.21.27-1.51,2-3.89,5.18,0,.7.35,3.6,1.05,8.7.09.75-.06,1.98-.46,3.68-.14.68-.38,1.72-.7,3.12-.05.41-.64.62-1.77.62h-13.8l-.59-4.14c-.82-.11-2.95-.16-6.39-.16-1.04,0-2.77.72-5.2,2.15-2.43,1.43-4.16,2.15-5.2,2.15h-10.39v-5.51h11.44c1.06,0,2.43-.33,4.11-.99,1.58-.61,2.36-1.03,2.36-1.26-.7-.32-1.98-.8-3.84-1.42-2.24-.77-3.63-1.14-4.19-1.1-.48.04-1.18.31-2.08.82-.9.51-1.62.77-2.14.77-.14,0,.07-.55.64-1.64.63-1.18,1.38-2.23,2.26-3.14,1.27-1.31,2.61-1.96,4.03-1.96,1.56,0,3.28.46,5.16,1.37,3.19,1.52,5.28,2.42,6.28,2.69,3.53.95,6.28,1.42,8.25,1.42-.41,1.29-.89,2.78-1.42,4.46h10.18c.14-.14.21-.51.21-1.1,0-1.47-.38-3.77-1.15-6.92-.77-3.14-1.16-5.27-1.16-6.38-.52-.41-1.15-.91-1.88-1.5,1.65-3.26,2.82-5.29,3.52-6.1,0,1.29.33,2.18.99,2.69,1.54,1,3.46,2.16,5.77,3.46v.05ZM382.27,133.78s.03.02.03.05c0,.14-.49.75-1.48,1.83-1.13,1.24-1.8,1.85-2.01,1.85-2.94-1.54-4.4-2.43-4.4-2.69,0-.16.53-.79,1.6-1.88,1.07-1.09,1.69-1.64,1.87-1.64.07,0,.79.41,2.15,1.24,1.36.82,2.11,1.24,2.26,1.24Z"/>
      <path class="cls-1" d="M423.44,148.31c0,3.85-.91,7.02-2.74,9.51l-2.42-21.32c0-.52,1.24-2.7,3.73-6.55.95,5.46,1.42,11.58,1.42,18.37Z"/>
      <path class="cls-1" d="M442.91,150.4c0,3.81-.91,7.51-2.74,11.09-2.13,4.19-4.75,6.28-7.87,6.28-1.18,0-3.38-.4-6.58-1.21-3.38-.84-5.08-1.5-5.08-1.99,0-.39.24-.59.72-.59s1.36.15,2.58.46c1.22.3,2.15.46,2.79.46.91,0,1.74-.16,2.47-.48,2.36-1.06,4.67-2.57,6.93-4.54,2.72-2.4,4.21-4.61,4.46-6.63.07-.55-.09-1.45-.48-2.69-.66,1.88-1.31,3.14-1.93,3.79-.88.91-2.18,1.37-3.89,1.37s-2.86-.67-3.36-2.01c-.25-.7-.38-1.99-.38-3.87,0-1.29.79-3.14,2.36-5.56,1.72-2.63,3.29-3.95,4.73-3.95s2.77,1.36,3.89,4.08c.91,2.26,1.37,4.25,1.37,5.99ZM438.58,149.57v-.27c0-.82-.28-1.55-.83-2.19-.56-.64-1.24-.95-2.04-.95-.59,0-1.28.28-2.07.83-.79.56-1.18,1.12-1.18,1.69,0,.41.46.8,1.37,1.15.86.34,1.59.51,2.2.51.45,0,1.3-.26,2.55-.78Z"/>
      <path class="cls-1" d="M466.59,130.83c-1.7,2.04-2.66,3.06-2.87,3.06-.11,0-.77-.31-1.97-.94-1.21-.63-1.9-1.01-2.08-1.15-.66.59-1.34,1.27-2.04,2.04-.5-.12-1.21-.43-2.12-.91-.98-.52-1.62-.95-1.91-1.29.7-.7,1.66-1.72,2.87-3.06.29.29.89.72,1.81,1.29.92.57,1.53.86,1.81.86.14,0,.52-.3,1.13-.91.61-.61,1.06-1.02,1.34-1.24l4.03,2.26ZM473.95,156.45h-3.36c-1.07,0-1.84-.72-2.31-2.15-.16-.5-.4-1.75-.73-3.73l-.05-.21-.32.05c-.45.27-1.01,1.11-1.69,2.52-.61,1.25-1.24,1.88-1.88,1.88-.82,0-2.21-.28-4.15-.83-1.94-.55-3.38-.83-4.31-.83,0-.86.38-2.26,1.14-4.19s1.44-3.19,2.03-3.76c.73-.7,1.92-1.49,3.54-2.36,1.77-.95,2.98-1.69,3.63-2.23,0-.21-.08-.51-.25-.89-.17-.38-.26-.66-.26-.86.66-.9,1.6-2.5,2.82-4.81h.05c.29,1.07.76,3.99,1.42,8.75.64,4.58,1.03,6.98,1.16,7.2.29.5.55.8.78.89.11.04.51.05,1.21.05h1.53v5.51ZM467.24,148.31c0-.5-.13-1.55-.4-3.14-.29-1.68-.52-2.61-.7-2.79-.48.38-.83.81-1.05,1.29-.36.77-.59,1.24-.7,1.4-.45.64-1.29,1.23-2.53,1.75-1.32.56-2.06.91-2.2,1.07.63.23,1.85.52,3.68.86,1.36.27,2.64.32,3.84.16l.05-.59Z"/>
      <path class="cls-1" d="M491.17,156.45h-3.06c-1.27,0-2.25-.49-2.93-1.48-.16-.25-.43-.91-.81-1.99-.52.95-1.16,2.1-1.93,3.46h-9.13v-5.51h10.5c.21-.47.36-1.95.43-4.46.11-.2.65-.9,1.62-2.09.98-1.2,1.59-1.92,1.84-2.18.2,1.67.07,3.73-.38,6.2-.12.68.11,1.28.7,1.8.54.48,1.15.73,1.83.73h1.32v5.51ZM487,134.56c0,.21-.58.78-1.75,1.71-1.16.92-1.89,1.38-2.17,1.38-.25,0-.96-.47-2.13-1.4-1.17-.93-1.76-1.49-1.76-1.69,0-.23.59-.89,1.76-1.96,1.17-1.07,1.88-1.61,2.13-1.61.11,0,.79.57,2.04,1.72,1.25,1.15,1.88,1.76,1.88,1.85Z"/>
      <path class="cls-1" d="M495.09,156.45h-5.13v-5.51h5.13v5.51Z"/>
      <path class="cls-1" d="M498.55,156.45h-5.13v-5.51h5.13v5.51Z"/>
      <path class="cls-1" d="M502.02,156.45h-5.13v-5.51h5.13v5.51Z"/>
      <path class="cls-1" d="M505.48,156.45h-5.13v-5.51h5.13v5.51Z"/>
      <path class="cls-1" d="M508.95,156.45h-5.13v-5.51h5.13v5.51Z"/>
      <path class="cls-1" d="M512.41,156.45h-5.13v-5.51h5.13v5.51Z"/>
      <path class="cls-1" d="M515.87,156.45h-5.13v-5.51h5.13v5.51Z"/>
      <path class="cls-1" d="M519.34,156.45h-5.13v-5.51h5.13v5.51Z"/>
      <path class="cls-1" d="M544.26,156.45h-3.97c-.5,0-.9.49-1.21,1.46-.3.98-.58,1.46-.83,1.46-.32,0-1.72-.69-4.19-2.07l-7.36-4.11c-.29.21-.71.91-1.26,2.09-.36.77-1.16,1.15-2.42,1.15h-4.94v-5.51h7.3c.68,0,1.2-.37,1.56-1.1.68-1.43,1.24-2.45,1.69-3.06.77-1.06,2.03-2.13,3.79-3.22,1.88-1.16,3.4-1.75,4.57-1.75.97,0,1.49.35,1.56,1.05.04.54.11,1.34.21,2.42v.05c1.65,3.74,3,5.61,4.06,5.61h1.45v5.51ZM537.76,151.72c0-1.07-.18-2.09-.54-3.03-.5-1.24-1.22-1.85-2.15-1.85-1.77,0-3.08.32-3.92.97l-.75.62c.38.27,1.29.81,2.74,1.64.45.27,1.12.66,2.01,1.17.9.51,1.6.71,2.12.6l.48-.11Z"/>
      <path class="cls-1" d="M548.05,156.45h-5.13v-5.51h5.13v5.51Z"/>
      <path class="cls-1" d="M551.51,156.45h-5.13v-5.51h5.13v5.51Z"/>
      <path class="cls-1" d="M554.98,156.45h-5.13v-5.51h5.13v5.51Z"/>
      <path class="cls-1" d="M558.44,156.45h-5.13v-5.51h5.13v5.51Z"/>
      <path class="cls-1" d="M561.9,156.45h-5.13v-5.51h5.13v5.51Z"/>
      <path class="cls-1" d="M565.37,156.45h-5.13v-5.51h5.13v5.51Z"/>
      <path class="cls-1" d="M584.33,148.85c0,.07-.16,1.21-.48,3.41-.11.97-.35,2.36-.72,4.19h-19.01v-5.51h17.27c-.38-1.65-.91-3.42-1.61-5.32l-.32-.19-.11.24c-.48.54-.94,1.08-1.37,1.64-.98.84-2.35,1.26-4.08,1.26-1.13,0-2.23-.33-3.3-.99-1.24-.75-1.85-1.67-1.85-2.74,0-1.38.98-3.21,2.95-5.51,2.18-2.52,4.28-3.79,6.28-3.79,1.77,0,3.34,1.84,4.7,5.51,1.11,3.03,1.67,5.62,1.67,7.79ZM582.42,131.1c-1.9,2.06-2.93,3.14-3.09,3.25-.12,0-.83-.33-2.12-.99-1.29-.66-2-1.05-2.12-1.15-.13.09-.51.43-1.16,1.03-.64.6-.99.94-1.05,1.01-1.06-.2-2.46-.91-4.22-2.15.73-.77,1.74-1.87,3.01-3.3.3.29.91.72,1.83,1.29.98.61,1.63.91,1.93.91.16,0,.59-.35,1.3-1.05.71-.7,1.15-1.08,1.33-1.15l4.35,2.31ZM578.69,143.42l-.35-.56c-1.15-1.9-2.34-2.85-3.57-2.85-.63,0-1.45.56-2.47,1.69l-.16.27.27.24c.54.43,1.31.89,2.31,1.37.54.14,1.22.16,2.04.05,1.07-.14,1.51-.21,1.32-.21h.62Z"/>
      <path class="cls-1" d="M604.58,156.45h-.64l-1.99.05c-.86.02-1.61-.4-2.26-1.26-.29,2.29-1.44,4.84-3.46,7.65-2.24,3.12-4.42,4.67-6.55,4.67-.97,0-2.98-.64-6.04-1.93-3.19-1.34-4.78-2.32-4.78-2.93,0-.25.11-.38.32-.38s.96.28,2.24.83c1.28.55,2.28.83,2.99.83,1.81,0,4.08-1.05,6.82-3.14,3.72-2.85,5.59-5.08,5.59-6.71,0-.45-.49-1.36-1.48-2.74-.8-1.15-1.47-2.01-1.99-2.6.73-1.27,1.69-2.9,2.87-4.89.64.95,1.61,2.38,2.9,4.3,1.31,1.83,2.63,2.74,3.97,2.74h1.48v5.51Z"/>
      <path class="cls-1" d="M619.99,156.45h-4.57c-.41,0-.67-.3-.78-.89l-.43-2.58c-.66.91-1.49,2.07-2.47,3.46h-8.08v-5.51h10.23l-2.66-16.95c1.04-1.45,2.42-3.34,4.14-5.67.11.93.46,4.53,1.05,10.8l.89,9.96c0,1.24.47,1.85,1.42,1.85h1.26v5.51Z"/>
      <path class="cls-1" d="M634.9,135.1c-.29.41-.97,1.33-2.04,2.74l-1.91,2.44.05.05c0,.73.35,3.63,1.05,8.7.12.84-.03,2.01-.46,3.52-.47,1.67-.7,2.76-.7,3.28.02.05.03.11.03.16,0,.3-.6.46-1.8.46h-10.15v-5.51h9.61c.14-.14.21-.51.21-1.1,0-1.47-.38-3.77-1.15-6.92-.77-3.14-1.16-5.27-1.16-6.38l-.05-.11-1.88-1.4c1.59-3.15,2.78-5.18,3.54-6.1,0,1.25.34,2.15,1.02,2.69,1.54,1,3.46,2.16,5.77,3.46Z"/>
    </g>
  </g>
</svg>