<?xml version="1.0" encoding="UTF-8"?>
<svg id="Layer_1" data-name="Layer 1" xmlns="http://www.w3.org/2000/svg" viewBox="0 0 1110.48 246.72">
  <defs>
    <style>
      .cls-1 {
        fill: #ad833b;
      }
    </style>
  </defs>
  <path class="cls-1" d="M356.46,159.71v-12.56c0-3.23.04-5.56.12-7.04-1.21.04-3.11.08-4.04.16-.62.08-.93.23-.93,1.09v8.94h-10.39v-8.09c0-1.75-.11-2.1-.81-2.1-.82,0-3.15.12-4.16.31.08.74.12,2.33.12,4.98v12.29c0,3.27-.04,5.56-.12,7.12.82.04,2.72-.04,3.77-.16.9-.08,1.21-.23,1.21-1.05v-10.07h5.95c2.37,0,3.66-.04,4.44-.12v10.66c0,.62.27.74.81.74.9,0,3.38-.12,4.16-.31-.04-.78-.12-2.06-.12-4.78"/>
  <path class="cls-1" d="M363.81,164.81c.9,0,3.5-.11,4.16-.31-.04-.78-.12-2.06-.12-4.79v-17.5c0-1.75-.12-2.1-.78-2.1-.81,0-3.5.19-4.2.31.08.74.12,2.33.12,4.94v18.67c0,.66.23.78.81.78"/>
  <path class="cls-1" d="M386.64,143.11c2.06,0,4.09.43,5.84,1.28,1.24.23,2.37-.93,2.33-2.45-.93-.89-3.81-2.25-8.05-2.25-7.62,0-13.81,4.9-13.81,12.91,0,9.68,6.92,12.56,13.46,12.56,1.87,0,3.97-.43,5.33-.82,1.05-.51,2.33-1.32,3.07-1.94v-8.79c0-.82-.23-1.05-.81-1.05-1.09,0-2.96.39-4.2.58.08.93.15,1.83.15,3.46v5.1c-.47.2-1.63.43-2.72.43-4.55,0-9.06-3.07-9.06-9.84,0-6.06,3.69-9.18,8.48-9.18"/>
  <path class="cls-1" d="M420.68,140.11c-1.21.04-3.11.08-4.04.16-.62.08-.93.24-.93,1.09v8.94h-10.39v-8.09c0-1.75-.11-2.1-.81-2.1-.82,0-3.15.12-4.16.31.08.74.12,2.33.12,4.98v12.29c0,3.27-.04,5.56-.12,7.12.82.04,2.72-.04,3.77-.16.9-.08,1.21-.23,1.21-1.05v-10.07h5.95c2.37,0,3.66-.04,4.44-.11v10.66c0,.62.27.74.81.74.9,0,3.38-.11,4.16-.31-.04-.78-.12-2.06-.12-4.78v-12.56c0-3.23.04-5.56.12-7.04"/>
  <path class="cls-1" d="M439.9,164.61c.97-.55,1.71-1.44,2.06-3.11l-.08-.08c-1.87.15-4.71.15-6.3.15-1.48,0-2.72-.08-3.62-.27v-7.62h5.91c1.36,0,2.22-.5,2.57-3.23h-8.48v-6.96h4.04c1.75,0,3.07,0,3.66-.23.46-.51.93-1.25,1.17-2.99h-9.45c-1.6.04-3.31.27-4.39.54.12,1.63.12,3.03.12,4.9v17.97l.58.74c.93.2,3.5.39,6.92.39,3,0,4.75-.08,5.29-.2"/>
  <path class="cls-1" d="M461.64,164.88c1.4,0,2.84-.16,3.15-.39v-.15c-.97-1.05-2.22-2.8-4.09-6.07-1.32-2.3-2.53-4.24-3.42-5.02,1.56-.7,4.67-2.49,4.67-6.18,0-4.94-3.07-7.04-9.26-7.04-1.79,0-5.68.43-6.69.66.08,1.09.08,2.02.08,3.96v13.03c0,3.27-.04,5.56-.12,7.12.78,0,2.92-.04,4.01-.16.66-.08.89-.23.89-1.01v-8.99h.7c1.28,0,2.02.31,3.23,2.53,1.56,3.03,2.33,4.59,3.38,5.95,1.01,1.36,2.02,1.75,3.46,1.75M454.6,151.58c-.55.27-2.68.39-3.73.27v-8.83c.47-.08,1.13-.12,1.67-.12,2.41,0,4.43,1.36,4.43,4.59,0,2.6-1.56,3.77-2.37,4.08"/>
  <path class="cls-1" d="M494.94,163.83c.66-.62,1.16-1.75,1.28-3.07l-.12-.08c-1.01.31-3.07.97-5.68.97-6.18,0-9.56-4.04-9.56-9.33,0-6.22,3.85-9.29,8.55-9.29,2.14,0,3.97.54,5.14,1.05,1.24.2,2.13-1.12,2.06-2.45-.62-.7-3.46-1.94-7.15-1.94-7.7,0-13.81,4.94-13.81,12.99,0,7.43,4.78,12.48,13.65,12.48,2.61,0,4.67-.7,5.64-1.32"/>
  <path class="cls-1" d="M511.28,165.16c8.24,0,12.56-5.99,12.56-12.95s-4.55-12.52-12.4-12.52h-.04c-7.93,0-12.64,5.6-12.64,12.95,0,5.87,3.54,12.52,12.52,12.52M510.97,142.72h.04c4.82,0,7.66,4.32,7.66,9.84,0,6.07-2.68,9.56-7.04,9.56-4.09,0-7.62-3.46-7.62-9.95s3.15-9.45,6.96-9.45"/>
  <path class="cls-1" d="M556.44,164.46c-.35-1.87-.78-4.74-1.4-8.83l-2.06-14.31c-.12-.97-.35-1.21-.74-1.21-.94,0-3.54.23-4.12.55v.58c-1.63,3.97-4.24,10.96-6.19,16.06l-5.25-14.5c-.7-1.98-1.01-2.53-1.59-2.68-1.87,0-3.27.35-4.24.55l.12.74c-1.52,8.87-3.07,18.94-3.78,23.06.62.35,2.41.35,3.46.35.43,0,.62-.2.7-.62.59-4.55,1.75-13.46,2.3-18.24,1.75,5.29,5.17,15.6,6.11,18.63.78,0,1.71-.15,2.41-.27.86-.2,1.13-.5,1.4-1.28,2.49-7.31,4.79-13.77,5.87-17.15l1.13,9.76c.43,4.12.66,6.22.9,8.2.08.78.58.97,1.09.97.78,0,3.23-.15,3.89-.35"/>
  <path class="cls-1" d="M563.64,164.81c.43,0,.62-.2.7-.62.58-4.55,1.75-13.46,2.29-18.24,1.75,5.29,5.17,15.6,6.11,18.63.78,0,1.71-.16,2.41-.27.86-.2,1.13-.51,1.4-1.28,2.49-7.31,4.78-13.77,5.87-17.15l1.13,9.76c.43,4.12.66,6.22.9,8.2.08.78.58.97,1.09.97.78,0,3.23-.15,3.89-.35-.35-1.87-.78-4.74-1.4-8.83l-2.06-14.31c-.12-.97-.35-1.21-.74-1.21-.93,0-3.54.23-4.12.55v.58c-1.63,3.97-4.24,10.96-6.18,16.06l-5.25-14.5c-.7-1.98-1.01-2.53-1.59-2.68-1.87,0-3.27.35-4.24.55l.11.74c-1.52,8.87-3.07,18.94-3.77,23.06.62.35,2.41.35,3.46.35"/>
  <path class="cls-1" d="M599.31,142.21c0-1.75-.12-2.1-.78-2.1-.81,0-3.5.2-4.2.31.08.74.12,2.33.12,4.94v18.67c0,.66.23.78.81.78.9,0,3.5-.12,4.16-.31-.04-.78-.12-2.06-.12-4.78v-17.5Z"/>
  <path class="cls-1" d="M621.95,143.49c.82-.2,1.87-1.16,2.02-3.23h-13.84c-3.93,0-4.98-.04-5.6-.2-.39.43-.86,1.09-1.28,2.26-.27.89.04,1.16.66,1.16h7v20.61c0,.58.27.7.82.7,1.56,0,3.07-.12,4.16-.31-.04-.78-.12-2.06-.12-4.74v-16.26h6.18Z"/>
  <path class="cls-1" d="M644.82,143.49c.82-.2,1.87-1.16,2.02-3.23h-13.85c-3.93,0-4.98-.04-5.6-.2-.39.43-.86,1.09-1.28,2.26-.27.89.04,1.16.66,1.16h7v20.61c0,.58.27.7.81.7,1.56,0,3.07-.12,4.16-.31-.04-.78-.12-2.06-.12-4.74v-16.26h6.18Z"/>
  <path class="cls-1" d="M663.3,164.61c.97-.55,1.71-1.44,2.06-3.11l-.08-.08c-1.87.15-4.7.15-6.3.15-1.48,0-2.72-.08-3.62-.27v-7.62h5.91c1.36,0,2.22-.5,2.57-3.23h-8.48v-6.96h4.04c1.75,0,3.07,0,3.66-.23.46-.51.93-1.25,1.17-2.99h-9.45c-1.59.04-3.31.27-4.39.54.12,1.63.12,3.03.12,4.9v17.97l.58.74c.93.2,3.5.39,6.92.39,3,0,4.75-.08,5.29-.2"/>
  <path class="cls-1" d="M670.11,164.42c.93.2,3.5.39,6.92.39,3,0,4.74-.08,5.29-.2.97-.55,1.71-1.44,2.06-3.11l-.08-.08c-1.87.15-4.7.15-6.3.15-1.48,0-2.72-.08-3.62-.27v-7.62h5.91c1.36,0,2.22-.51,2.57-3.23h-8.48v-6.96h4.04c1.75,0,3.07,0,3.66-.23.47-.5.93-1.25,1.16-2.99h-9.45c-1.59.04-3.3.27-4.39.54.12,1.63.12,3.03.12,4.9v17.97l.58.74Z"/>
  <path class="cls-1" d="M711.19,151.23h-8.79v-7.74h5.21c1.71,0,2.53,0,3.03-.24.51-.51,1.05-1.24,1.36-2.99-1.87,0-8.48-.04-9.88,0-1.71.08-4,.39-4.7.59.08,1.36.12,2.41.12,4.12v19.09c0,.62.27.74.86.74,1.52,0,3.46-.11,4.12-.31-.08-2.92-.12-6.15-.12-10.04h5.95c1.52,0,2.45-.27,2.84-3.23"/>
  <path class="cls-1" d="M727.41,139.68h-.04c-7.93,0-12.64,5.6-12.64,12.95,0,5.87,3.54,12.52,12.52,12.52,8.24,0,12.56-5.99,12.56-12.95s-4.55-12.52-12.41-12.52M727.6,162.12c-4.09,0-7.62-3.46-7.62-9.95s3.15-9.45,6.96-9.45h.04c4.82,0,7.66,4.31,7.66,9.84,0,6.07-2.68,9.57-7.04,9.57"/>
  <path class="cls-1" d="M759.46,158.28c-1.32-2.3-2.53-4.24-3.42-5.02,1.56-.7,4.67-2.49,4.67-6.18,0-4.94-3.07-7.04-9.26-7.04-1.79,0-5.68.43-6.69.66.08,1.09.08,2.02.08,3.96v13.03c0,3.27-.04,5.56-.12,7.12.78,0,2.92-.04,4.01-.16.66-.08.89-.23.89-1.01v-8.99h.7c1.28,0,2.02.31,3.23,2.53,1.56,3.03,2.33,4.59,3.38,5.95,1.01,1.36,2.02,1.75,3.46,1.75s2.84-.16,3.15-.39v-.15c-.97-1.05-2.22-2.8-4.09-6.07M753.35,151.58c-.55.27-2.68.39-3.73.27v-8.83c.47-.08,1.13-.12,1.67-.12,2.41,0,4.43,1.36,4.43,4.59,0,2.6-1.55,3.77-2.37,4.08"/>
  <path class="cls-1" d="M45.53,189.79c2.06,0,4.09.43,5.83,1.28,1.25.23,2.37-.93,2.33-2.45-.93-.89-3.81-2.25-8.05-2.25-7.62,0-13.81,4.9-13.81,12.91,0,9.68,6.92,12.56,13.46,12.56,1.87,0,3.97-.43,5.33-.82,1.05-.51,2.33-1.32,3.07-1.94v-8.79c0-.82-.23-1.05-.81-1.05-1.09,0-2.96.39-4.2.58.08.93.15,1.83.15,3.46v5.1c-.47.2-1.63.43-2.72.43-4.55,0-9.06-3.07-9.06-9.84,0-6.06,3.69-9.18,8.48-9.18"/>
  <path class="cls-1" d="M70.47,186.37h-.04c-7.93,0-12.64,5.6-12.64,12.95,0,5.87,3.54,12.52,12.52,12.52,8.24,0,12.56-5.99,12.56-12.95s-4.55-12.52-12.4-12.52M70.66,208.8c-4.08,0-7.62-3.46-7.62-9.95s3.15-9.45,6.96-9.45h.04c4.82,0,7.66,4.31,7.66,9.84,0,6.07-2.68,9.57-7.04,9.57"/>
  <path class="cls-1" d="M107.46,187.26c-.55-.23-2.14-.5-3.42-.5-2.26,6.3-4.71,12.95-6.81,19.06-1.95-6.03-4.39-12.45-5.83-16.49-.74-2.02-1.01-2.53-1.6-2.53-1.17,0-2.99.39-4.55.86,3.34,7.58,6.57,16.37,9.45,24.07,1.6,0,3.11-.2,3.58-.47.39-.16.66-.58.97-1.28,2.84-6.84,5.76-13.8,8.48-21.04.35-.97.31-1.48-.27-1.67"/>
  <path class="cls-1" d="M120.38,208.26c-1.48,0-2.72-.08-3.62-.27v-7.62h5.91c1.36,0,2.22-.51,2.57-3.23h-8.48v-6.96h4.04c1.75,0,3.07,0,3.66-.23.46-.51.93-1.25,1.17-2.99h-9.45c-1.6.04-3.31.27-4.39.54.12,1.63.12,3.03.12,4.9v17.97l.58.74c.93.2,3.5.39,6.92.39,3,0,4.75-.08,5.29-.19.97-.55,1.71-1.44,2.06-3.11l-.08-.08c-1.87.15-4.7.15-6.3.15"/>
  <path class="cls-1" d="M142.08,199.94c1.56-.7,4.67-2.49,4.67-6.18,0-4.94-3.07-7.04-9.26-7.04-1.79,0-5.68.43-6.69.66.08,1.09.08,2.02.08,3.96v13.03c0,3.27-.04,5.56-.12,7.12.78,0,2.92-.04,4.01-.16.66-.08.89-.23.89-1.01v-8.99h.7c1.28,0,2.02.31,3.23,2.53,1.56,3.03,2.33,4.59,3.38,5.95,1.01,1.36,2.02,1.75,3.46,1.75s2.84-.16,3.15-.39v-.15c-.97-1.05-2.22-2.8-4.09-6.07-1.32-2.3-2.53-4.24-3.42-5.02M139.4,198.26c-.55.27-2.68.39-3.73.27v-8.83c.47-.08,1.13-.11,1.67-.11,2.41,0,4.44,1.36,4.44,4.59,0,2.6-1.56,3.77-2.37,4.08"/>
  <path class="cls-1" d="M169.62,188.08v10.85c0,1.94-.04,3.46.2,6.46-.93-1.98-2.37-4.16-4.12-6.92-2.8-4.32-5.99-9.18-7.23-10.96-.39-.43-.7-.7-1.09-.7-.7,0-4.04.2-4.78.31v.2l.7.97v16.14c0,3.27-.04,5.52-.12,7.08,1.17.04,2.41-.04,3.11-.15.62-.12.86-.23.86-1.05v-10.19c0-1.98.04-4-.2-7.93,1.6,2.99,2.72,5.17,4.79,8.44,3.07,4.74,5.05,7.78,7.08,10.58.27.39.51.54.97.54,1.13,0,3.34-.46,3.69-.62v-17.15c0-3.23.04-5.48.12-7.16-.9,0-1.95.04-3.15.15-.54.08-.81.23-.81,1.13"/>
  <path class="cls-1" d="M204.4,188c-.12-.97-.35-1.21-.74-1.21-.94,0-3.54.23-4.13.55v.58c-1.63,3.97-4.24,10.96-6.18,16.06l-5.25-14.5c-.7-1.98-1.01-2.53-1.59-2.68-1.87,0-3.27.35-4.24.55l.12.74c-1.52,8.87-3.07,18.94-3.78,23.06.62.35,2.41.35,3.46.35.43,0,.62-.2.7-.62.58-4.55,1.75-13.45,2.29-18.24,1.75,5.29,5.17,15.6,6.11,18.63.78,0,1.71-.15,2.41-.27.86-.2,1.12-.5,1.4-1.28,2.49-7.31,4.79-13.77,5.87-17.15l1.13,9.76c.43,4.12.66,6.22.9,8.2.08.78.58.97,1.09.97.78,0,3.23-.15,3.89-.35-.35-1.87-.78-4.74-1.4-8.83l-2.06-14.31Z"/>
  <path class="cls-1" d="M221.36,208.26c-1.48,0-2.72-.08-3.62-.27v-7.62h5.91c1.36,0,2.22-.51,2.57-3.23h-8.48v-6.96h4.04c1.75,0,3.07,0,3.66-.23.46-.51.93-1.25,1.17-2.99h-9.45c-1.6.04-3.31.27-4.39.54.11,1.63.11,3.03.11,4.9v17.97l.59.74c.93.2,3.5.39,6.92.39,3,0,4.75-.08,5.29-.19.97-.55,1.71-1.44,2.06-3.11l-.08-.08c-1.87.15-4.7.15-6.3.15"/>
  <path class="cls-1" d="M248.28,188.08v10.85c0,1.94-.04,3.46.2,6.46-.93-1.98-2.37-4.16-4.12-6.92-2.8-4.32-5.99-9.18-7.23-10.96-.39-.43-.7-.7-1.09-.7-.7,0-4.04.2-4.78.31v.2l.7.97v16.14c0,3.27-.04,5.52-.12,7.08,1.17.04,2.41-.04,3.11-.15.62-.12.86-.23.86-1.05v-10.19c0-1.98.04-4-.2-7.93,1.6,2.99,2.72,5.17,4.79,8.44,3.07,4.74,5.05,7.78,7.08,10.58.27.39.51.54.97.54,1.13,0,3.34-.46,3.69-.62v-17.15c0-3.23.04-5.48.12-7.16-.9,0-1.94.04-3.15.15-.55.08-.82.23-.82,1.13"/>
  <path class="cls-1" d="M257.42,186.75c-.39.43-.86,1.09-1.28,2.26-.27.89.04,1.16.66,1.16h7v20.61c0,.58.27.7.81.7,1.56,0,3.07-.12,4.16-.31-.04-.78-.12-2.06-.12-4.74v-16.26h6.19c.81-.2,1.87-1.16,2.02-3.23h-13.84c-3.93,0-4.98-.04-5.6-.2"/>
  <path class="cls-1" d="M297.45,186.71c-3.19,0-7.12.55-7.97.74.04,1.01.08,1.75.08,4.43v19.02c2.49.51,4.82.74,7.7.74,7.97,0,14-4.51,14-12.91,0-4.98-2.1-12.02-13.8-12.02M297.45,208.61c-1.05,0-2.1-.08-3.03-.31v-18.36c.58-.12,1.28-.2,2.49-.2,5.8,0,9.14,3.19,9.14,9.06,0,8.13-5.1,9.8-8.59,9.8"/>
  <path class="cls-1" d="M321.1,188.89c0-1.75-.12-2.1-.78-2.1-.82,0-3.5.2-4.2.31.08.74.12,2.33.12,4.94v18.67c0,.66.23.78.81.78.9,0,3.5-.12,4.16-.31-.04-.78-.12-2.06-.12-4.78v-17.5Z"/>
  <path class="cls-1" d="M339.89,189.79c2.06,0,4.08.43,5.83,1.28,1.25.23,2.37-.93,2.33-2.45-.93-.89-3.81-2.25-8.05-2.25-7.62,0-13.81,4.9-13.81,12.91,0,9.68,6.92,12.56,13.46,12.56,1.87,0,3.97-.43,5.33-.82,1.05-.51,2.33-1.32,3.07-1.94v-8.79c0-.82-.23-1.05-.81-1.05-1.09,0-2.96.39-4.2.58.08.93.15,1.83.15,3.46v5.1c-.46.2-1.63.43-2.72.43-4.55,0-9.06-3.07-9.06-9.84,0-6.06,3.69-9.18,8.48-9.18"/>
  <path class="cls-1" d="M358.56,188.89c0-1.75-.12-2.1-.78-2.1-.82,0-3.5.2-4.2.31.08.74.11,2.33.11,4.94v18.67c0,.66.24.78.82.78.9,0,3.5-.12,4.16-.31-.04-.78-.12-2.06-.12-4.78v-17.5Z"/>
  <path class="cls-1" d="M381.2,190.18c.82-.2,1.87-1.16,2.02-3.23h-13.85c-3.93,0-4.98-.04-5.6-.2-.39.43-.86,1.09-1.28,2.26-.27.89.04,1.16.66,1.16h7v20.61c0,.58.27.7.82.7,1.56,0,3.07-.12,4.16-.31-.04-.78-.11-2.06-.11-4.74v-16.26h6.18Z"/>
  <path class="cls-1" d="M396.02,187.49c-.2-.47-.55-.7-.89-.7-.47,0-2.65.15-4.09.46l.31.82c-1.47,3.54-7.54,18.01-9.57,22.75v.15c.86.27,2.57.51,3.43.51.62,0,.93-.2,1.09-.55.51-1.24,1.63-4.12,2.53-6.37h8.79c.89,2.22,1.44,3.69,2.14,5.68.39,1.05.7,1.24,1.32,1.24.86,0,3.5-.2,4.35-.46v-.16c-.78-1.63-1.71-4.08-3.31-8.05-1.36-3.38-4.32-11.05-6.11-15.32M389.91,201.34c1.32-3.34,2.41-6.42,3.38-8.98.43,1.25,1.59,4.16,3.38,8.98h-6.77Z"/>
  <path class="cls-1" d="M417.73,208.26c-1.44,0-2.76-.08-3.5-.27v-18.9c0-1.94-.12-2.29-.78-2.29-1.48,0-3.34.2-4.2.31.08.81.11,2.41.11,5.01v18.24l.58.74c.97.2,3.58.39,6.81.39,3,0,4.36-.08,4.9-.19.97-.55,1.75-1.63,1.98-3.15l-.04-.08c-1.91.2-4.28.2-5.87.2"/>
  <path class="cls-1" d="M435.58,186.75c-.39.43-.86,1.09-1.28,2.26-.27.89.04,1.16.66,1.16h7v20.61c0,.58.27.7.81.7,1.56,0,3.07-.12,4.16-.31-.04-.78-.12-2.06-.12-4.74v-16.26h6.19c.81-.2,1.87-1.16,2.02-3.23h-13.84c-3.93,0-4.98-.04-5.6-.2"/>
  <path class="cls-1" d="M469.85,199.94c1.56-.7,4.67-2.49,4.67-6.18,0-4.94-3.07-7.04-9.26-7.04-1.79,0-5.68.43-6.69.66.08,1.09.08,2.02.08,3.96v13.03c0,3.27-.04,5.56-.12,7.12.78,0,2.92-.04,4.01-.16.66-.08.89-.23.89-1.01v-8.99h.7c1.28,0,2.02.31,3.23,2.53,1.56,3.03,2.33,4.59,3.38,5.95,1.01,1.36,2.02,1.75,3.46,1.75s2.84-.16,3.15-.39v-.15c-.97-1.05-2.22-2.8-4.09-6.07-1.32-2.3-2.53-4.24-3.42-5.02M467.17,198.26c-.55.27-2.68.39-3.73.27v-8.83c.47-.08,1.13-.11,1.67-.11,2.41,0,4.43,1.36,4.43,4.59,0,2.6-1.56,3.77-2.37,4.08"/>
  <path class="cls-1" d="M494.01,187.49c-.19-.47-.55-.7-.89-.7-.47,0-2.64.15-4.08.46l.31.82c-1.47,3.54-7.54,18.01-9.57,22.75v.15c.86.27,2.57.51,3.43.51.62,0,.93-.2,1.09-.55.51-1.24,1.63-4.12,2.53-6.37h8.79c.89,2.22,1.44,3.69,2.14,5.68.39,1.05.7,1.24,1.32,1.24.86,0,3.5-.2,4.35-.46v-.16c-.78-1.63-1.71-4.08-3.31-8.05-1.36-3.38-4.31-11.05-6.11-15.32M487.9,201.34c1.32-3.34,2.41-6.42,3.38-8.98.43,1.25,1.59,4.16,3.38,8.98h-6.77Z"/>
  <path class="cls-1" d="M523.73,188.08v10.85c0,1.94-.04,3.46.2,6.46-.94-1.98-2.37-4.16-4.12-6.92-2.8-4.32-5.99-9.18-7.24-10.96-.39-.43-.7-.7-1.09-.7-.7,0-4.04.2-4.78.31v.2l.7.97v16.14c0,3.27-.04,5.52-.11,7.08,1.16.04,2.41-.04,3.11-.15.62-.12.86-.23.86-1.05v-10.19c0-1.98.04-4-.2-7.93,1.59,2.99,2.72,5.17,4.78,8.44,3.07,4.74,5.06,7.78,7.08,10.58.27.39.51.54.97.54,1.13,0,3.34-.46,3.69-.62v-17.15c0-3.23.04-5.48.12-7.16-.9,0-1.94.04-3.15.15-.54.08-.81.23-.81,1.13"/>
  <path class="cls-1" d="M542.21,197.25c-3.62-2.06-4.9-2.99-4.9-4.82,0-1.71,1.48-2.68,3.54-2.68,1.24,0,2.92.5,3.81.97,1.36.08,1.98-1.52,1.98-2.49-.97-1.01-3.54-1.87-5.6-1.87h-.04c-6.42,0-8.28,4.24-8.28,6.88,0,2.33.78,4.82,5.29,7.27,3.93,2.14,4.82,3.11,4.82,4.82,0,1.98-1.63,2.99-3.97,2.99-1.87,0-4.2-.86-5.6-1.83-.35.24-.93,1.67-.93,2.49,0,.51.23.9.89,1.32,1.01.74,3,1.52,5.68,1.52,4.59,0,8.79-2.61,8.79-7.43,0-3.69-1.98-5.17-5.48-7.16"/>
  <path class="cls-1" d="M562.4,190.18c1.71,0,2.53,0,3.03-.23.51-.5,1.05-1.25,1.36-2.99-1.87,0-8.48-.04-9.88,0-1.71.08-4.01.39-4.71.58.08,1.36.12,2.41.12,4.12v19.09c0,.62.27.74.86.74,1.52,0,3.46-.12,4.12-.31-.08-2.92-.12-6.15-.12-10.03h5.95c1.52,0,2.45-.27,2.84-3.23h-8.79v-7.74h5.21Z"/>
  <path class="cls-1" d="M582.19,186.37h-.04c-7.93,0-12.64,5.6-12.64,12.95,0,5.87,3.54,12.52,12.52,12.52,8.24,0,12.56-5.99,12.56-12.95s-4.55-12.52-12.41-12.52M582.39,208.8c-4.09,0-7.62-3.46-7.62-9.95s3.15-9.45,6.96-9.45h.04c4.82,0,7.66,4.31,7.66,9.84,0,6.07-2.68,9.57-7.04,9.57"/>
  <path class="cls-1" d="M610.83,199.94c1.56-.7,4.67-2.49,4.67-6.18,0-4.94-3.07-7.04-9.26-7.04-1.79,0-5.68.43-6.69.66.08,1.09.08,2.02.08,3.96v13.03c0,3.27-.04,5.56-.12,7.12.78,0,2.92-.04,4.01-.16.66-.08.89-.23.89-1.01v-8.99h.7c1.28,0,2.02.31,3.23,2.53,1.56,3.03,2.33,4.59,3.38,5.95,1.01,1.36,2.02,1.75,3.46,1.75s2.84-.16,3.15-.39v-.15c-.97-1.05-2.22-2.8-4.09-6.07-1.32-2.3-2.53-4.24-3.42-5.02M608.14,198.26c-.55.27-2.68.39-3.73.27v-8.83c.47-.08,1.13-.11,1.67-.11,2.41,0,4.43,1.36,4.43,4.59,0,2.6-1.55,3.77-2.37,4.08"/>
  <path class="cls-1" d="M646.26,188c-.12-.97-.35-1.21-.74-1.21-.94,0-3.54.23-4.12.55v.58c-1.63,3.97-4.24,10.96-6.19,16.06l-5.25-14.5c-.7-1.98-1.01-2.53-1.59-2.68-1.87,0-3.27.35-4.24.55l.12.74c-1.52,8.87-3.07,18.94-3.78,23.06.62.35,2.41.35,3.46.35.43,0,.62-.2.7-.62.58-4.55,1.75-13.45,2.3-18.24,1.75,5.29,5.17,15.6,6.11,18.63.78,0,1.71-.15,2.41-.27.86-.2,1.12-.5,1.4-1.28,2.49-7.31,4.79-13.77,5.87-17.15l1.13,9.76c.43,4.12.66,6.22.9,8.2.08.78.58.97,1.09.97.78,0,3.23-.15,3.89-.35-.35-1.87-.78-4.74-1.4-8.83l-2.06-14.31Z"/>
  <path class="cls-1" d="M667.27,187.49c-.19-.47-.55-.7-.89-.7-.47,0-2.64.15-4.08.46l.31.82c-1.47,3.54-7.54,18.01-9.57,22.75v.15c.86.27,2.57.51,3.43.51.62,0,.93-.2,1.09-.55.51-1.24,1.63-4.12,2.53-6.37h8.79c.9,2.22,1.44,3.69,2.14,5.68.39,1.05.7,1.24,1.32,1.24.86,0,3.5-.2,4.35-.46v-.16c-.78-1.63-1.71-4.08-3.31-8.05-1.36-3.38-4.31-11.05-6.11-15.32M661.16,201.34c1.32-3.34,2.41-6.42,3.38-8.98.43,1.25,1.59,4.16,3.38,8.98h-6.77Z"/>
  <path class="cls-1" d="M677.11,186.75c-.39.43-.86,1.09-1.28,2.26-.27.89.04,1.16.66,1.16h7v20.61c0,.58.27.7.82.7,1.56,0,3.07-.12,4.16-.31-.04-.78-.11-2.06-.11-4.74v-16.26h6.18c.81-.2,1.87-1.16,2.02-3.23h-13.84c-3.93,0-4.98-.04-5.6-.2"/>
  <path class="cls-1" d="M705.08,188.89c0-1.75-.12-2.1-.78-2.1-.81,0-3.5.2-4.2.31.08.74.11,2.33.11,4.94v18.67c0,.66.24.78.82.78.9,0,3.5-.12,4.16-.31-.04-.78-.12-2.06-.12-4.78v-17.5Z"/>
  <path class="cls-1" d="M722.85,186.37h-.04c-7.93,0-12.64,5.6-12.64,12.95,0,5.87,3.54,12.52,12.52,12.52,8.24,0,12.56-5.99,12.56-12.95s-4.55-12.52-12.41-12.52M723.05,208.8c-4.09,0-7.62-3.46-7.62-9.95s3.15-9.45,6.96-9.45h.04c4.82,0,7.66,4.31,7.66,9.84,0,6.07-2.68,9.57-7.04,9.57"/>
  <path class="cls-1" d="M756.7,188.08v10.85c0,1.94-.04,3.46.2,6.46-.94-1.98-2.37-4.16-4.12-6.92-2.8-4.32-5.99-9.18-7.24-10.96-.39-.43-.7-.7-1.09-.7-.7,0-4.04.2-4.78.31v.2l.7.97v16.14c0,3.27-.04,5.52-.11,7.08,1.16.04,2.41-.04,3.11-.15.62-.12.86-.23.86-1.05v-10.19c0-1.98.04-4-.2-7.93,1.59,2.99,2.72,5.17,4.78,8.44,3.07,4.74,5.06,7.78,7.08,10.58.27.39.51.54.97.54,1.13,0,3.34-.46,3.69-.62v-17.15c0-3.23.04-5.48.12-7.16-.9,0-1.95.04-3.15.15-.54.08-.81.23-.81,1.13"/>
  <path class="cls-1" d="M341.6,63.72h99.06l1.96-3.43c.07.77,1.96,3.43,3.36,3.43h19.26c.91-1.05,1.68-2.24,2.38-3.22.56.98.21,2.66,1.12,3.22h19.88c.7-1.26,1.33-2.24,1.89-3.22l1.82,3.22h16.52c.35,0,.63-.28.98-.28l1.33-7-1.19-9.66c0-.35,0-.49.14-.63.91-1.12,2.03-2.66,2.73-3.5.49-.56.98-1.26,1.26-1.82-1.33-.77-2.66-1.61-3.85-2.38-1.05-.63-2.31-1.26-2.94-2.1-.42-.63-.49-1.54-.49-2.24-1.82,2.45-2.73,4.27-3.92,6.72.77.63,1.89,1.19,2.03,1.61.91,3.01,1.54,7.21,1.89,9.31.28,1.54.63,4.34.63,4.69s-.07.84-.21,1.68h-11.9v-.49c.63-1.19,1.96-2.8,1.96-3.99,0-2.73-3.78-5.46-6.86-5.46-2.1,0-4.27,1.05-5.67,1.4l-2.87,5.46c1.12-.14,1.33-.14,1.68-.14,1.75,0,3.71.98,4.9,3.22h-15.68c-.84,0-1.75-.49-1.82-1.61-.35-5.6-1.12-12.25-1.54-16.73-.07-.98-.42-3.15-.56-4.69l-4.27,5.88,2.52,17.16h-17.99c-1.82-.35-3.43-1.12-3.43-2.94s.91-4.27.42-6.44c-1.33,1.26-2.73,2.38-3.5,3.85-.42.77,0,1.96-.14,2.45-.14,1.05.07,2.1-.56,3.08h-100.11c-.7,0-1.33-.56-2.03-.7-.28-.07-.63-.35-.63-.49-.7-4.62-1.54-13.24-2.03-18.91-.14-1.61-.28-3.36-.49-4.97-.98,1.05-2.31,2.38-3.22,3.57-.28.28-.77.84-.77,1.19l2.45,25.91h6.51Z"/>
  <path class="cls-1" d="M440.59,71.22c-1.19-.63-2.66-1.4-3.71-2.45-.98,1.12-2.31,2.59-3.01,3.64.42.42,3.71,2.52,4.13,2.52.14,0,1.61-1.61,2.38-2.17l3.92,2.31c1.05-.7,2.38-2.8,3.15-3.85l-4.27-2.45c-.7.56-1.68,1.54-2.59,2.45"/>
  <path class="cls-1" d="M526.92,53.29l-1.4-18.07c-.7.84-4.06,5.95-4.06,6.86l2.59,21.63c2.52-3.78,2.87-6.79,2.87-10.43"/>
  <path class="cls-1" d="M552.2,47.55c-1.4.91-2.94,1.89-4.34,2.66-.98.56-3.43,2.03-3.92,3.5-.7,2.1-2.1,5.74-2.1,6.02v.77l8.47,1.68c2.17-.21,2.1-3.64,3.92-4.48.42,1.4.56,2.94.98,4.27.14.49.7,1.12,1.12,1.4.21.21.42.35.7.35h110.41l1.82-3.36c.42,1.05.7,2.45,2.24,3.08.21.07.56.28.84.28h22.27c1.33,0,6.51-3.15,7.35-3.57.63-.35,1.4-.7,2.03-.7,1.05-.07,3.01-.07,3.29-.07,1.26,0,2.87-.07,4.06.28.35,1.26.49,2.8.63,4.06h14c.91-1.05,1.68-2.24,2.38-3.22.56.98.21,2.66,1.12,3.22h14.84c.35,0,.63-.28.98-.28l1.33-7-1.19-9.66c0-.35,0-.49.14-.63.91-1.12,2.03-2.66,2.73-3.5.49-.56.98-1.26,1.26-1.82-1.33-.77-2.66-1.61-3.85-2.38-1.05-.63-2.31-1.26-2.94-2.1-.42-.63-.49-1.54-.49-2.24-1.82,2.45-2.73,4.27-3.92,6.72.77.63,1.89,1.19,2.03,1.61.91,3.01,1.54,7.21,1.89,9.31.28,1.54.63,4.34.63,4.69s-.07.84-.21,1.68h-9.17c-.84,0-1.75-.49-1.82-1.61-.35-5.6-1.12-12.25-1.54-16.73-.07-.98-.42-3.15-.56-4.69l-4.27,5.88,2.52,17.16h-10.22c-1.88.01-2.11.05-2.17-.07.42-1.4.91-3.01,1.54-4.41-2.94-.35-5.32-.49-9.45-1.75-4.41-1.26-7.56-3.85-11.2-3.85s-6.09,2.94-7.63,7c1.68-.91,2.8-1.68,4.62-1.68,1.68,0,8.19,2.52,8.19,2.59-.98.56-4.55,2.17-5.95,2.17h-20.37c-.91,0-1.89-.21-2.52-1.19-.21-.42-.28-.77-.28-1.12s.42-2.59.42-2.94v-3.57c-1.47,1.4-3.01,2.73-3.71,4.41-.56,1.19.21,2.94-.63,4.41h-108.94c-.98,0-1.89.07-2.1-.91-1.33-5.39-1.89-11.55-2.8-16.31-.98,1.68-3.01,4.62-3.01,4.97s.42,1.12.56,1.68M553.04,49.72c.42,1.68.98,4.9.98,5.25v1.05h-3.15c-.35,0-2.87-.63-4.27-1.05,1.4-.77,4.41-1.33,5.39-4.27.07-.28.56-.84,1.05-.98"/>
  <path class="cls-1" d="M546.39,38.73c1.4.84,3.71,2.17,4.06,2.17s2.24-2.31,3.15-3.22l-4.27-2.45c-.77.63-2.31,2.24-2.52,2.24-.35,0-2.52-1.4-3.64-2.24-1.05,1.26-2.31,2.45-2.87,3.36,1.26.84,3.5,2.17,3.85,2.17.21,0,1.54-1.26,2.24-2.03"/>
  <path class="cls-1" d="M665.96,43.49c.7.49,1.68,1.19,2.03,1.19s.42-.14.56-.21c.98-.63,2.17-1.4,3.01-2.24.21-.21.42-.49.42-.77,0-.35-3.64-3.71-3.99-3.71-.28,0-.63.35-.77.35-.98.77-2.24,2.03-2.73,2.52-.21.21-.49.49-.49.84s1.33,1.54,1.96,2.03"/>
  <path class="cls-1" d="M695.37,72.69c0,.49,3.92,2.66,4.34,2.66.49,0,3.43-3.29,3.5-3.57-1.4-.7-4.06-2.45-4.41-2.45s-3.43,3.08-3.43,3.36"/>
  <path class="cls-1" d="M762.38,53.29l-1.4-18.07c-.7.84-4.06,5.95-4.06,6.86l2.59,21.63c2.52-3.78,2.87-6.79,2.87-10.43"/>
  <path class="cls-1" d="M40.25,127c1.12.91,3.01,2.17,3.43,2.17.35,0,2.03-1.82,2.73-2.52-1.26-.84-3.43-2.45-3.78-2.45-.28,0-2.17,2.1-2.52,2.1s-3.15-2.1-3.5-2.1c-.21,0-2.1,1.89-2.73,2.66,1.26.84,3.43,2.31,3.78,2.31.21,0,1.75-1.54,2.59-2.17"/>
  <path class="cls-1" d="M163.6,104.94c.21-.42.49-1.12.49-1.47,0-.28-.07-1.33-.21-1.68-.7-2.8-1.96-6.3-2.66-8.54-.07-.21-.28-.35-.42-.49-2.31-.14-5.04,1.47-6.37,2.1-2.87,1.33-5.39,5.18-6.16,7.63-.14.7-.49,1.33-.91,2.31H46.34l-3.36,6.02c3.15.35,6.93-.56,9.73,3.64l-.21.28c-.7.14-1.47.35-2.03.49-1.26.42-2.52.7-3.71.91-1.26.21-3.99.42-4.34.42-2.8,0-9.59-1.26-9.59-6.23,0-2.59,2.1-5.39,4.41-7.84.35-.35.56-1.05.42-1.54-2.87,1.05-8.26,8.54-8.26,13.65,0,5.74,6.65,7.14,10.15,7.14.35,0,3.36-.28,4.41-.49,1.75-.35,3.99-.77,6.58-2.03.42-.21.98-.28,1.33-.56,2.66-2.03,3.99-5.74,5.53-8.26h89.26c1.68-1.47,1.19-3.57,3.22-4.41l10.64,3.85c1.05-1.61,2.17-3.29,3.08-4.9M152.61,100.04c0-.14.35-.35.49-.49.56-.35,1.19-.63,1.75-.84.35-.14,1.19-.35,1.54-.35s.49-.07.77.21c1.33,1.05,1.4,2.52,1.75,3.99l-6.3-2.52Z"/>
  <path class="cls-1" d="M240.07,106.06c.35,0,3.15,0,3.99.21.35.91.56,2.73.84,4.13h15.19c.28,0,.7-.35.7-.49.35-1.05.63-2.31.84-3.36.21-.84.49-2.52.49-2.8l-1.12-9.1c0-1.33,3.92-5.25,3.92-5.74,0-.35-3.85-2.45-5.67-3.64-.56-.35-.91-1.12-1.05-1.47-.07-.35-.28-1.05-.21-1.47-1.4,2.1-2.59,4.34-3.71,6.3.84.91,1.89,1.19,2.03,2.24.42,2.8,1.26,5.6,1.68,8.26.28,1.54.63,4.13.63,4.48s-.07.77-.28,1.12h-10.15c.42-1.47.91-2.87,1.26-4.41-2.73,0-6.79-.98-8.26-1.47-3.15-.98-6.16-2.73-9.17-3.78-.77-.35-2.1-.35-2.45-.35s-1.4.14-2.03.35c-1.54.35-3.71,3.15-4.2,4.13-.42.7-1.05,1.75-1.05,2.03v.49c.84-.42,1.61-1.05,2.17-1.19.7-.28,1.75-.35,2.1-.35s.7,0,.98.07c1.54.42,3.29.98,4.48,1.4.84.35,1.75.56,2.59.98-1.12.98-2.66,1.33-3.71,1.75-.63.21-1.4.42-1.68.42h-12.75c-4.76-3.99-10.5-9.87-13.3-12.81,4.34-1.26,8.68-2.38,12.82-3.5.35-1.68.77-3.57,1.12-5.25-5.25,1.54-11.06,1.96-15.61,4.62-2.31,1.4-1.47,5.11-2.52,7.21l9.94,9.24c0,.14-.07.49-.21.49h-20.8c-.28-3.01-1.05-6.09-2.87-9.38-.42-.7-1.89-1.82-2.31-2.03-.14-.07-.28-.07-.63-.07-.42,0-1.47.28-1.96.7-2.66,2.1-3.99,5.74-4.83,7.91-.49,1.19-1.12,3.78-1.12,4.13s.07.7.07.77c.21,1.47,2.52,2.8,3.43,2.94,2.03.42,4.27.63,6.09.77-2.94,3.43-6.93,6.16-10.08,6.93-.7.14-2.03.35-2.38.35s-5.04-1.33-5.39-1.33c-.42,0-.7,0-.84.14v.49c1.26,1.4,3.64,2.31,4.62,2.66,1.89.77,3.85,1.47,5.6,1.96.35.07,1.05.14,1.4.14s1.4-.07,1.89-.28c1.05-.49,2.38-1.33,3.08-1.96,2.87-2.45,4.34-6.16,5.6-9.24h20.66c.98-1.4,1.89-2.8,3.01-4.06,1.4,1.4,2.8,2.8,3.92,4.06h13.23c.35,0,1.05-.28,1.4-.42,2.38-1.12,5.32-3.29,7-3.71,1.12-.28,3.29-.21,3.57-.21M182.86,103.89c-.35.21-1.12.21-1.47.21s-.84,0-1.05-.07c-.56-.07-1.89-.63-2.38-1.33-.14-.14-.49-.84-.49-1.19s.42-.84.77-1.26c.49-.42,1.4-1.05,1.82-1.05.28,0,.98.35,1.33.7.98.91,1.47,2.24,1.96,3.57-.14.14-.35.28-.49.42"/>
  <path class="cls-1" d="M272.98,88.77l2.59,21.63c2.52-3.78,2.87-6.79,2.87-10.43l-1.4-18.07c-.7.84-4.06,5.95-4.06,6.86"/>
  <path class="cls-1" d="M302.17,127c1.12.91,3.01,2.17,3.43,2.17.35,0,2.03-1.82,2.73-2.52-1.26-.84-3.43-2.45-3.78-2.45-.28,0-2.17,2.1-2.52,2.1s-3.15-2.1-3.5-2.1c-.21,0-2.1,1.89-2.73,2.66,1.26.84,3.43,2.31,3.78,2.31.21,0,1.75-1.54,2.59-2.17"/>
  <path class="cls-1" d="M366.37,110.41h53.07c1.33,0,1.4-1.96,2.73-3.22l11.69,6.16c1.19-.35.91-2.94,2.03-2.94h31.23l1.33-8.26c-.14-1.54-.35-3.43-.63-4.62-.07-.35-2.45-9.66-6.37-9.66s-9.94,6.58-9.94,10.08c0,2.87,4.2,4.06,5.81,4.06,1.97,0,4.13-.63,5.95-3.22.98.35,1.82,4.34,1.82,5.39,0,.35-.14.63-.14.63h-26.82c-1.75-1.33-3.22-4.83-3.71-6.16-.77-1.82.84-3.22-1.68-3.22-1.96,0-6.93,2.73-8.54,4.9-.7.84-2.31,4.48-2.94,4.48h-113l-3.36,6.02c3.15.35,6.93-.56,9.73,3.64l-.21.28c-.7.14-1.47.35-2.03.49-1.26.42-2.52.7-3.71.91-1.26.21-3.99.42-4.34.42-2.8,0-9.59-1.26-9.59-6.23,0-2.59,2.1-5.39,4.41-7.84.35-.35.56-1.05.42-1.54-2.87,1.05-8.26,8.54-8.26,13.65,0,5.74,6.65,7.14,10.15,7.14.35,0,3.36-.28,4.41-.49,1.75-.35,3.99-.77,6.58-2.03.42-.21.98-.28,1.33-.56,2.66-2.03,3.99-5.74,5.53-8.26h47.04ZM459.07,96.75c-1.19,0-2.66-1.19-3.71-1.89.84-1.26,2.03-1.96,2.73-1.96,1.12,0,3.15,1.96,3.92,3.36-.91.14-2.66.49-2.94.49M430.22,100.74c2.31,0,3.15,3.15,3.15,4.27v.49c-.14,0-.42.14-.77.14-1.68,0-4.97-2.59-6.37-3.29.56-1.05,2.94-1.61,3.99-1.61"/>
  <path class="cls-1" d="M458.79,83.03c-.42,0-2.94-1.54-4.13-2.38-1.05,1.05-2.45,2.66-3.15,3.64,1.33.98,3.29,2.17,4.69,2.38.7-.7,1.96-2.03,2.31-2.03s3.99,2.03,4.34,2.03c.77,0,3.29-3.22,3.57-3.57l-4.83-2.45c-.91.7-2.45,2.38-2.8,2.38"/>
  <path class="cls-1" d="M473.91,117.97c-1.96,0-4.83-1.68-5.39-1.68-.35,0-.35.07-.49.21v.49c1.12,1.33,8.47,4.76,11.13,4.76,5.32,0,9.8-9.94,10.22-12.32.35.42,1.12.98,1.47.98h14.63c.35,0,.63-.28.98-.28l1.33-7-1.19-9.66c0-.35,0-.49.14-.63.91-1.12,2.03-2.66,2.73-3.5.49-.56.98-1.26,1.26-1.82-1.33-.77-2.66-1.61-3.85-2.38-1.05-.63-2.31-1.26-2.94-2.1-.42-.63-.49-1.54-.49-2.24-1.82,2.45-2.73,4.27-3.92,6.72.77.63,1.89,1.19,2.03,1.61.91,3.01,1.54,7.21,1.9,9.31.28,1.54.63,4.34.63,4.69s-.07.84-.21,1.68h-8.26c-.49,0-1.05-.07-1.54,0-3.22-1.26-6.65-4.97-8.34-7.14l-3.01,4.97c.49.56,3.5,4.13,3.5,5.39,0,2.66-8.47,9.94-12.32,9.94"/>
  <path class="cls-1" d="M523.56,99.97l-1.4-18.07c-.7.84-4.06,5.95-4.06,6.86l2.59,21.64c2.52-3.78,2.87-6.79,2.87-10.43"/>
  <path class="cls-1" d="M545.05,119.58c4.34,0,10.92-2.38,13.37-8.75.77-1.82,1.26-3.01,1.26-4.41l-.84-13.93,1.12.14,2.8-5.67c-2.59-1.68-7.14-1.19-7.91-4.97-.49.77-3.01,4.48-3.01,6.3,0,1.54,1.75,1.26,2.03,2.94.91,5.53,1.4,11.2,1.89,15.26.21,1.12.56,3.57.56,3.92,0,2.59-9.1,3.43-9.73,3.43-2.38,0-6.93-1.19-6.93-5.39,0-1.61,2.17-5.32,2.8-7.14-.14-.14-.7-.21-.7-.21-2.52,2.66-4.83,8.33-4.83,11.84,0,5.04,4.2,6.65,8.12,6.65"/>
  <path class="cls-1" d="M654.48,110.4h22.82c.28,0,1.47-.35,1.89-.56,1.96-1.05,4.06-2.38,6.02-3.29.35-.21,1.05-.49,1.4-.49h7.49l.56,4.34h23.74l1.96-3.36c.28.7.56,1.47.98,1.89.42.56,1.12.98,1.54,1.19.21.07.7.28.98.28h13.93c.91-1.05,1.68-2.24,2.38-3.22.56.98.21,2.66,1.12,3.22h14.84c.35,0,.63-.28.98-.28l1.33-7-1.19-9.66c0-.35,0-.49.14-.63.91-1.12,2.03-2.66,2.73-3.5.49-.56.98-1.26,1.26-1.82-1.33-.77-2.66-1.61-3.85-2.38-1.05-.63-2.31-1.26-2.94-2.1-.42-.63-.49-1.54-.49-2.24-1.82,2.45-2.73,4.27-3.92,6.72.77.63,1.89,1.19,2.03,1.61.91,3.01,1.54,7.21,1.89,9.31.28,1.54.63,4.34.63,4.69s-.07.84-.21,1.68h-9.17c-.84,0-1.75-.49-1.82-1.61-.35-5.6-1.12-12.25-1.54-16.73-.07-.98-.42-3.15-.56-4.69l-4.27,5.88,2.52,17.15h-13.72c-.63,0-2.24-.98-2.52-2.17-.07-.28-.07-.42-.07-.7l.56-6.51c-1.12,1.26-2.94,2.45-3.57,4.13-.63,1.33.21,3.78-.7,5.25h-19.25c-1.94.02-2.13.06-2.24,0,.42-1.47.84-3.29,1.4-4.48-5.04-.28-11.2-1.89-17.02-4.97-.35-.21-1.05-.35-1.47-.49-.7-.14-1.75-.14-2.1-.14h-1.4c-1.47.21-3.43,2.1-4.48,3.5-.77.98-1.4,2.52-1.75,3.5.56-.28,1.4-.84,1.89-1.05.84-.42,2.45-.63,2.73-.63.35,0,2.17.49,3.01.77,1.61.49,3.99,1.26,5.25,1.82-1.54.91-3.01,1.4-4.55,1.89-.42.07-1.12.28-1.4.28h-93.53c-.28-3.01-1.05-6.09-2.87-9.38-.42-.7-1.89-1.82-2.31-2.03-.14-.07-.28-.07-.63-.07-.42,0-1.47.28-1.96.7-2.66,2.1-3.99,5.74-4.83,7.91-.49,1.19-1.12,3.78-1.12,4.13s.07.7.07.77c.21,1.47,2.52,2.8,3.43,2.94,2.03.42,4.27.63,6.09.77-2.94,3.43-6.93,6.16-10.08,6.93-.7.14-2.03.35-2.38.35s-5.04-1.33-5.39-1.33c-.42,0-.7,0-.84.14v.49c1.26,1.4,3.64,2.31,4.62,2.66,1.89.77,3.85,1.47,5.6,1.96.35.07,1.05.14,1.4.14s1.4-.07,1.89-.28c1.05-.49,2.38-1.33,3.08-1.96,2.87-2.45,4.34-6.16,5.6-9.24h70.36ZM579.71,103.89c-.35.21-1.12.21-1.47.21s-.84,0-1.05-.07c-.56-.07-1.89-.63-2.38-1.33-.14-.14-.49-.84-.49-1.19s.42-.84.77-1.26c.49-.42,1.4-1.05,1.82-1.05.28,0,.98.35,1.33.7.98.91,1.47,2.24,1.96,3.57-.14.14-.35.28-.49.42"/>
  <path class="cls-1" d="M717.36,86.46c-.35,0-.49-.14-.63-.21-1.12-.49-2.94-1.96-3.22-1.96-.35,0-2.73,2.59-3.29,3.5,1.12.84,2.38,1.68,3.5,2.1.28.07.7.35.98.35.14,0,1.61-1.54,2.45-2.24,1.26.77,4.06,2.24,4.34,2.24.35,0,.49-.35.56-.35,1.26-1.33,2.17-2.38,2.73-3.29l-4.55-2.45c-.98.77-2.52,2.31-2.87,2.31"/>
  <path class="cls-1" d="M962.01,235.18s.22.79-.71,1.26c-.31.15-1.09.4-1.83.4-2.6,0-4.01-1.53-4.01-4.13,0-2.33,1.42-4.39,3.88-4.39,2.13,0,3.14,1.36,2.98,4.31l-5.25.02c.02,1.88,1.18,2.96,2.82,2.96s2.13-.43,2.13-.43M959.12,229.28c-.94,0-1.85.84-2,2.39,1.35.03,3.02.01,3.36,0,.25-.02.39-.17.39-.39.02-1.12-.56-1.99-1.74-1.99h-.01Z"/>
  <path class="cls-1" d="M1057.72,234.72v-4.5c0-1.18-1.57-1.74-1.57-1.74-.22-.06-.69-.24-1.44-.24-2.65,0-4.64,1.87-4.64,4.55s1.64,4.05,3.62,4.05c.78,0,1.88-.46,2.63-1.07.11.57.49,1.07,1.35,1.07.39,0,.78-.48.86-.89,0,0-.8-.36-.8-1.24M1056.15,234.96c-.44.37-1.17.62-1.77.62-1.47,0-2.63-1.12-2.63-2.99,0-2.33,1.55-3.3,2.95-3.3.66,0,1.19.13,1.46.3v5.38Z"/>
  <path class="cls-1" d="M1002.51,234.72v-4.5c0-1.18-1.57-1.74-1.57-1.74-.22-.06-.69-.24-1.44-.24-2.64,0-4.64,1.87-4.64,4.55s1.64,4.05,3.62,4.05c.78,0,1.88-.46,2.63-1.07.11.57.48,1.07,1.35,1.07.39,0,.78-.48.86-.89,0,0-.8-.36-.8-1.24M1000.94,234.96c-.45.37-1.17.62-1.77.62-1.47,0-2.63-1.12-2.63-2.99,0-2.33,1.55-3.3,2.95-3.3.65,0,1.19.13,1.46.3v5.38Z"/>
  <path class="cls-1" d="M1026.52,230.09s0,.01,0,.02v3.19"/>
  <path class="cls-1" d="M1042.96,226.32c0-.47-.39-.86-.87-.86s-.87.39-.87.86.39.87.87.87.87-.39.87-.87"/>
  <path class="cls-1" d="M1071.82,235.18s.22.79-.71,1.26c-.3.15-1.08.4-1.83.4-2.59,0-4.01-1.53-4.01-4.13,0-2.33,1.42-4.39,3.88-4.39,2.13,0,3.14,1.36,2.98,4.31l-5.25.02c.02,1.88,1.17,2.96,2.81,2.96s2.13-.43,2.13-.43M1068.93,229.28c-.93,0-1.85.84-2,2.39,1.35.03,3.02.01,3.36,0,.24-.02.39-.17.39-.39.02-1.12-.56-1.99-1.74-1.99h-.02Z"/>
  <path class="cls-1" d="M1024.94,235.45h-5.07v-4.7h3.41c.62,0,.77-.13.94-1.14h-4.35v-4.59h3.72c.73,0,.73-.65.78-1.14h-6.12v12.85h6.06c.35,0,.57-.61.62-1.19v-.09Z"/>
  <path class="cls-1" d="M979.47,232.99h4.5c.46,0,.2-.45-.08-1.15h-4.41v1.15Z"/>
  <path class="cls-1" d="M933.14,223.96c-.21.03-.36.11-.36.44v6.56c0,4.13-1.62,4.72-3.28,4.72-1.42,0-3.27-.59-3.27-4.5v-5.3c0-.9.08-1.79.08-2.01,0,0-1.45,0-1.58.16-.08.08-.11.09-.15.38v2.71c0,.1,0,.2,0,.28v3.79c0,4.33,1.9,5.69,4.7,5.69,2.09,0,4.91-.63,4.91-6.01v-2.63c0-1.55.02-3.65.06-4.38-.37,0-.56.02-1.12.08"/>
  <path class="cls-1" d="M1076.79,228.28c.69.06,1.18.26,1.35.91.08.32.03.81-.21.67-.38-.23-.88-.43-1.33-.47-.72-.06-1.3.3-1.35.95-.04.54.3.89.71,1.16.48.3,1.07.63,1.59,1,.79.53,1.11,1.23,1.04,1.98-.15,1.77-1.78,2.51-3.25,2.29-1.94-.29-2.02-1.92-1.79-2,.51.42,1.32.84,2,.9.93.08,1.46-.36,1.51-1,.04-.46-.19-.82-.82-1.21-.48-.31-.91-.55-1.33-.82-.75-.5-1.23-1.19-1.15-2.16.13-1.51,1.53-2.33,3.02-2.2h.02Z"/>
  <path class="cls-1" d="M1008.8,228.25c-.81,0-1.81.43-2.5.83v-5.18c-.42.14-1.58.03-1.58.68v11.26c.01.32.1.43.33.56.43.22,1.32.45,2.27.45,2.72,0,4.96-1.74,4.96-4.66,0-2.71-1.77-3.94-3.49-3.94M1007.48,235.8c-.35,0-.84-.06-1.17-.19v-5.6c.46-.28,1.25-.5,1.71-.5,1.55,0,2.59,1.08,2.59,2.89,0,2.27-1.49,3.4-3.13,3.4"/>
  <path class="cls-1" d="M971.31,234.78v-10.88c-.42.14-1.57.03-1.57.68v3.9c-.22-.05-.69-.24-1.44-.24-2.65,0-4.65,1.86-4.65,4.55s1.64,4.05,3.62,4.05c.79,0,1.89-.46,2.64-1.07.11.56.48,1.07,1.34,1.07.39,0,.79-.48.86-.9,0,0-.76-.34-.8-1.17M965.33,232.59c0-2.33,1.55-3.3,2.94-3.3.66,0,1.2.13,1.46.3v5.38c-.45.37-1.18.62-1.77.62-1.48,0-2.63-1.12-2.63-2.99"/>
  <path class="cls-1" d="M1042.84,236.74v-8.46c-.42.14-1.57.03-1.57.68v7.78h1.57Z"/>
  <path class="cls-1" d="M1035.97,228.25c-1.02,0-2.03.65-2.76,1.38-.01-.08-.04-.17-.07-.25-.27-.75-1.06-1.13-2.33-1.13-1.01,0-1.98.65-2.72,1.33v-1.29c-.42.13-1.57.03-1.57.68v7.77h1.57v-.08.08s0-6.12,0-6.12h0c.47-.51,1.21-1.09,2.05-1.09s1.52.22,1.59,1.46v2.32c0,1.66-.02,2.77-.06,3.44h1.63v-6.12c.42-.51,1.15-1.12,2.1-1.12,1.09,0,1.74.71,1.74,2.16v5.08h1.57v-5.1c0-1.8-.58-3.4-2.72-3.4"/>
  <path class="cls-1" d="M942.98,229.37c-.27-.75-1.06-1.13-2.33-1.13-1.01,0-1.98.65-2.72,1.33v-1.29c-.42.13-1.58.03-1.58.68v7.78h1.58v-.08.08-6.13h0c.47-.51,1.21-1.1,2.05-1.1.88,0,1.52.22,1.58,1.47v2.32c0,1.66-.01,2.76-.05,3.44h1.62v-6.13c0-.43,0-.77-.15-1.24"/>
  <path class="cls-1" d="M947.54,226.32c0-.47-.39-.86-.87-.86s-.86.39-.86.86.38.87.86.87.87-.39.87-.87"/>
  <path class="cls-1" d="M947.43,236.74v-8.46c-.42.14-1.57.03-1.57.68v7.78s1.57,0,1.57,0Z"/>
  <path class="cls-1" d="M1049.82,228.55c-.13-.13-.46-.3-.84-.3-.8,0-1.56.56-2.13,1.63v-1.6c-.42.14-1.58.03-1.58.68v7.78h1.58v-4.99c.03-.27.09-.48.19-.74.39-.91.74-1.28,1.87-1.28.29,0,.99-1.01.91-1.18"/>
  <path class="cls-1" d="M994.46,228.55c-.13-.13-.47-.3-.84-.3-.8,0-1.57.56-2.13,1.63v-1.63c-.42.14-1.57.03-1.57.68v7.82h1.57v-4.99c.03-.27.09-.48.2-.74.39-.91.74-1.28,1.87-1.28.29,0,.99-1.01.91-1.18"/>
  <path class="cls-1" d="M1062.94,235.85c-.64,0-1.25-.47-1.35-1.59-.07-.8,0-4.72,0-4.72,0,0,.46,0,1.16,0,.34,0,1.63-.08,1.82-1.01h-2.99v-1.13c-.42.14-1.57.03-1.57.68v6.31c0,1.42.65,2.46,2.32,2.46.65,0,1.38-.19,1.76-.5.34-.27.39-.67.29-1.05,0,0-.52.55-1.43.55"/>
  <path class="cls-1" d="M953.04,235.85c-.63,0-1.25-.47-1.34-1.59-.07-.8,0-4.72,0-4.72,0,0,.46,0,1.16,0,.34,0,1.63-.08,1.82-1.01h-2.99v-1.13c-.42.14-1.57.03-1.57.68v6.31c0,1.42.66,2.46,2.31,2.46.66,0,1.38-.19,1.76-.5.34-.27.39-.67.3-1.05,0,0-.52.55-1.44.55"/>
  <path class="cls-1" d="M988.39,236.46c-.34-.67-.8-1.83-1.57-3.59-.74-1.69-3.79-8.97-3.79-8.97h-.32s-4.33,10.22-5.39,12.51l-.11.28c.66-.01.94.04,1.24.04.22,0,.33-.07.41-.23.31-.65.89-2.02,1.55-3.53h1.17v-1.14h-.76c.73-1.75,1.32-3.24,1.96-4.76.27.66,3.24,8.14,3.64,9.09.19.45.32.56.56.56.29,0,1-.04,1.53-.01l-.11-.27Z"/>
  <path class="cls-1" d="M990,199.71c-.3-.03-.59-.06-.88-.09-.29-.03-.59-.06-.89-.09.04-.27.07-.54.11-.81.04-.38.38-.68.81-.72.06,0,.1,0,.13-.02.33-.03.63-.11.91-.22-.06.65-.13,1.3-.19,1.95M999.81,201.84c.05-2.26.1-4.53.15-6.79-.86.7-1.73,1.39-2.62,2.08.68.18.83.65.81,1.12-.02.67-.04,1.34-.07,2.01-.59-.02-1.17-.04-1.76-.07.09-1.76.17-3.5.26-5.25-.88.68-1.77,1.35-2.68,2.01.68.2.83.68.81,1.14-.04.67-.09,1.34-.13,2.01-.94-.06-1.88-.13-2.82-.21.35-4.1.69-8.17,1.04-12.29-.86.65-1.72,1.3-2.6,1.93.63.21.74.69.69,1.15-.14,1.47-.28,2.95-.43,4.42-.07.68-.58,1.01-.99,1.17-.27.13-.5.16-.52.21-1.2.09-2.22.91-2.37,2.04l-.29,2.32c.7.09,1.4.17,2.1.25.19.03.38.04.57.07.99.1,1.98.2,2.98.28,2.62.21,5.25.35,7.87.41M981.91,200.22c.58.1,1.17.18,1.75.27.51-3.5,1.02-7,1.53-10.5.07-.46.31-.9.97-.95-.7-.83-1.39-1.66-2.06-2.5-.73,4.56-1.46,9.12-2.19,13.69M975.24,197.39c-.29-.06-.58-.13-.87-.19-.29-.07-.57-.13-.86-.19.04-.2.09-.4.14-.6.34-.18.68-.36,1.02-.55.23.31.47.62.7.93-.04.2-.08.41-.13.6M979.75,187.96c.63.27.7.76.61,1.22-.56,2.97-1.12,5.94-1.67,8.92-.58-.11-1.16-.22-1.74-.34.08-.4.16-.8.24-1.21-.7-.93-1.39-1.87-2.06-2.81-1.01.56-2.02,1.12-3.06,1.66-.1.4-.2.8-.29,1.2-.58-.14-1.16-.29-1.74-.43.44-1.7.88-3.38,1.32-5.08-1,.49-2.02.96-3.05,1.42.62.33.66.82.54,1.28-.18.64-.36,1.29-.53,1.94-.25-.07-.51-.14-.75-.21,0,0,0-.01,0-.01-.48-.14-.96-.27-1.43-.41-.02-.61.08-1.23.2-1.83.39-1.89.91-4.04-1.47-6.59-.69.32-1.38.64-2.08.95,1.68.5,2.35,2.06,2.62,3.3.24,1.5-.58,2.62-.15,3.9-.83-.25-1.65-.5-2.47-.76,0,0,0-.01,0-.01.06-.2.13-.39.19-.59.41-1.28-.45-2.72-1.9-3.23-.1-.03-.21-.07-.31-.11-3.22-1.12-6.4-2.38-9.53-3.77.21-.48.42-.95.63-1.42.18-.41.63-.54,1.08-.34-.48-1.05-.94-2.1-1.39-3.16-.86,1.86-1.71,3.73-2.57,5.59,3.8,1.75,7.68,3.3,11.6,4.66.56.19.87.74.72,1.21-.07.2-.13.39-.2.59-.18.54-.36,1.07-.54,1.6-.36.16-.72.3-1.08.44-.2-.35-.41-.7-.6-1.06.18-.52.37-1.05.55-1.57-.42-.15-.83-.3-1.25-.45-.14-.05-.29-.11-.43-.16-3.17-1.16-6.3-2.46-9.4-3.88-.22.46-.43.94-.65,1.4,3.13,1.44,6.3,2.75,9.51,3.93-.08.24-.17.48-.27.72.59,1.04,1.2,2.08,1.82,3.11,1.11-.42,2.21-.86,3.3-1.3.08-.25.16-.5.25-.76,1.24.4,2.48.79,3.72,1.14.24.36.54.66.93.92-.17-.25-.32-.52-.43-.78,1.04.3,2.08.58,3.12.85,1.46.38,2.91.73,4.37,1.05,1.46.32,2.91.62,4.38.9.06,0,.13.03.19.03.52.1,1.03.19,1.55.28,0,0,.01,0,.02,0,.79-4.56,1.56-9.11,2.36-13.66-.91.58-1.83,1.14-2.77,1.69M996.96,203.29c-.51-.03-.91.31-.93.72-.02.43.35.79.86.81.51.02.91-.3.93-.73.01-.42-.36-.78-.86-.8M991.43,16.08c.67,0,1.22.52,1.22,1.17-.36-.37-1.79-.67-2.45,0,0-.65.55-1.17,1.23-1.17M994.49,17.59c-.52,3.87-5.49,3.87-5.66,1.01.88,3.12,5.71,1.48,4.29-1.98,1.89-.72,3.31-.77,4.85-1.03-3.97-.62-8.63-1.11-11.53.22-1.41.64-1.01,1.51-.8,1.87.23-.76,1.5-.8,2.4-.5-.68,5.83,6.78,5.14,6.46.41M945.05,186.86c-.27-.14-.55-.28-.81-.41-.27-.14-.54-.28-.81-.43.12-.23.24-.46.36-.7.17-.34.62-.49,1.05-.36.06,0,.09.03.13.03.32.09.65.12.95.12-.29.58-.58,1.16-.87,1.75M948.81,177.38c.53.43.46.92.26,1.34-.66,1.33-1.31,2.65-1.97,3.98-.3.61-.9.72-1.36.73-.31.02-.55-.04-.58,0-1.18-.35-2.44.05-2.97,1.05-.36.69-.75,1.37-1.1,2.07.81.43,1.62.85,2.44,1.26.82.41,1.64.82,2.47,1.21,1.99-4.17,3.97-8.34,5.97-12.51-1.04.3-2.1.59-3.17.86M993.38,203.09c-.5-.03-.93.28-.97.69-.03.44.35.8.86.83.49.03.93-.27.95-.71.02-.41-.36-.79-.85-.82M991.23,202.92c-.51-.05-.94.27-.98.68-.04.43.34.8.85.84.49.05.92-.25.96-.69.03-.41-.35-.79-.83-.84M970.95,189.99c.44.12.89-.11,1-.53.1-.4-.17-.83-.61-.95-.45-.12-.91.11-1.01.52-.12.42.16.84.62.96M969,189.46c.44.13.9-.1,1.01-.51.11-.4-.16-.84-.59-.96-.45-.13-.91.11-1.02.5-.13.41.15.84.6.97M988.45,190.56c.46.06.85-.26.9-.69.04-.41-.26-.8-.72-.85-.43-.06-.84.25-.89.66-.06.43.27.82.71.87M1030.54,191.92c.45-.1.74-.53.65-.94-.1-.42-.55-.67-.99-.57-.46.1-.74.52-.65.94.09.41.52.67.99.56M947.6,176.05c.41.21.88.08,1.08-.3.19-.37.03-.84-.38-1.06-.39-.2-.88-.06-1.08.3-.2.38-.03.86.37,1.06M988.67,188.71c.45.05.83-.24.88-.67.04-.41-.26-.8-.7-.85-.43-.05-.83.25-.88.66-.06.43.27.81.7.86M1028.56,192.36c.45-.1.75-.52.66-.93-.09-.42-.54-.69-.98-.59-.45.1-.76.51-.67.94.08.41.53.67,1,.58M946.74,177.71c.42.21.9.07,1.1-.31.19-.38.03-.84-.38-1.06-.4-.21-.89-.07-1.09.3-.2.38-.03.87.37,1.08M993.24,95.85c-.16-2.9-.27-6.18-.27-9.75,0-3.24.09-6.16.23-8.75,8.19-.73,19.92-.94,30.76,1.87.78,2.32,1.21,4.8,1.21,7.38s-.43,5.05-1.21,7.37c-10.81,2.81-22.51,2.61-30.73,1.88M1002,109.79c-2.58,0-5.12-.43-7.54-1.26-.19-1.24-.76-5.33-1.13-11.29,8.07.7,19.42.9,30.06-1.71-3.5,8.37-11.76,14.26-21.39,14.26M978.82,86.61c0-9.35,5.67-17.79,14.23-21.38-.45,2.77-1.45,10.14-1.45,20.87s.98,18.93,1.39,21.86c-8.52-3.6-14.17-12.03-14.17-21.36M994.53,64.67c2.4-.82,4.91-1.23,7.47-1.23,9.62,0,17.88,5.88,21.38,14.24-10.67-2.6-22.04-2.4-30.1-1.7.39-6.16,1.04-10.11,1.25-11.3M1002,62.07c-2.85,0-5.64.48-8.3,1.44-9.72,3.49-16.24,12.77-16.24,23.1s6.49,19.56,16.15,23.07c2.69.98,5.51,1.47,8.39,1.47,13.53,0,24.54-11.01,24.54-24.54s-11.01-24.54-24.54-24.54M1059.23,192.04c-.24.11-.49.04-.58-.15-.09-.2.02-.43.25-.54.09-.04.19-.07.27-.05-.84-.27-1.59.64-.95,1.2-.22.14-.39.14-.51.02-.15.3-.3.61-.45.91,1.11-.49,2.22-1,3.32-1.53-.36-.11-.72-.22-1.07-.34.06.18-.06.38-.28.48M1071.36,87.44v-2.73c0-1.38,0-2.72.01-3.36.01-2.58-.41-5.99-2.86-7.67.74,2.89.24,3.39.24,8.26v6.06c0,1.78.25,3.34.68,4.69-2.84-1.37-5.87-4.37-5.87-9.63,0-1.77-.43-9.05-2.63-12.09v12.63c0,1.66.21,3.13.59,4.41-6.66-3.38-6-14.87-8.17-19.33,0,3.86.08,6.57.08,10.42,0,1.9.29,3.54.76,4.95-5.83-3.73-6.5-11.02-6.96-16.47-.57,2.02-1.49,7.34.1,12.35-3.92-2.99-6.09-9.37-5.83-13.93-.57,2.5-1.18,6.26.04,10.04-.21,4.28-.18,38.11-.17,41.81-2.22-1.84-4.51-5.16-4.26-10.21.08-.83.17-1.61.29-2.36,1.56-10.56,1.88-25.77-2.48-37.95,3.52,19.01-.87,38.55-1.48,42.49-1.1,7.02,1.28,21.58,6.24,37.72-.96-.95-4.27-2.33-5.59-3.66,0,1.45.53,3.03.53,6.21-1.7-2.85-2.35-2.96-4.16-6.13.57,3.72.41,4.04.41,7.26-1.76-3.33-2.71-7.74-6.75-14.05-9-14.05-21.97-5.34-21.97-2.89,0-2.44-12.97-11.16-21.96,2.89-4.05,6.31-4.99,10.73-6.76,14.05,0-3.22-.16-3.54.41-7.26-1.81,3.16-2.46,3.27-4.16,6.13,0-3.19.53-4.76.53-6.21-1.33,1.32-4.63,2.7-5.59,3.66,4.96-16.15,7.35-30.7,6.25-37.72-.62-3.94-5.01-23.48-1.48-42.49-4.37,12.17-4.04,27.39-2.48,37.95.11.74.2,1.54.28,2.36.25,5.07-2.05,8.39-4.28,10.22,0-3.69.06-37.49-.16-41.83,1.23-3.78.62-7.54.04-10.04.27,4.56-1.91,10.94-5.82,13.93,1.59-5.01.66-10.33.09-12.35-.46,5.45-1.12,12.75-6.96,16.47.48-1.42.76-3.05.76-4.95,0-3.86.09-6.57.09-10.42-2.18,4.46-1.51,15.95-8.17,19.33.38-1.29.59-2.75.59-4.41v-12.63c-2.19,3.03-2.62,10.32-2.62,12.09,0,5.26-3.04,8.26-5.87,9.63.43-1.35.68-2.9.68-4.69v-6.06c0-4.87-.51-5.37.24-8.26-2.45,1.67-2.88,5.09-2.86,7.67,0,.64,0,1.99,0,3.36h0v2.73c0,5.5-3.31,8.53-6.25,9.81.5-.66,1.05-2.45,1.05-5.11v-26.53c0-7.46,8.7-16.02,11.93-19.8,8.92-10.46,12.8-1.96,21.79,1.08,14.94,5.07,22.9-.59,22.9-.59,7.98-5.01,8-9.76,8-12.71,0-2-.77-4.61-2.23-6.27-2.73-2.72-7.57-3.6-8.43-3.43-1.82.93-3.43.94-3.76,1.2-.84-1.67-.63-4.21,3.13-6.3,1.05-.58.66-1.91,3.88-3.79,9.38-5.47,18.56-3.49,23.92,2.49-1.9-.69-3.72-1.32-6.91-1.62,4.48,1.55,9.8,5.26,13.23,11.43,1.4,2.45,4.57,9.21,5.69,11.25,2.39,4.36,6.72,13.49,21.97,8.35,8.99-3.03,12.87-11.54,21.79-1.08,3.22,3.78,11.93,12.34,11.93,19.8v26.53c0,2.66.55,4.45,1.05,5.11-2.93-1.28-6.25-4.31-6.25-9.81M1071.37,108.14v-7.58c0-1.25-.04-2.35-.13-3.34.44.17.85.31,1.23.45,1.26,1.26,2.7,2.16,4.09,2.85v12.27c0,2.67.55,4.46,1.05,5.12-2.93-1.28-6.22-4.3-6.24-9.78M1071.49,133.88c0-.89-.11-8.26-.11-9.69,0-1.59-.07-4.3-.21-6.33.47.18.9.35,1.31.49,1.26,1.25,2.7,2.15,4.09,2.85v15.67c0,2.66.55,4.46,1.05,5.11-2.61-1.14-6.12-4.28-6.12-8.1M1071.49,173.65v-5.87h0c-.01-3.7-.11-6.92-.11-8.02v-8.75c0-.74-.02-4.56-.04-9.47.17.07.34.13.5.19,1.4,1.61,3.1,2.73,4.74,3.54v31.36c0,2.67.55,4.46,1.05,5.11-2.61-1.13-6.12-4.41-6.12-8.09M1063.56,103.73v-7.66c0-1.35-.05-2.49-.12-3.45.29.11.59.23.87.33,1.36,1.46,2.97,2.49,4.5,3.24.03,1.61-.06,3.3-.06,4.98v7.51c0,1.79.25,3.34.68,4.69-2.84-1.36-5.87-4.37-5.87-9.63M1063.56,127.36v-7.67c0-1.36-.05-4.23-.13-6.41.31.11.6.23.88.34,1.36,1.45,2.97,2.47,4.5,3.23.06,2.56-.05,6.08-.05,7.94v7.26c0,.19,0,.35.01.53-.01,0-.01,0-.01,0v.17c0,1.61.2,3.02.55,4.28-2.56-1.17-5.74-4.48-5.74-9.65M1063.56,154.18v-7.67c0-1.33-.05-6.24-.12-9.98,1.53,2.03,3.54,3.21,5.36,4.02-.03,5.66-.04,10.2-.04,11.05v7.26c0,2.67,0,4.2.51,4.86-2.19-.96-5.7-4.05-5.7-9.55M1056.06,99.23v-6.95c0-1.43.01-2.39-.02-3.19.7.27,1.46.51,2.27.72.85.66,1.74,1.21,2.61,1.67v12.79c0,1.65.21,3.09.58,4.37-2.7-1.46-5.44-4.41-5.44-9.42M1056.06,120.33v-6.94c0-2.65-.07-2.64-.08-3.93.74.32,1.43.58,2.04.81.94.76,1.93,1.39,2.9,1.89v15.75c0,.55.03,1.05.06,1.55-2.52-1.54-4.92-4.43-4.92-9.12M1060.93,142.69v11.89c-2.5-1.56-4.86-4.44-4.86-9.08v-6.95c0-2.03-.04-6.58-.07-9.31,1.4,1.85,3.2,3.1,4.93,4,.01,3.24,0,8.94,0,9.44M1049.51,95.78v-6.98c0-1.8-.03-3.12-.13-4.1.26.14.52.27.8.41.88,1,1.94,1.92,3.24,2.72.02.58.02,1.16.02,1.69v10.28c0,1.91.29,3.54.77,4.96-2.44-1.58-4.69-4.44-4.69-8.97M1049.51,114.45v-6.98c0-.78,0-1.47-.02-2.08.33.18.67.36,1.02.53.9.9,1.88,1.63,2.87,2.22.07.84.06,1.7.06,2.47v10.27c0,.74.05,1.43.13,2.09-2.17-1.64-4.05-4.38-4.05-8.52M1053.44,135.78v8.62c-2.12-1.66-3.93-4.37-3.93-8.42v-6.99c0-1.3-.01-3.73-.06-5.62,1.12,1.48,2.5,2.58,3.9,3.43.1,2.95.08,8.11.08,8.98M1042.82,94c0-1.59-.12-9.97-.14-15.43.91,1.58,2.23,3.1,4.1,4.49.21,1.54.1,3.47.1,4.82v8.45c0,1.58.2,2.96.53,4.21-2.56-1.89-4.6-4.22-4.6-6.54M1042.74,99.15c.84,1.52,2.25,3.12,4.17,4.58.01,1.01-.02,2.02-.02,2.83v6.96c-2.3-1.8-4.07-3.96-4.07-6.12,0-.97-.04-4.45-.09-8.26M1046.89,128.07v4.98c-2.3-1.8-4.07-3.96-4.07-6.12,0-1.51-.12-9.05-.14-14.48.82,1.52,2.23,3.15,4.16,4.62.14,3.18.05,9.8.05,11M1040.66,157.06c.31.71.22,2.12.55,2.77.32.65,1.04,1.11,1.25,1.43.27.44.17,1.56.52,2.34.17.36.35.73.53,1.05-.24.25-.42.55-.6.82-.54-1.21-1.87-1.35-2.87-.72-.51.32-1.11.83-1.57,1.61.19-1.38-.07-1.82-.59-2.35-.79-.79-.48-2.44-1.12-3.44-.49-.77-1.41-1.02-1.99-2.22-.59-1.18-.3-1.82-.89-3-.67-1.34-.84-1.77-.88-3.57.77.98,1.65,1.8,2.84,3,.42-2.81.46-3.48.46-5.92,1.19,1.02,2.41,2.54,2.81,3.57.23.61.44,2.39.53,2.69.29.92.72,1.21,1.04,1.92M1045.89,165.27c1.25.1.56,5.53,1.49,7.43.94,1.92.53,3.52-1.24,3.35-1.81-.17-1.71-5.68-1.72-6.64,0-1.37-.69.72-1.06,1.49-.08-.34-.16-.71-.21-1.1-.13-.93-.03-1.53.03-2.1.49-1.29,1.45-2.52,2.72-2.43M1047.5,167.49c.5-1.64,1.86-3.91,3.42-3.55,1.22.27.05,4.2.79,6.12,1.44,3.75-.58,5.02-2.33,4.58-1.94-.49-1.08-5.73-.91-6.49.05-1.23-.59-.02-1.04.67-.09-.32-.15-.54.06-1.33M1053.3,168.26l11.48,7.85v16.52c-18.26,10.35-38.72,16.35-59.81,16.79h-.35s-1.6,1.32-2.37,1.97h0s0,0,0,0c-.78-.65-2.37-1.97-2.37-1.97h-.35c-21.09-.44-41.55-6.44-59.8-16.79v-16.52s11.47-7.85,11.47-7.85c.28.16.56.32.84.48.04,1.65-1.11,2.49-.85,4.18.21,1.41,1.08,2.41,2.11,2.88.27.62.78,1.12,1.46,1.4.7.26.62-.34.6-1.24.15-.04.3-.09.45-.17.2.67.63,1.16,1.19,1.44.25.51.71.97,1.61,1.57.9.42.29-.55.13-1.43.33-.08.67-.23,1-.45.11.27.28.51.53.68.08.06.17.12.25.18.22.92.86,1.45,1.84,2,.66.21.41-.52.34-1.22.9.01,1.7-.49,2.06-1.97.17-.7.16-1.15.12-1.52,10.89,4.64,22.67,7.79,34.19,8.14.41.31,3.17,2.39,3.17,2.39,0,0,2.77-2.08,3.17-2.39,11.46-.35,23.16-3.47,34-8.06-.03.36-.02.79.14,1.44.36,1.48,1.15,1.98,2.06,1.97-.07.7-.31,1.44.34,1.22.98-.55,1.61-1.08,1.84-2,.08-.05.18-.11.25-.17.24-.17.41-.41.53-.68.33.22.66.36,1,.45-.17.87-.77,1.84.13,1.43.9-.6,1.36-1.07,1.61-1.57.56-.28,1-.77,1.19-1.44.15.07.3.12.46.17-.01.89-.1,1.49.6,1.24.68-.28,1.19-.79,1.47-1.4,1.02-.46,1.89-1.47,2.1-2.88.26-1.66-.85-2.5-.85-4.09.34-.19.67-.38,1.01-.57M952.62,170.05c.74-1.92-.44-5.84.78-6.12,1.56-.36,2.93,1.91,3.42,3.56.15.46.13,1.17.07,1.32-.44-.69-1.09-1.9-1.04-.67.17.76,1.04,6-.91,6.49-1.73.44-3.75-.83-2.32-4.58M958.43,165.27c1.27-.09,2.23,1.13,2.72,2.43.07.58.17,1.17.04,2.1-.06.39-.13.75-.21,1.1-.37-.77-1.06-2.86-1.06-1.49,0,.96.09,6.48-1.73,6.64-1.78.17-2.18-1.43-1.24-3.35.93-1.9.24-7.33,1.49-7.43M964.75,169.43c-1.5,2.7-.17,7.75-1.88,7.86-4.9.32-1.26-5.83-1.08-7.36.23-1.96.02-4.82,1.93-4.23,1.71.52,3.89,6.08,4.95,7.74,0,.01.03.03.05.06-.39-.15-.77-.32-1.16-.48.11.04.2.07.25.08-1.75-.69-2.76-4.91-3.06-3.67M1040.6,165.71c1.91-.59,1.71,2.27,1.93,4.23.18,1.53,3.82,7.68-1.08,7.36-1.7-.11-.38-5.16-1.88-7.86-.26-1.11-1.08,2.35-2.52,3.55-.47.2-.94.39-1.42.58,1.12-1.91,3.31-7.34,4.97-7.85M1013.89,166.43c1.22,7.13-5.8,7.52-6.85,2.03-.13-.7-.32-2.81-.54-5.62-.53-9.57-1.32-24.74-1.36-27.61,1.18-.75,2.6-1.32,4.04-1.71.78,5.4,4.39,30.98,4.71,32.9M1014.6,133.17c.76.14,1.39.4,1.84.77.69.48,1.45,1.13,2.25,1.92,1.26,4.79,6.38,23.95,6.84,25.87.56,2.31,1.16,4.42,2.13,5.39-3.1.59-5.29,0-6.01-2.82-.94-4.41-5.78-26.3-7.06-31.14M1019.83,164.42c.41,2.35,2.28,5.7.13,6.22-3.33.81-3.63-1.04-4.17-3.9-.01-.08-4.7-30.72-5.36-33.47,1.07-.2,2.12-.28,3.06-.23.69,3.37,6.02,29.48,6.34,31.39M999.7,167.33c0-3.72.57-27.39.69-31.22.95.82,1.6,1.79,1.78,2.87.19-1.08.84-2.05,1.79-2.87.11,3.82.67,27.5.67,31.22,0,4.04-1.06,5.5-2.46,6.33-1.39-.83-2.46-2.29-2.46-6.33M976.95,161.48c-.91,3.23-3.11,6.58-3.63,7.1,1.9.72,5.36,1.28,7.79.31-.35,1.27-.32,2.43.76,3.52,1.33,1.33,5.08,2.29,6.9-.84,1.47,5.21,7.09,4.97,9.31,1.32.95,3.02,2.93,3.4,4.07,4.55,1.14-1.14,3.13-1.52,4.09-4.55,2.2,3.64,7.83,3.89,9.3-1.32,1.82,3.13,5.58,2.17,6.91.84,1.08-1.09,1.1-2.25.76-3.52,2.44.97,5.9.41,7.79-.31-.52-.52-2.72-3.87-3.63-7.1-1.11-3.92-5.19-18.05-7.03-23.85,4.97,5.71,10.65,15.39,11.02,20.47.15-.72.48-1.6.79-2.55,1.15,2.38,3.9,7.26,4.37,8.41.48,1.21.62,1.99.26,3.59-.25,1.16-1.3,4.66-3.55,6.92,0,0,0,.01.01.03-9.01,3.34-18.5,5.43-28.23,5.7-.8.65-2.75,2.12-2.75,2.12,0,0-1.96-1.47-2.75-2.12-9.7-.27-19.16-2.34-28.14-5.67,0-.01.01-.02.02-.03-2.25-2.26-3.59-5.79-3.84-6.95-.34-1.6-.21-2.39.27-3.59.46-1.15,3.22-6.03,4.36-8.41.31.95.64,1.84.79,2.55.37-5.09,6.06-14.76,11.03-20.47-1.84,5.8-5.91,19.93-7.03,23.85M982.66,164.31c-.72,2.82-2.91,3.4-6.01,2.82.97-.97,1.57-3.08,2.13-5.39.46-1.92,5.58-21.08,6.85-25.87.8-.8,1.56-1.45,2.24-1.92.45-.38,1.09-.63,1.84-.77-1.28,4.84-6.11,26.73-7.05,31.14M995.14,133.54c1.44.38,2.86.96,4.04,1.71-.06,2.88-.84,18.03-1.37,27.6-.21,2.81-.41,4.92-.54,5.62-1.05,5.49-8.06,5.1-6.85-2.03.33-1.91,3.94-27.5,4.72-32.9M988.53,166.74c-.54,2.87-.83,4.72-4.17,3.9-2.15-.52-.27-3.87.13-6.22.35-2.04,5.58-27.53,6.34-31.39.94-.05,1.99.03,3.05.23-.66,2.75-5.35,33.4-5.36,33.47M961.34,163.6c.35-.78.25-1.89.52-2.34.2-.33.92-.79,1.25-1.43.32-.65.24-2.06.56-2.77.31-.71.74-1,1.03-1.92.09-.3.31-2.08.54-2.69.39-1.03,1.6-2.55,2.81-3.57,0,2.43.03,3.1.45,5.92,1.19-1.2,2.07-2.02,2.84-3-.04,1.81-.2,2.23-.87,3.57-.6,1.18-.31,1.81-.9,3-.58,1.2-1.5,1.45-1.99,2.22-.65,1-.33,2.66-1.12,3.44-.53.53-.79.97-.59,2.35-.47-.79-1.07-1.29-1.58-1.61-1-.63-2.33-.49-2.87.71-.17-.27-.36-.56-.6-.81.18-.33.36-.69.53-1.05M961.49,94c0,2.32-2.05,4.65-4.6,6.54.34-1.24.53-2.63.53-4.21v-8.45c0-1.35-.11-3.28.1-4.82,1.87-1.39,3.19-2.91,4.1-4.49-.02,5.46-.14,13.84-.14,15.43M957.4,103.72c1.92-1.45,3.32-3.05,4.16-4.56-.04,3.79-.08,7.26-.08,8.24,0,2.15-1.75,4.31-4.05,6.11v-6.96c0-.81-.04-1.82-.03-2.83M961.47,126.94c0,2.15-1.75,4.31-4.05,6.11v-4.97c0-1.2-.08-7.83.04-11.01,1.92-1.47,3.33-3.1,4.14-4.61-.03,5.43-.13,12.97-.13,14.48M954.8,88.8v6.98c0,4.53-2.26,7.4-4.69,8.97.48-1.42.77-3.05.77-4.96v-10.28c0-.53,0-1.11.01-1.69,1.29-.8,2.36-1.71,3.24-2.72.28-.13.53-.27.79-.41-.08.99-.12,2.31-.12,4.1M950.75,122.97c.07-.66.12-1.35.12-2.09v-10.27c0-.77-.01-1.64.06-2.47,1-.6,1.98-1.32,2.87-2.22.35-.17.69-.35,1.01-.53-.01.61-.02,1.3-.02,2.08v6.98c0,4.13-1.88,6.87-4.04,8.52M954.8,128.99v6.99c0,4.05-1.8,6.76-3.92,8.42v-8.62c0-.87-.02-6.03.08-8.98,1.4-.84,2.77-1.94,3.9-3.43-.04,1.89-.06,4.32-.06,5.62M948.25,113.39v6.94c0,4.69-2.4,7.58-4.93,9.12.03-.5.06-1,.06-1.55v-12.04c0-.38,0-2.14,0-3.71.97-.5,1.96-1.13,2.89-1.9.61-.22,1.31-.49,2.04-.8,0,1.3-.07,1.28-.07,3.93M948.25,138.55v6.95c0,4.64-2.36,7.52-4.87,9.08v-11.89c0-.5,0-6.2,0-9.43,1.74-.91,3.53-2.16,4.93-4.01-.02,2.72-.06,7.28-.06,9.31M942.8,108.65c.37-1.28.58-2.72.58-4.37v-12.79c.88-.46,1.77-1.01,2.62-1.67.81-.21,1.56-.45,2.27-.72-.04.8-.02,1.76-.02,3.19v6.95c0,5.01-2.74,7.96-5.45,9.42M940.76,119.68v7.67c0,5.18-3.19,8.48-5.75,9.65.35-1.25.55-2.66.55-4.27v-.17s0,0,0,0c0-.17,0-.34,0-.53v-7.26c0-1.86-.11-5.38-.05-7.94,1.53-.76,3.13-1.78,4.49-3.23.28-.11.57-.22.87-.34-.08,2.18-.12,5.04-.12,6.41M940.76,146.51v7.67c0,5.5-3.51,8.59-5.7,9.55.5-.66.51-2.19.51-4.86v-7.26c0-.86-.03-5.39-.04-11.05,1.81-.81,3.82-1.99,5.35-4.02-.08,3.74-.11,8.65-.11,9.98M935.5,96.17c1.54-.76,3.15-1.78,4.51-3.24.28-.1.57-.21.87-.33-.07.96-.11,2.1-.11,3.45v7.66c0,5.27-3.04,8.27-5.87,9.63.43-1.35.68-2.9.68-4.69v-7.51c0-1.69-.08-3.38-.06-4.98M926.7,117.93c.5-.66,1.05-2.45,1.05-5.12v-12.27c1.39-.69,2.83-1.6,4.1-2.85.37-.14.78-.29,1.22-.45-.08.98-.13,2.08-.13,3.34v7.55c0,5.49-3.31,8.52-6.25,9.81M932.94,124.19c0,1.43-.13,8.8-.13,9.69,0,3.83-3.51,6.97-6.12,8.1.5-.65,1.05-2.45,1.05-5.11v-15.67c1.39-.69,2.83-1.6,4.1-2.85.39-.15.83-.32,1.29-.49-.13,2.03-.2,4.74-.2,6.33M932.94,151.02v8.75c0,1.1-.1,4.31-.12,8.01,0,0,0,0,0,0v5.87c0,3.68-3.51,6.96-6.12,8.09.5-.65,1.05-2.45,1.05-5.11v-31.36c1.63-.81,3.33-1.92,4.74-3.54.15-.06.32-.12.5-.19-.03,4.91-.05,8.73-.05,9.47M984.4,25.96h-.01c-.68.19-4.29.81-4.75.35.79-.42,1.33-.65,2.84-1.61,1.1.09,2.17.77,3.89,1.8-.95-.39-1.05-.72-1.97-.53M1079.18,122.33c.75.28,1.4.51,1.91.72-2.06-3.12-1.91-8.16-1.91-9.35v-12.03c.75.28,1.4.51,1.91.72-2.06-3.12-1.91-8.17-1.91-9.36v-28.02c0-7.75-11.85-26.53-21.87-26.79-7.12-.17-15.46,9.83-25.68,7.24-3.28-.85-5.89-4.37-8.05-8.72-3.81-7.78-7.47-18.18-16.73-24.2-10.26-6.66-22.08.78-23.43,1.96-1.16,1.07-3.01,4.26-3.99,4.77-3.21,1.67-3.73,4.48-3.73,5.55s.23,3.65,2.19,5.12c-.27-1.27-.34-1.97-.05-2.62,1.28.22,4.09.79,5.91.05.89.89,3.02,2.6,3.95,4.36,1.29,2.45,1.3,2.82,1.3,3.79,0,2.48-1.16,6.04-4.7,8.37-3.72,2.66-12.52,4.15-23.53.37-5.96-2.04-8.41-6.17-13.74-6.04-10.02.25-21.88,19.03-21.88,26.79v28.02c0,1.19.16,6.23-1.91,9.36.52-.21,1.17-.44,1.91-.72v12.03c0,1.19.16,6.23-1.91,9.35.52-.21,1.17-.43,1.91-.72v15.43c0,1.19.16,6.23-1.91,9.36.52-.21,1.17-.42,1.91-.7v31.1c0,.89.09,3.95-.74,6.74-.28.93.35,2.05,1.33,1.66,4.02-1.6,9.85-4.73,9.85-13.45v-4.91c2.89-1.26,6.34-3.51,7.45-8.96,3.27-1.63,6.89-4.45,7.69-10.14,3.35-1.95,6.68-5.32,6.71-11.84,2.92-2.2,4.64-4.8,4.99-6.8.24-1.35.41-4.58.47-8.31,2.11-1.54,3.62-3.28,4.49-4.88-.34,8.09-1.95,18.97-5.76,34.03.67,0,1.58-.15,2.49-.36-.51,3.03-3.09,10.27-4.82,13.55-.23-.01-.48-.01-.75.03-.58.1-.98.64-1.26,1.33-.78-1.19-1.76-3.12-4.03-2.37-1.18.39-1.61,1.31-1.71,2.3-1.89,1.19-14.72,9.15-14.72,9.15v19.84c19.05,11.28,40.04,18.08,62.69,18.55.74.74,2.75,2.28,2.75,2.28,0,0,2.01-1.53,2.75-2.28,22.64-.47,43.64-7.27,62.7-18.55v-19.84s-13.92-8.64-14.91-9.27c-.12-.94-.57-1.81-1.7-2.18-2.27-.74-3.25,1.19-4.03,2.37-.27-.69-.69-1.23-1.26-1.33-.27-.04-.53-.04-.74-.03-1.73-3.28-4.32-10.51-4.83-13.55.92.21,1.82.36,2.49.36-3.81-15.06-5.42-25.94-5.76-34.03.86,1.59,2.37,3.33,4.46,4.87.07,3.73.23,6.98.47,8.33.35,2.01,2.09,4.61,5.01,6.81.04,6.51,3.37,9.89,6.71,11.84.8,5.69,4.41,8.51,7.69,10.14,1.12,5.45,4.56,7.7,7.45,8.96v4.91c0,8.62,5.71,11.78,9.72,13.4,1.03.41,1.87-.37,1.61-1.12-.98-2.92-.9-6.29-.9-7.23v-31.07c.75.28,1.4.46,1.91.67-2.06-3.13-1.91-8.17-1.91-9.36v-15.43ZM1050.48,191.23c-.27.1-.55.21-.82.32-.08-.2-.15-.38-.23-.58.18-.34.36-.69.54-1.03.37.13.74.25,1.12.38.08.19.15.38.23.57-.28.11-.56.22-.84.34M1049.18,187.93c-.53,1.04-1.07,2.07-1.63,3.1.14.39.29.77.43,1.16-.56.21-1.13.41-1.7.62-1.01-2.85-2.02-5.7-3.04-8.54-.15-.44-.14-.94.42-1.31-1.02-.39-2.02-.8-3.02-1.23,1.32,3.88,2.65,7.77,3.97,11.65.17.49.34.98.5,1.47.43-.15.86-.3,1.29-.45l.41-.14c1.42-.51,2.84-1.04,4.25-1.6.84-.33,1.68-.67,2.51-1.02-.36-.86-.72-1.71-1.08-2.56-1.11-.37-2.22-.76-3.31-1.15M1061.86,187.82c.54-.27,1.08-.55,1.61-.83-1.63-3.14-3.27-6.28-4.9-9.42-.22-.41-.27-.91.25-1.35-1.08-.25-2.14-.51-3.2-.79,1.85,3.67,3.69,7.34,5.54,11,.23.46.46.92.69,1.38M1032.84,94.04s.03.04.03.07c0,.02-.03.05-.06.05l-1.63.36-.36,1.42s-.03.04-.06.05h0s-.05-.01-.06-.04l-.81-1.31-1.63-.04s-.05-.02-.06-.05c-.01-.03-.01-.05.01-.07l1.03-1.21-.41-1.52s0-.06.02-.07c.03-.02.05-.03.08,0l1.48.66,1.29-.84s.03-.01.05-.01c.01,0,.03,0,.04.01.02.01.03.04.03.07l-.28,1.43,1.31,1.04ZM1016.49,111.31l-.72-2.79s-.04-.04-.07-.05c-.03,0-.05,0-.07.03,0,0-1.42,2.06-1.85,2.63-.72-.02-3.23-.21-3.23-.21-.03,0-.05.01-.07.04-.01.01,0,.04,0,.07l1.75,2.32c-3.13,1.19-6.51,1.85-10.05,1.85s-7.15-.71-10.36-1.98l1.64-2.19s.02-.05.01-.08c-.02-.02-.05-.04-.07-.04,0,0-2.52.19-3.23.21-.43-.56-1.85-2.63-1.85-2.63-.01-.03-.04-.04-.07-.03-.03,0-.05.02-.06.05l-.67,2.57c-5.74-3.49-10.14-8.96-12.25-15.46l2.63-.07s.05-.02.06-.05c.01-.02,0-.05-.01-.08,0,0-1.64-1.85-2.11-2.4.18-.71.87-3.08.87-3.09.01-.03,0-.05-.02-.06-.02-.03-.05-.03-.08-.02l-2.43,1.08c-.19-1.32-.3-2.67-.3-4.04,0-5.75,1.73-11.1,4.69-15.57l1.6,1.91s.03.03.05.03c0,0,0,0,.02,0,.03,0,.04-.03.05-.06,0,0,.42-2.45.56-3.13.68-.3,3.02-1.21,3.03-1.21.03-.01.04-.03.05-.06,0-.03-.01-.05-.04-.07l-2.3-1.19c4.6-4.89,10.92-8.14,17.98-8.8l-.52,2.63s0,.06.03.07c0,0,.03.01.04.01.01,0,.02,0,.04,0,0,0,2.18-1.25,2.81-1.57.63.32,2.82,1.56,2.82,1.57.02,0,.06,0,.08,0,.02-.02.03-.05.03-.07l-.52-2.66c7.16.56,13.58,3.78,18.26,8.69l-2.58,1.34s-.04.04-.04.07c0,.03.02.06.05.06,0,0,2.35.91,3.02,1.21.14.68.56,3.13.56,3.13.01.03.03.05.06.06,0,0,.01,0,.01,0,.03,0,.04-.01.06-.03l1.84-2.18c3.07,4.52,4.87,9.98,4.87,15.85,0,1.43-.12,2.84-.32,4.21l-2.82-1.25s-.06,0-.07.01c-.03.02-.03.05-.03.07,0,.01.69,2.39.88,3.09-.48.55-2.11,2.4-2.11,2.4-.02.03-.03.05-.01.08.01.03.04.05.07.05l3.03.08c-2.16,6.63-6.7,12.19-12.61,15.67M1017.24,113.06s0,.03-.02.03l-1.28.69v1.66s0,.05-.02.07h-.04s-.03,0-.04-.01l-1.3-1.03-.8.34-.54.23h0s0,0-.01,0c-.02,0-.04,0-.07-.01,0-.01,0-.03,0-.04,0-.01-.02-.02,0-.04l.22-.6.31-.82-.41-.55h0l-.56-.75s0-.03,0-.03c0-.01-.01-.03,0-.04,0-.01.02-.01.04-.02.01,0,.02-.02.03-.02l1.56.04.96-1.26s.04-.03.07-.03c.03,0,.05.03.06.05h0s.24.92.24.92l.17.66,1.08.36.37.12s.04.04.05.06c0,.01-.01.03-.02.04M991.32,112.18s0,.03,0,.04l-.56.74-.42.55.22.6.3.82s0,.06-.02.08c0,0-.01,0-.02,0-.01,0-.04.01-.06,0l-.36-.15-.72-.3s.03.01.04.01l-.31-.13-.49.39-.81.63s-.03.02-.04.02c0,0,0,0,0,0h-.03s-.04-.04-.04-.07v-1.66s-1.27-.69-1.27-.69c-.03-.02-.04-.04-.04-.07h0s.02-.05.05-.06l.73-.24.72-.24.22-.86.18-.72s.04-.04.06-.05c.03,0,.06,0,.07.03l.48.63.48.63,1.55-.04s.06.01.07.04c0,.01,0,.02,0,.04M973.27,95.96s-.03.04-.06.04h-.01s-.05-.03-.06-.05l-.36-1.42-1.63-.36s-.04-.03-.06-.05c-.01-.03,0-.06.02-.07l1.31-1.04h0s-.06-.31-.06-.31c0,0,0,0,0,.01l-.22-1.13s0-.04.01-.06c0,0,.01-.01.02-.02.03-.01.05-.01.08,0l1.28.84.8-.35.68-.3s.06-.01.08,0c.02.01.03.05.02.07l-.41,1.53,1.03,1.21s.03.05.01.08c-.01.02-.04.04-.06.04l-1.63.04-.81,1.31ZM976.92,69.76l.87-1.17-.74-1.49s0-.06,0-.08c.02-.02.05-.03.07-.03l1.65.37.95-1.12s.06-.03.08-.02c.02,0,.04.03.04.06l.12,1.53,1.45.76s.04.04.04.06c0,.03-.01.06-.04.07l-1.43.63-.31,1.56s-.03.05-.05.06h-.02s-.04,0-.06-.03l-.39-.46-.66-.79-1.45.18h-.06s-.06,0-.08-.03c-.01-.03-.01-.06,0-.08M999.69,56.65s.03-.03.06-.03l1.45-.07.72-1.51s.04-.05.07-.05.06.02.07.05l.72,1.51h.12s0,0,0,0l.99.04h0c.12,0,.24.01.36.02.02.01.04.02.04.04h0s0,.06-.01.08l-1.09,1.06.32,1.6s0,.06-.03.07c-.01,0-.03.02-.04.02-.01,0-.03,0-.04-.01l-1.4-.71-1.4.71s-.06.01-.08,0c-.02-.01-.03-.04-.03-.07l.14-.74.17-.86-1.1-1.06s-.02-.05-.01-.08c0,0,.01,0,.01-.01M1023.35,68.15l.63-.33.11-1.53s.02-.05.05-.06c.01,0,.03,0,.04,0,.02,0,.03.01.04.02l.95,1.12.13-.03,1.52-.35s.05,0,.07.03c.02.02.02.05.01.07l-.74,1.49.87,1.17s.03.06,0,.08c-.01.03-.04.04-.07.04l-1.52-.19-1.05,1.25s-.03.03-.05.03h-.02s-.04-.03-.05-.06l-.32-1.56-1.43-.63s-.04-.04-.04-.07.01-.06.04-.07l.82-.43ZM1033.12,89.38s0-.06-.03-.07c-.03-.02-.06-.02-.08,0,0,0-.25.18-.59.42.08-.94.14-1.88.14-2.84,0-5.78-1.63-11.19-4.45-15.79.56.1,1.01.17,1.01.17.03,0,.06,0,.07-.03.02-.02.02-.05,0-.08,0,0-1.42-2.11-1.83-2.68.32-.65,1.3-2.82,1.3-2.82.01-.02.01-.06-.01-.07-.01-.02-.04-.03-.07-.03l-3,.68c-.48-.56-2.16-2.43-2.16-2.43-.02-.02-.05-.03-.08-.02-.03.01-.04.03-.04.06l-.09,1.14c-4.65-4.45-10.7-7.45-17.42-8.24.52-.46.96-.87.96-.87.02-.01.03-.05.02-.08-.01-.03-.03-.04-.07-.04,0,0-2.55-.17-3.26-.21-.31-.64-1.38-2.75-1.38-2.75l-.02-.03s-.04-.02-.06-.01c-.02,0-.04.02-.04.04,0,0-1.07,2.11-1.37,2.76-.71.03-3.26.2-3.26.2-.03,0-.06.02-.07.05,0,.03,0,.06.02.08,0,0,.47.42,1,.9-6.76.89-12.82,3.99-17.44,8.57l-.11-1.52s-.02-.05-.05-.06c-.02-.01-.06,0-.08.02,0,0-1.68,1.87-2.17,2.43l-3-.68s-.05,0-.07.03c-.01.03-.02.06,0,.08,0,0,.98,2.17,1.3,2.82-.42.57-1.83,2.67-1.83,2.67-.02.03-.02.06,0,.08.01.02.04.03.07.03,0,0,.69-.12,1.46-.25-2.84,4.62-4.49,10.06-4.49,15.87,0,1.06.06,2.11.17,3.15-.56-.39-1.04-.73-1.04-.73-.03-.03-.06-.03-.08,0-.02.02-.04.04-.03.07,0,0,.35,2.49.49,3.21l-2.43,1.93s-.03.04-.03.07c0,.03.03.05.06.06,0,0,2.33.58,3.03.73.18.7.94,3.1.94,3.1.01.03.03.05.06.05h0s.05-.01.07-.04c0,0,.3-.54.64-1.15,2.26,6.15,6.44,11.36,11.82,14.92-.69.2-1.31.37-1.31.37-.03.01-.05.04-.06.06,0,.03.01.06.04.07,0,0,2.22,1.28,2.84,1.61,0,.42.04,3.1.04,3.1,0,.03.01.05.04.06.01,0,.03,0,.03,0,.02,0,.04,0,.05-.02l2.43-1.9,3.04,1.28s.06,0,.08-.01c.02-.02.03-.06.01-.08,0,0-.23-.57-.5-1.24,3.12,1.1,6.47,1.7,9.97,1.7,3.31,0,6.5-.53,9.48-1.52-.24.59-.43,1.07-.43,1.07,0,.03,0,.06.02.08.02.02.05.03.07.01l3.04-1.28,2.43,1.9s.03.01.04.01c0,0,.02,0,.03,0,.03-.01.04-.03.04-.06,0,0,.04-2.68.04-3.1.62-.33,2.84-1.61,2.84-1.61.03-.01.04-.04.04-.07,0-.03-.02-.05-.05-.06,0,0-.45-.13-1.02-.29,5.31-3.47,9.48-8.56,11.79-14.56.23.41.39.72.39.72.01.03.04.04.07.04h.01s.05-.03.06-.05c0,0,.76-2.4.94-3.1.71-.15,3.03-.73,3.03-.73.03,0,.05-.03.06-.05,0-.03,0-.06-.03-.07l-2.43-1.93c.13-.72.48-3.21.48-3.21M1057.7,187.46c.09.19.18.37.27.56-.28.13-.55.26-.83.38-.27.13-.53.25-.81.37-.08-.19-.17-.38-.25-.56.17-.36.33-.71.49-1.07.38.11.76.21,1.14.31M1056.12,184.1c-.15.36-.31.72-.47,1.08-.37-.12-.74-.23-1.11-.35-1.1-2.43-2.2-4.86-3.3-7.3-.46,1.11-.93,2.22-1.42,3.32.67-.1,1.17.18,1.35.6.63,1.46,1.27,2.91,1.91,4.38.04.1.08.19.13.29.59.19,1.18.38,1.78.56-.26.57-.52,1.14-.79,1.7.37.85.74,1.7,1.11,2.54.83-.36,1.66-.73,2.49-1.11.83-.38,1.65-.77,2.47-1.17-.41-.83-.81-1.67-1.21-2.5-.61-.16-1.21-.33-1.81-.5.25-.58.49-1.14.73-1.72-.74-1.53-1.49-3.05-2.23-4.58-.2-.41-.09-.97.43-1.42-1.16-.34-2.31-.69-3.44-1.07,1.13,2.41,2.26,4.83,3.4,7.24M1019.39,189c-.9-.6-1.79-1.21-2.67-1.83.55,4.59,1.1,9.17,1.65,13.76.6-.07,1.18-.14,1.78-.22-.47-3.51-.94-7.02-1.41-10.53-.06-.46.03-.94.65-1.18M1037.02,186.28c-.13-.45-.1-.94.48-1.27-.99-.45-1.97-.92-2.93-1.4,1.11,3.95,2.22,7.9,3.33,11.85.14.5.28,1,.42,1.49.57-.17,1.14-.32,1.71-.49-1-3.39-2.01-6.78-3.01-10.18M1008.92,198.64c-.37-.6-.74-1.2-1.1-1.8.17,0,.35-.01.52-.02.01-.45.17-.69.45-.95.31.23.51.45.57.9.17,0,.34-.02.51-.03-.31.63-.62,1.27-.94,1.9M1012.96,189.73c.66.1.86.55.9,1.01.28,3.01.56,6.02.84,9.03-1.55.14-3.1.26-4.65.35.84-1.69,1.64-3.39,2.41-5.1-.67.05-1.35.1-2.02.14-.29-.52-1.12-1.08-1.75-1.12-.6.1-1.39.74-1.61,1.28-.67.02-1.35.04-2.02.05.93,1.63,1.9,3.24,2.89,4.85-1.52.06-3.03.09-4.55.1,0-1.54-.01-3.08-.03-4.63-.84.78-1.7,1.54-2.58,2.3.52,0,.86.33.86.79-.01,1.28-.02,2.56-.03,3.85,0,.85-.81,1.54-1.81,1.52-.8-.01-1.45-.47-1.68-1.08.23,1.04,1.31,1.84,2.61,1.86,1.5.02,2.69-1.03,2.67-2.3,0-.25,0-.51,0-.76,1.89-.01,3.77-.06,5.66-.15,1.92-.09,3.85-.23,5.78-.41.08,0,.17-.01.25-.03.51-.04,1.02-.1,1.53-.15-.49-4.6-.98-9.18-1.47-13.78-.72.8-1.44,1.6-2.19,2.38M1032.65,192.7c.7-.01.98.39,1.08.83.24.95.48,1.91.72,2.86-2.56.65-5.14,1.21-7.72,1.7-.35.06-.7.13-1.05.19-.53-.32-1.07-.65-1.59-.98,1.21-1.23,1.97-3.41,1.5-5.25-.29,2.55-1.45,4.36-4.3,5.39,1.29.85,2.61,1.67,3.96,2.48.59-.1,1.17-.21,1.76-.32,3.2-.6,6.39-1.33,9.55-2.18-.66-2.48-1.32-4.96-1.98-7.43-.63.91-1.28,1.81-1.94,2.71M1041.49,189.55c-.58,1-1.17,1.99-1.78,2.98.49-.15.92.05,1.06.49.38,1.23.76,2.45,1.14,3.67.25.81-.34,1.73-1.3,2.01-.76.22-1.52,0-1.92-.52.54.92,1.8,1.36,3.05.98,1.46-.44,2.3-1.81,1.89-3.02-.72-2.2-1.43-4.39-2.15-6.6M981.33,19.96c-.57,0-1.03.38-1.03.84,0,.42.37.76.87.83-.04-.07-.07-.15-.07-.22,0-.35.43-.63.96-.63.11,0,.21.01.3.03h0c0-.48-.46-.86-1.04-.86"/>
</svg>