<?xml version="1.0" encoding="UTF-8"?>
<svg id="Layer_1" data-name="Layer 1" xmlns="http://www.w3.org/2000/svg" viewBox="0 0 530.9 251.41">
  <defs>
    <style>
      .cls-1 {
        fill: #ad833b;
      }
    </style>
  </defs>
  <path class="cls-1" d="M256.19,139.5c-.22-.02-.43-.04-.65-.07-.22-.02-.43-.04-.65-.07.03-.2.05-.4.08-.59.03-.28.28-.5.6-.53.04,0,.07,0,.1-.02.24-.02.47-.08.67-.16-.04.47-.09.96-.14,1.43M263.39,141.05c.03-1.66.07-3.33.11-4.99-.63.52-1.27,1.03-1.93,1.53.5.13.61.48.6.82-.02.49-.03.98-.05,1.48-.43-.02-.86-.03-1.3-.05.07-1.29.13-2.57.19-3.86-.65.5-1.3.99-1.97,1.47.5.15.61.5.59.84-.03.49-.06.98-.09,1.47-.69-.04-1.38-.09-2.07-.15.26-3.01.51-6.01.76-9.03-.63.48-1.27.95-1.91,1.42.46.16.54.51.51.85-.1,1.08-.21,2.16-.32,3.25-.05.5-.43.74-.73.86-.2.09-.37.12-.39.16-.88.06-1.63.67-1.74,1.49l-.22,1.71c.51.06,1.03.12,1.54.18.14.02.28.03.42.05.73.08,1.46.14,2.19.2,1.93.16,3.85.26,5.78.3M250.24,139.87c.43.07.85.13,1.28.2.37-2.58.75-5.14,1.13-7.72.05-.34.22-.66.71-.7-.52-.61-1.02-1.22-1.52-1.84-.53,3.35-1.07,6.7-1.6,10.06M245.34,137.79c-.21-.04-.43-.09-.64-.14-.21-.05-.42-.09-.63-.14.03-.15.07-.29.1-.44.25-.13.5-.27.75-.41.17.23.34.46.52.69-.03.15-.06.3-.1.44M248.66,130.86c.46.2.51.56.45.89-.41,2.18-.82,4.37-1.23,6.55-.43-.08-.85-.16-1.28-.25.06-.3.12-.59.18-.89-.52-.68-1.02-1.37-1.51-2.06-.74.41-1.49.82-2.25,1.22-.07.29-.15.59-.22.88-.42-.1-.85-.22-1.28-.32.32-1.24.65-2.49.97-3.73-.74.35-1.48.7-2.24,1.04.46.24.49.6.4.94-.13.47-.26.95-.39,1.43-.19-.05-.37-.1-.55-.16,0,0,0,0,0-.01-.35-.1-.7-.2-1.05-.3-.01-.45.06-.9.15-1.34.29-1.39.67-2.97-1.08-4.84-.5.24-1.02.47-1.53.7,1.23.37,1.73,1.52,1.92,2.42.18,1.1-.42,1.93-.11,2.87-.61-.18-1.21-.36-1.82-.55,0,0,0,0,0,0,.05-.15.09-.29.14-.43.3-.94-.33-2-1.39-2.37-.08-.03-.16-.05-.23-.08-2.36-.83-4.7-1.75-7.01-2.77.16-.35.31-.7.46-1.04.13-.3.46-.4.79-.25-.35-.77-.69-1.54-1.02-2.32-.63,1.37-1.26,2.74-1.89,4.11,2.79,1.28,5.64,2.43,8.52,3.42.41.14.64.54.53.89-.05.15-.1.29-.15.43-.14.39-.27.78-.4,1.18-.26.11-.53.22-.79.33-.15-.26-.29-.52-.44-.78.13-.38.27-.77.4-1.15-.3-.11-.61-.22-.91-.33-.1-.04-.21-.08-.32-.11-2.33-.86-4.64-1.81-6.9-2.85-.16.34-.32.69-.48,1.03,2.3,1.06,4.63,2.02,6.99,2.89-.06.18-.13.35-.19.53.43.77.88,1.53,1.34,2.28.82-.31,1.63-.63,2.43-.96.06-.19.12-.37.18-.56.91.29,1.82.58,2.73.84.17.27.4.48.68.68-.13-.19-.23-.38-.31-.58.76.22,1.53.43,2.29.63,1.07.28,2.14.53,3.21.77,1.07.24,2.14.46,3.22.66.04,0,.09.02.14.03.38.07.76.14,1.14.21h.01c.58-3.35,1.15-6.69,1.73-10.03-.67.42-1.34.83-2.03,1.24M261.3,142.12c-.37-.02-.67.22-.68.53-.02.32.26.58.64.59.37.02.67-.22.68-.54,0-.31-.27-.57-.64-.59M257.23,4.6c.5,0,.9.38.9.86-.27-.27-1.32-.49-1.8,0,0-.48.4-.86.9-.86M259.48,5.71c-.38,2.84-4.03,2.84-4.16.74.65,2.29,4.2,1.09,3.15-1.45,1.39-.53,2.43-.57,3.56-.75-2.91-.46-6.34-.81-8.47.16-1.04.47-.75,1.11-.59,1.37.17-.56,1.1-.59,1.76-.37-.5,4.28,4.98,3.78,4.75.3M223.17,130.05c-.2-.1-.4-.2-.6-.3-.2-.1-.4-.21-.59-.32.09-.17.17-.34.26-.51.13-.25.45-.35.77-.26.04,0,.07.02.1.02.24.06.48.09.7.09-.21.43-.42.85-.63,1.28M225.93,123.09c.39.32.34.68.19.98-.48.98-.96,1.95-1.45,2.93-.22.45-.66.53-1,.54-.22.01-.4-.03-.42,0-.87-.26-1.79.04-2.18.77-.27.51-.55,1.01-.8,1.52.59.31,1.19.62,1.79.92.6.3,1.21.6,1.82.89,1.46-3.07,2.92-6.12,4.38-9.19-.77.22-1.54.43-2.33.63M258.66,141.97c-.37-.02-.69.21-.71.51-.03.32.26.58.63.61.36.03.68-.2.7-.52.02-.3-.27-.58-.62-.6M257.09,141.85c-.37-.03-.69.2-.72.5-.03.32.25.59.63.62.36.03.68-.19.71-.5.02-.3-.25-.59-.61-.62M242.19,132.35c.32.09.66-.08.74-.39.07-.29-.13-.61-.45-.7-.33-.09-.66.09-.74.38-.09.31.12.62.46.71M240.76,131.96c.32.09.66-.07.74-.37.08-.3-.12-.62-.44-.71-.33-.09-.67.08-.75.37-.09.3.11.62.45.71M255.04,132.77c.34.04.63-.19.66-.5.03-.3-.19-.59-.52-.63-.32-.04-.62.18-.65.49-.04.32.2.6.52.64M285.96,133.77c.33-.07.54-.39.47-.69-.08-.31-.4-.5-.73-.42-.34.08-.54.38-.47.69.07.3.38.49.73.41M225.04,122.12c.31.16.65.06.79-.22.14-.28.03-.62-.27-.78-.29-.15-.65-.05-.79.22-.15.28-.02.63.27.78M255.21,131.41c.33.04.61-.18.65-.49.03-.3-.19-.59-.51-.63-.32-.04-.61.18-.65.49-.04.31.2.59.52.63M284.51,134.09c.33-.07.55-.38.48-.68-.07-.31-.4-.5-.72-.43-.34.07-.56.38-.49.69.06.3.39.5.73.42M224.41,123.33c.31.16.66.05.81-.23.14-.28.02-.62-.28-.78-.29-.15-.65-.05-.8.22-.15.28-.02.64.27.79M258.57,63.2c-.12-2.13-.2-4.54-.2-7.16,0-2.38.07-4.53.17-6.43,6.02-.54,14.64-.7,22.59,1.37.57,1.71.89,3.53.89,5.43s-.32,3.71-.88,5.41c-7.94,2.07-16.54,1.92-22.57,1.38M265,73.43c-1.9,0-3.76-.31-5.54-.93-.14-.91-.56-3.92-.83-8.29,5.93.52,14.26.65,22.08-1.26-2.57,6.15-8.64,10.47-15.71,10.47M247.97,56.41c0-6.87,4.17-13.07,10.45-15.71-.33,2.03-1.06,7.45-1.06,15.33s.72,13.9,1.02,16.06c-6.26-2.65-10.41-8.84-10.41-15.69M259.51,40.29c1.76-.6,3.6-.91,5.49-.91,7.06,0,13.13,4.32,15.71,10.46-7.84-1.91-16.19-1.77-22.11-1.25.29-4.52.76-7.43.92-8.31M265,38.38c-2.09,0-4.14.35-6.09,1.06-7.14,2.56-11.93,9.38-11.93,16.97s4.77,14.36,11.87,16.95c1.97.72,4.05,1.08,6.16,1.08,9.94,0,18.03-8.09,18.03-18.03s-8.09-18.03-18.03-18.03M307.04,133.85c-.17.08-.36.03-.42-.11-.07-.15.02-.32.19-.4.06-.03.14-.05.2-.04-.61-.2-1.17.47-.7.89-.16.1-.29.1-.38.01-.11.22-.22.45-.33.67.82-.36,1.63-.74,2.44-1.12-.26-.08-.53-.16-.79-.25.04.13-.05.28-.21.35M315.95,57.03v-2.01c0-1.01,0-2,0-2.47.01-1.9-.3-4.41-2.1-5.64.54,2.12.17,2.49.17,6.07v4.46c0,1.31.18,2.45.5,3.44-2.09-1.01-4.31-3.21-4.31-7.07,0-1.3-.32-6.65-1.93-8.88v9.28c0,1.22.16,2.29.43,3.24-4.89-2.48-4.41-10.92-6-14.2,0,2.84.06,4.83.06,7.66,0,1.4.21,2.6.56,3.64-4.28-2.73-4.78-8.09-5.12-12.1-.41,1.48-1.09,5.39.07,9.07-2.87-2.2-4.48-6.88-4.28-10.23-.42,1.84-.87,4.6.03,7.37-.16,3.15-.13,28-.13,30.71-1.63-1.35-3.31-3.79-3.13-7.5.06-.61.12-1.18.21-1.73,1.15-7.76,1.38-18.93-1.82-27.87,2.58,13.96-.64,28.32-1.09,31.21-.81,5.16.95,15.85,4.59,27.71-.71-.7-3.14-1.71-4.1-2.69,0,1.07.39,2.22.39,4.57-1.25-2.09-1.73-2.18-3.05-4.5.42,2.73.3,2.97.3,5.33-1.29-2.44-1.99-5.69-4.96-10.32-6.61-10.32-16.14-3.92-16.14-2.12,0-1.8-9.52-8.2-16.13,2.12-2.97,4.64-3.66,7.88-4.96,10.32,0-2.36-.12-2.6.3-5.33-1.33,2.32-1.8,2.41-3.05,4.5,0-2.34.39-3.5.39-4.57-.98.97-3.4,1.99-4.11,2.69,3.64-11.86,5.4-22.55,4.59-27.71-.46-2.89-3.68-17.25-1.09-31.21-3.21,8.94-2.97,20.11-1.83,27.87.08.55.15,1.13.21,1.74.18,3.72-1.51,6.16-3.15,7.51,0-2.71.04-27.54-.12-30.73.9-2.77.46-5.54.03-7.37.2,3.35-1.4,8.04-4.27,10.23,1.16-3.69.49-7.59.07-9.07-.34,4.01-.83,9.37-5.11,12.1.35-1.04.56-2.24.56-3.64,0-2.83.07-4.82.07-7.66-1.6,3.28-1.11,11.72-6,14.2.28-.95.43-2.02.43-3.24v-9.28c-1.61,2.23-1.93,7.58-1.93,8.88,0,3.87-2.23,6.07-4.31,7.07.32-.99.5-2.13.5-3.44v-4.46c0-3.57-.37-3.95.17-6.07-1.8,1.23-2.11,3.74-2.1,5.64,0,.47,0,1.46,0,2.47h0v2.01c0,4.04-2.43,6.26-4.59,7.2.37-.48.77-1.8.77-3.75v-19.49c0-5.48,6.39-11.77,8.76-14.55,6.55-7.68,9.4-1.44,16,.8,10.97,3.72,16.82-.43,16.82-.43,5.86-3.69,5.88-7.17,5.88-9.34,0-1.47-.57-3.38-1.64-4.61-2.01-2-5.56-2.65-6.19-2.52-1.34.69-2.52.69-2.77.88-.61-1.22-.46-3.09,2.3-4.63.78-.43.49-1.41,2.85-2.79,6.89-4.02,13.63-2.56,17.57,1.83-1.39-.51-2.73-.97-5.08-1.19,3.29,1.14,7.2,3.87,9.72,8.4,1.03,1.8,3.36,6.76,4.18,8.26,1.76,3.2,4.94,9.91,16.14,6.14,6.6-2.23,9.45-8.48,16.01-.8,2.36,2.77,8.76,9.07,8.76,14.55v19.49c0,1.95.4,3.27.77,3.75-2.15-.94-4.59-3.16-4.59-7.2M315.96,72.23v-5.57c0-.92-.03-1.73-.09-2.45.32.12.63.23.9.33.93.92,1.99,1.59,3.01,2.1v9.02c0,1.96.4,3.27.77,3.76-2.15-.94-4.57-3.16-4.58-7.19M316.04,91.14c0-.65-.09-6.07-.09-7.12,0-1.16-.05-3.15-.15-4.65.35.13.66.26.96.36.93.91,1.99,1.58,3.01,2.09v11.51c0,1.95.4,3.27.77,3.75-1.92-.83-4.5-3.14-4.5-5.95M316.04,120.35v-4.31h0c0-2.72-.08-5.08-.08-5.89v-6.42c0-.55-.02-3.35-.03-6.96.12.05.25.1.36.14,1.03,1.19,2.28,2,3.48,2.59v23.03c0,1.96.4,3.28.77,3.76-1.92-.83-4.5-3.24-4.5-5.95M310.22,68.99v-5.63c0-.99-.03-1.83-.09-2.53.22.08.44.17.64.24,1,1.07,2.18,1.82,3.31,2.38.02,1.18-.04,2.42-.04,3.66v5.52c0,1.31.18,2.45.5,3.45-2.09-1-4.31-3.21-4.31-7.07M310.22,86.34v-5.64c0-1-.03-3.11-.09-4.71.22.09.44.17.64.25,1,1.06,2.18,1.82,3.3,2.37.04,1.88-.03,4.46-.03,5.83v3.28h0v2.05c0,.14,0,.26,0,.39,0,0,0,0,0,0v.12c0,1.18.15,2.22.4,3.14-1.88-.86-4.22-3.29-4.22-7.09M310.22,106.05v-5.63c0-.98-.03-4.58-.09-7.33,1.12,1.49,2.6,2.36,3.94,2.96-.02,4.16-.03,7.49-.03,8.12v5.34c0,1.96,0,3.08.37,3.57-1.6-.7-4.18-2.98-4.18-7.01M304.71,65.68v-5.1c0-1.05.01-1.76-.02-2.34.52.2,1.08.38,1.67.53.63.48,1.28.89,1.92,1.22,0,.19,0,.37,0,.55v8.84c0,1.21.15,2.27.42,3.21-1.98-1.07-4-3.24-4-6.92M304.71,81.18v-5.1c0-1.95-.05-1.94-.06-2.89.54.23,1.05.42,1.5.59.69.56,1.42,1.02,2.13,1.39,0,1.15,0,2.45,0,2.72v8.84c0,.4.02.77.04,1.14-1.85-1.13-3.62-3.26-3.62-6.7M308.29,97.6v8.74c-1.84-1.15-3.58-3.26-3.58-6.67v-5.11c0-1.49-.03-4.83-.05-6.83,1.03,1.36,2.35,2.27,3.62,2.94.01,2.38,0,6.57,0,6.93M299.9,63.14v-5.13c0-1.32-.03-2.29-.09-3.02.19.1.39.2.59.3.65.73,1.43,1.41,2.38,1.99.02.43.01.85.01,1.24v7.55c0,1.4.21,2.6.56,3.64-1.79-1.16-3.44-3.26-3.44-6.59M299.9,76.87v-5.13c0-.58,0-1.09-.02-1.53.24.14.49.27.75.39.65.66,1.38,1.19,2.1,1.63.05.61.05,1.25.05,1.82v7.55c0,.54.03,1.05.09,1.53-1.6-1.21-2.97-3.22-2.97-6.26M302.79,92.53v6.33c-1.56-1.22-2.88-3.21-2.88-6.19v-5.13c0-.96-.01-2.74-.04-4.13.83,1.09,1.84,1.9,2.86,2.52.07,2.17.06,5.96.06,6.6M294.99,61.84c0-1.17-.09-7.32-.1-11.33.67,1.15,1.64,2.28,3.01,3.29.16,1.13.08,2.55.08,3.54v6.21c0,1.16.14,2.18.39,3.09-1.88-1.39-3.38-3.1-3.38-4.8M294.92,65.62c.61,1.11,1.65,2.3,3.07,3.37,0,.74-.01,1.48-.01,2.08v5.12c-1.69-1.32-2.99-2.91-2.99-4.5,0-.71-.03-3.27-.06-6.06M297.98,86.87v3.66c-1.69-1.32-2.99-2.91-2.99-4.5,0-1.1-.09-6.65-.1-10.64.6,1.12,1.64,2.32,3.05,3.39.1,2.33.03,7.19.03,8.08M293.4,108.16c.23.52.16,1.56.4,2.03.24.48.77.81.92,1.05.2.32.12,1.14.38,1.71.13.27.25.53.39.78-.17.19-.31.4-.44.6-.4-.89-1.38-.99-2.11-.53-.37.24-.81.61-1.16,1.19.14-1.01-.04-1.34-.43-1.73-.58-.58-.35-1.8-.82-2.53-.36-.57-1.03-.75-1.46-1.63-.43-.87-.22-1.34-.65-2.2-.49-.98-.62-1.3-.64-2.62.56.72,1.21,1.32,2.08,2.21.31-2.07.34-2.56.34-4.34.88.75,1.77,1.86,2.06,2.62.17.45.33,1.76.4,1.98.21.68.53.89.76,1.41M297.24,114.19c.92.07.41,4.06,1.09,5.46.69,1.41.39,2.58-.91,2.46-1.33-.12-1.26-4.17-1.27-4.88,0-1-.51.53-.78,1.1-.06-.25-.11-.52-.16-.8-.1-.69-.03-1.12.03-1.55.36-.95,1.07-1.85,2-1.78M298.42,115.82c.37-1.2,1.36-2.87,2.51-2.61.9.2.04,3.08.58,4.49,1.06,2.75-.43,3.69-1.71,3.36-1.43-.36-.8-4.21-.67-4.76.03-.91-.44-.02-.76.49-.07-.23-.11-.39.04-.98M302.68,116.39l8.44,5.76v12.14c-13.42,7.6-28.45,12.01-43.94,12.33h-.25s-1.18.97-1.75,1.45h0s0,0,0,0c-.57-.47-1.75-1.45-1.75-1.45h-.25c-15.49-.32-30.52-4.73-43.92-12.33v-12.14s8.42-5.76,8.42-5.76c.21.12.42.23.62.35.03,1.21-.82,1.83-.63,3.07.16,1.03.79,1.77,1.54,2.11.2.46.57.82,1.08,1.03.52.19.45-.25.44-.91.11-.03.22-.07.34-.12.14.49.46.85.87,1.06.18.37.52.71,1.19,1.15.66.31.22-.41.09-1.05.24-.06.49-.16.73-.33.09.2.21.38.39.5.06.05.12.09.18.13.17.67.64,1.06,1.35,1.47.48.16.3-.39.25-.9.66,0,1.25-.36,1.52-1.45.13-.52.12-.84.09-1.12,8.01,3.4,16.66,5.72,25.12,5.98.3.23,2.33,1.76,2.33,1.76,0,0,2.03-1.53,2.33-1.76,8.42-.26,17.01-2.55,24.98-5.92-.02.27-.02.58.1,1.06.26,1.09.84,1.46,1.51,1.45-.05.52-.23,1.06.25.9.72-.4,1.19-.79,1.35-1.47.06-.04.13-.08.19-.13.18-.12.3-.3.39-.5.24.16.48.27.73.33-.12.64-.57,1.36.09,1.05.66-.44,1-.78,1.18-1.15.41-.21.73-.57.87-1.06.11.06.22.09.34.12,0,.65-.08,1.1.44.91.5-.21.88-.58,1.08-1.03.75-.34,1.39-1.08,1.54-2.11.19-1.22-.63-1.84-.62-3.01.25-.14.49-.28.74-.42M228.73,117.7c.54-1.41-.32-4.29.57-4.49,1.15-.26,2.15,1.4,2.52,2.61.11.34.09.86.05.97-.33-.51-.8-1.4-.77-.49.13.56.77,4.4-.67,4.76-1.28.32-2.76-.61-1.7-3.36M232.99,114.19c.93-.07,1.64.83,2,1.78.05.42.12.86.03,1.55-.04.28-.09.55-.16.8-.27-.56-.78-2.1-.78-1.1,0,.71.07,4.76-1.27,4.88-1.3.12-1.6-1.05-.91-2.46.68-1.4.17-5.39,1.09-5.46M237.63,117.25c-1.1,1.98-.12,5.69-1.38,5.77-3.6.23-.93-4.28-.79-5.4.17-1.44.02-3.54,1.41-3.1,1.26.38,2.86,4.46,3.64,5.68,0,.01.02.03.04.04-.29-.11-.57-.23-.85-.35.08.03.15.05.18.06-1.28-.5-2.02-3.61-2.25-2.7M293.35,114.52c1.4-.44,1.26,1.66,1.42,3.1.13,1.12,2.81,5.64-.79,5.4-1.25-.08-.28-3.79-1.38-5.77-.19-.82-.8,1.72-1.85,2.61-.34.15-.69.28-1.04.42.83-1.4,2.43-5.39,3.65-5.76M273.74,115.05c.9,5.24-4.26,5.52-5.03,1.49-.09-.51-.23-2.06-.4-4.12-.39-7.03-.96-18.17-1-20.28.87-.55,1.91-.97,2.97-1.26.57,3.96,3.22,22.76,3.46,24.17M274.26,90.61c.56.1,1.02.29,1.35.57.51.35,1.06.83,1.65,1.41.92,3.52,4.69,17.59,5.03,19,.41,1.7.85,3.24,1.57,3.96-2.28.43-3.89,0-4.41-2.07-.69-3.24-4.25-19.32-5.18-22.88M278.09,113.57c.3,1.73,1.68,4.19.1,4.57-2.45.6-2.67-.76-3.06-2.87-.01-.06-3.45-22.57-3.94-24.59.79-.15,1.55-.2,2.25-.16.51,2.48,4.42,21.65,4.66,23.05M263.31,115.71c0-2.73.42-20.13.5-22.93.69.6,1.17,1.32,1.3,2.11.14-.79.62-1.51,1.32-2.11.08,2.8.49,20.2.49,22.93,0,2.97-.78,4.04-1.81,4.65-1.03-.61-1.81-1.68-1.81-4.65M246.6,111.41c-.67,2.37-2.28,4.83-2.66,5.21,1.39.53,3.93.94,5.73.23-.26.93-.24,1.78.55,2.58.98.98,3.73,1.68,5.07-.62,1.08,3.83,5.2,3.65,6.83.97.7,2.22,2.15,2.5,2.99,3.34.84-.84,2.3-1.12,3-3.34,1.62,2.68,5.76,2.86,6.83-.97,1.34,2.3,4.1,1.59,5.08.62.79-.8.81-1.65.55-2.58,1.79.71,4.33.3,5.72-.23-.38-.38-2-2.84-2.67-5.21-.82-2.88-3.81-13.26-5.16-17.52,3.65,4.2,7.82,11.3,8.09,15.04.12-.53.36-1.18.58-1.88.84,1.75,2.87,5.33,3.21,6.17.35.89.45,1.47.19,2.64-.18.85-.96,3.43-2.61,5.08,0,0,0,0,0,.02-6.62,2.46-13.59,3.99-20.74,4.19-.59.48-2.02,1.56-2.02,1.56,0,0-1.44-1.08-2.02-1.56-7.13-.2-14.07-1.72-20.67-4.16,0,0,0-.01.01-.02-1.65-1.65-2.64-4.25-2.82-5.1-.25-1.17-.16-1.75.2-2.64.34-.84,2.36-4.43,3.2-6.17.22.7.47,1.35.58,1.88.27-3.74,4.45-10.84,8.1-15.04-1.35,4.26-4.34,14.64-5.17,17.52M250.79,113.49c-.53,2.07-2.14,2.5-4.41,2.07.71-.72,1.15-2.26,1.57-3.96.34-1.41,4.1-15.48,5.03-19,.59-.59,1.14-1.06,1.65-1.41.33-.28.8-.47,1.35-.57-.94,3.56-4.49,19.64-5.18,22.88M259.96,90.88c1.06.28,2.1.71,2.97,1.26-.04,2.11-.61,13.24-1,20.27-.16,2.07-.3,3.62-.4,4.13-.77,4.03-5.92,3.75-5.03-1.49.24-1.4,2.89-20.2,3.46-24.17M255.11,115.27c-.4,2.1-.61,3.47-3.06,2.87-1.59-.38-.2-2.84.09-4.57.26-1.5,4.1-20.22,4.66-23.05.69-.04,1.46.02,2.24.16-.49,2.02-3.93,24.53-3.94,24.59M235.13,112.97c.26-.57.19-1.39.38-1.71.15-.24.68-.58.92-1.05.24-.48.18-1.51.41-2.03.23-.52.54-.73.76-1.41.07-.22.22-1.53.4-1.98.29-.76,1.18-1.87,2.06-2.62,0,1.78.02,2.28.33,4.34.87-.88,1.52-1.48,2.08-2.21-.03,1.33-.15,1.64-.64,2.62-.44.86-.22,1.33-.66,2.2-.43.88-1.1,1.06-1.46,1.63-.47.73-.24,1.95-.82,2.53-.39.39-.58.72-.43,1.73-.34-.58-.78-.95-1.16-1.19-.73-.47-1.71-.36-2.11.53-.13-.2-.27-.42-.44-.6.13-.24.27-.51.39-.78M235.24,61.84c0,1.7-1.51,3.41-3.38,4.8.25-.91.39-1.93.39-3.09v-6.21c0-.99-.08-2.41.07-3.54,1.37-1.02,2.34-2.14,3.02-3.29-.02,4.01-.1,10.16-.1,11.33M232.23,68.98c1.41-1.06,2.44-2.24,3.06-3.35-.03,2.79-.06,5.33-.06,6.05,0,1.59-1.29,3.17-2.98,4.49v-5.11c0-.59-.03-1.34-.02-2.08M235.23,86.03c0,1.58-1.29,3.17-2.98,4.49v-3.65c0-.88-.06-5.75.03-8.08,1.41-1.08,2.44-2.28,3.04-3.39-.02,3.99-.09,9.53-.09,10.64M230.33,58.02v5.13c0,3.33-1.66,5.43-3.45,6.59.35-1.04.56-2.24.56-3.64v-7.55c0-.39,0-.82.01-1.24.95-.59,1.73-1.26,2.38-1.99.2-.1.39-.2.58-.3-.06.73-.09,1.7-.09,3.02M227.35,83.12c.06-.48.09-.99.09-1.53v-7.55c0-.57,0-1.2.04-1.82.73-.44,1.46-.97,2.11-1.63.26-.12.5-.25.74-.39,0,.45,0,.96,0,1.53v5.13c0,3.03-1.38,5.04-2.97,6.26M230.33,87.55v5.13c0,2.98-1.32,4.96-2.89,6.19v-6.33c0-.64-.01-4.43.06-6.6,1.03-.62,2.04-1.43,2.87-2.52-.03,1.39-.04,3.17-.04,4.13M225.51,76.08v5.1c0,3.44-1.76,5.57-3.62,6.7.03-.36.04-.73.04-1.14v-8.84c0-.28,0-1.57,0-2.72.72-.37,1.44-.83,2.13-1.39.45-.16.96-.36,1.5-.59,0,.95-.05.94-.05,2.89M225.51,94.57v5.11c0,3.41-1.73,5.52-3.58,6.67v-8.74c0-.36,0-4.55,0-6.93,1.28-.67,2.59-1.58,3.62-2.95-.02,2-.05,5.35-.05,6.83M221.51,72.6c.27-.94.42-2,.42-3.21v-9.39c.65-.34,1.3-.74,1.92-1.22.6-.16,1.15-.33,1.67-.53-.03.59-.01,1.29-.01,2.34v5.1c0,3.68-2.01,5.85-4,6.92M220.01,80.71v5.64c0,3.8-2.34,6.23-4.22,7.08.26-.92.41-1.96.41-3.14v-.12s0,0,0,0c0-.13,0-.25,0-.39v-2.04h0v-3.29c0-1.37-.08-3.95-.04-5.83,1.13-.55,2.3-1.31,3.3-2.37.2-.08.41-.16.64-.25-.06,1.6-.09,3.71-.09,4.71M220.01,100.41v5.63c0,4.04-2.58,6.31-4.19,7.01.37-.48.37-1.61.37-3.57v-5.34c0-.63-.02-3.96-.03-8.12,1.33-.6,2.8-1.46,3.92-2.96-.05,2.75-.09,6.35-.09,7.33M216.15,63.44c1.13-.56,2.31-1.31,3.31-2.38.2-.07.41-.16.63-.24-.05.71-.09,1.54-.09,2.53v5.63c0,3.87-2.23,6.08-4.31,7.07.32-.99.5-2.13.5-3.45v-5.52c0-1.24-.06-2.48-.04-3.66M209.68,79.42c.37-.48.77-1.8.77-3.76v-9.02c1.02-.51,2.08-1.17,3.01-2.1.28-.1.58-.21.9-.33-.06.72-.09,1.53-.09,2.45v5.55c0,4.04-2.43,6.26-4.59,7.21M214.27,84.02c0,1.05-.09,6.47-.09,7.12,0,2.81-2.58,5.12-4.5,5.95.37-.48.77-1.8.77-3.75v-11.51c1.02-.51,2.08-1.17,3.01-2.09.29-.11.61-.23.95-.36-.09,1.49-.15,3.48-.15,4.65M214.27,103.72v6.42c0,.81-.08,3.17-.09,5.89,0,0,0,0,0,0v4.31c0,2.71-2.58,5.12-4.5,5.95.37-.48.77-1.8.77-3.76v-23.03c1.2-.59,2.45-1.41,3.48-2.59.11-.04.24-.09.37-.14-.03,3.61-.03,6.41-.03,6.96M252.07,11.86h0c-.5.14-3.15.59-3.49.26.58-.3.98-.48,2.09-1.18.81.06,1.59.56,2.85,1.32-.7-.28-.78-.53-1.45-.39M321.69,82.65c.55.21,1.03.37,1.4.53-1.52-2.29-1.4-5.99-1.4-6.87v-8.84c.55.21,1.03.38,1.4.53-1.52-2.29-1.4-6-1.4-6.88v-20.58c0-5.69-8.7-19.49-16.07-19.67-5.23-.13-11.36,7.22-18.86,5.32-2.41-.63-4.33-3.21-5.92-6.4-2.79-5.71-5.49-13.35-12.29-17.78-7.54-4.89-16.22.57-17.21,1.44-.85.78-2.21,3.13-2.94,3.5-2.36,1.23-2.74,3.29-2.74,4.08s.17,2.68,1.61,3.76c-.2-.93-.25-1.45-.03-1.92.94.16,3,.58,4.34.03.65.65,2.22,1.91,2.9,3.21.95,1.8.96,2.07.96,2.78,0,1.83-.85,4.44-3.46,6.15-2.74,1.95-9.19,3.05-17.29.27-4.38-1.5-6.18-4.53-10.09-4.44-7.36.19-16.07,13.98-16.07,19.67v20.58c0,.88.12,4.58-1.4,6.88.38-.16.86-.32,1.4-.53v8.84c0,.88.12,4.58-1.4,6.87.38-.15.86-.32,1.4-.53v11.33c0,.88.12,4.58-1.4,6.88.38-.16.86-.31,1.4-.51v22.84c0,.65.06,2.9-.54,4.95-.2.68.26,1.51.98,1.22,2.95-1.17,7.24-3.47,7.24-9.88v-3.61c2.12-.93,4.66-2.58,5.47-6.58,2.4-1.19,5.06-3.27,5.65-7.44,2.46-1.43,4.9-3.91,4.93-8.7,2.14-1.62,3.41-3.52,3.66-5,.18-.99.3-3.36.35-6.11,1.55-1.13,2.66-2.41,3.3-3.59-.25,5.94-1.44,13.93-4.23,25,.49,0,1.15-.11,1.83-.27-.37,2.23-2.27,7.54-3.54,9.95-.17-.01-.35-.01-.56.02-.42.08-.72.47-.92.98-.57-.87-1.29-2.29-2.96-1.75-.86.28-1.19.97-1.25,1.69-1.39.87-10.82,6.72-10.82,6.72v14.57c14,8.29,29.42,13.28,46.06,13.63.54.54,2.02,1.67,2.02,1.67,0,0,1.48-1.13,2.02-1.67,16.63-.34,32.05-5.34,46.05-13.63v-14.57s-10.22-6.34-10.95-6.81c-.09-.69-.42-1.33-1.25-1.6-1.67-.54-2.39.87-2.96,1.75-.2-.51-.51-.9-.93-.98-.2-.03-.39-.03-.55-.02-1.27-2.41-3.18-7.72-3.55-9.95.68.16,1.34.27,1.83.27-2.8-11.06-3.98-19.05-4.23-25,.63,1.17,1.74,2.45,3.28,3.58.05,2.74.17,5.13.34,6.12.26,1.47,1.53,3.38,3.68,5,.03,4.78,2.47,7.26,4.93,8.69.59,4.18,3.24,6.25,5.65,7.44.82,4.01,3.35,5.65,5.48,6.58v3.61c0,6.33,4.19,8.66,7.13,9.84.75.3,1.38-.27,1.18-.82-.72-2.15-.65-4.62-.65-5.32v-22.82c.55.21,1.03.34,1.4.49-1.52-2.3-1.4-6-1.4-6.88v-11.33ZM300.61,133.26c-.2.08-.4.16-.6.24-.06-.14-.11-.28-.16-.42.13-.25.27-.51.4-.76.27.09.54.19.82.28.06.14.11.28.17.42-.21.08-.41.16-.62.25M299.66,130.84c-.39.76-.78,1.52-1.19,2.27.1.28.21.57.31.85-.41.15-.83.31-1.25.45-.75-2.09-1.49-4.18-2.23-6.27-.11-.32-.1-.69.31-.96-.75-.29-1.49-.59-2.22-.9.97,2.85,1.95,5.71,2.92,8.56.12.35.25.72.36,1.08.32-.11.63-.22.95-.33l.3-.1c1.04-.37,2.08-.77,3.12-1.17.62-.24,1.23-.5,1.84-.75-.26-.63-.53-1.26-.79-1.88-.82-.27-1.63-.56-2.43-.85M308.97,130.76c.4-.2.79-.4,1.19-.61-1.2-2.31-2.4-4.61-3.6-6.92-.16-.3-.2-.67.18-.99-.79-.18-1.57-.37-2.35-.58,1.36,2.7,2.71,5.39,4.07,8.08.17.34.34.68.51,1.02M287.65,61.87s.03.03.02.05c0,.02-.02.03-.04.04l-1.2.27-.26,1.04s-.03.03-.05.04h0s-.04,0-.04-.03l-.59-.96-1.2-.03s-.04-.02-.05-.03c0-.02,0-.04,0-.06l.76-.89-.3-1.12s0-.04.02-.05c.02-.01.04-.02.06,0l1.09.48.95-.61s.02,0,.03,0,.02,0,.03,0h0s.02.03.02.05l-.21,1.05.96.77ZM275.64,74.56l-.53-2.05s-.03-.03-.05-.04c-.02,0-.04,0-.05.02,0,0-1.04,1.52-1.36,1.93-.53-.02-2.37-.15-2.37-.15-.02,0-.04.01-.05.03,0,0,0,.03,0,.05l1.28,1.7c-2.29.88-4.78,1.36-7.38,1.36s-5.25-.52-7.61-1.45l1.21-1.61s.02-.04,0-.06c-.02-.02-.03-.03-.05-.03,0,0-1.85.14-2.37.15-.32-.41-1.36-1.93-1.36-1.93,0-.02-.03-.03-.05-.03-.02,0-.04.02-.04.04l-.49,1.89c-4.21-2.56-7.44-6.58-9-11.36l1.93-.05s.04-.02.04-.03c.01-.02,0-.04,0-.05,0,0-1.21-1.36-1.55-1.76.14-.52.64-2.27.64-2.27,0-.02,0-.04-.01-.05-.02-.02-.03-.02-.06-.01l-1.79.79c-.14-.97-.22-1.96-.22-2.97,0-4.22,1.27-8.15,3.45-11.44l1.18,1.4s.02.02.04.02c0,0,0,0,.01,0,.02,0,.03-.02.04-.04,0,0,.31-1.8.41-2.3.5-.22,2.22-.89,2.22-.89.02,0,.03-.02.04-.04,0-.02-.01-.04-.03-.05l-1.69-.88c3.38-3.59,8.01-5.99,13.2-6.46l-.38,1.93s0,.04.02.05c0,0,.02,0,.03,0,0,0,.02,0,.03,0,0,0,1.6-.92,2.06-1.15.46.23,2.07,1.15,2.07,1.15.02,0,.04,0,.05,0,.02-.01.03-.03.02-.05l-.38-1.95c5.26.4,9.98,2.77,13.42,6.38l-1.9.98s-.03.03-.03.05c0,.03.01.04.03.05,0,0,1.72.67,2.22.89.1.5.41,2.3.41,2.3,0,.02.02.04.04.04,0,0,0,0,0,0,.02,0,.03,0,.04-.02l1.35-1.6c2.26,3.33,3.58,7.33,3.58,11.64,0,1.05-.09,2.09-.24,3.09l-2.07-.92s-.04,0-.06,0c-.02.02-.03.04-.02.05,0,0,.51,1.75.65,2.27-.35.41-1.55,1.76-1.55,1.76-.02.02-.02.04,0,.05,0,.02.03.03.05.03l2.23.06c-1.59,4.87-4.92,8.95-9.26,11.51M276.19,75.84s0,.02-.02.02l-.94.51v1.22s0,.04-.02.05h-.03s-.02,0-.03,0l-.96-.76-.59.25-.4.17h0s0,0,0,0c-.02,0-.03,0-.05,0,0,0,0-.02,0-.03,0,0-.01-.02,0-.03l.16-.44.22-.6-.3-.4h0l-.41-.55s0-.02,0-.03c0,0,0-.02,0-.03,0,0,.02-.01.03-.02,0,0,.01-.02.02-.02l1.14.03.71-.93s.03-.02.05-.02c.02,0,.03.02.04.03,0,0,0,0,0,0l.18.67.12.48.8.26.27.09s.03.03.04.04c0,.01-.01.02-.02.03M257.15,75.19s0,.02,0,.03l-.41.55-.31.4.16.44.22.6s0,.04-.01.06c0,0,0,0-.01,0,0,0-.03,0-.04,0l-.26-.11-.53-.22s.02,0,.03,0l-.22-.09-.36.29-.59.47s-.02.01-.03.01h-.03s-.03-.03-.03-.05v-1.22s-.93-.51-.93-.51c-.02,0-.03-.03-.03-.05h0s.02-.03.03-.04l.53-.18.53-.17.16-.63.14-.53s.03-.03.04-.03c.02,0,.04,0,.05.02h0l.35.47.35.46,1.14-.03s.04,0,.05.03c0,0,0,.02,0,.03M243.89,63.28s-.02.03-.04.03h0s-.04-.03-.04-.04l-.27-1.04-1.2-.27s-.03-.02-.04-.04c0-.02,0-.04.02-.05l.96-.77h0s-.04-.23-.04-.23h0s-.16-.82-.16-.82c0-.01,0-.03,0-.04,0,0,0-.01.01-.02.02,0,.04,0,.06,0l.94.61.59-.26.5-.22s.04,0,.06,0c.02.01.02.03.02.05l-.3,1.12.76.89s.02.03,0,.06c0,.02-.03.03-.04.03l-1.2.03-.59.96ZM246.58,44.03l.64-.86-.54-1.09s0-.04,0-.06c.02-.02.03-.02.05-.02l1.21.28.7-.82s.04-.02.06-.02c.02,0,.03.02.03.04l.09,1.12,1.07.56s.03.03.03.04c0,.02,0,.04-.03.05l-1.05.47-.23,1.14s-.02.04-.04.04h-.01s-.03,0-.04-.02l-.29-.34-.48-.58-1.07.14h-.04s-.04,0-.06-.02c0-.02,0-.04,0-.06M263.3,34.4s.02-.02.04-.02l1.07-.05.53-1.11s.03-.03.05-.03c.02,0,.04.01.05.03l.53,1.11h.09s0,0,0,0l.73.03h0c.09,0,.18,0,.26.01.02,0,.03.02.03.03h0s0,.04,0,.06l-.8.78.23,1.18s0,.04-.03.05c0,0-.02.01-.03.01,0,0-.02,0-.03,0l-1.03-.53-1.03.53s-.04,0-.06,0c-.01-.01-.03-.03-.02-.05l.1-.55.13-.63-.81-.78s-.02-.04,0-.06c0,0,0,0,0-.01M280.69,42.85l.47-.24.09-1.12s.01-.04.03-.04c0,0,.02,0,.03,0,.01,0,.02,0,.03.02l.7.83.09-.03,1.11-.25s.04,0,.05.02c.01.01.01.03,0,.05l-.54,1.09.64.86s.02.04,0,.06c-.01.02-.03.03-.05.03l-1.12-.14-.77.91s-.03.02-.04.02c0,0-.01,0-.02,0-.02,0-.03-.02-.03-.04l-.23-1.14-1.05-.47s-.03-.03-.03-.05,0-.04.03-.05l.6-.32ZM287.86,58.45s0-.04-.02-.05c-.02-.02-.04-.02-.06,0,0,0-.18.13-.44.31.06-.69.1-1.38.1-2.09,0-4.25-1.2-8.22-3.27-11.6.41.07.74.13.74.13.02,0,.04,0,.06-.02.01-.02.01-.04,0-.06,0,0-1.04-1.55-1.35-1.97.24-.48.96-2.07.96-2.07.01-.02,0-.04,0-.05-.01-.02-.03-.02-.05-.02l-2.21.5c-.35-.41-1.59-1.79-1.59-1.79-.02-.02-.03-.02-.06-.02-.02,0-.03.03-.03.05l-.07.84c-3.41-3.27-7.86-5.47-12.8-6.05.38-.34.71-.64.71-.64.02-.01.02-.03.02-.06,0-.02-.03-.03-.05-.03,0,0-1.88-.13-2.4-.15-.22-.47-1.02-2.02-1.02-2.02l-.02-.02s-.03-.01-.05,0c-.01,0-.03.01-.03.03,0,0-.78,1.55-1.01,2.03-.52.03-2.4.15-2.4.15-.03,0-.04.02-.05.03,0,.02,0,.04.02.06,0,0,.34.31.73.66-4.96.65-9.42,2.93-12.8,6.3l-.09-1.11s-.01-.03-.04-.04c-.02,0-.04,0-.06.02,0,0-1.24,1.38-1.59,1.79l-2.2-.5s-.04,0-.05.02c0,.02-.02.04,0,.06,0,0,.72,1.59.96,2.07-.31.42-1.34,1.97-1.34,1.97-.02.02-.02.04,0,.06,0,.02.03.02.05.02,0,0,.51-.09,1.07-.18-2.09,3.39-3.3,7.39-3.3,11.66,0,.78.04,1.55.12,2.31-.41-.29-.76-.54-.76-.54-.02-.02-.04-.02-.06,0-.02.01-.03.03-.02.05,0,0,.26,1.83.36,2.36l-1.79,1.42s-.02.03-.02.05c0,.02.02.03.04.04,0,0,1.71.42,2.23.53.13.51.69,2.27.69,2.28,0,.02.02.03.04.04h0s.04,0,.05-.03c0,0,.22-.4.47-.85,1.66,4.52,4.74,8.35,8.69,10.96-.51.14-.96.27-.96.28-.02,0-.04.03-.04.04,0,.02,0,.04.03.05,0,0,1.63.94,2.08,1.19,0,.31.03,2.28.03,2.28,0,.02.01.03.03.04.01,0,.02,0,.02,0,.01,0,.03,0,.03-.02l1.78-1.4,2.23.94s.04,0,.06,0c.02-.02.02-.04,0-.06,0,0-.17-.42-.37-.91,2.3.8,4.76,1.24,7.32,1.24,2.43,0,4.77-.39,6.96-1.12-.17.43-.32.78-.32.78,0,.02,0,.04.02.06.01.02.03.02.05,0l2.23-.94,1.78,1.4s.02,0,.03,0h.02s.03-.03.03-.05c0,0,.03-1.97.03-2.27.46-.25,2.09-1.19,2.09-1.19.02,0,.03-.03.03-.05,0-.03-.02-.04-.04-.04,0,0-.33-.09-.75-.22,3.9-2.55,6.96-6.29,8.66-10.7.17.3.29.53.29.53,0,.02.03.03.05.03h0s.04-.02.04-.04c0,0,.56-1.77.69-2.28.52-.11,2.23-.54,2.23-.54.02,0,.04-.02.04-.04,0-.02,0-.04-.02-.05l-1.78-1.42c.09-.53.35-2.36.35-2.36M305.92,130.49c.06.14.13.27.19.41-.2.1-.41.19-.61.28-.2.09-.4.18-.59.27-.06-.14-.12-.27-.19-.41.12-.26.24-.52.36-.78.28.08.56.16.84.23M304.76,128.03c-.12.27-.23.53-.35.79-.27-.09-.54-.17-.81-.26-.81-1.79-1.62-3.57-2.42-5.36-.34.82-.69,1.63-1.05,2.44.49-.08.86.14.99.44.47,1.07.93,2.14,1.4,3.21.03.07.06.14.09.21.43.14.87.28,1.31.41-.19.41-.39.83-.59,1.25.27.62.54,1.25.82,1.87.61-.27,1.22-.53,1.83-.81.61-.28,1.21-.57,1.81-.86-.29-.61-.59-1.22-.89-1.84-.45-.12-.89-.24-1.33-.37.18-.42.36-.84.54-1.26-.55-1.12-1.09-2.24-1.64-3.37-.15-.3-.07-.72.32-1.04-.85-.25-1.69-.51-2.52-.79.83,1.77,1.67,3.55,2.5,5.32M277.78,131.63c-.66-.44-1.32-.89-1.96-1.35.4,3.38.81,6.74,1.21,10.11.44-.05.87-.1,1.3-.16-.34-2.58-.69-5.15-1.03-7.73-.04-.34.03-.69.48-.87M290.73,129.63c-.1-.33-.07-.69.35-.93-.72-.33-1.45-.67-2.16-1.03.82,2.9,1.63,5.8,2.45,8.71.1.36.21.73.31,1.09.42-.12.84-.24,1.26-.36-.74-2.49-1.47-4.98-2.21-7.48M270.08,138.7c-.28-.44-.55-.88-.81-1.32.13,0,.26,0,.38-.02.01-.33.13-.51.33-.7.22.17.37.33.41.66.12,0,.25-.02.38-.02-.22.47-.46.93-.69,1.4M273.05,132.16c.48.07.63.4.66.74.21,2.21.41,4.42.62,6.64-1.14.1-2.28.19-3.42.25.61-1.24,1.21-2.49,1.77-3.75-.49.04-.99.07-1.48.11-.21-.38-.82-.8-1.29-.83-.45.07-1.03.54-1.18.94-.5.02-.99.03-1.49.04.68,1.2,1.39,2.38,2.13,3.56-1.11.04-2.23.07-3.34.08,0-1.13,0-2.27-.02-3.4-.62.57-1.25,1.13-1.9,1.69.39,0,.63.24.63.58,0,.94-.02,1.88-.03,2.82,0,.63-.59,1.13-1.33,1.12-.59-.01-1.07-.34-1.23-.79.17.76.96,1.35,1.91,1.37,1.1.02,1.97-.75,1.96-1.69,0-.19,0-.37,0-.56,1.39,0,2.77-.04,4.15-.11,1.42-.07,2.83-.17,4.25-.3.06,0,.12,0,.18-.02.38-.03.75-.07,1.12-.11-.36-3.38-.72-6.75-1.08-10.12-.53.59-1.06,1.17-1.61,1.75M287.52,134.34c.51-.01.72.28.79.61.18.7.35,1.4.53,2.1-1.88.47-3.77.89-5.67,1.25-.26.05-.51.09-.77.14-.39-.23-.78-.47-1.17-.71.89-.9,1.44-2.51,1.1-3.86-.22,1.88-1.07,3.2-3.16,3.96.95.62,1.92,1.23,2.91,1.83.44-.08.86-.15,1.29-.24,2.35-.44,4.69-.98,7.01-1.6-.48-1.82-.97-3.64-1.45-5.46-.47.67-.94,1.33-1.42,1.99M294.01,132.03c-.42.73-.86,1.46-1.31,2.19.36-.11.67.03.78.36.28.9.56,1.8.84,2.7.19.59-.25,1.27-.96,1.47-.56.16-1.11,0-1.41-.38.4.67,1.32,1,2.24.72,1.08-.32,1.69-1.33,1.39-2.22-.53-1.61-1.05-3.23-1.58-4.84M249.82,7.45c-.42,0-.76.28-.76.62,0,.31.28.56.64.61-.03-.05-.05-.11-.05-.16,0-.26.31-.47.71-.47.08,0,.16,0,.22.03h0c0-.35-.34-.63-.76-.63"/>
  <g>
    <path class="cls-1" d="M151.92,173.92c-1.3,1.56-2.03,2.33-2.19,2.33-.08,0-.58-.24-1.5-.72s-1.45-.77-1.59-.88c-.5.45-1.02.97-1.55,1.56-.38-.1-.92-.33-1.62-.7-.75-.4-1.24-.72-1.45-.98.53-.53,1.26-1.31,2.19-2.33.22.22.68.55,1.38.98.7.44,1.16.65,1.38.65.11,0,.4-.23.86-.7.46-.46.8-.78,1.02-.94l3.07,1.72ZM157.53,193.45h-2.56c-.82,0-1.41-.55-1.76-1.64-.12-.38-.31-1.33-.55-2.84l-.04-.16-.25.04c-.34.21-.77.85-1.29,1.92-.46.96-.94,1.43-1.43,1.43-.63,0-1.68-.21-3.16-.63-1.48-.42-2.58-.63-3.28-.63,0-.65.29-1.72.87-3.19.58-1.47,1.09-2.43,1.54-2.86.56-.53,1.46-1.13,2.7-1.8,1.35-.72,2.27-1.29,2.76-1.7,0-.16-.07-.39-.19-.68-.13-.29-.2-.5-.2-.65.5-.68,1.22-1.9,2.15-3.66h.04c.22.82.58,3.04,1.08,6.67.49,3.49.78,5.32.88,5.48.22.38.42.61.59.68.08.03.39.04.92.04h1.17v4.19ZM152.41,187.25c0-.38-.1-1.18-.31-2.39-.22-1.28-.4-1.99-.53-2.13-.37.29-.63.61-.8.98-.27.59-.45.94-.53,1.06-.34.49-.98.93-1.92,1.33-1.01.42-1.57.7-1.68.82.48.18,1.41.4,2.8.65,1.04.2,2.01.25,2.93.12l.04-.45Z"/>
    <path class="cls-1" d="M160.6,193.45h-3.91v-4.19h3.91v4.19Z"/>
    <path class="cls-1" d="M163.24,193.45h-3.91v-4.19h3.91v4.19Z"/>
    <path class="cls-1" d="M165.88,193.45h-3.91v-4.19h3.91v4.19Z"/>
    <path class="cls-1" d="M168.52,193.45h-3.91v-4.19h3.91v4.19Z"/>
    <path class="cls-1" d="M171.16,193.45h-3.91v-4.19h3.91v4.19Z"/>
    <path class="cls-1" d="M173.8,193.45h-3.91v-4.19h3.91v4.19Z"/>
    <path class="cls-1" d="M176.44,193.45h-3.91v-4.19h3.91v4.19Z"/>
    <path class="cls-1" d="M179.08,193.45h-3.91v-4.19h3.91v4.19Z"/>
    <path class="cls-1" d="M181.71,193.45h-3.91v-4.19h3.91v4.19Z"/>
    <path class="cls-1" d="M184.36,193.45h-3.91v-4.19h3.91v4.19Z"/>
    <path class="cls-1" d="M187,193.45h-3.91v-4.19h3.91v4.19Z"/>
    <path class="cls-1" d="M189.63,193.45h-3.91v-4.19h3.91v4.19Z"/>
    <path class="cls-1" d="M192.27,193.45h-3.91v-4.19h3.91v4.19Z"/>
    <path class="cls-1" d="M194.91,193.45h-3.91v-4.19h3.91v4.19Z"/>
    <path class="cls-1" d="M197.55,193.45h-3.91v-4.19h3.91v4.19Z"/>
    <path class="cls-1" d="M200.19,193.45h-3.91v-4.19h3.91v4.19Z"/>
    <path class="cls-1" d="M202.83,193.45h-3.91v-4.19h3.91v4.19Z"/>
    <path class="cls-1" d="M205.47,193.45h-3.91v-4.19h3.91v4.19Z"/>
    <path class="cls-1" d="M208.11,193.45h-3.91v-4.19h3.91v4.19Z"/>
    <path class="cls-1" d="M210.75,193.45h-3.91v-4.19h3.91v4.19Z"/>
    <path class="cls-1" d="M213.39,193.45h-3.91v-4.19h3.91v4.19Z"/>
    <path class="cls-1" d="M224.36,177.18c-.22.31-.74,1.01-1.56,2.09l-1.45,1.86.04.04c0,.56.27,2.77.8,6.63.09.64-.02,1.53-.35,2.68-.35,1.27-.53,2.1-.53,2.5.01.04.02.08.02.12,0,.23-.46.35-1.37.35h-7.74v-4.19h7.33c.11-.11.16-.39.16-.84,0-1.12-.29-2.88-.88-5.27-.59-2.39-.88-4.01-.88-4.86l-.04-.08-1.43-1.06c1.21-2.4,2.12-3.95,2.7-4.65,0,.96.26,1.64.78,2.05,1.17.76,2.64,1.64,4.4,2.64Z"/>
    <path class="cls-1" d="M238.87,188.84c0,2.91-.7,5.72-2.09,8.45-1.62,3.19-3.62,4.79-6,4.79-.9,0-2.57-.31-5.01-.92-2.58-.64-3.87-1.15-3.87-1.51,0-.3.18-.45.55-.45s1.04.12,1.96.35c.93.23,1.64.35,2.13.35.7,0,1.32-.12,1.88-.37,1.8-.81,3.56-1.96,5.28-3.46,2.07-1.83,3.21-3.51,3.4-5.05.05-.42-.07-1.1-.37-2.05-.5,1.43-1,2.39-1.47,2.89-.67.7-1.66,1.04-2.97,1.04s-2.18-.51-2.56-1.53c-.19-.53-.29-1.51-.29-2.95,0-.98.6-2.39,1.8-4.24,1.31-2.01,2.51-3.01,3.6-3.01s2.11,1.04,2.97,3.11c.7,1.72,1.04,3.24,1.04,4.56ZM235.57,188.21v-.2c0-.63-.21-1.18-.63-1.67s-.94-.73-1.56-.73c-.45,0-.98.21-1.58.63-.6.42-.9.85-.9,1.29,0,.31.35.61,1.04.88.66.26,1.21.39,1.68.39.34,0,.99-.2,1.94-.59Z"/>
    <path class="cls-1" d="M257.7,193.45h-2.88c-.23.05-.43-.19-.58-.75-.16-.55-.38-1.21-.67-1.97l-.12-.2-.23.12c-.29.14-.63.68-1.04,1.64-.36.83-.68,1.22-.96,1.17h-9.04c-.6,0-.88-.29-.84-.88.07-1.19.35-2.95.84-5.28.38-1.23.66-1.84.84-1.84.11,0,.17.63.18,1.9.01,1.27.34,1.9.98,1.9h8.76l.04-.25c.1-.56-.14-1.85-.72-3.87-.59-2.09-.88-3.09-.88-3.01l2-4.15c.34,1.15,1.14,4.3,2.39,9.47.3,1.2.65,1.8,1.04,1.8h.88v4.19Z"/>
    <path class="cls-1" d="M260.64,193.45h-3.91v-4.19h3.91v4.19Z"/>
    <path class="cls-1" d="M263.28,193.45h-3.91v-4.19h3.91v4.19Z"/>
    <path class="cls-1" d="M265.92,193.45h-3.91v-4.19h3.91v4.19Z"/>
    <path class="cls-1" d="M268.56,193.45h-3.91v-4.19h3.91v4.19Z"/>
    <path class="cls-1" d="M271.2,193.45h-3.91v-4.19h3.91v4.19Z"/>
    <path class="cls-1" d="M273.84,193.45h-3.91v-4.19h3.91v4.19Z"/>
    <path class="cls-1" d="M276.48,193.45h-3.91v-4.19h3.91v4.19Z"/>
    <path class="cls-1" d="M279.12,193.45h-3.91v-4.19h3.91v4.19Z"/>
    <path class="cls-1" d="M281.76,193.45h-3.91v-4.19h3.91v4.19Z"/>
    <path class="cls-1" d="M284.4,193.45h-3.91v-4.19h3.91v4.19Z"/>
    <path class="cls-1" d="M287.04,193.45h-3.91v-4.19h3.91v4.19Z"/>
    <path class="cls-1" d="M289.68,193.45h-3.91v-4.19h3.91v4.19Z"/>
    <path class="cls-1" d="M292.32,193.45h-3.91v-4.19h3.91v4.19Z"/>
    <path class="cls-1" d="M294.96,193.45h-3.91v-4.19h3.91v4.19Z"/>
    <path class="cls-1" d="M297.6,193.45h-3.91v-4.19h3.91v4.19Z"/>
    <path class="cls-1" d="M300.24,193.45h-3.91v-4.19h3.91v4.19Z"/>
    <path class="cls-1" d="M302.88,193.45h-3.91v-4.19h3.91v4.19Z"/>
    <path class="cls-1" d="M305.52,193.45h-3.91v-4.19h3.91v4.19Z"/>
    <path class="cls-1" d="M308.16,193.45h-3.91v-4.19h3.91v4.19Z"/>
    <path class="cls-1" d="M310.8,193.45h-3.91v-4.19h3.91v4.19Z"/>
    <path class="cls-1" d="M321.77,177.18c-.22.31-.74,1.01-1.56,2.09l-1.45,1.86.04.04c0,.56.27,2.77.8,6.63.09.64-.02,1.53-.35,2.68-.35,1.27-.53,2.1-.53,2.5.01.04.02.08.02.12,0,.23-.46.35-1.37.35h-7.74v-4.19h7.33c.11-.11.16-.39.16-.84,0-1.12-.29-2.88-.88-5.27-.59-2.39-.88-4.01-.88-4.86l-.04-.08-1.43-1.06c1.21-2.4,2.12-3.95,2.7-4.65,0,.96.26,1.64.78,2.05,1.17.76,2.64,1.64,4.4,2.64Z"/>
    <path class="cls-1" d="M330.08,187.25c0,2.93-.7,5.35-2.09,7.24l-1.84-16.25c0-.4.95-2.06,2.84-4.99.72,4.16,1.08,8.83,1.08,14Z"/>
    <path class="cls-1" d="M351.62,186.49c0,.55-.08,1.06-.25,1.56-.25.74-.49,1.47-.74,2.21-.33.86-.74,1.51-1.23,1.94-.31.26-1.06.59-2.23,1-1.17.41-1.97.61-2.39.61-3.04,0-4.56-.72-4.56-2.17,0-1,.35-2.18,1.04-3.56.26-.52,1-1.76,2.23-3.72,1.08-1.76,2.07-3.13,2.97-4.11.27,0,1.59,1.12,3.95,3.36.8.76,1.21,1.73,1.21,2.89ZM350.95,175.09c-.19.31-.55.78-1.08,1.41-.64.74-1.04,1.1-1.21,1.1.08,0-1-.56-3.23-1.68-.5.48-1.04,1.02-1.6,1.64-.38-.1-.96-.33-1.72-.72-.83-.42-1.33-.76-1.49-1,.59-.56,1.35-1.36,2.29-2.39.22.22.7.54,1.43.96.74.42,1.22.63,1.45.63.11,0,.43-.26.95-.78.52-.52.87-.8,1.03-.86l3.17,1.68ZM349.58,189.33c0-.64-.63-1.64-1.88-3.01-1.19-1.28-1.92-1.92-2.19-1.92-1.57,2.09-2.35,3.3-2.35,3.64,0,1.15.74,1.72,2.23,1.72.59,0,1.47-.07,2.64-.21,1.17-.14,1.69-.21,1.56-.21Z"/>
    <path class="cls-1" d="M362.98,190.68c0,2.44-.81,5.01-2.43,7.71-1.45,2.4-3.04,3.6-4.79,3.6-.79,0-2.43-.46-4.93-1.39-2.61-.97-3.91-1.68-3.91-2.13,0-.23.12-.35.35-.35.3,0,1.02.2,2.16.61,1.14.41,2.04.61,2.69.61,1.32,0,3.14-1,5.44-3.01,2.36-2.03,3.54-3.68,3.54-4.95,0-.55-.57-1.38-1.72-2.52-.83-.82-1.6-1.49-2.31-2.03.19-.41.67-1.8,1.43-4.17.97.52,1.88,1.36,2.72,2.52,1.17,1.62,1.76,3.45,1.76,5.48Z"/>
    <path class="cls-1" d="M370.51,187.25c0,2.93-.7,5.35-2.09,7.24l-1.84-16.25c0-.4.95-2.06,2.84-4.99.72,4.16,1.08,8.83,1.08,14Z"/>
    <path class="cls-1" d="M383.01,190.68c0,2.44-.81,5.01-2.43,7.71-1.45,2.4-3.04,3.6-4.79,3.6-.79,0-2.43-.46-4.93-1.39-2.61-.97-3.91-1.68-3.91-2.13,0-.23.12-.35.35-.35.3,0,1.02.2,2.16.61,1.14.41,2.04.61,2.69.61,1.32,0,3.14-1,5.44-3.01,2.36-2.03,3.54-3.68,3.54-4.95,0-.55-.57-1.38-1.72-2.52-.83-.82-1.6-1.49-2.31-2.03.19-.41.67-1.8,1.43-4.17.97.52,1.88,1.36,2.72,2.52,1.17,1.62,1.76,3.45,1.76,5.48ZM379.31,176.97c0,.23-.29.7-.88,1.39-.52.59-.93,1-1.25,1.25-.29-.22-.7-.54-1.25-.96-.85-.65-1.27-1.06-1.27-1.21,0-.19.28-.64.85-1.34.57-.7.99-1.05,1.26-1.05.19,0,.66.28,1.41.83.75.55,1.13.92,1.13,1.09Z"/>
    <path class="cls-1" d="M396.74,188.84c0,2.91-.7,5.72-2.09,8.45-1.62,3.19-3.62,4.79-6,4.79-.9,0-2.57-.31-5.01-.92-2.58-.64-3.87-1.15-3.87-1.51,0-.3.18-.45.55-.45s1.04.12,1.96.35c.93.23,1.64.35,2.13.35.7,0,1.32-.12,1.88-.37,1.8-.81,3.56-1.96,5.28-3.46,2.07-1.83,3.21-3.51,3.4-5.05.05-.42-.07-1.1-.37-2.05-.5,1.43-1,2.39-1.47,2.89-.67.7-1.66,1.04-2.97,1.04s-2.18-.51-2.56-1.53c-.19-.53-.29-1.51-.29-2.95,0-.98.6-2.39,1.8-4.24,1.31-2.01,2.51-3.01,3.6-3.01s2.11,1.04,2.97,3.11c.7,1.72,1.04,3.24,1.04,4.56ZM393.45,188.21v-.2c0-.63-.21-1.18-.63-1.67s-.94-.73-1.56-.73c-.45,0-.98.21-1.58.63-.6.42-.9.85-.9,1.29,0,.31.35.61,1.04.88.66.26,1.21.39,1.68.39.34,0,.99-.2,1.94-.59Z"/>
    <path class="cls-1" d="M23.68,220.7c-.05.63-.4,1.81-1.04,3.56-.25.85-.4,1.27-.47,1.27-.01,0-.09-.27-.23-.81-.14-.54-.24-.86-.31-.95-.31-.42-.82-.63-1.51-.63-.96,0-2.22.5-3.81,1.49-1.69,1.06-2.5,2.02-2.44,2.86.05.68.74,1.16,2.05,1.43l3.6.65c1.3.4,1.96,1.04,1.98,1.94-.45,2.21-.97,3.87-1.55,4.97-1.23,1.06-2.75,1.99-4.56,2.78-2.11.91-4.26,1.45-6.43,1.62-1.68.14-3.29-.17-4.85-.92-2.24-1.08-3.34-2.82-3.32-5.24.03-2.11.42-4.32,1.17-6.61.67-2.01,1.17-3.04,1.51-3.11.27-.05.41.13.41.55,0,.5-.25,1.6-.74,3.29-.46,1.61-.66,2.8-.59,3.58.12,1.49.99,2.63,2.6,3.44,1.42.71,2.95.99,4.6.84.72-.07,2.04-.31,3.95-.72,2.59-.56,4.34-1.16,5.24-1.8,0-.42-.69-.72-2.07-.88-2.16-.27-3.4-.46-3.72-.55-1.32-.4-1.98-1.09-1.96-2.09.01-1.73,1.15-4.05,3.4-6.96,2.41-3.14,4.67-4.71,6.77-4.71,1.49,0,2.26.56,2.31,1.68ZM15.88,244.09c-1.06,1.62-1.73,2.44-2.01,2.44-.07,0-.52-.25-1.36-.75-.84-.5-1.31-.79-1.4-.89-.89.65-1.39,1.17-1.51,1.56-.83-.26-1.78-.79-2.84-1.6.53-.56,1.23-1.36,2.09-2.39.14.21.53.52,1.18.93.65.42,1.08.62,1.3.62.11,0,.38-.24.82-.72.48-.53.78-.83.9-.88l2.84,1.68Z"/>
    <path class="cls-1" d="M37.71,228.45c0,4.17-.47,6.19-1.41,6.04h-9.74c.1-1.01.24-2.42.43-4.24h8.51v-.29c0-.71-.3-1.51-.9-2.39-.55-.83-1.14-1.45-1.78-1.84-.59-.35-1.3-.73-2.15-1.13.26-1.2.61-2.68,1.04-4.44,1.51.72,2.79,1.71,3.83,2.97,1.45,1.77,2.17,3.53,2.17,5.28v.04Z"/>
    <path class="cls-1" d="M47.95,234.45h-5.53l-1.64-18.19,2.68-3.23c.08,1.19.36,4.24.84,9.15l.74,7.12c.16.64.65.96,1.45.96h1.45v4.19Z"/>
    <path class="cls-1" d="M74.65,234.45h-5.57l-.47-3.15c-.61-.08-2.29-.12-5.03-.12-.79,0-2.14.55-4.04,1.64-1.9,1.09-3.26,1.64-4.08,1.64h-8.29v-4.19h9.09c.83,0,1.92-.25,3.27-.76,1.25-.46,1.88-.78,1.88-.96-3.4-1.34-5.5-1.98-6.32-1.92-.78.04-1.91.44-3.4,1.21-.11,0,.07-.42.53-1.25,1.36-2.41,2.82-3.7,4.36-3.85.21-.03.41-.04.61-.04,1.2,0,2.55.35,4.05,1.04,2.55,1.17,4.18,1.86,4.89,2.05,2.7.72,4.87,1.08,6.51,1.08-.31.98-.71,2.11-1.19,3.4h3.19v4.19Z"/>
    <path class="cls-1" d="M77.58,234.45h-3.91v-4.19h3.91v4.19Z"/>
    <path class="cls-1" d="M80.22,234.45h-3.91v-4.19h3.91v4.19Z"/>
    <path class="cls-1" d="M82.86,234.45h-3.91v-4.19h3.91v4.19Z"/>
    <path class="cls-1" d="M85.5,234.45h-3.91v-4.19h3.91v4.19Z"/>
    <path class="cls-1" d="M88.14,234.45h-3.91v-4.19h3.91v4.19Z"/>
    <path class="cls-1" d="M90.78,234.45h-3.91v-4.19h3.91v4.19Z"/>
    <path class="cls-1" d="M93.42,234.45h-3.91v-4.19h3.91v4.19Z"/>
    <path class="cls-1" d="M96.06,234.45h-3.91v-4.19h3.91v4.19Z"/>
    <path class="cls-1" d="M107.13,227.28c0,.25-.01.79-.04,1.64l-.06.96-1.21,4.56h-10.72v-4.19h9.39c-.78-2.62-1.66-4.42-2.64-5.4.89-1.51,1.64-2.83,2.25-3.95,1.09,1.05,2.03,2.71,2.8,4.99.12.37.2.83.23,1.39ZM107.54,216.05c-.56.72-1.34,1.59-2.35,2.6l-3.29-1.72c-.42.34-1.01.87-1.76,1.6-.9-.29-2-.86-3.31-1.72.61-.61,1.41-1.43,2.39-2.44,1.56,1.15,2.44,1.72,2.64,1.72s.58-.27,1.12-.8c.67-.65,1.04-1,1.13-1.04l3.44,1.8Z"/>
    <path class="cls-1" d="M130.17,215.72c-.22.38-.98,1.58-2.27,3.6-.37,0-.63-.04-.78-.12-.29-.15-.47-.24-.55-.27,0,1.41-.31,2.8-.92,4.19-.7,1.56-1.21,2.5-1.56,2.84l.66,1.37c.42.89.68,1.66.78,2.33.05.4.08.8.08,1.21,0,.64-.05,1.4-.16,2.27l-.18,1.29h-10.85c-.64,0-.96-.87-.96-2.6,0-.57.05-1.25.14-2.03.11-.91.22-1.37.35-1.37.01,0,.2.27.56.8s.88.8,1.54.8c.42,0,.91-.18,1.47-.55.53-.44.99-.78,1.37-1.04,1.02-.7,1.77-1.34,2.23-1.92,0-.26-.77-1.21-2.31-2.84-1.17-1.25-1.97-1.88-2.39-1.88-.05,0-.15.2-.28.6s-.29.6-.48.6c-.12-.12-.57-.44-1.33-.96-.97-.67-1.88-1.17-2.72-1.51-.96-.38-1.43-1.23-1.43-2.56,0-.94.46-2.44,1.39-4.48,1.09.03,3.23,1.45,6.41,4.28,1.05.93,2.09,2.1,3.11,3.52.41.6,1.02,1.49,1.84,2.68.72-1.17,1.08-2.91,1.08-5.2,0-.76-.17-1.42-.52-1.95-.35-.54-.52-.79-.52-.77.03-.11,1.03-1.67,3.01-4.69.08,1.08.56,1.91,1.43,2.5,1.84,1.01,2.76,1.63,2.76,1.86ZM123.17,230.33c-.14-.78-.54-1.64-1.21-2.6-.71.96-1.59,1.79-2.64,2.52.22.12.82.19,1.8.2.89.01,1.57-.03,2.05-.12Z"/>
    <path class="cls-1" d="M137.66,228.25c0,2.93-.7,5.35-2.09,7.24l-1.84-16.25c0-.4.95-2.06,2.84-4.99.72,4.16,1.08,8.83,1.08,14Z"/>
    <path class="cls-1" d="M169.19,234.45h-1.02c-.35.82-.8,1.7-1.33,2.64-1.06,1.9-1.96,3.06-2.68,3.48-3.33,1.49-6.39,2.23-9.19,2.23-1.95,0-3.58-.41-4.89-1.23-1.58-.97-2.35-2.38-2.31-4.24.04-1.38.53-2.94,1.47-4.69.78-1.46,1.67-2.73,2.68-3.83.82-.91,1.38-1.38,1.68-1.39.14,0,.2.06.2.18,0-.05-.61.79-1.84,2.53-1.23,1.74-1.84,3.19-1.84,4.35,0,1.39.76,2.52,2.29,3.4,1.25.71,2.58,1.11,3.99,1.21,1.69.12,3.48-.07,5.36-.57.65-.2,1.64-.5,2.97-.88l.27-.04c-.93-1.73-2.39-2.6-4.4-2.6l-1.23-.14c-.81-.08-1.35-.12-1.64-.12.89-2.14,1.7-3.64,2.43-4.48h9.02v4.19ZM160.13,246.6l-2,1.88-2.56-1.72-1.84,1.72-2.72-1.8,1.96-1.88,2.64,1.68,1.8-1.72,2.72,1.84Z"/>
    <path class="cls-1" d="M172.12,234.45h-3.91v-4.19h3.91v4.19Z"/>
    <path class="cls-1" d="M184.8,234.45h-2.33c-.97,0-1.71-.38-2.23-1.13-.12-.19-.33-.7-.61-1.51-.4.72-.89,1.6-1.47,2.64h-6.96v-4.19h8c.16-.35.27-1.49.33-3.4.08-.15.49-.68,1.24-1.6.74-.91,1.21-1.47,1.4-1.66.15,1.27.05,2.84-.29,4.73-.1.52.08.98.53,1.37.41.37.87.55,1.39.55h1v4.19ZM181.63,217.77c0,.16-.44.6-1.33,1.3-.89.7-1.44,1.05-1.66,1.05-.19,0-.73-.35-1.63-1.06-.89-.71-1.34-1.14-1.34-1.29,0-.18.45-.68,1.34-1.49.89-.82,1.44-1.23,1.63-1.23.08,0,.6.44,1.56,1.31.95.87,1.43,1.34,1.43,1.41Z"/>
    <path class="cls-1" d="M187.79,234.45h-3.91v-4.19h3.91v4.19Z"/>
    <path class="cls-1" d="M190.43,234.45h-3.91v-4.19h3.91v4.19Z"/>
    <path class="cls-1" d="M193.07,234.45h-3.91v-4.19h3.91v4.19Z"/>
    <path class="cls-1" d="M195.71,234.45h-3.91v-4.19h3.91v4.19Z"/>
    <path class="cls-1" d="M198.35,234.45h-3.91v-4.19h3.91v4.19Z"/>
    <path class="cls-1" d="M200.99,234.45h-3.91v-4.19h3.91v4.19Z"/>
    <path class="cls-1" d="M203.63,234.45h-3.91v-4.19h3.91v4.19Z"/>
    <path class="cls-1" d="M206.27,234.45h-3.91v-4.19h3.91v4.19Z"/>
    <path class="cls-1" d="M230.91,228.25c-1.73,4.13-2.88,6.2-3.44,6.2h-22.16v-4.19h5.16c.37,0,.73-.15,1.07-.44s.52-.62.52-.97c0-.74-.25-2.67-.74-5.81-.5-3.23-.87-5.04-1.08-5.42-.1-.15-.3-.39-.61-.72-.08-.1-.12-.32-.12-.68,0-.22.37-.86,1.09-1.92.73-1.06,1.16-1.6,1.28-1.6.03.07.1.27.23.59.18.45.48.91.92,1.37.52.56,1.65,1.28,3.4,2.15-.23.49-.6,1.23-1.11,2.21-.44.82-.95,1.23-1.53,1.23h-.23c.4,2.35.59,3.87.59,4.56,0,.52-.15,1.27-.44,2.25-.29.98-.44,1.62-.44,1.9,1-.65,2.85-1.76,5.57-3.31,3.3-1.73,5.46-2.6,6.47-2.6.78,0,1.86.55,3.25,1.64,1.57,1.23,2.35,2.42,2.35,3.56ZM226.98,229.8c0-.42-.36-1-1.06-1.72-.86-.9-1.83-1.35-2.93-1.35-1.39,0-2.85.42-4.36,1.27-.71.44-1.79,1.08-3.23,1.92l-.61.33h11.17c.68,0,1.02-.15,1.02-.45Z"/>
    <path class="cls-1" d="M246.79,234.45h-1.68c-.48,1.79-1.4,3.55-2.76,5.28-1.6,2.02-3.15,3.01-4.65,2.97-.71-.01-2.23-.5-4.56-1.45-2.42-.98-3.62-1.67-3.62-2.07,0-.27.14-.41.43-.41s.83.16,1.68.47c.85.31,1.5.48,1.96.49,1.54.04,3.29-.5,5.24-1.62,1.9-1.1,3.27-2.33,4.11-3.66h-.51c-4.3,0-6.45-1.05-6.45-3.15,0-.85.54-2.42,1.64-4.73,1.31-2.8,2.62-4.19,3.93-4.19,1.15,0,2.17,1.2,3.07,3.6.67,1.81,1,3.14,1,3.99v.29h1.17v4.19ZM242.47,229.54v-.12c-.56-1.95-1.35-2.93-2.37-2.93-.68,0-1.3.53-1.86,1.6v.04c0,.63.34,1.13,1.02,1.49.56.31,1.19.47,1.88.47.75,0,1.19-.18,1.33-.55Z"/>
    <path class="cls-1" d="M249.74,234.45h-3.91v-4.19h3.91v4.19Z"/>
    <path class="cls-1" d="M252.38,234.45h-3.91v-4.19h3.91v4.19Z"/>
    <path class="cls-1" d="M255.01,234.45h-3.91v-4.19h3.91v4.19Z"/>
    <path class="cls-1" d="M257.65,234.45h-3.91v-4.19h3.91v4.19Z"/>
    <path class="cls-1" d="M260.29,234.45h-3.91v-4.19h3.91v4.19Z"/>
    <path class="cls-1" d="M262.93,234.45h-3.91v-4.19h3.91v4.19Z"/>
    <path class="cls-1" d="M265.57,234.45h-3.91v-4.19h3.91v4.19Z"/>
    <path class="cls-1" d="M268.21,234.45h-3.91v-4.19h3.91v4.19Z"/>
    <path class="cls-1" d="M279.18,218.18c-.22.31-.74,1.01-1.56,2.09l-1.45,1.86.04.04c0,.56.27,2.77.8,6.63.09.64-.02,1.53-.35,2.68-.35,1.27-.53,2.1-.53,2.5.01.04.02.08.02.12,0,.23-.46.35-1.37.35h-7.74v-4.19h7.33c.11-.11.16-.39.16-.84,0-1.12-.29-2.88-.88-5.27-.59-2.39-.88-4.01-.88-4.86l-.04-.08-1.43-1.06c1.21-2.4,2.12-3.95,2.7-4.65,0,.96.26,1.64.78,2.05,1.17.76,2.64,1.64,4.4,2.64Z"/>
    <path class="cls-1" d="M287.49,228.25c0,2.93-.7,5.35-2.09,7.24l-1.84-16.25c0-.4.95-2.06,2.84-4.99.72,4.16,1.08,8.83,1.08,14Z"/>
    <path class="cls-1" d="M332.14,234.45h-1.94c-.22-.27-.55-.7-1-1.29-.33.72-.49,1.17-.49,1.33l-5.75-.04s-.14-.22-.35-.57c-.19-.31-.31-.47-.37-.47-.04,0-.19.16-.46.49-.27.33-.43.51-.5.55h-6.16v.29c0,.33-.27,1.1-.8,2.31-.6,1.35-1.15,2.24-1.64,2.68-.78.68-2,1.36-3.68,2.03-1.68.67-3.02,1-4.03,1-4.88,0-7.33-1.57-7.33-4.71,0-1.95.49-4.13,1.47-6.53.93-2.29,1.66-3.44,2.21-3.44.15,0,.22.08.22.25,0,.19-.3,1.03-.91,2.51-.61,1.48-.91,2.59-.91,3.33,0,1.77.83,3.04,2.48,3.81,1.02.48,2.2.72,3.52.72.89,0,2.24-.31,4.07-.92,1.98-.67,3.14-1.3,3.48-1.88,0-.5-.2-1.36-.59-2.56-.49-1.51-1.1-2.89-1.84-4.11.29-.59,1.06-1.93,2.31-4.03.46.91.92,1.82,1.37,2.72.71,1.26,1.32,2,1.82,2.23,1.31.11,3.27.15,5.89.12.11-.78.24-1.59.39-2.44.64-.91,1.52-1.93,2.64-3.05-.82,3.27-1.2,5.06-1.15,5.36l.04.12h4.07c-.01-.25-.04-.61-.08-1.08-.1-.75-.27-1.31-.51-1.68.56-.8,1.43-1.94,2.6-3.4v3.6c0,1.41.17,2.11.51,2.11.31.3.54.45.68.45h.72v4.19Z"/>
    <path class="cls-1" d="M334.99,234.45h-3.91v-4.19h3.91v4.19Z"/>
    <path class="cls-1" d="M337.62,234.45h-3.91v-4.19h3.91v4.19Z"/>
    <path class="cls-1" d="M340.27,234.45h-3.91v-4.19h3.91v4.19Z"/>
    <path class="cls-1" d="M342.91,234.45h-3.91v-4.19h3.91v4.19Z"/>
    <path class="cls-1" d="M345.54,234.45h-3.91v-4.19h3.91v4.19Z"/>
    <path class="cls-1" d="M348.18,234.45h-3.91v-4.19h3.91v4.19Z"/>
    <path class="cls-1" d="M350.82,234.45h-3.91v-4.19h3.91v4.19Z"/>
    <path class="cls-1" d="M362.3,234.45h-3.48c-.31,0-.51-.23-.59-.68l-.33-1.96c-.5.7-1.13,1.58-1.88,2.64h-6.16v-4.19h7.8l-2.03-12.91c.79-1.1,1.84-2.54,3.15-4.32.08.71.35,3.45.8,8.23l.67,7.59c0,.94.36,1.41,1.08,1.41h.96v4.19Z"/>
    <path class="cls-1" d="M400.04,232.73c-.07,1.23-.56,2.6-1.47,4.11-.7-.76-1.39-1.41-2.09-1.92h-.04c-.6-.35-1.44-.53-2.52-.53-.38,0-.79.02-1.23.06h-9.8l-.45-3.15c-.63-.08-2.25-.12-4.87-.12-.79,0-2.11.55-3.96,1.64-1.85,1.09-3.17,1.64-3.96,1.64h-7.92v-4.19h8.72c.8,0,1.85-.25,3.13-.76,1.2-.46,1.8-.78,1.8-.96-.53-.25-1.51-.61-2.93-1.08-1.71-.59-2.77-.87-3.19-.84-.37.03-.9.24-1.59.62-.69.39-1.23.58-1.63.58-.11,0,.05-.42.49-1.25.48-.9,1.05-1.7,1.72-2.39.97-1,1.99-1.49,3.07-1.49,1.19,0,2.5.35,3.93,1.04,2.43,1.16,4.02,1.84,4.79,2.05,2.69.72,4.78,1.08,6.28,1.08-.31.98-.68,2.11-1.08,3.4h7.2c.25,0,.37-.32.37-.96,0-1.12-.31-2.86-.94-5.24-.63-2.37-.94-3.96-.94-4.77,0-.05-.22-.26-.67-.61-.44-.35-.65-.59-.62-.7,0-.33.48-1.18,1.45-2.57s1.59-2.08,1.86-2.08c.01.08.01.38,0,.88-.04.64.04,1.03.25,1.17,1.06.78,2.39,1.67,3.97,2.68-.12.16-.55.91-1.29,2.23-.6,1.06-1.04,1.6-1.31,1.6,0,1.15.2,3.32.59,6.53.07.59.91,1.34,2.54,2.27,1.57.9,2.35,1.58,2.33,2.05ZM376.45,240.48c.52,0,.26.45-.77,1.34-1.03.89-1.63,1.34-1.79,1.34-2.13-1.09-3.19-1.73-3.19-1.92,0-.12.39-.57,1.17-1.35.78-.78,1.23-1.17,1.35-1.17.05,0,.58.29,1.57.88.99.59,1.54.88,1.67.88Z"/>
    <path class="cls-1" d="M407.94,228.25c0,2.93-.7,5.35-2.09,7.24l-1.84-16.25c0-.4.95-2.06,2.84-4.99.72,4.16,1.08,8.83,1.08,14Z"/>
    <path class="cls-1" d="M436.4,230.76c-.78,3-1.46,4.84-2.05,5.53-.7.8-1.96,1.56-3.79,2.27-2.07.8-3.96,1.21-5.65,1.21-4.42,0-6.63-1.8-6.63-5.4,0-.98.34-2.55,1.02-4.71.76-2.46,1.49-3.68,2.17-3.68.25,0,.37.09.37.27,0,.05-.25.65-.77,1.77s-.77,2.04-.77,2.75c0,2.1.95,3.5,2.84,4.2.85.3,2.14.45,3.89.45.97,0,2.31-.29,4.03-.88,1.87-.64,2.95-1.26,3.23-1.84.11-.52-.02-1.3-.39-2.35-.59-1.68-1.35-3.4-2.29-5.16.38-.67,1.08-1.9,2.09-3.68,1.02,1.38,1.83,3.21,2.44,5.48.35,1.36.44,2.63.25,3.79ZM428.65,218.4c.04.15-.29.54-.99,1.17-.7.63-1.17.98-1.4,1.04-.12,0-.58-.27-1.36-.82-.78-.55-1.18-.86-1.18-.94-.03-.15.29-.61.94-1.38.66-.77,1.06-1.18,1.23-1.22.08,0,.56.33,1.43,1,.87.67,1.32,1.05,1.33,1.15Z"/>
    <path class="cls-1" d="M450.24,229.84c0,2.91-.7,5.72-2.09,8.45-1.62,3.19-3.62,4.79-6,4.79-.9,0-2.57-.31-5.01-.92-2.58-.64-3.87-1.15-3.87-1.51,0-.3.18-.45.55-.45s1.04.12,1.96.35c.93.23,1.64.35,2.13.35.7,0,1.32-.12,1.88-.37,1.8-.81,3.56-1.96,5.28-3.46,2.07-1.83,3.21-3.51,3.4-5.05.05-.42-.07-1.1-.37-2.05-.5,1.43-1,2.39-1.47,2.89-.67.7-1.66,1.04-2.97,1.04s-2.18-.51-2.56-1.53c-.19-.53-.29-1.51-.29-2.95,0-.98.6-2.39,1.8-4.24,1.31-2.01,2.51-3.01,3.6-3.01s2.11,1.04,2.97,3.11c.7,1.72,1.04,3.24,1.04,4.56ZM446.94,229.21v-.2c0-.63-.21-1.18-.63-1.67s-.94-.73-1.56-.73c-.45,0-.98.21-1.58.63-.6.42-.9.85-.9,1.29,0,.31.35.61,1.04.88.66.26,1.21.39,1.68.39.34,0,.99-.2,1.94-.59Z"/>
    <path class="cls-1" d="M465.38,234.45h-1.68c-.48,1.79-1.4,3.55-2.76,5.28-1.6,2.02-3.15,3.01-4.65,2.97-.71-.01-2.23-.5-4.56-1.45-2.42-.98-3.62-1.67-3.62-2.07,0-.27.14-.41.43-.41s.83.16,1.68.47c.85.31,1.5.48,1.96.49,1.54.04,3.29-.5,5.24-1.62,1.9-1.1,3.27-2.33,4.11-3.66h-.51c-4.3,0-6.45-1.05-6.45-3.15,0-.85.54-2.42,1.64-4.73,1.31-2.8,2.62-4.19,3.93-4.19,1.15,0,2.17,1.2,3.07,3.6.67,1.81,1,3.14,1,3.99v.29h1.17v4.19ZM462.06,218.36c-.35.67-.73,1.25-1.12,1.76-1.34,0-2.82.48-4.44,1.45-.82.49-1.47.9-1.96,1.23,0-.23.19-.6.57-1.1.53-.67,1.19-1.17,1.99-1.49l-1.6-.51c-.72-.22-1.08-.59-1.08-1.13,0-.83.39-1.75,1.17-2.76.93-1.2,2.02-1.8,3.27-1.8.78,0,1.17.43,1.17,1.29-.14.25-.36.7-.68,1.35-.35-.61-.97-.92-1.84-.92-.22,0-.59.14-1.1.42-.52.28-.78.52-.78.71,0,1.04,1.59,1.56,4.77,1.56.56,0,1.12-.01,1.68-.04ZM461.06,229.54v-.12c-.56-1.95-1.35-2.93-2.37-2.93-.68,0-1.3.53-1.86,1.6v.04c0,.63.34,1.13,1.02,1.49.56.31,1.19.47,1.88.47.75,0,1.19-.18,1.33-.55Z"/>
    <path class="cls-1" d="M468.33,234.45h-3.91v-4.19h3.91v4.19Z"/>
    <path class="cls-1" d="M470.96,234.45h-3.91v-4.19h3.91v4.19Z"/>
    <path class="cls-1" d="M473.6,234.45h-3.91v-4.19h3.91v4.19Z"/>
    <path class="cls-1" d="M476.24,234.45h-3.91v-4.19h3.91v4.19Z"/>
    <path class="cls-1" d="M478.88,234.45h-3.91v-4.19h3.91v4.19Z"/>
    <path class="cls-1" d="M481.52,234.45h-3.91v-4.19h3.91v4.19Z"/>
    <path class="cls-1" d="M484.16,234.45h-3.91v-4.19h3.91v4.19Z"/>
    <path class="cls-1" d="M486.8,234.45h-3.91v-4.19h3.91v4.19Z"/>
    <path class="cls-1" d="M489.44,234.45h-3.91v-4.19h3.91v4.19Z"/>
    <path class="cls-1" d="M492.08,234.45h-3.91v-4.19h3.91v4.19Z"/>
    <path class="cls-1" d="M494.72,234.45h-3.91v-4.19h3.91v4.19Z"/>
    <path class="cls-1" d="M518.4,234.45h-1.43c-.22-.27-.55-.72-1-1.35-.34.83-.52,1.3-.53,1.39l-5.46-.04c-.07-.14-.18-.34-.35-.61s-.28-.42-.35-.43c-.1.04-.22.16-.38.36s-.36.43-.6.69h-7.45c-.45,0-.79-.48-1-1.43l-.27.23c-.59.81-1.19,1.21-1.8,1.21h-4.01v-4.19h5.24c.83,0,1.25-.93,1.25-2.8,1.06-1.23,2.02-2.36,2.87-3.4,0,1.43-.49,3.34-1.47,5.71l.04.04c.5.5,3.05.63,7.63.37-.21-1.32-.21-2.13,0-2.44.65-.98,1.66-2.03,3.01-3.13-.78,2.82-1.17,4.58-1.17,5.28,0,.11.01.19.04.25l.04.12h3.93c0-.27-.03-.62-.08-1.04-.1-.78-.26-1.32-.49-1.64-.14-.12.21-.72,1.04-1.78.72-.9,1.27-1.52,1.64-1.86v2.44c0,.34-.08.89-.22,1.64-.15.87-.25,1.47-.29,1.8-.08.3.1.45.55.45h1.08v4.19ZM514.55,219.2c-.45.59-1.14,1.34-2.07,2.25l-3.21-1.76c-.4.4-1,.94-1.8,1.64-.9-.25-1.9-.76-2.99-1.56l2.09-2.09c1.57,1.04,2.56,1.56,2.99,1.56.53-.48,1.19-1.04,1.96-1.68l3.03,1.64ZM511.24,215.93l-1.96,1.72-2.03-1.68,1.99-1.84,2.01,1.8Z"/>
    <path class="cls-1" d="M529.84,218.18c-.22.31-.74,1.01-1.56,2.09l-1.45,1.86.04.04c0,.56.27,2.77.8,6.63.09.64-.02,1.53-.35,2.68-.35,1.27-.53,2.1-.53,2.5.01.04.02.08.02.12,0,.23-.46.35-1.37.35h-7.74v-4.19h7.33c.11-.11.16-.39.16-.84,0-1.12-.29-2.88-.88-5.27-.59-2.39-.88-4.01-.88-4.86l-.04-.08-1.43-1.06c1.21-2.4,2.12-3.95,2.7-4.65,0,.96.26,1.64.78,2.05,1.17.76,2.64,1.64,4.4,2.64Z"/>
  </g>
</svg>