<?xml version="1.0" encoding="UTF-8"?>
<svg id="Layer_1" data-name="Layer 1" xmlns="http://www.w3.org/2000/svg" viewBox="0 0 1258.5 214.5">
  <defs>
    <style>
      .cls-1 {
        fill: #444345;
      }

      .cls-2 {
        fill: #727243;
      }
    </style>
  </defs>
  <g>
    <path class="cls-2" d="M.98,132.79c-1.45-5.51,1.74-10.89,7.88-10.89,3.6,0,5.91,1.58,7.45,3.26l-1.18,1.2c-1.41-1.45-3.11-2.63-5.96-2.63-4.85,0-7.32,4.46-6.14,8.98.96,3.67,3.92,5.81,7.32,5.81,1.9,0,3.26-.54,4.19-1.25l.08-4.95h-5.27v-1.81s7.22,0,7.22,0l-.12,8.01c-1.54,1.17-3.31,1.86-5.73,1.86-4.25,0-8.48-2.8-9.74-7.6Z"/>
    <path class="cls-2" d="M21.93,122.2h12.51l-.02,1.84h-10.54v6.1h9.42l-.02,1.84h-9.39v6.25s10.66,0,10.66,0v1.84s-12.63,0-12.63,0v-17.85Z"/>
    <path class="cls-2" d="M39.09,122.2h1.82l10.92,14.49.02-14.49h1.92v17.85h-1.58l-11.18-14.82v14.82h-1.93v-17.85Z"/>
    <path class="cls-2" d="M59.57,122.2h12.51l-.02,1.84h-10.54v6.1h9.42l-.02,1.84h-9.39v6.25s10.66,0,10.66,0v1.84s-12.63,0-12.63,0v-17.85Z"/>
    <path class="cls-2" d="M76.73,122.2h6.29c2.2,0,3.99.56,5.35,1.63.96.79,1.64,1.86,1.96,3.09.41,1.56.17,2.86-.53,3.88-.8,1.12-2.37,1.84-4.29,2.12l5.47,7.14h-2.27l-5.27-6.94h-4.75v6.94h-1.97v-17.85ZM83.44,131.31c2.3,0,3.83-.64,4.54-1.63.49-.71.64-1.56.37-2.6-.2-.76-.63-1.45-1.23-1.94-.86-.69-2.05-1.07-3.7-1.07h-4.7l-.02,7.24h4.75Z"/>
    <path class="cls-2" d="M101.44,122.08h1.9l7.97,17.98h-2.02l-2.04-4.72h-9.54l-2.06,4.72h-2.17l7.97-17.98ZM106.45,133.53l-3.98-9.16-3.99,9.16h7.97Z"/>
    <path class="cls-2" d="M115.09,122.2h1.97v15.99h9.84v1.86h-11.83v-17.85Z"/>
    <path class="cls-2" d="M145.65,122.08h1.9l7.97,17.98h-2.02l-2.04-4.72h-9.54l-2.06,4.72h-2.17l7.97-17.98ZM150.65,133.53l-3.98-9.16-3.99,9.16h7.97Z"/>
    <path class="cls-2" d="M158.16,134.62c-.25-.97-.36-1.86-.35-2.78l-.03-9.64h2l.02,10.18c0,.54.08,1.25.28,2.01.61,2.32,2.54,4.08,5.64,4.08,1.45,0,2.66-.54,3.47-1.63.65-.94,1.09-2.4,1.08-4.36l.03-10.28h1.97v10.63c0,2.27-.47,4.03-1.37,5.28-1.04,1.45-2.69,2.22-4.86,2.22-4.17,0-6.99-2.37-7.87-5.71Z"/>
    <path class="cls-2" d="M181.96,124.07h-5.9v-1.86h13.77v1.86h-5.91v15.99h-1.97v-15.99Z"/>
    <path class="cls-2" d="M194.06,122.2h1.97v7.93h9.98v-7.93s1.99,0,1.99,0v17.85h-2.01v-8.03s-9.95,0-9.95,0v8.03h-1.99v-17.85Z"/>
    <path class="cls-2" d="M213.28,132.64c-1.45-5.51,1.6-10.74,7.37-10.74,4.52,0,8.56,3.39,9.7,7.73,1.45,5.53-1.6,10.76-7.37,10.76-4.52,0-8.56-3.39-9.7-7.75ZM228.3,129.7c-.88-3.37-3.78-5.94-7.28-5.94-4.57,0-6.84,4.39-5.68,8.82.88,3.37,3.78,5.94,7.28,5.94,4.57,0,6.84-4.39,5.68-8.82Z"/>
    <path class="cls-2" d="M235.67,122.2h6.29c2.2,0,3.99.56,5.35,1.63.96.79,1.64,1.86,1.96,3.09.41,1.56.18,2.86-.53,3.88-.8,1.12-2.37,1.84-4.29,2.12l5.47,7.14h-2.27l-5.27-6.94h-4.75v6.94h-1.98v-17.85ZM242.38,131.31c2.3,0,3.83-.64,4.54-1.63.49-.71.64-1.56.37-2.6-.2-.76-.63-1.45-1.23-1.94-.86-.69-2.05-1.07-3.7-1.07h-4.7l-.02,7.24h4.75Z"/>
    <path class="cls-2" d="M254.6,122.2h1.97v17.85h-1.98v-17.85Z"/>
    <path class="cls-2" d="M266.67,124.07h-5.89v-1.86h13.77v1.86h-5.91v15.99h-1.97v-15.99Z"/>
    <path class="cls-2" d="M283.42,132.87l-7.12-10.66h2.2l5.86,9,5.88-9h2.52l-7.36,10.99v6.86s-2,0-2,0v-7.19Z"/>
    <path class="cls-2" d="M304.01,132.64c-1.45-5.51,1.6-10.74,7.37-10.74,4.52,0,8.56,3.39,9.7,7.73,1.45,5.53-1.6,10.76-7.37,10.76-4.52,0-8.56-3.39-9.7-7.75ZM319.03,129.7c-.88-3.37-3.78-5.94-7.28-5.94-4.57,0-6.84,4.39-5.68,8.82.88,3.37,3.78,5.94,7.28,5.94,4.57,0,6.84-4.39,5.68-8.82Z"/>
    <path class="cls-2" d="M326.4,122.2h12.56v1.86s-10.6,0-10.6,0v6.38s9.49,0,9.49,0l-.02,1.84h-9.47v7.78h-1.98v-17.85Z"/>
    <path class="cls-2" d="M352.2,122.2h1.97v17.85h-1.98v-17.85Z"/>
    <path class="cls-2" d="M358.86,136.92l1.18-1.2c1.96,1.84,3.93,2.78,6.5,2.78s4.05-1.4,3.54-3.34c-.36-1.38-1.47-2.19-4.45-3.26-3.56-1.3-5.44-2.45-6.05-4.77-.78-2.96,1.31-5.18,5.09-5.18,2.72,0,5.17,1.12,6.9,2.7l-1.1,1.33c-1.65-1.43-3.46-2.22-5.5-2.22-2.62,0-3.8,1.5-3.37,3.14.38,1.45,1.7,2.19,4.74,3.29,3.3,1.17,5.16,2.42,5.76,4.72.82,3.14-1.48,5.41-5.2,5.41-3.22,0-5.98-1.28-8.03-3.39Z"/>
    <path class="cls-2" d="M376.9,122.2h1.97v15.99h9.84v1.86h-11.83v-17.85Z"/>
    <path class="cls-2" d="M399.12,122.08h1.9l7.97,17.98h-2.02l-2.04-4.72h-9.54l-2.06,4.72h-2.17l7.97-17.98ZM404.12,133.53l-3.98-9.16-3.99,9.16h7.97Z"/>
    <path class="cls-2" d="M412.76,122.2h1.85l6.33,9.74,6.36-9.74h2.2v17.85h-2.01v-14.46s-6.36,9.56-6.36,9.56h-.1l-6.33-9.54v14.43h-1.96v-17.85Z"/>
    <path class="cls-2" d="M435.49,122.2h1.97v17.85h-1.98v-17.85Z"/>
    <path class="cls-2" d="M442.94,132.99c-1.51-5.76,1.78-11.09,7.58-11.09,3.25,0,5.84,1.61,7.6,3.83l-1.42,1.07c-1.56-1.86-3.29-3.04-5.87-3.04-4.55,0-7.08,4.44-5.84,9.16.9,3.44,3.76,5.58,6.94,5.58,2.35,0,3.67-.94,4.78-2.42l1.67,1.33c-1.19,1.66-2.91,2.98-6.06,2.98-4.12,0-8.18-2.8-9.38-7.4Z"/>
    <path class="cls-2" d="M477.19,122.08h1.9l7.97,17.98h-2.02l-2.04-4.72h-9.54l-2.06,4.72h-2.17l7.97-17.98ZM482.2,133.53l-3.98-9.16-3.99,9.16h7.97Z"/>
    <path class="cls-2" d="M490.84,122.2h12.56v1.86s-10.6,0-10.6,0v6.38h9.49l-.02,1.84h-9.47v7.78h-1.98v-17.85Z"/>
    <path class="cls-2" d="M508.12,122.2h12.56v1.86s-10.6,0-10.6,0v6.38s9.49,0,9.49,0l-.02,1.84h-9.47v7.78h-1.98v-17.85Z"/>
    <path class="cls-2" d="M529.86,122.08h1.9l7.97,17.98h-2.02l-2.04-4.72h-9.54l-2.06,4.72h-2.17l7.97-17.98ZM534.87,133.53l-3.98-9.16-3.99,9.16h7.97Z"/>
    <path class="cls-2" d="M543.68,122.2h1.97v17.85h-1.98v-17.85Z"/>
    <path class="cls-2" d="M551.62,122.2h6.29c2.2,0,3.99.56,5.35,1.63.96.79,1.64,1.86,1.96,3.09.41,1.56.18,2.86-.53,3.88-.8,1.12-2.37,1.84-4.29,2.12l5.47,7.14h-2.27l-5.27-6.94h-4.75v6.94h-1.98v-17.85ZM558.33,131.31c2.3,0,3.83-.64,4.54-1.63.49-.71.64-1.56.37-2.6-.2-.76-.63-1.45-1.23-1.94-.86-.69-2.05-1.07-3.7-1.07h-4.7l-.02,7.24h4.75Z"/>
    <path class="cls-2" d="M569.25,136.92l1.18-1.2c1.96,1.84,3.93,2.78,6.5,2.78s4.05-1.4,3.54-3.34c-.36-1.38-1.47-2.19-4.45-3.26-3.56-1.3-5.44-2.45-6.05-4.77-.78-2.96,1.31-5.18,5.09-5.18,2.72,0,5.17,1.12,6.9,2.7l-1.1,1.33c-1.65-1.43-3.46-2.22-5.5-2.22-2.62,0-3.8,1.5-3.37,3.14.38,1.45,1.7,2.19,4.74,3.29,3.3,1.17,5.16,2.42,5.76,4.72.82,3.14-1.48,5.41-5.2,5.41-3.22,0-5.98-1.28-8.03-3.39Z"/>
    <path class="cls-2" d="M585.99,142.28c1.35-.38,1.85-1.12,1.76-2.22h-.92l.02-2.68h2.27v2.29c-.01,2.22-.81,3.09-2.71,3.47l-.43-.87Z"/>
    <path class="cls-2" d="M602.85,122.2h12.51l-.02,1.84h-10.54v6.1h9.42l-.02,1.84h-9.39v6.25s10.66,0,10.66,0v1.84s-12.63,0-12.63,0v-17.85Z"/>
    <path class="cls-2" d="M620,122.2h1.82l10.92,14.49.02-14.49h1.92v17.85h-1.58l-11.18-14.82v14.82h-1.93v-17.85Z"/>
    <path class="cls-2" d="M640.48,122.2h4.22c2.9,0,5.52.84,7.44,2.37,1.58,1.28,2.67,2.96,3.24,5.13.72,2.73.37,5.13-.92,6.96-1.54,2.14-4.36,3.39-8.08,3.39h-5.92v-17.85ZM646.16,138.2c2.92,0,5.18-1,6.48-2.81,1.02-1.43,1.31-3.37.74-5.56-.44-1.68-1.31-3.01-2.51-3.95-1.46-1.17-3.47-1.81-5.79-1.81h-2.6v14.13s3.68,0,3.68,0Z"/>
    <path class="cls-2" d="M660.13,132.64c-1.45-5.51,1.6-10.74,7.37-10.74,4.52,0,8.56,3.39,9.7,7.73,1.45,5.53-1.6,10.76-7.37,10.76-4.52,0-8.56-3.39-9.7-7.75ZM675.15,129.7c-.88-3.37-3.78-5.94-7.28-5.94-4.57,0-6.84,4.39-5.68,8.82.88,3.37,3.78,5.94,7.28,5.94,4.57,0,6.84-4.39,5.68-8.82Z"/>
    <path class="cls-2" d="M679.55,122.2h2.05l5,14.87,4.75-14.92h1.62l4.84,14.92,4.99-14.87h2.22l-6.25,17.98h-1.72l-4.78-14.41-4.79,14.41h-1.7l-6.24-17.98Z"/>
    <path class="cls-2" d="M709.26,122.2h1.85l6.33,9.74,6.36-9.74h2.2v17.85h-2.01v-14.46s-6.36,9.56-6.36,9.56h-.1l-6.33-9.54v14.43h-1.96v-17.85Z"/>
    <path class="cls-2" d="M731.82,122.2h12.51l-.02,1.84h-10.54v6.1h9.42l-.02,1.84h-9.39v6.25s10.66,0,10.66,0v1.84s-12.63,0-12.63,0v-17.85Z"/>
    <path class="cls-2" d="M748.98,122.2h1.82l10.92,14.49.02-14.49h1.92v17.85h-1.58l-11.18-14.82v14.82h-1.93v-17.85Z"/>
    <path class="cls-2" d="M773.59,124.07h-5.89v-1.86h13.77v1.86h-5.91v15.99h-1.97v-15.99Z"/>
    <path class="cls-2" d="M784.48,136.92l1.18-1.2c1.96,1.84,3.93,2.78,6.5,2.78s4.05-1.4,3.54-3.34c-.36-1.38-1.47-2.19-4.45-3.26-3.56-1.3-5.44-2.45-6.05-4.77-.78-2.96,1.31-5.18,5.09-5.18,2.72,0,5.17,1.12,6.9,2.7l-1.1,1.33c-1.65-1.43-3.46-2.22-5.5-2.22-2.62,0-3.8,1.5-3.37,3.14.38,1.45,1.7,2.19,4.74,3.29,3.3,1.17,5.16,2.42,5.76,4.72.82,3.14-1.48,5.41-5.2,5.41-3.22,0-5.98-1.28-8.03-3.39Z"/>
    <path class="cls-2" d="M821.43,137.63c-1.39,1.76-2.94,2.68-5.39,2.68-2.9,0-5.59-1.68-6.34-4.57-.7-2.65.63-4.82,4.24-5.92-.94-1.12-1.68-2.22-1.97-3.32-.68-2.58.91-4.62,3.63-4.62s4.71,1.58,5.31,3.85c.49,1.86-.25,3.7-4.1,4.92l4.29,4.46c.65-1.05,1.23-2.37,1.68-3.88l1.55.87c-.56,1.68-1.18,3.11-1.92,4.28l2.92,3.04-1.22.97-2.68-2.78ZM820.14,136.33l-4.99-5.2c-3.07.87-4.04,2.6-3.55,4.46.47,1.81,2.08,2.98,4.21,2.98,1.77,0,3.15-.76,4.33-2.24ZM819.09,125.85c-.35-1.33-1.58-2.3-3.12-2.3-1.62,0-2.58,1.33-2.15,2.96.24.92.73,1.73,1.78,2.88,3.19-.97,3.83-2.24,3.49-3.54Z"/>
    <path class="cls-2" d="M836.1,138.71l11.06-14.69h-10.67l.02-1.81h13.54v1.35s-11.08,14.69-11.08,14.69h11.14v1.81s-14.01,0-14.01,0v-1.35Z"/>
    <path class="cls-2" d="M861.11,122.08h1.9l7.97,17.98h-2.02l-2.04-4.72h-9.54l-2.06,4.72h-2.17l7.97-17.98ZM866.11,133.53l-3.98-9.16-3.99,9.16h7.97Z"/>
    <path class="cls-2" d="M874.75,122.2h1.97v10.61s9.77-10.61,9.77-10.61h2.8l-7.33,7.86,7.59,10h-2.22l-6.66-8.82-3.95,4.26v4.57h-1.97v-17.85Z"/>
    <path class="cls-2" d="M898.99,122.08h1.9l7.97,17.98h-2.02l-2.04-4.72h-9.54l-2.06,4.72h-2.17l7.97-17.98ZM904,133.53l-3.98-9.16-3.99,9.16h7.97Z"/>
    <path class="cls-2" d="M914.77,124.07h-5.89v-1.86h13.77v1.86h-5.91v15.99s-1.97,0-1.97,0v-15.99Z"/>
  </g>
  <g>
    <path class="cls-1" d="M1087.88,16.62l-.03.03s.03.04.05.05l-.02-.07ZM1087.88,16.62l-.03.03s.03.04.05.05l-.02-.07ZM1087.88,16.62l-.03.03s.03.04.05.05l-.02-.07ZM1087.88,16.62l-.03.03s.03.04.05.05l-.02-.07ZM1087.88,16.62l-.03.03s.03.04.05.05l-.02-.07ZM1087.88,16.62l-.03.03s.03.04.05.05l-.02-.07Z"/>
    <path class="cls-1" d="M1087.9,16.7s-.03-.03-.05-.05l.03-.03.02.07Z"/>
    <path class="cls-1" d="M1087.9,16.7s-.03-.03-.05-.05l.03-.03.02.07Z"/>
    <path class="cls-1" d="M1194.85,100.68c-13.78-34.22-43.93-61.21-89.65-80.22-.11-.05-10.57-3.84-16.58-10.43h-.91c-3.87,4.3-14.48,9.29-14.57,9.34-48.05,20.68-79.08,49.9-92.2,86.88-10.98,30.89-7.05,61.25-1.51,81.88-5.7-20.44-9.9-50.66.8-81.67,12.93-37.48,44.23-67.37,93.05-88.83.44-.22,10.64-5.37,14.91-9.75,6.57,7.12,18.26,11.39,18.35,11.41,46.73,20.56,76.99,48.66,89.96,83.55,7.65,20.6,7.92,40.37,5.88,55.92,1.74-16.19,1.02-36.86-7.53-58.08M1201.52,158.07c1.34-16.67.06-37.86-9.26-59.29-14.46-33.25-44.31-58.92-88.74-76.3-.09-.04-9.28-3.37-14.94-9.46h-.87c-3.69,4.29-14.19,8.87-14.29,8.92-47.07,19.8-77.64,48.18-90.87,84.38-11.22,30.69-7.52,61.1-2.17,81.78-5.53-20.49-9.5-50.76,1.44-81.56,13.04-36.71,43.89-65.76,91.71-86.34.44-.2,10.51-4.95,14.65-9.31,6.2,6.61,16.61,10.39,16.7,10.42,45.45,18.9,75.44,45.71,89.12,79.69,8.38,20.81,9.19,41.08,7.53,57.06M1200.77,155.68c.38-8.87-.02-18.89-1.91-29.42-3.7-20.59-12.32-39.08-25.63-54.94-16.63-19.82-40.64-35.56-71.39-46.82-.08-.03-8.01-2.89-13.31-8.49l-.83.03c-3.51,4.27-13.91,8.44-14.02,8.49-46.09,18.92-76.2,46.48-89.54,81.89-11.51,30.61-7.98,61.2-2.75,81.93-5.39-20.55-9.21-50.99,2.02-81.71,13.15-35.94,43.54-64.15,90.36-83.84.43-.19,10.38-4.53,14.39-8.87,5.82,6.08,14.67,9.29,15.04,9.42,44.17,17.29,73.85,42.78,88.21,75.8,8.83,20.29,10.39,40.37,9.37,56.54M1087.86,16.65l.03-.03.02.07s-.03-.03-.05-.05M1199.83,156.08c.22-9.14-.36-19.52-2.52-30.38-4.09-20.6-12.94-38.92-26.31-54.44-16.7-19.39-40.54-34.44-70.84-44.74-.06-.03-6.73-2.44-11.67-7.52l-.8.04c-3.33,4.25-13.63,8.01-13.74,8.06-45.11,18.06-74.77,44.76-88.18,79.4-11.88,30.68-8.4,61.61-3.28,82.42-5.29-20.61-9.06-51.4,2.53-82.19,13.24-35.17,43.18-62.53,89.01-81.35.43-.18,10.26-4.12,14.12-8.45,5.44,5.56,13.06,8.32,13.39,8.44,69.22,25.33,90.64,68.9,96.42,101,1.92,10.64,2.29,20.77,1.88,29.7M1198.91,155.51c0-9.18-.82-19.56-3.16-30.37-4.47-20.6-13.55-38.75-26.99-53.93-16.78-18.96-40.43-33.32-70.28-42.66-.06-.03-5.47-1.96-10.05-6.56l-.74.06c-3.16,4.24-13.35,7.6-13.48,7.63-44.11,17.19-73.32,43.07-86.81,76.92-12.23,30.66-8.87,61.87-3.85,82.74-5.18-20.67-8.83-51.72,3.09-82.5,13.31-34.38,42.81-60.91,87.64-78.86.43-.15,10.13-3.69,13.86-8,5.05,5.03,11.45,7.34,11.73,7.44,68.23,23.19,90.15,66.33,96.53,98.45,2.1,10.59,2.71,20.7,2.52,29.66M1194.19,124.58c-4.85-20.61-14.16-38.59-27.64-53.42-16.86-18.55-40.33-32.21-69.75-40.59-.04-.02-4.19-1.49-8.41-5.6l-.7.07c-2.97,4.22-13.06,7.17-13.2,7.21-43.13,16.34-71.88,41.38-85.44,74.43-12.45,30.32-9.4,61.48-4.6,82.41-4.97-20.72-8.31-51.72,3.83-82.16,13.4-33.59,42.43-59.3,86.27-76.38.43-.14,10-3.28,13.59-7.57,4.66,4.51,9.84,6.36,10.07,6.44,67.24,21.05,89.67,63.76,96.65,95.89,2.28,10.51,3.11,20.59,3.15,29.57-.23-9.21-1.27-19.56-3.8-30.29M1197.37,102.54c-13.05-35.14-43.49-63.43-90.49-84.11-.08-.03-5.18-1.88-10.48-5.16h0c-1.51-1.46-2.67-2.83-2.67-2.83V3.7l-2.82-.98-.35-2h-4.94l-.36,2-2.83.98v6.74c-.3.55-.85,1.17-1.51,1.78t0,0c-4.01,2.53-7.99,4.54-8.03,4.57-49.03,21.56-80.5,51.63-93.53,89.37-18,52.16,5.9,102.14,8.67,107.62h5.21c-1.05-2.33-24.27-55.74-3.33-106.76,13.46-32.8,42.03-57.67,84.88-73.9.42-.12,9.88-2.88,13.34-7.13,4.24,3.97,8.22,5.37,8.4,5.45,66.25,18.9,89.18,61.18,96.76,93.32,7.85,33.3,1.3,62.9.64,65.75l-.06.24.86.32.23-.55c.02-.06.05-.11.07-.17,2.45-5.58,18.3-44.92,2.35-87.82"/>
    <path class="cls-1" d="M1258.5,211.32V41.86c0-1.64-1.58-2.96-3.53-2.96s-3.53,1.32-3.53,2.96v172.41h7.05v-2.96Z"/>
    <path class="cls-2" d="M1244.26,211.32V17.93c0-1.64-1.58-2.96-3.53-2.96s-3.53,1.32-3.53,2.96v196.35h7.11l-.06-2.96Z"/>
    <path class="cls-1" d="M1229.71,211.32V1.18c0-1.64-1.58-2.96-3.53-2.96s-3.53,1.32-3.53,2.96v213.1h7.05v-2.96Z"/>
  </g>
  <g>
    <path class="cls-2" d="M.63,90.75c0-1.08.18-2.17.54-3.29.36-1.12.89-2.12,1.57-3,.69-.89,1.51-1.61,2.48-2.18.97-.56,2.07-.85,3.31-.85,1.13,0,2.17.22,3.13.65.96.43,1.78,1.04,2.48,1.83.7.79,1.25,1.77,1.65,2.92s.61,2.46.61,3.91c0,.94-.15,1.86-.44,2.74-.3.89-.77,1.67-1.41,2.36s-1.47,1.24-2.48,1.67c-1.01.43-2.23.65-3.65.65-1.16,0-2.21-.15-3.17-.44-.96-.3-1.78-.75-2.46-1.35s-1.22-1.38-1.59-2.32-.56-2.04-.56-3.31ZM2.57,74.98c0-.78.28-1.45.85-2.02.56-.57,1.24-.85,2.02-.85s1.45.28,2.02.85c.56.56.85,1.24.85,2.02s-.28,1.45-.85,2.02c-.56.57-1.24.85-2.02.85s-1.45-.28-2.02-.85c-.56-.56-.85-1.24-.85-2.02ZM8.54,86.19c-.54,0-.99.13-1.35.38-.36.25-.66.58-.89.98-.23.4-.4.86-.5,1.36s-.16,1-.16,1.48c0,.94.22,1.69.67,2.27.44.58,1.22.86,2.32.86.91,0,1.61-.26,2.1-.78.48-.52.73-1.25.73-2.19,0-1.2-.25-2.23-.75-3.09-.5-.86-1.22-1.28-2.16-1.28ZM9.15,74.98c0-.78.28-1.45.85-2.02.56-.57,1.24-.85,2.02-.85s1.45.28,2.02.85.85,1.24.85,2.02-.28,1.45-.85,2.02-1.24.85-2.02.85-1.45-.28-2.02-.85c-.56-.56-.85-1.24-.85-2.02Z"/>
    <path class="cls-2" d="M30.36,95.59c0,.91-.13,1.55-.38,1.9s-.65.52-1.19.52h-1.69c-.92,0-1.75-.1-2.52-.3-.77-.2-1.43-.54-1.98-1.01-.55-.47-.98-1.1-1.29-1.88-.31-.78-.46-1.75-.46-2.9v-22.71h5.24v21.98c0,.94.17,1.54.5,1.79.34.26.81.38,1.43.38h.77c.21,0,.42.02.6.06.19.04.36.13.5.28.15.15.26.37.34.67.08.3.12.7.12,1.21Z"/>
    <path class="cls-2" d="M28.75,98.01c-.21,0-.42-.02-.61-.06-.19-.04-.36-.13-.5-.28s-.26-.37-.34-.67c-.08-.29-.12-.7-.12-1.21,0-.91.13-1.55.38-1.9.26-.35.65-.52,1.19-.52h5.97c.21,0,.42.02.61.06.19.04.36.13.5.28.15.15.26.37.34.67.08.3.12.7.12,1.21,0,.91-.13,1.55-.38,1.9-.26.35-.65.52-1.19.52h-5.97Z"/>
    <path class="cls-2" d="M34.72,98.01c-.21,0-.42-.02-.61-.06-.19-.04-.36-.13-.5-.28s-.26-.37-.34-.67c-.08-.29-.12-.7-.12-1.21,0-.91.13-1.55.38-1.9.26-.35.65-.52,1.19-.52h5.97c.21,0,.42.02.61.06.19.04.36.13.5.28.15.15.26.37.34.67.08.3.12.7.12,1.21,0,.91-.13,1.55-.38,1.9-.26.35-.65.52-1.19.52h-5.97Z"/>
    <path class="cls-2" d="M50.09,93.37c.57,0,1.1-.11,1.61-.34.51-.23.77-.69.77-1.39,0-.48-.3-1.14-.91-1.96-.6-.82-1.41-1.69-2.4-2.6s-2.12-1.82-3.39-2.72c-1.26-.9-2.54-1.69-3.83-2.36.19-.89.41-1.62.67-2.2.25-.58.52-1.04.79-1.39.27-.35.53-.61.79-.79.25-.17.46-.3.62-.38l14.08-6.21v5.41l-9.52,3.95v.12c1.61,1.05,2.94,2.08,3.99,3.11,1.05,1.02,1.89,2.02,2.52,2.98.63.97,1.07,1.89,1.31,2.76.24.87.36,1.69.36,2.44,0,.65-.09,1.33-.26,2.06-.18.73-.52,1.4-1.03,2.02-.51.62-1.23,1.13-2.16,1.53s-2.14.61-3.65.61h-9.76c-.21,0-.42-.02-.61-.06-.19-.04-.36-.13-.5-.28s-.26-.37-.34-.67c-.08-.29-.12-.7-.12-1.21,0-.91.13-1.55.38-1.9.26-.35.65-.52,1.19-.52h9.4Z"/>
    <path class="cls-2" d="M73.57,98.01c-.35,0-.83-.08-1.45-.24-.62-.16-1.16-.51-1.61-1.05-.03,1.83-.24,3.35-.65,4.58-.41,1.22-1.02,2.21-1.83,2.97-.81.75-1.84,1.29-3.08,1.61-1.24.32-2.72.5-4.44.52v-4.92c1.1-.03,1.98-.15,2.62-.36.65-.22,1.13-.56,1.45-1.03s.53-1.06.62-1.77c.09-.71.14-1.57.14-2.56v-12.02h5.24v6.86c0,.54.09.98.26,1.33s.4.63.69.85c.28.22.61.37.97.46.36.09.72.14,1.07.14.21,0,.42.02.61.06.19.04.36.13.5.28.15.15.26.37.34.67.08.3.12.7.12,1.21,0,.91-.13,1.55-.38,1.9-.26.35-.65.52-1.19.52ZM65.06,74.98c0-.78.28-1.45.85-2.02.56-.57,1.24-.85,2.02-.85s1.45.28,2.02.85c.56.56.85,1.24.85,2.02s-.28,1.45-.85,2.02c-.56.57-1.24.85-2.02.85s-1.45-.28-2.02-.85c-.56-.56-.85-1.24-.85-2.02Z"/>
    <path class="cls-2" d="M73.53,98.01c-.21,0-.42-.02-.61-.06-.19-.04-.36-.13-.5-.28s-.26-.37-.34-.67c-.08-.29-.12-.7-.12-1.21,0-.91.13-1.55.38-1.9.26-.35.65-.52,1.19-.52h5.97c.21,0,.42.02.61.06.19.04.36.13.5.28.15.15.26.37.34.67.08.3.12.7.12,1.21,0,.91-.13,1.55-.38,1.9-.26.35-.65.52-1.19.52h-5.97Z"/>
    <path class="cls-2" d="M79.5,98.01c-.21,0-.42-.02-.61-.06-.19-.04-.36-.13-.5-.28s-.26-.37-.34-.67c-.08-.29-.12-.7-.12-1.21,0-.91.13-1.55.38-1.9.26-.35.65-.52,1.19-.52h5.97c.21,0,.42.02.61.06.19.04.36.13.5.28.15.15.26.37.34.67.08.3.12.7.12,1.21,0,.91-.13,1.55-.38,1.9-.26.35-.65.52-1.19.52h-5.97Z"/>
    <path class="cls-2" d="M90.11,93.37v-24.16h5.24v28.8h-9.88c-.21,0-.42-.02-.61-.06-.19-.04-.36-.13-.5-.28s-.26-.37-.34-.67c-.08-.29-.12-.7-.12-1.21,0-.91.13-1.55.38-1.9.26-.35.65-.52,1.19-.52h4.64Z"/>
    <path class="cls-2" d="M105.47,69.21v28.8h-5.24v-28.8h5.24Z"/>
    <path class="cls-2" d="M124.96,95.59c0,1.88-.24,3.5-.73,4.86-.48,1.36-1.24,2.48-2.28,3.37-1.04.89-2.37,1.54-3.99,1.96-1.63.42-3.58.62-5.87.62h-1.25v-4.92h.93c1.45,0,2.67-.09,3.65-.28.98-.19,1.76-.45,2.34-.79.58-.34,1-.74,1.27-1.21.27-.47.43-.99.48-1.55-.81.24-1.79.36-2.95.36-1.08,0-2.08-.13-3.03-.4-.94-.27-1.75-.71-2.44-1.31-.69-.6-1.23-1.38-1.63-2.34s-.6-2.1-.6-3.45c0-1.08.18-2.14.54-3.19.36-1.05.89-1.99,1.57-2.82.69-.83,1.54-1.5,2.56-2,1.02-.5,2.21-.75,3.55-.75,1.48,0,2.72.26,3.73.77,1.01.51,1.82,1.23,2.42,2.16.61.93,1.04,2.03,1.31,3.31.27,1.28.4,2.68.4,4.22v3.39ZM114.03,90.02c0,1.37.27,2.29.81,2.76s1.28.71,2.22.71c1.1,0,1.99-.19,2.66-.57v-1.98c0-1.37-.2-2.46-.6-3.27-.4-.81-1.13-1.21-2.18-1.21s-1.79.35-2.24,1.05c-.44.7-.67,1.53-.67,2.5Z"/>
    <path class="cls-2" d="M146.74,98.01c-1.59,0-2.92-.11-3.99-.34-1.08-.23-1.94-.6-2.58-1.11-.64-.51-1.1-1.17-1.37-1.98-.27-.81-.4-1.79-.4-2.94v-6.66h5.24v5.93c0,.54.07.96.2,1.27.13.31.38.56.73.75.35.19.82.31,1.41.36.59.05,1.34.08,2.26.08h12.75c-.22-.43-.37-.97-.46-1.63-.09-.66-.14-1.27-.14-1.84,0-1.05.18-2.08.54-3.11.36-1.02.89-1.93,1.59-2.72s1.55-1.43,2.56-1.92c1.01-.48,2.17-.73,3.49-.73,1.53,0,2.8.28,3.79.83,1,.55,1.78,1.25,2.36,2.1.58.85.98,1.79,1.21,2.82.23,1.04.34,2.04.34,3.01v7.83h-29.53ZM165.42,74.98c0-.78.28-1.45.85-2.02.56-.57,1.24-.85,2.02-.85s1.45.28,2.02.85.85,1.24.85,2.02-.28,1.45-.85,2.02-1.24.85-2.02.85-1.45-.28-2.02-.85c-.56-.56-.85-1.24-.85-2.02ZM165.5,89.66c0,1.4.32,2.37.95,2.9.63.54,1.4.81,2.32.81h2.26v-3.07c0-.54-.03-1.05-.1-1.55-.07-.5-.2-.93-.4-1.31-.2-.38-.48-.68-.83-.91-.35-.23-.79-.34-1.33-.34s-1,.1-1.37.3-.67.46-.89.79c-.22.32-.37.69-.46,1.11-.09.42-.14.84-.14,1.27Z"/>
    <path class="cls-2" d="M190.43,95.59c0,.91-.13,1.55-.38,1.9s-.65.52-1.19.52h-1.69c-.92,0-1.75-.1-2.52-.3-.77-.2-1.43-.54-1.98-1.01-.55-.47-.98-1.1-1.29-1.88-.31-.78-.46-1.75-.46-2.9v-22.71h5.24v21.98c0,.94.17,1.54.5,1.79.34.26.81.38,1.43.38h.77c.21,0,.42.02.6.06.19.04.36.13.5.28.15.15.26.37.34.67.08.3.12.7.12,1.21Z"/>
    <path class="cls-2" d="M188.81,98.01c-.21,0-.42-.02-.61-.06-.19-.04-.36-.13-.5-.28s-.26-.37-.34-.67c-.08-.29-.12-.7-.12-1.21,0-.91.13-1.55.38-1.9.26-.35.65-.52,1.19-.52h5.97c.21,0,.42.02.61.06.19.04.36.13.5.28.15.15.26.37.34.67.08.3.12.7.12,1.21,0,.91-.13,1.55-.38,1.9-.26.35-.65.52-1.19.52h-5.97Z"/>
    <path class="cls-2" d="M198.78,93.37c-.22-.43-.37-.97-.47-1.63-.09-.66-.14-1.27-.14-1.84,0-1.05.18-2.08.55-3.11.36-1.02.89-1.93,1.58-2.72.69-.79,1.54-1.43,2.57-1.92,1.02-.48,2.2-.73,3.52-.73,1.54,0,2.8.28,3.8.83,1,.55,1.78,1.25,2.34,2.1.57.85.96,1.79,1.19,2.82.23,1.04.34,2.04.34,3.01v7.83h-18.8c-.22,0-.42-.02-.61-.06s-.36-.13-.5-.28c-.15-.15-.26-.37-.34-.67-.08-.29-.12-.7-.12-1.21,0-.91.13-1.55.38-1.9.26-.35.65-.52,1.19-.52h3.51ZM199.58,74.98c0-.78.28-1.45.85-2.02.56-.57,1.24-.85,2.02-.85s1.45.28,2.02.85.85,1.24.85,2.02-.28,1.45-.85,2.02-1.24.85-2.02.85-1.45-.28-2.02-.85c-.56-.56-.85-1.24-.85-2.02ZM203.25,89.66c0,1.4.32,2.37.97,2.9s1.42.81,2.34.81h2.26v-3.07c0-.54-.03-1.05-.1-1.55-.07-.5-.2-.93-.4-1.31-.2-.38-.48-.68-.83-.91-.35-.23-.79-.34-1.33-.34-.56,0-1.03.1-1.39.3-.36.2-.66.46-.89.79-.23.32-.39.69-.48,1.11-.09.42-.14.84-.14,1.27ZM206.16,74.98c0-.78.28-1.45.85-2.02.56-.57,1.24-.85,2.02-.85s1.45.28,2.02.85.85,1.24.85,2.02-.28,1.45-.85,2.02-1.24.85-2.02.85-1.45-.28-2.02-.85c-.56-.56-.85-1.24-.85-2.02Z"/>
    <path class="cls-2" d="M233.51,95.59c0,1.88-.24,3.5-.73,4.86-.48,1.36-1.24,2.48-2.28,3.37-1.04.89-2.37,1.54-3.99,1.96-1.63.42-3.58.62-5.87.62h-1.25v-4.92h.93c1.45,0,2.67-.09,3.65-.28.98-.19,1.76-.45,2.34-.79.58-.34,1-.74,1.27-1.21.27-.47.43-.99.48-1.55-.81.24-1.79.36-2.95.36-1.08,0-2.08-.13-3.03-.4-.94-.27-1.75-.71-2.44-1.31-.69-.6-1.23-1.38-1.63-2.34s-.6-2.1-.6-3.45c0-1.08.18-2.14.54-3.19.36-1.05.89-1.99,1.57-2.82.69-.83,1.54-1.5,2.56-2,1.02-.5,2.21-.75,3.55-.75,1.48,0,2.72.26,3.73.77,1.01.51,1.82,1.23,2.42,2.16.61.93,1.04,2.03,1.31,3.31.27,1.28.4,2.68.4,4.22v3.39ZM222.58,90.02c0,1.37.27,2.29.81,2.76s1.28.71,2.22.71c1.1,0,1.99-.19,2.66-.57v-1.98c0-1.37-.2-2.46-.6-3.27-.4-.81-1.13-1.21-2.18-1.21s-1.79.35-2.24,1.05c-.44.7-.67,1.53-.67,2.5Z"/>
    <path class="cls-2" d="M260.37,69.21v28.8h-23.44v-4.64h7.75v-18.27h5.24v18.27h5.2v-24.16h5.24ZM251.02,72.8h-7.87v-2.82h1.65c-.13-.19-.23-.46-.28-.81-.05-.35-.08-.63-.08-.85,0-.62.1-1.16.3-1.63.2-.47.48-.86.83-1.17.35-.31.75-.54,1.19-.71.44-.16.89-.24,1.35-.24.43,0,.82.04,1.17.12.35.08.66.17.93.28v2.66c-.7-.16-1.2-.24-1.49-.24-.51,0-.88.12-1.11.36-.23.24-.34.54-.34.89,0,.38.11.69.34.95.23.26.66.38,1.3.38h2.12v2.82Z"/>
    <path class="cls-2" d="M270.5,69.21v28.8h-5.24v-28.8h5.24Z"/>
    <path class="cls-2" d="M289.98,95.59c0,1.88-.24,3.5-.73,4.86-.48,1.36-1.24,2.48-2.28,3.37-1.04.89-2.37,1.54-3.99,1.96-1.63.42-3.58.62-5.87.62h-1.25v-4.92h.93c1.45,0,2.67-.09,3.65-.28.98-.19,1.76-.45,2.34-.79.58-.34,1-.74,1.27-1.21.27-.47.43-.99.48-1.55-.81.24-1.79.36-2.95.36-1.08,0-2.08-.13-3.03-.4-.94-.27-1.75-.71-2.44-1.31-.69-.6-1.23-1.38-1.63-2.34s-.6-2.1-.6-3.45c0-1.08.18-2.14.54-3.19.36-1.05.89-1.99,1.57-2.82.69-.83,1.54-1.5,2.56-2,1.02-.5,2.21-.75,3.55-.75,1.48,0,2.72.26,3.73.77,1.01.51,1.82,1.23,2.42,2.16.61.93,1.04,2.03,1.31,3.31.27,1.28.4,2.68.4,4.22v3.39ZM279.05,90.02c0,1.37.27,2.29.81,2.76s1.28.71,2.22.71c1.1,0,1.99-.19,2.66-.57v-1.98c0-1.37-.2-2.46-.6-3.27-.4-.81-1.13-1.21-2.18-1.21s-1.79.35-2.24,1.05c-.44.7-.67,1.53-.67,2.5Z"/>
    <path class="cls-2" d="M319.79,98.01c-.64,0-1.27-.05-1.88-.14-.61-.09-1.16-.26-1.67-.5s-.96-.57-1.35-.99c-.39-.42-.69-.96-.91-1.63-.46.11-.93.2-1.41.26-.48.07-.97.1-1.45.1-.67,0-1.45-.1-2.34-.3-.89-.2-1.73-.57-2.52-1.11-.79-.54-1.47-1.28-2.02-2.24-.55-.95-.83-2.18-.83-3.69s.26-2.73.79-3.75c.52-1.02,1.2-1.86,2.02-2.5.82-.65,1.73-1.11,2.74-1.39,1.01-.28,2-.42,2.96-.42h6.86v12.06c0,.62.08,1.04.24,1.27.16.23.54.34,1.13.34h.97c.21,0,.42.02.6.06.19.04.36.13.5.28.15.15.26.37.34.67.08.3.12.7.12,1.21,0,.91-.13,1.55-.38,1.9s-.65.52-1.19.52h-1.33ZM306.12,72.96c0-.78.28-1.45.85-2.02.56-.56,1.24-.85,2.02-.85s1.45.28,2.02.85c.56.57.85,1.24.85,2.02s-.28,1.45-.85,2.02c-.57.56-1.24.85-2.02.85s-1.45-.28-2.02-.85-.85-1.24-.85-2.02ZM308.54,87.5c0,.32.04.66.12,1.02.08.36.23.68.44.96.21.28.5.51.87.7.36.19.83.28,1.39.28.35,0,.71-.01,1.07-.04s.73-.11,1.11-.24v-5.53h-2.02c-1,0-1.74.26-2.24.78-.5.52-.75,1.21-.75,2.06ZM312.69,72.96c0-.78.28-1.45.85-2.02.56-.56,1.24-.85,2.02-.85s1.45.28,2.02.85c.56.57.85,1.24.85,2.02s-.28,1.45-.85,2.02c-.57.56-1.24.85-2.02.85s-1.45-.28-2.02-.85-.85-1.24-.85-2.02Z"/>
    <path class="cls-2" d="M321.12,98.01c-.21,0-.42-.02-.61-.06-.19-.04-.36-.13-.5-.28s-.26-.37-.34-.67c-.08-.29-.12-.7-.12-1.21,0-.91.13-1.55.38-1.9.26-.35.65-.52,1.19-.52h5.97c.21,0,.42.02.61.06.19.04.36.13.5.28.15.15.26.37.34.67.08.3.12.7.12,1.21,0,.91-.13,1.55-.38,1.9-.26.35-.65.52-1.19.52h-5.97Z"/>
    <path class="cls-2" d="M327.09,98.01c-.21,0-.42-.02-.61-.06-.19-.04-.36-.13-.5-.28s-.26-.37-.34-.67c-.08-.29-.12-.7-.12-1.21,0-.91.13-1.55.38-1.9.26-.35.65-.52,1.19-.52h5.97c.21,0,.42.02.61.06.19.04.36.13.5.28.15.15.26.37.34.67.08.3.12.7.12,1.21,0,.91-.13,1.55-.38,1.9-.26.35-.65.52-1.19.52h-5.97Z"/>
    <path class="cls-2" d="M343.23,76.31c-.38,0-.77-.07-1.19-.22-.42-.15-.79-.45-1.11-.91-.35.51-.76.83-1.23.95s-.85.18-1.15.18c-1.94,0-2.9-1.12-2.9-3.35v-2.78h2.02v2.54c0,1.08.35,1.61,1.05,1.61.3,0,.56-.09.81-.28.24-.19.36-.62.36-1.29v-1.86h2.02v1.82c0,.65.13,1.06.38,1.25.26.19.5.28.75.28.43,0,.71-.12.83-.36s.18-.59.18-1.05v-2.66h2.02v2.78c0,2.23-.94,3.35-2.82,3.35Z"/>
    <path class="cls-2" d="M347.51,98.01c-.38,0-.78-.03-1.21-.08-.43-.05-.85-.15-1.25-.3s-.79-.36-1.15-.63c-.36-.27-.67-.62-.91-1.05-.32.46-.71.83-1.17,1.11-.46.28-.94.49-1.45.63s-1.04.22-1.59.26c-.55.04-1.1.06-1.63.06h-4.07c-.21,0-.42-.02-.61-.06-.19-.04-.36-.13-.5-.28s-.26-.37-.34-.67c-.08-.29-.12-.7-.12-1.21,0-.91.13-1.55.38-1.9.26-.35.65-.52,1.19-.52h3.23c.91,0,1.55-.14,1.92-.42.36-.28.54-.92.54-1.92v-9.08h5.24v8.63c0,1,.26,1.71.79,2.14.52.43,1.43.65,2.72.65.21,0,.42.02.6.06.19.04.36.13.5.28.15.15.26.37.34.67.08.3.12.7.12,1.21,0,.91-.13,1.55-.38,1.9s-.65.52-1.19.52ZM334.11,104.79c0-.78.28-1.45.85-2.02.57-.56,1.24-.85,2.02-.85s1.45.28,2.02.85.85,1.24.85,2.02-.28,1.45-.85,2.02-1.24.85-2.02.85-1.45-.28-2.02-.85c-.56-.56-.85-1.24-.85-2.02ZM340.69,104.79c0-.78.28-1.45.85-2.02.57-.56,1.24-.85,2.02-.85s1.45.28,2.02.85.85,1.24.85,2.02-.28,1.45-.85,2.02-1.24.85-2.02.85-1.45-.28-2.02-.85c-.56-.56-.85-1.24-.85-2.02Z"/>
    <path class="cls-2" d="M347.51,98.01c-.21,0-.42-.02-.61-.06-.19-.04-.36-.13-.5-.28s-.26-.37-.34-.67c-.08-.29-.12-.7-.12-1.21,0-.91.13-1.55.38-1.9.26-.35.65-.52,1.19-.52h5.97c.21,0,.42.02.61.06.19.04.36.13.5.28.15.15.26.37.34.67.08.3.12.7.12,1.21,0,.91-.13,1.55-.38,1.9-.26.35-.65.52-1.19.52h-5.97Z"/>
    <path class="cls-2" d="M355.25,93.37c.73,0,1.28-.27,1.65-.81.38-.54.75-1.32,1.13-2.34.56-1.64,1.19-2.99,1.88-4.03.69-1.05,1.41-1.86,2.16-2.42.75-.57,1.51-.94,2.28-1.13.77-.19,1.51-.28,2.24-.28,1.13,0,2.15.2,3.07.61.91.4,1.69.97,2.34,1.69.65.73,1.14,1.6,1.49,2.62.35,1.02.52,2.14.52,3.35,0,1.13-.15,2.17-.44,3.13-.3.96-.74,1.79-1.33,2.5-.59.71-1.34,1.26-2.24,1.65-.9.39-1.96.58-3.17.58-1.08,0-2.16-.16-3.25-.48-1.09-.32-2.24-.87-3.45-1.65-.7.78-1.41,1.25-2.14,1.41-.73.16-1.52.24-2.38.24h-2.14c-.21,0-.42-.02-.61-.06-.19-.04-.36-.13-.5-.28s-.26-.37-.34-.67c-.08-.29-.12-.7-.12-1.21,0-.91.13-1.55.38-1.9.26-.35.65-.52,1.19-.52h1.77ZM368.88,90.51c0-.4-.05-.81-.14-1.21-.09-.4-.24-.76-.44-1.07-.2-.31-.47-.56-.81-.77-.34-.2-.75-.3-1.23-.3-.83,0-1.62.42-2.36,1.25-.74.83-1.35,2.1-1.84,3.79.67.4,1.35.75,2.04,1.03s1.38.42,2.08.42c.86,0,1.53-.29,2-.87s.71-1.34.71-2.28Z"/>
    <path class="cls-2" d="M403.21,98.01c-.78,0-1.55-.13-2.3-.38s-1.37-.81-1.86-1.67c-.32.46-.71.83-1.15,1.11-.44.28-.92.49-1.43.63s-1.04.22-1.59.26c-.55.04-1.11.06-1.67.06h-15.97v-4.64h7.26v-18.27h5.24v18.27h2.62c.91,0,1.55-.14,1.92-.42s.54-.92.54-1.92v-21.82h5.24v21.38c0,1,.2,1.71.6,2.14.4.43,1.25.65,2.54.65.21,0,.42.02.6.06.19.04.36.13.5.28.15.15.26.37.34.67.08.3.12.7.12,1.21,0,.91-.13,1.55-.38,1.9s-.65.52-1.19.52Z"/>
    <path class="cls-2" d="M403.21,98.01c-.21,0-.42-.02-.61-.06-.19-.04-.36-.13-.5-.28s-.26-.37-.34-.67c-.08-.29-.12-.7-.12-1.21,0-.91.13-1.55.38-1.9.26-.35.65-.52,1.19-.52h5.97c.21,0,.42.02.61.06.19.04.36.13.5.28.15.15.26.37.34.67.08.3.12.7.12,1.21,0,.91-.13,1.55-.38,1.9-.26.35-.65.52-1.19.52h-5.97Z"/>
    <path class="cls-2" d="M410.84,93.37c.59,0,1.08-.01,1.47-.04.39-.03.71-.11.95-.24s.42-.33.52-.58.16-.61.16-1.07v-7.71h5.16v6.86c0,.86.24,1.54.71,2.04.47.5,1.2.75,2.2.75.78,0,1.45-.12,2-.36.55-.24.83-.77.83-1.57v-7.71h5.24v6.86c0,1.86.79,2.78,2.38,2.78h2.5v-11.42h5.24v16.05h-6.17c-1.43,0-2.5-.17-3.23-.5-.73-.34-1.34-.87-1.86-1.59-.4.51-.83.91-1.29,1.19-.46.28-.93.49-1.41.62-.48.13-.96.22-1.43.24s-.92.04-1.35.04c-1.37,0-2.52-.22-3.45-.67-.93-.44-1.59-.92-2-1.43-.73.94-1.67,1.53-2.82,1.75-1.16.23-2.64.34-4.44.34h-1.57c-.21,0-.42-.02-.61-.06-.19-.04-.36-.13-.5-.28s-.26-.37-.34-.67c-.08-.29-.12-.7-.12-1.21,0-.91.13-1.55.38-1.9.26-.35.65-.52,1.19-.52h1.65Z"/>
    <path class="cls-2" d="M467.27,69.21v28.8h-23.44v-4.64h7.75v-18.27h5.24v18.27h5.2v-24.16h5.24ZM457.99,108.5h-7.87v-2.82h1.65c-.14-.19-.23-.45-.28-.79-.05-.34-.08-.61-.08-.83,0-.62.1-1.16.3-1.63.2-.47.48-.87.83-1.19.35-.32.75-.57,1.19-.73s.89-.24,1.35-.24c.43,0,.82.04,1.17.12.35.08.66.17.93.28v2.7c-.7-.16-1.2-.24-1.49-.24-.51,0-.88.12-1.11.36s-.34.54-.34.89.11.65.34.91c.23.25.66.38,1.3.38h2.12v2.82Z"/>
    <path class="cls-2" d="M477.4,69.21v28.8h-5.24v-28.8h5.24Z"/>
    <path class="cls-2" d="M513.09,92.57c0,2.12-.26,3.89-.77,5.3-.51,1.41-1.24,2.55-2.2,3.41-.96.86-2.12,1.47-3.51,1.83-1.38.36-2.94.54-4.66.54-3.63,0-6.37-.88-8.21-2.64-1.84-1.76-2.76-4.36-2.76-7.8v-6.33h5.24v6.13c0,1.88.46,3.32,1.39,4.32.92.99,2.43,1.49,4.52,1.49,1.96,0,3.41-.42,4.36-1.27.95-.85,1.43-2.27,1.43-4.26v-10.85h5.2l-.04,10.12ZM499.34,80.22c0-.78.28-1.45.85-2.02.56-.56,1.24-.85,2.02-.85s1.45.28,2.02.85c.56.57.85,1.24.85,2.02s-.28,1.45-.85,2.02c-.57.56-1.24.85-2.02.85s-1.45-.28-2.02-.85-.85-1.24-.85-2.02Z"/>
    <path class="cls-2" d="M532.66,95.59c0,1.88-.24,3.5-.73,4.86-.48,1.36-1.24,2.48-2.28,3.37-1.04.89-2.37,1.54-3.99,1.96-1.63.42-3.58.62-5.87.62h-1.25v-4.92h.93c1.45,0,2.67-.09,3.65-.28.98-.19,1.76-.45,2.34-.79.58-.34,1-.74,1.27-1.21.27-.47.43-.99.48-1.55-.81.24-1.79.36-2.95.36-1.08,0-2.08-.13-3.03-.4-.94-.27-1.75-.71-2.44-1.31-.69-.6-1.23-1.38-1.63-2.34s-.6-2.1-.6-3.45c0-1.08.18-2.14.54-3.19.36-1.05.89-1.99,1.57-2.82.69-.83,1.54-1.5,2.56-2,1.02-.5,2.21-.75,3.55-.75,1.48,0,2.72.26,3.73.77,1.01.51,1.82,1.23,2.42,2.16.61.93,1.04,2.03,1.31,3.31.27,1.28.4,2.68.4,4.22v3.39ZM521.73,90.02c0,1.37.27,2.29.81,2.76s1.28.71,2.22.71c1.1,0,1.99-.19,2.66-.57v-1.98c0-1.37-.2-2.46-.6-3.27-.4-.81-1.13-1.21-2.18-1.21s-1.79.35-2.24,1.05c-.44.7-.67,1.53-.67,2.5Z"/>
    <path class="cls-2" d="M551.86,98.01c-.37,2.93-1.58,5.06-3.61,6.39s-5.08,2-9.14,2h-1.25v-4.92h.93c1.4,0,2.57-.08,3.51-.24.94-.16,1.71-.4,2.32-.71.6-.31,1.05-.67,1.35-1.09s.48-.89.57-1.43h-2.5c-1.18,0-2.27-.13-3.27-.4-1-.27-1.86-.71-2.58-1.31-.73-.6-1.29-1.38-1.69-2.34s-.6-2.1-.6-3.45c0-1.08.18-2.14.54-3.19.36-1.05.89-1.99,1.59-2.82.7-.83,1.56-1.5,2.58-2,1.02-.5,2.19-.75,3.5-.75,1.48,0,2.72.26,3.72.77,1.01.51,1.82,1.23,2.43,2.16s1.06,2.03,1.33,3.31c.27,1.28.4,2.68.4,4.22v1.17h2.94c.21,0,.42.02.61.06.19.04.36.13.5.28.15.15.26.37.34.67.08.3.12.7.12,1.21,0,.91-.13,1.55-.38,1.9-.26.35-.65.52-1.19.52h-3.07ZM548.63,77.92h-9.2v-3.31h1.86c-.13-.21-.24-.52-.3-.91-.07-.39-.1-.72-.1-.99,0-.73.12-1.36.36-1.9.24-.54.57-.99.97-1.35.4-.36.86-.64,1.37-.83s1.05-.28,1.61-.28c.48,0,.93.05,1.35.16s.77.22,1.07.32v3.11c-.4-.11-.76-.18-1.07-.22-.31-.04-.53-.06-.67-.06-.62,0-1.06.14-1.31.42-.26.28-.38.62-.38,1.03s.13.75.38,1.05.77.44,1.55.44h2.5v3.31ZM541.05,90.02c0,1.29.28,2.17.83,2.64.55.47,1.28.71,2.2.71h2.66v-2.42c0-1.29-.2-2.36-.6-3.21-.4-.85-1.16-1.27-2.26-1.27-1,0-1.71.34-2.16,1.01-.44.67-.67,1.52-.67,2.54Z"/>
    <path class="cls-2" d="M554.97,98.01c-.21,0-.42-.02-.61-.06-.19-.04-.36-.13-.5-.28s-.26-.37-.34-.67c-.08-.29-.12-.7-.12-1.21,0-.91.13-1.55.38-1.9.26-.35.65-.52,1.19-.52h5.97c.21,0,.42.02.61.06.19.04.36.13.5.28.15.15.26.37.34.67.08.3.12.7.12,1.21,0,.91-.13,1.55-.38,1.9-.26.35-.65.52-1.19.52h-5.97Z"/>
    <path class="cls-2" d="M562.35,93.37c.59,0,1.08-.01,1.47-.04.39-.03.71-.11.95-.24s.42-.33.52-.58.16-.61.16-1.07v-7.71h5.24v6.86c0,.86.23,1.54.7,2.04.47.5,1.18.75,2.14.75.8,0,1.48-.12,2.02-.36.55-.24.82-.77.82-1.57v-7.71h5.24v6.86c0,.94.21,1.64.62,2.1.41.46,1.1.69,2.06.69.75,0,1.35-.13,1.8-.38.45-.25.68-.81.68-1.67v-9.36h5.24v8.63c0,1,.2,1.71.61,2.14.4.43,1.26.65,2.58.65.21,0,.42.02.6.06.19.04.36.13.5.28.15.15.26.37.34.67.08.3.12.7.12,1.21,0,.91-.13,1.55-.38,1.9s-.65.52-1.19.52c-.78,0-1.55-.14-2.3-.42-.75-.28-1.37-.85-1.86-1.71-.78.94-1.63,1.53-2.55,1.77s-1.87.36-2.87.36c-.75,0-1.62-.15-2.61-.46-.98-.31-1.82-.85-2.52-1.63-.83.92-1.68,1.49-2.53,1.73-.85.24-1.77.36-2.77.36-2.64,0-4.54-.7-5.7-2.1-.73.94-1.67,1.53-2.83,1.75-1.16.23-2.64.34-4.44.34h-1.33c-.21,0-.42-.02-.61-.06-.19-.04-.36-.13-.5-.28s-.26-.37-.34-.67c-.08-.29-.12-.7-.12-1.21,0-.91.13-1.55.38-1.9.26-.35.65-.52,1.19-.52h1.41ZM572.88,74.98c0-.78.28-1.45.85-2.02.56-.57,1.24-.85,2.02-.85s1.45.28,2.02.85c.56.56.85,1.24.85,2.02s-.28,1.45-.85,2.02c-.56.57-1.24.85-2.02.85s-1.45-.28-2.02-.85c-.56-.56-.85-1.24-.85-2.02ZM576.27,69.13c0-.78.28-1.45.85-2.02s1.24-.85,2.02-.85,1.45.28,2.02.85c.56.56.85,1.24.85,2.02s-.28,1.45-.85,2.02c-.57.56-1.24.85-2.02.85s-1.45-.28-2.02-.85-.85-1.24-.85-2.02ZM579.45,74.98c0-.78.28-1.45.85-2.02.56-.57,1.24-.85,2.02-.85s1.45.28,2.02.85c.56.56.85,1.24.85,2.02s-.28,1.45-.85,2.02c-.56.57-1.24.85-2.02.85s-1.45-.28-2.02-.85c-.56-.56-.85-1.24-.85-2.02Z"/>
    <path class="cls-2" d="M595.18,98.01c-.21,0-.42-.02-.61-.06-.19-.04-.36-.13-.5-.28s-.26-.37-.34-.67c-.08-.29-.12-.7-.12-1.21,0-.91.13-1.55.38-1.9.26-.35.65-.52,1.19-.52h5.97c.21,0,.42.02.61.06.19.04.36.13.5.28.15.15.26.37.34.67.08.3.12.7.12,1.21,0,.91-.13,1.55-.38,1.9-.26.35-.65.52-1.19.52h-5.97Z"/>
    <path class="cls-2" d="M603.62,93.37c.91,0,1.55-.14,1.92-.42s.54-.92.54-1.92v-21.82h5.24v21.38c0,.48.03.91.08,1.27.05.36.18.65.38.87.2.22.5.38.89.48s.91.16,1.55.16c.21,0,.42.02.61.06.19.04.36.13.5.28.15.15.26.37.34.67.08.3.12.7.12,1.21,0,.91-.13,1.55-.38,1.9-.26.35-.65.52-1.19.52-.78,0-1.51-.13-2.18-.38-.67-.26-1.25-.81-1.73-1.67-.32.46-.71.83-1.17,1.11-.46.28-.94.49-1.45.63-.51.13-1.04.22-1.59.26-.55.04-1.1.06-1.63.06h-3.31c-.21,0-.42-.02-.61-.06-.19-.04-.36-.13-.5-.28s-.26-.37-.34-.67c-.08-.29-.12-.7-.12-1.21,0-.91.13-1.55.38-1.9.26-.35.65-.52,1.19-.52h2.46Z"/>
    <path class="cls-2" d="M618.86,93.37v-24.16h5.24v28.8h-9.88c-.21,0-.42-.02-.61-.06-.19-.04-.36-.13-.5-.28s-.26-.37-.34-.67c-.08-.29-.12-.7-.12-1.21,0-.91.13-1.55.38-1.9.26-.35.65-.52,1.19-.52h4.64Z"/>
    <path class="cls-2" d="M654.16,98.01c-.64,0-1.27-.05-1.88-.14-.61-.09-1.16-.26-1.67-.5s-.96-.57-1.35-.99c-.39-.42-.69-.96-.91-1.63-.46.11-.93.2-1.41.26-.48.07-.97.1-1.45.1-.67,0-1.45-.1-2.34-.3-.89-.2-1.73-.57-2.52-1.11-.79-.54-1.47-1.28-2.02-2.24-.55-.95-.83-2.18-.83-3.69s.26-2.73.79-3.75c.52-1.02,1.2-1.86,2.02-2.5.82-.65,1.73-1.11,2.74-1.39,1.01-.28,2-.42,2.96-.42h6.86v12.06c0,.62.08,1.04.24,1.27.16.23.54.34,1.13.34h.97c.21,0,.42.02.6.06.19.04.36.13.5.28.15.15.26.37.34.67.08.3.12.7.12,1.21,0,.91-.13,1.55-.38,1.9s-.65.52-1.19.52h-1.33ZM640.48,72.96c0-.78.28-1.45.85-2.02.56-.56,1.24-.85,2.02-.85s1.45.28,2.02.85c.56.57.85,1.24.85,2.02s-.28,1.45-.85,2.02c-.57.56-1.24.85-2.02.85s-1.45-.28-2.02-.85-.85-1.24-.85-2.02ZM642.9,87.5c0,.32.04.66.12,1.02.08.36.23.68.44.96.21.28.5.51.87.7.36.19.83.28,1.39.28.35,0,.71-.01,1.07-.04s.73-.11,1.11-.24v-5.53h-2.02c-1,0-1.74.26-2.24.78-.5.52-.75,1.21-.75,2.06ZM647.06,72.96c0-.78.28-1.45.85-2.02.56-.56,1.24-.85,2.02-.85s1.45.28,2.02.85c.56.57.85,1.24.85,2.02s-.28,1.45-.85,2.02c-.57.56-1.24.85-2.02.85s-1.45-.28-2.02-.85-.85-1.24-.85-2.02Z"/>
    <path class="cls-2" d="M655.49,98.01c-.21,0-.42-.02-.61-.06-.19-.04-.36-.13-.5-.28s-.26-.37-.34-.67c-.08-.29-.12-.7-.12-1.21,0-.91.13-1.55.38-1.9.26-.35.65-.52,1.19-.52h5.97c.21,0,.42.02.61.06.19.04.36.13.5.28.15.15.26.37.34.67.08.3.12.7.12,1.21,0,.91-.13,1.55-.38,1.9-.26.35-.65.52-1.19.52h-5.97Z"/>
    <path class="cls-2" d="M663.23,93.37c.73,0,1.28-.27,1.65-.81.38-.54.75-1.32,1.13-2.34.56-1.64,1.19-2.99,1.88-4.03.69-1.05,1.41-1.86,2.16-2.42.75-.57,1.51-.94,2.28-1.13.77-.19,1.51-.28,2.24-.28,1.13,0,2.15.2,3.07.61.91.4,1.69.97,2.34,1.69.65.73,1.14,1.6,1.49,2.62.35,1.02.52,2.14.52,3.35,0,1.13-.15,2.17-.44,3.13-.3.96-.74,1.79-1.33,2.5-.59.71-1.34,1.26-2.24,1.65-.9.39-1.96.58-3.17.58-1.08,0-2.16-.16-3.25-.48-1.09-.32-2.24-.87-3.45-1.65-.7.78-1.41,1.25-2.14,1.41-.73.16-1.52.24-2.38.24h-2.14c-.21,0-.42-.02-.61-.06-.19-.04-.36-.13-.5-.28s-.26-.37-.34-.67c-.08-.29-.12-.7-.12-1.21,0-.91.13-1.55.38-1.9.26-.35.65-.52,1.19-.52h1.77ZM676.87,90.51c0-.4-.05-.81-.14-1.21-.09-.4-.24-.76-.44-1.07-.2-.31-.47-.56-.81-.77-.34-.2-.75-.3-1.23-.3-.83,0-1.62.42-2.36,1.25-.74.83-1.35,2.1-1.84,3.79.67.4,1.35.75,2.04,1.03s1.38.42,2.08.42c.86,0,1.53-.29,2-.87s.71-1.34.71-2.28Z"/>
    <path class="cls-2" d="M695.95,95.59c0,.91-.13,1.55-.38,1.9s-.65.52-1.19.52h-1.69c-.92,0-1.75-.1-2.52-.3-.77-.2-1.43-.54-1.98-1.01-.55-.47-.98-1.1-1.29-1.88-.31-.78-.46-1.75-.46-2.9v-22.71h5.24v21.98c0,.94.17,1.54.5,1.79.34.26.81.38,1.43.38h.77c.21,0,.42.02.6.06.19.04.36.13.5.28.15.15.26.37.34.67.08.3.12.7.12,1.21Z"/>
    <path class="cls-2" d="M694.34,98.01c-.21,0-.42-.02-.61-.06-.19-.04-.36-.13-.5-.28s-.26-.37-.34-.67c-.08-.29-.12-.7-.12-1.21,0-.91.13-1.55.38-1.9.26-.35.65-.52,1.19-.52h5.97c.21,0,.42.02.61.06.19.04.36.13.5.28.15.15.26.37.34.67.08.3.12.7.12,1.21,0,.91-.13,1.55-.38,1.9-.26.35-.65.52-1.19.52h-5.97Z"/>
    <path class="cls-2" d="M700.31,98.01c-.21,0-.42-.02-.61-.06-.19-.04-.36-.13-.5-.28s-.26-.37-.34-.67c-.08-.29-.12-.7-.12-1.21,0-.91.13-1.55.38-1.9.26-.35.65-.52,1.19-.52h5.97c.21,0,.42.02.61.06.19.04.36.13.5.28.15.15.26.37.34.67.08.3.12.7.12,1.21,0,.91-.13,1.55-.38,1.9-.26.35-.65.52-1.19.52h-5.97Z"/>
    <path class="cls-2" d="M709.06,93.37c.54,0,1.13-.01,1.78-.04.65-.03,1.24-.09,1.77-.2l-4.03-4.84c.08-.35.2-.72.34-1.11.15-.39.3-.77.46-1.13.16-.36.34-.69.52-.99.19-.3.36-.54.52-.73.86-.89,1.9-1.59,3.13-2.12,1.22-.52,2.55-.79,3.97-.79,1.24,0,2.31.16,3.23.48.91.32,1.67.75,2.28,1.27.6.52,1.05,1.12,1.35,1.79.29.67.44,1.36.44,2.06,0,.91-.32,1.96-.95,3.15s-1.55,2.25-2.76,3.19h6.49c.21,0,.42.02.61.06.19.04.36.13.5.28.15.15.26.37.34.67.08.3.12.7.12,1.21,0,.91-.13,1.55-.38,1.9-.26.35-.65.52-1.19.52h-6.49c-.7,0-1.49-.11-2.36-.34s-1.67-.61-2.4-1.15c-1.21.46-2.4.82-3.57,1.09-1.17.27-2.36.4-3.57.4h-2.94c-.21,0-.42-.02-.61-.06-.19-.04-.36-.13-.5-.28s-.26-.37-.34-.67c-.08-.29-.12-.7-.12-1.21,0-.91.13-1.55.38-1.9.26-.35.65-.52,1.19-.52h2.78ZM717.37,85.99c-.94,0-1.73.11-2.38.34s-1.16.48-1.53.75c.24.35.52.73.85,1.13.32.4.66.81,1.01,1.21.35.4.69.79,1.03,1.17.34.38.65.7.95.97.73-.46,1.3-1.05,1.73-1.79.43-.74.65-1.38.65-1.92,0-.19-.03-.4-.08-.63-.05-.23-.16-.43-.32-.6-.16-.17-.4-.32-.71-.44-.31-.12-.71-.18-1.19-.18Z"/>
    <path class="cls-2" d="M727.62,98.01c-.21,0-.42-.02-.61-.06-.19-.04-.36-.13-.5-.28s-.26-.37-.34-.67c-.08-.29-.12-.7-.12-1.21,0-.91.13-1.55.38-1.9.26-.35.65-.52,1.19-.52h5.97c.21,0,.42.02.61.06.19.04.36.13.5.28.15.15.26.37.34.67.08.3.12.7.12,1.21,0,.91-.13,1.55-.38,1.9-.26.35-.65.52-1.19.52h-5.97Z"/>
    <path class="cls-2" d="M733.59,98.01c-.21,0-.42-.02-.61-.06-.19-.04-.36-.13-.5-.28s-.26-.37-.34-.67c-.08-.29-.12-.7-.12-1.21,0-.91.13-1.55.38-1.9.26-.35.65-.52,1.19-.52h5.97c.21,0,.42.02.61.06.19.04.36.13.5.28.15.15.26.37.34.67.08.3.12.7.12,1.21,0,.91-.13,1.55-.38,1.9-.26.35-.65.52-1.19.52h-5.97Z"/>
    <path class="cls-2" d="M744.19,93.37v-24.16h5.24v28.8h-9.88c-.21,0-.42-.02-.61-.06-.19-.04-.36-.13-.5-.28s-.26-.37-.34-.67c-.08-.29-.12-.7-.12-1.21,0-.91.13-1.55.38-1.9.26-.35.65-.52,1.19-.52h4.64Z"/>
    <path class="cls-2" d="M759.56,69.21v28.8h-5.24v-28.8h5.24Z"/>
    <path class="cls-2" d="M789.53,98.01c-.64,0-1.27-.05-1.88-.14-.61-.09-1.16-.26-1.67-.5s-.96-.57-1.35-.99c-.39-.42-.69-.96-.91-1.63-.46.11-.93.2-1.41.26-.48.07-.97.1-1.45.1-.67,0-1.45-.1-2.34-.3-.89-.2-1.73-.57-2.52-1.11-.79-.54-1.47-1.28-2.02-2.24-.55-.95-.83-2.18-.83-3.69s.26-2.73.79-3.75c.52-1.02,1.2-1.86,2.02-2.5.82-.65,1.73-1.11,2.74-1.39,1.01-.28,2-.42,2.96-.42h6.86v12.06c0,.62.08,1.04.24,1.27.16.23.54.34,1.13.34h.97c.21,0,.42.02.6.06.19.04.36.13.5.28.15.15.26.37.34.67.08.3.12.7.12,1.21,0,.91-.13,1.55-.38,1.9s-.65.52-1.19.52h-1.33ZM775.86,72.96c0-.78.28-1.45.85-2.02.56-.56,1.24-.85,2.02-.85s1.45.28,2.02.85c.56.57.85,1.24.85,2.02s-.28,1.45-.85,2.02c-.57.56-1.24.85-2.02.85s-1.45-.28-2.02-.85-.85-1.24-.85-2.02ZM778.28,87.5c0,.32.04.66.12,1.02.08.36.23.68.44.96.21.28.5.51.87.7.36.19.83.28,1.39.28.35,0,.71-.01,1.07-.04s.73-.11,1.11-.24v-5.53h-2.02c-1,0-1.74.26-2.24.78-.5.52-.75,1.21-.75,2.06ZM782.44,72.96c0-.78.28-1.45.85-2.02.56-.56,1.24-.85,2.02-.85s1.45.28,2.02.85c.56.57.85,1.24.85,2.02s-.28,1.45-.85,2.02c-.57.56-1.24.85-2.02.85s-1.45-.28-2.02-.85-.85-1.24-.85-2.02Z"/>
    <path class="cls-2" d="M790.87,98.01c-.21,0-.42-.02-.61-.06-.19-.04-.36-.13-.5-.28s-.26-.37-.34-.67c-.08-.29-.12-.7-.12-1.21,0-.91.13-1.55.38-1.9.26-.35.65-.52,1.19-.52h5.97c.21,0,.42.02.61.06.19.04.36.13.5.28.15.15.26.37.34.67.08.3.12.7.12,1.21,0,.91-.13,1.55-.38,1.9-.26.35-.65.52-1.19.52h-5.97Z"/>
    <path class="cls-2" d="M799.3,93.37c.91,0,1.55-.14,1.92-.42s.54-.92.54-1.92v-9.08h5.24v8.63c0,1,.19,1.71.57,2.14.38.43,1.21.65,2.5.65.21,0,.42.02.6.06.19.04.36.13.5.28s.26.37.34.67c.08.3.12.7.12,1.21,0,.91-.13,1.55-.38,1.9s-.65.52-1.19.52c-.78,0-1.53-.13-2.26-.38-.73-.26-1.33-.81-1.81-1.67-.32.46-.71.83-1.17,1.11-.46.28-.94.49-1.45.63-.51.13-1.04.22-1.59.26-.55.04-1.1.06-1.63.06h-3.31c-.21,0-.42-.02-.61-.06-.19-.04-.36-.13-.5-.28s-.26-.37-.34-.67c-.08-.29-.12-.7-.12-1.21,0-.91.13-1.55.38-1.9.26-.35.65-.52,1.19-.52h2.46ZM809.14,77.92h-9.2v-3.31h1.86c-.13-.21-.24-.52-.3-.91-.07-.39-.1-.72-.1-.99,0-.73.12-1.36.36-1.9.24-.54.57-.99.97-1.35.4-.36.86-.64,1.37-.83s1.05-.28,1.61-.28c.48,0,.93.05,1.35.16s.77.22,1.07.32v3.11c-.4-.11-.76-.18-1.07-.22-.31-.04-.53-.06-.67-.06-.62,0-1.06.14-1.31.42-.26.28-.38.62-.38,1.03s.13.75.38,1.05.77.44,1.55.44h2.5v3.31Z"/>
    <path class="cls-2" d="M810.07,98.01c-.21,0-.42-.02-.61-.06-.19-.04-.36-.13-.5-.28s-.26-.37-.34-.67c-.08-.29-.12-.7-.12-1.21,0-.91.13-1.55.38-1.9.26-.35.65-.52,1.19-.52h5.97c.21,0,.42.02.61.06.19.04.36.13.5.28.15.15.26.37.34.67.08.3.12.7.12,1.21,0,.91-.13,1.55-.38,1.9-.26.35-.65.52-1.19.52h-5.97Z"/>
    <path class="cls-2" d="M816.04,98.01c-.21,0-.42-.02-.61-.06-.19-.04-.36-.13-.5-.28s-.26-.37-.34-.67c-.08-.29-.12-.7-.12-1.21,0-.91.13-1.55.38-1.9.26-.35.65-.52,1.19-.52h5.97c.21,0,.42.02.61.06.19.04.36.13.5.28.15.15.26.37.34.67.08.3.12.7.12,1.21,0,.91-.13,1.55-.38,1.9-.26.35-.65.52-1.19.52h-5.97Z"/>
    <path class="cls-2" d="M822.01,98.01c-.21,0-.42-.02-.61-.06-.19-.04-.36-.13-.5-.28s-.26-.37-.34-.67c-.08-.29-.12-.7-.12-1.21,0-.91.13-1.55.38-1.9.26-.35.65-.52,1.19-.52h5.97c.21,0,.42.02.61.06.19.04.36.13.5.28.15.15.26.37.34.67.08.3.12.7.12,1.21,0,.91-.13,1.55-.38,1.9-.26.35-.65.52-1.19.52h-5.97Z"/>
    <path class="cls-2" d="M842.42,98.01c-.38,0-.78-.03-1.21-.08-.43-.05-.85-.15-1.25-.3s-.79-.36-1.15-.63c-.36-.27-.67-.62-.91-1.05-.32.46-.71.83-1.17,1.11-.46.28-.94.49-1.45.63s-1.04.22-1.59.26c-.55.04-1.1.06-1.63.06h-4.07c-.21,0-.42-.02-.61-.06-.19-.04-.36-.13-.5-.28s-.26-.37-.34-.67c-.08-.29-.12-.7-.12-1.21,0-.91.13-1.55.38-1.9.26-.35.65-.52,1.19-.52h3.23c.91,0,1.55-.14,1.92-.42.36-.28.54-.92.54-1.92v-9.08h5.24v8.63c0,1,.26,1.71.79,2.14.52.43,1.43.65,2.72.65.21,0,.42.02.6.06.19.04.36.13.5.28.15.15.26.37.34.67.08.3.12.7.12,1.21,0,.91-.13,1.55-.38,1.9s-.65.52-1.19.52ZM829.03,104.79c0-.78.28-1.45.85-2.02.57-.56,1.24-.85,2.02-.85s1.45.28,2.02.85.85,1.24.85,2.02-.28,1.45-.85,2.02-1.24.85-2.02.85-1.45-.28-2.02-.85c-.56-.56-.85-1.24-.85-2.02ZM835.6,104.79c0-.78.28-1.45.85-2.02.57-.56,1.24-.85,2.02-.85s1.45.28,2.02.85.85,1.24.85,2.02-.28,1.45-.85,2.02-1.24.85-2.02.85-1.45-.28-2.02-.85c-.56-.56-.85-1.24-.85-2.02Z"/>
    <path class="cls-2" d="M842.42,98.01c-.21,0-.42-.02-.61-.06-.19-.04-.36-.13-.5-.28s-.26-.37-.34-.67c-.08-.29-.12-.7-.12-1.21,0-.91.13-1.55.38-1.9.26-.35.65-.52,1.19-.52h5.97c.21,0,.42.02.61.06.19.04.36.13.5.28.15.15.26.37.34.67.08.3.12.7.12,1.21,0,.91-.13,1.55-.38,1.9-.26.35-.65.52-1.19.52h-5.97Z"/>
    <path class="cls-2" d="M848.39,98.01c-.21,0-.42-.02-.61-.06-.19-.04-.36-.13-.5-.28s-.26-.37-.34-.67c-.08-.29-.12-.7-.12-1.21,0-.91.13-1.55.38-1.9.26-.35.65-.52,1.19-.52h5.97c.21,0,.42.02.61.06.19.04.36.13.5.28.15.15.26.37.34.67.08.3.12.7.12,1.21,0,.91-.13,1.55-.38,1.9-.26.35-.65.52-1.19.52h-5.97Z"/>
    <path class="cls-2" d="M858.63,93.37v-1.57c0-3.25.68-5.79,2.04-7.6,1.36-1.81,3.26-2.72,5.71-2.72,1.26,0,2.34.23,3.23.69s1.61,1.03,2.16,1.71c.55.69.95,1.43,1.21,2.24.25.81.38,1.56.38,2.26,0,.86-.11,1.7-.32,2.52-.22.82-.59,1.59-1.13,2.32v.16h4.48c.21,0,.42.02.61.06.19.04.36.13.5.28.15.15.26.37.34.67.08.3.12.7.12,1.21,0,.91-.13,1.55-.38,1.9-.26.35-.65.52-1.19.52h-4.36v.12c.27.24.48.52.65.85.16.32.29.64.38.95.09.31.15.6.18.87.03.27.04.48.04.65,0,.86-.14,1.68-.42,2.46-.28.78-.71,1.46-1.27,2.04-.56.58-1.28,1.04-2.16,1.39-.87.35-1.92.52-3.13.52-1.4,0-2.58-.22-3.55-.67-.97-.44-1.75-1.08-2.36-1.9-.6-.82-1.05-1.82-1.33-3.01s-.42-2.51-.42-3.99v-.28h-4.28c-.21,0-.42-.02-.61-.06-.19-.04-.36-.13-.5-.28s-.26-.37-.34-.67c-.08-.29-.12-.7-.12-1.21,0-.91.13-1.55.38-1.9.26-.35.65-.52,1.19-.52h4.28ZM863.27,93.37h1.01c.7,0,1.3-.13,1.82-.38.51-.25.93-.59,1.25-1.01.32-.42.56-.9.71-1.45.15-.55.22-1.11.22-1.67,0-.75-.18-1.37-.52-1.86-.35-.48-.86-.73-1.53-.73-.97,0-1.7.48-2.2,1.43-.5.96-.75,2.12-.75,3.49v2.18ZM863.27,98.01c0,1.54.23,2.8.71,3.76.47.96,1.24,1.44,2.32,1.44.73,0,1.24-.22,1.55-.65.31-.43.46-.99.46-1.67,0-.16-.04-.41-.12-.73-.08-.33-.23-.64-.44-.96-.22-.31-.52-.59-.91-.83-.39-.24-.89-.37-1.51-.37h-2.06Z"/>
    <path class="cls-2" d="M876.38,98.01c-.21,0-.42-.02-.61-.06-.19-.04-.36-.13-.5-.28s-.26-.37-.34-.67c-.08-.29-.12-.7-.12-1.21,0-.91.13-1.55.38-1.9.26-.35.65-.52,1.19-.52h5.97c.21,0,.42.02.61.06.19.04.36.13.5.28.15.15.26.37.34.67.08.3.12.7.12,1.21,0,.91-.13,1.55-.38,1.9-.26.35-.65.52-1.19.52h-5.97Z"/>
    <path class="cls-2" d="M882.35,98.01c-.21,0-.42-.02-.61-.06-.19-.04-.36-.13-.5-.28s-.26-.37-.34-.67c-.08-.29-.12-.7-.12-1.21,0-.91.13-1.55.38-1.9.26-.35.65-.52,1.19-.52h5.97c.21,0,.42.02.61.06.19.04.36.13.5.28.15.15.26.37.34.67.08.3.12.7.12,1.21,0,.91-.13,1.55-.38,1.9-.26.35-.65.52-1.19.52h-5.97Z"/>
    <path class="cls-2" d="M888.32,98.01c-.21,0-.42-.02-.61-.06-.19-.04-.36-.13-.5-.28s-.26-.37-.34-.67c-.08-.29-.12-.7-.12-1.21,0-.91.13-1.55.38-1.9.26-.35.65-.52,1.19-.52h5.97c.21,0,.42.02.61.06.19.04.36.13.5.28.15.15.26.37.34.67.08.3.12.7.12,1.21,0,.91-.13,1.55-.38,1.9-.26.35-.65.52-1.19.52h-5.97Z"/>
    <path class="cls-2" d="M894.29,98.01c-.21,0-.42-.02-.61-.06-.19-.04-.36-.13-.5-.28s-.26-.37-.34-.67c-.08-.29-.12-.7-.12-1.21,0-.91.13-1.55.38-1.9.26-.35.65-.52,1.19-.52h5.97c.21,0,.42.02.61.06.19.04.36.13.5.28.15.15.26.37.34.67.08.3.12.7.12,1.21,0,.91-.13,1.55-.38,1.9-.26.35-.65.52-1.19.52h-5.97Z"/>
    <path class="cls-2" d="M904.9,93.37v-24.16h5.24v28.8h-9.88c-.21,0-.42-.02-.61-.06-.19-.04-.36-.13-.5-.28s-.26-.37-.34-.67c-.08-.29-.12-.7-.12-1.21,0-.91.13-1.55.38-1.9.26-.35.65-.52,1.19-.52h4.64Z"/>
    <path class="cls-2" d="M920.27,69.21v28.8h-5.24v-28.8h5.24Z"/>
  </g>
</svg>