<?xml version="1.0" encoding="UTF-8"?>
<svg id="Layer_1" data-name="Layer 1" xmlns="http://www.w3.org/2000/svg" viewBox="0 0 434.2 111.5">
  <defs>
    <style>
      .cls-1 {
        fill: #a5a8a9;
      }

      .cls-2 {
        fill: #00833e;
      }

      .cls-3 {
        fill: #ce0e2d;
      }

      .cls-4 {
        fill: #fff;
      }

      .cls-5 {
        fill: #986e30;
      }
    </style>
  </defs>
  <g>
    <path class="cls-4" d="M156.64,23.84c.43-.79.72-1.23.85-1.33.19.6.38,1.21.56,1.81.32.72.78,1.07,1.38,1.07h27c.41-2.17.62-3.63.62-4.41,0-1.36-.73-2.9-2.17-4.63l-1.61,2.77c.81,1.09,1.39,2.15,1.75,3.16h-24.12c-.73,0-1.18-.22-1.33-.65-.26-.79-.56-2.12-.88-3.98-.36-2.16-.62-3.58-.79-4.24l-.14-.09-1.69,2.91c.06.26.15.55.28.85-1.04.58-2.06,1.17-3.08,1.75-.72.45-1.24.99-1.58,1.61-.34.62-.72,1.76-1.13,3.42l5.11.9c.24.06.56-.25.96-.93ZM155.4,20c.6-.57,1.03-1.03,1.27-1.38l.51,2.49-2.85-.37c.41-.36.77-.6,1.07-.73Z"/>
    <path class="cls-4" d="M153.25,13.39c1.3.79,2.07,1.19,2.32,1.19.11,0,.4-.27.88-.82.41-.49.69-.85.82-1.07l-2.37-1.27c-1.02.79-1.52,1.19-1.5,1.19-.32,0-1.03-.4-2.12-1.19-.94,1.04-1.5,1.67-1.67,1.89,1,.64,1.78,1.05,2.34,1.22.68-.62,1.11-1,1.3-1.13Z"/>
    <path class="cls-4" d="M185.76,28.67l-2.23-1.38c-.11.06-.34.28-.69.66s-.59.58-.72.58c-.23,0-.89-.39-2.01-1.19-.56.62-1.07,1.25-1.53,1.89.45.4,1.17.85,2.15,1.36.56-.57.99-.97,1.27-1.22l2.12,1.24c.51-.39,1.05-1.04,1.64-1.95Z"/>
    <path class="cls-4" d="M217.73,25.39c.26-.13.41-.23.45-.28.13-.17.3-.73.51-1.7s.29-1.56.25-1.81l-.34-3.81,2.2-2.85c-.51-.23-1.11-.55-1.81-.99-.9-.55-1.4-.94-1.5-1.19-.09-.24-.15-.56-.17-.93l-.17-.14c-.6.66-1.27,1.76-2.01,3.31.3.38.59.67.88.87.17.41.38,1.41.62,2.98.24,1.57.37,2.62.37,3.15,0,.09-.03.19-.08.28h-2.09c-.45,0-.71,0-.76-.03-.26-.04-.41-.19-.45-.45-.09-.68-.23-2.36-.4-5.05-.13-2.11-.36-3.78-.68-5.03l-.11-.08-2.17,3.05,1.13,7.6h-4.86c.32-.73.63-1.47.93-2.2.4-1,.59-1.74.59-2.23v-1.61c-.87,0-1.85.49-2.94,1.47-.94.81-1.68,1.68-2.2,2.6-.4.87-.68,1.52-.85,1.98h-5.99c-.51-3.24-1.4-4.86-2.68-4.86-.83,0-1.66.79-2.49,2.37-.73,1.41-1.1,2.56-1.1,3.45,0,.83.48,1.4,1.44,1.72.13.06.95.22,2.46.48-.68.66-1.51,1.25-2.49,1.78-1.11.58-2.08.87-2.91.87-.26,0-.67-.08-1.21-.23-.55-.15-.96-.23-1.24-.23-.09,0-.18.03-.25.08v.28c.47.55,1.25,1.03,2.34,1.44,1.04.39,1.95.59,2.74.59.96,0,1.96-.56,2.99-1.67.81-.88,1.46-1.88,1.95-2.99h5.51c.07,0,.29.35.65,1.04.45.87.86,1.52,1.21,1.95.56.7,1.15,1.05,1.75,1.05,1.54,0,2.73-1.35,3.56-4.04h2.15l1.02-1.86c.02.36.04.72.06,1.07.07.53.23.79.45.79h5.73ZM193.27,22.23c-.81,0-1.37-.27-1.69-.82v-.11c-.02-.13.1-.32.35-.57.25-.24.45-.37.58-.37.28,0,.56.23.82.68.04.04.21.39.51,1.05-.19.09-.38.14-.56.14ZM206.38,26.41h-.65c-.49,0-.96-.17-1.41-.49-.45-.33-.78-.73-.99-1.2.55,0,1.12.13,1.72.4.68.3,1.12.67,1.33,1.1v.2ZM205.5,20.96c-.6.23-1.21.46-1.81.71h-.2c1.17-1.51,2.1-2.48,2.8-2.94.06.17.08.39.08.65,0,.75-.29,1.28-.88,1.58Z"/>
    <path class="cls-4" d="M230.3,13.39c1.3.79,2.07,1.19,2.32,1.19.11,0,.4-.27.88-.82.41-.49.69-.85.82-1.07l-2.37-1.27c-1.02.79-1.52,1.19-1.5,1.19-.32,0-1.03-.4-2.12-1.19-.94,1.04-1.5,1.67-1.67,1.89,1,.64,1.78,1.05,2.34,1.22.68-.62,1.11-1,1.3-1.13Z"/>
    <path class="cls-4" d="M269.58,28.67l-2.23-1.38c-.11.06-.34.28-.69.66-.35.39-.59.58-.72.58-.23,0-.89-.39-2-1.19-.57.62-1.07,1.25-1.53,1.89.45.4,1.17.85,2.15,1.36.57-.57.99-.97,1.27-1.22l2.12,1.24c.51-.39,1.05-1.04,1.64-1.95Z"/>
    <path class="cls-4" d="M263.17,25.39h7.09c.41-2.17.62-3.63.62-4.41,0-1.36-.73-2.9-2.18-4.63l-1.61,2.77c.81,1.09,1.39,2.15,1.75,3.16h-30.9c-.73,0-1.18-.22-1.33-.65-.26-.79-.56-2.12-.88-3.98-.36-2.16-.62-3.58-.79-4.24l-.14-.09-1.69,2.91c.06.26.15.55.28.85-1.04.58-2.06,1.17-3.08,1.75-.72.45-1.24.99-1.58,1.61-.34.62-.72,1.76-1.13,3.42l5.11.9c.24.06.56-.25.96-.93.43-.79.72-1.23.85-1.33.19.6.38,1.21.56,1.81.32.72.78,1.07,1.38,1.07h26.69ZM231.37,20.73c.41-.36.77-.6,1.07-.73.6-.57,1.03-1.03,1.27-1.38l.51,2.49-2.85-.37Z"/>
    <path class="cls-4" d="M280.17,22.14c0-3.03-1.42-5.19-4.26-6.47l-.99,3.25c.55.08,1.24.51,2.08,1.3.84.79,1.26,1.44,1.26,1.95,0,.04,0,.08-.03.11h-5.51l-.28,3.11h6.81c.62,0,.93-1.08.93-3.25Z"/>
    <path class="cls-4" d="M291.98,25.39h10.62c.32,0,1.09-.37,2.32-1.1,1.22-.73,2.33-1.1,3.3-1.1.68,0,1.42.04,2.23.11.04.51.13,1.21.28,2.09h9.32c.13-.3.27-.98.42-2.03.13-.98.2-1.69.2-2.12,0-1.77-.69-3.41-2.06-4.91l-1.61,2.8c.77,1,1.36,2.05,1.75,3.16h-5.9c.21-.68.47-1.43.79-2.26-.68.02-1.56-.07-2.65-.28-1.09-.21-1.98-.44-2.66-.71-.83-.38-1.65-.76-2.46-1.16-1.02-.45-1.87-.68-2.57-.68-.41,0-.78.07-1.1.2-.36,0-.9.48-1.64,1.43-.73.95-1.1,1.61-1.1,1.99,0,.11.02.17.06.17h.2c.85-.53,1.53-.79,2.06-.79.49,0,1.13.14,1.92.42.62.24,1.25.48,1.89.71l.03.09c-1.19.45-2.39.73-3.61.82-.49.04-2.07.06-4.75.06h-10.11c-.55,0-.85-.15-.9-.45-.24-1-.45-2.64-.62-4.94-.11-1.71-.23-3.43-.34-5.14-.19.17-.55.59-1.07,1.27-.56.73-.85,1.17-.85,1.3l.99,11.07h7.63Z"/>
    <path class="cls-4" d="M314.32,13.89c.13.02.54.22,1.23.61.69.39,1.08.58,1.17.58s.39-.28.9-.85c.3-.34.6-.69.9-1.05l-2.51-1.38c-.9.83-1.41,1.24-1.52,1.24-.34,0-1.06-.4-2.18-1.19-.9.85-1.5,1.48-1.78,1.89,1.17.85,1.97,1.27,2.4,1.27.11,0,.57-.38,1.38-1.13Z"/>
    <path class="cls-4" d="M335.47,14.66c0-.09,0-.23-.01-.41,0-.18-.02-.31-.04-.38-.47-.26-.94-.53-1.41-.79-.58-.38-.88-.79-.88-1.24,0-.08,0-.16.03-.25-1.36,1.75-2.03,2.76-2.03,3.02,0-.06.11.13.34.57.23.43.34.83.34,1.19,0,.94-.24,1.75-.71,2.43-.7-1.07-1.87-2.37-3.53-3.9-1.94-1.75-3.36-2.62-4.27-2.6h-.08c-.79,1.43-1.19,2.51-1.19,3.25,0,.68.32,1.22.96,1.64,1.58.9,2.79,1.57,3.62,2.01.07-.02.2-.16.38-.41.18-.25.3-.38.35-.38.17,0,.55.31,1.13.93.53.55.87.94,1.02,1.19-.04.34-.5.72-1.38,1.13-.43.23-1.03.47-1.78.73-.53,1.34-.9,2.34-1.13,3.02h7.4c.15-1.02.23-1.76.23-2.23,0-.81-.34-1.88-1.02-3.22.88-.96,1.49-2.14,1.81-3.53.23.08.49.15.79.23.23-.32.45-.63.68-.93.26-.39.39-.74.39-1.04ZM330.73,22.68c-.6,0-1.15-.02-1.64-.06.58-.47,1.01-.85,1.27-1.13.34.51.57.9.71,1.19h-.34Z"/>
    <path class="cls-4" d="M341.29,20.81c0-1.66-.27-4.32-.82-7.99-1.04,1.43-1.73,2.67-2.09,3.7l1.27,9.09c1.09-1.28,1.64-2.88,1.64-4.8Z"/>
    <path class="cls-4" d="M352.05,13.39c1.3.79,2.07,1.19,2.32,1.19.11,0,.4-.27.88-.82.41-.49.69-.85.82-1.07l-2.37-1.27c-1.02.79-1.52,1.19-1.5,1.19-.32,0-1.03-.4-2.12-1.19-.94,1.04-1.5,1.67-1.67,1.89,1,.64,1.78,1.05,2.34,1.22.68-.62,1.11-1,1.3-1.13Z"/>
    <path class="cls-4" d="M393.08,15.08c.55.13.86.24.93.31-.28.21-.57.41-.86.62-.29.21-.49.47-.58.79,1.64-.98,2.83-1.46,3.59-1.44h.25c.38-.51.63-.88.76-1.1-.68-.04-1.37-.07-2.06-.08-.94-.08-1.54-.31-1.78-.71.49-.32.82-.48.99-.48.15,0,.34.09.56.25.32.23.49.35.51.37.02-.02.13-.2.34-.54.17-.26.25-.42.25-.48,0-.17-.11-.34-.34-.51-.23-.17-.42-.25-.59-.25-.62,0-1.22.29-1.79.87-.57.58-.86,1.19-.86,1.81,0,.28.23.47.68.56Z"/>
    <path class="cls-4" d="M409.97,29.03c1.26.83,1.98,1.24,2.15,1.24.11,0,.39-.28.82-.85.26-.36.54-.72.82-1.07l-2.32-1.44-1.3,1.3c-.79-.41-1.46-.83-2-1.24-.28.34-.58.67-.88.99-.39.47-.63.8-.71.99.77.58,1.52,1.01,2.26,1.27.47-.58.86-.98,1.16-1.19Z"/>
    <path class="cls-4" d="M422.09,25.39h3.78c.26-.13.41-.23.45-.28.13-.17.3-.73.51-1.7.21-.96.29-1.56.25-1.81l-.34-3.81,2.2-2.85c-.51-.23-1.11-.55-1.81-.99-.9-.55-1.4-.94-1.5-1.19s-.15-.56-.17-.93l-.17-.14c-.6.66-1.27,1.76-2,3.31.3.38.59.67.87.87.17.41.38,1.41.62,2.98.24,1.57.37,2.62.37,3.15,0,.09-.03.19-.09.28h-4.77c.32-.73.63-1.47.93-2.2.4-1,.59-1.74.59-2.23v-1.61c-.87,0-1.85.49-2.94,1.47-.94.81-1.68,1.68-2.2,2.6-.39.87-.68,1.52-.85,1.98h-1.75c-.87,0-1.3-.43-1.3-1.3,0-.23.03-.57.1-1.03s.1-.8.1-1.03v-1.5c-.41.43-.83.87-1.24,1.3-.56.62-.85,1.1-.85,1.44,0,.62,0,1.05,0,1.32-.03.31-.08.59-.2.79h-10.56c-.83,0-1.38-.04-1.67-.11-.7-.15-1.05-.53-1.05-1.13,0-.28.04-.7.13-1.26.09-.56.13-.96.13-1.23v-1.19c-.36.38-.73.74-1.1,1.1-.43.45-.73.87-.9,1.24-.13.83-.2,1.46-.2,1.91s-.03.66-.08.66h-35.7c-.73,0-1.18-.22-1.33-.65-.26-.79-.56-2.12-.87-3.98-.36-2.16-.62-3.58-.79-4.24l-.14-.09-1.69,2.91c.06.26.15.55.28.85-1.04.58-2.06,1.17-3.08,1.75-.72.45-1.24.99-1.58,1.61s-.72,1.76-1.13,3.42l5.11.9c.24.06.57-.25.96-.93.43-.79.72-1.23.85-1.33.19.6.38,1.21.57,1.81.32.72.78,1.07,1.38,1.07h36.49l1.02-1.81c.21.38.41.75.62,1.13.28.45.72.68,1.33.68h12.37c.53-.96.87-1.56,1.04-1.81.34,1.21,1.01,1.81,2.01,1.81h1.81c.08,0,.29.35.65,1.04.45.87.86,1.52,1.22,1.95.56.7,1.15,1.05,1.75,1.05,1.54,0,2.73-1.35,3.56-4.04ZM353.12,20.73c.41-.36.77-.6,1.07-.73.6-.57,1.03-1.03,1.27-1.38l.51,2.49-2.85-.37ZM420.14,26.41h-.65c-.49,0-.96-.17-1.41-.49-.45-.33-.78-.73-.99-1.2.55,0,1.12.13,1.72.4.68.3,1.12.67,1.33,1.1v.2ZM419.26,20.96c-.6.23-1.21.46-1.81.71h-.2c1.17-1.51,2.1-2.48,2.8-2.94.06.17.09.39.09.65,0,.75-.29,1.28-.88,1.58Z"/>
    <path class="cls-4" d="M434.2,20.81c0-1.66-.27-4.32-.82-7.99-1.04,1.43-1.73,2.67-2.09,3.7l1.27,9.09c1.09-1.28,1.64-2.88,1.64-4.8Z"/>
    <path class="cls-4" d="M153.35,37.84c-.52.53-.83.89-.95,1.1.92,1,1.58,1.5,1.98,1.5.23,0,.59-.21,1.1-.62.43-.36.75-.67.96-.93-1.22-1.22-1.91-1.84-2.06-1.84-.17,0-.51.26-1.03.79Z"/>
    <path class="cls-4" d="M177.85,40.16c-.92,0-1.93.58-3.02,1.74-1.09,1.16-1.64,2.2-1.64,3.12,0,.62.32,1.12.96,1.5.55.3,1.15.45,1.81.45s1.17-.09,1.54-.28c.37-.19.78-.55,1.23-1.07.13.13.26.44.38.92s.19.85.21,1.12v.08l-6.67-.02h0s-3.39,0-3.39,0h-8.11c-.19,0-.4-.37-.65-1.1-.49-1.6-1.1-3.95-1.84-7.06-.3.53-.6,1.06-.9,1.61-.34.62-.57,1.18-.71,1.67l1.13,4.57-.06.25h-5.56c-.26,0-.4-.41-.4-1.24,0-.49.02-.92.06-1.3-.41.06-.78.78-1.1,2.17-.24,1.11-.37,2.01-.37,2.68,0,.57.21.85.62.85h5.99c.15,0,.36-.25.62-.76.34-.58.55-.91.62-.99.11.32.23.65.34.99.15.43.32.69.51.76h21.01c.47-1.11.71-2.52.71-4.24,0-1.15-.29-2.43-.88-3.84-.7-1.71-1.52-2.57-2.46-2.57ZM176.84,44.14c-.4,0-.88-.24-1.44-.71.41-.47.72-.71.93-.71.38,0,.86.41,1.44,1.22-.3.13-.61.2-.93.2Z"/>
    <path class="cls-4" d="M174.38,36.94c-.11,0-.45.27-1.02.82-.56.55-.85.88-.85.99,0,.13.28.42.83.88.56.45.91.69,1.06.71,1.32-.77,1.99-1.3,2.01-1.58-1.17-1.2-1.85-1.81-2.03-1.81Z"/>
    <path class="cls-4" d="M194.12,40.58c.55-.64.84-1.05.88-1.22-1.07-.49-1.91-.92-2.51-1.3-1.07.98-1.78,1.72-2.12,2.23,1.22.53,2.14.95,2.74,1.27.13-.02.47-.35,1.02-.99Z"/>
    <path class="cls-4" d="M202.37,47.98c-.87-.41-1.33-.74-1.38-.99-.24-.98-.37-2.19-.37-3.64,0-.17.32-.66.96-1.47l1.24-1.53c-.36-.15-.92-.46-1.69-.93-.87-.51-1.37-.86-1.53-1.04-.19-.26-.27-.58-.25-.96l.03-.31c-.24.11-.67.64-1.29,1.58s-.92,1.52-.92,1.72c0,.09.14.24.41.45.27.21.43.35.47.42.13.28.32,1.24.56,2.88.24,1.64.37,2.66.37,3.05,0,.24-.03.41-.08.48h-2.65c-1.02,0-1.53-.38-1.53-1.16,0-.26.05-.67.14-1.23.09-.55.14-.96.14-1.23v-1.27c-.38.38-.75.75-1.13,1.13-.43.45-.73.87-.88,1.27-.13.26-.19.68-.18,1.24,0,.57-.03.98-.13,1.24h-5.37c-.55,0-.85-.15-.9-.45-.24-1-.45-2.64-.62-4.94-.11-1.71-.23-3.43-.34-5.14-.19.17-.55.59-1.07,1.27-.56.73-.85,1.17-.85,1.3l.99,11.07h7.51l1.02-1.84c.43,1.22,1.02,1.84,1.75,1.84h4.77c.98,0,1.63.12,1.95.37.49.45.84.8,1.04,1.04.73-1.17,1.1-2.13,1.1-2.88,0-.49-.43-.94-1.3-1.36Z"/>
    <path class="cls-4" d="M205.78,41.94l1.27,9.09c1.09-1.28,1.64-2.88,1.64-4.8,0-1.66-.27-4.32-.82-7.99-1.04,1.43-1.73,2.67-2.09,3.7Z"/>
    <path class="cls-4" d="M218.76,40.77c-.61.59-.92.95-.92,1.06,0,.09.3.38.9.85s.98.72,1.13.73c1.39-.79,2.09-1.32,2.09-1.58,0-.09-.32-.44-.97-1.04-.65-.6-1.03-.9-1.14-.9s-.48.3-1.09.89Z"/>
    <path class="cls-4" d="M238.86,43.92c-.08-.32-.14-.64-.2-.96-.11-.3-.37-.45-.76-.45-.75,0-1.65.37-2.7,1.12-1.04.74-1.72,1.47-2.02,2.19-.49,1.15-.8,1.78-.93,1.89h-5.31c-.49,0-1.02-.43-1.58-1.3-.36-.64-.73-1.28-1.1-1.92l-1.72,2.77c1.13,1.77,1.73,3.17,1.81,4.21-.81.66-2.17.99-4.07.99-.92,0-1.72-.15-2.4-.45-.89-.4-1.33-.99-1.33-1.78,0-.55.19-1.28.56-2.2.38-.92.56-1.36.56-1.33,0-.08-.01-.18-.04-.32s-.04-.24-.04-.3c-1.85,2.09-2.77,4.22-2.77,6.38s1.66,3.19,4.97,3.19c.45,0,1.18-.16,2.19-.47,1.01-.31,1.68-.59,2.01-.85.33-.25.62-.65.86-1.17.13-.26.32-.72.56-1.37.24-.65.41-.97.51-.97h6.04c.21,0,.46-.31.76-.92.3-.61.54-.96.71-1.06,3.05,1.13,4.59,1.79,4.63,1.98.34-.55.69-1.09,1.04-1.64.47-.75.71-1.32.71-1.69,0-.47-.12-1.06-.37-1.78-.19-.58-.39-1.18-.59-1.78ZM234.93,45.81c.51-.34.94-.51,1.3-.51l.17.03c.3.57.49,1.02.56,1.36l-2.03-.88Z"/>
    <path class="cls-4" d="M241.74,37.7c1.28-.77,2.31-1.15,3.08-1.13.3-.36.5-.65.59-.88-1.81,0-2.81-.21-2.99-.62.41-.24.67-.37.76-.37-.04,0,.23.15.79.45.36-.51.54-.75.54-.73,0-.17-.1-.31-.3-.41-.2-.1-.38-.16-.55-.16-.51,0-.97.23-1.4.68-.42.45-.64.93-.64,1.44,0,.11.17.24.51.37.24.08.49.15.73.23l-.68.51c-.28.24-.43.45-.45.62Z"/>
    <path class="cls-4" d="M242.22,41.94l1.27,9.09c1.09-1.28,1.64-2.88,1.64-4.8,0-1.66-.27-4.32-.82-7.99-1.04,1.43-1.73,2.67-2.09,3.7Z"/>
    <path class="cls-4" d="M253.4,42.73c-.81.23-1.57.95-2.29,2.18-.66,1.13-.99,2.16-.99,3.08,0,1.62.63,2.43,1.89,2.43.75,0,1.29-.18,1.61-.54.15-.15.42-.65.82-1.5.06.1.08.21.08.34,0,.19-.06.44-.17.76-.32.77-1.06,1.64-2.22,2.61-1.16.97-2.16,1.56-3.01,1.77-.38.09-1.03.16-1.95.2-.83.02-1.45.09-1.86.23v.2c.92.73,2.84,1.1,5.76,1.1,1.45,0,2.65-1.01,3.61-3.02.79-1.68,1.19-3.33,1.19-4.97,0-.94-.2-1.89-.59-2.85-.49-1.13-1.12-1.8-1.89-2.01ZM253.51,47.25c-.51.19-.8.28-.88.28-.34,0-.76-.19-1.27-.56.07-.24.23-.48.45-.72.23-.24.46-.35.71-.35.28,0,.52.15.72.44.2.29.29.57.27.83v.08Z"/>
    <path class="cls-4" d="M271.28,39.93c.49-.79.79-1.44.9-1.95-.85-.02-1.99.45-3.42,1.41-1.49,1.04-2.23,1.95-2.23,2.74,0,.45.3.75.9.9.49.08.98.15,1.47.23-1.49.6-2.62,1-3.39,1.19.7.28,1.46.42,2.29.42.9,0,1.7-.25,2.37-.76.77-.55,1.16-1.26,1.16-2.15,0-.51-.36-.78-1.07-.82-.88-.04-1.43-.16-1.64-.37.3-.21.72-.39,1.27-.54.09-.02.56-.12,1.38-.31Z"/>
    <path class="cls-4" d="M277.35,43.1c.9-1.22,1.62-2.14,2.15-2.74-.38-.15-.95-.47-1.72-.96-.88-.53-1.38-.88-1.5-1.07-.15-.53-.24-.93-.25-1.22-.23.15-.65.68-1.27,1.6s-.93,1.47-.93,1.68c0,.08.16.24.47.49s.48.43.49.52c.19.51.39,1.47.59,2.88.21,1.41.31,2.41.31,2.99,0,.23-.03.39-.08.48h-11.69c-.47,0-.87-.28-1.19-.85-.28-.49-.42-.98-.42-1.47,0-.21.05-.51.14-.92.09-.4.14-.7.14-.89,0-.13-.03-.24-.09-.34-.87,1.15-1.3,2.53-1.3,4.15,0,.79.24,1.52.71,2.2.53.77,1.18,1.16,1.95,1.16h12.43c.15,0,.3-.05.45-.14.15-.09.36-.68.62-1.75.24-1.02.36-1.66.34-1.92l-.34-3.56s-.02-.15,0-.34Z"/>
    <path class="cls-4" d="M284.95,43.13c-.55,1.26-.92,2.22-1.13,2.88,1.62,1.64,2.43,2.65,2.43,3.02,0,.7-.67,1.61-2.02,2.74s-2.4,1.69-3.15,1.69c-.55,0-1.44-.28-2.68-.85h-.34c-.06.11-.08.22-.08.31,0,.41.81.94,2.43,1.58,1.53.58,2.57.87,3.14.87,1.17,0,2.19-.89,3.08-2.68.77-1.52,1.16-2.95,1.16-4.26,0-1.11-.25-2.1-.76-2.97-.39-.68-1.08-1.46-2.06-2.34Z"/>
    <path class="cls-4" d="M329.06,40.36c-1.85-.92-2.92-1.58-3.22-1.98-.15-.53-.24-.95-.25-1.27-.32.13-.73.62-1.24,1.47-.13.24-.44.85-.93,1.81.06.23.35.51.88.85.23,1.28.45,2.57.68,3.87.24,1.52.37,2.81.37,3.87v.17c-.28.24-.98.52-2.1.82-1.12.3-1.91.45-2.36.45-.88,0-1.32-.34-1.3-1.02l-.03-.09c0-.13.07-.2.2-.2.21,0,.5.03.88.08.49.08.79.12.9.14.87-1.15,1.52-2.01,1.95-2.6-1.3-.17-3.2-.86-5.7-2.06-2.35-1.15-3.89-1.72-4.6-1.72-.77,0-1.54.42-2.32,1.27-.6.68-1.1,1.46-1.5,2.34.66-.45,1.35-.68,2.06-.68.77,0,1.92.48,3.45,1.44-.72.24-1.24.37-1.58.37h-4.97c-.58,0-1.07-.45-1.47-1.36-.34-.75-.5-1.45-.48-2.09-.02-.24-.08-.41-.18-.49-.1-.09-.31-.13-.61-.13-.62,0-1.3.19-2.05.56-.74.38-1.36.81-1.85,1.3-.19.19-.44.58-.75,1.17s-.53.94-.66,1.03h-6.52c-.55,0-.85-.15-.9-.45-.24-1-.45-2.64-.62-4.94-.11-1.71-.23-3.43-.34-5.14-.19.17-.55.59-1.07,1.27-.56.73-.85,1.17-.85,1.3l.99,11.07h8.36c.36,0,.62-.22.79-.65.21-.58.36-.91.45-.99l5.48,3.05c.23-.09.42-.32.58-.69.16-.37.3-.61.41-.72h5.39c.19,0,.9-.3,2.13-.9,1.23-.6,2.3-.9,3.21-.9.24,0,.48.03.71.09-.47,1.32-.71,2.28-.71,2.88,0,1.3.67,1.95,2,1.95.57,0,1.54-.18,2.94-.54,1.47-.4,2.36-.74,2.68-1.05.17-.19.52-1.05,1.05-2.58.53-1.53.79-2.46.79-2.78l-.34-3.47v-.4c.96-1.22,1.69-2.14,2.2-2.74ZM304.74,47.64c-.21-.02-.52-.15-.93-.4-.28-.19-.57-.38-.87-.56.24-.19.57-.28.99-.28.55,0,.82.22.82.65v.59Z"/>
    <path class="cls-4" d="M314.69,53.12c-.32,0-1.07.7-2.26,2.09.21.19.59.48,1.16.87.64.45,1.04.68,1.21.68.23,0,.62-.27,1.19-.82.51-.47.85-.86,1.02-1.16-.09-.11-.48-.42-1.16-.92-.68-.5-1.06-.75-1.16-.75Z"/>
    <path class="cls-4" d="M331.35,41.94l1.27,9.09c1.09-1.28,1.64-2.88,1.64-4.8,0-1.66-.27-4.32-.82-7.99-1.04,1.43-1.73,2.67-2.09,3.7Z"/>
    <path class="cls-4" d="M342.53,42.73c-.81.23-1.57.95-2.29,2.18-.66,1.13-.99,2.16-.99,3.08,0,1.62.63,2.43,1.89,2.43.75,0,1.29-.18,1.61-.54.15-.15.42-.65.82-1.5.06.1.09.21.09.34,0,.19-.06.44-.17.76-.32.77-1.06,1.64-2.22,2.61-1.16.97-2.16,1.56-3.01,1.77-.38.09-1.03.16-1.95.2-.83.02-1.45.09-1.86.23v.2c.92.73,2.84,1.1,5.76,1.1,1.45,0,2.66-1.01,3.62-3.02.79-1.68,1.19-3.33,1.19-4.97,0-.94-.2-1.89-.59-2.85-.49-1.13-1.12-1.8-1.89-2.01ZM342.64,47.25c-.51.19-.8.28-.88.28-.34,0-.76-.19-1.27-.56.08-.24.23-.48.45-.72.23-.24.46-.35.71-.35.28,0,.52.15.72.44.2.29.29.57.27.83v.08Z"/>
    <path class="cls-4" d="M354.68,38.8c1.3.79,2.07,1.19,2.32,1.19.11,0,.4-.27.88-.82.41-.49.69-.85.82-1.07l-2.37-1.27c-1.02.79-1.52,1.19-1.5,1.19-.32,0-1.03-.4-2.12-1.19-.94,1.04-1.5,1.67-1.67,1.89,1,.64,1.78,1.05,2.34,1.22.68-.62,1.11-1,1.3-1.13Z"/>
    <path class="cls-4" d="M370.52,53.63c-.79-.41-1.46-.83-2-1.24-.28.34-.58.67-.88.99-.39.47-.63.8-.71.99.77.58,1.52,1.01,2.26,1.27.47-.58.86-.98,1.16-1.19,1.26.83,1.98,1.24,2.15,1.24.11,0,.39-.28.82-.85.26-.36.54-.72.82-1.07l-2.32-1.44-1.3,1.3Z"/>
    <path class="cls-4" d="M395.2,40.58c.55-.64.84-1.05.88-1.22-1.07-.49-1.91-.92-2.51-1.3-1.07.98-1.78,1.72-2.12,2.23,1.22.53,2.14.95,2.74,1.27.13-.02.47-.35,1.02-.99Z"/>
    <path class="cls-4" d="M418.16,40.36c-1.85-.92-2.92-1.58-3.22-1.98-.15-.53-.24-.95-.25-1.27-.32.13-.73.62-1.24,1.47-.13.24-.44.85-.93,1.81.06.23.35.51.88.85.23,1.28.45,2.57.68,3.87.24,1.52.37,2.81.37,3.87v.17c-.28.24-.98.52-2.1.82-1.12.3-1.91.45-2.36.45-.88,0-1.32-.34-1.3-1.02l-.03-.09c0-.13.07-.2.2-.2.21,0,.5.03.88.08.49.08.79.12.9.14.87-1.15,1.52-2.01,1.95-2.6-1.3-.17-3.2-.86-5.7-2.06-2.35-1.15-3.89-1.72-4.6-1.72-.77,0-1.54.42-2.32,1.27-.6.68-1.1,1.46-1.5,2.34.66-.45,1.35-.68,2.06-.68.77,0,1.92.48,3.45,1.44-.72.24-1.24.37-1.58.37h-5.06c-1.02,0-1.52-.38-1.52-1.16,0-.26.05-.67.14-1.23.09-.55.14-.96.14-1.23v-1.27c-.38.38-.75.75-1.13,1.13-.43.45-.73.87-.87,1.27-.13.26-.19.68-.18,1.24,0,.57-.03.98-.13,1.24h-4.83c-.87,0-1.3-.58-1.3-1.75v-.82c0-.49-.04-.88-.11-1.19-.23.13-.59.51-1.1,1.14-.51.63-.76,1.06-.76,1.29,0,.11.03.28.09.49.06.22.08.38.08.49s-.05.23-.14.34c-1.32-.06-2.03-.06-2.15,0,.32-1.3.48-2.52.48-3.67,0-.09-.03-.2-.09-.31-.3.26-.71.73-1.21,1.41-.57.77-.85,1.29-.85,1.55,0,.51-.09.85-.25,1.02h-2.43c.57-1.62.85-2.68.85-3.19l-.06-.71c-.28.11-.7.48-1.24,1.1-.55.62-.82,1.06-.82,1.33,0,.53-.12,1.02-.37,1.47h-3.08c-.87,0-1.3-.43-1.3-1.3,0-.23.03-.57.1-1.03s.1-.8.1-1.03v-1.5c-.41.43-.83.87-1.24,1.3-.56.62-.85,1.1-.85,1.44,0,.62,0,1.05,0,1.32-.03.31-.08.59-.2.79h-8.75c-.73,0-1.18-.22-1.33-.65-.26-.79-.56-2.12-.87-3.98-.36-2.16-.62-3.58-.79-4.24l-.14-.09-1.69,2.91c.06.26.15.55.28.85-1.04.58-2.06,1.17-3.08,1.75-.72.45-1.24.99-1.58,1.61s-.72,1.76-1.13,3.42l5.11.9c.24.06.57-.25.96-.93.43-.79.72-1.23.85-1.33.19.6.38,1.21.57,1.81.32.72.78,1.07,1.38,1.07h9.57c.53-.96.87-1.56,1.04-1.81.34,1.21,1.01,1.81,2.01,1.81h3.36c.17,0,.36-.12.56-.35.21-.24.36-.38.45-.44.15.28.24.55.25.79h3.28c.06,0,.16-.08.32-.25.16-.17.27-.25.32-.25.13,0,.32.17.56.51h3.79c.24-.36.43-.62.56-.79.17.36.29.62.37.79h5.79l1.02-1.84c.43,1.22,1.02,1.84,1.75,1.84h5.62c.19,0,.9-.3,2.13-.9,1.23-.6,2.3-.9,3.21-.9.24,0,.48.03.71.09-.47,1.32-.71,2.28-.71,2.88,0,1.3.67,1.95,2,1.95.57,0,1.54-.18,2.94-.54,1.47-.4,2.36-.74,2.68-1.05.17-.19.52-1.05,1.05-2.58.53-1.53.79-2.46.79-2.78l-.34-3.47v-.4c.96-1.22,1.69-2.14,2.2-2.74ZM355.75,46.15c.41-.36.77-.6,1.07-.73.6-.57,1.03-1.03,1.27-1.38l.51,2.49-2.85-.37Z"/>
    <path class="cls-4" d="M403.79,53.12c-.32,0-1.07.7-2.26,2.09.21.19.59.48,1.16.87.64.45,1.04.68,1.21.68.23,0,.62-.27,1.19-.82.51-.47.85-.86,1.02-1.16-.09-.11-.48-.42-1.16-.92-.68-.5-1.06-.75-1.16-.75Z"/>
    <path class="cls-4" d="M420.45,41.94l1.27,9.09c1.09-1.28,1.64-2.88,1.64-4.8,0-1.66-.27-4.32-.82-7.99-1.04,1.43-1.73,2.67-2.09,3.7Z"/>
    <path class="cls-4" d="M431.64,42.73c-.81.23-1.57.95-2.29,2.18-.66,1.13-.99,2.16-.99,3.08,0,1.62.63,2.43,1.89,2.43.75,0,1.29-.18,1.61-.54.15-.15.42-.65.82-1.5.06.1.09.21.09.34,0,.19-.06.44-.17.76-.32.77-1.06,1.64-2.22,2.61-1.16.97-2.16,1.56-3.01,1.77-.38.09-1.03.16-1.95.2-.83.02-1.45.09-1.86.23v.2c.92.73,2.84,1.1,5.76,1.1,1.45,0,2.66-1.01,3.62-3.02.79-1.68,1.19-3.33,1.19-4.97,0-.94-.2-1.89-.59-2.85-.49-1.13-1.12-1.8-1.89-2.01ZM431.75,47.25c-.51.19-.8.28-.88.28-.34,0-.76-.19-1.27-.56.08-.24.23-.48.45-.72.23-.24.46-.35.71-.35.28,0,.52.15.72.44.2.29.29.57.27.83v.08Z"/>
  </g>
  <g>
    <path class="cls-4" d="M149.77,79.65c0,.25.11.3.34.3.61,0,1.39-.05,1.66-.13-.03-1.17-.05-2.47-.05-4.03h2.39c.61,0,.98-.11,1.14-1.3h-3.53v-3.11h2.09c.69,0,1.02,0,1.22-.09.2-.2.42-.5.55-1.2-.75,0-3.41-.02-3.97,0-.69.03-1.61.16-1.89.23.03.55.05.97.05,1.66v7.67Z"/>
    <path class="cls-4" d="M163.56,79.86c.39-.22.69-.58.83-1.25l-.03-.03c-.75.06-1.89.06-2.53.06-.59,0-1.09-.03-1.45-.11v-3.06h2.37c.55,0,.89-.2,1.03-1.3h-3.41v-2.8h1.62c.7,0,1.23,0,1.47-.09.19-.2.37-.5.47-1.2h-3.8c-.64.02-1.33.11-1.77.22.05.66.05,1.22.05,1.97v7.22l.23.3c.37.08,1.41.16,2.78.16,1.2,0,1.91-.03,2.12-.08Z"/>
    <path class="cls-4" d="M170.47,69.99c-1.28,0-2.86.22-3.2.3.02.41.03.7.03,1.78v7.64c1,.2,1.94.3,3.09.3,3.2,0,5.62-1.81,5.62-5.19,0-2-.84-4.83-5.55-4.83ZM170.47,78.79c-.42,0-.84-.03-1.22-.13v-7.37c.23-.05.52-.08,1-.08,2.33,0,3.67,1.28,3.67,3.64,0,3.27-2.05,3.94-3.45,3.94Z"/>
    <path class="cls-4" d="M182.67,78.65c-.59,0-1.09-.03-1.45-.11v-3.06h2.37c.55,0,.89-.2,1.03-1.3h-3.41v-2.8h1.62c.7,0,1.23,0,1.47-.09.19-.2.37-.5.47-1.2h-3.8c-.64.02-1.33.11-1.77.22.05.66.05,1.22.05,1.97v7.22l.23.3c.37.08,1.41.16,2.78.16,1.2,0,1.91-.03,2.12-.08.39-.22.69-.58.83-1.25l-.03-.03c-.75.06-1.89.06-2.53.06Z"/>
    <path class="cls-4" d="M195.64,79.82v-.06c-.39-.42-.89-1.13-1.64-2.44-.53-.92-1.02-1.7-1.37-2.01.62-.28,1.87-1,1.87-2.48,0-1.98-1.23-2.83-3.72-2.83-.72,0-2.28.17-2.69.27.03.44.03.81.03,1.59v5.23c0,1.31-.02,2.23-.05,2.86.31,0,1.17-.02,1.61-.06.27-.03.36-.09.36-.41v-3.61h.28c.52,0,.81.13,1.3,1.02.62,1.22.94,1.84,1.36,2.39.41.55.81.7,1.39.7s1.14-.06,1.26-.16ZM191.55,74.63c-.22.11-1.08.16-1.5.11v-3.55c.19-.03.45-.05.67-.05.97,0,1.78.55,1.78,1.84,0,1.05-.62,1.51-.95,1.64Z"/>
    <path class="cls-4" d="M199.67,79.72c.2-.5.66-1.66,1.02-2.56h3.53c.36.89.58,1.48.86,2.28.16.42.28.5.53.5.34,0,1.41-.08,1.75-.19v-.06c-.31-.66-.69-1.64-1.33-3.23-.55-1.36-1.73-4.44-2.45-6.15-.08-.19-.22-.28-.36-.28-.19,0-1.06.06-1.64.19l.13.33c-.59,1.42-3.03,7.23-3.84,9.14v.06c.34.11,1.03.2,1.37.2.25,0,.38-.08.44-.22ZM202.48,72.26c.17.5.64,1.67,1.36,3.61h-2.72c.53-1.34.97-2.58,1.36-3.61Z"/>
    <path class="cls-4" d="M215.11,79.86c.39-.22.7-.66.8-1.26l-.02-.03c-.77.08-1.72.08-2.36.08-.58,0-1.11-.03-1.41-.11v-7.59c0-.78-.05-.92-.31-.92-.59,0-1.34.08-1.69.13.03.33.05.97.05,2.02v7.33l.23.3c.39.08,1.44.16,2.73.16,1.2,0,1.75-.03,1.97-.08Z"/>
    <path class="cls-4" d="M229.83,79.44c.16.42.28.5.53.5.34,0,1.41-.08,1.75-.19v-.06c-.31-.66-.69-1.64-1.33-3.23-.55-1.36-1.73-4.44-2.45-6.15-.08-.19-.22-.28-.36-.28-.19,0-1.06.06-1.64.19l.13.33c-.59,1.42-3.03,7.23-3.84,9.14v.06c.34.11,1.03.2,1.37.2.25,0,.38-.08.44-.22.2-.5.66-1.66,1.02-2.56h3.53c.36.89.58,1.48.86,2.28ZM225.88,75.87c.53-1.34.97-2.58,1.36-3.61.17.5.64,1.67,1.36,3.61h-2.72Z"/>
    <path class="cls-4" d="M242.79,75.08v-2.22c0-1.3.02-2.22.05-2.84-.31,0-.92.02-1.37.06-.22.03-.34.09-.34.39v4.69c0,2.98-1.06,3.51-2.33,3.51-1.08,0-2.33-.47-2.33-3.37v-4.37c0-.77-.05-.91-.33-.91-.31,0-1.39.08-1.67.13.03.33.05.97.05,2.02v3.2c0,3.36,1.42,4.72,4.06,4.72,1.91,0,4.22-.63,4.22-5Z"/>
    <path class="cls-4" d="M250.68,71.38h2.48c.33-.08.75-.47.81-1.3h-5.56c-1.58,0-2-.02-2.25-.08-.16.17-.34.44-.52.91-.11.36.02.47.27.47h2.81v8.28c0,.23.11.28.33.28.63,0,1.23-.05,1.67-.13-.02-.31-.05-.83-.05-1.91v-6.53Z"/>
    <path class="cls-4" d="M262.81,79.65c0,.25.11.3.33.3.36,0,1.36-.05,1.67-.13-.02-.31-.05-.83-.05-1.92v-5.05c0-1.3.02-2.23.05-2.83-.48.02-1.25.03-1.62.06-.25.03-.37.09-.37.44v3.59h-4.17v-3.25c0-.7-.05-.84-.33-.84-.33,0-1.27.05-1.67.13.03.3.05.94.05,2v4.94c0,1.31-.02,2.23-.05,2.86.33.02,1.09-.02,1.51-.06.36-.03.48-.09.48-.42v-4.05h2.39c.95,0,1.47-.02,1.78-.05v4.28Z"/>
    <path class="cls-4" d="M273.14,69.85h-.02c-3.19,0-5.08,2.25-5.08,5.2,0,2.36,1.42,5.03,5.03,5.03,3.31,0,5.05-2.41,5.05-5.2s-1.83-5.03-4.98-5.03ZM273.22,78.87c-1.64,0-3.06-1.39-3.06-4s1.27-3.8,2.8-3.8h.02c1.94,0,3.08,1.73,3.08,3.95,0,2.44-1.08,3.84-2.83,3.84Z"/>
    <path class="cls-4" d="M288.9,79.76c-.39-.42-.89-1.13-1.64-2.44-.53-.92-1.02-1.7-1.38-2.01.63-.28,1.88-1,1.88-2.48,0-1.98-1.23-2.83-3.72-2.83-.72,0-2.28.17-2.69.27.03.44.03.81.03,1.59v5.23c0,1.31-.02,2.23-.05,2.86.31,0,1.17-.02,1.61-.06.27-.03.36-.09.36-.41v-3.61h.28c.52,0,.81.13,1.3,1.02.63,1.22.94,1.84,1.36,2.39.41.55.81.7,1.39.7s1.14-.06,1.27-.16v-.06ZM284.81,74.63c-.22.11-1.08.16-1.5.11v-3.55c.19-.03.45-.05.67-.05.97,0,1.78.55,1.78,1.84,0,1.05-.63,1.51-.95,1.64Z"/>
    <path class="cls-4" d="M291.61,79.63c0,.27.09.31.33.31.36,0,1.41-.05,1.67-.13-.02-.31-.05-.83-.05-1.92v-7.03c0-.7-.05-.84-.31-.84-.33,0-1.41.08-1.69.13.03.3.05.94.05,1.98v7.5Z"/>
    <path class="cls-4" d="M301.42,71.38h2.48c.33-.08.75-.47.81-1.3h-5.56c-1.58,0-2-.02-2.25-.08-.16.17-.34.44-.52.91-.11.36.02.47.27.47h2.81v8.28c0,.23.11.28.33.28.63,0,1.23-.05,1.67-.13-.02-.31-.05-.83-.05-1.91v-6.53Z"/>
    <path class="cls-4" d="M312,75.15c.17-.27,2.48-3.69,2.88-4.33.2-.34.23-.55-.02-.64-.22-.08-.73-.16-1.31-.16-.3.55-1.8,3.06-2.47,4.09-.67-1.13-1.45-2.48-2-3.36-.39-.66-.5-.73-.78-.73-.41,0-1.17.13-1.7.28v.05c.92,1.34,2.31,3.45,3.16,4.91.11.19.13.42.13.72v3.69c0,.23.05.28.28.28.86,0,1.36-.05,1.72-.13-.02-.34-.05-.81-.05-1.87v-2.14c0-.2.05-.44.17-.66Z"/>
    <path class="cls-4" d="M328.19,74.49h-3.53v-3.11h2.09c.69,0,1.02,0,1.22-.09.2-.2.42-.5.55-1.2-.75,0-3.41-.02-3.97,0-.69.03-1.61.16-1.89.23.03.55.05.97.05,1.66v7.67c0,.25.11.3.34.3.61,0,1.39-.05,1.66-.13-.03-1.17-.05-2.47-.05-4.03h2.39c.61,0,.98-.11,1.14-1.3Z"/>
    <path class="cls-4" d="M335.89,80.08c3.31,0,5.05-2.41,5.05-5.2s-1.83-5.03-4.98-5.03h-.02c-3.19,0-5.08,2.25-5.08,5.2,0,2.36,1.42,5.03,5.03,5.03ZM335.77,71.07h.02c1.94,0,3.08,1.73,3.08,3.95,0,2.44-1.08,3.84-2.83,3.84-1.64,0-3.06-1.39-3.06-4s1.27-3.8,2.8-3.8Z"/>
    <path class="cls-4" d="M349.05,79.27c.41.55.81.7,1.39.7s1.14-.06,1.27-.16v-.06c-.39-.42-.89-1.13-1.64-2.44-.53-.92-1.02-1.7-1.38-2.01.63-.28,1.88-1,1.88-2.48,0-1.98-1.24-2.83-3.72-2.83-.72,0-2.28.17-2.69.27.03.44.03.81.03,1.59v5.23c0,1.31-.02,2.23-.05,2.86.31,0,1.17-.02,1.61-.06.27-.03.36-.09.36-.41v-3.61h.28c.52,0,.81.13,1.3,1.02.63,1.22.94,1.84,1.36,2.39ZM346.12,74.74v-3.55c.19-.03.45-.05.67-.05.97,0,1.78.55,1.78,1.84,0,1.05-.63,1.51-.95,1.64-.22.11-1.08.16-1.5.11Z"/>
    <path class="cls-4" d="M359.15,79.63c0,.27.09.31.33.31.36,0,1.41-.05,1.67-.13-.02-.31-.05-.83-.05-1.92v-7.03c0-.7-.05-.84-.31-.84-.33,0-1.41.08-1.69.13.03.3.05.94.05,1.98v7.5Z"/>
    <path class="cls-4" d="M373.69,74.82c0-2-.84-4.83-5.55-4.83-1.28,0-2.86.22-3.2.3.02.41.03.7.03,1.78v7.64c1,.2,1.94.3,3.09.3,3.2,0,5.62-1.81,5.62-5.19ZM368.15,78.79c-.42,0-.84-.03-1.22-.13v-7.37c.23-.05.52-.08,1-.08,2.33,0,3.67,1.28,3.67,3.64,0,3.27-2.05,3.94-3.45,3.94Z"/>
    <path class="cls-4" d="M380.34,78.65c-.59,0-1.09-.03-1.45-.11v-3.06h2.37c.55,0,.89-.2,1.03-1.3h-3.41v-2.8h1.62c.7,0,1.24,0,1.47-.09.19-.2.37-.5.47-1.2h-3.8c-.64.02-1.33.11-1.77.22.05.66.05,1.22.05,1.97v7.22l.23.3c.37.08,1.41.16,2.78.16,1.2,0,1.91-.03,2.12-.08.39-.22.69-.58.83-1.25l-.03-.03c-.75.06-1.89.06-2.53.06Z"/>
    <path class="cls-4" d="M393.94,72.9c0-1.3.02-2.2.05-2.87-.36,0-.78.02-1.27.06-.22.03-.33.09-.33.45v4.36c0,.78-.02,1.39.08,2.59-.37-.8-.95-1.67-1.66-2.78-1.13-1.73-2.41-3.69-2.91-4.41-.16-.17-.28-.28-.44-.28-.28,0-1.62.08-1.92.13v.08l.28.39v6.48c0,1.31-.02,2.22-.05,2.84.47.02.97-.02,1.25-.06.25-.05.34-.09.34-.42v-4.09c0-.8.02-1.61-.08-3.19.64,1.2,1.09,2.08,1.92,3.39,1.23,1.91,2.03,3.12,2.84,4.25.11.16.2.22.39.22.45,0,1.34-.19,1.48-.25v-6.89Z"/>
    <path class="cls-4" d="M401.82,71.38h2.48c.33-.08.75-.47.81-1.3h-5.56c-1.58,0-2-.02-2.25-.08-.16.17-.34.44-.52.91-.11.36.02.47.27.47h2.81v8.28c0,.23.11.28.33.28.63,0,1.23-.05,1.67-.13-.02-.31-.05-.83-.05-1.91v-6.53Z"/>
    <path class="cls-4" d="M407.83,79.63c0,.27.09.31.33.31.36,0,1.41-.05,1.67-.13-.02-.31-.05-.83-.05-1.92v-7.03c0-.7-.05-.84-.31-.84-.33,0-1.41.08-1.69.13.03.3.05.94.05,1.98v7.5Z"/>
    <path class="cls-4" d="M417.64,77.91v-6.53h2.48c.33-.08.75-.47.81-1.3h-5.56c-1.58,0-2-.02-2.25-.08-.16.17-.34.44-.52.91-.11.36.02.47.27.47h2.81v8.28c0,.23.11.28.33.28.63,0,1.23-.05,1.67-.13-.02-.31-.05-.83-.05-1.91Z"/>
    <path class="cls-4" d="M426.1,75.98v3.69c0,.23.05.28.28.28.86,0,1.36-.05,1.72-.13-.02-.34-.05-.81-.05-1.87v-2.14c0-.2.05-.44.17-.66.17-.27,2.48-3.69,2.88-4.33.2-.34.23-.55-.02-.64-.22-.08-.73-.16-1.31-.16-.3.55-1.8,3.06-2.47,4.09-.67-1.13-1.45-2.48-2-3.36-.39-.66-.5-.73-.78-.73-.41,0-1.17.13-1.7.28v.05c.92,1.34,2.31,3.45,3.16,4.91.11.19.13.42.13.72Z"/>
    <path class="cls-4" d="M431.22,81.49c.55.02,1.08-.05,1.48-.34.74-.52,1.5-1.69,1.5-2.69,0-.45-.16-1.02-.59-1.02h-.02c-.47,0-.97.22-1.34.41.05.16.09.41.09.7,0,1.03-.42,2.08-1.13,2.94Z"/>
    <path class="cls-4" d="M155.1,89.86c.85,0,1.58.22,2.05.42.5.08.85-.45.82-.98-.25-.28-1.38-.78-2.85-.78-3.07,0-5.5,1.97-5.5,5.18,0,2.96,1.91,4.98,5.44,4.98,1.04,0,1.86-.28,2.25-.53.26-.25.47-.7.51-1.23l-.05-.03c-.4.12-1.23.39-2.26.39-2.46,0-3.81-1.61-3.81-3.72,0-2.48,1.53-3.71,3.41-3.71Z"/>
    <path class="cls-4" d="M161.62,89.54c0-.7-.05-.84-.31-.84-.33,0-1.4.08-1.67.12.03.3.05.93.05,1.97v7.44c0,.26.09.31.33.31.36,0,1.4-.05,1.66-.12-.02-.31-.05-.82-.05-1.91v-6.98Z"/>
    <path class="cls-4" d="M163.79,88.68c-.16.17-.34.43-.51.9-.11.36.02.47.26.47h2.79v8.22c0,.23.11.28.33.28.62,0,1.22-.05,1.66-.12-.02-.31-.05-.82-.05-1.89v-6.48h2.47c.33-.08.74-.47.81-1.29h-5.52c-1.57,0-1.98-.02-2.23-.08Z"/>
    <path class="cls-4" d="M175.03,89.54c0-.7-.05-.84-.31-.84-.33,0-1.4.08-1.67.12.03.3.05.93.05,1.97v7.44c0,.26.09.31.33.31.36,0,1.4-.05,1.66-.12-.02-.31-.05-.82-.05-1.91v-6.98Z"/>
    <path class="cls-4" d="M179.78,97.16c1.63-2.56,3.86-6.39,4.22-7.16.19-.54.26-.79.31-1.24h-5.47c-.51,0-.88-.03-1.16-.12-.15.15-.42.5-.53.82-.12.36-.05.57.88.57h3.92c-.68,1.32-3.1,5.32-5.02,8,.02.12.09.25.23.39.7.08,2.42.12,4.23.12s2.31-.05,2.45-.06c.22-.08.74-.57.96-1.24l-.02-.03c-.95.08-4.22.08-5.01-.05Z"/>
    <path class="cls-4" d="M189.85,97.26c-.59,0-1.09-.03-1.44-.11v-3.04h2.36c.54,0,.88-.2,1.02-1.29h-3.38v-2.77h1.61c.7,0,1.22,0,1.46-.09.19-.2.37-.5.47-1.19h-3.77c-.64.02-1.32.11-1.75.22.05.65.05,1.21.05,1.95v7.16l.23.29c.37.08,1.4.15,2.76.15,1.19,0,1.89-.03,2.11-.08.39-.22.68-.57.82-1.24l-.03-.03c-.74.06-1.88.06-2.51.06Z"/>
    <path class="cls-4" d="M200.67,89.21v4.33c0,.77-.02,1.38.08,2.57-.37-.79-.95-1.66-1.64-2.76-1.12-1.72-2.39-3.66-2.88-4.37-.16-.17-.28-.28-.43-.28-.28,0-1.61.08-1.91.12v.08l.28.39v6.43c0,1.3-.02,2.2-.05,2.82.47.02.96-.02,1.24-.06.25-.05.34-.09.34-.42v-4.06c0-.79.02-1.6-.08-3.16.64,1.19,1.09,2.06,1.91,3.36,1.22,1.89,2.02,3.1,2.82,4.22.11.15.2.22.39.22.45,0,1.33-.19,1.47-.25v-6.84c0-1.29.02-2.19.05-2.85-.36,0-.78.02-1.26.06-.22.03-.33.09-.33.45Z"/>
    <path class="cls-4" d="M208.13,92.87c-1.44-.82-1.95-1.19-1.95-1.92,0-.68.59-1.07,1.41-1.07.5,0,1.16.2,1.52.39.54.03.79-.6.79-.99-.39-.4-1.41-.74-2.23-.74h-.02c-2.56,0-3.3,1.69-3.3,2.74,0,.93.31,1.92,2.11,2.9,1.57.85,1.92,1.24,1.92,1.92,0,.79-.65,1.19-1.58,1.19-.74,0-1.67-.34-2.23-.73-.14.09-.37.67-.37.99,0,.2.09.36.36.53.4.3,1.19.61,2.26.61,1.83,0,3.5-1.04,3.5-2.96,0-1.47-.79-2.06-2.19-2.85Z"/>
    <path class="cls-4" d="M220.31,88.7c-.48.02-1.24.03-1.61.06-.25.03-.37.09-.37.43v3.57h-4.14v-3.22c0-.7-.05-.84-.33-.84-.33,0-1.26.05-1.66.12.03.3.05.93.05,1.98v4.9c0,1.3-.02,2.22-.05,2.84.33.02,1.09-.02,1.5-.06.36-.03.48-.09.48-.42v-4.02h2.37c.95,0,1.46-.02,1.77-.05v4.25c0,.25.11.29.33.29.36,0,1.35-.05,1.66-.12-.02-.31-.05-.82-.05-1.91v-5.01c0-1.29.02-2.22.05-2.81Z"/>
    <path class="cls-4" d="M224.9,89.54c0-.7-.05-.84-.31-.84-.33,0-1.4.08-1.67.12.03.3.05.93.05,1.97v7.44c0,.26.09.31.33.31.36,0,1.4-.05,1.66-.12-.02-.31-.05-.82-.05-1.91v-6.98Z"/>
    <path class="cls-4" d="M234.08,91.82c0-2.34-1.64-3.15-4-3.15-1.07,0-2.12.12-2.54.19.06.71.06,1.35.06,2.09v7.32c0,.23.11.28.34.28.42,0,1.38-.05,1.64-.12-.02-.31-.05-.76-.05-1.84v-6.65c.22-.03.43-.05.62-.05.91,0,1.91.47,1.91,1.94,0,1.56-.96,1.97-1.74,1.97-.15,0-.37-.02-.5-.05,0,.5.28.93.51,1.05.17.09.54.12.79.12,1.02-.02,2.95-.87,2.95-3.1Z"/>
    <path class="cls-4" d="M235.29,96.06h-.02c-.47,0-.96.22-1.33.4.05.15.09.4.09.7,0,1.02-.42,2.06-1.12,2.91.54.02,1.07-.05,1.47-.34.73-.51,1.49-1.67,1.49-2.67,0-.45-.16-1.01-.59-1.01Z"/>
    <path class="cls-4" d="M246.54,89.86c.85,0,1.58.22,2.05.42.5.08.85-.45.82-.98-.25-.28-1.38-.78-2.85-.78-3.07,0-5.5,1.97-5.5,5.18,0,2.96,1.91,4.98,5.44,4.98,1.04,0,1.86-.28,2.25-.53.26-.25.47-.7.51-1.23l-.05-.03c-.4.12-1.23.39-2.26.39-2.46,0-3.81-1.61-3.81-3.72,0-2.48,1.53-3.71,3.41-3.71Z"/>
    <path class="cls-4" d="M257.7,89.15v4.65c0,2.96-1.05,3.49-2.31,3.49-1.07,0-2.31-.47-2.31-3.35v-4.34c0-.76-.05-.9-.33-.9-.31,0-1.38.08-1.66.12.03.33.05.96.05,2v3.18c0,3.33,1.41,4.68,4.03,4.68,1.89,0,4.19-.62,4.19-4.96v-2.2c0-1.29.02-2.2.05-2.82-.31,0-.91.02-1.36.06-.22.03-.34.09-.34.39Z"/>
    <path class="cls-4" d="M265.09,92.87c-1.44-.82-1.95-1.19-1.95-1.92,0-.68.59-1.07,1.41-1.07.5,0,1.16.2,1.52.39.54.03.79-.6.79-.99-.39-.4-1.41-.74-2.23-.74h-.02c-2.56,0-3.3,1.69-3.3,2.74,0,.93.31,1.92,2.11,2.9,1.57.85,1.92,1.24,1.92,1.92,0,.79-.65,1.19-1.58,1.19-.74,0-1.67-.34-2.23-.73-.14.09-.37.67-.37.99,0,.2.09.36.36.53.4.3,1.19.61,2.26.61,1.83,0,3.5-1.04,3.5-2.96,0-1.47-.79-2.06-2.19-2.85Z"/>
    <path class="cls-4" d="M268.75,88.68c-.15.17-.34.43-.51.9-.11.36.02.47.26.47h2.79v8.22c0,.23.11.28.33.28.62,0,1.23-.05,1.66-.12-.02-.31-.05-.82-.05-1.89v-6.48h2.46c.33-.08.74-.47.81-1.29h-5.52c-1.57,0-1.98-.02-2.23-.08Z"/>
    <path class="cls-4" d="M282.09,88.53h-.02c-3.16,0-5.04,2.23-5.04,5.16,0,2.34,1.41,4.99,4.99,4.99,3.29,0,5.01-2.39,5.01-5.16s-1.81-4.99-4.95-4.99ZM282.16,97.47c-1.63,0-3.04-1.38-3.04-3.97s1.26-3.77,2.77-3.77h.02c1.92,0,3.05,1.72,3.05,3.92,0,2.42-1.07,3.81-2.81,3.81Z"/>
    <path class="cls-4" d="M298.73,89.18c-.05-.39-.14-.48-.3-.48-.37,0-1.41.09-1.64.22v.23c-.65,1.58-1.69,4.37-2.46,6.4l-2.09-5.78c-.28-.79-.4-1.01-.63-1.07-.74,0-1.3.14-1.69.22l.05.29c-.6,3.54-1.23,7.55-1.5,9.19.25.14.96.14,1.38.14.17,0,.25-.08.28-.25.23-1.81.7-5.36.91-7.27.7,2.11,2.06,6.22,2.43,7.43.31,0,.68-.06.96-.11.34-.08.45-.2.56-.51.99-2.91,1.91-5.49,2.34-6.84l.45,3.89c.17,1.64.26,2.48.36,3.27.03.31.23.39.43.39.31,0,1.29-.06,1.55-.14-.14-.74-.31-1.89-.56-3.52l-.82-5.7Z"/>
    <path class="cls-4" d="M305.43,92.87c-1.44-.82-1.95-1.19-1.95-1.92,0-.68.59-1.07,1.41-1.07.5,0,1.16.2,1.52.39.54.03.79-.6.79-.99-.39-.4-1.41-.74-2.23-.74h-.02c-2.56,0-3.3,1.69-3.3,2.74,0,.93.31,1.92,2.11,2.9,1.57.85,1.92,1.24,1.92,1.92,0,.79-.65,1.19-1.58,1.19-.74,0-1.67-.34-2.23-.73-.14.09-.37.67-.37.99,0,.2.09.36.36.53.4.3,1.19.61,2.26.61,1.83,0,3.5-1.04,3.5-2.96,0-1.47-.79-2.06-2.19-2.85Z"/>
    <path class="cls-4" d="M321.99,92.51v-.06c-.19-.15-.57-.39-1.19-.39-.26,0-.47.2-.67.53-.43.76-.99,1.92-1.33,2.61-.26-.23-1.24-1.13-1.94-1.75.79-.51,1.86-1.13,1.86-2.36,0-1.47-1.1-2.16-2.43-2.16-1.55,0-2.59,1.09-2.59,2.42,0,.71.26,1.44.95,2.12-.73.47-1.89,1.12-1.89,2.48,0,1.66,1.18,2.68,3.04,2.68.9,0,1.88-.3,2.79-1.24.34.3.77.7,1.04.96.2.17.4.28.68.28.81,0,1.47-.17,1.74-.26l.02-.06c-.23-.22-.77-.78-2.37-2.22,1.05-1.86,1.84-3.07,2.31-3.58ZM315.29,91.12c0-.73.42-1.13.95-1.13s.93.42.93,1.15c0,.67-.34,1.18-.99,1.63-.59-.54-.88-1.04-.88-1.63v-.02ZM316.33,97.27h-.02c-1.07,0-1.74-.78-1.74-1.66,0-.7.39-1.19.73-1.43.48.54,1.91,1.88,2.47,2.42-.37.45-.95.67-1.44.67Z"/>
    <path class="cls-4" d="M330.15,88.67c-1.07,0-2.12.12-2.54.19.06.71.06,1.35.06,2.09v7.32c0,.23.11.28.34.28.42,0,1.38-.05,1.64-.12-.02-.31-.05-.76-.05-1.84v-6.65c.22-.03.43-.05.62-.05.91,0,1.91.47,1.91,1.94,0,1.56-.96,1.97-1.74,1.97-.15,0-.37-.02-.5-.05,0,.5.28.93.51,1.05.17.09.54.12.79.12,1.02-.02,2.95-.87,2.95-3.1,0-2.34-1.64-3.15-4-3.15Z"/>
    <path class="cls-4" d="M340.7,88.53h-.02c-3.16,0-5.04,2.23-5.04,5.16,0,2.34,1.41,4.99,4.99,4.99,3.29,0,5.01-2.39,5.01-5.16s-1.81-4.99-4.95-4.99ZM340.77,97.47c-1.63,0-3.04-1.38-3.04-3.97s1.26-3.77,2.77-3.77h.02c1.92,0,3.05,1.72,3.05,3.92,0,2.42-1.07,3.81-2.81,3.81Z"/>
    <path class="cls-4" d="M352.2,93.94c.62-.28,1.86-.99,1.86-2.46,0-1.97-1.22-2.81-3.69-2.81-.71,0-2.26.17-2.67.26.03.43.03.81.03,1.58v5.19c0,1.3-.02,2.22-.05,2.84.31,0,1.16-.02,1.6-.06.26-.03.36-.09.36-.4v-3.58h.28c.51,0,.81.12,1.29,1.01.62,1.21.93,1.83,1.35,2.37.4.54.81.7,1.38.7s1.13-.06,1.26-.15v-.06c-.39-.42-.88-1.12-1.63-2.42-.53-.91-1.01-1.69-1.36-2ZM351.13,93.27c-.22.11-1.07.15-1.49.11v-3.52c.19-.03.45-.05.67-.05.96,0,1.77.54,1.77,1.83,0,1.04-.62,1.5-.95,1.63Z"/>
    <path class="cls-4" d="M356.04,88.68c-.15.17-.34.43-.51.9-.11.36.02.47.26.47h2.79v8.22c0,.23.11.28.33.28.62,0,1.23-.05,1.66-.12-.02-.31-.05-.82-.05-1.89v-6.48h2.46c.33-.08.74-.47.81-1.29h-5.52c-1.57,0-1.98-.02-2.23-.08Z"/>
    <path class="cls-4" d="M372.26,92.87c-1.44-.82-1.95-1.19-1.95-1.92,0-.68.59-1.07,1.41-1.07.5,0,1.16.2,1.52.39.54.03.79-.6.79-.99-.39-.4-1.41-.74-2.23-.74h-.02c-2.56,0-3.3,1.69-3.3,2.74,0,.93.31,1.92,2.11,2.9,1.57.85,1.92,1.24,1.92,1.92,0,.79-.65,1.19-1.58,1.19-.74,0-1.67-.34-2.23-.73-.14.09-.37.67-.37.99,0,.2.09.36.36.53.4.3,1.19.61,2.26.61,1.83,0,3.5-1.04,3.5-2.96,0-1.47-.79-2.06-2.19-2.85Z"/>
    <path class="cls-4" d="M379.76,97.26c-.59,0-1.08-.03-1.44-.11v-3.04h2.36c.54,0,.88-.2,1.02-1.29h-3.38v-2.77h1.61c.7,0,1.22,0,1.46-.09.19-.2.37-.5.47-1.19h-3.77c-.64.02-1.32.11-1.75.22.05.65.05,1.21.05,1.95v7.16l.23.29c.37.08,1.4.15,2.76.15,1.19,0,1.89-.03,2.11-.08.39-.22.68-.57.82-1.24l-.03-.03c-.74.06-1.88.06-2.51.06Z"/>
    <path class="cls-4" d="M388.87,89.86c.85,0,1.58.22,2.05.42.5.08.85-.45.82-.98-.25-.28-1.38-.78-2.85-.78-3.07,0-5.5,1.97-5.5,5.18,0,2.96,1.91,4.98,5.44,4.98,1.04,0,1.86-.28,2.25-.53.26-.25.47-.7.51-1.23l-.05-.03c-.4.12-1.22.39-2.26.39-2.46,0-3.81-1.61-3.81-3.72,0-2.48,1.54-3.71,3.41-3.71Z"/>
    <path class="cls-4" d="M400.03,89.15v4.65c0,2.96-1.05,3.49-2.31,3.49-1.07,0-2.31-.47-2.31-3.35v-4.34c0-.76-.05-.9-.33-.9-.31,0-1.38.08-1.66.12.03.33.05.96.05,2v3.18c0,3.33,1.41,4.68,4.03,4.68,1.89,0,4.19-.62,4.19-4.96v-2.2c0-1.29.02-2.2.05-2.82-.31,0-.91.02-1.36.06-.22.03-.34.09-.34.39Z"/>
    <path class="cls-4" d="M408.7,93.94c.62-.28,1.86-.99,1.86-2.46,0-1.97-1.22-2.81-3.69-2.81-.71,0-2.26.17-2.67.26.03.43.03.81.03,1.58v5.19c0,1.3-.02,2.22-.05,2.84.31,0,1.16-.02,1.6-.06.26-.03.36-.09.36-.4v-3.58h.28c.51,0,.81.12,1.29,1.01.62,1.21.93,1.83,1.35,2.37.4.54.81.7,1.38.7s1.13-.06,1.26-.15v-.06c-.39-.42-.88-1.12-1.63-2.42-.53-.91-1.01-1.69-1.36-2ZM407.63,93.27c-.22.11-1.07.15-1.49.11v-3.52c.19-.03.45-.05.67-.05.96,0,1.77.54,1.77,1.83,0,1.04-.62,1.5-.95,1.63Z"/>
    <path class="cls-4" d="M415.18,89.54c0-.7-.05-.84-.31-.84-.32,0-1.4.08-1.67.12.03.3.05.93.05,1.97v7.44c0,.26.09.31.33.31.36,0,1.4-.05,1.66-.12-.02-.31-.05-.82-.05-1.91v-6.98Z"/>
    <path class="cls-4" d="M417.35,88.68c-.15.17-.34.43-.51.9-.11.36.02.47.26.47h2.79v8.22c0,.23.11.28.33.28.62,0,1.23-.05,1.66-.12-.02-.31-.05-.82-.05-1.89v-6.48h2.46c.33-.08.74-.47.81-1.29h-5.52c-1.57,0-1.98-.02-2.23-.08Z"/>
    <path class="cls-4" d="M434.03,88.86c-.22-.08-.73-.15-1.3-.15-.29.54-1.78,3.04-2.45,4.06-.67-1.12-1.44-2.46-1.98-3.33-.39-.65-.5-.73-.78-.73-.4,0-1.16.12-1.69.28v.05c.91,1.33,2.29,3.43,3.13,4.87.11.19.12.42.12.71v3.66c0,.23.05.28.28.28.85,0,1.35-.05,1.71-.12-.02-.34-.05-.81-.05-1.86v-2.12c0-.2.05-.43.17-.65.17-.26,2.46-3.66,2.85-4.29.2-.34.23-.54-.02-.64Z"/>
  </g>
  <g>
    <g>
      <path class="cls-4" d="M23.34.39c.33,1.31.66,2.63.99,3.94,1.71,6.84,3.49,13.92,5.8,20.73,4.95,14.61,14.1,28.3,28.78,43.07l.44.44c.87.87,1.69,1.69,2.42,2.56,5.96,7.03,5.97,7.58.12,14.74-3.83,4.68-5.95,9.86-6.34,15.41-.57-6.04.91-11.89,4.52-17.84,3.5-5.76,2.94-9.04-2.3-13.52-13.32-11.41-22.82-22.13-29.88-33.76-4.51-7.43-8.94-16.46-7.56-27.1.42-3.28,1.43-6.18,3.02-8.68"/>
      <g>
        <path class="cls-1" d="M38.83,84.37c.48.13.98-.16,1.11-.64.13-.49-.16-.98-.64-1.12-.48-.13-.98.16-1.11.64-.13.48.15.98.64,1.11Z"/>
        <path class="cls-1" d="M30.2,89.55c.13-.49-.16-.98-.64-1.11-.48-.13-.98.16-1.11.64-.13.48.15.98.64,1.11.48.13.98-.16,1.11-.64Z"/>
        <path class="cls-1" d="M30.63,90.61c-.48-.13-.98.16-1.11.64-.13.48.15.98.64,1.11.48.13.98-.16,1.11-.64.13-.49-.16-.98-.64-1.12Z"/>
        <path class="cls-1" d="M31.66,94.66c-.13.48.15.98.64,1.11.48.13.98-.16,1.11-.64.13-.49-.16-.98-.64-1.11-.48-.13-.98.16-1.11.64Z"/>
        <path class="cls-1" d="M35.13,97.34c.13-.49-.16-.98-.64-1.11-.48-.13-.98.16-1.11.64-.13.48.15.98.64,1.11.48.13.98-.16,1.11-.64Z"/>
        <path class="cls-1" d="M36.2,97.82c-.48-.13-.98.16-1.11.64-.13.48.15.98.64,1.11.48.13.98-.16,1.11-.64.13-.49-.16-.98-.64-1.12Z"/>
        <path class="cls-1" d="M39.24,85.79c-.13.48.15.98.64,1.11.48.13.98-.16,1.11-.64.13-.49-.16-.98-.64-1.11-.48-.13-.98.16-1.11.64Z"/>
        <path class="cls-1" d="M41.96,87.63c-.48-.13-.98.16-1.11.64-.13.48.15.98.64,1.11.48.13.98-.16,1.11-.64.13-.49-.16-.98-.64-1.11Z"/>
        <path class="cls-1" d="M36.47,86.19c.63.17,1.28-.21,1.45-.84.17-.64-.2-1.29-.84-1.46-.63-.17-1.29.2-1.45.84-.17.63.2,1.28.84,1.45Z"/>
        <path class="cls-1" d="M33.74,87.71c.64.17,1.29-.21,1.47-.84.17-.64-.21-1.29-.84-1.47-.64-.17-1.3.21-1.47.84-.17.64.21,1.29.85,1.47Z"/>
        <path class="cls-1" d="M31.17,88.99c.56.15,1.13-.18,1.28-.74.15-.56-.18-1.13-.74-1.28-.56-.15-1.13.18-1.28.74-.15.56.18,1.13.74,1.28Z"/>
        <path class="cls-1" d="M32.27,91.37c.56.15,1.13-.18,1.28-.74.15-.56-.18-1.13-.74-1.28-.56-.15-1.13.18-1.28.74-.15.56.18,1.13.74,1.28Z"/>
        <path class="cls-1" d="M33.63,93.46c.56.15,1.13-.18,1.28-.74.15-.56-.18-1.13-.74-1.28-.56-.15-1.13.18-1.28.74-.15.56.18,1.13.74,1.28Z"/>
        <path class="cls-1" d="M36.37,94.83c.15-.56-.18-1.13-.74-1.28-.56-.15-1.13.18-1.28.74-.15.56.18,1.13.74,1.28.56.15,1.13-.18,1.28-.74Z"/>
        <path class="cls-1" d="M37.28,95.31c-.56-.15-1.13.18-1.28.74-.15.56.18,1.13.74,1.28.56.15,1.13-.18,1.28-.74.15-.56-.18-1.13-.74-1.28Z"/>
        <path class="cls-1" d="M34.01,88.64c-.17.64.2,1.3.84,1.47.64.17,1.29-.21,1.47-.85.17-.64-.21-1.29-.84-1.47-.64-.17-1.3.21-1.47.84Z"/>
        <path class="cls-1" d="M37.72,91.56c.17-.64-.21-1.29-.85-1.46-.64-.17-1.29.2-1.47.84-.17.64.2,1.29.85,1.47.64.17,1.29-.21,1.46-.85Z"/>
        <path class="cls-1" d="M38.63,92.2c-.64-.17-1.3.21-1.47.85-.17.64.21,1.3.85,1.47.64.17,1.29-.21,1.46-.84.17-.64-.21-1.29-.84-1.47Z"/>
        <path class="cls-1" d="M39.2,88.15c.17-.64-.2-1.29-.84-1.46-.63-.17-1.29.2-1.45.84-.17.63.2,1.29.84,1.46.63.17,1.28-.21,1.45-.84Z"/>
        <path class="cls-1" d="M40.22,89.43c-.63-.17-1.29.21-1.45.84-.17.63.2,1.28.84,1.45.63.17,1.28-.21,1.45-.84.17-.64-.2-1.29-.84-1.46Z"/>
        <path class="cls-1" d="M49.62,79.84c.06-.21-.07-.43-.28-.49-.21-.06-.44.07-.5.28-.05.22.07.44.28.49.22.06.44-.07.49-.28Z"/>
        <path class="cls-1" d="M47.48,80.6c.24.06.49-.08.55-.32.07-.24-.08-.49-.32-.55-.24-.07-.49.08-.55.32-.06.24.08.48.32.55Z"/>
        <path class="cls-1" d="M45.96,81.12c.28.07.56-.09.63-.36.08-.27-.09-.56-.36-.63-.28-.07-.56.09-.63.36-.07.28.09.56.36.63Z"/>
        <path class="cls-1" d="M25.49,91.53c-.28-.07-.56.09-.63.36-.07.27.09.55.36.63.28.07.56-.09.63-.36.08-.27-.09-.56-.36-.63Z"/>
        <path class="cls-1" d="M23.68,93.1c-.24-.07-.49.08-.55.32-.06.24.08.49.32.55.24.06.49-.08.55-.32.07-.24-.08-.49-.32-.55Z"/>
        <path class="cls-1" d="M24.5,94.72c-.24-.07-.49.08-.55.32-.06.24.08.49.32.55.24.06.49-.08.55-.32.07-.24-.08-.49-.32-.55Z"/>
        <path class="cls-1" d="M26.44,93.49c-.28-.07-.56.09-.63.36-.07.27.09.56.36.63.28.07.56-.09.63-.36.08-.27-.09-.56-.36-.63Z"/>
        <path class="cls-1" d="M32.43,101.41c-.28-.08-.56.09-.63.36-.07.27.09.55.36.63.28.07.56-.09.63-.36.08-.27-.09-.55-.36-.63Z"/>
        <path class="cls-1" d="M34.45,103.25c-.28-.07-.56.09-.63.36-.07.27.09.55.36.63.28.07.56-.09.63-.36.08-.27-.09-.56-.36-.63Z"/>
        <path class="cls-1" d="M32.84,102.75c-.07.27.09.56.36.63.28.07.56-.09.63-.36.08-.27-.09-.55-.36-.63-.28-.07-.56.09-.63.36Z"/>
        <path class="cls-1" d="M44.44,81.75c.33.09.67-.11.75-.44.09-.33-.1-.66-.43-.75-.33-.09-.66.11-.76.43-.09.33.11.66.43.75Z"/>
        <path class="cls-1" d="M42.84,82.37c.36.09.72-.11.82-.47.1-.35-.11-.72-.47-.81-.36-.1-.72.11-.82.47-.09.35.12.72.47.81Z"/>
        <path class="cls-1" d="M27.43,89.94c-.36-.1-.72.11-.82.47-.09.35.12.72.47.82.36.09.72-.11.82-.47.1-.35-.11-.72-.47-.81Z"/>
        <path class="cls-1" d="M28.59,92.26c-.36-.1-.72.11-.82.47-.09.35.12.72.47.81.36.09.72-.11.82-.47.1-.35-.11-.72-.47-.81Z"/>
        <path class="cls-1" d="M32.83,98.63c.1-.35-.11-.72-.47-.81-.36-.1-.72.11-.82.47-.09.35.12.72.47.81.36.09.72-.11.82-.47Z"/>
        <path class="cls-1" d="M34.22,100.08c.1-.35-.11-.72-.47-.81-.36-.1-.72.11-.82.47-.09.35.12.72.47.82.36.09.72-.11.82-.47Z"/>
        <path class="cls-1" d="M35.23,100.64c-.36-.1-.72.11-.82.47-.09.35.12.72.47.82.36.09.72-.11.82-.47.1-.35-.11-.72-.47-.81Z"/>
        <path class="cls-1" d="M40.89,83.37c.44.11.88-.14,1-.58.12-.43-.14-.88-.57-.99-.44-.12-.88.14-1,.57-.11.43.14.88.58,1Z"/>
        <path class="cls-1" d="M41.19,84.46c-.11.43.14.88.58,1,.44.11.88-.14,1-.58.12-.43-.14-.88-.57-.99-.44-.12-.88.14-1,.57Z"/>
        <path class="cls-1" d="M43.48,86.06c-.44-.12-.88.14-1,.57-.11.43.14.88.57,1,.44.11.88-.14,1-.58.12-.43-.14-.88-.57-.99Z"/>
        <path class="cls-1" d="M43.03,83.4c-.09.35.12.72.47.82.36.09.72-.11.82-.47.1-.35-.11-.72-.47-.81-.36-.1-.72.12-.82.47Z"/>
        <path class="cls-1" d="M44.92,84.81c-.36-.1-.72.11-.82.47-.09.35.12.72.47.81.36.09.72-.11.82-.47.1-.35-.11-.72-.47-.81Z"/>
        <path class="cls-1" d="M44.55,82.58c-.09.33.11.66.43.75.33.09.66-.1.75-.44.09-.32-.1-.66-.43-.75-.33-.09-.66.11-.75.43Z"/>
        <path class="cls-1" d="M46.13,83.67c-.33-.09-.66.11-.75.43-.09.32.11.66.43.75.33.09.67-.11.75-.44.09-.33-.1-.66-.43-.75Z"/>
        <path class="cls-1" d="M46.06,81.86c-.07.27.09.56.36.63.28.07.56-.09.63-.36.08-.27-.09-.56-.36-.63-.28-.07-.56.09-.63.36Z"/>
        <path class="cls-1" d="M47.34,82.76c-.28-.07-.56.09-.63.36-.07.27.09.55.36.63.28.07.56-.09.63-.36.08-.27-.09-.56-.36-.63Z"/>
        <path class="cls-1" d="M48.55,81.83c-.24-.07-.49.08-.55.32-.06.24.08.49.32.55.24.06.49-.08.55-.32.07-.24-.08-.49-.32-.55Z"/>
        <path class="cls-1" d="M48.38,81.36c.07-.24-.08-.48-.32-.55-.24-.07-.49.08-.55.32-.06.24.08.49.32.55.24.06.49-.08.55-.32Z"/>
        <path class="cls-1" d="M49.89,80.85c-.22-.06-.44.07-.49.28-.05.21.07.44.28.49.21.06.44-.07.49-.28.06-.21-.07-.43-.28-.49Z"/>
        <path class="cls-1" d="M51.15,79.45c.05-.18-.06-.37-.24-.42-.18-.05-.37.06-.42.24-.05.18.06.37.24.42.18.05.37-.06.42-.24Z"/>
        <path class="cls-1" d="M22.66,95.78c-.18-.05-.37.06-.42.24-.05.18.06.37.24.42.18.05.37-.06.42-.24.05-.18-.06-.37-.24-.42Z"/>
        <path class="cls-1" d="M32.5,104.89c-.18-.05-.37.06-.42.24-.05.18.06.37.24.42.18.05.37-.06.42-.24.05-.18-.06-.37-.24-.42Z"/>
        <path class="cls-1" d="M33.7,105.85c-.18-.05-.37.06-.42.24-.05.18.06.37.24.42.18.05.37-.06.42-.24.05-.18-.06-.37-.24-.42Z"/>
        <path class="cls-1" d="M22.07,94.74c-.18-.05-.37.06-.42.24-.05.18.06.37.24.42.18.05.37-.06.42-.24.05-.18-.06-.37-.24-.42Z"/>
        <path class="cls-1" d="M51.25,79.99c-.18-.05-.37.06-.42.24-.05.18.06.37.24.42.18.05.37-.06.42-.24.05-.18-.06-.37-.24-.42Z"/>
        <path class="cls-1" d="M53.65,78.68c-.07-.02-.15.03-.17.1-.02.07.02.15.1.17.07.02.15-.02.17-.1.02-.08-.02-.15-.1-.17Z"/>
        <path class="cls-1" d="M18.97,97.98c-.02.07.02.15.1.17.07.02.15-.02.17-.1.02-.08-.02-.15-.1-.17-.07-.02-.15.02-.17.1Z"/>
        <path class="cls-1" d="M32.4,110.15c-.02.07.02.15.1.17.07.02.15-.02.17-.1.02-.08-.02-.15-.1-.17-.07-.02-.15.02-.17.1Z"/>
        <path class="cls-1" d="M52.52,79.05c.03-.12-.04-.25-.16-.28-.12-.03-.25.04-.28.16-.03.12.04.25.16.28.12.03.25-.04.28-.16Z"/>
        <path class="cls-1" d="M20.82,96.96c-.12-.03-.25.04-.28.16-.03.12.04.25.16.28.12.03.25-.04.28-.16.03-.12-.04-.25-.16-.28Z"/>
        <path class="cls-1" d="M20.47,96.32c-.12-.03-.25.04-.28.16-.03.12.04.25.16.28.12.03.25-.04.28-.16.04-.12-.04-.25-.16-.28Z"/>
        <path class="cls-1" d="M32.63,107.94c.03-.12-.04-.25-.16-.28-.12-.03-.25.04-.28.16-.03.12.04.25.16.28.12.03.25-.04.28-.16Z"/>
        <path class="cls-1" d="M33.1,108.14c-.12-.03-.25.04-.28.16-.03.12.04.25.16.28.12.03.25-.04.28-.16.03-.12-.04-.25-.16-.28Z"/>
        <path class="cls-1" d="M52.56,79.37c-.12-.04-.25.04-.28.16-.03.12.04.25.16.28.12.03.25-.04.28-.16.03-.12-.04-.25-.16-.28Z"/>
      </g>
      <g>
        <path class="cls-2" d="M29.8,69.51c-.49.45-.51,1.21-.06,1.7.45.48,1.21.51,1.7.06.48-.46.51-1.22.06-1.7-.45-.49-1.21-.51-1.7-.06Z"/>
        <path class="cls-2" d="M29.61,72.84c-.49.45-.51,1.22-.06,1.7.45.48,1.21.51,1.7.06.48-.46.51-1.22.06-1.7-.45-.49-1.22-.51-1.7-.06Z"/>
        <path class="cls-2" d="M31.05,77.68c.48-.45.51-1.21.06-1.7-.45-.49-1.21-.51-1.7-.06-.49.45-.51,1.22-.06,1.7.45.48,1.21.51,1.7.06Z"/>
        <path class="cls-2" d="M34.65,75.53c.48-.46.51-1.22.06-1.7-.45-.49-1.21-.51-1.7-.06-.49.45-.51,1.22-.06,1.7.45.48,1.21.51,1.7.06Z"/>
        <path class="cls-2" d="M33.03,77.77c-.49.45-.51,1.22-.06,1.7.45.48,1.21.51,1.7.06.48-.46.51-1.22.06-1.7-.45-.49-1.21-.51-1.7-.06Z"/>
        <path class="cls-2" d="M33.58,69.77c-.49.45-.51,1.22-.06,1.7.45.48,1.21.51,1.7.06.48-.46.51-1.21.06-1.7-.45-.49-1.22-.51-1.7-.06Z"/>
        <path class="cls-2" d="M27.31,75.09c.55-.52.58-1.38.07-1.94-.52-.55-1.38-.58-1.94-.07-.55.51-.58,1.38-.07,1.93.51.55,1.38.58,1.94.07Z"/>
        <path class="cls-2" d="M27.66,71.01c.55-.52.58-1.38.07-1.94-.52-.55-1.38-.59-1.94-.07-.55.51-.58,1.38-.07,1.94.51.55,1.38.58,1.94.07Z"/>
        <path class="cls-2" d="M27.31,78.8c.55-.52.58-1.38.07-1.94-.52-.55-1.38-.59-1.94-.07-.55.51-.58,1.38-.07,1.94.51.55,1.38.58,1.94.07Z"/>
        <path class="cls-2" d="M25.88,80.65c-.55.51-.58,1.38-.07,1.93.51.55,1.38.58,1.94.07.55-.52.58-1.38.07-1.94-.52-.55-1.38-.58-1.94-.07Z"/>
        <path class="cls-2" d="M29.57,79.09c-.49.45-.51,1.22-.06,1.7.45.48,1.21.51,1.7.06.48-.46.51-1.22.06-1.7-.45-.49-1.21-.51-1.7-.06Z"/>
        <path class="cls-2" d="M22.45,83.33c-.49.45-.51,1.22-.06,1.7.45.48,1.21.51,1.7.06.48-.45.51-1.21.06-1.7-.45-.49-1.21-.51-1.7-.06Z"/>
        <path class="cls-2" d="M23.52,81.72c.48-.46.51-1.22.06-1.7-.45-.49-1.21-.51-1.7-.06-.49.45-.51,1.22-.06,1.7.45.48,1.21.51,1.7.06Z"/>
        <path class="cls-2" d="M19.61,80.42c.48-.45.51-1.21.06-1.7-.45-.49-1.21-.51-1.7-.06-.49.45-.51,1.22-.06,1.7.45.48,1.21.51,1.7.06Z"/>
        <path class="cls-2" d="M19.61,74.52c.48-.45.51-1.22.06-1.7-.45-.49-1.21-.51-1.7-.06-.49.45-.51,1.22-.06,1.7.45.48,1.21.51,1.7.06Z"/>
        <path class="cls-2" d="M19.92,70.99c.48-.45.51-1.22.06-1.7-.45-.49-1.21-.51-1.7-.06-.49.45-.51,1.22-.06,1.7.45.48,1.21.51,1.7.06Z"/>
        <path class="cls-2" d="M19.98,84.07c.48-.45.51-1.21.06-1.7-.45-.49-1.21-.51-1.7-.06-.49.45-.51,1.22-.06,1.7.45.48,1.21.51,1.7.06Z"/>
        <path class="cls-2" d="M19.31,85.62c-.49.45-.51,1.22-.06,1.7.45.48,1.21.51,1.7.06.48-.46.51-1.22.06-1.7-.45-.49-1.21-.51-1.7-.06Z"/>
        <path class="cls-2" d="M23.29,78.21c.48-.45.51-1.21.06-1.7-.45-.49-1.22-.51-1.7-.06-.49.45-.51,1.22-.06,1.7.45.48,1.21.51,1.7.06Z"/>
        <path class="cls-2" d="M23.29,74.65c.48-.45.51-1.21.06-1.7-.45-.49-1.22-.51-1.7-.06-.49.45-.51,1.22-.06,1.7.45.48,1.21.51,1.7.06Z"/>
        <path class="cls-2" d="M23.66,71.06c.48-.46.51-1.22.06-1.7-.45-.49-1.21-.51-1.7-.06-.49.45-.51,1.22-.06,1.7.45.48,1.21.51,1.7.06Z"/>
        <path class="cls-2" d="M49.18,73.27c-.23.22-.24.58-.03.81.22.23.58.25.81.03.23-.21.24-.57.03-.81s-.58-.24-.81-.03Z"/>
        <path class="cls-2" d="M46.84,72.52c-.25.24-.27.64-.03.9.24.26.65.27.9.03.26-.24.27-.64.03-.9-.24-.26-.65-.27-.91-.03Z"/>
        <path class="cls-2" d="M44.62,71.86c-.29.28-.31.74-.03,1.04.28.29.74.31,1.04.03.3-.27.32-.74.04-1.03-.28-.3-.74-.31-1.04-.04Z"/>
        <path class="cls-2" d="M12.76,70.94c.3-.27.31-.74.04-1.03-.28-.3-.74-.31-1.04-.04-.29.27-.31.74-.04,1.04.28.3.74.31,1.04.03Z"/>
        <path class="cls-2" d="M8.53,70.42c-.26.24-.27.65-.03.91.24.26.65.28.91.03.26-.24.27-.65.03-.91-.25-.26-.65-.27-.91-.03Z"/>
        <path class="cls-2" d="M9.18,73.93c.26-.24.27-.65.03-.91-.24-.26-.65-.27-.91-.03-.26.24-.27.65-.03.91.24.26.65.28.91.03Z"/>
        <path class="cls-2" d="M12.47,73c-.28-.3-.74-.31-1.04-.04-.29.27-.31.74-.03,1.03.28.3.74.31,1.04.04.3-.28.31-.74.04-1.03Z"/>
        <path class="cls-2" d="M13.71,88.11c.3-.27.31-.74.04-1.03-.28-.3-.74-.31-1.04-.04-.29.28-.31.74-.03,1.04.28.3.74.31,1.04.04Z"/>
        <path class="cls-2" d="M13.77,90.8c-.29.28-.31.74-.04,1.04.28.3.74.31,1.04.03.3-.27.31-.74.04-1.03-.28-.3-.74-.31-1.04-.04Z"/>
        <path class="cls-2" d="M14.24,90.09c.3-.27.31-.74.04-1.03-.28-.3-.74-.31-1.04-.04-.29.28-.31.74-.04,1.04.28.3.74.31,1.04.04Z"/>
        <path class="cls-2" d="M43.55,71.32c-.33-.35-.88-.37-1.24-.04-.35.33-.37.88-.04,1.24.33.35.88.38,1.24.04.35-.33.37-.88.04-1.24Z"/>
        <path class="cls-2" d="M41.25,70.77c-.36-.38-.96-.41-1.34-.05-.38.36-.4.96-.05,1.34.36.38.96.41,1.34.04.38-.35.4-.95.04-1.34Z"/>
        <path class="cls-2" d="M16.3,70.78c.38-.35.4-.95.05-1.34-.36-.38-.96-.4-1.34-.05-.38.36-.4.96-.05,1.34.36.38.96.41,1.34.04Z"/>
        <path class="cls-2" d="M15.96,74.46c.38-.35.4-.95.05-1.34-.36-.38-.96-.4-1.34-.05-.38.36-.4.96-.04,1.34.36.38.96.41,1.34.04Z"/>
        <path class="cls-2" d="M15.04,82.64c-.38.36-.4.96-.05,1.34.36.38.96.41,1.34.05.38-.35.41-.95.05-1.34-.36-.38-.96-.41-1.34-.05Z"/>
        <path class="cls-2" d="M16.92,86.83c.38-.35.4-.95.05-1.34-.36-.38-.96-.4-1.34-.05-.38.36-.4.96-.05,1.34.36.38.96.41,1.34.04Z"/>
        <path class="cls-2" d="M16.38,88.21c-.38.36-.4.96-.05,1.34.36.38.96.41,1.34.05.38-.35.4-.95.05-1.34-.36-.38-.96-.41-1.34-.05Z"/>
        <path class="cls-2" d="M36.81,70.17c-.46.44-.49,1.17-.05,1.64.44.47,1.17.49,1.64.06.47-.43.49-1.17.06-1.63-.44-.47-1.17-.5-1.64-.06Z"/>
        <path class="cls-2" d="M36.3,73.34c-.46.44-.49,1.17-.06,1.64.44.47,1.17.49,1.64.06.47-.43.49-1.17.06-1.64-.44-.47-1.17-.49-1.64-.06Z"/>
        <path class="cls-2" d="M36.21,76.94c-.46.44-.49,1.17-.05,1.64.44.47,1.17.49,1.64.06.47-.43.49-1.17.06-1.63-.44-.47-1.17-.49-1.64-.06Z"/>
        <path class="cls-2" d="M39.32,73.45c-.38.36-.4.96-.05,1.34.36.38.96.4,1.34.04.38-.35.4-.95.05-1.34-.36-.38-.96-.4-1.34-.05Z"/>
        <path class="cls-2" d="M39.19,76.53c-.38.36-.4.96-.04,1.34.36.38.96.41,1.34.05.38-.35.4-.95.05-1.34-.36-.38-.96-.41-1.34-.05Z"/>
        <path class="cls-2" d="M41.77,73.6c-.35.33-.37.88-.04,1.24.33.35.88.38,1.24.04.35-.33.37-.88.04-1.24-.33-.35-.88-.37-1.24-.04Z"/>
        <path class="cls-2" d="M41.62,76.07c-.35.33-.37.88-.04,1.24.33.35.88.37,1.24.04.35-.33.37-.88.04-1.24-.33-.35-.89-.37-1.24-.04Z"/>
        <path class="cls-2" d="M44.15,73.87c-.29.27-.31.74-.03,1.04.28.3.74.31,1.04.03.3-.27.31-.74.04-1.03-.28-.3-.74-.31-1.04-.04Z"/>
        <path class="cls-2" d="M43.97,75.88c-.29.28-.31.74-.04,1.04.28.3.74.31,1.04.04.3-.27.31-.74.04-1.03-.28-.3-.74-.31-1.04-.04Z"/>
        <path class="cls-2" d="M46.28,75.68c-.26.24-.27.65-.03.9.24.26.65.27.9.03.26-.24.27-.64.03-.9-.24-.26-.65-.27-.91-.03Z"/>
        <path class="cls-2" d="M46.46,74.08c-.25.24-.27.65-.03.9.24.26.65.27.9.03.26-.24.27-.64.03-.9-.24-.26-.65-.27-.91-.03Z"/>
        <path class="cls-2" d="M48.73,75.51c-.23.22-.24.58-.03.81.22.23.58.25.81.03.23-.21.24-.58.03-.81-.22-.23-.58-.24-.81-.03Z"/>
        <path class="cls-2" d="M51.45,74.08c-.2.18-.21.49-.02.69.19.2.49.21.69.02.2-.18.21-.49.02-.69-.18-.2-.49-.21-.69-.02Z"/>
        <path class="cls-2" d="M5.49,72.89c-.19.18-.21.49-.02.69.19.2.49.21.69.02.2-.18.21-.49.02-.69-.18-.19-.49-.21-.69-.02Z"/>
        <path class="cls-2" d="M11.21,91.35c-.18-.2-.49-.21-.69-.02-.2.18-.21.49-.03.68.19.2.49.21.69.03.2-.18.21-.49.02-.69Z"/>
        <path class="cls-2" d="M11.25,93.4c-.2.18-.21.49-.02.68.18.2.49.21.69.02.19-.18.21-.49.02-.69-.18-.19-.49-.21-.69-.02Z"/>
        <path class="cls-2" d="M5.56,71.19c-.19.18-.21.49-.02.68.19.2.49.21.69.02.2-.18.21-.49.02-.69-.18-.19-.49-.21-.69-.02Z"/>
        <path class="cls-2" d="M51.14,75.49c-.2.18-.21.49-.03.69.19.2.49.21.69.02.2-.18.21-.49.02-.69-.18-.19-.49-.21-.69-.02Z"/>
        <path class="cls-2" d="M55.71,75.75c-.07-.08-.2-.08-.28,0-.08.07-.08.2,0,.28.08.08.2.09.28,0,.08-.08.08-.2,0-.28Z"/>
        <path class="cls-2" d="M.06,72.79c-.08.08-.08.2,0,.28.08.08.2.09.28,0,.08-.08.09-.2.01-.28-.07-.08-.2-.08-.28,0Z"/>
        <path class="cls-2" d="M7.13,97.64c-.08.07-.08.2-.01.28.07.08.2.09.28,0,.08-.08.09-.2.01-.28-.07-.08-.2-.08-.28,0Z"/>
        <path class="cls-2" d="M53.64,74.87c-.13.12-.14.33-.02.46.12.13.33.14.46.02.13-.12.14-.33.01-.46-.12-.13-.33-.14-.46-.02Z"/>
        <path class="cls-2" d="M2.61,72.94c-.13.12-.14.33-.02.46.12.13.33.14.46.02.13-.12.14-.33.01-.46-.12-.13-.33-.14-.45-.02Z"/>
        <path class="cls-2" d="M2.68,71.9c-.13.12-.14.33-.02.46.13.13.33.14.46.02.13-.12.14-.33.01-.46-.12-.13-.33-.14-.46-.02Z"/>
        <path class="cls-2" d="M9.09,94.67c-.12-.13-.33-.14-.45-.02-.13.12-.14.33-.02.46.12.13.33.14.46.02.13-.12.14-.33.01-.46Z"/>
        <path class="cls-2" d="M9.04,95.72c-.13.12-.14.33-.02.46.12.13.33.14.46.02.13-.12.14-.32.01-.46-.12-.13-.33-.14-.46-.02Z"/>
        <path class="cls-2" d="M53.42,75.74c-.13.12-.14.33-.02.46.12.13.33.14.46.02.13-.12.14-.33.01-.46-.12-.13-.33-.14-.46-.02Z"/>
      </g>
      <g>
        <path class="cls-3" d="M40.89,61.29c.49-.11.8-.6.68-1.09-.11-.49-.6-.8-1.09-.68-.49.11-.8.6-.68,1.1.11.49.6.8,1.09.68Z"/>
        <path class="cls-3" d="M31.13,55.41c.49-.12.8-.6.68-1.1-.11-.49-.6-.8-1.1-.68-.49.11-.8.6-.68,1.1.11.49.6.8,1.1.68Z"/>
        <path class="cls-3" d="M28.61,56.7c.11.49.6.8,1.09.68.49-.12.8-.6.68-1.1-.11-.49-.6-.8-1.09-.68-.49.11-.8.6-.68,1.1Z"/>
        <path class="cls-3" d="M27.28,59.12c-.49.11-.8.6-.68,1.1.11.49.6.79,1.09.68.49-.11.8-.6.68-1.09-.11-.49-.6-.8-1.1-.68Z"/>
        <path class="cls-3" d="M26.13,61.68c-.49.11-.8.6-.68,1.1.11.49.6.79,1.09.68.49-.11.8-.6.68-1.09-.11-.49-.6-.8-1.09-.68Z"/>
        <path class="cls-3" d="M25.53,63.96c-.49.11-.8.6-.68,1.09.11.49.6.8,1.09.68.49-.11.8-.6.68-1.09-.11-.49-.6-.8-1.09-.68Z"/>
        <path class="cls-3" d="M39.83,62.33c-.11-.49-.6-.8-1.09-.68-.49.11-.8.6-.68,1.1.11.49.6.79,1.1.68.49-.11.8-.6.68-1.09Z"/>
        <path class="cls-3" d="M37.29,64.24c-.49.11-.8.6-.68,1.1.11.49.6.79,1.09.68.49-.11.8-.6.68-1.09-.11-.49-.61-.8-1.09-.68Z"/>
        <path class="cls-3" d="M38.5,60.27c.64-.15,1.04-.79.89-1.43-.15-.64-.79-1.04-1.43-.89-.64.15-1.04.79-.89,1.43.15.64.79,1.04,1.43.89Z"/>
        <path class="cls-3" d="M35.87,58.57c.65-.15,1.05-.79.9-1.44-.15-.65-.8-1.05-1.44-.9-.65.15-1.05.79-.9,1.44.15.64.8,1.05,1.44.9Z"/>
        <path class="cls-3" d="M33.34,56.79c.56-.13.92-.7.79-1.26-.13-.57-.7-.92-1.26-.79-.57.13-.92.69-.79,1.26.13.56.7.92,1.26.79Z"/>
        <path class="cls-3" d="M32.54,57.63c-.13-.57-.7-.92-1.26-.79-.56.13-.92.69-.79,1.26.13.56.69.91,1.26.79.56-.13.92-.69.79-1.26Z"/>
        <path class="cls-3" d="M30.07,59.04c-.57.13-.92.69-.79,1.26.13.56.7.92,1.26.79.57-.13.92-.7.79-1.26-.13-.56-.7-.92-1.26-.79Z"/>
        <path class="cls-3" d="M28.89,61.33c-.57.13-.92.69-.79,1.26.13.56.7.92,1.26.79.56-.13.92-.7.79-1.26-.13-.56-.69-.92-1.26-.79Z"/>
        <path class="cls-3" d="M28.1,63.63c-.57.13-.92.69-.79,1.26.13.56.7.92,1.26.79.56-.13.92-.69.79-1.26-.13-.56-.69-.92-1.26-.79Z"/>
        <path class="cls-3" d="M32.84,59.79c.15.64.79,1.05,1.44.9.65-.15,1.05-.79.9-1.44-.15-.65-.8-1.05-1.44-.9-.65.15-1.05.8-.9,1.44Z"/>
        <path class="cls-3" d="M33.8,61.58c-.15-.65-.8-1.05-1.44-.9-.65.15-1.05.79-.9,1.44.15.64.8,1.05,1.44.9.65-.15,1.05-.79.9-1.44Z"/>
        <path class="cls-3" d="M31.31,63.24c-.65.15-1.05.8-.9,1.44.15.64.79,1.05,1.44.9.65-.15,1.05-.79.9-1.44-.15-.65-.8-1.05-1.44-.9Z"/>
        <path class="cls-3" d="M37.52,61.3c-.15-.64-.79-1.04-1.43-.89-.64.15-1.04.79-.89,1.43.15.64.79,1.04,1.43.89.64-.15,1.04-.79.89-1.43Z"/>
        <path class="cls-3" d="M34.54,63.34c-.64.15-1.04.79-.89,1.43.15.64.79,1.04,1.43.9.64-.15,1.04-.79.89-1.43-.15-.64-.79-1.04-1.43-.89Z"/>
        <path class="cls-3" d="M49.22,67.55c-.05-.22-.27-.35-.49-.3-.22.05-.35.27-.3.49.05.22.27.35.49.3.22-.05.35-.27.3-.48Z"/>
        <path class="cls-3" d="M47.77,66.84c.24-.06.39-.3.34-.54-.06-.24-.3-.39-.54-.34-.24.06-.39.3-.34.54.06.24.3.4.54.34Z"/>
        <path class="cls-3" d="M46.68,65.78c.28-.06.45-.34.39-.62-.07-.28-.34-.45-.62-.39-.28.07-.45.34-.39.62.07.28.34.45.62.39Z"/>
        <path class="cls-3" d="M26.75,52.78c.28-.06.45-.34.39-.62-.07-.28-.34-.45-.62-.39-.27.07-.45.34-.39.62.07.28.34.45.62.39Z"/>
        <path class="cls-3" d="M24.35,50.97c-.24.06-.4.3-.34.54.06.25.3.4.54.34.25-.06.4-.3.34-.54-.06-.25-.3-.4-.55-.34Z"/>
        <path class="cls-3" d="M23.51,53.34c.24-.06.4-.3.34-.54-.06-.25-.3-.4-.55-.34-.24.06-.39.3-.34.54.06.25.3.4.55.34Z"/>
        <path class="cls-3" d="M25.46,54.55c.28-.06.45-.34.39-.62-.06-.28-.34-.45-.62-.39-.28.07-.45.34-.39.62.07.28.34.45.62.39Z"/>
        <path class="cls-3" d="M21.04,62.6c-.28.07-.45.34-.39.62.07.28.34.45.62.39.28-.06.45-.34.39-.62-.07-.28-.34-.45-.62-.39Z"/>
        <path class="cls-3" d="M20.37,65.27c-.28.07-.45.34-.39.62.07.28.34.45.62.39.28-.06.45-.34.39-.62-.06-.28-.34-.45-.62-.39Z"/>
        <path class="cls-3" d="M20.66,63.99c-.28.07-.45.34-.39.62.07.28.34.45.62.39.28-.06.45-.34.39-.62-.06-.28-.34-.45-.62-.39Z"/>
        <path class="cls-3" d="M45.52,64.81c.33-.08.54-.41.46-.74-.08-.33-.41-.54-.74-.46-.33.08-.54.41-.46.74.08.33.41.54.74.46Z"/>
        <path class="cls-3" d="M44.27,63.71c.36-.08.58-.44.5-.8-.08-.36-.44-.59-.8-.5-.36.08-.58.44-.5.8.09.36.44.59.81.5Z"/>
        <path class="cls-3" d="M28.97,53.93c.36-.08.58-.44.5-.8-.08-.36-.44-.59-.8-.5-.36.08-.58.44-.5.8.09.36.44.59.8.5Z"/>
        <path class="cls-3" d="M26.66,55.56c.09.36.44.59.8.5.36-.08.58-.44.5-.8-.08-.36-.44-.59-.8-.5-.36.08-.58.44-.5.8Z"/>
        <path class="cls-3" d="M24.02,60.73c-.36.08-.58.44-.5.8.09.36.44.59.8.5.36-.08.58-.44.5-.8-.08-.36-.44-.59-.8-.5Z"/>
        <path class="cls-3" d="M23.38,62.65c-.36.08-.58.44-.5.8.09.36.44.59.8.5.36-.08.58-.44.5-.8-.08-.36-.44-.58-.8-.5Z"/>
        <path class="cls-3" d="M22.87,64.61c-.36.08-.58.44-.5.8.09.36.44.59.8.5.36-.08.58-.44.5-.8-.08-.36-.44-.59-.8-.5Z"/>
        <path class="cls-3" d="M42.64,62.58c.44-.1.71-.54.61-.98-.1-.44-.54-.71-.98-.61-.44.1-.71.54-.61.98.1.44.54.71.98.61Z"/>
        <path class="cls-3" d="M41.82,63.36c-.1-.44-.54-.72-.98-.62-.44.1-.71.54-.61.98.1.44.54.71.98.61.44-.1.71-.54.61-.98Z"/>
        <path class="cls-3" d="M39.52,64.91c-.44.1-.71.54-.61.98.1.44.54.71.98.61.44-.1.71-.54.61-.98-.1-.44-.54-.71-.98-.62Z"/>
        <path class="cls-3" d="M42.64,63.88c-.36.08-.58.44-.5.8.08.36.44.59.8.5.36-.08.58-.44.5-.8-.08-.36-.44-.58-.8-.5Z"/>
        <path class="cls-3" d="M41.48,65.71c-.36.09-.58.44-.5.8.08.36.44.59.8.5.36-.08.58-.44.5-.8-.08-.36-.44-.59-.8-.5Z"/>
        <path class="cls-3" d="M44.83,65.3c-.08-.33-.41-.54-.74-.46-.33.08-.54.41-.46.74.08.33.41.54.74.46.33-.08.54-.41.46-.74Z"/>
        <path class="cls-3" d="M43.13,66.29c-.33.08-.54.41-.46.74.08.33.41.54.74.46.33-.07.54-.41.46-.74-.08-.33-.41-.54-.74-.46Z"/>
        <path class="cls-3" d="M46.07,66.22c-.07-.28-.34-.45-.62-.39-.27.07-.45.34-.39.62.07.28.34.45.62.39.28-.06.45-.34.39-.62Z"/>
        <path class="cls-3" d="M44.63,67c-.28.07-.45.34-.39.62.07.28.34.45.62.39.28-.06.45-.34.39-.62-.07-.28-.34-.45-.62-.39Z"/>
        <path class="cls-3" d="M46.11,67.69c-.24.06-.39.3-.34.54.06.24.3.39.54.34.24-.05.39-.3.34-.54-.06-.24-.3-.4-.54-.34Z"/>
        <path class="cls-3" d="M46.78,66.78c-.24.06-.39.3-.34.54.06.24.3.4.54.34.24-.05.39-.29.34-.54-.06-.24-.3-.39-.54-.34Z"/>
        <path class="cls-3" d="M47.66,68.45c-.22.05-.35.27-.3.49.05.22.27.35.49.3.22-.05.35-.27.3-.49-.05-.22-.27-.35-.49-.3Z"/>
        <path class="cls-3" d="M49.83,68.54c-.18.04-.3.23-.26.41.04.19.23.3.41.26.18-.04.3-.23.26-.41-.04-.18-.23-.3-.41-.26Z"/>
        <path class="cls-3" d="M21.62,51.41c-.18.04-.3.23-.26.41.04.19.23.3.41.26.18-.04.3-.23.26-.41-.04-.18-.23-.3-.41-.26Z"/>
        <path class="cls-3" d="M18.2,64.44c-.18.04-.3.23-.26.41.04.19.23.3.41.26.18-.04.3-.23.26-.41-.04-.18-.23-.3-.41-.26Z"/>
        <path class="cls-3" d="M17.91,65.97c-.18.04-.3.23-.26.41.04.19.23.3.41.26.18-.04.3-.23.26-.41-.04-.18-.23-.3-.41-.26Z"/>
        <path class="cls-3" d="M22.67,50.65c-.04-.18-.23-.3-.41-.26-.18.04-.3.23-.26.41.04.19.23.3.41.26.18-.04.3-.23.26-.41Z"/>
        <path class="cls-3" d="M49.15,69.29c-.18.04-.3.23-.26.41.04.19.23.3.41.26.18-.04.3-.23.26-.41-.04-.18-.23-.3-.41-.26Z"/>
        <path class="cls-3" d="M51.68,70.96c-.08.02-.12.09-.1.17.02.08.09.12.17.1.08-.02.12-.09.11-.17-.02-.07-.09-.12-.17-.1Z"/>
        <path class="cls-3" d="M18.51,49.54c-.02-.07-.09-.12-.17-.1-.08.02-.12.09-.1.17.02.08.09.12.17.1.08-.02.12-.09.11-.17Z"/>
        <path class="cls-3" d="M13.79,67.27c.02.08.09.12.17.1.08-.02.12-.09.11-.17-.02-.07-.09-.12-.17-.1-.08.02-.12.09-.11.17Z"/>
        <path class="cls-3" d="M50.89,69.79c-.12.03-.2.15-.17.27.03.12.15.2.28.17.12-.03.2-.15.17-.27-.03-.12-.15-.2-.27-.17Z"/>
        <path class="cls-3" d="M20.11,50.59c-.03-.12-.15-.2-.27-.17-.12.03-.2.15-.17.27.03.12.15.2.28.17.12-.03.2-.15.17-.27Z"/>
        <path class="cls-3" d="M20.35,50.26c.12-.03.2-.15.17-.27-.03-.12-.15-.2-.27-.17-.13.03-.2.15-.17.27.03.13.15.2.28.17Z"/>
        <path class="cls-3" d="M15.87,65.81c-.12.03-.2.15-.17.27.03.12.15.2.28.17.12-.03.2-.15.17-.27-.03-.12-.15-.2-.27-.17Z"/>
        <path class="cls-3" d="M15.74,66.6c-.12.03-.2.15-.17.27.03.12.15.2.28.17.12-.03.2-.15.17-.27-.03-.12-.15-.2-.27-.17Z"/>
        <path class="cls-3" d="M50.45,70.24c-.12.03-.2.15-.17.27.03.12.15.2.27.17.12-.03.2-.15.17-.27-.03-.12-.15-.2-.27-.17Z"/>
      </g>
      <g>
        <path class="cls-5" d="M53.46,52.44s0,0,0,0c0-.01-.02-.03-.03-.03,0,0-.99-.06-1.15-.08-.11-.23-.53-1.08-.53-1.08,0,0-.02-.01-.03-.01-.01,0-.01.01-.02.02,0,0-.32.9-.41,1.15l-1.18.25s-.03.01-.03.03c0,0,0,.02,0,.02,0,0,.73.56.94.73-.02.27-.14,1.19-.14,1.19,0,.01,0,.03.01.03,0,0,.02,0,.03,0l1.02-.69c.24.11,1.13.52,1.13.52,0,0,.02,0,.03,0,.01-.01.01-.02.01-.03l-.41-1.15.75-.85s.01-.01,0-.01Z"/>
        <path class="cls-5" d="M48.6,45.08s-.99-.06-1.14-.07c-.11-.23-.53-1.07-.53-1.07,0,0-.02-.02-.03-.01-.01,0-.01.01-.02.02,0,0-.31.9-.41,1.15l-1.18.24s-.03.01-.03.03c0,0,0,.02,0,.02,0,0,.73.56.94.73-.02.27-.14,1.19-.14,1.19,0,.01,0,.03.02.03,0,0,.02,0,.03,0l1.02-.69c.24.11,1.13.52,1.13.52,0,0,.02,0,.03,0,.01-.01.01-.02.01-.03l-.42-1.15.75-.86s.01,0,.01-.01c0,0,0,0,0,0,0-.01-.02-.03-.03-.03Z"/>
        <path class="cls-5" d="M43.7,37.71s-.99-.06-1.14-.07c-.11-.23-.53-1.08-.53-1.08,0,0-.02-.01-.03-.01-.01,0-.01.01-.02.02,0,0-.32.9-.41,1.15l-1.18.24s-.03.01-.03.03c0,0,0,.02,0,.02,0,0,.73.56.94.73-.02.27-.14,1.19-.14,1.19,0,.01,0,.03.02.03,0,0,.02,0,.03,0l1.02-.69c.24.11,1.12.52,1.12.52,0,0,.02,0,.03,0,.01-.01.01-.02.01-.03l-.41-1.15.74-.86s.01,0,.01-.01c0,0,0,0,0,0,0-.01-.01-.03-.03-.03Z"/>
        <path class="cls-5" d="M39.7,29.69s-.99-.06-1.14-.07c-.11-.23-.53-1.08-.53-1.08,0,0-.02-.01-.03-.01-.01,0-.01.01-.02.02,0,0-.32.9-.41,1.15l-1.18.24s-.03.01-.03.03c0,0,0,.02,0,.02,0,0,.73.56.94.73-.02.27-.14,1.19-.14,1.19,0,.01,0,.03.01.03,0,0,.02,0,.03,0l1.02-.69c.24.11,1.12.52,1.12.52,0,0,.02,0,.03,0,.01-.01.01-.02.01-.03l-.42-1.15.75-.86s.01,0,.01-.01c0,0,0,0,0,0,0-.01-.01-.03-.03-.03Z"/>
        <path class="cls-5" d="M36.45,21.38s.01,0,0-.01c0,0,0,0,0,0,0-.01-.01-.03-.03-.03,0,0-.99-.07-1.14-.07-.11-.23-.53-1.08-.53-1.08,0,0-.02-.02-.03-.01-.01,0-.01.01-.02.02,0,0-.32.9-.41,1.15l-1.18.24s-.03.01-.03.03c0,0,0,.02,0,.02,0,0,.73.56.94.73-.02.27-.14,1.19-.14,1.19,0,.01,0,.03.02.03,0,0,.02,0,.03,0l1.02-.69c.24.11,1.12.52,1.12.52,0,0,.02,0,.03,0,.01-.01.01-.02.01-.03l-.42-1.15.75-.86Z"/>
        <path class="cls-5" d="M33.88,14.96s.01-.02.01-.03l-.41-1.15.75-.85s.01,0,.01-.01c0,0,0,0,0,0,0-.01-.01-.03-.03-.03,0,0-.99-.06-1.14-.07-.11-.23-.53-1.07-.53-1.07,0,0-.02-.02-.03-.01-.01,0-.01.01-.02.02,0,0-.32.9-.41,1.15l-1.18.24s-.03.01-.03.03c0,0,0,.02,0,.02,0,0,.73.56.94.73-.02.27-.14,1.19-.14,1.19,0,.01,0,.03.02.03,0,0,.02,0,.02,0l1.03-.69c.24.11,1.13.52,1.13.52,0,0,.02,0,.03,0Z"/>
        <path class="cls-5" d="M31.14,6.61s.01-.02.01-.03l-.42-1.15.75-.86s.01,0,.01-.01c0-.01,0,0,0,0,0-.01-.02-.03-.03-.03,0,0-.99-.07-1.14-.07-.11-.23-.53-1.07-.53-1.07,0,0-.02-.02-.03-.01,0,0-.01.01-.02.02,0,0-.32.9-.41,1.15l-1.18.24s-.03.01-.03.03c0,0,0,.02,0,.02,0,0,.73.56.94.73-.02.27-.14,1.19-.14,1.19,0,.01,0,.03.02.03,0,0,.02,0,.02,0l1.02-.69c.24.11,1.13.52,1.13.52,0,0,.02,0,.03,0Z"/>
      </g>
      <g>
        <path class="cls-4" d="M90.86,53.65c.95-.08,2.12.29,2.12,1.05.33-.29.91-.99-.27-1.94-2.4-1.95-6.93-2.64-10.83-3.03,1.37.6,2.73,1,4.31,2.15-2.18,2.92,1.98,5.64,3.57,2.91-.89,2.66-5.53,1.45-5.1-2.34-1.45,4.39,5.42,6.87,6.19,1.2Z"/>
        <path class="cls-4" d="M97.27,58.96c.11-.44-.22-.93-.74-1.06-.55-.14-1.07.12-1.19.56.08.01.17,0,.29.04.5.13.84.5.75.83-.02.09-.05.14-.12.2.5.06.9-.17,1.01-.56Z"/>
        <path class="cls-4" d="M119.57,83.56h.02c-2.85.6-5.66,2.08-9.64,2.39-9.9.78-17.2-1.87-20.8-4.82-.51-.42-.95-.85-1.31-1.27-2.75-3.05-2.98-6.71-2.37-9.06.23-.89.32-1.25,2.14-3.24,1.31-1.44,3.74-2.52,4.78-3.14.57.42,1.31.71,2.1.91,1.31.33,2.7.42,3.5.48.1.66-.16,1.32-.7,2.46,0,0,0,0,.01,0,0,0,0,0,0,0,2.2-.92,3.05-3.29,3.31-4.31.25-.98.47-3.76-2.15-6.12-.83-.76-1.79-4.21-2.62-5.49-.98-1.44-10.33-11.37-21.61-7.6-1.17.39-2.28.86-3.35,1.38-.02,0-.03.02-.05.02-1.04.52-2.04,1.09-2.99,1.71-.03.02-.07.04-.1.06-.94.61-1.83,1.28-2.69,1.97-.04.04-.09.07-.13.1-.85.69-1.66,1.41-2.44,2.16-.05.04-.09.09-.14.13-.78.75-1.52,1.51-2.25,2.29-.04.05-.09.09-.13.14-.73.79-1.43,1.59-2.12,2.38-.03.03-.05.06-.08.09-1.03,1.2-2.01,2.39-2.96,3.55-.17.2-.34.41-.51.61-.29.35-.58.7-.87,1.04,0,0,0,0,0,0,0,0-.01.01-.01.02l2.18,2.34s.34-.39.51-.58c.74-.85,1.61-1.86,2.49-2.88.09-.1.18-.21.27-.31.2-.23.39-.45.58-.67.19-.22.38-.44.57-.65.12-.14.25-.28.37-.42.23-.27.46-.52.67-.76.07-.07.14-.15.2-.23.26-.29.51-.56.74-.81.02-.02.05-.05.07-.07.25-.27.48-.52.68-.72,2.97-3.11,6.39-5.14,9.66-6.31,1.96-.7,3.88-1.1,5.61-1.24,0,0,0,0,0,0,0,0,0,0,0,0-3.1-.5-4.96-.35-6.92-.15.27-.18.55-.34.82-.5.14-.08.28-.18.43-.26,6.4-3.5,14.88-2.75,21.93,4.26,2.57,2.54,1.86,3.73,2.75,4.53,3.01,2.89,2.58,5.31,1.38,6.7-.25-.34-1.76-.74-3.24-2.04-.1-.05-.26-.09-.47-.14-1.48-.29-5.5-.36-8.32,1.31-1.79,1.21-3.16,3.48-3.65,5.38-.72,2.77-1.84,7.25,4.45,13.94,0,0,.1.12.3.31,1.38,1.37,7.73,6.82,21.16,5.84,4.21-.31,5.73-1.87,8.89-3.44l2.08-1.28s-.02,0-.03,0Z"/>
      </g>
    </g>
    <rect class="cls-5" x="132.73" y="0" width="1.01" height="111.5"/>
  </g>
</svg>