<?xml version="1.0" encoding="UTF-8"?>
<svg id="Layer_1" data-name="Layer 1" xmlns="http://www.w3.org/2000/svg" viewBox="0 0 305.8 123.38">
  <defs>
    <style>
      .cls-1 {
        opacity: .4;
      }

      .cls-1, .cls-2 {
        fill: #f27546;
      }

      .cls-3 {
        fill: #7b7f80;
      }
    </style>
  </defs>
  <g>
    <path class="cls-3" d="M38.81,50.56v5.19c0,.12.03.2.1.26.06.07.14.1.23.1h.4v1.47h-.91c-.44,0-.84-.18-1.2-.53-.55.45-1.16.68-1.83.68-.76,0-1.41-.24-1.96-.72-.73-.68-1.1-1.6-1.1-2.74,0-1.05.34-1.92,1.01-2.61.61-.63,1.37-.94,2.26-.94.5,0,1,.11,1.5.32l.62-.48h.86ZM37.05,52.42c-.34-.13-.66-.19-.97-.19-.52,0-.95.19-1.28.57-.34.38-.5.87-.5,1.48s.15,1.09.45,1.46c.3.37.71.55,1.22.55.35,0,.71-.08,1.08-.23v-3.63ZM35.68,47.77c.26,0,.48.09.66.27.18.18.27.4.27.66s-.09.47-.27.65c-.18.18-.4.27-.66.27s-.48-.09-.66-.27c-.18-.18-.27-.4-.27-.65s.09-.48.27-.66c.18-.18.4-.27.66-.27ZM37.87,47.77c.26,0,.48.09.66.27s.27.4.27.66-.09.47-.27.65c-.18.18-.4.27-.66.27s-.47-.09-.65-.27c-.18-.18-.27-.4-.27-.65s.09-.48.27-.66c.18-.18.4-.27.65-.27Z"/>
    <path class="cls-3" d="M43.78,50.95v5.16h.74v1.47h-.51l-.53-.59h-.03c-.33.39-.74.59-1.23.59h-2.78v-1.47h2.18c.14,0,.23-.04.29-.12.09-.08.13-.17.13-.29v-4.76h1.74ZM40.65,58.63c.26,0,.48.09.66.27.18.18.27.4.27.66s-.09.48-.27.66c-.18.18-.4.27-.66.27s-.48-.09-.66-.27c-.18-.18-.27-.4-.27-.66s.09-.48.27-.66c.18-.18.4-.27.66-.27ZM42.84,58.63c.26,0,.48.09.66.27.18.18.27.4.27.66s-.09.48-.27.66c-.18.18-.4.27-.66.27s-.47-.09-.65-.27c-.18-.18-.27-.4-.27-.66s.09-.48.27-.66c.18-.18.4-.27.65-.27Z"/>
    <path class="cls-3" d="M47.31,56.11c-.22-.28-.39-.61-.52-1-.11-.36-.16-.73-.16-1.1,0-.85.25-1.55.74-2.12.62-.75,1.5-1.12,2.64-1.12.81,0,1.48.22,2.02.65.59.5.88,1.17.88,2.02v2.55c0,.39-.13.75-.39,1.05-.31.36-.7.53-1.17.53h-6.94v-1.47h2.9ZM51.15,53.44c0-.39-.14-.71-.4-.95-.21-.16-.46-.25-.74-.25-.62,0-1.08.25-1.36.74-.18.31-.27.7-.27,1.17,0,.64.2,1.15.61,1.51.33.3.75.45,1.28.45h.52c.24,0,.36-.12.36-.36v-2.31ZM50.01,47.77c.26,0,.48.09.66.27.18.18.27.4.27.66s-.09.47-.27.65c-.18.18-.4.27-.66.27s-.47-.09-.65-.27c-.18-.18-.27-.4-.27-.65s.09-.48.27-.66c.18-.18.4-.27.65-.27Z"/>
    <path class="cls-3" d="M56.46,47.25v9.96l-.89.72h-.86v-10.69h1.76Z"/>
    <path class="cls-3" d="M61.49,50.95v5.16h.73v1.47h-.75c-.08,1.15-.53,2.04-1.37,2.65-.69.51-1.54.76-2.55.76-.17,0-.36,0-.56-.01l-.71-.88v-.62c.31.05.61.07.89.07,1.7,0,2.55-.83,2.55-2.48v-6.13h1.76Z"/>
    <path class="cls-3" d="M64.13,53.48c.33-.94.92-1.66,1.79-2.15.64-.37,1.34-.55,2.09-.55s1.44.2,2.06.61c.78.47,1.34,1.17,1.67,2.09l-.17.4c-.39.17-.79.47-1.21.89-.4.44-.67.88-.79,1.33h2.32v1.47h-3.17c-.27,0-.51-.12-.74-.37h-.07c-.22.25-.48.37-.76.37h-5.02v-1.47h4.18c-.12-.39-.36-.81-.73-1.25-.41-.46-.84-.78-1.28-.97l-.16-.4ZM69.9,53.37c-.23-.4-.54-.7-.94-.89-.3-.14-.63-.22-.99-.22-.39,0-.75.08-1.1.25-.38.19-.68.48-.89.86.33.14.67.43,1.04.87.4.45.7.94.89,1.47h.06c.18-.54.49-1.05.94-1.54.36-.39.69-.66,1-.79ZM67.93,47.77c.26,0,.48.09.66.27.18.18.27.4.27.66s-.09.47-.27.65c-.18.18-.4.27-.66.27s-.48-.09-.66-.27c-.18-.18-.28-.4-.28-.65s.09-.48.28-.66c.18-.18.4-.27.66-.27Z"/>
    <path class="cls-3" d="M74.45,56.11v1.47h-2.67v-1.47h2.67Z"/>
    <path class="cls-3" d="M77.02,56.11v1.47h-2.67v-1.47h2.67Z"/>
    <path class="cls-3" d="M79.59,56.11v1.47h-2.67v-1.47h2.67Z"/>
    <path class="cls-3" d="M82.15,56.11v1.47h-2.67v-1.47h2.67Z"/>
    <path class="cls-3" d="M84.72,56.11v1.47h-2.67v-1.47h2.67Z"/>
    <path class="cls-3" d="M87.29,56.11v1.47h-2.67v-1.47h2.67Z"/>
    <path class="cls-3" d="M89.85,56.11v1.47h-2.67v-1.47h2.67Z"/>
    <path class="cls-3" d="M92.42,56.11v1.47h-2.67v-1.47h2.67Z"/>
    <path class="cls-3" d="M94.99,56.11v1.47h-2.67v-1.47h2.67Z"/>
    <path class="cls-3" d="M97.55,56.11v1.47h-2.67v-1.47h2.67Z"/>
    <path class="cls-3" d="M99.36,51.19c.91-.28,1.75-.42,2.49-.42,1.16,0,2.1.37,2.81,1.1.64.65.97,1.48.97,2.48v1.76h.48v1.47h-.3l-.48-.59h-.03c-.33.39-.73.59-1.23.59h-6.63v-1.47h6.07c.24,0,.36-.12.36-.36v-1.3c0-.65-.22-1.18-.66-1.58-.44-.4-1.01-.6-1.72-.6-.47,0-1.18.11-2.13.32v-1.4ZM101.37,58.63c.26,0,.48.09.66.27.18.18.27.4.27.66s-.09.48-.27.66c-.18.18-.4.27-.66.27s-.47-.09-.65-.27c-.18-.18-.27-.4-.27-.66s.09-.48.27-.66c.18-.18.4-.27.65-.27Z"/>
    <path class="cls-3" d="M110.34,47.25v8.74c0,.4-.13.75-.39,1.04-.3.37-.69.55-1.17.55h-2.78v-1.47h2.22c.11,0,.2-.04.28-.12.07-.07.1-.15.1-.25v-8.49h1.75Z"/>
    <path class="cls-3" d="M114.09,47.25v9.96l-.89.72h-.86v-10.69h1.76Z"/>
    <path class="cls-3" d="M130.89,50.95v5.05c0,.4-.13.75-.38,1.02-.31.38-.7.56-1.18.56h-8.08c-.63,0-1.16-.2-1.61-.61-.61-.51-.91-1.17-.91-1.99v-2.28l.89-.72h.86v3c0,.34.12.61.35.82.22.2.48.3.76.3h7.17c.24,0,.36-.12.36-.36v-4.8h1.76ZM123.72,50.56c.26,0,.48.09.66.27.18.18.28.4.28.66s-.09.48-.28.66c-.18.18-.4.27-.66.27s-.47-.09-.65-.27c-.18-.18-.27-.4-.27-.66s.09-.48.27-.66c.18-.18.4-.27.65-.27ZM125.93,50.56c.25,0,.47.09.65.27.18.18.28.4.28.66s-.09.48-.28.66c-.18.18-.4.27-.65.27s-.48-.09-.66-.27c-.18-.18-.27-.4-.27-.66s.09-.48.27-.66c.18-.18.4-.27.66-.27Z"/>
    <path class="cls-3" d="M134.64,47.25v8.49c0,.1.03.17.09.23.06.09.15.13.27.13h.38v1.47h-.94c-.39,0-.74-.14-1.04-.42-.35-.32-.52-.71-.52-1.17v-8.74h1.76Z"/>
    <path class="cls-3" d="M137.86,53.44c0-.91.32-1.61.95-2.08.5-.38,1.18-.58,2.05-.58s1.56.25,2.15.75c.74.63,1.11,1.53,1.11,2.7,0,1.1-.29,2-.88,2.73-.57.7-1.3,1.05-2.21,1.05-.8,0-1.43-.3-1.89-.89-.31.31-.68.46-1.12.46h-2.75v-1.47h2.22c.11,0,.2-.04.28-.12.07-.07.1-.15.1-.25v-2.31ZM139.6,55.95c.36.38.76.58,1.23.58s.82-.2,1.11-.6c.29-.4.43-.92.43-1.55,0-.69-.16-1.24-.48-1.63-.29-.34-.66-.51-1.12-.51-.35,0-.62.11-.82.33-.23.21-.35.5-.35.86v2.51Z"/>
    <path class="cls-3" d="M148.84,57.58c-1.06,0-1.89-.36-2.5-1.08-.51-.62-.76-1.38-.76-2.28,0-1.08.3-1.92.91-2.52.63-.62,1.45-.92,2.44-.92.72,0,1.35.18,1.88.53.69.5,1.04,1.21,1.04,2.13v2.67h.46v1.47h-.48c-.07,1.04-.43,1.85-1.1,2.44-.46.41-1.01.7-1.66.85-.45.11-.89.16-1.33.16-.14,0-.35,0-.62-.03h-.04l-.74-.91v-.63c.39.07.76.1,1.11.1,1.58,0,2.44-.66,2.58-1.98h-1.2ZM150.08,53.44c0-.38-.13-.69-.38-.91-.22-.19-.48-.29-.78-.29-.49,0-.88.17-1.17.52-.29.35-.43.82-.43,1.43s.16,1.05.48,1.4c.32.35.75.52,1.3.52h.98v-2.67Z"/>
    <path class="cls-3" d="M156.54,47.25v8.85h.74v1.47h-.49l-.55-.59h-.03c-.33.39-.73.59-1.23.59h-2.78v-1.47h2.22c.12,0,.21-.04.29-.12.06-.1.09-.18.09-.25v-8.49h1.75Z"/>
    <path class="cls-3" d="M159.85,56.11v1.47h-2.67v-1.47h2.67Z"/>
    <path class="cls-3" d="M162.41,56.11v1.47h-2.67v-1.47h2.67Z"/>
    <path class="cls-3" d="M164.98,56.11v1.47h-2.67v-1.47h2.67Z"/>
    <path class="cls-3" d="M167.55,56.11v1.47h-2.67v-1.47h2.67Z"/>
    <path class="cls-3" d="M169.45,53.48c.33-.94.92-1.66,1.79-2.15.64-.37,1.34-.55,2.09-.55s1.44.2,2.06.61c.78.47,1.34,1.17,1.67,2.09l-.17.4c-.38.17-.79.47-1.21.89-.4.44-.67.88-.79,1.33h2.32v1.47h-3.17c-.27,0-.51-.12-.73-.37h-.07c-.22.25-.48.37-.76.37h-5.02v-1.47h4.18c-.12-.39-.36-.81-.74-1.25-.41-.46-.84-.78-1.28-.97l-.16-.4ZM175.22,53.37c-.23-.4-.54-.7-.94-.89-.3-.14-.63-.22-.99-.22-.38,0-.75.08-1.1.25-.39.19-.68.48-.89.86.33.14.67.43,1.04.87.4.45.7.94.89,1.47h.06c.18-.54.5-1.05.94-1.54.36-.39.69-.66.99-.79Z"/>
    <path class="cls-3" d="M179.67,56.11c-.23-.56-.35-1.18-.35-1.87,0-1.13.35-2.01,1.05-2.64.59-.53,1.34-.8,2.25-.81.82,0,1.49.19,2,.58.63.48.95,1.17.95,2.08v2.31c0,.09.02.17.07.25.08.08.16.12.26.12h.13v1.47h-.63c-.43,0-.8-.15-1.11-.46-.47.6-1.1.89-1.88.89-.84,0-1.55-.31-2.13-.92h-.03l-.4.49h-2.75v-1.47h2.57ZM183.83,53.44c0-.36-.11-.64-.33-.86-.2-.22-.49-.33-.86-.33-.47,0-.85.18-1.13.55-.28.37-.43.86-.43,1.47,0,.67.14,1.22.43,1.64.29.42.66.63,1.11.63.41,0,.82-.2,1.21-.59v-2.51Z"/>
    <path class="cls-3" d="M190.29,47.25v8.85h.74v1.47h-.49l-.55-.59h-.03c-.33.39-.73.59-1.23.59h-2.78v-1.47h2.22c.12,0,.21-.04.29-.12.06-.1.09-.18.09-.25v-8.49h1.75Z"/>
    <path class="cls-3" d="M195.26,47.25v8.74c0,.4-.13.75-.39,1.04-.3.37-.69.55-1.17.55h-2.78v-1.47h2.22c.11,0,.2-.04.27-.12.07-.07.1-.15.1-.25v-8.49h1.75Z"/>
    <path class="cls-3" d="M201.66,57.07c0,.93.24,1.58.71,1.95.48.37,1.32.55,2.53.55,1.87,0,2.8-.5,2.8-1.49,0-.36-.12-.63-.35-.84s-.67-.4-1.31-.61c-.92-.29-1.58-.64-1.96-1.07-.42-.46-.63-1.08-.63-1.86,0-1.03.32-1.8.97-2.31.54-.42,1.26-.63,2.18-.63.58,0,1.14.09,1.69.26v1.33c-.53-.14-.99-.2-1.38-.2-.55,0-.98.14-1.28.42-.31.28-.46.66-.46,1.15,0,.39.11.69.33.9.22.21.68.44,1.37.69.88.32,1.51.66,1.89,1.04.46.45.69,1.02.69,1.72,0,1.09-.49,1.88-1.46,2.39-.69.37-1.54.56-2.55.56h-1.43c-1.12,0-2.04-.27-2.75-.82-.89-.67-1.34-1.66-1.34-2.97v-1.46l.89-.71h.86v2ZM203.57,61.86c.26,0,.48.09.66.27.18.18.28.4.28.66s-.09.48-.28.66-.4.27-.66.27-.48-.09-.66-.27c-.18-.18-.27-.4-.27-.66s.09-.48.27-.66c.18-.18.4-.27.66-.27ZM205.76,61.86c.26,0,.48.09.66.27.18.18.28.4.28.66s-.09.48-.28.66c-.18.18-.4.27-.66.27s-.47-.09-.65-.27c-.18-.18-.27-.4-.27-.66s.09-.48.27-.66c.18-.18.4-.27.65-.27Z"/>
    <path class="cls-3" d="M212.12,50.86c.33-.06.71-.09,1.14-.09,1.11,0,2,.36,2.68,1.07.61.64.91,1.44.91,2.39v1.76c0,.45-.16.83-.49,1.14-.3.3-.65.45-1.07.45h-4.63v-1.47h4.07c.24,0,.36-.12.36-.36v-1.34c0-.66-.2-1.2-.6-1.6-.38-.37-.92-.58-1.63-.61-.33,0-.57.02-.74.06v-1.4Z"/>
    <path class="cls-3" d="M220.47,47.25v8.49c0,.1.03.17.09.23.06.09.15.13.27.13h.38v1.47h-.94c-.39,0-.74-.14-1.04-.42-.35-.32-.52-.71-.52-1.17v-8.74h1.76Z"/>
    <path class="cls-3" d="M223.77,56.11v1.47h-2.67v-1.47h2.67Z"/>
    <path class="cls-3" d="M226.34,56.11v1.47h-2.67v-1.47h2.67Z"/>
    <path class="cls-3" d="M228.9,56.11v1.47h-2.67v-1.47h2.67Z"/>
    <path class="cls-3" d="M230.71,51.19c.91-.28,1.75-.42,2.49-.42,1.16,0,2.1.37,2.81,1.1.64.65.97,1.48.97,2.48v1.76h.48v1.47h-.3l-.48-.59h-.03c-.33.39-.74.59-1.23.59h-6.63v-1.47h6.07c.24,0,.36-.12.36-.36v-1.3c0-.65-.22-1.18-.66-1.58-.44-.4-1.01-.6-1.72-.6-.47,0-1.18.11-2.13.32v-1.4Z"/>
    <path class="cls-3" d="M241.68,50.95v5.05c0,.38-.13.72-.37,1.04-.32.37-.71.55-1.18.55h-2.78v-1.47h2.22c.11,0,.2-.04.27-.12.07-.07.1-.15.1-.25v-4.8h1.74ZM238.74,47.77c.26,0,.48.09.66.27.18.18.27.4.27.66s-.09.47-.27.65c-.18.18-.4.27-.66.27s-.48-.09-.66-.27c-.18-.18-.27-.4-.27-.65s.09-.48.27-.66c.18-.18.4-.27.66-.27ZM240.93,47.77c.26,0,.48.09.66.27.18.18.27.4.27.66s-.09.47-.27.65c-.18.18-.4.27-.66.27s-.47-.09-.65-.27c-.18-.18-.27-.4-.27-.65s.09-.48.27-.66c.18-.18.4-.27.65-.27Z"/>
    <path class="cls-3" d="M251.43,47.25v8.74c0,.41-.13.76-.4,1.05-.31.36-.69.53-1.15.53h-5.78l-.72-.89v-.58h3.5l-2.38-7.08h1.64l2.39,7.08h.78c.12,0,.21-.04.29-.12.05-.08.07-.16.07-.25v-8.49h1.76ZM247.56,61.14c-.16-.26-.25-.53-.25-.82,0-.41.12-.75.37-.99.25-.25.57-.38.99-.38.22,0,.47.04.74.13v.76c-.19-.06-.37-.09-.53-.09-.42,0-.63.23-.63.69,0,.17.05.33.14.46.12.15.29.23.52.23h.98v.36l-.35.42h-2.55v-.78h.58Z"/>
    <path class="cls-3" d="M255.18,47.25v9.96l-.89.72h-.87v-10.69h1.76Z"/>
    <path class="cls-3" d="M263.86,50.95v5.16h.74v1.47h-.75c-.08,1.16-.54,2.05-1.38,2.67-.69.5-1.55.75-2.57.75-.13,0-.3,0-.53-.01l-.71-.88v-.62c.31.05.61.07.89.07,1.7,0,2.55-.83,2.55-2.48v-6.13h1.76ZM262.98,47.77c.26,0,.48.09.66.27.18.18.27.4.27.66s-.09.47-.27.65c-.18.18-.4.27-.66.27s-.48-.09-.66-.27-.27-.4-.27-.66.09-.48.27-.66c.18-.18.4-.27.66-.27Z"/>
    <path class="cls-3" d="M271.36,47.05v1.63l-3.01,1.83c1.24.45,2.23,1.19,2.98,2.22.67.94,1.01,1.97,1.01,3.09,0,.52-.15.94-.44,1.27-.29.33-.67.49-1.13.49h-6.29v-1.47h5.72c.25,0,.38-.13.38-.38-.08-.9-.41-1.69-.99-2.36-.79-.93-1.87-1.47-3.24-1.62-.07,0-.1-.04-.1-.12v-1.64l5.12-2.94Z"/>
    <path class="cls-3" d="M277.51,50.95v5.16h.74v1.47h-.75c-.08,1.15-.53,2.04-1.37,2.65-.69.51-1.54.76-2.55.76-.17,0-.36,0-.56-.01l-.71-.88v-.62c.31.05.61.07.89.07,1.7,0,2.55-.83,2.55-2.48v-6.13h1.76Z"/>
    <path class="cls-3" d="M280.82,56.11v1.47h-2.67v-1.47h2.67Z"/>
    <path class="cls-3" d="M283.38,56.11v1.47h-2.67v-1.47h2.67Z"/>
    <path class="cls-3" d="M285.95,56.11v1.47h-2.67v-1.47h2.67Z"/>
    <path class="cls-3" d="M288.51,56.11v1.47h-2.67v-1.47h2.67Z"/>
    <path class="cls-3" d="M290.98,56.11c-.23-.56-.35-1.18-.35-1.87,0-1.13.35-2.01,1.05-2.64.59-.53,1.34-.8,2.25-.81.82,0,1.49.19,2,.58.63.48.95,1.17.95,2.08v2.31c0,.09.02.17.07.25.08.08.16.12.26.12h.13v1.47h-.63c-.43,0-.8-.15-1.11-.46-.47.6-1.1.89-1.87.89-.84,0-1.55-.31-2.13-.92h-.03l-.4.49h-2.75v-1.47h2.57ZM295.13,53.44c0-.36-.11-.64-.33-.86-.2-.22-.49-.33-.87-.33-.47,0-.85.18-1.13.55-.28.37-.43.86-.43,1.47,0,.67.14,1.22.43,1.64.29.42.66.63,1.11.63.41,0,.82-.2,1.21-.59v-2.51Z"/>
    <path class="cls-3" d="M301.59,47.25v8.74c0,.4-.13.75-.39,1.04-.3.37-.69.55-1.17.55h-2.78v-1.47h2.22c.11,0,.2-.04.27-.12.07-.07.1-.15.1-.25v-8.49h1.75Z"/>
    <path class="cls-3" d="M305.34,47.25v9.96l-.89.72h-.87v-10.69h1.76Z"/>
    <path class="cls-3" d="M35.76,74.28v3.66h-1.75v-8.5h5.97v1.46h-4.23v1.92h3.73v1.46h-3.73Z"/>
    <path class="cls-3" d="M42.91,74.28v2.2h4.61v1.46h-6.35v-8.5h6.14v1.46h-4.39v1.92h4.07v1.46h-4.07Z"/>
    <path class="cls-3" d="M48.91,77.94v-8.5h3.33c1.24,0,2.14.33,2.68.99.69.82,1.03,1.91,1.03,3.27s-.34,2.45-1.03,3.27c-.55.66-1.45.99-2.68.99h-3.33ZM50.65,76.48h1.58c1.31,0,1.97-.93,1.97-2.79s-.66-2.79-1.97-2.79h-1.58v5.58Z"/>
    <path class="cls-3" d="M59.07,74.28v2.2h4.61v1.46h-6.35v-8.5h6.14v1.46h-4.39v1.92h4.07v1.46h-4.07Z"/>
    <path class="cls-3" d="M66.81,74.56v3.37h-1.75v-8.5h4.56c.72,0,1.27.19,1.65.58.43.44.64,1.01.64,1.72,0,1.03-.48,1.73-1.45,2.1.55.21.88.48,1,.8.09.23.15.99.19,2.29,0,.32.13.55.37.69v.32h-1.88c-.17-.32-.26-.8-.26-1.44,0-.16,0-.35.01-.58v-.34c0-.67-.36-1.01-1.08-1.01h-2.01ZM66.81,73.1h2.11c.44,0,.75-.07.93-.21.21-.18.32-.48.32-.9s-.11-.69-.32-.87c-.18-.15-.49-.23-.93-.23h-2.11v2.21Z"/>
    <path class="cls-3" d="M78.4,76.23h-3.18l-.57,1.71h-1.78l3.02-8.5h1.94l2.94,8.5h-1.81l-.56-1.71ZM77.93,74.77l-1.1-3.33-1.12,3.33h2.22Z"/>
    <path class="cls-3" d="M83.62,69.43v7.04h4.07v1.46h-5.82v-8.5h1.75Z"/>
    <path class="cls-3" d="M98.33,73.31v4.63h-1.05l-.21-1.21c-.62.89-1.48,1.34-2.55,1.34-1.25,0-2.25-.46-3-1.38-.66-.81-.98-1.81-.98-2.99,0-1.4.43-2.51,1.28-3.33.74-.71,1.69-1.07,2.84-1.07s1.98.29,2.66.87c.59.49.93,1.14,1.02,1.95h-1.64c-.32-.88-1.01-1.32-2.04-1.32-.79,0-1.4.28-1.82.86-.37.51-.56,1.18-.56,2.01,0,.92.26,1.65.77,2.2.44.48,1,.71,1.66.71.7,0,1.28-.26,1.73-.77.23-.27.37-.61.42-1.03h-1.94v-1.46h3.41Z"/>
    <path class="cls-3" d="M101.75,74.28v2.2h4.61v1.46h-6.35v-8.5h6.14v1.46h-4.39v1.92h4.07v1.46h-4.07Z"/>
    <path class="cls-3" d="M111.44,69.3c1.2,0,2.17.38,2.9,1.15.79.83,1.19,1.91,1.19,3.23s-.4,2.38-1.19,3.23c-.72.77-1.69,1.15-2.9,1.15s-2.19-.38-2.91-1.15c-.79-.85-1.19-1.92-1.19-3.23s.4-2.38,1.19-3.23c.73-.77,1.7-1.15,2.91-1.15ZM111.44,70.8c-.76,0-1.36.3-1.79.89-.37.51-.56,1.18-.56,1.99,0,.93.24,1.67.72,2.2.42.46.96.69,1.63.69.76,0,1.35-.3,1.78-.89.37-.51.56-1.18.56-1.99,0-.93-.24-1.67-.72-2.2-.42-.46-.96-.69-1.62-.69Z"/>
    <path class="cls-3" d="M124.27,73.31v4.63h-1.05l-.21-1.21c-.63.89-1.48,1.34-2.55,1.34-1.25,0-2.25-.46-3.01-1.38-.66-.81-.98-1.81-.98-2.99,0-1.4.43-2.51,1.28-3.33.74-.71,1.69-1.07,2.84-1.07s1.98.29,2.66.87c.59.49.93,1.14,1.02,1.95h-1.64c-.32-.88-1-1.32-2.04-1.32-.79,0-1.4.28-1.82.86-.37.51-.56,1.18-.56,2.01,0,.92.26,1.65.77,2.2.44.48,1,.71,1.66.71.7,0,1.28-.26,1.73-.77.23-.27.37-.61.42-1.03h-1.94v-1.46h3.41Z"/>
    <path class="cls-3" d="M127.69,74.56v3.37h-1.75v-8.5h4.56c.72,0,1.27.19,1.65.58.43.44.64,1.01.64,1.72,0,1.03-.48,1.73-1.45,2.1.55.21.88.48,1,.8.09.23.15.99.19,2.29,0,.32.13.55.37.69v.32h-1.88c-.17-.32-.26-.8-.26-1.44,0-.16,0-.35.01-.58v-.34c0-.67-.36-1.01-1.08-1.01h-2.01ZM127.69,73.1h2.11c.44,0,.75-.07.93-.21.21-.18.32-.48.32-.9s-.11-.69-.32-.87c-.18-.15-.49-.23-.93-.23h-2.11v2.21Z"/>
    <path class="cls-3" d="M139.28,76.23h-3.18l-.57,1.71h-1.78l3.02-8.5h1.94l2.94,8.5h-1.8l-.56-1.71ZM138.8,74.77l-1.1-3.33-1.12,3.33h2.22Z"/>
    <path class="cls-3" d="M144.49,74.91v3.03h-1.75v-8.5h3.75c.95,0,1.66.26,2.13.77.41.45.62,1.07.62,1.86,0,.93-.26,1.65-.78,2.16-.46.45-1.05.68-1.78.68h-2.19ZM144.49,73.45h1.63c.92,0,1.38-.42,1.38-1.27s-.46-1.28-1.38-1.28h-1.63v2.55Z"/>
    <path class="cls-3" d="M155.65,74.08h-3.37v3.86h-1.75v-8.5h1.75v3.18h3.36v-3.18h1.76v8.5h-1.75v-3.86Z"/>
    <path class="cls-3" d="M160.89,69.43v8.5h-1.75v-8.5h1.75Z"/>
    <path class="cls-3" d="M169.69,72.27h-1.66c-.23-.98-.83-1.47-1.82-1.47-.74,0-1.3.29-1.7.88-.34.52-.51,1.2-.51,2.05,0,.97.21,1.7.64,2.21.37.44.87.65,1.51.65.55,0,.98-.14,1.31-.43s.51-.69.57-1.22h1.7c-.06,1.03-.45,1.82-1.19,2.39-.63.49-1.44.74-2.43.74-1.27,0-2.25-.44-2.94-1.33-.6-.77-.9-1.78-.9-3.04,0-1.44.4-2.56,1.19-3.35.69-.7,1.59-1.05,2.7-1.05,1.31,0,2.31.44,2.98,1.32.33.44.52.99.57,1.65Z"/>
    <path class="cls-3" d="M174.99,69.43v8.5h-1.75v-8.5h1.75Z"/>
    <path class="cls-3" d="M181.9,77.94l-3.42-5.88v5.88h-1.75v-8.5h1.79l3.37,5.78v-5.78h1.75v8.5h-1.75Z"/>
    <path class="cls-3" d="M187.13,74.28v3.66h-1.75v-8.5h5.97v1.46h-4.23v1.92h3.73v1.46h-3.73Z"/>
    <path class="cls-3" d="M196.23,69.3c1.2,0,2.17.38,2.9,1.15.79.83,1.19,1.91,1.19,3.23s-.4,2.38-1.19,3.23c-.72.77-1.69,1.15-2.9,1.15s-2.19-.38-2.91-1.15c-.79-.85-1.19-1.92-1.19-3.23s.4-2.38,1.19-3.23c.73-.77,1.7-1.15,2.91-1.15ZM196.23,70.8c-.76,0-1.36.3-1.79.89-.37.51-.56,1.18-.56,1.99,0,.93.24,1.67.72,2.2.42.46.96.69,1.63.69.76,0,1.35-.3,1.78-.89.37-.51.56-1.18.56-1.99,0-.93-.24-1.67-.72-2.2-.42-.46-.96-.69-1.62-.69Z"/>
    <path class="cls-3" d="M203.4,74.56v3.37h-1.75v-8.5h4.56c.72,0,1.27.19,1.65.58.43.44.64,1.01.64,1.72,0,1.03-.48,1.73-1.45,2.1.55.21.88.48,1,.8.09.23.15.99.19,2.29,0,.32.13.55.37.69v.32h-1.88c-.17-.32-.26-.8-.26-1.44,0-.16,0-.35.01-.58v-.34c0-.67-.36-1.01-1.08-1.01h-2.01ZM203.4,73.1h2.11c.44,0,.75-.07.93-.21.21-.18.32-.48.32-.9s-.11-.69-.32-.87c-.18-.15-.49-.23-.93-.23h-2.11v2.21Z"/>
    <path class="cls-3" d="M211.79,71.32v6.61h-1.75v-8.5h2.61l1.54,6.77,1.48-6.77h2.64v8.5h-1.75v-6.61l-1.51,6.61h-1.75l-1.53-6.61Z"/>
    <path class="cls-3" d="M225.02,76.23h-3.18l-.57,1.71h-1.78l3.02-8.5h1.94l2.95,8.5h-1.81l-.56-1.71ZM224.54,74.77l-1.11-3.33-1.12,3.33h2.22Z"/>
    <path class="cls-3" d="M232.13,70.9v7.04h-1.75v-7.04h-2.59v-1.46h6.81v1.46h-2.47Z"/>
    <path class="cls-3" d="M237.4,69.43v8.5h-1.75v-8.5h1.75Z"/>
    <path class="cls-3" d="M242.84,69.3c1.2,0,2.17.38,2.9,1.15.79.83,1.19,1.91,1.19,3.23s-.4,2.38-1.19,3.23c-.72.77-1.69,1.15-2.9,1.15s-2.19-.38-2.91-1.15c-.79-.85-1.19-1.92-1.19-3.23s.4-2.38,1.19-3.23c.73-.77,1.7-1.15,2.91-1.15ZM242.84,70.8c-.76,0-1.36.3-1.79.89-.37.51-.56,1.18-.56,1.99,0,.93.24,1.67.72,2.2.42.46.96.69,1.63.69.76,0,1.35-.3,1.78-.89.37-.51.56-1.18.56-1.99,0-.93-.24-1.67-.72-2.2-.42-.46-.96-.69-1.61-.69Z"/>
    <path class="cls-3" d="M253.43,77.94l-3.42-5.88v5.88h-1.75v-8.5h1.79l3.37,5.78v-5.78h1.75v8.5h-1.75Z"/>
    <path class="cls-3" d="M266.16,72.27h-1.66c-.23-.98-.84-1.47-1.82-1.47-.74,0-1.3.29-1.7.88-.34.52-.51,1.2-.51,2.05,0,.97.21,1.7.64,2.21.37.44.87.65,1.51.65.55,0,.98-.14,1.31-.43.32-.28.51-.69.57-1.22h1.7c-.06,1.03-.45,1.82-1.19,2.39-.63.49-1.44.74-2.43.74-1.27,0-2.25-.44-2.94-1.33-.6-.77-.9-1.78-.9-3.04,0-1.44.4-2.56,1.19-3.35.69-.7,1.59-1.05,2.7-1.05,1.31,0,2.31.44,2.98,1.32.33.44.52.99.57,1.65Z"/>
    <path class="cls-3" d="M269.28,74.28v2.2h4.61v1.46h-6.35v-8.5h6.14v1.46h-4.39v1.92h4.07v1.46h-4.07Z"/>
    <path class="cls-3" d="M280.44,77.94l-3.42-5.88v5.88h-1.75v-8.5h1.79l3.37,5.78v-5.78h1.75v8.5h-1.75Z"/>
    <path class="cls-3" d="M287.57,70.9v7.04h-1.75v-7.04h-2.59v-1.46h6.8v1.46h-2.47Z"/>
    <path class="cls-3" d="M292.85,74.28v2.2h4.61v1.46h-6.35v-8.5h6.14v1.46h-4.39v1.92h4.07v1.46h-4.07Z"/>
    <path class="cls-3" d="M300.59,74.56v3.37h-1.75v-8.5h4.56c.72,0,1.27.19,1.65.58.43.44.64,1.01.64,1.72,0,1.03-.48,1.73-1.45,2.1.55.21.88.48,1,.8.09.23.15.99.19,2.29,0,.32.13.55.37.69v.32h-1.88c-.17-.32-.26-.8-.26-1.44,0-.16,0-.35.01-.58v-.34c0-.67-.36-1.01-1.08-1.01h-2.01ZM300.59,73.1h2.11c.44,0,.75-.07.93-.21.21-.18.32-.48.32-.9s-.11-.69-.32-.87c-.18-.15-.49-.23-.93-.23h-2.11v2.21Z"/>
  </g>
  <polygon class="cls-2" points="122.89 123.38 .28 123.38 0 0 74.29 0 74.29 11.64 11.66 11.64 11.89 111.74 111.25 111.74 111.25 91.13 122.89 91.13 122.89 123.38"/>
  <polygon class="cls-1" points="122.89 32.24 111.25 32.24 111.25 11.64 88.88 11.64 88.88 0 122.89 0 122.89 32.24"/>
</svg>