<?xml version="1.0" encoding="UTF-8"?>
<svg id="Layer_1" data-name="Layer 1" xmlns="http://www.w3.org/2000/svg" viewBox="0 0 403.03 192.99">
  <defs>
    <style>
      .cls-1 {
        fill: #db2b3f;
      }

      .cls-2 {
        fill: #757b7f;
      }

      .cls-3 {
        fill: #159c53;
      }
    </style>
  </defs>
  <g>
    <path class="cls-1" d="M194.29,79.49c.33-.83.75-1.66,1.16-2.5-14.14-9.9-26.37-29.11-28.7-37.68-5.16,4.16-5.24,14.81-5.24,14.81,13.64,18.47,28.2,23.96,32.77,25.37"/>
    <path class="cls-3" d="M192.63,84.73c.17-.75.33-1.5.58-2.16-13.97-4.57-28.78-17.55-32.77-24.04-3.24,4.66-.75,13.39-.75,13.39,15.72,11.89,29.11,12.81,32.94,12.81"/>
    <path class="cls-1" d="M197.2,74.08c.58-.91,1.25-1.75,1.91-2.58-12.23-15.72-19.21-41.01-18.8-51.32-7.15,2.83-10.9,14.64-10.9,14.64,8.9,25.29,23.29,36.35,27.78,39.26"/>
    <path class="cls-1" d="M205.1,66.1c-8.4-21.04-8.07-50.99-4.41-62.14-8.73.83-16.47,12.56-16.47,12.56,1.75,30.69,14.14,47.25,18.05,51.74.91-.75,1.83-1.5,2.83-2.16"/>
    <path d="M195.21,108.02c-3.58,4.33-9.98,7.9-12.89,8.4,1.25,1.83,4.82,2.08,4.82,2.08,5.32-3.41,7.65-7.15,8.65-9.23l-.58-1.25"/>
    <path d="M192.63,99.87c-8.65,3.58-21.29,3.41-25.95,1.83.33,3.58,5.07,6.82,5.07,6.82,12.39-.58,19.21-5.57,21.21-7.24l-.33-1.41"/>
    <path class="cls-3" d="M191.88,90.39c0-.75.08-1.41.17-2.16-12.81-.83-28.03-8.32-32.86-12.89-1.66,4.66,2.41,11.48,2.41,11.48,15.22,6.24,26.37,4.57,30.28,3.58"/>
    <path d="M194.21,105.44l-.42-1.16h0c-5.99,4.41-15.72,6.74-19.63,6.4.91,2.66,5.24,4.24,5.24,4.24,9.23-2.83,13.56-7.74,14.81-9.48"/>
    <path class="cls-3" d="M192.13,96.79c-.08-.58-.17-1.25-.17-1.83-10.98,1.58-25.29-2.08-30.19-5.16-.58,4.24,4.08,9.32,4.08,9.32,14.06,2.66,23.21-.83,26.28-2.33"/>
    <path class="cls-2" d="M206.93,69.59s1.75,4.82,2.58,6.82c.75,2,2.25,5.16-1.66,9.65-1.66,2-4.41,5.66-5.66,10.48-2,7.9-.33,18.3,12.14,24.62,13.06,6.65,16.8-12.56,19.3-11.73,2.08.67,3.74,1.66,8.98.67-1.66,1.41-5.66,1.66-8.07,3.91-2.41,2.16-10.15,16.55-17.88,17.55,4.49-4.33.67-6.32-2.58-7.9-13.48-6.24-18.55-19.63-18.55-30.53.08-9.98,4.33-17.38,11.4-23.54"/>
    <path class="cls-2" d="M236.13,98.71c-3.74-6.57-13.56-7.24-20.63-3.83-6.99,3.41-12.23,12.73-12.23,12.73,13.31-16.64,24.62-13.06,28.78-9.32h0l.25.25c.33.33.83,1,.25,1.25l-.91.25c-1.08.08-2.83-1.41-2.83-1.41,1.41,5.82,4.49,3.74,5.41,2.99.58,1.83,0,2.74,0,2.74.91-.58,2-.83,3.33-.67,6.16.91,5.74,7.24,5.74,9.15,4.33-10.65-7.15-14.14-7.15-14.14"/>
  </g>
  <g>
    <polyline class="cls-2" points="14.9 158.23 13.82 158.73 13.32 159.81 13.82 160.89 14.9 161.39 15.9 160.89 16.31 159.81 15.9 158.73"/>
    <polyline class="cls-2" points="18.39 158.23 17.31 158.73 16.9 159.81 17.31 160.89 18.39 161.39 19.39 160.89 19.89 159.81 19.39 158.73"/>
    <polyline class="cls-2" points="51 142.09 49.84 142.51 49.42 143.59 49.84 144.75 51 145.17 52.08 144.75 52.5 143.59 52.08 142.51"/>
    <path class="cls-2" d="M49.67,154.4h-21.21v-2.99c0-.75-.08-1.41-.25-2.08-.17-.58-.42-1.16-.83-1.58-.42-.42-.91-.75-1.58-1-.67-.25-1.5-.33-2.41-.33-.67,0-1.25,0-1.91.08-.58.08-1.16.17-1.83.33v7.57h-2.08c-1.08,0-2.08-.08-2.83-.33-.75-.17-1.33-.5-1.83-.91-.42-.42-.75-.83-1-1.41-.17-.58-.25-1.16-.25-1.91,0-.58.08-1.16.17-1.66.08-.5.25-1,.42-1.58l-2.91.5c-.08.5-.17,1-.25,1.5-.08.58-.17,1.08-.17,1.5,0,.83.17,1.66.42,2.41s.67,1.5,1.33,2.08c.58.58,1.5,1.08,2.5,1.41,1.08.33,2.41.5,3.99.5h5.24v-7.82l.42-.08h.5c.91,0,1.5.25,1.91.58.33.42.5,1.08.5,2.08v5.16h26.7v-9.9h-2.74"/>
    <path class="cls-2" d="M83.19,154.4h-1.08c-1.08,0-1.83-.25-2.25-.75-.42-.5-.67-1.25-.67-2.41,0-.75.17-1.41.58-1.91.42-.5.83-.75,1.41-.75s1,.25,1.33.67c.33.42.58,1.08.58,2M95.5,154.4h-9.57v-2.74c0-.83-.08-1.5-.33-2.16-.17-.67-.5-1.16-.83-1.66-.33-.5-.83-.83-1.33-1.08-.58-.25-1.16-.33-1.91-.33s-1.5.08-2.08.33c-.67.25-1.16.58-1.58,1s-.83,1-1.08,1.75c-.25.67-.33,1.5-.33,2.5l-.08.83-.33.75-.5.58-.75.25h-11.23v-.08c0-.91-.17-1.83-.42-2.74-.25-.91-.75-1.75-1.33-2.5s-1.41-1.41-2.33-2c-1-.58-2.16-.91-3.66-1.16l-.17,2.33c1.08.33,2,.67,2.66,1.16.67.5,1.16,1,1.58,1.58.33.58.58,1.16.75,1.75.17.58.17,1.16.17,1.66h-6.32v2.25h19.8c.91,0,1.58-.17,2.08-.5.5-.33.83-.75,1-1.41l.42.67.83.58,1.25.42c.5.08,1.08.17,1.75.17h16.64v-15.55h-2.74v13.39Z"/>
    <path class="cls-2" d="M102.99,141.18c-.75.08-1.41.17-2.16.25v1.75l.83.08.83.08v13.39h2.74v-15.55c-.75-.08-1.5-.08-2.25,0"/>
    <polyline class="cls-2" points="117.38 150.24 118.54 149.74 118.96 148.66 118.54 147.58 117.38 147.17 116.3 147.58 115.88 148.66 116.3 149.74"/>
    <path class="cls-2" d="M120.29,154.82c0,1-.08,1.75-.17,2.33-.17.67-.33,1.16-.58,1.5l-.91.83-1.25.25c-1,0-1.75-.42-2.25-1.16-.42-.83-.67-2-.67-3.74,0-.58.08-1.16.17-1.75.17-.58.33-1.25.58-2l-2.91.5c-.17.58-.33,1.25-.42,1.91-.08.67-.17,1.33-.17,1.83,0,1,.08,1.83.33,2.66.25.83.5,1.5,1,2.08.42.58,1,1.08,1.75,1.41.67.33,1.5.5,2.5.5.91,0,1.83-.08,2.5-.42.75-.25,1.33-.67,1.83-1.25.5-.58.83-1.33,1.08-2.25s.33-2.08.33-3.49v-7.9h-2.74"/>
    <path class="cls-2" d="M127.11,141.18c-.75.08-1.41.17-2.08.25v1.75l.83.08.75.08v13.39h2.74v-15.55c-.83-.08-1.58-.08-2.25,0"/>
    <polyline class="cls-2" points="167.04 158.23 165.96 158.73 165.54 159.81 165.96 160.89 167.04 161.39 168.12 160.89 168.53 159.81 168.12 158.73"/>
    <polyline class="cls-2" points="163.54 158.23 162.46 158.73 162.05 159.81 162.46 160.89 163.54 161.39 164.62 160.89 165.04 159.81 164.62 158.73"/>
    <path class="cls-2" d="M182.09,154.4h-7.24c.25-.75.58-1.41.91-2.08.42-.67.83-1.25,1.25-1.83.5-.58,1-.91,1.5-1.25.5-.33,1.08-.5,1.66-.5.67,0,1.16.25,1.41.67.25.5.42,1.16.42,2.25M196.82,154.4h-4.57v-13.31h-2.74v13.31h-4.49v-3.08c0-1.66-.42-2.83-1.16-3.66-.75-.83-1.83-1.25-3.16-1.25-.67,0-1.41.17-2,.42-.67.33-1.25.67-1.75,1.08-.5.5-1,.91-1.41,1.5-.42.5-.75,1-1,1.5h0c.08-.5.17-1,.25-1.5.08-.5.08-1.08.08-1.66v-6.65h-2.74v13.31h-4.16v-7.65h-2.74v7.65h-28.45v-7.65h-2.74v10.06c0,1.16-.17,1.91-.67,2.33-.42.42-1.08.67-2,.67l-.91-.08-.25,2.25,1.08.08c1.08,0,2-.17,2.66-.42.67-.25,1.25-.67,1.66-1.16.42-.5.67-1.08.83-1.66.17-.67.25-1.33.25-2v-.08h62.8v-15.55h-2.74v13.23h.08Z"/>
    <polyline class="cls-2" points="209.62 145.25 210.71 144.75 211.12 143.67 210.71 142.51 209.62 142.09 208.54 142.51 208.13 143.67 208.54 144.75"/>
    <polyline class="cls-2" points="213.2 145.25 214.2 144.75 214.62 143.67 214.2 142.51 213.2 142.09 212.12 142.51 211.62 143.67 212.12 144.75"/>
    <path class="cls-2" d="M246.89,154.4h-1.08c-1.08,0-1.83-.25-2.25-.75s-.67-1.25-.67-2.41c0-.75.17-1.41.58-1.91.42-.5.91-.75,1.41-.75.58,0,1,.25,1.41.67.33.42.58,1.08.58,2M213.2,154.4h-1l-1.25-.25-.83-.67-.5-.91-.17-1.16c0-.83.25-1.58.67-2.08s1.08-.75,1.83-.75h.58l.67.08v5.74h0ZM248.55,147.91c-.33-.5-.83-.83-1.33-1.08-.58-.25-1.16-.42-1.91-.42s-1.5.08-2.08.33c-.67.25-1.16.58-1.66,1-.42.5-.83,1.08-1.08,1.75-.25.67-.42,1.5-.42,2.5l-.08.83-.33.75-.5.58-.75.25h-22.46v-7.65c-.58-.08-1.16-.17-1.83-.25-.58-.08-1.25-.08-1.91-.08-1,0-1.75.17-2.5.42-.67.33-1.25.75-1.75,1.25-.42.5-.75,1.08-1,1.75-.25.67-.33,1.33-.33,2,0,1.5.42,2.66,1.25,3.49.83.83,2.16,1.25,3.91,1.25h26.12c.91,0,1.58-.17,2.08-.5.5-.33.83-.75,1.08-1.41l.42.67.83.58,1.25.42c.5.08,1.08.17,1.75.17h4.24v-4.91c0-.83-.08-1.5-.33-2.16-.08-.5-.33-1-.67-1.5"/>
    <path class="cls-2" d="M275.75,151.32l-.83,1-.91-.91-.83-.83-.83-.67-1-.5,1.25-.67c.42-.17.91-.25,1.5-.25.67,0,1.16.17,1.5.5.42.33.58.75.58,1.25l-.42,1.08M292.56,154.4h-2.99c-3.66-.25-8.07.5-11.65-.25l-1.16-.58c.67-.58,1.16-1.16,1.5-1.75.33-.58.5-1.25.5-1.83,0-.5-.08-1.08-.25-1.5l-.91-1.16c-.42-.33-.91-.58-1.5-.83-.58-.17-1.25-.33-2.08-.33-1,0-1.91.17-2.83.58-.91.33-1.83.83-2.66,1.41l-.33,2.33c.58.17,1.08.42,1.41.67l1.08.75.91.83.91.91c-1.25.58-2.58.83-4.08.83h-12.56v-13.31h-2.33c-.75.08-1.41.17-2.16.25v1.75l.83.08.75.08v13.39h15.64c.91,0,1.91-.17,2.91-.42,1-.25,1.91-.58,2.74-1.08.58.42,1.33.83,2,1.08.75.25,1.66.42,2.58.42h16.14v-15.55h-2.74v13.23h.33Z"/>
    <path class="cls-2" d="M299.96,141.18c-.75.08-1.41.17-2.08.25v1.75l.83.08.75.08v13.39h2.74v-15.55c-.75-.08-1.5-.08-2.25,0"/>
    <polyline class="cls-2" points="312.35 145.25 313.43 144.75 313.85 143.67 313.43 142.51 312.35 142.09 311.27 142.51 310.85 143.67 311.27 144.75"/>
    <polyline class="cls-2" points="315.85 145.25 316.93 144.75 317.34 143.67 316.93 142.51 315.85 142.09 314.76 142.51 314.35 143.67 314.76 144.75"/>
    <path class="cls-2" d="M347.29,143.59h-1.16c-.91,0-1.33-.25-1.33-.83l.25-.5.58-.17.58.08.5.17.5-1.25-.75-.25c-1.66-.42-3.58.5-3.16,2.5l.25.42-.33-.08-.42-.08h-.75v1.58h5.32"/>
    <polyline class="cls-2" points="358.35 158.23 357.27 158.73 356.85 159.81 357.27 160.89 358.35 161.39 359.43 160.89 359.85 159.81 359.43 158.73"/>
    <polyline class="cls-2" points="354.86 158.23 353.78 158.73 353.36 159.81 353.78 160.89 354.86 161.39 355.94 160.89 356.35 159.81 355.94 158.73"/>
    <path class="cls-2" d="M372.99,154.4h-.83l-.75-.17-.42-.33-.25-.42-.08-.42.25-.83.75-.33.91.5.25,1.16M315.93,154.4h-1l-1.25-.25-.83-.67-.5-.91-.17-1.16c0-.83.25-1.58.67-2.08s1-.75,1.75-.75h.58l.67.08v5.74h.08ZM384.3,154.4h-4.33v-.33c0-1.5-.17-2.74-.5-3.83-.33-1.08-.83-1.91-1.5-2.66-.67-.67-1.5-1.16-2.41-1.5-.91-.33-2-.5-3.16-.5-.75,0-1.5.08-2.33.17-.83.08-1.5.25-2.16.5l-.17,2.25c.83-.17,1.58-.42,2.25-.5.67-.08,1.41-.17,2.08-.17,1,0,1.83.17,2.41.42.67.25,1.16.67,1.58,1.25.42.5.75,1.16.91,2,.17.83.25,1.75.25,2.83h-1.66c0-1.5-.25-2.66-.83-3.49-.58-.83-1.5-1.25-2.83-1.25-.58,0-1.08.08-1.5.25l-1.16.75-.75,1.08c-.17.42-.25.91-.25,1.41l.08.67.17.58h-9.07v-7.65h-2.74v7.65h-10.48v-7.65h-2.74v7.65h-24.79v-7.65c-.58-.08-1.16-.17-1.83-.25-.67-.08-1.25-.08-1.91-.08-1,0-1.75.17-2.5.42-.67.33-1.25.75-1.75,1.25-.42.5-.75,1.08-1,1.75-.25.67-.33,1.33-.33,2,0,1.5.42,2.66,1.25,3.49.83.83,2.16,1.25,3.91,1.25h72.37v-15.55h-2.74v13.48h.17Z"/>
    <path class="cls-2" d="M391.79,141.18c-.75.08-1.41.17-2.08.25v1.75l.83.08.83.08v13.39h2.74v-15.55c-.91-.08-1.66-.08-2.33,0"/>
    <path class="cls-2" d="M16.23,170.54c2.08,0,3.33.83,4.16,2.74l.08.17,2.33-.33-.08-.25c-1-2.66-3.24-4.08-6.57-4.08-4.49,0-7.15,2.66-7.15,7.07s2.66,7.07,7.15,7.07c1.83,0,3.41-.42,4.41-1.16v.91h2.08v-6.9h-6.4v1.75h3.99v.83c0,1.66-1.5,2.66-3.91,2.66-1.75,0-4.74-.67-4.74-5.32-.08-4.49,2.91-5.16,4.66-5.16"/>
    <polyline class="cls-2" points="27.96 176.44 34.11 176.44 34.11 174.7 27.96 174.7 27.96 170.71 36.61 170.71 36.61 168.96 25.55 168.96 25.55 182.77 37.03 182.77 37.03 181.02 27.96 181.02"/>
    <polyline class="cls-2" points="49.75 178.86 42.35 168.96 39.19 168.96 39.19 182.77 41.43 182.77 41.43 171.37 50 182.77 52 182.77 52 168.96 49.75 168.96"/>
    <polyline class="cls-2" points="57.99 176.44 64.14 176.44 64.14 174.7 57.99 174.7 57.99 170.71 66.64 170.71 66.64 168.96 55.58 168.96 55.58 182.77 67.14 182.77 67.14 181.02 57.99 181.02"/>
    <path class="cls-2" d="M78.62,172.78c0,1.5-1.25,2.16-3.83,2.16h-3.24v-4.24h3.24c2.66,0,3.83.67,3.83,2.08M81.11,172.7c0-2.41-2.25-3.74-6.16-3.74h-5.91v13.81h2.5v-6.07h3.74l3.58,6.07h2.74l-3.83-6.4c2.16-.67,3.33-1.91,3.33-3.66"/>
    <path class="cls-2" d="M91.68,176.86h-4.57l2.25-6.24M87.68,168.96l-5.66,13.81h2.58l1.66-4.16h5.99l1.66,4.16h2.58l-5.66-13.81h-3.16Z"/>
    <polyline class="cls-2" points="100.41 168.96 97.91 168.96 97.91 182.77 108.73 182.77 108.73 181.02 100.41 181.02"/>
    <path class="cls-2" d="M126.03,178.19c-.5,1.41-1.33,2.99-4.08,2.99-2.99,0-4.66-1.91-4.66-5.32s1.58-5.32,4.24-5.32c2.25,0,3.49.83,4.16,2.83l.08.25,2.33-.5-.08-.25c-.83-2.66-2.99-4.08-6.16-4.08-4.41,0-6.99,2.66-6.99,7.07s2.58,7.07,6.99,7.07c3.33,0,5.49-1.5,6.4-4.33l.08-.25-2.25-.33"/>
    <rect class="cls-2" x="130.6" y="168.96" width="2.5" height="13.81"/>
    <polyline class="cls-2" points="141.42 179.52 137.26 168.96 134.76 168.96 140.42 182.77 142.5 182.77 148.15 168.96 145.66 168.96"/>
    <rect class="cls-2" x="149.82" y="168.96" width="2.41" height="13.81"/>
    <polyline class="cls-2" points="158.72 168.96 156.31 168.96 156.31 182.77 167.12 182.77 167.12 181.02 158.72 181.02"/>
    <path class="cls-2" d="M182.18,176.86h-4.57l2.33-6.24M178.27,168.96l-5.66,13.81h2.58l1.66-4.16h5.99l1.66,4.16h2.58l-5.66-13.81h-3.16Z"/>
    <polyline class="cls-2" points="191.57 179.52 187.33 168.96 184.84 168.96 190.49 182.77 192.66 182.77 198.31 168.96 195.73 168.96"/>
    <rect class="cls-2" x="199.98" y="168.96" width="2.41" height="13.81"/>
    <path class="cls-2" d="M213.78,176.86h-4.57l2.33-6.24M213.12,168.96h-3.24l-5.66,13.81h2.58l1.66-4.16h5.99l1.66,4.16h2.58l-5.57-13.64v-.17Z"/>
    <polyline class="cls-2" points="215.78 170.71 221.02 170.71 221.02 182.77 223.43 182.77 223.43 170.71 228.76 170.71 228.76 168.96 215.78 168.96"/>
    <rect class="cls-2" x="230.59" y="168.96" width="2.41" height="13.81"/>
    <path class="cls-2" d="M247.47,175.86c0,3.49-1.66,5.32-4.66,5.32s-4.66-1.83-4.66-5.32,1.66-5.32,4.66-5.32c3.08,0,4.66,1.83,4.66,5.32M242.81,168.79c-4.49,0-7.15,2.58-7.15,7.07s2.58,7.07,7.15,7.07,7.15-2.58,7.15-7.07-2.66-7.07-7.15-7.07"/>
    <polyline class="cls-2" points="262.69 178.86 255.29 168.96 252.13 168.96 252.13 182.77 254.38 182.77 254.38 171.37 262.94 182.77 264.94 182.77 264.94 168.96 262.69 168.96"/>
    <path class="cls-2" d="M282.07,176.86h-4.57l2.33-6.24M281.41,168.96h-3.24l-5.66,13.81h2.58l1.66-4.16h5.99l1.66,4.16h2.58l-5.57-13.64v-.17Z"/>
    <path class="cls-2" d="M298.71,178.61c0,1.58-1.58,2.58-3.99,2.58s-3.99-1-3.99-2.58v-9.65h-2.5v9.57c0,2.74,2.5,4.49,6.4,4.49s6.4-1.75,6.4-4.49v-9.57h-2.33"/>
    <polyline class="cls-2" points="302.62 170.71 307.94 170.71 307.94 182.77 310.36 182.77 310.36 170.71 315.68 170.71 315.68 168.96 302.62 168.96"/>
    <polyline class="cls-2" points="327.49 174.7 319.51 174.7 319.51 168.96 317.09 168.96 317.09 182.77 319.51 182.77 319.51 176.44 327.49 176.44 327.49 182.77 329.9 182.77 329.9 168.96 327.49 168.96"/>
    <path class="cls-2" d="M343.88,175.86c0,3.49-1.58,5.32-4.66,5.32s-4.66-1.83-4.66-5.32,1.58-5.32,4.66-5.32c3.08,0,4.66,1.83,4.66,5.32M339.22,168.79c-4.57,0-7.15,2.58-7.15,7.07s2.58,7.07,7.15,7.07,7.15-2.58,7.15-7.07c-.08-4.49-2.66-7.07-7.15-7.07"/>
    <path class="cls-2" d="M357.85,172.78c0,1.5-1.25,2.16-3.83,2.16h-3.24v-4.24h3.24c2.66,0,3.83.67,3.83,2.08M360.35,172.7c0-2.41-2.25-3.74-6.16-3.74h-5.91v13.81h2.5v-6.07h3.74l3.58,6.07h2.66l-3.74-6.4c2.16-.67,3.33-1.91,3.33-3.66"/>
    <rect class="cls-2" x="364.01" y="168.96" width="2.5" height="13.81"/>
    <polyline class="cls-2" points="391.29 168.96 387.13 174.86 383.06 168.96 368.33 168.96 368.33 170.71 373.57 170.71 373.57 182.77 376.07 182.77 376.07 170.71 381.31 170.71 381.31 170.46 385.97 177.03 385.97 182.77 388.38 182.77 388.38 177.03 394.03 168.96"/>
  </g>
</svg>