<?xml version="1.0" encoding="UTF-8"?>
<svg id="Layer_1" data-name="Layer 1" xmlns="http://www.w3.org/2000/svg" viewBox="0 0 447.23 117.1">
  <defs>
    <style>
      .cls-1 {
        fill: #131718;
      }
    </style>
  </defs>
  <g>
    <rect class="cls-1" x="111.02" y="2.68" width=".75" height="109.1"/>
    <path class="cls-1" d="M21.58,111.05s.09.32-.29.52c-.12.07-.44.17-.75.17-1.07,0-1.65-.64-1.65-1.7,0-.96.58-1.82,1.6-1.82.88,0,1.29.56,1.23,1.78h-2.17c0,.78.49,1.22,1.16,1.22s.88-.17.88-.17M20.38,108.62c-.39,0-.76.35-.82.99.56.02,1.25,0,1.38,0,.1,0,.16-.07.16-.16,0-.46-.23-.82-.72-.82h0Z"/>
    <path class="cls-1" d="M61.03,110.86v-1.86c0-.48-.65-.72-.65-.72-.09-.02-.29-.09-.59-.09-1.09,0-1.92.77-1.92,1.88s.68,1.67,1.5,1.67c.32,0,.78-.19,1.08-.44.05.23.2.44.55.44.16,0,.32-.2.35-.37,0,0-.33-.15-.33-.51M60.39,110.96c-.18.15-.48.25-.73.25-.61,0-1.09-.46-1.09-1.23,0-.96.64-1.36,1.22-1.36.27,0,.49.05.6.12v2.22Z"/>
    <path class="cls-1" d="M38.27,110.86v-1.86c0-.48-.65-.72-.65-.72-.09-.02-.28-.09-.59-.09-1.09,0-1.91.77-1.91,1.88s.68,1.67,1.49,1.67c.33,0,.78-.19,1.09-.44.05.23.2.44.55.44.16,0,.32-.2.35-.37,0,0-.33-.15-.33-.51M37.62,110.96c-.18.15-.48.25-.73.25-.61,0-1.08-.46-1.08-1.23,0-.96.64-1.36,1.22-1.36.27,0,.49.05.6.12v2.22Z"/>
    <polyline class="cls-1" points="48.17 108.95 48.17 108.96 48.17 110.27"/>
    <path class="cls-1" d="M54.95,107.4c0-.2-.16-.36-.36-.36s-.36.16-.36.36.16.36.36.36.36-.16.36-.36"/>
    <path class="cls-1" d="M66.85,111.05s.09.32-.29.52c-.13.07-.45.17-.75.17-1.07,0-1.66-.64-1.66-1.7,0-.96.58-1.82,1.6-1.82.88,0,1.29.56,1.23,1.78h-2.17c0,.78.48,1.22,1.16,1.22s.88-.17.88-.17M65.66,108.62c-.39,0-.76.35-.82.99.55.02,1.25,0,1.39,0,.1,0,.16-.07.16-.16.01-.46-.23-.82-.72-.82h0Z"/>
    <path class="cls-1" d="M47.52,111.16h-2.09v-1.94h1.41c.25,0,.32-.05.39-.47h-1.8v-1.89h1.53c.3,0,.3-.27.32-.47h-2.52v5.3h2.5c.14,0,.23-.25.25-.49v-.04Z"/>
    <path class="cls-1" d="M28.77,110.15h1.85c.19,0,.08-.19-.04-.48h-1.82v.48Z"/>
    <path class="cls-1" d="M40.87,108.19c-.34,0-.75.17-1.03.34v-2.14c-.17.06-.65.01-.65.28v4.65c0,.13.04.17.13.23.18.09.55.18.94.18,1.12,0,2.05-.72,2.05-1.92,0-1.12-.73-1.62-1.44-1.62M40.32,111.31c-.15,0-.35-.02-.49-.08v-2.31c.19-.12.52-.21.71-.21.64,0,1.07.45,1.07,1.2,0,.94-.62,1.4-1.29,1.4"/>
    <path class="cls-1" d="M25.41,110.88v-4.49c-.17.06-.65.01-.65.28v1.61c-.09-.02-.28-.09-.59-.09-1.09,0-1.92.77-1.92,1.88s.68,1.67,1.49,1.67c.32,0,.78-.19,1.09-.44.05.23.2.44.55.44.16,0,.32-.2.35-.37,0,0-.31-.14-.33-.48M22.95,109.98c0-.96.64-1.36,1.21-1.36.27,0,.49.05.6.12v2.22c-.19.15-.49.25-.73.25-.61,0-1.08-.46-1.08-1.23"/>
    <path class="cls-1" d="M54.9,111.69v-3.49c-.17.06-.65.01-.65.28v3.2s.65,0,.65,0Z"/>
    <path class="cls-1" d="M52.07,108.19c-.42,0-.84.27-1.14.57,0-.03-.02-.07-.03-.11-.11-.31-.44-.46-.96-.46-.42,0-.82.26-1.12.54v-.53c-.17.06-.65.01-.65.28v3.2h.65v-.03.03s0-2.52,0-2.52h0c.19-.21.5-.45.84-.45s.63.09.65.61v.96c0,.68,0,1.14-.02,1.41h.67v-2.52c.18-.21.48-.46.87-.46.45,0,.72.29.72.89v2.09h.65v-2.1c0-.74-.24-1.39-1.12-1.39"/>
    <path class="cls-1" d="M13.73,108.65c-.11-.31-.44-.46-.96-.46-.41,0-.81.26-1.12.54v-.53c-.17.06-.65.01-.65.28v3.2s.65,0,.65,0v-.03.03-2.52h0c.19-.21.5-.45.85-.45s.62.09.65.61v.96c0,.68,0,1.14-.02,1.41h.67v-2.52c0-.18,0-.32-.06-.51"/>
    <path class="cls-1" d="M15.61,107.4c0-.2-.16-.36-.36-.36s-.35.16-.35.36.16.36.35.36.36-.16.36-.36"/>
    <path class="cls-1" d="M15.56,111.69v-3.49c-.17.06-.65.01-.65.28v3.2h.65Z"/>
    <path class="cls-1" d="M57.78,108.32c-.05-.06-.19-.12-.35-.12-.33,0-.64.23-.88.67v-.66c-.17.06-.65.01-.65.28v3.21h.65v-2.06c.01-.11.04-.2.08-.31.16-.37.31-.53.77-.53.12,0,.41-.41.37-.48"/>
    <path class="cls-1" d="M34.96,108.32c-.05-.06-.19-.12-.35-.12-.33,0-.64.23-.88.67v-.67c-.17.05-.65,0-.65.28v3.22h.65v-2.06c.01-.11.04-.2.08-.31.16-.37.31-.53.77-.53.12,0,.41-.41.38-.48"/>
    <path class="cls-1" d="M63.19,111.33c-.26,0-.52-.2-.56-.66-.03-.33,0-1.95,0-1.95,0,0,.19,0,.48,0,.14,0,.67-.03.75-.41h-1.23v-.46c-.17.05-.65.01-.65.28v2.6c0,.59.27,1.02.95,1.02.27,0,.57-.08.72-.21.14-.11.16-.27.12-.43,0,0-.21.23-.59.23"/>
    <path class="cls-1" d="M17.88,111.33c-.26,0-.51-.2-.55-.66-.03-.33,0-1.95,0-1.95,0,0,.19,0,.48,0,.14,0,.67-.03.75-.41h-1.23v-.46c-.17.05-.65.01-.65.28v2.6c0,.59.27,1.02.95,1.02.27,0,.57-.08.73-.21.14-.11.16-.27.12-.43,0,0-.21.23-.59.23"/>
    <path class="cls-1" d="M32.45,111.58c-.14-.28-.33-.75-.65-1.48-.31-.7-1.57-3.7-1.57-3.7h-.13s-1.79,4.21-2.23,5.16l-.05.12c.27,0,.39.01.51.01.09,0,.14-.03.17-.09.13-.27.37-.83.64-1.45h.48v-.47h-.32c.3-.72.55-1.34.81-1.96.11.27,1.33,3.35,1.5,3.74.08.19.13.23.23.23.12,0,.41-.01.63,0l-.05-.11Z"/>
  </g>
  <g>
    <path class="cls-1" d="M9.68,106.42c-.09.02-.15.05-.15.18v2.71c0,1.7-.67,1.94-1.36,1.94-.58,0-1.35-.24-1.35-1.85v-2.18c0-.37.03-.74.04-.83,0,0-.6,0-.65.07-.03.04-.04.04-.06.16v2.79c0,1.79.79,2.35,1.94,2.35.86,0,2.02-.26,2.02-2.48v-1.08c0-.64,0-1.51.02-1.81-.15,0-.23.01-.46.03"/>
    <path class="cls-1" d="M68.89,108.2c.28.02.49.11.55.38.04.13.01.33-.09.27-.15-.1-.36-.18-.55-.19-.3-.03-.53.13-.56.39-.02.22.13.37.29.48.2.13.44.26.65.41.33.22.46.51.43.82-.06.72-.74,1.03-1.34.94-.8-.12-.83-.79-.74-.82.21.18.54.35.83.37.38.03.6-.15.62-.41.02-.19-.08-.34-.34-.5-.2-.13-.37-.22-.55-.34-.31-.2-.51-.49-.47-.89.05-.62.63-.96,1.24-.91h.01Z"/>
  </g>
  <g>
    <path class="cls-1" d="M163.09,78.91h1.22l1.18,7.16-1.6.77c-.53-1.7-1.04-2.91-1.51-3.63-.66-.98-1.36-1.47-2.13-1.47-.56,0-1.08.26-1.56.77-.49.51-.87,1.27-1.15,2.27-.28,1-.43,2.17-.43,3.51,0,2.05.33,3.81.98,5.28.65,1.47,1.51,2.21,2.56,2.21.67,0,1.32-.32,1.94-.96.78-.79,1.44-1.85,2.01-3.19l1.34,1.64c-.87,1.96-1.66,3.33-2.38,4.1-1.11,1.19-2.34,1.78-3.7,1.78-1.13,0-2.15-.45-3.07-1.35-.92-.9-1.65-2.16-2.19-3.78-.54-1.62-.82-3.39-.82-5.3s.26-3.64.79-5.21c.53-1.57,1.26-2.79,2.17-3.66.92-.87,1.93-1.31,3.06-1.31s2.14.4,3,1.2l.28-.86Z"/>
    <path class="cls-1" d="M166.89,78.91h10.03l1.37,6.3-1.56.93c-.26-1.03-.57-1.86-.93-2.49-.35-.63-.74-1.05-1.17-1.25-.43-.2-.93-.31-1.49-.31h-1.84v4.97h.6c.45,0,.76-.05.92-.16.16-.11.27-.28.34-.51.07-.23.1-.7.1-1.39v-.76h1.53v8.44h-1.53v-.86c0-.58-.04-1.01-.13-1.28-.08-.27-.2-.45-.34-.55-.14-.09-.46-.14-.96-.14h-.54v4.58c0,.49.01.78.04.89.03.11.09.19.17.24.08.06.26.09.54.09h1.01c.75,0,1.39-.18,1.9-.54.52-.36.98-.94,1.38-1.74.41-.8.72-1.75.94-2.85l1.57.9-1.58,7.41h-10.39v-2.76h.3c.4,0,.67-.05.81-.14.14-.1.23-.26.29-.5.03-.14.04-.55.04-1.22v-10.86c0-.59-.03-.98-.07-1.16-.05-.18-.13-.32-.23-.41s-.31-.14-.61-.14h-.53v-2.76Z"/>
    <path class="cls-1" d="M179.61,78.91h4.87l3.52,11.63v-7.11c0-.61-.02-.99-.06-1.14-.06-.23-.13-.39-.23-.48s-.29-.14-.57-.14h-.59v-2.76h4.95v2.76h-.55c-.27,0-.47.05-.58.16-.12.11-.2.25-.24.43-.05.18-.07.57-.07,1.17v15.41h-2.47l-4.46-14.68v10.27c0,.59.02.97.07,1.13.04.16.12.29.23.39.11.1.31.14.58.14h.57v2.76h-4.97v-2.76h.51c.28,0,.48-.04.58-.12.11-.08.19-.22.25-.42.06-.2.09-.5.09-.9v-11.43c0-.44-.03-.76-.09-.96-.06-.2-.13-.35-.23-.44-.1-.09-.26-.14-.49-.14h-.64v-2.76Z"/>
    <path class="cls-1" d="M193.48,78.24h1.14l.12.67h6.77l.15-.67h1.15l1.49,6.99-1.6.93c-.36-1.16-.61-1.92-.76-2.27-.31-.69-.66-1.24-1.05-1.64-.3-.31-.59-.46-.89-.46-.14,0-.23.05-.28.16-.05.11-.08.36-.08.75v11.46c0,.68.01,1.1.04,1.27.03.17.08.3.15.41.07.1.16.17.28.2.12.03.45.05.97.05v2.76h-5.87v-2.76h.36c.39,0,.65-.04.75-.12.11-.08.19-.22.25-.43.06-.2.09-.63.09-1.28v-11.71c0-.33-.02-.54-.07-.63s-.14-.13-.29-.13c-.3,0-.63.18-1,.55-.37.37-.7.89-.98,1.57-.12.27-.36,1.01-.73,2.24l-1.58-.93,1.48-6.99Z"/>
    <path class="cls-1" d="M209.39,82.18v5.16h1.78c.7,0,1.23-.11,1.57-.32.35-.21.61-.52.78-.92.18-.4.26-.89.26-1.46,0-.52-.08-.97-.25-1.35-.16-.38-.4-.66-.7-.83-.3-.18-.79-.27-1.48-.27h-1.98ZM204.96,78.91h7.41c.48,0,1,.07,1.57.21.57.14,1.08.46,1.54.94.46.49.81,1.1,1.06,1.84.25.74.38,1.58.38,2.51,0,1.52-.33,2.74-.98,3.68-.65.94-1.42,1.55-2.31,1.84l2.47,4.77.1.22c.16.32.31.56.44.72s.26.27.4.34c.13.07.32.1.55.1h.52v2.76h-3.85l-3.86-8.58h-1v3.97c0,.69.02,1.12.07,1.31.05.19.12.33.22.42.1.09.3.13.61.13h.55v2.76h-5.88v-2.76h.54c.28,0,.48-.05.6-.15.12-.1.21-.25.26-.45.03-.12.04-.47.04-1.07v-11.21c0-.44-.02-.75-.07-.94-.04-.18-.11-.31-.21-.36-.14-.11-.3-.16-.48-.16h-.24s-.45.01-.45.01v-2.84Z"/>
    <path class="cls-1" d="M222.74,89.63h2.39l-1.16-5.47-1.22,5.47ZM223.11,78.91h2.7l3.61,15.38c.2.82.37,1.32.52,1.51.15.19.43.28.84.27v2.76h-5.69v-2.76h.35c.32-.01.54-.08.66-.22.13-.14.19-.31.19-.51,0-.17-.05-.52-.16-1.06l-.36-1.81h-3.65l-.45,2.01c-.09.43-.14.71-.14.84,0,.15.03.29.1.41s.17.21.32.27c.1.04.37.06.81.06v2.76h-4.65v-2.76c.3,0,.52-.04.66-.13.14-.08.25-.21.34-.38.09-.17.19-.49.3-.96l3.71-15.7Z"/>
    <path class="cls-1" d="M231.51,78.91h5.87v2.76h-.51c-.28,0-.47.03-.54.07-.14.09-.24.24-.3.43-.06.2-.09.51-.09.94v11.38c0,.46.01.74.04.84s.08.19.16.25c.08.06.24.09.47.09.77,0,1.39-.17,1.86-.5.47-.34.89-.87,1.27-1.61.38-.74.7-1.74.97-3.01l1.59.9-1.59,7.37h-9.17v-2.76h.57c.23,0,.41-.05.53-.16.12-.1.21-.24.26-.42.05-.18.08-.48.08-.92v-11.28c0-.48-.03-.82-.08-1.03-.06-.21-.13-.36-.23-.46-.1-.1-.27-.14-.5-.14h-.64v-2.76Z"/>
    <path class="cls-1" d="M253.15,89.91v4.31c0,.61.02.97.04,1.07.03.13.07.23.14.28.07.05.24.08.54.08h.88c.51,0,.93-.08,1.27-.24.34-.16.62-.48.86-.98.23-.5.35-1.09.35-1.78,0-.59-.08-1.09-.25-1.5-.17-.41-.42-.72-.75-.93-.33-.21-.84-.32-1.52-.32h-1.56ZM253.15,86.98h1.32c.69,0,1.2-.1,1.53-.29.33-.19.58-.48.74-.86.17-.39.25-.83.25-1.34s-.08-.97-.24-1.34c-.16-.37-.39-.64-.69-.79-.3-.16-.83-.23-1.6-.23h-1.32v4.86ZM248.76,81.66v-2.76h6.83c1.04,0,1.86.2,2.46.61.6.4,1.06.99,1.38,1.74.32.76.48,1.59.48,2.49,0,.66-.09,1.28-.25,1.87-.17.59-.42,1.11-.73,1.56-.32.45-.74.82-1.27,1.12.56.24.99.5,1.29.78.43.4.77.96,1.02,1.68.25.72.38,1.52.38,2.41,0,1.06-.19,2.03-.57,2.92-.39.89-.93,1.57-1.63,2.04-.7.46-1.73.7-3.08.7h-6.3v-2.76h.47c.32,0,.53-.04.64-.13.11-.09.19-.22.24-.39.05-.17.07-.54.07-1.12v-11.11c0-.59-.02-.97-.07-1.13-.05-.16-.12-.29-.24-.38-.11-.1-.33-.14-.64-.14h-.47Z"/>
    <path class="cls-1" d="M265.44,89.63h2.39l-1.16-5.47-1.22,5.47ZM265.81,78.91h2.7l3.61,15.38c.19.82.37,1.32.52,1.51.15.19.43.28.84.27v2.76h-5.69v-2.76h.35c.32-.01.53-.08.66-.22.13-.14.19-.31.19-.51,0-.17-.05-.52-.16-1.06l-.36-1.81h-3.66l-.45,2.01c-.09.43-.14.71-.14.84,0,.15.04.29.1.41s.17.21.32.27c.1.04.37.06.81.06v2.76h-4.65v-2.76c.3,0,.51-.04.65-.13.14-.08.25-.21.34-.38.09-.17.19-.49.3-.96l3.71-15.7Z"/>
    <path class="cls-1" d="M274.17,78.91h4.88l3.52,11.63v-7.11c0-.61-.02-.99-.06-1.14-.06-.23-.14-.39-.23-.48-.1-.09-.29-.14-.57-.14h-.58v-2.76h4.95v2.76h-.55c-.27,0-.47.05-.58.16-.12.11-.2.25-.24.43s-.07.57-.07,1.17v15.41h-2.47l-4.46-14.68v10.27c0,.59.02.97.07,1.13.04.16.12.29.23.39.11.1.31.14.58.14h.57v2.76h-4.97v-2.76h.51c.29,0,.48-.04.59-.12.11-.08.19-.22.25-.42.06-.2.1-.5.1-.9v-11.43c0-.44-.03-.76-.09-.96-.06-.2-.13-.35-.23-.44-.1-.09-.26-.14-.49-.14h-.64v-2.76Z"/>
    <path class="cls-1" d="M287.19,78.91h5.87v2.76h-.39c-.37,0-.6.03-.69.1-.14.1-.24.25-.3.44-.06.19-.09.55-.09,1.07v5.3l3.74-5.76c.17-.26.27-.43.3-.52.04-.09.05-.17.05-.24,0-.13-.03-.23-.1-.3-.07-.07-.23-.1-.5-.1h-.48v-2.76h5.44v2.76h-.18c-.25,0-.43.02-.52.07-.1.04-.22.14-.36.28-.14.14-.32.38-.55.7l-2.9,4.17,3.46,7.76c.3.67.52,1.06.66,1.18.18.17.45.26.79.26h.23v2.76h-6.07v-2.76h.24c.44,0,.71-.03.8-.1.1-.07.14-.15.14-.26,0-.11-.09-.39-.27-.81l-2.12-5-1.82,2.61v2c0,.49.03.83.09,1.02.06.19.14.33.24.41.11.08.32.12.64.12h.49v2.76h-5.87v-2.76h.44c.34,0,.57-.04.69-.13s.2-.24.25-.44c.05-.16.07-.55.07-1.17v-10.88c0-.59-.03-.99-.08-1.18-.05-.2-.14-.35-.25-.45s-.33-.15-.62-.15h-.49v-2.76Z"/>
    <path class="cls-1" d="M313.79,81.74c-.91,0-1.64.57-2.18,1.7-.68,1.43-1.02,3.28-1.02,5.53s.32,4.04.95,5.36c.54,1.12,1.27,1.69,2.16,1.69s1.62-.56,2.16-1.69c.64-1.34.96-3.14.96-5.39,0-1.58-.14-2.91-.41-3.98-.27-1.08-.64-1.88-1.11-2.42-.47-.53-.97-.8-1.52-.8M313.75,78.56c1.91,0,3.45.96,4.63,2.88,1.18,1.92,1.77,4.39,1.77,7.41,0,2.03-.27,3.83-.81,5.4-.54,1.57-1.29,2.79-2.24,3.64-.95.85-2.1,1.28-3.44,1.28-1.77,0-3.22-.81-4.36-2.43-1.37-1.95-2.05-4.56-2.05-7.83,0-3.04.6-5.52,1.8-7.46,1.2-1.93,2.76-2.9,4.7-2.9"/>
    <path class="cls-1" d="M321.44,78.91h9.94l1.36,6.36-1.56.9c-.25-.92-.49-1.62-.72-2.09-.23-.47-.5-.86-.82-1.18-.32-.32-.66-.52-1.03-.63-.25-.07-.68-.1-1.31-.1h-1.48v5.29h.76c.29,0,.51-.07.68-.21.16-.14.28-.33.35-.56.07-.23.11-.61.11-1.14v-1.05h1.55v8.91h-1.55v-1.29c0-.37-.02-.64-.06-.81-.05-.23-.12-.42-.21-.56-.09-.14-.2-.24-.32-.3-.12-.06-.33-.09-.64-.09h-.66v4.19c0,.5.03.84.08,1.02.05.17.14.31.25.39.12.09.34.13.66.13h.49v2.76h-5.87v-2.76h.39c.43,0,.72-.09.85-.28.14-.18.2-.56.2-1.12v-11.46c0-.52-.03-.87-.08-1.04-.05-.17-.14-.3-.26-.39-.12-.09-.36-.13-.72-.13h-.39v-2.76Z"/>
    <path class="cls-1" d="M340.26,78.24h1.14l.12.67h6.77l.15-.67h1.15l1.49,6.99-1.6.93c-.36-1.16-.61-1.92-.77-2.27-.3-.69-.66-1.24-1.05-1.64-.3-.31-.6-.46-.89-.46-.14,0-.23.05-.28.16-.05.11-.08.36-.08.75v11.46c0,.68.01,1.1.04,1.27.03.17.08.3.15.41.07.1.16.17.28.2.12.03.44.05.97.05v2.76h-5.87v-2.76h.36c.39,0,.64-.04.75-.12.11-.08.19-.22.25-.43.06-.2.09-.63.09-1.28v-11.71c0-.33-.02-.54-.07-.63-.05-.09-.14-.13-.29-.13-.3,0-.63.18-1,.55-.37.37-.7.89-.98,1.57-.12.27-.36,1.01-.73,2.24l-1.58-.93,1.48-6.99Z"/>
    <path class="cls-1" d="M351.72,78.91h5.87v2.76h-.54c-.3,0-.5.05-.61.15-.11.1-.19.24-.23.43-.05.18-.07.59-.07,1.21v3.47h4.37v-3.73c0-.46-.02-.77-.05-.93-.05-.23-.12-.39-.23-.47-.11-.09-.35-.13-.72-.13h-.46v-2.76h5.88v2.76h-.49c-.33,0-.55.05-.66.14s-.18.22-.23.4c-.05.17-.07.59-.07,1.25v10.8c0,.67.03,1.1.08,1.29.05.2.14.33.25.42.11.08.37.12.77.12h.34v2.76h-5.88v-2.76h.39c.36,0,.61-.05.74-.14.13-.1.22-.23.27-.41.05-.18.07-.61.07-1.27v-4.21h-4.37v4.21c0,.67.02,1.08.05,1.25.06.24.15.39.26.47.12.08.36.11.73.11h.4v2.76h-5.87v-2.76h.4c.34,0,.57-.05.7-.14.13-.1.22-.23.27-.4.05-.17.07-.55.07-1.13v-10.83c0-.68-.03-1.12-.07-1.32-.05-.2-.13-.35-.23-.45-.1-.1-.31-.14-.61-.14h-.54v-2.76Z"/>
    <path class="cls-1" d="M366.24,78.91h10.03l1.37,6.3-1.56.93c-.26-1.03-.57-1.86-.93-2.49-.35-.63-.74-1.05-1.17-1.25s-.93-.31-1.5-.31h-1.83v4.97h.6c.45,0,.76-.05.92-.16.16-.11.27-.28.34-.51.07-.23.11-.7.11-1.39v-.76h1.53v8.44h-1.53v-.86c0-.58-.05-1.01-.13-1.28-.08-.27-.2-.45-.34-.55-.14-.09-.46-.14-.96-.14h-.54v4.58c0,.49.01.78.04.89.03.11.08.19.17.24.08.06.26.09.54.09h1.01c.75,0,1.39-.18,1.9-.54.52-.36.98-.94,1.38-1.74.4-.8.72-1.75.93-2.85l1.58.9-1.58,7.41h-10.39v-2.76h.3c.4,0,.67-.05.81-.14.14-.1.23-.26.29-.5.03-.14.04-.55.04-1.22v-10.86c0-.59-.03-.98-.07-1.16-.05-.18-.13-.32-.23-.41s-.31-.14-.61-.14h-.53v-2.76Z"/>
    <path class="cls-1" d="M384.58,78.91h5.87v2.76h-.58c-.26,0-.45.05-.56.16-.11.11-.19.26-.24.45-.05.2-.08.59-.08,1.19v7.26c0,1.35.08,2.36.25,3.03.16.67.41,1.17.74,1.52.33.35.73.52,1.2.52s.89-.19,1.26-.57c.37-.38.63-.86.79-1.45.16-.58.24-1.55.24-2.9v-8c0-.33-.03-.57-.08-.71-.07-.19-.16-.33-.27-.4-.08-.06-.28-.09-.61-.09h-.46v-2.76h4.96v2.76h-.39c-.39,0-.62.04-.72.12-.14.11-.24.28-.3.5-.05.14-.07.54-.07,1.18v7.86c0,1.45-.13,2.66-.38,3.64-.35,1.33-.91,2.37-1.67,3.11-.77.74-1.68,1.11-2.73,1.11-.74,0-1.4-.19-1.99-.56-.58-.37-1.1-.91-1.54-1.61-.44-.7-.75-1.44-.92-2.22-.17-.78-.26-1.93-.26-3.46v-7.7c0-.71-.02-1.16-.07-1.37-.05-.2-.12-.35-.22-.45-.1-.1-.31-.14-.6-.14h-.55v-2.76Z"/>
    <path class="cls-1" d="M400.32,93.75c.44,0,.82.26,1.13.78.31.52.47,1.15.47,1.88s-.15,1.36-.47,1.88c-.31.52-.69.78-1.13.78s-.83-.26-1.14-.78c-.32-.52-.47-1.14-.47-1.88s.16-1.36.47-1.88c.31-.52.69-.78,1.14-.78"/>
    <path class="cls-1" d="M407.97,89.63h2.39l-1.16-5.47-1.22,5.47ZM408.33,78.91h2.7l3.61,15.38c.19.82.37,1.32.52,1.51.15.19.43.28.84.27v2.76h-5.69v-2.76h.34c.32-.01.54-.08.66-.22.13-.14.19-.31.19-.51,0-.17-.06-.52-.16-1.06l-.36-1.81h-3.66l-.45,2.01c-.09.43-.14.71-.14.84,0,.15.03.29.1.41.06.12.17.21.32.27.1.04.37.06.81.06v2.76h-4.65v-2.76c.3,0,.52-.04.65-.13.14-.08.25-.21.34-.38.09-.17.19-.49.3-.96l3.71-15.7Z"/>
    <path class="cls-1" d="M419.03,93.75c.44,0,.82.26,1.13.78.31.52.47,1.15.47,1.88s-.16,1.36-.47,1.88c-.31.52-.69.78-1.13.78s-.83-.26-1.14-.78c-.31-.52-.47-1.14-.47-1.88s.16-1.36.47-1.88c.31-.52.7-.78,1.14-.78"/>
    <path class="cls-1" d="M422.69,78.91h10.03l1.37,6.3-1.56.93c-.26-1.03-.57-1.86-.93-2.49-.35-.63-.74-1.05-1.17-1.25s-.93-.31-1.5-.31h-1.83v4.97h.6c.45,0,.76-.05.92-.16.16-.11.27-.28.34-.51.07-.23.11-.7.11-1.39v-.76h1.53v8.44h-1.53v-.86c0-.58-.05-1.01-.13-1.28-.08-.27-.2-.45-.34-.55-.14-.09-.46-.14-.96-.14h-.54v4.58c0,.49.01.78.04.89.03.11.09.19.17.24.08.06.26.09.54.09h1.01c.75,0,1.39-.18,1.9-.54.52-.36.98-.94,1.38-1.74.4-.8.72-1.75.93-2.85l1.58.9-1.58,7.41h-10.39v-2.76h.3c.4,0,.67-.05.81-.14.14-.1.23-.26.29-.5.03-.14.04-.55.04-1.22v-10.86c0-.59-.03-.98-.07-1.16-.05-.18-.13-.32-.23-.41s-.31-.14-.61-.14h-.53v-2.76Z"/>
    <path class="cls-1" d="M437.72,93.75c.44,0,.82.26,1.13.78.32.52.47,1.15.47,1.88s-.15,1.36-.47,1.88c-.31.52-.69.78-1.13.78s-.83-.26-1.14-.78c-.32-.52-.47-1.14-.47-1.88s.16-1.36.47-1.88c.31-.52.69-.78,1.14-.78"/>
    <path class="cls-1" d="M158.52,69.46c-.74,0-1.11-.44-1.11-1.29,0-.93.37-1.37,1.08-1.37s1.08.44,1.08,1.33-.34,1.33-1.06,1.33M154.61,69.46c-.74,0-1.11-.44-1.11-1.33s.37-1.33,1.08-1.33,1.08.44,1.08,1.37c0,.85-.34,1.29-1.06,1.29M163.04,59.82v-6.21c-.37-.15-.55-.22-.55-.22-1.35,0-2.01,1.52-2.01,4.58,0,.52.03,1.18.05,1.96.03.81.05,1.33.05,1.52,0,1-.53,1.96-1.61,2.92-1.01.89-1.9,1.33-2.67,1.33-1.08,0-2.06-.44-2.88-1.37-.9-1-1.35-2.22-1.35-3.73,0-.85.21-1.78.64-2.77.45-1,.95-1.63,1.53-1.85,0,.29-.03.74-.03,1.37-.05.63-.05,1.07-.05,1.33,0,1.11.13,1.92.4,2.44.34.67.93,1,1.8,1s1.51-.37,1.82-1.14c.24-.56.34-1.48.34-2.77v-1.74c0-1.33.13-2.33.35-3.03.37-1.18.95-2,1.74-2.48.24-.15,1-.41,2.27-.81.98-.29,1.74-.78,2.3-1.4v11.09h-2.14Z"/>
    <path class="cls-1" d="M169.77,48.03c-.24.33-.5.48-.79.48s-.53-.15-.77-.44c-.24-.33-.35-.67-.35-1.07s.11-.78.32-1.11c.24-.33.5-.48.79-.48s.55.15.77.44c.24.33.34.7.34,1.15,0,.41-.11.74-.32,1.04M173.47,59.82h-2.7c-.13,1.74-.29,2.92-.48,3.47-.37,1.11-1.08,1.66-2.12,1.66-.66,0-1.29-.33-1.88-1.04-.58-.7-.82-1.48-.82-2.36v-.15h2.7c0-.96-.03-1.96-.05-3.03-.03-1.07-.05-1.7-.05-1.89,0-.85.16-1.48.48-1.85.08-.11.77-.7,2.12-1.77v3.48h2.8v3.47Z"/>
    <path class="cls-1" d="M186.77,59.82h-13.98v-3.47l12.71-.04v-.37c0-1.59-.29-2.4-.9-2.4h-10.12c-.08-.55-.11-.85-.11-.85,0-.74.11-1.26.32-1.55.08-.11,3.83-2.59,11.26-7.43-.34,1.03-1.27,2.07-2.8,3.07-1.77,1.14-2.88,2.03-3.28,2.66v.15c0,.78.9,1.15,2.7,1.15.55,0,1.22-.04,2.03-.11.82-.07,1.24-.11,1.32-.11.9,0,1.45.85,1.66,2.59.05.44.08,1.77.08,3.95,0,1.85-.29,2.77-.9,2.77"/>
    <path class="cls-1" d="M193.24,59.82c0,1.63-.13,2.81-.37,3.51-.37,1.07-1.08,1.63-2.12,1.63-.71,0-1.32-.33-1.85-1.04-.53-.7-.82-1.52-.85-2.51h2.7c0-.96-.03-1.96-.05-3.03-.03-1.07-.05-1.7-.05-1.89,0-.88.16-1.52.47-1.85.05-.07.77-.66,2.12-1.77v3.48h2.8v3.47h-2.8Z"/>
    <path class="cls-1" d="M202.91,53.68c-.24-.11-.4-.15-.53-.15-.34,0-.71.22-1.11.63-.42.45-.64.88-.64,1.33v.78h2.27v-2.59ZM208.22,63.03c-.66.77-1.37,1.14-2.14,1.14-.95,0-1.66-.41-2.17-1.22-.4-.67-.71-1.7-.93-3.14h-7.59v-3.47h3.12c.05-.41.08-.7.08-.96,0-1.59.4-2.73,1.22-3.47.45-.41,1.32-.81,2.64-1.26,1.22-.41,2.06-.92,2.51-1.48l.06,10.61c0,.41.1.74.32,1,.21.29.45.44.71.44.21,0,.42-.11.64-.33.24-.26.34-.52.34-.81v-16.78c0-.7.26-1.37.79-1.92.45-.48.92-.88,1.37-1.33v20.25c0,1.07-.32,1.96-.98,2.74"/>
    <path class="cls-1" d="M210.81,59.82v-16.23c0-.81.24-1.52.74-2.11.13-.15.61-.59,1.48-1.37v19.7h-2.22Z"/>
    <path class="cls-1" d="M223.98,44.92c-.69,0-1.03-.52-1.03-1.52,0-.41.1-.74.32-1.04.22-.33.44-.48.71-.48.67,0,.98.52.98,1.55s-.32,1.48-.98,1.48M223.02,53.9c0-.22,0-.33-.02-.37-.08,0-.15,0-.25-.04-.1-.04-.17-.04-.22-.04-.32,0-.66.22-1.08.63-.42.44-.62.89-.62,1.33v.93h2.17c.02-1.15.02-1.81.02-2.03v-.41ZM220.63,44.92c-.67,0-.98-.48-.98-1.48s.32-1.55.98-1.55c.27,0,.49.15.71.45.22.33.32.66.32,1.07,0,1-.35,1.52-1.03,1.52M224.79,59.19c-.17.41-.32.63-.44.63h-5.53v-4.4c0-.89.24-1.85.76-2.88.52-1.07,1.06-1.7,1.62-1.89.67-.11,1.35-.22,2.04-.37.71-.15,1.31-.63,1.82-1.4v9.43c0,.18-.1.48-.27.88"/>
    <path class="cls-1" d="M226.64,59.82v-3.55h5.81v-1.96c-.27-.55-.54-.85-.81-.85h-3.91v-4.51c.67,1,1.15,1.48,1.45,1.48-.03,0,.2-.04.62-.07.44-.04.83-.07,1.2-.07,2.31,0,3.47.77,3.47,2.33v3.73h1.38v3.47h-9.2Z"/>
    <path class="cls-1" d="M243.93,59.82v1.78l-.81-1.78h-8.05v-3.47h6.45c-.32-.78-.62-1.55-.96-2.29-.42-.96-.88-1.4-1.3-1.4-.22,0-.54.18-.98.59v-3.07c.27-.78.69-1.15,1.25-1.15s1.31,1,2.24,3.03c.64,1.4,1.26,2.85,1.87,4.29h2.66v3.47h-2.36Z"/>
    <path class="cls-1" d="M252.34,47.91c-.27,0-.52-.15-.71-.44-.22-.33-.32-.7-.32-1.11,0-1,.35-1.52,1.03-1.52s.98.48.98,1.48c0,1.07-.32,1.59-.98,1.59M249.74,47.44c-.22.33-.47.48-.74.48-.67,0-.98-.52-.98-1.59,0-1,.32-1.48.98-1.48.29,0,.54.15.74.44.19.29.29.67.29,1.07s-.1.77-.29,1.07M245.8,59.82v-3.47h5.9c0-1.89.1-3.03.27-3.44.07-.18.66-.81,1.75-1.96v5.4h1.42v3.47h-9.35Z"/>
    <path class="cls-1" d="M261.62,53.68c-.22-.11-.37-.15-.49-.15-.32,0-.66.22-1.03.63-.39.45-.59.88-.59,1.33v.78h2.11v-2.59ZM266.56,63.03c-.62.77-1.28,1.14-1.99,1.14-.89,0-1.55-.41-2.02-1.22-.37-.67-.66-1.7-.86-3.14h-7.06v-3.47h2.9c.05-.41.08-.7.08-.96,0-1.59.37-2.73,1.13-3.47.42-.41,1.23-.81,2.46-1.26,1.13-.41,1.92-.92,2.34-1.48l.05,10.61c0,.41.1.74.3,1,.2.29.42.44.66.44.2,0,.39-.11.59-.33.22-.26.32-.52.32-.81v-16.78c0-.7.24-1.37.74-1.92.42-.48.86-.88,1.28-1.33v20.25c0,1.07-.29,1.96-.91,2.74"/>
    <path class="cls-1" d="M268.97,59.82v-16.23c0-.81.22-1.52.69-2.11.12-.15.57-.59,1.38-1.37v19.7h-2.06Z"/>
    <path class="cls-1" d="M284.12,45.07c-.24.3-.5.44-.79.44-.71,0-1.06-.52-1.06-1.55s.35-1.48,1.06-1.48c.32,0,.58.15.79.41.21.3.32.67.32,1.11,0,.41-.11.77-.32,1.07M281.88,53.53c-.35,0-.71.22-1.11.66-.4.44-.61.85-.61,1.22v.92h2.43v-2.74c-.18-.04-.42-.07-.71-.07M280.53,45.07c-.24.3-.5.44-.79.44s-.53-.15-.77-.44c-.24-.3-.34-.67-.34-1.07,0-1,.37-1.52,1.11-1.52s1.11.52,1.11,1.52c0,.41-.11.77-.32,1.07M286.19,59.82h-8.19v-4.4c0,.18.03-.08.11-.81.05-.63.32-1.33.74-2.11.42-.81.84-1.33,1.24-1.59.37-.22.93-.41,1.75-.48.82-.07,1.4-.22,1.74-.48.26-.26.66-.63,1.19-1.15v7.54h1.43v3.47Z"/>
    <path class="cls-1" d="M292.74,67.02c-.29,0-.56-.15-.77-.44-.24-.33-.34-.7-.34-1.11,0-1,.37-1.48,1.08-1.48s1.09.51,1.09,1.52-.35,1.52-1.06,1.52M289.15,67.02c-.32,0-.58-.15-.79-.44-.21-.33-.32-.7-.32-1.11,0-1,.37-1.48,1.09-1.48s1.08.51,1.08,1.52-.34,1.52-1.06,1.52M285.6,59.82v-3.47h6.34c0-1.85.08-2.99.24-3.4.19-.41.82-1.11,1.93-2.07v5.47h1.53v3.47h-10.04Z"/>
    <path class="cls-1" d="M299.05,65.73c-.71,0-1.05-.48-1.05-1.48s.34-1.55,1.05-1.55c.29,0,.53.15.77.44.24.33.34.67.34,1.07,0,1-.37,1.52-1.11,1.52M301.11,59.19c-.21.41-.42.63-.61.63h-5.52v-3.47h4.28c0-1.48.03-2.41.08-2.77.08-.48.26-.92.58-1.22.5-.48,1-.93,1.51-1.41v7.21c0,.29-.1.63-.32,1.03"/>
    <path class="cls-1" d="M306.82,59.82c0,1.63-.13,2.81-.37,3.51-.37,1.07-1.08,1.63-2.12,1.63-.71,0-1.32-.33-1.85-1.04-.53-.7-.82-1.52-.85-2.51h2.7c0-.96-.03-1.96-.05-3.03-.03-1.07-.05-1.7-.05-1.89,0-.88.16-1.52.48-1.85.05-.07.76-.66,2.11-1.77v3.48h2.8v3.47h-2.8Z"/>
    <path class="cls-1" d="M308.96,59.82v-3.47h3.75c-.16-.48-.32-1-.45-1.48-.16-.52-.24-1.03-.24-1.51,0-1.26.26-2.15.82-2.59.42-.37,1.06-.52,1.9-.52h.77c.35,0,.58.04.74.04.77,0,1.24-.08,1.43-.26.03-.04.29-.52.85-1.44v5.17h-3.89l-.18.41c0,.33.13.78.42,1.33.29.56.58.85.82.85h4.31v3.47h-11.05Z"/>
    <path class="cls-1" d="M324.45,59.3c-.18.33-.4.52-.58.52h-4.47v-3.47h3.17v-13.6c0-.45.26-.96.85-1.52.42-.41.84-.74,1.27-1.11l.05,18.26c0,.26-.11.59-.29.93"/>
    <path class="cls-1" d="M326.35,59.82v-16.23c0-.81.24-1.52.74-2.11.13-.15.61-.59,1.48-1.37v19.7h-2.22Z"/>
    <path class="cls-1" d="M341.43,48.77c-.31,0-.56-.15-.82-.44-.25-.33-.37-.7-.37-1.11,0-1,.4-1.52,1.18-1.52s1.13.48,1.13,1.48c0,1.07-.37,1.59-1.13,1.59M337.59,48.77c-.31,0-.56-.15-.82-.44-.25-.33-.37-.7-.37-1.11,0-1,.4-1.52,1.19-1.52s1.13.48,1.13,1.48c0,1.07-.37,1.59-1.13,1.59M344.96,59.23c-.25.37-.51.55-.79.55h-9.77c-.76,0-1.16-.88-1.16-2.62,0-1.37.17-2.29.48-2.7.59-.55,1.21-1.14,1.81-1.7v3.47h7.42c0-1.59.14-2.7.4-3.33.25-.63.93-1.29,1.98-1.99v7.21c0,.37-.11.74-.37,1.11"/>
    <path class="cls-1" d="M347.76,59.82v-16.23c0-.81.25-1.52.79-2.11.14-.15.65-.59,1.58-1.37v19.7h-2.37Z"/>
    <path class="cls-1" d="M356.15,64.1c-.53.44-1.1.67-1.72.67-.68,0-1.3-.26-1.89-.78-.68-.59-1.01-1.26-1.01-2.11v-.41h2.88v-5.77c0-.63.34-1.22,1.04-1.74.54-.37,1.07-.74,1.61-1.11v9.32c0,.78-.31,1.4-.9,1.92"/>
    <path class="cls-1" d="M359.48,59.82v-19.89c.93.74,1.38,1.11,1.41,1.11.59.55.9,1.11.9,1.59v13.72h2.71v3.47h-5.03Z"/>
    <path class="cls-1" d="M374.2,53.24c-.06,0-.14,0-.25-.04-.11-.03-.2-.03-.25-.03-.4,0-.79.26-1.16.74-.39.52-.59,1.04-.59,1.59,0,.04,0,.11.03.22.03.11.03.22.06.26h2.18v-2.74ZM363.81,59.82v-3.47h5.93c.08-2.4.59-3.96,1.5-4.73.37-.34,1.33-.71,2.88-1.04,1.27-.29,2.2-.93,2.74-1.92v11.16h-13.05Z"/>
    <path class="cls-1" d="M376.4,69.17v-1.4c.13.04.24.07.35.07s.21,0,.29-.04c-.29-.15-.42-.52-.42-1.11,0-.33.08-.67.26-.93.18-.29.37-.44.61-.44h2.09v1.26h-1.45s-.11.07-.24.26c0,.7.24,1.03.71,1.03.08,0,.21,0,.37-.04.18-.04.32-.04.4-.04s.16,0,.21.04v1.33h-3.17Z"/>
    <path class="cls-1" d="M378.62,54.42v-14.31c.4.52.82,1,1.24,1.52.63.77.93,1.29.93,1.55v11.24h-2.17ZM384.35,64.29c-.77,1-1.53,1.48-2.3,1.48s-1.53-.48-2.3-1.48c-.77-1-1.13-2.03-1.13-3.1v-4.92h2.17c0,.11,0,.41-.03.92-.03.52-.03.96-.03,1.29,0,2.51.45,3.77,1.32,3.77.32,0,.61-.22.87-.63.26-.41.4-.85.4-1.33v-17.08c0-.63.26-1.26.82-1.85.42-.44.9-.89,1.35-1.33v21.25c0,1.04-.37,2.03-1.13,3"/>
    <path class="cls-1" d="M387.46,59.82v-16.23c0-.81.24-1.52.74-2.11.13-.15.61-.59,1.48-1.37v19.7h-2.22Z"/>
    <path class="cls-1" d="M407.54,43c-.21.3-.48.44-.79.44-.71,0-1.08-.52-1.08-1.52s.34-1.51,1.06-1.51c.32,0,.58.14.79.44.24.29.34.67.34,1.07,0,.44-.11.81-.32,1.07M406.99,50.13h-1.32c-.13,0-.29.07-.42.26-.13.18-.21.37-.21.55,0,.15.08.33.21.55.16.22.29.33.42.33h1.32v-1.7ZM408.86,59.82h-12.31c-.5-.44-.82-.81-.9-1.07-.03-.11-.03-.67-.03-1.66,0-1.37.18-2.25.53-2.7.66-.55,1.3-1.07,1.93-1.59v3.47h8.9v-1.99c-1.45,0-2.38-.08-2.75-.26-.87-.41-1.32-1.44-1.32-3.03s.37-2.48,1.11-2.85c.24-.11,1.08-.22,2.56-.37,1.24-.11,2.22-.55,2.93-1.26v11.49c0,.59-.21,1.19-.66,1.81"/>
    <path class="cls-1" d="M414.75,59.82c0,1.63-.12,2.81-.34,3.51-.34,1.07-.99,1.63-1.93,1.63-.65,0-1.21-.33-1.69-1.04-.48-.7-.75-1.52-.77-2.51h2.46c0-.96-.03-1.96-.05-3.03-.02-1.07-.05-1.7-.05-1.89,0-.88.14-1.52.43-1.85.05-.07.7-.66,1.93-1.77v3.48h2.56v3.47h-2.56Z"/>
    <rect class="cls-1" x="416.85" y="56.34" width="2.22" height="3.47"/>
    <path class="cls-1" d="M428.35,54.68c0-.15-.12-.33-.34-.55-.24-.26-.41-.37-.53-.37h-6.52v2.55h7.39v-1.63ZM431.7,59.82h-12.75v-7.76l2.03-2.11v2.07c.07-.22.26-.48.63-.81.36-.33.63-.52.8-.52h6.83c.8,0,1.18,1.07,1.18,3.21,0,.41-.02.89-.02,1.44-.05.55-.05.89-.05,1h1.35v3.47Z"/>
    <path class="cls-1" d="M440.06,53.24c-.05,0-.12,0-.22-.04-.1-.03-.17-.03-.22-.03-.34,0-.68.26-.99.74-.34.52-.51,1.04-.51,1.59,0,.04,0,.11.03.22.03.11.03.22.05.26h1.86v-2.74ZM431.17,59.82v-3.47h5.07c.07-2.4.51-3.96,1.28-4.73.31-.34,1.13-.71,2.46-1.04,1.09-.29,1.89-.93,2.34-1.92v11.16h-11.16Z"/>
  </g>
  <path class="cls-1" d="M32.94,97.19c-.12-.01-.24-.02-.36-.04-.12-.01-.24-.02-.36-.04.01-.11.03-.22.04-.33.02-.16.16-.28.33-.3.02,0,.04,0,.05,0,.13-.01.26-.05.37-.09-.02.27-.05.53-.08.8M36.97,98.06c.02-.93.04-1.86.06-2.79-.35.29-.71.57-1.08.85.28.07.34.27.33.46-.01.28-.02.55-.03.83-.24,0-.48-.02-.73-.03.04-.72.07-1.44.11-2.16-.36.28-.73.56-1.1.82.28.08.34.28.33.47-.02.27-.04.55-.05.82-.39-.02-.77-.05-1.16-.08.14-1.68.28-3.36.43-5.05-.35.27-.71.53-1.07.79.26.09.3.28.28.47-.06.61-.12,1.21-.18,1.82-.03.28-.24.42-.41.48-.11.05-.21.07-.22.09-.49.04-.91.37-.97.84l-.12.96c.29.04.58.07.86.1.08,0,.16.02.24.03.41.04.81.08,1.22.11,1.08.09,2.16.15,3.24.17M29.61,97.39c.24.04.48.07.72.11.21-1.44.42-2.88.63-4.32.03-.19.13-.37.4-.39-.29-.34-.57-.68-.85-1.03-.3,1.88-.6,3.75-.9,5.62M26.87,96.23c-.12-.02-.24-.05-.36-.08-.12-.03-.24-.05-.35-.08.02-.08.04-.16.06-.25.14-.07.28-.15.42-.23.1.13.19.26.29.38-.02.08-.04.17-.05.25M28.72,92.36c.26.11.28.31.25.5-.23,1.22-.46,2.44-.69,3.66-.24-.05-.48-.09-.71-.14.03-.17.07-.33.1-.5-.29-.38-.57-.76-.85-1.15-.41.23-.83.46-1.26.68-.04.16-.08.33-.12.49-.24-.06-.48-.12-.71-.18.18-.7.36-1.39.54-2.08-.41.2-.83.39-1.25.58.26.13.27.34.22.52-.07.27-.15.53-.22.8-.1-.03-.21-.06-.31-.09,0,0,0,0,0,0-.2-.05-.39-.11-.59-.17,0-.25.03-.5.08-.75.16-.78.38-1.66-.61-2.71-.28.13-.57.26-.85.39.69.21.97.85,1.08,1.36.1.62-.24,1.08-.06,1.6-.34-.1-.68-.2-1.02-.31,0,0,0,0,0,0,.03-.08.05-.16.08-.24.17-.53-.18-1.12-.78-1.33-.04-.01-.09-.03-.13-.05-1.32-.46-2.63-.98-3.92-1.55.09-.19.17-.39.26-.58.07-.17.26-.22.44-.14-.2-.43-.39-.86-.57-1.3-.35.76-.7,1.53-1.06,2.3,1.56.72,3.15,1.36,4.76,1.92.23.08.36.3.29.5-.03.08-.05.16-.08.24-.08.22-.15.44-.22.66-.15.06-.29.12-.44.18-.08-.15-.16-.29-.25-.44.07-.21.15-.43.22-.64-.17-.06-.34-.12-.51-.18-.06-.02-.12-.04-.18-.06-1.3-.48-2.59-1.01-3.86-1.6-.09.19-.18.38-.27.58,1.29.59,2.59,1.13,3.91,1.61-.04.1-.07.2-.11.3.24.43.49.85.75,1.28.46-.17.91-.35,1.36-.53.03-.1.07-.21.1-.32.51.16,1.02.32,1.53.47.1.15.22.27.38.38-.07-.11-.13-.21-.18-.32.43.12.85.24,1.28.35.6.15,1.19.3,1.79.43.6.13,1.2.26,1.8.37.02,0,.05.01.08.01.21.04.42.08.64.12h0c.33-1.87.64-3.74.97-5.61-.37.24-.75.47-1.14.69M35.8,98.66c-.21,0-.37.13-.38.3,0,.18.15.32.36.33.21,0,.38-.12.38-.3,0-.17-.15-.32-.36-.33M33.52,21.73c.28,0,.5.21.5.48-.15-.15-.74-.27-1.01,0,0-.27.22-.48.5-.48M34.78,22.35c-.21,1.59-2.25,1.59-2.33.41.36,1.28,2.35.61,1.76-.81.78-.3,1.36-.32,1.99-.42-1.63-.25-3.55-.45-4.74.09-.58.26-.42.62-.33.77.1-.31.61-.33.98-.21-.28,2.4,2.79,2.11,2.65.17M14.47,91.9c-.11-.06-.22-.11-.34-.17-.11-.06-.22-.12-.33-.18.05-.09.1-.19.15-.29.07-.14.25-.2.43-.15.02,0,.04.01.05.01.13.04.27.05.39.05-.12.24-.24.48-.35.72M16.01,88.01c.22.18.19.38.11.55-.27.55-.54,1.09-.81,1.64-.12.25-.37.3-.56.3-.13,0-.23-.02-.24,0-.48-.15-1,.02-1.22.43-.15.28-.31.56-.45.85.33.18.67.35,1,.52.34.17.67.34,1.02.5.82-1.72,1.63-3.42,2.45-5.14-.43.13-.86.24-1.3.35M34.32,98.57c-.21-.01-.38.12-.4.29-.01.18.15.33.35.34.2.01.38-.11.39-.29,0-.17-.15-.33-.35-.34M33.44,98.5c-.21-.02-.39.11-.4.28-.02.18.14.33.35.35.2.02.38-.11.39-.28.01-.17-.14-.33-.34-.35M25.11,93.19c.18.05.37-.04.41-.22.04-.16-.07-.34-.25-.39-.18-.05-.37.05-.42.21-.05.17.07.35.25.39M24.31,92.97c.18.05.37-.04.42-.21.04-.17-.07-.35-.24-.4-.19-.05-.37.04-.42.21-.05.17.06.35.25.4M32.3,93.42c.19.02.35-.1.37-.28.02-.17-.11-.33-.29-.35-.18-.02-.35.1-.37.27-.02.18.11.34.29.36M49.59,93.98c.18-.04.3-.22.27-.38-.04-.17-.23-.28-.41-.24-.19.04-.3.21-.27.39.04.17.21.28.41.23M15.51,87.46c.17.09.36.03.44-.12.08-.15.01-.35-.15-.44-.16-.08-.36-.03-.44.12-.08.16-.01.35.15.44M32.39,92.66c.19.02.34-.1.36-.27.02-.17-.1-.33-.29-.35-.18-.02-.34.1-.36.27-.02.18.11.33.29.35M48.78,94.16c.18-.04.31-.21.27-.38-.04-.18-.22-.28-.4-.24-.19.04-.31.21-.28.39.03.17.22.28.41.24M15.16,88.14c.17.09.37.03.45-.13.08-.15.01-.35-.16-.44-.16-.08-.37-.03-.45.12-.08.16-.01.36.15.44M34.27,54.51c-.07-1.19-.11-2.54-.11-4.01,0-1.33.04-2.53.1-3.59,3.37-.3,8.19-.39,12.64.77.32.95.5,1.97.5,3.04s-.18,2.07-.49,3.03c-4.44,1.16-9.25,1.07-12.63.77M37.86,60.23c-1.06,0-2.1-.18-3.1-.52-.08-.51-.31-2.19-.47-4.64,3.32.29,7.98.37,12.35-.7-1.44,3.44-4.84,5.86-8.79,5.86M28.34,50.71c0-3.84,2.33-7.31,5.85-8.79-.18,1.14-.59,4.17-.59,8.58s.4,7.78.57,8.98c-3.5-1.48-5.82-4.95-5.82-8.78M34.8,41.69c.99-.34,2.02-.51,3.07-.51,3.95,0,7.35,2.42,8.79,5.85-4.39-1.07-9.06-.99-12.37-.7.16-2.53.43-4.15.51-4.65M37.86,40.63c-1.17,0-2.32.2-3.41.59-3.99,1.43-6.68,5.25-6.68,9.49s2.67,8.03,6.64,9.48c1.1.4,2.26.61,3.45.61,5.56,0,10.09-4.53,10.09-10.09s-4.52-10.09-10.09-10.09M61.38,94.03c-.1.04-.2.02-.24-.06-.04-.08,0-.18.1-.22.04-.02.08-.03.11-.02-.34-.11-.65.26-.39.5-.09.06-.16.06-.21,0-.06.12-.12.25-.18.37.46-.2.91-.41,1.36-.63-.15-.05-.29-.09-.44-.14.02.07-.03.16-.12.2M66.37,51.05v-1.12c0-.56,0-1.12,0-1.38,0-1.06-.17-2.47-1.18-3.15.3,1.19.1,1.39.1,3.39v2.49c0,.73.1,1.37.28,1.93-1.17-.56-2.41-1.79-2.41-3.96,0-.73-.18-3.72-1.08-4.96v5.19c0,.68.09,1.28.24,1.81-2.74-1.39-2.47-6.11-3.36-7.94,0,1.59.04,2.7.04,4.28,0,.78.12,1.45.31,2.03-2.4-1.53-2.67-4.53-2.86-6.77-.23.83-.61,3.01.04,5.08-1.61-1.23-2.5-3.85-2.39-5.72-.24,1.03-.48,2.57.02,4.12-.09,1.76-.07,15.66-.07,17.18-.91-.76-1.85-2.12-1.75-4.19.03-.34.07-.66.12-.97.64-4.34.77-10.59-1.02-15.59,1.45,7.81-.36,15.84-.61,17.46-.45,2.89.53,8.87,2.57,15.5-.39-.39-1.75-.96-2.3-1.5,0,.6.22,1.24.22,2.55-.7-1.17-.97-1.22-1.71-2.52.23,1.53.17,1.66.17,2.98-.72-1.36-1.11-3.18-2.77-5.77-3.7-5.77-9.03-2.19-9.03-1.19,0-1.01-5.33-4.59-9.02,1.19-1.66,2.59-2.05,4.41-2.78,5.77,0-1.32-.07-1.45.17-2.98-.74,1.3-1.01,1.35-1.71,2.52,0-1.31.22-1.96.22-2.55-.55.55-1.9,1.11-2.3,1.5,2.04-6.64,3.02-12.62,2.57-15.5-.25-1.62-2.06-9.65-.61-17.46-1.79,5-1.66,11.25-1.02,15.59.05.31.08.63.12.97.1,2.08-.84,3.45-1.76,4.2,0-1.52.02-15.41-.07-17.19.51-1.55.26-3.1.02-4.12.11,1.87-.78,4.5-2.39,5.72.65-2.06.27-4.25.04-5.08-.19,2.24-.46,5.24-2.86,6.77.19-.58.31-1.25.31-2.03,0-1.58.04-2.7.04-4.28-.9,1.83-.62,6.56-3.36,7.94.15-.53.24-1.13.24-1.81v-5.19c-.9,1.25-1.08,4.24-1.08,4.96,0,2.16-1.25,3.39-2.41,3.96.18-.55.28-1.19.28-1.92v-2.49c0-2-.21-2.21.1-3.39-1.01.69-1.18,2.09-1.18,3.15,0,.26,0,.82,0,1.38h0v1.12c0,2.26-1.36,3.5-2.57,4.03.21-.27.43-1.01.43-2.1v-10.9c0-3.06,3.58-6.58,4.9-8.14,3.67-4.29,5.26-.8,8.95.45,6.14,2.08,9.41-.24,9.41-.24,3.28-2.06,3.29-4.01,3.29-5.22,0-.82-.32-1.89-.92-2.58-1.12-1.12-3.11-1.48-3.46-1.41-.75.38-1.41.39-1.55.49-.34-.68-.26-1.73,1.29-2.59.43-.24.27-.79,1.59-1.56,3.85-2.25,7.63-1.43,9.83,1.02-.78-.28-1.53-.54-2.84-.67,1.84.64,4.02,2.16,5.44,4.7.58,1.01,1.88,3.78,2.34,4.62.98,1.79,2.76,5.55,9.03,3.43,3.69-1.25,5.29-4.74,8.95-.45,1.32,1.55,4.9,5.07,4.9,8.14v10.9c0,1.09.22,1.83.43,2.1-1.21-.53-2.57-1.77-2.57-4.03M66.37,59.56v-3.12c0-.52-.02-.97-.05-1.37.18.07.35.13.5.19.52.52,1.11.89,1.68,1.17v5.04c0,1.09.22,1.83.43,2.1-1.2-.53-2.56-1.77-2.56-4.02M66.42,70.14c0-.36-.05-3.39-.05-3.98,0-.65-.03-1.76-.08-2.6.19.07.37.14.54.2.52.51,1.11.88,1.68,1.17v6.44c0,1.09.22,1.83.43,2.1-1.07-.47-2.52-1.76-2.52-3.33M66.42,86.48v-2.41h0c0-1.52-.04-2.84-.04-3.29v-3.59c0-.31,0-1.87-.02-3.89.07.03.14.05.2.08.58.66,1.28,1.12,1.95,1.45v12.89c0,1.1.22,1.83.43,2.1-1.07-.47-2.52-1.81-2.52-3.33M63.16,57.74v-3.15c0-.55-.02-1.02-.05-1.42.12.05.24.09.36.13.56.6,1.22,1.02,1.85,1.33.01.66-.02,1.35-.02,2.05v3.09c0,.73.1,1.37.28,1.93-1.17-.56-2.41-1.79-2.41-3.96M63.16,67.45v-3.15c0-.56-.02-1.74-.05-2.63.13.05.25.09.36.14.56.59,1.22,1.02,1.85,1.33.02,1.05-.02,2.5-.02,3.26v1.84h0v1.15c0,.08,0,.15,0,.22,0,0,0,0,0,0v.07c0,.66.08,1.24.22,1.76-1.05-.48-2.36-1.84-2.36-3.97M63.16,78.48v-3.15c0-.55-.02-2.56-.05-4.1.63.83,1.45,1.32,2.2,1.65-.01,2.33-.02,4.19-.02,4.54v1.83h0v1.15c0,1.09,0,1.73.21,1.99-.9-.39-2.34-1.67-2.34-3.92M60.08,55.9v-2.85c0-.59,0-.98,0-1.31.29.11.6.21.93.3.35.27.71.5,1.07.68,0,.1,0,.21,0,.31v4.95c0,.68.08,1.27.24,1.8-1.11-.6-2.24-1.81-2.24-3.87M60.08,64.57v-2.85c0-1.09-.03-1.08-.03-1.62.3.13.59.24.84.33.38.31.79.57,1.19.78,0,.64,0,1.37,0,1.52v4.95c0,.22,0,.43.02.64-1.04-.63-2.02-1.82-2.02-3.75M62.08,73.75v4.89c-1.03-.64-2-1.82-2-3.73v-2.86c0-.83-.02-2.7-.03-3.82.58.76,1.31,1.27,2.02,1.64,0,1.33,0,3.67,0,3.88M57.39,54.48v-2.87c0-.74-.01-1.28-.05-1.69.11.06.22.11.33.17.36.41.8.79,1.33,1.12,0,.24,0,.48,0,.7v4.22c0,.78.12,1.46.31,2.04-1-.65-1.93-1.82-1.93-3.69M57.39,62.15v-2.87c0-.32,0-.61-.01-.86.13.08.28.15.42.22.37.37.77.67,1.18.91.03.34.03.7.03,1.02v4.22c0,.3.02.59.05.86-.89-.68-1.66-1.8-1.66-3.5M59,70.91v3.54c-.87-.68-1.61-1.79-1.61-3.46v-2.87c0-.53,0-1.53-.02-2.31.46.61,1.03,1.06,1.6,1.41.04,1.21.04,3.33.04,3.69M54.64,53.75c0-.65-.05-4.1-.05-6.34.37.65.92,1.27,1.68,1.84.09.63.04,1.43.04,1.98v3.47c0,.65.08,1.22.22,1.73-1.05-.78-1.89-1.73-1.89-2.68M54.6,55.86c.34.62.92,1.28,1.72,1.88,0,.41,0,.83,0,1.16v2.86c-.95-.74-1.67-1.63-1.67-2.52,0-.4-.02-1.83-.04-3.39M56.31,67.75v2.05c-.95-.74-1.67-1.63-1.67-2.52,0-.62-.05-3.72-.05-5.95.34.63.92,1.3,1.71,1.9.05,1.31.02,4.02.02,4.52M53.75,79.66c.13.29.09.87.23,1.14.13.27.43.45.51.59.11.18.07.64.21.96.07.15.14.3.22.43-.1.1-.18.22-.25.34-.22-.5-.77-.56-1.18-.3-.21.13-.45.34-.65.66.08-.57-.02-.75-.24-.97-.32-.32-.19-1.01-.46-1.42-.2-.32-.58-.42-.82-.91-.24-.49-.12-.75-.37-1.23-.28-.55-.35-.73-.36-1.47.32.4.68.74,1.16,1.23.17-1.16.19-1.43.19-2.43.49.42.99,1.04,1.15,1.46.09.25.18.99.22,1.11.12.38.29.5.42.79M55.9,83.03c.52.04.23,2.27.61,3.05.39.79.22,1.44-.51,1.38-.75-.07-.7-2.33-.71-2.73,0-.56-.28.3-.44.61-.03-.14-.06-.29-.09-.45-.05-.38-.01-.63.01-.87.2-.53.6-1.04,1.12-1M56.56,83.94c.21-.67.76-1.61,1.4-1.46.5.11.02,1.72.33,2.51.59,1.54-.24,2.06-.95,1.88-.8-.2-.45-2.35-.37-2.66.02-.51-.24,0-.43.27-.04-.13-.06-.22.02-.55M58.94,84.26l4.72,3.22v6.79c-7.5,4.25-15.91,6.72-24.58,6.9h-.14s-.66.54-.98.81h0s0,0,0,0c-.32-.27-.98-.81-.98-.81h-.14c-8.67-.18-17.07-2.65-24.57-6.9v-6.79s4.71-3.22,4.71-3.22c.12.07.23.13.35.2.02.68-.46,1.02-.35,1.72.09.58.44.99.86,1.18.11.25.32.46.6.58.29.11.25-.14.25-.51.06-.02.12-.04.19-.07.08.27.26.48.49.59.1.21.29.4.66.65.37.17.12-.23.05-.59.14-.03.27-.09.41-.18.05.11.12.21.22.28.03.03.07.05.1.07.09.38.36.59.76.82.27.09.17-.22.14-.5.37,0,.7-.2.85-.81.07-.29.07-.47.05-.62,4.48,1.9,9.32,3.2,14.05,3.35.17.13,1.3.98,1.3.98,0,0,1.14-.85,1.3-.98,4.71-.15,9.52-1.42,13.97-3.31-.01.15-.01.33.06.59.15.61.47.81.84.81-.03.29-.13.59.14.5.4-.23.66-.44.76-.82.03-.02.07-.05.1-.07.1-.07.17-.17.22-.28.14.09.27.15.41.18-.07.36-.32.76.05.59.37-.25.56-.44.66-.65.23-.12.41-.32.49-.59.06.03.12.05.19.07,0,.37-.04.61.25.51.28-.12.49-.32.6-.58.42-.19.78-.6.86-1.18.11-.68-.35-1.03-.35-1.68.14-.08.28-.15.41-.23M17.58,85c.3-.79-.18-2.4.32-2.51.64-.15,1.2.79,1.41,1.46.06.19.05.48.03.55-.18-.28-.45-.78-.43-.28.07.31.43,2.46-.38,2.66-.71.18-1.54-.34-.95-1.88M19.96,83.03c.52-.04.92.47,1.12,1,.03.24.07.48.02.87-.02.16-.05.31-.09.45-.15-.32-.44-1.18-.44-.61,0,.4.04,2.66-.71,2.73-.73.07-.89-.59-.51-1.38.38-.78.1-3.01.61-3.05M22.56,84.74c-.61,1.11-.07,3.18-.77,3.23-2.01.13-.52-2.39-.44-3.02.09-.8,0-1.98.79-1.73.7.21,1.6,2.5,2.04,3.18,0,0,.01.02.02.02-.16-.06-.32-.13-.48-.2.05.02.08.03.1.03-.72-.28-1.13-2.02-1.26-1.51M53.73,83.22c.79-.24.7.93.79,1.73.07.63,1.57,3.15-.44,3.02-.7-.04-.16-2.12-.77-3.23-.11-.46-.45.96-1.04,1.46-.19.08-.39.16-.58.24.46-.78,1.36-3.02,2.04-3.22M42.75,83.51c.5,2.93-2.38,3.09-2.82.83-.05-.29-.13-1.15-.22-2.31-.22-3.93-.54-10.17-.56-11.34.49-.31,1.07-.55,1.66-.7.32,2.22,1.8,12.73,1.94,13.52M43.05,69.84c.31.06.57.16.76.32.28.19.59.47.92.79.52,1.97,2.62,9.84,2.81,10.63.23.95.48,1.81.88,2.21-1.27.24-2.17,0-2.47-1.16-.38-1.81-2.38-10.81-2.9-12.8M45.19,82.68c.17.97.94,2.35.05,2.56-1.37.34-1.49-.43-1.71-1.6,0-.03-1.93-12.62-2.2-13.76.44-.08.87-.11,1.26-.09.28,1.39,2.47,12.11,2.61,12.9M36.92,83.88c0-1.53.24-11.26.28-12.83.39.34.65.74.73,1.18.08-.44.35-.84.74-1.18.04,1.57.28,11.3.28,12.83,0,1.66-.44,2.26-1.01,2.6-.57-.34-1.01-.94-1.01-2.6M27.57,81.48c-.37,1.33-1.28,2.7-1.49,2.92.78.29,2.2.52,3.2.13-.15.52-.14,1,.31,1.44.55.55,2.09.94,2.84-.35.6,2.14,2.91,2.04,3.82.54.39,1.24,1.21,1.4,1.67,1.87.47-.47,1.28-.62,1.68-1.87.91,1.5,3.22,1.6,3.82-.54.75,1.29,2.29.89,2.84.35.44-.45.45-.92.31-1.44,1,.4,2.42.17,3.2-.13-.21-.21-1.12-1.59-1.49-2.92-.46-1.61-2.13-7.42-2.89-9.8,2.04,2.35,4.38,6.32,4.53,8.41.07-.3.2-.66.33-1.05.47.98,1.6,2.98,1.79,3.45.2.5.25.82.11,1.48-.1.48-.54,1.92-1.46,2.84,0,0,0,0,0,0-3.7,1.38-7.6,2.23-11.6,2.34-.33.27-1.13.87-1.13.87,0,0-.8-.61-1.13-.87-3.99-.11-7.87-.96-11.56-2.33,0,0,0,0,0-.01-.93-.93-1.47-2.38-1.58-2.85-.14-.66-.09-.98.11-1.48.19-.47,1.32-2.48,1.79-3.45.13.39.26.75.32,1.05.15-2.09,2.49-6.07,4.53-8.41-.75,2.38-2.43,8.19-2.89,9.8M29.92,82.64c-.3,1.16-1.2,1.4-2.47,1.16.4-.4.65-1.26.88-2.21.19-.79,2.29-8.66,2.81-10.63.33-.33.64-.59.92-.79.19-.15.45-.26.76-.32-.53,1.99-2.51,10.98-2.9,12.8M35.05,69.99c.59.16,1.17.39,1.66.7-.02,1.18-.34,7.41-.56,11.34-.09,1.16-.17,2.02-.22,2.31-.43,2.26-3.31,2.1-2.81-.83.13-.79,1.62-11.3,1.94-13.52M32.33,83.64c-.22,1.18-.34,1.94-1.71,1.6-.89-.21-.11-1.59.05-2.56.14-.84,2.29-11.31,2.61-12.9.39-.02.81.01,1.25.09-.27,1.13-2.2,13.72-2.2,13.76M21.16,82.35c.14-.32.1-.78.21-.96.08-.13.38-.32.51-.59.13-.27.1-.85.23-1.14.13-.29.3-.41.42-.79.04-.12.13-.85.22-1.11.16-.42.66-1.05,1.15-1.46,0,1,.01,1.27.19,2.43.49-.49.85-.83,1.16-1.23-.02.74-.08.92-.36,1.47-.25.48-.13.75-.37,1.23-.24.49-.62.59-.82.91-.27.41-.13,1.09-.46,1.42-.22.22-.32.4-.24.97-.19-.32-.44-.53-.65-.66-.41-.26-.96-.2-1.18.29-.07-.11-.15-.23-.25-.34.07-.13.15-.28.22-.43M21.22,53.75c0,.95-.84,1.91-1.89,2.68.14-.51.22-1.08.22-1.73v-3.47c0-.55-.05-1.35.04-1.98.77-.57,1.31-1.2,1.69-1.84,0,2.24-.06,5.69-.06,6.34M19.54,57.74c.79-.59,1.37-1.25,1.71-1.87-.02,1.56-.03,2.98-.03,3.38,0,.89-.72,1.77-1.67,2.51v-2.86c0-.33-.02-.75-.01-1.16M21.21,67.28c0,.88-.72,1.77-1.67,2.51v-2.04c0-.49-.04-3.22.02-4.52.79-.61,1.36-1.28,1.7-1.9,0,2.23-.05,5.33-.05,5.95M18.47,51.61v2.87c0,1.86-.93,3.04-1.93,3.68.2-.58.32-1.25.32-2.04v-4.22c0-.22,0-.46,0-.7.53-.33.97-.7,1.33-1.12.11-.06.22-.11.33-.17-.03.41-.05.95-.05,1.69M16.81,65.65c.03-.27.05-.56.05-.86v-4.22c0-.32,0-.67.02-1.02.41-.25.81-.54,1.18-.91.14-.07.28-.14.41-.22,0,.25,0,.54,0,.86v2.87c0,1.7-.77,2.82-1.66,3.5M18.47,68.13v2.87c0,1.67-.74,2.78-1.61,3.46v-3.54c0-.36,0-2.48.04-3.69.58-.35,1.14-.8,1.6-1.41-.02.78-.02,1.78-.02,2.31M15.78,61.71v2.85c0,1.92-.99,3.11-2.02,3.75.01-.2.02-.41.02-.64v-4.95c0-.16,0-.88,0-1.52.4-.21.81-.46,1.19-.78.25-.09.54-.2.84-.33,0,.53-.03.53-.03,1.62M15.78,72.05v2.86c0,1.91-.97,3.09-2,3.73v-4.89c0-.2,0-2.55,0-3.87.71-.38,1.45-.88,2.02-1.65,0,1.12-.03,2.99-.03,3.82M13.54,59.77c.15-.53.24-1.12.24-1.8v-5.25c.36-.19.73-.41,1.07-.68.33-.09.64-.19.93-.3-.01.33,0,.72,0,1.31v2.85c0,2.06-1.13,3.27-2.24,3.87M12.7,64.3v3.15c0,2.13-1.31,3.48-2.36,3.96.15-.51.23-1.09.23-1.75v-.07s0,0,0,0c0-.07,0-.14,0-.22v-1.14h0v-1.84c0-.76-.04-2.21-.02-3.26.63-.31,1.29-.73,1.85-1.33.11-.05.23-.09.36-.14-.03.9-.05,2.07-.05,2.63M12.7,75.32v3.15c0,2.26-1.44,3.53-2.34,3.92.21-.27.21-.9.21-1.99v-1.15h0v-1.84c0-.35-.01-2.22-.01-4.54.75-.33,1.57-.82,2.19-1.65-.03,1.54-.05,3.55-.05,4.1M10.54,54.64c.63-.31,1.29-.73,1.85-1.33.11-.04.23-.09.35-.13-.03.39-.05.86-.05,1.42v3.15c0,2.16-1.25,3.4-2.41,3.96.18-.56.28-1.19.28-1.93v-3.09c0-.69-.04-1.39-.02-2.05M6.92,63.58c.21-.27.43-1.01.43-2.1v-5.04c.57-.28,1.16-.66,1.68-1.17.15-.06.32-.12.5-.19-.03.41-.05.86-.05,1.37v3.1c0,2.26-1.36,3.5-2.57,4.03M9.49,66.15c0,.59-.05,3.62-.05,3.98,0,1.57-1.44,2.86-2.52,3.33.21-.27.43-1.01.43-2.1v-6.44c.57-.28,1.16-.66,1.68-1.17.16-.06.34-.13.53-.2-.05.84-.08,1.95-.08,2.6M9.49,77.18v3.59c0,.45-.04,1.77-.05,3.29,0,0,0,0,0,0v2.41c0,1.51-1.44,2.86-2.52,3.33.21-.27.43-1.01.43-2.1v-12.89c.67-.33,1.37-.79,1.95-1.45.06-.02.13-.05.21-.08-.01,2.02-.02,3.59-.02,3.89M30.63,25.79h0c-.28.08-1.76.33-1.95.15.33-.17.55-.27,1.17-.66.45.04.89.31,1.6.74-.39-.16-.43-.29-.81-.22M69.58,65.39c.31.12.58.21.79.29-.85-1.28-.79-3.35-.79-3.84v-4.95c.31.12.58.21.79.3-.85-1.28-.79-3.36-.79-3.85v-11.51c0-3.18-4.87-10.9-8.99-11.01-2.92-.07-6.35,4.04-10.55,2.98-1.35-.35-2.42-1.8-3.31-3.58-1.56-3.19-3.07-7.47-6.88-9.94-4.22-2.73-9.07.32-9.63.81-.48.44-1.24,1.75-1.64,1.96-1.32.69-1.53,1.84-1.53,2.28s.1,1.5.9,2.1c-.11-.52-.14-.81-.02-1.07.52.09,1.68.32,2.43.02.37.37,1.24,1.07,1.62,1.79.53,1.01.54,1.16.54,1.55,0,1.02-.48,2.48-1.93,3.44-1.53,1.09-5.14,1.7-9.67.15-2.45-.84-3.45-2.54-5.65-2.48-4.12.1-8.99,7.82-8.99,11.01v11.51c0,.49.07,2.56-.78,3.85.21-.09.48-.18.78-.3v4.95c0,.49.07,2.56-.78,3.84.21-.08.48-.18.78-.29v6.34c0,.49.07,2.56-.78,3.85.21-.09.48-.17.78-.29v12.78c0,.36.04,1.62-.3,2.77-.11.38.15.84.55.68,1.65-.66,4.05-1.94,4.05-5.53v-2.02c1.19-.52,2.61-1.44,3.06-3.68,1.35-.67,2.83-1.83,3.16-4.16,1.38-.8,2.74-2.19,2.76-4.87,1.2-.91,1.91-1.97,2.05-2.79.1-.56.17-1.88.19-3.42.87-.63,1.49-1.35,1.85-2.01-.14,3.32-.8,7.79-2.37,13.98.28,0,.65-.06,1.02-.15-.21,1.25-1.27,4.22-1.98,5.57-.1,0-.2,0-.31,0-.23.04-.4.27-.52.55-.32-.49-.72-1.28-1.66-.98-.48.16-.66.54-.7.95-.78.49-6.05,3.76-6.05,3.76v8.15c7.83,4.64,16.45,7.43,25.76,7.62.3.3,1.13.93,1.13.93,0,0,.83-.63,1.13-.93,9.3-.19,17.93-2.99,25.76-7.62v-8.15s-5.72-3.55-6.13-3.81c-.05-.38-.23-.74-.7-.9-.93-.3-1.34.49-1.65.98-.11-.28-.28-.51-.52-.55-.11-.02-.22-.02-.31,0-.71-1.35-1.78-4.32-1.98-5.57.38.09.75.15,1.02.15-1.56-6.19-2.23-10.66-2.37-13.98.35.65.98,1.37,1.84,2,.03,1.53.1,2.87.19,3.42.14.82.86,1.89,2.06,2.8.02,2.68,1.38,4.06,2.76,4.86.33,2.34,1.81,3.5,3.16,4.16.46,2.24,1.87,3.16,3.06,3.68v2.02c0,3.54,2.35,4.84,3.99,5.51.42.17.77-.15.66-.46-.41-1.2-.37-2.59-.37-2.97v-12.77c.31.12.58.19.79.27-.85-1.28-.79-3.36-.79-3.85v-6.34ZM57.79,93.7c-.11.04-.22.09-.34.13-.03-.08-.06-.16-.09-.24.07-.14.15-.28.22-.42.15.05.3.1.46.16.03.08.06.16.1.24-.12.04-.23.09-.35.14M57.25,92.34c-.22.43-.44.85-.67,1.27.06.16.12.32.18.48-.23.08-.46.17-.7.25-.42-1.17-.83-2.34-1.25-3.51-.06-.18-.06-.39.17-.54-.42-.16-.83-.33-1.24-.5.54,1.6,1.09,3.19,1.63,4.79.07.2.14.4.2.6.18-.06.35-.12.53-.18l.17-.06c.58-.21,1.16-.43,1.75-.65.35-.14.69-.28,1.03-.42-.15-.35-.3-.7-.44-1.05-.46-.15-.91-.31-1.36-.47M62.46,92.3c.22-.11.44-.22.66-.34-.67-1.29-1.34-2.58-2.01-3.87-.09-.17-.11-.37.1-.56-.44-.1-.88-.21-1.31-.32.76,1.51,1.52,3.01,2.27,4.52.1.19.19.38.29.57M50.54,53.76s.01.02.01.03c0,0-.01.02-.02.02l-.67.15-.15.58s-.01.02-.03.02h0s-.02,0-.02-.02l-.33-.54-.67-.02s-.02,0-.03-.02c0-.01,0-.02,0-.03l.42-.5-.17-.63s0-.02,0-.03c.01,0,.02-.01.03,0l.61.27.53-.34s.01,0,.02,0,.01,0,.02,0h0s.01.02.01.03l-.12.59.54.43ZM43.82,60.86l-.3-1.15s-.01-.02-.03-.02c-.01,0-.02,0-.03.01,0,0-.58.85-.76,1.08-.29,0-1.33-.08-1.33-.08-.01,0-.02,0-.03.02,0,0,0,.02,0,.03l.72.95c-1.28.49-2.68.76-4.13.76s-2.94-.29-4.26-.81l.68-.9s0-.02,0-.03c0,0-.02-.02-.03-.02,0,0-1.04.08-1.33.08-.18-.23-.76-1.08-.76-1.08,0-.01-.02-.02-.03-.01-.01,0-.02.01-.02.02l-.28,1.05c-2.36-1.43-4.16-3.68-5.03-6.35l1.08-.03s.02,0,.02-.02c0,0,0-.02,0-.03,0,0-.68-.76-.87-.99.08-.29.36-1.27.36-1.27,0-.01,0-.02,0-.03,0-.01-.02-.01-.03,0l-1,.44c-.08-.54-.12-1.1-.12-1.66,0-2.36.71-4.56,1.93-6.4l.66.78s.01.01.02.01c0,0,0,0,0,0,.01,0,.02-.01.02-.02,0,0,.17-1.01.23-1.29.28-.12,1.24-.5,1.24-.5.01,0,.02-.01.02-.02,0-.01,0-.02-.02-.03l-.95-.49c1.89-2.01,4.48-3.35,7.39-3.62l-.21,1.08s0,.02.01.03c0,0,0,0,.02,0,0,0,0,0,.02,0,0,0,.9-.52,1.15-.64.26.13,1.16.64,1.16.64,0,0,.02,0,.03,0,0,0,.01-.02.01-.03l-.21-1.09c2.94.23,5.58,1.55,7.5,3.57l-1.06.55s-.02.02-.02.03c0,.01,0,.02.02.03,0,0,.96.37,1.24.5.06.28.23,1.29.23,1.29,0,.01.01.02.02.02,0,0,0,0,0,0,.01,0,.02,0,.02-.01l.75-.9c1.26,1.86,2,4.1,2,6.51,0,.59-.05,1.17-.13,1.73l-1.16-.52s-.02,0-.03,0c-.01,0-.01.02-.01.03,0,0,.28.98.36,1.27-.19.23-.87.99-.87.99,0,0-.01.02,0,.03,0,.01.02.02.03.02l1.25.03c-.89,2.72-2.75,5.01-5.18,6.44M44.13,61.58s0,.01,0,.01l-.53.29v.68s0,.02,0,.03h-.02s-.01,0-.02,0l-.53-.42-.33.14-.22.09h0s0,0,0,0c0,0-.02,0-.03,0,0,0,0-.01,0-.02,0,0,0-.01,0-.02l.09-.25.13-.34-.17-.22h0l-.23-.31s0-.01,0-.01c0,0,0-.01,0-.02,0,0,0,0,.01,0,0,0,0,0,.01,0l.64.02.39-.52s.02-.01.03,0c.01,0,.02,0,.02.02,0,0,0,0,0,0l.1.38.07.27.45.15.15.05s.02.01.02.02c0,0,0,.01,0,.02M33.48,61.22s0,.01,0,.02l-.23.31-.17.23.09.25.12.34s0,.02,0,.03c0,0,0,0,0,0,0,0-.02,0-.02,0l-.15-.06-.29-.12s.01,0,.02,0l-.13-.05-.2.16-.33.26s-.01,0-.02,0h-.01s-.01-.02-.01-.03v-.68s-.52-.28-.52-.28c-.01,0-.02-.02-.02-.03h0s0-.02.02-.02l.3-.1.3-.1.09-.35.08-.3s.01-.02.02-.02c.01,0,.02,0,.03,0h0l.2.26.2.26h.64s.02-.01.03,0c0,0,0,0,0,.01M26.06,54.55s-.01.02-.02.02h0s-.02-.01-.02-.02l-.15-.58-.67-.15s-.02-.01-.02-.02c0-.01,0-.02.01-.03l.54-.43h0s-.02-.13-.02-.13h0s-.09-.46-.09-.46c0,0,0-.02,0-.02,0,0,0,0,0,0,.01,0,.02,0,.03,0l.53.34.33-.14.28-.13s.02,0,.03,0c.01,0,.01.02.01.03l-.17.63.42.5s0,.02,0,.03c0,0-.01.02-.02.02l-.67.02-.33.54ZM27.56,43.79l.36-.48-.3-.61s0-.02,0-.03c0,0,.02-.01.03-.01l.68.15.39-.46s.02-.01.03,0c.01,0,.02.01.02.02l.05.63.6.31s.02.01.02.02c0,.01,0,.02-.02.03l-.59.26-.13.64s-.01.02-.02.02h0s-.02,0-.02,0l-.16-.19-.27-.32-.6.08h-.02s-.02,0-.03-.01c0-.01,0-.02,0-.03M36.92,38.4s.01-.01.02-.01l.6-.03.3-.62s.02-.02.03-.02c.01,0,.02,0,.03.02l.3.62h.05s0,0,0,0l.41.02h0s.1,0,.15,0c0,0,.01,0,.02.02h0s0,.02,0,.03l-.45.43.13.66s0,.02-.01.03c0,0-.01,0-.02,0,0,0-.01,0-.01,0l-.58-.29-.58.29s-.02,0-.03,0c0,0-.01-.02-.01-.03l.06-.31.07-.35-.45-.43s-.01-.02,0-.03c0,0,0,0,0,0M46.64,43.12l.26-.13.05-.63s0-.02.02-.02c0,0,.01,0,.02,0,0,0,.01,0,.02,0l.39.46h.05s.62-.16.62-.16c.01,0,.02,0,.03.01,0,0,0,.02,0,.03l-.3.61.36.48s.01.02,0,.03c0,.01-.02.02-.03.01l-.63-.08-.43.51s-.01.01-.02.01c0,0,0,0,0,0-.01,0-.02-.01-.02-.02l-.13-.64-.59-.26s-.02-.02-.02-.03,0-.02.02-.03l.34-.18ZM50.66,51.85s0-.02-.01-.03c-.01,0-.02,0-.03,0,0,0-.1.07-.24.17.03-.39.06-.77.06-1.17,0-2.38-.67-4.6-1.83-6.49.23.04.41.07.41.07.01,0,.02,0,.03-.01,0,0,0-.02,0-.03,0,0-.58-.87-.75-1.1.13-.27.53-1.16.53-1.16,0,0,0-.02,0-.03,0,0-.02-.01-.03-.01l-1.23.28c-.2-.23-.89-1-.89-1,0,0-.02-.01-.03,0,0,0-.02.01-.02.03l-.04.47c-1.91-1.83-4.4-3.06-7.16-3.39.21-.19.4-.36.4-.36,0,0,.01-.02,0-.03,0-.01-.01-.02-.03-.02,0,0-1.05-.07-1.34-.09-.13-.26-.57-1.13-.57-1.13h0s-.02-.02-.03-.02c0,0-.02,0-.02.02,0,0-.44.87-.56,1.13-.29.01-1.34.08-1.34.08-.01,0-.02,0-.03.02,0,.01,0,.02,0,.03,0,0,.19.17.41.37-2.78.36-5.27,1.64-7.16,3.52l-.05-.62s0-.02-.02-.02c0,0-.02,0-.03,0,0,0-.69.77-.89,1l-1.23-.28s-.02,0-.03.01c0,.01,0,.02,0,.03,0,0,.4.89.53,1.16-.17.24-.75,1.1-.75,1.1,0,.01,0,.02,0,.03,0,0,.02.01.03.01,0,0,.28-.05.6-.1-1.17,1.9-1.85,4.13-1.85,6.52,0,.44.02.87.07,1.29-.23-.16-.43-.3-.43-.3,0-.01-.02-.01-.03,0-.01,0-.01.02-.01.03,0,0,.14,1.02.2,1.32l-1,.79s-.01.02-.01.03c0,.01.01.02.02.02,0,0,.96.24,1.25.3.07.29.39,1.27.39,1.27,0,.01.01.02.02.02h0s.02,0,.03-.02c0,0,.12-.22.26-.47.93,2.53,2.65,4.67,4.86,6.13-.29.08-.54.15-.54.15-.01,0-.02.01-.02.02,0,.01,0,.02.02.03,0,0,.91.52,1.16.66,0,.17.02,1.27.02,1.27,0,.01,0,.02.02.02,0,0,.01,0,.01,0,0,0,.02,0,.02,0l1-.78,1.25.53s.02,0,.03,0c0,0,.01-.02,0-.03,0,0-.1-.24-.21-.51,1.28.45,2.66.7,4.1.7,1.36,0,2.67-.22,3.9-.62-.1.24-.18.44-.18.44,0,.01,0,.02,0,.03,0,0,.02.01.03,0l1.25-.53,1,.78s.01,0,.02,0h.01s.02-.01.02-.03c0,0,.02-1.1.02-1.27.26-.14,1.17-.66,1.17-.66.01,0,.02-.02.02-.03,0-.01,0-.02-.02-.02,0,0-.19-.05-.42-.12,2.18-1.43,3.89-3.52,4.84-5.98.09.17.16.29.16.29,0,.01.02.02.03.02h0s.02-.01.02-.02c0,0,.31-.99.39-1.27.29-.06,1.25-.3,1.25-.3,0,0,.02-.01.02-.02,0-.01,0-.02-.01-.03l-.99-.79c.05-.29.2-1.32.2-1.32M60.75,92.15c.04.08.07.15.11.23-.11.05-.23.11-.34.16-.11.05-.22.1-.33.15-.03-.08-.07-.15-.1-.23.07-.15.13-.29.2-.44.16.04.31.09.47.13M60.11,90.77c-.07.15-.13.3-.2.44-.15-.05-.3-.09-.45-.14-.45-1-.9-2-1.36-3-.19.46-.38.91-.59,1.36.28-.04.48.08.56.25.26.6.52,1.2.78,1.8.02.04.03.08.05.12.24.08.49.16.73.23-.11.23-.22.47-.33.7.15.35.3.7.46,1.05.34-.15.68-.3,1.02-.45.34-.16.68-.32,1.01-.48-.16-.34-.33-.68-.5-1.03-.25-.07-.5-.13-.74-.21.1-.24.2-.47.3-.7-.31-.63-.61-1.25-.92-1.88-.08-.17-.04-.4.18-.58-.47-.14-.95-.29-1.41-.44.47.99.93,1.98,1.4,2.98M45.01,92.79c-.37-.25-.74-.5-1.1-.75.22,1.89.45,3.77.68,5.65.25-.03.49-.06.73-.09-.19-1.44-.38-2.88-.58-4.32-.02-.19.01-.39.27-.48M52.26,91.67c-.05-.18-.04-.39.2-.52-.41-.19-.81-.38-1.21-.57.46,1.62.91,3.25,1.37,4.87.06.2.12.41.17.61.24-.07.47-.13.7-.2-.41-1.39-.82-2.79-1.24-4.18M40.71,96.74c-.15-.25-.31-.49-.45-.74.07,0,.14,0,.21,0,0-.18.07-.28.19-.39.13.09.21.19.23.37.07,0,.14,0,.21-.01-.13.26-.25.52-.39.78M42.37,93.08c.27.04.35.22.37.41.12,1.24.23,2.47.35,3.71-.64.06-1.27.11-1.91.14.34-.7.67-1.39.99-2.1-.28.02-.55.04-.83.06-.12-.21-.46-.45-.72-.46-.25.04-.57.3-.66.53-.28,0-.56.02-.83.02.38.67.78,1.33,1.19,1.99-.62.02-1.25.04-1.87.04,0-.63,0-1.27,0-1.9-.35.32-.7.63-1.06.95.22,0,.35.13.35.33,0,.53-.01,1.05-.01,1.58,0,.35-.33.63-.74.62-.33,0-.6-.19-.69-.44.1.43.54.76,1.07.76.62,0,1.1-.42,1.1-.95,0-.1,0-.21,0-.31.78,0,1.55-.02,2.32-.06.79-.04,1.58-.1,2.38-.17.03,0,.07,0,.1-.01.21-.02.42-.04.63-.06-.2-1.89-.4-3.77-.6-5.66-.29.33-.59.66-.9.98M50.46,94.31c.29,0,.4.16.44.34.1.39.2.78.3,1.17-1.05.27-2.11.5-3.17.7-.14.03-.29.05-.43.08-.22-.13-.44-.27-.65-.4.5-.51.81-1.4.62-2.16-.12,1.05-.6,1.79-1.77,2.21.53.35,1.07.69,1.63,1.02.24-.04.48-.09.72-.13,1.32-.25,2.62-.55,3.92-.89-.27-1.02-.54-2.04-.81-3.05-.26.38-.53.75-.8,1.12M54.09,93.01c-.24.41-.48.82-.73,1.22.2-.06.38.02.44.2.15.5.31,1.01.47,1.51.1.33-.14.71-.53.82-.31.09-.62,0-.79-.21.22.38.74.56,1.25.4.6-.18.94-.74.78-1.24-.29-.9-.59-1.81-.88-2.71M29.37,23.32c-.24,0-.42.16-.42.35,0,.17.15.32.36.34-.02-.03-.03-.06-.03-.09,0-.14.18-.26.39-.26.04,0,.09,0,.12.01h0c0-.2-.19-.35-.42-.35"/>
</svg>