<?xml version="1.0" encoding="UTF-8"?>
<svg id="Layer_1" data-name="Layer 1" xmlns="http://www.w3.org/2000/svg" viewBox="0 0 533.34 130.2">
  <defs>
    <style>
      .cls-1 {
        fill: #767c80;
      }

      .cls-2 {
        fill: #757b7e;
      }

      .cls-3 {
        fill: #664917;
      }

      .cls-4 {
        fill: #cf9234;
      }
    </style>
  </defs>
  <path class="cls-4" d="M28.9,105.82l-1.26,2.27c-1.67-.67-2.35-.73-4.39-.79v5.48h5.11l-1.17,2.23c-1.07-.46-2.02-.73-3.94-.7v3.47c0,1.24.12,2.31.47,3.5h-3.29c.49-1.94.52-3.69.52-4.33v-7.26c0-2.21-.27-3.05-.52-3.88h8.47Z"/>
  <path class="cls-4" d="M35.94,114.88c.06-1.96-.66-3.07-2.14-3.07s-2.1,1.24-2.27,3.07h4.41ZM36.04,120.82c-.66.23-1.38.47-2.39.47-3.44,0-4.31-2.78-4.31-5.22,0-3.59,1.8-5.57,4.33-5.57,1.77,0,3.17,1.08,3.48,3.14.15.87.13,1.32.13,2.5l-5.69.12c.06.74.25,3.26,2.64,3.26.87,0,1.61-.29,2.82-.85l-1.01,2.15Z"/>
  <path class="cls-4" d="M45.49,112.83c-.35-.33-.91-.82-1.99-.82-.87,0-1.42.3-2.04.68-.43.74-.89,1.58-.89,3.16,0,3.73,3.19,3.86,3.61,3.86.7,0,1.05-.25,1.31-.45v-6.42ZM47.91,105.74c-.17.73-.37,1.57-.37,3.3v10.46c0,.5,0,.71.37,1.79h-2.41v-1.79c-.78.86-1.6,1.79-3.15,1.79-2.08,0-4.06-1.81-4.06-4.57,0-3.1,2.72-5.99,5.75-5.99.66,0,1.03.1,1.46.23v-1.92c0-1.4-.22-2.08-.45-2.72l2.86-.58Z"/>
  <path class="cls-4" d="M56.32,114.88c.06-1.96-.66-3.07-2.14-3.07s-2.1,1.24-2.27,3.07h4.41ZM56.43,120.82c-.66.23-1.38.47-2.39.47-3.44,0-4.3-2.78-4.3-5.22,0-3.59,1.79-5.57,4.33-5.57,1.77,0,3.17,1.08,3.48,3.14.14.87.12,1.32.12,2.5l-5.69.12c.06.74.25,3.26,2.63,3.26.87,0,1.61-.29,2.83-.85l-1.01,2.15Z"/>
  <path class="cls-4" d="M62.17,110.49c-.1.56-.1.78-.1,1.49v1.32c.64-1.24,1.38-2.75,3.15-2.75.46,0,.66.11.99.27l-.35,2.6c-.56-.51-.85-.79-1.65-.79-1.13,0-1.73.56-2.14.95v5.18c0,1.57.16,1.92.53,2.54h-3.15c.43-.68.53-1.03.53-2.06v-6.87c0-.39,0-.84-.35-1.87h2.53Z"/>
  <path class="cls-4" d="M72.02,116.57h-2.76c-.23.54-.39.99-.39,1.63,0,1.2.97,1.59,2.04,1.59.49,0,.76-.08,1.11-.19v-3.03ZM68.29,110.9l1.36-.29c.37-.09.8-.09.95-.09,2,0,2.84,1.14,3.07,1.53.31.56.31.85.31,1.57l.08,6.17c0,.25.18.87.39,1.5h-2.43v-1.5c-.78.57-1.01.76-1.77,1.4-.12.02-.54.1-.87.1-.84,0-2.72-.74-2.72-2.49,0-1.86,2.39-2.91,3.79-3.47,1.03-.39,1.13-.47,1.57-.78v-.55c0-.54-.04-.7-.12-.87-.29-.54-1.15-1.03-2.14-1.03-.8,0-1.38.31-2.04.7l.58-1.9Z"/>
  <path class="cls-4" d="M79.73,105.72c-.27,1.36-.37,2.6-.37,3.51v8.87c0,1.53.1,1.96.66,3.2h-3.5c.23-.41.79-1.44.79-2.45l.02-10.13c0-.99-.16-1.52-.45-2.41l2.86-.58Z"/>
  <path class="cls-4" d="M92.59,114.67h3.75l-1.79-4.14-1.96,4.14ZM99.94,117.07c1.11,2.41,1.83,3.41,2.41,4.19l-3.67.04c0-.68-.08-1.46-.64-2.72l-.91-2.08h-5.42l-.78,1.67c-.27.57-.87,1.92-.78,3.13h-3.77c.51-.6.97-1.16,2.24-3.69l5.95-11.84h.12l5.24,11.3Z"/>
  <path class="cls-4" d="M105.52,110.49c-.37.59-.51.83-.51,1.79v5.94c.28,1.42,1.46,1.42,1.69,1.42.88,0,1.54-.41,2.01-.74v-5.89c0-1.07-.02-1.61-.41-2.5l3.02-.04c-.31.66-.54,1.15-.54,2v6.27c0,1.43.23,2.15.37,2.54h-2.53c.08-.98.08-1.17.08-2.19l-1.62,1.78c-.31.17-.91.44-1.55.44-.37,0-1.77-.17-2.64-1.98l.04-6.1c.02-1.53-.2-2.06-.55-2.74h3.13Z"/>
  <path class="cls-4" d="M119.19,110.73v1.36h-2.74v3.88c0,2.44,0,2.71.1,2.99.12.37.68.89,1.36.89.35,0,.66-.06,1.4-.23l-1.17,1.51c-.7.14-1.17.22-1.77.22-1.63,0-2.06-1.19-2.06-1.78,0-.46.06-.82.06-1.5v-5.98h-1.4c.3-.37.64-.7,3.48-3.62v2.26h2.74Z"/>
  <path class="cls-4" d="M123.62,105.74c-.23,1.49-.41,2.64-.41,4.19v2.95l1.11-1.27c.37-.44.87-1.02,2.12-1.02.96,0,1.94.58,2.31,1.47.35.76.33,1.55.31,2.62v4.2c0,1.07,0,1.36.23,2.44h-2.51c.31-1.13.31-1.59.31-2.27v-4.06c0-.66.02-1.26-.31-1.73-.42-.58-1.22-.78-1.67-.78-.81,0-1.38.33-1.9.64v4.56c0,2.43.12,2.82.35,3.63h-2.94c.33-.78.61-1.48.61-3.75v-7.84c0-1.67-.12-2.27-.49-3.41l2.88-.55Z"/>
  <path class="cls-4" d="M139.26,115.97c0-2.18-1.38-4.14-3.3-4.14-1.4,0-2.61,1.36-2.61,3.63,0,3.1,2.06,4.63,4.03,4.46.72-.58,1.88-1.61,1.88-3.94M141.2,115.54c0,4.7-3.94,5.92-5.25,5.92-2.1,0-4.8-1.38-4.8-5.14,0-4.49,3.03-5.42,4.8-5.96,2.95-.1,5.25,1.98,5.25,5.18"/>
  <path class="cls-4" d="M145.72,110.49c-.1.56-.1.78-.1,1.49v1.32c.64-1.24,1.38-2.75,3.15-2.75.45,0,.66.11.99.27l-.35,2.6c-.56-.51-.84-.79-1.65-.79-1.13,0-1.73.56-2.14.95v5.18c0,1.57.17,1.92.54,2.54h-3.15c.43-.68.54-1.03.54-2.06v-6.87c0-.39,0-.84-.35-1.87h2.53Z"/>
  <path class="cls-4" d="M153.82,107.48c0,.6-.43,1.55-1.46,1.55-.81,0-1.47-.62-1.47-1.59,0-1.07.81-1.55,1.42-1.55.93,0,1.5.87,1.5,1.59M153.86,110.47c-.27.51-.51.97-.51,2.7v5.14c0,1.96.33,2.52.62,2.99h-3.32c.48-.72.64-.99.64-3.11v-4.99c0-1.38-.14-1.88-.55-2.72h3.13Z"/>
  <path class="cls-4" d="M161.67,110.73v1.36h-2.74v3.88c0,2.44,0,2.71.1,2.99.12.37.68.89,1.36.89.35,0,.66-.06,1.4-.23l-1.17,1.51c-.7.14-1.18.22-1.77.22-1.63,0-2.06-1.19-2.06-1.78,0-.46.06-.82.06-1.5v-5.98h-1.4c.3-.37.64-.7,3.47-3.62v2.26h2.74Z"/>
  <path class="cls-4" d="M165.45,110.47c.08.58.23,1.13.46,1.67l2.12,5.16c1.88-5.14,1.89-5.47,1.89-6.83h3.22c-.72,1.03-1.07,1.52-2.49,5.34l-1.4,3.77c-.44,1.2-1.79,3.99-2.1,4.21l-1.19.85h-2.02l1.34-1.61c.37-.45.8-1.3,1.61-3.01-.6-1.54-1.54-3.85-2.35-5.8-.17-.39-.95-2.32-1.96-3.75h2.88Z"/>
  <path class="cls-4" d="M186.41,112.12h-2.35v6.56c0,1.49.27,2,.58,2.58l-3.29.04c.49-.9.6-1.65.6-2.78v-6.39l-1.07-.04c.52-.66.66-.87,1.07-1.52v-.64c0-1.14,0-4.23,3.54-4.23.78,0,1.4.14,1.96.26-.21,1.04-.27,1.32-.41,2.31-.25-.52-.64-1.05-1.57-1.05-1.4,0-1.4,1.48-1.4,2.12v1.36h2.35v1.43Z"/>
  <path class="cls-4" d="M194.63,115.97c0-2.18-1.38-4.14-3.3-4.14-1.4,0-2.62,1.36-2.62,3.63,0,3.1,2.06,4.63,4.04,4.46.72-.58,1.87-1.61,1.87-3.94M196.57,115.54c0,4.7-3.94,5.92-5.26,5.92-2.1,0-4.8-1.38-4.8-5.14,0-4.49,3.03-5.42,4.8-5.96,2.95-.1,5.26,1.98,5.26,5.18"/>
  <path class="cls-4" d="M201.09,110.49c-.1.56-.1.78-.1,1.49v1.32c.64-1.24,1.38-2.75,3.15-2.75.45,0,.66.11.99.27l-.35,2.6c-.56-.51-.84-.79-1.65-.79-1.13,0-1.73.56-2.14.95v5.18c0,1.57.16,1.92.54,2.54h-3.15c.43-.68.54-1.03.54-2.06v-6.87c0-.39,0-.84-.35-1.87h2.53Z"/>
  <path class="cls-4" d="M216.23,105.82c.29.71.43,1.08,1.65,2.62l6.98,8.88v-7.03c0-2.85-.18-3.57-.43-4.46h2.97c-.2.83-.39,1.65-.39,3.3v8.31c0,2.39.29,3.21.51,3.85h-2.86c-.27-.82-.79-1.54-1.32-2.23l-6.58-8.41v6.1c0,1.36.14,3.28.62,4.54h-3.27c.49-1.61.51-3.8.51-4.08v-9.3c-.74-.95-1.15-1.34-2.08-2.09h3.69Z"/>
  <path class="cls-4" d="M232.94,110.49c-.37.59-.51.83-.51,1.79v5.94c.28,1.42,1.46,1.42,1.69,1.42.89,0,1.55-.41,2.02-.74v-5.89c0-1.07-.02-1.61-.41-2.5l3.03-.04c-.31.66-.54,1.15-.54,2v6.27c0,1.43.23,2.15.37,2.54h-2.54c.08-.98.08-1.17.08-2.19l-1.63,1.78c-.31.17-.91.44-1.55.44-.37,0-1.77-.17-2.63-1.98l.04-6.1c.02-1.53-.2-2.06-.56-2.74h3.13Z"/>
  <path class="cls-4" d="M248.34,112.98c-.48-.49-1.05-1.09-2.31-1.09-2.39,0-3.07,2.17-3.07,3.75,0,3.16,2.02,4.03,3.4,4.03.93,0,1.69-.23,2.31-.41l-1.11,1.73c-.5.14-.97.27-1.75.27-2.86,0-5.01-2.14-5.01-5.07,0-1.48.7-5.67,5.65-5.67.95,0,1.52.11,2.08.2l-.19,2.27Z"/>
  <path class="cls-4" d="M252.95,105.72c-.26,1.36-.37,2.6-.37,3.51v8.87c0,1.53.1,1.96.66,3.2h-3.5c.23-.41.79-1.44.79-2.45v-10.13c.01-.99-.15-1.52-.43-2.41l2.86-.58Z"/>
  <path class="cls-4" d="M261.5,114.88c.06-1.96-.66-3.07-2.14-3.07s-2.1,1.24-2.27,3.07h4.41ZM261.6,120.82c-.66.23-1.38.47-2.39.47-3.44,0-4.31-2.78-4.31-5.22,0-3.59,1.79-5.57,4.33-5.57,1.77,0,3.17,1.08,3.48,3.14.14.87.12,1.32.12,2.5l-5.69.12c.06.74.25,3.26,2.63,3.26.87,0,1.61-.29,2.83-.85l-1.01,2.15Z"/>
  <path class="cls-4" d="M269.24,116.57h-2.76c-.23.54-.39.99-.39,1.63,0,1.2.97,1.59,2.04,1.59.5,0,.76-.08,1.11-.19v-3.03ZM265.51,110.9l1.36-.29c.37-.09.8-.09.95-.09,2,0,2.84,1.14,3.07,1.53.31.56.31.85.31,1.57l.09,6.17c0,.25.18.87.39,1.5h-2.43v-1.5c-.78.57-1.01.76-1.77,1.4-.12.02-.54.1-.86.1-.85,0-2.72-.74-2.72-2.49,0-1.86,2.39-2.91,3.79-3.47,1.03-.39,1.13-.47,1.57-.78v-.55c0-.54-.04-.7-.12-.87-.29-.54-1.16-1.03-2.14-1.03-.8,0-1.38.31-2.04.7l.58-1.9Z"/>
  <path class="cls-4" d="M276.77,110.49c-.1.56-.1.78-.1,1.49v1.32c.64-1.24,1.38-2.75,3.15-2.75.45,0,.66.11.99.27l-.35,2.6c-.56-.51-.85-.79-1.65-.79-1.13,0-1.73.56-2.14.95v5.18c0,1.57.16,1.92.53,2.54h-3.15c.43-.68.54-1.03.54-2.06v-6.87c0-.39,0-.84-.35-1.87h2.53Z"/>
  <path class="cls-4" d="M292.13,113.91c1.46-.41,3.81-1.08,3.81-3.44,0-1.16-.72-3.01-3.81-3.33v6.77ZM289.84,109.06c0-1.82-.25-2.66-.42-3.19l3.01-.04c3.98-.06,5.85,2.33,5.85,4.42,0,2.52-2.22,3.76-2.92,4.12,1.37,2.44,3.27,4.73,5.1,6.93h-2.12c-2.08-1.79-3.02-2.91-6.22-7.15v3.81c0,1.2.01,1.69.43,3.34h-3.13c.33-1.52.42-2.66.42-4v-8.23Z"/>
  <path class="cls-4" d="M308.03,114.88c.06-1.96-.66-3.07-2.14-3.07s-2.1,1.24-2.27,3.07h4.41ZM308.13,120.82c-.65.23-1.38.47-2.39.47-3.44,0-4.31-2.78-4.31-5.22,0-3.59,1.79-5.57,4.33-5.57,1.77,0,3.17,1.08,3.48,3.14.14.87.12,1.32.12,2.5l-5.68.12c.06.74.25,3.26,2.63,3.26.86,0,1.61-.29,2.82-.85l-1.01,2.15Z"/>
  <path class="cls-4" d="M315.76,116.45c.47-.33,1.2-.82,1.2-1.96,0-1.3-.89-2.91-2.21-2.91-.94,0-1.71.76-1.71,2.19s.76,2.76,2.26,2.7l.46-.02ZM313.33,120.76c-.2.27-.48.6-.48,1.13,0,.31.17,1.22,1.83,1.22.85,0,2.75-.12,2.75-1.38,0-.97-1-1.03-1.74-1.03l-2.37.06ZM320.25,112.44h-1.94c.27.51.62,1.16.62,2.04,0,1.86-1.58,3.09-4.16,3.09-.49,0-.82-.04-1.17-.08-.31.42-.47.7-.47.95,0,.14.06.43.2.56.14.14,1.42.14,1.87.14,2.37,0,2.76,0,3.32.31.64.35,1.01,1.07,1.01,1.81,0,1.4-1.22,2.37-1.9,2.79-.95.56-1.94.58-3.13.58h-2.14l-1.17-.68c-.29-.17-.38-.35-.38-.62v-.87c1.4-.85,1.67-1.15,2.19-1.75-1.09-.21-2.19-.41-2.19-1.28,0-.41.4-.78,1.34-1.24.47-.21.78-.47,1.11-.76-1.32-.37-2.27-1.42-2.27-2.95,0-3.44,2.84-4.11,4.2-4.11,1.14,0,1.61.29,2.12.62h2.93v1.44Z"/>
  <path class="cls-4" d="M324.69,110.49c-.37.59-.51.83-.51,1.79v5.94c.29,1.42,1.46,1.42,1.69,1.42.89,0,1.55-.41,2.02-.74v-5.89c0-1.07-.02-1.61-.42-2.5l3.03-.04c-.31.66-.54,1.15-.54,2v6.27c0,1.43.23,2.15.37,2.54h-2.53c.08-.98.08-1.17.08-2.19l-1.63,1.78c-.31.17-.91.44-1.55.44-.37,0-1.77-.17-2.64-1.98l.04-6.1c.02-1.53-.21-2.06-.56-2.74h3.13Z"/>
  <path class="cls-4" d="M335.92,105.72c-.27,1.36-.37,2.6-.37,3.51v8.87c0,1.53.1,1.96.66,3.2h-3.5c.22-.41.79-1.44.79-2.45v-10.13c.01-.99-.15-1.52-.43-2.41l2.86-.58Z"/>
  <path class="cls-4" d="M342.98,116.57h-2.76c-.23.54-.39.99-.39,1.63,0,1.2.97,1.59,2.04,1.59.49,0,.76-.08,1.11-.19v-3.03ZM339.25,110.9l1.36-.29c.37-.09.8-.09.95-.09,2,0,2.84,1.14,3.07,1.53.31.56.31.85.31,1.57l.08,6.17c0,.25.19.87.39,1.5h-2.43v-1.5c-.78.57-1.01.76-1.77,1.4-.12.02-.54.1-.87.1-.85,0-2.72-.74-2.72-2.49,0-1.86,2.39-2.91,3.79-3.47,1.03-.39,1.13-.47,1.56-.78v-.55c0-.54-.04-.7-.12-.87-.29-.54-1.16-1.03-2.14-1.03-.81,0-1.38.31-2.04.7l.57-1.9Z"/>
  <path class="cls-4" d="M353.15,110.73v1.36h-2.74v3.88c0,2.44,0,2.71.1,2.99.12.37.68.89,1.36.89.35,0,.66-.06,1.4-.23l-1.17,1.51c-.7.14-1.18.22-1.77.22-1.63,0-2.06-1.19-2.06-1.78,0-.46.06-.82.06-1.5v-5.98h-1.4c.3-.37.64-.7,3.48-3.62v2.26h2.74Z"/>
  <path class="cls-4" d="M357.51,107.48c0,.6-.43,1.55-1.46,1.55-.81,0-1.46-.62-1.46-1.59,0-1.07.8-1.55,1.42-1.55.92,0,1.5.87,1.5,1.59M357.55,110.47c-.26.51-.51.97-.51,2.7v5.14c0,1.96.33,2.52.62,2.99h-3.32c.48-.72.64-.99.64-3.11v-4.99c0-1.38-.14-1.88-.56-2.72h3.13Z"/>
  <path class="cls-4" d="M367.42,115.97c0-2.18-1.38-4.14-3.29-4.14-1.4,0-2.62,1.36-2.62,3.63,0,3.1,2.06,4.63,4.04,4.46.72-.58,1.88-1.61,1.88-3.94M369.35,115.54c0,4.7-3.94,5.92-5.25,5.92-2.1,0-4.8-1.38-4.8-5.14,0-4.49,3.03-5.42,4.8-5.96,2.95-.1,5.25,1.98,5.25,5.18"/>
  <path class="cls-4" d="M375.22,110.88c.44-.23.95-.5,1.65-.5.96,0,2.72.81,2.72,2.83v6.23c0,.87.08,1.13.39,1.86h-2.76c.33-.86.33-1.25.33-1.79v-5.96c0-.37-.37-1.4-1.96-1.4-1.01,0-1.42.29-1.92.62v6.15c0,1.13.04,1.48.18,2.39h-2.74c.45-1.03.54-2.19.54-3.3v-5.8c0-.29-.18-1.22-.28-1.73h2.33l-.02,2.1,1.54-1.69Z"/>
  <path class="cls-4" d="M445.79,109.24c-.92.73-1.85,1.43-2.77,2.09-8.17,5.74-13.52,6.6-15.98,6.6-1.43,0-2.64-.27-3.58-.82-1.95-1.11-3.4-3.7-4.25-7.28,0,0-1.95.05-2.66.05-1.49,0-2.95-.06-4.36-.18,1.17,6.39,3.86,11.04,7.87,13.34,2.02,1.15,4.37,1.74,6.99,1.74,6.73,0,15.13-3.83,23.78-10.82-1.62-1.41-3.24-2.93-4.82-4.51l-.21-.21Z"/>
  <path class="cls-4" d="M487.62,109.92l-.42-.02c-.85,3.54-2.3,6.11-4.24,7.21-.95.54-2.15.82-3.58.82-2.47,0-7.83-.86-15.99-6.61-.83-.59-1.67-1.23-2.52-1.89l-.45.37-4.84,4.15c8.65,6.99,17.04,10.82,23.78,10.82,2.62,0,4.97-.59,6.99-1.74,4.17-2.38,6.76-7.05,7.9-13.24-1.27.12-2.61.18-4.02.18-.83,0-1.71-.02-2.61-.06"/>
  <path class="cls-4" d="M24.19,76.36c.88,0,1.63-.73,1.63-1.6s-.73-1.57-1.63-1.57-1.59.72-1.59,1.57.73,1.6,1.59,1.6"/>
  <path class="cls-4" d="M27.95,76.36c.87,0,1.6-.73,1.6-1.6s-.73-1.57-1.6-1.57-1.57.71-1.57,1.57.72,1.6,1.57,1.6"/>
  <path class="cls-4" d="M27.69,83.59c0,1.15-.16,2-.47,2.53-.33.6-.96.9-1.86.9s-1.53-.3-1.86-.9c-.31-.52-.46-1.37-.46-2.52s.16-2.01.47-2.51c.33-.57.95-.87,1.86-.87h2.33v3.38ZM44.61,84.68c0,1.57-.74,2.33-2.25,2.33h-9.84c-1.5,0-2.23-.76-2.23-2.33v-6.64h-5.07c-3.17,0-4.78,1.86-4.78,5.54s1.61,5.7,4.78,5.7c1.74,0,2.94-.51,3.56-1.53.59,1.01,1.81,1.53,3.63,1.53h10.08c1.42,0,2.57-.42,3.43-1.25.85-.83,1.28-1.9,1.28-3.19v-6.86l-2.58.77v5.92Z"/>
  <path class="cls-4" d="M41.77,90.98c-.86,0-1.6.72-1.6,1.57s.74,1.6,1.6,1.6,1.57-.75,1.57-1.6-.72-1.57-1.57-1.57"/>
  <path class="cls-4" d="M45.54,90.98c-.9,0-1.63.71-1.63,1.57s.75,1.6,1.63,1.6,1.57-.74,1.57-1.6-.7-1.57-1.57-1.57"/>
  <path class="cls-4" d="M53.85,87.33c-1.55,0-2.3-1.07-2.3-3.28s.75-3.31,2.3-3.31,2.28,1.08,2.28,3.31-.74,3.28-2.28,3.28M53.85,78.46c-1.73,0-3.02.6-3.86,1.79-.68.98-1.02,2.26-1.02,3.8s.34,2.78,1.02,3.78c.82,1.2,2.12,1.81,3.86,1.81.77,0,1.46-.16,2.12-.47-.25,1.58-1.15,2.4-2.74,2.48-1.17.07-2.46-.21-3.78-.84l-.37-.17,1.24,2.67c.72.43,1.7.65,2.92.65,1.76,0,3.12-.57,4.04-1.7.87-.99,1.3-2.32,1.32-4.05,0-.25.03-.75.07-1.53.02-.71.02-1.32.02-1.78,0-1.92-.27-3.35-.82-4.38-.77-1.37-2.13-2.06-4.03-2.06"/>
  <path class="cls-4" d="M84.44,76.36c.87,0,1.6-.73,1.6-1.6s-.73-1.57-1.6-1.57-1.6.72-1.6,1.57.73,1.6,1.6,1.6"/>
  <path class="cls-4" d="M67.63,87.01h-1.99c-1.71,0-2.55-.92-2.55-2.82,0-2.37.78-3.52,2.37-3.52.93,0,1.56.38,1.89,1.13.2.47.3,1.24.3,2.4l-.02,2.82ZM99.66,84.63c0,1.56-.73,2.33-2.23,2.33h-8.8v.05h-.59c-1.52,0-2.25-.74-2.25-2.26v-6.76l-2.57.77v5.92c0,1.57-.75,2.33-2.28,2.33h-10.73v-.36c.03-.98.04-1.81.04-2.45,0-3.87-1.61-5.83-4.78-5.83-1.69,0-3,.63-3.88,1.86-.73,1.02-1.09,2.36-1.09,3.97,0,1.48.43,2.7,1.28,3.6.89.98,2.19,1.48,3.87,1.5h1.72c-.25,1.36-1.35,2.33-2.67,2.36h-.24c-1.09,0-2.24-.27-3.5-.84l-.36-.16,1.24,2.66c.69.43,1.67.65,2.92.65,1.47,0,2.68-.48,3.62-1.45.83-.83,1.36-1.88,1.6-3.21h11.12c1.44,0,2.6-.41,3.45-1.22.85.81,1.98,1.22,3.37,1.22h9.64c1.42,0,2.58-.42,3.43-1.25.86-.86,1.28-1.9,1.28-3.19v-11.52l-2.6.77v10.54Z"/>
  <polygon class="cls-4" points="104.06 89.29 106.65 89.29 106.65 73.28 104.06 74.1 104.06 89.29"/>
  <path class="cls-4" d="M116.14,76.36c.88,0,1.62-.73,1.62-1.6s-.72-1.57-1.62-1.57-1.6.72-1.6,1.57.73,1.6,1.6,1.6"/>
  <path class="cls-4" d="M119.9,76.36c.87,0,1.6-.73,1.6-1.6s-.73-1.57-1.6-1.57-1.57.71-1.57,1.57.72,1.6,1.57,1.6"/>
  <path class="cls-4" d="M119.63,83.59c0,1.13-.16,2-.47,2.53-.33.6-.95.9-1.86.9s-1.53-.3-1.86-.9c-.31-.52-.46-1.37-.46-2.52s.16-2.01.46-2.5c.33-.58.96-.88,1.86-.88h2.33v3.38ZM136.55,84.68c0,1.57-.74,2.33-2.25,2.33h-9.84c-1.49,0-2.22-.76-2.22-2.33v-6.64h-5.08c-3.17,0-4.78,1.86-4.78,5.54s1.61,5.7,4.78,5.7c1.77,0,2.94-.5,3.57-1.52.59,1.01,1.8,1.52,3.62,1.52h10.08c1.42,0,2.57-.42,3.43-1.25.85-.83,1.28-1.9,1.28-3.19v-6.86l-2.58.77v5.92Z"/>
  <path class="cls-4" d="M136.26,90.98c-.85,0-1.57.72-1.57,1.57s.73,1.6,1.57,1.6,1.6-.74,1.6-1.6-.73-1.57-1.6-1.57"/>
  <path class="cls-4" d="M157.94,76.36c.88,0,1.63-.73,1.63-1.6s-.73-1.57-1.63-1.57-1.57.71-1.57,1.57.72,1.6,1.57,1.6"/>
  <path class="cls-4" d="M162.41,83.42h-2.67c-1.16,0-1.58-.15-1.72-.26-.14-.13-.31-.49-.31-1.47,0-1.19.75-1.77,2.28-1.77,1.63,0,2.43.58,2.43,1.77v1.73ZM165.01,81.62c0-1.09-.4-2.01-1.18-2.76-.88-.85-2.17-1.28-3.84-1.28-2.95,0-4.85,1.58-4.85,4.03,0,1.33.27,2.32.81,2.93.64.74,1.73,1.1,3.34,1.1h3.13c-.03.6-.26.99-.68,1.17-.17.05-.59.13-1.65.13h-15.52c-.72,0-1.04-.32-1.04-1.02v-12.66l-2.59.82v11.92c0,2.02,1.28,3.28,3.34,3.28h16.1c1.52,0,2.6-.25,3.29-.77.89-.65,1.35-1.71,1.35-3.18v-3.72Z"/>
  <path class="cls-4" d="M161.73,76.36c.84,0,1.57-.75,1.57-1.6s-.72-1.57-1.57-1.57-1.6.72-1.6,1.57.74,1.6,1.6,1.6"/>
  <path class="cls-4" d="M197.73,84.63c0,1.56-.73,2.33-2.23,2.33h-2.27c-1.5,0-2.23-.72-2.23-2.21v-11.47l-2.6.82v10.54c0,1.56-.74,2.33-2.25,2.33h-11.73v-8.97l-2.6.77v9.73c0,1.98-1.13,3.16-3.01,3.16-1.35,0-2.53-.3-3.62-.91l-.4-.23,1.34,2.77c.74.46,1.62.68,2.68.68,3.06,0,5.19-1.79,5.57-4.67h11.92c1.46,0,2.6-.42,3.42-1.25.87.84,1.98,1.25,3.37,1.25h2.55c1.42,0,2.57-.42,3.43-1.26.86-.86,1.28-1.9,1.28-3.19v-11.52l-2.6.77v10.54Z"/>
  <path class="cls-4" d="M209.81,76.36c.88,0,1.62-.73,1.62-1.6s-.73-1.57-1.62-1.57-1.6.72-1.6,1.57.73,1.6,1.6,1.6"/>
  <path class="cls-4" d="M213.58,76.36c.86,0,1.59-.73,1.59-1.6s-.73-1.57-1.59-1.57-1.57.71-1.57,1.57.72,1.6,1.57,1.6"/>
  <path class="cls-4" d="M213.3,83.59c0,1.13-.16,2-.47,2.53-.32.59-.95.89-1.86.89s-1.53-.3-1.87-.9c-.31-.52-.46-1.37-.46-2.52s.16-2.01.47-2.5c.33-.58.96-.88,1.86-.88h2.32v3.38ZM230.23,84.68c0,1.57-.73,2.33-2.25,2.33h-9.85c-1.5,0-2.23-.76-2.23-2.33v-6.64h-5.07c-3.17,0-4.78,1.86-4.78,5.54s1.61,5.7,4.78,5.7c1.74,0,2.93-.51,3.56-1.53.59,1.01,1.8,1.53,3.62,1.53h10.08c1.42,0,2.57-.42,3.43-1.25.85-.83,1.29-1.9,1.29-3.19v-6.86l-2.58.77v5.92Z"/>
  <path class="cls-4" d="M227.4,90.98c-.87,0-1.6.72-1.6,1.57s.73,1.6,1.6,1.6,1.57-.75,1.57-1.6-.72-1.57-1.57-1.57"/>
  <path class="cls-4" d="M231.16,90.98c-.9,0-1.63.71-1.63,1.57s.75,1.6,1.63,1.6,1.57-.74,1.57-1.6-.7-1.57-1.57-1.57"/>
  <path class="cls-4" d="M239.57,78.07c-1.11,0-2.25.49-3.42,1.57v3.19l.27-.48c.78-1.37,1.81-2.04,3.15-2.04,1.6,0,2.37.73,2.37,2.23v4.47l-5.94.06-1.54,2.22h10.06v-6.92c0-1.32-.45-2.34-1.38-3.13-.95-.79-2.11-1.17-3.57-1.17"/>
  <path class="cls-4" d="M280.33,84.68c0,1.57-.74,2.33-2.25,2.33h-1.01v-.05h-4.82v-.68c0-2.4-.33-4.24-.99-5.49-.97-1.83-2.73-2.75-5.22-2.75-1.96,0-3.79.82-5.44,2.42l-.11.11,1.86,1.73.1-.1c1.13-1.23,2.31-1.82,3.58-1.82,1.55,0,2.55.64,3.06,1.95.33.81.5,2.14.5,3.95v.73h-17.22v-.05h-2.43c-.72,0-1.04-.32-1.04-1.02v-12.66l-2.6.82v11.92c0,2.02,1.28,3.28,3.35,3.28h28.54c1.41,0,2.57-.42,3.43-1.25.85-.83,1.28-1.9,1.28-3.19v-6.85l-2.57.77v5.92Z"/>
  <path class="cls-4" d="M278.17,76.36c.86,0,1.58-.73,1.58-1.6s-.71-1.57-1.58-1.57-1.59.72-1.59,1.57.73,1.6,1.59,1.6"/>
  <path class="cls-4" d="M281.92,73.19c-.87,0-1.6.72-1.6,1.57s.73,1.6,1.6,1.6,1.59-.71,1.59-1.6-.72-1.57-1.59-1.57"/>
  <path class="cls-4" d="M293.85,84.68c0,1.53-.74,2.28-2.25,2.28h-.78v-12.68l-2.6.77v11.92h-2.39l-1.21,2.33h7.13c1.4,0,2.54-.42,3.4-1.25.86-.83,1.29-1.9,1.29-3.19v-11.73l-2.58.77v10.8Z"/>
  <polygon class="cls-4" points="298.22 89.29 300.81 89.29 300.81 73.28 298.22 74.1 298.22 89.29"/>
  <path class="cls-4" d="M310.29,76.36c.89,0,1.63-.73,1.63-1.6s-.73-1.57-1.63-1.57-1.6.72-1.6,1.57.73,1.6,1.6,1.6"/>
  <path class="cls-4" d="M314.06,76.36c.87,0,1.6-.73,1.6-1.6s-.73-1.57-1.6-1.57-1.57.71-1.57,1.57.72,1.6,1.57,1.6"/>
  <path class="cls-4" d="M332.94,74.99h-3.61v-.56c0-1.01.39-1.48,1.21-1.48.47,0,.83.2,1.15.62l.1.14,1.29-1.29-.1-.1c-.68-.71-1.43-1.06-2.23-1.06-1.89,0-3.21,1.4-3.21,3.4v.35l-.79.04-1.37,1.65h7.57v-1.7Z"/>
  <path class="cls-4" d="M342.99,90.98c-.88,0-1.57.69-1.57,1.57s.71,1.6,1.57,1.6,1.6-.74,1.6-1.6-.73-1.57-1.6-1.57"/>
  <path class="cls-4" d="M346.73,90.98c-.86,0-1.57.71-1.57,1.57s.72,1.6,1.57,1.6,1.6-.74,1.6-1.6-.73-1.57-1.6-1.57"/>
  <path class="cls-4" d="M361.55,85.29c-.14.33-.35.62-.61.87-.26.24-.58.44-.95.57-.36.14-.77.22-1.21.22h-2.19c.04-.49.14-.97.29-1.44.14-.47.32-.91.51-1.32.2-.41.42-.8.65-1.15.24-.35.47-.65.7-.91.23-.25.45-.45.65-.59.19-.15.36-.22.49-.22.23,0,.45.08.67.24.22.16.42.37.61.64.18.27.33.57.44.91.1.34.16.7.16,1.07,0,.4-.07.76-.21,1.1M361.41,93.27c-.08.28-.2.53-.35.75-.14.22-.32.39-.52.52-.2.13-.43.19-.67.19-.38,0-.79-.09-1.21-.3-.42-.2-.81-.51-1.17-.95-.36-.43-.65-.99-.89-1.69-.23-.7-.35-1.53-.35-2.51h2.44c.44,0,.84.09,1.19.26.35.17.65.41.89.7.25.29.44.62.57.99.13.37.2.76.2,1.16,0,.31-.04.6-.12.88M313.79,83.59c0,1.13-.16,2-.47,2.53-.32.6-.95.9-1.87.9s-1.52-.3-1.85-.9c-.31-.52-.47-1.39-.47-2.53s.16-2.01.47-2.5c.33-.57.96-.87,1.85-.87h2.34v3.37ZM373.31,84.63c0,1.56-.74,2.33-2.24,2.33h-3.72s-.06,0-.1,0h-4.69v-.07c.4-.39.7-.86.92-1.39.23-.54.34-1.14.34-1.8,0-.58-.09-1.15-.27-1.72-.18-.56-.43-1.07-.75-1.52-.32-.45-.69-.81-1.12-1.09-.43-.28-.88-.42-1.38-.42-.18,0-.42.06-.72.17-.3.12-.64.31-1,.58-.37.27-.75.6-1.15,1.01-.4.41-.79.92-1.17,1.51-.38.59-.74,1.28-1.06,2.06-.32.79-.6,1.68-.82,2.68h-6c-1.52,0-2.25-.74-2.25-2.26v-6.7l-2.58.77v5.92c0,1.57-.75,2.33-2.28,2.33h-7.02c-1.52,0-2.26-.74-2.26-2.26v-6.76l-2.57.77v5.92c0,1.57-.75,2.33-2.28,2.33h-8.53c-1.5,0-2.23-.76-2.23-2.33v-6.64h-5.08c-3.17,0-4.78,1.86-4.78,5.54s1.61,5.71,4.78,5.71c1.76,0,2.94-.5,3.57-1.53.59,1.01,1.8,1.53,3.62,1.53h8.79c1.44,0,2.6-.41,3.46-1.22.84.81,1.97,1.22,3.36,1.22h7.31c1.44,0,2.6-.41,3.44-1.22.85.81,1.98,1.22,3.38,1.22h1.6s4.27,0,4.27,0c0,1.02.09,1.92.27,2.7.17.78.41,1.45.72,2.02.3.57.64,1.04,1.03,1.43.39.38.79.69,1.21.93.42.22.83.39,1.24.48.41.09.79.14,1.14.14.44,0,.9-.1,1.36-.29.46-.19.88-.48,1.26-.84.38-.36.7-.83.94-1.37.24-.55.36-1.17.36-1.87,0-.76-.13-1.4-.39-1.94-.25-.53-.58-.98-.96-1.32v-.06h4.69s4.23,0,4.23,0c1.42,0,2.57-.42,3.43-1.25.85-.86,1.28-1.93,1.28-3.19v-11.52l-2.6.77v10.54Z"/>
  <polygon class="cls-4" points="377.71 74.1 377.71 89.29 380.3 89.29 380.3 73.28 377.71 74.1"/>
  <path class="cls-4" d="M250.77,11.89l-3.84,7.03c-5.07-2.05-7.14-2.24-13.36-2.43v17h15.57l-3.58,6.9c-3.26-1.41-6.15-2.25-11.99-2.18v10.74c0,3.84.37,7.17,1.44,10.87h-10.04c1.51-6.01,1.57-11.44,1.57-13.43v-22.49c0-6.84-.81-9.46-1.57-12.01h25.79Z"/>
  <path class="cls-4" d="M264.56,39.3h11.41l-5.45-12.84-5.96,12.84ZM286.95,46.72c3.39,7.47,5.58,10.54,7.33,12.97l-11.16.13c0-2.1-.25-4.54-1.95-8.44l-2.76-6.46h-16.5l-2.39,5.19c-.81,1.78-2.62,5.94-2.37,9.71h-11.49c1.57-1.85,2.96-3.58,6.85-11.44l18.14-36.68h.36l15.94,35.02Z"/>
  <path class="cls-4" d="M304.99,11.89c.88,2.17,1.32,3.33,5.01,8.11l21.27,27.5v-21.79c0-8.83-.57-11.06-1.32-13.82h9.02c-.62,2.56-1.18,5.12-1.18,10.23v25.75c0,7.4.89,9.97,1.57,11.95h-8.72c-.83-2.56-2.39-4.8-4-6.9l-20.03-26.07v18.91c0,4.22.44,10.17,1.89,14.06h-9.97c1.5-4.99,1.56-11.77,1.56-12.66v-28.82c-2.25-2.94-3.51-4.16-6.33-6.46h11.23Z"/>
  <path class="cls-4" d="M354.78,36.94c4.45-1.27,11.6-3.33,11.6-10.67,0-3.58-2.19-9.33-11.6-10.29v20.96ZM347.81,21.91c0-5.61-.75-8.24-1.26-9.89l9.16-.13c12.1-.19,17.82,7.22,17.82,13.69,0,7.8-6.78,11.64-8.9,12.77,4.2,7.55,9.97,14.64,15.56,21.47h-6.46c-6.34-5.56-9.23-9.01-18.95-22.17v11.83c0,3.7.05,5.23,1.31,10.34h-9.54c1-4.73,1.26-8.25,1.26-12.4v-25.51Z"/>
  <path class="cls-2" d="M460.45,65.1c0,3.99-3.24,7.23-7.23,7.23s-7.22-3.24-7.22-7.23,3.24-7.23,7.22-7.23,7.23,3.24,7.23,7.23"/>
  <path class="cls-4" d="M460.88,20.77c.85-.65,1.69-1.29,2.52-1.89,8.16-5.75,13.52-6.61,15.99-6.61,1.43,0,2.64.27,3.58.82,1.93,1.1,3.38,3.67,4.24,7.21l.42-.02c.9-.04,1.78-.07,2.61-.07,1.42,0,2.75.07,4.02.18-1.14-6.19-3.73-10.86-7.9-13.24-2.01-1.15-4.37-1.74-6.98-1.74-6.73,0-15.13,3.83-23.78,10.82l5.29,4.52Z"/>
  <path class="cls-4" d="M418.74,20.36h.46c.85-3.56,2.29-6.15,4.25-7.27.95-.55,2.15-.82,3.58-.82,2.46,0,7.82.86,15.98,6.6.92.65,1.85,1.36,2.77,2.09l.21-.21c1.57-1.58,3.2-3.1,4.82-4.52-8.65-6.98-17.04-10.82-23.78-10.82-2.61,0-4.96.59-6.98,1.74-4.01,2.3-6.7,6.96-7.88,13.34,1.41-.11,2.87-.19,4.36-.19.7,0,1.44.01,2.2.04"/>
  <path class="cls-4" d="M406.39,60.5c1.37-1.41,2.68-2.85,2.68-2.85-.71-.92-1.41-1.83-2.06-2.75-5.69-8.08-7.96-15.77-5.79-19.56,1.12-1.96,3.71-3.43,7.32-4.28l-.03-.63c-.01-.52-.03-2.27-.03-2.27,0-.36,0-2.26.15-4.1-6.41,1.17-11.04,3.87-13.33,7.88-4.34,7.57-.42,19.01,9.11,30.77,0,0,.62-.81,1.99-2.22"/>
  <path class="cls-4" d="M497.58,72.33l-.22.22c.72.93,1.42,1.84,2.07,2.76,5.69,8.07,7.97,15.76,5.78,19.56-1.1,1.95-3.67,3.42-7.25,4.26l.02.49c.01.76.01,1.57,0,2.49v.2l-.02.23v.12c-.02.54-.03,1.08-.06,1.61v.26s-.03.27-.03.27c-.02.45-.06.9-.09,1.34,6.42-1.16,11.06-3.86,13.37-7.89,4.33-7.57.43-18.99-9.09-30.73-1.39,1.6-2.89,3.21-4.48,4.8"/>
  <path class="cls-4" d="M409.06,72.54l-2.68-2.84c-.19-.21-.7-.77-.77-.85-.28-.32-.88-.97-.88-.97l-.35-.4c-9.53,11.75-13.45,23.19-9.11,30.77,2.29,4.02,6.92,6.71,13.33,7.89-.02-.28-.13-1.89-.15-3.39-.02-1.51.06-3.61.06-3.61-3.61-.85-6.19-2.33-7.32-4.28-2.18-3.8.1-11.48,5.79-19.56.65-.92,1.36-1.84,2.06-2.76"/>
  <path class="cls-4" d="M497.36,57.65l.22.22c1.59,1.59,3.09,3.2,4.48,4.8,9.52-11.74,13.42-23.16,9.09-30.73-2.31-4.03-6.94-6.73-13.36-7.89.02.44.12,1.88.12,1.88.03.53.12,3.67.08,4.65v.49c3.57.85,6.13,2.31,7.24,4.26,2.18,3.8-.09,11.48-5.79,19.56-.65.91-1.35,1.83-2.07,2.75"/>
  <path class="cls-4" d="M433.47,76.39c-2.12-3.72-4.06-7.5-5.78-11.29-1.19-2.63-2.25-5.24-3.23-7.85-.08-.22-.16-.43-.24-.64,1.06-2.08,2.16-4.13,3.33-6.18,1.33-2.33,2.72-4.59,4.16-6.82-3.35,2.17-6.54,4.46-9.58,6.83-1.9-6.16-3.16-12.12-3.61-17.54-.07-.89-.12-1.77-.15-2.62-.62-.02-1.24-.04-1.83-.04-1.77,0-3.41.1-4.96.29.3,7.25,1.86,14.28,3,18.56.54,1.99,1.17,4,1.85,6.03-.49.43-1.01.84-1.5,1.27l-3.84,3.74c1.42,1.67,3,3.33,4.64,4.97,1.03-1.04,2.11-2.07,3.23-3.1.41,1.03.83,2.07,1.27,3.1.37.88,1.38,3.3,3.23,7.02.33.27.64.56.98.83,3.77,3.04,7.87,5.95,12.19,8.68-1.08-1.71-2.14-3.46-3.16-5.24"/>
  <path class="cls-4" d="M487.78,23.48c-.79.03-1.57.03-2.38.09-9.6.84-19.06,3.72-20.11,4.05l-2.11.7s-3.73-4.14-4.97-5.38c-1.7,1.44-3.37,3.02-5.02,4.66,1.04,1.04,2.08,2.12,3.1,3.23-1.03.41-2.06.85-3.1,1.29-2.36,1.02-4.72,2.1-7.07,3.27-.26.32-.54.62-.8.95-3.03,3.77-5.94,7.86-8.69,12.22,1.73-1.09,3.49-2.17,5.29-3.2,3.71-2.12,7.49-4.06,11.28-5.78,2.62-1.19,5.25-2.25,7.86-3.23.22-.08.44-.16.66-.24,2.07,1.05,4.13,2.17,6.18,3.33,2.33,1.34,4.59,2.75,6.82,4.19-2.17-3.37-4.47-6.56-6.84-9.62,6.16-1.89,12.12-3.16,17.55-3.61.89-.08,1.75-.12,2.61-.15.09-2.43,0-4.71-.25-6.79"/>
  <path class="cls-4" d="M489.99,75.11c1.88-1.64,3.66-3.32,5.36-5.01-1.43-1.68-3.01-3.34-4.66-5-1.04,1.04-2.12,2.07-3.23,3.1-.41-1.04-.84-2.07-1.28-3.1-1.01-2.35-2.1-4.71-3.26-7.04-.32-.27-.63-.54-.96-.8,0,0-.01-.01-.02-.02-3.77-3.04-7.87-5.96-12.2-8.69,1.09,1.72,2.16,3.47,3.18,5.26,2.12,3.72,4.05,7.5,5.78,11.29,1.2,2.63,2.25,5.25,3.24,7.86.08.21.15.42.24.64-1.06,2.07-2.16,4.14-3.33,6.17-1.33,2.32-2.71,4.59-4.14,6.79,3.33-2.16,6.53-4.43,9.57-6.78,1.89,6.15,3.15,12.1,3.59,17.52.07.9.12,1.77.16,2.63.62.02,1.24.04,1.84.04,1.78,0,3.4-.1,4.97-.29-.25-8.86-2.47-16.75-3.23-19.33-.5-1.72-1.03-3.48-1.62-5.24"/>
  <path class="cls-4" d="M464.51,84.82c-3.71,2.13-7.5,4.06-11.3,5.79-2.63,1.2-5.26,2.25-7.88,3.25-.21.07-.43.15-.63.23-1.29-.66-3.36-1.73-6.16-3.33-2.3-1.31-4.6-2.73-6.81-4.15,2.16,3.34,4.43,6.54,6.79,9.58-6.14,1.89-12.09,3.14-17.51,3.59-.89.08-1.77.12-2.62.16-.09,2.44,0,4.74.25,6.82.15,0,.56-.02.56-.02,7.32-.34,15.52-2.02,24-4.84,1.64,1.88,3.32,3.67,5.01,5.37,1.68-1.43,3.34-3.02,5-4.67-1.05-1.04-2.08-2.11-3.11-3.23,1.03-.41,2.07-.84,3.11-1.28,2.36-1.01,4.72-2.1,7.06-3.26.27-.33.55-.64.81-.97,3.04-3.77,5.96-7.87,8.69-12.19-1.72,1.08-3.46,2.15-5.25,3.17"/>
  <path class="cls-1" d="M489.99,55.09c.59-1.76,1.14-3.5,1.62-5.23,1.09-3.96,2.9-11.61,3.23-19.34-1.56-.19-3.18-.29-4.97-.29-.6,0-1.22.01-1.84.04-.03.86-.08,1.74-.16,2.63-.44,5.42-1.7,11.37-3.59,17.52-3.04-2.35-6.23-4.62-9.57-6.77-2.22-1.45-4.49-2.86-6.82-4.19-2.05-1.17-4.11-2.28-6.18-3.34-.22.08-.44.16-.66.24-2.6.98-5.23,2.04-7.86,3.23,3.8,1.73,7.59,3.66,11.3,5.79,1.79,1.02,3.53,2.09,5.25,3.17,4.32,2.74,8.42,5.65,12.19,8.69h0c.34.28.65.55.98.82h0c1.16,2.34,2.24,4.69,3.26,7.04.44-1.03.86-2.07,1.28-3.1,1.11,1.03,2.19,2.05,3.23,3.1,1.65-1.65,3.22-3.32,4.66-4.99-1.7-1.69-3.48-3.37-5.36-5.02"/>
  <path class="cls-1" d="M441.92,84.83c-1.8-1.03-3.56-2.1-5.28-3.19-4.32-2.73-8.41-5.64-12.18-8.68-.34-.27-.66-.56-.99-.83-1.16-2.33-2.26-4.7-3.23-7.02-.29.66-.72,1.69-1.27,3.09-1.12-1.02-2.2-2.05-3.23-3.09-1.64,1.64-3.21,3.3-4.64,4.97l3.85,3.73c.48.44,1.01.86,1.5,1.28-.67,2.03-1.3,4.05-1.85,6.04-1.14,4.27-2.7,11.31-3,18.56,1.55.19,3.2.28,4.96.28.59,0,1.21-.01,1.83-.03.03-.86.08-1.73.15-2.62.45-5.43,1.71-11.38,3.6-17.54,3.05,2.37,6.24,4.66,9.59,6.83,2.2,1.43,4.47,2.82,6.81,4.16,2.04,1.17,4.1,2.27,6.16,3.33.21-.08.42-.15.63-.23,2.62-.99,5.24-2.04,7.88-3.25-3.79-1.72-7.57-3.65-11.28-5.78"/>
  <path class="cls-1" d="M488.04,99.94c-.86-.03-1.73-.08-2.61-.15-5.43-.44-11.39-1.71-17.55-3.61,2.38-3.06,4.67-6.25,6.84-9.61,1.42-2.2,2.8-4.47,4.13-6.79,1.16-2.03,2.27-4.1,3.33-6.17-.08-.21-.16-.43-.24-.64-.98-2.61-2.04-5.24-3.24-7.86-1.72,3.79-3.65,7.57-5.78,11.29-1.02,1.79-2.09,3.54-3.18,5.26-2.74,4.32-5.65,8.42-8.69,12.19-.26.33-.54.64-.81.97-2.35,1.17-4.71,2.26-7.06,3.26,1.04.45,2.07.88,3.1,1.29-1.02,1.12-2.05,2.19-3.1,3.23,1.66,1.65,3.33,3.22,5.03,4.66,1.24-1.24,2.46-2.52,3.68-3.86.44-.48.85-1.01,1.28-1.51.64.21,1.28.44,1.92.64l.18.06c1.05.32,10.51,3.21,20.11,4.04.81.06,1.59.06,2.38.09.25-2.07.34-4.35.25-6.78"/>
  <path class="cls-1" d="M453.19,27.61c-1.65-1.65-3.31-3.23-5-4.67-1.69,1.7-3.37,3.49-5.01,5.37-8.48-2.83-16.69-4.51-24-4.85h-.1c-.15,0-.3,0-.45-.02-.26,2.08-.35,4.38-.25,6.82.86.03,1.73.08,2.63.15,5.41.45,11.36,1.71,17.5,3.59-2.35,3.04-4.62,6.25-6.79,9.59-1.98,3.07-3.33,5.36-4.16,6.82-1.16,2.04-2.27,4.11-3.33,6.19.08.21.16.42.24.64.98,2.61,2.03,5.22,3.23,7.85,1.72-3.79,3.66-7.57,5.78-11.29,1.02-1.79,2.09-3.53,3.16-5.24,2.75-4.36,5.65-8.45,8.68-12.22.26-.32.54-.63.8-.95,2.35-1.17,4.71-2.26,7.07-3.27-1.04-.45-2.07-.88-3.1-1.29,1.03-1.11,2.06-2.19,3.11-3.23"/>
  <path class="cls-3" d="M460.45,65.1c0,3.99-3.24,7.23-7.23,7.23s-7.22-3.24-7.22-7.23,3.24-7.23,7.22-7.23,7.23,3.24,7.23,7.23"/>
  <path class="cls-3" d="M495.35,60.11c-1.44,1.68-3.01,3.34-4.66,4.99,1.64,1.65,3.22,3.32,4.66,5,1.66-1.66,3.26-3.32,4.72-5-1.46-1.68-3.06-3.34-4.72-4.99M418.37,99.93c-.61.02-1.24.04-1.83.04-1.76,0-3.41-.09-4.96-.29-.01.28-.02.56-.03.84-.07,2-.05,4.04.19,6.06,2.06.2,4.99.23,4.99.23.63,0,1.27-.02,1.89-.05-.25-2.08-.34-4.37-.25-6.82M411.08,60.13l-1.59,1.55c-1.15,1.23-2.23,2.44-3.09,3.42.87.99,1.95,2.2,3.09,3.43l1.59,1.55c1.43-1.67,3-3.33,4.64-4.97-1.64-1.64-3.22-3.3-4.64-4.97M488.04,30.26c.62-.02,1.24-.04,1.84-.04,1.78,0,3.41.1,4.96.29,0-.22.02-.44.03-.67.02-2.12-.01-4.21-.21-6.23-1.51-.14-3.09-.22-4.73-.22-.7,0-1.44.06-2.16.08.26,2.07.34,4.35.26,6.78M448.19,107.26c.16.16.32.33.48.49,1.67,1.63,3.32,3.11,4.53,4.19,0,0,.83-.74,1.55-1.37,1.16-1.06,2.31-2.16,3.46-3.32-1.69-1.43-3.37-3.01-5.03-4.66-1.66,1.65-3.32,3.23-5,4.67M494.84,99.68c-1.56.2-3.18.29-4.96.29-.6,0-1.22-.02-1.84-.03.09,2.43,0,4.71-.25,6.78.72.02,1.46.08,2.16.08,1.63,0,3.22-.07,4.73-.22.19-2.02.23-4.11.21-6.24-.01-.22-.02-.44-.03-.67M411.74,23.63c-.1.95-.2,2.27-.2,3.54,0,.82.03,3.07.04,3.35,1.84-.21,3.2-.28,4.96-.29.59,0,1.21.02,1.83.04-.09-2.44,0-4.74.25-6.82-.62-.02-1.32-.03-1.96-.04,0,0-2.94,0-4.93.22M453.2,18.26c-1.21,1.07-2.86,2.56-4.53,4.19-.16.16-.32.33-.48.49,1.68,1.44,3.34,3.01,5,4.67,1.65-1.65,3.33-3.22,5.02-4.66-1.15-1.15-2.3-2.25-3.45-3.31-.73-.64-1.56-1.38-1.56-1.38"/>
</svg>