<?xml version="1.0" encoding="UTF-8"?>
<svg id="Layer_1" data-name="Layer 1" xmlns="http://www.w3.org/2000/svg" viewBox="0 0 263.63 298.12">
  <defs>
    <style>
      .cls-1 {
        fill: #e9ccd4;
      }

      .cls-2 {
        fill: #bc667d;
      }

      .cls-3 {
        fill: #b0a37d;
      }

      .cls-4 {
        fill: #e29a42;
      }

      .cls-5 {
        fill: #4d4d4f;
      }

      .cls-6 {
        fill: #900027;
      }

      .cls-7 {
        fill: #4c4c4e;
      }
    </style>
  </defs>
  <g>
    <path class="cls-1" d="M212.29,117.02c3.06-9.86,4.58-20,4.58-30.09,0-22.38-7.48-44.45-21.82-62.57,9.2,14.16,14.66,30.12,16.15,46.47,3.82,14.85,4.3,30.62,1.09,46.19"/>
    <path class="cls-1" d="M193.84,138.57c.25-.66.48-1.32.73-1.99-12.82,19.46-31.75,33.84-54.27,41.01-26.04,8.29-53.77,5.94-78.06-6.61-6.09-3.15-11.78-6.93-17.06-11.18,7.05,6.82,15.01,12.6,23.86,17.18,23.26,12.01,49.09,14.12,72.58,7.84,21.89-8.6,40.67-24.72,52.23-46.25"/>
    <path class="cls-2" d="M150.84,181.89c-1.57.79-3.16,1.54-4.78,2.25-1.34.6-2.7,1.18-4.1,1.72-21.16,8.31-45.2,9.69-68.5,2.24-6.52-2.09-12.74-4.87-18.68-8.18,8.09,5.54,16.89,9.92,26.39,12.95,23.05,7.38,46.87,6.02,67.82-2.24,9-5.09,17.12-11.51,24.14-19.01.53-.57,1.06-1.14,1.57-1.72.58-.65,1.16-1.31,1.72-1.98,5.53-6.5,10.24-13.7,14-21.47-9.96,15.32-23.74,27.41-39.58,35.44"/>
    <path class="cls-2" d="M211.58,77.6c-.2-1.11-.43-2.24-.68-3.35-.25-1.08-.51-2.16-.78-3.23-4.85-18.76-15.07-36.02-29.9-49.49,14.03,15.35,22.88,34.38,25.76,54.46,1.69,5.62,2.96,11.42,3.67,17.37.1.76.15,1.53.23,2.31.08.71.15,1.43.2,2.15.2,2.63.3,5.28.3,7.95,0,7.93-.88,15.65-2.6,23.08-.15.6-.3,1.19-.45,1.78l1.16-3.37s0-.04.02-.06c3.26-10.23,4.83-20.65,4.83-30.96,0-6.28-.58-12.53-1.74-18.65"/>
    <path class="cls-3" d="M197.7,130.46c-.03.1-.05.2-.1.31.07-.19.18-.38.25-.56-.05.08-.1.17-.15.26"/>
    <path class="cls-4" d="M195.88,134.54s-.02,0-.02.01c.02,0,.02-.02.02-.04v.03"/>
    <path class="cls-6" d="M209.21,102.08c-.02-.71-.05-1.42-.1-2.11-.05-.75-.08-1.49-.15-2.22-.38-4.98-1.14-9.86-2.22-14.63-.25-1.14-.53-2.27-.83-3.4-.33-1.18-.66-2.36-1.01-3.52-8.34-27.43-28.06-50.27-54.68-62.44,31.55,18.12,51.39,51.75,51.39,88.72,0,8.87-1.14,17.48-3.26,25.69-.2.76-.4,1.54-.63,2.3.05-.09.1-.18.15-.26-.1.19-.18.37-.25.56-.18.63-.36,1.25-.56,1.87-.23.76-.48,1.53-.73,2.3-.45,1.38-.96,2.75-1.49,4.11-3.56,9.33-8.47,18.01-14.48,25.82-.53.69-1.09,1.37-1.64,2.06-.48.61-.99,1.22-1.52,1.82-6.09,7.18-13.19,13.5-21.01,18.78-1.19.79-2.37,1.54-3.59,2.29-1.04.63-2.07,1.24-3.13,1.84-14.84,8.4-31.98,13.19-50.23,13.19-6.85,0-13.63-.75-20.3-2.07,9.4,2.8,19.14,4.29,29.1,4.29,39.54,0,73.84-22.76,90.5-55.87.83-1.63,1.59-3.29,2.35-4.98.76-1.75,1.49-3.53,2.15-5.33.2-.55.4-1.12.61-1.68.3-.88.61-1.76.88-2.65.28-.89.56-1.76.81-2.66,2.58-8.93,3.97-18.35,3.97-28.1,0-1.24-.03-2.47-.08-3.69"/>
    <path class="cls-6" d="M142.24,4.24c1.47,3.51-.2,7.55-3.72,9.02-3.52,1.46-7.56-.2-9-3.7-1.49-3.52.18-7.56,3.69-9.02,3.52-1.46,7.56.19,9.03,3.71"/>
  </g>
  <g>
    <path class="cls-5" d="M86.71,235.58c.94,0,1.67-.73,1.67-1.68,0-.89-.73-1.66-1.67-1.66s-1.67.77-1.67,1.66c0,.95.71,1.68,1.67,1.68"/>
    <path class="cls-5" d="M110.47,235.74c.88,0,1.67-.77,1.67-1.66s-.78-1.66-1.67-1.66c-.96,0-1.67.72-1.67,1.66,0,.88.78,1.66,1.67,1.66"/>
    <path class="cls-5" d="M106.65,235.74c.89,0,1.64-.77,1.64-1.66,0-.95-.71-1.66-1.64-1.66s-1.67.76-1.67,1.66.76,1.66,1.67,1.66"/>
    <g>
      <path class="cls-5" d="M65.55,258.63c-.89,0-1.67.77-1.67,1.66,0,.94.78,1.66,1.67,1.66.96,0,1.67-.72,1.67-1.66,0-.88-.71-1.66-1.67-1.66"/>
      <path class="cls-5" d="M70.78,238.56h-3.34v14.91H18.58v-6.42c0-2.16-.56-4.22-2.05-5.88-1.62-1.78-3.94-2.62-6.29-2.62s-4.65.84-6.25,2.62c-.96,1.04-1.52,2.22-1.79,3.51h3.56c.63-2.05,1.97-3.72,4.48-3.72,3.94,0,5,4.1,5,7.33v5.19H.48v3.2h70.3"/>
      <path class="cls-5" d="M69.39,258.63c-.89,0-1.67.77-1.67,1.66,0,.94.78,1.66,1.67,1.66.93,0,1.67-.72,1.67-1.66,0-.88-.73-1.66-1.67-1.66"/>
      <rect class="cls-5" x="75.48" y="232.24" width="3.34" height="24.43"/>
      <path class="cls-5" d="M85.19,254.96c0,2.11-.43,3.78-1.26,5-.83,1.21-2,1.83-3.39,1.83v3.94h.23c2.27,0,4.09-.82,5.58-2.44,1.34-1.49,2.17-3.27,2.17-5.49v-19.23h-3.33"/>
      <path class="cls-5" d="M255.24,258.57c-.89,0-1.67.78-1.67,1.67s.73,1.66,1.67,1.66,1.67-.73,1.67-1.66-.79-1.67-1.67-1.67"/>
      <path class="cls-5" d="M261.56,241.17c-1.59-1.71-3.82-2.61-6.22-2.61s-4.6.89-6.19,2.61c-1.52,1.61-2.07,3.72-2.07,5.88v3.24h3.29v-2.07c0-3.11,1.16-7.27,4.98-7.27s5,4.16,5,7.27v5.26h-49.8v-21.24h-3.34v24.43h56.42v-9.62c0-2.16-.56-4.28-2.07-5.88"/>
      <path class="cls-5" d="M194.9,253.47h-4.73v-5.51c0-3.21,1.04-7,4.98-7,3.67,0,4.73,2.95,4.73,6.07s-1.06,6.45-4.98,6.45M146.72,247.02c0-2,1.34-6.07,4.7-6.07s5.01,3.79,5.01,6.07l-5.33,6.45-4.37-6.45ZM113.83,253.47h-4.73c-3.94,0-5-3.23-5-6.45s1.06-6.07,4.73-6.07c3.94,0,5,3.79,5,7v5.51ZM194.9,238.56c-2.35,0-4.4.9-5.94,2.62-1.52,1.66-2.05,3.35-2.05,5.57v6.73h-32.05l5.18-6c0-2.73-.83-4.53-2.4-6.24-1.62-1.78-3.56-2.62-5.94-2.62-2.5,0-4.48.84-6.17,2.62-1.59,1.71-2.43,3.62-2.43,6.24l4.5,6h-30.51v-6.73c0-2.22-.56-3.91-2.05-5.57-1.54-1.72-3.59-2.62-5.94-2.62-5.26,0-8.16,3.86-8.16,8.91,0,2.55.63,4.85,1.95,6.34,2.17,2.51,5.11,2.86,7.43,2.86h83.34c2.35,0,5.28-.35,7.46-2.86,1.29-1.49,1.94-3.79,1.94-6.34,0-5.06-2.91-8.91-8.16-8.91"/>
      <polyline class="cls-7" points="0 297.73 0 296.94 9.88 277.57 .15 277.57 .15 274.75 14.18 274.75 14.18 275.53 4.27 294.9 14.54 294.9 14.54 297.73"/>
      <path class="cls-7" d="M31.52,297.73l-1.59-4.85h-8.54l-1.69,4.85h-3.52l9.33-23.3h.83l8.65,23.3M25.76,280.45l-3.54,10.12h6.82l-3.29-10.12Z"/>
      <polyline class="cls-7" points="42.39 287.44 42.39 297.73 39.26 297.73 39.26 287.44 31.85 274.74 35.09 274.74 40.8 284.78 46.54 274.74 49.77 274.74"/>
      <polyline class="cls-7" points="55.46 277.57 55.46 283.95 63.04 283.95 63.04 286.62 55.46 286.62 55.46 294.9 65.88 294.9 65.88 297.73 52.32 297.73 52.32 274.75 66.05 274.75 66.05 277.57"/>
      <path class="cls-7" d="M74.17,297.73h-4.63v-22.98c2.93-.11,4.83-.16,5.66-.16,3.21,0,5.74.97,7.61,2.92,1.87,1.95,2.81,4.55,2.81,7.79,0,8.28-3.82,12.43-11.45,12.43M72.68,277.57v17.18c.68.11,1.57.16,2.6.16,2.2,0,3.92-.82,5.18-2.47,1.24-1.65,1.87-3.94,1.87-6.87,0-5.44-2.45-8.16-7.33-8.16-.28,0-1.06.05-2.33.16"/>
      <path class="cls-7" d="M98.92,274.75h3.14v15.73c0,1.4.45,2.55,1.34,3.46.89.91,2.07,1.36,3.54,1.36,1.54,0,2.76-.44,3.64-1.31.89-.88,1.34-2.07,1.34-3.58v-15.66h3.14v15.99c0,2.32-.71,4.13-2.17,5.43-1.44,1.31-3.41,1.96-5.91,1.96s-4.55-.64-5.94-1.91c-1.39-1.28-2.1-3.11-2.1-5.49"/>
      <polyline class="cls-7" points="134.61 298.04 122.73 281.24 122.73 297.73 119.75 297.73 119.75 274.75 121.01 274.75 132.56 290.64 132.56 274.75 135.57 274.75 135.57 298.04"/>
      <rect class="cls-7" x="140.8" y="274.75" width="3.13" height="22.98"/>
      <polyline class="cls-7" points="157.21 298.04 155.61 298.04 147.05 274.75 150.53 274.75 156.45 291.67 162.16 274.75 165.52 274.75"/>
      <polyline class="cls-7" points="171.21 277.57 171.21 283.95 178.82 283.95 178.82 286.62 171.21 286.62 171.21 294.9 181.63 294.9 181.63 297.73 168.08 297.73 168.08 274.75 181.8 274.75 181.8 277.57"/>
      <path class="cls-7" d="M198.06,297.73l-6.14-9.87c-.71,0-1.82-.05-3.34-.16v10.03h-3.14v-22.98c.13,0,.94-.04,2.45-.12,1.52-.07,2.6-.11,3.29-.11,5.53,0,8.29,2.19,8.29,6.59,0,1.45-.43,2.75-1.34,3.9-.89,1.16-1.95,1.88-3.16,2.16l6.67,10.58M188.58,277.57v7.47c.76.1,1.49.16,2.2.16,1.9,0,3.26-.31,4.12-.91.86-.61,1.29-1.69,1.29-3.25,0-1.28-.45-2.21-1.39-2.78-.91-.56-2.38-.85-4.35-.85-.33,0-.94.05-1.87.16"/>
      <path class="cls-7" d="M202.96,296.68l1.14-2.89c.58.43,1.32.79,2.2,1.08.86.29,1.64.43,2.35.43,1.21,0,2.2-.33,2.93-1,.76-.67,1.11-1.52,1.11-2.56,0-.78-.2-1.49-.61-2.16-.41-.66-1.47-1.39-3.11-2.17l-1.87-.86c-1.57-.73-2.65-1.6-3.29-2.6-.61-1-.94-2.22-.94-3.63,0-1.71.61-3.14,1.82-4.27,1.21-1.13,2.78-1.69,4.68-1.69,2.56,0,4.32.41,5.31,1.24l-.91,2.73c-.43-.3-1.06-.6-1.92-.88-.86-.29-1.67-.42-2.4-.42-1.06,0-1.9.3-2.5.91-.61.61-.91,1.39-.91,2.34,0,.58.1,1.12.33,1.6.2.48.53.88.91,1.21.38.32,1.19.78,2.4,1.37l1.9.89c1.57.74,2.66,1.62,3.29,2.66.63,1.03.96,2.34.96,3.93,0,1.73-.71,3.19-2.07,4.39-1.39,1.2-3.24,1.81-5.56,1.81-2.05,0-3.79-.48-5.23-1.45"/>
      <rect class="cls-7" x="220" y="274.75" width="3.14" height="22.98"/>
      <polyline class="cls-7" points="236.76 277.57 236.76 297.73 233.63 297.73 233.63 277.57 226.32 277.57 226.32 274.75 244.42 274.75 244.42 277.57"/>
      <polyline class="cls-7" points="255.44 287.44 255.44 297.73 252.31 297.73 252.31 287.44 244.9 274.74 248.13 274.74 253.85 284.78 259.59 274.74 262.82 274.74"/>
    </g>
  </g>
</svg>