<?xml version="1.0" encoding="UTF-8"?>
<svg id="Layer_1" data-name="Layer 1" xmlns="http://www.w3.org/2000/svg" viewBox="0 0 147.56 151.14">
  <defs>
    <style>
      .cls-1 {
        fill: #005cab;
      }

      .cls-2 {
        fill: #c0c2c4;
      }
    </style>
  </defs>
  <path class="cls-1" d="M120.08,83.61c.09,5.9-11.1,36.87-47.64,36.91-37.73.04-52.68-33.54-52.68-33.54,0,0,11.99,40.33,52.6,41.03,40.37.69,59.39-34.89,59.59-53.71h-53.17s-6.08-48.84-6.08-48.84l-6.12,58.15h53.5Z"/>
  <path class="cls-2" d="M44.64,53.77h70.2c1.07,34.36-15.18,57.63-44.47,57.75-30.57.11-40.28-29.99-40.28-29.99,0,0,10.27,21.64,40.07,21.2,11.4-.16,32.7-10.61,32.35-39.62h-54.83s-2.63-5.63-3.04-9.34"/>
  <path class="cls-1" d="M135.22,116.96c5.12-8.21,8.7-17.6,10.25-27.83,5.91-39.13-20.24-75.52-58.4-81.28C48.91,2.08,13.18,29.13,7.28,68.26c-5.92,39.12,20.23,75.52,58.4,81.28,12.93,1.96,25.59.14,36.89-4.64l.13-.05c-12.26,5.46-26.07,7.6-40.21,5.46C22.23,144.23-5.36,105.84.88,64.56,7.11,23.28,44.81-5.26,85.07.82c40.26,6.08,67.85,44.47,61.61,85.76-1.7,11.22-5.72,21.5-11.48,30.4h.02Z"/>
  <rect class="cls-1" x="114.95" y="128" width="12.08" height="12.07" transform="translate(-59.26 123.29) rotate(-44.51)"/>
</svg>