<?xml version="1.0" encoding="UTF-8"?>
<svg id="Layer_1" data-name="Layer 1" xmlns="http://www.w3.org/2000/svg" xmlns:xlink="http://www.w3.org/1999/xlink" viewBox="0 0 487.07 372.03">
  <defs>
    <style>
      .cls-1 {
        fill: none;
      }

      .cls-2 {
        fill: #fff;
      }

      .cls-3 {
        clip-path: url(#clippath);
      }
    </style>
    <clipPath id="clippath">
      <rect class="cls-1" x="556.99" y="534.18" width="1496.69" height="841.89"/>
    </clipPath>
  </defs>
  <g class="cls-3">
    <image width="2835" height="2835" transform="translate(325.56 -366.13) scale(.7)" xlink:href="../UAE CABINET PORTAL V6_Folder/Links/QASR AL WATAN 1 copy.jpg"/>
  </g>
  <g>
    <path class="cls-2" d="M229.64,217.01c-.34-.03-.67-.06-1.01-.1-.34-.03-.67-.07-1.01-.1.04-.31.08-.62.12-.92.05-.43.43-.78.93-.82.06-.01.11-.01.16-.02.37-.03.72-.13,1.03-.26-.06.73-.14,1.48-.22,2.22M240.85,219.44c.05-2.58.11-5.17.18-7.75-.98.81-1.97,1.59-3,2.38.78.21.95.74.93,1.27-.03.76-.05,1.53-.08,2.29-.67-.02-1.34-.05-2.02-.08.1-2.01.2-4,.3-6.01-1,.78-2.03,1.54-3.06,2.29.78.23.95.78.92,1.3-.05.76-.1,1.53-.14,2.29-1.08-.07-2.15-.14-3.21-.24.39-4.68.79-9.34,1.19-14.05-.97.74-1.96,1.48-2.98,2.2.71.25.85.79.8,1.32-.17,1.68-.33,3.37-.5,5.05-.07.78-.66,1.16-1.13,1.33-.31.14-.58.19-.6.25-1.37.1-2.54,1.04-2.71,2.33l-.33,2.66c.8.1,1.6.2,2.4.28.22.03.43.05.65.07,1.14.12,2.26.23,3.4.32,3,.25,6,.4,8.99.48M220.4,217.59c.66.1,1.33.21,1.99.3.58-4.01,1.17-8,1.76-12,.07-.53.35-1.02,1.11-1.09-.81-.94-1.59-1.89-2.37-2.85-.83,5.21-1.66,10.42-2.49,15.64M212.77,214.36c-.33-.07-.66-.14-.99-.22s-.65-.14-.98-.22c.05-.23.1-.45.16-.69.39-.21.78-.41,1.16-.63.27.36.54.71.81,1.06-.04.24-.09.47-.14.69M217.93,203.58c.71.31.8.87.69,1.39-.64,3.4-1.27,6.79-1.91,10.19-.66-.12-1.32-.25-1.98-.38.09-.45.19-.92.28-1.39-.81-1.06-1.59-2.13-2.36-3.2-1.16.64-2.32,1.28-3.49,1.9-.11.45-.23.91-.33,1.36-.66-.17-1.32-.33-1.98-.5.51-1.93,1-3.87,1.51-5.8-1.15.56-2.31,1.1-3.48,1.62.71.37.75.94.62,1.46-.21.73-.4,1.48-.61,2.22-.29-.08-.58-.16-.86-.24v-.02c-.55-.16-1.1-.31-1.63-.47-.02-.7.09-1.4.23-2.1.44-2.16,1.04-4.62-1.68-7.53-.79.36-1.58.73-2.38,1.09,1.92.57,2.69,2.36,2.99,3.77.28,1.72-.66,3.01-.17,4.47-.94-.28-1.89-.57-2.83-.86h0c.07-.24.14-.47.22-.68.47-1.47-.51-3.11-2.16-3.69-.12-.04-.25-.08-.36-.12-3.68-1.28-7.31-2.72-10.89-4.31.24-.55.48-1.09.71-1.62.21-.48.71-.62,1.24-.39-.55-1.2-1.08-2.4-1.59-3.61-.97,2.13-1.95,4.26-2.94,6.39,4.35,1.99,8.78,3.77,13.25,5.32.63.22.99.85.82,1.39-.07.23-.14.44-.23.67-.21.61-.41,1.22-.62,1.83-.4.18-.82.34-1.23.51-.24-.4-.47-.81-.69-1.21.21-.6.42-1.2.63-1.79-.48-.17-.95-.34-1.43-.51l-.5-.19c-3.63-1.33-7.2-2.81-10.74-4.43-.25.54-.5,1.08-.73,1.6,3.58,1.64,7.2,3.14,10.86,4.49-.1.28-.2.55-.3.82.67,1.19,1.37,2.38,2.09,3.56,1.27-.48,2.53-.98,3.77-1.49.09-.29.19-.58.28-.88,1.42.45,2.83.9,4.25,1.3.27.41.62.75,1.05,1.05-.2-.29-.36-.6-.49-.89,1.19.34,2.37.66,3.57.97,1.66.43,3.33.83,4.99,1.2,1.66.37,3.33.71,5,1.02.07.01.14.03.22.04.59.11,1.18.22,1.78.32h.02c.91-5.21,1.79-10.41,2.7-15.61-1.03.67-2.09,1.31-3.16,1.94M237.6,221.11c-.58-.03-1.03.35-1.06.83-.02.49.4.9.99.92.58.03,1.04-.34,1.06-.84.01-.48-.42-.89-.99-.91M231.27,7.16c.78,0,1.4.59,1.4,1.33-.41-.42-2.05-.75-2.8,0,0-.74.63-1.33,1.41-1.33M234.77,8.88c-.59,4.42-6.26,4.42-6.47,1.16,1.01,3.57,6.53,1.7,4.9-2.26,2.17-.83,3.78-.88,5.54-1.17-4.54-.7-9.86-1.26-13.17.25-1.61.73-1.16,1.73-.92,2.13.26-.86,1.71-.92,2.74-.57-.78,6.67,7.75,5.88,7.38.47M178.28,202.33c-.31-.16-.62-.31-.93-.47-.31-.17-.61-.33-.92-.49.13-.27.27-.53.4-.8.2-.39.7-.55,1.2-.41.06.01.1.04.16.04.37.1.74.13,1.09.13-.33.64-.66,1.31-.99,1.98M182.58,191.49c.6.5.54,1.05.3,1.53-.75,1.52-1.5,3.04-2.25,4.55-.35.69-1.03.83-1.55.84-.35.02-.63-.04-.66.01-1.34-.4-2.78.05-3.39,1.2-.41.79-.86,1.57-1.25,2.37.92.49,1.85.97,2.79,1.44.94.48,1.88.94,2.82,1.39,2.27-4.78,4.54-9.53,6.82-14.3-1.21.35-2.41.67-3.63.98M233.5,220.87c-.57-.04-1.06.32-1.11.8-.04.5.4.91.98.95.56.04,1.05-.31,1.09-.81.03-.48-.4-.91-.96-.94M231.05,220.68c-.58-.05-1.08.31-1.12.78-.04.49.38.92.97.96.56.05,1.05-.29,1.1-.79.03-.48-.39-.91-.95-.95M207.87,205.91c.51.13,1.02-.12,1.15-.61.11-.45-.2-.95-.69-1.09-.52-.13-1.03.13-1.16.59-.14.49.18.96.7,1.11M205.64,205.3c.5.14,1.02-.11,1.16-.59.12-.47-.19-.96-.68-1.1-.52-.14-1.03.12-1.17.57-.13.48.18.96.69,1.12M227.87,206.55c.53.06.97-.29,1.02-.79.05-.47-.3-.91-.82-.97-.5-.06-.96.29-1.01.75-.07.5.3.94.81,1M275.96,208.1c.51-.11.85-.61.73-1.08-.11-.49-.63-.76-1.13-.65-.53.11-.85.6-.73,1.08.1.48.6.78,1.13.65M181.19,189.98c.48.25,1.01.09,1.23-.34.22-.42.04-.96-.42-1.21-.44-.23-1.01-.07-1.23.34-.24.43-.03.97.42,1.21M228.12,204.44c.52.06.95-.27,1-.76.05-.47-.3-.91-.81-.97-.49-.06-.95.28-1,.75-.05.49.31.92.81.98M273.71,208.61c.51-.11.86-.6.75-1.05-.1-.49-.62-.79-1.13-.67-.52.11-.87.59-.76,1.08.09.47.6.76,1.14.65M180.21,191.86c.48.25,1.03.08,1.25-.36.22-.42.03-.96-.43-1.21-.45-.24-1.02-.08-1.24.33-.24.44-.04,1,.42,1.24M233.34,98.33c-.19-3.31-.31-7.06-.31-11.14,0-3.7.1-7.04.27-10,9.37-.84,22.77-1.09,35.16,2.14.89,2.66,1.39,5.49,1.39,8.43s-.5,5.77-1.37,8.42c-12.36,3.21-25.74,2.98-35.12,2.14M243.35,114.25c-2.96,0-5.85-.49-8.62-1.45-.22-1.42-.87-6.1-1.29-12.9,9.23.81,22.18,1.02,34.36-1.95-4,9.57-13.45,16.3-24.45,16.3M216.86,87.76c0-10.69,6.48-20.33,16.26-24.44-.51,3.16-1.65,11.6-1.65,23.86s1.12,21.62,1.59,24.98c-9.74-4.11-16.2-13.76-16.2-24.41M234.82,62.69c2.74-.94,5.6-1.42,8.54-1.42,10.99,0,20.43,6.72,24.44,16.27-12.2-2.98-25.18-2.75-34.4-1.94.44-7.03,1.18-11.55,1.43-12.91M243.35,59.71c-3.26,0-6.45.56-9.48,1.64-11.1,4-18.56,14.61-18.56,26.41s7.42,22.35,18.46,26.37c3.07,1.12,6.3,1.68,9.59,1.68,15.46,0,28.04-12.58,28.04-28.04,0-15.47-12.58-28.06-28.05-28.06M308.75,208.24c-.27.12-.56.05-.66-.18s.03-.5.29-.62c.1-.04.22-.08.3-.06-.95-.31-1.82.73-1.08,1.37-.26.16-.45.17-.59.02-.18.34-.34.69-.51,1.03,1.27-.56,2.53-1.15,3.79-1.74-.41-.12-.82-.26-1.22-.39.06.21-.07.44-.33.56M322.62,88.71v-3.12c0-1.57,0-3.11.01-3.85.02-2.95-.48-6.85-3.27-8.77.85,3.3.27,3.88.27,9.44v6.94c0,2.04.29,3.81.78,5.35-3.25-1.57-6.71-4.99-6.71-11.01,0-2.02-.5-10.35-3-13.81v14.43c0,1.9.24,3.57.67,5.04-7.61-3.86-6.85-16.99-9.33-22.09,0,4.41.1,7.5.1,11.91,0,2.17.33,4.04.87,5.65-6.67-4.26-7.43-12.59-7.96-18.82-.65,2.31-1.71,8.38.11,14.12-4.48-3.42-6.97-10.71-6.66-15.92-.65,2.85-1.35,7.15.05,11.46-.25,4.9-.21,43.56-.2,47.78-2.54-2.1-5.15-5.9-4.87-11.67.09-.94.2-1.84.32-2.69,1.78-12.06,2.15-29.45-2.83-43.36,4.02,21.73-.99,44.06-1.7,48.55-1.26,8.03,1.47,24.66,7.13,43.11-1.1-1.1-4.88-2.67-6.39-4.19,0,1.66.61,3.46.61,7.1-1.94-3.26-2.69-3.39-4.74-7,.65,4.25.47,4.62.47,8.29-2.02-3.79-3.1-8.85-7.71-16.06-10.29-16.05-25.11-6.1-25.11-3.3,0-2.8-14.82-12.76-25.1,3.3-4.62,7.22-5.7,12.26-7.72,16.06,0-3.67-.19-4.04.47-8.29-2.07,3.62-2.81,3.74-4.74,7,0-3.64.61-5.44.61-7.1-1.52,1.51-5.29,3.09-6.39,4.19,5.66-18.45,8.39-35.08,7.13-43.11-.71-4.5-5.73-26.83-1.7-48.55-4.98,13.9-4.62,31.29-2.84,43.36.12.85.23,1.76.32,2.7.29,5.79-2.35,9.58-4.89,11.69,0-4.22.06-42.85-.19-47.81,1.41-4.31.71-8.61.05-11.46.31,5.21-2.18,12.5-6.66,15.92,1.81-5.74.75-11.8.1-14.12-.53,6.23-1.28,14.56-7.95,18.82.54-1.62.87-3.48.87-5.65,0-4.4.1-7.5.1-11.91-2.49,5.1-1.73,18.23-9.33,22.09.42-1.47.67-3.14.67-5.04v-14.43c-2.5,3.46-3,11.79-3,13.81,0,6.02-3.47,9.44-6.71,11,.5-1.54.78-3.32.78-5.35v-6.94c0-5.56-.58-6.14.27-9.44-2.8,1.91-3.29,5.81-3.27,8.77v3.85h0v3.12c0,6.28-3.78,9.75-7.14,11.21.57-.75,1.2-2.8,1.2-5.84v-30.3c0-8.52,9.94-18.31,13.63-22.63,10.19-11.95,14.63-2.23,24.89,1.24,17.07,5.79,26.16-.67,26.16-.67,9.12-5.74,9.15-11.15,9.15-14.52,0-2.28-.88-5.26-2.55-7.17-3.12-3.11-8.65-4.11-9.63-3.92-2.08,1.06-3.93,1.08-4.3,1.36-.96-1.9-.72-4.81,3.58-7.19,1.21-.66.75-2.19,4.43-4.33,10.72-6.25,21.21-3.99,27.34,2.84-2.17-.79-4.25-1.51-7.9-1.85,5.13,1.78,11.19,6.02,15.12,13.07,1.6,2.8,5.22,10.52,6.5,12.86,2.74,4.98,7.68,15.42,25.11,9.54,10.26-3.46,14.71-13.19,24.9-1.24,3.68,4.31,13.62,14.11,13.62,22.63v30.32c0,3.04.62,5.09,1.2,5.84-3.34-1.48-7.13-4.94-7.13-11.23M322.63,112.38v-8.66c0-1.43-.05-2.69-.14-3.81.51.19.97.36,1.41.52,1.44,1.44,3.09,2.47,4.67,3.27v14.03c0,3.05.62,5.1,1.2,5.85-3.35-1.47-7.11-4.92-7.13-11.18M322.76,141.78c0-1.01-.13-9.44-.13-11.07,0-1.81-.07-4.91-.23-7.24.54.21,1.03.39,1.49.56,1.44,1.43,3.09,2.46,4.67,3.26v17.91c0,3.04.62,5.1,1.2,5.84-2.99-1.29-7-4.89-7-9.26M322.76,187.22v-6.71h-.01c-.01-4.23-.12-7.9-.12-9.16v-10c0-.86-.02-5.21-.05-10.82.2.08.38.16.57.22,1.6,1.85,3.55,3.11,5.42,4.04v35.84c0,3.05.62,5.1,1.2,5.85-2.99-1.3-7-5.05-7-9.26M313.7,107.32v-8.77c0-1.54-.05-2.84-.13-3.95.34.13.68.26.99.37,1.56,1.67,3.39,2.83,5.15,3.7.03,1.84-.06,3.76-.06,5.7v8.58c0,2.05.29,3.81.78,5.36-3.26-1.54-6.72-4.98-6.72-11M313.7,134.33v-8.77c0-1.56-.05-4.84-.14-7.32.35.13.69.26,1,.38,1.56,1.65,3.39,2.82,5.14,3.69.06,2.93-.06,6.95-.06,9.08v8.3c0,.22.01.4.02.6-.01,0-.02,0-.02-.01v.2c0,1.84.23,3.45.63,4.89-2.94-1.35-6.56-5.13-6.56-11.04M313.7,164.98v-8.76c0-1.52-.05-7.13-.13-11.4,1.75,2.32,4.04,3.67,6.12,4.6-.03,6.47-.05,11.66-.05,12.63v8.3c0,3.05.01,4.8.58,5.55-2.5-1.11-6.51-4.64-6.51-10.93M305.14,102.18v-7.94c0-1.63.02-2.74-.02-3.65.81.31,1.67.58,2.59.83.97.75,1.98,1.39,2.99,1.9v14.62c0,1.88.24,3.54.65,4.99-3.08-1.65-6.21-5.02-6.21-10.75M305.14,126.3v-7.93c0-3.03-.08-3.02-.09-4.5.85.36,1.63.66,2.34.92,1.06.88,2.2,1.59,3.32,2.16v18c0,.62.03,1.2.06,1.77-2.88-1.76-5.62-5.07-5.62-10.42M310.69,151.85v13.59c-2.86-1.78-5.56-5.08-5.56-10.38v-7.95c0-2.32-.05-7.53-.08-10.64,1.6,2.12,3.65,3.55,5.63,4.57.02,3.71.01,10.23.01,10.8M297.66,98.23v-7.98c0-2.05-.04-3.56-.14-4.69.3.16.6.31.91.47,1,1.15,2.22,2.19,3.7,3.1.02.66.02,1.32.02,1.93v11.74c0,2.18.33,4.05.88,5.67-2.79-1.79-5.36-5.05-5.36-10.24M297.66,119.58v-7.98c0-.9-.01-1.68-.03-2.39.37.21.76.41,1.17.6,1.02,1.03,2.14,1.86,3.28,2.54.07.95.07,1.94.07,2.82v11.74c0,.84.05,1.63.14,2.39-2.49-1.87-4.63-5-4.63-9.73M302.14,143.95v9.85c-2.43-1.9-4.49-4.99-4.49-9.62v-7.98c0-1.49-.02-4.26-.07-6.42,1.28,1.7,2.85,2.96,4.46,3.92.11,3.36.1,9.26.1,10.25M290.01,96.21c0-1.82-.13-11.39-.16-17.63,1.04,1.8,2.54,3.55,4.68,5.13.24,1.76.12,3.96.12,5.51v9.65c0,1.8.23,3.38.61,4.81-2.93-2.15-5.26-4.82-5.26-7.46M289.9,102.09c.96,1.73,2.56,3.57,4.78,5.24.01,1.15-.02,2.31-.02,3.23v7.96c-2.64-2.06-4.65-4.53-4.65-7,0-1.11-.05-5.09-.1-9.43M294.66,135.15v5.7c-2.64-2.06-4.65-4.53-4.65-6.99,0-1.73-.13-10.34-.16-16.55.94,1.74,2.54,3.6,4.74,5.28.16,3.63.06,11.18.06,12.56M287.54,168.27c.35.81.26,2.42.63,3.16.37.74,1.19,1.26,1.43,1.63.31.51.2,1.78.59,2.67.2.41.39.84.6,1.21-.27.29-.49.63-.68.94-.62-1.39-2.14-1.54-3.29-.82-.58.37-1.27.94-1.8,1.85.22-1.58-.07-2.08-.68-2.69-.9-.9-.54-2.79-1.27-3.94-.56-.88-1.61-1.16-2.27-2.53-.67-1.35-.34-2.08-1.01-3.43-.76-1.53-.96-2.02-1-4.08.88,1.13,1.88,2.06,3.24,3.43.48-3.21.53-3.98.53-6.76,1.36,1.16,2.76,2.89,3.2,4.07.26.7.51,2.74.61,3.08.34,1.06.83,1.4,1.19,2.2M293.51,177.65c1.43.11.64,6.33,1.7,8.5,1.08,2.19.61,4.01-1.42,3.82-2.08-.2-1.95-6.49-1.96-7.6,0-1.56-.79.83-1.22,1.71-.09-.38-.18-.81-.25-1.25-.16-1.06-.04-1.75.04-2.41.56-1.48,1.66-2.87,3.11-2.77M295.35,180.18c.57-1.87,2.12-4.47,3.91-4.05,1.4.31.05,4.8.91,6.99,1.64,4.28-.66,5.74-2.66,5.23-2.22-.56-1.24-6.54-1.04-7.41.05-1.41-.68-.02-1.18.76-.11-.36-.19-.61.06-1.52M301.97,181.07l13.13,8.97-.02,18.89c-20.85,11.83-44.24,18.68-68.34,19.2h-.39s-1.84,1.51-2.72,2.25h-.01c-.89-.73-2.72-2.25-2.72-2.25h-.39c-24.09-.51-47.49-7.37-68.34-19.2l-.02-18.89,13.12-8.97c.32.19.65.36.97.55.05,1.88-1.27,2.84-.97,4.78.25,1.6,1.23,2.75,2.41,3.29.31.7.89,1.28,1.67,1.6.8.3.7-.39.69-1.41.18-.05.34-.1.52-.19.22.76.72,1.32,1.35,1.64.29.58.81,1.11,1.84,1.8,1.02.48.33-.63.14-1.63.37-.09.76-.26,1.14-.51.13.31.32.58.6.78.09.07.19.13.29.21.26,1.04.99,1.65,2.1,2.28.74.25.47-.6.38-1.41,1.03.02,1.95-.56,2.36-2.25.2-.81.19-1.31.13-1.74,12.46,5.29,25.91,8.9,39.07,9.3.47.36,3.63,2.74,3.63,2.74,0,0,3.16-2.38,3.63-2.74,13.1-.4,26.46-3.96,38.86-9.21-.03.41-.03.91.16,1.64.41,1.68,1.32,2.26,2.35,2.25-.07.81-.35,1.64.39,1.41,1.12-.63,1.85-1.24,2.11-2.29.09-.06.2-.12.29-.2.28-.2.47-.47.6-.78.38.25.75.41,1.14.51-.2,1-.89,2.11.14,1.63,1.02-.68,1.56-1.21,1.84-1.8.64-.32,1.14-.89,1.35-1.64.17.08.34.13.52.19-.01,1.02-.11,1.71.68,1.41.79-.32,1.36-.9,1.67-1.6,1.17-.53,2.16-1.67,2.41-3.29.3-1.89-.97-2.86-.97-4.67.44-.21.83-.43,1.21-.65M186.93,183.12c.84-2.19-.51-6.68.89-6.99,1.79-.41,3.34,2.18,3.91,4.06.18.53.14,1.33.07,1.51-.51-.79-1.24-2.17-1.19-.76.2.87,1.19,6.85-1.04,7.41-1.97.5-4.28-.95-2.64-5.23M193.57,177.65c1.45-.1,2.54,1.29,3.11,2.77.08.66.19,1.33.04,2.41-.06.44-.14.86-.25,1.25-.42-.88-1.21-3.27-1.21-1.71-.01,1.11.1,7.4-1.97,7.6-2.04.19-2.48-1.63-1.42-3.82,1.05-2.17.27-8.38,1.7-8.5M200.78,182.41c-1.71,3.08-.2,8.86-2.15,8.98-5.6.36-1.45-6.66-1.23-8.4.26-2.23.02-5.51,2.2-4.83,1.95.6,4.44,6.95,5.65,8.85.01.02.03.04.06.06-.44-.18-.89-.36-1.32-.55.12.04.23.08.28.09-2.01-.79-3.15-5.62-3.49-4.21M287.46,178.16c2.19-.68,1.95,2.59,2.2,4.83.21,1.75,4.36,8.78-1.24,8.4-1.94-.12-.43-5.9-2.14-8.98-.3-1.27-1.24,2.69-2.88,4.06-.54.23-1.08.44-1.62.66,1.3-2.18,3.79-8.39,5.69-8.97M256.95,178.99c1.4,8.15-6.63,8.6-7.84,2.33-.14-.8-.36-3.21-.62-6.42-.6-10.94-1.5-28.27-1.55-31.55,1.35-.86,2.98-1.51,4.62-1.95.89,6.17,5.01,35.41,5.39,37.59M257.76,140.97c.87.17,1.59.45,2.11.89.79.55,1.65,1.29,2.56,2.2,1.44,5.48,7.3,27.36,7.82,29.56.64,2.65,1.32,5.04,2.44,6.16-3.54.67-6.05,0-6.86-3.21-1.08-5.05-6.62-30.07-8.07-35.6M263.72,176.69c.47,2.69,2.62,6.52.16,7.11-3.81.93-4.15-1.19-4.77-4.47-.02-.09-5.36-35.1-6.13-38.26,1.22-.23,2.42-.31,3.49-.26.8,3.85,6.87,33.69,7.25,35.87M240.72,180.02c0-4.25.65-31.31.79-35.67,1.09.94,1.83,2.05,2.03,3.29.22-1.23.96-2.34,2.05-3.29.12,4.36.76,31.42.76,35.67,0,4.62-1.22,6.28-2.81,7.24-1.59-.95-2.81-2.63-2.81-7.24M214.74,173.33c-1.04,3.69-3.56,7.53-4.15,8.11,2.16.82,6.12,1.46,8.91.35-.4,1.46-.37,2.78.87,4.02,1.52,1.52,5.81,2.62,7.89-.96,1.68,5.95,8.1,5.67,10.64,1.51,1.1,3.45,3.35,3.89,4.66,5.2,1.3-1.3,3.58-1.74,4.66-5.2,2.52,4.17,8.95,4.44,10.63-1.51,2.09,3.58,6.38,2.48,7.89.96,1.24-1.24,1.26-2.57.87-4.02,2.79,1.11,6.74.47,8.91-.35-.59-.59-3.11-4.42-4.16-8.11-1.27-4.48-5.93-20.63-8.03-27.26,5.67,6.52,12.18,17.58,12.59,23.39.18-.83.56-1.83.91-2.93,1.31,2.72,4.47,8.29,4.99,9.6.55,1.37.7,2.28.3,4.1-.29,1.32-1.49,5.33-4.06,7.91,0,.01.01.02.01.03-10.3,3.82-21.15,6.21-32.27,6.51-.91.74-3.14,2.43-3.14,2.43,0,0-2.23-1.68-3.14-2.43-11.09-.3-21.89-2.67-32.16-6.48,0-.01.02-.02.02-.03-2.57-2.57-4.09-6.62-4.39-7.94-.39-1.82-.24-2.73.31-4.1.53-1.31,3.68-6.89,4.98-9.6.35,1.09.73,2.1.9,2.93.42-5.81,6.93-16.87,12.6-23.39-2.1,6.63-6.76,22.78-8.03,27.26M221.26,176.56c-.83,3.23-3.33,3.89-6.86,3.21,1.11-1.12,1.8-3.51,2.44-6.16.53-2.19,6.38-24.08,7.82-29.56.91-.91,1.78-1.65,2.56-2.19.52-.43,1.24-.72,2.11-.89-1.48,5.53-7,30.55-8.07,35.59M235.52,141.39c1.64.43,3.27,1.1,4.62,1.95-.06,3.29-.95,20.6-1.56,31.54-.25,3.21-.47,5.62-.62,6.43-1.2,6.27-9.21,5.82-7.82-2.33.37-2.18,4.49-31.42,5.39-37.59M227.97,179.33c-.61,3.28-.95,5.4-4.77,4.47-2.46-.59-.31-4.42.16-7.11.39-2.34,6.38-31.45,7.25-35.87,1.08-.05,2.27.03,3.48.26-.75,3.15-6.11,38.17-6.12,38.26M196.88,175.74c.4-.89.29-2.16.6-2.67.23-.37,1.05-.9,1.43-1.63.37-.74.28-2.36.64-3.16.35-.81.85-1.15,1.18-2.19.1-.34.35-2.38.62-3.08.45-1.18,1.83-2.91,3.2-4.07,0,2.78.03,3.55.52,6.76,1.36-1.37,2.37-2.31,3.24-3.43-.04,2.07-.23,2.55-.99,4.08-.68,1.34-.35,2.08-1.02,3.43-.66,1.36-1.72,1.65-2.27,2.53-.73,1.15-.37,3.04-1.27,3.94-.61.61-.9,1.12-.67,2.69-.54-.9-1.22-1.48-1.81-1.85-1.14-.72-2.67-.57-3.28.82-.2-.31-.42-.64-.69-.93.2-.39.4-.82.59-1.23M197.06,96.21c0,2.65-2.34,5.31-5.25,7.47.38-1.43.61-3.01.61-4.81v-9.66c0-1.54-.12-3.75.11-5.51,2.14-1.58,3.65-3.33,4.69-5.13-.03,6.24-.17,15.82-.17,17.63M192.39,107.32c2.19-1.65,3.79-3.48,4.75-5.21-.04,4.33-.09,8.3-.09,9.41,0,2.46-2.01,4.92-4.63,6.99v-7.95c-.01-.92-.05-2.08-.03-3.24M197.04,133.84c0,2.45-2.01,4.92-4.63,6.98v-5.69c0-1.37-.09-8.95.05-12.58,2.2-1.68,3.79-3.55,4.73-5.27-.03,6.21-.16,14.84-.16,16.56M189.41,90.27v7.98c0,5.18-2.58,8.45-5.36,10.25.55-1.62.88-3.48.88-5.66v-11.76c0-.61,0-1.27.01-1.93,1.48-.91,2.7-1.95,3.7-3.1.32-.16.61-.31.91-.47-.09,1.13-.13,2.64-.13,4.69M184.79,129.32c.08-.75.13-1.54.13-2.39v-11.74c0-.89-.01-1.87.06-2.82,1.14-.68,2.26-1.51,3.28-2.54.39-.2.79-.39,1.16-.6-.01.7-.02,1.49-.02,2.39v7.98c.01,4.71-2.13,7.85-4.61,9.73M189.41,136.2v7.98c0,4.63-2.06,7.72-4.49,9.62v-9.85c0-.99-.02-6.89.09-10.26,1.6-.96,3.17-2.22,4.46-3.92-.04,2.16-.06,4.94-.06,6.43M181.93,118.36v7.93c0,5.35-2.75,8.66-5.63,10.42.04-.57.06-1.15.06-1.77v-18c1.11-.58,2.24-1.29,3.31-2.17.69-.26,1.49-.56,2.33-.92.02,1.5-.06,1.48-.06,4.51M181.93,147.12v7.95c0,5.3-2.7,8.59-5.56,10.38v-13.59c0-.57,0-7.08.01-10.77,1.98-1.04,4.03-2.47,5.63-4.58-.03,3.1-.08,8.31-.08,10.62M175.7,112.94c.42-1.46.66-3.11.66-4.99v-14.62c1-.52,2.02-1.15,2.99-1.9.93-.24,1.79-.52,2.59-.83-.04.91-.02,2.01-.02,3.65v7.94c0,5.72-3.13,9.09-6.22,10.75M173.37,125.57v8.77c0,5.91-3.64,9.7-6.56,11.02.4-1.43.63-3.04.63-4.88v-.2s-.01.01-.01.01c0-.2.01-.39.01-.6v-8.3c0-2.13-.12-6.15-.06-9.08,1.75-.86,3.58-2.04,5.14-3.69.32-.12.65-.26.99-.38-.08,2.49-.13,5.77-.13,7.33M173.37,156.21v8.76c0,6.28-4.01,9.82-6.51,10.92.57-.74.58-2.5.58-5.55v-8.3c0-.97-.03-6.16-.04-12.63,2.07-.93,4.35-2.27,6.11-4.6-.08,4.29-.13,9.89-.13,11.41M167.36,98.69c1.76-.87,3.6-2.03,5.15-3.7.32-.11.65-.25.99-.37-.08,1.1-.13,2.4-.13,3.95v8.77c0,6.02-3.47,9.46-6.71,11.01.5-1.55.78-3.32.78-5.36v-8.58c0-1.93-.09-3.87-.07-5.71M157.3,123.55c.57-.75,1.2-2.8,1.2-5.85v-14.02c1.58-.8,3.24-1.83,4.68-3.27.42-.17.9-.33,1.4-.52-.09,1.13-.14,2.39-.14,3.81v8.63c0,6.27-3.78,9.75-7.13,11.21M164.44,130.71c0,1.63-.14,10.06-.14,11.07,0,4.37-4.01,7.96-7,9.26.57-.74,1.2-2.8,1.2-5.84v-17.91c1.58-.79,3.24-1.83,4.68-3.26.45-.17.94-.36,1.48-.56-.13,2.33-.22,5.43-.22,7.24M164.44,161.37v10c0,1.26-.12,4.93-.13,9.16h0v6.71c0,4.21-4.01,7.96-7,9.25.57-.74,1.2-2.8,1.2-5.85v-35.84c1.86-.92,3.8-2.19,5.42-4.04.18-.06.36-.13.57-.22-.03,5.61-.05,9.97-.05,10.83M223.24,18.46v-.02c-.79.24-4.92.94-5.44.42.91-.48,1.52-.74,3.25-1.84,1.26.1,2.48.88,4.43,2.05-1.09-.44-1.2-.82-2.24-.61M331.55,128.58c.86.32,1.6.58,2.19.82-2.36-3.56-2.19-9.32-2.19-10.69v-13.76c.86.32,1.6.58,2.19.83-2.36-3.57-2.19-9.33-2.19-10.7v-32c0-8.86-13.54-30.32-24.99-30.61-8.13-.2-17.67,11.23-29.34,8.27-3.74-.97-6.74-4.99-9.2-9.96-4.35-8.89-8.54-20.78-19.12-27.65-11.72-7.61-25.22.89-26.77,2.24-1.32,1.22-3.44,4.87-4.57,5.45-3.68,1.91-4.28,5.13-4.28,6.35s.27,4.18,2.5,5.85c-.31-1.45-.39-2.25-.05-2.99,1.46.25,4.67.9,6.75.05,1.01,1.01,3.45,2.97,4.51,4.98,1.48,2.8,1.49,3.23,1.49,4.32,0,2.84-1.33,6.9-5.38,9.56-4.26,3.04-14.31,4.73-26.9.42-6.81-2.33-9.6-7.05-15.7-6.9-11.45.3-24.99,21.76-24.99,30.62v32.02c0,1.36.19,7.12-2.18,10.7.6-.24,1.33-.51,2.18-.83v13.76c0,1.36.19,7.12-2.18,10.69.6-.24,1.33-.5,2.18-.82v17.63c0,1.36.19,7.12-2.18,10.7.6-.24,1.33-.48,2.18-.8v35.54c0,1.01.1,4.52-.85,7.7-.32,1.06.4,2.35,1.52,1.9,4.59-1.82,11.26-5.41,11.26-15.37v-5.61c3.3-1.45,7.25-4.01,8.51-10.24,3.74-1.86,7.88-5.09,8.79-11.58,3.82-2.22,7.63-6.08,7.67-13.53,3.33-2.52,5.3-5.48,5.71-7.77.28-1.55.47-5.23.54-9.5,2.41-1.76,4.15-3.75,5.14-5.58-.39,9.24-2.23,21.68-6.58,38.89.78,0,1.8-.18,2.84-.41-.58,3.46-3.52,11.73-5.51,15.48-.26-.02-.55-.01-.86.03-.65.11-1.13.73-1.44,1.52-.89-1.35-2.01-3.57-4.6-2.72-1.34.44-1.85,1.5-1.95,2.63-2.16,1.35-16.83,10.46-16.83,10.46v22.67c21.78,12.89,45.76,20.66,71.64,21.2.85.85,3.14,2.6,3.14,2.6,0,0,2.31-1.76,3.14-2.6,25.88-.54,49.86-8.3,71.64-21.2v-22.67s-15.91-9.87-17.05-10.6c-.13-1.06-.64-2.07-1.94-2.49-2.6-.85-3.72,1.35-4.61,2.72-.31-.79-.79-1.41-1.45-1.52-.31-.04-.6-.05-.86-.03-1.97-3.74-4.94-12.01-5.51-15.48,1.05.25,2.08.41,2.84.41-4.35-17.21-6.19-29.65-6.58-38.89.98,1.82,2.71,3.8,5.11,5.56.08,4.27.27,7.97.54,9.52.4,2.29,2.39,5.26,5.73,7.78.04,7.44,3.85,11.31,7.67,13.52.91,6.5,5.04,9.73,8.79,11.58,1.27,6.23,5.21,8.8,8.52,10.24v5.61c0,9.85,6.52,13.47,11.1,15.31,1.17.48,2.14-.42,1.84-1.28-1.13-3.34-1.02-7.18-1.02-8.27v-35.51c.86.32,1.6.52,2.19.76-2.36-3.58-2.19-9.33-2.19-10.7v-17.64h.02ZM298.75,207.32c-.31.12-.62.25-.94.37-.09-.22-.17-.43-.26-.66.21-.39.41-.79.62-1.18.42.14.85.29,1.27.43.09.22.18.43.27.65-.32.12-.64.26-.96.38M297.27,203.55c-.6,1.19-1.22,2.37-1.86,3.55.17.44.33.88.49,1.32-.64.24-1.29.48-1.94.7-1.16-3.26-2.32-6.51-3.47-9.77-.18-.5-.17-1.08.49-1.49-1.17-.45-2.32-.92-3.45-1.41,1.51,4.43,3.03,8.88,4.54,13.32.19.56.38,1.12.57,1.67.5-.17.98-.33,1.47-.51l.47-.17c1.62-.58,3.24-1.19,4.86-1.83.96-.38,1.91-.78,2.86-1.17-.4-.97-.82-1.95-1.23-2.93-1.27-.41-2.53-.86-3.77-1.31M311.77,203.42c.62-.31,1.24-.62,1.85-.94-1.86-3.59-3.74-7.17-5.6-10.76-.25-.48-.31-1.03.29-1.55-1.23-.28-2.45-.58-3.65-.9,2.11,4.2,4.22,8.38,6.33,12.57.26.54.53,1.06.79,1.58M278.6,96.25s.04.05.03.08-.03.05-.06.06l-1.86.41-.41,1.62s-.04.05-.07.05h-.01s-.05-.01-.06-.04l-.92-1.5-1.86-.05s-.06-.02-.07-.05c-.02-.03-.01-.06.01-.08l1.18-1.37-.47-1.75s0-.06.03-.08c.03-.02.06-.03.09-.01l1.7.74,1.47-.96s.03-.01.05-.01.03.01.05.01h0s.03.05.03.08l-.32,1.63,1.48,1.21ZM259.92,115.99l-.83-3.19s-.04-.05-.07-.06c-.03-.01-.06.01-.07.03,0,0-1.62,2.36-2.12,3.01-.82-.02-3.68-.24-3.69-.24-.03-.01-.05.02-.07.05-.01.02-.01.05.01.08l1.99,2.65c-3.57,1.35-7.44,2.12-11.48,2.12s-8.18-.81-11.85-2.26l1.88-2.5s.03-.06.01-.09c-.02-.02-.05-.05-.08-.04-.01,0-2.88.22-3.69.24-.5-.64-2.12-3.01-2.12-3.01-.02-.03-.05-.04-.08-.03s-.06.03-.06.06l-.78,2.94c-6.55-3.99-11.59-10.24-14-17.67l3-.08s.05-.02.07-.05c.02-.03.01-.06-.01-.08,0,0-1.88-2.12-2.42-2.74.22-.81,1-3.52,1-3.54.01-.03,0-.05-.02-.07-.03-.03-.05-.03-.08-.02l-2.78,1.23c-.22-1.51-.34-3.05-.34-4.61,0-6.56,1.97-12.68,5.36-17.79l1.83,2.18s.03.03.06.03t.02-.01s.05-.03.06-.06c0,0,.49-2.8.64-3.59.78-.34,3.45-1.39,3.46-1.39.03-.01.05-.03.05-.06s-.02-.06-.05-.08l-2.64-1.36c5.26-5.59,12.48-9.31,20.54-10.06l-.59,3.01s.01.06.03.08c.01.01.03.01.04.01h.04s2.49-1.44,3.21-1.8c.71.36,3.23,1.79,3.23,1.79.02.01.06.01.08-.01.02-.02.04-.05.03-.08l-.6-3.04c8.19.63,15.52,4.32,20.87,9.92l-2.95,1.53s-.05.05-.04.07c0,.04.02.06.05.07,0,0,2.69,1.04,3.45,1.39.17.78.64,3.58.64,3.58.01.03.03.05.06.06.01.01.02.01.02.01.03,0,.05-.01.06-.03l2.1-2.49c3.5,5.17,5.56,11.4,5.56,18.11,0,1.64-.13,3.25-.37,4.82l-3.23-1.43s-.06-.01-.08.01c-.03.03-.04.06-.03.08,0,.01.8,2.72,1.01,3.54-.55.63-2.42,2.74-2.42,2.74-.02.03-.03.06-.02.08.02.03.05.05.08.05l3.46.09c-2.46,7.58-7.64,13.93-14.39,17.91M260.76,117.99s-.01.03-.02.04l-1.47.8.02,1.89s-.02.06-.04.08h-.04s-.04,0-.05-.01l-1.49-1.18-.91.38-.62.27h0s0-.01-.01,0c-.02,0-.05,0-.07-.01-.01-.02-.01-.03-.01-.05-.01-.01-.02-.03-.01-.04l.25-.68.35-.94-.47-.62h0l-.64-.86s0-.03,0-.04-.02-.03,0-.05c.01-.02.03-.02.04-.03.01,0,.02-.02.03-.02l1.78.05,1.1-1.44s.05-.03.07-.03c.03.01.05.03.06.05h0l.28,1.05.19.74,1.24.41.42.13s.05.04.05.07c-.01-.01-.02.01-.03.02M231.15,116.99s.01.03,0,.04l-.64.85-.48.63.26.69.34.93s0,.06-.02.09c-.01.01-.01,0-.02.01-.01.01-.04.02-.06.01l-.41-.18-.82-.34s.03.01.04.02l-.35-.14-.56.44-.93.72s-.03.02-.05.02h-.04s-.04-.04-.04-.08v-1.89s-1.46-.8-1.46-.8c-.03-.02-.04-.05-.04-.08h0s.03-.05.05-.07l.83-.27.83-.27.26-.97.21-.82s.04-.05.06-.05c.03,0,.06.01.08.03h0l.55.72.55.72,1.77-.04s.06.01.07.04c.04-.01.03,0,.03.02M210.52,98.44s-.04.04-.06.04h-.01s-.06-.04-.07-.05l-.41-1.62-1.86-.41s-.05-.03-.06-.06c-.01-.03,0-.06.03-.08l1.5-1.19h0l-.06-.35h0s-.26-1.28-.26-1.28c-.01-.02,0-.04.01-.06,0-.01.01-.02.02-.02.03-.01.06-.01.09,0l1.47.96.91-.4.79-.35s.06-.01.09.01c.03.02.03.05.03.08l-.48,1.75,1.18,1.37s.03.05.01.09c-.01.03-.04.04-.06.05l-1.86.05-.93,1.48ZM214.69,68.51l.99-1.33-.84-1.71s-.01-.06,0-.09c.02-.03.05-.03.08-.03l1.88.42,1.09-1.28s.06-.03.09-.02.05.03.05.07l.13,1.75,1.66.87s.05.04.05.07-.02.06-.05.08l-1.63.72-.35,1.78s-.03.05-.06.06h-.02s-.05-.01-.06-.03l-.44-.53-.75-.9-1.66.21h-.07s-.07-.01-.08-.03c-.02-.02-.02-.05,0-.08M240.71,53.52s.03-.04.06-.04l1.66-.07.82-1.73s.04-.05.07-.05.06.02.07.05l.83,1.73h.13s1.14.06,1.14.06h0c.13.01.28.01.41.02.02.01.04.02.04.04h0s.01.06-.02.09l-1.25,1.21.36,1.83s-.01.06-.04.08c-.01.01-.03.02-.05.02-.01,0-.03,0-.04-.01l-1.6-.82-1.6.82s-.06.01-.08-.01c-.02-.02-.04-.05-.03-.08l.17-.85.2-.98-1.25-1.21s-.03-.05-.02-.09c.02,0,.03,0,.03-.01M267.75,66.67l.72-.37.13-1.75s.02-.06.05-.06c.01-.01.03-.01.04,0,.02,0,.03.01.04.02l1.09,1.28.14-.04,1.73-.39s.06,0,.08.03c.02.02.02.05.01.08l-.84,1.71.99,1.33s.03.06.01.09-.04.04-.07.04l-1.75-.22-1.2,1.42s-.04.03-.06.03h-.02s-.05-.03-.06-.06l-.36-1.78-1.63-.72s-.05-.04-.05-.07.02-.06.05-.07l.95-.5ZM278.93,90.94s-.01-.06-.03-.08c-.03-.02-.06-.02-.09.01,0,0-.29.21-.68.49.09-1.08.16-2.15.16-3.25,0-6.61-1.86-12.79-5.09-18.05.64.11,1.15.2,1.15.2.03.01.06-.01.08-.04.02-.02.02-.06,0-.09,0,0-1.62-2.41-2.1-3.06.37-.74,1.49-3.23,1.49-3.23.02-.03.01-.06-.01-.08-.02-.02-.05-.03-.08-.03l-3.43.79c-.55-.64-2.47-2.78-2.47-2.78-.02-.02-.05-.04-.09-.02-.03.01-.05.04-.05.07l-.1,1.3c-5.3-5.1-12.23-8.51-19.92-9.42.59-.54,1.11-.99,1.11-.99.02-.02.03-.06.02-.09s-.04-.05-.07-.05c0,0-2.91-.2-3.72-.24-.35-.73-1.58-3.14-1.58-3.14l-.03-.03s-.04-.02-.07-.02c-.02,0-.04.02-.05.04-.01,0-1.22,2.41-1.56,3.15-.81.04-3.73.24-3.73.24-.04,0-.07.02-.08.05s0,.06.02.09c0,0,.54.48,1.14,1.02-7.72,1.01-14.65,4.56-19.92,9.79l-.13-1.73s-.02-.05-.06-.07c-.03-.01-.06,0-.09.02,0,0-1.92,2.14-2.47,2.78l-3.42-.79s-.06.01-.08.03c-.02.03-.02.06-.01.08,0,0,1.12,2.48,1.49,3.23-.45.67-2.08,3.08-2.08,3.08-.02.03-.02.06,0,.09.01.02.05.03.08.03,0,0,.8-.13,1.66-.29-3.26,5.28-5.14,11.49-5.14,18.14,0,1.22.07,2.42.2,3.6-.64-.45-1.19-.84-1.19-.84-.03-.03-.06-.03-.09-.01s-.04.05-.04.08c0,0,.4,2.85.56,3.67l-2.78,2.2s-.03.05-.03.08c.01.03.03.05.06.06,0,0,2.66.66,3.47.84.21.8,1.08,3.54,1.08,3.55.01.03.03.05.07.06h0s.06-.02.07-.05c0,0,.34-.61.73-1.31,2.58,7.03,7.37,12.98,13.52,17.05-.8.23-1.49.42-1.49.42-.03.01-.06.04-.06.07s.01.06.04.08c0,0,2.53,1.46,3.25,1.84,0,.48.05,3.55.05,3.55,0,.03.02.05.04.07.02,0,.03.01.03.01.02,0,.04-.01.05-.02l2.77-2.17,3.47,1.47s.06.01.09-.01c.02-.02.03-.06.01-.09,0,0-.27-.65-.57-1.42,3.58,1.25,7.4,1.94,11.39,1.94,3.78,0,7.42-.61,10.83-1.74-.27.67-.5,1.22-.5,1.22-.01.03,0,.07.02.08.02.03.05.03.08.02l3.47-1.47,2.77,2.18s.03.01.05.01h.03s.05-.04.05-.07c0,0,.04-3.06.04-3.55.71-.38,3.25-1.85,3.25-1.85.03-.01.04-.04.04-.07,0-.04-.02-.06-.06-.07,0,0-.52-.14-1.17-.33,6.07-3.97,10.82-9.79,13.47-16.64.26.47.45.82.45.82.01.03.05.05.07.05h.01s.06-.03.07-.06c0,0,.86-2.75,1.08-3.55.82-.18,3.47-.84,3.47-.84.03-.01.06-.03.06-.06.01-.03,0-.07-.03-.08l-2.77-2.21c.16-.83.56-3.67.56-3.67M307,203.02c.1.22.2.42.3.63-.31.16-.63.3-.95.43-.3.14-.61.29-.92.42-.09-.22-.2-.42-.29-.64.2-.4.37-.81.56-1.22.43.13.87.25,1.3.37M305.2,199.17c-.18.41-.36.82-.55,1.24-.42-.13-.85-.26-1.26-.4-1.26-2.78-2.51-5.56-3.77-8.34-.53,1.27-1.06,2.53-1.62,3.79.76-.12,1.33.21,1.54.68.72,1.66,1.45,3.33,2.18,5,.04.11.09.22.14.33.67.22,1.35.43,2.03.64-.3.64-.6,1.29-.91,1.94.42.97.85,1.94,1.26,2.91.95-.41,1.9-.84,2.84-1.27.94-.43,1.88-.88,2.81-1.33-.47-.95-.92-1.9-1.39-2.85-.69-.19-1.39-.37-2.07-.57.28-.66.56-1.31.84-1.96-.85-1.75-1.7-3.49-2.55-5.23-.22-.47-.1-1.12.5-1.62-1.32-.39-2.64-.8-3.93-1.22,1.32,2.74,2.62,5.5,3.91,8.26M263.24,204.78c-1.03-.68-2.05-1.39-3.05-2.1.63,5.25,1.25,10.48,1.88,15.72.68-.08,1.35-.17,2.03-.26-.54-4.01-1.08-8.02-1.61-12.02-.06-.53.04-1.08.75-1.34M283.38,201.66c-.16-.51-.1-1.08.56-1.46-1.14-.52-2.25-1.04-3.36-1.59,1.27,4.52,2.53,9.03,3.81,13.54.17.57.32,1.14.48,1.71.65-.19,1.3-.37,1.95-.57-1.15-3.87-2.29-7.74-3.44-11.63M251.25,215.78c-.42-.68-.85-1.36-1.26-2.06.2-.01.39-.01.59-.02.02-.52.2-.79.52-1.09.35.27.58.52.64,1.03.2-.01.39-.02.59-.03-.34.71-.7,1.44-1.08,2.16M255.89,205.6c.75.11.98.62,1.02,1.15.32,3.44.64,6.88.96,10.32-1.78.16-3.55.29-5.31.39.95-1.93,1.87-3.88,2.76-5.83-.76.06-1.54.11-2.31.17-.33-.59-1.27-1.24-2.01-1.28-.69.11-1.59.85-1.84,1.47-.78.03-1.54.05-2.32.06,1.05,1.86,2.16,3.7,3.31,5.54-1.73.06-3.46.1-5.2.11-.01-1.76-.02-3.52-.03-5.29-.96.89-1.94,1.77-2.95,2.64.6.01.98.37.97.91-.01,1.47-.03,2.93-.04,4.39,0,.97-.92,1.76-2.07,1.74-.92-.02-1.66-.54-1.92-1.23.27,1.19,1.5,2.11,2.98,2.13,1.71.02,3.07-1.17,3.06-2.64,0-.29,0-.58-.01-.87,2.16-.01,4.31-.07,6.46-.18,2.2-.1,4.4-.27,6.61-.47.09-.01.19-.02.29-.03.58-.05,1.16-.11,1.75-.18-.56-5.26-1.12-10.49-1.67-15.75-.81.93-1.64,1.83-2.49,2.73M278.38,209c.8-.02,1.12.44,1.24.95.28,1.09.55,2.17.82,3.27-2.93.73-5.86,1.39-8.82,1.94-.39.07-.8.14-1.2.22-.61-.36-1.22-.74-1.82-1.12,1.39-1.41,2.24-3.9,1.72-6.01-.33,2.91-1.65,4.98-4.91,6.16,1.48.97,2.99,1.91,4.53,2.83.67-.11,1.34-.24,2.02-.36,3.66-.69,7.3-1.53,10.92-2.49-.75-2.83-1.51-5.66-2.26-8.49-.72,1.03-1.47,2.07-2.22,3.09M288.49,205.4c-.66,1.14-1.33,2.27-2.04,3.41.56-.18,1.05.05,1.21.56.43,1.41.87,2.8,1.3,4.2.29.92-.38,1.97-1.49,2.29-.87.26-1.74-.01-2.19-.59.62,1.05,2.06,1.55,3.49,1.12,1.67-.51,2.63-2.07,2.17-3.45-.83-2.5-1.64-5.02-2.46-7.54M219.74,11.59c-.65,0-1.18.43-1.18.96,0,.48.42.88.99.95-.05-.07-.07-.17-.07-.25,0-.4.49-.72,1.1-.72.12,0,.24.02.34.04h0c0-.55-.53-.98-1.18-.98"/>
    <path class="cls-2" d="M2.55,277.27c1.24.65,2.04,1.02,2.48,1.02.36,0,1.1-.72,2.34-2.18l4.44,2.34c.88-.36,1.96-1.53,3.35-3.57-2.7-1.6-4.16-2.41-4.52-2.41-.14,0-.65.36-1.46,1.1-.81.73-1.24,1.1-1.31,1.1-.22,0-1.6-.72-4.01-2.19-1.1.95-2.18,2.11-3.28,3.42.13.21.8.65,1.96,1.37ZM13.12,298.55c.51-.22.88-.73,1.17-1.46l.51-1.46c.81-2.99,1.24-4.59,1.24-4.88,0-1.67-.65-3.2-1.96-4.44l-5.25-4.37c-1.96,2.26-3.72,4.81-5.4,7.5-2.26,3.64-3.42,6.41-3.42,8.38,0,2.11,2.04,3.13,6.19,3.13,1.82-.01,4.16-.81,6.93-2.41ZM4.37,293.01c0-.51.43-1.39,1.31-2.63.58-.81,1.17-1.6,1.82-2.41,2.7,1.96,4.52,3.94,5.47,6.05v.51c-2.34.36-4.23.58-5.61.58-1.97.01-2.99-.71-2.99-2.1ZM219.49,307.07c-.36,0-1.02.51-1.96,1.53-.95,1.1-1.46,1.75-1.53,2.11,2.41,1.89,3.79,2.84,4.23,2.84.22,0,.81-.36,1.82-1.1,1.02-.72,1.53-1.31,1.53-1.75,0-.22-.65-.88-1.96-1.96-1.25-1.09-1.97-1.67-2.12-1.67ZM170.44,282.37c0,.29.51,1.39.58,1.75-1.39.95-2.91,1.89-4.52,2.77-2.41,1.39-3.72,2.63-4.08,3.64-1.46,4.44-2.19,6.55-2.19,6.26v.81l8.83,1.75c.81-.07,1.53-.81,2.19-2.19.65-1.39,1.31-2.26,1.89-2.48.51,1.96.81,3.49,1.02,4.44.14.51.51.95,1.17,1.46.22.22.51.36.73.36h21.5l2.04-3.57c0,.51.43,1.24,1.24,2.18.81.95,1.6,1.39,2.26,1.39h23.68c.65-4.66,1.02-7.58,1.02-8.67,0-2.84-1.31-5.83-3.87-8.96l-2.99,4.88c1.82,2.63,2.99,4.95,3.65,6.93,0-.07-4.59-.07-13.84,0h-4.37c-2.41-.43-3.57-1.46-3.57-3.06,0-.43.07-1.24.29-2.41.22-1.17.29-2.11.29-2.77,0-.58-.07-1.1-.14-1.53-2.11,2.11-3.28,3.42-3.64,4.01-.22,1.1-.22,1.96-.14,2.55-.22,1.89-.43,2.99-.58,3.2h-20.19c-1.31,0-2.04-.29-2.19-.95-1.39-7.5-2.41-13.19-2.91-16.98-2.14,3.6-3.16,5.34-3.16,5.2ZM171.9,286.37c.65,2.84,1.02,4.66,1.02,5.47v1.1h-3.28c-.51,0-2.04-.36-4.44-1.1l2.99-1.39c1.31-.81,2.19-1.82,2.63-3.06.14-.51.51-.8,1.09-1.02ZM342.64,278.43l4.16,2.18c1.1-.95,2.19-2.11,3.13-3.49l-4.3-2.18-1.6,1.24c-.65.51-1.02.81-1.1.81-.14,0-.73-.36-1.82-1.02-1.1-.65-1.67-1.02-1.82-1.02-.36,0-1.46,1.1-3.28,3.28,1.53.95,3.06,1.67,4.52,2.26.65-.95,1.37-1.61,2.11-2.05ZM197.26,310.35l4.08,2.41c1.46-1.53,2.55-2.91,3.28-4.01l-4.44-2.55c-.51.36-1.39,1.24-2.7,2.55-1.67-.81-2.99-1.67-3.87-2.55-1.46,1.53-2.48,2.84-3.13,3.79.22.22.95.73,2.19,1.46,1.24.81,1.89,1.17,2.11,1.17-.21-.01.59-.73,2.48-2.26ZM144.72,290.09l-1.46-18.8c-.51.65-1.31,1.89-2.41,3.57-1.24,1.96-1.82,3.2-1.82,3.57l2.7,22.51c1.96-2.98,2.99-6.54,2.99-10.84ZM164.97,274.94c2.41,1.53,3.87,2.26,4.23,2.26.14,0,.58-.43,1.39-1.31,1.17-1.24,1.82-1.89,1.89-2.04l-4.44-2.55c-1.82,1.53-2.7,2.34-2.63,2.34-.51,0-1.75-.81-3.79-2.34l-2.99,3.49c2.26,1.53,3.57,2.26,4.01,2.26.23-.01,1.02-.73,2.34-2.12ZM103.18,279.96c-.14,0,.72-.81,2.55-2.34,2.55,1.53,4.01,2.34,4.52,2.34-.22,0,0-.14.58-.36,1.39-1.53,2.34-2.63,2.84-3.42l-4.73-2.55-1.75,1.46c-.65.65-1.1.95-1.24.95-.29,0-.81-.22-2.55-1.39-.88-.58-1.39-.88-1.46-.88-.14,0-.65.51-1.6,1.46-.95.95-1.53,1.67-1.82,2.18,1.39,1.1,2.63,1.82,3.64,2.18.59.23.95.37,1.02.37ZM385.2,284.77l-2.04,5.9c.51.29,1.46,1.17,2.99,2.55,1.82,1.67,2.7,2.91,2.7,3.64,0,1.82-1.75,4.23-5.25,7.07-3.28,2.7-5.69,4.01-7.22,4.01-.72,0-1.96-.29-3.78-.88-1.82-.58-2.77-.88-2.91-.88-.22,0-.43.07-.58.22v.65c.43.51,2.26,1.46,5.54,2.7,3.28,1.31,5.47,1.96,6.71,1.96,2.99,0,5.54-2.11,7.65-6.41,1.75-3.57,2.63-6.71,2.63-9.47,0-2.04-.51-4.08-1.6-6.05-1.26-2.18-2.86-3.86-4.83-5.02ZM369.09,271.29c-.51.65-1.31,1.89-2.41,3.57-1.24,1.96-1.82,3.2-1.82,3.57l2.7,22.51c1.96-2.99,2.99-6.55,2.99-10.85l-1.46-18.79ZM471.69,272.6c-1.17-.88-1.82-1.46-1.96-1.67-.36-.95-.51-1.6-.51-2.11l-4.37,6.78c.95,1.17,1.46,2.48,1.46,3.94,0,2.77-.51,5.02-1.53,6.71-1.17-2.11-2.99-4.52-5.54-7.22s-4.81-4.66-6.93-5.9c.07.81,0,1.31-.14,1.6h-4.37c-.51,1.96-.73,3.2-.73,3.57,0,1.53.36,2.55,1.02,2.91l6.93,4.01.88-1.75c.95.58,2.19,1.6,3.65,3.13,1.46,1.53,2.34,2.7,2.7,3.49-3.49,3.13-5.83,4.73-7,4.73-1.53,0-2.34-1.53-2.84-2.18-.51,1.31-.81,2.84-.81,4.66,0,2.04.36,3.28,1.1,3.64h15.53c.29-1.67.43-3.28.43-4.81,0-2.11-.51-4.01-1.53-5.83-.36-.58-.51-.95-.51-1.02s.36-.73,1.02-1.82c.65-1.1,1.1-1.96,1.31-2.48.51-1.53.95-3.35,1.31-5.4.43.36.88.51,1.24.51.22,0,.36,0,.43-.07,2.11-3.06,3.2-4.73,3.2-5.1-.01-.37-1.18-1.1-3.44-2.34ZM460.04,295.19c.95-.65,2.04-1.75,3.42-3.28.65,1.1,1.17,2.18,1.67,3.28-1.6.23-3.28.23-5.1,0ZM485.61,271.29c-.51.65-1.31,1.89-2.41,3.57-1.24,1.96-1.82,3.2-1.82,3.57l2.7,22.51c1.96-2.99,2.99-6.55,2.99-10.85l-1.46-18.79ZM450.12,309.84c-.51-.07-.73-.36-.73-.73,0-.07.07-.22.14-.29.81-.81,1.53-1.17,2.34-1.17,1.17,0,1.75,1.02,1.75,1.02.65-.81,1.02-1.39,1.02-1.67,0,.07-.07-.14-.22-.51-.14-.22-.36-.43-.58-.58-.81-.14-1.1-.22-.88-.22-1.02,0-1.96.43-2.91,1.31-1.53,1.39-2.18,2.84-2.11,4.37,1.31.51,2.34.88,3.13.95-1.53,1.24-2.26,2.04-2.26,2.41v.51c2.84-2.04,5.25-2.99,7.07-2.91.51-.95.88-1.6,1.1-2.11-.81.07-1.75.14-2.84.14-1.46-.01-2.77-.16-4.01-.53ZM355.39,283.69l-2.99,5.25c1.67,2.7,2.48,4.37,2.48,5.1,0,.22-.14.51-.43.88h-19.31c-.65,0-1.53-.29-2.7-.95-1.1-.65-1.82-1.24-2.04-1.75-.22-.51-.36-1.31-.36-2.26,0-.14.07-.95.22-2.41.22-1.53.29-2.55.29-3.06l-.29-.22c-.73.36-1.46,1.89-2.26,4.52-.65,2.41-1.02,4.37-1.02,5.9,0,.81,0,1.31.07,1.46.14.95.81,1.96,1.96,2.99,1.24.95,2.26,1.46,3.13,1.53.22,0,.51.22.81.22h22.44c2.11-4.16,3.13-7.65,3.13-10.49,0-1.02-.36-2.19-1.02-3.57-.65-1.39-1.38-2.48-2.11-3.13ZM437.15,283.1c-.07-.14-.22-.29-.43-.51-1.1-.07-3.35.65-6.64,2.18-1.39.65-2.77,1.82-4.01,3.49-1.1,1.53-1.89,2.99-2.41,4.44l-.95,2.41h-17.78c-.51,0-1.75-.65-2.11-.73-.36-.07-.58-.29-.65-.51-.51-3.64-1.24-10.2-2.11-19.67l-.51-5.17c-1.39,1.39-2.48,2.63-3.35,3.72-.51.65-.81,1.02-.81,1.24l2.55,26.96h24.04c.51-.43,1.02-1.31,1.53-2.55.43-1.1,1.02-1.75,1.82-2.04l11.07,4.01c1.96-3.06,2.99-4.73,3.2-5.1.36-.65.51-1.17.51-1.53,0-.65-.07-1.24-.22-1.75-1.16-3.95-2.11-6.95-2.76-8.91ZM428.19,290.17c0-.22.81-.81,2.34-1.39.65-.22,1.17-.36,1.6-.36.81,0,1.46.58,1.89,1.67.07.22.36,1.17.73,2.7l-6.56-2.63ZM129.34,295.85c-2.11-1.24-3.35-2.11-3.64-2.63-.51-.95-.81-2.48-.88-4.52-.07-3.13-.14-4.88-.22-5.25.65-.51,1.39-1.39,2.04-2.63.81-1.53,1.31-2.41,1.6-2.77-2.48-1.17-4.44-2.55-5.97-4.16-.36-.95-.51-1.75-.58-2.34h-.51c-.36.22-1.1,1.31-2.18,3.2-1.02,1.82-1.53,2.91-1.53,3.13,0,.14.29.43.88.95.65.43.95.73.95.81,1.1,4.52,1.82,7.94,2.18,10.27.36,1.67.51,2.91.51,3.64,0,.51-.14,1.02-.36,1.53h-6.71c-.81,0-2.41-1.1-2.63-2.26-.07-.07-.07-.36-.07-.72l.58-6.78-2.04,1.96c-.88.81-1.46,1.6-1.67,2.34-.22.43-.29,1.31-.29,2.63.07,1.31-.07,2.26-.43,2.84h-22.38c.65-2.41,1.17-4.01,1.46-4.66-6.05-.36-11.95-2.04-17.71-5.18-.65-.22-1.17-.43-1.53-.51-.51-.07-1.24-.14-2.18-.14h-1.46c-1.39.22-2.99,1.39-4.66,3.64-.65.81-1.24,2.04-1.82,3.64l1.96-1.1c.88-.43,1.82-.65,2.84-.65.51,0,1.6.29,3.13.81,3.28,1.1,5.1,1.75,5.47,1.89-1.31.81-2.91,1.46-4.73,1.96-.81.22-1.24.29-1.46.29h-21.43c-1.31,0-2.11-.51-2.41-1.53l-3.58-14.29-2.99,5.83c.36,1.39.81,2.7,1.17,4.01.81,2.63,1.17,4.3,1.17,5.1,0,.22-.07.43-.29.72h-12.31c-.88,0-1.39-.72-1.02-4.73-.14-.22-.29-.29-.36-.36-.81,1.02-1.31,2.34-1.6,3.87-.51,2.48-.81,4.44-.81,5.9.22.88.58,1.31,1.02,1.31h13.26c.36-.36.81-1.17,1.31-2.34.43-.95.88-1.53,1.39-1.6l1.6,3.94h24.85c.43,0,1.1-.22,1.96-.58,2.77-1.53,4.88-2.63,6.26-3.42.65-.36,1.17-.51,1.46-.51h7.79l.58,4.52h24.7l2.04-3.49c.36,1.02.73,1.67,1.02,1.96.88,1.02,1.75,1.53,2.63,1.53h12.24c.81,0,1.75.43,2.84,1.31l2.34,2.04c.36-.51.81-1.39,1.31-2.77.51-1.31.81-2.26.81-2.91-.01-.79-.96-1.65-2.93-2.75ZM293.96,272.46c-.36-.51-.51-1.31-.51-2.34-1.39,1.89-2.7,4.23-4.08,7,1.39,1.1,2.11,1.67,2.11,1.67.95,4.3,1.6,7.5,1.96,9.7.43,2.41.65,4.01.65,4.88,0,.43-.07,1.02-.22,1.75h-16.84v-.51l1.24-2.04c.51-.95.81-1.6.81-2.11,0-1.39-.81-2.63-2.34-3.87-1.53-1.24-3.13-1.82-4.81-1.82-.88,0-1.96.22-3.2.58l-2.7.88-2.99,5.69c.65-.07,1.24-.14,1.75-.14,2.19,0,3.87,1.1,5.1,3.35h-16.97c-2.77-1.1-5.69-3.57-8.67-7.43l-3.13,5.17c2.41,2.7,3.65,4.59,3.65,5.61,0,1.46-1.67,3.57-4.95,6.26-3.28,2.7-5.9,4.08-7.87,4.08-.81,0-1.89-.29-3.28-.88-1.46-.58-2.26-.88-2.34-.88-.22,0-.43.07-.51.22v.51c.65.73,2.41,1.75,5.25,2.99,2.91,1.31,5.03,1.96,6.34,1.96,2.41,0,4.81-1.82,7.22-5.47,1.96-2.84,3.06-5.32,3.42-7.36.58.65,1.1,1.02,1.53,1.02h20.48l1.96-3.35,1.89,3.35h21.65c.29,0,.81-.29,1.02-.29l1.39-7.29-1.24-10.06c0-.29.07-.51.14-.65l2.84-3.64c.65-.81,1.1-1.39,1.31-1.89-1.39-.81-2.7-1.6-4.01-2.48-1.82-1.16-2.84-1.89-3.06-2.18ZM310.5,274.87c-1.24,1.96-1.82,3.2-1.82,3.57l2.7,22.51c1.96-2.99,2.99-6.55,2.99-10.85l-1.46-18.8c-.52.66-1.32,1.89-2.41,3.58Z"/>
    <g>
      <path class="cls-2" d="M136.99,330.21c-.51.65-1.31,1.89-2.41,3.57-1.24,1.96-1.82,3.2-1.82,3.57l2.7,22.51c1.96-2.99,2.99-6.55,2.99-10.85l-1.46-18.79Z"/>
      <path class="cls-2" d="M116.08,349.59c-2.48-.36-3.72-.95-3.72-1.75,0-.58.43-1.1,1.39-1.6.81-.36,1.53-.58,2.26-.58.43,0,1.17.29,2.11.81l1.89,1.1c1.53-2.11,2.26-3.35,2.26-3.71,0-1.75-1.89-2.91-3.65-2.91-2.7,0-5.1,1.17-7.22,3.42-2.11,2.26-3.2,4.66-3.2,7.22,0,.95.81,1.6,2.34,2.04l3.13.65c-1.02.51-2.04,1.24-3.06,2.34-1.17,1.24-1.75,2.34-1.67,3.28,4.23-2.48,6.55-3.79,6.93-3.94,1.39-.58,2.91-.95,4.73-1.17l2.34-.29c1.39-1.6,2.34-3.06,2.91-4.37h-4.81c-1.68-.22-3.29-.37-4.96-.52Z"/>
      <path class="cls-2" d="M171.83,343.33l-2.11,5.9c.95.65,2.04,1.6,3.28,2.84,1.53,1.53,2.25,2.7,2.25,3.42,0,1.53-1.6,3.71-4.73,6.55-3.13,2.84-5.76,4.3-7.87,4.3-1.02,0-2.34-.29-3.87-.81-1.17-.39-1.91-.65-2.19-.75.1-.19.21-.36.3-.56,1.75-3.57,2.63-6.71,2.63-9.47,0-2.04-.51-4.08-1.6-6.05-1.24-2.18-2.84-3.87-4.81-5.02l-2.04,5.9c.51.29,1.46,1.17,2.99,2.55,1.82,1.67,2.7,2.91,2.7,3.65,0,1.82-1.75,4.23-5.25,7.07-3.28,2.7-5.69,4.01-7.22,4.01-.72,0-1.96-.29-3.78-.88-1.82-.58-2.77-.88-2.91-.88-.22,0-.43.07-.58.22v.65c.43.51,2.26,1.46,5.54,2.7,3.28,1.31,5.47,1.96,6.71,1.96,2.58,0,4.85-1.59,6.78-4.82.38.33.85.66,1.39.95.22.14.88.43,1.82.88,3.94,1.75,6.85,2.63,8.67,2.63,2.7,0,5.11-1.89,7.22-5.69,1.96-3.42,2.91-6.78,2.91-10.06-.03-4.51-2.07-8.23-6.22-11.22Z"/>
      <path class="cls-2" d="M211.76,331.38c-.36-.51-.51-1.31-.51-2.34-1.39,1.89-2.7,4.23-4.08,7,1.39,1.1,2.11,1.67,2.11,1.67.95,4.3,1.6,7.5,1.96,9.7.43,2.41.65,4.01.65,4.88,0,.43-.07,1.02-.22,1.75h-10.2c-.36-3.57-1.31-6.85-2.99-9.77-.51-.95-1.31-1.6-2.41-2.11-.07-.07-.29-.07-.65-.07-.81,0-1.46.22-2.04.73-1.24.95-2.34,2.26-3.28,4.08-.51.95-1.1,2.34-1.75,4.16-.81,1.96-1.17,3.35-1.17,4.3,0,.29,0,.58.07.81.22,1.39,2.34,2.84,3.57,3.06,1.82.36,3.94.65,6.34.81-3.35,3.94-6.85,6.34-10.49,7.22-.95.22-1.82.36-2.48.36-.07,0-1.02-.22-2.84-.73-1.75-.43-2.7-.65-2.77-.65-.51,0-.81.07-.88.14v.51c.95,1.02,2.55,1.96,4.81,2.77,2.55,1.02,4.52,1.67,5.83,2.04.51.07.95.14,1.46.14.81,0,1.46-.07,1.96-.29,1.31-.58,2.41-1.24,3.2-2.04,1.31-1.1,2.48-2.63,3.57-4.59.51-.95,1.31-2.63,2.26-5.02h12.54c.29,0,.81-.29,1.02-.29l1.39-7.29-1.24-10.06c0-.29.07-.51.14-.65l2.84-3.64c.65-.81,1.1-1.39,1.31-1.89-1.39-.81-2.7-1.6-4.01-2.48-1.8-1.19-2.81-1.92-3.04-2.21Z"/>
      <path class="cls-2" d="M196.24,353.1c-.22.14-.73.22-1.53.22-.65,0-1.02,0-1.1-.07-1.24-.22-2.04-.73-2.48-1.39-.36-.51-.51-.88-.51-1.24,0-.29.29-.73.81-1.31.72-.73,1.39-1.1,1.89-1.1.88,0,1.82,1.02,2.63,2.41.22.36.43,1.1.81,2.04l-.52.44Z"/>
      <path class="cls-2" d="M169.94,339.25c.29,0,.88-.58,1.67-1.75.88-1.17,1.31-1.82,1.31-2.04,0-.36-.51-.88-1.6-1.67-1.1-.81-1.75-1.17-2.04-1.17-.36,0-.95.51-1.75,1.53-.81.95-1.17,1.6-1.17,1.96,0,.22.51.81,1.6,1.75,1.09.95,1.75,1.39,1.96,1.39Z"/>
      <path class="cls-2" d="M228.31,333.79c-1.24,1.96-1.82,3.2-1.82,3.57l2.7,22.51c1.96-2.99,2.99-6.55,2.99-10.85l-1.46-18.8c-.52.66-1.32,1.89-2.41,3.58Z"/>
      <path class="cls-2" d="M332.58,365.63c-.22,0-.88.58-2.04,1.67-1.17,1.1-1.75,1.75-1.75,1.89,0,.22.73.81,2.11,1.6,1.46.81,2.34,1.24,2.63,1.24.36,0,1.02-.58,2.04-1.75s1.6-1.89,1.75-2.19c-.51,0-1.39-.43-2.63-1.24-1.24-.79-1.96-1.23-2.11-1.23Z"/>
      <path class="cls-2" d="M376.23,343.69c-.36-.81-.81-1.24-1.39-1.24-.22,0-.72.14-1.53.51l-1.53.51c-1.89.36-3.79,1.6-5.69,3.57-1.82,1.96-3.06,3.94-3.64,5.9-.14.36-.29.73-.51.95h-11.44c.43-1.53,1.02-3.06,1.67-4.59-2.84-.07-6.63-.88-11.44-2.26-1.1-.29-2.91-1.1-5.47-2.34-1.67-.81-3.42-1.24-5.4-1.24-1.17,0-1.82,0-1.96.07-2.41.73-4.59,3.06-6.41,7.07h.73c1.24-1.02,2.63-1.53,4.16-1.53,1.1,0,4.08.81,8.96,2.48.07.07.14.07.14.14-2.84,1.53-4.81,2.34-6.05,2.34h-12.9c-1.24,0-1.82-.58-1.89-1.67-.65-7.79-1.24-13.55-1.6-17.42-.22-1.96-.36-3.57-.58-4.88l-4.44,6.12,2.63,17.85h-18.37c-.95,0-1.53-.22-1.75-.73.51-1.89.73-3.06.73-3.42v-4.59l-1.24,1.17c-1.67,2.25-2.55,3.57-2.55,3.94,0,.07.14.58.36,1.39.22.81.36,1.31.36,1.39,0,.36,0,.65-.07.88h-5.32v-1.67l1.6-6.19c-2.7,2.26-4.16,3.87-4.52,4.73-.07,1.31-.07,2.34,0,3.13h-6.56c-.22,0-.43-.58-.43-.58-1.1-.81-1.96-1.96-2.77-3.49-.65-1.31-1.24-2.63-1.82-3.94-.65.95-1.6,2.26-2.7,4.08-.65,1.1-1.02,1.67-1.02,1.89,2.41,4.95,3.64,8.17,3.64,9.54,0,.95-1.6,1.96-4.88,2.99-2.84.88-5.11,1.31-6.63,1.31-2.11,0-3.87-.43-5.4-1.24-2.04-1.17-3.06-2.91-3.06-5.17,0-.95.88-3.64,2.63-8.17v-1.02h-.58c-1.02.65-2.19,2.7-3.42,6.12-1.24,3.42-1.89,6.34-1.89,8.6,0,4.73,3.42,7.07,10.27,7.07,2.63,0,5.31-.65,8.08-1.96,2.19-1.1,3.58-1.89,4.23-2.48,1.53-1.39,2.77-4.01,3.72-7.72h7.5l1.31-1.31c.43.58.73,1.02.81,1.31h7.87c.07-.51.29-1.1.65-1.75l1.31,1.75h17.92l2.48-3.35c.29.58.51,2.84,1.17,3.35h15.96c.36,0,1.82-.65,4.23-1.89l3.87-1.96,2.04-.65h2.99c-.36,0,1.17.07,4.59.14.36,1.6.65,3.06.73,4.37h14.29c.22,0,.88-1.1,2.11-3.2.36-.58.81-.95,1.39-1.17l10.85,3.79c1.75-2.48,2.84-4.23,3.28-5.17.14-.22.22-.65.22-1.31,0-.73-.07-1.31-.14-1.82-.95-3.3-1.83-5.71-2.49-7.31Z"/>
      <path class="cls-2" d="M373.68,352.15c-1.53-.65-3.72-1.53-6.48-2.48.81-.65,1.46-1.02,2.04-1.24.95-.36,1.6-.51,1.89-.51.36,0,.72.14,1.02.36.81,1.39,1.31,2.48,1.53,3.28v.59Z"/>
    </g>
  </g>
</svg>