<?xml version="1.0" encoding="UTF-8"?>
<svg id="Layer_1" data-name="Layer 1" xmlns="http://www.w3.org/2000/svg" viewBox="0 0 680.8 222.93">
  <defs>
    <style>
      .cls-1 {
        fill: #fff;
      }
    </style>
  </defs>
  <path class="cls-1" d="M72.57,206.35c-.32-.03-.64-.06-.96-.1-.32-.03-.64-.07-.96-.1.04-.29.08-.59.12-.87.05-.41.41-.74.88-.78.06,0,.11,0,.15-.02.35-.03.69-.13.98-.25-.06.7-.14,1.41-.21,2.11M83.22,208.66c.05-2.46.11-4.91.17-7.37-.93.77-1.88,1.51-2.85,2.26.74.2.9.71.88,1.21-.03.73-.05,1.45-.08,2.18-.64-.02-1.28-.05-1.92-.08.1-1.91.19-3.8.29-5.71-.95.74-1.93,1.46-2.91,2.18.74.22.9.74.87,1.24-.05.73-.1,1.45-.14,2.18-1.02-.07-2.04-.14-3.06-.23.37-4.45.75-8.89,1.13-13.36-.92.71-1.87,1.41-2.83,2.09.68.24.81.75.76,1.26-.16,1.6-.31,3.2-.47,4.81-.07.74-.63,1.1-1.07,1.27-.29.14-.55.18-.57.24-1.31.1-2.42.99-2.58,2.21l-.31,2.53c.76.1,1.52.19,2.28.27.21.03.41.05.62.07,1.08.12,2.15.22,3.23.3,2.85.24,5.7.38,8.55.45M63.78,206.9c.63.1,1.27.2,1.9.29.55-3.81,1.11-7.61,1.67-11.41.07-.5.33-.97,1.05-1.03-.77-.89-1.51-1.8-2.25-2.71-.79,4.95-1.58,9.91-2.37,14.87M56.53,203.83c-.31-.07-.63-.14-.94-.21s-.62-.14-.93-.21c.05-.22.1-.43.15-.66.37-.2.74-.39,1.1-.6.26.34.51.68.77,1.01-.04.23-.09.44-.14.66M61.43,193.58c.68.29.76.83.66,1.32-.61,3.23-1.21,6.46-1.82,9.69-.63-.12-1.26-.24-1.89-.36.09-.43.18-.87.27-1.32-.77-1.01-1.51-2.02-2.24-3.05-1.1.61-2.2,1.22-3.32,1.81-.11.43-.22.86-.31,1.3-.63-.16-1.26-.31-1.89-.47.48-1.84.95-3.68,1.44-5.51-1.09.53-2.19,1.04-3.31,1.54.68.35.72.89.59,1.39-.2.7-.38,1.41-.58,2.11-.28-.08-.55-.15-.82-.23v-.02c-.52-.15-1.04-.29-1.55-.44-.02-.67.09-1.33.22-2,.42-2.05.99-4.39-1.6-7.16-.75.34-1.5.7-2.26,1.03,1.83.54,2.56,2.24,2.84,3.59.27,1.63-.63,2.86-.16,4.25-.89-.27-1.8-.54-2.69-.82h0c.07-.23.14-.44.21-.65.44-1.4-.48-2.96-2.05-3.51-.12-.04-.24-.08-.34-.12-3.5-1.22-6.95-2.59-10.36-4.1.23-.52.45-1.03.68-1.54.2-.45.68-.59,1.18-.37-.52-1.14-1.02-2.28-1.51-3.43-.92,2.02-1.86,4.05-2.79,6.07,4.14,1.9,8.34,3.59,12.6,5.06.6.21.94.81.78,1.32-.07.22-.14.42-.22.64-.2.58-.39,1.16-.59,1.74-.38.17-.78.32-1.17.48-.23-.38-.44-.77-.66-1.15.2-.57.4-1.14.6-1.7-.45-.16-.9-.32-1.36-.48-.16-.06-.31-.12-.47-.18-3.45-1.27-6.85-2.67-10.21-4.22-.24.51-.47,1.02-.7,1.52,3.4,1.56,6.85,2.99,10.33,4.27-.1.27-.19.52-.29.78.64,1.13,1.31,2.26,1.99,3.38,1.21-.45,2.41-.93,3.59-1.42.09-.28.18-.55.27-.84,1.35.43,2.69.86,4.04,1.24.26.39.59.72,1,1-.19-.28-.34-.57-.46-.85,1.13.32,2.25.63,3.39.92,1.58.41,3.16.79,4.75,1.14,1.58.35,3.16.68,4.76.97.07,0,.14.03.21.04.56.11,1.12.21,1.69.3h.02c.86-4.95,1.7-9.9,2.57-14.84-.98.64-1.99,1.25-3.01,1.85M80.14,210.25c-.55-.03-.98.33-1.01.79-.02.46.38.86.94.87.55.03.99-.32,1.01-.8,0-.45-.4-.85-.94-.86M74.12,6.81c.74,0,1.33.56,1.33,1.27-.39-.4-1.95-.72-2.66,0,0-.71.6-1.27,1.34-1.27M77.44,8.45c-.56,4.21-5.96,4.21-6.15,1.1.96,3.39,6.21,1.61,4.66-2.15,2.06-.79,3.6-.84,5.27-1.11-4.31-.67-9.38-1.2-12.52.24-1.53.7-1.1,1.64-.87,2.02.25-.82,1.62-.87,2.6-.54-.74,6.34,7.37,5.59,7.02.44M23.73,192.39c-.29-.15-.59-.29-.88-.44-.29-.16-.58-.31-.87-.46.13-.26.26-.5.38-.76.19-.37.67-.52,1.14-.39.06,0,.1.04.15.04.35.1.71.13,1.03.13-.31.61-.63,1.25-.94,1.89M27.82,182.09c.57.47.51,1,.29,1.45-.72,1.44-1.43,2.89-2.14,4.32-.33.66-.98.79-1.47.8-.33.02-.6-.04-.63,0-1.28-.38-2.64.05-3.22,1.14-.39.75-.82,1.49-1.19,2.25.87.46,1.76.92,2.65,1.37.89.45,1.79.89,2.68,1.32,2.16-4.54,4.31-9.06,6.49-13.59-1.15.33-2.29.64-3.45.93M76.23,210.02c-.54-.04-1.01.3-1.05.76-.04.47.38.86.93.9.53.04,1-.29,1.03-.77.03-.45-.38-.86-.91-.89M73.9,209.84c-.55-.05-1.02.29-1.06.74-.04.46.36.87.92.91.53.05,1-.28,1.04-.75.03-.45-.37-.86-.9-.9M51.87,195.8c.48.13.97-.12,1.09-.58.11-.43-.19-.9-.66-1.03-.49-.13-.98.13-1.1.56-.14.46.17.91.67,1.05M49.74,195.22c.47.14.97-.11,1.1-.56.12-.44-.18-.91-.65-1.04-.49-.14-.98.12-1.11.54-.13.45.17.91.66,1.06M70.89,196.41c.5.06.92-.28.97-.75.05-.44-.29-.86-.78-.92-.47-.06-.91.28-.96.72-.07.47.29.89.77.95M116.61,197.88c.48-.11.81-.58.7-1.02-.11-.46-.6-.73-1.07-.62-.5.11-.81.57-.7,1.02.1.45.57.74,1.07.62M26.5,180.65c.45.24.96.09,1.17-.32.21-.4.04-.91-.4-1.15-.42-.22-.96-.07-1.17.32-.23.41-.03.92.4,1.15M71.12,194.4c.49.06.9-.26.95-.73.05-.44-.29-.86-.77-.92-.46-.06-.9.27-.95.72-.05.46.29.87.77.93M114.47,198.36c.48-.11.82-.57.72-1-.1-.46-.59-.75-1.07-.64-.49.11-.83.56-.73,1.02.09.44.57.73,1.08.62M25.57,182.44c.45.24.98.08,1.19-.34.21-.4.03-.91-.41-1.15-.43-.23-.97-.08-1.18.31-.23.42-.04.95.4,1.18M76.09,93.5c-.18-3.15-.29-6.71-.29-10.6,0-3.52.1-6.69.26-9.5,8.91-.8,21.65-1.03,33.43,2.03.85,2.53,1.32,5.22,1.32,8.02s-.47,5.48-1.31,8.01c-11.76,3.06-24.47,2.83-33.4,2.03M85.6,108.63c-2.81,0-5.56-.46-8.2-1.38-.21-1.35-.83-5.8-1.23-12.27,8.78.77,21.09.97,32.67-1.86-3.8,9.1-12.79,15.5-23.25,15.5M60.42,83.45c0-10.16,6.16-19.33,15.46-23.24-.48,3.01-1.57,11.03-1.57,22.69s1.06,20.56,1.51,23.76c-9.26-3.91-15.4-13.08-15.4-23.21M77.49,59.61c2.6-.89,5.33-1.35,8.12-1.35,10.45,0,19.42,6.39,23.24,15.47-11.6-2.83-23.94-2.61-32.71-1.85.42-6.68,1.12-10.98,1.36-12.28M85.6,56.78c-3.1,0-6.13.53-9.01,1.56-10.56,3.8-17.65,13.89-17.65,25.11s7.06,21.25,17.55,25.07c2.92,1.06,5.99,1.6,9.12,1.6,14.7,0,26.67-11.96,26.67-26.67,0-14.71-11.96-26.69-26.68-26.69M147.79,198.01c-.26.12-.53.05-.63-.17-.1-.22.03-.47.28-.59.1-.04.21-.08.29-.06-.9-.29-1.73.7-1.02,1.31-.25.15-.43.16-.56.02-.17.32-.32.66-.48.98,1.21-.53,2.41-1.09,3.61-1.65-.39-.12-.78-.25-1.16-.37.06.2-.07.42-.31.53M160.98,84.36v-2.97c0-1.49,0-2.96,0-3.66.02-2.8-.45-6.52-3.11-8.33.81,3.14.26,3.69.26,8.97v6.6c0,1.94.28,3.63.74,5.09-3.09-1.49-6.38-4.75-6.38-10.47,0-1.92-.47-9.84-2.85-13.13v13.72c0,1.81.23,3.39.64,4.8-7.23-3.67-6.52-16.16-8.88-21,0,4.2.1,7.14.1,11.32,0,2.06.31,3.84.83,5.38-6.34-4.05-7.07-11.97-7.57-17.9-.62,2.19-1.62,7.97.11,13.43-4.26-3.25-6.62-10.18-6.33-15.14-.62,2.71-1.29,6.8.05,10.9-.24,4.66-.2,41.42-.19,45.43-2.42-2-4.89-5.61-4.63-11.1.09-.89.19-1.75.3-2.56,1.69-11.47,2.04-28-2.69-41.23,3.82,20.66-.94,41.89-1.61,46.17-1.2,7.64,1.4,23.45,6.78,41-1.04-1.04-4.64-2.54-6.07-3.98,0,1.58.58,3.29.58,6.75-1.85-3.1-2.56-3.22-4.51-6.65.62,4.04.44,4.39.44,7.88-1.92-3.61-2.95-8.41-7.33-15.27-9.78-15.26-23.87-5.8-23.87-3.14,0-2.66-14.09-12.13-23.86,3.14-4.39,6.86-5.42,11.66-7.34,15.27,0-3.49-.18-3.84.44-7.88-1.97,3.44-2.67,3.56-4.51,6.65,0-3.46.58-5.17.58-6.75-1.44,1.44-5.03,2.94-6.07,3.98,5.39-17.54,7.98-33.36,6.78-41-.68-4.28-5.45-25.52-1.61-46.17-4.74,13.22-4.39,29.75-2.7,41.23.12.81.22,1.67.3,2.57.28,5.5-2.23,9.11-4.65,11.12,0-4.01.06-40.74-.18-45.46,1.34-4.1.68-8.19.05-10.9.29,4.95-2.07,11.88-6.33,15.14,1.72-5.46.72-11.22.1-13.43-.5,5.93-1.22,13.85-7.56,17.9.51-1.54.83-3.31.83-5.38,0-4.19.1-7.14.1-11.32-2.37,4.85-1.64,17.34-8.88,21,.4-1.4.64-2.99.64-4.8v-13.72c-2.38,3.29-2.85,11.21-2.85,13.13,0,5.72-3.3,8.97-6.38,10.46.47-1.46.74-3.16.74-5.09v-6.6c0-5.29-.55-5.84.26-8.97-2.66,1.82-3.13,5.52-3.11,8.33v3.66h0v2.97c0,5.98-3.6,9.27-6.79,10.65.54-.72,1.14-2.66,1.14-5.55v-28.81c0-8.1,9.46-17.41,12.96-21.52,9.69-11.36,13.91-2.12,23.67,1.18,16.23,5.5,24.88-.64,24.88-.64,8.67-5.46,8.7-10.61,8.7-13.81,0-2.17-.84-5-2.43-6.82-2.97-2.96-8.23-3.91-9.16-3.73-1.98,1.01-3.73,1.02-4.09,1.3-.91-1.81-.69-4.57,3.4-6.84,1.15-.63.72-2.08,4.22-4.12,10.19-5.95,20.17-3.79,26,2.7-2.06-.75-4.04-1.44-7.51-1.76,4.88,1.69,10.64,5.72,14.38,12.42,1.52,2.66,4.96,10.01,6.18,12.23,2.6,4.74,7.3,14.66,23.87,9.07,9.76-3.29,13.99-12.54,23.68-1.18,3.5,4.1,12.95,13.42,12.95,21.52v28.83c0,2.89.59,4.84,1.14,5.55-3.17-1.41-6.78-4.7-6.78-10.67M160.99,106.86v-8.24c0-1.36-.05-2.56-.14-3.63.48.18.92.34,1.34.49,1.37,1.37,2.94,2.35,4.44,3.11v13.34c0,2.9.59,4.85,1.14,5.56-3.18-1.4-6.76-4.68-6.78-10.63M161.12,134.82c0-.96-.13-8.97-.13-10.53,0-1.72-.07-4.67-.22-6.88.51.2.98.37,1.42.53,1.37,1.36,2.94,2.34,4.44,3.1v17.03c0,2.89.59,4.85,1.14,5.55-2.84-1.23-6.65-4.65-6.65-8.81M161.12,178.03v-6.38h0c0-4.02-.12-7.51-.12-8.71v-9.5c0-.82-.02-4.95-.05-10.29.19.08.36.15.54.21,1.52,1.76,3.37,2.96,5.15,3.84v34.08c0,2.9.59,4.85,1.14,5.56-2.84-1.24-6.65-4.81-6.65-8.81M152.5,102.05v-8.33c0-1.46-.05-2.7-.13-3.75.32.13.65.25.94.35,1.48,1.59,3.22,2.69,4.89,3.52.03,1.75-.06,3.58-.06,5.42v8.16c0,1.95.28,3.63.74,5.1-3.1-1.46-6.39-4.74-6.39-10.46M152.5,127.73v-8.33c0-1.48-.05-4.6-.14-6.96.33.13.66.25.95.36,1.48,1.57,3.22,2.68,4.88,3.51.06,2.78-.06,6.61-.06,8.63v7.89c0,.21,0,.38.02.57,0,0-.02,0-.02,0v.19c0,1.75.22,3.28.6,4.65-2.79-1.29-6.24-4.88-6.24-10.5M152.5,156.87v-8.33c0-1.44-.05-6.78-.13-10.84,1.66,2.2,3.84,3.49,5.82,4.37-.03,6.15-.05,11.09-.05,12.01v7.89c0,2.9,0,4.56.55,5.28-2.38-1.05-6.19-4.41-6.19-10.39M144.36,97.16v-7.55c0-1.55.02-2.6-.02-3.47.77.29,1.59.55,2.47.79.92.72,1.89,1.32,2.84,1.81v13.9c0,1.79.23,3.36.62,4.75-2.93-1.57-5.91-4.78-5.91-10.22M144.36,120.09v-7.54c0-2.88-.08-2.87-.09-4.28.81.34,1.55.63,2.22.87,1.01.84,2.09,1.51,3.16,2.05v17.11c0,.59.03,1.14.06,1.68-2.74-1.67-5.35-4.82-5.35-9.91M149.64,144.39v12.93c-2.72-1.69-5.29-4.83-5.29-9.87v-7.56c0-2.2-.05-7.16-.08-10.11,1.52,2.01,3.47,3.37,5.36,4.34.02,3.53,0,9.73,0,10.27M137.24,93.41v-7.59c0-1.95-.04-3.38-.14-4.46.29.15.57.29.86.44.95,1.09,2.11,2.08,3.52,2.95.02.63.02,1.26.02,1.84v11.17c0,2.07.31,3.85.84,5.4-2.65-1.7-5.1-4.81-5.1-9.74M137.24,113.71v-7.59c0-.86,0-1.6-.03-2.27.35.2.73.39,1.11.57.97.98,2.03,1.77,3.12,2.42.07.9.07,1.85.07,2.68v11.17c0,.8.05,1.55.14,2.27-2.37-1.78-4.4-4.76-4.4-9.25M141.51,136.88v9.37c-2.31-1.81-4.27-4.75-4.27-9.15v-7.59c0-1.42-.02-4.05-.07-6.1,1.22,1.61,2.71,2.81,4.24,3.73.11,3.19.1,8.81.1,9.75M129.97,91.48c0-1.73-.13-10.83-.15-16.77.99,1.71,2.42,3.37,4.45,4.88.23,1.67.12,3.76.12,5.24v9.18c0,1.71.22,3.21.58,4.57-2.78-2.04-5-4.58-5-7.1M129.87,97.08c.91,1.64,2.44,3.39,4.54,4.98,0,1.09-.02,2.19-.02,3.07v7.57c-2.51-1.96-4.42-4.31-4.42-6.65,0-1.05-.05-4.84-.1-8.96M134.39,128.51v5.42c-2.51-1.96-4.42-4.31-4.42-6.64,0-1.64-.13-9.83-.15-15.74.89,1.65,2.42,3.42,4.51,5.02.15,3.45.06,10.63.06,11.94M127.62,160c.33.77.25,2.3.6,3.01.35.71,1.13,1.2,1.36,1.55.29.48.19,1.69.56,2.54.19.39.37.8.57,1.15-.26.28-.46.6-.65.89-.59-1.32-2.03-1.46-3.13-.78-.55.35-1.21.89-1.71,1.76.21-1.5-.07-1.98-.65-2.56-.86-.86-.51-2.65-1.21-3.74-.53-.84-1.53-1.1-2.16-2.41-.64-1.29-.32-1.98-.96-3.26-.73-1.45-.91-1.92-.95-3.88.84,1.07,1.79,1.96,3.08,3.26.45-3.06.5-3.78.5-6.43,1.3,1.1,2.62,2.75,3.05,3.87.25.67.48,2.6.58,2.93.32,1.01.79,1.33,1.13,2.09M133.3,168.92c1.36.11.61,6.02,1.61,8.08,1.02,2.08.58,3.81-1.35,3.64-1.98-.19-1.86-6.17-1.87-7.22,0-1.48-.75.79-1.16,1.62-.09-.36-.17-.77-.24-1.19-.15-1.01-.04-1.66.04-2.29.53-1.41,1.58-2.73,2.96-2.63M135.05,171.33c.54-1.78,2.01-4.25,3.72-3.85,1.33.29.05,4.56.86,6.64,1.56,4.07-.63,5.46-2.53,4.97-2.11-.53-1.18-6.22-.99-7.05.05-1.34-.65-.02-1.12.73-.11-.34-.18-.58.06-1.44M141.34,172.18l12.48,8.53-.02,17.96c-19.82,11.24-42.07,17.76-64.98,18.25h-.37s-1.75,1.44-2.59,2.14h0c-.85-.7-2.59-2.14-2.59-2.14h-.37c-22.91-.48-45.15-7.01-64.98-18.25l-.02-17.96,12.47-8.53c.3.18.62.34.92.52.05,1.79-1.21,2.7-.92,4.54.24,1.52,1.17,2.61,2.29,3.13.29.67.85,1.22,1.59,1.52.76.29.67-.37.66-1.34.17-.05.32-.1.49-.18.21.73.69,1.26,1.29,1.56.28.55.77,1.05,1.75,1.71.97.45.31-.6.14-1.55.35-.09.73-.25,1.08-.48.13.29.3.55.57.74.09.07.18.13.28.2.25.99.94,1.57,2,2.17.71.24.44-.57.36-1.34.98.02,1.86-.53,2.24-2.14.19-.77.18-1.25.13-1.65,11.84,5.03,24.64,8.46,37.15,8.85.44.34,3.45,2.6,3.45,2.6,0,0,3.01-2.26,3.45-2.6,12.45-.38,25.16-3.76,36.95-8.76-.03.39-.03.86.15,1.56.39,1.6,1.26,2.15,2.23,2.14-.07.77-.33,1.56.37,1.34,1.06-.6,1.76-1.18,2.01-2.18.09-.06.19-.12.28-.19.27-.19.44-.44.57-.74.36.24.72.39,1.08.48-.19.95-.85,2.01.14,1.55.97-.65,1.48-1.15,1.75-1.71.61-.3,1.08-.85,1.29-1.56.16.08.32.13.49.18,0,.97-.11,1.62.65,1.34.75-.3,1.3-.86,1.59-1.52,1.11-.5,2.05-1.59,2.29-3.13.29-1.8-.92-2.72-.92-4.44.42-.2.79-.41,1.15-.62M31.95,174.12c.8-2.08-.48-6.35.85-6.64,1.7-.39,3.17,2.07,3.72,3.86.17.5.14,1.27.07,1.44-.48-.75-1.18-2.06-1.13-.73.19.83,1.13,6.52-.99,7.05-1.88.47-4.07-.9-2.51-4.97M38.26,168.92c1.38-.1,2.42,1.23,2.96,2.63.08.63.18,1.27.04,2.29-.06.42-.14.82-.24,1.19-.4-.84-1.15-3.11-1.15-1.62,0,1.05.1,7.04-1.88,7.22-1.94.18-2.36-1.55-1.35-3.64,1-2.06.26-7.97,1.61-8.08M45.12,173.45c-1.62,2.93-.19,8.42-2.04,8.54-5.33.34-1.38-6.33-1.17-7.99.25-2.12.02-5.24,2.09-4.59,1.86.57,4.23,6.61,5.38,8.41,0,.02.03.04.06.06-.42-.17-.85-.34-1.26-.52.12.04.22.08.27.09-1.91-.75-3-5.35-3.32-4M127.55,169.41c2.08-.65,1.86,2.47,2.09,4.59.2,1.66,4.15,8.34-1.18,7.99-1.85-.12-.41-5.61-2.03-8.54-.29-1.21-1.18,2.56-2.74,3.86-.51.22-1.02.42-1.54.63,1.24-2.07,3.61-7.98,5.41-8.53M98.54,170.19c1.33,7.75-6.3,8.18-7.45,2.21-.14-.76-.34-3.06-.59-6.1-.57-10.4-1.43-26.88-1.47-30,1.29-.82,2.83-1.44,4.39-1.86.85,5.87,4.77,33.67,5.12,35.75M99.3,134.04c.83.16,1.51.43,2.01.85.75.52,1.57,1.23,2.44,2.09,1.37,5.21,6.94,26.02,7.44,28.11.61,2.52,1.26,4.8,2.32,5.86-3.36.64-5.75,0-6.53-3.06-1.02-4.81-6.29-28.59-7.68-33.85M104.97,168.01c.44,2.56,2.49,6.2.15,6.76-3.63.88-3.94-1.13-4.53-4.25-.02-.09-5.1-33.38-5.83-36.38,1.16-.22,2.3-.29,3.32-.25.76,3.66,6.54,32.03,6.89,34.11M83.1,171.18c0-4.04.62-29.77.75-33.92,1.03.89,1.74,1.95,1.93,3.13.21-1.17.91-2.22,1.95-3.13.12,4.15.73,29.88.73,33.92,0,4.39-1.16,5.98-2.67,6.88-1.51-.9-2.67-2.5-2.67-6.88M58.39,164.82c-.99,3.51-3.38,7.16-3.94,7.72,2.05.78,5.82,1.39,8.47.33-.38,1.39-.35,2.64.83,3.82,1.44,1.44,5.52,2.49,7.5-.91,1.6,5.66,7.71,5.4,10.11,1.44,1.04,3.28,3.18,3.7,4.43,4.94,1.24-1.24,3.4-1.65,4.43-4.94,2.4,3.96,8.51,4.23,10.1-1.44,1.99,3.4,6.06,2.36,7.5.91,1.18-1.18,1.2-2.45.83-3.82,2.65,1.05,6.41.44,8.47-.33-.56-.56-2.96-4.21-3.95-7.72-1.21-4.26-5.64-19.62-7.64-25.92,5.4,6.2,11.58,16.72,11.97,22.24.17-.79.53-1.74.86-2.78,1.25,2.59,4.25,7.88,4.75,9.13.52,1.31.67,2.17.29,3.9-.28,1.26-1.42,5.07-3.86,7.52,0,0,0,.02,0,.03-9.79,3.64-20.11,5.91-30.69,6.19-.86.71-2.99,2.31-2.99,2.31,0,0-2.12-1.6-2.99-2.31-10.55-.29-20.82-2.54-30.58-6.16,0,0,.02-.02.02-.03-2.45-2.45-3.89-6.29-4.18-7.55-.37-1.73-.23-2.59.29-3.9.5-1.25,3.5-6.56,4.74-9.13.33,1.03.7,2,.86,2.78.4-5.52,6.59-16.04,11.98-22.24-2,6.3-6.43,21.66-7.64,25.92M64.6,167.88c-.79,3.07-3.16,3.7-6.53,3.06,1.05-1.06,1.71-3.34,2.32-5.86.5-2.08,6.06-22.9,7.44-28.11.86-.86,1.69-1.57,2.44-2.08.49-.41,1.18-.69,2.01-.85-1.41,5.26-6.65,29.04-7.68,33.84M78.16,134.44c1.56.41,3.11,1.04,4.39,1.86-.06,3.13-.9,19.59-1.48,29.99-.24,3.06-.44,5.35-.59,6.11-1.14,5.97-8.76,5.53-7.44-2.21.35-2.07,4.27-29.88,5.12-35.75M70.97,170.52c-.58,3.12-.9,5.13-4.53,4.25-2.34-.56-.29-4.21.15-6.76.37-2.22,6.06-29.91,6.89-34.11,1.02-.05,2.16.03,3.31.25-.72,3-5.81,36.3-5.82,36.38M41.42,167.11c.38-.85.28-2.05.57-2.54.22-.35,1-.86,1.36-1.55.35-.71.27-2.24.61-3.01.33-.77.81-1.09,1.12-2.08.1-.32.33-2.26.59-2.93.43-1.12,1.74-2.77,3.05-3.87,0,2.64.03,3.37.49,6.43,1.3-1.31,2.25-2.19,3.08-3.26-.04,1.97-.22,2.43-.94,3.88-.65,1.28-.33,1.98-.97,3.26-.63,1.3-1.63,1.57-2.16,2.41-.7,1.09-.35,2.89-1.21,3.74-.58.58-.86,1.06-.64,2.56-.51-.86-1.16-1.41-1.72-1.76-1.08-.69-2.54-.54-3.12.78-.19-.29-.4-.61-.66-.88.19-.37.38-.78.56-1.17M41.59,91.48c0,2.52-2.22,5.05-4.99,7.11.36-1.36.58-2.86.58-4.57v-9.19c0-1.46-.12-3.57.11-5.24,2.03-1.5,3.47-3.16,4.46-4.88-.03,5.94-.16,15.04-.16,16.77M37.14,102.05c2.08-1.57,3.61-3.31,4.52-4.95-.04,4.12-.09,7.89-.09,8.94,0,2.34-1.91,4.68-4.4,6.64v-7.56c0-.87-.05-1.98-.03-3.08M41.57,127.27c0,2.33-1.91,4.68-4.4,6.63v-5.41c0-1.31-.09-8.51.05-11.96,2.09-1.6,3.61-3.37,4.5-5.01-.03,5.91-.15,14.11-.15,15.75M34.31,85.83v7.59c0,4.92-2.46,8.03-5.1,9.75.52-1.54.84-3.31.84-5.39v-11.19c0-.58,0-1.21,0-1.84,1.41-.86,2.57-1.86,3.52-2.95.3-.15.58-.29.86-.44-.09,1.07-.13,2.51-.13,4.46M29.92,122.96c.08-.72.13-1.46.13-2.27v-11.17c0-.85,0-1.78.06-2.68,1.08-.65,2.15-1.44,3.12-2.42.37-.19.75-.37,1.1-.57,0,.67-.02,1.42-.02,2.27v7.59c0,4.48-2.02,7.46-4.38,9.25M34.31,129.51v7.59c0,4.4-1.96,7.34-4.27,9.15v-9.37c0-.94-.02-6.56.09-9.76,1.52-.91,3.02-2.11,4.24-3.73-.04,2.05-.06,4.7-.06,6.11M27.2,112.55v7.54c0,5.09-2.61,8.24-5.36,9.91.04-.54.06-1.09.06-1.68v-17.11c1.05-.55,2.13-1.23,3.15-2.06.66-.25,1.42-.53,2.21-.87.02,1.43-.06,1.41-.06,4.29M27.2,139.89v7.56c0,5.04-2.57,8.17-5.29,9.87v-12.93c0-.54,0-6.73,0-10.24,1.89-.99,3.83-2.35,5.36-4.35-.03,2.95-.08,7.9-.08,10.09M21.28,107.4c.4-1.39.63-2.96.63-4.75v-13.9c.95-.49,1.92-1.09,2.84-1.81.88-.23,1.7-.49,2.47-.79-.04.86-.02,1.91-.02,3.47v7.55c0,5.44-2.98,8.64-5.92,10.22M19.06,119.4v8.33c0,5.62-3.46,9.22-6.24,10.48.38-1.36.6-2.89.6-4.64v-.19s0,0,0,0c0-.19,0-.37,0-.57v-7.89c0-2.02-.12-5.85-.06-8.63,1.66-.82,3.4-1.94,4.88-3.51.3-.12.62-.25.94-.36-.08,2.37-.13,5.48-.13,6.97M19.06,148.54v8.33c0,5.98-3.81,9.34-6.19,10.38.54-.71.55-2.38.55-5.28v-7.89c0-.92-.03-5.86-.04-12.01,1.97-.88,4.14-2.16,5.81-4.37-.08,4.08-.13,9.41-.13,10.85M13.35,93.84c1.67-.83,3.42-1.93,4.89-3.52.3-.11.62-.24.94-.35-.08,1.04-.13,2.28-.13,3.75v8.33c0,5.72-3.3,8.99-6.38,10.47.47-1.47.74-3.16.74-5.1v-8.16c0-1.84-.09-3.68-.07-5.43M3.78,117.48c.54-.72,1.14-2.66,1.14-5.56v-13.33c1.5-.76,3.08-1.74,4.45-3.11.4-.16.86-.31,1.33-.49-.09,1.07-.14,2.27-.14,3.63v8.21c0,5.97-3.6,9.27-6.78,10.65M10.57,124.29c0,1.55-.14,9.56-.14,10.53,0,4.16-3.81,7.57-6.65,8.81.54-.71,1.14-2.66,1.14-5.55v-17.03c1.5-.75,3.08-1.74,4.45-3.1.43-.16.89-.34,1.41-.53-.13,2.21-.21,5.16-.21,6.88M10.57,153.44v9.5c0,1.2-.12,4.69-.13,8.71h0v6.38c0,4-3.81,7.57-6.65,8.8.54-.71,1.14-2.66,1.14-5.56v-34.08c1.77-.87,3.62-2.08,5.15-3.84.17-.06.34-.13.54-.21-.03,5.34-.05,9.48-.05,10.3M66.48,17.55v-.02c-.75.23-4.68.89-5.17.4.86-.45,1.44-.71,3.09-1.75,1.2.1,2.36.84,4.22,1.95-1.03-.42-1.14-.78-2.13-.58M169.47,122.27c.82.3,1.52.55,2.08.78-2.24-3.38-2.08-8.87-2.08-10.16v-13.08c.82.3,1.52.55,2.08.79-2.24-3.39-2.08-8.88-2.08-10.17v-30.43c0-8.42-12.88-28.83-23.77-29.1-7.74-.19-16.8,10.67-27.89,7.86-3.56-.92-6.41-4.75-8.75-9.48-4.14-8.45-8.12-19.76-18.18-26.29-11.15-7.23-23.98.85-25.46,2.13-1.26,1.16-3.27,4.63-4.34,5.18-3.5,1.82-4.07,4.88-4.07,6.03s.26,3.97,2.38,5.56c-.29-1.38-.37-2.14-.05-2.84,1.39.24,4.44.86,6.42.05.96.96,3.28,2.82,4.29,4.74,1.41,2.66,1.42,3.07,1.42,4.11,0,2.7-1.27,6.57-5.11,9.09-4.05,2.89-13.6,4.5-25.57.4-6.48-2.21-9.13-6.7-14.93-6.57-10.89.29-23.77,20.69-23.77,29.11v30.45c0,1.3.18,6.77-2.07,10.17.57-.23,1.27-.48,2.07-.79v13.08c0,1.3.18,6.77-2.07,10.16.57-.23,1.27-.47,2.07-.78v16.77c0,1.3.18,6.77-2.07,10.17.57-.23,1.27-.45,2.07-.76v33.79c0,.96.1,4.3-.81,7.32-.3,1.01.38,2.23,1.44,1.81,4.36-1.73,10.7-5.14,10.7-14.62v-5.34c3.14-1.38,6.89-3.81,8.09-9.74,3.56-1.77,7.49-4.84,8.35-11.01,3.64-2.11,7.25-5.78,7.29-12.87,3.16-2.4,5.04-5.21,5.43-7.39.27-1.47.44-4.97.51-9.03,2.29-1.67,3.94-3.57,4.88-5.31-.37,8.79-2.12,20.61-6.26,36.98.74,0,1.71-.17,2.7-.39-.55,3.29-3.35,11.16-5.24,14.72-.25-.02-.52,0-.82.03-.62.11-1.07.7-1.37,1.44-.85-1.29-1.91-3.39-4.37-2.59-1.28.42-1.76,1.43-1.86,2.5-2.05,1.29-16,9.95-16,9.95v21.55c20.71,12.26,43.51,19.65,68.12,20.16.81.81,2.99,2.48,2.99,2.48,0,0,2.19-1.67,2.99-2.48,24.61-.51,47.41-7.89,68.12-20.16v-21.55s-15.13-9.39-16.21-10.07c-.13-1.01-.61-1.97-1.85-2.37-2.48-.81-3.54,1.29-4.38,2.59-.29-.75-.75-1.34-1.38-1.44-.29-.04-.57-.05-.82-.03-1.88-3.56-4.7-11.42-5.24-14.72,1,.24,1.98.39,2.7.39-4.14-16.37-5.89-28.19-6.26-36.98.93,1.73,2.58,3.62,4.86,5.29.08,4.06.26,7.58.51,9.05.38,2.18,2.27,5,5.45,7.4.04,7.08,3.66,10.75,7.29,12.86.86,6.18,4.8,9.25,8.35,11.01,1.21,5.93,4.95,8.36,8.1,9.74v5.34c0,9.37,6.2,12.81,10.56,14.56,1.11.45,2.03-.4,1.75-1.22-1.07-3.17-.97-6.83-.97-7.86v-33.76c.82.3,1.52.49,2.08.73-2.24-3.4-2.08-8.88-2.08-10.17v-16.78h.02ZM138.28,197.13c-.29.12-.59.24-.89.35-.09-.21-.16-.41-.25-.63.2-.37.39-.75.59-1.12.4.14.81.28,1.21.41.09.21.17.41.26.62-.3.12-.61.25-.91.36M136.88,193.55c-.57,1.13-1.16,2.25-1.77,3.37.16.42.31.84.46,1.26-.61.23-1.23.45-1.85.67-1.1-3.1-2.2-6.19-3.3-9.29-.17-.47-.16-1.02.46-1.42-1.11-.43-2.2-.87-3.28-1.34,1.44,4.22,2.88,8.44,4.31,12.67.18.53.36,1.06.54,1.59.47-.16.93-.31,1.4-.48l.44-.16c1.54-.55,3.08-1.13,4.62-1.74.91-.36,1.82-.74,2.72-1.11-.38-.92-.78-1.86-1.17-2.78-1.21-.39-2.41-.82-3.59-1.25M150.66,193.43c.59-.29,1.18-.59,1.76-.89-1.77-3.41-3.56-6.82-5.33-10.23-.24-.45-.29-.98.28-1.47-1.17-.27-2.33-.55-3.47-.86,2.01,3.99,4.01,7.97,6.02,11.95.25.51.5,1.01.75,1.5M119.12,91.52s.04.05.03.08-.03.05-.06.06l-1.77.39-.39,1.54s-.04.05-.07.05h0s-.05,0-.06-.04l-.87-1.43-1.77-.05s-.06-.02-.07-.05c-.02-.03,0-.06,0-.08l1.12-1.31-.44-1.66s0-.06.03-.08c.03-.02.06-.03.09,0l1.61.71,1.4-.91s.03,0,.05,0,.03,0,.05,0h0s.03.05.03.08l-.3,1.55,1.41,1.15ZM101.36,110.3l-.79-3.04s-.04-.05-.07-.06c-.03,0-.06,0-.07.03,0,0-1.54,2.24-2.01,2.86-.78-.02-3.5-.23-3.51-.23-.03,0-.05.02-.07.05,0,.02,0,.05,0,.08l1.9,2.52c-3.39,1.29-7.08,2.01-10.92,2.01s-7.77-.77-11.26-2.15l1.79-2.38s.03-.06,0-.09c-.02-.02-.05-.05-.08-.04,0,0-2.74.21-3.51.23-.47-.61-2.01-2.86-2.01-2.86-.02-.03-.05-.04-.08-.03s-.06.03-.06.06l-.74,2.79c-6.23-3.79-11.02-9.74-13.31-16.8l2.85-.08s.05-.02.07-.05c.02-.03,0-.06,0-.08,0,0-1.79-2.01-2.3-2.6.21-.77.95-3.35.95-3.36,0-.03,0-.05-.02-.07-.03-.03-.05-.03-.08-.02l-2.64,1.17c-.21-1.44-.32-2.9-.32-4.38,0-6.24,1.88-12.06,5.1-16.92l1.74,2.07s.03.03.06.03t.02,0s.05-.03.06-.06c0,0,.46-2.66.61-3.41.74-.32,3.28-1.32,3.29-1.32.03,0,.05-.03.05-.06s-.02-.06-.05-.08l-2.51-1.3c5-5.32,11.86-8.86,19.53-9.56l-.56,2.86s0,.06.03.08c0,0,.03,0,.04,0h.04s2.37-1.37,3.06-1.71c.68.34,3.07,1.7,3.07,1.7.02,0,.06,0,.08,0,.02-.02.04-.05.03-.08l-.57-2.89c7.78.6,14.75,4.11,19.84,9.44l-2.8,1.45s-.05.05-.04.07c0,.04.02.06.05.07,0,0,2.56.99,3.28,1.32.16.74.61,3.4.61,3.4,0,.03.03.05.06.06,0,0,.02,0,.02,0,.03,0,.05,0,.06-.03l2-2.37c3.33,4.91,5.29,10.84,5.29,17.22,0,1.56-.13,3.09-.35,4.58l-3.07-1.36s-.06,0-.08,0c-.03.03-.04.06-.03.08,0,0,.76,2.59.96,3.36-.52.6-2.3,2.6-2.3,2.6-.02.03-.03.06-.02.08.02.03.05.05.08.05l3.29.09c-2.34,7.2-7.26,13.25-13.68,17.03M102.16,112.19s0,.03-.02.04l-1.4.76.02,1.8s-.02.06-.04.08h-.04s-.04,0-.05,0l-1.42-1.12-.86.36-.59.26h0s0,0,0,0c-.02,0-.05,0-.07,0,0-.02,0-.03,0-.05,0,0-.02-.03,0-.04l.24-.65.33-.89-.44-.59h0l-.61-.82s0-.03,0-.04-.02-.03,0-.05c0-.02.03-.02.04-.03,0,0,.02-.02.03-.02l1.69.05,1.04-1.37s.05-.03.07-.03c.03,0,.05.03.06.05h0l.27,1,.18.71,1.18.39.4.13s.05.04.05.07c0,0-.02,0-.03.02M74,111.24s0,.03,0,.04l-.61.81-.45.6.25.66.32.88s0,.06-.02.09c0,0,0,0-.02,0,0,0-.04.02-.06,0l-.39-.17-.78-.32s.03,0,.04.02l-.33-.14-.53.42-.88.69s-.03.02-.05.02h-.04s-.04-.04-.04-.08v-1.8s-1.39-.76-1.39-.76c-.03-.02-.04-.05-.04-.08h0s.03-.05.05-.07l.79-.26.79-.26.25-.92.2-.78s.04-.05.06-.05c.03,0,.06,0,.08.03h0l.52.69.52.69,1.68-.04s.06,0,.07.04c.04,0,.03,0,.03.02M54.38,93.61s-.04.04-.06.04h0s-.06-.04-.07-.05l-.39-1.54-1.77-.39s-.05-.03-.06-.06c0-.03,0-.06.03-.08l1.43-1.13h0l-.06-.33h0s-.25-1.22-.25-1.22c0-.02,0-.04,0-.06,0,0,0-.02.02-.02.03,0,.06,0,.09,0l1.4.91.86-.38.75-.33s.06,0,.09,0c.03.02.03.05.03.08l-.45,1.66,1.12,1.31s.03.05,0,.09c0,.03-.04.04-.06.05l-1.77.05-.88,1.41ZM58.35,65.14l.94-1.27-.8-1.62s0-.06,0-.09c.02-.03.05-.03.08-.03l1.79.4,1.03-1.22s.06-.03.09-.02.05.03.05.07l.13,1.66,1.58.83s.05.04.05.07-.02.06-.05.08l-1.55.69-.33,1.69s-.03.05-.06.06h-.02s-.05,0-.06-.03l-.42-.5-.72-.86-1.58.2h-.07s-.07,0-.08-.03c-.02-.02-.02-.05,0-.08M83.09,50.89s.03-.04.06-.04l1.58-.07.78-1.64s.04-.05.07-.05.06.02.07.05l.79,1.64h.13s1.08.06,1.08.06h0c.13,0,.27,0,.39.02.02,0,.04.02.04.04h0s0,.06-.02.09l-1.19,1.15.34,1.74s0,.06-.04.08c0,0-.03.02-.05.02,0,0-.03,0-.04,0l-1.52-.78-1.52.78s-.06,0-.08,0c-.02-.02-.04-.05-.03-.08l.16-.81.19-.93-1.19-1.15s-.03-.05-.02-.09c.02,0,.03,0,.03,0M108.81,63.39l.69-.35.13-1.66s.02-.06.05-.06c0,0,.03,0,.04,0,.02,0,.03,0,.04.02l1.03,1.22.14-.04,1.64-.37s.06,0,.08.03c.02.02.02.05,0,.08l-.8,1.62.94,1.27s.03.06,0,.09-.04.04-.07.04l-1.66-.21-1.14,1.35s-.04.03-.06.03h-.02s-.05-.03-.06-.06l-.34-1.69-1.55-.69s-.05-.04-.05-.07.02-.06.05-.07l.9-.47ZM119.43,86.47s0-.06-.03-.08c-.03-.02-.06-.02-.09,0,0,0-.28.2-.65.46.09-1.02.15-2.04.15-3.09,0-6.28-1.77-12.16-4.84-17.16.61.11,1.09.19,1.09.19.03,0,.06,0,.08-.04.02-.02.02-.06,0-.09,0,0-1.54-2.29-2-2.91.35-.71,1.42-3.07,1.42-3.07.02-.03,0-.06,0-.08-.02-.02-.05-.03-.08-.03l-3.26.75c-.52-.61-2.35-2.64-2.35-2.64-.02-.02-.05-.04-.09-.02-.03,0-.05.04-.05.07l-.1,1.24c-5.04-4.85-11.63-8.09-18.94-8.95.56-.51,1.05-.94,1.05-.94.02-.02.03-.06.02-.09s-.04-.05-.07-.05c0,0-2.77-.19-3.54-.23-.33-.7-1.5-2.99-1.5-2.99l-.03-.03s-.04-.02-.07-.02c-.02,0-.04.02-.05.04,0,0-1.16,2.29-1.48,3-.77.04-3.55.23-3.55.23-.04,0-.07.02-.08.05s0,.06.02.09c0,0,.51.45,1.08.97-7.34.96-13.93,4.33-18.94,9.31l-.13-1.64s-.02-.05-.06-.07c-.03,0-.06,0-.09.02,0,0-1.83,2.03-2.35,2.64l-3.25-.75s-.06,0-.08.03c-.02.03-.02.06,0,.08,0,0,1.06,2.36,1.42,3.07-.43.64-1.98,2.93-1.98,2.93-.02.03-.02.06,0,.09,0,.02.05.03.08.03,0,0,.76-.13,1.58-.28-3.1,5.02-4.88,10.93-4.88,17.25,0,1.16.07,2.3.19,3.42-.61-.43-1.13-.8-1.13-.8-.03-.03-.06-.03-.09,0s-.04.05-.04.08c0,0,.38,2.71.53,3.49l-2.64,2.09s-.03.05-.03.08c0,.03.03.05.06.06,0,0,2.53.63,3.3.8.2.76,1.02,3.36,1.02,3.37,0,.03.03.05.07.06h0s.06-.02.07-.05c0,0,.32-.58.7-1.25,2.46,6.68,7.01,12.35,12.86,16.21-.76.22-1.42.4-1.42.4-.03,0-.06.04-.06.07s0,.06.04.08c0,0,2.41,1.39,3.09,1.75,0,.45.05,3.37.05,3.37,0,.03.02.05.04.07.02,0,.03,0,.03,0,.02,0,.04,0,.05-.02l2.63-2.06,3.3,1.4s.06,0,.09,0c.02-.02.03-.06,0-.09,0,0-.26-.62-.54-1.35,3.4,1.19,7.04,1.85,10.83,1.85,3.6,0,7.06-.58,10.3-1.65-.26.64-.47,1.16-.47,1.16,0,.03,0,.07.02.08.02.03.05.03.08.02l3.3-1.4,2.63,2.07s.03,0,.05,0h.03s.05-.04.05-.07c0,0,.04-2.91.04-3.37.68-.36,3.09-1.76,3.09-1.76.03,0,.04-.04.04-.07,0-.04-.02-.06-.06-.07,0,0-.49-.14-1.11-.31,5.77-3.77,10.29-9.31,12.81-15.82.25.44.43.78.43.78,0,.03.05.05.07.05h0s.06-.03.07-.06c0,0,.82-2.61,1.02-3.37.78-.17,3.3-.8,3.3-.8.03,0,.06-.03.06-.06,0-.03,0-.07-.03-.08l-2.63-2.1c.15-.79.53-3.49.53-3.49M146.13,193.05c.1.21.19.4.29.6-.29.15-.6.29-.9.41-.29.14-.58.28-.87.4-.09-.21-.19-.4-.28-.61.19-.38.35-.77.53-1.16.41.13.83.24,1.24.35M144.42,189.39c-.17.39-.34.78-.52,1.18-.4-.13-.81-.25-1.2-.38-1.2-2.64-2.39-5.29-3.59-7.93-.5,1.21-1.01,2.41-1.54,3.61.73-.12,1.27.2,1.46.65.69,1.58,1.38,3.16,2.07,4.76.04.11.09.21.14.31.64.21,1.29.41,1.93.61-.29.61-.57,1.23-.86,1.85.4.92.81,1.85,1.2,2.77.9-.39,1.81-.8,2.7-1.21.89-.41,1.79-.84,2.67-1.27-.44-.9-.87-1.81-1.32-2.71-.66-.18-1.32-.35-1.97-.54.27-.63.53-1.25.8-1.87-.81-1.66-1.61-3.32-2.43-4.97-.21-.44-.1-1.06.47-1.54-1.26-.37-2.51-.76-3.74-1.16,1.26,2.6,2.49,5.23,3.72,7.85M104.51,194.72c-.98-.65-1.95-1.32-2.9-2,.6,4.99,1.19,9.97,1.79,14.95.65-.08,1.29-.16,1.93-.25-.51-3.81-1.02-7.63-1.53-11.43-.06-.5.04-1.02.72-1.28M123.67,191.76c-.15-.48-.1-1.02.53-1.39-1.08-.49-2.14-.99-3.19-1.51,1.21,4.3,2.41,8.59,3.63,12.88.16.54.3,1.08.45,1.62.62-.18,1.24-.35,1.86-.54-1.09-3.68-2.18-7.36-3.27-11.06M93.12,205.18c-.4-.65-.81-1.3-1.2-1.96.19,0,.37,0,.56-.02.02-.49.19-.75.49-1.03.33.26.55.49.61.98.19,0,.37-.02.56-.03-.32.68-.67,1.37-1.02,2.05M97.52,195.5c.72.11.93.59.97,1.09.3,3.27.61,6.55.91,9.81-1.69.15-3.37.28-5.05.37.9-1.84,1.78-3.69,2.62-5.54-.73.06-1.46.11-2.19.16-.31-.56-1.21-1.18-1.91-1.22-.66.11-1.51.81-1.75,1.4-.74.03-1.46.05-2.2.06,1,1.77,2.05,3.52,3.15,5.27-1.64.06-3.29.1-4.94.11,0-1.67-.02-3.35-.03-5.03-.91.85-1.85,1.68-2.8,2.51.57,0,.93.35.92.86,0,1.4-.03,2.78-.04,4.18,0,.92-.87,1.67-1.97,1.65-.87-.02-1.58-.51-1.83-1.17.26,1.13,1.43,2.01,2.83,2.02,1.62.02,2.92-1.11,2.91-2.51,0-.28,0-.55,0-.83,2.05,0,4.1-.07,6.14-.17,2.09-.1,4.19-.26,6.28-.44.09,0,.18-.02.28-.03.55-.05,1.1-.11,1.66-.17-.53-5-1.06-9.98-1.59-14.98-.77.88-1.56,1.74-2.37,2.59M118.91,198.74c.76-.02,1.06.42,1.18.9.27,1.03.52,2.06.78,3.11-2.78.7-5.57,1.32-8.38,1.85-.37.07-.76.14-1.14.21-.58-.34-1.16-.71-1.73-1.06,1.32-1.34,2.13-3.71,1.63-5.71-.31,2.77-1.57,4.74-4.67,5.86,1.41.92,2.84,1.82,4.31,2.69.64-.11,1.28-.23,1.92-.34,3.48-.66,6.94-1.45,10.38-2.37-.72-2.69-1.44-5.39-2.15-8.07-.69.98-1.4,1.97-2.11,2.94M128.52,195.31c-.63,1.08-1.27,2.16-1.94,3.24.53-.17,1,.05,1.15.53.41,1.34.83,2.66,1.24,3.99.28.87-.36,1.88-1.42,2.18-.83.25-1.65,0-2.08-.56.59,1,1.96,1.47,3.32,1.06,1.59-.48,2.5-1.97,2.06-3.28-.79-2.38-1.56-4.78-2.34-7.17M63.15,11.02c-.62,0-1.12.41-1.12.91,0,.45.4.84.94.9-.05-.07-.07-.16-.07-.24,0-.38.46-.69,1.04-.69.12,0,.23.02.32.04h0c0-.52-.5-.93-1.12-.93"/>
  <path class="cls-1" d="M246.21,102.09c-.48.62-1.25,1.8-2.29,3.39-1.18,1.87-1.73,3.05-1.73,3.39l2.57,21.41c1.87-2.84,2.84-6.23,2.84-10.32l-1.39-17.87ZM226.32,120.52c-2.36-.34-3.54-.9-3.54-1.66,0-.55.41-1.04,1.32-1.52.77-.34,1.45-.55,2.15-.55.41,0,1.11.28,2.01.77l1.8,1.04c1.45-2.01,2.15-3.18,2.15-3.53,0-1.66-1.8-2.77-3.47-2.77-2.57,0-4.85,1.11-6.86,3.25-2.01,2.15-3.05,4.43-3.05,6.86,0,.9.77,1.52,2.22,1.94l2.98.62c-.97.48-1.94,1.18-2.91,2.22-1.11,1.18-1.66,2.22-1.59,3.12,4.02-2.36,6.23-3.61,6.59-3.74,1.32-.55,2.77-.9,4.5-1.11l2.22-.28c1.32-1.52,2.22-2.91,2.77-4.16h-4.57c-1.6-.21-3.13-.35-4.72-.49ZM220.09,51.74c1.18.62,1.94.97,2.36.97.34,0,1.04-.69,2.22-2.07l4.23,2.22c.84-.34,1.87-1.45,3.18-3.39-2.57-1.52-3.95-2.29-4.3-2.29-.14,0-.62.34-1.39,1.04-.77.7-1.18,1.04-1.25,1.04-.21,0-1.52-.69-3.81-2.08-1.04.9-2.07,2.01-3.12,3.25.13.2.76.62,1.87,1.31ZM230.13,71.98c.48-.21.84-.7,1.11-1.39l.48-1.39c.77-2.84,1.18-4.36,1.18-4.64,0-1.59-.62-3.05-1.87-4.23l-4.99-4.16c-1.87,2.15-3.54,4.57-5.13,7.14-2.15,3.46-3.25,6.09-3.25,7.97,0,2.01,1.94,2.98,5.89,2.98,1.73,0,3.95-.77,6.59-2.29ZM221.82,66.71c0-.48.41-1.32,1.25-2.5.55-.77,1.11-1.52,1.73-2.29,2.57,1.87,4.3,3.74,5.2,5.75v.48c-2.22.34-4.02.55-5.34.55-1.88,0-2.84-.68-2.84-2ZM279.33,114.56l-2.01,5.61c.9.62,1.94,1.52,3.12,2.7,1.45,1.45,2.14,2.57,2.14,3.25,0,1.45-1.52,3.53-4.5,6.23-2.98,2.7-5.47,4.09-7.48,4.09-.97,0-2.22-.28-3.68-.77-1.11-.37-1.82-.62-2.08-.72.1-.18.2-.34.29-.53,1.66-3.39,2.5-6.38,2.5-9,0-1.94-.48-3.88-1.52-5.75-1.18-2.07-2.7-3.68-4.57-4.78l-1.94,5.61c.48.28,1.39,1.11,2.84,2.43,1.73,1.59,2.57,2.77,2.57,3.47,0,1.73-1.66,4.02-4.99,6.72-3.12,2.57-5.41,3.81-6.86,3.81-.69,0-1.87-.28-3.6-.84-1.73-.55-2.63-.84-2.77-.84-.21,0-.41.07-.55.21v.62c.41.48,2.15,1.39,5.27,2.57,3.12,1.25,5.2,1.87,6.38,1.87,2.46,0,4.61-1.51,6.45-4.58.36.31.81.63,1.32.9.21.14.84.41,1.73.84,3.74,1.66,6.52,2.5,8.25,2.5,2.57,0,4.86-1.8,6.86-5.41,1.87-3.25,2.77-6.45,2.77-9.56-.03-4.29-1.97-7.82-5.92-10.66ZM426.37,80.08c-.34,0-.97.48-1.87,1.45-.9,1.04-1.39,1.66-1.45,2.01,2.29,1.8,3.61,2.7,4.02,2.7.21,0,.77-.34,1.73-1.04.97-.69,1.45-1.25,1.45-1.66,0-.21-.62-.84-1.87-1.87-1.19-1.03-1.88-1.59-2.01-1.59ZM379.73,56.6c0,.28.48,1.32.55,1.66-1.32.9-2.77,1.8-4.3,2.63-2.29,1.32-3.54,2.5-3.88,3.46-1.39,4.23-2.08,6.23-2.08,5.96v.77l8.39,1.66c.77-.07,1.45-.77,2.08-2.08.62-1.32,1.25-2.15,1.8-2.36.48,1.87.77,3.32.97,4.23.14.48.48.9,1.11,1.39.21.21.48.34.7.34h20.44l1.94-3.39c0,.48.41,1.18,1.18,2.07.77.9,1.52,1.32,2.15,1.32h22.52c.62-4.43.97-7.2.97-8.25,0-2.7-1.25-5.54-3.68-8.52l-2.84,4.64c1.73,2.5,2.84,4.71,3.47,6.59,0-.07-4.36-.07-13.16,0h-4.16c-2.29-.41-3.39-1.39-3.39-2.91,0-.41.07-1.18.28-2.29.21-1.11.28-2.01.28-2.63,0-.55-.07-1.04-.14-1.45-2.01,2.01-3.12,3.25-3.46,3.81-.21,1.04-.21,1.87-.14,2.43-.21,1.8-.41,2.84-.55,3.05h-19.2c-1.25,0-1.94-.28-2.08-.9-1.32-7.14-2.29-12.54-2.77-16.15-2.03,3.42-3.01,5.08-3.01,4.94ZM381.12,60.4c.62,2.7.97,4.43.97,5.2v1.04h-3.12c-.48,0-1.94-.34-4.23-1.04l2.84-1.32c1.25-.77,2.08-1.73,2.5-2.91.14-.48.48-.76,1.03-.97ZM543.47,52.85l3.95,2.07c1.04-.9,2.08-2.01,2.98-3.32l-4.09-2.07-1.52,1.18c-.62.48-.97.77-1.04.77-.14,0-.7-.34-1.73-.97-1.04-.62-1.59-.97-1.73-.97-.34,0-1.39,1.04-3.12,3.12,1.45.9,2.91,1.59,4.3,2.15.62-.9,1.31-1.53,2.01-1.95ZM405.23,83.21l3.88,2.29c1.39-1.45,2.43-2.77,3.12-3.81l-4.23-2.43c-.48.34-1.32,1.18-2.57,2.43-1.59-.77-2.84-1.59-3.68-2.43-1.39,1.45-2.36,2.7-2.98,3.61.21.21.9.7,2.08,1.39,1.18.77,1.8,1.11,2.01,1.11-.2,0,.56-.7,2.36-2.15ZM355.28,63.94l-1.39-17.88c-.48.62-1.25,1.8-2.29,3.39-1.18,1.87-1.73,3.05-1.73,3.39l2.57,21.41c1.87-2.83,2.84-6.22,2.84-10.31ZM374.53,49.53c2.29,1.45,3.68,2.15,4.02,2.15.14,0,.55-.41,1.32-1.25,1.11-1.18,1.73-1.8,1.8-1.94l-4.23-2.43c-1.73,1.45-2.57,2.22-2.5,2.22-.48,0-1.66-.77-3.61-2.22l-2.84,3.32c2.15,1.45,3.39,2.15,3.81,2.15.22,0,.97-.7,2.22-2.01ZM315.77,54.31c-.14,0,.69-.77,2.43-2.22,2.43,1.45,3.81,2.22,4.3,2.22-.21,0,0-.14.55-.34,1.32-1.45,2.22-2.5,2.7-3.25l-4.5-2.43-1.66,1.39c-.62.62-1.04.9-1.18.9-.28,0-.77-.21-2.43-1.32-.84-.55-1.32-.84-1.39-.84-.14,0-.62.48-1.52,1.39-.9.9-1.45,1.59-1.73,2.07,1.32,1.04,2.5,1.73,3.46,2.07.56.22.9.35.97.35ZM317.3,103.2c-.34-.48-.48-1.25-.48-2.22-1.32,1.8-2.57,4.02-3.88,6.65,1.32,1.04,2.01,1.59,2.01,1.59.9,4.09,1.52,7.14,1.87,9.22.41,2.29.62,3.81.62,4.64,0,.41-.07.97-.21,1.66h-9.7c-.34-3.39-1.25-6.52-2.84-9.29-.48-.9-1.25-1.52-2.29-2.01-.07-.07-.28-.07-.62-.07-.77,0-1.39.21-1.94.7-1.18.9-2.22,2.15-3.12,3.88-.48.9-1.04,2.22-1.66,3.95-.77,1.87-1.11,3.18-1.11,4.09,0,.28,0,.55.07.77.21,1.32,2.22,2.7,3.39,2.91,1.73.34,3.74.62,6.03.77-3.18,3.74-6.52,6.03-9.98,6.86-.9.21-1.73.34-2.36.34-.07,0-.97-.21-2.7-.7-1.66-.41-2.57-.62-2.63-.62-.48,0-.77.07-.84.14v.48c.9.97,2.43,1.87,4.57,2.63,2.43.97,4.3,1.59,5.54,1.94.48.07.9.14,1.39.14.77,0,1.39-.07,1.87-.28,1.25-.55,2.29-1.18,3.05-1.94,1.25-1.04,2.36-2.5,3.39-4.36.48-.9,1.25-2.5,2.15-4.78h11.92c.28,0,.77-.28.97-.28l1.32-6.93-1.18-9.56c0-.28.07-.48.14-.62l2.7-3.46c.62-.77,1.04-1.32,1.25-1.8-1.32-.77-2.57-1.52-3.81-2.36-1.71-1.13-2.67-1.83-2.89-2.1ZM302.54,123.85c-.21.14-.7.21-1.45.21-.62,0-.97,0-1.04-.07-1.18-.21-1.94-.7-2.36-1.32-.34-.48-.48-.84-.48-1.18,0-.28.28-.7.77-1.25.69-.7,1.32-1.04,1.8-1.04.84,0,1.73.97,2.5,2.29.21.34.41,1.04.77,1.94l-.49.42ZM583.94,58.88l-1.94,5.61c.48.28,1.39,1.11,2.84,2.43,1.73,1.59,2.57,2.77,2.57,3.46,0,1.73-1.66,4.02-4.99,6.72-3.12,2.57-5.41,3.81-6.86,3.81-.69,0-1.87-.28-3.6-.84-1.73-.55-2.63-.84-2.77-.84-.21,0-.41.07-.55.21v.62c.41.48,2.15,1.39,5.27,2.57,3.12,1.25,5.2,1.87,6.38,1.87,2.84,0,5.27-2.01,7.27-6.09,1.66-3.39,2.5-6.38,2.5-9,0-1.94-.48-3.88-1.52-5.75-1.2-2.07-2.72-3.67-4.59-4.78ZM568.62,46.06c-.48.62-1.25,1.8-2.29,3.39-1.18,1.87-1.73,3.05-1.73,3.39l2.57,21.41c1.87-2.84,2.84-6.23,2.84-10.32l-1.39-17.87ZM277.53,110.68c.28,0,.84-.55,1.59-1.66.84-1.11,1.25-1.73,1.25-1.94,0-.34-.48-.84-1.52-1.59-1.04-.77-1.66-1.11-1.94-1.11-.34,0-.9.48-1.66,1.45-.77.9-1.11,1.52-1.11,1.87,0,.21.48.77,1.52,1.66,1.03.9,1.66,1.32,1.87,1.32ZM666.18,47.31c-1.11-.84-1.73-1.39-1.87-1.59-.34-.9-.48-1.52-.48-2.01l-4.16,6.45c.9,1.11,1.39,2.36,1.39,3.74,0,2.63-.48,4.78-1.45,6.38-1.11-2.01-2.84-4.3-5.27-6.86-2.43-2.57-4.57-4.43-6.59-5.61.07.77,0,1.25-.14,1.52h-4.16c-.48,1.87-.7,3.05-.7,3.39,0,1.45.34,2.43.97,2.77l6.59,3.81.84-1.66c.9.55,2.08,1.52,3.47,2.98,1.39,1.45,2.22,2.57,2.57,3.32-3.32,2.98-5.54,4.5-6.65,4.5-1.45,0-2.22-1.45-2.7-2.07-.48,1.25-.77,2.7-.77,4.43,0,1.94.34,3.12,1.04,3.46h14.76c.28-1.59.41-3.12.41-4.57,0-2.01-.48-3.81-1.45-5.54-.34-.55-.48-.9-.48-.97s.34-.7.97-1.73c.62-1.04,1.04-1.87,1.25-2.36.48-1.45.9-3.18,1.25-5.13.41.34.84.48,1.18.48.21,0,.34,0,.41-.07,2.01-2.91,3.05-4.5,3.05-4.85,0-.35-1.12-1.04-3.27-2.22ZM655.1,68.79c.9-.62,1.94-1.66,3.25-3.12.62,1.04,1.11,2.07,1.59,3.12-1.52.22-3.12.22-4.85,0ZM679.42,46.06c-.48.62-1.25,1.8-2.29,3.39-1.18,1.87-1.73,3.05-1.73,3.39l2.57,21.41c1.87-2.84,2.84-6.23,2.84-10.32l-1.39-17.87ZM645.67,82.72c-.48-.07-.7-.34-.7-.7,0-.07.07-.21.14-.28.77-.77,1.45-1.11,2.22-1.11,1.11,0,1.66.97,1.66.97.62-.77.97-1.32.97-1.59,0,.07-.07-.14-.21-.48-.14-.21-.34-.41-.55-.55-.77-.14-1.04-.21-.84-.21-.97,0-1.87.41-2.77,1.25-1.45,1.32-2.07,2.7-2.01,4.16,1.25.48,2.22.84,2.98.9-1.45,1.18-2.15,1.94-2.15,2.29v.48c2.7-1.94,4.99-2.84,6.72-2.77.48-.9.84-1.52,1.04-2.01-.77.07-1.66.14-2.7.14-1.39,0-2.63-.15-3.81-.5ZM555.59,57.85l-2.84,4.99c1.59,2.57,2.36,4.16,2.36,4.85,0,.21-.14.48-.41.84h-18.36c-.62,0-1.45-.28-2.57-.9-1.04-.62-1.73-1.18-1.94-1.66-.21-.48-.34-1.25-.34-2.15,0-.14.07-.9.21-2.29.21-1.45.28-2.43.28-2.91l-.28-.21c-.7.34-1.39,1.8-2.15,4.3-.62,2.29-.97,4.16-.97,5.61,0,.77,0,1.25.07,1.39.14.9.77,1.87,1.87,2.84,1.18.9,2.15,1.39,2.98,1.45.21,0,.48.21.77.21h21.34c2.01-3.95,2.98-7.27,2.98-9.98,0-.97-.34-2.08-.97-3.39-.62-1.32-1.31-2.36-2.01-2.98ZM633.34,57.29c-.07-.14-.21-.28-.41-.48-1.04-.07-3.18.62-6.31,2.07-1.32.62-2.63,1.73-3.81,3.32-1.04,1.45-1.8,2.84-2.29,4.23l-.9,2.29h-16.91c-.48,0-1.66-.62-2.01-.7-.34-.07-.55-.28-.62-.48-.48-3.46-1.18-9.7-2.01-18.7l-.48-4.91c-1.32,1.32-2.36,2.5-3.18,3.54-.48.62-.77.97-.77,1.18l2.43,25.63h22.86c.48-.41.97-1.25,1.45-2.43.41-1.04.97-1.66,1.73-1.94l10.53,3.81c1.87-2.91,2.84-4.5,3.05-4.85.34-.62.48-1.11.48-1.45,0-.62-.07-1.18-.21-1.66-1.1-3.75-2.01-6.61-2.62-8.47ZM624.82,64.01c0-.21.77-.77,2.22-1.32.62-.21,1.11-.34,1.52-.34.77,0,1.39.55,1.8,1.59.07.21.34,1.11.7,2.57l-6.24-2.5ZM340.65,69.42c-2.01-1.18-3.18-2.01-3.46-2.5-.48-.9-.77-2.36-.84-4.3-.07-2.98-.14-4.64-.21-4.99.62-.48,1.32-1.32,1.94-2.5.77-1.45,1.25-2.29,1.52-2.63-2.36-1.11-4.23-2.43-5.68-3.95-.34-.9-.48-1.66-.55-2.22h-.48c-.34.21-1.04,1.25-2.07,3.05-.97,1.73-1.45,2.77-1.45,2.98,0,.14.28.41.84.9.62.41.9.7.9.77,1.04,4.3,1.73,7.55,2.07,9.77.34,1.59.48,2.77.48,3.46,0,.48-.14.97-.34,1.45h-6.38c-.77,0-2.29-1.04-2.5-2.15-.07-.07-.07-.34-.07-.69l.55-6.45-1.94,1.87c-.84.77-1.39,1.52-1.59,2.22-.21.41-.28,1.25-.28,2.5.07,1.25-.07,2.15-.41,2.7h-21.28c.62-2.29,1.11-3.81,1.39-4.43-5.75-.34-11.36-1.94-16.84-4.92-.62-.21-1.11-.41-1.45-.48-.48-.07-1.18-.14-2.07-.14h-1.39c-1.32.21-2.84,1.32-4.43,3.46-.62.77-1.18,1.94-1.73,3.46l1.87-1.04c.84-.41,1.73-.62,2.7-.62.48,0,1.52.28,2.98.77,3.12,1.04,4.85,1.66,5.2,1.8-1.25.77-2.77,1.39-4.5,1.87-.77.21-1.18.28-1.39.28h-20.38c-1.25,0-2.01-.48-2.29-1.45l-3.4-13.58-2.84,5.54c.34,1.32.77,2.57,1.11,3.81.77,2.5,1.11,4.09,1.11,4.85,0,.21-.07.41-.28.69h-11.71c-.84,0-1.32-.69-.97-4.5-.14-.21-.28-.28-.34-.34-.77.97-1.25,2.22-1.52,3.68-.48,2.36-.77,4.23-.77,5.61.21.84.55,1.25.97,1.25h12.61c.34-.34.77-1.11,1.25-2.22.41-.9.84-1.45,1.32-1.52l1.52,3.74h23.63c.41,0,1.04-.21,1.87-.55,2.63-1.45,4.64-2.5,5.96-3.25.62-.34,1.11-.48,1.39-.48h7.41l.55,4.3h23.49l1.94-3.32c.34.97.7,1.59.97,1.87.84.97,1.66,1.45,2.5,1.45h11.64c.77,0,1.66.41,2.7,1.25l2.22,1.94c.34-.48.77-1.32,1.25-2.63.48-1.25.77-2.15.77-2.77,0-.75-.91-1.57-2.78-2.61ZM333.03,105.49c-1.18,1.87-1.73,3.05-1.73,3.39l2.57,21.41c1.87-2.84,2.84-6.23,2.84-10.32l-1.39-17.88c-.49.63-1.26,1.8-2.29,3.4ZM432.19,135.76c-.21,0-.84.55-1.94,1.59-1.11,1.04-1.66,1.66-1.66,1.8,0,.21.7.77,2.01,1.52,1.39.77,2.22,1.18,2.5,1.18.34,0,.97-.55,1.94-1.66s1.52-1.8,1.66-2.08c-.48,0-1.32-.41-2.5-1.18-1.18-.75-1.87-1.17-2.01-1.17ZM497.18,47.17c-.34-.48-.48-1.25-.48-2.22-1.32,1.8-2.57,4.02-3.88,6.65,1.32,1.04,2.01,1.59,2.01,1.59.9,4.09,1.52,7.14,1.87,9.22.41,2.29.62,3.81.62,4.64,0,.41-.07.97-.21,1.66h-16.01v-.48l1.18-1.94c.48-.9.77-1.52.77-2.01,0-1.32-.77-2.5-2.22-3.68-1.45-1.18-2.98-1.73-4.57-1.73-.84,0-1.87.21-3.05.55l-2.57.84-2.84,5.41c.62-.07,1.18-.14,1.66-.14,2.08,0,3.68,1.04,4.85,3.18h-16.14c-2.63-1.04-5.41-3.39-8.25-7.07l-2.98,4.91c2.29,2.57,3.47,4.36,3.47,5.34,0,1.39-1.59,3.39-4.71,5.96-3.12,2.57-5.61,3.88-7.48,3.88-.77,0-1.8-.28-3.12-.84-1.39-.55-2.15-.84-2.22-.84-.21,0-.41.07-.48.21v.48c.62.7,2.29,1.66,4.99,2.84,2.77,1.25,4.79,1.87,6.03,1.87,2.29,0,4.57-1.73,6.86-5.2,1.87-2.7,2.91-5.06,3.25-7,.55.62,1.04.97,1.45.97h19.47l1.87-3.18,1.8,3.18h20.58c.28,0,.77-.28.97-.28l1.32-6.93-1.18-9.56c0-.28.07-.48.14-.62l2.7-3.46c.62-.77,1.04-1.32,1.25-1.8-1.32-.77-2.57-1.52-3.81-2.36-1.73-1.1-2.7-1.8-2.91-2.07ZM473.69,114.9c-.34-.77-.77-1.18-1.32-1.18-.21,0-.69.14-1.45.48l-1.45.48c-1.8.34-3.61,1.52-5.41,3.39-1.73,1.87-2.91,3.74-3.46,5.61-.14.34-.28.7-.48.9h-10.88c.41-1.45.97-2.91,1.59-4.36-2.7-.07-6.3-.84-10.88-2.15-1.04-.28-2.77-1.04-5.2-2.22-1.59-.77-3.25-1.18-5.13-1.18-1.11,0-1.73,0-1.87.07-2.29.7-4.36,2.91-6.09,6.72h.7c1.18-.97,2.5-1.45,3.95-1.45,1.04,0,3.88.77,8.52,2.36.07.07.14.07.14.14-2.7,1.45-4.57,2.22-5.75,2.22h-12.27c-1.18,0-1.73-.55-1.8-1.59-.62-7.41-1.18-12.89-1.52-16.56-.21-1.87-.34-3.39-.55-4.64l-4.23,5.82,2.5,16.97h-17.47c-.9,0-1.45-.21-1.66-.7.48-1.8.7-2.91.7-3.25v-4.36l-1.18,1.11c-1.59,2.14-2.43,3.39-2.43,3.74,0,.07.14.55.34,1.32s.34,1.25.34,1.32c0,.34,0,.62-.07.84h-5.06v-1.59l1.52-5.89c-2.57,2.15-3.95,3.68-4.3,4.5-.07,1.25-.07,2.22,0,2.98h-6.24c-.21,0-.41-.55-.41-.55-1.04-.77-1.87-1.87-2.63-3.32-.62-1.25-1.18-2.5-1.73-3.74-.62.9-1.52,2.15-2.57,3.88-.62,1.04-.97,1.59-.97,1.8,2.29,4.71,3.46,7.76,3.46,9.07,0,.9-1.52,1.87-4.64,2.84-2.7.84-4.86,1.25-6.3,1.25-2.01,0-3.68-.41-5.13-1.18-1.94-1.11-2.91-2.77-2.91-4.91,0-.9.84-3.46,2.5-7.76v-.97h-.55c-.97.62-2.08,2.57-3.25,5.82-1.18,3.25-1.8,6.03-1.8,8.18,0,4.5,3.25,6.72,9.77,6.72,2.5,0,5.05-.62,7.69-1.87,2.08-1.04,3.4-1.8,4.02-2.36,1.45-1.32,2.63-3.81,3.54-7.34h7.14l1.25-1.25c.41.55.7.97.77,1.25h7.48c.07-.48.28-1.04.62-1.66l1.25,1.66h17.04l2.36-3.18c.28.55.48,2.7,1.11,3.18h15.18c.34,0,1.73-.62,4.02-1.8l3.68-1.87,1.94-.62h2.84c-.34,0,1.11.07,4.36.14.34,1.52.62,2.91.7,4.16h13.58c.21,0,.84-1.04,2.01-3.05.34-.55.77-.9,1.32-1.11l10.32,3.61c1.66-2.36,2.7-4.02,3.12-4.91.14-.21.21-.62.21-1.25,0-.7-.07-1.25-.14-1.73-.9-3.14-1.74-5.43-2.37-6.95ZM471.27,122.95c-1.45-.62-3.54-1.45-6.16-2.36.77-.62,1.39-.97,1.94-1.18.9-.34,1.52-.48,1.8-.48.34,0,.69.14.97.34.77,1.32,1.25,2.36,1.45,3.12v.56ZM512.91,49.46c-1.18,1.87-1.73,3.05-1.73,3.39l2.57,21.41c1.87-2.84,2.84-6.23,2.84-10.32l-1.39-17.88c-.49.63-1.26,1.8-2.29,3.4Z"/>
</svg>