<?xml version="1.0" encoding="UTF-8"?>
<svg id="Layer_1" xmlns="http://www.w3.org/2000/svg" version="1.1" viewBox="0 0 85.72 48.02">
  <!-- Generator: Adobe Illustrator 30.4.0, SVG Export Plug-In . SVG Version: 2.1.4 Build 226)  -->
  <defs>
    <style>
      .st0 {
        fill: #e0e21d;
      }

      .st1 {
        opacity: .5;
      }

      .st2 {
        fill: #e2e419;
      }
    </style>
  </defs>
  <g>
    <g>
      <path d="M11.46,33.92c.15,0,.27.12.27.27v9.15c0,.06-.09.11-.2.11h-2.06v-2.62h-3.52v2.63h-2.06c-.11,0-.2-.05-.2-.11v-7.16c0-.07.09-.11.2-.11h2.06v2.6h3.52v-2.6h-3.52c0-1.26.64-2.15,1.6-2.15h3.91Z"/>
      <path d="M20.71,35.37c.15,0,.28.13.28.27v1.99h-.79c.31.57.49,1.22.49,1.92,0,.97-.35,1.76-.92,2.35.58.36.92.95.92,1.93,0,2.45-1.85,3.27-4.13,3.27v-2.26c1.03,0,1.87-.05,1.87-1,0-.74-.84-.74-1.87-.74-2.28,0-4.13-1.29-4.13-3.53s1.85-4.07,4.13-4.07c.96,0,1.85.33,2.55.87.27-.6.74-.98,1.34-.98h.27ZM14.69,39.55c0,1,.84,1.8,1.87,1.8s1.87-.81,1.87-1.8-.84-1.81-1.87-1.81-1.87.81-1.87,1.81Z"/>
      <path d="M29.86,38.68c.03.19.14.6.14,1.46,0,.15-.13.27-.28.27h-3.94c-.96,0-1.6-.47-1.6-1.73-.15.26-.23.55-.23.86,0,1,.84,1.8,1.87,1.8.51,0,.99-.2,1.34-.55.09-.09.25-.13.37-.06l1.55.9c.12.07.15.21.07.31-.78,1.04-2.01,1.66-3.33,1.66-2.28,0-4.13-1.82-4.13-4.06s1.85-4.07,4.13-4.07c1.98,0,3.63,1.38,4.04,3.21ZM24.18,38.68h3.29c-.32-.56-.94-.94-1.64-.94s-1.32.39-1.64.94Z"/>
      <path d="M32.96,43.45h-2.06c-.11,0-.2-.07-.2-.15v-5.23c0-.09.09-.16.2-.16h2.06v5.55ZM38.37,35.91v7.53h-2.06c-.11,0-.2-.05-.2-.11v-5.43h-3.15c0-1.26.64-2.26,1.6-2.26h3.54c.15,0,.27.12.27.27Z"/>
      <path d="M42.35,33.92v1.72h.69c.96,0,1.6.9,1.6,2.15h-2.28v3.39h-2.06c-.11,0-.2-.07-.2-.15v-3.24h-.51c-.15,0-.27-.12-.27-.27v-1.61c0-.15.12-.27.27-.27h.51v-1.56c0-.09.09-.16.2-.16h2.06ZM45.63,41.19v1.99c0,.15-.13.27-.27.27h-1.42c-.96,0-1.6-1.01-1.6-2.27h3.29Z"/>
      <path d="M48.83,43.45h-1.99c-.15,0-.27-.12-.27-.27v-5.45c0-.96,1.01-1.6,2.27-1.6v7.32ZM48.72,34.77c0,.56-.45,1.02-1.02,1.02s-1.02-.46-1.02-1.02.46-1.02,1.02-1.02,1.02.46,1.02,1.02Z"/>
      <path d="M56.99,37.13c.08.11.05.25-.07.32l-1.55.89c-.11.07-.27.03-.37-.06-.35-.35-.83-.55-1.34-.55-1.03,0-1.87.81-1.87,1.81s.84,1.8,1.87,1.8c.51,0,.99-.2,1.34-.55.09-.09.25-.13.37-.06l1.55.9c.12.07.15.21.07.31-.78,1.04-2.01,1.66-3.33,1.66-2.28,0-4.13-1.82-4.13-4.06s1.85-4.07,4.13-4.07c1.32,0,2.55.62,3.33,1.66Z"/>
      <path d="M69.15,33.92c.15,0,.27.12.27.27v9.15c0,.06-.09.11-.2.11h-2.06v-2.62h-3.52v2.63h-2.06c-.11,0-.2-.05-.2-.11v-7.16c0-.07.09-.11.2-.11h2.06v2.6h3.52v-2.6h-3.52c0-1.26.64-2.15,1.6-2.15h3.91Z"/>
      <path d="M70.56,33.92h1.86c.11,0,.2.09.2.2v9.14c0,.11-.09.2-.2.2h-1.86c-.11,0-.2-.09-.2-.2v-9.14c0-.11.09-.2.2-.2Z"/>
    </g>
    <g class="st1">
      <path d="M5.49,30.6h-1.36c-.07,0-.13-.03-.13-.07v-3.24s.06-.07.13-.07h1.36v3.38ZM9.2,25.79c.1,0,.18.08.18.18v1.13c0,.1-.08.18-.18.18h-3.71c0-.83.42-1.5,1.06-1.5h2.66ZM9.2,28.23c.1,0,.18.08.18.18v2.19c0,.83-.42,1.49-1.06,1.49h-2.66c-.1,0-.18-.08-.18-.18v-1.13c0-.1.08-.18.18-.18h2.22v-.95h-2.04v-1.42h3.36Z"/>
      <path d="M15.3,29.51c0,1.48-1.22,2.69-2.73,2.69s-2.73-1.2-2.73-2.69,1.22-2.69,2.73-2.69,2.73,1.2,2.73,2.69ZM11.33,29.51c0,.66.55,1.19,1.24,1.19s1.24-.53,1.24-1.19-.55-1.2-1.24-1.2-1.24.54-1.24,1.2Z"/>
      <path d="M15.98,26.93c.58,0,.76.21,1.06.86l1.01,2.48,1.01-2.48c.29-.66.48-.86,1.06-.86h.79l-2.11,5.17h-1.49l-2.11-5.17h.79Z"/>
      <path d="M22.84,28.23h3.39c.07,0,.13.03.13.07v2.22s-.06.07-.13.07h-1.36v-.95h-3.39c-.07,0-.13-.03-.13-.07v-2.22s.06-.07.13-.07h1.36v.95ZM23.81,32.09h-2.29c-.1,0-.18-.08-.18-.18v-1.13c0-.1.08-.18.18-.18h3.34c0,.83-.42,1.49-1.06,1.49ZM26.18,25.79c.1,0,.18.08.18.18v1.13c0,.1-.08.18-.18.18h-3.34c0-.83.42-1.5,1.06-1.5h2.29Z"/>
      <path d="M31.46,26.93c.1,0,.18.08.18.18v3.93c0,.69-.38,1.06-1.06,1.06h-2.11v1.7h-1.36c-.07,0-.13-.04-.13-.1v-5.27h1.49v2.25h1.67v-2.25h-1.67c0-.83.42-1.49,1.06-1.49h1.93Z"/>
      <path d="M33.74,32.09h-1.36c-.07,0-.13-.04-.13-.1v-3.46c0-.06.06-.11.13-.11h1.36v3.67ZM35.91,27.11v1.31h-2.17c0-.83.42-1.49,1.06-1.49h.93c.1,0,.18.08.18.18Z"/>
      <path d="M38.02,32.09h-1.31c-.1,0-.18-.08-.18-.18v-3.6c0-.63.67-1.06,1.5-1.06v4.84ZM37.95,26.36c0,.37-.3.67-.67.67s-.67-.3-.67-.67.3-.67.67-.67.67.3.67.67Z"/>
      <path d="M40.13,32.09h-1.36c-.07,0-.13-.04-.13-.1v-3.46c0-.06.06-.11.13-.11h1.36v3.67ZM43.7,27.11v4.98h-1.36c-.07,0-.13-.03-.13-.07v-3.59h-2.08c0-.83.42-1.49,1.06-1.49h2.34c.1,0,.18.08.18.18Z"/>
      <path d="M46.33,25.79v1.14h.45c.64,0,1.06.59,1.06,1.42h-1.51v2.24h-1.36c-.07,0-.13-.04-.13-.1v-2.14h-.34c-.1,0-.18-.08-.18-.18v-1.06c0-.1.08-.18.18-.18h.34v-1.03c0-.06.06-.11.13-.11h1.36ZM48.5,30.6v1.31c0,.1-.08.18-.18.18h-.94c-.63,0-1.06-.67-1.06-1.5h2.17Z"/>
      <path d="M50.61,28.8h3.04c.07,0,.13.03.13.07v1.73s-.06.07-.13.07h-1.36v-.44h-3.04c-.07,0-.13-.04-.13-.07v-1.72s.06-.07.13-.07h1.36v.45ZM51.23,32.16h-1.93c-.1,0-.18-.08-.18-.18v-1.13c0-.1.08-.18.18-.18h2.99c0,.83-.42,1.49-1.06,1.49ZM53.6,26.86c.1,0,.18.08.18.18v1.13c0,.1-.08.18-.18.18h-2.99c0-.83.42-1.49,1.06-1.49h1.93Z"/>
    </g>
  </g>
  <g>
    <path class="st0" d="M68.48,28.2c-6.04,0-10.96-4.92-10.96-10.96,0-1.59.33-3.11.99-4.55l1.78.81c-.54,1.17-.81,2.43-.81,3.73,0,4.96,4.04,9,9,9,1.5,0,2.98-.38,4.29-1.09l.93,1.72c-1.59.87-3.4,1.33-5.23,1.33Z"/>
    <path class="st2" d="M78.71,21.07l-1.83-.69c.27-.72.45-1.47.53-2.25.46-4.49-2.49-8.65-6.87-9.69l.45-1.9c5.33,1.26,8.93,6.33,8.37,11.79-.1.94-.31,1.86-.64,2.74Z"/>
    <path class="st0" d="M74.53,30.78l-.88-1.75.09-.04c5.35-2.39,8.42-8.09,7.46-13.87l1.93-.32c1.11,6.65-2.43,13.22-8.59,15.98Z"/>
    <path class="st0" d="M55.43,24.32c-1.21-2.22-1.83-4.74-1.79-7.28.06-3.96,1.65-7.67,4.49-10.43s6.59-4.27,10.55-4.2c1.92.03,3.79.42,5.55,1.16l-.76,1.8c-1.53-.64-3.15-.98-4.82-1-3.42-.06-6.7,1.25-9.16,3.65-2.47,2.4-3.85,5.62-3.9,9.06-.03,2.21.51,4.39,1.55,6.32l-1.72.93Z"/>
    <path class="st0" d="M68.48,24.32c-3.9,0-7.08-3.18-7.08-7.08s3.18-7.08,7.08-7.08,7.08,3.18,7.08,7.08-3.18,7.08-7.08,7.08ZM68.48,12.12c-2.82,0-5.12,2.3-5.12,5.12s2.3,5.12,5.12,5.12,5.12-2.3,5.12-5.12-2.3-5.12-5.12-5.12Z"/>
  </g>
</svg>