<?xml version="1.0" encoding="UTF-8"?>
<svg id="Layer_1" data-name="Layer 1" xmlns="http://www.w3.org/2000/svg" viewBox="0 0 140.18 48.02">
  <defs>
    <style>
      .cls-1 {
        opacity: .65;
      }

      .cls-2 {
        fill: #e2e419;
      }
    </style>
  </defs>
  <g>
    <path class="cls-2" d="M38.85,42.5c-6.04,0-10.96-4.92-10.96-10.96,0-1.59.33-3.11.98-4.55l1.78.81c-.54,1.17-.81,2.43-.81,3.73,0,4.96,4.04,9,9,9,1.5,0,2.99-.38,4.29-1.09l.93,1.72c-1.59.87-3.4,1.33-5.23,1.33Z"/>
    <path class="cls-2" d="M49.45,34.32l-1.89-.5c.2-.74.29-1.51.29-2.29,0-4.51-3.37-8.35-7.83-8.93l.25-1.94c5.44.71,9.54,5.38,9.54,10.87,0,.94-.12,1.88-.36,2.79Z"/>
    <path class="cls-2" d="M53.69,31.62h-1.96s0-.09,0-.09c0-5.86-3.96-10.99-9.62-12.47l.49-1.89c6.53,1.7,11.09,7.61,11.09,14.36v.09Z"/>
    <path class="cls-2" d="M38.85,46.38c-8.18,0-14.84-6.66-14.84-14.84,0-1.92.36-3.8,1.08-5.57l1.81.73c-.62,1.54-.94,3.16-.94,4.83,0,7.11,5.78,12.89,12.89,12.89,2.21,0,4.39-.57,6.3-1.64l.96,1.71c-2.2,1.24-4.71,1.89-7.26,1.89Z"/>
    <path class="cls-2" d="M24.85,43.97c-3.05-3.43-4.73-7.85-4.73-12.44,0-1.94.3-3.86.88-5.69l1.86.59c-.52,1.64-.79,3.36-.79,5.1,0,4.11,1.5,8.07,4.23,11.14l-1.46,1.3Z"/>
    <path class="cls-2" d="M54.89,26.63c-1.44-4.71-4.86-8.53-9.39-10.49l.78-1.8c5.05,2.19,8.87,6.46,10.48,11.72l-1.87.57Z"/>
    <path class="cls-2" d="M19.29,42.88c-1.99-3.43-3.05-7.35-3.05-11.34,0-1.84.22-3.67.66-5.43l1.9.47c-.4,1.61-.6,3.29-.6,4.97,0,3.64.96,7.23,2.78,10.36l-1.69.98Z"/>
    <path class="cls-2" d="M55.58,19.43c-1.89-2.61-4.41-4.78-7.27-6.26l.9-1.74c3.13,1.62,5.88,3.99,7.95,6.85l-1.58,1.15Z"/>
    <path class="cls-2" d="M12.86,36.71c-.33-1.69-.5-3.43-.5-5.17,0-1.05.06-2.11.19-3.15l1.94.23c-.11.96-.17,1.95-.17,2.92,0,1.61.16,3.22.47,4.79l-1.92.38Z"/>
    <path class="cls-2" d="M59.23,17.88c-2.15-3.2-5.05-5.88-8.4-7.76l.96-1.71c3.62,2.03,6.76,4.93,9.07,8.38l-1.62,1.09Z"/>
    <path class="cls-2" d="M59.55,12.07c-2.06-2.19-4.44-4.03-7.06-5.47l.94-1.72c2.81,1.54,5.35,3.51,7.55,5.84l-1.42,1.34Z"/>
    <path class="cls-2" d="M8.47,31.62v-.09c0-1.49.11-2.98.32-4.44l1.94.28c-.2,1.37-.3,2.77-.3,4.16v.08s-1.96,0-1.96,0Z"/>
    <path class="cls-2" d="M6.73,28.11l-1.95-.21c.1-.93.24-1.87.41-2.79l1.92.36c-.16.87-.29,1.75-.39,2.63Z"/>
    <path class="cls-2" d="M38.85,38.61c-3.9,0-7.08-3.18-7.08-7.08s3.18-7.08,7.08-7.08,7.08,3.18,7.08,7.08-3.18,7.08-7.08,7.08ZM38.85,26.41c-2.82,0-5.12,2.3-5.12,5.12s2.3,5.12,5.12,5.12,5.12-2.3,5.12-5.12-2.3-5.12-5.12-5.12Z"/>
    <path class="cls-2" d="M58.35,5.79c-1.18-.9-2.44-1.72-3.73-2.44l.96-1.71c1.37.77,2.7,1.64,3.95,2.59l-1.18,1.56Z"/>
  </g>
  <g>
    <g class="cls-1">
      <path d="M61.12,27.1v-4.22c0-1.13.71-1.86,1.86-1.86s1.86.72,1.86,1.86v.62h-.78v-.62c0-.69-.4-1.12-1.08-1.12s-1.08.43-1.08,1.12v4.22c0,.69.39,1.12,1.08,1.12s1.08-.43,1.08-1.12v-1.85h-1.08v-.7h1.86v2.55c0,1.13-.71,1.86-1.86,1.86s-1.86-.72-1.86-1.86Z"/>
      <path d="M66.05,27.1v-4.22c0-1.13.71-1.86,1.86-1.86s1.86.72,1.86,1.86v4.22c0,1.13-.71,1.86-1.86,1.86s-1.86-.72-1.86-1.86ZM68.99,27.1v-4.22c0-.69-.4-1.12-1.08-1.12s-1.08.43-1.08,1.12v4.22c0,.69.39,1.12,1.08,1.12s1.08-.43,1.08-1.12Z"/>
      <path d="M70.51,21.09h.79l.96,5.12c.11.55.25,1.59.25,1.59,0,0,.15-1.02.26-1.59l.96-5.12h.79l-1.52,7.79h-.94l-1.55-7.79Z"/>
      <path d="M75.29,27.1v-.67h.78v.67c0,.69.39,1.12,1.08,1.12s1.08-.43,1.08-1.12c0-.36-.15-.72-.55-1.1l-1.59-1.48c-.58-.55-.8-1-.8-1.66,0-1.11.69-1.84,1.83-1.84s1.82.72,1.82,1.86v.67h-.78v-.67c0-.69-.39-1.12-1.04-1.12s-1.05.43-1.05,1.12c0,.37.12.68.5,1.04l1.57,1.46c.48.45.88.95.88,1.73,0,1.13-.71,1.86-1.86,1.86s-1.86-.72-1.86-1.86Z"/>
      <path d="M80.2,21.09h1.83c1.15,0,1.86.72,1.86,1.86v1.31c0,1.15-.71,1.86-1.86,1.86h-1.05v2.77h-.78v-7.79ZM82.03,25.38c.68,0,1.08-.41,1.08-1.1v-1.35c0-.68-.4-1.1-1.08-1.1h-1.05v3.55h1.05Z"/>
      <path d="M85.01,21.09h1.86c1.15,0,1.86.72,1.86,1.86v1.11c0,.77-.35,1.35-.93,1.64l1.05,3.18h-.8l-.97-2.99c-.09.02-.23.02-.3.02h-.98v2.97h-.78v-7.79ZM86.87,25.19c.68,0,1.08-.42,1.08-1.11v-1.15c0-.68-.4-1.1-1.08-1.1h-1.08v3.36h1.08Z"/>
      <path d="M89.94,21.09h.78v7.79h-.78v-7.79Z"/>
      <path d="M91.99,22.88c0-1.13.71-1.86,1.86-1.86s1.86.72,1.86,1.86v6.01h-.78v-6.01c0-.69-.4-1.12-1.08-1.12s-1.08.43-1.08,1.12v6.01h-.78v-6.01Z"/>
      <path d="M97.81,21.83h-1.49v-.73h3.76v.73h-1.49v7.06h-.78v-7.06Z"/>
      <path d="M100.76,27.1v-.67h.78v.67c0,.69.39,1.12,1.08,1.12s1.08-.43,1.08-1.12c0-.36-.15-.72-.55-1.1l-1.59-1.48c-.58-.55-.8-1-.8-1.66,0-1.11.69-1.84,1.83-1.84s1.82.72,1.82,1.86v.67h-.78v-.67c0-.69-.39-1.12-1.04-1.12s-1.05.43-1.05,1.12c0,.37.12.68.5,1.04l1.57,1.46c.48.45.88.95.88,1.73,0,1.13-.71,1.86-1.86,1.86s-1.86-.72-1.86-1.86Z"/>
    </g>
    <g>
      <path d="M66.97,46.23v-4.35h-3.18v4.35h-2.12v-11.23c0-2.28,1.42-3.72,3.72-3.72s3.7,1.44,3.7,3.72v11.23h-2.12ZM63.78,39.99h3.18v-4.99c0-1.05-.57-1.68-1.58-1.68s-1.6.64-1.6,1.68v4.99Z"/>
      <path d="M78.76,37.73v4.93c0,2.28-1.42,3.72-3.7,3.72s-3.72-1.44-3.72-3.72v-7.66c0-2.28,1.42-3.72,3.72-3.72s3.7,1.44,3.7,3.72v1.15h-2.12v-1.15c0-1.05-.57-1.68-1.58-1.68s-1.6.64-1.6,1.68v7.66c0,1.05.57,1.68,1.6,1.68s1.58-.64,1.58-1.68v-3.04h-1.58v-1.89h3.7Z"/>
      <path d="M87.3,33.42h-4.13v4.11h2.96v1.99h-2.96v4.72h4.23v1.99h-6.35v-14.81h6.24v1.99Z"/>
      <path d="M94.47,46.23v-11.23c0-1.05-.57-1.68-1.58-1.68s-1.6.64-1.6,1.68v11.23h-2.12v-11.23c0-2.28,1.42-3.72,3.72-3.72s3.7,1.44,3.7,3.72v11.23h-2.12Z"/>
      <path d="M100.34,46.23v-12.82h-2.61v-1.99h7.33v1.99h-2.61v12.82h-2.12Z"/>
      <path d="M106.46,46.23v-14.81h2.12v14.81h-2.12Z"/>
      <path d="M118.29,41.3v1.36c0,2.28-1.42,3.72-3.7,3.72s-3.72-1.44-3.72-3.72v-7.66c0-2.28,1.42-3.72,3.72-3.72s3.7,1.44,3.7,3.72v1.36h-2.12v-1.36c0-1.05-.57-1.68-1.58-1.68s-1.6.64-1.6,1.68v7.66c0,1.05.57,1.68,1.6,1.68s1.58-.64,1.58-1.68v-1.36h2.12Z"/>
      <path d="M128.83,46.23v-4.35h-3.18v4.35h-2.12v-11.23c0-2.28,1.42-3.72,3.72-3.72s3.7,1.44,3.7,3.72v11.23h-2.12ZM125.64,39.99h3.18v-4.99c0-1.05-.57-1.68-1.58-1.68s-1.6.64-1.6,1.68v4.99Z"/>
      <path d="M133.28,46.23v-14.81h2.12v14.81h-2.12Z"/>
    </g>
  </g>
</svg>